<svg width="25" height="25" viewBox="0 0 25 25" fill="none" xmlns="http://www.w3.org/2000/svg">
<circle cx="12.5" cy="12.5" r="12.5" fill="#F4F4F4"/>
<path d="M9.95652 17H8V10.8636H9.95652V17ZM8.97865 10.0455C8.43748 10.0455 8 9.58686 8 9.02232C8 8.45777 8.43826 8 8.97865 8C9.51787 8 9.95652 8.45859 9.95652 9.02232C9.95652 9.58686 9.51787 10.0455 8.97865 10.0455ZM17 17H15.119V14.0136C15.119 13.3014 15.1061 12.3855 14.1411 12.3855C13.1617 12.3855 13.011 13.1611 13.011 13.9621V17H11.1304V10.8591H12.9359V11.6982H12.9613C13.2126 11.2155 13.8265 10.7065 14.7422 10.7065C16.6478 10.7065 17 11.9784 17 13.632C17 13.632 17 17 17 17Z" fill="black"/>
</svg>
