<svg id="Layer_1" data-name="Layer 1" xmlns="http://www.w3.org/2000/svg" width="456.04" height="220.89" viewBox="0 0 456.04 220.89"><path d="M3.14,129l2.65,17.2L13.73,129h3.12L7,149.71H3.57L0,129Z" fill="#fff"/><path d="M43.57,129,40.4,149.71H37.47L40.63,129Z" fill="#fff"/><path d="M78.93,130a6.63,6.63,0,0,1,2.79,2.83,9.42,9.42,0,0,1,1,4.39,15,15,0,0,1-2.18,7.72,10.31,10.31,0,0,1-3.86,3.56,10.89,10.89,0,0,1-5.19,1.24H65.61L68.77,129h5.84A9,9,0,0,1,78.93,130Zm-2,15.09a10,10,0,0,0,2.54-5.63,12.58,12.58,0,0,0,.15-1.94,6,6,0,0,0-1.39-4.25,5.2,5.2,0,0,0-4.06-1.51H71.29L69,147.12h2.91A6.8,6.8,0,0,0,77,145.06Z" fill="#fff"/><path d="M110.87,131.61l-1,6.29H116l-.38,2.63h-6.18l-1,6.53h7l-.42,2.65h-9.87L108.35,129h9.88l-.41,2.65Z" fill="#fff"/><path d="M144.25,148.82a7.43,7.43,0,0,1-2.67-3.1,10.48,10.48,0,0,1-1-4.54,14.67,14.67,0,0,1,1.37-6.39,10.91,10.91,0,0,1,3.81-4.46,9.66,9.66,0,0,1,5.44-1.61,7.25,7.25,0,0,1,4,1.1,7.5,7.5,0,0,1,2.68,3.09,10.37,10.37,0,0,1,1,4.52,14.63,14.63,0,0,1-1.38,6.41,10.77,10.77,0,0,1-3.8,4.47,9.75,9.75,0,0,1-5.47,1.61A7.36,7.36,0,0,1,144.25,148.82Zm8.14-3.22a8.37,8.37,0,0,0,2.55-3.36,11.21,11.21,0,0,0,.91-4.57,6.4,6.4,0,0,0-1.32-4.28,4.52,4.52,0,0,0-3.69-1.57,6,6,0,0,0-3.74,1.24,8.07,8.07,0,0,0-2.54,3.32,11.54,11.54,0,0,0-.9,4.6,6.44,6.44,0,0,0,1.33,4.29,4.5,4.5,0,0,0,3.66,1.58A6,6,0,0,0,152.39,145.6Z" fill="#fff"/><path d="M213.25,133.85a11.65,11.65,0,0,1,3.88-3.77,9.3,9.3,0,0,1,4.79-1.36,7.15,7.15,0,0,1,7.39,6.23h-3.53a4.43,4.43,0,0,0-1.59-2.34,4.57,4.57,0,0,0-2.73-.79,6.28,6.28,0,0,0-3.3.93,7.58,7.58,0,0,0-2.57,2.62,10.09,10.09,0,0,0-1.38,3.94,13.27,13.27,0,0,0-.13,1.67,6.22,6.22,0,0,0,1.39,4.26,4.72,4.72,0,0,0,3.7,1.58,5.86,5.86,0,0,0,3-.79,6.5,6.5,0,0,0,2.29-2.34H228a11.23,11.23,0,0,1-3.94,4.59,9.59,9.59,0,0,1-5.32,1.61,7.27,7.27,0,0,1-6.73-4.07,9.92,9.92,0,0,1-1-4.48,13.36,13.36,0,0,1,.15-2A13.57,13.57,0,0,1,213.25,133.85Z" fill="#fff"/><path d="M265.24,130.39a5,5,0,0,1,1.38,3.64,8.93,8.93,0,0,1-.1,1.16,7.89,7.89,0,0,1-1.58,3.67,6.25,6.25,0,0,1-3.46,2.26l3.11,8.59h-3.5l-2.83-8.29H256l-1.26,8.29h-2.93L255,129h6.18A5.53,5.53,0,0,1,265.24,130.39Zm-1.65,3.94a2.68,2.68,0,0,0-.71-2,3,3,0,0,0-2.15-.7h-3.24l-1.08,7.1h3.24a3.6,3.6,0,0,0,2.64-1,4.31,4.31,0,0,0,1.22-2.59A5.56,5.56,0,0,0,263.59,134.33Z" fill="#fff"/><path d="M295.09,131.61l-.95,6.29h6.17l-.38,2.63h-6.17l-1,6.53h6.95l-.41,2.65h-9.88L292.57,129h9.88l-.41,2.65Z" fill="#fff"/><path d="M335.65,145.48h-7.48l-1.93,4.23h-3.06L332.75,129h3.39l3.24,20.75H336.3Zm-.38-2.66-1.47-9.75-4.42,9.75Z" fill="#fff"/><path d="M378.21,129l-.41,2.65h-4.75l-2.76,18.07h-2.93l2.75-18.07h-4.78l.41-2.65Z" fill="#fff"/><path d="M403.6,148.82a7.32,7.32,0,0,1-2.68-3.1,10.43,10.43,0,0,1-.95-4.54,14.54,14.54,0,0,1,1.38-6.39,10.84,10.84,0,0,1,3.81-4.46,9.63,9.63,0,0,1,5.43-1.61,7.08,7.08,0,0,1,6.69,4.19,10.25,10.25,0,0,1,1,4.52,14.79,14.79,0,0,1-1.37,6.41,10.87,10.87,0,0,1-3.81,4.47,9.72,9.72,0,0,1-5.46,1.61A7.28,7.28,0,0,1,403.6,148.82Zm8.14-3.22a8.37,8.37,0,0,0,2.55-3.36,11.58,11.58,0,0,0,.91-4.57,6.36,6.36,0,0,0-1.33-4.28,4.52,4.52,0,0,0-3.69-1.57,6,6,0,0,0-3.74,1.24,8,8,0,0,0-2.53,3.32,11.54,11.54,0,0,0-.9,4.6,6.5,6.5,0,0,0,1.32,4.29,4.55,4.55,0,0,0,3.67,1.58,6,6,0,0,0,3.74-1.25Z" fill="#fff"/><path d="M454.29,130.39a4.93,4.93,0,0,1,1.39,3.64,8.93,8.93,0,0,1-.1,1.16,8.1,8.1,0,0,1-1.58,3.67,6.28,6.28,0,0,1-3.46,2.26l3.11,8.59h-3.5l-2.83-8.29h-2.26l-1.26,8.29h-2.93L444,129h6.17A5.51,5.51,0,0,1,454.29,130.39Zm-1.64,3.94a2.68,2.68,0,0,0-.71-2,3,3,0,0,0-2.15-.7h-3.24l-1.08,7.1h3.24a3.6,3.6,0,0,0,2.64-1,4.31,4.31,0,0,0,1.22-2.59A5.56,5.56,0,0,0,452.65,134.33Z" fill="#fff"/><path d="M51.59,7.71q8.71,7.71,8.72,21a34.41,34.41,0,0,1-3,14.31,25,25,0,0,1-9.78,11Q40.74,58.29,30,58.29H17.77v27H.68V0H27Q42.86,0,51.59,7.71ZM37.68,39.81a12.61,12.61,0,0,0,4.24-5,13.42,13.42,0,0,0,1.3-5.57,16,16,0,0,0-2.71-8.75Q37.8,16.22,30,16.22H17.77V42H29.9A12.94,12.94,0,0,0,37.68,39.81Z" fill="#fdc10f"/><path d="M118.28,85.29,100,58.17H88.59V85.29H71.5V0H97.78q16.14,0,25,7.71t8.9,21a33.28,33.28,0,0,1-3.36,14.77A24.71,24.71,0,0,1,118,54.32l20.19,31ZM88.59,42h12.13q7,0,10.14-4A13.57,13.57,0,0,0,114,29.32a16.19,16.19,0,0,0-2.71-8.87q-2.72-4.23-10.49-4.23H88.59Z" fill="#00e66d"/><path d="M358.93.66V85.83H342.81v-39L316.13,84.71h-.22L290.23,49.25V85.83H274.66V.66h.11l41.47,58.82L358.71.66Z" fill="#3cb2f1"/><path d="M451.58,109.82H5.78c-2.46,0-4.46-1.21-4.46-2.68h0c0-1.48,2-2.68,4.46-2.68h445.8c2.45,0,4.46,1.2,4.46,2.68h0C456,108.61,454,109.82,451.58,109.82Z" fill="#fff"/><path d="M39.94,107.43a7.63,7.63,0,1,1-7.63-7.63h0A7.65,7.65,0,0,1,39.94,107.43Z" fill="#d81b5c"/><circle cx="32.31" cy="107.43" r="4.2"/><path d="M409.9,85.83h5.18a2.37,2.37,0,0,0,2.32-2.37v-15a25.22,25.22,0,0,1-9.87,0v15A2.39,2.39,0,0,0,409.9,85.83Z" fill="#a77c4e"/><path d="M393.73,60.76l-8.81,12.13a2.37,2.37,0,0,0,.21,3c.67.56,0,.07,4.4,3.25a2.4,2.4,0,0,0,3.35-.47l0,0,8.82-12.13A25.87,25.87,0,0,1,393.73,60.76Z" fill="#d81b5c"/><path d="M387.06,46.43l-14.24,4.63a2.39,2.39,0,0,0-1.53,3l1.59,4.88a2.38,2.38,0,0,0,3,1.51l14.25-4.63A25.39,25.39,0,0,1,387.06,46.43Z" fill="#8cbf43"/><path d="M372.82,35.67l14.23,4.62a25.48,25.48,0,0,1,3-9.38l-14.22-4.63a2.38,2.38,0,0,0-3,1.52l-1.59,4.88a2.39,2.39,0,0,0,1.58,3Z" fill="#f29122"/><path d="M385.43,10.52a2.38,2.38,0,0,0-.51,3.32l8.79,12.1a25.54,25.54,0,0,1,23.69-7.73c24.11,4.73,28.4,37.85,5.82,48.35L432,78.69a2.37,2.37,0,0,0,3,.72,42.6,42.6,0,0,0,20-36.08C455,8.3,414.22-12.74,385.43,10.52Zm49.64,59.66-1.19-1.62A32.48,32.48,0,0,0,445.22,39.4a32.56,32.56,0,0,0-26.38-28.5,33.51,33.51,0,0,0-6.39-.62,33,33,0,0,0-17.32,4.94l-1.19-1.64a34.54,34.54,0,0,1,18.44-5.41c16.93,0,35.21,13.44,35.21,35.16A35,35,0,0,1,435.07,70.18Z" fill="#fff"/><path d="M171.29,86.16c.33-3.59,1-4.2,4.24-4.21,4,0,8-.09,12,0A4.06,4.06,0,0,0,191.87,79a18,18,0,0,0,1-4.14c.16-1.39.59-2,2.13-2,5,.09,10.06.08,15.09,0,1.34,0,2,.33,2.08,1.76a11.39,11.39,0,0,0,.49,2.59c1,3.68,2.28,4.66,6,4.66h10.81c3.33,0,3.88.54,4.37,4.18Z"/><polygon points="193.24 24.56 218.62 39.21 218.62 39.21 193.24 53.86 193.24 53.86 193.24 24.56" fill="#d81b5c"/><path d="M243,11.27a4,4,0,0,1,4,4V60.43a4.05,4.05,0,0,1-4,4H162.11a4.05,4.05,0,0,1-4-4V15.26a4,4,0,0,1,4-4H243M243,.72H162.11a14.59,14.59,0,0,0-14.55,14.54V60.43A14.61,14.61,0,0,0,162.11,75H243a14.61,14.61,0,0,0,14.55-14.55V15.26A14.59,14.59,0,0,0,243,.72Z" fill="#d81b5c"/><g style="isolation:isolate"><text transform="translate(94.17 212.57) scale(0.76 1)" font-size="36" fill="#fff" font-family="Raleway-ExtraBoldItalic, Raleway" font-weight="800" font-style="italic" letter-spacing="0.03em" style="isolation:isolate">Click..</text><text transform="translate(177.86 212.57) scale(0.76 1)" font-size="36" fill="#fff" font-family="Raleway-ExtraBoldItalic, Raleway" font-weight="800" font-style="italic" style="isolation:isolate">.</text><text transform="translate(184.46 212.57) scale(0.76 1)" font-size="36" fill="#d81b5c" font-family="Raleway-ExtraBoldItalic, Raleway" font-weight="800" font-style="italic" letter-spacing="0.03em" style="isolation:isolate">C</text><text transform="translate(203.36 212.57) scale(0.76 1)" font-size="36" fill="#d81b5c" font-family="Raleway-ExtraBoldItalic, Raleway" font-weight="800" font-style="italic" letter-spacing="-0.02em" style="isolation:isolate">r</text><text transform="translate(214.2 212.57) scale(0.76 1)" font-size="36" fill="#d81b5c" font-family="Raleway-ExtraBoldItalic, Raleway" font-weight="800" font-style="italic" letter-spacing="0.03em" style="isolation:isolate">ea</text><text transform="translate(248.45 212.57) scale(0.76 1)" font-size="36" fill="#d81b5c" font-family="Raleway-ExtraBoldItalic, Raleway" font-weight="800" font-style="italic" letter-spacing="0.02em" style="isolation:isolate">t</text><text transform="translate(259.64 212.57) scale(0.76 1)" font-size="36" fill="#d81b5c" font-family="Raleway-ExtraBoldItalic, Raleway" font-weight="800" font-style="italic" letter-spacing="0.03em" style="isolation:isolate">e</text><text transform="translate(275.73 212.57) scale(0.76 1)" font-size="36" fill="#fff" font-family="Raleway-ExtraBoldItalic, Raleway" font-weight="800" font-style="italic" letter-spacing="0.03em" style="isolation:isolate">...</text><text transform="translate(297.73 212.57) scale(0.76 1)" font-size="36" fill="#00e66d" font-family="Raleway-ExtraBoldItalic, Raleway" font-weight="800" font-style="italic" letter-spacing="0.03em" style="isolation:isolate">Post</text></g></svg>