<svg id="Layer_1" data-name="Layer 1" xmlns="http://www.w3.org/2000/svg" width="456.04" height="220.89" viewBox="0 0 456.04 220.89"><path d="M3.14,129l2.65,17.2L13.73,129h3.12L7,149.71H3.57L0,129Z"/><path d="M43.57,129,40.4,149.71H37.47L40.63,129Z"/><path d="M78.93,130a6.63,6.63,0,0,1,2.79,2.83,9.44,9.44,0,0,1,1,4.39,15.05,15.05,0,0,1-2.18,7.72,10.27,10.27,0,0,1-3.86,3.56,10.87,10.87,0,0,1-5.19,1.24H65.61L68.77,129h5.84A9.06,9.06,0,0,1,78.93,130Zm-2,15.09a10,10,0,0,0,2.54-5.63,13.82,13.82,0,0,0,.15-1.94,6,6,0,0,0-1.39-4.25,5.22,5.22,0,0,0-4.06-1.51H71.29L69,147.12h2.91A6.8,6.8,0,0,0,77,145.06Z"/><path d="M110.87,131.61l-1,6.29h6.17l-.38,2.63h-6.18l-1,6.53h7l-.42,2.65h-9.87L108.35,129h9.88l-.41,2.65Z"/><path d="M144.25,148.82a7.37,7.37,0,0,1-2.67-3.1,10.5,10.5,0,0,1-1-4.54,14.61,14.61,0,0,1,1.37-6.39,10.9,10.9,0,0,1,3.81-4.46,9.65,9.65,0,0,1,5.44-1.61,7.31,7.31,0,0,1,4,1.1,7.43,7.43,0,0,1,2.68,3.09,10.38,10.38,0,0,1,.95,4.52,14.59,14.59,0,0,1-1.38,6.41,10.77,10.77,0,0,1-3.8,4.47,9.72,9.72,0,0,1-5.47,1.61A7.29,7.29,0,0,1,144.25,148.82Zm8.14-3.22a8.36,8.36,0,0,0,2.55-3.36,11.3,11.3,0,0,0,.91-4.57,6.42,6.42,0,0,0-1.32-4.28,4.55,4.55,0,0,0-3.69-1.57,6,6,0,0,0-3.74,1.24,8.05,8.05,0,0,0-2.54,3.32,11.51,11.51,0,0,0-.9,4.6,6.44,6.44,0,0,0,1.33,4.29,4.52,4.52,0,0,0,3.66,1.58A6,6,0,0,0,152.39,145.6Z"/><path d="M213.25,133.85a11.62,11.62,0,0,1,3.88-3.77,9.24,9.24,0,0,1,4.79-1.36,7.15,7.15,0,0,1,7.39,6.23h-3.53a4.41,4.41,0,0,0-1.59-2.34,4.56,4.56,0,0,0-2.73-.79,6.24,6.24,0,0,0-3.3.93,7.59,7.59,0,0,0-2.57,2.62,10.19,10.19,0,0,0-1.38,3.94,12.39,12.39,0,0,0-.13,1.67,6.21,6.21,0,0,0,1.39,4.26,4.7,4.7,0,0,0,3.7,1.58,5.84,5.84,0,0,0,3-.79,6.51,6.51,0,0,0,2.29-2.34H228a11.21,11.21,0,0,1-3.94,4.59,9.57,9.57,0,0,1-5.32,1.61,7.49,7.49,0,0,1-4-1.07,7.38,7.38,0,0,1-2.73-3,9.88,9.88,0,0,1-1-4.48,14.58,14.58,0,0,1,.15-2A13.5,13.5,0,0,1,213.25,133.85Z"/><path d="M265.24,130.39a5,5,0,0,1,1.38,3.64,9.26,9.26,0,0,1-.1,1.16,7.91,7.91,0,0,1-1.58,3.67,6.25,6.25,0,0,1-3.46,2.26l3.11,8.59h-3.5l-2.83-8.29H256l-1.26,8.29h-2.93L255,129h6.18A5.54,5.54,0,0,1,265.24,130.39Zm-1.65,3.94a2.69,2.69,0,0,0-.71-2,3,3,0,0,0-2.15-.7h-3.24l-1.08,7.1h3.24a3.63,3.63,0,0,0,2.64-1,4.27,4.27,0,0,0,1.22-2.59A5.29,5.29,0,0,0,263.59,134.33Z"/><path d="M295.09,131.61l-.95,6.29h6.17l-.38,2.63h-6.17l-1,6.53h6.95l-.41,2.65h-9.88L292.57,129h9.88l-.41,2.65Z"/><path d="M335.65,145.48h-7.48l-1.93,4.23h-3.06L332.75,129h3.39l3.24,20.75H336.3Zm-.38-2.66-1.47-9.75-4.42,9.75Z"/><path d="M378.21,129l-.41,2.65h-4.75l-2.76,18.07h-2.93l2.75-18.07h-4.78l.41-2.65Z"/><path d="M403.6,148.82a7.4,7.4,0,0,1-2.68-3.1,10.5,10.5,0,0,1-.95-4.54,14.47,14.47,0,0,1,1.38-6.39,10.83,10.83,0,0,1,3.81-4.46,9.64,9.64,0,0,1,5.43-1.61,7.08,7.08,0,0,1,6.69,4.19,10.24,10.24,0,0,1,1,4.52,14.73,14.73,0,0,1-1.37,6.41,10.87,10.87,0,0,1-3.81,4.47,9.69,9.69,0,0,1-5.46,1.61A7.29,7.29,0,0,1,403.6,148.82Zm8.14-3.22a8.36,8.36,0,0,0,2.55-3.36,11.47,11.47,0,0,0,.91-4.57,6.37,6.37,0,0,0-1.33-4.28,4.55,4.55,0,0,0-3.69-1.57,6,6,0,0,0-3.74,1.24,8,8,0,0,0-2.53,3.32,11.51,11.51,0,0,0-.9,4.6,6.49,6.49,0,0,0,1.32,4.29,4.55,4.55,0,0,0,3.67,1.58A6,6,0,0,0,411.74,145.6Z"/><path d="M454.29,130.39a4.93,4.93,0,0,1,1.39,3.64,9.26,9.26,0,0,1-.1,1.16,8.12,8.12,0,0,1-1.58,3.67,6.29,6.29,0,0,1-3.46,2.26l3.11,8.59h-3.5l-2.83-8.29h-2.26l-1.26,8.29h-2.93L444,129h6.17A5.52,5.52,0,0,1,454.29,130.39Zm-1.64,3.94a2.69,2.69,0,0,0-.71-2,3,3,0,0,0-2.15-.7h-3.24l-1.08,7.1h3.24a3.63,3.63,0,0,0,2.64-1,4.32,4.32,0,0,0,1.22-2.59A5.29,5.29,0,0,0,452.65,134.33Z"/><path d="M51.59,7.71q8.71,7.71,8.72,21a34.44,34.44,0,0,1-3,14.31,25,25,0,0,1-9.78,11Q40.74,58.29,30,58.29H17.77v27H.68V0H27Q42.86,0,51.59,7.71ZM37.68,39.81a12.63,12.63,0,0,0,4.24-5,13.54,13.54,0,0,0,1.3-5.57,16,16,0,0,0-2.71-8.75Q37.8,16.22,30,16.22H17.77V42H29.9A12.92,12.92,0,0,0,37.68,39.81Z" fill="#fdc10f"/><path d="M118.28,85.29,100,58.17H88.59V85.29H71.5V0H97.78q16.14,0,25,7.71t8.9,21a33.25,33.25,0,0,1-3.36,14.77,24.72,24.72,0,0,1-10.31,10.84L138.2,85.29ZM88.59,42h12.13q7,0,10.14-4A13.58,13.58,0,0,0,114,29.32a16.17,16.17,0,0,0-2.71-8.87q-2.72-4.23-10.49-4.23H88.59Z" fill="#00e66d"/><path d="M358.93.66V85.83H342.81v-39L316.13,84.71h-.22L290.23,49.25V85.83H274.66V.66h.11l41.47,58.82L358.71.66Z" fill="#3cb2f1"/><path d="M451.58,109.82H5.78c-2.46,0-4.46-1.21-4.46-2.68h0c0-1.48,2-2.68,4.46-2.68h445.8c2.45,0,4.46,1.2,4.46,2.68h0C456,108.61,454,109.82,451.58,109.82Z"/><path d="M39.94,107.43a7.63,7.63,0,1,1-7.63-7.63A7.64,7.64,0,0,1,39.94,107.43Z" fill="#d81b5c"/><circle cx="32.31" cy="107.43" r="4.2"/><path d="M409.9,85.83c9.32,0,5.17,0,5.18,0a2.37,2.37,0,0,0,2.32-2.37v-15a25.41,25.41,0,0,1-9.87,0v15A2.39,2.39,0,0,0,409.9,85.83Z" fill="#a77c4e"/><path d="M393.73,60.76l-8.81,12.13a2.37,2.37,0,0,0,.21,3c.67.56,0,.07,4.4,3.25a2.39,2.39,0,0,0,3.37-.5l8.82-12.13A25.87,25.87,0,0,1,393.73,60.76Z" fill="#d81b5c"/><path d="M387.06,46.43l-14.24,4.63a2.39,2.39,0,0,0-1.53,3l1.59,4.88a2.38,2.38,0,0,0,3,1.51l14.25-4.63A25.47,25.47,0,0,1,387.06,46.43Z" fill="#8cbf43"/><path d="M372.82,35.67l14.23,4.62a25.44,25.44,0,0,1,3-9.38l-14.22-4.63a2.38,2.38,0,0,0-3,1.52l-1.59,4.88A2.39,2.39,0,0,0,372.82,35.67Z" fill="#f29122"/><path d="M385.43,10.52a2.38,2.38,0,0,0-.51,3.32l8.79,12.1a25.54,25.54,0,0,1,23.69-7.73c24.11,4.73,28.4,37.85,5.82,48.35L432,78.69a2.37,2.37,0,0,0,3,.72,42.59,42.59,0,0,0,20-36.08C455,8.3,414.22-12.74,385.43,10.52Zm49.64,59.66-1.19-1.62A32.46,32.46,0,0,0,445.22,39.4a32.56,32.56,0,0,0-26.38-28.5,33.58,33.58,0,0,0-6.39-.62,33,33,0,0,0-17.32,4.94l-1.19-1.64a34.55,34.55,0,0,1,18.44-5.41c16.93,0,35.21,13.44,35.21,35.16A35,35,0,0,1,435.07,70.18Z"/><path d="M171.29,86.16c.33-3.59,1-4.2,4.24-4.21,4,0,8-.09,12,0a4.06,4.06,0,0,0,4.34-2.94,18,18,0,0,0,1-4.14c.16-1.39.59-2,2.13-2,5,.09,10.06.08,15.09,0,1.34,0,2,.33,2.08,1.76a11.6,11.6,0,0,0,.49,2.59c1,3.68,2.28,4.66,6,4.66h10.81c3.33,0,3.88.54,4.37,4.18Z"/><polygon points="193.24 24.56 218.62 39.21 218.62 39.21 193.24 53.86 193.24 53.86 193.24 24.56" fill="#d81b5c"/><path d="M243,11.27a4,4,0,0,1,4,4V60.43a4.05,4.05,0,0,1-4,4H162.11a4.05,4.05,0,0,1-4-4V15.26a4,4,0,0,1,4-4H243M243,.72H162.11a14.59,14.59,0,0,0-14.55,14.54V60.43A14.6,14.6,0,0,0,162.11,75H243a14.6,14.6,0,0,0,14.55-14.55V15.26A14.59,14.59,0,0,0,243,.72Z" fill="#d81b5c"/><text transform="translate(94.17 212.57) scale(0.76 1)" font-size="36" font-family="Raleway-ExtraBoldItalic, Raleway" font-weight="800" font-style="italic" letter-spacing="0.03em">Click..<tspan x="110.12" y="0" letter-spacing="0em">.</tspan><tspan x="118.8" y="0" fill="#d81b5c">C</tspan><tspan x="143.67" y="0" fill="#d81b5c" letter-spacing="0em">r</tspan><tspan x="157.93" y="0" fill="#d81b5c">ea</tspan><tspan x="203" y="0" fill="#d81b5c" letter-spacing="0.02em">t</tspan><tspan x="217.73" y="0" fill="#d81b5c">e</tspan><tspan x="238.89" y="0">...</tspan><tspan x="267.84" y="0" fill="#00e66d">Post</tspan></text></svg>