<svg width="184" height="30" viewBox="0 0 184 30" fill="none" xmlns="http://www.w3.org/2000/svg">
<path d="M65.3125 12.9648H67.0469C67.1198 13.5013 67.3984 13.9284 67.8828 14.2461C68.3724 14.5586 68.9948 14.7148 69.75 14.7148C70.4531 14.7148 71.0339 14.5534 71.4922 14.2305C71.9557 13.9023 72.1875 13.4883 72.1875 12.9883C72.1875 12.5612 72.0156 12.2122 71.6719 11.9414C71.3333 11.6654 70.7891 11.4388 70.0391 11.2617L68.5859 10.9102C67.5651 10.6706 66.8151 10.2982 66.3359 9.79297C65.8568 9.28776 65.6172 8.62109 65.6172 7.79297C65.6172 6.78776 65.9922 5.98047 66.7422 5.37109C67.4974 4.75651 68.4896 4.44922 69.7188 4.44922C70.8646 4.44922 71.8151 4.7513 72.5703 5.35547C73.3255 5.95964 73.7292 6.73568 73.7812 7.68359H72.0781C71.9948 7.16276 71.7396 6.7513 71.3125 6.44922C70.8906 6.14714 70.3516 5.99609 69.6953 5.99609C69.0026 5.99609 68.4453 6.14974 68.0234 6.45703C67.6016 6.76432 67.3906 7.17057 67.3906 7.67578C67.3906 8.07682 67.5495 8.40234 67.8672 8.65234C68.1901 8.90234 68.7188 9.11328 69.4531 9.28516L70.6953 9.58984C71.8516 9.86068 72.6849 10.2461 73.1953 10.7461C73.7057 11.2409 73.9609 11.9128 73.9609 12.7617C73.9609 13.8398 73.5703 14.694 72.7891 15.3242C72.0078 15.9544 70.9505 16.2695 69.6172 16.2695C68.3672 16.2695 67.3516 15.9701 66.5703 15.3711C65.7943 14.7721 65.375 13.9701 65.3125 12.9648ZM83.2422 7.48828V15.9961H81.625V14.6445H81.4922C81.0599 15.6549 80.2031 16.1602 78.9219 16.1602C77.9844 16.1602 77.2604 15.8867 76.75 15.3398C76.2448 14.793 75.9922 14.0169 75.9922 13.0117V7.48828H77.6719V12.5742C77.6719 13.2669 77.8151 13.7799 78.1016 14.1133C78.3932 14.4414 78.8464 14.6055 79.4609 14.6055C80.1328 14.6055 80.651 14.418 81.0156 14.043C81.3802 13.6628 81.5625 13.1367 81.5625 12.4648V7.48828H83.2422ZM90.0938 7.34766C91.1771 7.34766 92.0365 7.74349 92.6719 8.53516C93.3073 9.32161 93.625 10.3893 93.625 11.7383C93.625 13.0872 93.3073 14.1576 92.6719 14.9492C92.0417 15.7409 91.1875 16.1367 90.1094 16.1367C89.5052 16.1367 88.974 16.0117 88.5156 15.7617C88.0573 15.5065 87.7161 15.1549 87.4922 14.707H87.3594V18.8242H85.6797V7.48828H87.2969V8.89453H87.4219C87.6771 8.41016 88.0417 8.03255 88.5156 7.76172C88.9896 7.48568 89.5156 7.34766 90.0938 7.34766ZM89.6172 14.6289C90.3307 14.6289 90.888 14.3737 91.2891 13.8633C91.6953 13.3477 91.8984 12.6393 91.8984 11.7383C91.8984 10.8372 91.6953 10.1315 91.2891 9.62109C90.888 9.11068 90.3333 8.85547 89.625 8.85547C88.9167 8.85547 88.3568 9.11589 87.9453 9.63672C87.5339 10.1523 87.3281 10.8555 87.3281 11.7461C87.3281 12.6315 87.5339 13.3346 87.9453 13.8555C88.3568 14.3711 88.9141 14.6289 89.6172 14.6289ZM100.062 7.34766C101.146 7.34766 102.005 7.74349 102.641 8.53516C103.276 9.32161 103.594 10.3893 103.594 11.7383C103.594 13.0872 103.276 14.1576 102.641 14.9492C102.01 15.7409 101.156 16.1367 100.078 16.1367C99.474 16.1367 98.9427 16.0117 98.4844 15.7617C98.026 15.5065 97.6849 15.1549 97.4609 14.707H97.3281V18.8242H95.6484V7.48828H97.2656V8.89453H97.3906C97.6458 8.41016 98.0104 8.03255 98.4844 7.76172C98.9583 7.48568 99.4844 7.34766 100.062 7.34766ZM99.5859 14.6289C100.299 14.6289 100.857 14.3737 101.258 13.8633C101.664 13.3477 101.867 12.6393 101.867 11.7383C101.867 10.8372 101.664 10.1315 101.258 9.62109C100.857 9.11068 100.302 8.85547 99.5938 8.85547C98.8854 8.85547 98.3255 9.11589 97.9141 9.63672C97.5026 10.1523 97.2969 10.8555 97.2969 11.7461C97.2969 12.6315 97.5026 13.3346 97.9141 13.8555C98.3255 14.3711 98.8828 14.6289 99.5859 14.6289ZM109.211 16.1602C107.961 16.1602 106.979 15.7669 106.266 14.9805C105.552 14.194 105.195 13.1133 105.195 11.7383C105.195 10.3685 105.552 9.29036 106.266 8.50391C106.984 7.71745 107.966 7.32422 109.211 7.32422C110.451 7.32422 111.427 7.71745 112.141 8.50391C112.859 9.29036 113.219 10.3685 113.219 11.7383C113.219 13.1133 112.862 14.194 112.148 14.9805C111.435 15.7669 110.456 16.1602 109.211 16.1602ZM109.211 14.668C109.935 14.668 110.495 14.4128 110.891 13.9023C111.292 13.3867 111.492 12.6654 111.492 11.7383C111.492 10.8164 111.292 10.1003 110.891 9.58984C110.495 9.07422 109.935 8.81641 109.211 8.81641C108.482 8.81641 107.919 9.07161 107.523 9.58203C107.128 10.0924 106.93 10.8112 106.93 11.7383C106.93 12.6706 107.128 13.3919 107.523 13.9023C107.919 14.4128 108.482 14.668 109.211 14.668ZM115.242 15.9961V7.48828H116.859V8.79297H116.984C117.104 8.37109 117.378 8.02474 117.805 7.75391C118.237 7.48307 118.729 7.34766 119.281 7.34766C119.599 7.34766 119.849 7.37109 120.031 7.41797V9.07422C119.828 9.00651 119.516 8.97266 119.094 8.97266C118.453 8.97266 117.93 9.15755 117.523 9.52734C117.122 9.89714 116.922 10.3789 116.922 10.9727V15.9961H115.242ZM122.68 5.37109H124.359V7.52734H126.203V8.94141H124.359V13.3164C124.359 13.7591 124.456 14.0846 124.648 14.293C124.841 14.4961 125.146 14.5977 125.562 14.5977C125.729 14.5977 125.943 14.5846 126.203 14.5586V15.957C125.87 16.0143 125.565 16.043 125.289 16.043C124.357 16.043 123.688 15.8659 123.281 15.5117C122.88 15.1576 122.68 14.569 122.68 13.7461V8.94141H121.328V7.52734H122.68V5.37109ZM137.375 16.2695C135.807 16.2695 134.568 15.7409 133.656 14.6836C132.745 13.6263 132.289 12.1862 132.289 10.3633C132.289 8.53516 132.742 7.09245 133.648 6.03516C134.56 4.97786 135.799 4.44922 137.367 4.44922C138.607 4.44922 139.661 4.8138 140.531 5.54297C141.406 6.26693 141.914 7.20443 142.055 8.35547H140.312C140.146 7.66276 139.797 7.11068 139.266 6.69922C138.74 6.28776 138.107 6.08203 137.367 6.08203C136.357 6.08203 135.555 6.46745 134.961 7.23828C134.372 8.00391 134.078 9.04557 134.078 10.3633C134.078 11.6758 134.372 12.7174 134.961 13.4883C135.555 14.2539 136.359 14.6367 137.375 14.6367C138.12 14.6367 138.755 14.4492 139.281 14.0742C139.812 13.6992 140.156 13.194 140.312 12.5586H142.055C141.898 13.6732 141.393 14.5716 140.539 15.2539C139.685 15.931 138.63 16.2695 137.375 16.2695ZM149.148 9.35547C148.773 8.95443 148.276 8.75391 147.656 8.75391C147.036 8.75391 146.526 8.95443 146.125 9.35547C145.724 9.75651 145.5 10.2904 145.453 10.957H149.75C149.729 10.2852 149.529 9.7513 149.148 9.35547ZM149.742 13.6992H151.359C151.167 14.4648 150.745 15.0664 150.094 15.5039C149.448 15.9414 148.641 16.1602 147.672 16.1602C146.453 16.1602 145.492 15.7695 144.789 14.9883C144.091 14.2018 143.742 13.1289 143.742 11.7695C143.742 10.4102 144.096 9.32943 144.805 8.52734C145.513 7.72526 146.466 7.32422 147.664 7.32422C148.846 7.32422 149.773 7.70443 150.445 8.46484C151.122 9.22526 151.461 10.2747 151.461 11.6133V12.1992H145.453V12.293C145.479 13.043 145.695 13.6367 146.102 14.0742C146.508 14.5117 147.047 14.7305 147.719 14.7305C148.745 14.7305 149.419 14.3867 149.742 13.6992ZM153.477 15.9961V7.48828H155.094V8.83984H155.219C155.661 7.82943 156.508 7.32422 157.758 7.32422C158.706 7.32422 159.432 7.59766 159.938 8.14453C160.448 8.69141 160.703 9.47266 160.703 10.4883V15.9961H159.023V10.9102C159.023 9.54557 158.411 8.86328 157.188 8.86328C156.568 8.86328 156.073 9.05859 155.703 9.44922C155.339 9.83464 155.156 10.3581 155.156 11.0195V15.9961H153.477ZM163.664 5.37109H165.344V7.52734H167.188V8.94141H165.344V13.3164C165.344 13.7591 165.44 14.0846 165.633 14.293C165.826 14.4961 166.13 14.5977 166.547 14.5977C166.714 14.5977 166.927 14.5846 167.188 14.5586V15.957C166.854 16.0143 166.549 16.043 166.273 16.043C165.341 16.043 164.672 15.8659 164.266 15.5117C163.865 15.1576 163.664 14.569 163.664 13.7461V8.94141H162.312V7.52734H163.664V5.37109ZM174.055 9.35547C173.68 8.95443 173.182 8.75391 172.562 8.75391C171.943 8.75391 171.432 8.95443 171.031 9.35547C170.63 9.75651 170.406 10.2904 170.359 10.957H174.656C174.635 10.2852 174.435 9.7513 174.055 9.35547ZM174.648 13.6992H176.266C176.073 14.4648 175.651 15.0664 175 15.5039C174.354 15.9414 173.547 16.1602 172.578 16.1602C171.359 16.1602 170.398 15.7695 169.695 14.9883C168.997 14.2018 168.648 13.1289 168.648 11.7695C168.648 10.4102 169.003 9.32943 169.711 8.52734C170.419 7.72526 171.372 7.32422 172.57 7.32422C173.753 7.32422 174.68 7.70443 175.352 8.46484C176.029 9.22526 176.367 10.2747 176.367 11.6133V12.1992H170.359V12.293C170.385 13.043 170.602 13.6367 171.008 14.0742C171.414 14.5117 171.953 14.7305 172.625 14.7305C173.651 14.7305 174.326 14.3867 174.648 13.6992ZM178.383 15.9961V7.48828H180V8.79297H180.125C180.245 8.37109 180.518 8.02474 180.945 7.75391C181.378 7.48307 181.87 7.34766 182.422 7.34766C182.74 7.34766 182.99 7.37109 183.172 7.41797V9.07422C182.969 9.00651 182.656 8.97266 182.234 8.97266C181.594 8.97266 181.07 9.15755 180.664 9.52734C180.263 9.89714 180.062 10.3789 180.062 10.9727V15.9961H178.383Z" fill="white"/>
<path d="M0 26.7831C0 28.2441 1.18707 29.4312 2.64808 29.4312C4.1091 29.4312 5.29617 28.2441 5.29617 26.7831C5.29617 25.3221 4.1091 24.135 2.64808 24.135C1.18707 24.135 0 25.3221 0 26.7831ZM14.5188 0.210938C8.40082 0.210938 3.37859 5.23317 3.37859 11.3512C3.37859 12.8122 3.65253 14.1819 4.20041 15.4602C3.74384 16.4647 3.37859 17.5605 3.37859 18.5649C3.37859 21.4869 5.75273 23.8611 8.67476 23.8611C10.2271 23.8611 11.8707 23.3132 13.1491 22.4001C13.423 22.4001 13.7883 22.4914 14.0622 22.4914C14.1536 22.4914 14.3362 22.4914 14.4275 22.4914H14.5188H35.0643C41.1823 22.4914 46.2045 17.4691 46.2045 11.3512C46.2045 5.23317 41.1823 0.210938 35.0643 0.210938H14.5188Z" fill="white"/>
<path d="M17.7172 8.52344C19.1782 8.52344 20.2739 9.71051 20.2739 11.0802C20.2739 12.4499 19.0869 13.637 17.7172 13.637C16.2562 13.637 15.1604 12.4499 15.1604 11.0802C15.1604 9.71051 16.2562 8.52344 17.7172 8.52344Z" fill="#001899" fill-opacity="0.9"/>
<g opacity="0.8">
<path opacity="0.8" d="M26.204 8.52344C27.665 8.52344 28.7608 9.71051 28.7608 11.0802C28.7608 12.4499 27.5737 13.637 26.204 13.637C24.743 13.637 23.6472 12.4499 23.6472 11.0802C23.6472 9.71051 24.8343 8.52344 26.204 8.52344Z" fill="#001899"/>
</g>
<g opacity="0.6">
<path opacity="0.6" d="M34.7909 8.52344C36.2519 8.52344 37.3477 9.71051 37.3477 11.0802C37.3477 12.4499 36.1606 13.637 34.7909 13.637C33.3299 13.637 32.2341 12.4499 32.2341 11.0802C32.2341 9.71051 33.4212 8.52344 34.7909 8.52344Z" fill="#001899"/>
</g>
</svg>
