<svg width="62" height="40" viewBox="0 0 62 40" fill="none" xmlns="http://www.w3.org/2000/svg">
<path d="M0 35.6117C0 37.5698 1.5909 39.1607 3.54894 39.1607C5.50697 39.1607 7.09787 37.5698 7.09787 35.6117C7.09787 33.6537 5.50697 32.0628 3.54894 32.0628C1.5909 32.0628 0 33.6537 0 35.6117ZM19.458 0C11.2587 0 4.52795 6.73074 4.52795 14.93C4.52795 16.888 4.89508 18.7237 5.62935 20.437C5.01746 21.7831 4.52795 23.2516 4.52795 24.5978C4.52795 28.5139 7.70976 31.6957 11.6258 31.6957C13.7062 31.6957 15.909 30.9614 17.6223 29.7376C17.9894 29.7376 18.4789 29.86 18.8461 29.86C18.9685 29.86 19.2132 29.86 19.3356 29.86H19.458H46.9928C55.1921 29.86 61.9228 23.1293 61.9228 14.93C61.9228 6.73074 55.1921 0 46.9928 0H19.458Z" fill="url(#paint0_linear)"/>
<path d="M23.7449 11.1363C25.7029 11.1363 27.1714 12.7272 27.1714 14.5628C27.1714 16.3985 25.5805 17.9894 23.7449 17.9894C21.7869 17.9894 20.3183 16.3985 20.3183 14.5628C20.3183 12.7272 21.7869 11.1363 23.7449 11.1363Z" fill="white"/>
<g opacity="0.8">
<path opacity="0.8" d="M35.1185 11.1363C37.0766 11.1363 38.5451 12.7272 38.5451 14.5628C38.5451 16.3985 36.9542 17.9894 35.1185 17.9894C33.1605 17.9894 31.692 16.3985 31.692 14.5628C31.692 12.7272 33.2829 11.1363 35.1185 11.1363Z" fill="white"/>
</g>
<g opacity="0.6">
<path opacity="0.6" d="M46.6265 11.1363C48.5845 11.1363 50.0531 12.7272 50.0531 14.5628C50.0531 16.3985 48.4622 17.9894 46.6265 17.9894C44.6685 17.9894 43.2 16.3985 43.2 14.5628C43.2 12.7272 44.7909 11.1363 46.6265 11.1363Z" fill="white"/>
</g>
<defs>
<linearGradient id="paint0_linear" x1="9.54297" y1="-0.36297" x2="45.9842" y2="39.5229" gradientUnits="userSpaceOnUse">
<stop stop-color="#F26339"/>
<stop offset="0.5523" stop-color="#F36F29"/>
<stop offset="1" stop-color="#F47521"/>
</linearGradient>
</defs>
</svg>
