<svg width="175" height="22" viewBox="0 0 175 22" fill="none" xmlns="http://www.w3.org/2000/svg"><path d="M1.11491 1.02206H3.92091C3.97271 1.01871 4.02461 1.02643 4.07321 1.04471C4.12181 1.063 4.16601 1.09144 4.20271 1.12811C4.23951 1.16478 4.26801 1.20885 4.28641 1.25741C4.30481 1.30596 4.31271 1.35787 4.30941 1.40969V21.5239C4.31271 21.5758 4.30481 21.6277 4.28641 21.6763C4.26801 21.7248 4.23951 21.7689 4.20271 21.8056C4.16601 21.8422 4.12181 21.8707 4.07321 21.889C4.02461 21.9072 3.97271 21.915 3.92091 21.9116H1.11581C1.06391 21.9157 1.01161 21.9086 0.96271 21.8905C0.91381 21.8725 0.869409 21.8441 0.832609 21.8072C0.795709 21.7704 0.767308 21.726 0.749308 21.6771C0.731208 21.6282 0.724109 21.5759 0.728209 21.5239V1.40969C0.724109 1.35782 0.731209 1.30569 0.749209 1.25685C0.767209 1.20801 0.795508 1.16364 0.832308 1.1268C0.869008 1.08996 0.913311 1.06151 0.962111 1.04343C1.01091 1.02535 1.06301 1.01806 1.11491 1.02206Z" fill="black"/><path d="M8.8434 1.40929C8.8402 1.35746 8.848 1.30555 8.8664 1.257C8.8848 1.20844 8.9134 1.16438 8.9501 1.1277C8.9869 1.09103 9.031 1.06259 9.0796 1.0443C9.1282 1.02602 9.1802 1.0183 9.232 1.02165H9.6791C9.913 1.03471 10.1348 1.1299 10.3054 1.29045L21.7339 13.5547C21.8829 13.7038 21.9725 13.7632 22.0923 13.7632C22.2121 13.7632 22.3008 13.6141 22.3008 13.3161V1.40929C22.2976 1.35754 22.3054 1.30571 22.3237 1.25722C22.3421 1.20873 22.3705 1.16472 22.4072 1.12806C22.4438 1.09141 22.4879 1.06296 22.5364 1.04461C22.5849 1.02626 22.6367 1.01844 22.6884 1.02165H25.4935C25.5454 1.01751 25.5977 1.02469 25.6466 1.04271C25.6955 1.06073 25.7399 1.08917 25.7767 1.12603C25.8136 1.16288 25.842 1.20728 25.86 1.25619C25.8781 1.3051 25.8852 1.35733 25.8811 1.40929V21.5236C25.8852 21.5756 25.8781 21.6278 25.86 21.6767C25.842 21.7256 25.8136 21.77 25.7767 21.8069C25.7399 21.8438 25.6955 21.8722 25.6466 21.8902C25.5977 21.9082 25.5454 21.9154 25.4935 21.9113H25.0756C24.9516 21.9092 24.8294 21.8817 24.7165 21.8304C24.6035 21.7791 24.5023 21.7052 24.4192 21.6132L9.1113 5.14136C8.9492 4.94796 8.8548 4.70686 8.8425 4.45476L8.8434 1.40929ZM8.8434 9.67536C8.8434 9.43676 8.9632 9.40746 9.1122 9.58396L12.1559 12.8653C12.3221 13.0447 12.4176 13.2783 12.4247 13.5227V21.5191C12.4279 21.5709 12.42 21.6228 12.4016 21.6714C12.3832 21.7199 12.3547 21.764 12.3179 21.8007C12.2812 21.8373 12.237 21.8658 12.1884 21.884C12.1398 21.9023 12.0879 21.9101 12.0361 21.9067H9.2311C9.1792 21.9101 9.1273 21.9023 9.0787 21.884C9.0301 21.8658 8.986 21.8373 8.9492 21.8007C8.9125 21.764 8.8839 21.7199 8.8655 21.6714C8.8471 21.6228 8.8393 21.5709 8.8425 21.5191L8.8434 9.67536Z" fill="black"/><path d="M29.6134 9.82436H39.4877C39.5396 9.82026 39.5919 9.82746 39.6408 9.84546C39.6897 9.86346 39.7341 9.89186 39.771 9.92876C39.8078 9.96566 39.8362 10.0101 39.8543 10.059C39.8723 10.1079 39.8795 10.1601 39.8753 10.2121V12.6889C39.8795 12.7408 39.8723 12.7931 39.8543 12.842C39.8362 12.8909 39.8078 12.9353 39.771 12.9722C39.7341 13.009 39.6897 13.0374 39.6408 13.0554C39.5919 13.0735 39.5396 13.0807 39.4877 13.0765H29.6134C29.5614 13.0807 29.5092 13.0735 29.4603 13.0554C29.4114 13.0374 29.367 13.009 29.3301 12.9722C29.2933 12.9353 29.2648 12.8909 29.2468 12.842C29.2288 12.7931 29.2216 12.7408 29.2257 12.6889V10.2121C29.2216 10.1601 29.2288 10.1079 29.2468 10.059C29.2648 10.0101 29.2933 9.96566 29.3301 9.92876C29.367 9.89186 29.4114 9.86346 29.4603 9.84546C29.5092 9.82746 29.5614 9.82026 29.6134 9.82436Z" fill="black"/><path d="M42.1729 21.551L51.6028 0.992356C51.6465 0.911416 51.7111 0.843707 51.7899 0.796267C51.8687 0.748817 51.9588 0.723396 52.0508 0.722656C52.1388 0.723706 52.2247 0.749577 52.2986 0.797297C52.3725 0.845007 52.4314 0.912616 52.4686 0.992356L61.898 21.551C61.989 21.7595 61.898 21.9085 61.659 21.9085H58.733C58.615 21.908 58.499 21.8742 58.399 21.811C58.298 21.7478 58.218 21.6577 58.166 21.551L57.331 19.7307C57.222 19.5072 57.052 19.3187 56.841 19.1868C56.63 19.055 56.386 18.9849 56.138 18.9846H47.931C47.6822 18.9849 47.4386 19.055 47.2276 19.1868C47.0167 19.3187 46.847 19.5072 46.7379 19.7307L45.9022 21.551C45.8538 21.6539 45.7783 21.7415 45.6837 21.8045C45.5891 21.8675 45.4791 21.9035 45.3655 21.9085H42.4115C42.1728 21.9085 42.0842 21.7577 42.1729 21.551ZM49.4871 15.6429H54.619C55.126 15.6429 55.306 15.344 55.096 14.8667L52.411 9.01525C52.2891 8.77625 52.1697 8.65686 52.0526 8.65686C51.9356 8.65686 51.8161 8.77625 51.6942 9.01525L48.9788 14.8667C48.7685 15.344 48.977 15.6429 49.4844 15.6429H49.4871Z" fill="black"/><path d="M65.388 11.5552C65.384 11.5034 65.392 11.4515 65.41 11.4029C65.429 11.3543 65.457 11.3101 65.494 11.2734C65.53 11.2366 65.574 11.2081 65.623 11.1897C65.672 11.1713 65.723 11.1634 65.775 11.1667H72.28C76.816 11.1667 76.786 4.39356 72.28 4.39356H65.775C65.723 4.39776 65.671 4.39056 65.622 4.37256C65.573 4.35446 65.529 4.32606 65.492 4.28916C65.455 4.25236 65.427 4.20796 65.409 4.15906C65.391 4.11016 65.383 4.05786 65.388 4.00596V1.40934C65.384 1.3576 65.392 1.30576 65.411 1.25728C65.429 1.20879 65.457 1.16478 65.494 1.12812C65.531 1.09146 65.575 1.06301 65.623 1.04467C65.672 1.02632 65.724 1.01849 65.775 1.0217H72.28C76.995 1.0217 79.352 4.39356 79.352 7.79656C79.399 9.50446 78.776 11.1629 77.616 12.4174C76.456 13.6719 74.852 14.423 73.145 14.5102C72.788 14.5394 72.279 14.5395 71.445 14.5395H69.799C69.688 14.5344 69.577 14.5525 69.473 14.5927C69.37 14.6329 69.276 14.6943 69.197 14.773C69.119 14.8516 69.057 14.9458 69.017 15.0495C68.977 15.1532 68.959 15.2641 68.964 15.3751V21.5219C68.968 21.5736 68.96 21.6254 68.941 21.6739C68.923 21.7224 68.895 21.7664 68.858 21.8031C68.821 21.8398 68.777 21.8682 68.729 21.8865C68.68 21.9049 68.628 21.9127 68.577 21.9095H65.771C65.719 21.9127 65.667 21.9049 65.619 21.8865C65.57 21.8682 65.526 21.8398 65.489 21.8031C65.453 21.7664 65.424 21.7224 65.406 21.6739C65.388 21.6254 65.38 21.5736 65.383 21.5219L65.388 11.5552Z" fill="black"/><path d="M83.286 11.5557C83.283 11.5038 83.291 11.4518 83.309 11.4031C83.327 11.3544 83.356 11.3102 83.393 11.2735C83.43 11.2367 83.474 11.2082 83.522 11.1898C83.571 11.1715 83.623 11.1638 83.675 11.1671H90.18C94.716 11.1671 94.686 4.39414 90.18 4.39414H83.68C83.628 4.39744 83.576 4.38974 83.527 4.37144C83.479 4.35314 83.434 4.32474 83.398 4.28804C83.361 4.25134 83.332 4.20734 83.314 4.15874C83.296 4.11024 83.288 4.05834 83.291 4.00644V1.40988C83.288 1.35806 83.296 1.30615 83.314 1.25759C83.332 1.20904 83.361 1.16497 83.398 1.1283C83.434 1.09162 83.479 1.06318 83.527 1.0449C83.576 1.02661 83.628 1.0189 83.68 1.02224H90.185C94.9 1.02224 97.257 4.39414 97.257 7.79714C97.303 9.50494 96.68 11.1633 95.52 12.4178C94.36 13.6723 92.756 14.4234 91.05 14.5106C90.692 14.5399 90.185 14.5399 89.349 14.5399H87.703C87.592 14.5348 87.481 14.553 87.378 14.5932C87.274 14.6334 87.18 14.6948 87.101 14.7734C87.023 14.852 86.961 14.9462 86.921 15.0499C86.881 15.1536 86.863 15.2645 86.868 15.3756V21.5223C86.872 21.5743 86.865 21.6265 86.847 21.6754C86.829 21.7243 86.8 21.7687 86.763 21.8056C86.726 21.8425 86.682 21.8709 86.633 21.8889C86.584 21.9069 86.532 21.9141 86.48 21.91H83.68C83.628 21.9133 83.576 21.9056 83.527 21.8873C83.479 21.869 83.434 21.8406 83.398 21.8039C83.361 21.7673 83.332 21.7232 83.314 21.6746C83.296 21.626 83.288 21.5741 83.291 21.5223L83.286 11.5557Z" fill="black"/><path d="M120.78 18.169C120.436 18.7003 120.033 19.191 119.578 19.6319C119.089 20.1056 118.541 20.5138 117.947 20.846C117.302 21.2068 116.615 21.486 115.901 21.6771C115.102 21.8874 114.28 21.9901 113.454 21.9825C112.05 21.9962 110.657 21.723 109.362 21.1798C108.142 20.6688 107.041 19.9122 106.126 18.9571C105.206 17.9848 104.487 16.8401 104.011 15.5889C103.493 14.2246 103.235 12.7751 103.251 11.3155C103.235 9.85546 103.497 8.40566 104.024 7.04396C104.51 5.79106 105.239 4.64616 106.167 3.67486C107.086 2.72445 108.186 1.96857 109.402 1.45219C110.683 0.910276 112.062 0.637336 113.453 0.650346C114.856 0.650906 116.242 0.953707 117.517 1.53813C118.109 1.80919 118.666 2.14987 119.177 2.55297C119.659 2.93054 120.079 3.38166 120.421 3.88966L118.762 5.15136C118.532 4.79386 118.258 4.46646 117.947 4.17676C117.586 3.83766 117.182 3.54836 116.745 3.31646C116.266 3.06116 115.761 2.85907 115.238 2.71388C114.666 2.55764 114.075 2.48045 113.482 2.48442C112.304 2.46426 111.137 2.70857 110.067 3.19936C109.088 3.65536 108.215 4.31236 107.507 5.12766C106.796 5.95476 106.251 6.91076 105.902 7.94356C105.532 9.02866 105.347 10.1682 105.354 11.3146C105.348 12.4633 105.54 13.6045 105.92 14.6883C106.277 15.7202 106.826 16.6753 107.538 17.5034C108.246 18.3192 109.119 18.9768 110.098 19.4335C111.158 19.9213 112.314 20.1653 113.481 20.1475C114.59 20.1508 115.686 19.9059 116.688 19.4307C117.736 18.9223 118.618 18.1269 119.232 17.1368L120.78 18.169Z" fill="black"/><path d="M124.208 1.16504H126.202V9.96776H136.875V1.16504H138.866V21.4622H136.875V11.8604H126.202V21.4659H124.212L124.208 1.16504Z" fill="black"/><path d="M143.922 21.4671H141.738L150.2 1.16992H152.134L160.54 21.4671H158.328L156.171 16.1331H146.051L143.922 21.4671ZM146.798 14.2442H155.425L151.112 3.4629L146.798 14.2442Z" fill="black"/><path d="M168.03 21.4668H166.04V2.99819H159.488V1.16504H174.584V3.00006H168.031L168.03 21.4668Z" fill="black"/></svg>