<svg xmlns="http://www.w3.org/2000/svg" width="33.019" height="30" viewBox="0 0 33.019 30"><g transform="translate(-258.871 -47.193)"><g transform="translate(258.871 47.193)"><path d="M291.89,77.193a10.5,10.5,0,0,1-3.953-6.157,11.374,11.374,0,0,1,.24-5.411,14.92,14.92,0,0,0,.428-3.764,15.1,15.1,0,0,0-14.734-14.667,14.868,14.868,0,1,0,8.763,26.782l-1.1-.953a5.03,5.03,0,0,0-4.753-1.016,10.4,10.4,0,1,1,7.357-9.909,15.324,15.324,0,0,1-.3,2.454c-.5,3.06-.418,5.07.778,7.2C286.64,75.372,291.89,77.193,291.89,77.193Z" transform="translate(-258.871 -47.193)" fill="#fff"/><g transform="translate(6.869 12.662)"><circle cx="1.568" cy="1.568" r="1.568" transform="translate(0 2.217) rotate(-45)" fill="#fff"/><path d="M404.422,191.457a1.569,1.569,0,1,1-1.281-1.28A1.57,1.57,0,0,1,404.422,191.457Z" transform="translate(-394.914 -189.505)" fill="#fff"/><path d="M466.111,191.457a1.569,1.569,0,1,1-1.281-1.28A1.57,1.57,0,0,1,466.111,191.457Z" transform="translate(-450.86 -189.505)" fill="#fff"/></g></g></g></svg>