<svg width="221" height="32" viewBox="0 0 221 32" fill="none" xmlns="http://www.w3.org/2000/svg">
<path d="M35.2208 31.9998C35.2208 31.9998 32.2768 30.1914 31.0051 25.4316C30.6244 23.5151 30.7122 21.535 31.2611 19.6597C31.5834 18.3464 31.7371 16.9973 31.7182 15.6451C31.6017 11.5203 29.9064 7.5975 26.9819 4.68628C24.0574 1.77506 20.1269 0.0975313 16.0016 -0.000156981C13.4846 -0.0215973 10.9987 0.556383 8.74928 1.686C6.49989 2.81561 4.55169 4.46441 3.06574 6.49609C1.57979 8.52776 0.598775 10.884 0.203796 13.3699C-0.191182 15.8558 0.0112269 18.4 0.794282 20.7922C1.57734 23.1844 2.91855 25.3558 4.70703 27.127C6.49552 28.8982 8.67989 30.2182 11.0796 30.978C13.4793 31.7377 16.0254 31.9154 18.5073 31.4963C20.9893 31.0771 23.3358 30.0733 25.3529 28.5676L24.1772 27.5509C23.4925 26.9567 22.6684 26.5457 21.7818 26.3562C20.8953 26.1668 19.9752 26.205 19.1075 26.4675C16.8738 27.1506 14.4814 27.1111 12.2715 26.3547C10.0615 25.5982 8.1468 24.1634 6.80023 22.2548C5.45365 20.3462 4.74395 18.0612 4.77232 15.7256C4.8007 13.3899 5.56569 11.1228 6.95823 9.24751C8.35078 7.37218 10.2998 5.98432 12.5275 5.28178C14.7551 4.57924 17.1477 4.59788 19.3642 5.33504C21.5806 6.07219 23.5078 7.49025 24.871 9.38704C26.2341 11.2838 26.9637 13.5626 26.9557 15.8984C26.9196 16.7781 26.8126 17.6535 26.6357 18.516C26.099 21.78 26.1904 23.924 27.4649 26.196C29.6208 30.057 35.2208 31.9998 35.2208 31.9998Z" fill="url(#paint0_linear)"/>
<path d="M10.8745 17.0535C11.5275 16.4005 11.5275 15.3417 10.8745 14.6886C10.2214 14.0356 9.16264 14.0356 8.50959 14.6886C7.85655 15.3417 7.85655 16.4005 8.50959 17.0535C9.16264 17.7066 10.2214 17.7066 10.8745 17.0535Z" fill="url(#paint1_linear)"/>
<path d="M17.4686 15.5876C17.5287 15.9376 17.4759 16.2977 17.3177 16.6158C17.1595 16.9338 16.9042 17.1932 16.5888 17.3565C16.2734 17.5198 15.9142 17.5785 15.5632 17.524C15.2123 17.4696 14.8877 17.3049 14.6365 17.0537C14.3854 16.8026 14.2207 16.478 14.1663 16.1271C14.1118 15.7761 14.1705 15.4169 14.3338 15.1014C14.4971 14.786 14.7565 14.5308 15.0745 14.3726C15.3925 14.2144 15.7526 14.1615 16.1027 14.2216C16.4436 14.2803 16.758 14.4431 17.0026 14.6877C17.2472 14.9323 17.41 15.2467 17.4686 15.5876V15.5876Z" fill="url(#paint2_linear)"/>
<path d="M23.5951 15.5876C23.6552 15.9376 23.6023 16.2977 23.4442 16.6158C23.286 16.9338 23.0307 17.1932 22.7153 17.3565C22.3999 17.5198 22.0407 17.5785 21.6897 17.524C21.3387 17.4696 21.0142 17.3049 20.763 17.0537C20.5118 16.8026 20.3471 16.478 20.2927 16.1271C20.2383 15.7761 20.2969 15.4169 20.4602 15.1014C20.6235 14.786 20.883 14.5308 21.201 14.3726C21.519 14.2144 21.8791 14.1615 22.2292 14.2216C22.5701 14.2803 22.8844 14.4431 23.129 14.6877C23.3736 14.9323 23.5365 15.2467 23.5951 15.5876V15.5876Z" fill="url(#paint3_linear)"/>
<path d="M47.1149 8.02182H49.9209C49.9727 8.01847 50.0246 8.02619 50.0732 8.04447C50.1218 8.06276 50.166 8.0912 50.2027 8.12787C50.2395 8.16454 50.268 8.20861 50.2864 8.25717C50.3048 8.30572 50.3127 8.35763 50.3094 8.40945V28.5237C50.3127 28.5756 50.3048 28.6275 50.2864 28.6761C50.268 28.7246 50.2395 28.7687 50.2027 28.8054C50.166 28.842 50.1218 28.8705 50.0732 28.8888C50.0246 28.907 49.9727 28.9148 49.9209 28.9114H47.1158C47.0639 28.9155 47.0116 28.9084 46.9627 28.8903C46.9138 28.8723 46.8694 28.8439 46.8326 28.807C46.7957 28.7702 46.7673 28.7258 46.7493 28.6769C46.7312 28.628 46.7241 28.5757 46.7282 28.5237V8.40945C46.7241 8.35758 46.7312 8.30545 46.7492 8.25661C46.7672 8.20777 46.7955 8.1634 46.8323 8.12656C46.869 8.08972 46.9133 8.06127 46.9621 8.04319C47.0109 8.02511 47.063 8.01782 47.1149 8.02182V8.02182Z" fill="black"/>
<path d="M54.8434 8.40953C54.8402 8.3577 54.848 8.30579 54.8664 8.25724C54.8848 8.20868 54.9134 8.16462 54.9501 8.12794C54.9869 8.09127 55.031 8.06283 55.0796 8.04454C55.1282 8.02626 55.1802 8.01854 55.232 8.02189H55.6791C55.913 8.03495 56.1348 8.13014 56.3054 8.29069L67.7339 20.5549C67.8829 20.704 67.9725 20.7634 68.0923 20.7634C68.2121 20.7634 68.3008 20.6143 68.3008 20.3163V8.40953C68.2976 8.35778 68.3054 8.30595 68.3237 8.25746C68.3421 8.20897 68.3705 8.16496 68.4072 8.1283C68.4438 8.09165 68.4879 8.0632 68.5364 8.04485C68.5849 8.0265 68.6367 8.01868 68.6884 8.02189H71.4935C71.5454 8.01775 71.5977 8.02493 71.6466 8.04295C71.6955 8.06097 71.7399 8.08941 71.7767 8.12627C71.8136 8.16312 71.842 8.20752 71.86 8.25643C71.8781 8.30534 71.8852 8.35757 71.8811 8.40953V28.5238C71.8852 28.5758 71.8781 28.628 71.86 28.6769C71.842 28.7258 71.8136 28.7702 71.7767 28.8071C71.7399 28.844 71.6955 28.8724 71.6466 28.8904C71.5977 28.9084 71.5454 28.9156 71.4935 28.9115H71.0756C70.9516 28.9094 70.8294 28.8819 70.7165 28.8306C70.6035 28.7793 70.5023 28.7054 70.4192 28.6134L55.1113 12.1416C54.9492 11.9482 54.8548 11.7071 54.8425 11.455L54.8434 8.40953ZM54.8434 16.6756C54.8434 16.437 54.9632 16.4077 55.1122 16.5842L58.1559 19.8655C58.3221 20.0449 58.4176 20.2785 58.4247 20.5229V28.5193C58.4279 28.5711 58.42 28.623 58.4016 28.6716C58.3832 28.7201 58.3547 28.7642 58.3179 28.8009C58.2812 28.8375 58.237 28.866 58.1884 28.8842C58.1398 28.9025 58.0879 28.9103 58.0361 28.9069H55.2311C55.1792 28.9103 55.1273 28.9025 55.0787 28.8842C55.0301 28.866 54.986 28.8375 54.9492 28.8009C54.9125 28.7642 54.8839 28.7201 54.8655 28.6716C54.8471 28.623 54.8393 28.5711 54.8425 28.5193L54.8434 16.6756Z" fill="black"/>
<path d="M75.6134 16.8246H85.4877C85.5396 16.8205 85.5919 16.8277 85.6408 16.8457C85.6897 16.8637 85.7341 16.8921 85.771 16.929C85.8078 16.9659 85.8362 17.0103 85.8543 17.0592C85.8723 17.1081 85.8795 17.1603 85.8753 17.2123V19.6891C85.8795 19.741 85.8723 19.7933 85.8543 19.8422C85.8362 19.8911 85.8078 19.9355 85.771 19.9724C85.7341 20.0092 85.6897 20.0376 85.6408 20.0556C85.5919 20.0737 85.5396 20.0809 85.4877 20.0767H75.6134C75.5614 20.0809 75.5092 20.0737 75.4603 20.0556C75.4114 20.0376 75.367 20.0092 75.3301 19.9724C75.2933 19.9355 75.2648 19.8911 75.2468 19.8422C75.2288 19.7933 75.2216 19.741 75.2257 19.6891V17.2123C75.2216 17.1603 75.2288 17.1081 75.2468 17.0592C75.2648 17.0103 75.2933 16.9659 75.3301 16.929C75.367 16.8921 75.4114 16.8637 75.4603 16.8457C75.5092 16.8277 75.5614 16.8205 75.6134 16.8246V16.8246Z" fill="black"/>
<path d="M88.1729 28.5512L97.6028 7.9926C97.6465 7.91166 97.7111 7.84395 97.7899 7.79651C97.8687 7.74906 97.9588 7.72364 98.0508 7.7229C98.1388 7.72395 98.2247 7.74982 98.2986 7.79754C98.3725 7.84525 98.4314 7.91286 98.4686 7.9926L107.898 28.5512C107.989 28.7597 107.898 28.9087 107.659 28.9087H104.733C104.615 28.9082 104.499 28.8744 104.399 28.8112C104.298 28.748 104.218 28.6579 104.166 28.5512L103.331 26.7309C103.222 26.5074 103.052 26.3189 102.841 26.187C102.63 26.0552 102.386 25.9851 102.138 25.9848H93.931C93.6822 25.9851 93.4386 26.0552 93.2276 26.187C93.0167 26.3189 92.847 26.5074 92.7379 26.7309L91.9022 28.5512C91.8538 28.6541 91.7783 28.7417 91.6837 28.8047C91.5891 28.8677 91.4791 28.9037 91.3655 28.9087H88.4115C88.1728 28.9087 88.0842 28.7579 88.1729 28.5512ZM95.4871 22.6431H100.619C101.126 22.6431 101.306 22.3442 101.096 21.8669L98.411 16.0155C98.2891 15.7765 98.1697 15.6571 98.0526 15.6571C97.9356 15.6571 97.8161 15.7765 97.6942 16.0155L94.9788 21.8669C94.7685 22.3442 94.977 22.6431 95.4844 22.6431H95.4871Z" fill="black"/>
<path d="M111.388 18.5554C111.384 18.5036 111.392 18.4517 111.41 18.4031C111.429 18.3545 111.457 18.3103 111.494 18.2736C111.53 18.2368 111.574 18.2083 111.623 18.1899C111.672 18.1715 111.723 18.1636 111.775 18.1669H118.28C122.816 18.1669 122.786 11.3938 118.28 11.3938H111.775C111.723 11.398 111.671 11.3908 111.622 11.3728C111.573 11.3547 111.529 11.3263 111.492 11.2894C111.455 11.2526 111.427 11.2082 111.409 11.1593C111.391 11.1104 111.383 11.0581 111.388 11.0062V8.40958C111.384 8.35784 111.392 8.306 111.411 8.25752C111.429 8.20903 111.457 8.16502 111.494 8.12836C111.531 8.0917 111.575 8.06325 111.623 8.04491C111.672 8.02656 111.724 8.01873 111.775 8.02194H118.28C122.995 8.02194 125.352 11.3938 125.352 14.7968C125.399 16.5047 124.776 18.1631 123.616 19.4176C122.456 20.6721 120.852 21.4232 119.145 21.5104C118.788 21.5396 118.279 21.5397 117.445 21.5397H115.799C115.688 21.5346 115.577 21.5527 115.473 21.5929C115.37 21.6331 115.276 21.6945 115.197 21.7732C115.119 21.8518 115.057 21.946 115.017 22.0497C114.977 22.1534 114.959 22.2643 114.964 22.3753V28.5221C114.968 28.5738 114.96 28.6256 114.941 28.6741C114.923 28.7226 114.895 28.7666 114.858 28.8033C114.821 28.84 114.777 28.8684 114.729 28.8867C114.68 28.9051 114.628 28.9129 114.577 28.9097H111.771C111.719 28.9129 111.667 28.9051 111.619 28.8867C111.57 28.8684 111.526 28.84 111.489 28.8033C111.453 28.7666 111.424 28.7226 111.406 28.6741C111.388 28.6256 111.38 28.5738 111.383 28.5221L111.388 18.5554Z" fill="black"/>
<path d="M129.286 18.5555C129.283 18.5036 129.291 18.4516 129.309 18.4029C129.327 18.3542 129.356 18.31 129.393 18.2733C129.43 18.2365 129.474 18.208 129.522 18.1896C129.571 18.1713 129.623 18.1636 129.675 18.1669H136.18C140.716 18.1669 140.686 11.3939 136.18 11.3939H129.68C129.628 11.3972 129.576 11.3895 129.527 11.3712C129.479 11.3529 129.434 11.3245 129.398 11.2878C129.361 11.2511 129.332 11.2071 129.314 11.1585C129.296 11.11 129.288 11.0581 129.291 11.0062V8.40964C129.288 8.35782 129.296 8.30591 129.314 8.25735C129.332 8.2088 129.361 8.16473 129.398 8.12806C129.434 8.09138 129.479 8.06294 129.527 8.04466C129.576 8.02637 129.628 8.01866 129.68 8.022H136.185C140.9 8.022 143.257 11.3939 143.257 14.7969C143.303 16.5047 142.68 18.1631 141.52 19.4176C140.36 20.6721 138.756 21.4232 137.05 21.5104C136.692 21.5397 136.185 21.5397 135.349 21.5397H133.703C133.592 21.5346 133.481 21.5528 133.378 21.593C133.274 21.6332 133.18 21.6946 133.101 21.7732C133.023 21.8518 132.961 21.946 132.921 22.0497C132.881 22.1534 132.863 22.2643 132.868 22.3754V28.5221C132.872 28.5741 132.865 28.6263 132.847 28.6752C132.829 28.7241 132.8 28.7685 132.763 28.8054C132.726 28.8423 132.682 28.8707 132.633 28.8887C132.584 28.9067 132.532 28.9139 132.48 28.9098H129.68C129.628 28.9131 129.576 28.9054 129.527 28.8871C129.479 28.8688 129.434 28.8404 129.398 28.8037C129.361 28.7671 129.332 28.723 129.314 28.6744C129.296 28.6258 129.288 28.5739 129.291 28.5221L129.286 18.5555Z" fill="black"/>
<path d="M166.78 25.1692C166.436 25.7005 166.033 26.1912 165.578 26.6321C165.089 27.1058 164.541 27.514 163.947 27.8462C163.302 28.207 162.615 28.4862 161.901 28.6773C161.102 28.8876 160.28 28.9903 159.454 28.9827C158.05 28.9964 156.657 28.7232 155.362 28.18C154.142 27.669 153.041 26.9124 152.126 25.9573C151.206 24.985 150.487 23.8403 150.011 22.5891C149.493 21.2248 149.235 19.7753 149.251 18.3157C149.235 16.8557 149.497 15.4059 150.024 14.0442C150.51 12.7913 151.239 11.6464 152.167 10.6751C153.086 9.72469 154.186 8.96881 155.402 8.45243C156.683 7.91052 158.062 7.63758 159.453 7.65059C160.856 7.65115 162.242 7.95395 163.517 8.53837C164.109 8.80943 164.666 9.15011 165.177 9.55321C165.659 9.93078 166.079 10.3819 166.421 10.8899L164.762 12.1516C164.532 11.7941 164.258 11.4667 163.947 11.177C163.586 10.8379 163.182 10.5486 162.745 10.3167C162.266 10.0614 161.761 9.85931 161.238 9.71412C160.666 9.55788 160.075 9.48069 159.482 9.48466C158.304 9.4645 157.137 9.70881 156.067 10.1996C155.088 10.6556 154.215 11.3126 153.507 12.1279C152.796 12.955 152.251 13.911 151.902 14.9438C151.532 16.0289 151.347 17.1684 151.354 18.3148C151.348 19.4635 151.54 20.6047 151.92 21.6885C152.277 22.7204 152.826 23.6755 153.538 24.5036C154.246 25.3194 155.119 25.977 156.098 26.4337C157.158 26.9215 158.314 27.1655 159.481 27.1477C160.59 27.151 161.686 26.9061 162.688 26.4309C163.736 25.9225 164.618 25.1271 165.232 24.137L166.78 25.1692Z" fill="black"/>
<path d="M170.208 8.16528H172.202V16.968H182.875V8.16528H184.866V28.4624H182.875V18.8606H172.202V28.4661H170.212L170.208 8.16528Z" fill="black"/>
<path d="M189.922 28.4671H187.738L196.2 8.16992H198.134L206.54 28.4671H204.328L202.171 23.1331H192.051L189.922 28.4671ZM192.798 21.2442H201.425L197.112 10.4629L192.798 21.2442Z" fill="black"/>
<path d="M214.03 28.467H212.04V9.99843H205.488V8.16528H220.584V10.0003H214.031L214.03 28.467Z" fill="black"/>
<defs>
<linearGradient id="paint0_linear" x1="9.58539" y1="4.15934" x2="22.4284" y2="33.3178" gradientUnits="userSpaceOnUse">
<stop stop-color="#F4A121"/>
<stop offset="0.552" stop-color="#F36F29"/>
<stop offset="0.988" stop-color="#F24D23"/>
</linearGradient>
<linearGradient id="paint1_linear" x1="-4.4831" y1="11.5623" x2="38.1937" y2="24.536" gradientUnits="userSpaceOnUse">
<stop stop-color="#F4A121"/>
<stop offset="0.552" stop-color="#F36F29"/>
<stop offset="0.988" stop-color="#F24D23"/>
</linearGradient>
<linearGradient id="paint2_linear" x1="7.00885" y1="-0.639981" x2="28.0203" y2="38.7325" gradientUnits="userSpaceOnUse">
<stop stop-color="#F4A121"/>
<stop offset="0.552" stop-color="#F36F29"/>
<stop offset="0.988" stop-color="#F24D23"/>
</linearGradient>
<linearGradient id="paint3_linear" x1="11.3015" y1="-4.07328" x2="32.3163" y2="35.2992" gradientUnits="userSpaceOnUse">
<stop stop-color="#F4A121"/>
<stop offset="0.552" stop-color="#F36F29"/>
<stop offset="0.988" stop-color="#F24D23"/>
</linearGradient>
</defs>
</svg>
