<svg xmlns="http://www.w3.org/2000/svg" xmlns:xlink="http://www.w3.org/1999/xlink" width="34" height="34" viewBox="0 0 34 34">
  <defs>
    <clipPath id="clip-path">
      <circle id="Ellipse_6" data-name="Ellipse 6" cx="15" cy="15" r="15" transform="translate(23 371)" fill="none" stroke="#707070" stroke-width="1"/>
    </clipPath>
  </defs>
  <g id="Group-icon" transform="translate(-21 -369)">
    <circle id="Icon-Bg" cx="17" cy="17" r="17" transform="translate(21 369)" fill="#b2b5ba"/>
    <g id="Group_Icon" data-name="Group Icon" clip-path="url(#clip-path)">
      <g id="user-filled" transform="translate(31.346 376.514)">
        <path id="Path_29" data-name="Path 29" d="M14.08,27.665c5.046,0,7.2-2.365,7.164-2.346a5.074,5.074,0,0,0-5.069-5.069H11.831a5.074,5.074,0,0,0-5.069,5.069S9.034,27.665,14.08,27.665Z" transform="translate(0 -6.415)" fill="#fff" stroke="#b2b5ba" stroke-width="2"/>
        <path id="Path_30" data-name="Path 30" d="M10.125,7.319A5.069,5.069,0,1,0,15.194,2.25,5.069,5.069,0,0,0,10.125,7.319Z" transform="translate(-1.19)" fill="#fff" stroke="#b2b5ba" stroke-width="2"/>
      </g>
      <g id="user-filled-2" data-name="user-filled" transform="translate(16.28 376.514)">
        <path id="Path_29-2" data-name="Path 29" d="M14.08,27.665c5.046,0,7.2-2.365,7.164-2.346a5.074,5.074,0,0,0-5.069-5.069H11.831a5.074,5.074,0,0,0-5.069,5.069S9.034,27.665,14.08,27.665Z" transform="translate(0 -6.415)" fill="#fff" stroke="#b2b5ba" stroke-width="2"/>
        <path id="Path_30-2" data-name="Path 30" d="M10.125,7.319A5.069,5.069,0,1,0,15.194,2.25,5.069,5.069,0,0,0,10.125,7.319Z" transform="translate(-1.19)" fill="#fff" stroke="#b2b5ba" stroke-width="2"/>
      </g>
      <g id="user-filled-3" data-name="user-filled" transform="translate(23.684 378.75)">
        <path id="Path_29-3" data-name="Path 29" d="M14.413,28c5.276,0,7.524-2.473,7.49-2.453a5.305,5.305,0,0,0-5.3-5.3H12.061a5.305,5.305,0,0,0-5.3,5.3S9.137,28,14.413,28Z" transform="translate(0 -5.888)" fill="#fff" stroke="#b2b5ba" stroke-width="2"/>
        <path id="Path_30-3" data-name="Path 30" d="M10.125,7.549a5.3,5.3,0,1,0,5.3-5.3,5.3,5.3,0,0,0-5.3,5.3Z" transform="translate(-1.092)" fill="#fff" stroke="#b2b5ba" stroke-width="2"/>
      </g>
    </g>
  </g>
</svg>
