<svg width="512" height="512" viewBox="0 0 512 512" fill="none" xmlns="http://www.w3.org/2000/svg">
<path d="M256 0C114.615 0 0 114.615 0 256C0 397.385 114.615 512 256 512C397.385 512 512 397.385 512 256C512 114.615 397.385 0 256 0ZM353.665 130.37L318.257 130.386C290.491 130.386 285.122 143.58 285.122 162.939V205.628H351.334L351.303 272.489H285.128V444.07H216.067V272.489H158.335V205.628H216.067V156.318C216.067 99.0949 251.029 67.9297 302.072 67.9297L353.67 68.0083V130.37H353.665Z" fill="white"/>
</svg>
