<svg xmlns="http://www.w3.org/2000/svg" width="181.18" height="200.301" viewBox="0 0 181.18 200.301">
  <g id="Group_2" data-name="Group 2" transform="translate(-819 -77)">
    <path id="Fill_9" data-name="Fill 9" d="M181.18,135.753V64.547A28.948,28.948,0,0,0,166.71,39.48l-61.651-35.6a28.933,28.933,0,0,0-28.938,0L14.47,39.48A28.953,28.953,0,0,0,0,64.547v71.206A28.95,28.95,0,0,0,14.47,160.82l61.651,35.6a28.922,28.922,0,0,0,28.938,0l61.651-35.6a28.945,28.945,0,0,0,14.47-25.067" transform="translate(819 77)" fill="#b57ad2"/>
    <g id="trustworthy" transform="translate(855 116)">
      <g id="Group" transform="translate(1.952 1.952)">
        <path id="Path" d="M3.417,10.914A15.637,15.637,0,0,0,18.313,0a15.248,15.248,0,0,0,4.549,1.523v.02l7.888,24.99L17.083,24.58,7.321,34.342l-3.9-12.69L0,10.543v-.02a15.149,15.149,0,0,0,3.417.39Z" transform="translate(43.44 82.8)" fill="#fff"/>
        <path id="Path-2" data-name="Path" d="M13.667,24.58,0,26.533,7.888,1.542v-.02A15.248,15.248,0,0,0,12.437,0a15.6,15.6,0,0,0,11.48,10.523v.02l3.417,11.109-3.9,12.69Z" transform="translate(19.524 82.8)" fill="#fff"/>
        <path id="Path-3" data-name="Path" d="M74.971,60.524a30.8,30.8,0,0,1-4.686-16.341V31.238h4.569a26.826,26.826,0,0,0,8.9-1.523,15.61,15.61,0,0,0-22-18.8,15.623,15.623,0,0,0-29.793,0A15.607,15.607,0,0,0,10.914,31.96a15.623,15.623,0,0,0,0,29.793,15.6,15.6,0,0,0,16.5,22.57A15.248,15.248,0,0,0,31.96,82.8,15.6,15.6,0,0,0,43.44,93.324a15.149,15.149,0,0,0,3.417.39A15.637,15.637,0,0,0,61.754,82.8,15.248,15.248,0,0,0,66.3,84.323a15.611,15.611,0,0,0,18.216-14.1A30.809,30.809,0,0,1,74.971,60.524Z" transform="translate(0 0)" fill="#fff"/>
        <path id="Path-4" data-name="Path" d="M27,36.139,25.381,41l-5.291.761a.176.176,0,0,0-.1.02,9.746,9.746,0,0,0-8.278,9.645v4.2a31.24,31.24,0,1,1,46.584-40H54.667V28.563A30.8,30.8,0,0,0,59.352,44.9h-.02a30.956,30.956,0,0,1-8.571,10.7V51.426a9.746,9.746,0,0,0-8.278-9.645.176.176,0,0,0-.1-.02L37.1,41l-1.62-4.861a9.788,9.788,0,0,0,5.33-6.853l1.952-2.792A11.87,11.87,0,0,0,33.034,7.81H29.442a11.873,11.873,0,0,0-9.723,18.684l1.952,2.792a9.771,9.771,0,0,0,2.655,4.959Z" transform="translate(15.619 15.619)" fill="#fff"/>
        <path id="Path-5" data-name="Path" d="M25.186,18.684l-1.952,2.792a9.2,9.2,0,0,0,.2-1.952V16.966a3.916,3.916,0,0,0-3.26-3.846L16.361,12.5a7.7,7.7,0,0,1-4.178-2.148l-.02.02L7.595,12.2A5.83,5.83,0,0,0,3.9,17.63v1.894a9.2,9.2,0,0,0,.2,1.952L2.148,18.684A11.873,11.873,0,0,1,11.87,0h3.592a11.873,11.873,0,0,1,9.723,18.684Z" transform="translate(33.19 23.429)" fill="#fff"/>
        <path id="Path-6" data-name="Path" d="M39.048,9.645v4.178A30.941,30.941,0,0,1,19.524,20.7,31.079,31.079,0,0,1,0,13.842v-4.2A9.746,9.746,0,0,1,8.278,0l5.389,8.981,5.857-5.857,5.857,5.857L30.77,0A9.746,9.746,0,0,1,39.048,9.645Z" transform="translate(27.333 57.4)" fill="#fff"/>
        <path id="Path-7" data-name="Path" d="M5.389,0l5.857,3.9L5.389,9.762,0,.781A.176.176,0,0,1,.1.761Z" transform="translate(35.611 56.619)" fill="#fff"/>
        <path id="Path-8" data-name="Path" d="M11.246.781,5.857,9.762,0,3.9,5.857,0l5.291.761a.176.176,0,0,1,.1.02Z" transform="translate(46.857 56.619)" fill="#fff"/>
        <path id="Path-9" data-name="Path" d="M5.857.957A9.847,9.847,0,0,0,10.094,0l1.62,4.861-5.857,3.9L0,4.861,1.62,0Z" transform="translate(41 51.758)" fill="#fff"/>
        <path id="Path-10" data-name="Path" d="M19.329,11.129a9.728,9.728,0,0,1-9.567,7.81l-4.237-.957L2.85,16.088A9.771,9.771,0,0,1,.2,11.129,9.2,9.2,0,0,1,0,9.176V7.282A5.83,5.83,0,0,1,3.69,1.855L8.259.02,8.278,0a7.7,7.7,0,0,0,4.178,2.148l3.807.625a3.916,3.916,0,0,1,3.26,3.846V9.176a9.2,9.2,0,0,1-.2,1.952Z" transform="translate(37.095 33.776)" fill="#fff"/>
        <path id="Path-11" data-name="Path" d="M46.857,7.81V20.754A30.958,30.958,0,0,1,23.429,50.762,30.986,30.986,0,0,1,0,20.754V7.81H4.569a26.826,26.826,0,0,0,8.9-1.523A26.887,26.887,0,0,0,23.429,0a26.656,26.656,0,0,0,18.86,7.81Z" transform="translate(70.286 23.429)" fill="#fff"/>
      </g>
      <g id="Group-2" data-name="Group">
        <path id="Shape" d="M45.818,122.771h0L34.454,111.4,18.68,113.658l7.961-25.215a17.526,17.526,0,0,1-16.4-23.659,17.562,17.562,0,0,1,0-31.949A17.556,17.556,0,0,1,32.835,10.244a17.562,17.562,0,0,1,31.949,0,17.534,17.534,0,0,1,23.573,18.14A24.8,24.8,0,0,0,94.287,24l1.38-1.38L97.047,24a24.549,24.549,0,0,0,17.473,7.238h6.527v14.9a32.826,32.826,0,0,1-24.907,31.9l-.474.12-.473-.12a32.953,32.953,0,0,1-7.278-2.78A17.494,17.494,0,0,1,70.977,88.441l7.964,25.217L63.167,111.4,51.8,122.769l-2.994-9.726-2.992,9.727Zm2.314-25.2,5.494,17.851,6.617-6.614-3.524-10.57L60.422,97l3.523,10.57,9.4,1.343L66.724,87.945a17.768,17.768,0,0,1-1.94-.571A17.494,17.494,0,0,1,48.81,97.619a3.691,3.691,0,0,1-.375-.025C48.336,97.584,48.234,97.574,48.132,97.57ZM37.2,97h0l3.7,1.235-3.524,10.57,6.617,6.614,2.775-9.015-2.923-9.5a17.484,17.484,0,0,1-11.01-9.532,17.633,17.633,0,0,1-1.94.571l-6.622,20.968,9.4-1.343L37.2,97ZM35.078,81.957h0l.7,2.213a13.668,13.668,0,0,0,26.06,0l.7-2.214L64.6,83.029a13.735,13.735,0,0,0,6.31,1.55A13.569,13.569,0,0,0,84.337,73.074a32.783,32.783,0,0,1-7.249-6.906A33.216,33.216,0,1,1,64.9,19.805,33.405,33.405,0,0,1,76.947,31.23,24.791,24.791,0,0,0,84.1,30.149,13.646,13.646,0,0,0,70.913,13.041,13.757,13.757,0,0,0,64.6,14.59l-2.061,1.072-.7-2.216a13.668,13.668,0,0,0-26.06,0l-.7,2.216L33.017,14.59a13.756,13.756,0,0,0-6.309-1.547A13.679,13.679,0,0,0,14.59,33.017l1.072,2.062-2.216.7a13.665,13.665,0,0,0,0,26.056l2.216.7L14.59,64.6A13.657,13.657,0,0,0,33.017,83.027l2.061-1.07Zm1.543-20.382a7.8,7.8,0,0,0-5.383,7.417v3.192a29.238,29.238,0,0,0,35.143.084V68.991A7.8,7.8,0,0,0,61,61.574l-5.944,9.908L48.81,65.237l-6.246,6.246Zm37.57-26.431V46.137A29.008,29.008,0,0,0,95.666,74.126a29.009,29.009,0,0,0,21.477-27.989V35.143h-2.623a28.563,28.563,0,0,1-10.1-1.825,28.372,28.372,0,0,1-8.755-5.263,28.382,28.382,0,0,1-8.756,5.263,28.561,28.561,0,0,1-10.1,1.825ZM47.017,23.429H50.6A13.83,13.83,0,0,1,61.93,45.188l-1.756,2.5A11.717,11.717,0,0,1,55.4,54.585l.742,2.226,4.09.583A11.761,11.761,0,0,1,70.264,68.765a29.567,29.567,0,0,0,4.407-6.238,32.939,32.939,0,0,1-4.386-16.39v-14.9h1.941a29.278,29.278,0,0,0-52.7,17.572,29.168,29.168,0,0,0,7.839,19.875,11.759,11.759,0,0,1,10.03-11.29l4.09-.583.742-2.226a11.72,11.72,0,0,1-4.78-6.892l-1.753-2.5A13.828,13.828,0,0,1,47.017,23.429ZM55.13,60.61,51.875,62.78l2.4,2.406,2.595-4.326-1.745-.25Zm-12.64,0-1.746.25,2.595,4.326,2.406-2.406Zm3.307-4.4-.522,1.564,3.534,2.356,3.533-2.354-.521-1.563a11.663,11.663,0,0,1-3.009.408h-.008A11.54,11.54,0,0,1,45.8,56.209ZM46.94,37.994l-3.486,1.394A3.884,3.884,0,0,0,41,43.013V44.9a7.809,7.809,0,1,0,15.619,0V42.355a1.948,1.948,0,0,0-1.634-1.925l-3.812-.636a9.805,9.805,0,0,1-4.233-1.8Zm.08-10.661a9.909,9.909,0,0,0-9.432,12.993,7.8,7.8,0,0,1,4.418-4.563l2.221-.89a9.81,9.81,0,0,1-.708-1.62l-.464-1.4,3.7-1.234.464,1.4a5.848,5.848,0,0,0,4.595,3.924l3.812.636a5.8,5.8,0,0,1,4.458,3.577A9.911,9.911,0,0,0,50.6,27.333Z" transform="translate(0)" fill="#3490cf"/>
        <path id="Path-12" data-name="Path" d="M9.19,18.143,2.761,11.714,0,14.475l9.19,9.19,20.9-20.9L27.333,0Z" transform="translate(82.572 39.62)" fill="#3490cf"/>
      </g>
    </g>
  </g>
</svg>
