<svg width="153" height="35" viewBox="0 0 153 35" fill="none" xmlns="http://www.w3.org/2000/svg">
<g clip-path="url(#clip0)">
<path d="M19.2598 6.62502C19.3487 6.61253 19.4393 6.62087 19.5245 6.64937C19.6097 6.67787 19.687 6.72576 19.7505 6.78926C19.814 6.85276 19.8619 6.93014 19.8904 7.01531C19.9189 7.10047 19.9273 7.19108 19.9148 7.28002V9.60602C19.9282 9.69948 19.9196 9.79477 19.8897 9.88434C19.8599 9.97391 19.8096 10.0553 19.7428 10.1221C19.6761 10.1888 19.5947 10.2391 19.5051 10.269C19.4155 10.2988 19.3202 10.3074 19.2268 10.294H12.3808V28.894C12.3935 28.983 12.3853 29.0737 12.3569 29.159C12.3284 29.2442 12.2806 29.3217 12.217 29.3852C12.1535 29.4488 12.076 29.4967 11.9907 29.5251C11.9055 29.5535 11.8147 29.5617 11.7258 29.549H8.51577C8.4268 29.5617 8.33611 29.5535 8.25085 29.5251C8.16559 29.4967 8.08811 29.4488 8.02456 29.3852C7.96101 29.3217 7.91313 29.2442 7.8847 29.159C7.85627 29.0737 7.84808 28.983 7.86077 28.894V10.294H0.68777C0.594308 10.3074 0.499023 10.2988 0.40945 10.269C0.319877 10.2391 0.238479 10.1888 0.171718 10.1221C0.104957 10.0553 0.0546824 9.97391 0.024837 9.88434C-0.0050084 9.79477 -0.0135931 9.69948 -0.000217927 9.60602V7.28002C-0.000217927 6.84335 0.229104 6.62502 0.68777 6.62502H19.2598Z" fill="#001E26"/>
<path d="M41.0098 28.898C41.0225 28.9869 41.0143 29.0776 40.9859 29.1629C40.9574 29.2481 40.9095 29.3256 40.846 29.3892C40.7824 29.4527 40.705 29.5006 40.6197 29.529C40.5344 29.5575 40.4438 29.5657 40.3548 29.553H37.1448C37.0558 29.5657 36.9652 29.5575 36.8799 29.5291C36.7947 29.5007 36.7173 29.4527 36.6538 29.3892C36.5903 29.3256 36.5425 29.2481 36.5142 29.1628C36.4859 29.0776 36.4779 28.9869 36.4908 28.898V20.4469H27.6098V28.898C27.6225 28.9869 27.6143 29.0776 27.5859 29.1629C27.5574 29.2481 27.5095 29.3256 27.446 29.3892C27.3824 29.4527 27.305 29.5006 27.2197 29.529C27.1345 29.5575 27.0437 29.5657 26.9548 29.553H23.7458C23.6568 29.5657 23.5661 29.5575 23.4808 29.529C23.3956 29.5006 23.3181 29.4527 23.2545 29.3892C23.191 29.3256 23.1431 29.2481 23.1147 29.1629C23.0862 29.0776 23.0781 28.9869 23.0908 28.898V7.27995C23.0781 7.19098 23.0862 7.10027 23.1147 7.01501C23.1431 6.92975 23.191 6.85227 23.2545 6.78872C23.3181 6.72517 23.3956 6.67729 23.4808 6.64886C23.5661 6.62043 23.6568 6.61225 23.7458 6.62495H26.9548C27.0437 6.61225 27.1345 6.62043 27.2197 6.64886C27.305 6.67729 27.3824 6.72517 27.446 6.78872C27.5095 6.85227 27.5574 6.92975 27.5859 7.01501C27.6143 7.10027 27.6225 7.19098 27.6098 7.27995V16.746H36.4868V7.27995C36.4741 7.19107 36.4823 7.10046 36.5107 7.01529C36.539 6.93011 36.5868 6.85271 36.6503 6.78918C36.7137 6.72565 36.791 6.67775 36.8761 6.64924C36.9613 6.62074 37.0519 6.61242 37.1408 6.62495H40.3508C40.4397 6.61247 40.5303 6.6208 40.6155 6.6493C40.7007 6.67781 40.778 6.72569 40.8415 6.7892C40.905 6.8527 40.9529 6.93008 40.9814 7.01524C41.0099 7.1004 41.0183 7.19102 41.0058 7.27995L41.0098 28.898Z" fill="#001E26"/>
<path d="M65.38 28.833C65.3719 28.9832 65.317 29.1271 65.223 29.2445C65.1291 29.362 65.0007 29.4471 64.856 29.488C64.6223 29.5676 64.381 29.6226 64.136 29.652C63.7666 29.6994 63.3944 29.7211 63.022 29.717C62.0301 29.7627 61.0447 29.5366 60.172 29.063C59.4774 28.6497 58.8755 28.0975 58.404 27.441C57.9409 26.7882 57.5559 26.0834 57.257 25.341C56.9503 24.5877 56.6283 23.8877 56.291 23.241C55.9796 22.633 55.5639 22.0844 55.063 21.62C54.5257 21.1632 53.8343 20.9289 53.13 20.965H50.706V28.892C50.7187 28.981 50.7105 29.0717 50.6821 29.157C50.6537 29.2422 50.6058 29.3197 50.5422 29.3832C50.4787 29.4468 50.4012 29.4946 50.3159 29.5231C50.2307 29.5515 50.14 29.5597 50.051 29.547H46.841C46.752 29.5597 46.6613 29.5515 46.576 29.5231C46.4908 29.4946 46.4133 29.4468 46.3497 29.3832C46.2862 29.3197 46.2383 29.2422 46.2099 29.157C46.1815 29.0717 46.1733 28.981 46.186 28.892V7.313C46.186 6.855 46.4043 6.62567 46.841 6.625H54.241C57.079 6.625 59.23 7.18199 60.694 8.29599C62.158 9.40999 62.8897 11.2553 62.889 13.832C62.9037 14.5966 62.7759 15.3572 62.512 16.075C62.282 16.6822 61.9617 17.2513 61.562 17.763C61.2001 18.2248 60.769 18.6279 60.284 18.958C59.8628 19.2485 59.406 19.4837 58.925 19.658C59.5233 20.1491 60.0092 20.763 60.35 21.458C60.7107 22.1787 61.0657 22.8787 61.415 23.558C61.7332 24.1894 62.137 24.7739 62.615 25.295C62.8447 25.5365 63.1219 25.728 63.429 25.8576C63.7361 25.9871 64.0667 26.052 64.4 26.048H64.892C65.2186 26.048 65.3823 26.2443 65.383 26.637L65.38 28.833ZM53.72 17.565C54.9174 17.615 56.1011 17.2948 57.11 16.648C57.5427 16.3518 57.892 15.9492 58.1243 15.479C58.3565 15.0087 58.4638 14.4867 58.436 13.963C58.4629 13.4554 58.3736 12.9484 58.175 12.4806C57.9764 12.0127 57.6738 11.5963 57.29 11.263C56.3693 10.5688 55.2309 10.2263 54.08 10.297H50.706V17.568L53.72 17.565Z" fill="#001E26"/>
<path d="M73.0419 28.8979C73.0544 28.987 73.0461 29.0777 73.0175 29.1629C72.989 29.2482 72.941 29.3256 72.8773 29.3891C72.8137 29.4527 72.7362 29.5005 72.6509 29.5289C72.5656 29.5574 72.4749 29.5656 72.3859 29.5529H69.1759C69.087 29.5655 68.9964 29.5571 68.9113 29.5286C68.8262 29.5001 68.7488 29.4522 68.6854 29.3887C68.622 29.3252 68.5741 29.2477 68.5458 29.1626C68.5174 29.0774 68.5092 28.9868 68.5219 28.8979V7.27992C68.5092 7.19104 68.5174 7.10043 68.5458 7.01525C68.5741 6.93008 68.622 6.85268 68.6854 6.78915C68.7488 6.72562 68.8262 6.67771 68.9113 6.64921C68.9964 6.62071 69.087 6.61239 69.1759 6.62492H72.3859C72.4749 6.61226 72.5656 6.62046 72.6509 6.64889C72.7362 6.67731 72.8137 6.72518 72.8773 6.78871C72.941 6.85223 72.989 6.92967 73.0175 7.01492C73.0461 7.10017 73.0544 7.19089 73.0419 7.27992V28.8979Z" fill="#001E26"/>
<path d="M92.4317 7.34595C92.4875 7.16811 92.5644 6.99757 92.6607 6.83796C92.7163 6.76184 92.7912 6.70196 92.8777 6.66451C92.9642 6.62706 93.0592 6.61341 93.1527 6.62496H96.7247C96.8238 6.61557 96.9235 6.63354 97.0131 6.67691C97.1027 6.72029 97.1787 6.78741 97.2327 6.87096C97.2814 6.9515 97.3111 7.04207 97.3196 7.13581C97.3281 7.22954 97.3151 7.32398 97.2817 7.41196L89.5197 28.178C89.4044 28.5935 89.184 28.9723 88.8797 29.2779C88.5776 29.485 88.214 29.5831 87.8487 29.556H85.5887C85.2458 29.5834 84.9039 29.4908 84.6217 29.294C84.3269 28.9759 84.1084 28.595 83.9827 28.18L76.3507 7.41396C76.3068 7.32708 76.2854 7.23058 76.2884 7.13329C76.2913 7.036 76.3186 6.941 76.3677 6.85695C76.4245 6.77736 76.5013 6.71417 76.5903 6.67379C76.6793 6.6334 76.7774 6.61724 76.8747 6.62696H80.7077C80.806 6.61349 80.9062 6.62606 80.9982 6.66344C81.0901 6.70082 81.1707 6.76169 81.2317 6.83995C81.3217 6.98744 81.3891 7.14755 81.4317 7.31496L86.8037 24.415L92.4317 7.34595Z" fill="#001E26"/>
<path d="M101.178 29.5539C101.089 29.5666 100.998 29.5585 100.913 29.53C100.828 29.5016 100.75 29.4537 100.687 29.3902C100.623 29.3266 100.575 29.2492 100.547 29.1639C100.518 29.0786 100.51 28.9879 100.523 28.8989V7.27995C100.51 7.19098 100.518 7.10027 100.547 7.01501C100.575 6.92975 100.623 6.85227 100.687 6.78872C100.75 6.72517 100.828 6.67729 100.913 6.64886C100.998 6.62043 101.089 6.61225 101.178 6.62495H114.345C114.434 6.61229 114.525 6.6205 114.61 6.64892C114.695 6.67735 114.773 6.72522 114.836 6.78874C114.9 6.85226 114.948 6.9297 114.977 7.01495C115.005 7.1002 115.013 7.19092 115.001 7.27995V9.60595C115.014 9.69947 115.005 9.79477 114.975 9.88433C114.945 9.9739 114.895 10.0553 114.828 10.122C114.761 10.1887 114.68 10.239 114.59 10.2688C114.501 10.2987 114.405 10.3073 114.312 10.2939H105.042V16.386H112.216C112.305 16.3734 112.395 16.3817 112.481 16.4102C112.566 16.4387 112.643 16.4867 112.706 16.5502C112.77 16.6137 112.818 16.6911 112.846 16.7763C112.874 16.8615 112.883 16.9521 112.87 17.041V19.334C112.87 19.771 112.642 19.9889 112.183 19.9889H105.042V25.8889H114.342C114.778 25.8889 114.998 26.1179 114.998 26.5769V28.9029C114.998 29.3403 114.768 29.5586 114.309 29.5579L101.178 29.5539Z" fill="#001E26"/>
<path d="M146.954 18.8441C146.942 18.8867 146.926 18.9282 146.907 18.9681C146.884 19.0138 146.856 19.057 146.825 19.0971C146.75 19.1911 146.669 19.2802 146.583 19.3641C146.402 19.5443 146.211 19.7133 146.01 19.8701C145.31 20.3891 144.61 20.9201 143.895 21.4261C143.404 21.7751 142.895 22.1021 142.395 22.4361L139.481 24.3791L132.967 20.5121C131.775 19.7731 130.576 19.0461 129.392 18.2941C129.169 18.1521 128.959 17.9881 128.746 17.8301C128.678 17.7801 128.615 17.7231 128.546 17.6701C128.526 17.6541 128.503 17.6391 128.484 17.6211C128.44 17.5781 128.394 17.5351 128.352 17.4881C128.327 17.4584 128.304 17.427 128.284 17.3941C128.262 17.3595 128.244 17.3231 128.229 17.2851C128.213 17.2456 128.201 17.2043 128.195 17.1621C128.188 17.118 128.188 17.0732 128.195 17.0291C128.202 16.981 128.214 16.9337 128.231 16.8881C128.247 16.8388 128.269 16.7913 128.295 16.7461C128.347 16.6527 128.404 16.5626 128.467 16.4761C128.54 16.378 128.619 16.2842 128.703 16.1951C129.384 15.4671 130.077 14.7491 130.761 14.0241L132.608 12.0671L132.696 12.3831L132.92 12.9381L132.935 12.9721C133.424 13.8511 133.882 14.7481 134.4 15.6081C135.116 16.7981 135.9 17.9461 136.661 19.1001C137.113 19.7295 137.6 20.3328 138.121 20.9071C138.406 21.2018 138.709 21.4796 139.027 21.7391C139.186 21.8635 139.353 21.9772 139.527 22.0791C139.609 22.1291 139.694 22.1735 139.782 22.2121C139.864 22.2497 139.949 22.2831 140.035 22.3121C140.118 22.3401 140.204 22.3631 140.29 22.3811C140.368 22.3984 140.447 22.4111 140.527 22.4191C140.599 22.424 140.672 22.424 140.745 22.4191C140.812 22.4177 140.879 22.4113 140.945 22.4001C141.007 22.3905 141.068 22.3764 141.128 22.3581C141.184 22.3417 141.24 22.3213 141.294 22.2971C141.345 22.2752 141.394 22.2501 141.442 22.2221C141.488 22.1966 141.533 22.1679 141.575 22.1361C141.652 22.0766 141.726 22.0128 141.797 21.9451C141.856 21.8857 141.91 21.8218 141.96 21.7541C142.023 21.6675 142.081 21.5774 142.134 21.4841C142.198 21.3711 142.259 21.2541 142.312 21.1341C142.372 21.0009 142.425 20.8643 142.471 20.7251C142.563 20.4341 142.651 20.1411 142.721 19.8421C142.827 19.4414 142.907 19.0342 142.961 18.6231L143.2 16.2341C143.746 16.4981 144.3 16.7341 144.838 17.0261C145.376 17.3181 145.858 17.6351 146.364 17.9461C146.423 17.9834 146.479 18.0251 146.532 18.0711C146.607 18.1359 146.679 18.2047 146.748 18.2771C146.785 18.3155 146.818 18.3574 146.848 18.4021C146.876 18.4455 146.9 18.4913 146.92 18.5391C146.937 18.5871 146.95 18.6367 146.959 18.6871C146.962 18.7124 146.962 18.7379 146.959 18.7631C146.96 18.7894 146.957 18.8156 146.951 18.8411L146.954 18.8441ZM143.535 27.9061C143.768 28.0591 144.002 28.2061 144.235 28.3671C144.535 28.5671 144.829 28.7671 145.116 28.9871C145.323 29.1421 145.516 29.3101 145.716 29.4811C145.802 29.5584 145.884 29.6405 145.962 29.7271C146.025 29.7981 146.08 29.8761 146.136 29.9541C146.138 29.96 146.138 29.9663 146.136 29.9721C146.136 29.9857 146.134 29.9991 146.13 30.0121C146.127 30.0207 146.122 30.0283 146.115 30.0341C146.107 30.0419 146.098 30.0483 146.088 30.0531C146.074 30.0594 146.06 30.0638 146.045 30.0661C146.024 30.0706 146.004 30.0736 145.983 30.0751C144.848 30.1631 143.711 30.2441 142.577 30.3371L138.142 30.6991L138.004 30.7081L138.068 30.6371L138.348 30.3801C138.924 29.9361 139.479 29.4661 140.072 29.0481L142.582 27.2851L143.534 27.9121L143.535 27.9061ZM133.986 12.1601L133.996 12.1441L134.011 12.1361H134.032L134.064 12.1411L134.158 12.1691L134.402 12.2691L134.733 12.4221C135.588 12.8021 136.443 13.1814 137.299 13.5601C137.865 13.8108 138.432 14.0611 138.999 14.3111L140.119 14.8111L140.219 14.8571C140.279 15.7761 140.353 16.6941 140.4 17.6151C140.437 18.3341 140.452 19.0531 140.469 19.7731C140.469 19.8641 140.464 19.9541 140.458 20.0451C140.458 20.0961 140.45 20.1451 140.443 20.1981C140.436 20.2487 140.425 20.2988 140.412 20.3481C140.399 20.3965 140.381 20.4434 140.359 20.4881C140.335 20.5312 140.308 20.5718 140.276 20.6091C140.259 20.6281 140.241 20.6452 140.221 20.6601C140.201 20.6764 140.179 20.6911 140.157 20.7041C140.133 20.7173 140.108 20.7286 140.082 20.7381C140.053 20.7487 140.024 20.7571 139.995 20.7631C139.921 20.7765 139.845 20.7789 139.771 20.7701C139.73 20.7647 139.69 20.7567 139.651 20.7461C139.609 20.7362 139.567 20.7231 139.527 20.7071C139.439 20.6698 139.354 20.6274 139.271 20.5801C139.177 20.5241 139.087 20.4627 139.001 20.3961C138.901 20.3221 138.813 20.2441 138.723 20.1621C138.633 20.0801 138.53 19.9821 138.442 19.8841C138.248 19.6691 138.056 19.4501 137.876 19.2211C137.551 18.8091 137.214 18.4041 136.929 17.9621C136.535 17.3531 136.129 16.7501 135.749 16.1331C135.512 15.7691 135.294 15.3929 135.096 15.0061L134.232 13.2291L134.046 12.6631L134.004 12.4951L133.978 12.3321V12.2151L133.986 12.1601ZM135.674 8.67314C136.416 7.87314 137.159 7.07314 137.913 6.29114C138.05 6.14814 138.203 6.01913 138.35 5.89113C138.401 5.84413 138.455 5.80114 138.51 5.75714C138.565 5.71314 138.593 5.69013 138.638 5.65713C138.67 5.63665 138.703 5.61893 138.738 5.60414C138.774 5.58707 138.812 5.57431 138.851 5.56613C138.893 5.56137 138.935 5.56137 138.977 5.56613C138.998 5.56752 139.02 5.57225 139.04 5.58014C139.062 5.58738 139.083 5.5971 139.103 5.60913C139.124 5.62171 139.144 5.63609 139.163 5.65213C139.185 5.67059 139.205 5.69101 139.224 5.71313C139.245 5.73801 139.264 5.76441 139.282 5.79213C139.303 5.82355 139.321 5.85706 139.336 5.89213C139.373 5.99017 139.404 6.09035 139.429 6.19214C139.464 6.33714 139.49 6.48414 139.512 6.63214C139.566 6.99314 139.612 7.35514 139.654 7.71814C139.705 8.18814 139.742 8.66013 139.784 9.13113L140.009 11.6391L137.317 10.9961L134.806 10.5671L134.198 10.5191L133.998 10.5141C134.555 9.90213 135.108 9.28613 135.67 8.68013L135.674 8.67314ZM151.998 17.9601C151.992 17.8912 151.982 17.8227 151.967 17.7551C151.935 17.6194 151.895 17.4859 151.847 17.3551C151.791 17.2178 151.727 17.0842 151.654 16.9551C151.573 16.8124 151.485 16.6739 151.391 16.5401C151.336 16.4618 151.275 16.3876 151.209 16.3181C151.137 16.2389 151.06 16.1644 150.979 16.0951C150.797 15.9377 150.606 15.7918 150.407 15.6581C149.973 15.3637 149.52 15.0994 149.051 14.8671C148.478 14.6051 147.924 14.2961 147.333 14.0821L143.351 12.6461C143.351 11.8601 143.373 11.0741 143.351 10.2881C143.318 9.12213 143.273 7.95613 143.185 6.78813C143.123 5.97813 143.031 5.17181 142.909 4.36914C142.809 3.74314 142.67 3.12613 142.537 2.50813C142.503 2.36741 142.463 2.22855 142.415 2.09213C142.374 1.96913 142.33 1.84613 142.282 1.72513C142.234 1.60413 142.19 1.50914 142.139 1.40314C142.088 1.29714 142.039 1.21513 141.986 1.12613C141.933 1.03713 141.886 0.965138 141.827 0.888138C141.768 0.811138 141.722 0.751141 141.665 0.688141C141.613 0.629392 141.558 0.573321 141.501 0.520142C141.449 0.472142 141.394 0.427133 141.338 0.383133C141.286 0.344123 141.232 0.30775 141.176 0.274139C141.125 0.24272 141.072 0.214661 141.017 0.19014C140.921 0.147961 140.823 0.111553 140.723 0.081131C140.64 0.0585256 140.555 0.0418143 140.47 0.031128C140.406 0.0218337 140.342 0.0164989 140.278 0.0151367C140.169 0.0151367 140.058 0.0151367 139.95 0.0151367C139.834 0.0234473 139.718 0.0391428 139.604 0.0621338C139.349 0.113178 139.102 0.199688 138.871 0.319138C138.737 0.38896 138.607 0.465728 138.482 0.549133C138.348 0.636133 138.216 0.728141 138.089 0.826141C137.863 0.993813 137.646 1.17373 137.44 1.36513C136.349 2.43179 135.287 3.52413 134.253 4.64213C132.176 7.25013 130.104 9.86114 128.146 12.5671C128.1 12.6301 128.057 12.6951 128.016 12.7611L127.186 14.0991C126.87 14.6531 126.586 15.2241 126.308 15.7991C126.256 15.9131 126.21 16.03 126.171 16.1491C126.131 16.2621 126.095 16.3771 126.066 16.4931C126.038 16.6026 126.017 16.7139 126.004 16.8261C125.993 16.9298 125.991 17.0341 125.998 17.1381C126.003 17.1904 126.015 17.2418 126.033 17.2911C126.051 17.3443 126.074 17.3958 126.101 17.4451C126.131 17.4983 126.164 17.5494 126.201 17.5981C126.239 17.6513 126.281 17.702 126.326 17.7501C126.426 17.8501 126.526 17.9501 126.632 18.0401C126.741 18.1348 126.855 18.2233 126.974 18.3051C127.181 18.4461 127.396 18.5781 127.609 18.7051C127.702 18.7611 127.801 18.8101 127.895 18.8611C127.929 18.8781 127.828 18.8241 127.795 18.8051L127.784 18.7981C127.79 18.8003 127.795 18.8033 127.8 18.8071L127.958 18.8921C129.269 19.6031 130.585 20.3041 131.89 21.0261C133.195 21.7481 134.514 22.4801 135.81 23.2361L138.724 24.9361C137.712 25.7361 136.68 26.4991 135.69 27.3191C135.313 27.6378 134.955 27.9769 134.616 28.3351C134.337 28.6251 134.074 28.9296 133.827 29.2471C133.629 29.5031 133.447 29.7702 133.28 30.0471C133.148 30.2633 133.031 30.4878 132.928 30.7191C132.849 30.8948 132.782 31.0756 132.728 31.2601C132.689 31.3913 132.659 31.5249 132.639 31.6601C132.628 31.7414 132.621 31.8231 132.619 31.9051C132.619 31.9331 132.619 31.9611 132.619 31.9891C132.619 32.0641 132.619 32.1371 132.619 32.2101C132.623 32.2788 132.63 32.3472 132.641 32.4151C132.65 32.4805 132.664 32.5453 132.681 32.6091C132.697 32.6691 132.717 32.7301 132.739 32.7891C132.761 32.8481 132.786 32.9011 132.812 32.9561C132.837 33.0096 132.867 33.0611 132.901 33.1101C132.966 33.2066 133.037 33.2982 133.116 33.3841C133.196 33.4676 133.283 33.5445 133.376 33.6141C133.469 33.6837 133.566 33.7472 133.668 33.8041C133.77 33.8607 133.875 33.9118 133.983 33.9571C134.088 34.0076 134.198 34.0481 134.311 34.0781C134.835 34.2051 135.367 34.2987 135.903 34.3581C136.69 34.2981 137.478 34.2201 138.258 34.0931C139.734 33.8521 141.189 33.4641 142.649 33.1641C143.582 32.8381 144.585 32.6761 145.506 32.2851C146.006 32.0731 146.514 31.8701 147.012 31.6481C147.123 31.596 147.231 31.5365 147.334 31.4701C147.429 31.4121 147.522 31.3501 147.612 31.2841C147.692 31.2266 147.767 31.1634 147.838 31.0951C147.898 31.0366 147.952 30.9727 148 30.9041C148.08 30.7917 148.135 30.664 148.164 30.5291C148.176 30.4703 148.182 30.4103 148.182 30.3501C148.181 30.2921 148.175 30.2342 148.165 30.1771C148.142 30.0649 148.102 29.9569 148.046 29.8571C148.018 29.8072 147.988 29.7588 147.955 29.7121C147.924 29.6653 147.891 29.6203 147.855 29.5771C147.782 29.4981 147.708 29.4181 147.629 29.3461C147.56 29.2842 147.488 29.2261 147.413 29.1721C147.34 29.1181 147.264 29.0721 147.189 29.0211C146.67 28.6961 146.154 28.3651 145.631 28.0451L143.449 26.6851C144.777 25.7501 146.118 24.8321 147.434 23.8771C147.996 23.4691 148.55 23.0481 149.083 22.6001C149.54 22.2171 149.975 21.8051 150.401 21.3861C150.601 21.1861 150.785 20.9661 150.969 20.7481C151.052 20.648 151.13 20.5435 151.203 20.4351C151.273 20.3397 151.335 20.2395 151.391 20.1351C151.562 19.7821 151.731 19.4281 151.874 19.0611C151.924 18.9087 151.962 18.7526 151.988 18.5941C152.001 18.5207 152.01 18.4466 152.014 18.3721C152.019 18.3011 152.022 18.2281 152.021 18.1571C152.02 18.0861 152.013 18.0171 152.006 17.9481" fill="#F0AB00"/>
</g>
<defs>
<clipPath id="clip0">
<rect width="153" height="35" fill="white"/>
</clipPath>
</defs>
</svg>
