<?xml version="1.0" encoding="utf-8"?>
<!-- Generator: Adobe Illustrator 22.1.0, SVG Export Plug-In . SVG Version: 6.00 Build 0)  -->
<svg version="1.1" id="Layer_1" xmlns="http://www.w3.org/2000/svg" xmlns:xlink="http://www.w3.org/1999/xlink" x="0px" y="0px"
	 viewBox="0 0 148.8 37.1" style="enable-background:new 0 0 148.8 37.1;" xml:space="preserve">
<style type="text/css">
	.st0{fill:#860052;}
	.st1{fill:#FCAF17;}
</style>
<g>
	<path class="st0" d="M4.7,29.6L7.2,23l2.3,6.6H4.7z M11.9,36.3h2.3l-5.8-16H6.1L0,36.3h2.3l1.8-4.9h6.1L11.9,36.3z M19,30.8
		c-2.1-0.5-4.2-0.9-4.2-3.5c0-2.2,1.9-3.6,4.7-3.6c1.8,0,3.6,0.7,4.4,2.3L22,26.8c-0.6-1-1.6-1.6-2.8-1.6c-1.6,0-2.4,0.9-2.4,1.8
		c0,1.1,1.5,1.6,2.8,1.9c2.7,0.5,5,1.2,5,3.8c0,2-1.7,3.8-5.1,3.8c-2.5,0-4.2-0.8-5.1-2.5l2.2-0.4c0.5,0.9,1.5,1.3,3,1.3
		c1.8,0,2.9-0.7,2.9-2S20.8,31.2,19,30.8L19,30.8z M29.2,24.1h2.2v1.7h-2.2v6.9c0,1.4,0,2.1,0.9,2.1c0.5,0,0.9-0.1,1.3-0.3v1.7
		c-0.7,0.1-1.3,0.2-2,0.2c-2.4,0-2.4-1.1-2.3-2.7v-7.9h-1.9v-1.7h1.9v-2.9l2.1-0.9V24.1z M35.3,24.1v2.2c0.8-1.5,2.4-2.5,4.1-2.4V26
		c-2,0-3,0.4-3.7,1.5c-0.5,0.9-0.5,2.1-0.5,3.2v5.6h-2V24.1L35.3,24.1z M63.1,20.3v2l-9.1,12.1h9.3v1.9H51.6v-2.1l9.1-12h-9.1v-2
		L63.1,20.3z M78.2,24.2V26c0.8-1.4,2.2-2.2,3.8-2.2c1.8-0.1,3.4,1.1,4,2.8c0.2,0.8,0.3,1.7,0.2,2.5v7.2h-2v-6.9
		c0.1-0.7,0-1.3-0.1-2c-0.4-1.1-1.5-1.7-2.6-1.7c-0.9,0-1.7,0.3-2.3,0.9c-0.7,0.7-1,1.7-0.9,2.7v6.9h-2V24.2L78.2,24.2z M109.7,34.1
		c-1,1.6-2.8,2.5-4.6,2.4c-4.3,0-5.9-3.3-5.9-6.3c0-3.4,1.9-6.6,5.8-6.6c1.5,0,3.6,0.5,4.8,2.4l-1.9,0.8c-0.5-1.1-1.6-1.8-2.8-1.7
		c-3.4,0-3.6,3.8-3.6,4.9c0,4,2.3,4.9,3.7,4.9c1.2,0.1,2.3-0.5,2.8-1.6L109.7,34.1z M66.3,29h6.5c-0.2-3.2-2-3.7-3.2-3.7
		C67.7,25.2,66.5,26.6,66.3,29z M74.4,34c-1,1.7-2.8,2.6-4.7,2.5c-3.6,0-5.7-2.4-5.7-6.5c0-4.6,3-6.3,5.6-6.3c2.2,0,4.4,1.2,5.1,4.3
		c0.2,0.8,0.3,1.6,0.2,2.5h-8.7c-0.1,2,0.8,4.6,3.7,4.6c1,0,2-0.5,2.5-1.4L74.4,34z M89.5,29H96c-0.2-3.2-2-3.7-3.2-3.7
		C91,25.2,89.7,26.6,89.5,29z M97.7,34c-1,1.7-2.8,2.7-4.7,2.5c-3.6,0-5.7-2.4-5.7-6.5c0-4.6,3-6.3,5.6-6.3c2.2,0,4.4,1.2,5.1,4.3
		c0.2,0.8,0.3,1.6,0.2,2.5h-8.7c-0.1,2,0.8,4.6,3.7,4.6c1,0,2-0.5,2.5-1.4L97.7,34z M120.9,36.3h-2.1c-0.1-0.6-0.2-1.2-0.2-1.8
		c-1,1.2-2.5,1.9-4.1,2c-2.4,0-4.1-1.4-4.1-3.5c0-0.6,0.2-1.3,0.6-1.8c0.7-1,2-1.9,5.6-2.1l1.9-0.2v-0.3c0-1.3,0-3.4-2.7-3.4
		c-1.7,0-2.3,0.8-2.5,1.6l-1.9-0.8c0-0.1,0.1-0.1,0.1-0.2c0.7-1.3,2.1-2.2,4.2-2.2c1.3,0,2.5,0.3,3.5,1c1.4,1,1.3,3.1,1.3,3.1
		l0.1,6.2C120.6,34.7,120.7,35.5,120.9,36.3L120.9,36.3z M118.1,33c0.3-0.7,0.3-1,0.3-2.7c-0.8,0.1-1.9,0.3-3.2,0.6
		c-2.3,0.5-2.7,1.3-2.7,2.2c0,1,0.8,1.8,2.3,1.8C116.2,34.9,117.5,34.2,118.1,33L118.1,33z M50.1,36.3H48c-0.1-0.6-0.2-1.2-0.2-1.8
		c-1,1.2-2.5,1.9-4.1,2c-2.4,0-4.1-1.4-4.1-3.5c0-0.6,0.2-1.3,0.5-1.8c0.7-1,2-1.9,5.6-2.1l1.9-0.2v-0.3c0-1.3,0-3.4-2.7-3.4
		c-1.7,0-2.3,0.8-2.5,1.6L40.5,26c0-0.1,0.1-0.1,0.1-0.2c0.7-1.3,2.1-2.2,4.2-2.2c1.3,0,2.5,0.3,3.5,1c1.4,1,1.3,3.1,1.3,3.1
		l0.1,6.3C49.8,34.7,50,35.5,50.1,36.3L50.1,36.3z M47.3,33c0.3-0.7,0.3-1,0.3-2.7c-0.8,0.1-1.9,0.3-3.2,0.6
		c-2.3,0.5-2.7,1.3-2.7,2.2c0,1,0.8,1.8,2.3,1.8C45.5,34.9,46.7,34.2,47.3,33z"/>
	<path class="st1" d="M148.8,19.4c0-0.1,0-0.2,0-0.2c0-0.1-0.1-0.3-0.1-0.4c-0.1-0.2-0.1-0.3-0.2-0.4c-0.1-0.2-0.2-0.3-0.3-0.5
		c-0.1-0.1-0.1-0.2-0.2-0.2c-0.1-0.1-0.2-0.2-0.3-0.2c-0.2-0.2-0.4-0.3-0.7-0.5c-0.5-0.3-1-0.6-1.5-0.9c-0.7-0.3-1.3-0.6-1.9-0.9
		l-4.4-1.6c0-0.9,0-1.7,0-2.5c0-1.3-0.1-2.5-0.2-3.8c-0.1-0.9-0.2-1.7-0.3-2.7c-0.1-0.7-0.3-1.3-0.4-2c0-0.2-0.1-0.3-0.1-0.5
		c-0.1-0.3-0.2-0.5-0.3-0.8c-0.1-0.2-0.2-0.4-0.4-0.6c-0.2-0.2-0.3-0.4-0.6-0.5c-0.1-0.1-0.2-0.2-0.3-0.2c-0.1,0-0.2-0.1-0.4-0.1
		c-0.2,0-0.3-0.1-0.5-0.1c-0.4,0-0.8,0-1.2,0.2c-0.1,0.1-0.3,0.1-0.4,0.2c-0.3,0.2-0.6,0.3-0.9,0.5c-0.3,0.2-0.5,0.4-0.7,0.6
		c-0.9,0.9-1.9,1.8-2.8,2.7c-0.5,0.5-0.9,1-1.4,1.5c-1.7,2.1-3.4,4.2-5.1,6.3c-0.7,0.9-1.4,2-2.1,2.9c-0.2,0.2-0.3,0.5-0.5,0.8
		c-0.2,0.5-0.5,0.9-0.7,1.4c-0.1,0.1-0.1,0.2-0.2,0.4c0,0.1-0.1,0.2-0.1,0.4c-0.1,0.2-0.1,0.5-0.1,0.7c0,0.1,0,0.1,0,0.2l0.1,0.2
		c0.1,0.1,0.2,0.2,0.2,0.3c0.1,0.1,0.2,0.2,0.4,0.3l0.4,0.3c0.2,0.2,0.5,0.3,0.7,0.4l0.3,0.2c0,0-0.1,0-0.1-0.1l0,0l0.2,0.1l4.4,2.3
		c1.5,0.8,2.9,1.6,4.4,2.4l3.3,1.9c-1.1,0.9-2.3,1.7-3.4,2.6c-0.4,0.3-0.8,0.7-1.2,1.1c-0.3,0.3-0.6,0.6-0.9,1
		c-0.2,0.3-0.4,0.6-0.6,0.9c-0.2,0.3-0.3,0.5-0.4,0.7c-0.1,0.2-0.2,0.4-0.2,0.6c0,0.1-0.1,0.3-0.1,0.4c0,0.1,0,0.2,0,0.3v0.3
		c0,0.3,0.1,0.6,0.2,0.8c0,0.1,0.1,0.1,0.1,0.2c0.1,0.2,0.3,0.4,0.5,0.5c0.1,0.1,0.2,0.1,0.3,0.2s0.2,0.1,0.3,0.2
		c0.1,0.1,0.2,0.1,0.4,0.1c0.5,0.1,0.9,0.2,1.4,0.3c0.2,0,0.5,0,0.7,0c0.8,0,1.6-0.1,2.4-0.3c0.9-0.1,1.8-0.4,2.7-0.5
		c1.1-0.2,2.1-0.5,3.2-0.8c0.8-0.2,1.5-0.4,2.2-0.7c0.6-0.2,1.1-0.5,1.7-0.7c0.1-0.1,0.2-0.1,0.3-0.2c0.1-0.1,0.2-0.1,0.3-0.2
		c0.1-0.1,0.2-0.1,0.2-0.2c0.1-0.1,0.1-0.1,0.2-0.2c0.1-0.1,0.1-0.3,0.2-0.4c0-0.1,0-0.2,0-0.4c0-0.1-0.1-0.2-0.1-0.4
		c-0.1-0.1-0.1-0.2-0.2-0.3c-0.2-0.2-0.3-0.3-0.5-0.4l-0.2-0.1c-0.6-0.3-1.2-0.7-1.7-1l-2.5-1.5c1.5-1,3-2,4.5-3
		c0.6-0.4,1.3-0.9,1.9-1.4c0.5-0.4,1-0.9,1.5-1.3c0.2-0.2,0.5-0.4,0.7-0.7c0.1-0.1,0.2-0.2,0.3-0.3c0.1-0.1,0.2-0.2,0.2-0.3
		c0.2-0.4,0.4-0.8,0.5-1.1c0.1-0.2,0.1-0.4,0.1-0.5c0-0.1,0-0.2,0-0.2v-0.2C148.8,19.6,148.8,19.5,148.8,19.4L148.8,19.4z
		 M130.5,9.4c0.8-0.9,1.7-1.7,2.5-2.6c0.2-0.2,0.3-0.3,0.5-0.4c0.1-0.1,0.1-0.1,0.2-0.1c0.1,0,0.1-0.1,0.1-0.1c0,0,0.1,0,0.1-0.1
		L134,6h0.1c0.1,0,0.1,0,0.1,0.1c0,0,0.1,0.1,0.1,0.1c0,0,0.1,0.1,0.1,0.1c0,0,0,0.1,0.1,0.1c0,0.1,0.1,0.2,0.1,0.3
		c0,0.2,0.1,0.3,0.1,0.5c0.1,0.4,0.1,0.8,0.2,1.2c0.1,0.5,0.1,1,0.1,1.5l0.2,2.7l-3-0.7l-2.8-0.5l-0.7-0.1h-0.2
		C129.3,10.7,129.8,10.1,130.5,9.4L130.5,9.4z M128.6,13.2L128.6,13.2L128.6,13.2h0.2l0.3,0.1l0.4,0.2c1,0.4,1.9,0.8,2.9,1.2
		l1.9,0.8l1.3,0.5l0.1,0.1c0.1,1,0.2,2,0.2,3c0.1,0.8,0.1,1.6,0.1,2.3v0.3c0,0.1,0,0.1,0,0.2c0,0.1,0,0.1,0,0.2c0,0.1,0,0.1-0.1,0.2
		s-0.1,0.1-0.1,0.1l-0.1,0.1c0,0-0.1,0-0.1,0.1c-0.1,0-0.1,0.1-0.2,0.1c-0.1,0-0.2,0-0.2,0c-0.1,0-0.1,0-0.1,0c-0.1,0-0.1,0-0.1-0.1
		l-0.3-0.1c-0.1-0.1-0.2-0.1-0.3-0.2l-0.3-0.2c-0.1-0.1-0.2-0.2-0.3-0.3l-0.7-0.7c-0.4-0.4-0.7-0.9-1.1-1.4c-0.4-0.7-0.9-1.3-1.3-2
		c-0.3-0.4-0.5-0.8-0.7-1.2l-1-1.9l-0.2-0.6l-0.1-0.2v-0.2L128.6,13.2L128.6,13.2z M139.3,30.2c0.3,0.2,0.5,0.3,0.8,0.5
		c0.3,0.2,0.7,0.4,1,0.7c0.2,0.2,0.5,0.3,0.7,0.5c0.1,0.1,0.2,0.2,0.3,0.3c0.1,0.1,0.1,0.2,0.2,0.2v0.1l0,0l0,0c0,0,0,0-0.1,0h-0.1
		c-1.3,0.1-2.5,0.2-3.8,0.3l-5,0.4h-0.2l0.1-0.1l0.3-0.3c0.7-0.5,1.3-1,1.9-1.4l2.8-1.9L139.3,30.2z M143.1,20.4
		c0,0.1-0.1,0.2-0.1,0.3c-0.1,0.1-0.2,0.2-0.3,0.3c-0.2,0.2-0.4,0.4-0.7,0.5c-0.8,0.6-1.6,1.1-2.4,1.7c-0.6,0.4-1.1,0.7-1.7,1.1
		l-3.3,2.1l-1.4-0.8l-5.9-3.4c-1.3-0.8-2.7-1.6-4-2.4c-0.2-0.2-0.5-0.3-0.7-0.5c-0.1-0.1-0.1-0.1-0.2-0.2c-0.1-0.1-0.1,0-0.1-0.1
		c0-0.1-0.1-0.1-0.2-0.1c-0.1-0.1-0.1-0.1-0.1-0.2c0,0,0-0.1,0-0.1v-0.1c0-0.1,0.1-0.2,0.1-0.3c0.1-0.2,0.3-0.4,0.5-0.6
		c0.8-0.8,1.6-1.6,2.3-2.4l2.1-2.1l0.1,0.3l0.2,0.6l0,0c0.5,0.9,1.1,1.9,1.6,2.8c0.7,1.1,1.4,2.1,2.1,3.1c0.4,0.5,0.7,1,1.1,1.4
		c0.3,0.4,0.7,0.8,1,1.1c0.3,0.3,0.7,0.6,1,0.9c0.2,0.1,0.4,0.2,0.6,0.4c0.2,0.1,0.4,0.2,0.6,0.2c0.2,0.1,0.4,0.1,0.6,0.1
		c0.2,0,0.4,0,0.7-0.1c0.1,0,0.1,0,0.2-0.1l0.2-0.1c0.1,0,0.1-0.1,0.2-0.1c0.1-0.1,0.2-0.1,0.2-0.2c0.1-0.1,0.1-0.1,0.2-0.2
		c0.1-0.1,0.1-0.2,0.2-0.3c0.2-0.3,0.3-0.5,0.4-0.8c0.1-0.3,0.2-0.6,0.3-1c0.1-0.4,0.2-0.9,0.3-1.3l0.3-2.6c0.6,0.3,1.2,0.5,1.9,0.9
		c0.6,0.3,1.2,0.7,1.7,1c0.1,0,0.1,0.1,0.2,0.1c0.1,0.1,0.2,0.1,0.2,0.2c0.1,0.1,0.1,0.2,0.2,0.3c0,0.1,0,0.1,0.1,0.2v0.1
		C143.1,20.3,143.1,20.3,143.1,20.4L143.1,20.4z"/>
</g>
</svg>
