<svg width="153" height="50" viewBox="0 0 153 50" fill="none" xmlns="http://www.w3.org/2000/svg">
<path d="M19.2661 14.61C19.355 14.5975 19.4456 14.6059 19.5308 14.6344C19.616 14.6629 19.6933 14.7107 19.7568 14.7742C19.8203 14.8377 19.8682 14.9151 19.8967 15.0003C19.9252 15.0855 19.9336 15.1761 19.9211 15.265V17.591C19.9345 17.6845 19.9259 17.7798 19.896 17.8693C19.8662 17.9589 19.8159 18.0403 19.7491 18.1071C19.6824 18.1738 19.601 18.2241 19.5114 18.254C19.4218 18.2838 19.3265 18.2924 19.2331 18.279H12.3871V36.879C12.3998 36.968 12.3916 37.0587 12.3632 37.144C12.3347 37.2292 12.2869 37.3067 12.2233 37.3702C12.1598 37.4338 12.0823 37.4817 11.997 37.5101C11.9118 37.5385 11.821 37.5467 11.7321 37.534H8.52212C8.43315 37.5467 8.34246 37.5385 8.2572 37.5101C8.17194 37.4817 8.09446 37.4338 8.03091 37.3702C7.96736 37.3067 7.91948 37.2292 7.89105 37.144C7.86262 37.0587 7.85443 36.968 7.86712 36.879V18.279H0.694118C0.600656 18.2924 0.505371 18.2838 0.415798 18.254C0.326225 18.2241 0.244827 18.1738 0.178066 18.1071C0.111305 18.0403 0.0610301 17.9589 0.0311847 17.8693C0.00133925 17.7798 -0.00724543 17.6845 0.00612973 17.591V15.265C0.00612973 14.8283 0.235452 14.61 0.694118 14.61H19.2661Z" fill="white"/>
<path d="M41.0162 36.883C41.0289 36.9719 41.0207 37.0626 40.9923 37.1479C40.9638 37.2331 40.9159 37.3106 40.8524 37.3742C40.7888 37.4377 40.7114 37.4856 40.6261 37.514C40.5408 37.5425 40.4502 37.5507 40.3612 37.538H37.1511C37.0621 37.5507 36.9716 37.5425 36.8863 37.5141C36.8011 37.4857 36.7237 37.4377 36.6602 37.3742C36.5967 37.3106 36.5488 37.2331 36.5205 37.1478C36.4922 37.0626 36.4843 36.9719 36.4972 36.883V28.4319H27.6162V36.883C27.6289 36.9719 27.6207 37.0626 27.5923 37.1479C27.5638 37.2331 27.5159 37.3106 27.4524 37.3742C27.3888 37.4377 27.3114 37.4856 27.2261 37.514C27.1409 37.5425 27.0501 37.5507 26.9612 37.538H23.7522C23.6632 37.5507 23.5725 37.5425 23.4872 37.514C23.402 37.4856 23.3245 37.4377 23.2609 37.3742C23.1974 37.3106 23.1495 37.2331 23.1211 37.1479C23.0926 37.0626 23.0845 36.9719 23.0972 36.883V15.2649C23.0845 15.176 23.0926 15.0853 23.1211 15C23.1495 14.9147 23.1974 14.8373 23.2609 14.7737C23.3245 14.7102 23.402 14.6623 23.4872 14.6338C23.5725 14.6054 23.6632 14.5972 23.7522 14.6099H26.9612C27.0501 14.5972 27.1409 14.6054 27.2261 14.6338C27.3114 14.6623 27.3888 14.7102 27.4524 14.7737C27.5159 14.8373 27.5638 14.9147 27.5923 15C27.6207 15.0853 27.6289 15.176 27.6162 15.2649V24.731H36.4932V15.2649C36.4805 15.1761 36.4887 15.0854 36.5171 15.0003C36.5454 14.9151 36.5932 14.8377 36.6567 14.7742C36.7201 14.7106 36.7974 14.6627 36.8825 14.6342C36.9677 14.6057 37.0583 14.5974 37.1472 14.6099H40.3572C40.4461 14.5975 40.5367 14.6058 40.6219 14.6343C40.7071 14.6628 40.7844 14.7107 40.8479 14.7742C40.9114 14.8377 40.9593 14.9151 40.9878 15.0002C41.0163 15.0854 41.0246 15.176 41.0121 15.2649L41.0162 36.883Z" fill="white"/>
<path d="M65.3863 36.818C65.3782 36.9682 65.3233 37.1121 65.2293 37.2295C65.1354 37.347 65.007 37.4321 64.8623 37.473C64.6286 37.5526 64.3873 37.6076 64.1423 37.637C63.7729 37.6844 63.4007 37.7061 63.0283 37.702C62.0364 37.7477 61.051 37.5216 60.1783 37.048C59.4837 36.6347 58.8818 36.0825 58.4103 35.426C57.9472 34.7732 57.5622 34.0684 57.2633 33.326C56.9566 32.5727 56.6346 31.8727 56.2973 31.226C55.9859 30.618 55.5702 30.0694 55.0693 29.605C54.532 29.1482 53.8406 28.9139 53.1363 28.95H50.7123V36.877C50.725 36.966 50.7168 37.0567 50.6884 37.142C50.66 37.2272 50.6121 37.3047 50.5485 37.3682C50.485 37.4318 50.4075 37.4796 50.3222 37.5081C50.237 37.5365 50.1463 37.5447 50.0573 37.532H46.8473C46.7583 37.5447 46.6676 37.5365 46.5823 37.5081C46.4971 37.4796 46.4196 37.4318 46.356 37.3682C46.2925 37.3047 46.2446 37.2272 46.2162 37.142C46.1878 37.0567 46.1796 36.966 46.1923 36.877V15.298C46.1923 14.84 46.4106 14.6107 46.8473 14.61H54.2473C57.0853 14.61 59.2363 15.167 60.7003 16.281C62.1643 17.395 62.896 19.2403 62.8953 21.817C62.91 22.5816 62.7822 23.3422 62.5183 24.06C62.2883 24.6672 61.968 25.2363 61.5683 25.748C61.2064 26.2098 60.7753 26.6129 60.2903 26.943C59.8691 27.2335 59.4123 27.4687 58.9313 27.643C59.5296 28.1341 60.0155 28.748 60.3563 29.443C60.717 30.1637 61.072 30.8637 61.4213 31.543C61.7395 32.1744 62.1433 32.7589 62.6213 33.28C62.851 33.5215 63.1282 33.713 63.4353 33.8426C63.7424 33.9721 64.073 34.037 64.4063 34.033H64.8983C65.2249 34.033 65.3886 34.2293 65.3893 34.622L65.3863 36.818ZM53.7263 25.55C54.9237 25.6 56.1074 25.2798 57.1163 24.633C57.549 24.3368 57.8983 23.9342 58.1306 23.464C58.3628 22.9937 58.4701 22.4717 58.4423 21.948C58.4692 21.4404 58.3799 20.9334 58.1813 20.4656C57.9827 19.9977 57.6801 19.5813 57.2963 19.248C56.3756 18.5538 55.2372 18.2113 54.0863 18.282H50.7123V25.553L53.7263 25.55Z" fill="white"/>
<path d="M73.0482 36.8829C73.0607 36.972 73.0524 37.0627 73.0238 37.1479C72.9953 37.2332 72.9473 37.3106 72.8836 37.3741C72.82 37.4377 72.7425 37.4855 72.6572 37.5139C72.5719 37.5424 72.4812 37.5506 72.3922 37.5379H69.1822C69.0933 37.5505 69.0027 37.5421 68.9176 37.5136C68.8325 37.4851 68.7551 37.4372 68.6917 37.3737C68.6283 37.3102 68.5804 37.2327 68.5521 37.1476C68.5237 37.0624 68.5155 36.9718 68.5282 36.8829V15.2649C68.5155 15.176 68.5237 15.0854 68.5521 15.0002C68.5804 14.9151 68.6283 14.8377 68.6917 14.7741C68.7551 14.7106 68.8325 14.6627 68.9176 14.6342C69.0027 14.6057 69.0933 14.5974 69.1822 14.6099H72.3922C72.4812 14.5972 72.5719 14.6054 72.6572 14.6339C72.7425 14.6623 72.82 14.7102 72.8836 14.7737C72.9473 14.8372 72.9953 14.9147 73.0238 14.9999C73.0524 15.0852 73.0607 15.1759 73.0482 15.2649V36.8829Z" fill="white"/>
<path d="M92.438 15.3309C92.4938 15.1531 92.5707 14.9826 92.667 14.8229C92.7226 14.7468 92.7975 14.6869 92.884 14.6495C92.9705 14.612 93.0655 14.5984 93.159 14.6099H96.731C96.8301 14.6006 96.9298 14.6185 97.0194 14.6619C97.109 14.7053 97.185 14.7724 97.239 14.8559C97.2877 14.9365 97.3174 15.0271 97.3259 15.1208C97.3344 15.2145 97.3214 15.309 97.288 15.3969L89.526 36.163C89.4107 36.5785 89.1903 36.9573 88.886 37.2629C88.5839 37.47 88.2203 37.5681 87.855 37.541H85.595C85.2521 37.5684 84.9102 37.4758 84.628 37.279C84.3332 36.9609 84.1147 36.58 83.989 36.165L76.357 15.3989C76.3131 15.3121 76.2917 15.2156 76.2947 15.1183C76.2976 15.021 76.3249 14.926 76.374 14.8419C76.4308 14.7623 76.5076 14.6992 76.5966 14.6588C76.6856 14.6184 76.7837 14.6022 76.881 14.6119H80.714C80.8123 14.5985 80.9125 14.611 81.0045 14.6484C81.0964 14.6858 81.177 14.7467 81.238 14.8249C81.328 14.9724 81.3954 15.1325 81.438 15.2999L86.81 32.4L92.438 15.3309Z" fill="white"/>
<path d="M101.184 37.5389C101.095 37.5516 101.004 37.5435 100.919 37.515C100.834 37.4866 100.756 37.4387 100.693 37.3752C100.629 37.3116 100.581 37.2342 100.553 37.1489C100.524 37.0636 100.516 36.9729 100.529 36.8839V15.2649C100.516 15.176 100.524 15.0853 100.553 15C100.581 14.9147 100.629 14.8373 100.693 14.7737C100.756 14.7102 100.834 14.6623 100.919 14.6338C101.004 14.6054 101.095 14.5972 101.184 14.6099H114.351C114.44 14.5973 114.531 14.6055 114.616 14.6339C114.701 14.6623 114.779 14.7102 114.842 14.7737C114.906 14.8372 114.954 14.9147 114.983 14.9999C115.011 15.0852 115.019 15.1759 115.007 15.2649V17.5909C115.02 17.6845 115.011 17.7798 114.981 17.8693C114.951 17.9589 114.901 18.0403 114.834 18.107C114.767 18.1737 114.686 18.224 114.596 18.2538C114.507 18.2837 114.411 18.2923 114.318 18.2789H105.048V24.371H112.222C112.311 24.3584 112.401 24.3667 112.487 24.3952C112.572 24.4237 112.649 24.4717 112.712 24.5352C112.776 24.5987 112.824 24.6761 112.852 24.7613C112.88 24.8465 112.889 24.9371 112.876 25.026V27.319C112.876 27.756 112.648 27.9739 112.189 27.9739H105.048V33.8739H114.348C114.784 33.8739 115.004 34.1029 115.004 34.5619V36.8879C115.004 37.3253 114.774 37.5436 114.315 37.5429L101.184 37.5389Z" fill="white"/>
<path d="M146.96 26.829C146.948 26.8716 146.932 26.9131 146.913 26.953C146.89 26.9987 146.862 27.0419 146.831 27.082C146.756 27.176 146.675 27.2651 146.589 27.349C146.408 27.5292 146.217 27.6982 146.016 27.855C145.316 28.374 144.616 28.905 143.901 29.411C143.41 29.76 142.901 30.087 142.401 30.421L139.487 32.364L138.249 31.628L132.973 28.497C131.781 27.758 130.582 27.031 129.398 26.279C129.175 26.137 128.965 25.973 128.752 25.815C128.684 25.765 128.621 25.708 128.552 25.655C128.532 25.639 128.509 25.624 128.49 25.606C128.446 25.563 128.4 25.52 128.358 25.473C128.333 25.4433 128.31 25.4119 128.29 25.379C128.268 25.3444 128.25 25.308 128.235 25.27C128.219 25.2305 128.207 25.1892 128.201 25.147C128.194 25.1029 128.194 25.0581 128.201 25.014C128.208 24.9659 128.22 24.9186 128.237 24.873C128.253 24.8237 128.275 24.7762 128.301 24.731C128.353 24.6376 128.41 24.5475 128.473 24.461C128.546 24.3629 128.625 24.2691 128.709 24.18C129.39 23.452 130.083 22.734 130.767 22.009L132.614 20.052L132.702 20.368L132.926 20.923L132.941 20.957C133.43 21.836 133.888 22.733 134.406 23.593C135.122 24.783 135.906 25.931 136.667 27.085C137.119 27.7144 137.606 28.3177 138.127 28.892C138.412 29.1867 138.715 29.4645 139.033 29.724C139.192 29.8484 139.359 29.9621 139.533 30.064C139.615 30.114 139.7 30.1584 139.788 30.197C139.87 30.2346 139.955 30.268 140.041 30.297C140.124 30.325 140.21 30.348 140.296 30.366C140.374 30.3833 140.453 30.396 140.533 30.404C140.605 30.4089 140.678 30.4089 140.751 30.404C140.818 30.4026 140.885 30.3962 140.951 30.385C141.013 30.3754 141.074 30.3613 141.134 30.343C141.19 30.3266 141.246 30.3062 141.3 30.282C141.351 30.2601 141.4 30.235 141.448 30.207C141.494 30.1815 141.539 30.1528 141.581 30.121C141.658 30.0615 141.732 29.9977 141.803 29.93C141.862 29.8706 141.916 29.8067 141.966 29.739C142.029 29.6524 142.087 29.5623 142.14 29.469C142.204 29.356 142.265 29.239 142.318 29.119C142.378 28.9858 142.431 28.8492 142.477 28.71C142.569 28.419 142.657 28.126 142.727 27.827C142.833 27.4263 142.913 27.0191 142.967 26.608L143.206 24.219C143.752 24.483 144.306 24.719 144.844 25.011C145.382 25.303 145.864 25.62 146.37 25.931C146.429 25.9683 146.485 26.01 146.538 26.056C146.613 26.1208 146.685 26.1896 146.754 26.262C146.791 26.3004 146.824 26.3423 146.854 26.387C146.882 26.4304 146.906 26.4762 146.926 26.524C146.943 26.572 146.956 26.6216 146.965 26.672C146.968 26.6973 146.968 26.7228 146.965 26.748C146.966 26.7743 146.963 26.8005 146.957 26.826L146.96 26.829ZM143.541 35.891C143.774 36.044 144.008 36.191 144.241 36.352C144.541 36.552 144.835 36.752 145.122 36.972C145.329 37.127 145.522 37.295 145.722 37.466C145.808 37.5433 145.89 37.6254 145.968 37.712C146.031 37.783 146.086 37.861 146.142 37.939C146.144 37.9449 146.144 37.9512 146.142 37.957C146.142 37.9706 146.14 37.984 146.136 37.997C146.133 38.0056 146.128 38.0132 146.121 38.019C146.113 38.0268 146.104 38.0332 146.094 38.038C146.08 38.0443 146.066 38.0487 146.051 38.051C146.03 38.0555 146.01 38.0585 145.989 38.06C144.854 38.148 143.717 38.229 142.583 38.322L138.148 38.684L138.01 38.693L138.074 38.622L138.354 38.365C138.93 37.921 139.485 37.451 140.078 37.033L142.588 35.27L143.54 35.897L143.541 35.891ZM133.992 20.145L134.002 20.129L134.017 20.121H134.038L134.07 20.126L134.164 20.154L134.408 20.254L134.739 20.407C135.594 20.787 136.449 21.1663 137.305 21.545C137.871 21.7957 138.438 22.046 139.005 22.296L140.125 22.796L140.225 22.842C140.285 23.761 140.359 24.679 140.406 25.6C140.443 26.319 140.458 27.038 140.475 27.758C140.475 27.849 140.47 27.939 140.464 28.03C140.464 28.081 140.456 28.13 140.449 28.183C140.442 28.2336 140.431 28.2837 140.418 28.333C140.405 28.3814 140.387 28.4283 140.365 28.473C140.341 28.5161 140.314 28.5567 140.282 28.594C140.265 28.613 140.247 28.6301 140.227 28.645C140.207 28.6613 140.185 28.676 140.163 28.689C140.139 28.7022 140.114 28.7135 140.088 28.723C140.059 28.7336 140.03 28.742 140.001 28.748C139.927 28.7614 139.851 28.7638 139.777 28.755C139.736 28.7496 139.696 28.7416 139.657 28.731C139.615 28.7211 139.573 28.708 139.533 28.692C139.445 28.6547 139.36 28.6123 139.277 28.565C139.183 28.509 139.093 28.4476 139.007 28.381C138.907 28.307 138.819 28.229 138.729 28.147C138.639 28.065 138.536 27.967 138.448 27.869C138.254 27.654 138.062 27.435 137.882 27.206C137.557 26.794 137.22 26.389 136.935 25.947C136.541 25.338 136.135 24.735 135.755 24.118C135.518 23.754 135.3 23.3778 135.102 22.991L134.238 21.214L134.052 20.648L134.01 20.48L133.984 20.317V20.2L133.992 20.145ZM135.68 16.658C136.422 15.858 137.165 15.058 137.919 14.276C138.056 14.133 138.209 14.004 138.356 13.876C138.407 13.829 138.461 13.786 138.516 13.742C138.571 13.698 138.599 13.675 138.644 13.642C138.676 13.6215 138.709 13.6038 138.744 13.589C138.78 13.5719 138.818 13.5592 138.857 13.551C138.899 13.5462 138.941 13.5462 138.983 13.551C139.004 13.5524 139.026 13.5571 139.046 13.565C139.068 13.5722 139.089 13.582 139.109 13.594C139.13 13.6066 139.15 13.621 139.169 13.637C139.191 13.6555 139.211 13.6759 139.23 13.698C139.251 13.7229 139.27 13.7493 139.288 13.777C139.309 13.8084 139.327 13.8419 139.342 13.877C139.379 13.975 139.41 14.0752 139.435 14.177C139.47 14.322 139.496 14.469 139.518 14.617C139.572 14.978 139.618 15.34 139.66 15.703C139.711 16.173 139.748 16.645 139.79 17.116L140.015 19.624L137.323 18.981L134.812 18.552L134.204 18.504L134.004 18.499C134.561 17.887 135.114 17.271 135.676 16.665L135.68 16.658ZM152.004 25.945C151.998 25.8761 151.988 25.8076 151.973 25.74C151.941 25.6043 151.901 25.4708 151.853 25.34C151.797 25.2027 151.733 25.0691 151.66 24.94C151.579 24.7973 151.491 24.6588 151.397 24.525C151.342 24.4467 151.281 24.3725 151.215 24.303C151.143 24.2238 151.066 24.1493 150.985 24.08C150.803 23.9226 150.612 23.7767 150.413 23.643C149.979 23.3486 149.526 23.0843 149.057 22.852C148.484 22.59 147.93 22.281 147.339 22.067L143.357 20.631C143.357 19.845 143.379 19.059 143.357 18.273C143.324 17.107 143.279 15.941 143.191 14.773C143.129 13.963 143.037 13.1567 142.915 12.354C142.815 11.728 142.676 11.111 142.543 10.493C142.509 10.3523 142.469 10.2134 142.421 10.077C142.38 9.954 142.336 9.831 142.288 9.71C142.24 9.589 142.196 9.49401 142.145 9.38801C142.094 9.28201 142.045 9.2 141.992 9.111C141.939 9.022 141.892 8.95 141.833 8.873C141.774 8.796 141.728 8.736 141.671 8.673C141.619 8.61426 141.564 8.55818 141.507 8.50501C141.455 8.45701 141.4 8.412 141.344 8.368C141.292 8.32899 141.238 8.29261 141.182 8.259C141.131 8.22758 141.078 8.19952 141.023 8.175C140.927 8.13282 140.829 8.09642 140.729 8.06599C140.646 8.04339 140.561 8.02668 140.476 8.01599C140.412 8.0067 140.348 8.00136 140.284 8C140.175 8 140.064 8 139.956 8C139.84 8.00831 139.724 8.02401 139.61 8.047C139.355 8.09804 139.108 8.18455 138.877 8.304C138.743 8.37382 138.613 8.45059 138.488 8.534C138.354 8.621 138.222 8.713 138.095 8.811C137.869 8.97868 137.652 9.1586 137.446 9.35C136.355 10.4167 135.293 11.509 134.259 12.627C132.182 15.235 130.11 17.846 128.152 20.552C128.106 20.615 128.063 20.68 128.022 20.746L127.192 22.084C126.876 22.638 126.592 23.209 126.314 23.784C126.262 23.898 126.216 24.0149 126.177 24.134C126.137 24.247 126.101 24.362 126.072 24.478C126.044 24.5875 126.023 24.6988 126.01 24.811C125.999 24.9147 125.997 25.019 126.004 25.123C126.009 25.1753 126.021 25.2267 126.039 25.276C126.057 25.3292 126.08 25.3807 126.107 25.43C126.137 25.4832 126.17 25.5343 126.207 25.583C126.245 25.6362 126.287 25.6869 126.332 25.735C126.432 25.835 126.532 25.935 126.638 26.025C126.747 26.1197 126.861 26.2082 126.98 26.29C127.187 26.431 127.402 26.563 127.615 26.69C127.708 26.746 127.807 26.795 127.901 26.846C127.935 26.863 127.834 26.809 127.801 26.79L127.79 26.783C127.796 26.7852 127.801 26.7882 127.806 26.792L127.964 26.877C129.275 27.588 130.591 28.289 131.896 29.011C133.201 29.733 134.52 30.465 135.816 31.221L138.73 32.921C137.718 33.721 136.686 34.484 135.696 35.304C135.319 35.6227 134.961 35.9618 134.622 36.32C134.343 36.61 134.08 36.9145 133.833 37.232C133.635 37.488 133.453 37.7551 133.286 38.032C133.154 38.2482 133.037 38.4727 132.934 38.704C132.855 38.8797 132.788 39.0605 132.734 39.245C132.695 39.3762 132.665 39.5098 132.645 39.645C132.634 39.7263 132.627 39.808 132.625 39.89C132.625 39.918 132.625 39.946 132.625 39.974C132.625 40.049 132.625 40.122 132.625 40.195C132.629 40.2637 132.636 40.3321 132.647 40.4C132.656 40.4654 132.67 40.5302 132.687 40.594C132.703 40.654 132.723 40.715 132.745 40.774C132.767 40.833 132.792 40.886 132.818 40.941C132.843 40.9945 132.873 41.046 132.907 41.095C132.972 41.1915 133.043 41.2831 133.122 41.369C133.202 41.4525 133.289 41.5294 133.382 41.599C133.475 41.6686 133.572 41.7321 133.674 41.789C133.776 41.8456 133.881 41.8967 133.989 41.942C134.094 41.9925 134.204 42.033 134.317 42.063C134.841 42.19 135.373 42.2836 135.909 42.343C136.696 42.283 137.484 42.205 138.264 42.078C139.74 41.837 141.195 41.449 142.655 41.149C143.588 40.823 144.591 40.661 145.512 40.27C146.012 40.058 146.52 39.855 147.018 39.633C147.129 39.5809 147.237 39.5214 147.34 39.455C147.435 39.397 147.528 39.335 147.618 39.269C147.698 39.2115 147.773 39.1483 147.844 39.08C147.904 39.0215 147.958 38.9576 148.006 38.889C148.086 38.7766 148.141 38.6489 148.17 38.514C148.182 38.4552 148.188 38.3952 148.188 38.335C148.187 38.277 148.181 38.2191 148.171 38.162C148.148 38.0498 148.108 37.9418 148.052 37.842C148.024 37.7921 147.994 37.7437 147.961 37.697C147.93 37.6502 147.897 37.6052 147.861 37.562C147.788 37.483 147.714 37.403 147.635 37.331C147.566 37.2691 147.494 37.211 147.419 37.157C147.346 37.103 147.27 37.057 147.195 37.006C146.676 36.681 146.16 36.35 145.637 36.03L143.455 34.67C144.783 33.735 146.124 32.817 147.44 31.862C148.002 31.454 148.556 31.033 149.089 30.585C149.546 30.202 149.981 29.79 150.407 29.371C150.607 29.171 150.791 28.951 150.975 28.733C151.058 28.6329 151.136 28.5284 151.209 28.42C151.279 28.3246 151.341 28.2244 151.397 28.12C151.568 27.767 151.737 27.413 151.88 27.046C151.93 26.8936 151.968 26.7375 151.994 26.579C152.007 26.5056 152.016 26.4315 152.02 26.357C152.025 26.286 152.028 26.213 152.027 26.142C152.026 26.071 152.019 26.002 152.012 25.933" fill="#F0AB00"/>
</svg>
