<svg width="153" height="35" viewBox="0 0 153 35" fill="none" xmlns="http://www.w3.org/2000/svg">
<path d="M19.2661 6.61012C19.355 6.59762 19.4456 6.60602 19.5308 6.63452C19.616 6.66302 19.6933 6.71082 19.7568 6.77432C19.8203 6.83782 19.8682 6.91522 19.8967 7.00042C19.9252 7.08562 19.9336 7.17622 19.9211 7.26512V9.59112C19.9345 9.68462 19.9259 9.77992 19.896 9.86942C19.8662 9.95902 19.8159 10.0404 19.7491 10.1072C19.6824 10.1739 19.601 10.2242 19.5114 10.2541C19.4218 10.2839 19.3265 10.2925 19.2331 10.2791H12.3871V28.8791C12.3998 28.9681 12.3916 29.0588 12.3632 29.1441C12.3347 29.2293 12.2869 29.3068 12.2233 29.3703C12.1598 29.4339 12.0823 29.4818 11.997 29.5102C11.9118 29.5386 11.821 29.5468 11.7321 29.5341H8.52212C8.43315 29.5468 8.34246 29.5386 8.2572 29.5102C8.17194 29.4818 8.09446 29.4339 8.03091 29.3703C7.96736 29.3068 7.91948 29.2293 7.89105 29.1441C7.86262 29.0588 7.85443 28.9681 7.86712 28.8791V10.2791H0.694118C0.600656 10.2925 0.505371 10.2839 0.415798 10.2541C0.326225 10.2242 0.244827 10.1739 0.178066 10.1072C0.111305 10.0404 0.0610301 9.95902 0.0311847 9.86942C0.00133925 9.77992 -0.00724543 9.68462 0.00612973 9.59112V7.26512C0.00612973 6.82842 0.235452 6.61012 0.694118 6.61012H19.2661Z" fill="white"/>
<path d="M41.0161 28.8829C41.0288 28.9718 41.0206 29.0625 40.9922 29.1478C40.9637 29.233 40.9158 29.3105 40.8523 29.3741C40.7887 29.4376 40.7113 29.4855 40.626 29.5139C40.5407 29.5424 40.4501 29.5506 40.3611 29.5379H37.151C37.062 29.5506 36.9715 29.5424 36.8862 29.514C36.801 29.4856 36.7236 29.4376 36.6601 29.3741C36.5966 29.3105 36.5487 29.233 36.5204 29.1477C36.4921 29.0625 36.4842 28.9718 36.4971 28.8829V20.4318H27.6161V28.8829C27.6288 28.9718 27.6206 29.0625 27.5922 29.1478C27.5637 29.233 27.5158 29.3105 27.4523 29.3741C27.3887 29.4376 27.3113 29.4855 27.226 29.5139C27.1408 29.5424 27.05 29.5506 26.9611 29.5379H23.7521C23.6631 29.5506 23.5724 29.5424 23.4871 29.5139C23.4019 29.4855 23.3244 29.4376 23.2608 29.3741C23.1973 29.3105 23.1494 29.233 23.121 29.1478C23.0925 29.0625 23.0844 28.9718 23.0971 28.8829V7.26481C23.0844 7.17591 23.0925 7.08521 23.121 6.99991C23.1494 6.91461 23.1973 6.83721 23.2608 6.77361C23.3244 6.71011 23.4019 6.66221 23.4871 6.63371C23.5724 6.60531 23.6631 6.59711 23.7521 6.60981H26.9611C27.05 6.59711 27.1408 6.60531 27.226 6.63371C27.3113 6.66221 27.3887 6.71011 27.4523 6.77361C27.5158 6.83721 27.5637 6.91461 27.5922 6.99991C27.6206 7.08521 27.6288 7.17591 27.6161 7.26481V16.7309H36.4931V7.26481C36.4804 7.17601 36.4886 7.08531 36.517 7.00021C36.5453 6.91501 36.5931 6.83761 36.6566 6.77411C36.72 6.71051 36.7973 6.66261 36.8824 6.63411C36.9676 6.60561 37.0582 6.59731 37.1471 6.60981H40.3571C40.446 6.59741 40.5366 6.60571 40.6218 6.63421C40.707 6.66271 40.7843 6.71061 40.8478 6.77411C40.9113 6.83761 40.9592 6.91501 40.9877 7.00011C41.0162 7.08531 41.0245 7.17591 41.012 7.26481L41.0161 28.8829Z" fill="white"/>
<path d="M65.3863 28.8181C65.3782 28.9683 65.3233 29.1122 65.2293 29.2296C65.1354 29.3471 65.007 29.4322 64.8623 29.4731C64.6286 29.5527 64.3873 29.6077 64.1423 29.6371C63.7729 29.6845 63.4007 29.7062 63.0283 29.7021C62.0364 29.7478 61.051 29.5217 60.1783 29.0481C59.4837 28.6348 58.8818 28.0826 58.4103 27.4261C57.9472 26.7733 57.5622 26.0685 57.2633 25.3261C56.9566 24.5728 56.6346 23.8728 56.2973 23.2261C55.9859 22.6181 55.5702 22.0695 55.0693 21.6051C54.532 21.1483 53.8406 20.914 53.1363 20.9501H50.7123V28.8771C50.725 28.9661 50.7168 29.0568 50.6884 29.1421C50.66 29.2273 50.6121 29.3048 50.5485 29.3683C50.485 29.4319 50.4075 29.4797 50.3222 29.5082C50.237 29.5366 50.1463 29.5448 50.0573 29.5321H46.8473C46.7583 29.5448 46.6676 29.5366 46.5823 29.5082C46.4971 29.4797 46.4196 29.4319 46.356 29.3683C46.2925 29.3048 46.2446 29.2273 46.2162 29.1421C46.1878 29.0568 46.1796 28.9661 46.1923 28.8771V7.29811C46.1923 6.84011 46.4106 6.61081 46.8473 6.61011H54.2473C57.0853 6.61011 59.2363 7.16711 60.7003 8.28111C62.1643 9.39511 62.896 11.2404 62.8953 13.8171C62.91 14.5817 62.7822 15.3423 62.5183 16.0601C62.2883 16.6673 61.968 17.2364 61.5683 17.7481C61.2064 18.2099 60.7753 18.613 60.2903 18.9431C59.8691 19.2336 59.4123 19.4688 58.9313 19.6431C59.5296 20.1342 60.0155 20.7481 60.3563 21.4431C60.717 22.1638 61.072 22.8638 61.4213 23.5431C61.7395 24.1745 62.1433 24.759 62.6213 25.2801C62.851 25.5216 63.1282 25.7131 63.4353 25.8427C63.7424 25.9722 64.073 26.0371 64.4063 26.0331H64.8983C65.2249 26.0331 65.3886 26.2294 65.3893 26.6221L65.3863 28.8181ZM53.7263 17.5501C54.9237 17.6001 56.1074 17.2799 57.1163 16.6331C57.549 16.3369 57.8983 15.9343 58.1306 15.4641C58.3628 14.9938 58.4701 14.4718 58.4423 13.9481C58.4692 13.4405 58.3799 12.9335 58.1813 12.4657C57.9827 11.9978 57.6801 11.5814 57.2963 11.2481C56.3756 10.5539 55.2372 10.2114 54.0863 10.2821H50.7123V17.5531L53.7263 17.5501Z" fill="white"/>
<path d="M73.0483 28.8828C73.0608 28.9719 73.0525 29.0626 73.0239 29.1478C72.9954 29.2331 72.9474 29.3105 72.8837 29.374C72.8201 29.4376 72.7426 29.4854 72.6573 29.5138C72.572 29.5423 72.4813 29.5505 72.3923 29.5378H69.1823C69.0934 29.5504 69.0028 29.542 68.9177 29.5135C68.8326 29.485 68.7552 29.4371 68.6918 29.3736C68.6284 29.3101 68.5805 29.2326 68.5522 29.1475C68.5238 29.0623 68.5156 28.9717 68.5283 28.8828V7.26481C68.5156 7.17591 68.5238 7.08531 68.5522 7.00011C68.5805 6.91501 68.6284 6.83761 68.6918 6.77401C68.7552 6.71051 68.8326 6.66261 68.9177 6.63411C69.0028 6.60561 69.0934 6.59731 69.1823 6.60981H72.3923C72.4813 6.59711 72.572 6.60531 72.6573 6.63381C72.7426 6.66221 72.8201 6.71011 72.8837 6.77361C72.9474 6.83711 72.9954 6.91461 73.0239 6.99981C73.0525 7.08511 73.0608 7.17581 73.0483 7.26481V28.8828Z" fill="white"/>
<path d="M92.438 7.33092C92.4938 7.15312 92.5707 6.98262 92.667 6.82292C92.7226 6.74682 92.7975 6.68692 92.884 6.64952C92.9705 6.61202 93.0655 6.59842 93.159 6.60992H96.731C96.8301 6.60062 96.9298 6.61852 97.0194 6.66192C97.109 6.70532 97.185 6.77242 97.239 6.85592C97.2877 6.93652 97.3174 7.02712 97.3259 7.12082C97.3344 7.21452 97.3214 7.30902 97.288 7.39692L89.526 28.163C89.4107 28.5785 89.1903 28.9573 88.886 29.2629C88.5839 29.47 88.2203 29.5681 87.855 29.541H85.595C85.2521 29.5684 84.9102 29.4758 84.628 29.279C84.3332 28.9609 84.1147 28.58 83.989 28.165L76.357 7.39892C76.3131 7.31212 76.2917 7.21562 76.2947 7.11832C76.2976 7.02102 76.3249 6.92602 76.374 6.84192C76.4308 6.76232 76.5076 6.69922 76.5966 6.65882C76.6856 6.61842 76.7837 6.60222 76.881 6.61192H80.714C80.8123 6.59852 80.9125 6.61102 81.0045 6.64842C81.0964 6.68582 81.177 6.74672 81.238 6.82492C81.328 6.97242 81.3954 7.13252 81.438 7.29992L86.81 24.4L92.438 7.33092Z" fill="white"/>
<path d="M101.184 29.5388C101.095 29.5515 101.004 29.5434 100.919 29.5149C100.834 29.4865 100.756 29.4386 100.693 29.3751C100.629 29.3115 100.581 29.2341 100.553 29.1488C100.524 29.0635 100.516 28.9728 100.529 28.8838V7.26481C100.516 7.17591 100.524 7.08521 100.553 6.99991C100.581 6.91461 100.629 6.83721 100.693 6.77361C100.756 6.71011 100.834 6.66221 100.919 6.63371C101.004 6.60531 101.095 6.59711 101.184 6.60981H114.351C114.44 6.59721 114.531 6.60541 114.616 6.63381C114.701 6.66221 114.779 6.71011 114.842 6.77361C114.906 6.83711 114.954 6.91461 114.983 6.99981C115.011 7.08511 115.019 7.17581 115.007 7.26481V9.59081C115.02 9.68441 115.011 9.77971 114.981 9.86921C114.951 9.95881 114.901 10.0402 114.834 10.1069C114.767 10.1736 114.686 10.2239 114.596 10.2537C114.507 10.2836 114.411 10.2922 114.318 10.2788H105.048V16.3709H112.222C112.311 16.3583 112.401 16.3666 112.487 16.3951C112.572 16.4236 112.649 16.4716 112.712 16.5351C112.776 16.5986 112.824 16.676 112.852 16.7612C112.88 16.8464 112.889 16.937 112.876 17.0259V19.3189C112.876 19.7559 112.648 19.9738 112.189 19.9738H105.048V25.8738H114.348C114.784 25.8738 115.004 26.1028 115.004 26.5618V28.8878C115.004 29.3252 114.774 29.5435 114.315 29.5428L101.184 29.5388Z" fill="white"/>
<path d="M146.96 18.829C146.948 18.8716 146.932 18.9131 146.913 18.953C146.89 18.9987 146.862 19.0419 146.831 19.082C146.756 19.176 146.675 19.2651 146.589 19.349C146.408 19.5292 146.217 19.6982 146.016 19.855C145.316 20.374 144.616 20.905 143.901 21.411C143.41 21.76 142.901 22.087 142.401 22.421L139.487 24.364L138.249 23.628L132.973 20.497C131.781 19.758 130.582 19.031 129.398 18.279C129.175 18.137 128.965 17.973 128.752 17.815C128.684 17.765 128.621 17.708 128.552 17.655C128.532 17.639 128.509 17.624 128.49 17.606C128.446 17.563 128.4 17.52 128.358 17.473C128.333 17.4433 128.31 17.4119 128.29 17.379C128.268 17.3444 128.25 17.308 128.235 17.27C128.219 17.2305 128.207 17.1892 128.201 17.147C128.194 17.1029 128.194 17.0581 128.201 17.014C128.208 16.9659 128.22 16.9186 128.237 16.873C128.253 16.8237 128.275 16.7762 128.301 16.731C128.353 16.6376 128.41 16.5475 128.473 16.461C128.546 16.3629 128.625 16.2691 128.709 16.18C129.39 15.452 130.083 14.734 130.767 14.009L132.614 12.052L132.702 12.368L132.926 12.923L132.941 12.957C133.43 13.836 133.888 14.733 134.406 15.593C135.122 16.783 135.906 17.931 136.667 19.085C137.119 19.7144 137.606 20.3177 138.127 20.892C138.412 21.1867 138.715 21.4645 139.033 21.724C139.192 21.8484 139.359 21.9621 139.533 22.064C139.615 22.114 139.7 22.1584 139.788 22.197C139.87 22.2346 139.955 22.268 140.041 22.297C140.124 22.325 140.21 22.348 140.296 22.366C140.374 22.3833 140.453 22.396 140.533 22.404C140.605 22.4089 140.678 22.4089 140.751 22.404C140.818 22.4026 140.885 22.3962 140.951 22.385C141.013 22.3754 141.074 22.3613 141.134 22.343C141.19 22.3266 141.246 22.3062 141.3 22.282C141.351 22.2601 141.4 22.235 141.448 22.207C141.494 22.1815 141.539 22.1528 141.581 22.121C141.658 22.0615 141.732 21.9977 141.803 21.93C141.862 21.8706 141.916 21.8067 141.966 21.739C142.029 21.6524 142.087 21.5623 142.14 21.469C142.204 21.356 142.265 21.239 142.318 21.119C142.378 20.9858 142.431 20.8492 142.477 20.71C142.569 20.419 142.657 20.126 142.727 19.827C142.833 19.4263 142.913 19.0191 142.967 18.608L143.206 16.219C143.752 16.483 144.306 16.719 144.844 17.011C145.382 17.303 145.864 17.62 146.37 17.931C146.429 17.9683 146.485 18.01 146.538 18.056C146.613 18.1208 146.685 18.1896 146.754 18.262C146.791 18.3004 146.824 18.3423 146.854 18.387C146.882 18.4304 146.906 18.4762 146.926 18.524C146.943 18.572 146.956 18.6216 146.965 18.672C146.968 18.6973 146.968 18.7228 146.965 18.748C146.966 18.7743 146.963 18.8005 146.957 18.826L146.96 18.829ZM143.541 27.891C143.774 28.044 144.008 28.191 144.241 28.352C144.541 28.552 144.835 28.752 145.122 28.972C145.329 29.127 145.522 29.295 145.722 29.466C145.808 29.5433 145.89 29.6254 145.968 29.712C146.031 29.783 146.086 29.861 146.142 29.939C146.144 29.9449 146.144 29.9512 146.142 29.957C146.142 29.9706 146.14 29.984 146.136 29.997C146.133 30.0056 146.128 30.0132 146.121 30.019C146.113 30.0268 146.104 30.0332 146.094 30.038C146.08 30.0443 146.066 30.0487 146.051 30.051C146.03 30.0555 146.01 30.0585 145.989 30.06C144.854 30.148 143.717 30.229 142.583 30.322L138.148 30.684L138.01 30.693L138.074 30.622L138.354 30.365C138.93 29.921 139.485 29.451 140.078 29.033L142.588 27.27L143.54 27.897L143.541 27.891ZM133.992 12.145L134.002 12.129L134.017 12.121H134.038L134.07 12.126L134.164 12.154L134.408 12.254L134.739 12.407C135.594 12.787 136.449 13.1663 137.305 13.545C137.871 13.7957 138.438 14.046 139.005 14.296L140.125 14.796L140.225 14.842C140.285 15.761 140.359 16.679 140.406 17.6C140.443 18.319 140.458 19.038 140.475 19.758C140.475 19.849 140.47 19.939 140.464 20.03C140.464 20.081 140.456 20.13 140.449 20.183C140.442 20.2336 140.431 20.2837 140.418 20.333C140.405 20.3814 140.387 20.4283 140.365 20.473C140.341 20.5161 140.314 20.5567 140.282 20.594C140.265 20.613 140.247 20.6301 140.227 20.645C140.207 20.6613 140.185 20.676 140.163 20.689C140.139 20.7022 140.114 20.7135 140.088 20.723C140.059 20.7336 140.03 20.742 140.001 20.748C139.927 20.7614 139.851 20.7638 139.777 20.755C139.736 20.7496 139.696 20.7416 139.657 20.731C139.615 20.7211 139.573 20.708 139.533 20.692C139.445 20.6547 139.36 20.6123 139.277 20.565C139.183 20.509 139.093 20.4476 139.007 20.381C138.907 20.307 138.819 20.229 138.729 20.147C138.639 20.065 138.536 19.967 138.448 19.869C138.254 19.654 138.062 19.435 137.882 19.206C137.557 18.794 137.22 18.389 136.935 17.947C136.541 17.338 136.135 16.735 135.755 16.118C135.518 15.754 135.3 15.3778 135.102 14.991L134.238 13.214L134.052 12.648L134.01 12.48L133.984 12.317V12.2L133.992 12.145ZM135.68 8.658C136.422 7.858 137.165 7.058 137.919 6.276C138.056 6.133 138.209 6.004 138.356 5.876C138.407 5.829 138.461 5.786 138.516 5.742C138.571 5.698 138.599 5.675 138.644 5.642C138.676 5.6215 138.709 5.6038 138.744 5.589C138.78 5.5719 138.818 5.5592 138.857 5.551C138.899 5.5462 138.941 5.5462 138.983 5.551C139.004 5.5524 139.026 5.5571 139.046 5.565C139.068 5.5722 139.089 5.582 139.109 5.594C139.13 5.6066 139.15 5.621 139.169 5.637C139.191 5.6555 139.211 5.6759 139.23 5.698C139.251 5.7229 139.27 5.7493 139.288 5.777C139.309 5.8084 139.327 5.8419 139.342 5.877C139.379 5.975 139.41 6.0752 139.435 6.177C139.47 6.322 139.496 6.469 139.518 6.617C139.572 6.978 139.618 7.34 139.66 7.703C139.711 8.173 139.748 8.645 139.79 9.116L140.015 11.624L137.323 10.981L134.812 10.552L134.204 10.504L134.004 10.499C134.561 9.887 135.114 9.271 135.676 8.665L135.68 8.658ZM152.004 17.945C151.998 17.8761 151.988 17.8076 151.973 17.74C151.941 17.6043 151.901 17.4708 151.853 17.34C151.797 17.2027 151.733 17.0691 151.66 16.94C151.579 16.7973 151.491 16.6588 151.397 16.525C151.342 16.4467 151.281 16.3725 151.215 16.303C151.143 16.2238 151.066 16.1493 150.985 16.08C150.803 15.9226 150.612 15.7767 150.413 15.643C149.979 15.3486 149.526 15.0843 149.057 14.852C148.484 14.59 147.93 14.281 147.339 14.067L143.357 12.631C143.357 11.845 143.379 11.059 143.357 10.273C143.324 9.107 143.279 7.941 143.191 6.773C143.129 5.963 143.037 5.1567 142.915 4.354C142.815 3.728 142.676 3.111 142.543 2.493C142.509 2.3523 142.469 2.2134 142.421 2.077C142.38 1.954 142.336 1.831 142.288 1.71C142.24 1.589 142.196 1.49401 142.145 1.38801C142.094 1.28201 142.045 1.2 141.992 1.111C141.939 1.022 141.892 0.95 141.833 0.873C141.774 0.796 141.728 0.736 141.671 0.673C141.619 0.61426 141.564 0.55818 141.507 0.50501C141.455 0.45701 141.4 0.412 141.344 0.368C141.292 0.32899 141.238 0.29261 141.182 0.259C141.131 0.22758 141.078 0.19952 141.023 0.175C140.927 0.13282 140.829 0.0964204 140.729 0.0659904C140.646 0.0433904 140.561 0.0266803 140.476 0.0159903C140.412 0.00670026 140.348 0.00136 140.284 0C140.175 0 140.064 0 139.956 0C139.84 0.00831 139.724 0.0240099 139.61 0.0469999C139.355 0.0980399 139.108 0.18455 138.877 0.304C138.743 0.37382 138.613 0.45059 138.488 0.534C138.354 0.621 138.222 0.713 138.095 0.811C137.869 0.97868 137.652 1.1586 137.446 1.35C136.355 2.4167 135.293 3.509 134.259 4.627C132.182 7.235 130.11 9.846 128.152 12.552C128.106 12.615 128.063 12.68 128.022 12.746L127.192 14.084C126.876 14.638 126.592 15.209 126.314 15.784C126.262 15.898 126.216 16.0149 126.177 16.134C126.137 16.247 126.101 16.362 126.072 16.478C126.044 16.5875 126.023 16.6988 126.01 16.811C125.999 16.9147 125.997 17.019 126.004 17.123C126.009 17.1753 126.021 17.2267 126.039 17.276C126.057 17.3292 126.08 17.3807 126.107 17.43C126.137 17.4832 126.17 17.5343 126.207 17.583C126.245 17.6362 126.287 17.6869 126.332 17.735C126.432 17.835 126.532 17.935 126.638 18.025C126.747 18.1197 126.861 18.2082 126.98 18.29C127.187 18.431 127.402 18.563 127.615 18.69C127.708 18.746 127.807 18.795 127.901 18.846C127.935 18.863 127.834 18.809 127.801 18.79L127.79 18.783C127.796 18.7852 127.801 18.7882 127.806 18.792L127.964 18.877C129.275 19.588 130.591 20.289 131.896 21.011C133.201 21.733 134.52 22.465 135.816 23.221L138.73 24.921C137.718 25.721 136.686 26.484 135.696 27.304C135.319 27.6227 134.961 27.9618 134.622 28.32C134.343 28.61 134.08 28.9145 133.833 29.232C133.635 29.488 133.453 29.7551 133.286 30.032C133.154 30.2482 133.037 30.4727 132.934 30.704C132.855 30.8797 132.788 31.0605 132.734 31.245C132.695 31.3762 132.665 31.5098 132.645 31.645C132.634 31.7263 132.627 31.808 132.625 31.89C132.625 31.918 132.625 31.946 132.625 31.974C132.625 32.049 132.625 32.122 132.625 32.195C132.629 32.2637 132.636 32.3321 132.647 32.4C132.656 32.4654 132.67 32.5302 132.687 32.594C132.703 32.654 132.723 32.715 132.745 32.774C132.767 32.833 132.792 32.886 132.818 32.941C132.843 32.9945 132.873 33.046 132.907 33.095C132.972 33.1915 133.043 33.2831 133.122 33.369C133.202 33.4525 133.289 33.5294 133.382 33.599C133.475 33.6686 133.572 33.7321 133.674 33.789C133.776 33.8456 133.881 33.8967 133.989 33.942C134.094 33.9925 134.204 34.033 134.317 34.063C134.841 34.19 135.373 34.2836 135.909 34.343C136.696 34.283 137.484 34.205 138.264 34.078C139.74 33.837 141.195 33.449 142.655 33.149C143.588 32.823 144.591 32.661 145.512 32.27C146.012 32.058 146.52 31.855 147.018 31.633C147.129 31.5809 147.237 31.5214 147.34 31.455C147.435 31.397 147.528 31.335 147.618 31.269C147.698 31.2115 147.773 31.1483 147.844 31.08C147.904 31.0215 147.958 30.9576 148.006 30.889C148.086 30.7766 148.141 30.6489 148.17 30.514C148.182 30.4552 148.188 30.3952 148.188 30.335C148.187 30.277 148.181 30.2191 148.171 30.162C148.148 30.0498 148.108 29.9418 148.052 29.842C148.024 29.7921 147.994 29.7437 147.961 29.697C147.93 29.6502 147.897 29.6052 147.861 29.562C147.788 29.483 147.714 29.403 147.635 29.331C147.566 29.2691 147.494 29.211 147.419 29.157C147.346 29.103 147.27 29.057 147.195 29.006C146.676 28.681 146.16 28.35 145.637 28.03L143.455 26.67C144.783 25.735 146.124 24.817 147.44 23.862C148.002 23.454 148.556 23.033 149.089 22.585C149.546 22.202 149.981 21.79 150.407 21.371C150.607 21.171 150.791 20.951 150.975 20.733C151.058 20.6329 151.136 20.5284 151.209 20.42C151.279 20.3246 151.341 20.2244 151.397 20.12C151.568 19.767 151.737 19.413 151.88 19.046C151.93 18.8936 151.968 18.7375 151.994 18.579C152.007 18.5056 152.016 18.4315 152.02 18.357C152.025 18.286 152.028 18.213 152.027 18.142C152.026 18.071 152.019 18.002 152.012 17.933" fill="#F0AB00"/>
</svg>
