<svg width="190" height="40" viewBox="0 0 190 40" fill="none" xmlns="http://www.w3.org/2000/svg">
<path d="M0 35.6117C0 37.5698 1.5909 39.1607 3.54894 39.1607C5.50697 39.1607 7.09787 37.5698 7.09787 35.6117C7.09787 33.6537 5.50697 32.0628 3.54894 32.0628C1.5909 32.0628 0 33.6537 0 35.6117ZM19.458 0C11.2587 0 4.52795 6.73074 4.52795 14.93C4.52795 16.888 4.89508 18.7237 5.62935 20.437C5.01746 21.7831 4.52795 23.2516 4.52795 24.5978C4.52795 28.5139 7.70976 31.6957 11.6258 31.6957C13.7062 31.6957 15.909 30.9614 17.6223 29.7376C17.9894 29.7376 18.4789 29.86 18.8461 29.86C18.9685 29.86 19.2132 29.86 19.3356 29.86H19.458H46.9928C55.1921 29.86 61.9228 23.1293 61.9228 14.93C61.9228 6.73074 55.1921 0 46.9928 0H19.458Z" fill="url(#paint0_linear)"/>
<path d="M23.7449 11.1362C25.703 11.1362 27.1715 12.7271 27.1715 14.5628C27.1715 16.3984 25.5806 17.9893 23.7449 17.9893C21.7869 17.9893 20.3184 16.3984 20.3184 14.5628C20.3184 12.7271 21.7869 11.1362 23.7449 11.1362Z" fill="white"/>
<g opacity="0.8">
<path opacity="0.8" d="M35.1189 11.1362C37.077 11.1362 38.5455 12.7271 38.5455 14.5628C38.5455 16.3984 36.9546 17.9893 35.1189 17.9893C33.1609 17.9893 31.6924 16.3984 31.6924 14.5628C31.6924 12.7271 33.2833 11.1362 35.1189 11.1362Z" fill="white"/>
</g>
<g opacity="0.6">
<path opacity="0.6" d="M46.6268 11.1362C48.5848 11.1362 50.0533 12.7271 50.0533 14.5628C50.0533 16.3984 48.4624 17.9893 46.6268 17.9893C44.6687 17.9893 43.2002 16.3984 43.2002 14.5628C43.2002 12.7271 44.7911 11.1362 46.6268 11.1362Z" fill="white"/>
</g>
<path d="M74.4942 25.3515H71.1045V8.90015H74.4942V25.3515Z" fill="black"/>
<path d="M80.4375 13.126L80.5392 14.5384C81.413 13.4461 82.5843 12.9 84.0532 12.9C85.3488 12.9 86.313 13.2804 86.9457 14.0412C87.5785 14.802 87.9024 15.9394 87.9174 17.4535V25.3515H84.652V17.5326C84.652 16.8396 84.5014 16.3387 84.2001 16.0298C83.8988 15.7135 83.3978 15.5553 82.6973 15.5553C81.7783 15.5553 81.0891 15.947 80.6296 16.7304V25.3515H77.3642V13.126H80.4375Z" fill="black"/>
<path d="M96.7533 19.6229H90.3919V16.9902H96.7533V19.6229Z" fill="black"/>
<path d="M108.877 21.9618H102.934L101.804 25.3515H98.1995L104.324 8.90015H107.465L113.623 25.3515H110.018L108.877 21.9618ZM103.849 19.2162H107.962L105.894 13.0582L103.849 19.2162Z" fill="black"/>
<path d="M125.408 19.3517C125.408 21.2349 124.978 22.7452 124.12 23.8826C123.268 25.0126 122.116 25.5775 120.662 25.5775C119.427 25.5775 118.429 25.1481 117.668 24.2894V30.0519H114.402V13.126H117.43L117.543 14.3237C118.334 13.3746 119.366 12.9 120.639 12.9C122.146 12.9 123.317 13.4574 124.153 14.5723C124.99 15.6871 125.408 17.2238 125.408 19.1823V19.3517ZM122.142 19.1145C122.142 17.977 121.939 17.0995 121.532 16.4818C121.133 15.8641 120.549 15.5553 119.781 15.5553C118.756 15.5553 118.052 15.947 117.668 16.7304V21.7358C118.067 22.5418 118.779 22.9448 119.803 22.9448C121.363 22.9448 122.142 21.668 122.142 19.1145Z" fill="black"/>
<path d="M138.447 19.3517C138.447 21.2349 138.017 22.7452 137.159 23.8826C136.307 25.0126 135.155 25.5775 133.701 25.5775C132.466 25.5775 131.468 25.1481 130.707 24.2894V30.0519H127.441V13.126H130.47L130.583 14.3237C131.373 13.3746 132.405 12.9 133.678 12.9C135.185 12.9 136.356 13.4574 137.192 14.5723C138.029 15.6871 138.447 17.2238 138.447 19.1823V19.3517ZM135.181 19.1145C135.181 17.977 134.978 17.0995 134.571 16.4818C134.172 15.8641 133.588 15.5553 132.82 15.5553C131.795 15.5553 131.091 15.947 130.707 16.7304V21.7358C131.106 22.5418 131.818 22.9448 132.842 22.9448C134.402 22.9448 135.181 21.668 135.181 19.1145Z" fill="black"/>
<path d="M156.848 21.0353C156.644 22.7753 156 24.1199 154.916 25.069C153.839 26.0106 152.404 26.4814 150.611 26.4814C148.667 26.4814 147.108 25.7847 145.933 24.3911C144.765 22.9976 144.182 21.1332 144.182 18.7981V17.2162C144.182 15.6871 144.453 14.3425 144.995 13.1825C145.545 12.0224 146.321 11.1336 147.323 10.5159C148.325 9.89069 149.485 9.57809 150.803 9.57809C152.55 9.57809 153.952 10.0677 155.006 11.047C156.061 12.0187 156.675 13.367 156.848 15.092H154.667C154.479 13.7813 154.068 12.8322 153.436 12.2447C152.81 11.6571 151.933 11.3633 150.803 11.3633C149.417 11.3633 148.328 11.8756 147.537 12.9C146.754 13.9244 146.362 15.382 146.362 17.2727V18.8659C146.362 20.6511 146.735 22.071 147.481 23.1256C148.227 24.1802 149.27 24.7075 150.611 24.7075C151.816 24.7075 152.739 24.4363 153.379 23.8939C154.027 23.3441 154.456 22.3912 154.667 21.0353H156.848Z" fill="#FF6332"/>
<path d="M161.582 15.5101C162.509 14.3726 163.714 13.8039 165.198 13.8039C167.782 13.8039 169.085 15.2615 169.107 18.1766V26.2554H167.017V18.1653C167.009 17.284 166.806 16.6324 166.407 16.2106C166.015 15.7888 165.401 15.5779 164.565 15.5779C163.887 15.5779 163.292 15.7587 162.78 16.1202C162.268 16.4818 161.868 16.9563 161.582 17.5439V26.2554H159.492V8.90015H161.582V15.5101Z" fill="#FF6332"/>
<path d="M179.785 26.2554C179.664 26.0144 179.566 25.585 179.491 24.9674C178.519 25.9767 177.359 26.4814 176.011 26.4814C174.806 26.4814 173.815 26.1425 173.039 25.4645C172.271 24.779 171.887 23.9128 171.887 22.8657C171.887 21.5927 172.369 20.6059 173.333 19.9054C174.305 19.1973 175.668 18.8433 177.423 18.8433H179.457V17.8829C179.457 17.1522 179.239 16.5722 178.802 16.1428C178.365 15.7059 177.721 15.4875 176.87 15.4875C176.124 15.4875 175.499 15.6758 174.994 16.0524C174.489 16.4291 174.237 16.8848 174.237 17.4196H172.135C172.135 16.8095 172.35 16.2219 172.779 15.657C173.216 15.0845 173.804 14.6325 174.542 14.3011C175.288 13.9696 176.105 13.8039 176.994 13.8039C178.403 13.8039 179.506 14.158 180.305 14.866C181.103 15.5666 181.517 16.5345 181.548 17.7699V23.3968C181.548 24.5192 181.691 25.4118 181.977 26.0747V26.2554H179.785ZM176.316 24.6623C176.971 24.6623 177.593 24.4928 178.18 24.1538C178.768 23.8149 179.194 23.3742 179.457 22.8318V20.3235H177.819C175.258 20.3235 173.977 21.073 173.977 22.572C173.977 23.2273 174.196 23.7395 174.633 24.1086C175.069 24.4777 175.631 24.6623 176.316 24.6623Z" fill="#FF6332"/>
<path d="M187.66 11.0696V14.0299H189.943V15.6457H187.66V23.2273C187.66 23.7169 187.762 24.086 187.965 24.3346C188.169 24.5757 188.515 24.6962 189.005 24.6962C189.246 24.6962 189.577 24.651 189.999 24.5606V26.2554C189.449 26.4061 188.914 26.4814 188.395 26.4814C187.461 26.4814 186.756 26.1989 186.282 25.634C185.807 25.069 185.57 24.2668 185.57 23.2273V15.6457H183.344V14.0299H185.57V11.0696H187.66Z" fill="#FF6332"/>
<defs>
<linearGradient id="paint0_linear" x1="9.54297" y1="-0.36297" x2="45.9842" y2="39.5229" gradientUnits="userSpaceOnUse">
<stop stop-color="#F26339"/>
<stop offset="0.5523" stop-color="#F36F29"/>
<stop offset="1" stop-color="#F47521"/>
</linearGradient>
</defs>
</svg>
