<svg xmlns="http://www.w3.org/2000/svg" width="219.98" height="45.34" viewBox="0 0 219.98 45.34"><defs><style>.a{fill:#f03a01;}.b,.d,.f{fill:#fff;}.c,.d{opacity:0.8;}.e,.f{opacity:0.6;}.g{fill:#0f0f1d;}</style></defs><path class="a" d="M0,41.231a4.109,4.109,0,1,0,4.109-4.109A4.112,4.112,0,0,0,0,41.231ZM22.528,0A17.355,17.355,0,0,0,5.242,17.286a16.014,16.014,0,0,0,1.275,6.376,12.206,12.206,0,0,0-1.275,4.817A8.224,8.224,0,0,0,13.46,36.7,12.3,12.3,0,0,0,20.4,34.43c.425,0,.992.142,1.417.142H54.408A17.286,17.286,0,0,0,54.408,0Z"/><path class="b" d="M24.286,11.136A3.96,3.96,0,0,1,28.253,15.1a4.055,4.055,0,0,1-3.967,3.967,3.967,3.967,0,0,1,0-7.934Z" transform="translate(3.206 1.757)"/><g class="c" transform="translate(36.693 12.893)"><path class="d" d="M35.66,11.136A3.96,3.96,0,0,1,39.627,15.1a4.055,4.055,0,0,1-3.967,3.967A3.96,3.96,0,0,1,31.692,15.1,4.055,4.055,0,0,1,35.66,11.136Z" transform="translate(-31.692 -11.136)"/></g><g class="e" transform="translate(50.017 12.893)"><path class="f" d="M47.167,11.136A3.96,3.96,0,0,1,51.135,15.1a4.055,4.055,0,0,1-3.967,3.967A3.96,3.96,0,0,1,43.2,15.1,4.055,4.055,0,0,1,47.167,11.136Z" transform="translate(-43.2 -11.136)"/></g><path class="g" d="M75.029,27.947H71.1V8.9h3.925Z" transform="translate(11.22 1.404)"/><path class="g" d="M80.922,13.162,81.04,14.8a4.942,4.942,0,0,1,4.068-1.9,4.107,4.107,0,0,1,3.349,1.321,6.164,6.164,0,0,1,1.125,3.951v9.144H85.8V18.264a2.428,2.428,0,0,0-.523-1.74,2.325,2.325,0,0,0-1.74-.549,2.6,2.6,0,0,0-2.394,1.361v9.981H77.364V13.162Z" transform="translate(12.208 2.036)"/><path class="g" d="M97.757,20.038H90.392V16.99h7.365Z" transform="translate(14.263 2.681)"/><path d="M110.562,24.023h-6.881l-1.308,3.925H98.2L105.29,8.9h3.637l7.13,19.047h-4.174Zm-5.821-3.179H109.5l-2.394-7.13Z" transform="translate(15.495 1.404)"/><path class="g" d="M127.145,20.37a8.5,8.5,0,0,1-1.491,5.246,4.75,4.75,0,0,1-4,1.962,4.41,4.41,0,0,1-3.466-1.491v6.672H114.4v-19.6h3.506l.131,1.387a4.444,4.444,0,0,1,3.585-1.648,4.792,4.792,0,0,1,4.068,1.936,8.712,8.712,0,0,1,1.453,5.337Zm-3.781-.275a5.527,5.527,0,0,0-.706-3.048,2.263,2.263,0,0,0-2.027-1.073,2.475,2.475,0,0,0-2.446,1.361v5.8a2.517,2.517,0,0,0,2.472,1.4Q123.364,24.53,123.363,20.1Z" transform="translate(18.052 2.036)"/><path class="g" d="M140.184,20.37a8.5,8.5,0,0,1-1.491,5.246,4.75,4.75,0,0,1-4,1.962,4.41,4.41,0,0,1-3.466-1.491v6.672h-3.781v-19.6h3.507l.131,1.387a4.44,4.44,0,0,1,3.583-1.648,4.792,4.792,0,0,1,4.068,1.936,8.712,8.712,0,0,1,1.453,5.337ZM136.4,20.1a5.527,5.527,0,0,0-.706-3.048,2.263,2.263,0,0,0-2.027-1.073,2.475,2.475,0,0,0-2.446,1.361v5.8a2.517,2.517,0,0,0,2.472,1.4Q136.4,24.53,136.4,20.1Z" transform="translate(20.11 2.036)"/><path class="a" d="M158.847,22.843a7.027,7.027,0,0,1-2.237,4.67,7.3,7.3,0,0,1-4.984,1.635,6.73,6.73,0,0,1-5.416-2.42,9.755,9.755,0,0,1-2.027-6.476V18.421a10.923,10.923,0,0,1,.941-4.67,7.084,7.084,0,0,1,2.7-3.087,7.452,7.452,0,0,1,4.029-1.086,6.866,6.866,0,0,1,4.866,1.7,7.062,7.062,0,0,1,2.133,4.683h-2.525a5.428,5.428,0,0,0-1.425-3.3,4.281,4.281,0,0,0-3.048-1.02,4.515,4.515,0,0,0-3.781,1.779,8.194,8.194,0,0,0-1.36,5.063v1.845a8.388,8.388,0,0,0,1.3,4.932,4.186,4.186,0,0,0,3.624,1.832,4.828,4.828,0,0,0,3.2-.942,5.272,5.272,0,0,0,1.491-3.31Z" transform="translate(22.751 1.511)"/><path class="a" d="M161.912,16.553a5.147,5.147,0,0,1,4.187-1.975q4.488,0,4.526,5.063v9.354H168.2V19.627a3.242,3.242,0,0,0-.706-2.263,2.784,2.784,0,0,0-2.133-.733,3.492,3.492,0,0,0-2.067.628,4.265,4.265,0,0,0-1.387,1.648V28.994h-2.42V8.9h2.42Z" transform="translate(25.167 1.404)"/><path class="a" d="M181.031,28.22a5.051,5.051,0,0,1-.34-1.491,5.4,5.4,0,0,1-4.029,1.753,5.04,5.04,0,0,1-3.441-1.177,3.859,3.859,0,0,1-1.334-3.009,3.99,3.99,0,0,1,1.674-3.427,7.924,7.924,0,0,1,4.735-1.23h2.355V18.527a2.7,2.7,0,0,0-.758-2.015,3.033,3.033,0,0,0-2.237-.759,3.53,3.53,0,0,0-2.172.654,1.927,1.927,0,0,0-.876,1.583h-2.434a3.333,3.333,0,0,1,.746-2.041,5.173,5.173,0,0,1,2.041-1.57A6.911,6.911,0,0,1,177.8,13.8a5.578,5.578,0,0,1,3.833,1.23,4.4,4.4,0,0,1,1.439,3.362v6.515a7.971,7.971,0,0,0,.5,3.1v.209Zm-4.016-1.844a4.251,4.251,0,0,0,2.158-.589,3.554,3.554,0,0,0,1.479-1.531v-2.9h-1.9q-4.448,0-4.448,2.6a2.2,2.2,0,0,0,.76,1.779A2.914,2.914,0,0,0,177.015,26.376Z" transform="translate(27.123 2.178)"/><path class="a" d="M188.341,11.07V14.5h2.643v1.871h-2.643v8.778a1.992,1.992,0,0,0,.353,1.282,1.5,1.5,0,0,0,1.2.419,5.858,5.858,0,0,0,1.151-.157v1.962a7.016,7.016,0,0,1-1.857.262,3.014,3.014,0,0,1-2.446-.981,4.212,4.212,0,0,1-.824-2.786V16.368h-2.577V14.5h2.577V11.07Z" transform="translate(28.931 1.747)"/></svg>