<svg width="50" height="50" viewBox="0 0 50 50" fill="none" xmlns="http://www.w3.org/2000/svg">
<path d="M24.7907 27.6749C24.6869 27.8806 24.0644 28.4979 20.7446 28.9094C17.7359 29.3209 13.0674 29.3209 9.33253 29.3209C8.81379 29.3209 8.19133 29.3209 7.56885 29.3209C6.11639 29.3209 4.66397 29.3209 3.21152 29.3209C2.6928 29.3209 2.27781 29.3209 1.86283 29.3209C1.3441 29.3209 0.929116 29.3209 0.514131 29.3209C0.410386 28.7037 0.306641 28.0864 0.306641 27.4691C0.721625 27.4691 1.24035 27.4691 1.65534 27.4691C2.07032 27.4691 2.58905 27.4691 3.00403 27.4691C3.419 27.4691 3.73026 27.4691 4.14523 27.4691C5.07894 27.4691 6.01265 27.4691 6.94636 27.4691C10.9925 27.4691 15.5573 27.4691 18.6696 27.0576C21.2633 26.7489 23.027 26.1316 24.0644 25.3086C24.0644 25.4115 24.1682 25.5144 24.1682 25.6172C24.1682 25.7201 24.2719 25.823 24.2719 25.9259C24.5832 26.4403 24.9982 27.3662 24.7907 27.6749Z" fill="url(#paint0_linear_38_80)"/>
<path d="M26.6383 32.2832C26.5342 32.4978 25.9095 33.1407 22.4734 33.5694C19.4539 33.9981 14.7684 33.9981 11.02 33.891C10.4994 33.891 9.87467 33.891 9.24995 33.891C7.68811 33.891 6.12627 33.891 4.46032 33.891C3.93971 33.891 3.41909 33.891 3.00261 33.891C2.482 33.891 1.96139 33.891 1.5449 33.891C1.44078 33.7839 1.44078 33.5694 1.33665 33.4623C1.12841 33.0336 1.02429 32.6049 0.920166 32.1761C1.33665 32.1761 1.85726 32.1761 2.37788 32.1761C2.89849 32.1761 3.31498 32.1761 3.8356 32.1761C5.08504 32.1761 6.33452 32.1761 7.47986 32.1761C8.10458 32.1761 8.6252 32.1761 9.24995 32.1761C13.3107 32.1761 17.8921 32.1761 21.0157 31.7474C23.3064 31.4258 24.9724 30.9971 26.1177 30.2468C26.1177 30.354 26.2219 30.4612 26.2219 30.5684C26.326 30.9971 26.8466 31.9616 26.6383 32.2832Z" fill="url(#paint1_linear_38_80)"/>
<path d="M50 22.5308C49.5822 22.5308 49.0601 22.6337 48.6426 22.6337C48.2248 22.6337 47.7028 22.6337 47.285 22.7366C45.7187 22.7366 44.0478 22.8394 42.6905 22.8394C41.8552 22.8394 41.1242 22.8394 40.4975 22.8394C37.2607 22.9423 33.0837 23.0452 30.4733 23.4567C29.3246 23.6625 27.9672 23.9711 26.9229 24.6913C26.9229 24.6913 26.9229 24.6913 26.9229 24.5884C26.6097 23.9711 26.2964 23.0452 26.4009 22.7366C26.4009 22.7366 26.6097 22.1193 29.2202 21.6049C31.7264 21.1934 35.5899 20.9876 38.827 20.9876C39.558 20.9876 40.3932 20.9876 41.2285 20.9876C43.4215 20.9876 45.4055 20.8847 47.0761 20.8847C47.5985 20.8847 48.0159 20.8847 48.4337 20.7818C48.9558 20.7818 49.3736 20.679 49.7911 20.679C49.7911 21.2962 49.8957 21.9135 50 22.5308Z" fill="url(#paint2_linear_38_80)"/>
<path d="M49.9999 25.3086C49.9999 25.6225 49.9999 25.9363 49.9999 26.2502C49.8959 27.9242 49.6885 29.5982 49.2732 31.1675C48.8579 32.737 48.2349 34.3064 47.5079 35.8756C46.0542 38.8052 44.1852 41.4206 41.7971 43.5132C39.4088 45.6058 36.6054 47.3842 33.5944 48.4305C30.7907 49.4768 27.9873 50 25.08 50C24.6647 50 24.1455 50 23.7301 50C20.4075 49.7907 17.1887 48.9537 14.1775 47.4888C11.2702 46.0243 8.67438 44.141 6.59772 41.7345C5.24787 40.1654 4.00189 38.4913 3.06738 36.7126C3.58655 36.7126 4.10573 36.7126 4.62487 36.7126C5.14404 36.7126 5.66321 36.7126 6.18238 36.7126C7.32453 36.7126 8.46671 36.7126 9.50502 36.7126C10.128 36.7126 10.6472 36.7126 11.2702 36.7126C15.3197 36.7126 19.8883 36.7126 23.0033 36.2941C26.2221 35.8756 28.195 35.1432 29.0256 33.8879C30.064 32.3185 29.3371 30.5398 28.818 29.4936C28.818 29.3889 28.7141 29.2843 28.7141 29.1797C28.4026 28.552 28.0911 27.715 28.195 27.4011C28.195 27.4011 28.4026 26.7733 30.9984 26.3548C33.4904 25.9363 37.4361 25.8317 40.5511 25.7271C41.1741 25.7271 41.9008 25.7271 42.7315 25.7271C44.3928 25.7271 45.9505 25.6225 47.3002 25.6225C47.8195 25.6225 48.2349 25.6225 48.6502 25.6225C49.0655 25.3086 49.5846 25.3086 49.9999 25.3086Z" fill="url(#paint3_linear_38_80)"/>
<path d="M49.0796 17.9012C48.6625 17.9012 48.141 18.004 47.6195 18.004C47.2023 18.004 46.6812 18.004 46.1597 18.1069C44.3867 18.2098 42.4054 18.2098 40.9453 18.2098C40.0066 18.2098 39.1726 18.2098 38.5468 18.2098C35.314 18.3127 31.1425 18.4156 28.5353 18.8271C27.2839 19.0329 25.7196 19.4444 24.5724 20.3703V20.2674C24.5724 20.1645 24.4681 20.0617 24.4681 19.9588C24.1553 19.3415 23.8424 18.5185 23.9467 18.2098C23.9467 18.2098 24.1553 17.5925 26.7624 17.181C29.2653 16.7695 33.1238 16.6666 36.3566 16.5637C38.0253 16.5637 42.1968 16.4608 45.5339 16.2551C46.0554 16.2551 46.4726 16.1522 46.9941 16.1522C47.5152 16.1522 47.9324 16.0493 48.4539 16.0493C48.5582 16.1522 48.5582 16.358 48.6625 16.4608C48.7668 16.8724 48.8711 17.3868 49.0796 17.9012Z" fill="url(#paint4_linear_38_80)"/>
<path d="M46.9325 13.3124C46.5172 13.3124 45.9982 13.4177 45.4788 13.4177C44.9598 13.4177 44.4405 13.523 43.9215 13.523C41.5331 13.6283 38.6258 13.7336 36.0301 13.8389C32.8114 13.8389 28.6579 14.0495 26.0621 14.4706C24.2969 14.7865 21.8049 15.4183 21.1819 17.4189C20.7666 18.7877 21.2858 20.0512 21.8049 21.3147C21.8049 21.42 21.9088 21.5253 21.9088 21.6306C22.1164 22.0518 22.5317 22.9994 22.3241 23.3153C22.2202 23.4206 21.5973 24.1577 18.2746 24.5788C15.2635 25 10.591 25 6.85298 25C5.91847 25 4.98399 25 4.04948 25C3.63414 25 3.21883 25 2.69966 25C2.28433 25 1.76516 25 1.34983 25C0.934497 25 0.415331 25 0 25C0 24.5788 0 24.1577 0 23.8418C0.207666 20.4724 1.03833 17.2083 2.49199 14.1548C3.94564 11.2065 5.81466 8.67951 8.20279 6.46833C10.591 4.25719 13.3944 2.57248 16.4056 1.51955C19.5206 0.361318 22.8433 -0.165149 26.1659 0.0454376C29.4886 0.256025 32.7074 1.09837 35.7184 2.57248C38.6258 4.0466 41.2218 5.94188 43.2985 8.36361C44.8558 9.62716 45.9982 11.4171 46.9325 13.3124Z" fill="url(#paint5_linear_38_80)"/>
<defs>
<linearGradient id="paint0_linear_38_80" x1="-20.4444" y1="59.5757" x2="-18.4663" y2="-12.1658" gradientUnits="userSpaceOnUse">
<stop stop-color="#C90099"/>
<stop offset="0.638" stop-color="#F67622"/>
<stop offset="1" stop-color="#D8D8D8"/>
</linearGradient>
<linearGradient id="paint1_linear_38_80" x1="-17.7341" y1="63.9647" x2="-16.2113" y2="-10.2147" gradientUnits="userSpaceOnUse">
<stop stop-color="#C90099"/>
<stop offset="0.638" stop-color="#F67622"/>
<stop offset="1" stop-color="#D8D8D8"/>
</linearGradient>
<linearGradient id="paint2_linear_38_80" x1="-10.5898" y1="69.553" x2="-8.43531" y2="-2.36403" gradientUnits="userSpaceOnUse">
<stop stop-color="#C90099"/>
<stop offset="0.638" stop-color="#F67622"/>
<stop offset="1" stop-color="#D8D8D8"/>
</linearGradient>
<linearGradient id="paint3_linear_38_80" x1="-9.3824" y1="71.4075" x2="14.3772" y2="-13.1581" gradientUnits="userSpaceOnUse">
<stop stop-color="#C90099"/>
<stop offset="0.638" stop-color="#F67622"/>
<stop offset="1" stop-color="#D8D8D8"/>
</linearGradient>
<linearGradient id="paint4_linear_38_80" x1="-13.6443" y1="66.3758" x2="-11.4427" y2="-5.58188" gradientUnits="userSpaceOnUse">
<stop stop-color="#C90099"/>
<stop offset="0.638" stop-color="#F67622"/>
<stop offset="1" stop-color="#D8D8D8"/>
</linearGradient>
<linearGradient id="paint5_linear_38_80" x1="-21.998" y1="58.8959" x2="2.35799" y2="-26.2061" gradientUnits="userSpaceOnUse">
<stop stop-color="#C90099"/>
<stop offset="0.638" stop-color="#F67622"/>
<stop offset="1" stop-color="#D8D8D8"/>
</linearGradient>
</defs>
</svg>
