<svg width="180" height="40" viewBox="0 0 180 40" fill="none" xmlns="http://www.w3.org/2000/svg">
<g clip-path="url(#clip0_38_36)">
<path d="M65.6496 8.10718C66.8537 8.10718 67.8888 8.23914 68.7506 8.49893C69.6125 8.75872 70.3342 9.08037 70.9156 9.45151C71.497 9.82676 71.9424 10.1897 72.2641 10.5443C72.5816 10.8989 72.8084 11.1546 72.9445 11.3113L70.1156 13.9711C69.9795 13.835 69.7115 13.5958 69.3156 13.2536C68.9156 12.9113 68.4043 12.602 67.7816 12.3175C67.1548 12.0329 66.4001 11.8927 65.5135 11.8927C64.33 11.8927 63.4599 12.1773 62.9032 12.7464C62.3465 13.3154 62.0702 13.8845 62.0702 14.4494C62.0702 15.2453 62.3919 15.8969 63.0434 16.4082C63.6909 16.9195 64.9486 17.369 66.8125 17.7567C67.9919 18.0082 69.1012 18.4082 70.1362 18.9649C71.1671 19.5216 72.0043 20.2927 72.6393 21.2824C73.2744 22.2721 73.596 23.5381 73.596 25.0845C73.596 26.4041 73.2455 27.5917 72.5403 28.6474C71.8352 29.703 70.862 30.5402 69.6249 31.1546C68.3836 31.769 66.9816 32.0742 65.4146 32.0742C63.9135 32.0742 62.5898 31.8474 61.4434 31.3938C60.297 30.9402 59.3156 30.3752 58.5115 29.7072C57.7032 29.035 57.064 28.4082 56.5857 27.8144L59.5878 25.0515C59.9754 25.4597 60.429 25.9051 60.9527 26.3793C61.4764 26.8577 62.0991 27.2659 62.829 27.6082C63.5548 27.9505 64.396 28.1195 65.3527 28.1195C66.6929 28.1195 67.6867 27.8061 68.3342 27.1835C68.9816 26.5608 69.3074 25.8268 69.3074 24.9855C69.3074 24.0082 68.9115 23.2453 68.1156 22.701C67.3197 22.1567 65.9012 21.6907 63.8517 21.303C62.4661 21.0309 61.3238 20.5649 60.4249 19.9051C59.5259 19.2453 58.8579 18.4577 58.4125 17.5381C57.9671 16.6185 57.7486 15.6577 57.7486 14.6556C57.7486 13.4969 58.0372 12.4206 58.6187 11.435C59.2001 10.4453 60.0744 9.64532 61.2455 9.03089C62.4166 8.41646 63.8888 8.1113 65.662 8.1113L65.6496 8.10718Z" fill="url(#paint0_linear_38_36)"/>
<path fill-rule="evenodd" clip-rule="evenodd" d="M95.8927 8.10718C97.5504 8.10718 99.0968 8.41233 100.528 9.02676C101.959 9.6412 103.216 10.4989 104.297 11.6C105.377 12.701 106.218 13.9752 106.821 15.4185C107.423 16.8618 107.724 18.4123 107.724 20.0742C107.724 21.7319 107.423 23.2866 106.821 24.7257C106.218 26.169 105.377 27.4433 104.297 28.5443C103.216 29.6453 101.963 30.5113 100.528 31.134C99.0968 31.7608 97.5504 32.0701 95.8927 32.0701C94.2308 32.0701 92.6886 31.7567 91.2535 31.134C89.8226 30.5113 88.5649 29.6453 87.4886 28.5443C86.4082 27.4433 85.5669 26.169 84.9649 24.7257C84.3628 23.2824 84.0618 21.7319 84.0618 20.0742C84.0618 18.4165 84.3628 16.8659 84.9649 15.4185C85.5669 13.9752 86.4082 12.701 87.4886 11.6C88.569 10.4989 89.8226 9.6412 91.2535 9.02676C92.6844 8.41233 94.2308 8.10718 95.8927 8.10718ZM95.8927 28.0165C97.3937 28.0165 98.6886 27.6412 99.7772 26.8907C100.87 26.1402 101.715 25.1587 102.317 23.9422C102.919 22.7257 103.221 21.402 103.221 19.9711C103.221 18.5154 102.924 17.1876 102.334 15.9835C101.74 14.7793 100.895 13.8144 99.7937 13.0845C98.6886 12.3587 97.3896 11.9917 95.8886 11.9917C94.3875 11.9917 93.0886 12.3546 91.9834 13.0845C90.8824 13.8103 90.0329 14.7793 89.4432 15.9835C88.8494 17.1876 88.5566 18.5195 88.5566 19.9711C88.5566 21.402 88.8535 22.7257 89.4432 23.9422C90.0329 25.1587 90.8783 26.1402 91.9834 26.8907C93.0844 27.6412 94.3875 28.0165 95.8886 28.0165H95.8927Z" fill="url(#paint1_linear_38_36)"/>
<path d="M122.722 8.72156V27.6453H133.938V31.4597V31.4638H118.429H118.425V8.72568V8.72156H122.722Z" fill="url(#paint2_linear_38_36)"/>
<path d="M150.099 8.72156V31.4597V31.4638H145.806H145.802V8.72568H150.099V8.72156Z" fill="url(#paint3_linear_38_36)"/>
<path d="M171.134 8.10718C172.338 8.10718 173.373 8.23914 174.235 8.49893C175.097 8.75872 175.819 9.08037 176.4 9.45151C176.981 9.82676 177.427 10.1897 177.748 10.5443C178.066 10.8989 178.293 11.1546 178.429 11.3113L175.6 13.9711C175.464 13.835 175.196 13.5958 174.8 13.2536C174.404 12.9113 173.893 12.602 173.266 12.3175C172.639 12.0329 171.885 11.8927 170.998 11.8927C169.814 11.8927 168.944 12.1773 168.392 12.7464C167.835 13.3154 167.555 13.8845 167.555 14.4494C167.555 15.2453 167.876 15.8969 168.528 16.4082C169.175 16.9195 170.433 17.369 172.297 17.7567C173.476 18.0082 174.586 18.4082 175.621 18.9649C176.656 19.5216 177.489 20.2927 178.128 21.2824C178.763 22.2721 179.08 23.5381 179.08 25.0845C179.08 26.4041 178.73 27.5917 178.025 28.6474C177.32 29.703 176.346 30.5402 175.109 31.1546C173.868 31.769 172.466 32.0742 170.899 32.0742C169.398 32.0742 168.074 31.8474 166.928 31.3938C165.781 30.9402 164.804 30.3752 163.996 29.7072C163.188 29.035 162.548 28.4082 162.07 27.8144L165.072 25.0515C165.46 25.4597 165.913 25.9051 166.437 26.3793C166.961 26.8577 167.583 27.2659 168.313 27.6082C169.039 27.9505 169.88 28.1195 170.837 28.1195C172.177 28.1195 173.171 27.8061 173.819 27.1835C174.466 26.5608 174.792 25.8268 174.792 24.9855C174.792 24.0082 174.396 23.2453 173.6 22.701C172.804 22.1567 171.386 21.6907 169.336 21.303C167.95 21.0309 166.808 20.5649 165.909 19.9051C165.01 19.2453 164.342 18.4577 163.897 17.5381C163.452 16.6185 163.233 15.6577 163.233 14.6556C163.233 13.4969 163.522 12.4206 164.103 11.435C164.685 10.4453 165.559 9.64532 166.73 9.03089C167.901 8.41646 169.373 8.1113 171.146 8.1113L171.134 8.10718Z" fill="url(#paint4_linear_38_36)"/>
<path fill-rule="evenodd" clip-rule="evenodd" d="M20.1732 0.037056C20.5279 0.037056 20.8866 0.0453034 21.2413 0.065922C23.9299 0.210252 26.5155 0.874169 28.9237 2.0453C31.2454 3.1752 33.3031 4.72572 35.0351 6.65149C36.4083 8.18139 37.5299 9.88448 38.3712 11.7401C38.5897 12.2226 38.7918 12.7133 38.9732 13.2164C39.0227 13.3525 39.0681 13.4845 39.1134 13.6206C38.3959 13.7278 37.2619 13.8061 35.8887 13.868C34.0083 13.9505 31.6784 13.9999 29.3485 14.0453C28.9279 14.0536 28.5526 14.0618 28.231 14.0659C25.9588 14.103 23.134 14.1855 21.3856 14.5072H21.3773C19.5712 14.8247 19.4062 15.2783 19.4021 15.2824L19.3938 15.3072C19.3155 15.5257 19.6083 16.169 19.798 16.5979C19.8268 16.6639 19.8557 16.7298 19.8887 16.7958C19.9011 16.8206 19.9093 16.8453 19.9217 16.8742C20.6763 16.2267 21.8145 15.9505 22.7217 15.7938C24.6145 15.4432 27.5423 15.3566 29.8846 15.3195C30.6103 15.303 31.6371 15.2989 32.7217 15.2989C33.765 15.2948 35.1011 15.2907 36.3712 15.27C37.6041 15.2494 38.7753 15.2164 39.5629 15.1505C39.7237 15.7896 39.8516 16.4329 39.9464 17.0845C39.1835 17.1587 38.1196 17.1999 36.8165 17.2247C35.6371 17.2453 34.2598 17.2536 32.7258 17.2618C31.6495 17.2659 30.6351 17.27 29.9176 17.2824C27.6454 17.3195 24.8206 17.402 23.0722 17.7237H23.0639C21.2578 18.0412 21.0928 18.4989 21.0887 18.503L21.0804 18.5278C21.0021 18.7463 21.2949 19.3896 21.4846 19.8185C21.4887 19.8309 21.4969 19.8474 21.5011 19.8597C22.2392 19.369 23.2124 19.1381 24.0083 18.9979C25.9011 18.6515 28.8289 18.5608 31.1712 18.5237C31.8969 18.5113 32.8536 18.5072 33.8722 18.503C34.8041 18.4989 35.9093 18.4948 36.9773 18.4783C38.165 18.4618 39.3072 18.4288 40.0907 18.3628C40.1444 19.0144 40.165 19.6659 40.1526 20.3257C40.1485 20.5731 40.1402 20.8206 40.1279 21.068C39.8557 26.2061 37.6454 30.9855 33.9093 34.5195C32.0907 36.2391 30 37.5834 27.6866 38.5237C25.3031 39.4927 22.7835 39.9834 20.2021 39.9834C19.8474 39.9834 19.4887 39.9752 19.134 39.9546C16.4413 39.8103 13.8598 39.1463 11.4516 37.9752C9.12992 36.8453 7.07219 35.2948 5.34023 33.369C4.00002 31.8804 2.90312 30.2226 2.07013 28.4247C1.8227 27.8969 1.60002 27.3566 1.40209 26.8041C1.3691 26.7092 1.33198 26.6103 1.29899 26.5154C2.18559 26.4371 3.33611 26.3958 4.57322 26.3793C6.02889 26.3587 7.60415 26.3628 9.0227 26.3711C9.45569 26.3752 9.86806 26.3752 10.2639 26.3752C12.9361 26.3917 16.2804 26.3752 18.433 26.1113H18.4371C20.8454 25.8309 21.2949 25.3278 21.3608 25.2329L21.3732 25.2123C21.5134 25.0144 21.2041 24.3175 21.0681 24.0206C21.0392 23.9587 21.0103 23.8927 20.9815 23.8309C20.9815 23.8267 20.9773 23.8226 20.9773 23.8185C20.2186 24.3257 19.0392 24.6639 17.3732 24.8577C15.1217 25.134 11.8557 25.1505 8.96085 25.134C8.56085 25.134 8.14023 25.1298 7.71136 25.1298C6.56497 25.1257 5.31136 25.1175 4.11961 25.1298C2.92373 25.1422 1.79384 25.1711 0.90724 25.2329C0.734044 24.5938 0.593838 23.9505 0.486621 23.2989C1.36085 23.2247 2.44951 23.1876 3.62477 23.1711C4.94435 23.1505 6.37116 23.1587 7.71961 23.1628C8.1526 23.167 8.5691 23.167 8.9691 23.167C11.6454 23.1834 14.9856 23.167 17.1382 22.903H17.1423C19.5505 22.6226 20 22.1195 20.066 22.0206L20.0784 21.9999C20.2186 21.802 19.9093 21.1051 19.7732 20.8082C19.7444 20.7463 19.7155 20.6804 19.6907 20.6185C19.6536 20.5401 19.6165 20.4577 19.5835 20.3752C18.8495 21.0061 17.5877 21.4103 15.6907 21.6329C13.4392 21.9092 10.1732 21.9298 7.27425 21.9092C6.59796 21.9051 5.90105 21.901 5.22889 21.8927C4.61446 21.8886 4.01239 21.8804 3.42683 21.8804C2.27219 21.8762 1.20002 21.8886 0.305178 21.9463C0.243322 21.2989 0.210333 20.6432 0.214456 19.9834C0.214456 19.6412 0.226828 19.2948 0.243322 18.9484C0.515487 13.8061 2.72167 9.03087 6.46188 5.49273C8.28044 3.77314 10.3712 2.42881 12.6804 1.4886C15.0639 0.51953 17.5835 0.0288086 20.1691 0.0288086L20.1732 0.037056ZM8.65982 19.9546C11.0351 19.9546 13.6578 19.9092 15.4557 19.6865H15.4598C17.8681 19.4061 18.3176 18.903 18.3835 18.8041L18.3959 18.7834C18.5361 18.5855 18.2268 17.8886 18.0949 17.5917C18.066 17.5298 18.0371 17.4639 18.0083 17.402C17.633 16.569 17.2124 15.6288 17.5382 14.6721C17.9959 13.2577 19.7526 12.7958 21.0351 12.569C22.9279 12.2185 25.8557 12.1319 28.198 12.0948C28.5114 12.0865 28.8907 12.0824 29.3114 12.0742C30.6598 12.0494 32.9485 12.0082 34.9897 11.9298C32.2804 6.96902 27.1382 3.4886 21.0763 3.16695C20.7753 3.15046 20.4743 3.14221 20.1732 3.14221C11.2701 3.14221 3.82683 10.1154 3.3526 19.1092C3.34023 19.3773 3.33198 19.6453 3.32786 19.9092C3.95054 19.9092 4.59796 19.9175 5.24951 19.9257C5.91755 19.934 6.60621 19.9422 7.2825 19.9422C7.72374 19.9463 8.18559 19.9463 8.65569 19.9463L8.65982 19.9546ZM11.6949 28.3381C11.2083 28.3381 10.7258 28.3381 10.2557 28.334C9.86394 28.334 9.44745 28.3298 9.01858 28.3298C7.94229 28.3257 6.71755 28.3216 5.5258 28.3298C8.27219 33.1587 13.3402 36.5278 19.299 36.8453C19.6041 36.8618 19.9052 36.87 20.2062 36.87C29.1052 36.87 36.5485 29.8968 37.0227 20.903C37.031 20.7463 37.0351 20.5938 37.0392 20.4412C36.0949 20.4577 35.0351 20.4618 33.8804 20.4659C32.8743 20.47 31.9217 20.4742 31.2124 20.4865C28.9444 20.5237 26.1155 20.6061 24.367 20.9278H24.3588C22.5526 21.2453 22.3877 21.703 22.3835 21.7072L22.3753 21.7319C22.3011 21.9505 22.5897 22.5938 22.7794 23.0226C22.8083 23.0886 22.8371 23.1546 22.8701 23.2206C23.2041 23.9711 23.7608 25.2288 22.9897 26.334C22.3753 27.2412 21.0021 27.7896 18.6722 28.0577C16.7877 28.2886 14.1938 28.3381 11.699 28.3381H11.6949Z" fill="url(#paint5_linear_38_36)"/>
<path d="M65.6496 8.10718C66.8537 8.10718 67.8888 8.23914 68.7506 8.49893C69.6125 8.75872 70.3342 9.08037 70.9156 9.45151C71.497 9.82676 71.9424 10.1897 72.2641 10.5443C72.5816 10.8989 72.8084 11.1546 72.9445 11.3113L70.1156 13.9711C69.9795 13.835 69.7115 13.5958 69.3156 13.2536C68.9156 12.9113 68.4043 12.602 67.7816 12.3175C67.1548 12.0329 66.4001 11.8927 65.5135 11.8927C64.33 11.8927 63.4599 12.1773 62.9032 12.7464C62.3465 13.3154 62.0702 13.8845 62.0702 14.4494C62.0702 15.2453 62.3919 15.8969 63.0434 16.4082C63.6909 16.9195 64.9486 17.369 66.8125 17.7567C67.9919 18.0082 69.1012 18.4082 70.1362 18.9649C71.1671 19.5216 72.0043 20.2927 72.6393 21.2824C73.2744 22.2721 73.596 23.5381 73.596 25.0845C73.596 26.4041 73.2455 27.5917 72.5403 28.6474C71.8352 29.703 70.862 30.5402 69.6249 31.1546C68.3836 31.769 66.9816 32.0742 65.4146 32.0742C63.9135 32.0742 62.5898 31.8474 61.4434 31.3938C60.297 30.9402 59.3156 30.3752 58.5115 29.7072C57.7032 29.035 57.064 28.4082 56.5857 27.8144L59.5878 25.0515C59.9754 25.4597 60.429 25.9051 60.9527 26.3793C61.4764 26.8577 62.0991 27.2659 62.829 27.6082C63.5548 27.9505 64.396 28.1195 65.3527 28.1195C66.6929 28.1195 67.6867 27.8061 68.3342 27.1835C68.9816 26.5608 69.3074 25.8268 69.3074 24.9855C69.3074 24.0082 68.9115 23.2453 68.1156 22.701C67.3197 22.1567 65.9012 21.6907 63.8517 21.303C62.4661 21.0309 61.3238 20.5649 60.4249 19.9051C59.5259 19.2453 58.8579 18.4577 58.4125 17.5381C57.9671 16.6185 57.7486 15.6577 57.7486 14.6556C57.7486 13.4969 58.0372 12.4206 58.6187 11.435C59.2001 10.4453 60.0744 9.64532 61.2455 9.03089C62.4166 8.41646 63.8888 8.1113 65.662 8.1113L65.6496 8.10718Z" fill="url(#paint6_linear_38_36)"/>
<path fill-rule="evenodd" clip-rule="evenodd" d="M95.8927 8.10718C97.5504 8.10718 99.0968 8.41233 100.528 9.02676C101.959 9.6412 103.216 10.4989 104.297 11.6C105.377 12.701 106.218 13.9752 106.821 15.4185C107.423 16.8618 107.724 18.4123 107.724 20.0742C107.724 21.7319 107.423 23.2866 106.821 24.7257C106.218 26.169 105.377 27.4433 104.297 28.5443C103.216 29.6453 101.963 30.5113 100.528 31.134C99.0968 31.7608 97.5504 32.0701 95.8927 32.0701C94.2308 32.0701 92.6886 31.7567 91.2535 31.134C89.8226 30.5113 88.5649 29.6453 87.4886 28.5443C86.4082 27.4433 85.5669 26.169 84.9649 24.7257C84.3628 23.2824 84.0618 21.7319 84.0618 20.0742C84.0618 18.4165 84.3628 16.8659 84.9649 15.4185C85.5669 13.9752 86.4082 12.701 87.4886 11.6C88.569 10.4989 89.8226 9.6412 91.2535 9.02676C92.6844 8.41233 94.2308 8.10718 95.8927 8.10718ZM95.8927 28.0165C97.3937 28.0165 98.6886 27.6412 99.7772 26.8907C100.87 26.1402 101.715 25.1587 102.317 23.9422C102.919 22.7257 103.221 21.402 103.221 19.9711C103.221 18.5154 102.924 17.1876 102.334 15.9835C101.74 14.7793 100.895 13.8144 99.7937 13.0845C98.6886 12.3587 97.3896 11.9917 95.8886 11.9917C94.3875 11.9917 93.0886 12.3546 91.9834 13.0845C90.8824 13.8103 90.0329 14.7793 89.4432 15.9835C88.8494 17.1876 88.5566 18.5195 88.5566 19.9711C88.5566 21.402 88.8535 22.7257 89.4432 23.9422C90.0329 25.1587 90.8783 26.1402 91.9834 26.8907C93.0844 27.6412 94.3875 28.0165 95.8886 28.0165H95.8927Z" fill="url(#paint7_linear_38_36)"/>
<path d="M122.722 8.72156V27.6453H133.938V31.4597V31.4638H118.429H118.425V8.72568V8.72156H122.722Z" fill="url(#paint8_linear_38_36)"/>
<path d="M150.099 8.72156V31.4597V31.4638H145.806H145.802V8.72568H150.099V8.72156Z" fill="url(#paint9_linear_38_36)"/>
<path d="M171.134 8.10718C172.338 8.10718 173.373 8.23914 174.235 8.49893C175.097 8.75872 175.819 9.08037 176.4 9.45151C176.981 9.82676 177.427 10.1897 177.748 10.5443C178.066 10.8989 178.293 11.1546 178.429 11.3113L175.6 13.9711C175.464 13.835 175.196 13.5958 174.8 13.2536C174.404 12.9113 173.893 12.602 173.266 12.3175C172.639 12.0329 171.885 11.8927 170.998 11.8927C169.814 11.8927 168.944 12.1773 168.392 12.7464C167.835 13.3154 167.555 13.8845 167.555 14.4494C167.555 15.2453 167.876 15.8969 168.528 16.4082C169.175 16.9195 170.433 17.369 172.297 17.7567C173.476 18.0082 174.586 18.4082 175.621 18.9649C176.656 19.5216 177.489 20.2927 178.128 21.2824C178.763 22.2721 179.08 23.5381 179.08 25.0845C179.08 26.4041 178.73 27.5917 178.025 28.6474C177.32 29.703 176.346 30.5402 175.109 31.1546C173.868 31.769 172.466 32.0742 170.899 32.0742C169.398 32.0742 168.074 31.8474 166.928 31.3938C165.781 30.9402 164.804 30.3752 163.996 29.7072C163.188 29.035 162.548 28.4082 162.07 27.8144L165.072 25.0515C165.46 25.4597 165.913 25.9051 166.437 26.3793C166.961 26.8577 167.583 27.2659 168.313 27.6082C169.039 27.9505 169.88 28.1195 170.837 28.1195C172.177 28.1195 173.171 27.8061 173.819 27.1835C174.466 26.5608 174.792 25.8268 174.792 24.9855C174.792 24.0082 174.396 23.2453 173.6 22.701C172.804 22.1567 171.386 21.6907 169.336 21.303C167.95 21.0309 166.808 20.5649 165.909 19.9051C165.01 19.2453 164.342 18.4577 163.897 17.5381C163.452 16.6185 163.233 15.6577 163.233 14.6556C163.233 13.4969 163.522 12.4206 164.103 11.435C164.685 10.4453 165.559 9.64532 166.73 9.03089C167.901 8.41646 169.373 8.1113 171.146 8.1113L171.134 8.10718Z" fill="url(#paint10_linear_38_36)"/>
<path fill-rule="evenodd" clip-rule="evenodd" d="M20.1732 0.037056C20.5279 0.037056 20.8866 0.0453034 21.2413 0.065922C23.9299 0.210252 26.5155 0.874169 28.9237 2.0453C31.2454 3.1752 33.3031 4.72572 35.0351 6.65149C36.4083 8.18139 37.5299 9.88448 38.3712 11.7401C38.5897 12.2226 38.7918 12.7133 38.9732 13.2164C39.0227 13.3525 39.0681 13.4845 39.1134 13.6206C38.3959 13.7278 37.2619 13.8061 35.8887 13.868C34.0083 13.9505 31.6784 13.9999 29.3485 14.0453C28.9279 14.0536 28.5526 14.0618 28.231 14.0659C25.9588 14.103 23.134 14.1855 21.3856 14.5072H21.3773C19.5712 14.8247 19.4062 15.2783 19.4021 15.2824L19.3938 15.3072C19.3155 15.5257 19.6083 16.169 19.798 16.5979C19.8268 16.6639 19.8557 16.7298 19.8887 16.7958C19.9011 16.8206 19.9093 16.8453 19.9217 16.8742C20.6763 16.2267 21.8145 15.9505 22.7217 15.7938C24.6145 15.4432 27.5423 15.3566 29.8846 15.3195C30.6103 15.303 31.6371 15.2989 32.7217 15.2989C33.765 15.2948 35.1011 15.2907 36.3712 15.27C37.6041 15.2494 38.7753 15.2164 39.5629 15.1505C39.7237 15.7896 39.8516 16.4329 39.9464 17.0845C39.1835 17.1587 38.1196 17.1999 36.8165 17.2247C35.6371 17.2453 34.2598 17.2536 32.7258 17.2618C31.6495 17.2659 30.6351 17.27 29.9176 17.2824C27.6454 17.3195 24.8206 17.402 23.0722 17.7237H23.0639C21.2578 18.0412 21.0928 18.4989 21.0887 18.503L21.0804 18.5278C21.0021 18.7463 21.2949 19.3896 21.4846 19.8185C21.4887 19.8309 21.4969 19.8474 21.5011 19.8597C22.2392 19.369 23.2124 19.1381 24.0083 18.9979C25.9011 18.6515 28.8289 18.5608 31.1712 18.5237C31.8969 18.5113 32.8536 18.5072 33.8722 18.503C34.8041 18.4989 35.9093 18.4948 36.9773 18.4783C38.165 18.4618 39.3072 18.4288 40.0907 18.3628C40.1444 19.0144 40.165 19.6659 40.1526 20.3257C40.1485 20.5731 40.1402 20.8206 40.1279 21.068C39.8557 26.2061 37.6454 30.9855 33.9093 34.5195C32.0907 36.2391 30 37.5834 27.6866 38.5237C25.3031 39.4927 22.7835 39.9834 20.2021 39.9834C19.8474 39.9834 19.4887 39.9752 19.134 39.9546C16.4413 39.8103 13.8598 39.1463 11.4516 37.9752C9.12992 36.8453 7.07219 35.2948 5.34023 33.369C4.00002 31.8804 2.90312 30.2226 2.07013 28.4247C1.8227 27.8969 1.60002 27.3566 1.40209 26.8041C1.3691 26.7092 1.33198 26.6103 1.29899 26.5154C2.18559 26.4371 3.33611 26.3958 4.57322 26.3793C6.02889 26.3587 7.60415 26.3628 9.0227 26.3711C9.45569 26.3752 9.86806 26.3752 10.2639 26.3752C12.9361 26.3917 16.2804 26.3752 18.433 26.1113H18.4371C20.8454 25.8309 21.2949 25.3278 21.3608 25.2329L21.3732 25.2123C21.5134 25.0144 21.2041 24.3175 21.0681 24.0206C21.0392 23.9587 21.0103 23.8927 20.9815 23.8309C20.9815 23.8267 20.9773 23.8226 20.9773 23.8185C20.2186 24.3257 19.0392 24.6639 17.3732 24.8577C15.1217 25.134 11.8557 25.1505 8.96085 25.134C8.56085 25.134 8.14023 25.1298 7.71136 25.1298C6.56497 25.1257 5.31136 25.1175 4.11961 25.1298C2.92373 25.1422 1.79384 25.1711 0.90724 25.2329C0.734044 24.5938 0.593838 23.9505 0.486621 23.2989C1.36085 23.2247 2.44951 23.1876 3.62477 23.1711C4.94435 23.1505 6.37116 23.1587 7.71961 23.1628C8.1526 23.167 8.5691 23.167 8.9691 23.167C11.6454 23.1834 14.9856 23.167 17.1382 22.903H17.1423C19.5505 22.6226 20 22.1195 20.066 22.0206L20.0784 21.9999C20.2186 21.802 19.9093 21.1051 19.7732 20.8082C19.7444 20.7463 19.7155 20.6804 19.6907 20.6185C19.6536 20.5401 19.6165 20.4577 19.5835 20.3752C18.8495 21.0061 17.5877 21.4103 15.6907 21.6329C13.4392 21.9092 10.1732 21.9298 7.27425 21.9092C6.59796 21.9051 5.90105 21.901 5.22889 21.8927C4.61446 21.8886 4.01239 21.8804 3.42683 21.8804C2.27219 21.8762 1.20002 21.8886 0.305178 21.9463C0.243322 21.2989 0.210333 20.6432 0.214456 19.9834C0.214456 19.6412 0.226828 19.2948 0.243322 18.9484C0.515487 13.8061 2.72167 9.03087 6.46188 5.49273C8.28044 3.77314 10.3712 2.42881 12.6804 1.4886C15.0639 0.51953 17.5835 0.0288086 20.1691 0.0288086L20.1732 0.037056ZM8.65982 19.9546C11.0351 19.9546 13.6578 19.9092 15.4557 19.6865H15.4598C17.8681 19.4061 18.3176 18.903 18.3835 18.8041L18.3959 18.7834C18.5361 18.5855 18.2268 17.8886 18.0949 17.5917C18.066 17.5298 18.0371 17.4639 18.0083 17.402C17.633 16.569 17.2124 15.6288 17.5382 14.6721C17.9959 13.2577 19.7526 12.7958 21.0351 12.569C22.9279 12.2185 25.8557 12.1319 28.198 12.0948C28.5114 12.0865 28.8907 12.0824 29.3114 12.0742C30.6598 12.0494 32.9485 12.0082 34.9897 11.9298C32.2804 6.96902 27.1382 3.4886 21.0763 3.16695C20.7753 3.15046 20.4743 3.14221 20.1732 3.14221C11.2701 3.14221 3.82683 10.1154 3.3526 19.1092C3.34023 19.3773 3.33198 19.6453 3.32786 19.9092C3.95054 19.9092 4.59796 19.9175 5.24951 19.9257C5.91755 19.934 6.60621 19.9422 7.2825 19.9422C7.72374 19.9463 8.18559 19.9463 8.65569 19.9463L8.65982 19.9546ZM11.6949 28.3381C11.2083 28.3381 10.7258 28.3381 10.2557 28.334C9.86394 28.334 9.44745 28.3298 9.01858 28.3298C7.94229 28.3257 6.71755 28.3216 5.5258 28.3298C8.27219 33.1587 13.3402 36.5278 19.299 36.8453C19.6041 36.8618 19.9052 36.87 20.2062 36.87C29.1052 36.87 36.5485 29.8968 37.0227 20.903C37.031 20.7463 37.0351 20.5938 37.0392 20.4412C36.0949 20.4577 35.0351 20.4618 33.8804 20.4659C32.8743 20.47 31.9217 20.4742 31.2124 20.4865C28.9444 20.5237 26.1155 20.6061 24.367 20.9278H24.3588C22.5526 21.2453 22.3877 21.703 22.3835 21.7072L22.3753 21.7319C22.3011 21.9505 22.5897 22.5938 22.7794 23.0226C22.8083 23.0886 22.8371 23.1546 22.8701 23.2206C23.2041 23.9711 23.7608 25.2288 22.9897 26.334C22.3753 27.2412 21.0021 27.7896 18.6722 28.0577C16.7877 28.2886 14.1938 28.3381 11.699 28.3381H11.6949Z" fill="url(#paint11_linear_38_36)"/>
</g>
<defs>
<linearGradient id="paint0_linear_38_36" x1="218.186" y1="44.2474" x2="55.3816" y2="18.4742" gradientUnits="userSpaceOnUse">
<stop stop-color="#C70098"/>
<stop offset="1" stop-color="#FA6401"/>
</linearGradient>
<linearGradient id="paint1_linear_38_36" x1="218.928" y1="39.5463" x2="56.1236" y2="13.8144" gradientUnits="userSpaceOnUse">
<stop stop-color="#C70098"/>
<stop offset="1" stop-color="#FA6401"/>
</linearGradient>
<linearGradient id="paint2_linear_38_36" x1="219.505" y1="35.7525" x2="56.7011" y2="9.97933" gradientUnits="userSpaceOnUse">
<stop stop-color="#C70098"/>
<stop offset="1" stop-color="#FA6401"/>
</linearGradient>
<linearGradient id="paint3_linear_38_36" x1="220.206" y1="31.5051" x2="57.3611" y2="5.77331" gradientUnits="userSpaceOnUse">
<stop stop-color="#C70098"/>
<stop offset="1" stop-color="#FA6401"/>
</linearGradient>
<linearGradient id="paint4_linear_38_36" x1="220.742" y1="27.9587" x2="57.9382" y2="2.18554" gradientUnits="userSpaceOnUse">
<stop stop-color="#C70098"/>
<stop offset="1" stop-color="#FA6401"/>
</linearGradient>
<linearGradient id="paint5_linear_38_36" x1="0.164972" y1="4.41231" x2="33.2784" y2="30.1855" gradientUnits="userSpaceOnUse">
<stop stop-color="#C70098"/>
<stop offset="1" stop-color="#FA6401"/>
</linearGradient>
<linearGradient id="paint6_linear_38_36" x1="218.186" y1="44.2474" x2="55.3816" y2="18.4742" gradientUnits="userSpaceOnUse">
<stop stop-color="#C70098"/>
<stop offset="1" stop-color="#FA6401"/>
</linearGradient>
<linearGradient id="paint7_linear_38_36" x1="218.928" y1="39.5463" x2="56.1236" y2="13.8144" gradientUnits="userSpaceOnUse">
<stop stop-color="#C70098"/>
<stop offset="1" stop-color="#FA6401"/>
</linearGradient>
<linearGradient id="paint8_linear_38_36" x1="219.505" y1="35.7525" x2="56.7011" y2="9.97933" gradientUnits="userSpaceOnUse">
<stop stop-color="#C70098"/>
<stop offset="1" stop-color="#FA6401"/>
</linearGradient>
<linearGradient id="paint9_linear_38_36" x1="220.206" y1="31.5051" x2="57.3611" y2="5.77331" gradientUnits="userSpaceOnUse">
<stop stop-color="#C70098"/>
<stop offset="1" stop-color="#FA6401"/>
</linearGradient>
<linearGradient id="paint10_linear_38_36" x1="220.742" y1="27.9587" x2="57.9382" y2="2.18554" gradientUnits="userSpaceOnUse">
<stop stop-color="#C70098"/>
<stop offset="1" stop-color="#FA6401"/>
</linearGradient>
<linearGradient id="paint11_linear_38_36" x1="0.164972" y1="4.41231" x2="33.2784" y2="30.1855" gradientUnits="userSpaceOnUse">
<stop stop-color="#C70098"/>
<stop offset="1" stop-color="#FA6401"/>
</linearGradient>
<clipPath id="clip0_38_36">
<rect width="179.381" height="40" fill="white"/>
</clipPath>
</defs>
</svg>
