<?xml version="1.0" encoding="utf-8"?>
<svg width="25px" height="25px" viewBox="0 0 25 25" version="1.1" xmlns:xlink="http://www.w3.org/1999/xlink" xmlns="http://www.w3.org/2000/svg">
  <defs>
    <path d="M11.25 2.7375C10.8629 2.92807 10.4428 3.04264 10.0125 3.075C10.4698 2.81282 10.8063 2.38211 10.95 1.875C10.5336 2.12652 10.0769 2.30414 9.6 2.4C8.99739 1.76054 8.06616 1.55241 7.24865 1.87446C6.43114 2.19651 5.89207 2.98385 5.8875 3.8625C5.8875 4.05 5.925 4.2 5.925 4.35C4.19307 4.27886 2.57782 3.45755 1.5 2.1C1.3048 2.44291 1.20146 2.83042 1.2 3.225C1.19292 3.95297 1.5614 4.63323 2.175 5.025C1.83419 5.01328 1.50062 4.92348 1.2 4.7625L1.2 4.8C1.19872 5.82248 1.92174 6.70268 2.925 6.9C2.74041 6.94336 2.552 6.96848 2.3625 6.975C2.22394 6.98116 2.08518 6.96855 1.95 6.9375C2.23995 7.81537 3.05074 8.41595 3.975 8.4375C3.21405 9.03302 2.27869 9.36237 1.3125 9.375C1.13666 9.3812 0.96067 9.36862 0.7875 9.3375C1.77336 9.96761 2.9175 10.3056 4.0875 10.3125C8.0625 10.3125 10.2 7.0125 10.2 4.2L10.2 3.9375C10.599 3.58322 10.9518 3.18004 11.25 2.7375Z" id="path_1" />
    <clipPath id="mask_1">
      <use xlink:href="#path_1" />
    </clipPath>
  </defs>
  <g id="Group-2" transform="translate(0.5 0.5)">
    <path d="M12 24C18.6274 24 24 18.6274 24 12C24 5.37258 18.6274 0 12 0C5.37258 0 0 5.37258 0 12C0 18.6274 5.37258 24 12 24Z" id="Oval-Copy-9" fill="#F4F4F4" fill-rule="evenodd" stroke="none" />
    <g id="iconsocialtwitter20-copy-4" transform="translate(6 6)">
      <path d="M11.25 2.7375C10.8629 2.92807 10.4428 3.04264 10.0125 3.075C10.4698 2.81282 10.8063 2.38211 10.95 1.875C10.5336 2.12652 10.0769 2.30414 9.6 2.4C8.99739 1.76054 8.06616 1.55241 7.24865 1.87446C6.43114 2.19651 5.89207 2.98385 5.8875 3.8625C5.8875 4.05 5.925 4.2 5.925 4.35C4.19307 4.27886 2.57782 3.45755 1.5 2.1C1.3048 2.44291 1.20146 2.83042 1.2 3.225C1.19292 3.95297 1.5614 4.63323 2.175 5.025C1.83419 5.01328 1.50062 4.92348 1.2 4.7625L1.2 4.8C1.19872 5.82248 1.92174 6.70268 2.925 6.9C2.74041 6.94336 2.552 6.96848 2.3625 6.975C2.22394 6.98116 2.08518 6.96855 1.95 6.9375C2.23995 7.81537 3.05074 8.41595 3.975 8.4375C3.21405 9.03302 2.27869 9.36237 1.3125 9.375C1.13666 9.3812 0.96067 9.36862 0.7875 9.3375C1.77336 9.96761 2.9175 10.3056 4.0875 10.3125C8.0625 10.3125 10.2 7.0125 10.2 4.2L10.2 3.9375C10.599 3.58322 10.9518 3.18004 11.25 2.7375Z" id="icon-color" fill="#252525" fill-rule="evenodd" stroke="none" />
    </g>
  </g>
</svg>