<svg width="100" height="100" viewBox="0 0 100 100" fill="none" xmlns="http://www.w3.org/2000/svg">
<style>
@-webkit-keyframes bounce2 {0%, 20%, 50%, 80%, 100% {transform: translateY(0);}40% {transform: translateY(-10px);}60% {transform: translateY(-5px);}}
@-o-keyframes bounce2 {0%, 20%, 50%, 80%, 100% {transform: translateY(0);}40% {transform: translateY(-10px);}60% {transform: translateY(-5px);}}
@keyframes bounce2 {0%, 20%, 50%, 80%, 100% {transform: translateY(0);}40% {transform: translateY(-10px);}60% {transform: translateY(-5px);}}

#_heartbeat {
    animation: bounce2 2s ease infinite;
	-webkit-animation: bounce2 2s ease infinite;
	-moz-animation: bounce2 2s ease infinite;
	-o-animation: bounce2 2s ease infinite;
}
</style>
<rect width="100" height="100" rx="15" fill="#EBDFFE"/>
<g id="_heartbeat">
<path d="M44.5632 30.7274C45.2123 30.7274 45.8614 30.7274 46.511 30.7274C46.5969 30.756 46.6806 30.7965 46.7686 30.8122C48.4815 31.1195 49.7537 32.0855 50.7754 33.4501C49.71 34.0382 48.6651 34.6008 47.6332 35.1878C46.1309 36.0421 44.6129 36.8732 43.1474 37.7874C41.5144 38.8058 40.8065 40.3194 41.0721 42.2418C41.4453 44.9408 44.0017 47.3146 47.1369 45.9014C48.5749 45.2534 49.9789 44.5293 51.3921 43.8267C52.5509 43.2506 53.6855 42.622 54.8627 42.0869C55.2855 41.8946 55.8055 41.8206 56.2732 41.8449C57.2138 41.8941 57.9488 42.4497 58.573 43.0934C59.5504 44.1011 60.5165 45.1271 61.3999 46.2157C62.9837 48.1667 64.4903 50.1809 66.0552 52.1476C66.7486 53.0192 67.0764 53.9744 66.9571 55.0809C66.7999 56.5324 65.5552 57.6664 64.0999 57.6642C63.7079 57.6637 63.3153 57.6011 62.9222 57.567C63.0928 58.8171 62.8714 59.9409 61.7892 60.7066C60.7465 61.4442 59.6017 61.3962 58.425 60.9204C58.4974 62.1997 58.2307 63.3116 57.0972 63.9844C55.9961 64.6378 54.8589 64.553 53.7238 63.8969C53.7238 64.0843 53.7292 64.2182 53.7227 64.3521C53.6358 66.1892 52.2204 67.4247 50.3909 67.2476C49.6176 67.1726 48.9486 66.8264 48.3211 66.3858C48.0646 66.2054 47.9399 66.017 47.962 65.6568C48.0765 63.7841 47.1855 62.4206 45.5644 61.9373C45.2199 61.8347 44.8548 61.7996 44.4736 61.7283C44.4569 60.7525 44.2398 59.835 43.5443 59.0904C42.8412 58.3376 41.9426 58.0309 40.9371 57.9758C40.8686 55.6409 39.6627 54.3854 37.3764 54.1758C37.3661 53.9895 37.358 53.8416 37.3499 53.6936C37.263 52.0688 36.1598 50.8041 34.5646 50.5136C33.1746 50.2603 31.9483 50.681 30.8256 51.4677C29.8277 52.167 29.1203 53.1039 28.6764 54.2595C28.5382 54.2093 28.4264 54.1688 28.3141 54.1283C27.0219 53.6591 25.7302 53.1898 24.438 52.7205C24.438 46.6887 24.438 40.6569 24.438 34.6246C24.4698 34.1202 24.5012 33.6153 24.5363 33.0548C24.9207 33.1823 25.289 33.2989 25.653 33.4263C27.4463 34.0554 29.2251 34.731 31.0373 35.298C31.7663 35.5264 32.5709 35.6166 33.3372 35.5971C34.395 35.5701 35.2677 34.9545 36.1338 34.4059C37.9158 33.2773 39.7421 32.2292 41.7309 31.512C42.65 31.1794 43.6177 30.9845 44.5632 30.7274Z" fill="#9D60FB"/>
<path d="M75.5613 52.6374C74.6989 52.8971 73.8414 53.173 72.9736 53.4139C71.3742 53.8583 69.8497 53.692 68.5257 52.6465C67.983 52.2178 67.5261 51.6567 67.1071 51.0984C65.2403 48.6127 63.4324 46.0791 61.2929 43.8148C60.3668 42.8342 59.3737 41.913 58.372 41.0085C57.1862 39.9382 55.8173 39.7821 54.3739 40.4128C53.6341 40.7363 52.9278 41.1375 52.2112 41.5123C50.4292 42.4443 48.6763 43.4368 46.8614 44.3003C45.1226 45.1281 43.3514 44.4045 42.6332 42.6997C42.144 41.5382 42.462 40.1909 43.4464 39.4068C43.846 39.0888 44.2802 38.8053 44.7268 38.5563C47.8761 36.8008 51.0351 35.0625 54.1849 33.3081C54.8572 32.9338 55.5111 32.5251 56.1634 32.1168C58.3278 30.763 60.5202 30.9002 62.7104 32.0196C63.9108 32.6336 65.0513 33.3707 66.2733 33.935C67.0704 34.3033 67.9506 34.5382 68.8189 34.6932C69.9669 34.8978 71.1101 34.6489 72.2155 34.3281C73.3408 34.002 74.4462 33.6067 75.5608 33.2416C75.5613 39.7081 75.5613 46.1725 75.5613 52.6374Z" fill="#9D60FB"/>
<path d="M42.129 69.2726C41.7834 69.1009 41.3844 68.9907 41.102 68.7461C40.2515 68.0095 40.2353 67.0537 40.5684 66.0715C40.7132 65.6443 40.9567 65.2501 41.1646 64.8208C41.0069 64.9024 40.8552 65.0147 40.6851 65.0627C40.1451 65.2145 39.6018 65.4397 39.0537 65.4596C37.5142 65.5158 36.5427 64.29 36.9078 62.764C37.0514 62.164 37.356 61.6024 37.5439 61.1337C37.1297 61.2811 36.6167 61.5387 36.0746 61.6435C34.1565 62.0128 32.8929 60.638 33.4145 58.7555C33.5549 58.2485 33.8292 57.7787 33.995 57.3996C33.4664 57.5535 32.854 57.8321 32.2195 57.898C30.5012 58.0762 29.432 56.784 29.8311 55.0976C30.2453 53.3485 31.8636 51.9418 33.6516 51.7766C35.3061 51.6243 36.3948 53.024 35.9158 54.7385C35.7749 55.2439 35.5 55.7116 35.3067 56.1511C35.7171 55.994 36.1642 55.7683 36.6378 55.6532C37.5369 55.4345 38.4025 55.5177 39.0554 56.2683C39.7012 57.0108 39.6882 57.8791 39.3858 58.7501C39.2368 59.1789 38.9938 59.5747 38.7805 60.011C38.8901 59.9533 39.0089 59.8939 39.1245 59.8301C39.739 59.4894 40.3902 59.288 41.0993 59.3528C42.5432 59.4856 43.3851 60.5964 43.0551 62.0198C42.9126 62.6338 42.6053 63.2095 42.4163 63.6922C42.8111 63.5491 43.31 63.3007 43.8376 63.1895C45.7784 62.7807 47.0981 64.2058 46.529 66.1076C46.0457 67.7222 44.9295 68.7256 43.317 69.1867C43.2436 69.2078 43.1739 69.2434 43.1027 69.2726C42.7781 69.2726 42.4536 69.2726 42.129 69.2726Z" fill="#9D60FB"/>
</g>
</svg>
