<svg width="78" height="78" viewBox="0 0 78 78" fill="none" xmlns="http://www.w3.org/2000/svg">
<path d="M0.966752 45.9263L4.97595 36.9173C5.6498 35.4051 5.99794 33.7681 5.99775 32.1125C5.99737 25.7101 8.52243 19.5659 13.0247 15.014C17.527 10.462 23.6431 7.86975 30.0451 7.79991L29.4679 8.37711C28.396 9.45603 27.6698 10.8299 27.3822 12.3234C27.0947 13.8169 27.2587 15.3623 27.8533 16.7621C26.4447 17.3321 25.2378 18.3086 24.3862 19.5672C23.5347 20.8258 23.0772 22.3094 23.0719 23.8289V26.2469C23.0778 27.7674 23.5365 29.2516 24.3895 30.5103C25.2425 31.7689 26.4511 32.7449 27.8611 33.3137C27.2682 34.7126 27.1051 36.2563 27.3926 37.7482C27.6802 39.2401 28.4053 40.6126 29.4757 41.6909L31.1995 43.3991C31.9047 44.1082 32.7434 44.6704 33.6672 45.0533C34.591 45.4362 35.5815 45.6322 36.5815 45.6299C37.6112 45.6281 38.63 45.4185 39.5767 45.0137C40.1468 46.4223 41.1233 47.6293 42.3818 48.4808C43.6404 49.3324 45.124 49.7899 46.6435 49.7951H48.1333L51.6121 61.9787C51.701 62.2875 51.7276 62.6109 51.6904 62.9301C51.6532 63.2493 51.5529 63.5579 51.3954 63.8381C51.238 64.1182 51.0264 64.3642 50.773 64.5619C50.5197 64.7595 50.2296 64.9049 49.9195 64.9895L24.7333 72.1733C24.4266 72.2614 24.1054 72.2881 23.7883 72.2518C23.4712 72.2155 23.1644 72.117 22.8854 71.962C22.6064 71.8069 22.3608 71.5983 22.1626 71.3481C21.9644 71.098 21.8175 70.8112 21.7304 70.5041L19.7726 63.6557H10.3736C9.21302 63.6557 8.10002 63.1947 7.27939 62.3741C6.45877 61.5534 5.99775 60.4404 5.99775 59.2799V50.0369L2.22255 48.7889C1.943 48.6959 1.68608 48.5453 1.46837 48.3468C1.25066 48.1484 1.07702 47.9064 0.958668 47.6366C0.840314 47.3668 0.779881 47.0752 0.781274 46.7806C0.782666 46.486 0.845853 46.195 0.966752 45.9263V45.9263ZM76.4395 50.3489L74.7781 51.4799C74.9057 52.7564 74.7757 54.0454 74.3959 55.2707L75.8233 56.7293C76.1068 57.0187 76.2787 57.3991 76.3087 57.8031C76.3387 58.2071 76.2248 58.6086 75.9871 58.9367L74.8795 60.4967C74.644 60.8263 74.2994 61.0618 73.9068 61.1618C73.5143 61.2617 73.099 61.2195 72.7345 61.0427L70.9015 60.1535C69.8619 60.9029 68.6811 61.4335 67.4305 61.7135L66.8767 63.6791C66.7671 64.0681 66.5242 64.4062 66.1906 64.6343C65.857 64.8624 65.4538 64.9661 65.0515 64.9271L63.1795 64.7399C62.7782 64.7033 62.4023 64.5272 62.1173 64.2422C61.8323 63.9572 61.6562 63.5813 61.6195 63.1799L61.4713 61.1441C60.2909 60.6232 59.2292 59.8668 58.3513 58.9211L56.3701 59.4281C55.9776 59.5299 55.5617 59.4894 55.1962 59.3138C54.8307 59.1382 54.5392 58.8388 54.3733 58.4687L53.5933 56.7371C53.4279 56.3646 53.3998 55.9455 53.514 55.5543C53.6283 55.163 53.8775 54.8249 54.2173 54.5999L55.9021 53.4533C55.774 52.1769 55.904 50.8877 56.2844 49.6625L54.8569 48.2039C54.5749 47.9137 54.4039 47.5336 54.3739 47.13C54.344 46.7264 54.457 46.3252 54.6932 45.9965L55.8007 44.4365C56.0373 44.1082 56.3819 43.8736 56.774 43.7738C57.1662 43.6739 57.581 43.7153 57.9457 43.8905L59.7865 44.7797C60.8261 44.0302 62.0069 43.4995 63.2575 43.2197L63.8113 41.2541C63.921 40.8651 64.1639 40.527 64.4975 40.2989C64.8311 40.0708 65.2343 39.9672 65.6365 40.0061L67.5241 40.1933C67.9255 40.2299 68.3014 40.4061 68.5864 40.6911C68.8714 40.9761 69.0475 41.3519 69.0841 41.7533L69.2323 43.7891C70.4129 44.3098 71.4747 45.0663 72.3523 46.0121L74.3335 45.5051C74.7221 45.4171 75.1292 45.467 75.485 45.6463C75.8408 45.8256 76.1232 46.1232 76.2835 46.4879L77.0635 48.2195C77.2285 48.5909 77.2563 49.0087 77.142 49.3986C77.0278 49.7886 76.7788 50.1253 76.4395 50.3489V50.3489ZM68.8891 52.8293C68.9603 52.122 68.8198 51.4095 68.4853 50.7822C68.1509 50.1549 67.6377 49.641 67.0107 49.3059C66.3838 48.9707 65.6715 48.8294 64.9641 48.8997C64.2567 48.9701 63.5861 49.249 63.0375 49.7011C62.4888 50.1531 62.0869 50.758 61.8826 51.4389C61.6782 52.1198 61.6808 52.846 61.8899 53.5255C62.099 54.2049 62.5052 54.8069 63.057 55.2551C63.6088 55.7033 64.2813 55.9775 64.9891 56.0429C65.4583 56.0892 65.932 56.0426 66.3832 55.9058C66.8343 55.7689 67.2541 55.5445 67.6184 55.2453C67.9828 54.9461 68.2846 54.5781 68.5067 54.1622C68.7287 53.7463 68.8667 53.2907 68.9125 52.8215L68.8891 52.8293ZM33.1417 34.9985L35.0995 32.3855C34.45 31.2681 33.9517 30.0694 33.6175 28.8209L30.4195 28.3841C29.9033 28.3126 29.4303 28.0569 29.0877 27.6642C28.7451 27.2714 28.5561 26.7681 28.5553 26.2469V23.8289C28.5561 23.3077 28.7451 22.8044 29.0877 22.4116C29.4303 22.0189 29.9033 21.7632 30.4195 21.6917L33.6799 21.2549C33.9939 20.0093 34.4713 18.8107 35.0995 17.6903L33.1027 15.0773C32.787 14.6622 32.632 14.147 32.6664 13.6266C32.7008 13.1062 32.9223 12.6158 33.2899 12.2459L34.9981 10.5377C35.368 10.17 35.8584 9.94856 36.3788 9.91415C36.8992 9.87975 37.4145 10.0347 37.8295 10.3505L40.4503 12.3473C41.5676 11.6975 42.7663 11.1991 44.0149 10.8653L44.4595 7.59711C44.531 7.08087 44.7867 6.60787 45.1795 6.26528C45.5722 5.9227 46.0756 5.73363 46.5967 5.73291H49.0147C49.5359 5.73363 50.0393 5.9227 50.432 6.26528C50.8248 6.60787 51.0805 7.08087 51.1519 7.59711L51.5887 10.8575C52.8375 11.1911 54.0362 11.6895 55.1533 12.3395L57.7663 10.3427C58.1814 10.0269 58.6967 9.87195 59.2171 9.90635C59.7375 9.94076 60.2279 10.1622 60.5977 10.5299L62.3059 12.2381C62.6736 12.608 62.8951 13.0984 62.9295 13.6188C62.9639 14.1392 62.8089 14.6544 62.4931 15.0695L60.4963 17.6903C61.146 18.8076 61.6444 20.0063 61.9783 21.2549L65.2309 21.6917C65.7472 21.7632 66.2202 22.0189 66.5628 22.4116C66.9054 22.8044 67.0944 23.3077 67.0951 23.8289V26.2469C67.0944 26.7681 66.9054 27.2714 66.5628 27.6642C66.2202 28.0569 65.7472 28.3126 65.2309 28.3841L61.9705 28.8209C61.6368 30.0696 61.1385 31.2683 60.4885 32.3855L62.4853 34.9985C62.8011 35.4136 62.9561 35.9289 62.9217 36.4492C62.8873 36.9696 62.6658 37.46 62.2981 37.8299L60.5899 39.5381C60.2201 39.9058 59.7297 40.1273 59.2093 40.1617C58.6889 40.1961 58.1736 40.0411 57.7585 39.7253L55.1377 37.7285C54.0205 38.3783 52.8218 38.8766 51.5732 39.2105L51.1363 42.4631C51.0649 42.9794 50.8092 43.4524 50.4164 43.7949C50.0237 44.1375 49.5203 44.3266 48.9991 44.3273H46.5811C46.0638 44.3231 45.5652 44.1335 45.1759 43.7928C44.7865 43.4521 44.5324 42.9831 44.4595 42.4709L44.0227 39.2105C42.7742 38.8765 41.5755 38.3782 40.4581 37.7285L37.8451 39.7253C37.4301 40.0411 36.9148 40.1961 36.3944 40.1617C35.874 40.1273 35.3836 39.9058 35.0137 39.5381L33.3289 37.8299C32.9613 37.46 32.7398 36.9696 32.7054 36.4492C32.671 35.9289 32.826 35.4136 33.1417 34.9985V34.9985ZM42.8995 25.0379C42.8995 26.3474 43.4197 27.6032 44.3457 28.5292C45.2716 29.4551 46.5275 29.9753 47.8369 29.9753C49.1464 29.9753 50.4023 29.4551 51.3282 28.5292C52.2542 27.6032 52.7744 26.3474 52.7744 25.0379V25.0379C52.7744 23.7284 52.2542 22.4726 51.3282 21.5466C50.4023 20.6207 49.1464 20.1005 47.8369 20.1005C46.5275 20.1005 45.2716 20.6207 44.3457 21.5466C43.4197 22.4726 42.8995 23.7284 42.8995 25.0379Z" fill="#9D60FB"/>
</svg>
