<svg width="156" height="24" viewBox="0 0 156 24" fill="none" xmlns="http://www.w3.org/2000/svg">
<path d="M36.0467 1.948V9.37345C34.9837 8.36342 33.5393 7.74129 31.947 7.74129C28.6849 7.74129 26.0404 10.3462 26.0404 13.5594C26.0404 16.7725 28.6849 19.3775 31.947 19.3775C35.0733 19.3775 37.6313 16.9836 37.8375 13.955L37.8534 13.9752V1.948H36.0467ZM31.947 17.5979C29.6819 17.5979 27.847 15.7904 27.847 13.5594C27.847 11.3283 29.6819 9.52084 31.947 9.52084C34.2118 9.52084 36.0467 11.3283 36.0467 13.5594C36.0467 15.7904 34.2118 17.5979 31.947 17.5979Z" fill="#1F034F"/>
<path d="M72.8949 7.74121C69.7684 7.74121 67.2106 10.1352 67.0043 13.1637L66.9885 13.1435V23.1522H68.7952V17.7453C69.8582 18.7552 71.3026 19.3774 72.8949 19.3774C76.157 19.3774 78.8015 16.7724 78.8015 13.5593C78.8015 10.3462 76.157 7.74121 72.8949 7.74121ZM72.8949 17.5979C70.63 17.5979 68.7952 15.7904 68.7952 13.5593C68.7952 11.3283 70.63 9.52077 72.8949 9.52077C75.16 9.52077 76.9949 11.3283 76.9949 13.5593C76.9949 15.7904 75.16 17.5979 72.8949 17.5979Z" fill="#1F034F"/>
<path d="M45.8563 7.75928C42.6038 7.75928 39.9672 10.3565 39.9672 13.5603C39.9672 16.7641 42.6038 19.3613 45.8563 19.3613C47.6581 19.3613 49.271 18.5639 50.3499 17.3072L49.2757 16.0877C48.4961 17.1101 47.2549 17.7711 45.8563 17.7711C43.6796 17.7711 41.884 16.1683 41.6163 14.0956H49.6223H50.3988H51.2461C51.2619 13.9187 51.2729 13.7403 51.2729 13.5603C51.2729 10.3565 49.1088 7.75928 45.8563 7.75928ZM41.7076 12.5456C42.1692 10.7102 43.8513 9.34956 45.8578 9.34956C47.8645 9.34956 49.0741 10.7102 49.5341 12.5456H41.7076Z" fill="#1F034F"/>
<path d="M59.1561 7.75928C55.9035 7.75928 53.2669 10.3565 53.2669 13.5603C53.2669 16.7641 55.9035 19.3613 59.1561 19.3613C60.9579 19.3613 62.5707 18.5639 63.6497 17.3072L62.5755 16.0877C61.7958 17.1101 60.5547 17.7711 59.1561 17.7711C56.9793 17.7711 55.1838 16.1683 54.916 14.0956H62.922H63.6986H64.5459C64.5616 13.9187 64.5727 13.7403 64.5727 13.5603C64.5727 10.3565 62.4085 7.75928 59.1561 7.75928ZM55.0073 12.5456C55.4688 10.7102 57.1509 9.34956 59.1576 9.34956C61.1643 9.34956 62.3739 10.7102 62.8339 12.5456H55.0073Z" fill="#1F034F"/>
<path d="M103.59 12.2868V19.2422H102.895V12.2868C102.895 11.2225 102.59 10.363 101.98 9.70981C101.371 9.05663 100.556 8.72927 99.5372 8.72927C98.4867 8.72927 97.6235 9.06438 96.9448 9.73308C96.2658 10.4018 95.9256 11.2536 95.9256 12.2868V19.2422H95.231V2.13696H95.9256V10.0511C96.6818 8.72772 97.8945 8.06677 99.5609 8.06677C100.796 8.06677 101.775 8.45466 102.501 9.23039C103.228 10.0061 103.59 11.0239 103.59 12.2868Z" fill="#1F034F"/>
<path d="M131.953 19.2422V2.13696H132.648V19.2422H131.953ZM134.037 13.1076L139.918 19.2422H138.992L133.087 13.0843L138.389 8.29484H139.384L134.037 13.1076Z" fill="#1F034F"/>
<path d="M141.191 16.8667L141.747 16.4555C142.766 17.8845 143.984 18.5997 145.406 18.5997C146.224 18.5997 146.891 18.4058 147.408 18.0179C147.925 17.6301 148.183 17.087 148.183 16.3873C148.136 15.7341 147.936 15.2469 147.582 14.9274C147.226 14.6078 146.585 14.2431 145.659 13.832L144.688 13.3991C143.746 12.988 143.058 12.5784 142.628 12.1672C142.196 11.7561 141.978 11.2239 141.978 10.5707C141.978 9.73449 142.31 9.08131 142.974 8.60965C143.637 8.10851 144.432 7.85718 145.358 7.85718C146.732 7.85718 147.898 8.44209 148.855 9.61347L148.347 10.0696C147.466 9.03631 146.455 8.51811 145.313 8.51811C144.573 8.51811 143.955 8.69653 143.461 9.05338C142.967 9.41022 142.721 9.90825 142.721 10.5475C142.736 10.8066 142.786 11.03 142.872 11.2208C142.957 11.4116 143.029 11.559 143.092 11.6661C143.153 11.7731 143.32 11.905 143.589 12.0648C143.859 12.2246 144.052 12.3317 144.168 12.3844C144.284 12.4372 144.58 12.5784 145.059 12.8064L146.101 13.2626C147.058 13.6737 147.767 14.1066 148.23 14.5627C148.693 15.0189 148.924 15.6115 148.924 16.3423C148.924 17.2545 148.577 17.9697 147.882 18.4865C147.203 19.0032 146.362 19.2622 145.358 19.2622C143.629 19.2622 142.24 18.4632 141.191 16.8667Z" fill="#1F034F"/>
<path d="M92.0668 16.7799C91.1297 17.8862 89.7216 18.5891 88.1449 18.5891C85.3256 18.5891 83.0401 16.3377 83.0401 13.5606C83.0401 10.7835 85.3256 8.53224 88.1449 8.53224C89.7121 8.53224 91.1139 9.22886 92.0511 10.3242L92.5582 9.90376C91.4998 8.66722 89.9168 7.88062 88.1465 7.88062C84.9601 7.88062 82.3787 10.4251 82.3787 13.5622C82.3787 16.7009 84.9618 19.2437 88.1465 19.2437C89.9311 19.2437 91.5265 18.4447 92.5835 17.1912L92.0668 16.7799Z" fill="#1F034F"/>
<path d="M128.75 16.7799C127.812 17.8862 126.404 18.5891 124.828 18.5891C122.008 18.5891 119.723 16.3377 119.723 13.5606C119.723 10.7835 122.008 8.53224 124.828 8.53224C126.395 8.53224 127.797 9.22886 128.734 10.3242L129.241 9.90376C128.183 8.66722 126.6 7.88062 124.829 7.88062C121.643 7.88062 119.061 10.4251 119.061 13.5622C119.061 16.7009 121.645 19.2437 124.829 19.2437C126.614 19.2437 128.209 18.4447 129.266 17.1912L128.75 16.7799Z" fill="#1F034F"/>
<path d="M111.772 7.87646C108.586 7.87646 106.004 10.4209 106.004 13.558C106.004 16.6952 108.587 19.2396 111.772 19.2396C113.565 19.2396 115.166 18.4343 116.225 17.17L115.718 16.7263C114.784 17.8526 113.363 18.5724 111.772 18.5724C108.961 18.5724 106.682 16.3274 106.682 13.558H116.233H116.669H116.91C116.91 10.4209 114.957 7.87646 111.772 7.87646ZM106.723 12.9312C107.036 10.4582 109.177 8.54361 111.772 8.54361C114.368 8.54361 115.878 10.4582 116.192 12.9312H106.723Z" fill="#1F034F"/>
<path d="M5.28431 10.6153L5.30006 10.6355C5.50797 7.60697 8.06428 5.21303 11.1908 5.21303C11.1923 5.21303 11.1939 5.21303 11.1939 5.21303C11.1955 5.21303 11.1971 5.21303 11.1971 5.21303C12.7894 5.21303 14.2354 5.83516 15.2969 6.8452V0.766439C14.029 0.273064 12.6461 0 11.1986 0C5.0134 0 0 4.93841 0 11.0311C0 14.9843 2.11216 18.4504 5.28431 20.3975V10.6153Z" fill="#00E6FF"/>
<path d="M17.1052 1.65991V11.4483L17.0894 11.4281C16.8831 14.4566 14.3253 16.8505 11.1987 16.8505C11.1972 16.8505 11.1956 16.8505 11.1956 16.8505C11.194 16.8505 11.1925 16.8505 11.1925 16.8505C9.60007 16.8505 8.15417 16.2285 7.09259 15.2184V21.2956C8.36523 21.7906 9.7497 22.0652 11.2003 22.0652C17.3856 22.0652 22.3989 17.1268 22.3989 11.034C22.3989 7.07462 20.2821 3.60703 17.1052 1.65991Z" fill="#007AFF"/>
<path d="M14.6166 8.80172C14.5803 8.98946 14.5142 9.17408 14.4117 9.34785C13.922 10.1841 12.8383 10.4696 11.9894 9.98707C11.1404 9.50456 10.8506 8.43712 11.3404 7.60086C11.4743 7.37279 11.6539 7.18662 11.8586 7.04543C11.6444 7.0113 11.4239 6.99268 11.1987 6.99268C8.93376 6.99268 7.09882 8.80017 7.09882 11.0312C7.09882 13.2623 8.93532 15.0698 11.1987 15.0698C13.462 15.0698 15.2986 13.2623 15.2986 11.0312C15.2986 10.2074 15.0482 9.44094 14.6166 8.80172Z" fill="#9D60FB"/>
<path d="M153.52 19.2618C154.498 19.2618 155.293 18.4797 155.293 17.5149C155.293 16.5501 154.498 15.7678 153.52 15.7678C152.54 15.7678 151.745 16.5501 151.745 17.5149C151.745 18.4797 152.54 19.2618 153.52 19.2618Z" fill="#9D60FB"/>
</svg>
