<svg width="61" height="61" viewBox="0 0 61 61" fill="none" xmlns="http://www.w3.org/2000/svg">
<g clip-path="url(#clip0_789_457)">
<path d="M11.1055 40.522L20.4463 49.874L16.4252 53.8999L7.08437 44.5479L11.1055 40.522Z" fill="#9D60FB"/>
<path d="M0.96384 50.6681L5.442 46.1846L14.8018 55.5556L10.3236 60.0482C9.69569 60.6644 8.8515 61.0096 7.97225 61.0096C7.093 61.0096 6.24881 60.6644 5.6209 60.0482L1.14274 55.5647C0.810202 55.2734 0.538334 54.9193 0.342708 54.5226C0.147083 54.1259 0.0315471 53.6945 0.00271786 53.2531C-0.0261113 52.8116 0.0323316 52.3688 0.174702 51.95C0.317072 51.5312 0.540574 51.1447 0.832398 50.8125C0.874995 50.7625 0.918809 50.7144 0.96384 50.6681Z" fill="#9D60FB"/>
<path d="M17.2193 34.393C17.8472 33.7768 18.6914 33.4316 19.5706 33.4316C20.4499 33.4316 21.2941 33.7768 21.922 34.393L26.4001 38.8765C27.0156 39.5052 27.3604 40.3504 27.3604 41.2307C27.3604 42.111 27.0156 42.9562 26.4001 43.5849L21.922 48.0684L12.5622 38.6974L17.2193 34.393Z" fill="#9D60FB"/>
<path d="M20.3428 20.3558C20.3425 16.3294 21.5347 12.3934 23.7688 9.04557C26.0029 5.69771 29.1784 3.08836 32.8938 1.54755C36.6092 0.00674755 40.6975 -0.396307 44.6417 0.389367C48.5859 1.17504 52.2088 3.11415 55.0522 5.96145C57.8956 8.80874 59.8317 12.4363 60.6157 16.3854C61.3997 20.3345 60.9964 24.4276 59.4568 28.1472C57.9172 31.8667 55.3104 35.0456 51.9661 37.2818C48.6219 39.5179 44.6904 40.7109 40.6689 40.7098C35.2779 40.7084 30.1082 38.5633 26.2965 34.7464C22.4848 30.9295 20.3433 25.7532 20.3428 20.3558ZM40.6689 34.8372C43.5294 34.8455 46.3282 34.0044 48.7113 32.4202C51.0944 30.8361 52.9549 28.58 54.0574 25.9372C55.1599 23.2945 55.455 20.3838 54.9053 17.5732C54.3557 14.7626 52.986 12.1782 50.9694 10.147C48.9528 8.1157 46.3799 6.7287 43.576 6.16137C40.7721 5.59404 37.8632 5.87184 35.217 6.95965C32.5708 8.04746 30.3062 9.89643 28.7095 12.2728C27.1129 14.6491 26.2558 17.4461 26.2468 20.3101C26.2468 20.3247 26.2468 20.3393 26.2468 20.3539C26.2467 24.1792 27.7583 27.8491 30.4515 30.5623C33.1448 33.2755 36.8008 34.8117 40.6214 34.8354L40.6689 34.8372Z" fill="#9D60FB"/>
</g>
<defs>
<clipPath id="clip0_789_457">
<rect width="61" height="61" fill="white" transform="matrix(-1 0 0 1 61 0)"/>
</clipPath>
</defs>
</svg>
