<svg xmlns="http://www.w3.org/2000/svg" width="55.289" height="48.494" viewBox="0 0 55.289 48.494"><defs><style>.a,.b{fill:#f03a01;}.a{stroke:#fff;stroke-width:0.3px;}.b{stroke:#f03a01;stroke-width:0.7px;}</style></defs><g transform="translate(-6.732 -7.85)"><path class="a" d="M4.626,53.3H22.713a1.041,1.041,0,0,0,0-2.082H5.668V21.509L31.078,7.353l25.41,14.157V51.221H39.461a1.041,1.041,0,0,0,0,2.082H57.53a1.041,1.041,0,0,0,1.042-1.041V20.9a1.041,1.041,0,0,0-.536-.909L31.585,5.252a1.041,1.041,0,0,0-1.012,0L4.12,19.988a1.041,1.041,0,0,0-.536.909V52.263A1.042,1.042,0,0,0,4.626,53.3Z" transform="translate(3.299 2.89)"/><g transform="translate(19.477 -9.177)"><g transform="translate(0 35.4)"><g transform="translate(0 0)"><path class="b" d="M29.124,37.747H17.282A3,3,0,0,0,14.4,35.4a2.936,2.936,0,0,0-2.88,2.347H.64a.64.64,0,1,0,0,1.28H11.486a3,3,0,0,0,2.88,2.347,2.936,2.936,0,0,0,2.88-2.347H29.124a.64.64,0,1,0,0-1.28ZM14.4,40.129a1.707,1.707,0,0,1-1.707-1.707A1.685,1.685,0,0,1,14.4,36.716a1.707,1.707,0,0,1,0,3.414Z" transform="translate(0 -35.4)"/></g></g><g transform="translate(0 44.183)"><g transform="translate(0 0)"><path class="b" d="M29.159,136.547H11.2a3,3,0,0,0-2.88-2.347,2.936,2.936,0,0,0-2.88,2.347H.64a.64.64,0,0,0,0,1.28h4.8a3,3,0,0,0,2.88,2.347,2.936,2.936,0,0,0,2.88-2.347H29.159a.64.64,0,1,0,0-1.28ZM8.321,138.894a1.707,1.707,0,0,1-1.707-1.707,1.731,1.731,0,0,1,1.707-1.707,1.707,1.707,0,0,1,0,3.414Z" transform="translate(0 -134.2)"/></g></g><g transform="translate(0 52.931)"><g transform="translate(0 0)"><path class="b" d="M29.124,234.947H23.541a3,3,0,0,0-2.88-2.347,2.936,2.936,0,0,0-2.88,2.347H.64a.64.64,0,1,0,0,1.28h17.1a3,3,0,0,0,2.88,2.347,2.936,2.936,0,0,0,2.88-2.347h5.618a.64.64,0,1,0,0-1.28Zm-8.5,2.383a1.707,1.707,0,1,1,1.707-1.707A1.685,1.685,0,0,1,20.625,237.329Z" transform="translate(0 -232.6)"/></g></g></g></g></svg>