<svg width="190" height="40" viewBox="0 0 190 40" fill="none" xmlns="http://www.w3.org/2000/svg">
<path d="M0 35.6117C0 37.5698 1.5909 39.1607 3.54894 39.1607C5.50697 39.1607 7.09787 37.5698 7.09787 35.6117C7.09787 33.6537 5.50697 32.0628 3.54894 32.0628C1.5909 32.0628 0 33.6537 0 35.6117ZM19.458 0C11.2587 0 4.52795 6.73074 4.52795 14.93C4.52795 16.888 4.89508 18.7237 5.62935 20.437C5.01746 21.7831 4.52795 23.2516 4.52795 24.5978C4.52795 28.5139 7.70976 31.6957 11.6258 31.6957C13.7062 31.6957 15.909 30.9614 17.6223 29.7376C17.9894 29.7376 18.4789 29.86 18.8461 29.86C18.9685 29.86 19.2132 29.86 19.3356 29.86H19.458H46.9928C55.1921 29.86 61.9228 23.1293 61.9228 14.93C61.9228 6.73074 55.1921 0 46.9928 0H19.458Z" fill="#F03A06"/>
<path d="M23.7449 11.1362C25.703 11.1362 27.1715 12.7271 27.1715 14.5628C27.1715 16.3984 25.5806 17.9893 23.7449 17.9893C21.7869 17.9893 20.3184 16.3984 20.3184 14.5628C20.3184 12.7271 21.7869 11.1362 23.7449 11.1362Z" fill="white"/>
<g opacity="0.8">
<path opacity="0.8" d="M35.1189 11.1362C37.077 11.1362 38.5455 12.7271 38.5455 14.5628C38.5455 16.3984 36.9546 17.9893 35.1189 17.9893C33.1609 17.9893 31.6924 16.3984 31.6924 14.5628C31.6924 12.7271 33.2833 11.1362 35.1189 11.1362Z" fill="white"/>
</g>
<g opacity="0.6">
<path opacity="0.6" d="M46.6268 11.1362C48.5848 11.1362 50.0533 12.7271 50.0533 14.5628C50.0533 16.3984 48.4624 17.9893 46.6268 17.9893C44.6687 17.9893 43.2002 16.3984 43.2002 14.5628C43.2002 12.7271 44.7911 11.1362 46.6268 11.1362Z" fill="white"/>
</g>
<path d="M74.4942 25.3515H71.1045V8.90015H74.4942V25.3515Z" fill="black"/>
<path d="M80.4376 13.1259L80.5393 14.5383C81.4131 13.446 82.5844 12.8999 84.0533 12.8999C85.3489 12.8999 86.3131 13.2803 86.9458 14.0411C87.5786 14.8019 87.9025 15.9393 87.9175 17.4534V25.3514H84.6521V17.5325C84.6521 16.8395 84.5015 16.3386 84.2002 16.0297C83.8989 15.7134 83.3979 15.5552 82.6974 15.5552C81.7784 15.5552 81.0892 15.9469 80.6297 16.7303V25.3514H77.3643V13.1259H80.4376Z" fill="black"/>
<path d="M96.753 19.6229H90.3916V16.9902H96.753V19.6229Z" fill="black"/>
<path d="M108.877 21.9618H102.934L101.804 25.3515H98.1992L104.324 8.90015H107.465L113.623 25.3515H110.018L108.877 21.9618ZM103.849 19.2162H107.962L105.894 13.0582L103.849 19.2162Z" fill="black"/>
<path d="M125.408 19.3516C125.408 21.2348 124.978 22.7451 124.12 23.8825C123.268 25.0125 122.116 25.5774 120.662 25.5774C119.427 25.5774 118.429 25.148 117.668 24.2893V30.0518H114.402V13.1259H117.43L117.543 14.3236C118.334 13.3745 119.366 12.8999 120.639 12.8999C122.146 12.8999 123.317 13.4573 124.153 14.5722C124.99 15.687 125.408 17.2237 125.408 19.1822V19.3516ZM122.142 19.1144C122.142 17.9769 121.939 17.0994 121.532 16.4817C121.133 15.864 120.549 15.5552 119.781 15.5552C118.756 15.5552 118.052 15.9469 117.668 16.7303V21.7357C118.067 22.5417 118.779 22.9447 119.803 22.9447C121.363 22.9447 122.142 21.6679 122.142 19.1144Z" fill="black"/>
<path d="M138.447 19.3516C138.447 21.2348 138.017 22.7451 137.159 23.8825C136.307 25.0125 135.155 25.5774 133.701 25.5774C132.466 25.5774 131.468 25.148 130.707 24.2893V30.0518H127.441V13.1259H130.47L130.583 14.3236C131.373 13.3745 132.405 12.8999 133.678 12.8999C135.185 12.8999 136.356 13.4573 137.192 14.5722C138.029 15.687 138.447 17.2237 138.447 19.1822V19.3516ZM135.181 19.1144C135.181 17.9769 134.978 17.0994 134.571 16.4817C134.172 15.864 133.588 15.5552 132.82 15.5552C131.795 15.5552 131.091 15.9469 130.707 16.7303V21.7357C131.106 22.5417 131.818 22.9447 132.842 22.9447C134.402 22.9447 135.181 21.6679 135.181 19.1144Z" fill="black"/>
<path d="M156.848 21.0353C156.644 22.7753 156 24.1199 154.916 25.069C153.839 26.0106 152.404 26.4814 150.611 26.4814C148.667 26.4814 147.108 25.7847 145.933 24.3911C144.765 22.9976 144.182 21.1332 144.182 18.7981V17.2162C144.182 15.6871 144.453 14.3425 144.995 13.1825C145.545 12.0224 146.321 11.1336 147.323 10.5159C148.325 9.89072 149.485 9.57812 150.803 9.57812C152.55 9.57812 153.952 10.0677 155.006 11.047C156.061 12.0187 156.675 13.367 156.848 15.092H154.667C154.479 13.7813 154.068 12.8322 153.436 12.2447C152.81 11.6571 151.933 11.3633 150.803 11.3633C149.417 11.3633 148.328 11.8756 147.537 12.9C146.754 13.9244 146.362 15.382 146.362 17.2727V18.8659C146.362 20.6511 146.735 22.071 147.481 23.1256C148.227 24.1802 149.27 24.7075 150.611 24.7075C151.816 24.7075 152.739 24.4363 153.379 23.8939C154.027 23.3441 154.456 22.3912 154.667 21.0353H156.848Z" fill="#F03A06"/>
<path d="M161.582 15.5101C162.509 14.3726 163.714 13.8039 165.198 13.8039C167.782 13.8039 169.085 15.2615 169.107 18.1766V26.2554H167.017V18.1653C167.009 17.284 166.806 16.6324 166.407 16.2106C166.015 15.7888 165.401 15.5779 164.565 15.5779C163.887 15.5779 163.292 15.7587 162.78 16.1202C162.268 16.4818 161.868 16.9563 161.582 17.5439V26.2554H159.492V8.90015H161.582V15.5101Z" fill="#F03A06"/>
<path d="M179.785 26.2555C179.664 26.0145 179.566 25.5851 179.491 24.9675C178.519 25.9768 177.359 26.4815 176.011 26.4815C174.806 26.4815 173.815 26.1426 173.039 25.4646C172.271 24.7791 171.887 23.9129 171.887 22.8658C171.887 21.5928 172.369 20.606 173.333 19.9055C174.305 19.1974 175.668 18.8434 177.423 18.8434H179.457V17.883C179.457 17.1523 179.239 16.5723 178.802 16.1429C178.365 15.706 177.721 15.4876 176.87 15.4876C176.124 15.4876 175.499 15.6759 174.994 16.0525C174.489 16.4292 174.237 16.8849 174.237 17.4197H172.135C172.135 16.8096 172.35 16.222 172.779 15.6571C173.216 15.0846 173.804 14.6326 174.542 14.3012C175.288 13.9697 176.105 13.804 176.994 13.804C178.403 13.804 179.506 14.1581 180.305 14.8661C181.103 15.5667 181.517 16.5346 181.548 17.77V23.3969C181.548 24.5193 181.691 25.4119 181.977 26.0748V26.2555H179.785ZM176.316 24.6624C176.971 24.6624 177.593 24.4929 178.18 24.1539C178.768 23.815 179.194 23.3743 179.457 22.8319V20.3236H177.819C175.258 20.3236 173.977 21.0731 173.977 22.5721C173.977 23.2274 174.196 23.7396 174.633 24.1087C175.069 24.4778 175.631 24.6624 176.316 24.6624Z" fill="#F03A06"/>
<path d="M187.66 11.0696V14.0299H189.943V15.6457H187.66V23.2273C187.66 23.7169 187.762 24.086 187.965 24.3346C188.169 24.5757 188.515 24.6962 189.005 24.6962C189.246 24.6962 189.577 24.651 189.999 24.5606V26.2554C189.449 26.4061 188.914 26.4814 188.395 26.4814C187.461 26.4814 186.756 26.1989 186.282 25.634C185.807 25.069 185.57 24.2668 185.57 23.2273V15.6457H183.344V14.0299H185.57V11.0696H187.66Z" fill="#F03A06"/>
</svg>
