<?xml version="1.0" encoding="utf-8"?>
<svg width="163px" height="162px" viewBox="0 0 163 162" version="1.1" xmlns:xlink="http://www.w3.org/1999/xlink" xmlns="http://www.w3.org/2000/svg">
  <defs>
    <linearGradient x1="-0.845605" y1="8.54041" x2="2.0885706" y2="-8.858539" id="gradient_1">
      <stop offset="0" stop-color="#C90099" />
      <stop offset="0.638" stop-color="#F67622" />
      <stop offset="1" stop-color="#D8D8D8" />
      <stop offset="1" stop-color="#D8D8D8" />
    </linearGradient>
    <linearGradient x1="-0.72396517" y1="9.104007" x2="2.080623" y2="-10.532721" id="gradient_2">
      <stop offset="0" stop-color="#C90099" />
      <stop offset="0.638" stop-color="#F67622" />
      <stop offset="1" stop-color="#D8D8D8" />
      <stop offset="1" stop-color="#D8D8D8" />
    </linearGradient>
    <linearGradient x1="-1.5652293" y1="12.180923" x2="1.5030987" y2="-5.218" id="gradient_3">
      <stop offset="0" stop-color="#C90099" />
      <stop offset="0.638" stop-color="#F67622" />
      <stop offset="1" stop-color="#D8D8D8" />
      <stop offset="1" stop-color="#D8D8D8" />
    </linearGradient>
    <linearGradient x1="-0.2652699" y1="1.8670043" x2="1.2702279" y2="-1.0082415" id="gradient_4">
      <stop offset="0" stop-color="#C90099" />
      <stop offset="0.638" stop-color="#F67622" />
      <stop offset="1" stop-color="#D8D8D8" />
      <stop offset="1" stop-color="#D8D8D8" />
    </linearGradient>
    <linearGradient x1="-1.4936591" y1="11.647" x2="1.3838536" y2="-4.5091667" id="gradient_5">
      <stop offset="0" stop-color="#C90099" />
      <stop offset="0.638" stop-color="#F67622" />
      <stop offset="1" stop-color="#D8D8D8" />
      <stop offset="1" stop-color="#D8D8D8" />
    </linearGradient>
    <linearGradient x1="-0.4687146" y1="2.355835" x2="1.0667809" y2="-0.50207937" id="gradient_6">
      <stop offset="0" stop-color="#C90099" />
      <stop offset="0.638" stop-color="#F67622" />
      <stop offset="1" stop-color="#D8D8D8" />
      <stop offset="1" stop-color="#D8D8D8" />
    </linearGradient>
  </defs>
  <g id="solis-full-logo">
    <path d="M80.8179 89.6667L80.8179 89.6667C80.4797 90.3333 78.4504 92.3333 67.6277 93.6667L67.6277 93.6667C57.8195 95 42.6 95 30.4244 95C28.7333 95 26.7041 95 24.6748 95C19.9398 95 15.2049 95 10.4699 95C8.77887 95 7.42602 95 6.07317 95C4.38212 95 3.02927 95 1.67642 95C1.33821 93 1 91 1 89C2.35285 89 4.0439 89 5.39675 89C6.7496 89 8.44065 89 9.7935 89C11.1463 89 12.161 89 13.5138 89C16.5577 89 19.6016 89 22.6455 89C35.8358 89 50.7171 89 60.8634 87.6667C69.3187 86.6667 75.0683 84.6667 78.4504 82C78.4504 82.3333 78.7887 82.6667 78.7887 83C78.7887 83.3333 79.1269 83.6667 79.1269 84C80.1415 85.6667 81.4944 88.6667 80.8179 89.6667Z" id="Path" fill="url(#gradient_1)" stroke="none" />
    <path d="M86.8412 104.598L86.8412 104.598C86.5018 105.293 84.4652 107.376 73.2637 108.765L73.2637 108.765C63.42 110.154 48.1453 110.154 35.9255 109.807C34.2283 109.807 32.1917 109.807 30.1551 109.807C25.0635 109.807 19.9719 109.807 14.5409 109.807C12.8437 109.807 11.1465 109.807 9.78876 109.807C8.09157 109.807 6.39438 109.807 5.03663 109.807C4.69719 109.46 4.69719 108.765 4.35775 108.418C3.67888 107.029 3.33944 105.64 3 104.251C4.35775 104.251 6.05494 104.251 7.75214 104.251C9.44933 104.251 10.8071 104.251 12.5043 104.251C16.5775 104.251 20.6508 104.251 24.3846 104.251C26.4212 104.251 28.1184 104.251 30.1551 104.251C43.3932 104.251 58.3284 104.251 68.5116 102.862C75.9792 101.82 81.4102 100.431 85.1441 98C85.1441 98 85.1441 98 85.1441 98C85.1441 98.3473 85.4835 98.6945 85.4835 99.0418C85.8229 100.431 87.5201 103.556 86.8412 104.598Z" id="Path_00000162313521592530689770000009878033124234402949_" fill="url(#gradient_2)" stroke="none" />
    <path d="M163 73C161.638 73 159.936 73.3333 158.575 73.3333C157.213 73.3333 155.511 73.3333 154.149 73.6667C149.043 73.6667 143.596 74 139.171 74C136.448 74 134.065 74 132.022 74C121.47 74.3333 107.853 74.6667 99.3429 76C95.5983 76.6667 91.173 77.6667 87.7688 80C87.7688 80 87.7688 80 87.7688 79.6667C86.7476 77.6667 85.7264 74.6667 86.0668 73.6667L86.0668 73.6667C86.0668 73.6667 86.7476 71.6667 95.2579 70L95.2579 70C103.428 68.6667 116.023 68 126.576 68C128.959 68 131.682 68 134.405 68C141.554 68 148.022 67.6667 153.468 67.6667C155.171 67.6667 156.532 67.6667 157.894 67.3333C159.596 67.3333 160.958 67 162.319 67C162.319 69 162.66 71 163 73Z" id="Path_00000097471102854230751810000014470685761163815835_" fill="url(#gradient_3)" stroke="none" />
    <path d="M163 82C163 83.017 163 84.0339 163 85.0508C162.661 90.4746 161.985 95.8983 160.631 100.983C159.277 106.068 157.246 111.153 154.876 116.237C150.137 125.729 144.044 134.203 136.259 140.983C128.473 147.763 119.334 153.525 109.518 156.915C100.378 160.305 91.2389 162 81.7611 162C80.4071 162 78.7146 162 77.3606 162C66.5288 161.322 56.0354 158.61 46.219 153.864C36.7411 149.119 28.2788 143.017 21.5089 135.22C17.1084 130.136 13.0465 124.712 10 118.949C11.6925 118.949 13.385 118.949 15.0774 118.949C16.7699 118.949 18.4624 118.949 20.1549 118.949C23.8783 118.949 27.6018 118.949 30.9867 118.949C33.0177 118.949 34.7102 118.949 36.7411 118.949C49.9425 118.949 64.8363 118.949 74.9911 117.593C85.4845 116.237 91.9159 113.864 94.6239 109.797C98.0089 104.712 95.6394 98.9492 93.9469 95.5593C93.9469 95.2203 93.6084 94.8814 93.6084 94.5424C92.5929 92.5085 91.5774 89.7966 91.9159 88.7797L91.9159 88.7797C91.9159 88.7797 92.5929 86.7458 101.055 85.3898L101.055 85.3898C109.179 84.0339 122.042 83.6949 132.197 83.3559C134.228 83.3559 136.597 83.3559 139.305 83.3559C144.721 83.3559 149.799 83.017 154.199 83.017C155.892 83.017 157.246 83.017 158.6 83.017C159.954 82 161.646 82 163 82Z" id="Path_00000098195298735098201050000006754596613609049732_" fill="url(#gradient_4)" stroke="none" />
    <path d="M160 58C158.64 58 156.94 58.3333 155.24 58.3333C153.88 58.3333 152.181 58.3333 150.481 58.6667C144.701 59 138.242 59 133.482 59C130.422 59 127.703 59 125.663 59C115.124 59.3333 101.525 59.6667 93.0255 61C88.9458 61.6667 83.8462 63 80.1065 66C80.1065 66 80.1065 65.6667 80.1065 65.6667C80.1065 65.3333 79.7665 65 79.7665 64.6667C78.7466 62.6667 77.7267 60 78.0667 59L78.0667 59C78.0667 59 78.7466 57 87.2459 55.6667L87.2459 55.6667C95.4053 54.3333 107.984 54 118.523 53.6667C123.963 53.6667 137.562 53.3333 148.441 52.6667C150.141 52.6667 151.501 52.3333 153.201 52.3333C154.9 52.3333 156.26 52 157.96 52C158.3 52.3333 158.3 53 158.64 53.3333C158.98 54.6667 159.32 56.3333 160 58Z" id="Path_00000007415232832579000530000003762071992573865654_" fill="url(#gradient_5)" stroke="none" />
    <path d="M153 43.1322C151.646 43.1322 149.954 43.4734 148.261 43.4734C146.569 43.4734 144.876 43.8145 143.184 43.8145C135.398 44.1557 125.92 44.4968 117.458 44.838C106.965 44.838 93.4248 45.5203 84.9624 46.8849C79.208 47.9084 71.0841 49.9553 69.0531 56.4371C67.6991 60.8721 69.3916 64.9659 71.0841 69.0597C71.0841 69.4009 71.4226 69.742 71.4226 70.0832C72.0996 71.4478 73.4535 74.5181 72.7766 75.5416L72.7766 75.5416C72.438 75.8827 70.4071 78.2708 59.5752 79.6354L59.5752 79.6354C49.7589 81 34.5266 81 22.3407 81C19.2942 81 16.2478 81 13.2013 81C11.8473 81 10.4934 81 8.80089 81C7.4469 81 5.75443 81 4.40044 81C3.04646 81 1.35398 81 0 81C0 79.6354 0 78.2708 0 77.2473C0.676991 66.3305 3.38496 55.7548 8.12389 45.8615C12.8628 36.3092 18.9558 28.1216 26.7411 20.9574C34.5266 13.7933 43.6659 8.33484 53.4823 4.92333C63.6372 1.17067 74.469 -0.535084 85.3009 0.147218C96.1327 0.82952 106.626 3.55873 116.442 8.33484C125.92 13.111 134.383 19.2517 141.153 27.0981C146.23 31.192 149.954 36.9915 153 43.1322Z" id="Path_00000158749281443305894820000007774854896631433643_" fill="url(#gradient_6)" stroke="none" />
  </g>
</svg>