<svg width="24" height="24" viewBox="0 0 24 24" fill="none" xmlns="http://www.w3.org/2000/svg">
<path fill-rule="evenodd" clip-rule="evenodd" d="M7.05273 0.0720004C8.33236 0.013091 8.74036 0 12 0C15.2596 0 15.6676 0.0141819 16.9462 0.0720004C18.2247 0.129819 19.0975 0.33382 19.8611 0.629458C20.6607 0.931641 21.3862 1.40401 21.9862 2.01492C22.5971 2.61383 23.0684 3.3382 23.3695 4.13893C23.6662 4.90257 23.8691 5.7753 23.928 7.05167C23.9869 8.3335 24 8.7415 24 12.0001C24 15.2597 23.9858 15.6677 23.928 16.9474C23.8702 18.2237 23.6662 19.0965 23.3695 19.8601C23.0684 20.6609 22.5963 21.3865 21.9862 21.9863C21.3862 22.5972 20.6607 23.0685 19.8611 23.3696C19.0975 23.6663 18.2247 23.8692 16.9484 23.9281C15.6676 23.987 15.2596 24.0001 12 24.0001C8.74036 24.0001 8.33236 23.9859 7.05273 23.9281C5.77636 23.8703 4.90364 23.6663 4.14 23.3696C3.33919 23.0684 2.61362 22.5964 2.01382 21.9863C1.40332 21.387 0.930889 20.6618 0.629455 19.8612C0.333818 19.0976 0.130909 18.2248 0.072 16.9485C0.0130909 15.6666 0 15.2586 0 12.0001C0 8.74041 0.0141818 8.33241 0.072 7.05386C0.129818 5.7753 0.333818 4.90257 0.629455 4.13893C0.931334 3.33829 1.40413 2.61308 2.01491 2.01383C2.61386 1.40346 3.3387 0.931034 4.13891 0.629458C4.90255 0.33382 5.77527 0.13091 7.05164 0.0720004H7.05273ZM16.8491 2.23201C15.5836 2.17419 15.204 2.16219 12 2.16219C8.796 2.16219 8.41636 2.17419 7.15091 2.23201C5.98036 2.28547 5.34545 2.48074 4.92218 2.64547C4.36255 2.86365 3.96218 3.1222 3.54218 3.5422C3.14405 3.92953 2.83765 4.40106 2.64545 4.92221C2.48073 5.34548 2.28545 5.9804 2.232 7.15095C2.17418 8.41641 2.16218 8.79605 2.16218 12.0001C2.16218 15.2041 2.17418 15.5837 2.232 16.8492C2.28545 18.0197 2.48073 18.6546 2.64545 19.0779C2.83745 19.5983 3.144 20.0707 3.54218 20.4579C3.92945 20.8561 4.40182 21.1627 4.92218 21.3547C5.34545 21.5194 5.98036 21.7147 7.15091 21.7681C8.41636 21.8259 8.79491 21.8379 12 21.8379C15.2051 21.8379 15.5836 21.8259 16.8491 21.7681C18.0196 21.7147 18.6545 21.5194 19.0778 21.3547C19.6375 21.1365 20.0378 20.8779 20.4578 20.4579C20.856 20.0707 21.1625 19.5983 21.3545 19.0779C21.5193 18.6546 21.7145 18.0197 21.768 16.8492C21.8258 15.5837 21.8378 15.2041 21.8378 12.0001C21.8378 8.79605 21.8258 8.41641 21.768 7.15095C21.7145 5.9804 21.5193 5.34548 21.3545 4.92221C21.1364 4.36257 20.8778 3.9622 20.4578 3.5422C20.0705 3.14409 19.5989 2.8377 19.0778 2.64547C18.6545 2.48074 18.0196 2.28547 16.8491 2.23201ZM10.4673 15.6994C11.3233 16.0557 12.2764 16.1038 13.1639 15.8354C14.0514 15.5671 14.8182 14.9989 15.3334 14.228C15.8485 13.4571 16.0801 12.5312 15.9884 11.6085C15.8968 10.6859 15.4876 9.82366 14.8309 9.16914C14.4123 8.75075 13.906 8.43039 13.3487 8.23111C12.7914 8.03184 12.1968 7.95862 11.6078 8.01672C11.0188 8.07481 10.45 8.26278 9.94233 8.5671C9.43468 8.87141 9.00081 9.2845 8.67197 9.77662C8.34312 10.2687 8.12748 10.8276 8.04056 11.4131C7.95365 11.9986 7.99762 12.596 8.16932 13.1625C8.34101 13.7289 8.63616 14.2502 9.03351 14.6889C9.43087 15.1275 9.92054 15.4726 10.4673 15.6994ZM7.63855 7.63859C8.2113 7.06583 8.89126 6.61149 9.6396 6.30152C10.3879 5.99155 11.19 5.832 12 5.832C12.81 5.832 13.6121 5.99154 14.3604 6.30152C15.1087 6.61149 15.7887 7.06583 16.3615 7.63859C16.9342 8.21134 17.3885 8.89131 17.6985 9.63965C18.0085 10.388 18.168 11.1901 18.168 12.0001C18.168 12.8101 18.0085 13.6121 17.6985 14.3605C17.3885 15.1088 16.9342 15.7888 16.3615 16.3615C15.2047 17.5183 13.6359 18.1681 12 18.1681C10.3641 18.1681 8.79528 17.5183 7.63855 16.3615C6.48182 15.2048 5.83197 13.6359 5.83197 12.0001C5.83197 10.3642 6.48182 8.79532 7.63855 7.63859ZM19.536 6.75058C19.6779 6.61669 19.7916 6.45569 19.8701 6.2771C19.9487 6.09851 19.9907 5.90596 19.9935 5.71086C19.9964 5.51577 19.9601 5.32208 19.8867 5.14127C19.8134 4.96047 19.7045 4.79622 19.5665 4.65825C19.4285 4.52028 19.2643 4.4114 19.0835 4.33804C18.9027 4.26469 18.709 4.22836 18.5139 4.2312C18.3188 4.23405 18.1263 4.27601 17.9477 4.3546C17.7691 4.43319 17.6081 4.54682 17.4742 4.68875C17.2138 4.96479 17.0712 5.33143 17.0768 5.71086C17.0823 6.09029 17.2355 6.45263 17.5038 6.72096C17.7721 6.98928 18.1345 7.14247 18.5139 7.148C18.8933 7.15353 19.26 7.01097 19.536 6.75058Z" fill="white"/>
</svg>
