<svg width="33" height="57" viewBox="0 0 33 57" fill="none" xmlns="http://www.w3.org/2000/svg">
<path d="M25.7907 45.4988C26.2902 45.0068 26.6048 44.4232 26.8594 43.8055C27.2908 42.7463 27.6986 41.6678 27.9251 40.5521C28.0938 39.7185 28.3506 38.8952 28.375 38.0274C28.3972 37.225 28.6533 36.4643 28.993 35.7446C29.198 35.3091 29.5199 35.0003 30.0195 34.9258C30.6116 34.8432 30.9772 35.1186 31.0711 35.7111C31.1022 35.9053 31.0963 36.1212 31.2636 36.2596C32.2656 37.0888 31.9185 38.037 31.5204 38.9994C31.2243 39.7184 30.6086 40.209 30.2312 40.8773C29.6585 41.9013 29.2312 43.0009 28.9619 44.1441C28.7399 45.0634 28.5416 45.9893 28.3084 46.9055C28.0864 47.7913 27.3263 48.0503 26.6063 47.5084C26.4967 47.4265 26.3842 47.3447 26.2821 47.2561C25.9735 46.9934 25.6967 46.9643 25.4436 47.3387C25.3737 47.4402 25.2828 47.5254 25.1772 47.5883C25.0716 47.6513 24.9537 47.6905 24.8315 47.7034C24.3579 47.7607 23.9257 47.923 23.489 48.1083C22.7719 48.4128 22.202 48.0116 22.1917 47.2286C22.1784 46.2275 22.6454 45.3782 23.0413 44.5029C24.1411 42.0682 24.8693 39.5309 25.0025 36.8432C25.0373 36.1338 24.8204 35.4543 24.7598 34.7591C24.7007 34.211 24.7722 33.6565 24.9685 33.1417C25.1905 32.5723 25.7034 32.2537 26.3006 32.3632C26.8224 32.4618 27.3382 32.5908 27.8451 32.7495C28.3632 32.9095 28.5852 33.2266 28.5911 33.7721C28.5971 34.3386 28.5527 34.905 28.3218 35.4334C27.5121 37.2875 27.0081 39.2369 26.5537 41.1996C26.2658 42.4441 25.8987 43.6745 25.8299 44.9621C25.8203 45.1378 25.804 45.3187 25.7907 45.4988Z" fill="white"/>
<path d="M13.2788 47.243C13.3728 46.8805 13.1308 46.6014 13.0324 46.2895C12.8785 45.7863 12.9088 45.3502 13.2263 44.9081C13.5821 44.4112 13.8039 43.8301 13.8702 43.2214C14.133 40.8238 14.2689 38.4138 14.2772 36.0016C14.2876 34.7318 14.0152 33.4948 13.7244 32.2615C13.5897 31.6876 13.5097 31.0877 13.6015 30.4907C13.7111 29.7799 14.0604 29.4837 14.7664 29.5931C15.2689 29.6712 15.6212 29.544 15.9875 29.1927C16.7631 28.4483 17.9724 28.6136 18.8738 29.5142C19.4903 30.1283 19.6465 30.8175 19.3564 31.6444C18.9671 32.7549 18.4365 33.8029 17.9998 34.8926C17.1998 36.8888 16.9356 38.9863 16.9112 41.1247C16.8955 42.4829 16.9615 43.8407 17.1088 45.1909C17.1487 45.5556 17.2057 45.9196 17.3633 46.2553C17.78 47.1484 17.4677 47.9381 17.0377 48.7115C16.9385 48.8909 16.7846 48.9794 16.5729 49.0256C15.9468 49.1625 15.3148 49.1826 14.6783 49.2094C14.1773 49.2303 13.9101 48.8938 13.751 48.4703C13.6282 48.1436 13.5453 47.8004 13.4446 47.4677L13.2788 47.243Z" fill="white"/>
<path d="M21.2792 48.1736C21.1053 48.5078 20.7744 48.7043 20.3674 48.7847C20.0692 48.8393 19.7792 48.9321 19.5045 49.0608C19.0493 49.2789 18.6164 49.1412 18.2101 48.897C17.9673 48.7482 17.8741 48.5115 17.9 48.2272C17.957 47.6094 17.974 47.0013 17.692 46.417C17.6269 46.2761 17.5981 46.121 17.6082 45.966C17.6183 45.8109 17.6669 45.6609 17.7497 45.5298C18.5638 44.2161 18.7799 42.7081 19.1751 41.2552C19.8057 38.9389 20.3807 36.6152 20.4799 34.2036C20.5184 33.2732 20.528 32.3423 20.5088 31.4109C20.4851 30.1627 21.3413 29.4527 22.5751 29.7102C23.1671 29.8337 23.6903 30.1024 24.1906 30.4195C24.3279 30.5033 24.4423 30.6199 24.5238 30.759C24.6053 30.8981 24.6513 31.0554 24.6576 31.2167C24.6777 31.6586 24.6404 32.1012 24.5466 32.5334C24.2721 33.9257 23.8662 35.2885 23.3344 36.6033C22.3138 39.1592 21.795 41.835 21.6374 44.5778C21.6055 45.1346 21.7395 45.6995 21.778 46.2614C21.835 47.0571 21.6907 47.5871 21.2792 48.1736Z" fill="white"/>
<path d="M14.3039 14.9064C14.5259 14.5506 14.8664 14.4531 15.2408 14.6191C15.7952 14.864 16.3325 14.8625 16.9223 14.7404C17.8289 14.5529 18.3381 15.0486 18.0901 15.9127C17.507 17.9432 17.7638 19.9648 18.0465 21.99C18.2589 23.5159 18.4905 25.038 18.5497 26.5809C18.6008 27.8768 17.675 28.6293 16.4531 28.2452C16.1015 28.1351 15.8329 28.2043 15.5902 28.464C15.4658 28.5973 15.3333 28.7223 15.2024 28.8496C14.8634 29.1778 14.4667 29.3029 14.0375 29.0826C13.6415 28.8794 13.5231 28.4871 13.552 28.0703C13.6246 27.2029 13.7732 26.3436 13.996 25.5024C14.184 24.7477 14.3828 23.9954 14.5925 23.2457C15.0479 21.6734 15.1197 20.0138 14.802 18.4077C14.6799 17.7929 14.4578 17.2123 14.3061 16.6161C14.1744 16.0891 13.8539 15.4818 14.3039 14.9064Z" fill="white"/>
<path d="M13.2791 47.2429L13.4478 47.4662C13.1273 47.4893 12.9816 47.6895 12.8469 47.9679C12.6663 48.3445 12.2607 48.4263 11.8899 48.5097C11.3127 48.64 10.7887 48.7992 10.3299 49.254C9.60976 49.97 8.87412 49.7646 8.5359 48.7881C8.21101 47.8525 8.01785 46.8759 7.84911 45.8994C7.66342 44.8472 7.30528 43.8333 6.78932 42.8991C6.5807 42.5079 6.27469 42.1778 5.90122 41.9412C5.59034 41.7523 5.30011 41.531 5.03533 41.281C4.59129 40.8411 4.5639 40.3483 4.81331 39.8139C5.04125 39.3182 5.43349 39.0808 5.97967 39.1314C6.43778 39.1731 6.70717 38.8813 6.9662 38.5784C7.13419 38.3819 7.26667 38.1578 7.47537 37.9956C8.05115 37.549 8.59141 37.7217 8.80085 38.4213C9.09022 39.3889 9.18273 40.396 9.39291 41.3792C9.64084 42.5262 10.096 43.5377 10.8731 44.4205C11.4074 45.0226 11.9092 45.653 12.4916 46.2135C12.7077 46.4212 12.932 46.6333 12.9571 46.9727C12.9727 47.1521 13.1155 47.2198 13.2791 47.2429Z" fill="white"/>
<path d="M18.2708 13.9931C18.0688 14.3526 17.7409 14.3764 17.4523 14.1822C16.7559 13.7133 16.0795 13.7356 15.3527 14.0973C15.1026 14.2231 14.7977 14.2603 14.5135 14.2886C14.0206 14.337 13.7978 14.0943 13.8711 13.6061C13.9314 13.1983 14.0305 12.7972 14.1671 12.4085C14.5756 11.2511 14.8465 10.0647 14.8332 8.82537C14.8273 8.31552 14.7125 7.82949 14.5771 7.34196C14.3891 6.66315 14.7303 6.25229 15.4053 6.43465C16.0151 6.60063 16.4991 6.54704 17.026 6.19051C17.4627 5.89279 17.994 6.25527 17.8823 6.76587C17.5789 8.15773 18.0377 9.45506 18.279 10.7851C18.4307 11.621 18.6956 12.4487 18.5424 13.3158C18.513 13.5617 18.4192 13.7954 18.2708 13.9931Z" fill="white"/>
<path d="M13.6946 54.6507C14.0394 54.2272 14.3843 53.9689 14.8498 53.9064C15.4242 53.8424 15.9767 53.648 16.4654 53.3377C16.9657 53.0117 17.4801 53.1062 17.9656 53.4121C18.2727 53.6072 18.565 53.8282 18.881 54.0076C19.7935 54.5189 20.6979 54.3552 21.5816 53.9235C21.7971 53.8124 22.0274 53.7332 22.2654 53.6883C22.6132 53.6273 22.8812 53.7724 22.9825 54.1014C23.1626 54.6533 23.245 55.2327 23.226 55.8133C23.1868 56.6045 22.7561 56.996 21.9538 56.9774C21.5154 56.9604 21.0764 56.9669 20.6387 56.9968C20.3723 57.0198 20.1392 56.9283 19.9083 56.7936C17.9841 55.6667 17.9145 55.6161 15.8119 56.2465C14.8683 56.5301 14.2718 56.1869 13.7123 55.5297C13.4296 55.1978 13.5132 54.8866 13.6946 54.6507Z" fill="white"/>
<path d="M6.47282 38.2685C6.03691 38.7032 5.42709 38.8215 4.74399 38.7151C4.17561 38.6295 3.91955 38.2685 3.81594 37.7363C3.58207 36.5454 3.20537 35.4088 2.59999 34.3519C2.46978 34.1101 2.37174 33.8521 2.3084 33.5845C2.17 33.0553 2.40609 32.6638 2.93894 32.5745C3.32496 32.4979 3.70414 32.3899 4.07274 32.2515C4.72623 32.0282 5.30127 32.375 5.40488 33.0658C5.45817 33.4148 5.42857 33.7654 5.40488 34.116C5.34568 35.0091 5.44559 35.8115 6.25375 36.4285C6.87394 36.8997 6.91909 37.6314 6.47282 38.2685Z" fill="white"/>
<path d="M11.7574 53.3613C11.6805 53.2926 11.609 53.2179 11.5436 53.138C11.2076 52.6847 10.8323 52.3274 10.2854 52.0781C9.45875 51.6992 9.23155 50.7138 9.72518 50.1429C9.8917 49.9486 10.0952 49.8094 10.3498 49.8139C11.0011 49.8251 11.5443 49.5661 12.0823 49.2185C13.1125 48.559 13.6639 48.8143 13.9718 50.0246C14.2034 50.9371 14.3092 51.8541 14.139 52.7882C14.008 53.5087 13.843 53.6441 13.1096 53.6813C12.5597 53.7074 12.1068 53.6084 11.7574 53.3613Z" fill="white"/>
<path d="M22.205 49.4628C22.4714 49.6742 22.6313 50.0583 22.6246 50.5048C22.618 50.9514 22.6809 51.3578 23.0161 51.7196C23.3188 52.0456 23.1967 52.6686 22.7749 52.8591C21.835 53.2856 20.8729 53.6868 19.8049 53.5684C19.0249 53.4821 18.7007 52.9447 19.0316 52.2287C19.2891 51.6712 19.3083 51.1189 19.2573 50.5346C19.1877 49.736 19.6436 49.2886 20.4414 49.3817C20.727 49.417 21.0168 49.3875 21.2895 49.2953C21.6625 49.1718 21.8387 49.2053 22.205 49.4628Z" fill="white"/>
<path d="M15.5197 0.77794C15.9031 0.245757 16.4189 0.121457 16.9133 0.0112992C17.2182 -0.0556888 17.4003 0.183979 17.4595 0.497334C17.5372 0.909683 17.4632 1.3198 17.4417 1.72842C17.41 2.4897 17.4499 3.25229 17.5609 4.00602C17.6504 4.6759 17.6482 5.35917 17.0125 5.82883C16.6247 6.11539 16.2213 6.26798 15.7462 6.03054C15.5536 5.94402 15.3558 5.86945 15.1541 5.80725C14.6205 5.62117 14.4414 5.35917 14.6642 4.83816C15.0091 4.03132 15.1134 3.21258 15.0794 2.34471C15.0564 1.75671 15.2614 1.20369 15.5197 0.77794Z" fill="white"/>
<path d="M3.48117 31.5708C3.19994 31.9169 2.65598 32.205 2.03135 32.327C1.5133 32.4283 0.833167 31.9363 0.699213 31.3766C0.646951 31.1233 0.619437 30.8656 0.617064 30.6069C0.595602 30.0502 0.48755 29.5225 0.210021 29.032C-0.107473 28.4715 -0.0608481 27.9952 0.321773 27.6818C0.634086 27.425 1.27721 27.4734 1.66576 27.8307C1.99805 28.1351 2.31628 28.4663 2.47984 28.9069C2.64932 29.3721 2.98235 29.681 3.37534 29.9631C3.96518 30.3859 4.02291 30.8459 3.48117 31.5708Z" fill="white"/>
<path d="M18.4478 52.2933C18.2065 52.6134 17.8942 52.824 17.533 52.6737C16.9269 52.4228 16.4118 52.6342 15.879 52.8657C15.2588 53.1352 15.0405 53.025 14.848 52.3797C14.7489 52.027 14.7074 51.6605 14.7252 51.2945C14.7637 50.009 15.5563 49.4419 16.7974 49.8185C17.0461 49.8929 17.2733 49.8252 17.499 49.7173C18.1651 49.3995 18.7061 49.6428 18.82 50.3738C18.9314 51.0378 18.7991 51.72 18.4478 52.2933Z" fill="white"/>
<path d="M29.5671 30.1839C30.0392 30.5426 30.316 31.1693 30.689 31.7171C30.931 32.0737 31.1841 32.3922 31.5431 32.6431C32.1085 33.039 32.2343 33.6903 31.9131 34.3006C31.7066 34.6899 31.4572 34.777 31.0591 34.5984C30.6609 34.4197 30.2805 34.3081 29.8327 34.4495C29.7239 34.4862 29.6075 34.4934 29.495 34.4705C29.3825 34.4477 29.278 34.3955 29.1919 34.3192C29.1057 34.2429 29.0411 34.1452 29.0043 34.0359C28.9675 33.9266 28.96 33.8095 28.9824 33.6963C29.1408 32.8425 29.0216 32.0647 28.545 31.339C28.4708 31.2059 28.416 31.0628 28.3822 30.914C28.263 30.5114 28.4318 30.1653 28.7152 29.9353C28.9987 29.7053 29.2466 29.9777 29.5671 30.1839Z" fill="white"/>
<path d="M20.5586 25.9564C20.8828 25.5098 21.4297 25.4235 21.7479 25.882C22.2244 26.5635 22.8458 27.1297 23.567 27.5396C24.0014 27.7941 24.2005 28.2653 24.3648 28.7305C24.4573 28.9902 24.4522 29.2515 24.2568 29.4592C24.0725 29.6534 23.8334 29.5857 23.6159 29.512C23.4447 29.4511 23.2779 29.3787 23.1163 29.2954C22.8937 29.1803 22.6502 29.1117 22.4006 29.0937C22.1509 29.0757 21.9002 29.1086 21.6635 29.1905C21.033 29.3937 20.6074 29.1026 20.583 28.438C20.5638 27.9169 20.5394 27.413 20.3773 26.9106C20.3254 26.7491 20.3148 26.577 20.3465 26.4102C20.3782 26.2434 20.4511 26.0874 20.5586 25.9564Z" fill="white"/>
<path d="M25.4243 31.6279C25.2769 31.5103 25.1634 31.355 25.0959 31.1783C25.0283 31.0015 25.0091 30.8098 25.0402 30.6231C25.1361 29.9262 25.0777 29.2166 24.8693 28.545C24.8247 28.3671 24.8129 28.1824 24.8345 28.0002C24.8389 27.8532 24.8892 27.7114 24.9784 27.5948C25.0675 27.4783 25.191 27.393 25.3311 27.3511C25.6079 27.2618 25.8536 27.3794 25.9972 27.6183C26.5485 28.5115 27.2198 29.3243 27.7956 30.2003C28.0104 30.5397 28.106 30.9417 28.0672 31.3421C28.0339 31.7746 27.7808 31.9502 27.367 31.8803C26.8749 31.7961 26.3835 31.6838 25.8773 31.7314C25.7192 31.7461 25.5606 31.7099 25.4243 31.6279Z" fill="white"/>
<path d="M27.877 50.9318C27.507 51.4967 27.1562 51.7438 26.6588 51.7885C26.2762 51.8227 26.16 51.65 26.1985 51.3069C26.2098 51.2007 26.2301 51.0956 26.2592 50.9928C26.4546 50.3229 26.2251 49.8019 25.7234 49.3605C25.2216 48.9192 25.1668 48.5023 25.4828 47.9411C25.7448 47.4752 26.2066 47.4142 26.4879 47.8667C26.7839 48.3431 27.1325 48.4904 27.672 48.3818C28.1264 48.2902 28.5009 48.6832 28.492 49.1893C28.4772 49.9083 28.1175 50.5001 27.877 50.9318Z" fill="white"/>
<path d="M23.0763 49.1735C23.2653 48.9327 23.5069 48.7389 23.7824 48.6071C24.3175 48.3325 24.9206 48.5974 25.0006 49.1929C25.0694 49.7065 25.281 50.1091 25.6067 50.491C25.9116 50.8482 25.8516 51.4809 25.5142 51.987C25.3025 52.3041 24.6646 52.5497 24.296 52.4604C24.125 52.4187 24.0459 52.2825 23.9933 52.1433C23.7993 51.6485 23.5052 51.1996 23.1296 50.8252C22.7152 50.3949 22.7233 49.6372 23.0763 49.1735Z" fill="white"/>
<path d="M26.032 54.7241C25.753 55.1297 25.4969 55.4885 25.0788 55.6828C24.4993 55.9522 24.1293 55.8041 23.9073 55.2042C23.7407 54.7635 23.5713 54.3236 23.4077 53.8823C23.1376 53.1521 23.4358 52.7539 24.1877 52.8856C24.6657 52.9715 25.1585 52.8928 25.5865 52.6623C25.9106 52.5001 26.3103 52.2641 26.6404 52.5879C26.9704 52.9117 26.7588 53.298 26.6285 53.656C26.4856 54.0408 26.2844 54.4011 26.032 54.7241Z" fill="white"/>
</svg>
