<svg width="36" height="54" viewBox="0 0 36 54" fill="none" xmlns="http://www.w3.org/2000/svg">
<path d="M17.8959 0.000413465C8.04803 -0.0662009 2.09559e-05 7.92506 2.09559e-05 17.7729C-0.0053428 21.2582 1.01906 24.6675 2.94462 27.5726C5.18114 30.9477 6.66146 30.1299 6.48876 34.1711C6.48136 34.3401 6.47272 34.5091 6.46409 34.6769C6.25437 38.6244 5.72393 42.6953 6.97356 46.4516C7.3017 47.4385 7.92467 48.5216 9.03984 48.4809C9.30011 48.4667 9.55392 48.3946 9.78272 48.2697C10.0115 48.1449 10.2095 47.9705 10.3623 47.7592C10.9939 46.9216 11.2048 45.7855 11.132 44.7986C10.7619 39.7939 8.03569 41.8737 8.84617 36.1992C8.84617 36.1609 8.86097 36.1079 8.87454 36.0437C8.93756 35.7434 9.06459 35.4603 9.24697 35.2135C9.42935 34.9668 9.6628 34.7622 9.93139 34.6139C10.2 34.4656 10.4974 34.3769 10.8034 34.3539C11.1094 34.3309 11.4167 34.3742 11.7044 34.4808L11.7402 34.4943C12.6469 34.8212 13.281 35.739 13.1206 36.6901C12.3915 41.0213 12.0301 42.271 13.5832 43.2085C15.6667 44.4631 15.3583 36.8851 15.3633 36.5754C15.3656 36.4267 15.3982 36.2801 15.4591 36.1444C15.52 36.0087 15.6079 35.8869 15.7175 35.7863C15.827 35.6858 15.9559 35.6086 16.0963 35.5595C16.2367 35.5105 16.3856 35.4905 16.534 35.501H16.5537C16.8288 35.5194 17.0871 35.6404 17.2773 35.8401C17.4676 36.0397 17.576 36.3034 17.5813 36.5791C17.5813 36.6914 17.5591 37.978 18.0414 38.543C18.1648 38.6954 18.33 38.8085 18.5167 38.8683C18.7034 38.9281 18.9035 38.9321 19.0925 38.8798C19.8955 38.6331 19.8684 37.5142 19.6007 36.7333C19.3244 35.9278 19.3799 34.6633 20.0793 34.107C20.3094 33.9345 20.5942 33.8513 20.881 33.8729C21.1677 33.8944 21.4369 34.0192 21.6386 34.2242C22.4626 35.0347 22.0815 35.7748 21.7916 37.4155C20.9527 42.2265 20.2804 43.3183 19.9264 48.5784C19.84 49.8453 19.576 51.1516 20.2261 52.3199C20.4985 52.8299 20.9551 53.2168 21.5029 53.4017C21.8681 53.5169 22.2571 53.5351 22.6315 53.4546C23.0059 53.374 23.3529 53.1975 23.6384 52.9423C23.924 52.6871 24.1382 52.362 24.2602 51.999C24.3821 51.636 24.4076 51.2474 24.334 50.8716C24.112 49.6318 23.6494 48.4254 23.6703 47.1708C23.8171 38.2889 24.2279 36.9628 24.6757 35.1679C24.8102 34.6276 24.883 34.0774 25.385 33.8381L25.4072 33.8282C25.5918 33.7405 25.7953 33.7005 25.9993 33.7118C26.2033 33.7231 26.4012 33.7853 26.5749 33.8928C26.7487 34.0003 26.8927 34.1496 26.9938 34.3271C27.095 34.5046 27.1501 34.7046 27.154 34.9088C27.2058 38.0163 27.439 39.2042 26.4607 42.5497C26.1622 43.5724 25.8094 44.616 26.0574 45.688C26.1614 46.1845 26.4343 46.6296 26.8296 46.9475C28.0632 47.8949 29.5595 46.8427 29.9827 45.5745C30.3404 44.4976 30.148 43.3257 30.0135 42.1982C29.6064 38.7762 29.5003 40.0677 30.243 36.7025C30.2985 36.4558 30.3663 36.1585 30.4329 35.8316C31.2548 32.0992 32.459 28.4614 34.0264 24.9759C35.2204 22.2791 35.7247 19.3276 35.4939 16.3874C35.2631 13.4471 34.3044 10.6105 32.7043 8.133C31.1042 5.65552 28.9129 3.61501 26.3278 2.19532C23.7427 0.775621 20.8451 0.0213355 17.8959 0.000413465ZM10.2475 43.7858C10.2475 43.7858 11.5934 47.4496 8.93992 48.0479C8.93992 48.0479 10.4721 47.0006 10.2475 43.7858ZM12.9898 39.9444L13.714 42.815C12.7061 42.155 12.9898 39.9444 12.9898 39.9444ZM19.3577 36.9578C19.3577 36.9578 19.8943 38.1051 18.9716 38.6651C18.9716 38.6651 19.4909 38.0175 19.3577 36.9578ZM21.8693 52.7849C21.8693 52.7849 23.5519 52.3359 23.4397 49.9069C23.4384 49.9069 24.7103 52.6357 21.8693 52.7849ZM26.9838 42.815C26.7593 45.5807 27.8806 46.7761 27.8806 46.7761C25.5627 46.0285 26.9838 42.815 26.9838 42.815Z" fill="white"/>
<g clip-path="url(#clip0_242:716)">
<path d="M17.7743 4.67743C10.5418 4.67743 4.67749 10.5417 4.67749 17.7742C4.67749 25.0067 10.5418 30.871 17.7743 30.871C25.0067 30.871 30.871 25.0067 30.871 17.7742C30.871 10.5417 25.0067 4.67743 17.7743 4.67743ZM24.0683 14.5497C24.0771 14.6871 24.0771 14.8304 24.0771 14.9707C24.0771 19.2622 20.8087 24.2057 14.8363 24.2057C12.9945 24.2057 11.2873 23.6707 9.84896 22.7498C10.1121 22.779 10.3635 22.7907 10.6324 22.7907C12.1526 22.7907 13.55 22.2762 14.6638 21.4051C13.2372 21.3758 12.0386 20.4403 11.6293 19.154C12.1292 19.2271 12.5794 19.2271 13.0939 19.0956C12.3594 18.9463 11.6991 18.5474 11.2253 17.9665C10.7516 17.3856 10.4935 16.6587 10.495 15.9091V15.8682C10.9248 16.1108 11.4305 16.2599 11.9596 16.2804C11.5148 15.9839 11.15 15.5823 10.8976 15.1111C10.6452 14.6399 10.5129 14.1137 10.5126 13.5791C10.5126 12.974 10.6704 12.4215 10.954 11.942C11.7693 12.9458 12.7868 13.7667 13.9401 14.3514C15.0935 14.9361 16.357 15.2716 17.6486 15.3361C17.1896 13.1289 18.8384 11.3428 20.8204 11.3428C21.7559 11.3428 22.5979 11.7345 23.1913 12.3659C23.9251 12.2285 24.6267 11.9537 25.2523 11.5854C25.0096 12.3367 24.501 12.9711 23.8257 13.3716C24.4805 13.3014 25.112 13.1202 25.6966 12.8658C25.2552 13.5148 24.7027 14.0907 24.0683 14.5497Z" fill="black"/>
</g>
<defs>
<clipPath id="clip0_242:716">
<rect width="26.1935" height="26.1935" fill="white" transform="translate(4.67749 4.67743)"/>
</clipPath>
</defs>
</svg>
