<svg xmlns="http://www.w3.org/2000/svg" xmlns:xlink="http://www.w3.org/1999/xlink" width="16" height="16.004" viewBox="0 0 16 16.004">
  <defs>
    <linearGradient id="linear-gradient" y1="0.5" x2="1" y2="0.5" gradientUnits="objectBoundingBox">
      <stop offset="0" stop-color="#8c91f9"/>
      <stop offset="1" stop-color="#5056ca"/>
    </linearGradient>
  </defs>
  <path id="_3D" data-name="3D" d="M-156.127-1370.927v-7.206a.3.3,0,0,1,.161-.273l6.929-3.57a.287.287,0,0,1,.411.274v7.113a.311.311,0,0,1-.139.262l-6.928,3.667a.267.267,0,0,1-.143.042A.3.3,0,0,1-156.127-1370.927Zm-1.431.261-6.929-3.666a.311.311,0,0,1-.139-.262v-7.109a.288.288,0,0,1,.412-.274l6.925,3.57a.3.3,0,0,1,.161.273v7.206a.293.293,0,0,1-.282.306A.272.272,0,0,1-157.558-1370.666Zm.685-8.633-6.875-3.62a.323.323,0,0,1,.015-.569l6.894-3.09a.537.537,0,0,1,.435,0l6.89,3.09a.323.323,0,0,1,.015.569l-6.875,3.62a.527.527,0,0,1-.25.063A.527.527,0,0,1-156.873-1379.3Z" transform="translate(164.625 1386.623)" fill="url(#linear-gradient)"/>
</svg>
