<svg width="16" height="16" viewBox="0 0 16 16" fill="none" xmlns="http://www.w3.org/2000/svg">
<path d="M14.1525 5.05386C13.8154 5.27114 13.4784 5.4808 13.1337 5.67553C11.7182 6.49192 9.561 7.7578 8.50509 8.35691C8.47184 8.3758 8.44402 8.40294 8.42432 8.43572C8.40462 8.46849 8.39371 8.50579 8.39264 8.54401V15.6679C8.39324 15.7062 8.40381 15.7436 8.42332 15.7765C8.44283 15.8095 8.4706 15.8367 8.50387 15.8556C8.53715 15.8745 8.57477 15.8844 8.61304 15.8843C8.65131 15.8842 8.68888 15.8741 8.72205 15.855L14.8863 12.2972C14.9198 12.2785 14.9478 12.2514 14.9678 12.2186C14.9877 12.1858 14.9988 12.1484 15 12.1101V4.9789C14.9612 4.58944 14.467 4.85183 14.1525 5.05386Z" fill="url(#paint0_linear)"/>
<path d="M2.52064 4.41725C2.52064 4.41725 6.65501 6.79146 7.92851 7.52557C7.96176 7.54401 7.99914 7.55369 8.03715 7.55369C8.07517 7.55369 8.11255 7.54401 8.14579 7.52557L14.31 3.96776C14.3426 3.94851 14.3695 3.92112 14.3882 3.88828C14.407 3.85545 14.4168 3.8183 14.4168 3.7805C14.4168 3.74271 14.407 3.70556 14.3882 3.67272C14.3695 3.63989 14.3426 3.61249 14.31 3.59324L8.14548 0.0281231C8.11224 0.00968286 8.07485 0 8.03684 0C7.99883 0 7.96144 0.00968286 7.92819 0.0281231L1.74904 3.59324C1.28462 3.93123 2.3634 4.26001 2.52064 4.41725Z" fill="url(#paint1_linear)"/>
<path d="M1.84625 5.05386C2.10038 5.21873 2.36309 5.38328 2.62516 5.53321C4.02573 6.34198 6.385 7.72032 7.49364 8.35691C7.52689 8.3758 7.55471 8.40294 7.57441 8.43572C7.59411 8.46849 7.60502 8.50579 7.6061 8.54401V15.6679C7.6055 15.7062 7.59492 15.7436 7.57542 15.7765C7.55591 15.8095 7.52814 15.8367 7.49487 15.8556C7.4616 15.8745 7.42396 15.8844 7.38569 15.8843C7.34743 15.8842 7.30985 15.8741 7.27668 15.855L1.11245 12.2972C1.0792 12.2783 1.05139 12.2512 1.03169 12.2184C1.01199 12.1856 1.00107 12.1483 1 12.1101V4.9789C1.03748 4.58944 1.53177 4.85183 1.84625 5.05386Z" fill="url(#paint2_linear)"/>
<defs>
<linearGradient id="paint0_linear" x1="14.9736" y1="12.2193" x2="7.94764" y2="10.7852" gradientUnits="userSpaceOnUse">
<stop stop-color="#8C91F9"/>
<stop offset="1" stop-color="#5056CA"/>
</linearGradient>
<linearGradient id="paint1_linear" x1="8.02529" y1="0" x2="8.02529" y2="7.55369" gradientUnits="userSpaceOnUse">
<stop stop-color="#8C91F9"/>
<stop offset="0.924" stop-color="#5056CA"/>
</linearGradient>
<linearGradient id="paint2_linear" x1="1" y1="12.5969" x2="8.18086" y2="10.9909" gradientUnits="userSpaceOnUse">
<stop stop-color="#8C91F9"/>
<stop offset="0.983" stop-color="#5056CA"/>
</linearGradient>
</defs>
</svg>
