<svg id="dark-logo" xmlns="http://www.w3.org/2000/svg" xmlns:xlink="http://www.w3.org/1999/xlink" width="119.475" height="50" viewBox="0 0 119.475 50">
  <defs>
    <linearGradient id="linear-gradient" x1="0.996" y1="0.67" x2="0.005" y2="0.33" gradientUnits="objectBoundingBox">
      <stop offset="0.001" stop-color="#5056ca"/>
      <stop offset="0.353" stop-color="#5258cb"/>
      <stop offset="0.502" stop-color="#595fcd"/>
      <stop offset="0.613" stop-color="#666bd1"/>
      <stop offset="0.705" stop-color="#777cd6"/>
      <stop offset="0.786" stop-color="#8e92dd"/>
      <stop offset="0.858" stop-color="#abaee6"/>
      <stop offset="0.924" stop-color="#cdcff0"/>
      <stop offset="0.983" stop-color="#f3f3fb"/>
      <stop offset="1" stop-color="#fff"/>
    </linearGradient>
    <linearGradient id="linear-gradient-2" x1="0.5" y1="0" x2="0.5" y2="1" xlink:href="#linear-gradient"/>
    <linearGradient id="linear-gradient-3" x1="0" y1="0.704" x2="1" y2="0.328" xlink:href="#linear-gradient"/>
  </defs>
  <g id="Group_5560" data-name="Group 5560">
    <g id="Group_5559" data-name="Group 5559">
      <path id="Path_11885" data-name="Path 11885" d="M302.732,401.787c-1.061.684-2.122,1.344-3.207,1.957-4.456,2.57-11.247,6.555-14.571,8.441a.7.7,0,0,0-.354.589V435.2a.692.692,0,0,0,1.037.589l19.405-11.2A.7.7,0,0,0,305.4,424V401.551C305.278,400.325,303.722,401.151,302.732,401.787Zm-1.155,20.8-11.247,6.484a.69.69,0,0,1-.943-.943L300.633,408.6a.682.682,0,0,1,1.273.354V421.97A.684.684,0,0,1,301.576,422.583Z" transform="translate(-261.328 -385.878)" fill="url(#linear-gradient)"/>
      <path id="Path_11886" data-name="Path 11886" d="M197.153,351.03s13.015,7.474,17.024,9.785a.705.705,0,0,0,.684,0l19.405-11.2a.685.685,0,0,0,0-1.179L214.86,337.213a.705.705,0,0,0-.684,0l-19.452,11.223C193.262,349.5,196.658,350.535,197.153,351.03Zm17.707-9.785,11.247,6.508a.682.682,0,0,1-.354,1.273l-22.517.024a.685.685,0,0,1-.354-1.273l11.27-6.508A.6.6,0,0,1,214.86,341.245Z" transform="translate(-192.366 -337.125)" fill="url(#linear-gradient-2)"/>
      <path id="Path_11887" data-name="Path 11887" d="M188.564,401.787c.8.519,1.627,1.037,2.452,1.509,4.409,2.546,11.836,6.885,15.326,8.889a.7.7,0,0,1,.354.589V435.2a.692.692,0,0,1-1.037.589l-19.405-11.2A.7.7,0,0,1,185.9,424V401.551C186.018,400.325,187.574,401.151,188.564,401.787Zm1.155,20.8,11.247,6.484a.69.69,0,0,0,.943-.943L190.663,408.6a.682.682,0,0,0-1.273.354V421.97A.684.684,0,0,0,189.72,422.583Z" transform="translate(-185.9 -385.878)" fill="url(#linear-gradient-3)"/>
    </g>
  </g>
  <g id="Group_5561" data-name="Group 5561" transform="translate(51.024 7.351)">
    <path id="Path_11888" data-name="Path 11888" d="M420.2,374.878H406.969l1.037-6.578h27.257L416.8,389.827h14.477l-1.014,6.484H402.3Z" transform="translate(-402.3 -368.3)" fill="#5056ca"/>
    <path id="Path_11889" data-name="Path 11889" d="M537.856,368.3h8.653l-4.433,28.011H533.4Z" transform="translate(-502.489 -368.3)" fill="#5056ca"/>
    <path id="Path_11890" data-name="Path 11890" d="M607.531,376.252a6.561,6.561,0,0,0-1.155-5.612c-1.2-1.485-3.4-2.24-6.626-2.24H585.933L581.5,396.411h13.7a14.412,14.412,0,0,0,5.918-1.179,10.4,10.4,0,0,0,4.1-3.16,7.894,7.894,0,0,0,1.627-4.2,5.35,5.35,0,0,0-2.429-5.234,9.267,9.267,0,0,0-2-.943c.236-.094.472-.189.707-.307A7.254,7.254,0,0,0,607.531,376.252Zm-8.983,11.2a2.7,2.7,0,0,1-1.344,1.886,5.558,5.558,0,0,1-2.759.613h-3.207l.755-4.834h3.82a3.158,3.158,0,0,1,2.287.66A1.654,1.654,0,0,1,598.547,387.451Zm.9-10.327a2.721,2.721,0,0,1-1.273,1.839,4.924,4.924,0,0,1-2.641.613h-2.664l.825-5.211h2.971a3.166,3.166,0,0,1,2.311.755A2.111,2.111,0,0,1,599.443,377.124Z" transform="translate(-539.248 -368.376)" fill="#5056ca"/>
  </g>
  <g id="Group_5562" data-name="Group 5562" transform="translate(51.212 40.03)">
    <path id="Path_11891" data-name="Path 11891" d="M404.939,508.7l-.778,4.928H403.1L404.161,507h1.391l1.32,4.951L409.985,507h1.344l-1.061,6.626h-1.085l.778-4.951-2.994,4.951h-.825Z" transform="translate(-403.1 -506.976)" fill="#33333f"/>
    <path id="Path_11892" data-name="Path 11892" d="M444.09,507h4.433l-.141.967h-3.325l-.307,1.91H447.7l-.165.99h-2.924l-.283,1.792h3.4l-.141.99H443.1Z" transform="translate(-433.669 -506.976)" fill="#33333f"/>
    <path id="Path_11893" data-name="Path 11893" d="M472.256,513.584a2.367,2.367,0,0,1-.92-.8,1.74,1.74,0,0,1-.212-1.155h1.085a1.2,1.2,0,0,0,.424.967,2,2,0,0,0,1.226.377,2.875,2.875,0,0,0,1.368-.283,1.147,1.147,0,0,0,.637-.778.648.648,0,0,0-.33-.684,3.148,3.148,0,0,0-1.368-.307,3.374,3.374,0,0,1-1.839-.589,1.326,1.326,0,0,1-.424-1.32,2,2,0,0,1,.5-.967,2.847,2.847,0,0,1,1.061-.684,3.84,3.84,0,0,1,1.391-.259,2.98,2.98,0,0,1,1.415.307,2.06,2.06,0,0,1,.872.8,2.214,2.214,0,0,1,.283,1.108h-1.132a1.2,1.2,0,0,0-.424-.872,1.653,1.653,0,0,0-1.155-.354,2.467,2.467,0,0,0-.849.141,1.344,1.344,0,0,0-.589.377.848.848,0,0,0-.259.5.548.548,0,0,0,.212.589,1.92,1.92,0,0,0,.92.283l.236.024a3.936,3.936,0,0,1,2.146.613,1.341,1.341,0,0,1,.5,1.3,1.791,1.791,0,0,1-.5,1.014,2.887,2.887,0,0,1-1.132.755,4.356,4.356,0,0,1-1.627.283A4.858,4.858,0,0,1,472.256,513.584Z" transform="translate(-455.067 -507.053)" fill="#33333f"/>
    <path id="Path_11894" data-name="Path 11894" d="M504.816,513.584a2.367,2.367,0,0,1-.92-.8,1.9,1.9,0,0,1-.236-1.155h1.085a1.2,1.2,0,0,0,.424.967,2,2,0,0,0,1.226.377,2.875,2.875,0,0,0,1.368-.283,1.147,1.147,0,0,0,.637-.778.648.648,0,0,0-.33-.684,3.148,3.148,0,0,0-1.368-.307,3.374,3.374,0,0,1-1.839-.589,1.326,1.326,0,0,1-.424-1.32,2,2,0,0,1,.5-.967,2.847,2.847,0,0,1,1.061-.684,3.84,3.84,0,0,1,1.391-.259,2.98,2.98,0,0,1,1.415.307,2.061,2.061,0,0,1,.872.8,2.214,2.214,0,0,1,.283,1.108h-1.132a1.2,1.2,0,0,0-.424-.872,1.653,1.653,0,0,0-1.155-.354,2.467,2.467,0,0,0-.849.141,1.344,1.344,0,0,0-.589.377.848.848,0,0,0-.259.5.548.548,0,0,0,.212.589,1.92,1.92,0,0,0,.92.283l.236.024a3.936,3.936,0,0,1,2.146.613,1.341,1.341,0,0,1,.5,1.3,1.792,1.792,0,0,1-.5,1.014,2.888,2.888,0,0,1-1.132.755,4.356,4.356,0,0,1-1.627.283A4.874,4.874,0,0,1,504.816,513.584Z" transform="translate(-479.941 -507.053)" fill="#33333f"/>
    <path id="Path_11895" data-name="Path 11895" d="M537.714,507h4.433l-.141.967h-3.348l-.307,1.91H541.3l-.165.99h-2.924l-.283,1.792h3.4l-.142.99H536.7Z" transform="translate(-505.199 -506.976)" fill="#33333f"/>
    <path id="Path_11896" data-name="Path 11896" d="M567.263,508.7l-.778,4.928H565.4L566.461,507h1.085l2.782,5.069.8-5.069h1.061l-1.061,6.626h-1.155Z" transform="translate(-527.132 -506.976)" fill="#33333f"/>
    <path id="Path_11897" data-name="Path 11897" d="M603.846,510.3l-.142.849H605.9a3.518,3.518,0,0,1-.424.707,2.527,2.527,0,0,1-.9.684,2.351,2.351,0,0,1-1.061.259,1.86,1.86,0,0,1-1.108-.307,1.6,1.6,0,0,1-.637-.872,2.451,2.451,0,0,1-.047-1.25,3.411,3.411,0,0,1,.5-1.2,2.649,2.649,0,0,1,.92-.849,2.4,2.4,0,0,1,1.2-.307,2.02,2.02,0,0,1,.967.212,1.31,1.31,0,0,1,.566.566,1.588,1.588,0,0,1,.189.707h1.108a2.3,2.3,0,0,0-.259-1.155,2.432,2.432,0,0,0-.872-.967,2.676,2.676,0,0,0-1.485-.377,3.811,3.811,0,0,0-1.839.472,4.237,4.237,0,0,0-1.415,1.25,3.874,3.874,0,0,0-.707,1.674,3.3,3.3,0,0,0,.118,1.745,2.546,2.546,0,0,0,.967,1.25,2.91,2.91,0,0,0,1.674.448,3.6,3.6,0,0,0,1.745-.424,4.234,4.234,0,0,0,1.32-1.085,3.963,3.963,0,0,0,.731-1.438l.094-.566h-3.4Z" transform="translate(-553.977 -506.976)" fill="#33333f"/>
    <path id="Path_11898" data-name="Path 11898" d="M636.438,507h4.433l-.141.943H637.4l-.307,1.91h2.924l-.165.99h-2.924l-.283,1.792h3.372l-.141.99H635.4Z" transform="translate(-580.627 -506.976)" fill="#33333f"/>
    <path id="Path_11899" data-name="Path 11899" d="M669.523,509a1.637,1.637,0,0,0-.141-1.061,1.666,1.666,0,0,0-.754-.755,2.705,2.705,0,0,0-1.3-.283h-2.169l-1.061,6.626h1.108l.424-2.641,2.169,2.641h1.415L667.024,511a3.01,3.01,0,0,0,1.7-.613A2.161,2.161,0,0,0,669.523,509Zm-1.155,0a1.225,1.225,0,0,1-.519.92,1.844,1.844,0,0,1-1.132.33h-.99l.377-2.381h1.014a1.434,1.434,0,0,1,.967.259A.933.933,0,0,1,668.368,509Z" transform="translate(-602.56 -506.9)" fill="#33333f"/>
  </g>
</svg>
