<svg xmlns="http://www.w3.org/2000/svg" xmlns:xlink="http://www.w3.org/1999/xlink" width="22.502" height="24" viewBox="0 0 22.502 24">
  <defs>
    <linearGradient id="linear-gradient" y1="0.5" x2="1" y2="0.5" gradientUnits="objectBoundingBox">
      <stop offset="0" stop-color="#8c91f9"/>
      <stop offset="1" stop-color="#5056ca"/>
    </linearGradient>
  </defs>
  <path id="shield" d="M22.244,3.924l-9-3.75a2.257,2.257,0,0,0-1.73,0l-9,3.75A2.248,2.248,0,0,0,1.125,6c0,9.306,5.368,15.737,10.384,17.828a2.257,2.257,0,0,0,1.73,0C17.256,22.156,23.627,16.376,23.627,6A2.251,2.251,0,0,0,22.244,3.924Zm-9.863,17,0-17.861L20.622,6.5c-.155,7.1-3.849,12.24-8.241,14.425Z" transform="translate(-1.125 -0.002)" fill="url(#linear-gradient)"/>
</svg>
