<svg width="30" height="30" viewBox="0 0 30 30" fill="none" xmlns="http://www.w3.org/2000/svg">
<path d="M29.7002 8.05576L28.1973 6.55296C27.9971 6.35228 27.7664 6.25226 27.5056 6.25226C27.2454 6.25226 27.0148 6.35228 26.8146 6.55296L15.0002 18.3667L3.18627 6.55328C2.9859 6.3526 2.75532 6.25257 2.49483 6.25257C2.23424 6.25257 2.00366 6.3526 1.8034 6.55328L0.300706 8.05618C0.100025 8.25644 0 8.48703 0 8.74762C0 9.008 0.100341 9.23858 0.300706 9.43884L14.3087 23.4472C14.509 23.6475 14.7397 23.7477 15.0002 23.7477C15.2606 23.7477 15.4909 23.6475 15.6911 23.4472L29.7002 9.43884C29.9005 9.23848 30 9.00789 30 8.74762C30 8.48703 29.9005 8.25644 29.7002 8.05576Z" fill="#3C4242"/>
</svg>
