<svg xmlns="http://www.w3.org/2000/svg" width="15" height="15" viewBox="0 0 15 15">
  <g id="copy" transform="translate(-2.25 -2.25)">
    <path id="Path_8695" data-name="Path 8695" d="M19.714,10.071v9.643H10.071V10.071h9.643m0-1.071H10.071A1.071,1.071,0,0,0,9,10.071v9.643a1.071,1.071,0,0,0,1.071,1.071h9.643a1.071,1.071,0,0,0,1.071-1.071V10.071A1.071,1.071,0,0,0,19.714,9Z" transform="translate(-3.536 -3.536)" fill="#2b7ad5"/>
    <path id="Path_8696" data-name="Path 8696" d="M3.321,10.821H2.25v-7.5A1.071,1.071,0,0,1,3.321,2.25h7.5V3.321h-7.5Z" fill="#2b7ad5"/>
  </g>
</svg>
