<svg width="12" height="3" viewBox="0 0 12 3" fill="none" xmlns="http://www.w3.org/2000/svg">
<g clip-path="url(#clip0_1088_345)">
<path d="M6 0C5.70333 0 5.41332 0.0879731 5.16665 0.252795C4.91997 0.417617 4.72771 0.651886 4.61418 0.925975C4.50065 1.20006 4.47095 1.50166 4.52882 1.79263C4.5867 2.08361 4.72956 2.35088 4.93934 2.56066C5.14912 2.77044 5.41639 2.9133 5.70737 2.97118C5.99834 3.02906 6.29994 2.99935 6.57403 2.88582C6.84812 2.77229 7.08238 2.58003 7.24721 2.33335C7.41203 2.08668 7.5 1.79667 7.5 1.5C7.5 1.10218 7.34197 0.720644 7.06066 0.43934C6.77936 0.158035 6.39783 0 6 0ZM10.5 0C10.2033 0 9.91332 0.0879731 9.66665 0.252795C9.41997 0.417617 9.22771 0.651886 9.11418 0.925975C9.00065 1.20006 8.97095 1.50166 9.02882 1.79263C9.0867 2.08361 9.22956 2.35088 9.43934 2.56066C9.64912 2.77044 9.91639 2.9133 10.2074 2.97118C10.4983 3.02906 10.7999 2.99935 11.074 2.88582C11.3481 2.77229 11.5824 2.58003 11.7472 2.33335C11.912 2.08668 12 1.79667 12 1.5C12 1.10218 11.842 0.720644 11.5607 0.43934C11.2794 0.158035 10.8978 0 10.5 0ZM1.5 0C1.20333 0 0.913319 0.0879731 0.666645 0.252795C0.419972 0.417617 0.227713 0.651886 0.114181 0.925975C0.000649929 1.20006 -0.0290551 1.50166 0.0288228 1.79263C0.0867006 2.08361 0.229562 2.35088 0.43934 2.56066C0.649119 2.77044 0.916394 2.9133 1.20737 2.97118C1.49834 3.02906 1.79994 2.99935 2.07403 2.88582C2.34812 2.77229 2.58238 2.58003 2.74721 2.33335C2.91203 2.08668 3 1.79667 3 1.5C3 1.10218 2.84197 0.720644 2.56066 0.43934C2.27936 0.158035 1.89783 0 1.5 0V0Z" fill="#2B7AD5"/>
</g>
<defs>
<clipPath id="clip0_1088_345">
<rect width="12" height="3" fill="white"/>
</clipPath>
</defs>
</svg>
