<svg width="16" height="16" viewBox="0 0 16 16" fill="none" xmlns="http://www.w3.org/2000/svg">
<g clip-path="url(#clip0_1087_336)">
<path d="M8 0C6.41775 0 4.87103 0.469192 3.55544 1.34824C2.23985 2.22729 1.21447 3.47672 0.608967 4.93853C0.00346625 6.40034 -0.15496 8.00887 0.153721 9.56072C0.462403 11.1126 1.22433 12.538 2.34315 13.6569C3.46197 14.7757 4.88743 15.5376 6.43928 15.8463C7.99113 16.155 9.59966 15.9965 11.0615 15.391C12.5233 14.7855 13.7727 13.7602 14.6518 12.4446C15.5308 11.129 16 9.58225 16 8C16 5.87827 15.1571 3.84344 13.6569 2.34315C12.1566 0.842855 10.1217 0 8 0V0ZM8 14.857C6.64382 14.857 5.31809 14.4548 4.19046 13.7014C3.06283 12.9479 2.18395 11.877 1.66496 10.6241C1.14597 9.37111 1.01018 7.99239 1.27476 6.66227C1.53934 5.33214 2.1924 4.11034 3.15137 3.15137C4.11034 2.1924 5.33214 1.53933 6.66227 1.27476C7.9924 1.01018 9.37111 1.14597 10.6241 1.66496C11.877 2.18395 12.9479 3.06283 13.7014 4.19045C14.4548 5.31808 14.857 6.64381 14.857 8C14.857 9.81859 14.1346 11.5627 12.8486 12.8486C11.5627 14.1346 9.81859 14.857 8 14.857V14.857Z" fill="#2B7AD5"/>
<path d="M5.42843 5.1426C5.10113 5.14537 4.78488 5.26137 4.53341 5.47088C4.28194 5.6804 4.11076 5.97051 4.04894 6.29193C3.98712 6.61336 4.03849 6.94627 4.19431 7.23411C4.35013 7.52196 4.60079 7.74698 4.90372 7.87096C5.20664 7.99494 5.54315 8.01023 5.85606 7.91422C6.16898 7.81822 6.43901 7.61684 6.62028 7.34431C6.80156 7.07178 6.88289 6.74489 6.85047 6.41919C6.81805 6.09348 6.67387 5.78905 6.44243 5.5576C6.30902 5.42512 6.15079 5.32027 5.97678 5.24905C5.80278 5.17784 5.61644 5.14166 5.42843 5.1426V5.1426Z" fill="#2B7AD5"/>
<path d="M10.573 5.1426C10.2457 5.14537 9.92941 5.26137 9.67794 5.47088C9.42647 5.6804 9.25529 5.97051 9.19347 6.29193C9.13166 6.61336 9.18302 6.94627 9.33884 7.23411C9.49466 7.52196 9.74532 7.74698 10.0482 7.87096C10.3512 7.99494 10.6877 8.01023 11.0006 7.91422C11.3135 7.81822 11.5835 7.61684 11.7648 7.34431C11.9461 7.07178 12.0274 6.74489 11.995 6.41919C11.9626 6.09348 11.8184 5.78905 11.587 5.5576C11.4536 5.42512 11.2953 5.32027 11.1213 5.24905C10.9473 5.17784 10.761 5.14166 10.573 5.1426V5.1426Z" fill="#2B7AD5"/>
<path d="M7.99994 12.5713C8.78869 12.57 9.56368 12.3646 10.2495 11.975C10.9354 11.5855 11.5088 11.0251 11.9139 10.3483L10.9369 9.77734C10.6319 10.2836 10.2012 10.7024 9.68658 10.9931C9.17198 11.2838 8.59098 11.4366 7.99994 11.4366C7.4089 11.4366 6.82789 11.2838 6.3133 10.9931C5.7987 10.7024 5.36798 10.2836 5.06294 9.77734L4.08594 10.3483C4.49119 11.0252 5.06473 11.5857 5.75078 11.9753C6.43682 12.3648 7.21201 12.5702 8.00094 12.5713H7.99994Z" fill="#2B7AD5"/>
</g>
<defs>
<clipPath id="clip0_1087_336">
<rect width="16" height="16" fill="white"/>
</clipPath>
</defs>
</svg>
