<svg xmlns="http://www.w3.org/2000/svg" width="16" height="16" viewBox="0 0 16 16">
  <g id="face-satisfied" transform="translate(-2.25 -2.25)">
    <path id="Path_8685" data-name="Path 8685" d="M10.25,2.25a8,8,0,1,0,8,8A8,8,0,0,0,10.25,2.25Zm0,14.857a6.857,6.857,0,1,1,6.857-6.857A6.857,6.857,0,0,1,10.25,17.107Z" transform="translate(0 0)" fill="#fff"/>
    <path id="Path_8686" data-name="Path 8686" d="M11.554,12.375a1.417,1.417,0,1,0,1.014.415A1.429,1.429,0,0,0,11.554,12.375Z" transform="translate(-3.875 -4.982)" fill="#fff"/>
    <path id="Path_8687" data-name="Path 8687" d="M21.679,12.375a1.417,1.417,0,1,0,1.014.415A1.429,1.429,0,0,0,21.679,12.375Z" transform="translate(-8.857 -4.982)" fill="#fff"/>
    <path id="Path_8688" data-name="Path 8688" d="M14.208,24.293a4.571,4.571,0,0,0,3.914-2.223l-.977-.571a3.429,3.429,0,0,1-5.874,0l-.977.571a4.571,4.571,0,0,0,3.915,2.223Z" transform="translate(-3.958 -9.472)" fill="#fff"/>
  </g>
</svg>
