<svg xmlns="http://www.w3.org/2000/svg" width="16" height="14.892" viewBox="0 0 16 14.892">
  <g id="Forward" transform="translate(-0.003 -0.676)">
    <path id="reply" d="M1.736,18.27a.552.552,0,0,0,.485-.276,8.379,8.379,0,0,1,7.171-4.137v3.31a.555.555,0,0,0,.943.392l6.619-6.619a.552.552,0,0,0,0-.783L10.336,3.537a.555.555,0,0,0-.943.391V7.3a9.482,9.482,0,0,0-8.274,9.377,9.014,9.014,0,0,0,.072,1.1.552.552,0,0,0,.436.475Zm7.932-5.516a9.72,9.72,0,0,0-7.447,3.31A8.445,8.445,0,0,1,9.994,8.341a.552.552,0,0,0,.5-.552V5.257l5.29,5.29-5.29,5.29V13.306a.552.552,0,0,0-.552-.552h-.3Z" transform="translate(-1.115 -2.702)" fill="#2b7ad5"/>
  </g>
</svg>
