<svg width="12" height="12" viewBox="0 0 12 12" fill="none" xmlns="http://www.w3.org/2000/svg">
<g clip-path="url(#clip0)">
<path d="M10.2426 1.75725C12.5856 4.10025 12.5856 7.89958 10.2426 10.2426C7.89958 12.5856 4.10058 12.5856 1.75725 10.2426C-0.58575 7.89958 -0.58575 4.10025 1.75725 1.75725C4.10025 -0.58575 7.89925 -0.58575 10.2426 1.75725Z" fill="#FFCB4C"/>
<path d="M6.42696 6.42744C5.2623 7.59211 4.35396 8.22877 3.21196 8.99844C2.95163 9.17477 2.5693 9.64144 3.2123 10.2848C4.49796 11.5704 7.58263 11.7004 9.6413 9.64177C11.7003 7.58277 11.5706 4.49844 10.2843 3.21244C9.6413 2.56911 9.1743 2.95177 8.9983 3.21211C8.22897 4.35377 7.59196 5.26244 6.42696 6.42744Z" fill="#65471B"/>
<path d="M3.85547 9.6418C3.85547 9.6418 5.14147 8.9988 7.07014 7.0698C8.99914 5.14114 9.6418 3.85547 9.6418 3.85547C9.6418 3.85547 10.2845 5.78447 8.03447 8.03447C5.78447 10.2848 3.85547 9.6418 3.85547 9.6418Z" fill="white"/>
<path d="M8.09806 2.21882C8.05106 2.22548 7.30706 2.33782 6.4504 2.76148C6.42973 2.72782 6.4064 2.69548 6.3774 2.66648C6.2904 2.57948 6.17906 2.53348 6.0654 2.52415C6.36773 1.97648 6.72473 1.61182 6.7314 1.60548C6.86073 1.47548 6.86073 1.26415 6.7304 1.13448C6.60006 1.00482 6.38973 1.00448 6.25973 1.13448C6.20773 1.18648 4.98373 2.42815 4.98373 3.96282C4.98373 4.09782 5.06473 4.21915 5.1894 4.27082C5.31373 4.32248 5.4574 4.29382 5.55273 4.19848C6.6344 3.11682 8.1774 2.88082 8.19306 2.87848C8.26706 2.86782 8.33173 2.83348 8.38073 2.78448C8.4524 2.71282 8.49073 2.60915 8.4754 2.50115C8.4484 2.31882 8.28006 2.19282 8.09806 2.21882ZM3.9024 5.04382C2.36773 5.04382 1.12606 6.26782 1.07406 6.31982C0.944063 6.44982 0.944063 6.66048 1.07406 6.79048C1.20373 6.92082 1.41473 6.92115 1.5454 6.79148C1.55173 6.78515 1.9164 6.42782 2.46406 6.12582C2.47373 6.23948 2.5194 6.35082 2.6064 6.43782C2.6354 6.46682 2.66773 6.49015 2.7014 6.51082C2.2774 7.36715 2.16506 8.11148 2.1584 8.15848C2.1324 8.34082 2.25906 8.50948 2.44106 8.53548C2.5494 8.55115 2.6524 8.51282 2.72406 8.44115C2.77306 8.39215 2.8074 8.32715 2.81806 8.25282C2.8204 8.23748 3.05073 6.70048 4.13806 5.61315C4.2334 5.51782 4.26173 5.37448 4.2104 5.24982C4.15873 5.12482 4.0374 5.04382 3.9024 5.04382Z" fill="#65471B"/>
<path d="M10.0334 4.01881C10.9471 4.13015 11.7781 3.47948 11.8891 2.56548C12.0004 1.65181 11.3501 0.820814 10.4361 0.709481C9.5224 0.598481 6.9664 1.63048 6.92606 1.96148C6.88573 2.29215 9.11973 3.90715 10.0334 4.01881ZM4.05206 10.0001C4.1634 10.9138 3.51273 11.7448 2.59873 11.8558C1.68506 11.9671 0.854063 11.3168 0.74273 10.4028C0.631397 9.48881 1.66373 6.93281 1.99473 6.89248C2.3254 6.85248 3.9404 9.08648 4.05206 10.0001Z" fill="#64AADD"/>
</g>
<defs>
<clipPath id="clip0">
<rect width="12" height="12" fill="white"/>
</clipPath>
</defs>
</svg>
