<svg xmlns="http://www.w3.org/2000/svg" width="32.308" height="30" viewBox="0 0 32.308 30">
  <g id="thread_image" data-name="thread image" transform="translate(-2.25 -4.5)">
    <path id="Path_16" data-name="Path 16" d="M20.411,34.5,18.4,33.346l4.615-8.077h6.923a2.308,2.308,0,0,0,2.308-2.308V9.115a2.308,2.308,0,0,0-2.308-2.308H6.865A2.308,2.308,0,0,0,4.558,9.115V22.962a2.308,2.308,0,0,0,2.308,2.308H17.25v2.308H6.865A4.615,4.615,0,0,1,2.25,22.962V9.115A4.615,4.615,0,0,1,6.865,4.5H29.942a4.615,4.615,0,0,1,4.615,4.615V22.962a4.615,4.615,0,0,1-4.615,4.615H24.358Z" transform="translate(0 0)" fill="#2b7ad5"/>
    <path id="Path_17" data-name="Path 17" d="M9,11.25H27.462v2.308H9Z" transform="translate(0.173 0.173)" fill="#2b7ad5"/>
    <path id="Path_18" data-name="Path 18" d="M9,18H20.538v2.308H9Z" transform="translate(0.173 0.346)" fill="#2b7ad5"/>
  </g>
</svg>
