<svg xmlns="http://www.w3.org/2000/svg" xmlns:xlink="http://www.w3.org/1999/xlink" width="30" height="30" viewBox="0 0 30 30">
  <defs>
    <linearGradient id="linear-gradient" x1="0.043" x2="0.767" y2="0.943" gradientUnits="objectBoundingBox">
      <stop offset="0" stop-color="#f90"/>
      <stop offset="1" stop-color="#f63838"/>
    </linearGradient>
  </defs>
  <g id="Play" transform="translate(-10 -10)">
    <circle id="Ellipse_47" data-name="Ellipse 47" cx="15" cy="15" r="15" transform="translate(10 10)" fill="#333" opacity="0.5"/>
    <circle id="Ellipse_48" data-name="Ellipse 48" cx="8" cy="8" r="8" transform="translate(17 17)" fill="url(#linear-gradient)"/>
    <path id="play-filled" d="M15.152,2.25a12.9,12.9,0,1,0,12.9,12.9A12.9,12.9,0,0,0,15.152,2.25Zm6.894,13.713-10.138,5.53a.9.9,0,0,1-1.364-.811V9.623a.912.912,0,0,1,1.373-.793l10.138,5.53a.922.922,0,0,1,0,1.622Z" transform="translate(9.836 9.836)" fill="#fff"/>
  </g>
</svg>
