<svg xmlns="http://www.w3.org/2000/svg" width="21.478" height="22" viewBox="0 0 21.478 22"><defs><style>.a{fill:#ABAEBB;stroke:rgba(0,0,0,0);}</style></defs><path class="a" d="M2011.409,3967a1.5,1.5,0,0,1-1.471-1.207l-.377-1.887a8.363,8.363,0,0,1-.984-.57l-1.826.617a1.5,1.5,0,0,1-1.779-.671l-1.771-3.065a1.5,1.5,0,0,1,.309-1.877l1.441-1.265c-.013-.19-.021-.381-.021-.575s.016-.378.029-.568l-1.449-1.272a1.5,1.5,0,0,1-.309-1.877l1.771-3.066a1.5,1.5,0,0,1,1.779-.671l1.814.615a8.212,8.212,0,0,1,1-.566l.377-1.888a1.5,1.5,0,0,1,1.471-1.206h3.54a1.5,1.5,0,0,1,1.471,1.206l.377,1.888a8.3,8.3,0,0,1,.984.57l1.826-.618a1.5,1.5,0,0,1,1.78.671l1.77,3.066a1.5,1.5,0,0,1-.31,1.877l-1.441,1.265q.021.285.021.574c0,.191-.015.379-.028.567l1.448,1.273a1.5,1.5,0,0,1,.31,1.877l-1.77,3.065a1.5,1.5,0,0,1-1.78.671l-1.815-.613a8.366,8.366,0,0,1-.995.566l-.377,1.887a1.5,1.5,0,0,1-1.471,1.207Zm-.533-4.164.533,2.663h3.54l.534-2.663a6.767,6.767,0,0,0,2.035-1.173l2.571.869,1.769-3.066-2.038-1.791a6.706,6.706,0,0,0-.005-2.347l2.043-1.8-1.769-3.065-2.586.874a6.824,6.824,0,0,0-2.02-1.178l-.534-2.664h-3.54l-.533,2.664a6.739,6.739,0,0,0-2.036,1.173l-2.57-.869-1.771,3.065,2.039,1.792a6.7,6.7,0,0,0,.005,2.346l-2.043,1.8,1.769,3.066,2.586-.874A6.816,6.816,0,0,0,2010.877,3962.837Zm-2.2-6.337a4.5,4.5,0,1,1,4.5,4.5A4.453,4.453,0,0,1,2008.679,3956.5Zm1.5,0a3,3,0,1,0,3-3A2.934,2.934,0,0,0,2010.18,3956.5Z" transform="translate(-2002.44 -3945.5)"/></svg>