<svg width="20" height="20" viewBox="0 0 20 20" fill="none" xmlns="http://www.w3.org/2000/svg">
<path d="M10 3.07181L11.875 6.86181L12.188 7.54081L12.867 7.64081L17.052 8.24081L14.076 11.1618L13.566 11.6618L13.688 12.3408L14.401 16.5048L10.66 14.5448L10.002 14.2668L9.37 14.5998L5.625 16.5358L6.304 12.3718L6.426 11.6928L5.926 11.1698L2.926 8.21481L7.111 7.61481L7.79 7.51481L8.103 6.83581L10.003 3.07881L10 3.07181ZM10.003 0.0078125L6.909 6.26481L0 7.26481L5 12.1428L3.818 19.0228L10 15.7748L16.182 19.0228L15 12.1408L20 7.26981L13.091 6.26481L10.003 0.0078125Z" fill="#2B7AD5"/>
</svg>
