<svg xmlns="http://www.w3.org/2000/svg" width="20" height="18.571" viewBox="0 0 20 18.571">
  <g id="unfollow_thread" data-name="unfollow thread" transform="translate(-2.25 -4.5)">
    <path id="Path_8703" data-name="Path 8703" d="M13.493,23.071l-1.243-.714,2.857-5h4.286a1.429,1.429,0,0,0,1.429-1.429V7.357a1.429,1.429,0,0,0-1.429-1.429H5.107A1.429,1.429,0,0,0,3.679,7.357v8.571a1.429,1.429,0,0,0,1.429,1.429h6.429v1.429H5.107A2.857,2.857,0,0,1,2.25,15.929V7.357A2.857,2.857,0,0,1,5.107,4.5H19.393A2.857,2.857,0,0,1,22.25,7.357v8.571a2.857,2.857,0,0,1-2.857,2.857H15.936Z" transform="translate(0 0)" fill="#2b7ad5"/>
    <path id="Path_8704" data-name="Path 8704" d="M16.661,10.125H15.232v2.857H12.375v1.429h2.857v2.857h1.429V14.411h2.857V12.982H16.661Z" transform="translate(10.659 -9.318) rotate(45)" fill="#2b7ad5"/>
  </g>
</svg>
