<svg xmlns="http://www.w3.org/2000/svg" width="338.873" height="350" viewBox="0 0 338.873 350">
  <g id="Broken-bot" transform="translate(3.88 0.12)">
    <g id="Background_Complete" data-name="Background Complete" transform="translate(-2.087 2.575)">
      <g id="_Group_" data-name="&lt;Group&gt;">
        <g id="_Group_2" data-name="&lt;Group&gt;" transform="translate(13.678 211.096)">
          <path id="_Compound_Path_" data-name="&lt;Compound Path&gt;" d="M77.646,792.8l-12.164.23-6.161.093c-2.058.038-4.127.03-6.191.044l-.364,0,0-.369-.044-10.357v-.413l.41,0,12.259.052c4.084,0,8.17.09,12.256.134h.227l0,.224c-.016,1.752-.071,3.5-.107,5.226Zm0,0-.118-5.226c-.036-1.648-.087-3.283-.1-4.906-4.013.044-8.025.128-12.035.131l-11.852.052-.041,9.589c1.9.011,3.8.006,5.7.041l6.1.093Zm-.221-10.133c.074,0,.148,0,.221,0l-.224-.222C77.422,782.516,77.424,782.593,77.424,782.667Zm-23.887.183,0-.407-.41.407Zm-.041,9.589c-.12,0-.243,0-.366,0l.366.364Z" transform="translate(-52.72 -782.03)" fill="#ebebeb"/>
        </g>
        <g id="_Group_3" data-name="&lt;Group&gt;" transform="translate(0 224.158)">
          <path id="_Compound_Path_2" data-name="&lt;Compound Path&gt;" d="M27.608,840.589l-12.164.23-6.161.093c-2.061.038-4.127.03-6.191.044l-.364,0,0-.369L2.683,830.23l0-.41.413,0,12.256.049c4.086.006,8.173.093,12.259.137h.224v.222c-.016,1.755-.071,3.5-.109,5.229Zm0,0-.118-5.226c-.036-1.648-.087-3.283-.1-4.906-4.013.044-8.025.128-12.038.131L3.5,830.64l-.041,9.589c1.9.011,3.8.005,5.7.041l6.1.093Zm-.221-10.133c.074,0,.148,0,.221,0l-.224-.224C27.384,830.306,27.384,830.383,27.387,830.457ZM3.5,830.64l0-.41-.41.41Zm-.041,9.589c-.123,0-.243,0-.366,0l.366.363Z" transform="translate(-2.68 -829.82)" fill="#ebebeb"/>
        </g>
        <g id="_Group_4" data-name="&lt;Group&gt;">
          <path id="_Compound_Path_3" data-name="&lt;Compound Path&gt;" d="M27.608,20.509l-12.164.23-6.161.09c-2.061.041-4.127.033-6.191.046l-.364,0,0-.369L2.683,10.15l0-.41h.413l12.256.052c4.086.005,8.173.093,12.259.134l.224,0v.221c-.016,1.755-.071,3.5-.109,5.229Zm0,0-.118-5.226c-.036-1.648-.087-3.283-.1-4.906-4.013.044-8.025.128-12.038.131L3.5,10.557l-.041,9.589c1.9.011,3.8.008,5.7.044l6.1.093Zm-.221-10.133.221,0-.224-.224C27.384,10.227,27.384,10.3,27.387,10.377ZM3.5,10.557l0-.407-.41.41Zm-.041,9.589c-.123,0-.243,0-.366,0l.366.366Z" transform="translate(-2.68 -9.74)" fill="#ebebeb"/>
        </g>
        <g id="_Group_5" data-name="&lt;Group&gt;" transform="translate(309.948)">
          <path id="_Compound_Path_4" data-name="&lt;Compound Path&gt;" d="M1161.546,20.509l-12.163.23-6.161.09c-2.058.041-4.127.033-6.191.046l-.364,0,0-.369-.044-10.359V9.74h.41l12.259.052c4.084.005,8.17.093,12.256.134l.227,0,0,.221c-.016,1.755-.071,3.5-.107,5.229Zm0,0-.118-5.226c-.033-1.648-.085-3.283-.1-4.906-4.013.044-8.025.128-12.035.131l-11.852.049-.041,9.589c1.9.011,3.8.008,5.7.044l6.1.093Zm-.221-10.133.221,0-.224-.224C1161.321,10.227,1161.324,10.3,1161.324,10.377Zm-23.887.18,0-.407-.41.41Zm-.041,9.589c-.12,0-.243,0-.366,0l.366.366Z" transform="translate(-1136.62 -9.74)" fill="#ebebeb"/>
        </g>
        <g id="_Group_6" data-name="&lt;Group&gt;" transform="translate(296.273 13.063)">
          <path id="_Compound_Path_5" data-name="&lt;Compound Path&gt;" d="M1111.516,68.3l-12.164.23-6.161.09c-2.058.038-4.127.033-6.191.046l-.363,0,0-.369-.044-10.359v-.41h.41l12.256.052c4.087.005,8.173.093,12.259.134l.227,0,0,.221c-.016,1.755-.071,3.5-.107,5.229Zm0,0-.118-5.226c-.036-1.651-.087-3.283-.1-4.906-4.013.044-8.025.128-12.038.131l-11.849.049-.041,9.589c1.9.011,3.8.008,5.7.044l6.1.093Zm-.221-10.133.221,0-.224-.224C1111.291,58.017,1111.294,58.09,1111.294,58.167Zm-23.887.18,0-.407-.41.41Zm-.041,9.589c-.12,0-.243,0-.366,0l.366.366Z" transform="translate(-1086.59 -57.53)" fill="#ebebeb"/>
        </g>
        <g id="_Group_7" data-name="&lt;Group&gt;" transform="translate(233.485 134.255)">
          <path id="_Compound_Path_6" data-name="&lt;Compound Path&gt;" d="M881.806,511.679l-12.161.23-6.164.09c-2.058.041-4.127.033-6.188.046l-.366,0v-.369l-.044-10.359,0-.41h.413l12.256.052c4.086.005,8.173.093,12.257.134l.227,0,0,.221c-.014,1.755-.068,3.5-.107,5.229Zm0,0-.115-5.226c-.036-1.648-.088-3.283-.107-4.906-4.01.044-8.022.128-12.035.131l-11.849.049-.041,9.589c1.9.011,3.8.008,5.7.044l6.1.093Zm-.222-10.133.222,0-.222-.224Zm-23.884.18v-.407l-.407.41Zm-.041,9.589h-.366l.363.363Z" transform="translate(-856.88 -500.91)" fill="#ebebeb"/>
        </g>
        <g id="_Group_8" data-name="&lt;Group&gt;" transform="translate(219.81 147.318)">
          <path id="_Compound_Path_7" data-name="&lt;Compound Path&gt;" d="M831.776,559.469l-12.161.23-6.164.09c-2.058.041-4.127.033-6.191.047l-.363,0v-.369l-.044-10.359,0-.41h.41l12.259.052c4.086.005,8.173.093,12.256.134l.227,0,0,.221c-.014,1.755-.071,3.5-.107,5.229Zm0,0-.115-5.226c-.036-1.648-.088-3.283-.107-4.906-4.01.044-8.022.129-12.035.131l-11.849.049-.041,9.589c1.9.011,3.794.008,5.7.044l6.1.093Zm-.221-10.133.221,0-.224-.224C831.554,549.187,831.554,549.26,831.554,549.337Zm-23.884.181v-.407l-.41.41Zm-.041,9.589c-.123,0-.246,0-.369,0l.366.366Z" transform="translate(-806.85 -548.7)" fill="#ebebeb"/>
        </g>
        <g id="_Group_9" data-name="&lt;Group&gt;" transform="translate(206.186 134.255)">
          <path id="_Compound_Path_8" data-name="&lt;Compound Path&gt;" d="M781.938,511.679l-12.163.23-6.161.09c-2.061.041-4.127.033-6.191.046l-.364,0,0-.369-.044-10.359,0-.41h.413l12.256.052c4.086.005,8.173.093,12.259.134l.224,0v.221c-.016,1.755-.071,3.5-.109,5.229Zm0,0-.118-5.226c-.036-1.648-.087-3.283-.1-4.906-4.013.044-8.025.128-12.038.131l-11.849.049-.041,9.589c1.9.011,3.8.008,5.7.044l6.1.093Zm-.221-10.133.221,0-.224-.224C781.714,501.4,781.717,501.47,781.717,501.547Zm-23.887.18,0-.407-.41.41Zm-.041,9.589h-.366l.366.363Z" transform="translate(-757.01 -500.91)" fill="#ebebeb"/>
        </g>
        <g id="_Group_10" data-name="&lt;Group&gt;" transform="translate(309.948 224.158)">
          <path id="_Compound_Path_9" data-name="&lt;Compound Path&gt;" d="M1161.546,840.589l-12.163.23-6.161.093c-2.058.038-4.127.03-6.191.044l-.364,0,0-.369-.044-10.359v-.41l.41,0,12.259.049c4.084.006,8.17.093,12.256.137h.227l0,.222c-.016,1.755-.071,3.5-.107,5.229Zm0,0-.118-5.226c-.033-1.648-.085-3.283-.1-4.906-4.013.044-8.025.128-12.035.131l-11.852.052-.041,9.589c1.9.011,3.8.005,5.7.041l6.1.093Zm-.221-10.133c.074,0,.148,0,.221,0l-.224-.224C1161.321,830.306,1161.324,830.383,1161.324,830.457Zm-23.887.183,0-.41-.41.41Zm-.041,9.589c-.12,0-.243,0-.366,0l.366.363Z" transform="translate(-1136.62 -829.82)" fill="#ebebeb"/>
        </g>
        <g id="_Group_11" data-name="&lt;Group&gt;" transform="translate(101.654 30.805)">
          <path id="_Compound_Path_10" data-name="&lt;Compound Path&gt;" d="M399.508,133.209l-12.163.23-6.164.093c-2.058.038-4.125.03-6.188.044l-.363,0,0-.369-.044-10.359,0-.41.413,0,12.257.049c4.086.005,8.173.093,12.259.137h.224v.221c-.016,1.755-.071,3.5-.109,5.229Zm0,0-.118-5.226c-.035-1.648-.087-3.283-.1-4.906-4.013.044-8.025.128-12.038.131l-11.849.052-.041,9.589c1.9.011,3.8.005,5.7.041l6.1.093Zm-.221-10.133c.074,0,.148,0,.221,0l-.224-.224C399.284,122.927,399.284,123,399.287,123.077Zm-23.887.183,0-.41-.41.41Zm-.041,9.589c-.123,0-.243,0-.366,0l.366.364Z" transform="translate(-374.58 -122.44)" fill="#ebebeb"/>
        </g>
      </g>
      <g id="_Group_12" data-name="&lt;Group&gt;" transform="translate(18.221 40.902)">
        <path id="_Compound_Path_11" data-name="&lt;Compound Path&gt;" d="M1059.719,335.255a2.183,2.183,0,0,0-2.285.016c-.191.115-.388.227-.588.333s-.4.21-.607.306a2.169,2.169,0,0,0-1.271,1.889l-.088,2.81-9.154-.284.087-2.81a2.174,2.174,0,0,0-1.151-1.973,12.426,12.426,0,0,1-1.162-.719,2.175,2.175,0,0,0-2.271-.145L1038.76,336l-4.33-8.074,2.471-1.326a2.174,2.174,0,0,0,1.137-1.973,12.571,12.571,0,0,1,.044-1.361,2.178,2.178,0,0,0-1.009-2.05l-2.389-1.484,4.827-7.782,2.4,1.487a2.176,2.176,0,0,0,2.274-.016c.191-.115.385-.227.585-.333s.4-.208.6-.3a2.178,2.178,0,0,0,1.276-1.894l.085-2.813,9.154.284-.087,2.8a2.176,2.176,0,0,0,1.145,1.976,12.121,12.121,0,0,1,1.164.722,2.185,2.185,0,0,0,2.277.145l2.469-1.323,4.329,8.072-2.468,1.326a2.169,2.169,0,0,0-1.137,1.976,12.682,12.682,0,0,1-.044,1.369,2.173,2.173,0,0,0,1.012,2.047l2.383,1.476-4.827,7.782Zm-2.293-14.454a7.5,7.5,0,1,0-3.073,10.154A7.508,7.508,0,0,0,1057.426,320.8Z" transform="translate(-770.635 -267.435)" fill="#ebebeb"/>
        <path id="_Compound_Path_12" data-name="&lt;Compound Path&gt;" d="M94.629,657.868a2.177,2.177,0,0,0-2.285.014c-.191.117-.388.23-.585.336s-.4.208-.607.3a2.179,2.179,0,0,0-1.274,1.889l-.087,2.81-9.154-.284.087-2.807a2.181,2.181,0,0,0-1.151-1.976,12.723,12.723,0,0,1-1.159-.716,2.181,2.181,0,0,0-2.274-.145l-2.471,1.326-4.33-8.074,2.471-1.326a2.178,2.178,0,0,0,1.137-1.974,12.6,12.6,0,0,1,.044-1.364,2.175,2.175,0,0,0-1.009-2.05L69.6,642.348l4.827-7.782,2.4,1.487a2.176,2.176,0,0,0,2.274-.016c.191-.118.388-.227.585-.333s.4-.208.6-.3a2.182,2.182,0,0,0,1.276-1.9l.085-2.813,9.151.284-.087,2.8a2.173,2.173,0,0,0,1.148,1.974,12.849,12.849,0,0,1,1.164.722,2.175,2.175,0,0,0,2.274.148L97.77,635.3l4.33,8.074L99.628,644.7a2.177,2.177,0,0,0-1.137,1.974,12.022,12.022,0,0,1-.044,1.369,2.185,2.185,0,0,0,1.011,2.05l2.383,1.476-4.827,7.782Zm-2.293-14.457a7.5,7.5,0,1,0-3.072,10.157A7.512,7.512,0,0,0,92.336,643.411Z" transform="translate(-69.34 -501.863)" fill="#ebebeb"/>
        <path id="_Compound_Path_13" data-name="&lt;Compound Path&gt;" d="M451.344,168.791a1.529,1.529,0,0,0-.746,1.416c.008.156.011.314.011.473s0,.317-.011.476a1.521,1.521,0,0,0,.743,1.41l1.706.984-3.206,5.557-1.706-.981a1.526,1.526,0,0,0-1.6.055,8.518,8.518,0,0,1-.825.478,1.525,1.525,0,0,0-.842,1.356v1.965h-6.418v-1.965a1.528,1.528,0,0,0-.845-1.356,8.522,8.522,0,0,1-.826-.478,1.525,1.525,0,0,0-1.6-.055l-1.706.981-3.206-5.557,1.711-.99a1.514,1.514,0,0,0,.743-1.408c-.008-.159-.011-.314-.011-.473s0-.317.011-.473a1.529,1.529,0,0,0-.746-1.416l-1.708-.981,3.206-5.557,1.7.981a1.525,1.525,0,0,0,1.6-.055,9.227,9.227,0,0,1,.831-.481,1.521,1.521,0,0,0,.845-1.353V159.38h6.418v1.965a1.518,1.518,0,0,0,.842,1.353,9.244,9.244,0,0,1,.831.481,1.52,1.52,0,0,0,1.6.055l1.7-.981,3.206,5.557Zm-9.682-3.37a5.256,5.256,0,1,0,5.251,5.259A5.261,5.261,0,0,0,441.663,165.421Z" transform="translate(-331.614 -159.38)" fill="#ebebeb"/>
      </g>
    </g>
    <g id="Plant" transform="translate(-2.773 189.654)">
      <g id="_Group_13" data-name="&lt;Group&gt;" transform="translate(0)">
        <g id="_Group_14" data-name="&lt;Group&gt;" transform="translate(25.058 15.404)">
          <path id="_Path_" data-name="&lt;Path&gt;" d="M102.959,781.359C92.241,791.85,90.442,808.08,92.7,822.3c.06.322.558.235.558-.068,0-3.236-.1-6.443-.087-9.641.057-.145.107-.282.167-.429a21.532,21.532,0,0,0,6.962-7.481c1.788-3.518,2.493-7.489,3.862-11.166.126-.35-.249-.249-.495-.065-6.519,4.805-8.6,9.979-10.466,16.892a57.382,57.382,0,0,1,1.134-10.764c1.408-6.56,4.193-13.063,8.905-17.931C103.418,781.457,103.144,781.173,102.959,781.359Z" transform="translate(-91.843 -772.886)" fill="#263238"/>
          <g id="_Group_15" data-name="&lt;Group&gt;" transform="translate(9.32)">
            <path id="_Path_2" data-name="&lt;Path&gt;" d="M130.1,760.215c1.845.063,3,3.009,4.436,3.87a1.385,1.385,0,0,0,2.036-.32c1.424-1.987-.53-4.439-2.367-5.811,1.315.541,2.4,1.49,3.819,1.76a1.333,1.333,0,0,0,1.725-1.033c.623-2.711-2.774-3.914-5.106-3.972,1.132-.787,4.371-2.922,2.649-3.972-1.744-1.055-5.543,2-6.784,3-1.823,1.479-4,3.69-4.078,6C126.324,762.443,128.683,760.781,130.1,760.215Z" transform="translate(-126.294 -750.52)" fill="#ffc727"/>
            <path id="_Path_3" data-name="&lt;Path&gt;" d="M130.1,760.215c1.845.063,3,3.009,4.436,3.87a1.385,1.385,0,0,0,2.036-.32c1.424-1.987-.53-4.439-2.367-5.811,1.315.541,2.4,1.49,3.819,1.76a1.333,1.333,0,0,0,1.725-1.033c.623-2.711-2.774-3.914-5.106-3.972,1.132-.787,4.371-2.922,2.649-3.972-1.744-1.055-5.543,2-6.784,3-1.823,1.479-4,3.69-4.078,6C126.324,762.443,128.683,760.781,130.1,760.215Z" transform="translate(-126.294 -750.52)" opacity="0.102"/>
            <path id="_Path_4" data-name="&lt;Path&gt;" d="M129.214,767.269c2.359-1.072,6.885.47,7.271-.421.782-1.818-2.837-3.064-4.792-3.3,1.8-.487,5.245-1.263,5.141-3-.131-2.118-5.286-.3-7.9,1.706-3.291,2.523-3.269,4.956-2.725,5.442C126.959,768.359,128.826,767.443,129.214,767.269Z" transform="translate(-125.94 -757.117)" fill="#ffc727"/>
          </g>
        </g>
        <g id="_Group_16" data-name="&lt;Group&gt;" transform="translate(0 14.686)">
          <path id="_Path_5" data-name="&lt;Path&gt;" d="M41.171,777.573c11.108,10.075,13.522,26.227,11.805,40.52-.046.325-.547.254-.558-.047-.123-3.236-.148-6.443-.279-9.638-.066-.145-.12-.279-.183-.424a21.52,21.52,0,0,1-7.241-7.211c-1.922-3.45-2.777-7.388-4.286-11.01-.139-.347.241-.26.492-.088,6.7,4.557,8.971,9.649,11.1,16.485a57.782,57.782,0,0,0-1.544-10.715c-1.656-6.5-4.688-12.893-9.583-17.578A.2.2,0,0,1,41.171,777.573Z" transform="translate(-29.404 -769.42)" fill="#263238"/>
          <g id="_Group_17" data-name="&lt;Group&gt;">
            <path id="_Path_6" data-name="&lt;Path&gt;" d="M9.972,757.345c-1.84.134-2.884,3.122-4.286,4.035a1.381,1.381,0,0,1-2.045-.241c-1.5-1.932.358-4.455,2.143-5.9-1.293.588-2.345,1.58-3.75,1.9a1.334,1.334,0,0,1-1.763-.968c-.727-2.684,2.624-4.018,4.95-4.163-1.159-.741-4.477-2.752-2.8-3.868,1.7-1.121,5.617,1.788,6.894,2.744,1.878,1.408,4.133,3.534,4.3,5.841C13.831,759.428,11.41,757.856,9.972,757.345Z" transform="translate(-0.17 -747.894)" fill="#ffc727"/>
            <path id="_Path_7" data-name="&lt;Path&gt;" d="M9.972,757.345c-1.84.134-2.884,3.122-4.286,4.035a1.381,1.381,0,0,1-2.045-.241c-1.5-1.932.358-4.455,2.143-5.9-1.293.588-2.345,1.58-3.75,1.9a1.334,1.334,0,0,1-1.763-.968c-.727-2.684,2.624-4.018,4.95-4.163-1.159-.741-4.477-2.752-2.8-3.868,1.7-1.121,5.617,1.788,6.894,2.744,1.878,1.408,4.133,3.534,4.3,5.841C13.831,759.428,11.41,757.856,9.972,757.345Z" transform="translate(-0.17 -747.894)" opacity="0.102"/>
            <path id="_Path_8" data-name="&lt;Path&gt;" d="M17.119,764.307c-2.4-.981-6.863.732-7.282-.145-.847-1.785,2.72-3.168,4.663-3.482-1.818-.418-5.289-1.063-5.251-2.8.049-2.121,5.273-.5,7.957,1.4,3.381,2.395,3.452,4.825,2.927,5.333C19.415,765.313,17.515,764.468,17.119,764.307Z" transform="translate(-6.767 -754.421)" fill="#ffc727"/>
          </g>
        </g>
        <g id="_Group_18" data-name="&lt;Group&gt;" transform="translate(13.183)">
          <path id="_Path_9" data-name="&lt;Path&gt;" d="M58.341,774.82a109.45,109.45,0,0,0,3.45,15.93.4.4,0,0,0,.776-.156c-.73-4.909-2.058-9.728-2.788-14.637a73.768,73.768,0,0,1-.853-15.028c.467-8.274,2.714-17.075,8.113-23.548.118-.153-.134-.372-.257-.227-10.808,12.6-9.088,28.053-9.078,29.436-1.531-5.215-3.108-11.2-8.894-16.51-.251-.23-.446-.12-.4.271,1.036,9.676,3.726,14.727,9.337,19.9C57.9,771.786,58.1,773.313,58.341,774.82Z" transform="translate(-48.4 -725.369)" fill="#263238"/>
          <g id="_Group_19" data-name="&lt;Group&gt;" transform="translate(14.256)">
            <path id="_Path_10" data-name="&lt;Path&gt;" d="M105.037,707.626c1.943-.864,4.625,1.613,6.549,1.782a1.593,1.593,0,0,0,1.949-1.356c.478-2.78-2.783-4.341-5.379-4.838,1.635-.1,3.245.336,4.849-.1a1.535,1.535,0,0,0,1.268-1.938c-.716-3.127-4.849-2.665-7.3-1.553.776-1.383,3.061-5.229.749-5.453-2.34-.216-4.748,4.865-5.527,6.533-1.148,2.452-2.291,5.839-1.211,8.279C102.235,711.838,103.848,708.927,105.037,707.626Z" transform="translate(-100.556 -694.166)" fill="#ffc727"/>
            <path id="_Path_11" data-name="&lt;Path&gt;" d="M105.037,707.626c1.943-.864,4.625,1.613,6.549,1.782a1.593,1.593,0,0,0,1.949-1.356c.478-2.78-2.783-4.341-5.379-4.838,1.635-.1,3.245.336,4.849-.1a1.535,1.535,0,0,0,1.268-1.938c-.716-3.127-4.849-2.665-7.3-1.553.776-1.383,3.061-5.229.749-5.453-2.34-.216-4.748,4.865-5.527,6.533-1.148,2.452-2.291,5.839-1.211,8.279C102.235,711.838,103.848,708.927,105.037,707.626Z" transform="translate(-100.556 -694.166)" opacity="0.102"/>
            <path id="_Path_12" data-name="&lt;Path&gt;" d="M105.111,715.91c1.905-2.3,7.38-2.977,7.331-4.1-.1-2.277-4.485-1.747-6.634-1.014,1.621-1.413,4.805-3.952,3.824-5.7-1.2-2.132-5.636,2.354-7.336,5.746-2.143,4.269-.9,6.784-.085,7.016C103.321,718.179,104.8,716.29,105.111,715.91Z" transform="translate(-100.956 -701.709)" fill="#ffc727"/>
          </g>
        </g>
        <path id="_Path_13" data-name="&lt;Path&gt;" d="M46.087,885.621,41.32,922.043H70.327q-.6-3.227-6-36.463Z" transform="translate(-30.072 -833.259)" fill="#f4a121"/>
      </g>
    </g>
    <g id="Floor" transform="translate(-3.88 278.151)">
      <g id="_Group_20" data-name="&lt;Group&gt;" transform="translate(0)">
        <path id="_Path_14" data-name="&lt;Path&gt;" d="M-3.88,1018.34l42.359-.2,42.359-.071,84.718-.14,84.718.137,42.359.074,42.359.2-42.359.2-42.359.074-84.718.137-84.718-.139-42.359-.071Z" transform="translate(3.88 -1017.93)" fill="#263238"/>
      </g>
    </g>
    <g id="Shadow" transform="translate(43.328 315.314)">
      <path id="_Path_15" data-name="&lt;Path&gt;" d="M413.286,1171.173c0,9.545-54.725,17.283-122.228,17.283s-122.228-7.738-122.228-17.283,54.725-17.283,122.228-17.283S413.286,1161.628,413.286,1171.173Z" transform="translate(-168.83 -1153.89)" fill="#ebebeb"/>
    </g>
    <g id="_404_Error" data-name="404 Error" transform="translate(39.149 -0.12)">
      <g id="_Group_21" data-name="&lt;Group&gt;">
        <g id="_Group_22" data-name="&lt;Group&gt;" transform="translate(0 38.453)">
          <path id="_Compound_Path_14" data-name="&lt;Compound Path&gt;" d="M204.157,265.872l-5.092-20.033-40.211,10.22-5.314-20.91,32.133-73.238,15.938-4.051,15.5,60.976,12.866-3.272,5.352,21.058-12.866,3.269,5.09,20.033ZM176.6,229.13l19.888-5.054-6.579-25.882Z" transform="translate(-153.54 -153.131)" fill="#263238"/>
          <path id="_Compound_Path_15" data-name="&lt;Compound Path&gt;" d="M550.694,186.423a53.785,53.785,0,0,1-3.015,18.333,45.552,45.552,0,0,1-8.3,14.484,37.571,37.571,0,0,1-12.445,9.5,36.024,36.024,0,0,1-15.616,3.395,36.512,36.512,0,0,1-15.692-3.395,37.334,37.334,0,0,1-12.522-9.5,44.381,44.381,0,0,1-8.222-14.484,58.6,58.6,0,0,1,0-36.663,44.381,44.381,0,0,1,8.222-14.484,38.249,38.249,0,0,1,12.522-9.58,35.859,35.859,0,0,1,15.692-3.469,35.382,35.382,0,0,1,15.616,3.469,38.505,38.505,0,0,1,12.445,9.58,45.552,45.552,0,0,1,8.3,14.484A53.768,53.768,0,0,1,550.694,186.423Zm-24.289,0q0-10.558-4.226-17.122t-10.862-6.563q-6.941,0-11.089,6.563t-4.149,17.122q0,10.566,4.149,17.051t11.089,6.486q6.638,0,10.862-6.486T526.405,186.423Z" transform="translate(-384.909 -140.56)" fill="#263238"/>
          <path id="_Compound_Path_16" data-name="&lt;Compound Path&gt;" d="M818.439,265.8l3.3-20.4-40.954-6.637,3.45-21.3,58.636-54.389,16.233,2.629-10.062,62.1,13.107,2.124-3.474,21.446-13.107-2.124-3.3,20.4ZM807.8,221.131l20.254,3.28,4.27-26.361Z" transform="translate(-609.339 -156.924)" fill="#263238"/>
        </g>
        <g id="_Group_23" data-name="&lt;Group&gt;" transform="translate(81.058)">
          <path id="_Compound_Path_17" data-name="&lt;Compound Path&gt;" d="M461.554,23.979a10.7,10.7,0,0,1-4.688-1.009,11.523,11.523,0,0,1-3.611-2.684,12.437,12.437,0,0,1-3.165-8.233,11.789,11.789,0,0,1,.88-4.5,12.454,12.454,0,0,1,2.416-3.808,11.579,11.579,0,0,1,3.66-2.635A10.883,10.883,0,0,1,461.652.13a10.348,10.348,0,0,1,4.655,1.041A11.622,11.622,0,0,1,469.9,3.9a12.57,12.57,0,0,1,2.321,3.843,12.085,12.085,0,0,1,.828,4.373,11.9,11.9,0,0,1-.861,4.488,12.166,12.166,0,0,1-2.386,3.775A11.436,11.436,0,0,1,466.157,23,10.88,10.88,0,0,1,461.554,23.979Zm-6.825-11.926A9.39,9.39,0,0,0,455.193,15a7.839,7.839,0,0,0,1.342,2.517,6.626,6.626,0,0,0,2.151,1.755,6.188,6.188,0,0,0,2.9.664,6.125,6.125,0,0,0,2.93-.681,6.641,6.641,0,0,0,2.154-1.8A8.067,8.067,0,0,0,468,14.92a9.429,9.429,0,0,0,.446-2.867,9.165,9.165,0,0,0-.478-2.947,8.146,8.146,0,0,0-1.358-2.517,6.48,6.48,0,0,0-2.154-1.738,6.694,6.694,0,0,0-5.814.033,6.538,6.538,0,0,0-2.154,1.788,8.047,8.047,0,0,0-1.307,2.517A9.428,9.428,0,0,0,454.729,12.053Z" transform="translate(-450.09 -0.062)" fill="#263238"/>
          <path id="_Compound_Path_18" data-name="&lt;Compound Path&gt;" d="M550.46,40.168a9.512,9.512,0,0,1-3.81-.73,8.5,8.5,0,0,1-2.865-1.971,8.666,8.666,0,0,1-1.807-2.865,9.664,9.664,0,0,1,0-6.858,8.666,8.666,0,0,1,1.807-2.865,8.54,8.54,0,0,1,2.865-1.971,9.512,9.512,0,0,1,3.81-.73,9.389,9.389,0,0,1,3.791.73,8.581,8.581,0,0,1,2.848,1.971,8.711,8.711,0,0,1,1.807,2.865,9.666,9.666,0,0,1,0,6.858,8.889,8.889,0,0,1-1.788,2.865,8.364,8.364,0,0,1-2.851,1.971A9.507,9.507,0,0,1,550.46,40.168Zm-4.54-8.976a6.036,6.036,0,0,0,.35,2.1,5.089,5.089,0,0,0,.959,1.64,4.27,4.27,0,0,0,1.44,1.077,4.4,4.4,0,0,0,3.578,0,4.271,4.271,0,0,0,1.44-1.077,5.108,5.108,0,0,0,.962-1.656A6.245,6.245,0,0,0,555,31.156a6.139,6.139,0,0,0-.347-2.086,5.108,5.108,0,0,0-.962-1.656,4.271,4.271,0,0,0-1.44-1.077,4.222,4.222,0,0,0-1.788-.38,4.077,4.077,0,0,0-1.79.4,4.467,4.467,0,0,0-1.44,1.093,5.054,5.054,0,0,0-.959,1.656A6.09,6.09,0,0,0,545.92,31.192Z" transform="translate(-516.405 -16.085)" fill="#263238"/>
          <path id="_Compound_Path_19" data-name="&lt;Compound Path&gt;" d="M629.191,40.168a6.847,6.847,0,0,1-3.578-.91,6.5,6.5,0,0,1-2.384-2.468v10.1H618.79V22.478h3.876V25.46a7.085,7.085,0,0,1,2.485-2.4,6.9,6.9,0,0,1,3.51-.877,7.43,7.43,0,0,1,3.247.713,8.076,8.076,0,0,1,2.567,1.922,9,9,0,0,1,1.689,2.848,9.772,9.772,0,0,1,.612,3.46,10.965,10.965,0,0,1-.563,3.545,9.084,9.084,0,0,1-1.572,2.884,7.368,7.368,0,0,1-2.4,1.919A6.7,6.7,0,0,1,629.191,40.168Zm-1.49-3.778a3.984,3.984,0,0,0,1.837-.429,4.464,4.464,0,0,0,1.44-1.159,5.421,5.421,0,0,0,.929-1.692,6.028,6.028,0,0,0,.331-1.987,5.655,5.655,0,0,0-.364-2.036,5.062,5.062,0,0,0-1.011-1.64,4.689,4.689,0,0,0-1.525-1.093,4.554,4.554,0,0,0-1.9-.4,4.134,4.134,0,0,0-1.293.216,4.508,4.508,0,0,0-1.224.612,5.338,5.338,0,0,0-1.012.927,3.832,3.832,0,0,0-.678,1.159v4.075a5.873,5.873,0,0,0,1.82,2.468A4.172,4.172,0,0,0,627.7,36.391Z" transform="translate(-572.678 -16.085)" fill="#263238"/>
          <path id="_Compound_Path_20" data-name="&lt;Compound Path&gt;" d="M698.743,40.081a13.418,13.418,0,0,1-4.275-.7A10.41,10.41,0,0,1,690.89,37.4l1.656-2.783a14.188,14.188,0,0,0,3.1,1.706,8.256,8.256,0,0,0,3,.579,3.8,3.8,0,0,0,2.088-.495,1.6,1.6,0,0,0,.76-1.424,1.421,1.421,0,0,0-.894-1.358,19.437,19.437,0,0,0-2.914-.995q-1.689-.463-2.884-.894a7.32,7.32,0,0,1-1.919-.979,3.326,3.326,0,0,1-1.061-1.257,4.015,4.015,0,0,1-.331-1.706A5.382,5.382,0,0,1,692,25.406a5.151,5.151,0,0,1,1.44-1.8,6.656,6.656,0,0,1,2.17-1.143,8.779,8.779,0,0,1,2.7-.4,11.626,11.626,0,0,1,3.66.563,8.941,8.941,0,0,1,3.13,1.823l-1.788,2.681a10.4,10.4,0,0,0-2.567-1.457,7.028,7.028,0,0,0-2.468-.465,3.576,3.576,0,0,0-1.889.465,1.612,1.612,0,0,0-.763,1.49,1.453,1.453,0,0,0,.183.763,1.576,1.576,0,0,0,.58.53,5.64,5.64,0,0,0,1.044.448c.432.142.965.292,1.607.446q1.788.467,3.064.929a8.365,8.365,0,0,1,2.086,1.058,3.838,3.838,0,0,1,1.195,1.375,4.268,4.268,0,0,1,.38,1.872,4.839,4.839,0,0,1-1.889,4.026A8.141,8.141,0,0,1,698.743,40.081Z" transform="translate(-625.07 -15.997)" fill="#263238"/>
          <path id="_Compound_Path_21" data-name="&lt;Compound Path&gt;" d="M759,14.788V-.12h4.439V14.788Zm0,8.845v-5h4.439v5Z" transform="translate(-674.563 0.12)" fill="#263238"/>
        </g>
      </g>
    </g>
    <g id="Robot" transform="translate(62.087 127.695)">
      <g id="_Group_24" data-name="&lt;Group&gt;">
        <g id="_Group_25" data-name="&lt;Group&gt;" transform="translate(91.243 94.042)">
          <path id="_Path_16" data-name="&lt;Path&gt;" d="M600.389,813.923H571.27V811.54h29.119Z" transform="translate(-571.27 -811.54)" fill="#37474f"/>
          <path id="_Path_17" data-name="&lt;Path&gt;" d="M600.389,825.286H571.27V822.9h29.119Z" transform="translate(-571.27 -819.795)" fill="#37474f"/>
          <path id="_Path_18" data-name="&lt;Path&gt;" d="M600.389,836.656H571.27V834.27h29.119Z" transform="translate(-571.27 -828.057)" fill="#37474f"/>
          <path id="_Path_19" data-name="&lt;Path&gt;" d="M600.389,848.026H571.27V845.64h29.119Z" transform="translate(-571.27 -836.319)" fill="#37474f"/>
          <path id="_Path_20" data-name="&lt;Path&gt;" d="M600.389,859.393H571.27V857.01h29.119Z" transform="translate(-571.27 -844.581)" fill="#37474f"/>
        </g>
        <g id="_Group_26" data-name="&lt;Group&gt;" transform="translate(77.603 168.455)">
          <path id="_Path_21" data-name="&lt;Path&gt;" d="M576.734,1086.167H521.37v-2.387h55.364Z" transform="translate(-521.37 -1083.78)" fill="#37474f"/>
          <path id="_Path_22" data-name="&lt;Path&gt;" d="M576.734,1097.536H521.37v-2.386h55.364Z" transform="translate(-521.37 -1092.042)" fill="#37474f"/>
          <path id="_Path_23" data-name="&lt;Path&gt;" d="M576.734,1108.9H521.37v-2.384h55.364Z" transform="translate(-521.37 -1100.304)" fill="#37474f"/>
          <path id="_Path_24" data-name="&lt;Path&gt;" d="M576.734,1120.266H521.37v-2.387h55.364Z" transform="translate(-521.37 -1108.559)" fill="#37474f"/>
          <path id="_Path_25" data-name="&lt;Path&gt;" d="M576.734,1131.636H521.37v-2.386h55.364Z" transform="translate(-521.37 -1116.821)" fill="#37474f"/>
        </g>
        <g id="_Group_27" data-name="&lt;Group&gt;" transform="translate(41.195)">
          <g id="_Group_28" data-name="&lt;Group&gt;" transform="translate(0 24.748)">
            <path id="_Path_26" data-name="&lt;Path&gt;" d="M400.287,607.605q.029-.324-12.117-4.393l.716-41.728,16.105-3.455Z" transform="translate(-388.17 -558.03)" fill="#ff7c53"/>
            <path id="_Path_27" data-name="&lt;Path&gt;" d="M400.287,607.605q.029-.324-12.117-4.393l.716-41.728,16.105-3.455Z" transform="translate(-388.17 -558.03)" opacity="0.2"/>
          </g>
          <g id="_Group_29" data-name="&lt;Group&gt;" transform="translate(123.357 42.537)">
            <path id="_Path_28" data-name="&lt;Path&gt;" d="M839.47,671.275q.086-.311,12.888.047l13.686-39.426-13.932-8.785Z" transform="translate(-839.47 -623.11)" fill="#ff7c53"/>
            <path id="_Path_29" data-name="&lt;Path&gt;" d="M839.47,671.275q.086-.311,12.888.047l13.686-39.426-13.932-8.785Z" transform="translate(-839.47 -623.11)" opacity="0.2"/>
          </g>
          <path id="_Path_30" data-name="&lt;Path&gt;" d="M423.95,557.177q4.5-67.487,8.452-89.687,81.521,6.166,125.533,22.988-22.69,78.828-23.862,82.736A1061.163,1061.163,0,0,0,423.95,557.177Z" transform="translate(-414.17 -467.49)" fill="#ff7c53"/>
          <g id="_Group_30" data-name="&lt;Group&gt;" transform="translate(69.66 9.012)">
            <path id="_Path_31" data-name="&lt;Path&gt;" d="M666.51,500.46q-1.988,12.19-4.056,24.365l-4.2,24.335-.227-.342,27.315,6.489,13.645,3.3,13.626,3.373-13.7-3.067-13.683-3.13L657.889,549.4l-.279-.063.052-.282,4.349-24.311Q664.2,512.594,666.51,500.46Z" transform="translate(-653.622 -500.46)" opacity="0.102"/>
            <path id="_Compound_Path_22" data-name="&lt;Compound Path&gt;" d="M670.771,513.176a1.583,1.583,0,0,1-2.63,1.2,1.6,1.6,0,0,1,0-2.4,1.587,1.587,0,0,1,2.632,1.2Zm0,0a1.276,1.276,0,0,0-1.432-1.276,1.288,1.288,0,0,0,0,2.556,1.28,1.28,0,0,0,1.432-1.279Z" transform="translate(-660.881 -508.543)" opacity="0.102"/>
            <path id="_Compound_Path_23" data-name="&lt;Compound Path&gt;" d="M665.538,549.911a1.59,1.59,0,0,1-1.43,1.583,1.592,1.592,0,1,1,0-3.171A1.6,1.6,0,0,1,665.538,549.911Zm0,0a1.275,1.275,0,0,0-1.43-1.279,1.287,1.287,0,1,0,.981,2.261A1.318,1.318,0,0,0,665.538,549.911Z" transform="translate(-657.081 -535.235)" opacity="0.102"/>
            <path id="_Compound_Path_24" data-name="&lt;Compound Path&gt;" d="M659.088,588.728a1.591,1.591,0,0,1-1.429,1.585,1.593,1.593,0,1,1,0-3.171A1.593,1.593,0,0,1,659.088,588.728Zm0,0a1.275,1.275,0,0,0-1.429-1.276,1.288,1.288,0,0,0,0,2.556,1.279,1.279,0,0,0,1.429-1.279Z" transform="translate(-652.394 -563.444)" opacity="0.102"/>
            <path id="_Compound_Path_25" data-name="&lt;Compound Path&gt;" d="M652.638,627.546a1.585,1.585,0,0,1-2.63,1.2,1.591,1.591,0,0,1,1.2-2.783A1.591,1.591,0,0,1,652.638,627.546Zm0,0a1.276,1.276,0,0,0-1.43-1.276,1.285,1.285,0,1,0,.981,2.258A1.319,1.319,0,0,0,652.638,627.546Z" transform="translate(-647.707 -591.651)" opacity="0.102"/>
            <path id="_Compound_Path_26" data-name="&lt;Compound Path&gt;" d="M674.611,689.448a1.593,1.593,0,0,1-1.432,1.585,1.593,1.593,0,1,1,0-3.171A1.593,1.593,0,0,1,674.611,689.448Zm0,0a1.279,1.279,0,0,0-1.432-1.277,1.288,1.288,0,0,0,0,2.556,1.276,1.276,0,0,0,1.432-1.279Z" transform="translate(-663.671 -636.634)" opacity="0.102"/>
            <path id="_Compound_Path_27" data-name="&lt;Compound Path&gt;" d="M711.251,698.388a1.593,1.593,0,0,1-1.432,1.585,1.593,1.593,0,1,1,0-3.171A1.593,1.593,0,0,1,711.251,698.388Zm0,0a1.276,1.276,0,0,0-1.432-1.276,1.288,1.288,0,0,0,0,2.556,1.28,1.28,0,0,0,1.432-1.279Z" transform="translate(-690.297 -643.13)" opacity="0.102"/>
            <path id="_Compound_Path_28" data-name="&lt;Compound Path&gt;" d="M747.891,707.326a1.583,1.583,0,0,1-2.629,1.2,1.6,1.6,0,0,1,0-2.4,1.587,1.587,0,0,1,2.632,1.2Zm0,0a1.276,1.276,0,0,0-1.432-1.276,1.288,1.288,0,0,0,0,2.556,1.28,1.28,0,0,0,1.432-1.279Z" transform="translate(-716.922 -649.624)" opacity="0.102"/>
            <path id="_Compound_Path_29" data-name="&lt;Compound Path&gt;" d="M784.531,716.261a1.585,1.585,0,0,1-2.63,1.2,1.593,1.593,0,0,1,1.2-2.785A1.6,1.6,0,0,1,784.531,716.261Zm0,0a1.276,1.276,0,0,0-1.432-1.279,1.288,1.288,0,0,0,0,2.556,1.276,1.276,0,0,0,1.432-1.277Z" transform="translate(-743.547 -656.116)" opacity="0.102"/>
            <path id="_Compound_Path_30" data-name="&lt;Compound Path&gt;" d="M821.172,725.282a1.6,1.6,0,0,1-1.55,1.468,1.594,1.594,0,0,1-.981-2.867,1.586,1.586,0,0,1,2.531,1.4Zm0,0a1.279,1.279,0,0,0-1.331-1.383,1.288,1.288,0,0,0-.2,2.547,1.283,1.283,0,0,0,1.528-1.164Z" transform="translate(-770.175 -662.583)" opacity="0.102"/>
            <path id="_Compound_Path_31" data-name="&lt;Compound Path&gt;" d="M646.188,666.358a1.591,1.591,0,0,1-1.43,1.585,1.593,1.593,0,1,1,0-3.171A1.6,1.6,0,0,1,646.188,666.358Zm0,0a1.276,1.276,0,0,0-1.43-1.276,1.287,1.287,0,1,0,.981,2.261A1.32,1.32,0,0,0,646.188,666.358Z" transform="translate(-643.02 -619.855)" opacity="0.102"/>
          </g>
          <g id="_Group_31" data-name="&lt;Group&gt;" transform="translate(17.337 32.726)">
            <g id="_Group_32" data-name="&lt;Group&gt;">
              <path id="_Path_32" data-name="&lt;Path&gt;" d="M497.6,614.073a23.15,23.15,0,1,1-19.15-26.555A23.153,23.153,0,0,1,497.6,614.073Z" transform="translate(-451.597 -587.217)" opacity="0.2"/>
              <path id="_Path_33" data-name="&lt;Path&gt;" d="M505.262,625.533a18.566,18.566,0,1,1-15.359-21.3A18.566,18.566,0,0,1,505.262,625.533Z" transform="translate(-463.782 -599.409)" fill="#263238"/>
              <g id="_Group_33" data-name="&lt;Group&gt;" transform="translate(10.552 10.595)">
                <path id="_Path_34" data-name="&lt;Path&gt;" d="M518.081,649.473l-4.341-.7.7-4.341,4.341.7Z" transform="translate(-507.306 -639.387)" fill="#ffc727"/>
                <path id="_Path_35" data-name="&lt;Path&gt;" d="M504.771,631.023l-4.341-.7.705-4.341,4.341.7Z" transform="translate(-497.634 -625.98)" fill="#ffc727"/>
                <path id="_Path_36" data-name="&lt;Path&gt;" d="M568.29,641.313l-4.34-.7.7-4.341,4.341.7Z" transform="translate(-543.792 -633.457)" fill="#ffc727"/>
                <path id="_Path_37" data-name="&lt;Path&gt;" d="M494.541,694.176l-4.341-.705.7-4.341,4.341.705Z" transform="translate(-490.2 -671.869)" fill="#ffc727"/>
                <path id="_Path_38" data-name="&lt;Path&gt;" d="M558.061,704.473l-4.341-.705.7-4.338,4.341.7Z" transform="translate(-536.358 -679.353)" fill="#ffc727"/>
                <path id="_Path_39" data-name="&lt;Path&gt;" d="M512.991,680.873l-4.341-.7.705-4.341,4.338.7Z" transform="translate(-503.607 -662.204)" fill="#ffc727"/>
                <path id="_Path_40" data-name="&lt;Path&gt;" d="M531.418,667.743l-4.338-.7.7-4.341,4.34.7Z" transform="translate(-516.999 -652.663)" fill="#ffc727"/>
                <path id="_Path_41" data-name="&lt;Path&gt;" d="M549.841,654.616l-4.341-.705.7-4.341,4.341.705Z" transform="translate(-530.384 -643.122)" fill="#ffc727"/>
                <path id="_Path_42" data-name="&lt;Path&gt;" d="M544.751,686.016l-4.341-.705.7-4.341,4.341.705Z" transform="translate(-526.686 -665.939)" fill="#ffc727"/>
              </g>
            </g>
            <g id="_Group_34" data-name="&lt;Group&gt;" transform="translate(61.745 7.786)">
              <g id="_Group_35" data-name="&lt;Group&gt;" transform="translate(0.375 1.914)">
                <path id="_Path_43" data-name="&lt;Path&gt;" d="M724.54,651.214a23.149,23.149,0,1,1-17.168-27.875A23.15,23.15,0,0,1,724.54,651.214Z" transform="translate(-678.864 -622.708)" fill="#ffc727"/>
                <path id="_Path_44" data-name="&lt;Path&gt;" d="M724.54,651.214a23.149,23.149,0,1,1-17.168-27.875A23.15,23.15,0,0,1,724.54,651.214Z" transform="translate(-678.864 -622.708)" opacity="0.2"/>
                <path id="_Path_45" data-name="&lt;Path&gt;" d="M725.049,651.22c-.107.454-.227.894-.364,1.336L679.56,642.93c.107-.8.251-1.61.44-2.422a23.152,23.152,0,1,1,45.049,10.712Z" transform="translate(-679.37 -622.708)" opacity="0.2"/>
              </g>
              <path id="_Path_46" data-name="&lt;Path&gt;" d="M732.269,662.343A18.567,18.567,0,1,1,718.5,639.99,18.566,18.566,0,0,1,732.269,662.343Z" transform="translate(-690.675 -632.982)" fill="#263238"/>
              <g id="_Group_36" data-name="&lt;Group&gt;" transform="translate(18.86 13.914)">
                <path id="_Path_47" data-name="&lt;Path&gt;" d="M750.768,688.92,746.49,687.9l5.062-21.293,4.278,1.017Z" transform="translate(-746.49 -666.61)" fill="#ffc727"/>
              </g>
              <g id="_Group_37" data-name="&lt;Group&gt;">
                <path id="_Path_48" data-name="&lt;Path&gt;" d="M724.889,645.693l-47.4-11.264a24.36,24.36,0,0,1,47.4,11.264Z" transform="translate(-677.49 -615.704)" fill="#ffc727"/>
                <path id="_Path_49" data-name="&lt;Path&gt;" d="M724.889,645.693l-47.4-11.264a24.36,24.36,0,0,1,47.4,11.264Z" transform="translate(-677.49 -615.704)" opacity="0.2"/>
              </g>
            </g>
            <path id="_Path_50" data-name="&lt;Path&gt;" d="M616.21,738.424a8.577,8.577,0,0,1,2.143-5.213,6.252,6.252,0,0,1,2.517-1.695,7.1,7.1,0,0,1,3.034-.336,5.648,5.648,0,0,1,4.756,3.553,9.478,9.478,0,0,1,.484,5.614,14.881,14.881,0,0,0-1.632-5.032,4.826,4.826,0,0,0-3.783-2.509,5.756,5.756,0,0,0-4.5,1.317A12.147,12.147,0,0,0,616.21,738.424Z" transform="translate(-571.215 -691.806)" opacity="0.102"/>
          </g>
          <g id="_Group_38" data-name="&lt;Group&gt;" transform="translate(16.121 1.952)">
            <path id="_Path_51" data-name="&lt;Path&gt;" d="M447.15,504.8c.191-2.474.47-4.934.705-7.4.262-2.463.533-4.926.834-7.383.284-2.463.6-4.917.918-7.372s.664-4.909.995-7.361l.087-.656.664.041q8.012.5,15.993,1.315,3.994.41,7.973.924c2.649.383,5.3.733,7.938,1.214l-16.007-.989L451.266,476.1l.752-.612c-.363,2.449-.7,4.9-1.088,7.347s-.749,4.9-1.159,7.339c-.394,2.444-.815,4.885-1.246,7.325C448.066,499.933,447.65,502.374,447.15,504.8Z" transform="translate(-447.15 -474.63)" fill="#fff"/>
            <path id="_Path_52" data-name="&lt;Path&gt;" d="M461.23,608.8a20.21,20.21,0,0,1,3.7-8.274c.454-.62.968-1.194,1.462-1.785.536-.552,1.091-1.088,1.643-1.629.6-.487,1.2-.97,1.818-1.438.653-.415,1.3-.847,1.963-1.244.7-.336,1.4-.683,2.1-1l2.2-.76,2.277-.47c.763-.112,1.539-.137,2.307-.194a22.337,22.337,0,0,1,8.914,1.708,31.746,31.746,0,0,0-8.842-.585,20.746,20.746,0,0,0-8.257,2.564,24.059,24.059,0,0,0-6.708,5.532A27.327,27.327,0,0,0,461.23,608.8Z" transform="translate(-457.381 -559.916)" fill="#fff"/>
            <path id="_Path_53" data-name="&lt;Path&gt;" d="M694.86,638.933a20.2,20.2,0,0,1,4.811-7.684c.533-.552,1.121-1.05,1.692-1.566.607-.473,1.233-.927,1.853-1.386q.988-.6,2-1.175c.7-.32,1.4-.659,2.116-.959.738-.238,1.476-.484,2.219-.7l2.282-.451,2.321-.15c.771-.005,1.544.079,2.313.128a22.324,22.324,0,0,1,8.591,2.922,31.621,31.621,0,0,0-8.676-1.8,20.715,20.715,0,0,0-8.534,1.4,24.049,24.049,0,0,0-7.407,4.554A27.349,27.349,0,0,0,694.86,638.933Z" transform="translate(-627.151 -583.796)" fill="#fff"/>
          </g>
        </g>
        <g id="_Group_39" data-name="&lt;Group&gt;" transform="translate(8.742 58.645)">
          <g id="_Group_40" data-name="&lt;Group&gt;">
            <g id="_Group_41" data-name="&lt;Group&gt;" transform="translate(10.083 19.33)">
              <path id="_Path_54" data-name="&lt;Path&gt;" d="M341.07,806.061c-5.929,0-18.912-1.334-27.265-12.076-10.688-13.741-6.825-40.109-6.656-41.225l4.641.7c-.038.254-3.728,25.5,5.718,37.641,9.236,11.874,25.989,10.171,26.156,10.149l.53,4.666A30.237,30.237,0,0,1,341.07,806.061Z" transform="translate(-306.332 -752.76)" fill="#ff6332"/>
              <path id="_Path_55" data-name="&lt;Path&gt;" d="M341.07,806.061c-5.929,0-18.912-1.334-27.265-12.076-10.688-13.741-6.825-40.109-6.656-41.225l4.641.7c-.038.254-3.728,25.5,5.718,37.641,9.236,11.874,25.989,10.171,26.156,10.149l.53,4.666A30.237,30.237,0,0,1,341.07,806.061Z" transform="translate(-306.332 -752.76)" fill="#fff" opacity="0.4"/>
            </g>
            <path id="_Path_56" data-name="&lt;Path&gt;" d="M286.349,705.265a15.621,15.621,0,0,1-2.588-.213c-7.828-1.266-11.294-5.951-12.825-9.657s-1.886-8.208-1.052-13.355l9.928,1.61a15.3,15.3,0,0,0,.424,7.91c.563,1.364,1.654,3,5.133,3.567,1.588.257,3.307.12,5.106-2.594a18.759,18.759,0,0,0,2.515-6.749l9.928,1.607a29.019,29.019,0,0,1-4.062,10.7C295.746,702.781,291.37,705.265,286.349,705.265Z" transform="translate(-269.444 -682.04)" fill="#ff7c53"/>
            <g id="_Group_42" data-name="&lt;Group&gt;" transform="translate(42.145 53.098)">
              <path id="_Path_57" data-name="&lt;Path&gt;" d="M436.113,909.264q-.016-.213-8.411-1.555l-4.073-27.394L433.8,876.3Z" transform="translate(-423.63 -876.3)" fill="#ff7c53"/>
              <path id="_Path_58" data-name="&lt;Path&gt;" d="M436.113,909.264q-.016-.213-8.411-1.555l-4.073-27.394L433.8,876.3Z" transform="translate(-423.63 -876.3)" opacity="0.2"/>
            </g>
          </g>
          <g id="_Group_43" data-name="&lt;Group&gt;" transform="translate(137.611 53.211)">
            <path id="_Path_59" data-name="&lt;Path&gt;" d="M772.89,909.612q.021-.213,8.443-1.367l4.677-27.3-10.075-4.24Z" transform="translate(-772.89 -876.71)" fill="#ffc727"/>
            <path id="_Path_60" data-name="&lt;Path&gt;" d="M772.89,909.612q.021-.213,8.443-1.367l4.677-27.3-10.075-4.24Z" transform="translate(-772.89 -876.71)" opacity="0.2"/>
          </g>
          <path id="_Path_61" data-name="&lt;Path&gt;" d="M456.517,850.531q67.889-2.9,90.819.921-6.736,65.687-7.1,66.962-67.528-.185-78.084,0Q456.429,874.732,456.517,850.531Z" transform="translate(-405.382 -803.567)" fill="#ff7c53"/>
          <g id="_Group_44" data-name="&lt;Group&gt;" transform="translate(71.753 64.334)">
            <path id="_Path_62" data-name="&lt;Path&gt;" d="M531.96,918.039q37.06-1.464,49.578.462-3.678,33.124-3.876,33.765-36.864-.09-42.627,0Q532.505,929.6,531.96,918.039Z" transform="translate(-531.957 -917.406)" opacity="0.2"/>
            <path id="_Path_63" data-name="&lt;Path&gt;" d="M537.018,953.708c-.847,0-1.52.011-1.993.017q-2.526-22.674-3.075-34.233.845-.033,2.315-.082Z" transform="translate(-531.95 -918.862)" opacity="0.2"/>
            <g id="_Group_45" data-name="&lt;Group&gt;" transform="translate(4.51 2.464)">
              <g id="_Group_46" data-name="&lt;Group&gt;">
                <g id="_Group_47" data-name="&lt;Group&gt;">
                  <g id="_Group_48" data-name="&lt;Group&gt;">
                    <path id="_Compound_Path_32" data-name="&lt;Compound Path&gt;" d="M571.979,943.778a8.307,8.307,0,1,1-5.423-10.422A8.31,8.31,0,0,1,571.979,943.778Zm-6.552-6.839a4.554,4.554,0,1,0,2.974,5.71A4.556,4.556,0,0,0,565.428,936.939Z" transform="translate(-553.753 -931.18)" fill="#ffc727"/>
                    <g id="_Group_49" data-name="&lt;Group&gt;">
                      <path id="_Path_64" data-name="&lt;Path&gt;" d="M573.506,990.362l-3.045-.962-.511,2.211,2.709.853Z" transform="translate(-564.073 -972.185)" fill="#ffc727"/>
                      <path id="_Path_65" data-name="&lt;Path&gt;" d="M553.89,974.942l-1.476-2.832-1.924,1.2,1.315,2.52Z" transform="translate(-549.932 -959.621)" fill="#ffc727"/>
                      <path id="_Path_66" data-name="&lt;Path&gt;" d="M550.555,951.469l.959-3.048-2.209-.511-.856,2.709Z" transform="translate(-548.45 -942.036)" fill="#ffc727"/>
                      <path id="_Path_67" data-name="&lt;Path&gt;" d="M564.228,931.857l2.832-1.473-1.2-1.924-2.52,1.312Z" transform="translate(-559.27 -927.902)" fill="#ffc727"/>
                      <path id="_Path_68" data-name="&lt;Path&gt;" d="M588.14,928.522l3.045.959.511-2.208-2.709-.853Z" transform="translate(-577.291 -926.42)" fill="#ffc727"/>
                      <path id="_Path_69" data-name="&lt;Path&gt;" d="M608.17,942.188l1.476,2.834,1.924-1.2-1.312-2.52Z" transform="translate(-591.846 -937.233)" fill="#ffc727"/>
                      <path id="_Path_70" data-name="&lt;Path&gt;" d="M612.4,966.1l-.959,3.048,2.209.511.856-2.712Z" transform="translate(-594.223 -955.254)" fill="#ffc727"/>
                      <path id="_Path_71" data-name="&lt;Path&gt;" d="M596.982,986.13l-2.832,1.476,1.2,1.924,2.52-1.312Z" transform="translate(-581.658 -969.809)" fill="#ffc727"/>
                    </g>
                  </g>
                </g>
              </g>
            </g>
            <g id="_Group_50" data-name="&lt;Group&gt;" transform="translate(20.981 15.762)">
              <g id="_Group_51" data-name="&lt;Group&gt;">
                <g id="_Group_52" data-name="&lt;Group&gt;">
                  <g id="_Group_53" data-name="&lt;Group&gt;">
                    <path id="_Compound_Path_33" data-name="&lt;Compound Path&gt;" d="M624.021,988.356a5.592,5.592,0,1,1-1.632-7.738A5.593,5.593,0,0,1,624.021,988.356Zm-3.012-5.62a3.066,3.066,0,1,0,.9,4.239A3.068,3.068,0,0,0,621.009,982.736Z" transform="translate(-612.366 -978.442)" fill="#dbdbdb"/>
                    <g id="_Group_54" data-name="&lt;Group&gt;">
                      <path id="_Path_72" data-name="&lt;Path&gt;" d="M620.064,1015.633l-1.8-1.173-.733,1.342,1.6,1.042Z" transform="translate(-615.119 -1003.693)" fill="#dbdbdb"/>
                      <path id="_Path_73" data-name="&lt;Path&gt;" d="M610.621,1002.765l-.446-2.1-1.465.432.4,1.872Z" transform="translate(-608.71 -993.665)" fill="#dbdbdb"/>
                      <path id="_Path_74" data-name="&lt;Path&gt;" d="M611.971,986.424l1.175-1.8-1.342-.733-1.044,1.6Z" transform="translate(-610.199 -981.479)" fill="#dbdbdb"/>
                      <path id="_Path_75" data-name="&lt;Path&gt;" d="M625.06,976.981l2.1-.445-.432-1.465-1.872.4Z" transform="translate(-620.445 -975.07)" fill="#dbdbdb"/>
                      <path id="_Path_76" data-name="&lt;Path&gt;" d="M640.79,978.341l1.8,1.173.732-1.342-1.6-1.041Z" transform="translate(-632.021 -976.567)" fill="#dbdbdb"/>
                      <path id="_Path_77" data-name="&lt;Path&gt;" d="M651.89,991.42l.446,2.1,1.465-.432-.4-1.872Z" transform="translate(-640.087 -986.805)" fill="#dbdbdb"/>
                      <path id="_Path_78" data-name="&lt;Path&gt;" d="M649.273,1007.15l-1.173,1.8,1.339.733,1.044-1.6Z" transform="translate(-637.333 -998.382)" fill="#dbdbdb"/>
                      <path id="_Path_79" data-name="&lt;Path&gt;" d="M636.4,1018.25l-2.1.445.432,1.465,1.872-.4Z" transform="translate(-627.305 -1006.447)" fill="#dbdbdb"/>
                    </g>
                  </g>
                </g>
              </g>
            </g>
          </g>
          <g id="_Group_55" data-name="&lt;Group&gt;" transform="translate(117.457 56.608)">
            <path id="_Path_80" data-name="&lt;Path&gt;" d="M782.78,939.735l2.61.486,7.462-50.535-2.974-.547Z" transform="translate(-759.923 -889.14)" fill="#ff6332"/>
            <g id="_Group_56" data-name="&lt;Group&gt;" transform="translate(0)">
              <path id="_Path_81" data-name="&lt;Path&gt;" d="M699.16,931.726l3.876-33.765,26.079-8.821q-7.1,51.14-7.1,50.595Z" transform="translate(-699.16 -889.14)" fill="#ff6332"/>
              <path id="_Path_82" data-name="&lt;Path&gt;" d="M699.16,931.726l3.876-33.765,26.079-8.821q-7.1,51.14-7.1,50.595Z" transform="translate(-699.16 -889.14)" fill="#fff" opacity="0.4"/>
            </g>
          </g>
          <path id="_Path_83" data-name="&lt;Path&gt;" d="M465.239,876.418c-.424-2.8-.653-5.617-.828-8.441-.082-1.41-.118-2.824-.148-4.239s-.052-2.829-.011-4.242l.011-.372.361-.019c5.182-.279,10.359-.62,15.542-.845,5.182-.257,10.365-.489,15.553-.651-5.172.467-10.343.866-15.517,1.241-5.172.4-10.351.694-15.526,1.047l.372-.391-.022,4.223.049,4.226q.012,2.112.074,4.226Z" transform="translate(-410.988 -809.62)" fill="#fff"/>
          <path id="_Path_84" data-name="&lt;Path&gt;" d="M726.65,904.729q2.423-1.152,4.917-2.14,2.481-1.013,5.016-1.9c1.692-.577,3.39-1.143,5.117-1.624a48.676,48.676,0,0,1,5.243-1.224l.437-.071-.079.418c-.41,2.187-.836,4.368-1.345,6.541.191-2.222.459-4.431.743-6.637l.361.347c-1.725.41-3.433.891-5.136,1.394s-3.4,1.044-5.092,1.6Z" transform="translate(-601.678 -838.803)" fill="#fff"/>
          <g id="_Group_57" data-name="&lt;Group&gt;" transform="translate(59.98 47.104)">
            <path id="_Path_85" data-name="&lt;Path&gt;" d="M509.21,854.37l.44,8.443.374,8.449.651,16.9.511,16.906.2,8.452.139,8.457-.44-8.446-.375-8.446-.651-16.9-.508-16.9-.205-8.454Z" transform="translate(-503.653 -854.37)" opacity="0.102"/>
            <path id="_Compound_Path_34" data-name="&lt;Compound Path&gt;" d="M492.018,869.585a1.594,1.594,0,0,1-1.091,1.837,1.592,1.592,0,1,1-.626-3.108A1.6,1.6,0,0,1,492.018,869.585Zm0,0a1.278,1.278,0,0,0-1.656-.968,1.287,1.287,0,0,0,.506,2.5,1.308,1.308,0,0,0,.9-.484A1.321,1.321,0,0,0,492.018,869.585Z" transform="translate(-488.881 -864.496)" opacity="0.102"/>
            <path id="_Compound_Path_35" data-name="&lt;Compound Path&gt;" d="M494.148,906.635a1.6,1.6,0,0,1-1.091,1.837,1.593,1.593,0,1,1-.626-3.108A1.6,1.6,0,0,1,494.148,906.635Zm0,0a1.28,1.28,0,0,0-1.656-.97,1.289,1.289,0,0,0,.506,2.507,1.278,1.278,0,0,0,1.151-1.536Z" transform="translate(-490.428 -891.419)" opacity="0.102"/>
            <path id="_Compound_Path_36" data-name="&lt;Compound Path&gt;" d="M495.5,945.955a1.6,1.6,0,0,1-1.091,1.837,1.593,1.593,0,1,1-.626-3.108A1.6,1.6,0,0,1,495.5,945.955Zm0,0a1.321,1.321,0,0,0-.637-.872,1.277,1.277,0,0,0-1.87,1.378,1.277,1.277,0,0,0,2.258.547A1.31,1.31,0,0,0,495.5,945.955Z" transform="translate(-491.409 -919.991)" opacity="0.102"/>
            <path id="_Compound_Path_37" data-name="&lt;Compound Path&gt;" d="M496.848,985.285a1.6,1.6,0,0,1-1.091,1.837,1.593,1.593,0,1,1-.626-3.108A1.6,1.6,0,0,1,496.848,985.285Zm0,0a1.28,1.28,0,0,0-1.656-.97,1.289,1.289,0,0,0,.506,2.507,1.282,1.282,0,0,0,1.151-1.536Z" transform="translate(-492.39 -948.571)" opacity="0.102"/>
            <path id="_Compound_Path_38" data-name="&lt;Compound Path&gt;" d="M498.2,1024.605a1.6,1.6,0,0,1-1.091,1.837,1.592,1.592,0,1,1-.626-3.108A1.6,1.6,0,0,1,498.2,1024.605Zm0,0a1.321,1.321,0,0,0-.637-.872,1.286,1.286,0,1,0,.388,1.924A1.32,1.32,0,0,0,498.2,1024.605Z" transform="translate(-493.371 -977.143)" opacity="0.102"/>
            <path id="_Compound_Path_39" data-name="&lt;Compound Path&gt;" d="M499.545,1063.935a1.6,1.6,0,0,1-1.091,1.837,1.593,1.593,0,1,1-.626-3.108A1.6,1.6,0,0,1,499.545,1063.935Zm0,0a1.28,1.28,0,0,0-1.656-.97,1.289,1.289,0,0,0,.506,2.507,1.281,1.281,0,0,0,1.151-1.536Z" transform="translate(-494.349 -1005.723)" opacity="0.102"/>
          </g>
        </g>
        <g id="_Group_58" data-name="&lt;Group&gt;" transform="translate(0 160.165)">
          <path id="_Path_86" data-name="&lt;Path&gt;" d="M380.821,1143.608l-1.361-4.491L417.9,1127.47l1.361,4.491Z" transform="translate(-340.646 -1107.238)" fill="#ffc727"/>
          <path id="_Path_87" data-name="&lt;Path&gt;" d="M380.821,1143.608l-1.361-4.491L417.9,1127.47l1.361,4.491Z" transform="translate(-340.646 -1107.238)" fill="#fff" opacity="0.4"/>
          <path id="_Path_88" data-name="&lt;Path&gt;" d="M438.463,1150.3l-2.113-6.642,4.475-1.422,2.113,6.642Z" transform="translate(-381.986 -1117.97)" fill="#ffc727"/>
          <g id="_Group_59" data-name="&lt;Group&gt;">
            <path id="_Path_89" data-name="&lt;Path&gt;" d="M277.318,1096.4,267.4,1053.45l-29.939,7.1,14.744,41.859Z" transform="translate(-237.46 -1053.45)" fill="#ff7c53"/>
            <g id="_Group_60" data-name="&lt;Group&gt;" transform="translate(29.939)">
              <path id="_Path_90" data-name="&lt;Path&gt;" d="M363.551,1094.218l-6.642,2.184-9.919-42.952,9.556,2.274Z" transform="translate(-346.99 -1053.45)" fill="#ff6332"/>
              <path id="_Path_91" data-name="&lt;Path&gt;" d="M363.551,1094.218l-6.642,2.184-9.919-42.952,9.556,2.274Z" transform="translate(-346.99 -1053.45)" opacity="0.2"/>
            </g>
          </g>
          <path id="_Path_92" data-name="&lt;Path&gt;" d="M514.123,1122.135a5.1,5.1,0,1,1-5.1-5.1A5.1,5.1,0,0,1,514.123,1122.135Z" transform="translate(-431.094 -1099.658)" fill="#ffc727"/>
        </g>
        <g id="_Group_61" data-name="&lt;Group&gt;" transform="translate(124.595 160.148)">
          <path id="_Path_93" data-name="&lt;Path&gt;" d="M747.845,1143.257l-38.415-11.729,1.369-4.489,38.415,11.729Z" transform="translate(-705.018 -1106.909)" fill="#ffc727"/>
          <path id="_Path_94" data-name="&lt;Path&gt;" d="M747.845,1143.257l-38.415-11.729,1.369-4.489,38.415,11.729Z" transform="translate(-705.018 -1106.909)" fill="#fff" opacity="0.4"/>
          <path id="_Path_95" data-name="&lt;Path&gt;" d="M778.469,1150.021,774,1148.589l2.13-6.639,4.469,1.432Z" transform="translate(-751.939 -1117.743)" fill="#ffc727"/>
          <g id="_Group_62" data-name="&lt;Group&gt;" transform="translate(36.491)">
            <path id="_Path_96" data-name="&lt;Path&gt;" d="M851.07,1096.32l10.01-42.93L891,1060.551l-14.831,41.829Z" transform="translate(-844.433 -1053.39)" fill="#ff7c53"/>
            <g id="_Group_63" data-name="&lt;Group&gt;">
              <path id="_Path_97" data-name="&lt;Path&gt;" d="M826.79,1094.123l6.637,2.2,10.01-42.93-9.559,2.255Z" transform="translate(-826.79 -1053.39)" fill="#ff6332"/>
              <path id="_Path_98" data-name="&lt;Path&gt;" d="M826.79,1094.123l6.637,2.2,10.01-42.93-9.559,2.255Z" transform="translate(-826.79 -1053.39)" opacity="0.2"/>
            </g>
          </g>
          <path id="_Path_99" data-name="&lt;Path&gt;" d="M693.29,1121.694a5.1,5.1,0,1,0,5.106-5.084A5.1,5.1,0,0,0,693.29,1121.694Z" transform="translate(-693.29 -1099.329)" fill="#ffc727"/>
        </g>
        <g id="_Group_64" data-name="&lt;Group&gt;" transform="translate(159.547 116.36)">
          <g id="_Group_65" data-name="&lt;Group&gt;">
            <path id="_Path_100" data-name="&lt;Path&gt;" d="M825.393,906.365c.12-.112,12.467-11.562,26.989-7.645,14.853,4.007,27.115,26.377,27.235,26.6l4.13-2.23c-.536-.992-13.328-24.373-30.144-28.9-17.1-4.611-30.868,8.228-31.445,8.777Z" transform="translate(-821.887 -893.19)" fill="#ff6332"/>
            <path id="_Path_101" data-name="&lt;Path&gt;" d="M824.393,906.365c.12-.112,12.467-11.562,26.989-7.645,14.853,4.007,27.115,26.377,27.235,26.6l4.13-2.23c-.536-.992-13.328-24.373-30.144-28.9-17.1-4.611-30.868,8.228-31.445,8.777Z" transform="translate(-821.16 -893.19)" fill="#fff" opacity="0.4"/>
          </g>
          <path id="_Path_102" data-name="&lt;Path&gt;" d="M1003.741,1019.132l8.894-4.7a18.79,18.79,0,0,1-2.058-6.9c-.2-3.25,1.093-4.392,2.515-5.144,3.119-1.646,4.978-.995,6.246-.246a15.331,15.331,0,0,1,5.1,6.063l8.894-4.7c-2.435-4.611-5.423-7.984-8.883-10.026s-9.042-3.69-16.053.011c-5.467,2.886-8.258,8.088-7.858,14.651A29.138,29.138,0,0,0,1003.741,1019.132Z" transform="translate(-951.481 -964.478)" fill="#ff7c53"/>
        </g>
        <g id="_Group_66" data-name="&lt;Group&gt;" transform="translate(159.82 99.631)">
          <path id="_Path_103" data-name="&lt;Path&gt;" d="M840.85,846.225c1.927-1.334,3.9-2.589,5.879-3.83s3.985-2.446,5.994-3.643c2.017-1.178,4.037-2.353,6.087-3.477l3.078-1.681c1.041-.533,2.069-1.093,3.124-1.6-.959.672-1.946,1.3-2.919,1.952l-2.963,1.878c-1.976,1.249-3.983,2.446-5.992,3.641-2.02,1.175-4.037,2.354-6.09,3.477S842.949,845.184,840.85,846.225Z" transform="translate(-835.741 -831.99)" fill="#263238"/>
          <path id="_Path_104" data-name="&lt;Path&gt;" d="M822.16,954.27c2.761,1.572,5.377,3.348,7.96,5.172,2.567,1.845,5.1,3.742,7.481,5.841-2.764-1.572-5.379-3.348-7.96-5.174C827.077,958.263,824.546,956.369,822.16,954.27Z" transform="translate(-822.16 -920.846)" fill="#263238"/>
          <path id="_Path_105" data-name="&lt;Path&gt;" d="M838.75,945.63c2.129.648,4.228,1.38,6.319,2.124s4.168,1.531,6.24,2.326c2.066.812,4.13,1.626,6.172,2.5l3.064,1.315c1.009.465,2.028.9,3.029,1.394-1.069-.314-2.116-.681-3.176-1.02l-3.143-1.1c-2.1-.735-4.168-1.531-6.24-2.326-2.066-.815-4.13-1.629-6.172-2.5S840.756,946.595,838.75,945.63Z" transform="translate(-834.216 -914.568)" fill="#263238"/>
          <path id="_Path_106" data-name="&lt;Path&gt;" d="M860.89,879.038c2.042-.53,4.1-.973,6.158-1.4s4.127-.815,6.2-1.189c2.072-.353,4.144-.708,6.229-1l3.124-.434c1.049-.115,2.091-.257,3.143-.347-1.019.273-2.05.495-3.072.744l-3.086.659c-2.058.437-4.127.812-6.2,1.186-2.072.353-4.147.708-6.229,1S862.989,878.841,860.89,879.038Z" transform="translate(-850.304 -863.004)" fill="#263238"/>
        </g>
      </g>
    </g>
    <g id="Gears" transform="translate(16.987 30.483)">
      <g id="_Group_67" data-name="&lt;Group&gt;">
        <g id="_Group_68" data-name="&lt;Group&gt;" transform="translate(166.301 200.525)">
          <path id="_Path_107" data-name="&lt;Path&gt;" d="M680.87,870.578a22,22,0,0,1,1.621-4.816,19.481,19.481,0,0,1,2.711-4.33,10.521,10.521,0,0,1,4.119-3.081,7.269,7.269,0,0,1,5.177.052,6.9,6.9,0,0,1,3.693,3.666,8.233,8.233,0,0,1,.694,2.55,5.719,5.719,0,0,1-.3,2.679,2.451,2.451,0,0,1-.907,1.162,1.756,1.756,0,0,1-.741.276,1.657,1.657,0,0,1-.817-.077,2.3,2.3,0,0,1-1.058-1.072,6.182,6.182,0,0,1-.484-1.266,16.636,16.636,0,0,1-.426-5.172,21.285,21.285,0,0,1,2.99-9.81,12.881,12.881,0,0,1,3.556-3.78,10.827,10.827,0,0,1,4.83-1.864,13.793,13.793,0,0,1,2.578-.227,8.211,8.211,0,0,1,1.293.082,8.366,8.366,0,0,1,1.279.172,15.72,15.72,0,0,1,4.8,1.818,19.99,19.99,0,0,1,4.018,3.152,21.315,21.315,0,0,1,3.165,3.977,22.165,22.165,0,0,0-7.38-6.779,15.4,15.4,0,0,0-4.7-1.657,7.837,7.837,0,0,0-1.238-.139,7.528,7.528,0,0,0-1.241-.052,13.332,13.332,0,0,0-2.468.273,10.708,10.708,0,0,0-4.537,1.826,12.085,12.085,0,0,0-3.327,3.594,20.547,20.547,0,0,0-2.807,9.463,15.87,15.87,0,0,0,.364,4.915,2.881,2.881,0,0,0,1.069,1.834c.066.006.109.041.191.044a1.4,1.4,0,0,0,.24-.008,1.019,1.019,0,0,0,.44-.158,1.737,1.737,0,0,0,.623-.815,4.944,4.944,0,0,0,.268-2.32,7.539,7.539,0,0,0-.615-2.334,6.422,6.422,0,0,0-3.291-3.373,6.694,6.694,0,0,0-4.756-.145,10.121,10.121,0,0,0-4,2.856A22.064,22.064,0,0,0,680.87,870.578Z" transform="translate(-680.87 -845.457)" fill="#263238"/>
        </g>
        <g id="_Group_69" data-name="&lt;Group&gt;" transform="translate(90.527 240.112)">
          <path id="_Path_108" data-name="&lt;Path&gt;" d="M403.65,997.072a11.612,11.612,0,0,1,3.316-3.8,12.324,12.324,0,0,1,4.592-2.2,9.861,9.861,0,0,1,5.128.1,10.226,10.226,0,0,1,4.376,2.725,12.971,12.971,0,0,1,2.742,4.371,12,12,0,0,1,.847,5.109,4.235,4.235,0,0,1-.951,2.558,1.994,1.994,0,0,1-1.383.623,2.988,2.988,0,0,1-1.413-.32,2.348,2.348,0,0,1-1.017-1.082,3.591,3.591,0,0,1-.306-1.378,7.535,7.535,0,0,1,.435-2.619,15.186,15.186,0,0,1,2.509-4.518,18.3,18.3,0,0,1,3.712-3.567,13.86,13.86,0,0,1,9.772-2.687,13.192,13.192,0,0,1,4.885,1.591,13.342,13.342,0,0,1,3.873,3.34,17.943,17.943,0,0,1,2.528,4.412,20.392,20.392,0,0,1,1.342,4.879,20.5,20.5,0,0,0-4.193-9.026,12.822,12.822,0,0,0-3.81-3.133,12.607,12.607,0,0,0-4.7-1.41,13.318,13.318,0,0,0-9.255,2.646,16.82,16.82,0,0,0-5.9,7.727,6.8,6.8,0,0,0-.413,2.337,1.986,1.986,0,0,0,.9,1.809,2.22,2.22,0,0,0,1.028.238,1.22,1.22,0,0,0,.864-.388,3.536,3.536,0,0,0,.754-2.1,11.26,11.26,0,0,0-.774-4.789,12.731,12.731,0,0,0-2.558-4.166,9.736,9.736,0,0,0-4.067-2.638,9.36,9.36,0,0,0-4.86-.216A12.608,12.608,0,0,0,403.65,997.072Z" transform="translate(-403.65 -990.287)" fill="#263238"/>
        </g>
        <g id="_Group_70" data-name="&lt;Group&gt;" transform="translate(15.804 17.595)">
          <path id="_Path_109" data-name="&lt;Path&gt;" d="M167.066,207.482a22.088,22.088,0,0,0-2.381-9.731,10.1,10.1,0,0,0-3.2-3.728,6.691,6.691,0,0,0-4.655-.995,6.4,6.4,0,0,0-4,2.49,7.556,7.556,0,0,0-1.156,2.121,5.01,5.01,0,0,0-.3,2.315,1.743,1.743,0,0,0,.415.94,1,1,0,0,0,.385.26,1.359,1.359,0,0,0,.235.066,1.557,1.557,0,0,0,.194,0c.56-.107,1.107-.845,1.476-1.525a15.908,15.908,0,0,0,1.525-4.688,20.521,20.521,0,0,0-.465-9.857,12.136,12.136,0,0,0-2.375-4.286,10.667,10.667,0,0,0-3.972-2.856,13.187,13.187,0,0,0-2.329-.853,7.714,7.714,0,0,0-1.219-.249,7.844,7.844,0,0,0-1.233-.159,15.359,15.359,0,0,0-4.958.489,22.088,22.088,0,0,0-8.782,4.822,21.19,21.19,0,0,1,4.021-3.111,20.117,20.117,0,0,1,4.655-2.1,15.624,15.624,0,0,1,5.095-.618,8.1,8.1,0,0,1,1.285.137,7.965,7.965,0,0,1,1.274.23,13.678,13.678,0,0,1,2.449.834,10.843,10.843,0,0,1,4.248,2.963,12.9,12.9,0,0,1,2.55,4.521,21.278,21.278,0,0,1,.563,10.239,16.706,16.706,0,0,1-1.648,4.923,6.216,6.216,0,0,1-.771,1.11,2.3,2.3,0,0,1-1.285.79,1.682,1.682,0,0,1-.812-.12,1.74,1.74,0,0,1-.653-.446,2.465,2.465,0,0,1-.6-1.345,5.707,5.707,0,0,1,.344-2.673,8.3,8.3,0,0,1,1.285-2.312,6.881,6.881,0,0,1,4.461-2.676,7.267,7.267,0,0,1,5.038,1.186,10.488,10.488,0,0,1,3.266,3.972,19.512,19.512,0,0,1,1.6,4.852A22.079,22.079,0,0,1,167.066,207.482Z" transform="translate(-130.28 -176.21)" fill="#263238"/>
        </g>
        <g id="_Group_71" data-name="&lt;Group&gt;" transform="translate(197.307 90.858)">
          <path id="_Path_110" data-name="&lt;Path&gt;" d="M830.66,445.027a22.1,22.1,0,0,0-10.018.044,10.137,10.137,0,0,0-4.373,2.241,6.69,6.69,0,0,0-2.053,4.294,6.4,6.4,0,0,0,1.49,4.469,7.47,7.47,0,0,0,1.79,1.618,4.988,4.988,0,0,0,2.184.828,1.75,1.75,0,0,0,1.011-.183,1.018,1.018,0,0,0,.342-.314,1.811,1.811,0,0,0,.12-.213c.033-.071.022-.128.047-.189.027-.569-.56-1.274-1.14-1.793a15.985,15.985,0,0,0-4.2-2.578,20.527,20.527,0,0,0-9.693-1.845,12.143,12.143,0,0,0-4.723,1.309,10.657,10.657,0,0,0-3.7,3.193,12.954,12.954,0,0,0-1.375,2.069,7.392,7.392,0,0,0-.525,1.126,8.226,8.226,0,0,0-.446,1.162,15.493,15.493,0,0,0-.681,4.934,22.1,22.1,0,0,0,2.641,9.668,21.178,21.178,0,0,1-2.086-4.636,20.126,20.126,0,0,1-.957-5.019,15.781,15.781,0,0,1,.588-5.1,18.213,18.213,0,0,1,.954-2.4,13.659,13.659,0,0,1,1.383-2.187,10.809,10.809,0,0,1,3.873-3.436,12.864,12.864,0,0,1,4.991-1.427,21.27,21.27,0,0,1,10.086,1.84,16.762,16.762,0,0,1,4.4,2.753,6.385,6.385,0,0,1,.9,1.009,2.3,2.3,0,0,1,.467,1.435,1.659,1.659,0,0,1-.306.76,1.762,1.762,0,0,1-.585.533,2.478,2.478,0,0,1-1.449.271,5.687,5.687,0,0,1-2.517-.957,8.328,8.328,0,0,1-1.952-1.788,6.892,6.892,0,0,1-1.561-4.964,7.268,7.268,0,0,1,2.329-4.622,10.519,10.519,0,0,1,4.625-2.25,19.481,19.481,0,0,1,5.092-.421A21.95,21.95,0,0,1,830.66,445.027Z" transform="translate(-794.304 -444.243)" fill="#263238"/>
        </g>
        <g id="_Group_72" data-name="&lt;Group&gt;" transform="translate(182.39 2.575)">
          <path id="_Path_111" data-name="&lt;Path&gt;" d="M740.235,157.272a13.964,13.964,0,0,1-.32-6.027,14.7,14.7,0,0,1,2.1-5.707,11.725,11.725,0,0,1,4.464-4.182,12.2,12.2,0,0,1,6.005-1.315,15.492,15.492,0,0,1,5.978,1.446,14.308,14.308,0,0,1,4.977,3.649,5.01,5.01,0,0,1,1.309,2.944,2.3,2.3,0,0,1-.642,1.637,3.469,3.469,0,0,1-1.446.888,2.707,2.707,0,0,1-1.727-.074,4.286,4.286,0,0,1-1.391-.908,8.989,8.989,0,0,1-1.8-2.588,18.2,18.2,0,0,1-1.626-5.942,21.74,21.74,0,0,1,.188-6.145,16.543,16.543,0,0,1,6.085-10.442,15.766,15.766,0,0,1,5.494-2.728,15.928,15.928,0,0,1,6.1-.391,21.548,21.548,0,0,1,5.855,1.64,24.587,24.587,0,0,1,5.24,3.037,24.421,24.421,0,0,0-11.141-4.261,15.421,15.421,0,0,0-5.907.495,15.406,15.406,0,0,0-9.045,7.205,17.4,17.4,0,0,0-1.93,5.576,20.189,20.189,0,0,0,1.416,11.6,8.249,8.249,0,0,0,1.621,2.37,2.448,2.448,0,0,0,2.362.812,2.707,2.707,0,0,0,1.11-.675,1.522,1.522,0,0,0,.437-1.107,4.319,4.319,0,0,0-1.129-2.476,13.529,13.529,0,0,0-4.7-3.471,15.277,15.277,0,0,0-5.7-1.43,11.721,11.721,0,0,0-5.718,1.162,11.236,11.236,0,0,0-4.357,3.911A15.072,15.072,0,0,0,740.235,157.272Z" transform="translate(-739.729 -121.26)" fill="#263238"/>
        </g>
        <g id="_Group_73" data-name="&lt;Group&gt;" transform="translate(77.622 241.466)">
          <g id="_Group_74" data-name="&lt;Group&gt;">
            <g id="_Group_75" data-name="&lt;Group&gt;">
              <g id="_Group_76" data-name="&lt;Group&gt;">
                <path id="_Compound_Path_40" data-name="&lt;Compound Path&gt;" d="M377.252,1010.6a7.349,7.349,0,1,1-4.8-9.217A7.351,7.351,0,0,1,377.252,1010.6Zm-5.8-6.049a4.028,4.028,0,1,0,2.63,5.051A4.033,4.033,0,0,0,371.454,1004.548Z" transform="translate(-361.128 -999.453)" fill="#455a64"/>
                <g id="_Group_77" data-name="&lt;Group&gt;">
                  <path id="_Path_112" data-name="&lt;Path&gt;" d="M378.606,1051.81l-2.7-.85-.451,1.954,2.4.755Z" transform="translate(-370.261 -1035.73)" fill="#455a64"/>
                  <path id="_Path_113" data-name="&lt;Path&gt;" d="M361.257,1038.166l-1.306-2.506-1.7,1.063,1.162,2.228Z" transform="translate(-357.755 -1024.612)" fill="#455a64"/>
                  <path id="_Path_114" data-name="&lt;Path&gt;" d="M358.3,1017.4l.85-2.695-1.954-.454-.757,2.4Z" transform="translate(-356.44 -1009.054)" fill="#455a64"/>
                  <path id="_Path_115" data-name="&lt;Path&gt;" d="M370.4,1000.049l2.507-1.307-1.063-1.7-2.23,1.162Z" transform="translate(-366.01 -996.548)" fill="#455a64"/>
                  <path id="_Path_116" data-name="&lt;Path&gt;" d="M391.55,997.1l2.7.847.451-1.954-2.4-.755Z" transform="translate(-381.953 -995.24)" fill="#455a64"/>
                  <path id="_Path_117" data-name="&lt;Path&gt;" d="M409.27,1009.194l1.3,2.507,1.7-1.063-1.162-2.228Z" transform="translate(-394.83 -1004.81)" fill="#455a64"/>
                  <path id="_Path_118" data-name="&lt;Path&gt;" d="M413.01,1030.34l-.85,2.695,1.954.454.757-2.4Z" transform="translate(-396.93 -1020.746)" fill="#455a64"/>
                  <path id="_Path_119" data-name="&lt;Path&gt;" d="M399.366,1048.07l-2.507,1.3,1.063,1.7,2.23-1.162Z" transform="translate(-385.812 -1033.63)" fill="#455a64"/>
                </g>
              </g>
            </g>
          </g>
        </g>
        <g id="_Group_78" data-name="&lt;Group&gt;" transform="translate(200.684 203.114)">
          <g id="_Group_79" data-name="&lt;Group&gt;">
            <path id="_Compound_Path_41" data-name="&lt;Compound Path&gt;" d="M821.46,884.714a11.233,11.233,0,1,1,15.714-2.326A11.23,11.23,0,0,1,821.46,884.714Zm9.821-13.232a5.246,5.246,0,1,0,1.085,7.336A5.245,5.245,0,0,0,831.281,871.482Z" transform="translate(-814.115 -861.854)" fill="#263238"/>
            <path id="_Path_120" data-name="&lt;Path&gt;" d="M827.33,935.055l-3.469-2.575-1.632,2.6,3.086,2.291Z" transform="translate(-817.974 -911.283)" fill="#263238"/>
            <path id="_Path_121" data-name="&lt;Path&gt;" d="M810.282,908.335l-.631-4.275-2.99.686.563,3.8Z" transform="translate(-806.66 -890.631)" fill="#263238"/>
            <path id="_Path_122" data-name="&lt;Path&gt;" d="M814.623,875.608l2.575-3.469-2.6-1.629L812.31,873.6Z" transform="translate(-810.766 -866.251)" fill="#263238"/>
            <path id="_Path_123" data-name="&lt;Path&gt;" d="M842.41,858.552l4.275-.631L846,854.93l-3.8.563Z" transform="translate(-832.485 -854.93)" fill="#263238"/>
            <path id="_Path_124" data-name="&lt;Path&gt;" d="M873.51,862.9l3.469,2.572,1.629-2.6-3.083-2.291Z" transform="translate(-855.237 -859.036)" fill="#263238"/>
            <path id="_Path_125" data-name="&lt;Path&gt;" d="M894.49,890.683l.631,4.272,2.99-.683-.563-3.8Z" transform="translate(-870.483 -880.755)" fill="#263238"/>
            <path id="_Path_126" data-name="&lt;Path&gt;" d="M886.782,921.78l-2.572,3.469,2.6,1.632,2.291-3.086Z" transform="translate(-863.013 -903.507)" fill="#263238"/>
            <path id="_Path_127" data-name="&lt;Path&gt;" d="M860.062,942.76l-4.272.634.683,2.988,3.8-.561Z" transform="translate(-842.361 -918.753)" fill="#263238"/>
          </g>
          <path id="_Compound_Path_42" data-name="&lt;Compound Path&gt;" d="M844.713,892.97l3.8-.56,2.383,3.009-1.41,3.567-3.8.566-2.386-3.009Zm1.408,2.285a1.217,1.217,0,1,0,1.7-.252A1.22,1.22,0,0,0,846.121,895.255Z" transform="translate(-833.285 -882.165)" fill="#263238"/>
        </g>
        <g id="_Group_80" data-name="&lt;Group&gt;" transform="translate(223.273)">
          <g id="_Group_81" data-name="&lt;Group&gt;">
            <g id="_Group_82" data-name="&lt;Group&gt;">
              <g id="_Group_83" data-name="&lt;Group&gt;">
                <path id="_Compound_Path_43" data-name="&lt;Compound Path&gt;" d="M907.5,125.28a6.431,6.431,0,1,1-4.2-8.066A6.432,6.432,0,0,1,907.5,125.28Zm-5.073-5.295a3.525,3.525,0,1,0,2.3,4.42A3.53,3.53,0,0,0,902.431,119.986Z" transform="translate(-893.397 -115.527)" fill="#263238"/>
                <g id="_Group_84" data-name="&lt;Group&gt;">
                  <path id="_Path_128" data-name="&lt;Path&gt;" d="M908.685,161.343l-2.359-.743-.4,1.711,2.1.659Z" transform="translate(-901.385 -147.272)" fill="#263238"/>
                  <path id="_Path_129" data-name="&lt;Path&gt;" d="M893.509,149.4l-1.143-2.192-1.487.929,1.014,1.952Z" transform="translate(-890.448 -137.542)" fill="#263238"/>
                  <path id="_Path_130" data-name="&lt;Path&gt;" d="M890.926,131.232l.743-2.356-1.711-.4-.659,2.1Z" transform="translate(-889.3 -123.932)" fill="#263238"/>
                  <path id="_Path_131" data-name="&lt;Path&gt;" d="M901.506,116.052l2.195-1.143-.929-1.49-1.952,1.017Z" transform="translate(-897.671 -112.988)" fill="#263238"/>
                  <path id="_Path_132" data-name="&lt;Path&gt;" d="M920.01,113.469l2.359.743.4-1.711-2.1-.661Z" transform="translate(-911.615 -111.84)" fill="#263238"/>
                  <path id="_Path_133" data-name="&lt;Path&gt;" d="M935.52,124.049l1.143,2.192,1.49-.929-1.017-1.952Z" transform="translate(-922.886 -120.211)" fill="#263238"/>
                  <path id="_Path_134" data-name="&lt;Path&gt;" d="M938.793,142.56l-.744,2.359,1.711.394.661-2.1Z" transform="translate(-924.725 -134.163)" fill="#263238"/>
                  <path id="_Path_135" data-name="&lt;Path&gt;" d="M926.862,158.07l-2.192,1.14.929,1.49,1.949-1.014Z" transform="translate(-915.002 -145.434)" fill="#263238"/>
                </g>
              </g>
            </g>
          </g>
        </g>
        <g id="_Group_85" data-name="&lt;Group&gt;" transform="translate(191.935 117.152)">
          <g id="_Group_86" data-name="&lt;Group&gt;">
            <g id="_Group_87" data-name="&lt;Group&gt;">
              <g id="_Group_88" data-name="&lt;Group&gt;">
                <path id="_Compound_Path_44" data-name="&lt;Compound Path&gt;" d="M792.858,553.874a6.43,6.43,0,1,1-4.2-8.066A6.429,6.429,0,0,1,792.858,553.874Zm-5.071-5.292a3.525,3.525,0,1,0,2.3,4.42A3.527,3.527,0,0,0,787.787,548.582Z" transform="translate(-778.751 -544.124)" fill="#263238"/>
                <g id="_Group_89" data-name="&lt;Group&gt;">
                  <path id="_Path_136" data-name="&lt;Path&gt;" d="M794.042,589.933l-2.359-.743-.394,1.711,2.1.661Z" transform="translate(-786.741 -575.865)" fill="#263238"/>
                  <path id="_Path_137" data-name="&lt;Path&gt;" d="M778.862,578l-1.142-2.192-1.49.929,1.014,1.949Z" transform="translate(-775.798 -566.142)" fill="#263238"/>
                  <path id="_Path_138" data-name="&lt;Path&gt;" d="M776.279,559.825l.741-2.359-1.708-.4-.661,2.1Z" transform="translate(-774.65 -552.524)" fill="#263238"/>
                  <path id="_Path_139" data-name="&lt;Path&gt;" d="M786.859,544.649l2.192-1.143-.929-1.487-1.952,1.014Z" transform="translate(-783.021 -541.588)" fill="#263238"/>
                  <path id="_Path_140" data-name="&lt;Path&gt;" d="M805.37,542.066l2.356.743.4-1.711-2.1-.659Z" transform="translate(-796.973 -540.44)" fill="#263238"/>
                  <path id="_Path_141" data-name="&lt;Path&gt;" d="M820.87,552.646l1.143,2.2,1.49-.93-1.017-1.952Z" transform="translate(-808.236 -548.811)" fill="#263238"/>
                  <path id="_Path_142" data-name="&lt;Path&gt;" d="M824.143,571.15l-.743,2.359,1.711.4.661-2.1Z" transform="translate(-810.075 -562.756)" fill="#263238"/>
                  <path id="_Path_143" data-name="&lt;Path&gt;" d="M812.212,586.66,810.02,587.8l.929,1.49,1.952-1.017Z" transform="translate(-800.352 -574.026)" fill="#263238"/>
                </g>
              </g>
            </g>
          </g>
        </g>
        <g id="_Group_90" data-name="&lt;Group&gt;" transform="translate(0 15.698)">
          <g id="_Group_91" data-name="&lt;Group&gt;">
            <path id="_Compound_Path_45" data-name="&lt;Compound Path&gt;" d="M88.674,196.287a9.672,9.672,0,1,1,11.685-7.109A9.675,9.675,0,0,1,88.674,196.287ZM92.034,182.5a4.517,4.517,0,1,0,3.318,5.456A4.515,4.515,0,0,0,92.034,182.5Z" transform="translate(-78.875 -175.043)" fill="#263238"/>
            <path id="_Path_144" data-name="&lt;Path&gt;" d="M104.527,244.83l-3.614-.88-.424,2.6,3.214.784Z" transform="translate(-92.828 -223.537)" fill="#263238"/>
            <path id="_Path_145" data-name="&lt;Path&gt;" d="M80.355,228.136,78.42,224.96,76.28,226.5,78,229.331Z" transform="translate(-75.236 -209.738)" fill="#263238"/>
            <path id="_Path_146" data-name="&lt;Path&gt;" d="M74.969,201.337l.883-3.614-2.608-.424-.784,3.214Z" transform="translate(-72.46 -189.638)" fill="#263238"/>
            <path id="_Path_147" data-name="&lt;Path&gt;" d="M89.062,177.163l3.179-1.933L90.7,173.09l-2.826,1.717Z" transform="translate(-83.658 -172.046)" fill="#263238"/>
            <path id="_Path_148" data-name="&lt;Path&gt;" d="M116.74,171.779l3.614.88.424-2.6-3.214-.784Z" transform="translate(-104.637 -169.27)" fill="#263238"/>
            <path id="_Path_149" data-name="&lt;Path&gt;" d="M140.82,185.872l1.932,3.176,2.143-1.542-1.719-2.826Z" transform="translate(-122.135 -180.468)" fill="#263238"/>
            <path id="_Path_150" data-name="&lt;Path&gt;" d="M148.02,213.55l-.88,3.614,2.608.424.782-3.214Z" transform="translate(-126.727 -201.447)" fill="#263238"/>
            <path id="_Path_151" data-name="&lt;Path&gt;" d="M131.329,237.63l-3.179,1.932,1.544,2.143,2.826-1.719Z" transform="translate(-112.928 -218.945)" fill="#263238"/>
          </g>
          <path id="_Compound_Path_46" data-name="&lt;Compound Path&gt;" d="M105.39,202.437l2.826-1.717,2.9,1.588.077,3.3-2.824,1.722-2.9-1.588Zm1.881,1.339a1.049,1.049,0,1,0,1.268-.768A1.052,1.052,0,0,0,107.271,203.776Z" transform="translate(-96.389 -192.124)" fill="#263238"/>
        </g>
      </g>
    </g>
    <g id="Speech_Bubble" data-name="Speech Bubble" transform="translate(252.275 123.316)">
      <g id="_Group_92" data-name="&lt;Group&gt;">
        <g id="_Group_93" data-name="&lt;Group&gt;">
          <path id="_Path_152" data-name="&lt;Path&gt;" d="M938.467,489.345a20.154,20.154,0,0,1-3.447-11.133c0-14.1,15.484-25.532,34.574-25.532s34.558,11.434,34.558,25.532-15.468,25.535-34.558,25.535a41.5,41.5,0,0,1-23.846-7.066L933.84,499.71Z" transform="translate(-933.681 -452.349)" fill="#fff"/>
          <path id="_Compound_Path_47" data-name="&lt;Compound Path&gt;" d="M938.046,488.465a20.392,20.392,0,0,1-3.523-10.526,20.188,20.188,0,0,1,2.75-10.8,27.2,27.2,0,0,1,7.6-8.249,36.13,36.13,0,0,1,10.026-5.1,46.548,46.548,0,0,1,11.045-2.206,47.606,47.606,0,0,1,11.253.571c.924.189,1.861.314,2.772.558l2.731.735,2.668.94c.886.32,1.73.752,2.6,1.123a33.347,33.347,0,0,1,9.283,6.421,23.621,23.621,0,0,1,5.975,9.578,19.348,19.348,0,0,1,.115,11.281,23.456,23.456,0,0,1-5.828,9.665,33.149,33.149,0,0,1-9.2,6.53,40.508,40.508,0,0,1-10.737,3.441,47.117,47.117,0,0,1-11.242.642,44,44,0,0,1-11.056-2.1A37.041,37.041,0,0,1,945.287,496l-11.846,2.914-.18.044.077-.167ZM945.287,496l.085-.019-.153-.03C945.243,495.971,945.265,495.988,945.287,496Zm-7.241-7.539L933.574,498.7l11.707-3.075.082-.022.071.052a40.758,40.758,0,0,0,20.929,6.831,46.347,46.347,0,0,0,11.087-.733,39.887,39.887,0,0,0,10.542-3.414,32.359,32.359,0,0,0,8.976-6.407,22.664,22.664,0,0,0,5.612-9.356,18.619,18.619,0,0,0-.134-10.821,22.854,22.854,0,0,0-5.754-9.263,32.578,32.578,0,0,0-9.048-6.3c-.85-.364-1.673-.793-2.545-1.107l-2.616-.935-2.681-.727c-.9-.243-1.818-.369-2.725-.558a47.949,47.949,0,0,0-11.087-.607,45.876,45.876,0,0,0-10.906,2.08,35.606,35.606,0,0,0-9.93,4.942,27.407,27.407,0,0,0-7.58,8.042,19.905,19.905,0,0,0-2.875,10.614A20.289,20.289,0,0,0,938.046,488.465ZM933.574,498.7l-.178.046.1.123Z" transform="translate(-933.26 -451.469)" fill="#263238"/>
        </g>
        <g id="_Group_94" data-name="&lt;Group&gt;" transform="translate(10.392 20.725)">
          <path id="_Compound_Path_48" data-name="&lt;Compound Path&gt;" d="M979.015,536.814v1.9H971.28V527.57h7.6v1.9h-5.428v2.684h4.69v1.757h-4.69v2.9Z" transform="translate(-971.28 -527.494)" fill="#263238"/>
          <path id="_Compound_Path_49" data-name="&lt;Compound Path&gt;" d="M1005.79,538.714V527.57h4.928a3.177,3.177,0,0,1,1.419.323,3.667,3.667,0,0,1,1.121.847,4,4,0,0,1,.738,1.192,3.6,3.6,0,0,1,.268,1.342,3.71,3.71,0,0,1-.541,1.971,3.114,3.114,0,0,1-1.468,1.279l2.542,4.19h-2.433l-2.274-3.737h-2.135v3.737Zm2.165-5.636h2.714a1.157,1.157,0,0,0,.558-.139,1.436,1.436,0,0,0,.448-.385,1.922,1.922,0,0,0,.3-.571,2.218,2.218,0,0,0,.109-.708,2,2,0,0,0-.126-.722,1.884,1.884,0,0,0-.339-.571,1.485,1.485,0,0,0-.484-.377,1.249,1.249,0,0,0-.558-.134h-2.621Z" transform="translate(-996.357 -527.494)" fill="#263238"/>
          <path id="_Compound_Path_50" data-name="&lt;Compound Path&gt;" d="M1043.96,538.714V527.57h4.928a3.181,3.181,0,0,1,1.421.323,3.737,3.737,0,0,1,1.121.847,3.993,3.993,0,0,1,.738,1.192,3.6,3.6,0,0,1,.265,1.342,3.684,3.684,0,0,1-.541,1.971,3.1,3.1,0,0,1-1.465,1.279l2.542,4.19h-2.433l-2.274-3.737h-2.135v3.737Zm2.167-5.636h2.714a1.157,1.157,0,0,0,.558-.139,1.423,1.423,0,0,0,.446-.385,1.859,1.859,0,0,0,.3-.571,2.219,2.219,0,0,0,.112-.708,2.064,2.064,0,0,0-.125-.722,1.884,1.884,0,0,0-.339-.571,1.466,1.466,0,0,0-.487-.377,1.249,1.249,0,0,0-.558-.134h-2.619Z" transform="translate(-1024.094 -527.494)" fill="#263238"/>
          <path id="_Compound_Path_51" data-name="&lt;Compound Path&gt;" d="M1085.109,538.587a5.044,5.044,0,0,1-2.22-.478,5.358,5.358,0,0,1-1.711-1.271,5.877,5.877,0,0,1-1.5-3.9,5.569,5.569,0,0,1,.415-2.132,5.892,5.892,0,0,1,1.145-1.807,5.481,5.481,0,0,1,1.733-1.246,5.144,5.144,0,0,1,2.181-.462,4.912,4.912,0,0,1,2.206.492,5.527,5.527,0,0,1,1.7,1.3,5.978,5.978,0,0,1,1.1,1.82,5.773,5.773,0,0,1,.391,2.072,5.663,5.663,0,0,1-.407,2.127,5.823,5.823,0,0,1-1.129,1.788,5.426,5.426,0,0,1-1.728,1.241A5.144,5.144,0,0,1,1085.109,538.587Zm-3.234-5.65a4.517,4.517,0,0,0,.219,1.4,3.771,3.771,0,0,0,.637,1.194,3.145,3.145,0,0,0,1.02.831,3.156,3.156,0,0,0,2.763-.008,3.179,3.179,0,0,0,1.02-.856,3.839,3.839,0,0,0,.629-1.2,4.517,4.517,0,0,0,.211-1.359,4.369,4.369,0,0,0-.227-1.394,3.889,3.889,0,0,0-.642-1.195,3.064,3.064,0,0,0-1.022-.823,3.17,3.17,0,0,0-2.753.016,3.047,3.047,0,0,0-1.02.845,3.766,3.766,0,0,0-.62,1.195A4.433,4.433,0,0,0,1081.875,532.937Z" transform="translate(-1050.05 -527.29)" fill="#263238"/>
          <path id="_Compound_Path_52" data-name="&lt;Compound Path&gt;" d="M1125.55,538.714V527.57h4.928a3.178,3.178,0,0,1,1.419.323,3.672,3.672,0,0,1,1.121.847,4,4,0,0,1,.738,1.192,3.605,3.605,0,0,1,.268,1.342,3.71,3.71,0,0,1-.541,1.971,3.114,3.114,0,0,1-1.468,1.279l2.542,4.19h-2.433l-2.274-3.737h-2.135v3.737Zm2.165-5.636h2.714a1.158,1.158,0,0,0,.558-.139,1.436,1.436,0,0,0,.448-.385,1.913,1.913,0,0,0,.3-.571,2.222,2.222,0,0,0,.109-.708,2,2,0,0,0-.126-.722,1.878,1.878,0,0,0-.339-.571,1.483,1.483,0,0,0-.484-.377,1.267,1.267,0,0,0-.558-.134h-2.621Z" transform="translate(-1083.382 -527.494)" fill="#263238"/>
        </g>
      </g>
    </g>
  </g>
</svg>
