<svg width="320" height="326" fill="none" xmlns="http://www.w3.org/2000/svg"><g clip-path="url(#clip0)" filter="url(#filter0_d)"><path d="M159 29a134 134 0 10103 219l-103-85V29z" fill="url(#paint0_linear)"/><path d="M282 94v-1c-22-43-67-72-119-72v134l119-61z" fill="url(#paint1_linear)"/><path d="M164 159l124 16a128 128 0 00-12-73l-1-1-111 58z" fill="url(#paint2_linear)"/><path d="M295 180v-1l-131-17 102 84 2-1 8-13c10-15 17-33 19-52z" fill="url(#paint3_linear)"/><path d="M111 174l-4 11h-2l5-10h-6v-1h7zm3 5v-5h6v1h-4l-1 3h2l3 1v5l-3 1-3-1-1-2h2v1l2 1 1-1 1-2-1-1-1-1h-2v1l-1-1zm8-3l1-2 1-1 2 1 1 2-1 2-2 1-1-1-1-2zm1 0v1l1 1 1-1 1-1-1-1-1-1-1 1v1zm4 6l1-1 2-1 1 1 1 1v1l-1 2h-3l-1-2v-1zm2 1v1h2v-2-1h-2v2zm-4 1h-1l5-9h1l-5 9zM199 97h-2V87l-3 1v-1l5-1v11zm10-4h2v1h-2v3h-1v-3h-5l5-8h1v7zm-5 0h4v-5l-4 5zm8-5l1-2 1-1 2 1 1 2-1 2-2 1-1-1-1-2zm1 0v1l1 1 1-1 1-1-1-1-1-1-1 1v1zm4 6l1-1 2-1 1 1 1 1v1l-1 2h-3l-1-2v-1zm2 1v1h2v-2-1h-2v2zm-4 1h-1l5-9h1l-5 9zM240 153h-2v-10l-3 1v-1l5-1v11zm4-9l1-2 1-1 2 1 1 2-1 2-2 1-1-1-1-2zm1 0v1l1 1 1-1 1-1-1-1-1-1-1 1v1zm4 6l1-1 2-1 2 1v4h-4l-1-2v-1zm2 1v1h2v-2-1h-2v2zm-4 1h-1l5-9h1l-5 9zM236 199l-1 1h-2-2l-1-2v-2-2a3 3 0 013-2c2 0 2 1 3 2l1 3v1l-1 4-4 2v-1l3-1 1-3zm-3 0h2l1-2-1-2-2-1h-1l-1 2 1 2 1 1zm14 5h-8v-1l4-4 1-2 1-1-1-2h-3l-1 2h-1l1-3 3-1 2 1 1 3-2 4-3 3h6v1zm1-9l1-2 1-1 2 1 1 2-1 2-2 1-1-1-1-2zm1 0v1l1 1 1-1 1-1-1-1-1-1-1 1v1zm4 6l1-1 2-1 1 1 1 1v1l-1 2h-3l-1-2v-1zm2 1v1h2v-2-1h-2v2zm-4 1h-1l5-9h1l-5 9z" fill="#fff"/></g><defs><linearGradient id="paint0_linear" x1="25" y1="163.1" x2="292.5" y2="163.1" gradientUnits="userSpaceOnUse"><stop stop-color="#59FCCB"/><stop offset="1" stop-color="#3FC0E1"/></linearGradient><linearGradient id="paint1_linear" x1="163.5" y1="88" x2="282.5" y2="88" gradientUnits="userSpaceOnUse"><stop stop-color="#E83155"/><stop offset="1" stop-color="#FBBEA6"/></linearGradient><linearGradient id="paint2_linear" x1="163.8" y1="138.3" x2="289.4" y2="138.3" gradientUnits="userSpaceOnUse"><stop stop-color="#0CFC3D"/><stop offset="1" stop-color="#3FC095"/></linearGradient><linearGradient id="paint3_linear" x1="163.6" y1="204.3" x2="295" y2="204.3" gradientUnits="userSpaceOnUse"><stop stop-color="#0061E9"/><stop offset="1" stop-color="#34C3FF"/></linearGradient><clipPath id="clip0"><path fill="#fff" transform="translate(25 21)" d="M0 0h270v276H0z"/></clipPath><filter id="filter0_d" x="0" y="0" width="320" height="326" filterUnits="userSpaceOnUse" color-interpolation-filters="sRGB"><feFlood flood-opacity="0" result="BackgroundImageFix"/><feColorMatrix in="SourceAlpha" values="0 0 0 0 0 0 0 0 0 0 0 0 0 0 0 0 0 0 127 0"/><feOffset dy="4"/><feGaussianBlur stdDeviation="12.5"/><feColorMatrix values="0 0 0 0 0 0 0 0 0 0 0 0 0 0 0 0 0 0 0.15 0"/><feBlend in2="BackgroundImageFix" result="effect1_dropShadow"/><feBlend in="SourceGraphic" in2="effect1_dropShadow" result="shape"/></filter></defs></svg>