<svg xmlns="http://www.w3.org/2000/svg" width="376.545" height="199.934" viewBox="0 0 376.545 199.934">
  <g id="support-graphic" transform="translate(0 0.031)">
    <path id="Path_158" data-name="Path 158" d="M773.3,611.514H704.619s-1.392-20.417,6.844-20.649,7.308,9.049,17.633-3.712,22.853-12.065,24.478-4.524-3.132,13.573,5.568,11.717S780.372,597.361,773.3,611.514Z" transform="translate(-463.117 -412.594)" fill="#3276ff"/>
    <path id="Path_159" data-name="Path 159" d="M813.3,614.295A24.2,24.2,0,0,0,788.951,628.7c-.388.891.925,1.668,1.317.77A22.694,22.694,0,0,1,813.3,615.82c.977.088.971-1.437,0-1.525Z" transform="translate(-504.585 -430.778)" fill="#fff"/>
    <path id="Path_160" data-name="Path 160" d="M716.953,604.4a24.9,24.9,0,0,1,5.918,18.663c-.1.976,1.43.969,1.525,0a26.4,26.4,0,0,0-6.364-19.742C717.386,602.584,716.311,603.666,716.953,604.4Z" transform="translate(-469.127 -425.312)" fill="#fff"/>
    <path id="Path_161" data-name="Path 161" d="M779.177,579.028a101.768,101.768,0,0,0-10.424,24.242q-1.026,3.627-1.775,7.323c-.2.958,1.274,1.368,1.471.406a100.174,100.174,0,0,1,8.488-24.688q1.657-3.321,3.557-6.513a.763.763,0,0,0-1.317-.77Z" transform="translate(-493.808 -413.314)" fill="#fff"/>
    <path id="Path_162" data-name="Path 162" d="M753.758,391.839v53.6H608.347a4.561,4.561,0,0,1-4.562-4.562v-53.6H749.2a4.561,4.561,0,0,1,4.562,4.563Z" transform="translate(-413.589 -319.22)" fill="#fff"/>
    <path id="Path_163" data-name="Path 163" d="M605.6,645.451H230.268a.605.605,0,1,1,0-1.211H605.6a.605.605,0,1,1,0,1.211Z" transform="translate(-229.662 -445.549)" fill="#3f3d56"/>
    <rect id="Rectangle_102" data-name="Rectangle 102" width="1.017" height="73.207" transform="translate(271.792 126.221)" fill="#3f3d56"/>
    <path id="Path_164" data-name="Path 164" d="M763.434,430.42H607.361a4.581,4.581,0,0,1-4.575-4.575V360.263a4.581,4.581,0,0,1,4.575-4.575H763.434a4.581,4.581,0,0,1,4.575,4.575v65.581A4.581,4.581,0,0,1,763.434,430.42ZM607.361,356.7a3.563,3.563,0,0,0-3.559,3.559v65.581a3.563,3.563,0,0,0,3.559,3.559H763.434a3.563,3.563,0,0,0,3.559-3.559V360.263a3.563,3.563,0,0,0-3.559-3.559Z" transform="translate(-413.097 -303.691)" fill="#3f3d56"/>
    <path id="Path_165" data-name="Path 165" d="M743.328,420.738H651.311a1.525,1.525,0,0,1,0-3.05h92.017a1.525,1.525,0,0,1,0,3.05Z" transform="translate(-436.203 -334.171)" fill="#0052cc"/>
    <path id="Path_166" data-name="Path 166" d="M743.328,445.738H651.311a1.525,1.525,0,0,1,0-3.05h92.017a1.525,1.525,0,0,1,0,3.05Z" transform="translate(-436.203 -346.461)" fill="#0052cc"/>
    <path id="Path_167" data-name="Path 167" d="M743.328,470.738H651.311a1.525,1.525,0,0,1,0-3.05h92.017a1.525,1.525,0,0,1,0,3.05Z" transform="translate(-436.203 -358.752)" fill="#0052cc"/>
    <circle id="Ellipse_19" data-name="Ellipse 19" cx="16.709" cy="16.709" r="16.709" transform="translate(337.549 35.584)" fill="#fff"/>
    <path id="Path_168" data-name="Path 168" d="M918.136,339.873l-8.362-8.362a1.453,1.453,0,0,1,2.055-2.055L918,335.624l19.682-22.444a1.453,1.453,0,0,1,2.185,1.916Z" transform="translate(-563.81 -282.55)" fill="#043379"/>
    <path id="Path_169" data-name="Path 169" d="M372.662,328.172s10.3-6.5,20.051,1.084l6.5,67.74s-24.387,18.967-30.348,1.084Z" transform="translate(-298.099 -288.888)" fill="#e6e6e6"/>
    <path id="Path_170" data-name="Path 170" d="M133.688,356.914h-6.233l-2.076-23.952,8.309-.087Z" transform="translate(-61.639 -163.663)" fill="#ffb8b8"/>
    <path id="Path_171" data-name="Path 171" d="M113.387,376.658h12.02v7.568H105.819A7.568,7.568,0,0,1,113.387,376.658Z" transform="translate(-52.023 -185.188)" fill="#2f2e41"/>
    <path id="Path_172" data-name="Path 172" d="M186.036,356.914h6.233l2.965-24.04h-9.2Z" transform="translate(-91.458 -163.662)" fill="#ffb8b8"/>
    <path id="Path_173" data-name="Path 173" d="M0,0H19.588V7.568H7.568A7.568,7.568,0,0,1,0,0H0Z" transform="translate(112.829 199.039) rotate(179.997)" fill="#2f2e41"/>
    <path id="Path_174" data-name="Path 174" d="M344.884,460.278l5.419,80.747,8.4-.271,11.109-64.76,10.3,63.947,9.755.542,2.71-83.456S351.387,447.814,344.884,460.278Z" transform="translate(-286.308 -351.899)" fill="#003076"/>
    <circle id="Ellipse_20" data-name="Ellipse 20" cx="12.486" cy="12.486" r="12.486" transform="translate(71.662 7.457)" fill="#ffb8b8"/>
    <path id="Path_175" data-name="Path 175" d="M360.555,325.883l-3.252,2.168s-13.548,0-14.632,8.129-4.064,63.676-.813,63.676,3.793-4.335,3.793-4.335,2.168.542,6.5,4.877,7.045,4.335,8.671-2.168,12.464-56.36,2.168-65.572Z" transform="translate(-284.095 -289.038)" fill="#ff604e"/>
    <path id="Path_176" data-name="Path 176" d="M404.374,325.883l3.252,2.168s13.548,0,14.632,8.129,4.064,63.676.813,63.676-3.793-4.335-3.793-4.335-2.168.542-6.5,4.877-7.045,4.335-8.671-2.168-12.464-56.36-2.168-65.572Z" transform="translate(-312.198 -289.038)" fill="#ff604e"/>
    <path id="Path_177" data-name="Path 177" d="M390.493,280.934a6.8,6.8,0,0,0-5.158-11.471,19.16,19.16,0,0,0-5,1.283,16.542,16.542,0,0,1-7.771.7,10.376,10.376,0,0,1-6.618-3.907,7.6,7.6,0,0,1-.935-7.457c1.26-2.757,4.2-4.276,6.972-5.511a12.743,12.743,0,0,1,3.54-1.163,4.539,4.539,0,0,1,3.521.888c.778.669,1.234,1.675,2.081,2.255a6.988,6.988,0,0,0,3.341.751,12.813,12.813,0,0,1,6.206,23.152" transform="translate(-295.912 -253.378)" fill="#2f2e41"/>
    <path id="Path_178" data-name="Path 178" d="M449.963,461.11a5.461,5.461,0,0,0-.445-8.362l-.147-14.33-7.5,1.422-.279,14.279a5.491,5.491,0,0,0,8.37,6.991Z" transform="translate(-333.414 -344.362)" fill="#ffb8b8"/>
    <path id="Path_179" data-name="Path 179" d="M346.963,456.11a5.461,5.461,0,0,0-.445-8.362l-.147-14.33-7.5,1.422-.279,14.279a5.491,5.491,0,0,0,8.37,6.991Z" transform="translate(-282.777 -341.904)" fill="#ffb8b8"/>
    <path id="Path_180" data-name="Path 180" d="M439.933,344.538l1.95,1.235s8.025,30.734,8.076,51.6c0,0-10.567,5.148-12.193,1.355S439.933,344.538,439.933,344.538Z" transform="translate(-331.771 -298.209)" fill="#ff604e"/>
    <path id="Path_181" data-name="Path 181" d="M341.489,344.538l-1.95,1.235s-6.984,30.734-5.1,51.331c0,0,11.109,5.148,12.735,1.355S341.489,344.538,341.489,344.538Z" transform="translate(-281.016 -298.209)" fill="#ff604e"/>
  </g>
</svg>
