<svg width="80" height="80" viewBox="0 0 80 80" fill="none" xmlns="http://www.w3.org/2000/svg">
<mask id="mask0" mask-type="alpha" maskUnits="userSpaceOnUse" x="0" y="0" width="80" height="80">
<rect width="80" height="80" fill="#C4C4C4"/>
</mask>
<g mask="url(#mask0)">
<g filter="url(#filter0_d)">
<path d="M40 80C62.0914 80 80 62.0914 80 40C80 17.9086 62.0914 0 40 0C17.9086 0 0 17.9086 0 40C0 62.0914 17.9086 80 40 80Z" fill="#F03A01"/>
</g>
<path d="M57.1462 49.839L55.1402 44.001C56.2153 41.7939 56.7167 39.3515 56.5982 36.8994C56.4797 34.4474 55.745 32.0647 54.462 29.9717C53.1791 27.8786 51.3893 26.1427 49.258 24.9244C47.1267 23.706 44.7228 23.0445 42.2682 23.001C40.3484 22.9697 38.4413 23.3178 36.6563 24.0252C34.8712 24.7325 33.2434 25.7853 31.8661 27.1231C30.4888 28.4609 29.3891 30.0575 28.6302 31.8212C27.8712 33.5849 27.4678 35.481 27.4432 37.401C25.4815 38.8718 24.0885 40.9756 23.5003 43.3559C22.912 45.7361 23.1646 48.2466 24.2152 50.462L22.8292 54.484C22.7314 54.7694 22.7029 55.074 22.7462 55.3725C22.7895 55.6711 22.9033 55.9551 23.0781 56.201C23.2529 56.4469 23.4838 56.6476 23.7516 56.7865C24.0194 56.9255 24.3165 56.9986 24.6182 57C24.8296 57.0012 25.0398 56.9674 25.2402 56.9L29.2612 55.518C30.6822 56.1904 32.2341 56.5408 33.8062 56.544H33.8292C35.5028 56.5445 37.1528 56.1494 38.6446 55.3908C40.1364 54.6322 41.4277 53.5317 42.4132 52.179C44.5053 52.1237 46.5612 51.6203 48.4422 50.703L54.2812 52.709C54.519 52.7909 54.7687 52.8328 55.0202 52.833C55.3788 52.8315 55.7319 52.7447 56.0503 52.5796C56.3687 52.4146 56.6432 52.1761 56.8511 51.8839C57.059 51.5916 57.1943 51.2541 57.2458 50.8992C57.2972 50.5443 57.2635 50.1822 57.1472 49.843L57.1462 49.839ZM33.8292 54.484H33.8162C32.424 54.4805 31.0534 54.139 29.8222 53.489C29.6979 53.4231 29.5615 53.3835 29.4213 53.3725C29.2811 53.3614 29.1402 53.3793 29.0072 53.425L24.8832 54.846L26.3002 50.723C26.3458 50.59 26.3637 50.449 26.3527 50.3088C26.3417 50.1686 26.302 50.0322 26.2362 49.908C25.3945 48.3151 25.076 46.4975 25.3261 44.7133C25.5761 42.9291 26.382 41.2691 27.6292 39.969C28.1398 43.0061 29.5948 45.8049 31.7873 47.9677C33.9799 50.1304 36.7984 51.547 39.8422 52.016C38.2409 53.5981 36.0803 54.4849 33.8292 54.484V54.484ZM55.1542 50.713C55.1288 50.7409 55.0955 50.7605 55.0587 50.7691C55.0219 50.7777 54.9833 50.7748 54.9482 50.761L48.6982 48.613C48.5652 48.5673 48.4242 48.5494 48.2841 48.5605C48.1439 48.5715 48.0074 48.6111 47.8832 48.677C46.085 49.6245 44.0837 50.1214 42.0512 50.125H42.0292C38.7434 50.1118 35.5931 48.8139 33.2516 46.5088C30.91 44.2037 29.5629 41.0741 29.4982 37.789C29.4716 36.1092 29.7829 34.4413 30.4136 32.8843C31.0444 31.3273 31.9817 29.9129 33.1698 28.7253C34.358 27.5377 35.7728 26.6011 37.3301 25.9711C38.8874 25.3411 40.5555 25.0305 42.2352 25.058C44.3774 25.0934 46.4748 25.6772 48.3273 26.7537C50.1797 27.8302 51.7253 29.3634 52.8167 31.2072C53.908 33.0509 54.5087 35.1435 54.5613 37.2854C54.6139 39.4273 54.1167 41.5469 53.1172 43.442C53.0514 43.5662 53.0117 43.7026 53.0007 43.8428C52.9897 43.983 53.0076 44.124 53.0532 44.257L55.2012 50.507C55.215 50.542 55.218 50.5805 55.2096 50.6172C55.2012 50.654 55.1819 50.6874 55.1542 50.713V50.713Z" fill="white"/>
<path d="M48.1559 32.1406H35.9069C35.6343 32.1406 35.3728 32.2489 35.18 32.4417C34.9872 32.6345 34.8789 32.896 34.8789 33.1686C34.8789 33.4413 34.9872 33.7028 35.18 33.8955C35.3728 34.0883 35.6343 34.1966 35.9069 34.1966H48.1559C48.4286 34.1966 48.69 34.0883 48.8828 33.8955C49.0756 33.7028 49.1839 33.4413 49.1839 33.1686C49.1839 32.896 49.0756 32.6345 48.8828 32.4417C48.69 32.2489 48.4286 32.1406 48.1559 32.1406V32.1406Z" fill="white"/>
<path d="M48.1559 36.3691H35.9069C35.6343 36.3691 35.3728 36.4775 35.18 36.6702C34.9872 36.863 34.8789 37.1245 34.8789 37.3971C34.8789 37.6698 34.9872 37.9313 35.18 38.1241C35.3728 38.3168 35.6343 38.4251 35.9069 38.4251H48.1559C48.4286 38.4251 48.69 38.3168 48.8828 38.1241C49.0756 37.9313 49.1839 37.6698 49.1839 37.3971C49.1839 37.1245 49.0756 36.863 48.8828 36.6702C48.69 36.4775 48.4286 36.3691 48.1559 36.3691V36.3691Z" fill="white"/>
<path d="M43.4409 40.5967H35.9069C35.6343 40.5967 35.3728 40.705 35.18 40.8978C34.9872 41.0906 34.8789 41.3521 34.8789 41.6247C34.8789 41.8973 34.9872 42.1588 35.18 42.3516C35.3728 42.5444 35.6343 42.6527 35.9069 42.6527H43.4409C43.7135 42.6527 43.975 42.5444 44.1678 42.3516C44.3606 42.1588 44.4689 41.8973 44.4689 41.6247C44.4689 41.3521 44.3606 41.0906 44.1678 40.8978C43.975 40.705 43.7135 40.5967 43.4409 40.5967V40.5967Z" fill="white"/>
</g>
<defs>
<filter id="filter0_d" x="-40" y="-30" width="160" height="160" filterUnits="userSpaceOnUse" color-interpolation-filters="sRGB">
<feFlood flood-opacity="0" result="BackgroundImageFix"/>
<feColorMatrix in="SourceAlpha" type="matrix" values="0 0 0 0 0 0 0 0 0 0 0 0 0 0 0 0 0 0 127 0"/>
<feOffset dy="10"/>
<feGaussianBlur stdDeviation="20"/>
<feColorMatrix type="matrix" values="0 0 0 0 0.941176 0 0 0 0 0.227451 0 0 0 0 0.00392157 0 0 0 0.078 0"/>
<feBlend mode="normal" in2="BackgroundImageFix" result="effect1_dropShadow"/>
<feBlend mode="normal" in="SourceGraphic" in2="effect1_dropShadow" result="shape"/>
</filter>
</defs>
</svg>
