<svg xmlns="http://www.w3.org/2000/svg" width="34.543" height="34.001" viewBox="0 0 34.543 34.001">
  <g id="chat" transform="translate(0.003 -4.01)">
    <g id="Group_41" data-name="Group 41" transform="translate(0 4.011)">
      <g id="Group_40" data-name="Group 40">
        <path id="Path_29" data-name="Path 29" d="M34.417,30.85l-2.006-5.838a14.591,14.591,0,1,0-27.7-6.6A10.631,10.631,0,0,0,1.486,31.473L.1,35.495a1.9,1.9,0,0,0,2.411,2.416l4.021-1.382a10.676,10.676,0,0,0,4.545,1.026H11.1a10.616,10.616,0,0,0,8.584-4.365,14.636,14.636,0,0,0,6.029-1.476l5.839,2.006a2.256,2.256,0,0,0,2.866-2.866ZM11.1,35.495h-.013A8.6,8.6,0,0,1,7.093,34.5a1.028,1.028,0,0,0-.815-.064L2.154,35.857l1.417-4.123a1.028,1.028,0,0,0-.064-.815A8.572,8.572,0,0,1,4.9,20.98,14.646,14.646,0,0,0,17.113,33.027,8.55,8.55,0,0,1,11.1,35.5Zm21.325-3.771a.186.186,0,0,1-.206.048l-6.25-2.148a1.028,1.028,0,0,0-.815.064,12.558,12.558,0,0,1-5.832,1.448H19.3a12.532,12.532,0,1,1,11.088-6.683,1.028,1.028,0,0,0-.064.815l2.148,6.25a.187.187,0,0,1-.047.206Z" transform="translate(0 -4.011)" fill="#fff"/>
      </g>
    </g>
    <g id="Group_42" data-name="Group 42" transform="translate(12.15 13.152)">
      <path id="Path_30" data-name="Path 30" d="M193.371,139.512H181.122a1.028,1.028,0,0,0,0,2.056h12.249a1.028,1.028,0,0,0,0-2.056Z" transform="translate(-180.094 -139.512)" fill="#fff"/>
    </g>
    <g id="Group_43" data-name="Group 43" transform="translate(12.15 17.38)">
      <path id="Path_31" data-name="Path 31" d="M193.371,202.183H181.122a1.028,1.028,0,0,0,0,2.056h12.249a1.028,1.028,0,1,0,0-2.056Z" transform="translate(-180.094 -202.183)" fill="#fff"/>
    </g>
    <g id="Group_44" data-name="Group 44" transform="translate(12.15 21.608)">
      <path id="Path_32" data-name="Path 32" d="M188.655,264.852h-7.534a1.028,1.028,0,1,0,0,2.056h7.534a1.028,1.028,0,0,0,0-2.056Z" transform="translate(-180.093 -264.852)" fill="#fff"/>
    </g>
  </g>
</svg>
