<svg xmlns="http://www.w3.org/2000/svg" width="31.756" height="29.487" viewBox="0 0 31.756 29.487"><defs><style>.a{fill:#f03a01;fill-rule:evenodd;}</style></defs><path class="a" d="M34.743,5.957a1.134,1.134,0,0,1,0,1.606L18.866,23.44a1.134,1.134,0,0,1-1.606,0l-6.8-6.8a1.136,1.136,0,0,1,1.606-1.606l6,6L33.138,5.956a1.134,1.134,0,0,1,1.606,0Z" transform="translate(-3.32 -3.354)"/><path class="a" d="M18.118,5.643A12.475,12.475,0,1,0,30.593,18.118a1.134,1.134,0,0,1,2.268,0,14.743,14.743,0,1,1-7.372-12.77,1.134,1.134,0,1,1-1.134,1.962A12.411,12.411,0,0,0,18.118,5.643Z" transform="translate(-3.375 -3.373)"/></svg>