<svg xmlns="http://www.w3.org/2000/svg" width="711.475" height="527.002" viewBox="0 0 711.475 527.002"><defs><style>.a{fill:#444;}.b{fill:#4951ec;}.c{fill:#0b0754;}.d{fill:#dde8fe;}.e{fill:#92b5f9;}.f{fill:#fb9390;}.g{fill:#ef7f7f;}.h{fill:#f47458;}.i{fill:#fa7167;}.j{fill:#e8605d;}.k{fill:#bed1f9;}.l{fill:#fff;}.m,.q{fill:#f03a01;}.n,.p{fill:#5351fb;}.n,.o{opacity:0.6;}.q{opacity:0.2;}.r{fill:#b75742;}.s{fill:#7c9af2;}.t{fill:#9bc1f9;}</style></defs><g transform="translate(-113.643 -359.774)"><g transform="translate(138.998 882.103)"><path class="a" d="M861.406,1680.065H180.047a2.313,2.313,0,0,0-2.312,2.254v.047a2.314,2.314,0,0,0,2.313,2.373H861.406a2.339,2.339,0,1,0,0-4.673Z" transform="translate(-177.733 -1680.065)"/></g><rect class="b" width="207.286" height="427.122" rx="15" transform="translate(444.287 882.173) rotate(180)"/><rect class="c" width="196.156" height="427.122" rx="14" transform="translate(444.924 882.173) rotate(180)"/><rect class="d" width="363.697" height="174.278" rx="13" transform="translate(435.434 473.044) rotate(90)"/><path class="e" d="M807.682,611.913a5.668,5.668,0,1,1-5.661-5.944A5.808,5.808,0,0,1,807.682,611.913Z" transform="translate(-412.623 -148.796)"/><path class="e" d="M845.3,612.73a5.668,5.668,0,1,1-5.661-5.944A5.808,5.808,0,0,1,845.3,612.73Z" transform="translate(-435.358 -149.29)"/><g transform="translate(691.659 569.743)"><path class="c" d="M1716.379,940.9c2.179-10.645-2.834-21.2-12.419-25.161.064-6.057-1.894-13.731-6.023-17.878-8.145-8.181-23.688-11.048-29.678-.619-7.911,4.484-14.136,14.195-11.776,23.041-7.668,7.956-4.755,22.35,6.425,29.148-.178,8.926,4.534,17.8,12.325,21.611a51.462,51.462,0,0,1,5.166,2.588c-.487-.462,5.771,17,25.214,9.007C1725.453,974.483,1729.31,951.532,1716.379,940.9Z" transform="translate(-1621.536 -890.512)"/><g transform="translate(0 68.071)"><path class="f" d="M1576.114,1147.543s1.291-1.386,1.685-1.879c.461-.578,1.707-2.415,1.707-2.415s4.035-6.593,3.516-6.844-1.851.505-2.245.827-.885.661-1.28.984a1.008,1.008,0,0,1-1.4-.149c-.439-.451.849-2.067,1.407-2.54a81.734,81.734,0,0,1,7.754-4.835c.665-.406,5.527-13.1,7.545-17.316h0c3.093-7,5.915-14.351,6.239-15.094l3.895-32.415,12.645-3.291s-3.809,36.03-4.208,37.812c-.19.848-8.635,16.539-8.642,16.537-4.652,7.471-8.771,14.044-9.526,15.329,0,0-1.209,4.431-1.811,7.3s-2.324,5.273-2.619,6.053a18.827,18.827,0,0,1-3.15,5.61c-1.931,2.375-1.2-.759-1.2-.759s2.776-5.041,2.336-5.191c-.339-.116-1.691,2.726-3.8,5.376-.542.681-1.08,1.352-1.579,1.964-1.31,1.606-2.685,1.264-1.586-.634a20.511,20.511,0,0,1,1.652-2.484,16.979,16.979,0,0,0,1.408-2.419,22.134,22.134,0,0,0,1.436-2.5c-.1,0-.138-.413-.737.292-.719.848-1.844,2.987-3,4.153-.655.66-1.939,2.125-1.939,2.125a19.726,19.726,0,0,1-2.5,2.046c-.848-.546.385-2.559,1.4-3.341a13.778,13.778,0,0,1,1.779-2.328s2.13-3.668,1.608-3.977c-.429-.255-7.249,7.548-8.06,6.941C1574.17,1149.981,1576.114,1147.543,1576.114,1147.543Z" transform="translate(-1574.694 -1062.576)"/><path class="g" d="M1601.583,1248.355s-3.712,2.1-5.69.375a2.841,2.841,0,0,0,2.369,1.418C1599.9,1250.166,1601.583,1248.355,1601.583,1248.355Z" transform="translate(-1587.507 -1174.858)"/></g><path class="f" d="M1652.059,1288.764l-7.367,66.625s3.6,14.089,3.167,18.092-8.009,56.51-8.009,56.51l.342,2.884.184,8.544-28.311.215a126.176,126.176,0,0,0,14.314-8.049,5.826,5.826,0,0,0,2.385-4.169c2.229-16.184-2.181-70.167-2.181-70.167l-3.474-70.269Z" transform="translate(-1597.281 -1131.209)"/><path class="f" d="M1733.47,1319.772c1.587.406,4.031,57.587,5.346,60.121,8.336,16.067,10.317,64.915,10.317,64.915l3.439,6.84-.789,6.591s-6.221,3.609-10.587,1.175l.676-6.6.515-8.818-21.031-60.858-11.507-62.075Z" transform="translate(-1656.38 -1149.95)"/><path class="c" d="M1631.811,1252.126l-1-39.454c-.173-11.15,3.5-21.848,8.009-32l9.542-16.246c3.074.987,4.767-8.214,8-7.848,2.436.276,4.105.845,6.367.98,4.265.256,6.853,8.686,11.419,8.158.021.267.9,2.419.974,2.607,2.184,5.963,9.711,11.254,12.687,28.959,3.378,20.1,3.363,54.637,2.941,57C1658.453,1255.718,1650.755,1256.86,1631.811,1252.126Z" transform="translate(-1608.607 -1051.311)"/><path class="h" d="M1782.455,1409.964c0,.01-.006.009-.009,0Z" transform="translate(-1700.256 -1204.459)"/><path class="i" d="M1637.595,1663.765H1608.37c-1.081-.1-1.345-.993-.97-1.544.771-1.134,4.181-1.966,8.013-3.774,6.722.718,20.8-3.849,21.863-5.427C1637.888,1656.18,1638.2,1663.63,1637.595,1663.765Z" transform="translate(-1594.364 -1351.359)"/><path class="i" d="M1800.445,1653.071s-2.6,7.46-5.4,7.245-5.262-6.1-5.262-6.1-1.053,4.95-.562,7.676,4.491,5.525,7.227,4.3S1802.9,1658.667,1800.445,1653.071Z" transform="translate(-1704.27 -1351.39)"/><path class="j" d="M1658.766,1048.046a43.618,43.618,0,0,1-7.972-1.885c-2.342-.826-6.236-2.633-6.236-2.633s2.187-18.588,7.7-29.842c2.276-4.652,4.578-6.9,7.788-7.435C1660.066,1006.247,1658.766,1048.046,1658.766,1048.046Z" transform="translate(-1616.919 -960.463)"/><path class="i" d="M1661.955,1025.809c.825-3.015,2.669-6.98,3.721-9.714,1.785-4.642,2.315-8.979,3.891-10.838.85-1,11.754-.851,13.092-.983.552-.059,2.734.082,4.845.212l0-.005c1.238.141,13.525,1.11,15.307,1.883,8.851,8.675,13.132,20.356,19.786,33.117,0,0-4.984,2.867-8.959,4.675-1.726.785-5.035,2.041-5.035,2.041s-4.193-7.319-6.567-10.516l-1.1-2.4c-.084-.064-.483-.491-.6-.215-.177.429-7.645,40.618-7.645,40.618s-20.839,1.942-26.169-.619c0,0-.985-26.88-2.947-34.77C1662.847,1035.392,1660.625,1030.667,1661.955,1025.809Z" transform="translate(-1627.182 -959.26)"/><path class="f" d="M1709.593,966.122s-1.7,9.376-1.362,13.075-1.3,15.62-8.651,15.659-2.356-12.376-1.663-16,1.816-17.623,1.816-17.623Z" transform="translate(-1647.777 -933.254)"/><path class="g" d="M1704.912,966.57c.114-3.069.439-5.338.439-5.338l9.861,4.891s-.348,1.917-.7,4.36A8.925,8.925,0,0,1,1704.912,966.57Z" transform="translate(-1653.396 -933.254)"/><path class="f" d="M1709.71,904.1a12.672,12.672,0,0,1,6.4,5.991c2.255,4.513,3,17.145-6.09,22s-15.083-4.1-14.519-12.117S1698.582,901.445,1709.71,904.1Z" transform="translate(-1647.684 -898.472)"/><path class="f" d="M1688.658,933.755c-.239,2.079.495,3.852,1.639,3.961s2.267-1.488,2.506-3.567-.494-3.853-1.639-3.962S1688.9,931.676,1688.658,933.755Z" transform="translate(-1643.544 -914.488)"/><path class="f" d="M1744.993,943.9c-.8,2.013-.4,4.125.888,4.719s2.983-.557,3.781-2.569.4-4.125-.889-4.719S1745.792,941.883,1744.993,943.9Z" transform="translate(-1677.371 -921.129)"/><path class="f" d="M1692.9,1140.577c-.438.091-3.452.265-3.452.265s-4.42-2.618-5.052-1.379c-.194.371,4.58,3.031,4.58,3.031s4.614.149,5.717.116c2.054-.05,6.373-.62,12.8-5.3,5.557-2.776,33.485-18.711,33.9-21.743.244-1.792-4.008-11.143-8.125-19.611-1.819.991-4.639,2.5-7.081,3.618-1.153.521-3.014,1.256-4.117,1.685,2.668,5.039,5.194,10.227,4.866,11.3-.286.942-24.139,18.744-24.139,18.744l-4.766-.637s-8.4.975-8.6,1.958,3.545.719,4.042.868a5.33,5.33,0,0,1,1.3.578,17.11,17.11,0,0,1-4.8,1.726c-2.82.1-6.087-.306-6.441.091-.413.462,3.873,1.735,6.9,1.916,1.238.066,1.987-.305,2.526-.206.732.149-.556.727-2.619.6-1.179-.074-3.233-.71-4.53-.892-2.13-.3-3.326-.132-3.5.049-.295.3,6.046,2.288,6.046,2.288s4.125.529,5.068.479C1693.417,1140.131,1693.989,1140.363,1692.9,1140.577Z" transform="translate(-1639.726 -1014.682)"/></g><g transform="translate(550.759 546.383)"><path class="f" d="M1546.21,1598.486s3.664,3.624,3.746,4.954.325,15.576-1.171,16.906-5.889,2.273-4.476,3.769c1.068,1.131,9.28.889,14.723.585,1.589-.089,3.582-12.938,4.211-14.827.914-2.743,4.207-8.713,3.375-10.625-.4-.931-3.411-3.054-6.141-4.841-2.871-1.879-5.618-6.063-5.618-6.063Z" transform="translate(-1415.264 -1288.91)"/><path class="f" d="M1404.583,1636.173s2.84,8.131,3.237,9.279a56.888,56.888,0,0,1,1.249,6.648c0,5.08-22.6-4.312-17.535-6.563a5.435,5.435,0,0,0,2.048-3.56c.232-2.664-1.9-6-1.9-6Z" transform="translate(-1322.649 -1317.696)"/><g transform="translate(39.36 140.23)"><path class="c" d="M1329.418,1185.924l-8.182,21.191s-5.339,50.573-2.23,80.847c1.3,12.661,29.446,80.436,29.446,80.436l13.979-2-18.724-80.259,6.89-30.692,9.75-60.669Z" transform="translate(-1318.033 -1185.924)"/><path class="c" d="M1388.516,1188.718l7.02,23.6,10.677,71.22,36.106,66.621s-5.429,8.335-11.259,9.647l-51.248-67.334-27.775-84.294.975-18.727Z" transform="translate(-1338.585 -1187.612)"/></g><path class="f" d="M1227.765,1127.526c5.064-2.028,5.208-1.093,5.85-1.371.759-.328,6.833-9.646,6.833-9.646s18.08-27.341,19-28.852l5.51-33.635,17.313-1.831s-6.958,36.421-7.652,38.258-29.417,35.878-31.849,38.959c0,0-1.551,4.769-2.622,7.73s-3.4,5.276-3.824,6.061a27.62,27.62,0,0,1-4.413,5.232c-2.388,2.227-1.141-1-1.141-1s3.683-4.937,3.245-5.167c-.337-.177-2.19,2.641-4.806,5.133-.673.641-1.339,1.271-1.956,1.845-1.618,1.507-3,.924-1.561-.927a21.861,21.861,0,0,1,2.112-2.388,18.209,18.209,0,0,0,1.848-2.356,23.873,23.873,0,0,0,1.889-2.442c-.109-.021-.081-.462-.816.2-.884.791-2.39,2.895-3.78,3.955-.788.6-2.358,1.96-2.358,1.96a20.754,20.754,0,0,1-2.935,1.787c-.8-.717.8-2.668,1.977-3.343a14.718,14.718,0,0,1,2.221-2.2s2.8-3.575,2.3-3.987c-.409-.338-8.751,6.906-9.506,6.13-.616-.633,1.8-2.927,1.8-2.927s1.565-1.274,2.053-1.738c.572-.543,2.158-2.305,2.158-2.305s5.241-6.394,4.737-6.743a3.914,3.914,0,0,0-2.609-.447c-.461.281-1.035,1.248-1.5,1.529a1.348,1.348,0,0,1-1.7-.3c-.39-.549,1.317-2.776,1.317-2.776A8.769,8.769,0,0,1,1227.765,1127.526Z" transform="translate(-1218.543 -964.868)"/><path class="e" d="M1327.056,1016.11l19.925,2.062s.913-16.557.913-24.455c0-9.582-1.068-21.782-2.21-21.516-3.2.746-7.256,2.4-9.825,5.974C1326.971,990.556,1327.056,1016.11,1327.056,1016.11Z" transform="translate(-1284.127 -916.521)"/><path class="f" d="M1493.649,1132.387c3.04-4.984,3.722-4.276,4.1-4.925.442-.768-.048-12.631-.048-12.631s-1.219-34.975-1.348-36.861l-15.566-32.29L1494.236,1033s16.021,35.6,16.541,37.618-3.185,49.549-3.38,53.744c0,0,1.56,5.071,2.438,8.29s.313,6.689.425,7.636a30.679,30.679,0,0,1-.569,7.3c-.669,3.437-1.56-.122-1.56-.122s.133-6.585-.373-6.5c-.39.064-.256,3.662-.959,7.473-.181.98-.362,1.946-.536,2.832-.456,2.326-1.971,2.718-1.869.209a24.425,24.425,0,0,1,.342-3.4,20.192,20.192,0,0,0,.137-3.2,26.3,26.3,0,0,0,.122-3.3c-.1.052-.346-.343-.568.691-.268,1.243-.272,4.008-.8,5.806-.3,1.019-.806,3.189-.806,3.189a21.32,21.32,0,0,1-1.56,3.12c-1.1-.1-.764-2.5-.179-3.835a16.392,16.392,0,0,1,.544-3.307s.2-4.851-.463-4.883c-.284-.014-.754,2.949-1.657,5.785-.839,2.633-2.1,5.156-2.632,5.071-.9-.146-.268-3.169-.268-3.169s.551-2.095.682-2.8c.154-.832.431-3.355.431-3.355s.567-8.83-.068-8.8a4.1,4.1,0,0,0-2.462,1.292c-.219.537-.122,1.731-.341,2.268a1.414,1.414,0,0,1-1.609.828c-.658-.219-.561-3.218-.561-3.218A9.809,9.809,0,0,1,1493.649,1132.387Z" transform="translate(-1377.035 -953.271)"/><path class="c" d="M1558.071,1603.363s-7.713,23.663-11.018,24.826c-.877.309-5.816,1.56-6.61,3.448a.941.941,0,0,0-.051.168,1.965,1.965,0,0,0,1.972,2.3h15.679s2.226-10.618,3.106-15.283c0,0,4.658-11.4,4.141-12.435S1558.071,1603.363,1558.071,1603.363Z" transform="translate(-1413.039 -1297.988)"/><path class="c" d="M1383.6,1668.261l-2.534-8.322s-5.49,2.365-8.207,1.976a81.361,81.361,0,0,1-8.024-1.942c-10.848,3.62-19.735,5.376-18.118,8.288H1383.6Z" transform="translate(-1295.894 -1332.182)"/><path class="g" d="M1252.211,1249.211a6.938,6.938,0,0,1-6.256,1.775A4.253,4.253,0,0,0,1252.211,1249.211Z" transform="translate(-1235.111 -1083.944)"/><path class="k" d="M1370.309,969.247s10.547,1.467,13.323,3.5c3.127,2.3,12.808,13.006,12.808,13.006s-20.151,57.723-19.371,67.993,2.99,25.481,2.99,25.481-39.132,2.47-53.953-3.38c0,0,4.681-23.271,4.681-29.381s2.628-67.186,4.5-70.385,5.641-5.019,12.791-6.579S1370.309,969.247,1370.309,969.247Z" transform="translate(-1283.552 -914.431)"/><path class="f" d="M1407.112,926.819l2.611,17.093s-9.535,20.352-15.226,18.587c-4.775-1.482-1.837-19.489-1.837-19.489s2.6-9.671,1.823-14.51S1407.112,926.819,1407.112,926.819Z" transform="translate(-1323.236 -888.483)"/><path class="g" d="M1398.122,928.5c-.781-4.839,12.63-1.681,12.63-1.681l.216,1.418a7.87,7.87,0,0,1-1.454,2.382,17.711,17.711,0,0,1-11.726,5.271A26.227,26.227,0,0,0,1398.122,928.5Z" transform="translate(-1326.876 -888.483)"/><g transform="translate(63.176)"><path class="f" d="M1401.135,859.084c.378-.137,3.038,19.468-2.009,24.862s-14.878,7.16-18.4,2.911c-3.9-4.7-3.7-25.769,4.141-31.318S1401.135,859.084,1401.135,859.084Z" transform="translate(-1378.234 -844.93)"/><path class="c" d="M1392.129,831.586a21.825,21.825,0,0,1,11.436,6.479c2.753.323,6.5,1.834,10.36,8.191,4.753,7.816,1.243,16.475-4.288,20.723s-5.47,9.181-5.47,9.181l-.86-2.563a14.109,14.109,0,0,1-.692-5.979,11.612,11.612,0,0,1,.895-3.595c1.33-2.837-2.858-4.723-4.033-7.083-.9-1.818-.948-5.976-2.372-8.981l-1.7-2.294s-3.925-3.034-7.765-2.178S1384.348,830.01,1392.129,831.586Z" transform="translate(-1382.514 -831.465)"/><path class="f" d="M1421.761,898.127c-.04,2.392,1.054,4.35,2.444,4.374s2.55-1.9,2.59-4.288-1.054-4.35-2.445-4.373S1421.8,895.735,1421.761,898.127Z" transform="translate(-1404.541 -869.162)"/></g><path class="k" d="M1489.493,1012.655l-17.639,13.761s-7.789-7.469-11.7-15.731c-3.96-8.363-.489-32.773,3.726-31.639C1473.308,981.584,1489.493,1012.655,1489.493,1012.655Z" transform="translate(-1363.518 -920.638)"/></g><g transform="translate(495.6 491.001)"><path class="e" d="M1107.419,748.082h58.336a28.3,28.3,0,0,0,28.3-28.3h0a28.3,28.3,0,0,0-28.3-28.3h-58.336a28.3,28.3,0,0,0-28.3,28.3h0A28.3,28.3,0,0,0,1107.419,748.082Z" transform="translate(-1079.116 -691.476)"/><path class="e" d="M1297.949,825.067l6.206,32.918-27.832-34.221Z" transform="translate(-1198.305 -771.429)"/><g transform="translate(12.329 17.816)"><path class="l" d="M1196.248,740.519h-83.964a2,2,0,0,1,0-4.01h83.964a2,2,0,0,1,0,4.01Z" transform="translate(-1110.28 -736.509)"/></g><g transform="translate(12.329 32.693)"><path class="l" d="M1196.248,778.124h-83.964a2,2,0,1,1,0-4.009h83.964a2,2,0,1,1,0,4.009Z" transform="translate(-1110.28 -774.115)"/></g></g><path class="m" d="M14.266,0H25.477A14.266,14.266,0,0,1,39.743,14.266V25.477A14.267,14.267,0,0,1,25.476,39.743H14.266A14.266,14.266,0,0,1,0,25.477V14.266A14.266,14.266,0,0,1,14.266,0Z" transform="translate(545.163 410.694)"/><path class="l" d="M1242.206,502.991c-5.03,0-9.106,4.976-9.106,11.114,0,4.583,5.182,12.469,7.807,16.172a1.788,1.788,0,0,0,2.937-.029c2.525-3.715,7.47-11.572,7.47-16.143C1251.314,507.967,1247.236,502.991,1242.206,502.991Zm.416,13.661a4.52,4.52,0,1,1,4.217-4.217A4.52,4.52,0,0,1,1242.622,516.652Z" transform="translate(-676.582 -86.558)"/><g transform="translate(252.701 359.774)"><rect class="n" width="53.338" height="53.338" rx="19.146"/><g transform="translate(8.027 15.467)"><path class="l" d="M524.427,404.335c.4-1.718-1.2-3.569-3.595-4a92.468,92.468,0,0,0-31.743-.181c-2.4.4-4,2.26-3.594,4.014h0c3.144,14.064,1.843,8.857,4.257,16.674a3.827,3.827,0,0,0,4.292,2.581h0a3.87,3.87,0,0,0,3.23-4.138q-.178-1.65-.355-3.3a2.4,2.4,0,0,1,2.354-2.522,78.128,78.128,0,0,1,11.418-.017,2.385,2.385,0,0,1,2.36,2.493q-.174,1.635-.348,3.269a3.784,3.784,0,0,0,3.248,4.048h0a3.88,3.88,0,0,0,4.292-2.573C520.823,418.817,523.626,407.923,524.427,404.335Z" transform="translate(-485.432 -398.871)"/><g class="o" transform="translate(3.816 2.894)"><path class="p" d="M504.333,407.962a2.712,2.712,0,0,1,1.388.379v-2.154h-2.775v2.154A2.715,2.715,0,0,1,504.333,407.962Z" transform="translate(-499.833 -406.187)"/><path class="p" d="M496.853,415.441a2.713,2.713,0,0,1,.379-1.387h-2.154v2.775h2.154A2.712,2.712,0,0,1,496.853,415.441Z" transform="translate(-495.078 -410.942)"/><path class="p" d="M504.333,423.87a2.711,2.711,0,0,1-1.388-.379v2.154h2.775v-2.154A2.709,2.709,0,0,1,504.333,423.87Z" transform="translate(-499.833 -416.645)"/><path class="p" d="M512.382,414.054a2.727,2.727,0,0,1,0,2.775h2.155v-2.775Z" transform="translate(-505.536 -410.942)"/></g><path class="n" d="M505.575,415.021a1.663,1.663,0,1,1-1.662-1.662A1.663,1.663,0,0,1,505.575,415.021Z" transform="translate(-495.597 -407.628)"/><path class="n" d="M562.322,412.679a3.556,3.556,0,1,1-3.556-3.556A3.556,3.556,0,0,1,562.322,412.679Z" transform="translate(-527.604 -405.067)"/></g></g><g transform="translate(113.643 581.007)"><path class="q" d="M21.062,0H37.613A21.061,21.061,0,0,1,58.674,21.061V37.613A21.061,21.061,0,0,1,37.613,58.674H21.061A21.061,21.061,0,0,1,0,37.613V21.062A21.062,21.062,0,0,1,21.062,0Z" transform="translate(0 0.641)"/><circle class="l" cx="20.106" cy="20.106" r="20.106" transform="translate(0.903 29.977) rotate(-45)"/><path class="q" d="M185.143,964.184l1.792,12.071a1.618,1.618,0,0,1-3.2.475,1.684,1.684,0,0,1-.006-.425Z" transform="translate(-156.662 -944.758)"/><path class="q" d="M185.317,992.045l14.209,1.2-14.171,1.578a1.4,1.4,0,0,1-.309-2.777A1.539,1.539,0,0,1,185.317,992.045Z" transform="translate(-156.714 -961.594)"/></g><g transform="translate(152.427 688.566)"><rect class="n" width="59.167" height="59.167" rx="21.238" transform="translate(0 0)"/><circle class="l" cx="19.843" cy="19.843" r="19.843" transform="translate(9.514 9.272)"/><path class="n" d="M288.038,1248.859l-11.393-6.577a1.6,1.6,0,0,0-2.392,1.381v13.155a1.6,1.6,0,0,0,2.392,1.381l11.393-6.578A1.6,1.6,0,0,0,288.038,1248.859Z" transform="translate(-249.497 -1221.808)"/></g><g transform="translate(648.608 363.992)"><path class="n" d="M18.824,0H33.618A18.823,18.823,0,0,1,52.441,18.823V33.617A18.824,18.824,0,0,1,33.617,52.441H18.824A18.824,18.824,0,0,1,0,33.617V18.824A18.824,18.824,0,0,1,18.824,0Z"/><path class="l" d="M1034.562,620.4l2.553-2.027a2.108,2.108,0,0,0,.565-2.613,20.162,20.162,0,0,0-5.141-6.556,2.105,2.105,0,0,0-2.592.007l-4.475,3.5a2.109,2.109,0,0,0-.8,1.854c.277,3.017,1.63,11.218,8.215,16.979,7.5,6.566,14.348,9.24,18.965,10.253a2.11,2.11,0,0,0,2.038-.666l3.872-4.4a2.11,2.11,0,0,0,.057-2.718,16.561,16.561,0,0,0-8.077-5.406,2.108,2.108,0,0,0-2.307.769l-1.395,1.9a2.112,2.112,0,0,1-2.484.707c-1.922-.768-5.363-2.887-9.417-8.731A2.107,2.107,0,0,1,1034.562,620.4Z" transform="translate(-1012.723 -600.159)"/></g><g transform="translate(265.354 482.149)"><path class="c" d="M832.378,985.343l-27.643-22.4L792.663,984.7l22.238,21.2Z" transform="translate(-675.743 -846.693)"/><path class="c" d="M838.9,1021.049a13.451,13.451,0,1,0,17.492-7.409A13.433,13.433,0,0,0,838.9,1021.049Z" transform="translate(-703.101 -876.741)"/><g transform="translate(216.553 80.798)"><path class="b" d="M1044.947,902.7q1.154,1.14,2.316,2.27a1.5,1.5,0,0,0,2.112-.023q2.16-2.238,4.122-4.629a1.49,1.49,0,0,0-.259-2.123q-1.278-.982-2.546-1.972a1.492,1.492,0,0,0-2.074.233q-1.756,2.132-3.686,4.135A1.5,1.5,0,0,0,1044.947,902.7Z" transform="translate(-1044.505 -886.975)"/><path class="b" d="M1063.009,882.144q.58.418,1.162.833a1.5,1.5,0,0,0,2.09-.346q2.18-3.113,4.034-6.419a1.488,1.488,0,0,0-.621-2.039q-.634-.332-1.266-.666a1.487,1.487,0,0,0-2,.594q-1.721,3.063-3.746,5.958A1.5,1.5,0,0,0,1063.009,882.144Z" transform="translate(-1055.314 -873.334)"/></g><path class="b" d="M871.906,983.867a50,50,0,0,1,4.116,4.181,11.258,11.258,0,0,0,14.5,1.977l27.341-17.414a11.278,11.278,0,0,0,3-16.161,92.3,92.3,0,0,0-15.029-16.227,11.269,11.269,0,0,0-16.5,2.019l-19.029,26.8A11.234,11.234,0,0,0,871.906,983.867Z" transform="translate(-721.415 -831.329)"/><path class="b" d="M980.8,932.241l4.239,4.457a11.132,11.132,0,0,0,15.738.4l4.707-4.476L987.6,913.8l-6.482,6.163A8.683,8.683,0,0,0,980.8,932.241Z" transform="translate(-788.008 -816.994)"/><g transform="translate(207.74 88.012)"><path class="b" d="M3.988,0h.044A3.987,3.987,0,0,1,8.019,3.987V5.97A3.987,3.987,0,0,1,4.032,9.956H3.986A3.986,3.986,0,0,1,0,5.97V3.988A3.988,3.988,0,0,1,3.988,0Z" transform="translate(10.998 26.645) rotate(-133.561)"/><path class="b" d="M1022.638,919.585l3.468,3.648a1.493,1.493,0,0,0,2.111.053l5.052-4.8a1.493,1.493,0,0,0,.053-2.111l-3.468-3.647a1.493,1.493,0,0,0-2.111-.053l-5.052,4.8A1.493,1.493,0,0,0,1022.638,919.585Z" transform="translate(-1022.227 -904.074)"/><path class="b" d="M3.11,0h0A3.109,3.109,0,0,1,6.219,3.109V5.214a3.11,3.11,0,0,1-3.11,3.11h0A3.109,3.109,0,0,1,0,5.215V3.11A3.11,3.11,0,0,1,3.11,0Z" transform="translate(19.406 18.197) rotate(-133.549)"/><path class="b" d="M2.209,0h0A2.209,2.209,0,0,1,4.418,2.209V7.584A2.209,2.209,0,0,1,2.21,9.793h0A2.209,2.209,0,0,1,0,7.584V2.209A2.209,2.209,0,0,1,2.209,0Z" transform="matrix(-0.689, -0.725, 0.725, -0.689, 26.655, 9.95)"/></g><g transform="translate(202.253 79.671)"><path class="b" d="M1012.889,903.665q1.7.752,3.41,1.484a1.5,1.5,0,0,1,.673,2.2,16.184,16.184,0,0,1-3.594,3.951,1.5,1.5,0,0,1-2.014-.147l-2.6-2.738a1.494,1.494,0,0,1,.278-2.272,8.078,8.078,0,0,0,2.057-2.013A1.465,1.465,0,0,1,1012.889,903.665Z" transform="translate(-1008.357 -890.459)"/><path class="b" d="M1022.364,891.531q1.115.3,2.236.58a1.5,1.5,0,0,0,1.829-1.219,12.4,12.4,0,0,0-.148-4.9,1.492,1.492,0,0,0-2.011-1.035q-1.06.434-2.137.81a1.486,1.486,0,0,0-.94,1.72,7.344,7.344,0,0,1,.085,2.414A1.492,1.492,0,0,0,1022.364,891.531Z" transform="translate(-1016.095 -879.162)"/><path class="b" d="M1013.435,876.83a35.309,35.309,0,0,0,3.21-1.983,11.767,11.767,0,0,0-5.019-4.211,1.821,1.821,0,0,0-2.465,1.221l-.023.077a1.839,1.839,0,0,0,1.025,2.224A7.591,7.591,0,0,1,1013.435,876.83Z" transform="translate(-1008.782 -870.484)"/></g><g transform="translate(187.724 80.279)"><path class="b" d="M978.318,902.18a8.192,8.192,0,0,0,1.612,2.991,1.232,1.232,0,0,1-.064,1.7l-3.714,3.533a1.26,1.26,0,0,1-1.975-.33,25.74,25.74,0,0,1-2.52-6.994,1.25,1.25,0,0,1,1.135-1.5q2.1-.156,4.194-.35A1.276,1.276,0,0,1,978.318,902.18Z" transform="translate(-971.633 -889.672)"/><path class="b" d="M977.674,887.417q-1.151-.074-2.3-.169a1.506,1.506,0,0,1-1.347-1.743,12.352,12.352,0,0,1,1.691-4.6,1.486,1.486,0,0,1,2.233-.334q.867.753,1.771,1.455a1.476,1.476,0,0,1,.36,1.906,7.336,7.336,0,0,0-.864,2.314A1.469,1.469,0,0,1,977.674,887.417Z" transform="translate(-973.067 -876.97)"/><path class="b" d="M988.7,877.316a35.611,35.611,0,0,1-2.414-2.911,11.687,11.687,0,0,1,6.037-2.373,1.844,1.844,0,0,1,2,1.944c0,.028,0,.055,0,.083a1.824,1.824,0,0,1-1.672,1.776A7.54,7.54,0,0,0,988.7,877.316Z" transform="translate(-980.491 -872.023)"/></g><path class="c" d="M576.758,998.713,588.2,963.481l-5.464-3.1c-8.4-4.773-18.507.325-22.116,11.158l-7,21.012Z" transform="translate(-531.271 -844.059)"/><path class="c" d="M565.4,1014.629c-6.6-.418-12.377,5.909-12.9,14.132s4.4,15.226,11,15.645,12.377-5.909,12.9-14.132S572,1015.047,565.4,1014.629Z" transform="translate(-530.567 -877.921)"/><g transform="translate(0 154.186)"><g transform="translate(7.258 78.04)"><path class="b" d="M520.269,1256.606q-1.325-.249-2.652-.487a1.245,1.245,0,0,0-1.447,1q-.45,2.548-.694,5.108a1.238,1.238,0,0,0,1.165,1.343q1.338.081,2.673.175a1.241,1.241,0,0,0,1.322-1.126q.222-2.286.623-4.564A1.245,1.245,0,0,0,520.269,1256.606Z" transform="translate(-515.47 -1256.099)"/><path class="b" d="M519.274,1277.9l-1.189-.034a1.245,1.245,0,0,0-1.281,1.211q-.059,3.16.2,6.3a1.236,1.236,0,0,0,1.376,1.117l1.183-.129a1.239,1.239,0,0,0,1.1-1.338q-.235-2.912-.182-5.848A1.249,1.249,0,0,0,519.274,1277.9Z" transform="translate(-516.27 -1269.253)"/></g><path class="b" d="M535.664,1059.885a48.886,48.886,0,0,1-5.658-.826,10.982,10.982,0,0,0-12.435,6.993q-5.513,14.807-11.024,29.614a10.982,10.982,0,0,0,7.162,14.324,89.911,89.911,0,0,0,21.223,3.766,10.994,10.994,0,0,0,11.639-11.273q-.476-16.007-.953-32.014A10.937,10.937,0,0,0,535.664,1059.885Z" transform="translate(-502.401 -1058.837)"/><path class="b" d="M523.082,1195.067l-4.974-1.1A9.27,9.27,0,0,0,507.055,1201l-1.171,5.286,21.086,4.649,1.612-7.272A7.211,7.211,0,0,0,523.082,1195.067Z" transform="translate(-502.418 -1140.377)"/><path class="b" d="M524.333,1233.361l-4.084-.9a1.244,1.244,0,0,0-1.482.943l-1.255,5.664a1.239,1.239,0,0,0,.945,1.478l4.083.9a1.244,1.244,0,0,0,1.482-.943l1.255-5.664A1.24,1.24,0,0,0,524.333,1233.361Z" transform="translate(-509.428 -1163.755)"/><g transform="translate(0 76.269)"><path class="b" d="M501.922,1252.129q-1.324-.249-2.652-.487a1.244,1.244,0,0,0-1.446,1q-.451,2.547-.695,5.108a1.237,1.237,0,0,0,1.165,1.343q1.337.082,2.673.175a1.242,1.242,0,0,0,1.323-1.126q.222-2.285.623-4.565A1.245,1.245,0,0,0,501.922,1252.129Z" transform="translate(-497.123 -1251.622)"/><path class="b" d="M500.928,1273.422q-.595-.018-1.189-.034a1.244,1.244,0,0,0-1.281,1.211,62.788,62.788,0,0,0,.2,6.3,1.236,1.236,0,0,0,1.376,1.117l1.183-.13a1.238,1.238,0,0,0,1.1-1.338q-.234-2.912-.182-5.849A1.249,1.249,0,0,0,500.928,1273.422Z" transform="translate(-497.923 -1264.777)"/></g><path class="b" d="M505.986,1228.884l-4.084-.9a1.243,1.243,0,0,0-1.482.943l-1.255,5.664a1.24,1.24,0,0,0,.945,1.479l4.084.9a1.244,1.244,0,0,0,1.482-.943l1.255-5.663A1.24,1.24,0,0,0,505.986,1228.884Z" transform="translate(-498.339 -1161.049)"/><g transform="translate(14.517 79.888)"><path class="b" d="M538.616,1261.278q-1.325-.249-2.652-.488a1.246,1.246,0,0,0-1.447,1q-.45,2.547-.694,5.108a1.238,1.238,0,0,0,1.165,1.343q1.337.081,2.673.175a1.243,1.243,0,0,0,1.323-1.126q.222-2.286.623-4.565A1.245,1.245,0,0,0,538.616,1261.278Z" transform="translate(-533.817 -1260.77)"/><path class="b" d="M537.621,1282.57l-1.189-.034a1.245,1.245,0,0,0-1.281,1.211,62.864,62.864,0,0,0,.2,6.3,1.236,1.236,0,0,0,1.376,1.117q.592-.067,1.183-.13a1.239,1.239,0,0,0,1.1-1.338q-.235-2.913-.182-5.85A1.25,1.25,0,0,0,537.621,1282.57Z" transform="translate(-534.616 -1273.925)"/></g><path class="b" d="M542.68,1238.034l-4.084-.9a1.243,1.243,0,0,0-1.482.943l-1.255,5.663a1.24,1.24,0,0,0,.945,1.478l4.084.9a1.244,1.244,0,0,0,1.482-.943l1.255-5.664A1.24,1.24,0,0,0,542.68,1238.034Z" transform="translate(-520.516 -1166.579)"/><g transform="translate(25.979 72.803)"><path class="b" d="M563.8,1243.369q1.325-.249,2.652-.488a1.244,1.244,0,0,1,1.447,1q.451,2.547.694,5.108a1.237,1.237,0,0,1-1.165,1.343q-1.337.083-2.673.175a1.243,1.243,0,0,1-1.323-1.126q-.222-2.286-.623-4.565A1.245,1.245,0,0,1,563.8,1243.369Z" transform="translate(-562.789 -1242.862)"/><path class="b" d="M567.75,1264.663q.595-.019,1.189-.034a1.245,1.245,0,0,1,1.282,1.211,63.007,63.007,0,0,1-.2,6.3,1.236,1.236,0,0,1-1.376,1.117l-1.183-.13a1.237,1.237,0,0,1-1.1-1.338q.235-2.911.182-5.849A1.248,1.248,0,0,1,567.75,1264.663Z" transform="translate(-564.947 -1256.017)"/></g><path class="b" d="M562.669,1219.626c.019-.085.036-.17.052-.255l1.2-.265a1.2,1.2,0,0,1,1.427.908l1.283,5.792a1.194,1.194,0,0,1-.91,1.423l-3.662.807a1.2,1.2,0,0,1-1.171-.393Z" transform="translate(-535.664 -1155.684)"/></g><path class="r" d="M694.182,715.49c.007-58.816-80.647-58.826-80.654,0H611.47c-.007-61.848,84.8-61.858,84.811,0Z" transform="translate(-566.232 -669.101)"/><path class="r" d="M708.915,669.274a11.791,11.791,0,0,1,.195,2.264c21.3-1.88,43.97,12.772,43.966,43.954h2.1C755.172,682.689,731.32,667.286,708.915,669.274Z" transform="translate(-625.126 -669.103)"/><path class="j" d="M709.075,669.184v2.276c21.545-1.3,40.941,13.525,40.937,44.184.718,0,6.373-.221,7.092-.221C757.1,683.238,731.692,667.876,709.075,669.184Z" transform="translate(-625.223 -669.105)"/><path class="i" d="M810.085,772.68c-5.221.13-9.16,8.452-8.8,18.463.342,9.534,4.457,17.481,9.357,18.029l0,0c7.093-.861,15.549-7.255,15.276-15.142V787.9C825.92,779.7,817.828,772.487,810.085,772.68Z" transform="translate(-680.939 -731.7)"/><path class="c" d="M15.945,0H28.792A15.946,15.946,0,0,1,44.738,15.946v2.192a0,0,0,0,1,0,0H0a0,0,0,0,1,0,0V15.945A15.945,15.945,0,0,1,15.945,0Z" transform="translate(66.511 169.899)"/><path class="c" d="M664.426,1132.358c0,7.4-5.374,13.4-12,13.4s-12-6-12-13.4,5.374-13.4,12-13.4S664.426,1124.956,664.426,1132.358Z" transform="translate(-583.729 -940.986)"/><path class="c" d="M784.4,1290.965c0,7.4-5.374,13.4-12,13.4s-12-6-12-13.4,5.374-13.4,12-13.4S784.4,1283.564,784.4,1290.965Z" transform="translate(-656.243 -1036.845)"/><ellipse class="c" cx="12.003" cy="13.403" rx="12.003" ry="13.403" transform="translate(103.611 308.339)"/><path class="c" d="M766.018,1132.358c0,7.4-5.374,13.4-12,13.4s-12-6-12-13.4,5.374-13.4,12-13.4S766.018,1124.956,766.018,1132.358Z" transform="translate(-645.13 -940.986)"/><path class="b" d="M691.731,945.961a199.228,199.228,0,0,0-74.577.39,5.274,5.274,0,0,0-3.891,7.155Q622,975,628.92,997.107a5.314,5.314,0,0,0,5.719,3.68l.7-.082a7.586,7.586,0,0,1,8.434,7.537l1.54,25.652,20.86-.38,1.605-23.973a7.583,7.583,0,0,1,8.919-7.467l.138.025a5.29,5.29,0,0,0,6.051-3.87q6.035-22.852,12.954-45.531A5.284,5.284,0,0,0,691.731,945.961Z" transform="translate(-567.081 -834.419)"/><path class="b" d="M682.889,998.229q6.035-22.852,12.954-45.531a5.284,5.284,0,0,0-4.112-6.737,199.228,199.228,0,0,0-74.577.39,5.274,5.274,0,0,0-3.891,7.155Q622,975,628.92,997.107a5.314,5.314,0,0,0,5.719,3.68l.7-.082c.146-.017.291-.028.435-.037l1.473-.319L674.513,1002a7.541,7.541,0,0,1,2.188.078l.138.025.921.086A5.3,5.3,0,0,0,682.889,998.229Z" transform="translate(-567.081 -834.419)"/><path class="b" d="M770.564,1218.359a155.236,155.236,0,0,1-20.808-.355c-3.182-.269-5.559-3.379-5.259-6.927q1.734-20.48,3.468-40.959a5.942,5.942,0,0,1,5.851-5.739,111.62,111.62,0,0,0,12.571-.276c3.088-.242,5.792,2.284,6.084,5.726q1.76,20.8,3.521,41.592C776.3,1215.042,773.819,1218.2,770.564,1218.359Z" transform="translate(-646.616 -968.262)"/><path class="b" d="M783.6,1386.6l-9.134-47.386c-.757-3.927-3.866-6.731-7.464-6.731h-12.7c-3.6,0-6.707,2.8-7.464,6.731l-9.134,47.386h.01v16.284a6.46,6.46,0,0,0,5.114,6.585,5.449,5.449,0,0,0,1.355.042c3.1-.289,5.443-3.281,5.443-6.756v-8.228c0-4.377,3.178-7.926,7.1-7.926h17.558a5.067,5.067,0,0,1,4.765,5.321v17.613h0a4.547,4.547,0,0,0,4.547-4.547V1386.6Z" transform="translate(-642.528 -1070.04)"/><path class="s" d="M777.117,1478.51s-13.367-.3-18.55,3.35c-2.639,1.861-3.651,6.406-4.01,10.419a11.55,11.55,0,0,0,4.685,10.533l5.209,3.588a11.126,11.126,0,0,0,6.187,2l12.513.154c5.152.063,9.455-4.4,9.746-10.143.282-5.557.191-11.809-1.323-14.421C788.574,1478.814,777.117,1478.51,777.117,1478.51Z" transform="translate(-652.683 -1158.291)"/><path class="c" d="M655.2,1291.081c-.109,7.4-5.571,13.322-12.2,13.224s-11.913-6.177-11.8-13.578,5.571-13.322,12.2-13.224S655.306,1283.68,655.2,1291.081Z" transform="translate(-578.152 -1036.808)"/><path class="c" d="M643.661,1461.424c-.109,7.4-5.571,13.322-12.2,13.224s-11.913-6.178-11.8-13.579,5.571-13.321,12.2-13.224S643.77,1454.023,643.661,1461.424Z" transform="translate(-571.18 -1139.761)"/><path class="b" d="M647.5,1218.359a155.235,155.235,0,0,1-20.808-.355c-3.182-.269-5.559-3.379-5.259-6.927q1.734-20.48,3.468-40.959a5.942,5.942,0,0,1,5.85-5.739,111.624,111.624,0,0,0,12.571-.276c3.088-.242,5.793,2.284,6.084,5.726q1.76,20.8,3.521,41.592C653.236,1215.042,650.757,1218.2,647.5,1218.359Z" transform="translate(-572.24 -968.262)"/><path class="b" d="M644.079,1386.256l-8.433-47.516c-.7-3.938-3.767-6.787-7.364-6.841l-12.7-.187c-3.6-.054-6.748,2.705-7.563,6.62l-9.833,47.246h.01l-.24,16.282a6.458,6.458,0,0,0,5.016,6.659,5.422,5.422,0,0,0,1.354.062c3.106-.244,5.491-3.2,5.542-6.675l.121-8.227c.065-4.377,3.3-7.879,7.215-7.821l17.556.259a5.067,5.067,0,0,1,4.686,5.391l-.26,17.612h0a4.547,4.547,0,0,0,4.613-4.479l.272-18.385Z" transform="translate(-558.065 -1069.572)"/><path class="s" d="M637.475,1478.164s-13.361-.5-18.6,3.077c-2.666,1.821-3.745,6.351-4.163,10.358a11.548,11.548,0,0,0,4.529,10.6l5.155,3.666a11.134,11.134,0,0,0,6.157,2.093l12.509.339c5.151.14,9.519-4.259,9.894-10,.363-5.552.365-11.805-1.11-14.439C648.926,1478.638,637.475,1478.164,637.475,1478.164Z" transform="translate(-568.153 -1158.071)"/><path class="c" d="M705.649,931.491h0a8.456,8.456,0,0,1-8.457-8.456V907.141H714.1v15.894A8.457,8.457,0,0,1,705.649,931.491Z" transform="translate(-618.041 -812.968)"/><ellipse class="b" cx="45.829" cy="44.075" rx="45.829" ry="44.075" transform="translate(40.959 12.824)"/><path class="c" d="M706.562,807.963a115.713,115.713,0,0,0-47.81.178c-3.2.687-6.3-1.7-7.01-5.441l-1.788-9.407c-.748-3.938,1.429-7.843,4.806-8.552a132.878,132.878,0,0,1,55.717.2c3.359.73,5.516,4.623,4.771,8.545q-.859,4.516-1.716,9.032C712.826,806.234,709.754,808.623,706.562,807.963Z" transform="translate(-589.403 -737.266)"/><path class="t" d="M777.669,805.4a5.325,5.325,0,1,1-5.319-5.079A5.2,5.2,0,0,1,777.669,805.4Z" transform="translate(-660.25 -748.408)"/><path class="j" d="M602.669,715.608c.686,0,6.258.739,6.944.739,0-27.639,16.4-42.881,35.283-44.548a11.815,11.815,0,0,0-.195-2.264C624.857,671.3,602.666,686.558,602.669,715.608Z" transform="translate(-560.913 -669.363)"/><path class="i" d="M588.145,771.509c5.221.13,9.16,8.453,8.8,18.464-.342,9.534-4.456,17.48-9.356,18.029h0c-7.093-.862-15.549-7.255-15.277-15.142v-6.128C572.309,778.526,580.4,771.316,588.145,771.509Z" transform="translate(-542.56 -730.992)"/><g transform="translate(71.671 53.556)"><path class="t" d="M680.04,811.224a1.753,1.753,0,0,1-1.286-2.945c2.337-2.517,8.35-6.126,14.376-1.762a1.754,1.754,0,1,1-2.058,2.842c-5-3.62-9.56,1.111-9.752,1.313A1.758,1.758,0,0,1,680.04,811.224Z" transform="translate(-678.286 -804.475)"/></g></g><ellipse class="b" cx="39.687" cy="14.667" rx="39.687" ry="14.667" transform="translate(308.178 843.643)"/></g></svg>