<svg xmlns="http://www.w3.org/2000/svg" xmlns:xlink="http://www.w3.org/1999/xlink" width="576.442" height="734.228" viewBox="0 0 576.442 734.228"><defs><style>.a,.br,.cl,.cr,.g,.l,.m,.n,.o,.p,.q,.r,.s,.t,.u,.v,.w{mix-blend-mode:screen;}.a,.ab,.ao,.ap,.aq,.ar,.as,.at,.au,.av,.aw,.ax,.ay,.az,.bf,.bg,.bh,.bm,.bn,.bo,.bp,.br,.bu,.bv,.bw,.cl,.cq,.cr,.d,.db,.dc,.de,.df,.f,.g,.j,.k,.l,.m,.n,.o,.p,.q,.r,.s,.t,.u,.v,.w{isolation:isolate;}.a{fill:url(#a);}.b{fill:url(#b);}.c{fill:url(#c);}.bg,.bh,.bm,.bn,.bo,.bp,.bu,.bv,.bw,.cq,.d,.db,.de,.df,.f,.j,.k{mix-blend-mode:color-dodge;}.d{fill:url(#d);}.e{fill:#fff;}.f{fill:url(#e);}.g{fill:url(#f);}.h{fill:url(#g);}.i{fill:url(#h);}.j{fill:url(#i);}.k{fill:url(#j);}.l{fill:url(#k);}.m{fill:url(#l);}.n{fill:url(#m);}.o{fill:url(#n);}.p{fill:url(#o);}.q{fill:url(#p);}.r{fill:url(#q);}.s{fill:url(#r);}.t{fill:url(#s);}.u{fill:url(#t);}.v{fill:url(#u);}.w{fill:url(#v);}.x{fill:url(#w);}.y{fill:url(#x);}.z{fill:url(#y);}.aa{fill:url(#z);}.ab,.ao,.ap,.aq,.ar,.as,.at,.au,.av,.aw,.ax,.ay,.az,.bf,.dc{mix-blend-mode:multiply;}.ab{fill:url(#aa);}.ac,.ao,.by{opacity:0;}.ac{fill:url(#ab);}.ad{opacity:0.073;fill:url(#ac);}.ae{opacity:0.145;fill:url(#ad);}.af{opacity:0.218;fill:url(#ae);}.ag{opacity:0.291;fill:url(#af);}.ah,.aw,.cc{opacity:0.364;}.ah{fill:url(#ag);}.ai{opacity:0.436;fill:url(#ah);}.aj{opacity:0.509;fill:url(#ai);}.ak{opacity:0.582;fill:url(#aj);}.al{opacity:0.655;fill:url(#ak);}.am,.cg{opacity:0.727;}.am{fill:url(#al);}.an,.co{opacity:0.8;}.an{fill:url(#am);}.ao{fill:url(#an);}.ap{opacity:0.045;fill:url(#ao);}.aq,.bz{opacity:0.091;}.aq{fill:url(#ap);}.ar{opacity:0.136;fill:url(#aq);}.as,.ca{opacity:0.182;}.as{fill:url(#ar);}.at{opacity:0.227;fill:url(#as);}.au,.cb{opacity:0.273;}.au{fill:url(#at);}.av{opacity:0.318;fill:url(#au);}.aw{fill:url(#av);}.ax{opacity:0.409;fill:url(#aw);}.ay{opacity:0.455;fill:url(#ax);}.az,.bw{opacity:0.5;}.az{fill:url(#ay);}.ba{fill:url(#az);}.bb{fill:url(#ba);}.bc{fill:#2af6ff;}.bd{fill:url(#bb);}.be{fill:url(#bc);}.bf{fill:url(#bd);}.bg{fill:url(#be);}.bh{fill:url(#bf);}.bi{fill:url(#bg);}.bj{fill:url(#bh);}.bk{fill:url(#bi);}.bl{fill:url(#bj);}.bm{fill:url(#bk);}.bn{fill:url(#bl);}.bo{fill:url(#bm);}.bp{fill:url(#bn);}.bq{fill:url(#bo);}.br{fill:url(#bp);}.bs{fill:url(#bq);}.bt{fill:url(#br);}.bu{fill:url(#bs);}.bv{fill:url(#bt);}.bw{fill:url(#bu);}.bx{opacity:0.2;}.cd{opacity:0.455;}.ce{opacity:0.545;}.cf{opacity:0.636;}.ch{opacity:0.818;}.ci{opacity:0.909;}.cj{opacity:0.15;}.ck{fill:url(#bv);}.cl,.cr{opacity:0.6;}.cl{fill:url(#bw);}.cm{fill:url(#bx);}.cn{fill:url(#by);}.co{fill:url(#bz);}.cp{fill:url(#ca);}.cq{fill:url(#cb);}.cr{fill:url(#cc);}.cs{fill:url(#cd);}.ct{fill:url(#ce);}.cu{fill:url(#cf);}.cv{fill:url(#cg);}.cw{fill:#9f19ab;}.cx{fill:#138bbd;}.cy{fill:#f03a01;}.cz{fill:url(#ch);}.da{fill:url(#ci);}.db{fill:url(#cj);}.dc{fill:#bcbec0;}.dd{fill:url(#ck);}.de{fill:url(#cl);}.df{fill:url(#cm);}</style><linearGradient id="a" x1="-40.701" y1="0.66" x2="-40.943" y2="0.336" gradientUnits="objectBoundingBox"><stop offset="0" stop-color="#fdd65b"/><stop offset="0.011" stop-color="#f6d058"/><stop offset="0.129" stop-color="#bda044"/><stop offset="0.249" stop-color="#8b7532"/><stop offset="0.37" stop-color="#605122"/><stop offset="0.492" stop-color="#3d3416"/><stop offset="0.615" stop-color="#221d0c"/><stop offset="0.74" stop-color="#0f0c05"/><stop offset="0.867" stop-color="#030301"/><stop offset="1"/></linearGradient><linearGradient id="b" x1="-46.112" y1="-0.052" x2="-46.898" y2="1.008" gradientUnits="objectBoundingBox"><stop offset="0" stop-color="#f03a01"/><stop offset="0.338" stop-color="#fbcd9c"/><stop offset="0.808" stop-color="#feeca8"/><stop offset="0.914" stop-color="#ffa98c"/><stop offset="1" stop-color="#ffa98c"/></linearGradient><linearGradient id="c" x1="-68.962" y1="-27.72" x2="-73.134" y2="-28.752" gradientUnits="objectBoundingBox"><stop offset="0" stop-color="#f03a01"/><stop offset="0.035" stop-color="#ffa98c"/><stop offset="0.317" stop-color="#feb892"/><stop offset="0.86" stop-color="#fee0a3"/><stop offset="1" stop-color="#feeca8"/></linearGradient><radialGradient id="d" cx="1.113" cy="0.464" r="0.528" gradientTransform="translate(-96.786) scale(0.927 1)" gradientUnits="objectBoundingBox"><stop offset="0" stop-color="#fff"/><stop offset="1"/></radialGradient><radialGradient id="e" cx="0.5" cy="0.5" r="0.299" gradientTransform="matrix(1.355, -0.38, 0.979, 1.627, -2483.927, 319.721)" gradientUnits="objectBoundingBox"><stop offset="0" stop-color="#c211a1"/><stop offset="0.013" stop-color="#bc109c"/><stop offset="0.148" stop-color="#8b0c73"/><stop offset="0.285" stop-color="#60084f"/><stop offset="0.423" stop-color="#3d0533"/><stop offset="0.563" stop-color="#22031c"/><stop offset="0.704" stop-color="#0f010c"/><stop offset="0.849" stop-color="#030003"/><stop offset="1"/></radialGradient><linearGradient id="f" x1="-42.976" y1="0.657" x2="-43.216" y2="0.34" gradientTransform="matrix(1, 0, 0, 1, 0, 0)" xlink:href="#e"/><linearGradient id="g" x1="-47.919" y1="-0.051" x2="-48.707" y2="1.007" gradientUnits="objectBoundingBox"><stop offset="0.167" stop-color="#dc48c1"/><stop offset="0.425" stop-color="#de4ac2"/><stop offset="0.6" stop-color="#e751c5"/><stop offset="0.75" stop-color="#f65cca"/><stop offset="0.808" stop-color="#ff63ce"/><stop offset="0.914" stop-color="#9f19ab"/></linearGradient><linearGradient id="h" x1="-71.75" y1="-28.11" x2="-75.924" y2="-29.139" gradientUnits="objectBoundingBox"><stop offset="0.035" stop-color="#9f19ab"/><stop offset="0.244" stop-color="#ae24b0"/><stop offset="0.645" stop-color="#d643bf"/><stop offset="1" stop-color="#ff63ce"/></linearGradient><radialGradient id="i" cx="1.113" cy="0.464" r="0.528" gradientTransform="translate(-100.635) scale(0.931 1)" xlink:href="#d"/><radialGradient id="j" cx="0.5" cy="0.5" r="0.299" gradientTransform="matrix(1.355, -0.38, 0.979, 1.627, -2568.536, 332.901)" xlink:href="#e"/><linearGradient id="k" x1="-275.966" y1="0.13" x2="-275.966" y2="0.821" gradientUnits="objectBoundingBox"><stop offset="0" stop-color="#113a39"/><stop offset="0.222" stop-color="#0a2221"/><stop offset="0.473" stop-color="#040f0f"/><stop offset="0.73" stop-color="#010303"/><stop offset="1"/></linearGradient><linearGradient id="l" x1="-291.569" y1="0.13" x2="-291.569" y2="0.821" gradientUnits="objectBoundingBox"><stop offset="0" stop-color="#164a48"/><stop offset="0.061" stop-color="#13413f"/><stop offset="0.299" stop-color="#0a2423"/><stop offset="0.536" stop-color="#04100f"/><stop offset="0.771" stop-color="#010403"/><stop offset="1"/></linearGradient><linearGradient id="m" x1="-309.02" y1="0.13" x2="-309.02" y2="0.821" gradientUnits="objectBoundingBox"><stop offset="0" stop-color="#1a5a58"/><stop offset="0.126" stop-color="#144644"/><stop offset="0.358" stop-color="#0b2726"/><stop offset="0.584" stop-color="#051111"/><stop offset="0.802" stop-color="#010404"/><stop offset="1"/></linearGradient><linearGradient id="n" x1="-328.689" y1="0.13" x2="-328.689" y2="0.821" gradientUnits="objectBoundingBox"><stop offset="0" stop-color="#1f6967"/><stop offset="0.17" stop-color="#164b4a"/><stop offset="0.4" stop-color="#0c2a2a"/><stop offset="0.621" stop-color="#051312"/><stop offset="0.826" stop-color="#010404"/><stop offset="1"/></linearGradient><linearGradient id="o" x1="-351.05" y1="0.13" x2="-351.05" y2="0.821" gradientUnits="objectBoundingBox"><stop offset="0" stop-color="#237976"/><stop offset="0.207" stop-color="#175250"/><stop offset="0.436" stop-color="#0d2e2d"/><stop offset="0.652" stop-color="#061514"/><stop offset="0.846" stop-color="#010505"/><stop offset="1"/></linearGradient><linearGradient id="p" x1="-376.643" y1="0.13" x2="-376.643" y2="0.821" gradientUnits="objectBoundingBox"><stop offset="0" stop-color="#288985"/><stop offset="0.232" stop-color="#1a5a57"/><stop offset="0.464" stop-color="#0e3331"/><stop offset="0.677" stop-color="#061716"/><stop offset="0.862" stop-color="#010605"/><stop offset="1"/></linearGradient><linearGradient id="q" x1="-406.287" y1="0.13" x2="-406.287" y2="0.821" gradientUnits="objectBoundingBox"><stop offset="0" stop-color="#2c9995"/><stop offset="0.245" stop-color="#1c6461"/><stop offset="0.483" stop-color="#103937"/><stop offset="0.696" stop-color="#071919"/><stop offset="0.875" stop-color="#010606"/><stop offset="1"/></linearGradient><linearGradient id="r" x1="-440.952" y1="0.13" x2="-440.952" y2="0.821" gradientUnits="objectBoundingBox"><stop offset="0" stop-color="#31a9a4"/><stop offset="0.248" stop-color="#20706d"/><stop offset="0.494" stop-color="#12403e"/><stop offset="0.709" stop-color="#081d1c"/><stop offset="0.885" stop-color="#020707"/><stop offset="1"/></linearGradient><linearGradient id="s" x1="-482.12" y1="0.13" x2="-482.12" y2="0.821" gradientUnits="objectBoundingBox"><stop offset="0" stop-color="#35b9b3"/><stop offset="0.238" stop-color="#24807b"/><stop offset="0.495" stop-color="#154946"/><stop offset="0.717" stop-color="#092120"/><stop offset="0.893" stop-color="#020908"/><stop offset="1"/></linearGradient><linearGradient id="t" x1="-531.703" y1="0.13" x2="-531.703" y2="0.821" gradientUnits="objectBoundingBox"><stop offset="0" stop-color="#3ac8c2"/><stop offset="0.203" stop-color="#2b9590"/><stop offset="0.481" stop-color="#185553"/><stop offset="0.716" stop-color="#0b2726"/><stop offset="0.896" stop-color="#030a0a"/><stop offset="1"/></linearGradient><linearGradient id="u" x1="-592.64" y1="0.13" x2="-592.64" y2="0.821" gradientUnits="objectBoundingBox"><stop offset="0" stop-color="#3ed8d2"/><stop offset="0.14" stop-color="#33b3ae"/><stop offset="0.45" stop-color="#1d6764"/><stop offset="0.707" stop-color="#0d2f2e"/><stop offset="0.897" stop-color="#030d0c"/><stop offset="1"/></linearGradient><linearGradient id="v" x1="-669.42" y1="0.13" x2="-669.42" y2="0.821" gradientUnits="objectBoundingBox"><stop offset="0" stop-color="#43e8e1"/><stop offset="0.024" stop-color="#41e1da"/><stop offset="0.388" stop-color="#25827e"/><stop offset="0.682" stop-color="#113b3a"/><stop offset="0.893" stop-color="#041010"/><stop offset="1"/></linearGradient><linearGradient id="w" x1="-344.529" y1="0.5" x2="-345.513" y2="0.5" gradientUnits="objectBoundingBox"><stop offset="0.02" stop-color="#45108a"/><stop offset="0.293" stop-color="#3d065f"/><stop offset="1" stop-color="#12054e"/><stop offset="1" stop-color="#10054d"/></linearGradient><linearGradient id="x" x1="-325.155" y1="0.445" x2="-326.873" y2="0.548" gradientUnits="objectBoundingBox"><stop offset="0.01" stop-color="#c1a1d5"/><stop offset="0.049" stop-color="#c7abd9"/><stop offset="0.115" stop-color="#d9c6e5"/><stop offset="0.2" stop-color="#f6f2f9"/><stop offset="0.222" stop-color="#fff"/><stop offset="0.251" stop-color="#f9f5fb"/><stop offset="0.3" stop-color="#e9dbf1"/><stop offset="0.359" stop-color="#d1b4e3"/><stop offset="0.426" stop-color="#b294d5"/><stop offset="0.495" stop-color="#9b7ccb"/><stop offset="0.558" stop-color="#8d6ec5"/><stop offset="0.611" stop-color="#8969c3"/><stop offset="0.755" stop-color="#9371c5"/><stop offset="1" stop-color="#b086cc"/></linearGradient><linearGradient id="y" x1="-344.628" y1="0.108" x2="-345.42" y2="0.892" xlink:href="#w"/><linearGradient id="z" x1="-76.509" y1="0.562" x2="-77.542" y2="0.426" gradientUnits="objectBoundingBox"><stop offset="0.01" stop-color="#c1a1d5"/><stop offset="0.044" stop-color="#c7abd9"/><stop offset="0.102" stop-color="#d9c6e5"/><stop offset="0.177" stop-color="#f6f2f9"/><stop offset="0.197" stop-color="#fff"/><stop offset="0.231" stop-color="#f9f5fb"/><stop offset="0.289" stop-color="#e9dbf1"/><stop offset="0.359" stop-color="#d1b4e3"/><stop offset="0.426" stop-color="#b294d5"/><stop offset="0.495" stop-color="#9b7ccb"/><stop offset="0.558" stop-color="#8d6ec5"/><stop offset="0.611" stop-color="#8969c3"/><stop offset="0.755" stop-color="#9371c5"/><stop offset="1" stop-color="#b086cc"/></linearGradient><radialGradient id="aa" cx="0.452" cy="0.468" r="0.568" gradientTransform="translate(-167.015) scale(1.156 1)" gradientUnits="objectBoundingBox"><stop offset="0.379" stop-color="#fff"/><stop offset="0.468" stop-color="#f4f2f8"/><stop offset="0.632" stop-color="#d7cfe7"/><stop offset="0.851" stop-color="#a999cc"/><stop offset="1" stop-color="#8770b8"/></radialGradient><linearGradient id="ab" x1="-78.11" y1="0.108" x2="-78.901" y2="0.892" gradientUnits="objectBoundingBox"><stop offset="0" stop-color="#fff"/><stop offset="0.308" stop-color="#e8ddf0"/><stop offset="0.984" stop-color="#b188cc"/><stop offset="1" stop-color="#b086cc"/></linearGradient><linearGradient id="ac" x1="-79.073" y1="0.108" x2="-79.864" y2="0.892" xlink:href="#ab"/><linearGradient id="ad" x1="-80.059" y1="0.108" x2="-80.85" y2="0.892" xlink:href="#ab"/><linearGradient id="ae" x1="-81.07" y1="0.108" x2="-81.862" y2="0.892" xlink:href="#ab"/><linearGradient id="af" x1="-82.105" y1="0.108" x2="-82.896" y2="0.892" xlink:href="#ab"/><linearGradient id="ag" x1="-83.169" y1="0.108" x2="-83.96" y2="0.892" xlink:href="#ab"/><linearGradient id="ah" x1="-84.258" y1="0.108" x2="-85.049" y2="0.892" xlink:href="#ab"/><linearGradient id="ai" x1="-85.377" y1="0.108" x2="-86.168" y2="0.892" xlink:href="#ab"/><linearGradient id="aj" x1="-86.524" y1="0.108" x2="-87.316" y2="0.892" xlink:href="#ab"/><linearGradient id="ak" x1="-87.707" y1="0.108" x2="-88.498" y2="0.892" xlink:href="#ab"/><linearGradient id="al" x1="-88.917" y1="0.108" x2="-89.708" y2="0.892" xlink:href="#ab"/><linearGradient id="am" x1="-90.162" y1="0.108" x2="-90.954" y2="0.892" xlink:href="#ab"/><linearGradient id="an" x1="-90.33" y1="0.108" x2="-91.122" y2="0.892" gradientUnits="objectBoundingBox"><stop offset="0.187" stop-color="#3d065f"/><stop offset="0.934" stop-color="#3d065f"/></linearGradient><linearGradient id="ao" x1="-92.736" y1="0.108" x2="-93.527" y2="0.892" xlink:href="#an"/><linearGradient id="ap" x1="-95.277" y1="0.108" x2="-96.069" y2="0.892" xlink:href="#an"/><linearGradient id="aq" x1="-97.953" y1="0.108" x2="-98.745" y2="0.892" xlink:href="#an"/><linearGradient id="ar" x1="-100.786" y1="0.108" x2="-101.578" y2="0.892" xlink:href="#an"/><linearGradient id="as" x1="-103.788" y1="0.108" x2="-104.579" y2="0.892" xlink:href="#an"/><linearGradient id="at" x1="-106.968" y1="0.108" x2="-107.76" y2="0.892" xlink:href="#an"/><linearGradient id="au" x1="-110.355" y1="0.108" x2="-111.146" y2="0.892" xlink:href="#an"/><linearGradient id="av" x1="-113.956" y1="0.108" x2="-114.747" y2="0.892" xlink:href="#an"/><linearGradient id="aw" x1="-117.794" y1="0.108" x2="-118.585" y2="0.892" xlink:href="#an"/><linearGradient id="ax" x1="-121.909" y1="0.108" x2="-122.7" y2="0.892" xlink:href="#an"/><linearGradient id="ay" x1="-126.311" y1="0.108" x2="-127.102" y2="0.892" xlink:href="#an"/><radialGradient id="az" cx="0.37" cy="0.359" r="0.707" gradientTransform="translate(-131.559)" gradientUnits="objectBoundingBox"><stop offset="0.01" stop-color="#fff"/><stop offset="0.162" stop-color="#e6d6f0"/><stop offset="0.285" stop-color="#d6bde6"/><stop offset="0.359" stop-color="#d1b4e3"/><stop offset="0.477" stop-color="#c3a4db"/><stop offset="0.706" stop-color="#a07bc9"/><stop offset="0.717" stop-color="#9f79c8"/><stop offset="0.811" stop-color="#a27bc8"/><stop offset="0.898" stop-color="#ad84cb"/><stop offset="0.909" stop-color="#b086cc"/><stop offset="0.957" stop-color="#ad83cb"/><stop offset="0.988" stop-color="#a47dc9"/><stop offset="1" stop-color="#9f79c8"/></radialGradient><linearGradient id="ba" x1="-123.449" y1="0.5" x2="-124.449" y2="0.5" gradientUnits="objectBoundingBox"><stop offset="0" stop-color="#45108a"/><stop offset="0.02" stop-color="#5351fb"/><stop offset="0.293" stop-color="#5351fb"/><stop offset="1" stop-color="#5351fb"/><stop offset="1" stop-color="#10054d"/></linearGradient><radialGradient id="bb" cx="0.336" cy="0.263" r="0.734" gradientTransform="translate(-572.043)" gradientUnits="objectBoundingBox"><stop offset="0.04" stop-color="#6115a3"/><stop offset="0.098" stop-color="#5a1399"/><stop offset="0.515" stop-color="#2b0658"/><stop offset="1" stop-color="#12054e"/><stop offset="1" stop-color="#10054d"/></radialGradient><linearGradient id="bc" x1="-307.136" y1="0.469" x2="-308.714" y2="0.575" xlink:href="#x"/><radialGradient id="bd" cx="0.074" cy="0.362" r="0.607" gradientTransform="translate(-871.54) scale(1.835 1)" xlink:href="#aa"/><radialGradient id="be" cx="0.384" cy="0.341" r="0.167" gradientTransform="matrix(2.843, 0.459, -3.838, 2.318, -4204.046, -582.083)" gradientUnits="objectBoundingBox"><stop offset="0" stop-color="#972a74"/><stop offset="0.041" stop-color="#8a266a"/><stop offset="0.194" stop-color="#601a49"/><stop offset="0.35" stop-color="#3d112f"/><stop offset="0.507" stop-color="#22091a"/><stop offset="0.667" stop-color="#0f040b"/><stop offset="0.829" stop-color="#030102"/><stop offset="1"/></radialGradient><radialGradient id="bf" cx="0.809" cy="0.358" r="0.182" gradientTransform="matrix(2.031, 0.384, -2.204, 2.41, -1938.585, -285.911)" gradientUnits="objectBoundingBox"><stop offset="0" stop-color="#481437"/><stop offset="0.075" stop-color="#3d112e"/><stop offset="0.298" stop-color="#22091a"/><stop offset="0.525" stop-color="#0f040b"/><stop offset="0.757" stop-color="#030102"/><stop offset="1"/></radialGradient><linearGradient id="bg" x1="-219.708" y1="0.5" x2="-220.692" y2="0.5" xlink:href="#x"/><linearGradient id="bh" x1="-219.807" y1="0.108" x2="-220.599" y2="0.892" gradientUnits="objectBoundingBox"><stop offset="0.076" stop-color="#fff"/><stop offset="0.213" stop-color="#f8f5fa"/><stop offset="0.444" stop-color="#e7dbef"/><stop offset="0.738" stop-color="#ccb1de"/><stop offset="1" stop-color="#b086cc"/></linearGradient><linearGradient id="bi" x1="-1475.369" y1="0.5" x2="-1476.354" y2="0.5" xlink:href="#x"/><radialGradient id="bj" cx="0.381" cy="0.405" r="0.667" gradientTransform="translate(-992.814)" xlink:href="#az"/><radialGradient id="bk" cx="0.424" cy="0.399" r="0.579" gradientTransform="translate(-207.521)" xlink:href="#be"/><radialGradient id="bl" cx="0.5" cy="0.5" r="0.5" gradientTransform="translate(-465.971)" gradientUnits="objectBoundingBox"><stop offset="0" stop-color="#43e8e1"/><stop offset="0.137" stop-color="#34b5af"/><stop offset="0.303" stop-color="#247e7a"/><stop offset="0.465" stop-color="#17514e"/><stop offset="0.619" stop-color="#0d2d2c"/><stop offset="0.764" stop-color="#051413"/><stop offset="0.895" stop-color="#010505"/><stop offset="1"/></radialGradient><radialGradient id="bm" cx="0.5" r="0.5" gradientTransform="translate(-469.101)" xlink:href="#bl"/><radialGradient id="bn" cx="0.305" cy="0.529" r="0.111" gradientTransform="matrix(2.681, -0.242, 2.93, 4.261, -2531.202, 131.786)" gradientUnits="objectBoundingBox"><stop offset="0" stop-color="#972a74"/><stop offset="0.023" stop-color="#8c276b"/><stop offset="0.114" stop-color="#671c4f"/><stop offset="0.212" stop-color="#471336"/><stop offset="0.318" stop-color="#2d0c22"/><stop offset="0.434" stop-color="#180613"/><stop offset="0.566" stop-color="#0a0308"/><stop offset="0.727" stop-color="#020001"/><stop offset="1"/></radialGradient><linearGradient id="bo" x1="-24.575" y1="-74.687" x2="-25.429" y2="-74.687" xlink:href="#w"/><linearGradient id="bp" x1="-36.525" y1="0.612" x2="-36.73" y2="0.354" gradientUnits="objectBoundingBox"><stop offset="0" stop-color="#5351fb"/><stop offset="0.094" stop-color="#5351fb"/><stop offset="0.218" stop-color="#5351fb"/><stop offset="0.344" stop-color="#1b605d"/><stop offset="0.471" stop-color="#113d3b"/><stop offset="0.599" stop-color="#092221"/><stop offset="0.729" stop-color="#040f0e"/><stop offset="0.861" stop-color="#010303"/><stop offset="1"/></linearGradient><linearGradient id="bq" x1="-40.534" y1="-0.022" x2="-41.43" y2="0.995" gradientUnits="objectBoundingBox"><stop offset="0" stop-color="#5351fb"/><stop offset="0.239" stop-color="#4cc4de"/><stop offset="0.446" stop-color="#5351fb"/><stop offset="0.64" stop-color="#43e0de"/><stop offset="0.652" stop-color="#43e2de"/><stop offset="0.771" stop-color="#3cabc7"/><stop offset="0.838" stop-color="#3a91bd"/><stop offset="0.88" stop-color="#3a95be"/><stop offset="1" stop-color="#3ca0c3"/></linearGradient><linearGradient id="br" x1="-47.09" y1="-22.165" x2="-50.591" y2="-22.955" gradientUnits="objectBoundingBox"><stop offset="0" stop-color="#5351fb"/><stop offset="0.035" stop-color="#138bbd"/><stop offset="0.226" stop-color="#169ac6"/><stop offset="0.595" stop-color="#1ec2df"/><stop offset="1" stop-color="#2af6ff"/></linearGradient><radialGradient id="bs" cx="1.021" cy="0.361" r="0.506" gradientTransform="translate(-88.067) scale(1.007 1)" xlink:href="#d"/><radialGradient id="bt" cx="0.5" cy="0.5" r="0.299" gradientTransform="matrix(1.355, -0.38, 0.979, 1.627, -2491.809, 322.882)" xlink:href="#be"/><radialGradient id="bu" cx="0.5" cy="0.5" r="0.374" gradientTransform="matrix(1.29, 0.196, -0.347, 1.321, -76.661, -6.278)" gradientUnits="objectBoundingBox"><stop offset="0" stop-color="#1bb0d4"/><stop offset="0.239" stop-color="#1589a5"/><stop offset="0.78" stop-color="#062831"/><stop offset="1"/></radialGradient><linearGradient id="bv" x1="-99.497" y1="0.553" x2="-99.852" y2="1.372" gradientUnits="objectBoundingBox"><stop offset="0.056" stop-color="#200041"/><stop offset="0.181" stop-color="#210143"/><stop offset="0.243" stop-color="#25084a"/><stop offset="0.291" stop-color="#2c1357"/><stop offset="0.313" stop-color="#311b61"/><stop offset="0.346" stop-color="#331d65"/><stop offset="0.382" stop-color="#3a2572"/><stop offset="0.419" stop-color="#453288"/><stop offset="0.457" stop-color="#5444a6"/><stop offset="0.496" stop-color="#685bcd"/><stop offset="0.53" stop-color="#7e74f7"/><stop offset="0.542" stop-color="#6f62d9"/><stop offset="0.561" stop-color="#5849ae"/><stop offset="0.579" stop-color="#47358c"/><stop offset="0.597" stop-color="#3b2674"/><stop offset="0.613" stop-color="#331d66"/><stop offset="0.626" stop-color="#311b61"/><stop offset="0.672" stop-color="#2a1054"/><stop offset="0.749" stop-color="#220446"/><stop offset="0.813" stop-color="#200041"/><stop offset="1" stop-color="#200041"/></linearGradient><radialGradient id="bw" cx="0.973" cy="0.242" r="0.357" gradientTransform="matrix(0.746, 0.026, -0.02, 1.022, -180.397, -2.751)" gradientUnits="objectBoundingBox"><stop offset="0" stop-color="#af8afc"/><stop offset="1" stop-color="#10054d"/></radialGradient><linearGradient id="bx" x1="-102.383" y1="0.722" x2="-100.474" y2="-0.078" xlink:href="#an"/><linearGradient id="by" x1="-106.43" y1="1.255" x2="-105.889" y2="-0.299" gradientUnits="objectBoundingBox"><stop offset="0" stop-color="#311b61"/><stop offset="0.203" stop-color="#290e52"/><stop offset="0.495" stop-color="#200041"/><stop offset="1" stop-color="#0f001f"/></linearGradient><linearGradient id="bz" x1="-112.93" y1="0.499" x2="-112.85" y2="0.684" gradientUnits="objectBoundingBox"><stop offset="0.121" stop-color="#4916a1"/><stop offset="0.669" stop-color="#442276"/><stop offset="1" stop-color="#432962"/></linearGradient><linearGradient id="ca" x1="-56.713" y1="-0.915" x2="-57.289" y2="-0.276" gradientUnits="objectBoundingBox"><stop offset="0.056" stop-color="#200041"/><stop offset="0.258" stop-color="#210143"/><stop offset="0.357" stop-color="#25084a"/><stop offset="0.434" stop-color="#2c1357"/><stop offset="0.47" stop-color="#311b61"/><stop offset="0.482" stop-color="#351f65"/><stop offset="0.495" stop-color="#422c72"/><stop offset="0.509" stop-color="#574188"/><stop offset="0.523" stop-color="#755fa6"/><stop offset="0.53" stop-color="#8770b8"/><stop offset="0.537" stop-color="#7d66ae"/><stop offset="0.562" stop-color="#5c458c"/><stop offset="0.586" stop-color="#442e74"/><stop offset="0.608" stop-color="#351f66"/><stop offset="0.626" stop-color="#311b61"/><stop offset="0.672" stop-color="#2a1054"/><stop offset="0.749" stop-color="#220446"/><stop offset="0.813" stop-color="#200041"/><stop offset="1" stop-color="#200041"/></linearGradient><radialGradient id="cb" cx="1.282" cy="0.288" r="0.804" gradientTransform="matrix(3.307, 0.023, -0.067, 0.897, -573.94, -3.099)" gradientUnits="objectBoundingBox"><stop offset="0" stop-color="#711f56"/><stop offset="0.161" stop-color="#6b1d51"/><stop offset="0.363" stop-color="#5c1946"/><stop offset="0.585" stop-color="#421232"/><stop offset="0.821" stop-color="#1f0818"/><stop offset="1"/></radialGradient><radialGradient id="cc" cx="0.994" cy="0.224" r="0.449" gradientTransform="matrix(1.545, 0.023, -0.031, 0.897, -149.154, -1.417)" xlink:href="#bw"/><linearGradient id="cd" x1="-57.425" y1="-0.339" x2="-55.667" y2="-0.695" xlink:href="#an"/><linearGradient id="ce" x1="-58.867" y1="0.094" x2="-57.952" y2="-1.151" xlink:href="#by"/><linearGradient id="cf" x1="-60.463" y1="-0.456" x2="-61.059" y2="-0.456" xlink:href="#by"/><linearGradient id="cg" x1="-61.413" y1="-0.923" x2="-62.336" y2="0.2" gradientUnits="objectBoundingBox"><stop offset="0" stop-color="#eaeaee"/><stop offset="0.01" stop-color="#9f19ab"/><stop offset="0.429" stop-color="#5f27bd"/><stop offset="0.904" stop-color="#3d065f"/><stop offset="1" stop-color="#3d065f"/></linearGradient><linearGradient id="ch" x1="-302.689" y1="300.41" x2="-304.176" y2="300.41" xlink:href="#by"/><linearGradient id="ci" x1="-963.547" y1="-13.437" x2="-962.404" y2="-13.466" gradientUnits="objectBoundingBox"><stop offset="0" stop-color="#3d065f"/><stop offset="1" stop-color="#5f27bd"/></linearGradient><radialGradient id="cj" cx="0.514" cy="0.246" r="0.433" gradientTransform="matrix(1.703, 0.023, -0.035, 0.897, -2619.391, -23.336)" xlink:href="#cb"/><linearGradient id="ck" x1="-763.028" y1="2.391" x2="-759.894" y2="-0.706" gradientUnits="objectBoundingBox"><stop offset="0.035" stop-color="#138bbd"/><stop offset="0.226" stop-color="#169ac6"/><stop offset="0.595" stop-color="#1ec2df"/><stop offset="1" stop-color="#2af6ff"/></linearGradient><radialGradient id="cl" cx="0.5" cy="0.5" r="0.436" gradientTransform="matrix(1.029, 0.385, -0.502, 1.078, -527.589, -99.661)" xlink:href="#be"/><radialGradient id="cm" cx="0.5" cy="0.5" r="0.402" gradientTransform="matrix(1.101, -0.38, 0.579, 1.184, -1090.952, 175.563)" xlink:href="#be"/></defs><g transform="translate(0 -30)"><g transform="translate(52.603 221.548)"><path class="a" d="M1199.66,221.119,987.99,98.668,953.609,118.8a27.173,27.173,0,0,0-13.3,23.362v37.783a41.964,41.964,0,0,0,20.966,36.334l184.47,106.51a13.782,13.782,0,0,0,13.9-.062l40.009-23.266Z" transform="translate(-940.215 -98.668)"/><path class="b" d="M1162.822,308,976.457,200.636c-10.167-5.87-18.408-21.613-18.408-35.169V124.1c0-6.877-6.716-7.013-3.3-9.5.279-.2,9.41-5.243,9.7-5.412,3.222-1.838,7.417-1.651,12,1l186.365,107.36c10.163,5.868,18.4,21.613,18.4,35.167v41.363c0,7.415-2.467,12.634-6.36,14.884-.128.074-9.4,5.348-9.533,5.414C1162.159,316.017,1167.248,310.551,1162.822,308Z" transform="translate(-948.842 -89.27)"/><path class="c" d="M1163.135,310.6,976.77,203.238c-10.167-5.868-18.406-21.615-18.406-35.165V126.708c0-13.555,8.239-19.782,18.406-13.912l186.365,107.36c10.161,5.868,18.406,21.615,18.406,35.167v41.363C1181.541,310.24,1173.3,316.47,1163.135,310.6Z" transform="translate(-958.364 -86.643)"/><path class="d" d="M1156.462,219.217,970.1,111.858c-5.169-2.985-9.83-2.829-13.173-.187a13.518,13.518,0,0,1,8.948,2.065L1152.235,221.1c10.165,5.868,18.408,21.615,18.408,35.169v41.361c0,6.664-2,11.546-5.233,14.1,5.637-.94,9.458-6.756,9.458-15.977V254.387C1174.869,240.83,1166.626,225.086,1156.462,219.217Z" transform="translate(-948.797 -87.583)"/><g transform="translate(23.397 56.359)"><path class="e" d="M970.065,140.811v4.449l118.675,67.909v-4.45Z" transform="translate(-912.468 -112.506)"/><path class="e" d="M1052.971,186.16l-47.454-26.935v4.452l47.454,26.937Z" transform="translate(-947.919 -93.925)"/><path class="e" d="M1066.115,192.067l-73.626-42.049v4.452l73.626,42.047Z" transform="translate(-934.891 -103.216)"/><path class="e" d="M1044.188,171.462l-29.966-16.841v4.454l29.966,16.839Z" transform="translate(-956.624 -98.571)"/><path class="e" d="M981.872,164.263v4.451l60.607,34.843v-4.45Z" transform="translate(-889.925 -88.843)"/><path class="e" d="M986.413,173.893v4.451l34,19.629v-4.451Z" transform="translate(-876.978 -79.127)"/><path class="e" d="M970.065,176.657l40.666,23.331v-4.45l-40.666-23.331Z" transform="translate(-834.459 -80.827)"/><path class="e" d="M970.065,187.317l19.34,11.165v-4.45l-19.34-11.165Z" transform="translate(-813.133 -70.072)"/><path class="e" d="M970.065,149.866l118.675,67.907v-4.45L970.065,145.414Z" transform="translate(-912.468 -107.861)"/><path class="e" d="M970.065,189.374l28.459,16.282v-4.45l-28.459-16.284Z" transform="translate(-822.252 -67.998)"/><path class="e" d="M970.065,168.281,1088.74,236.19v-4.452L970.065,163.829Z" transform="translate(-912.468 -89.281)"/><path class="e" d="M1072.778,175.764a36.892,36.892,0,0,1-7.6-9.1c-1.256-2.1-1.213-4.386.01-5.1a9.723,9.723,0,0,0,3.877-4.327c1.332.37,2.988-.123,2.988-1.951a7.214,7.214,0,0,0-1.927-4.916c-.328-7.974-3.05-16.168-12.221-21.462s-11.9-.249-12.22,7.351c-1.1-.245-1.925.832-1.925,2.7,0,1.826,1.651,4.223,2.983,5.394a43.2,43.2,0,0,0,3.879,8.805c1.223,2.123,1.268,4.458.01,5.111a10.03,10.03,0,0,1-7.6.323c-3.849-1.165-6.71,1.159-6.71,5.9v8.221a5.545,5.545,0,0,0,2.515,4.339l38.138,22.018c1.388.8,2.513.159,2.513-1.434v-8.221C1079.488,184.671,1076.627,179.044,1072.778,175.764Z" transform="translate(-1036.321 -126.721)"/></g><path class="f" d="M973.945,174.738c3.5,8.512,2.413,17.026-2.427,19.017s-11.6-3.3-15.1-11.815-2.413-17.03,2.427-19.019S970.447,166.222,973.945,174.738Z" transform="translate(-744.795 -34.26)"/></g><g transform="translate(220.832 30)"><path class="g" d="M1112.934,125.058,902.831,3.322l-30,18.256a27.174,27.174,0,0,0-13.3,23.362V82.721A41.972,41.972,0,0,0,880.5,119.057l182.908,105.795a13.789,13.789,0,0,0,13.9-.062l35.629-21.388Z" transform="translate(-859.435 -3.322)"/><path class="h" d="M1078.295,211,893.5,104.354c-10.166-5.868-18.406-21.613-18.406-35.167V27.825c0-6.879-6.718-7.015-3.3-9.5.277-.2,9.406-5.245,9.7-5.414,3.222-1.836,7.415-1.651,12,1l184.8,106.644c10.165,5.868,18.406,21.615,18.406,35.167v41.365c0,7.409-2.465,12.632-6.36,14.882-.126.074-9.4,5.348-9.531,5.414C1077.63,219.021,1082.72,213.558,1078.295,211Z" transform="translate(-865.881 5.133)"/><path class="i" d="M1078.609,213.606l-184.8-106.646c-10.163-5.868-18.4-21.615-18.4-35.167V30.429c0-13.555,8.241-19.784,18.4-13.916l184.8,106.646c10.165,5.868,18.406,21.615,18.406,35.167v41.365C1097.015,213.244,1088.774,219.474,1078.609,213.606Z" transform="translate(-875.405 7.759)"/><path class="j" d="M1071.936,122.223,887.139,15.578c-5.169-2.987-9.832-2.829-13.175-.187a13.536,13.536,0,0,1,8.948,2.061l184.8,106.646c10.165,5.868,18.406,21.615,18.406,35.167v41.365c0,6.662-2,11.544-5.231,14.1,5.639-.94,9.456-6.76,9.456-15.979V157.39C1090.343,143.835,1082.1,128.091,1071.936,122.223Z" transform="translate(-865.837 6.82)"/><g transform="translate(23.399 54.481)"><path class="e" d="M887.105,44.53V48.98l117.109,67.193v-4.451Z" transform="translate(-829.509 -16.225)"/><path class="e" d="M969.231,89.881,921.778,62.944V67.4l47.452,26.935Z" transform="translate(-864.182 2.355)"/><path class="e" d="M982.376,95.785,908.75,53.737v4.452l73.626,42.047Z" transform="translate(-851.154 -6.935)"/><path class="e" d="M960.447,75.181,930.483,58.342v4.45L960.447,79.63Z" transform="translate(-872.887 -2.289)"/><path class="e" d="M898.913,67.982v4.452l59.041,34.129v-4.451Z" transform="translate(-806.97 7.438)"/><path class="e" d="M902.675,77.612v4.452l34,19.627v-4.45Z" transform="translate(-793.243 17.154)"/><path class="e" d="M887.105,80.376l39.1,22.615V98.543l-39.1-22.617Z" transform="translate(-751.5 15.454)"/><path class="e" d="M887.105,90.683l19.338,11.165V97.4L887.105,86.23Z" transform="translate(-731.738 25.849)"/><path class="e" d="M887.105,53.586l117.109,67.191v-4.449L887.105,49.133Z" transform="translate(-829.509 -11.581)"/><path class="e" d="M887.105,93.092l26.9,15.57V104.21l-26.9-15.568Z" transform="translate(-739.295 28.284)"/><path class="e" d="M887.105,72l117.109,67.193v-4.45L887.105,67.549Z" transform="translate(-829.509 7.001)"/><path class="e" d="M989.034,79.482a36.942,36.942,0,0,1-7.6-9.1c-1.256-2.1-1.213-4.384.012-5.1a9.715,9.715,0,0,0,3.877-4.327c1.334.368,2.985-.121,2.985-1.947a7.221,7.221,0,0,0-1.923-4.918c-.327-7.976-3.052-16.168-12.223-21.466s-11.9-.245-12.221,7.351c-1.1-.241-1.925.836-1.925,2.7,0,1.826,1.651,4.223,2.984,5.394a43.555,43.555,0,0,0,3.879,8.807c1.223,2.121,1.268,4.454.012,5.109a10.031,10.031,0,0,1-7.6.325c-3.851-1.165-6.71,1.157-6.71,5.9v8.221a5.545,5.545,0,0,0,2.513,4.339l38.138,22.016c1.388.8,2.515.161,2.515-1.432V93.133C995.748,88.392,992.885,82.763,989.034,79.482Z" transform="translate(-952.581 -30.441)"/></g><path class="k" d="M890.985,78.1c3.5,8.512,2.415,17.028-2.429,19.017s-11.6-3.3-15.093-11.817-2.413-17.026,2.425-19.017S887.485,69.589,890.985,78.1Z" transform="translate(-663.4 59.783)"/></g><g transform="translate(404.496 327.055)"><g transform="translate(66.031 317.207)"><path class="l" d="M901.773,347.676c0,21.663-9.111,78.364-20.347,78.364s-20.345-56.7-20.345-78.364c0-19.067,9.109-23.662,20.345-23.662S901.773,328.609,901.773,347.676Z" transform="translate(-861.081 -324.014)"/><path class="m" d="M900.14,347.262c0,21.147-8.624,77.307-19.26,77.307s-19.258-56.161-19.258-77.307c0-18.615,8.622-23.1,19.258-23.1S900.14,328.647,900.14,347.262Z" transform="translate(-860.535 -323.864)"/><path class="n" d="M898.509,346.849c0,20.634-8.136,76.249-18.173,76.249s-18.173-55.615-18.173-76.249c0-18.161,8.136-22.537,18.173-22.537S898.509,328.688,898.509,346.849Z" transform="translate(-859.991 -323.713)"/><path class="o" d="M896.878,346.433c0,20.12-7.652,75.2-17.088,75.2s-17.086-55.076-17.086-75.2c0-17.707,7.65-21.972,17.086-21.972S896.878,328.726,896.878,346.433Z" transform="translate(-859.444 -323.563)"/><path class="p" d="M895.245,346.023c0,19.6-7.166,74.137-16,74.137s-16-54.536-16-74.137c0-17.255,7.164-21.414,16-21.414S895.245,328.768,895.245,346.023Z" transform="translate(-858.898 -323.414)"/><path class="q" d="M893.614,345.608c0,19.089-6.678,73.081-14.915,73.081s-14.915-53.991-14.915-73.081c0-16.8,6.678-20.849,14.915-20.849S893.614,328.805,893.614,345.608Z" transform="translate(-858.354 -323.262)"/><path class="r" d="M891.981,345.2c0,18.573-6.19,72.022-13.828,72.022s-13.828-53.449-13.828-72.022c0-16.349,6.19-20.289,13.828-20.289S891.981,328.847,891.981,345.2Z" transform="translate(-857.809 -323.113)"/><path class="s" d="M890.351,344.781c0,18.059-5.7,70.965-12.741,70.965s-12.743-52.906-12.743-70.965c0-15.895,5.705-19.724,12.743-19.724S890.351,328.886,890.351,344.781Z" transform="translate(-857.265 -322.962)"/><path class="t" d="M888.718,344.369c0,17.544-5.217,69.908-11.654,69.908s-11.656-52.364-11.656-69.908c0-15.441,5.219-19.164,11.656-19.164S888.718,328.928,888.718,344.369Z" transform="translate(-856.719 -322.812)"/><path class="u" d="M887.086,343.953c0,17.03-4.733,68.856-10.569,68.856s-10.569-51.826-10.569-68.856c0-14.989,4.733-18.6,10.569-18.6S887.086,328.964,887.086,343.953Z" transform="translate(-856.172 -322.662)"/><path class="v" d="M885.456,343.539c0,16.516-4.245,67.8-9.482,67.8s-9.484-51.281-9.484-67.8c0-14.535,4.247-18.036,9.484-18.036S885.456,329,885.456,343.539Z" transform="translate(-855.628 -322.512)"/><path class="w" d="M883.823,343.128c0,16-3.757,66.738-8.4,66.738s-8.4-50.741-8.4-66.738c0-14.083,3.759-17.476,8.4-17.476S883.823,329.045,883.823,343.128Z" transform="translate(-855.083 -322.361)"/></g><path class="x" d="M895.617,321.087H863.058v4.595h0c0,.042,0,.086,0,.129,0,5.237,7.286,9.482,16.281,9.482s16.279-4.245,16.279-9.482c0-.042-.006-.086-.006-.129h.006Z" transform="translate(-792.866 -9.76)"/><path class="y" d="M925.544,277.942c-2.561,11.529-15.778,51-24.656,49.025s-10.648-44.527-7.5-56.171c2.72-10.035,10.7-15.2,19.575-13.229S927.8,267.793,925.544,277.942Z" transform="translate(-881.302 -74.268)"/><path class="z" d="M895.617,325.881c0,5.237-7.288,9.48-16.279,9.48s-16.281-4.243-16.281-9.48,7.286-9.48,16.281-9.48S895.617,320.646,895.617,325.881Z" transform="translate(-792.866 -14.488)"/><path class="aa" d="M980.2,283.9c0,40.071-32.483,123.982-72.554,123.982S835.094,323.971,835.094,283.9c0-35.274,32.485-43.774,72.556-43.774S980.2,248.626,980.2,283.9Z" transform="translate(-821.274 -91.448)"/><path class="ab" d="M980.2,283.9c0,40.071-32.483,123.982-72.554,123.982S835.094,323.971,835.094,283.9c0-35.274,32.485-43.774,72.556-43.774S980.2,248.626,980.2,283.9Z" transform="translate(-821.274 -91.448)"/><g transform="translate(15.349 145.253)"><path class="ac" d="M978.081,279.884c0,22.9-31.876,41.459-71.2,41.459s-71.2-18.563-71.2-41.459,31.88-41.463,71.2-41.463S978.081,256.984,978.081,279.884Z" transform="translate(-835.683 -238.421)"/><path class="ad" d="M976.806,279.494c0,22.621-31.493,40.961-70.34,40.961s-70.342-18.34-70.342-40.961,31.493-40.965,70.342-40.965S976.806,256.869,976.806,279.494Z" transform="translate(-835.291 -238.312)"/><path class="ae" d="M975.532,279.1c0,22.348-31.109,40.465-69.482,40.465s-69.486-18.117-69.486-40.465,31.111-40.463,69.486-40.463S975.532,256.755,975.532,279.1Z" transform="translate(-834.901 -238.202)"/><path class="af" d="M974.256,278.712c0,22.071-30.725,39.963-68.625,39.963S837,300.782,837,278.712s30.725-39.965,68.629-39.965S974.256,256.639,974.256,278.712Z" transform="translate(-834.51 -238.092)"/><path class="ag" d="M972.983,278.32c0,21.8-30.343,39.464-67.771,39.464s-67.771-17.669-67.771-39.464,30.342-39.464,67.771-39.464S972.983,256.523,972.983,278.32Z" transform="translate(-834.119 -237.982)"/><path class="ah" d="M971.709,277.93c0,21.518-29.958,38.966-66.913,38.966s-66.913-17.448-66.913-38.966,29.958-38.966,66.913-38.966S971.709,256.408,971.709,277.93Z" transform="translate(-833.73 -237.873)"/><ellipse class="ai" cx="66.057" cy="38.467" rx="66.057" ry="38.467" transform="translate(4.982 1.309)"/><ellipse class="aj" cx="65.199" cy="37.968" rx="65.199" ry="37.968" transform="translate(5.812 1.526)"/><path class="ak" d="M967.889,276.758c0,20.692-28.807,37.469-64.343,37.469S839.2,297.451,839.2,276.758s28.808-37.469,64.343-37.469S967.889,256.066,967.889,276.758Z" transform="translate(-832.56 -237.545)"/><path class="al" d="M966.612,276.369c0,20.415-28.421,36.967-63.484,36.967s-63.486-16.552-63.486-36.967S868.066,239.4,903.129,239.4,966.612,255.95,966.612,276.369Z" transform="translate(-832.169 -237.435)"/><path class="am" d="M965.34,275.976c0,20.144-28.039,36.471-62.63,36.471s-62.628-16.327-62.628-36.471,28.039-36.469,62.628-36.469S965.34,255.836,965.34,275.976Z" transform="translate(-831.779 -237.325)"/><path class="an" d="M964.066,275.586c0,19.867-27.656,35.973-61.774,35.973s-61.77-16.106-61.77-35.973,27.656-35.971,61.77-35.971S964.066,255.721,964.066,275.586Z" transform="translate(-831.389 -237.216)"/></g><g transform="translate(32.863 139.722)"><path class="ao" d="M959.872,271.625c0,19.861-27.647,35.959-61.75,35.959s-61.75-16.1-61.75-35.959,27.645-35.957,61.75-35.957S959.872,251.768,959.872,271.625Z" transform="translate(-836.372 -235.668)"/><path class="ap" d="M957.555,271.213c0,19.348-26.938,35.033-60.163,35.033s-60.161-15.684-60.161-35.033,26.934-35.032,60.161-35.032S957.555,251.865,957.555,271.213Z" transform="translate(-835.781 -235.15)"/><path class="aq" d="M955.233,270.8c0,18.838-26.223,34.106-58.572,34.106s-58.57-15.268-58.57-34.106,26.221-34.108,58.57-34.108S955.233,251.966,955.233,270.8Z" transform="translate(-835.189 -234.633)"/><path class="ar" d="M952.918,270.389c0,18.328-25.512,33.182-56.983,33.182s-56.985-14.854-56.985-33.182,25.512-33.182,56.985-33.182S952.918,252.065,952.918,270.389Z" transform="translate(-834.6 -234.115)"/><path class="as" d="M950.6,269.975c0,17.818-24.8,32.258-55.4,32.258s-55.393-14.441-55.393-32.258,24.8-32.254,55.393-32.254S950.6,252.162,950.6,269.975Z" transform="translate(-834.009 -233.597)"/><ellipse class="at" cx="53.805" cy="31.331" rx="53.805" ry="31.331" transform="translate(7.254 5.154)"/><path class="au" d="M945.964,269.153c0,16.793-23.378,30.408-52.217,30.408s-52.217-13.615-52.217-30.408,23.378-30.406,52.217-30.406S945.964,252.36,945.964,269.153Z" transform="translate(-832.827 -232.561)"/><ellipse class="av" cx="50.627" cy="29.481" rx="50.627" ry="29.481" transform="translate(10.155 7.216)"/><path class="aw" d="M941.326,268.329c0,15.772-21.954,28.556-49.039,28.556S843.25,284.1,843.25,268.329s21.954-28.556,49.037-28.556S941.326,252.558,941.326,268.329Z" transform="translate(-831.644 -231.526)"/><path class="ax" d="M939.011,267.915c0,15.262-21.245,27.631-47.452,27.631s-47.45-12.369-47.45-27.631,21.245-27.629,47.45-27.629S939.011,252.655,939.011,267.915Z" transform="translate(-831.055 -231.009)"/><path class="ay" d="M936.69,267.5c0,14.752-20.53,26.707-45.861,26.707S844.97,282.255,844.97,267.5s20.532-26.7,45.859-26.7S936.69,252.755,936.69,267.5Z" transform="translate(-830.463 -230.49)"/><path class="az" d="M934.373,267.093c0,14.238-19.819,25.781-44.272,25.781s-44.272-11.544-44.272-25.781,19.821-25.781,44.272-25.781S934.373,252.856,934.373,267.093Z" transform="translate(-829.872 -229.973)"/></g><path class="ba" d="M998.98,267.925A85.183,85.183,0,1,1,913.8,182.742,85.183,85.183,0,0,1,998.98,267.925Z" transform="translate(-827.034 -149.347)"/><path class="bb" d="M872.812,253.765h0a115.575,115.575,0,0,0,70.565,40.491h0a12.239,12.239,0,0,0,14.2-12.08V259.959A22.527,22.527,0,0,0,941.6,238.4h0a125.1,125.1,0,0,1-52.826-31.953h0a7.358,7.358,0,0,0-11.733,1.639,83.221,83.221,0,0,0-9.11,29.387A21.716,21.716,0,0,0,872.812,253.765Z" transform="translate(-864.344 -127.656)"/><path class="bc" d="M911.718,229.677c0,4.028-2.847,5.651-6.354,3.626a14.014,14.014,0,0,1-6.356-10.963c0-4.028,2.847-5.649,6.356-3.622A14.007,14.007,0,0,1,911.718,229.677Z" transform="translate(-881.187 -113.929)"/><path class="bc" d="M893.512,240.2c0,4.03-2.845,5.653-6.354,3.624a13.99,13.99,0,0,1-6.354-10.959c0-4.026,2.843-5.649,6.354-3.624A14,14,0,0,1,893.512,240.2Z" transform="translate(-826.41 -103.31)"/><path class="bd" d="M875.786,294.69a19.821,19.821,0,1,1-19.824-19.823A19.824,19.824,0,0,1,875.786,294.69Z" transform="translate(-718.963 -56.395)"/><path class="be" d="M873.427,300.062c-2.515,14.907-23.453,47.663-32.33,45.69s-.959-42.319,1.6-53.847c2.256-10.149,10.7-15.2,19.575-13.231S875.156,289.81,873.427,300.062Z" transform="translate(-718.711 -52.978)"/><path class="bf" d="M873.427,300.062c-2.515,14.907-23.453,47.663-32.33,45.69s-.959-42.319,1.6-53.847c2.256-10.149,10.7-15.2,19.575-13.231S875.156,289.81,873.427,300.062Z" transform="translate(-718.711 -52.978)"/><path class="bg" d="M862.655,294.83c-.866,11.781-14.579,44.933-17.422,44.722s1.866-30.121,3.486-42.785c1.318-10.314,4.472-15.545,7.178-16.433C863.625,277.8,863.42,284.462,862.655,294.83Z" transform="translate(-722.655 -51.425)"/><path class="bh" d="M862.142,298.584c-3.64,17.44-21.6,40.615-24.395,40.073s13.163-23.911,16.263-36.3c2.523-10.087.11-20.345,2.9-20.907C864.886,279.84,864.261,288.4,862.142,298.584Z" transform="translate(-709.263 -49.949)"/><g transform="translate(60.961)"><path class="bi" d="M909.461,188.728H858.487v3.709h.01c0,.068-.01.139-.01.207,0,8.195,11.409,14.838,25.488,14.838s25.486-6.644,25.486-14.838c0-.068-.006-.139-.008-.207h.008Z" transform="translate(-858.487 -143.307)"/><path class="bj" d="M909.461,196.233c0,8.2-11.411,14.842-25.486,14.842s-25.488-6.646-25.488-14.842,11.409-14.84,25.488-14.84S909.461,188.037,909.461,196.233Z" transform="translate(-858.487 -150.708)"/><path class="bk" d="M876.9,171.274h-7.62V204.84h0l0,.032c0,1.223,1.7,2.218,3.811,2.218s3.809-.994,3.809-2.218v-.032h0Z" transform="translate(-847.6 -160.918)"/><path class="bl" d="M888.187,177.444a11.326,11.326,0,1,1-11.325-11.325A11.324,11.324,0,0,1,888.187,177.444Z" transform="translate(-851.375 -166.119)"/></g><path class="bm" d="M960.831,240.174a53.966,53.966,0,1,1-53.965-53.963A53.967,53.967,0,0,1,960.831,240.174Z" transform="translate(-837.671 -145.847)"/><path class="bn" d="M938.185,233.617a23.875,23.875,0,1,1-23.877-23.875A23.88,23.88,0,0,1,938.185,233.617Z" transform="translate(-890.436 -122.104)"/><path class="bo" d="M919.653,244.545a23.874,23.874,0,1,1-23.875-23.873A23.875,23.875,0,0,1,919.653,244.545Z" transform="translate(-834.678 -111.076)"/><path class="bp" d="M908.006,312.382c9.675,38.884,29.731,83.666,24.968,85.827-8.388,3.805-41.387-40.167-51.064-79.051-8.52-34.231-4.486-74.483,4.372-76.687S899.488,278.152,908.006,312.382Z" transform="translate(-859.375 -89.173)"/><path class="bq" d="M896.336,256.344l-6.119-10.559c-1.213-2.089.058-3.666,1.673-2.075l8.375,8.243a13.949,13.949,0,0,0,7.045,4.07l8.373,1.426c1.617.271,2.887,3.317,1.673,4.01l-6.119,3.49C907.124,267.295,900.448,263.441,896.336,256.344Z" transform="translate(-868.683 -88.488)"/></g><g transform="translate(31.131 58.126)"><path class="br" d="M1188.207,139.807,976.738,17.322,949.9,33.233a27.168,27.168,0,0,0-13.3,23.362V94.378a41.974,41.974,0,0,0,20.966,36.334l184.273,106.542c4.3,2.489,46.393,51.773,50.678,49.248l32.469-19.043Z" transform="translate(-936.593 -17.322)"/><path class="bs" d="M1207.423,275.712,1176.23,205V165.88c0-11.662-8.241-25.878-18.406-31.746L973.044,27.238c-5.083-2.937-9.684-3.228-13.016-1.33-.3.171-9.205,5.163-9.479,5.37-2.823,2.083,4.088,1.141,4.088,6.453V85.937c0,11.662,8.239,25.876,18.406,31.746L1152.1,221.273l46.51,59.506Z" transform="translate(-945.714 -9.869)"/><path class="bt" d="M1207.043,278.236l-31.191-70.71V168.4c0-11.666-8.243-25.88-18.406-31.748l-184.78-106.9c-10.165-5.87-18.406-1.171-18.406,10.493v48.2c0,11.666,8.241,25.88,18.406,31.748L1151.72,223.795Z" transform="translate(-954.149 -7.326)"/><path class="bu" d="M963.914,31.473l184.779,106.9c10.165,5.87,18.406,20.082,18.406,31.746v39.127l26.6,60.305,8.347,8.213-31.193-70.71V167.927c0-11.662-8.241-25.88-18.406-31.744L967.673,29.283c-6.087-3.514-11.467-3.214-14.816.074C955.936,28.468,959.757,29.075,963.914,31.473Z" transform="translate(-946.338 -7.791)"/><path class="e" d="M1094.052,95.687c0,13.89-9.808,19.485-21.914,12.5s-21.914-23.911-21.914-37.8c0-12.136,7.5-17.94,17.464-14.543v-3l2.967,1.716V46.284a8.3,8.3,0,0,1-2.266-5.257c0-2.377,1.682-3.335,3.749-2.138a8.259,8.259,0,0,1,3.747,6.467c0,1.77-.932,2.75-2.264,2.64v8.271l2.967,1.712v3C1086.556,69.092,1094.052,83.551,1094.052,95.687Zm-5.109.084V89.76c0-2.383-1.882-5.274-3.928-6.023a95.231,95.231,0,0,1-25.755-14.868c-2.045-1.613-3.927-.9-3.927,1.487v5.718a11.034,11.034,0,0,0,4.052,7.917,94.949,94.949,0,0,0,25.759,14.83C1087.348,99.622,1088.943,98.345,1088.943,95.771Zm-22.083-14.6c0,1.686-1.191,2.363-2.66,1.515a5.86,5.86,0,0,1-2.658-4.586c0-1.684,1.189-2.363,2.658-1.513A5.853,5.853,0,0,1,1066.86,81.172Zm15.875,9.165c0,1.684-1.191,2.361-2.66,1.515a5.864,5.864,0,0,1-2.66-4.584c0-1.686,1.193-2.365,2.66-1.517A5.862,5.862,0,0,1,1082.735,90.337Z" transform="translate(-1033.947 3.918)"/><path class="e" d="M982.222,54.956v4.451l122.071,69.89v-4.453Z" transform="translate(-907.573 20.65)"/><path class="e" d="M1068.625,102.254l-51.052-28.883v4.453l51.052,28.881Z" transform="translate(-942.924 39.23)"/><path class="e" d="M1081.77,108.159l-77.226-44v4.451l77.226,43.993Z" transform="translate(-929.895 29.941)"/><path class="e" d="M1059.841,87.555l-33.564-18.787v4.451L1059.841,92Z" transform="translate(-951.629 34.585)"/><path class="e" d="M994.028,79.378v4.452l60.407,34.878v-4.451Z" transform="translate(-881.435 45.291)"/><path class="e" d="M998.468,89.008v4.45l34,19.631v-4.452Z" transform="translate(-868.384 55.007)"/><path class="e" d="M982.222,91.774l40.464,23.364v-4.451L982.222,87.322Z" transform="translate(-825.966 53.307)"/><path class="e" d="M982.222,102.452l19.336,11.163v-4.451L982.222,98Z" transform="translate(-804.839 64.078)"/><path class="e" d="M982.222,64.013,1104.292,133.9V129.45L982.222,59.56Z" transform="translate(-907.573 25.295)"/><path class="e" d="M982.222,104.491l28.259,16.315v-4.449l-28.259-16.319Z" transform="translate(-813.761 66.136)"/><path class="e" d="M982.222,82.427l122.071,69.886v-4.449L982.222,77.976Z" transform="translate(-907.573 43.876)"/><path class="bv" d="M984.623,93.175c3.5,8.516,2.411,17.03-2.427,19.017s-11.6-3.3-15.1-11.813-2.413-17.03,2.425-19.019S981.126,84.663,984.623,93.175Z" transform="translate(-755.456 46.869)"/></g><g transform="translate(0 409.007)"><path class="bw" d="M1220.789,419.124C1201.573,515.5,1128,582.06,1056.463,567.8S942.511,463.84,961.731,367.464s92.785-162.934,164.322-148.672S1240.006,322.748,1220.789,419.124Z" transform="translate(-957.104 -216.867)"/><g class="bx" transform="translate(40.975 246.808)"><path class="by" d="M1100.407,428.31a15.241,15.241,0,0,1-7.6-1.834l-46.184-26.281-46.183-26.281a8.051,8.051,0,0,1-4.363-6.951c0-3.088,1.915-5.963,5.258-7.889l30.221-17.006a18.758,18.758,0,0,1,9.235-2.347,15.249,15.249,0,0,1,7.606,1.832l46.182,26.281,46.18,26.281a8.048,8.048,0,0,1,4.365,6.951c0,3.086-1.917,5.965-5.255,7.889l-30.225,17A18.7,18.7,0,0,1,1100.407,428.31Z" transform="translate(-996.073 -339.72)"/><path class="bz" d="M1002.638,358.421l8.2-4.57c.333-.191,15.714-8.584,16-8.418l5.281-2.592c2.383-1.374,5.886-1.832,8.916-1.832a15.659,15.659,0,0,1,7.343,1.913l37.011,21.084,7.847,4.47,44.873,25.56a9.581,9.581,0,0,1,3.472,3.367,7.148,7.148,0,0,1,.93,3.263c.088,2.967-1.738,5.778-5.019,7.668l-8.194,4.572c-.333.193-15.714,8.582-16,8.414l-5.286,2.594c-2.383,1.378-5.884,1.836-8.918,1.836a15.658,15.658,0,0,1-7.339-1.915l-37.013-21.082-7.847-4.47-44.874-25.56a9.582,9.582,0,0,1-3.47-3.371,7.071,7.071,0,0,1-.93-3.261C997.529,363.126,999.355,360.315,1002.638,358.421Z" transform="translate(-996.563 -338.419)"/><path class="ca" d="M1003.949,357.77l7.976-4.406c.667-.386,15.067-7.962,15.646-7.628l5.119-2.122c2.144-1.236,5.87-1.316,8.6-1.316a16.208,16.208,0,0,1,7.079,1.993l35.925,20.486,7.612,4.339,43.563,24.839a10.391,10.391,0,0,1,3.423,3.2,7.012,7.012,0,0,1,1.017,3.106c.169,2.845-1.563,5.593-4.783,7.449l-7.975,4.408c-.667.386-15.066,7.96-15.642,7.626l-5.127,2.119c-2.142,1.24-5.868,1.322-8.6,1.322a16.172,16.172,0,0,1-7.078-1.995l-35.926-20.484-7.612-4.341L1003.6,371.532a10.412,10.412,0,0,1-3.421-3.206,6.993,6.993,0,0,1-1.016-3.1C998.995,362.375,1000.722,359.63,1003.949,357.77Z" transform="translate(-997.056 -337.118)"/><path class="cb" d="M1005.262,357.136l7.757-4.239c1-.579,14.414-7.339,15.284-6.839l4.958-1.649c1.906-1.1,5.858-.8,8.283-.8a16.975,16.975,0,0,1,6.813,2.073l34.842,19.889,7.377,4.209,42.251,24.118a11.492,11.492,0,0,1,3.377,3.04,6.92,6.92,0,0,1,1.1,2.951c.255,2.724-1.384,5.4-4.549,7.226L1125,411.357c-1,.577-14.416,7.335-15.284,6.833l-4.962,1.649c-1.907,1.1-5.854.808-8.281.808a16.965,16.965,0,0,1-6.814-2.075l-34.84-19.885-7.377-4.213-42.255-24.118a11.479,11.479,0,0,1-3.375-3.04,6.876,6.876,0,0,1-1.1-2.947C1000.457,361.643,1002.1,358.965,1005.262,357.136Z" transform="translate(-997.552 -335.835)"/><path class="cc" d="M1006.581,356.583l7.534-4.076c1.336-.771,13.77-6.716,14.927-6.049l4.8-1.177c1.67-.96,5.844-.289,7.966-.289,1.844,0,5.227,1.392,6.549,2.154l33.755,19.29,7.142,4.08,40.943,23.4a12.938,12.938,0,0,1,3.327,2.875,6.875,6.875,0,0,1,1.183,2.794c.342,2.606-1.205,5.213-4.311,7.007l-7.534,4.078c-1.334.771-13.765,6.712-14.922,6.045l-4.8,1.177c-1.665.966-5.838.293-7.962.293-1.842,0-5.227-1.392-6.551-2.156l-33.753-19.286-7.142-4.084-40.945-23.395a12.878,12.878,0,0,1-3.327-2.879,6.85,6.85,0,0,1-1.185-2.786C1001.924,360.989,1003.473,358.377,1006.581,356.583Z" transform="translate(-998.053 -334.631)"/><path class="cd" d="M1007.9,356.09l7.313-3.913c1.667-.962,13.121-6.091,14.565-5.258l4.637-.705c1.43-.824,5.828.225,7.648.225,1.581,0,5.153,1.581,6.286,2.234l32.668,18.691,6.907,3.95,39.633,22.675a14.836,14.836,0,0,1,3.281,2.712,6.855,6.855,0,0,1,1.267,2.636c.426,2.483-1.028,5.029-4.076,6.788l-7.312,3.914c-1.667.964-13.116,6.089-14.565,5.253l-4.641.707c-1.428.828-5.824-.221-7.644-.221-1.579,0-5.155-1.581-6.286-2.236l-32.668-18.687-6.905-3.954-39.637-22.673a14.834,14.834,0,0,1-3.281-2.714,6.885,6.885,0,0,1-1.27-2.632C1003.4,360.395,1004.852,357.851,1007.9,356.09Z" transform="translate(-998.555 -333.487)"/><path class="ce" d="M1009.226,355.634l7.09-3.749c2-1.157,12.472-5.468,14.207-4.466l4.476-.237c1.191-.687,5.814.739,7.327.739,1.318,0,5.081,1.77,6.025,2.314l31.581,18.093,6.67,3.823,38.325,21.95a17.825,17.825,0,0,1,3.233,2.551,7.018,7.018,0,0,1,1.352,2.477c.514,2.367-.848,4.842-3.839,6.569l-7.092,3.749c-2,1.157-12.472,5.466-14.205,4.466l-4.48.235c-1.191.687-5.812-.737-7.327-.737-1.316,0-5.079-1.77-6.025-2.316L1054.964,393l-6.672-3.819-38.323-21.954a17.892,17.892,0,0,1-3.232-2.549,6.953,6.953,0,0,1-1.354-2.475C1004.866,359.839,1006.231,357.359,1009.226,355.634Z" transform="translate(-999.058 -332.38)"/><path class="cf" d="M1010.553,355.382l6.871-3.584c2.334-1.35,11.823-4.844,13.848-3.674l4.313.233c.952-.548,5.8,1.256,7.009,1.256,1.055,0,5.007,1.959,5.762,2.395L1078.85,369.5l6.435,3.69,37.016,21.233a22.261,22.261,0,0,1,3.186,2.385,7.231,7.231,0,0,1,1.437,2.322c.6,2.244-.671,4.655-3.606,6.348l-6.871,3.584c-2.337,1.35-11.821,4.844-13.846,3.674l-4.317-.235c-.954.548-5.8-1.252-7.01-1.252-1.055,0-5-1.961-5.76-2.4L1055.02,391.36l-6.435-3.69-37.016-21.231a22.578,22.578,0,0,1-3.186-2.385,7.2,7.2,0,0,1-1.438-2.32C1006.34,359.488,1007.616,357.077,1010.553,355.382Z" transform="translate(-999.568 -331.479)"/><path class="cg" d="M1011.882,355.29l6.65-3.421c2.67-1.541,11.174-4.219,13.488-2.883l4.153.7c.715-.412,5.784,1.77,6.692,1.77.792,0,4.93,2.148,5.5,2.477l29.407,16.9,6.2,3.56,35.708,20.51a20.281,20.281,0,0,1,3.136,2.224,4.76,4.76,0,0,1,1.521,2.164c.693,2.124-.492,4.468-3.369,6.129l-6.65,3.419c-2.67,1.543-11.172,4.219-13.486,2.885l-4.159-.707c-.713.412-5.78-1.766-6.69-1.766-.789,0-4.93-2.15-5.5-2.477l-29.409-16.9-6.2-3.56-35.7-20.51a20.545,20.545,0,0,1-3.14-2.224,4.752,4.752,0,0,1-1.521-2.16C1007.816,359.3,1009,356.951,1011.882,355.29Z" transform="translate(-1000.08 -330.736)"/><path class="ch" d="M1013.22,355.23l6.428-3.257c3-1.736,10.523-3.6,13.127-2.093l3.992,1.175c.478-.273,5.77,2.282,6.376,2.282a43.194,43.194,0,0,1,5.234,2.557l28.322,16.3,5.965,3.431,34.4,19.79a28.851,28.851,0,0,1,3.09,2.057,4.651,4.651,0,0,1,1.6,2.009c.781,2-.313,4.279-3.134,5.906l-6.429,3.257c-3,1.736-10.521,3.6-13.127,2.093l-3.994-1.177c-.478.273-5.768-2.282-6.375-2.282a43.2,43.2,0,0,1-5.233-2.555l-28.32-16.3-5.965-3.431-34.4-19.788a28.88,28.88,0,0,1-3.092-2.059,4.651,4.651,0,0,1-1.607-2C1009.3,359.14,1010.4,356.857,1013.22,355.23Z" transform="translate(-1000.597 -330.026)"/><path class="ci" d="M1014.558,355.217l6.208-3.092c3.337-1.928,9.876-2.975,12.769-1.306l3.829,1.649c.237-.138,5.756,2.8,6.059,2.8.263,0,4.781,2.527,4.97,2.638l27.236,15.7,5.73,3.3,33.084,19.065c.146.084,2.977,1.768,3.043,1.894a4.58,4.58,0,0,1,1.69,1.852c.872,1.882-.137,4.092-2.9,5.687l-6.21,3.092c-3.337,1.929-9.874,2.973-12.767,1.306l-3.835-1.653c-.237.139-5.752-2.795-6.055-2.795-.263,0-4.781-2.525-4.97-2.636l-27.236-15.7-5.728-3.3-33.086-19.067c-.143-.082-2.977-1.766-3.044-1.892a4.6,4.6,0,0,1-1.694-1.846C1010.775,359.028,1011.794,356.81,1014.558,355.217Z" transform="translate(-1001.118 -329.362)"/><path d="M1095.536,408.924l-40.266-23.248L1015,362.426c-3.182-1.836-2.785-5.04.888-7.162l5.989-2.927c3.67-2.121,9.225-2.35,12.407-.514l40.266,23.248,40.266,23.25c3.18,1.836,2.782,5.041-.89,7.162l-5.989,2.927C1104.271,410.531,1098.716,410.76,1095.536,408.924Z" transform="translate(-1001.634 -328.76)"/></g><g class="cj" transform="translate(46.526 275.351)"><path class="ck" d="M1015.391,366.874c.028-5.738-4.578-7.128-1.776-9.117.106-.074,6.563-2.9,6.684-2.943a10.642,10.642,0,0,1,10.131.87l73.163,45.238c8.255,5.1,14.9,18.39,14.848,29.673l-6.585,2.333C1111.826,438.92,1015.391,366.874,1015.391,366.874Z" transform="translate(-1008.37 -353.927)"/><path class="cl" d="M1015.555,368.246c.056-11.28,6.788-16.293,15.041-11.188l73.163,45.24c8.255,5.1,14.9,18.388,14.846,29.669Z" transform="translate(-1014.247 -352.786)"/><path class="cm" d="M1016.2,368.59c.052-11.282,6.789-16.293,15.041-11.192l73.163,45.242c8.257,5.1,14.9,18.386,14.848,29.671Z" transform="translate(-1016.205 -352.441)"/><path class="cn" d="M1017.22,368.337c.046-9.892,5.95-14.282,13.183-9.808l72.779,45c7.23,4.472,13.058,16.116,13.012,26.01Z" transform="translate(-1015.18 -351.053)"/><path class="co" d="M1018.669,368.542c.036-8.281,4.98-11.957,11.035-8.213l71.222,44.041c6.057,3.743,10.935,13.488,10.9,21.771Z" transform="translate(-1013.721 -348.948)"/></g><g transform="translate(55.481 63.17)"><path class="cp" d="M1047.838,506.635l-65.26-40.6c-7.361-4.582-10-16.51-5.9-26.645l72.643-179.446c2.085-5.155-2.545-6.4,1.29-8.191.145-.066,8.349-2.6,8.5-2.644,3.751-.988,7.5-1.384,10.967.777l65.26,40.6c7.363,4.58,10,16.508,5.9,26.645L1068.594,496.58c-2.182,5.384-5.828,9.179-9.866,10.865-.237.1-10.186,3.311-10.431,3.369C1045.013,511.571,1051.054,508.64,1047.838,506.635Z" transform="translate(-965.782 -248.311)"/><path class="cq" d="M1041.949,289.833l-65.256-40.605c-3.475-2.162,60.277,41.755,60.277,41.755,7.361,4.578,10,16.508,5.9,26.641,0,0-69.84,183.685-67.662,178.3l72.643-179.446C1051.955,306.343,1049.31,294.414,1041.949,289.833Z" transform="translate(-873.225 -247.465)"/><path class="cr" d="M1051.448,507.869l-65.254-40.6c-7.363-4.583-10-16.51-5.9-26.643l72.645-179.448c4.1-10.133,13.4-14.637,20.756-10.057l65.258,40.6c7.363,4.582,10,16.508,5.9,26.645l-72.645,179.446C1068.106,507.949,1058.813,512.451,1051.448,507.869Z" transform="translate(-976.656 -247.285)"/><path class="cs" d="M1052.3,508.178l-65.257-40.6c-7.361-4.582-10-16.51-5.9-26.643l72.645-179.448c4.1-10.135,13.4-14.637,20.757-10.057l65.26,40.605c7.359,4.582,10,16.508,5.9,26.643l-72.645,179.446C1068.954,508.255,1059.659,512.759,1052.3,508.178Z" transform="translate(-979.208 -246.976)"/><path class="ct" d="M981.9,440.926l72.733-179.669c3.6-8.884,11.744-12.829,18.193-8.817l64.914,40.39c6.455,4.014,8.767,14.471,5.173,23.356l-72.733,179.667c-3.6,8.884-11.745,12.831-18.2,8.817l-64.908-40.388C980.623,460.269,978.308,449.808,981.9,440.926Z" transform="translate(-978.196 -245.729)"/><path class="cu" d="M983.149,440.2l72.363-178.759c3.011-7.437,9.83-10.74,15.232-7.381l63.528,39.529c5.4,3.361,7.339,12.112,4.325,19.551l-72.361,178.757c-3.012,7.437-9.83,10.74-15.232,7.379l-63.526-39.529C982.078,456.386,980.138,447.633,983.149,440.2Z" transform="translate(-976.663 -243.839)"/><path class="cv" d="M1124.718,289.023c-1.515,3.741-5.3,5.177-8.454,3.214l-35.546-22.119c-3.156-1.961-4.486-6.583-2.971-10.322L1070.2,255.1c-5.091-3.168-11.2-.844-13.637,5.187L983.387,441.058c-2.443,6.033-.3,13.49,4.8,16.656l62.057,38.612c5.089,3.168,11.2.846,13.635-5.187l73.181-180.768c2.441-6.031.3-13.49-4.8-16.656Z" transform="translate(-976.009 -242.888)"/><g transform="translate(20.666 24.868)"><path class="cw" d="M1002.366,260.69l-11.5,28.268,60.983,37.628a8.092,8.092,0,0,0,11.775-3.819l5.31-13.052a8.1,8.1,0,0,0-3.219-9.918Z" transform="translate(-945.207 -260.69)"/><path class="cx" d="M1000.086,302.642l-3.743,9.2a10.141,10.141,0,0,0,4.048,12.438l55.727,34.581,11.5-28.266-52.786-32.752A10.142,10.142,0,0,0,1000.086,302.642Z" transform="translate(-952.779 -224.744)"/><path class="cy" d="M1023.844,316.292l-11.5,28.266,63.279,39.071a8.391,8.391,0,0,0,12.208-3.96l5.083-12.5a8.385,8.385,0,0,0-3.337-10.276Z" transform="translate(-1012.344 -204.589)"/></g><path class="cz" d="M982.108,312.881l4.9-12.112a8.266,8.266,0,0,1,4.159-3.966h0c1.669-.641,2.513.094,1.884,1.643l-4.9,12.114a8.258,8.258,0,0,1-4.157,3.968h0C982.327,315.169,981.484,314.432,982.108,312.881Z" transform="translate(-830.253 -199.618)"/><path class="da" d="M982.781,314.073c-.721-.012-.675-.765-.416-1.406l4.906-12.114a7.552,7.552,0,0,1,3.723-3.578,2.318,2.318,0,0,1,.808-.177c.719.016.675.769.414,1.408l-4.9,12.114a7.546,7.546,0,0,1-3.723,3.58A2.238,2.238,0,0,1,982.781,314.073Z" transform="translate(-829.961 -199.389)"/><path class="db" d="M983.014,312.99l4.9-12.112a7.544,7.544,0,0,1,3.725-3.576,2.335,2.335,0,0,1,.719-.167.527.527,0,0,0-.532-.338,2.319,2.319,0,0,0-.808.177,7.543,7.543,0,0,0-3.722,3.578l-4.906,12.114c-.259.641-.305,1.394.416,1.406a.389.389,0,0,0,.086-.008A1.6,1.6,0,0,1,983.014,312.99Z" transform="translate(-829.989 -199.389)"/><path class="dc" d="M1137.055,310.372,1063.875,491.14c-2.439,6.033-8.546,8.355-13.635,5.187l-62.057-38.612c-5.091-3.166-7.239-10.623-4.8-16.656l73.179-180.768c2.441-6.031,8.546-8.355,13.637-5.187l7.544,4.693c-1.515,3.739-.185,8.359,2.969,10.322l35.549,22.119c3.156,1.963,6.939.526,8.454-3.214l7.54,4.693C1137.351,296.882,1139.5,304.341,1137.055,310.372Zm-.994-.018c2.33-5.762.273-12.906-4.589-15.933l-6.457-4.014a7.224,7.224,0,0,1-6.232,3.536,6.427,6.427,0,0,1-3.3-1l-35.551-22.119c-3.291-2.049-4.709-6.608-3.359-10.565l-7.154-4.45a8.225,8.225,0,0,0-4.155-1.294c-3.277-.068-6.228,2.152-7.7,5.794L984.381,441.078c-2.332,5.76-.273,12.906,4.588,15.931l62.055,38.61a8.245,8.245,0,0,0,4.154,1.294h0a7.229,7.229,0,0,0,4.37-1.376,9.95,9.95,0,0,0,3.333-4.418Z" transform="translate(-976.009 -242.888)"/><path class="dd" d="M1034.381,376.6c-1.663,4.118-5.836,5.706-9.314,3.54s-4.94-7.252-3.273-11.371c1.458-3.6,4.823-5.266,7.971-4.183l.362-.888.85.528.995-2.453a1.7,1.7,0,0,1-.177-1.575,1.076,1.076,0,0,1,1.593-.607,1.63,1.63,0,0,1,.561,1.947,1.128,1.128,0,0,1-1.127.765l-.993,2.453.854.528-.364.89A9.786,9.786,0,0,1,1034.381,376.6Zm-1.107-1.8a1.4,1.4,0,0,0-.679-1.814,22.587,22.587,0,0,1-7.4-4.6.955.955,0,0,0-1.579.414l-.687,1.7a2.2,2.2,0,0,0,.5,2.377,22.455,22.455,0,0,0,7.4,4.591,1.356,1.356,0,0,0,1.724-.874Zm-2.284.125a.764.764,0,0,1-1.129.43,1.154,1.154,0,0,1-.4-1.38.76.76,0,0,1,1.129-.428A1.157,1.157,0,0,1,1030.99,374.926Zm-4.558-2.837a.767.767,0,0,1-1.131.43,1.154,1.154,0,0,1-.4-1.38.763.763,0,0,1,1.129-.43A1.163,1.163,0,0,1,1026.431,372.089Z" transform="translate(-950.818 -136.202)"/></g><path class="de" d="M1043.876,392.979c-4.305,10.308-14.947,15.68-23.764,12s-12.482-15.025-8.181-25.333,14.943-15.678,23.762-12S1048.178,382.671,1043.876,392.979Z" transform="translate(-883.896 -65.906)"/><path class="df" d="M1044.43,257.26c4.661,11.341,1.258,23.485-7.6,27.123s-19.814-2.6-24.476-13.94-1.255-23.487,7.6-27.125S1039.771,245.922,1044.43,257.26Z" transform="translate(-885.019 -191.226)"/></g></g></svg>