<svg xmlns="http://www.w3.org/2000/svg" width="648" height="613.503" viewBox="0 0 648 613.503"><defs><style>.a{fill:#f5f5f5;}.b{fill:#e0e0e0;}.c{fill:#f03a01;}.d,.i{opacity:0.3;}.e{fill:#5351fb;}.f,.h{opacity:0.1;}.g,.i,.k,.l,.m{fill:#fff;}.j,.l{opacity:0.55;}.k{opacity:0.7;}.m{opacity:0.85;}.n{fill:#455a64;}.o{fill:#37474f;}.p,.y{fill:#263238;}.q{fill:#fef1ee;}.r,.v{opacity:0.35;}.s{fill:#ffa8a7;}.t{fill:#f28f8f;}.ac,.u{opacity:0.2;}.w{opacity:0.5;}.x{fill:#b16668;}.y,.z{opacity:0.6;}.aa{fill:#9a4a4d;}.ab{fill:#b8aca8;}</style></defs><g transform="translate(-23.48 -38.759)"><g transform="translate(23.48 278.139)"><ellipse class="a" cx="324" cy="187.062" rx="324" ry="187.062"/></g><g transform="translate(64.226 310.72)"><ellipse class="b" cx="70.416" cy="40.655" rx="70.416" ry="40.655" transform="translate(210.293)"/><path class="b" d="M341.3,453.224c-32.806-19.941-32.806-52.272,0-72.213s85.993-19.941,118.8,0,32.8,52.272,0,72.213S374.1,473.165,341.3,453.224Z" transform="translate(50.274 -182.911)"/><ellipse class="b" cx="76.657" cy="44.258" rx="76.657" ry="44.258" transform="translate(0 153.25)"/></g><g transform="translate(172.656 152.22)"><g transform="translate(289.839 18.421)"><path class="c" d="M374.067,161.018l-22.358-23.162-12.5.967Z" transform="translate(-339.205 -131.943)"/><path class="c" d="M369.409,162.679l-18.275-24.43,6.456-4.645Z" transform="translate(-334.546 -133.604)"/><path class="c" d="M351.428,136.944l-1.049,4.411L369.7,161.375Z" transform="translate(-334.841 -132.3)"/><path class="d" d="M351.428,136.944l-1.049,4.411L369.7,161.375Z" transform="translate(-334.841 -132.3)"/></g><g transform="translate(5.938 52.616)"><path class="c" d="M135.032,188.286l26.8-24.788,14.1,1.9Z" transform="translate(-135.032 -156.126)"/><path class="c" d="M135.032,190.356l22.26-26.486-7.012-5.673Z" transform="translate(-135.032 -158.196)"/><path class="c" d="M157.293,162.276l.9,5.062-23.164,21.424Z" transform="translate(-135.032 -156.603)"/><path class="d" d="M157.293,162.276l.9,5.062-23.164,21.424Z" transform="translate(-135.032 -156.603)"/></g><g transform="translate(259.621 143.781)"><path class="c" d="M317.473,248.275l28.583-18.305,12.591,4.042Z" transform="translate(-317.473 -221.333)"/><path class="c" d="M317.473,250.7l24.7-20.6-5.49-6.339Z" transform="translate(-317.473 -223.759)"/><path class="c" d="M342.177,228.318V233.1l-24.7,15.821Z" transform="translate(-317.473 -221.979)"/><path class="d" d="M342.177,228.318V233.1l-24.7,15.821Z" transform="translate(-317.473 -221.979)"/></g><g transform="translate(28.772 213.947)"><path class="c" d="M199.288,302.7l-33.207-21.267-14.628,4.7Z" transform="translate(-151.454 -271.402)"/><path class="c" d="M193.915,305.519l-28.7-23.935,6.378-7.365Z" transform="translate(-146.08 -274.219)"/><path class="c" d="M165.214,279.516v5.554l28.7,18.381Z" transform="translate(-146.08 -272.151)"/><path class="d" d="M165.214,279.516v5.554l28.7,18.381Z" transform="translate(-146.08 -272.151)"/></g><g transform="translate(0 161.899)"><path class="b" d="M131.778,239.972a.64.64,0,0,1-.628-.515q-.2-.949-.377-1.909a.645.645,0,0,1,.516-.751.653.653,0,0,1,.751.516q.175.947.368,1.883a.642.642,0,0,1-.5.761A.6.6,0,0,1,131.778,239.972Z" transform="translate(-130.762 -236.789)"/><g transform="translate(1.275 5.752)"><path class="b" d="M165.34,290.094a.64.64,0,0,1-.36-.11c-1.1-.74-2.186-1.524-3.245-2.33a.644.644,0,0,1,.781-1.025c1.037.793,2.109,1.561,3.184,2.287a.644.644,0,0,1-.36,1.178Zm-6.3-4.794a.646.646,0,0,1-.417-.154c-1-.848-2-1.746-2.969-2.67a.643.643,0,1,1,.884-.934c.959.908,1.943,1.791,2.919,2.624a.644.644,0,0,1-.417,1.135Zm-5.751-5.44a.643.643,0,0,1-.464-.2c-.9-.941-1.808-1.933-2.689-2.948a.644.644,0,0,1,.972-.844c.869,1,1.758,1.973,2.648,2.9a.645.645,0,0,1-.466,1.089Zm-5.195-5.975a.645.645,0,0,1-.5-.245c-.812-1.028-1.62-2.1-2.4-3.187a.643.643,0,1,1,1.046-.749c.77,1.071,1.566,2.126,2.365,3.137a.645.645,0,0,1-.5,1.044Zm-4.618-6.43a.642.642,0,0,1-.54-.293c-.722-1.108-1.427-2.25-2.1-3.391a.643.643,0,1,1,1.108-.652q1.005,1.706,2.068,3.341a.645.645,0,0,1-.54,1Zm-4.01-6.825a.643.643,0,0,1-.569-.343c-.62-1.176-1.219-2.376-1.781-3.569a.644.644,0,0,1,1.165-.549c.553,1.176,1.143,2.36,1.755,3.517a.644.644,0,0,1-.268.87A.634.634,0,0,1,139.469,260.631Zm-3.371-7.165a.643.643,0,0,1-.594-.4c-.5-1.211-.991-2.463-1.446-3.718a.645.645,0,1,1,1.212-.438c.446,1.236.926,2.468,1.423,3.66a.646.646,0,0,1-.346.843A.634.634,0,0,1,136.1,253.466Zm-2.692-7.443a.645.645,0,0,1-.616-.453c-.394-1.268-.761-2.559-1.09-3.836a.643.643,0,1,1,1.246-.323c.327,1.258.687,2.529,1.075,3.778a.643.643,0,0,1-.425.805A.6.6,0,0,1,133.406,246.023Z" transform="translate(-131.679 -240.925)"/></g><g transform="translate(37.647 55.744)"><path class="b" d="M160.162,279.113a.637.637,0,0,1-.306-.078q-.849-.459-1.7-.957a.645.645,0,0,1,.652-1.112q.832.488,1.663.937a.644.644,0,0,1-.307,1.21Z" transform="translate(-157.837 -276.878)"/></g></g><g transform="translate(34.507 32.526)"><g transform="translate(60.576)"><path class="b" d="M199.784,145.158a.644.644,0,0,1-.043-1.286c.644-.046,1.292-.088,1.937-.124a.67.67,0,0,1,.679.608.643.643,0,0,1-.608.679q-.959.054-1.919.121C199.815,145.157,199.8,145.158,199.784,145.158Z" transform="translate(-199.143 -143.748)"/></g><g transform="translate(4.565 0.449)"><path class="b" d="M159.506,164.582a.644.644,0,0,1-.371-1.171q1.545-1.085,3.13-2.116a.644.644,0,0,1,.7,1.08q-1.564,1.018-3.09,2.09A.648.648,0,0,1,159.506,164.582Zm6.289-4.092a.644.644,0,0,1-.331-1.2q1.621-.972,3.273-1.886a.644.644,0,0,1,.623,1.128q-1.633.9-3.233,1.86A.643.643,0,0,1,165.8,160.49Zm6.572-3.629a.645.645,0,0,1-.291-1.219q1.681-.851,3.394-1.648a.644.644,0,0,1,.544,1.167q-1.694.788-3.357,1.63A.627.627,0,0,1,172.367,156.861Zm6.8-3.161a.644.644,0,0,1-.25-1.238q1.738-.736,3.5-1.413a.644.644,0,1,1,.462,1.2q-1.744.67-3.461,1.4A.668.668,0,0,1,179.17,153.7Zm7.008-2.691a.644.644,0,0,1-.21-1.253q1.781-.617,3.587-1.172a.644.644,0,1,1,.38,1.231q-1.785.549-3.547,1.158A.648.648,0,0,1,186.179,151.01Zm7.171-2.212a.644.644,0,0,1-.17-1.265q1.821-.494,3.657-.93a.643.643,0,1,1,.3,1.251q-1.819.432-3.618.922A.644.644,0,0,1,193.349,148.8Zm7.3-1.733a.644.644,0,0,1-.127-1.275q1.846-.375,3.71-.692a.656.656,0,0,1,.744.527.644.644,0,0,1-.527.742q-1.844.315-3.671.684A.575.575,0,0,1,200.648,147.065Zm7.4-1.257a.644.644,0,0,1-.086-1.282q1.869-.257,3.749-.45a.644.644,0,1,1,.132,1.281q-1.858.194-3.706.445A.638.638,0,0,1,208.048,145.808Z" transform="translate(-158.862 -144.071)"/></g><g transform="translate(0 21.898)"><path class="b" d="M156.223,161.968a.644.644,0,0,1-.4-1.15q.761-.6,1.534-1.19a.644.644,0,0,1,.78,1.025q-.763.58-1.516,1.176A.654.654,0,0,1,156.223,161.968Z" transform="translate(-155.579 -159.497)"/></g></g><g transform="translate(291.449 57.648)"><path class="b" d="M341.006,250.5a.644.644,0,0,1-.382-1.161l.923-.684a.643.643,0,1,1,.769,1.032l-.927.687A.634.634,0,0,1,341.006,250.5Zm3.988-3.044a.644.644,0,0,1-.4-1.149q1.5-1.193,2.973-2.436a.644.644,0,1,1,.831.983q-1.489,1.258-3,2.461A.652.652,0,0,1,344.994,247.46Zm5.9-4.993a.644.644,0,0,1-.43-1.122q1.427-1.285,2.816-2.621a.644.644,0,0,1,.893.927q-1.406,1.352-2.848,2.649A.639.639,0,0,1,350.892,242.467Zm5.574-5.36a.644.644,0,0,1-.462-1.093q1.337-1.377,2.632-2.8a.644.644,0,0,1,.954.866q-1.31,1.441-2.663,2.835A.649.649,0,0,1,356.467,237.107Zm5.189-5.727a.644.644,0,0,1-.492-1.06q1.239-1.466,2.422-2.981a.643.643,0,1,1,1.014.793q-1.2,1.533-2.45,3.02A.647.647,0,0,1,361.656,231.379Zm4.753-6.093a.645.645,0,0,1-.521-1.022q1.118-1.554,2.176-3.159a.643.643,0,0,1,1.075.708q-1.07,1.627-2.207,3.205A.645.645,0,0,1,366.409,225.286Zm4.249-6.455a.644.644,0,0,1-.552-.975q.984-1.641,1.9-3.333a.644.644,0,0,1,1.133.613q-.924,1.712-1.926,3.383A.644.644,0,0,1,370.658,218.831Zm3.671-6.8a.633.633,0,0,1-.279-.065.642.642,0,0,1-.3-.859c.555-1.151,1.089-2.325,1.584-3.49a.644.644,0,1,1,1.185.5c-.5,1.185-1.044,2.378-1.61,3.547A.645.645,0,0,1,374.329,212.033Zm3.022-7.11a.654.654,0,0,1-.222-.04.644.644,0,0,1-.382-.826c.445-1.21.861-2.432,1.236-3.631a.643.643,0,1,1,1.228.382c-.381,1.221-.8,2.463-1.254,3.692A.645.645,0,0,1,377.351,204.923Zm2.3-7.377a.645.645,0,0,1-.623-.8c.317-1.243.6-2.5.852-3.731a.644.644,0,1,1,1.263.253c-.253,1.254-.545,2.532-.869,3.8A.642.642,0,0,1,379.652,197.547Zm1.524-7.567a.556.556,0,0,1-.095-.008.641.641,0,0,1-.542-.73c.185-1.264.339-2.545.455-3.8a.672.672,0,0,1,.7-.583.645.645,0,0,1,.583.7c-.12,1.279-.275,2.581-.466,3.868A.643.643,0,0,1,381.176,189.98Zm.717-7.685h-.026a.644.644,0,0,1-.617-.669q.06-1.481.061-2.98l-.007-.848a.647.647,0,0,1,.638-.651h.007a.646.646,0,0,1,.644.638l.007.854c0,1.025-.021,2.034-.064,3.04A.644.644,0,0,1,381.893,182.295Zm-.088-7.72a.644.644,0,0,1-.642-.6c-.078-1.265-.192-2.55-.335-3.816a.644.644,0,0,1,1.281-.146c.145,1.289.26,2.595.341,3.882a.646.646,0,0,1-.6.683Zm-.865-7.676a.641.641,0,0,1-.633-.541c-.2-1.24-.439-2.508-.7-3.768a.643.643,0,0,1,1.258-.266c.271,1.279.512,2.567.715,3.828a.644.644,0,0,1-.637.747Z" transform="translate(-340.362 -161.815)"/></g><g transform="translate(246.014)"><path class="b" d="M355.686,136.789a.643.643,0,0,1-.342-.1q-1.623-1.024-3.289-1.977a.644.644,0,0,1,.642-1.117q1.685.966,3.332,2a.644.644,0,0,1-.343,1.19Zm-6.7-3.843a.641.641,0,0,1-.3-.074q-1.7-.884-3.437-1.7A.644.644,0,0,1,345.8,130q1.758.83,3.483,1.726a.645.645,0,0,1-.3,1.217ZM342,129.654a.666.666,0,0,1-.25-.051q-1.769-.751-3.563-1.431a.644.644,0,0,1,.457-1.2q1.817.69,3.607,1.449a.644.644,0,0,1-.252,1.238Zm-7.219-2.741a.627.627,0,0,1-.206-.035q-1.821-.613-3.661-1.157a.645.645,0,1,1,.367-1.236q1.861.553,3.7,1.174a.644.644,0,0,1-.2,1.254Zm-7.409-2.193a.58.58,0,0,1-.16-.021q-1.859-.476-3.736-.883a.646.646,0,0,1-.492-.768.653.653,0,0,1,.768-.492q1.9.415,3.781.9a.644.644,0,0,1-.16,1.267Zm-7.546-1.642a.791.791,0,0,1-.114-.01q-1.892-.342-3.791-.612a.644.644,0,0,1-.548-.729.655.655,0,0,1,.73-.546q1.921.275,3.835.619a.644.644,0,0,1-.113,1.278Zm-7.645-1.093a.61.61,0,0,1-.071,0q-1.909-.2-3.822-.339a.64.64,0,0,1-.6-.686.618.618,0,0,1,.686-.6q1.938.136,3.871.342a.644.644,0,0,1-.067,1.285Z" transform="translate(-307.687 -120.356)"/></g></g><g transform="translate(48.113 39.983)"><g transform="translate(406.888 24.836)"><g transform="translate(60.075 93.956)"><g transform="translate(9.643 9.629)"><path class="e" d="M383.954,146.014l10.924-6.309a1.048,1.048,0,0,0,.512-.453l2.012-3.51-6.487-3.747.2.573Z" transform="translate(-383.954 -131.995)"/></g><g class="f" transform="translate(9.643 9.629)"><path class="e" d="M383.954,146.014l10.924-6.309a1.048,1.048,0,0,0,.512-.453l2.012-3.51-6.487-3.747.2.573Z" transform="translate(-383.954 -131.995)"/></g><path class="e" d="M394.612,135.235l-7.56,13.094a1.128,1.128,0,0,1-2.043-.195l-7.99-23.064Z" transform="translate(-377.019 -125.07)"/></g><path class="e" d="M333.816,67.905a11.671,11.671,0,0,1,5.282-9.15l0,.008a11.671,11.671,0,0,1,10.565,0L435.2,108.1a11.68,11.68,0,0,1,5.282,9.151v43.32a11.68,11.68,0,0,1-5.282,9.151l0-.008a11.682,11.682,0,0,1-10.566,0l-86.034-49.7c-4.747-2.706-4.79-5.422-4.79-8.792Z" transform="translate(-333.815 -57.5)"/><g transform="translate(13.933 25.57)"><g transform="translate(0 12.495)"><path class="g" d="M408.141,120.865l-61.1-35.449c-1.769-1.021-3.2-.555-3.2,1.043s1.434,3.717,3.2,4.737l61.1,35.448c1.767,1.022,3.2.555,3.2-1.04S409.909,121.886,408.141,120.865Z" transform="translate(-343.835 -84.875)"/><path class="g" d="M389.627,119.012l-42.59-24.686c-1.769-1.021-3.2-.555-3.2,1.041s1.434,3.718,3.2,4.739l42.59,24.686c1.767,1.021,3.2.555,3.2-1.041S391.394,120.034,389.627,119.012Z" transform="translate(-343.835 -81.395)"/></g><path class="g" d="M408.141,111.879l-61.1-35.449c-1.769-1.021-3.2-.553-3.2,1.043s1.434,3.717,3.2,4.737l61.1,35.448c1.767,1.022,3.2.555,3.2-1.04S409.909,112.9,408.141,111.879Z" transform="translate(-343.835 -75.889)"/></g><path class="h" d="M414.724,145.256a11.68,11.68,0,0,1-5.283,9.151l0-.008a11.814,11.814,0,0,1-9.663.442c2.486.94,4.38-.48,4.38-3.493v-43.32a10.807,10.807,0,0,0-1.548-5.207l10.561-6.09a10.783,10.783,0,0,1,1.548,5.206Z" transform="translate(-308.055 -42.181)"/><path class="i" d="M333.94,66.4c.616-2.243,2.661-2.958,5.1-1.553L424.6,114.2a10.473,10.473,0,0,1,3.721,3.943l10.555-6.085a10.658,10.658,0,0,0-3.721-3.943l-85.528-49.35a11.748,11.748,0,0,0-10.573,0l-.007,0A11.645,11.645,0,0,0,333.94,66.4Z" transform="translate(-333.766 -57.497)"/></g><g transform="translate(0 23.445)"><g transform="translate(69.265 72.443)"><path class="e" d="M103.869,122.005l-10.447-6.033a1.007,1.007,0,0,1-.491-.434l-1.923-3.357,6.2-3.583-.189.548Z" transform="translate(-91.008 -108.598)"/></g><g class="j" transform="translate(69.265 72.443)"><path class="g" d="M103.869,122.005l-10.447-6.033a1.007,1.007,0,0,1-.491-.434l-1.923-3.357,6.2-3.583-.189.548Z" transform="translate(-91.008 -108.598)"/></g><path class="e" d="M94.79,111.7l7.231,12.523a1.079,1.079,0,0,0,1.954-.185l7.641-22.059Z" transform="translate(-20.266 -38.742)"/><path class="k" d="M94.79,111.7l7.231,12.523a1.079,1.079,0,0,0,1.954-.185l7.641-22.059Z" transform="translate(-20.266 -38.742)"/><path class="e" d="M143.213,66.452A11.17,11.17,0,0,0,138.16,57.7l0,.008a11.164,11.164,0,0,0-10.1,0L46.247,104.9a11.167,11.167,0,0,0-5.052,8.75v41.431a11.172,11.172,0,0,0,5.052,8.752l0-.008a11.173,11.173,0,0,0,10.1,0l82.284-47.534c4.539-2.586,4.58-5.185,4.58-8.407Z" transform="translate(-41.195 -56.5)"/><path class="k" d="M140.379,64.745v41.431c0,3.227-.042,5.825-4.582,8.41l-82.29,47.536a8.04,8.04,0,0,1-.866.419c-.042.014-.071.029-.113.043a.581.581,0,0,1-.139.056,1.1,1.1,0,0,1-.2.07l.085-.042c-2.194.629-3.814-.741-3.814-3.465V117.77a10.4,10.4,0,0,1,1.467-4.986l.014.014a9.889,9.889,0,0,1,3.562-3.772l81.829-47.2c2.333-1.34,4.288-.656,4.875,1.481a10.589,10.589,0,0,0-.755-2.431A9.438,9.438,0,0,1,140.379,64.745Z" transform="translate(-38.356 -54.791)"/><path class="l" d="M41.2,140.43a11.17,11.17,0,0,0,5.053,8.752l0-.008a11.292,11.292,0,0,0,9.241.423c-2.378.9-4.19-.459-4.19-3.34V104.825a10.333,10.333,0,0,1,1.479-4.979l-10.1-5.826A10.333,10.333,0,0,0,41.2,99Z" transform="translate(-41.195 -41.849)"/><path class="m" d="M142.627,65.013c-.59-2.144-2.546-2.828-4.879-1.485l-81.823,47.2a10.012,10.012,0,0,0-3.56,3.771l-10.1-5.819a10.183,10.183,0,0,1,3.558-3.771l81.8-47.2a11.23,11.23,0,0,1,10.112,0l.007,0A11.144,11.144,0,0,1,142.627,65.013Z" transform="translate(-40.775 -56.497)"/><g transform="translate(20.617 38.438)"><path class="n" d="M59.084,118.564l58.44-33.9c1.691-.976,3.062-.531,3.062,1a6.132,6.132,0,0,1-3.062,4.533l-58.44,33.9c-1.691.976-3.062.531-3.062-1A6.13,6.13,0,0,1,59.084,118.564Z" transform="translate(-56.022 -84.143)"/><path class="n" d="M59.084,124.295l40.732-23.609c1.692-.976,3.062-.53,3.062,1a6.126,6.126,0,0,1-3.062,4.532L59.084,129.822c-1.691.976-3.062.531-3.062-1A6.13,6.13,0,0,1,59.084,124.295Z" transform="translate(-56.022 -77.885)"/></g><g transform="translate(20.617 26.487)"><path class="n" d="M59.084,109.97l58.44-33.9c1.691-.978,3.062-.531,3.062,1a6.135,6.135,0,0,1-3.062,4.533l-58.44,33.9c-1.691.976-3.062.53-3.062-1A6.13,6.13,0,0,1,59.084,109.97Z" transform="translate(-56.022 -75.548)"/></g></g><g transform="translate(155.538)"><path class="n" d="M228.5,50.032a1.368,1.368,0,0,0-.694-.182H215.137l-5.231,3.02v18.12l5.231-3.02,4.521-5.22V76.615l5.231-3.019L238.6,57.764a1.386,1.386,0,0,0-.355-2.107C238.047,55.543,229.2,50.439,228.5,50.032Z" transform="translate(-130.852 -35.652)"/><path class="o" d="M216.919,75.034l5.231-3.019,13.71-15.832a1.383,1.383,0,0,0-1.046-2.287H222.15l-5.231,3.02Z" transform="translate(-128.113 -34.072)"/><path class="o" d="M247.094,48.812a10.3,10.3,0,0,0-4.658-8.068l0,.008a10.3,10.3,0,0,0-9.315,0l-75.414,43.5a10.3,10.3,0,0,0-4.658,8.068v38.191a10.294,10.294,0,0,0,4.658,8.066l0-.007a10.3,10.3,0,0,0,9.315,0l75.849-43.817c4.185-2.385,4.223-4.779,4.223-7.749Z" transform="translate(-153.053 -39.639)"/><path class="p" d="M153.053,117.005a10.294,10.294,0,0,0,4.658,8.066l0-.007a10.413,10.413,0,0,0,8.518.391c-2.191.829-3.861-.424-3.861-3.08V84.184a9.522,9.522,0,0,1,1.364-4.59l-9.311-5.37a9.522,9.522,0,0,0-1.364,4.59Z" transform="translate(-153.053 -26.134)"/><path class="n" d="M246.554,47.486c-.544-1.977-2.346-2.607-4.5-1.368L166.632,89.625A9.221,9.221,0,0,0,163.35,93.1l-9.305-5.365a9.38,9.38,0,0,1,3.28-3.476l75.4-43.507a10.353,10.353,0,0,1,9.322,0l.007,0A10.272,10.272,0,0,1,246.554,47.486Z" transform="translate(-152.666 -39.637)"/><g transform="translate(21.693 23.141)"><g transform="translate(0 11.016)"><path class="q" d="M171.477,95.933,225.347,64.68c1.559-.9,2.821-.488,2.821.919a5.648,5.648,0,0,1-2.821,4.177l-53.871,31.251c-1.559.9-2.823.489-2.823-.918A5.65,5.65,0,0,1,171.477,95.933Z" transform="translate(-168.654 -64.203)"/><path class="q" d="M183.216,94.4l37.548-21.763c1.559-.9,2.821-.489,2.821.919a5.648,5.648,0,0,1-2.821,4.177L183.216,99.5c-1.559.9-2.823.488-2.823-.919A5.653,5.653,0,0,1,183.216,94.4Z" transform="translate(-164.07 -61.094)"/></g><path class="q" d="M171.477,88.011l53.871-31.253c1.559-.9,2.821-.488,2.821.919a5.648,5.648,0,0,1-2.821,4.177L171.477,93.105c-1.559.9-2.823.489-2.823-.918A5.65,5.65,0,0,1,171.477,88.011Z" transform="translate(-168.654 -56.281)"/></g></g></g><g transform="translate(422.596 191.118)"><g transform="translate(121.772 68.308)"><path class="c" d="M398.085,197.85c7.175-1.6,15.245,1.447,20.709,12.884,5.232,10.953,20.355,43.19,20.7,50.928.361,8.025-32.3,33.006-31.384,32.572.282-.133-7.3-15.444-7.3-15.444l16.6-20.655-9.4-18.5Z" transform="translate(-398.085 -197.455)"/><g class="r"><path d="M398.085,197.85c7.175-1.6,15.245,1.447,20.709,12.884,5.232,10.953,20.355,43.19,20.7,50.928.361,8.025-32.3,33.006-31.384,32.572.282-.133-7.3-15.444-7.3-15.444l16.6-20.655-9.4-18.5Z" transform="translate(-398.085 -197.455)"/></g></g><g transform="translate(41.467 147.501)"><g transform="translate(59.2 167.444)"><path class="p" d="M416.513,388.6c.954.355,1.5,2.151,1.92,6.537.261,2.716,1.187,6.309-2.955,8.514-2.357,1.254-6.6,1.877-9.793-.1-3.586-2.225-5.4-6.339-9.61-9.639-3.69-2.892-8.292-5.03-11.32-10.3-3.137-5.458-2.5-8.777,3.622-8.784,9.841-.011,12.79,5.423,17.85,5.536C409.054,380.428,415.56,388.242,416.513,388.6Z" transform="translate(-382.907 -374.828)"/></g><g transform="translate(79.85 177.438)"><path class="s" d="M410.7,383.628l.022,4.423c0,2.165-9.2,5.387-11.772.448-.2-.425-1.194-6.484-1.194-6.484Z" transform="translate(-397.758 -382.015)"/></g><g transform="translate(0 206.968)"><path class="p" d="M390.5,403.252s1.747,0,2.435,7.136c.261,2.717.912,8.292-.014,10.308s-5.957,2.909-11.6,3.415c-4.209.378-8.009,2.413-11.912,4.616a25.847,25.847,0,0,1-12.071,3.327c-5.331.042-9.848-.533-13.648-3.539-2.025-1.6-4.586-4.972-2.71-7.516.669-.907,1.829-1.121,2.846-1.5q3.56-1.324,7.187-2.456a73.681,73.681,0,0,0,10.558-4.051c4.978-2.453,10.526-5.2,14.287-9.394Z" transform="translate(-340.333 -403.252)"/></g><g transform="translate(35.532 203.276)"><path class="s" d="M380.5,400.6s0,3.283.026,5.159-2.175,4.682-7.911,4.507c-4.028-.124-6.845-1.193-6.7-4.509l-.024-4.782Z" transform="translate(-365.886 -400.597)"/></g><g transform="translate(25.101)"><path class="o" d="M428.655,374.749c-2.1-14.442-5.341-23.01-5.341-23.01s1.478-19.881,2.14-38.73a500.072,500.072,0,0,0-1.61-57.9s-64.051-6.074-65.1,17.46.474,83.409,1.3,93.74,1.662,20.019,3.848,39.247c1.883,16.561,4.924,52.5,4.924,52.5,7.523,4.017,14.611-.374,14.611-.374s4.826-48.257,5.378-60.181c.715-15.455-2.887-23.985-2.887-23.985s1.37-9.727,3.746-29.719c1.68-14.126,3.927-30.214,3.927-30.214s2.186,19.915,3.517,31.014c1.235,10.291,3.32,18.427,6.409,37.61,2.679,16.642,9.993,51.871,9.993,51.871,7.524,4.018,12.567-.622,12.567-.622S430.754,389.189,428.655,374.749Z" transform="translate(-358.384 -254.408)"/></g><path d="M383.7,305.684l3.03-19.662s12.463-3.964,18.8-11.383c0,0-3.38,8.636-15,13.283l-4.653,16.557-.8,13.66Z" transform="translate(-323.396 -246.507)"/></g><g transform="translate(73.121)"><path class="s" d="M376.139,194.795l2.991,21.017,18.906-.654L396.219,190.6Z" transform="translate(-358.004 -131.824)"/><g transform="translate(0 37.027)"><path class="t" d="M367.659,174.959s-5.074,7.439-4.52,8.186,4.187,1.471,4.187,1.471Z" transform="translate(-363.097 -174.959)"/></g><g transform="translate(0.147 29.53)"><path class="p" d="M369.283,181.921a6.177,6.177,0,1,1,6.273-6.079A6.186,6.186,0,0,1,369.283,181.921Zm.174-10.979a4.8,4.8,0,1,0,4.726,4.878A4.808,4.808,0,0,0,369.456,170.942Z" transform="translate(-363.202 -169.567)"/></g><g transform="translate(3.991 15.603)"><path class="s" d="M380.623,160.4c-10.059,1.956-13.023,6.317-14.219,22.229-1.25,16.626.366,21.884,2.517,24.16,1.452,1.535,9.649,1.938,13.8.864,5.2-1.347,16.968-5.309,22.582-13.594,6.6-9.746,8.507-23.067,1.691-28.651C397.406,157.544,384.717,159.6,380.623,160.4Z" transform="translate(-365.967 -159.551)"/></g><path class="t" d="M379.44,195.4c-4.327.478-10.147-.014-11.349-1.285,4.833.3,10.758-2.118,10.758-2.118Z" transform="translate(-361.146 -131.278)"/><g transform="translate(0.807)"><path class="p" d="M363.677,168.685a6.147,6.147,0,0,0,1.453,4,7.03,7.03,0,0,0,6.825,2,4.647,4.647,0,0,0,5.291,6.164c-.477.12.8,3.827.927,4.2a5.108,5.108,0,0,0,2.642,3.209s1.76-6.41,7.172-5.516c5.447.9,6.074,7.873,2.567,12.047s-6.69,2.5-6.69,2.5.024,9.2,4.016,14.475c0,0,4.615,1.574,13.175-.108,5.26-1.036,12.779-7.473,16.006-14.364,6.826-14.577,7.5-27.781-1.816-31.888-.371-.175-.507-1.976-.613-2.361a11.233,11.233,0,0,0-1.21-2.942,12.3,12.3,0,0,0-5.2-4.53,26.778,26.778,0,0,0-9.909-2.112,61.944,61.944,0,0,1-10.13-1.033c-2.984-.7-5.8-1.976-8.711-2.923a17.26,17.26,0,0,0-9.037-.893c-2.99.674-5.787,2.9-6.371,5.905-.656,3.38,1.308,6.189,3.346,8.659a6.13,6.13,0,0,0-3.569,4.171A5.854,5.854,0,0,0,363.677,168.685Z" transform="translate(-363.677 -148.33)"/></g><g transform="translate(14.507 15.147)"><g transform="translate(36.07)"><path class="p" d="M399.926,164.428l6.054-3.443a3.482,3.482,0,1,0-6.054,3.443Z" transform="translate(-399.47 -159.223)"/></g><g transform="translate(0 21.424)"><path class="p" d="M376.865,181.592l.295-6.958a3.482,3.482,0,0,0-.295,6.958Z" transform="translate(-373.53 -174.631)"/></g></g><path class="p" d="M363.639,173.019l18.612,2.708-.772,1.3-17.862-2.605Z" transform="translate(-362.893 -138.689)"/></g><g transform="translate(66.185 64.657)"><g transform="translate(0 4.043)"><path class="c" d="M425.953,209.381c-2.207-8.625-5.321-11.442-12.83-11.643a96.1,96.1,0,0,0-11.543,1.474c-.79,3.643-10.209,6.124-19.745,4.153-2.835.829-10.341,2.87-12.7,3.725-6.747,2.449-10.016,9.453-10.462,31.691,0,0-1.29,52.739.02,61.844,17.009,6.63,34.661,6.332,44.408,4.152,20.29-4.541,22.7-12.98,22.7-12.98s-1.064-21.166-1.753-37.263c1.016-10.249,2.546-17.958,3.1-26.133A68.75,68.75,0,0,0,425.953,209.381Z" transform="translate(-358.109 -197.736)"/></g><g class="u" transform="translate(0 4.043)"><path d="M425.953,209.381c-2.207-8.625-5.321-11.442-12.83-11.643a96.1,96.1,0,0,0-11.543,1.474c-.79,3.643-10.209,6.124-19.745,4.153-2.835.829-10.341,2.87-12.7,3.725-6.747,2.449-10.016,9.453-10.462,31.691,0,0-1.29,52.739.02,61.844,17.009,6.63,34.661,6.332,44.408,4.152,20.29-4.541,22.7-12.98,22.7-12.98s-1.064-21.166-1.753-37.263c1.016-10.249,2.546-17.958,3.1-26.133A68.75,68.75,0,0,0,425.953,209.381Z" transform="translate(-358.109 -197.736)"/></g><g transform="translate(16.585)"><path class="c" d="M399.042,194.893l.15,2.022s-1,2.856-6.731,3.921c-9.643,1.79-13.015-1.2-13.015-1.2L379.2,197.9s-.925-.381-2.489.823-6.673,7.813-6.673,7.813,1.837-.537,7.865,2.027a28.753,28.753,0,0,0,18.813.709,10.369,10.369,0,0,0,6.873-7.715C403.828,199.789,400.7,194.17,399.042,194.893Z" transform="translate(-370.036 -194.829)"/><path class="v" d="M399.042,194.893l.15,2.022s-1,2.856-6.731,3.921c-9.643,1.79-13.015-1.2-13.015-1.2L379.2,197.9s-.925-.381-2.489.823-6.673,7.813-6.673,7.813,1.837-.537,7.865,2.027a28.753,28.753,0,0,0,18.813.709,10.369,10.369,0,0,0,6.873-7.715C403.828,199.789,400.7,194.17,399.042,194.893Z" transform="translate(-370.036 -194.829)"/></g></g><g transform="translate(0 78.429)"><path class="s" d="M385.591,205.081c-8.045,1.549-15.106,5.224-14.966,14.763.238,16.176-3.643,28.394-5.993,35.8-2.509,7.909-23.132,31.57-28.22,33.052s-12.387-1.719-14.153.844,5.242,5.69,5.518,7.014-8.6,4.771-14.009,3.836-4.1,5.683,4.057,9.332,18.221-.552,27.888-7.779,29.016-22.668,34-33.311c6.047-12.912,9.426-25,10.167-34.345C391.2,215.082,385.591,205.081,385.591,205.081Z" transform="translate(-310.51 -204.599)"/><g transform="translate(37.757)"><path class="c" d="M375.951,204.734s-8.336,0-13.318,4.952c-4.249,4.223-4.817,11.02-5.992,24.43a109.153,109.153,0,0,1-3.841,20.9c-1,3.407-15.137,23.036-15.137,23.036s5.748,8.571,11.526,13.136c0,0,12.969-10.69,19.569-19.649s11.025-34.4,11.025-34.4S383.22,217.6,375.951,204.734Z" transform="translate(-337.664 -204.734)"/><path class="v" d="M375.951,204.734s-8.336,0-13.318,4.952c-4.249,4.223-4.817,11.02-5.992,24.43a109.153,109.153,0,0,1-3.841,20.9c-1,3.407-15.137,23.036-15.137,23.036s5.748,8.571,11.526,13.136c0,0,12.969-10.69,19.569-19.649s11.025-34.4,11.025-34.4S383.22,217.6,375.951,204.734Z" transform="translate(-337.664 -204.734)"/></g><g transform="translate(32.294 72.385)"><path class="c" d="M339.855,256.791a38.186,38.186,0,0,0,11.91,13.194,87.018,87.018,0,0,1-7.069,5.448s-6.822-2.424-10.96-11.8Z" transform="translate(-333.735 -256.791)"/><path class="w" d="M339.855,256.791a38.186,38.186,0,0,0,11.91,13.194,87.018,87.018,0,0,1-7.069,5.448s-6.822-2.424-10.96-11.8Z" transform="translate(-333.735 -256.791)"/><path class="p" d="M336.378,261.758a1.022,1.022,0,1,0,.484-1.361A1.022,1.022,0,0,0,336.378,261.758Z" transform="translate(-332.742 -255.422)"/></g></g></g><g transform="translate(249.148 38.759)"><g transform="translate(73.934)"><path class="p" d="M238.944,94.535H260.22a31.052,31.052,0,0,0,31.051-31.053h0a24.723,24.723,0,0,0-24.723-24.723h-2.88a24.724,24.724,0,0,0-24.724,24.723Z" transform="translate(-238.944 -38.759)"/></g><path class="x" d="M257.25,94.967c-5.234,9.987-10.2,22.16-14.082,26.2-7.364,3.425-24.188,9.832-30.957,10.714a5.038,5.038,0,0,1-3.4-.8c-2.661-1.745-4.719-2.027-7.525-3-2.2-.761-3.129-1.809-3.54-1.41a2.5,2.5,0,0,0,.229,3.48,18.1,18.1,0,0,0,3.476,2.6,20.583,20.583,0,0,1-9.163.157c-5.858-1.538-8.625,1.279-4.662,7.641,1.418,2.279,7.005,5.926,18.327,4.942a100.638,100.638,0,0,0,12.029-1.422c10.86-2.318,22.455-5.707,29.878-7.923a19.252,19.252,0,0,0,7.208-5c12.484-14.23,18.613-26.844,24.086-36.058l-3.98-13.748C266.333,81.074,261.754,86.373,257.25,94.967Z" transform="translate(-185.773 -22.132)"/><path class="p" d="M261.272,81.374c-6.815-.5-9.4.766-12.5,3.814-7.442,7.321-18.781,35.149-18.971,35.384s-8.414,3.973-8.414,3.973,4.386,7.358,3.371,14.317c0,0,8.055-1.773,10.938-2.876s3.9-1.865,6.612-5,17.873-21.109,17.873-21.109Z" transform="translate(-171.867 -22.159)"/><g transform="translate(48.716 59.006)"><g transform="translate(22.136 31.331)"><path class="o" d="M240.648,103.726a58.628,58.628,0,0,1,1.176,14.821c-.451,6.535-5.1,18.513-5.1,18.513s3.66,3.329,13.621,1.77c8.1-1.268,5.239-25.717.58-30.455A15.335,15.335,0,0,0,240.648,103.726Z" transform="translate(-236.727 -103.726)"/></g><g transform="translate(0 52.464)"><g transform="translate(65.325 140.432)"><path class="p" d="M283.667,253.714a59.927,59.927,0,0,1,.932,9.771c.111,5.932,1.2,8.037,1.346,12.905.164,5.561-.8,7.642-3.053,10.769s-8.18,5.962-10.685.679c-2.534-5.349-2.182-8.746-1.381-14.2.827-5.641.933-8.757,1.413-13.06.423-3.792.929-6.672.929-6.672Z" transform="translate(-266.831 -206.721)"/><path class="x" d="M267.787,220.271l19.538-.353c-.291,13.043-2.362,34.756-2.7,46.993-.064,2.3.058,17.9-.811,22.64-1.306,7.121-9.759,6.16-10.208,1.9s.545-22.47.519-24.348c.074-7.848-3.6-28.331-5.534-42.421C268.495,223.988,267.876,220.947,267.787,220.271Z" transform="translate(-267.787 -219.918)"/></g><g transform="translate(0 140.432)"><path class="p" d="M257.416,246.415s1.009.057,1.169.88c.189.979.231,2.527.638,4.134a23.377,23.377,0,0,1,.7,7.737c-.338,1.82-4.5,4.533-7.339,5.011s-6.857,3.287-9.084,5.383a21.8,21.8,0,0,1-12.631,4.967c-4.746-.035-8.055-1.581-9.618-4.121-1.634-2.654,1.424-2.849,6.85-6.368,1.231-.8,2.634-1.7,4.21-2.734,8.593-5.613,11.74-8.623,14.171-14.236Z" transform="translate(-220.808 -209.571)"/><path class="x" d="M244.363,253.707c.143-4.038-1.926-33.789-1.926-33.789l16.807,1.891c-3.974,23.716-4.3,31.8-3.842,35.249h0a3.372,3.372,0,0,1,.1.993c-.015,4.608-5.216,7.093-9.272,10.165-1.6,1.212-5.721,4.953-10.547,6.6-3.123,1.062-8.9,1.464-9.636-.431,4.936-3.77,11.654-8.695,15.579-13C243.506,259.328,244.219,257.747,244.363,253.707Z" transform="translate(-218.76 -219.918)"/></g><path class="n" d="M285.982,118.924a71.034,71.034,0,0,1,12.3,25.322c5.544,22.4-3.169,70.333-3.169,70.333.275,3.25,3.991,9.644,5.376,23.947,1.635,16.9-3.02,62.139-3.02,62.139S293,304,286.526,300.9c0,0-11.829-66.471-13.948-83.274-1.849-14.663-5.614-45.126-5.614-45.126L258.5,217.544s1.182,8.215,1.787,14.472c.958,9.884-8.666,59.486-8.666,59.486s-4.5,2.376-10.9-.213c0,0-4.265-64.081-5.157-75.988-.918-12.249,2.262-40.811,4.61-63.542.708-6.852,3.962-25.078,5.173-30.947Z" transform="translate(-215.111 -118.924)"/><path class="y" d="M263.252,162.832l-2.019-13.877a34.428,34.428,0,0,1-16.329-5.28s5.029,6.829,13.671,7.648l1.272,12.416-4.041,38.693Z" transform="translate(-211.398 -109.259)"/></g><g transform="translate(24.395)"><path class="e" d="M243.393,118.85c.213,4.077.794,16.7.794,16.7,16.642,11.266,40.642-1.888,40.642-1.888L288.292,110s-8.684-12.159-.534-24.966l-13.008-2.57-15.5-1.271-4.6.209c-5.084,3.729-12.894,11.914-14.527,16.094C238.452,101.762,236,110.144,243.393,118.85Z" transform="translate(-238.351 -81.194)"/></g><g class="z" transform="translate(24.395)"><path class="g" d="M243.393,118.85c.213,4.077.794,16.7.794,16.7,16.642,11.266,40.642-1.888,40.642-1.888L288.292,110s-8.684-12.159-.534-24.966l-13.008-2.57-15.5-1.271-4.6.209c-5.084,3.729-12.894,11.914-14.527,16.094C238.452,101.762,236,110.144,243.393,118.85Z" transform="translate(-238.351 -81.194)"/></g><g transform="translate(55.185 1.439)"><path class="o" d="M266.96,82.229s14.717.651,17.516,1.986,7.453,9.378,3.284,21.079-7.944,25.436-7.517,28.2,10.369,17.049,10.369,17.049c-2.891,1.867-5.957,3.8-9.151,4.394l-5.1-11.13,1.2,11.828s-9.17,2.221-15.722,1.652C261.837,157.288,256.55,112.514,266.96,82.229Z" transform="translate(-260.495 -82.229)"/></g></g><path class="p" d="M271.794,38.759,270.1,45.242a3.253,3.253,0,0,0,4.121-2.272A3.518,3.518,0,0,0,271.794,38.759Z" transform="translate(-152.842 -38.759)"/><path class="p" d="M277.2,43.007l-6.694.245a3.251,3.251,0,0,0,3.359,3.294A3.519,3.519,0,0,0,277.2,43.007Z" transform="translate(-152.684 -37.1)"/><g transform="translate(77.771 11.747)"><path class="x" d="M247.569,47.207c-2.763,1.634-6.179,8.585-5.843,23.156.286,12.35,4.29,15.4,6.3,16.28s5.887.343,9.656-.284v7.411s-5.209,6.05-4.881,9.448,7.521,4.2,12.395.882a31.553,31.553,0,0,0,8-8.374V76.52s2.061,2.187,5.712-.316a6.732,6.732,0,0,0,1.723-9.772c-1.581-1.865-5.62-2-7.562.9,0,0-5.06-.446-13.064-4.843A25.792,25.792,0,0,1,247.569,47.207Z" transform="translate(-241.703 -47.207)"/><g transform="translate(15.193 18.514)"><path class="p" d="M252.632,62.061a1.554,1.554,0,1,0,1.632-1.538A1.581,1.581,0,0,0,252.632,62.061Z" transform="translate(-252.63 -60.522)"/></g><g transform="translate(9.791 30.523)"><path class="aa" d="M252.352,69.158l-3.607,1.15a1.86,1.86,0,0,0,2.344,1.295A1.983,1.983,0,0,0,252.352,69.158Z" transform="translate(-248.745 -69.158)"/></g><g transform="translate(1.113 12.24)"><path class="p" d="M242.817,59.054l3.142-2.178a1.836,1.836,0,0,0-2.61-.535A2.007,2.007,0,0,0,242.817,59.054Z" transform="translate(-242.504 -56.009)"/></g><g transform="translate(2.148 17.391)"><path class="p" d="M243.251,61.253a1.554,1.554,0,1,0,1.632-1.538A1.578,1.578,0,0,0,243.251,61.253Z" transform="translate(-243.248 -59.714)"/></g><g transform="translate(5.604 18.041)"><path class="aa" d="M250.9,60.182l-.247,9.349-4.92-1.524Z" transform="translate(-245.734 -60.182)"/></g><g transform="translate(15.978 33.054)"><path class="aa" d="M253.194,77.077c3.971-.521,12.143-2.869,13.416-6.1a8.364,8.364,0,0,1-2.864,4.123c-2.442,2.091-10.551,4.448-10.551,4.448Z" transform="translate(-253.194 -70.978)"/></g></g><path class="x" d="M308.281,135.373c-2.568-10.026-13.479-31.968-16.576-40.021-3.537-9.2-9.625-12.449-16.2-12.542-2.418,3.122-3.433,18.787,4.021,27.763,3.172,6.681,12.688,25.377,12.688,25.377-.247,1.8-6.893,25.069-9.721,31.19a4.886,4.886,0,0,1-2.506,2.4c-2.938,1.279-6.378,4.491-8.718,6.309-1.831,1.421-3.243,1.632-3.113,2.191a2.636,2.636,0,0,0,3.163,1.682,41.752,41.752,0,0,0,5.818-2.347,72.313,72.313,0,0,1-5.818,7.962c-3.949,4.552-3.813,8.454,3.878,8.574,5.819.09,8.885-3.183,14.041-13.15,1.485-2.873,3.117-7.19,4.895-10.883,4.491-9.329,7.332-13.2,9.785-19.167C307.789,141.3,309.271,139.238,308.281,135.373Z" transform="translate(-153.606 -21.558)"/><path class="p" d="M271.436,82.638c7.282-.067,12.662.59,16.86,6.755s17.186,38.571,18.628,42.769,2.4,7.624-3.653,17.456a31.622,31.622,0,0,1-14.47-5.092l1.461-8.429-12.726-24.663A44.375,44.375,0,0,1,271.436,82.638Z" transform="translate(-152.477 -21.626)"/></g><g transform="translate(57.218 160.204)"><g transform="translate(84.714 63.657)"><path class="s" d="M110.1,172.767c8.275,2.748,10.3,3.355,16.028,12.27,5.5,8.556,11.168,24.371,16.092,37.061,9.1-2.585,28.411-7.083,34.782-10.786s5.74-6.26,8.322-8.638c3-2.759,6.139-9.358,8.584-5.737,1.652,2.446-1.763,4.094-1.549,7.185s9.585-4.238,13.509-6.982c2.6-1.822,8.638,3.885,6.217,10.08-2.146,5.487-5.575,8.962-11.726,11.563-6.5,2.75-9.895,4.126-18.056,7.79-8.528,3.829-43.659,19.385-47.131,17.213-7.92-3.914-15.165-28.393-19.956-38.974S113.582,183.34,110.1,172.767Z" transform="translate(-108.106 -171.53)"/><path class="o" d="M108.667,172.1c3.543,4.671,2.083,2.785,3.179,9.984.883,5.809,13.085,61.688,24.131,64.006,4.849,1.016,39.818-14.977,48.3-19.652-2.863-4.23-5.727-9.446-6.706-14.775-10.16,3.973-27.675,7.891-33.973,9.843-2.91-8.121-6.47-16.458-9.81-24.651C127.425,181.254,123.832,170.162,108.667,172.1Z" transform="translate(-108.667 -171.877)"/></g><g transform="translate(34.061 155.722)"><rect class="s" width="13.624" height="23.323" transform="translate(16.843 184.701) rotate(180)"/><path class="s" d="M111.313,368.067l14.867.512.744-26.949-16.842-.551Z" transform="translate(-57.462 -197.87)"/><path class="p" d="M77.134,240.773c0,12.4-.855,84.5-.855,84.5-.3,3.568-3.736,9.913-4,22.765-.388,18.638,2.478,62.542,2.478,62.542a17.087,17.087,0,0,0,14.458.286s10.2-62.1,12.527-80.549c2.03-16.1,7.831-58.229,7.831-58.229l8.771,54.723a91.334,91.334,0,0,0-.724,19.8c.606,8.533,7.065,50.951,7.065,50.951a28.51,28.51,0,0,0,17.334.157s1.353-66.093,1.5-73.923c.171-8.927-3.722-85.71-3.722-85.71Z" transform="translate(-72.239 -238.088)"/><path class="p" d="M89.072,366.633v-1.947c.73-.015,1.183.711,1.461,2.464.2,1.254.384,2.2.8,3.855a45.8,45.8,0,0,0,2.379,6.973c1.926,4.746,3.544,6.513,7.954,12.061,1.047,1.317,3.408,3.407,4.231,4.874s1.114,5.544-.285,6.477c-5.145,3.429-12.955,3.525-18.481,1.9a11.157,11.157,0,0,1-8.023-9.015c-.2-1.256-.127-2.539-.271-3.8a18.044,18.044,0,0,0-3.412-7.915,24.008,24.008,0,0,1-2.617-4.306c-1.144-2.8-.227-5.951.5-8.741.631-2.408,1.315-5.057,2.139-4.831,0,.293,0,1.485,0,1.485.989,1.1,3.725,2.185,6.811,2.3C84.253,368.549,89.089,368.154,89.072,366.633Z" transform="translate(-72.229 -188.657)"/><path class="p" d="M127.25,357.831c.773.026,1.4,1.117,3.1,2.96a32.526,32.526,0,0,0,8.75,6.3c5.57,2.788,16.4,7.078,21.3,9.286,3.062,1.378,2.919,5.077-.246,7.182s-10.806,3.621-19.981,1.568c-5-1.118-11.505-5.734-15.624-5.486s-11.823.191-14.863-1.9-1.824-6.57-.965-10.415c.937-4.2,1.88-10.742,3.27-10.455l.071,1.566c1.788,2.707,11.175,3.69,15.1,1.7Z" transform="translate(-58.374 -191.71)"/><path d="M99.086,265.693s11.584-3.779,19.289-11.224c0,0-3.489,6.534-13.866,12.613L107,315.045Z" transform="translate(-61.755 -231.691)"/></g><g transform="translate(0 62.713)"><path class="n" d="M98.347,172.143c-2.759.663-9.414,1.478-14.292,2.874-3.6,1.03-5.106,5.419-5.857,8.721-2.4,10.571-2.817,32.746-2.817,32.746l-.136,51.646c8.944,6.514,45.7,9.822,64.518-3.923,0,0-2.3-61.506-2.3-71.08s-5.32-21.076-20.008-21.93Z" transform="translate(-37.004 -171.199)"/><g transform="translate(0 3.694)"><path class="s" d="M68.036,224.1S79.43,241.407,81.39,243.67s3.293,1.51,5.41.5a59.4,59.4,0,0,1,7.919-2.766c3.483-.923,4.234,2.514.784,4.967-2.495,1.772-5.351,2.546-4.156,4s4.883,4,8.312,5.449c8.408,3.546,8.706,5.711,7.157,8.623-1.347,2.536-6.364,9.46-21.405,3-6.206-2.664-14.806-12.078-18.927-16.961-5.947-7.046-14.091-20.756-14.091-20.756Z" transform="translate(-45.928 -154.235)"/><path class="o" d="M94.795,173.98c-13.706-1.169-17.246,5.872-26.977,23.145-8.534,15.148-19.755,33.984-20.073,41.782-.1,2.531,10.9,20.105,18.763,29.038,6.811-.318,11.757-2.946,14.972-6.971-1.872-3.127-11.986-21.457-11.986-21.457l18.072-27.9a36.839,36.839,0,0,0,7.367-14.734C97.27,186.6,96.346,176.366,94.795,173.98Z" transform="translate(-47.743 -173.856)"/></g></g><g transform="translate(46.632)"><path class="p" d="M94.121,147.091a17.236,17.236,0,1,0,17.235-17.235A17.234,17.234,0,0,0,94.121,147.091Z" transform="translate(-76.266 -124.63)"/><path class="p" d="M85.089,151.065S87.883,164.186,89,166.342a5.94,5.94,0,0,0,3.433,2.769l-.195-9.23Z" transform="translate(-79.793 -116.348)"/><path class="p" d="M89.259,136.178a7.1,7.1,0,0,0-5.11,2.225c-2.3,2.35-1.086,11.27,1.777,18.477l5.262.6Z" transform="translate(-80.63 -122.163)"/><path class="s" d="M93.416,159.225c-1.055.63-2.56-1.4-3.861-2.757s-5.548-3.222-7.667,1.243c-2.158,4.548,1.87,10.56,5.214,11.609,5.762,1.809,6.627-1.887,6.627-1.887l.425,21.421h0c3.985,5.107,12.934,11.111,17.754,10.254,3.845-.684,4.685-7.181,1.008-11.44l-.017-6.325s5.221.793,7.767.4c4.238-.654,6.9-4,8.19-8.585,2.064-7.367,2.848-13.315,1.1-27.806-1.92-15.881-20.393-16.046-30.367-9.768S93.416,159.225,93.416,159.225Z" transform="translate(-81.28 -123.901)"/><path class="p" d="M129.789,141.088a8.862,8.862,0,0,1-3.561,3.469,20.7,20.7,0,0,1-12.179,2.41c-4.386-.478-8.385-2.592-12.273-4.553a8.678,8.678,0,0,1-1.987,4.365c-2.4,2.446-3.779,2.5-4.722,3.1-.363,2.856-.35,6.526-.526,9.4-.06.971-.056,6.024-2.357,4.58a11.76,11.76,0,0,1-2.007-2.251,33.6,33.6,0,0,0-2.648-2.941c-.679-.617-.635-2.055-.672-2.878a41.566,41.566,0,0,1,.175-5.163c.143-1.776.444-3.543.6-5.312a8.45,8.45,0,0,0-.706-2.938,10.432,10.432,0,0,1-.449-3.368c.189-3.555,2.916-6.576,6.111-8.147,4.473-2.2,9.879-2.542,14.759-2.143,4.361.357,8.864.865,13.022-.5,1.6-.526,3.116-1.321,4.743-1.78a6.428,6.428,0,0,1,4.924.3c3.148,1.827,3.346,7.423.238,9.329-.213.131-.453.266-.533.5a1.122,1.122,0,0,0,.177.791A4.135,4.135,0,0,1,129.789,141.088Z" transform="translate(-79.256 -126.098)"/><path class="p" d="M88.533,139.039l-6.38-3.423a3.515,3.515,0,0,1,4.829-1.6A3.805,3.805,0,0,1,88.533,139.039Z" transform="translate(-80.939 -123.168)"/><path class="t" d="M108.889,169.707s-9.46-1.906-12.766-3.664a10.9,10.9,0,0,1-4.572-4.523,14.907,14.907,0,0,0,2.6,5.335c2.418,3.092,14.741,5.369,14.741,5.369Z" transform="translate(-77.269 -112.265)"/><g transform="translate(24.151 22.837)"><path class="p" d="M104.468,149.682a2.03,2.03,0,1,1-2.029-2.114A2.061,2.061,0,0,1,104.468,149.682Z" transform="translate(-97.96 -140.551)"/><path class="p" d="M103.128,144.514l-4.2,2.317a2.518,2.518,0,0,1,.979-3.343A2.34,2.34,0,0,1,103.128,144.514Z" transform="translate(-98.648 -142.257)"/><path class="t" d="M103.487,159.015l4.692,1.76a2.462,2.462,0,0,1-3.186,1.556A2.626,2.626,0,0,1,103.487,159.015Z" transform="translate(-96.816 -136.081)"/><path class="p" d="M116.449,146.468l-3.829-2.949a2.322,2.322,0,0,1,3.329-.51A2.539,2.539,0,0,1,116.449,146.468Z" transform="translate(-93.192 -142.521)"/><path class="p" d="M115.854,149.388a1.964,1.964,0,1,1-1.962-2.045A1.993,1.993,0,0,1,115.854,149.388Z" transform="translate(-93.462 -140.639)"/><path class="t" d="M107.195,147.653l.675,12.36,6.453-2.2Z" transform="translate(-95.311 -140.518)"/></g><g transform="translate(7.453 56.591)"><path class="ab" d="M114.09,180.592c-1.2,2.86-3.425,4.027-7.453,4.479A14.957,14.957,0,0,1,95.5,181.194l5.01-4.986,6.35,4.785.541-5.331Z" transform="translate(-83.182 -163.334)"/><path class="ac" d="M114.09,180.592c-1.2,2.86-3.425,4.027-7.453,4.479A14.957,14.957,0,0,1,95.5,181.194l5.01-4.986,6.35,4.785.541-5.331Z" transform="translate(-83.182 -163.334)"/><g transform="translate(18.168 15.696)"><path class="ab" d="M109.291,178.084a13.313,13.313,0,0,1,.662,5.36,9.166,9.166,0,0,1-1.79,4.466,4.914,4.914,0,0,1-4.329.471,11.819,11.819,0,0,1-4.12-8.963l5.5.627Z" transform="translate(-99.706 -178.084)"/><path class="ab" d="M107.722,185.151s6.519,35.972,6.781,38.876-3.743,13.217-6.228,13.3-7.364-9.25-7.438-11.889,2.556-39.82,2.556-39.82Z" transform="translate(-99.264 -175.324)"/><path class="o" d="M102.695,185.622a4.355,4.355,0,0,0,4.329-.471l.1.569a4.96,4.96,0,0,1-4.5.891Z" transform="translate(-98.566 -175.324)"/></g><path class="o" d="M110.315,184.454l-18.346-13.99-.074-3.668s-4.3,1.139-5.255,8.673c2.617,6.078,7.357,11.266,14.321,15.234l3.856-6.876Z" transform="translate(-86.64 -166.796)"/><path class="o" d="M104.158,168.064s4.312,2,6.153,5.039,1.826,12.883,1.826,12.883L107.744,182l-4.078,1.962c.392-3.861.509-10.482.509-10.482Z" transform="translate(-79.991 -166.301)"/></g></g></g></g></svg>