<svg xmlns="http://www.w3.org/2000/svg" width="52.401" height="45.566" viewBox="0 0 52.401 45.566"><defs><style>.a{fill:#f03a01;fill-rule:evenodd;}</style></defs><path class="a" d="M48.844,39.313H33.118a13.073,13.073,0,0,0,5.013,7.974H40.87a1.139,1.139,0,1,1,0,2.278H13.531a1.139,1.139,0,1,1,0-2.278h2.737a13.073,13.073,0,0,0,5.013-7.974H5.557A4.557,4.557,0,0,1,1,34.757V8.557A4.557,4.557,0,0,1,5.557,4H48.844A4.557,4.557,0,0,1,53.4,8.557v26.2A4.557,4.557,0,0,1,48.844,39.313ZM19.679,47.287H34.721a14.521,14.521,0,0,1-3.94-7.974H23.619A14.521,14.521,0,0,1,19.679,47.287ZM51.122,8.557a2.279,2.279,0,0,0-2.278-2.278H5.557A2.279,2.279,0,0,0,3.278,8.557V30.2H51.122Zm0,23.922H3.278v2.278a2.279,2.279,0,0,0,2.278,2.278H48.844a2.279,2.279,0,0,0,2.278-2.278ZM27.2,35.9a1.139,1.139,0,1,1,1.139-1.139A1.138,1.138,0,0,1,27.2,35.9Z" transform="translate(-1 -4)"/></svg>