<svg xmlns="http://www.w3.org/2000/svg" width="30" height="30" viewBox="0 0 30 30"><g transform="translate(0.657 0.657)"><path d="M17.25,2.25a15,15,0,1,0,15,15A15,15,0,0,0,17.25,2.25Zm8.571,24.556v-.651a5.581,5.581,0,0,0-5.357-5.69H14.036a5.571,5.571,0,0,0-5.347,5.69c0,.011-.01.024-.01.035v.627a12.863,12.863,0,1,1,17.143-.01Z" transform="translate(-2.907 -2.907)" fill="#4e5c73"/><path d="M16.687,7.875A4.312,4.312,0,1,0,21,12.187a4.312,4.312,0,0,0-4.312-4.312Z" transform="translate(-2.345 -1.295)" fill="#4e5c73"/></g></svg>