<svg xmlns="http://www.w3.org/2000/svg" width="16" height="12.572" viewBox="0 0 16 12.572"><path d="M3.428,8a1.1,1.1,0,0,0-.335-.808,1.1,1.1,0,0,0-.808-.335,1.1,1.1,0,0,0-.808.335,1.142,1.142,0,0,0,0,1.616,1.1,1.1,0,0,0,.808.335,1.1,1.1,0,0,0,.808-.335A1.1,1.1,0,0,0,3.428,8ZM5.143,4A1.143,1.143,0,0,0,4,2.857,1.143,1.143,0,0,0,2.857,4,1.143,1.143,0,0,0,4,5.143,1.143,1.143,0,0,0,5.143,4ZM8.964,8.295l.9-3.411a.585.585,0,0,0-.41-.7.531.531,0,0,0-.428.058.562.562,0,0,0-.268.353l-.9,3.41A1.7,1.7,0,0,0,6.9,8.4a1.71,1.71,0,0,0-.384,2.183,1.641,1.641,0,0,0,1.044.795,1.669,1.669,0,0,0,1.3-.179,1.716,1.716,0,0,0,.741-2.089A1.7,1.7,0,0,0,8.964,8.3ZM14.857,8a1.143,1.143,0,1,0-.335.808A1.1,1.1,0,0,0,14.857,8ZM9.143,2.286a1.1,1.1,0,0,0-.335-.808,1.142,1.142,0,0,0-1.616,0,1.1,1.1,0,0,0-.335.808,1.1,1.1,0,0,0,.335.808,1.143,1.143,0,0,0,1.616,0,1.1,1.1,0,0,0,.335-.808Zm4,1.714a1.143,1.143,0,1,0-1.951.808A1.143,1.143,0,0,0,13.143,4ZM16,8a7.889,7.889,0,0,1-1.259,4.312.544.544,0,0,1-.482.259H1.741a.544.544,0,0,1-.482-.259,7.983,7.983,0,0,1-.625-7.42A7.859,7.859,0,0,1,4.893.634a7.933,7.933,0,0,1,6.214,0,7.859,7.859,0,0,1,4.259,4.259A7.822,7.822,0,0,1,16,8Z" fill="#3276ff"/></svg>