<svg xmlns="http://www.w3.org/2000/svg" width="19" height="14.9" viewBox="0 0 19 14.9"><path d="M19.541,7.712H6.741a1.593,1.593,0,0,0-1.592,1.6l-.008,9.6a1.6,1.6,0,0,0,1.6,1.6h12.8a1.6,1.6,0,0,0,1.6-1.6v-9.6a1.6,1.6,0,0,0-1.6-1.6Zm0,3.2-6.4,4-6.4-4v-1.6l6.4,4,6.4-4Z" transform="translate(-5.141 -7.712)" fill="#aab0c9"/><circle cx="4.5" cy="4.5" r="4.5" transform="translate(10 5.9)" fill="#fff"/><path d="M9.125,11.75a2.625,2.625,0,0,1,0-5.25,2.543,2.543,0,0,1,1.838.788l-1.4,1.4h3.063V5.625L11.6,6.653a3.5,3.5,0,1,0,.9,3.426h-.926A2.607,2.607,0,0,1,9.125,11.75Z" transform="translate(5.21 1.275)" fill="#aab0c9"/></svg>