<svg xmlns="http://www.w3.org/2000/svg" width="22" height="20.37" viewBox="0 0 22 20.37"><defs><style>.a{fill:#D2D5D9;}</style></defs><path class="a" d="M24.869,26.154H6.128a1.63,1.63,0,0,1-1.63-1.63V15.246a41.584,41.584,0,0,0,8.148,3.08v1.5a.814.814,0,0,0,.815.815h4.074a.815.815,0,0,0,.815-.815v-1.5a41.608,41.608,0,0,0,8.148-3.08v9.279A1.63,1.63,0,0,1,24.869,26.154ZM16.721,15.377a.815.815,0,0,1,.815.815v2.815a.815.815,0,0,1-.815.815H14.277a.814.814,0,0,1-.815-.815V16.192a.814.814,0,0,1,.815-.815Zm1.63,0a.815.815,0,0,0-.815-.815H13.462a.814.814,0,0,0-.815.815v1.229A40.936,40.936,0,0,1,4.5,13.436V10.673a1.63,1.63,0,0,1,1.63-1.63h4.889V7.414a1.63,1.63,0,0,1,1.63-1.63h5.7a1.63,1.63,0,0,1,1.63,1.63v1.63h4.889a1.63,1.63,0,0,1,1.63,1.63v2.763a40.96,40.96,0,0,1-8.148,3.17V15.377Zm0-7.148a.815.815,0,0,0-.815-.815H13.462a.814.814,0,0,0-.815.815v.815h5.7Z" transform="translate(-4.499 -5.784)"/></svg>