<svg xmlns="http://www.w3.org/2000/svg" width="12" height="12" viewBox="0 0 12 12">
  <path id="Icon_awesome-save" data-name="Icon awesome-save" d="M11.623,4.873,9.377,2.627a1.286,1.286,0,0,0-.909-.377H1.286A1.286,1.286,0,0,0,0,3.536v9.429A1.286,1.286,0,0,0,1.286,14.25h9.429A1.286,1.286,0,0,0,12,12.964V5.783a1.286,1.286,0,0,0-.377-.909ZM6,12.536a1.714,1.714,0,1,1,1.714-1.714A1.714,1.714,0,0,1,6,12.536ZM8.571,4.379V7.071a.321.321,0,0,1-.321.321H2.036a.321.321,0,0,1-.321-.321V4.286a.321.321,0,0,1,.321-.321H8.157a.321.321,0,0,1,.227.094l.093.093A.321.321,0,0,1,8.571,4.379Z" transform="translate(0 -2.25)" fill="#3276ff"/>
</svg>
