<svg xmlns="http://www.w3.org/2000/svg" width="17" height="13.602" viewBox="0 0 17 13.602">
  <path id="icon-user-cross" d="M15.663,6.376l1.211-1.211a.428.428,0,0,0,0-.606l-.606-.606a.428.428,0,0,0-.606,0L14.452,5.164,13.24,3.953a.428.428,0,0,0-.606,0l-.606.606a.428.428,0,0,0,0,.606L13.24,6.376,12.029,7.587a.428.428,0,0,0,0,.606l.606.606a.428.428,0,0,0,.606,0l1.211-1.211L15.663,8.8a.428.428,0,0,0,.606,0l.606-.606a.428.428,0,0,0,0-.606ZM5.951,6.8a3.4,3.4,0,1,0-3.4-3.4A3.4,3.4,0,0,0,5.951,6.8Zm2.38.85H7.887a4.624,4.624,0,0,1-3.873,0H3.57A3.571,3.571,0,0,0,0,11.221v1.105A1.275,1.275,0,0,0,1.275,13.6h9.351A1.275,1.275,0,0,0,11.9,12.326V11.221A3.571,3.571,0,0,0,8.331,7.651Z" fill="#aab0c9"/>
</svg>
