<svg xmlns="http://www.w3.org/2000/svg" width="16" height="16.003" viewBox="0 0 16 16.003"><g transform="translate(-28.836 -258)"><path d="M15.782,13.835,12.667,10.72a.749.749,0,0,0-.531-.219h-.509A6.5,6.5,0,1,0,10.5,11.626v.509a.749.749,0,0,0,.219.531l3.116,3.116a.747.747,0,0,0,1.059,0l.884-.884a.754.754,0,0,0,0-1.063ZM6.5,10.5a4,4,0,1,1,4-4A4,4,0,0,1,6.5,10.5Z" transform="translate(28.836 258)" fill="#3276ff"/><path d="M6,9.017h.752V4.5H6Zm1.5,1.5H8.26V3H7.508ZM4.5,7.513h.752v-1.5H4.5Zm4.513,1.5h.752V4.5H9.013Zm1.5-3.008v1.5h.752v-1.5Z" transform="translate(27.365 257.663)" fill="#3276ff"/></g></svg>