<svg xmlns="http://www.w3.org/2000/svg" width="19.713" height="24" viewBox="0 0 19.713 24">
  <g id="volume-down" transform="translate(-4.5 -2.261)">
    <path id="Path_8654" data-name="Path 8654" d="M27.783,11.992l-1.3,1.149a5.145,5.145,0,0,1-.154,6.808l1.261,1.166a6.86,6.86,0,0,0,.2-9.08Z" transform="translate(-5.191 -2.314)" fill="#4e5c73"/>
    <path id="Path_8655" data-name="Path 8655" d="M18.219,26.261A.857.857,0,0,1,17.61,26l-6.533-6.6H5.357a.857.857,0,0,1-.857-.857V9.97a.857.857,0,0,1,.857-.857h5.719l6.533-6.6a.861.861,0,0,1,1.466.6V25.4a.857.857,0,0,1-.857.857Zm-12-8.574H11.36a1,1,0,0,1,.678.257l5.325,5.376V5.194L12.037,10.57a1,1,0,0,1-.678.257H6.215Z" fill="#4e5c73"/>
  </g>
</svg>
