<svg xmlns="http://www.w3.org/2000/svg" width="13.445" height="16" viewBox="0 0 13.445 16"><path d="M11.523,10.705a3.335,3.335,0,0,1,1.786-3.029,3.838,3.838,0,0,0-3.026-1.593c-1.268-.1-2.654.739-3.161.739-.536,0-1.765-.7-2.729-.7C2.4,6.151.281,7.708.281,10.877a8.9,8.9,0,0,0,.514,2.9C1.253,15.088,2.9,18.3,4.625,18.249c.9-.021,1.536-.639,2.708-.639,1.136,0,1.725.639,2.729.639,1.736-.025,3.229-2.947,3.665-4.261a3.541,3.541,0,0,1-2.2-3.283ZM9.5,4.84a3.364,3.364,0,0,0,.857-2.59A3.788,3.788,0,0,0,7.933,3.5a3.417,3.417,0,0,0-.914,2.568A3,3,0,0,0,9.5,4.84Z" transform="translate(-0.281 -2.25)"/></svg>