<svg xmlns="http://www.w3.org/2000/svg" width="25" height="25" viewBox="0 0 25 25" fill="none"><path d="M16.0919 12.8008L14.6867 14.206L16.0919 15.6113L14.2183 17.4849L20.9322 24.1989C21.869 25.1357 23.2743 25.1357 24.2111 24.1989C25.148 23.2621 25.148 21.8568 24.2111 20.92L16.0919 12.8008ZM22.1813 23.4182C21.5568 23.4182 20.9322 22.9498 20.9322 22.1691C20.9322 21.5445 21.4006 20.92 22.1813 20.92C22.962 20.92 23.4304 21.3884 23.4304 22.1691C23.4304 22.9498 22.962 23.4182 22.1813 23.4182Z" fill="rgb(255, 255, 255)"/><path d="M5.63026 12.4911L7.03551 11.5542L9.37759 8.89989L10.7828 10.3051L12.1881 8.89989L12.0319 8.74376C12.3442 7.96306 12.5004 7.18237 12.5004 6.24554C12.5004 2.81049 9.68987 0 6.25482 0C5.31799 0 4.53729 0.156139 3.7566 0.468416L8.28462 4.99643L5.00571 8.27534L0.477693 3.74732C0.165416 4.52802 0.00927734 5.30871 0.00927734 6.24554C0.00927734 9.52445 2.50749 12.0227 5.63026 12.4911Z" fill="rgb(255, 255, 255)"/><path d="M12.5004 16.8631L13.9057 15.614L12.5004 14.2087L21.4003 5.30882L23.274 4.68427L24.9915 1.24922L23.8985 0.15625L20.3073 1.71764L19.5266 3.5913L10.7829 12.4912L9.37764 11.0859L8.12853 12.4912C8.12853 12.4912 9.37764 13.428 7.9724 14.8333C7.1917 15.614 5.9426 14.6771 3.60052 17.0192L0.32161 20.2981C0.32161 20.2981 -0.615221 21.8595 1.25844 23.7332C3.1321 25.6068 4.69349 24.67 4.69349 24.67L7.9724 21.3911C10.1583 19.2051 9.37764 17.7999 10.0022 17.1753C11.4074 15.7701 12.5004 16.8631 12.5004 16.8631ZM7.66012 16.2385L8.75309 17.3315L2.81983 23.2647L1.72686 22.1718L7.66012 16.2385Z" fill="rgb(255, 255, 255)"/></svg>