<svg xmlns="http://www.w3.org/2000/svg" width="11.672" height="16.978" viewBox="0 0 11.672 16.978">
  <path id="icon-suggestion" d="M3.185,15.066a1.062,1.062,0,0,0,.178.587l.567.852a1.061,1.061,0,0,0,.883.474H6.86a1.061,1.061,0,0,0,.883-.474l.567-.852a1.061,1.061,0,0,0,.178-.587V13.795h-5.3l0,1.272ZM0,5.836A5.8,5.8,0,0,0,1.444,9.675a9.53,9.53,0,0,1,1.731,3.033l0,.026H8.493l0-.026a9.53,9.53,0,0,1,1.731-3.033A5.835,5.835,0,1,0,0,5.836ZM5.836,3.183A2.656,2.656,0,0,0,3.183,5.836a.531.531,0,1,1-1.061,0A3.718,3.718,0,0,1,5.836,2.122a.531.531,0,1,1,0,1.061Z" transform="translate(0 0)" fill="#fff"/>
</svg>
