<svg xmlns="http://www.w3.org/2000/svg" width="16" height="15.935" viewBox="0 0 16 15.935"><g transform="translate(-28.547 -258.544)"><path d="M18.2,10.233V7.854a1.6,1.6,0,0,0-1.6-1.6H11.8V5.2a1.2,1.2,0,1,0-1.6,0V6.254H5.4a1.6,1.6,0,0,0-1.6,1.6v2.4l-.058,0a.8.8,0,0,0-.742.8v1.6a.8.8,0,0,0,.8.8v4a1.6,1.6,0,0,0,1.6,1.6H16.6a1.6,1.6,0,0,0,1.6-1.6v-4a.8.8,0,0,0,.8-.8V11.1a.8.8,0,0,0-.058-.364.833.833,0,0,0-.742-.506ZM7,11.054c0-.883.538-1.6,1.2-1.6s1.2.717,1.2,1.6-.538,1.6-1.2,1.6S7,11.937,7,11.054Zm7.2,4.8c-.8,0-6.4,0-6.4,0v-1.6s5.6,0,6.4,0Zm-.4-3.2c-.662,0-1.2-.717-1.2-1.6s.538-1.6,1.2-1.6,1.2.717,1.2,1.6S14.461,12.653,13.8,12.653Z" transform="translate(25.547 255.427)" fill="#3276ff"/></g></svg>