<svg xmlns="http://www.w3.org/2000/svg" width="16" height="12.308" viewBox="0 0 16 12.308"><path d="M10.2,20.02a1.846,1.846,0,1,1,0-3.692c.054,0,.108,0,.161.007l1.984-3.307a1.846,1.846,0,1,1,3.093,0l1.984,3.307q.08-.007.161-.007c.041,0,.082,0,.122,0L20.984,10.6a1.846,1.846,0,1,1,1.525.806c-.041,0-.082,0-.122,0L19.11,17.133a1.846,1.846,0,1,1-3.071.033l-1.984-3.307c-.053,0-.107.007-.161.007s-.108,0-.161-.007l-1.984,3.307A1.846,1.846,0,0,1,10.2,20.02Z" transform="translate(-8.355 -7.712)" fill="#4e5c73" opacity="0.8"/></svg>