<svg xmlns="http://www.w3.org/2000/svg" width="24" height="21.806" viewBox="0 0 24 21.806">
  <g id="google" transform="translate(-2.883 -4.097)">
    <path id="amazon" d="M.048,18.577c.071-.117.184-.125.348-.023a23.21,23.21,0,0,0,11.872,3.169,23.5,23.5,0,0,0,8.453-1.595l.313-.141c.141-.062.235-.1.293-.129a.4.4,0,0,1,.528.129c.121.172.09.336-.121.481-.254.187-.6.41-1,.653a16.3,16.3,0,0,1-4.189,1.727,17.57,17.57,0,0,1-4.518.61,17.482,17.482,0,0,1-6.436-1.188A17.9,17.9,0,0,1,.155,18.921.3.3,0,0,1,0,18.7a.2.2,0,0,1,.051-.129Zm6.565-6.222A4.383,4.383,0,0,1,7.357,9.78,4.6,4.6,0,0,1,9.4,8.163a10.941,10.941,0,0,1,2.911-.719q.96-.105,1.923-.175V6.9a3.992,3.992,0,0,0-.3-1.876,1.637,1.637,0,0,0-1.442-.653h-.18a2.382,2.382,0,0,0-1.246.462,1.788,1.788,0,0,0-.676,1.1.561.561,0,0,1-.438.508l-2.52-.317c-.246-.059-.371-.18-.371-.387a.579.579,0,0,1,.023-.152A4.207,4.207,0,0,1,8.9,2.7a6.954,6.954,0,0,1,3.388-1.051h.544a5.548,5.548,0,0,1,3.888,1.29c.137.152.269.3.407.481a2.868,2.868,0,0,1,.281.45,1.929,1.929,0,0,1,.195.57c.059.254.106.422.137.512a3.048,3.048,0,0,1,.074.614c.012.313.019.5.019.556v5.283A3.343,3.343,0,0,0,18,12.442a2.349,2.349,0,0,0,.317.672l.512.676a.67.67,0,0,1,.133.359.376.376,0,0,1-.18.313c-1.2,1.051-1.86,1.621-1.962,1.711a.58.58,0,0,1-.63.047,6.638,6.638,0,0,1-.528-.5l-.308-.348q-.167-.206-.32-.422l-.3-.434a5.354,5.354,0,0,1-2.4,1.665,6.246,6.246,0,0,1-1.829.227,3.843,3.843,0,0,1-2.762-1.032,3.887,3.887,0,0,1-1.079-2.942l-.051-.074Zm3.755-.438a2.065,2.065,0,0,0,.426,1.364,1.436,1.436,0,0,0,1.152.512,1.087,1.087,0,0,0,.195-.019,1.178,1.178,0,0,1,.168-.023,2.239,2.239,0,0,0,1.423-1.176,3.187,3.187,0,0,0,.363-.911,3.936,3.936,0,0,0,.133-.8c.016-.195.016-.54.016-1v-.54a7.7,7.7,0,0,0-1.923.18A2.342,2.342,0,0,0,10.4,11.928l-.035-.019Zm9.164,7.03a.836.836,0,0,1,.133-.168,3.507,3.507,0,0,1,1.051-.5,8.235,8.235,0,0,1,1.614-.242,1.3,1.3,0,0,1,.41.031c.649.059,1.048.168,1.172.329a.71.71,0,0,1,.09.391v.152a4.948,4.948,0,0,1-.418,1.8,4.358,4.358,0,0,1-1.152,1.681.322.322,0,0,1-.2.09.233.233,0,0,1-.09-.012c-.09-.043-.106-.117-.062-.239a8.229,8.229,0,0,0,.8-2.642.592.592,0,0,0-.086-.343c-.145-.164-.551-.258-1.226-.258q-.363,0-.867.047c-.363.047-.7.09-1,.137a.255.255,0,0,1-.18-.047c-.031-.027-.039-.047-.023-.074a.164.164,0,0,1,.023-.067v-.059Z" transform="translate(2.88 2.445)" fill="#8690A0"/>
  </g>
</svg>
