<svg xmlns="http://www.w3.org/2000/svg" width="20.571" height="24" viewBox="0 0 20.571 24">
  <g id="file-earmark" transform="translate(-4.5 -2.25)">
    <path id="Path_8661" data-name="Path 8661" d="M7.929,2.25H16.5V3.964H7.929A1.714,1.714,0,0,0,6.214,5.679V22.821a1.714,1.714,0,0,0,1.714,1.714H21.643a1.714,1.714,0,0,0,1.714-1.714v-12h1.714v12a3.429,3.429,0,0,1-3.429,3.429H7.929A3.429,3.429,0,0,1,4.5,22.821V5.679A3.429,3.429,0,0,1,7.929,2.25Z" fill="#4e5c73"/>
    <path id="Path_8662" data-name="Path 8662" d="M20.25,8.25v-6l8.571,8.571h-6A2.571,2.571,0,0,1,20.25,8.25Z" transform="translate(-3.75)" fill="#4e5c73"/>
  </g>
</svg>
