<svg xmlns="http://www.w3.org/2000/svg" width="16" height="16" viewBox="0 0 16 16"><g transform="translate(1 1)"><path d="M7.5,22.97H22.97V7.5H7.5Z" transform="translate(-8.235 -8.235)" fill="#ffe100"/><path d="M476.9,22.97h.8V7.5h-.8Z" transform="translate(-462.961 -8.235)" fill="#ffa800"/><path d="M7.5,22.97h.8V7.5H7.5Z" transform="translate(-8.235 -8.235)" fill="#fff"/><path d="M14.734,15H-.734A.266.266,0,0,1-1,14.734V-.734A.266.266,0,0,1-.734-1H14.734A.266.266,0,0,1,15-.734V14.734A.266.266,0,0,1,14.734,15Zm-15.2-.531H14.469V-.469H-.469Z"/><path d="M317.173,187.289a2.4,2.4,0,0,1-2.4-2.4.266.266,0,1,1,.531,0,1.868,1.868,0,1,0,1.868-1.868,2.4,2.4,0,1,1,2.4-2.4.266.266,0,0,1-.531,0,1.868,1.868,0,1,0-1.868,1.868,2.4,2.4,0,1,1,0,4.8Z" transform="translate(-305.906 -173.622)"/><path d="M137.95,187.289a2.4,2.4,0,0,1-2.4-2.4.266.266,0,0,1,.531,0,1.868,1.868,0,1,0,3.736,0v-6.4a.266.266,0,1,1,.531,0v6.4A2.4,2.4,0,0,1,137.95,187.289Z" transform="translate(-132.284 -173.622)"/></g></svg>