<svg xmlns="http://www.w3.org/2000/svg" width="16" height="16" viewBox="0 0 16 16"><g transform="translate(-29 -541)"><path d="M8,0a7.822,7.822,0,0,1,3.107.634,7.859,7.859,0,0,1,4.259,4.259,7.933,7.933,0,0,1,0,6.214,7.859,7.859,0,0,1-4.259,4.259,7.933,7.933,0,0,1-6.214,0A7.859,7.859,0,0,1,.634,11.107a7.933,7.933,0,0,1,0-6.214A7.859,7.859,0,0,1,4.893.634,7.822,7.822,0,0,1,8,0ZM8,1.143a6.824,6.824,0,0,0-3.223.8L6.509,3.678a4.568,4.568,0,0,1,2.982,0l1.732-1.732A6.824,6.824,0,0,0,8,1.143ZM1.946,11.223,3.678,9.491a4.568,4.568,0,0,1,0-2.982L1.946,4.777a6.866,6.866,0,0,0,0,6.446ZM8,14.857a6.824,6.824,0,0,0,3.223-.8L9.491,12.321a4.568,4.568,0,0,1-2.982,0L4.777,14.053A6.824,6.824,0,0,0,8,14.857Zm0-3.428A3.429,3.429,0,0,0,11.428,8,3.429,3.429,0,0,0,8,4.572,3.429,3.429,0,0,0,4.572,8,3.429,3.429,0,0,0,8,11.428Zm4.321-1.937,1.732,1.732a6.866,6.866,0,0,0,0-6.446L12.321,6.509a4.568,4.568,0,0,1,0,2.982Z" transform="translate(29 541)" fill="#4e5c73" opacity="0.8"/></g></svg>