<svg xmlns="http://www.w3.org/2000/svg" width="57.973" height="23.254" viewBox="0 0 57.973 23.254">
  <path id="ibm" d="M0,32.416H11.273V34.03H0Zm0-3.1H11.273v1.618H0Zm3.213-3.089H8.052v1.62H3.213Zm0-3.087H8.052v1.618H3.213Zm0-3.092H8.052v1.62H3.213Zm0-3.094H8.052v1.62H3.213ZM0,13.87H11.273v1.618H0Zm0-3.089H11.273V12.4H0ZM12.88,30.94H30.215a5.878,5.878,0,0,0,.646-1.618H12.883V30.94Zm15.986-7.794H16.1v1.618H30.217a6.45,6.45,0,0,0-1.348-1.618ZM16.1,20.053v1.62H28.869a6.137,6.137,0,0,0,1.351-1.62H16.1Zm14.113-6.182H12.88V15.49h17.98a6.984,6.984,0,0,0-.643-1.618Zm-5.329-3.089H12.88V12.4H29.027a6.092,6.092,0,0,0-4.14-1.618ZM16.1,16.957h4.831v1.62H16.1Zm9.665,1.62h5.053a6.135,6.135,0,0,0,.217-1.62H25.767ZM16.1,26.229H20.93v1.62H16.1Zm9.665,0v1.62h5.271a6.078,6.078,0,0,0-.217-1.62ZM12.881,34.017l12.005.018a6.1,6.1,0,0,0,4.147-1.618H12.88v1.6Zm19.329-1.6h8.049v1.614H32.211Zm0-3.1h8.049v1.618H32.211Zm3.214-3.089h4.831v1.62H35.425Zm0-3.087h4.831v1.618H35.425ZM42.5,13.87H32.209v1.618H43.055Zm-1.068-3.089H32.209V12.4h9.778Zm8.485,21.637h8.057v1.614H49.918Zm0-3.1h8.057V30.94H49.918Zm0-3.089h4.831v1.62H49.916Zm0-3.087h4.831v1.618H49.916Zm0-1.47h4.831v-1.62h-9.2l-.454,1.309-.454-1.309H35.423v1.62h4.831V20.187l.515,1.488h8.636l.512-1.488Zm4.834-4.715H46.61l-.556,1.62h8.7Zm-6-6.176L48.2,12.4h9.778V10.784ZM45.089,34.022l.556-1.6H44.53Zm-1.068-3.079h2.135l.575-1.618H43.454Zm-1.084-3.087h4.3l.567-1.62H42.365Zm-1.082-3.089h6.47l.554-1.618H41.3Zm-6.43-6.184h8.7l-.559-1.62H35.425Zm11.7-3.089H57.973V13.876h-10.3Z" transform="translate(0 -10.781)" fill="#8690a0"/>
</svg>
