<svg xmlns="http://www.w3.org/2000/svg" width="13.719" height="16" viewBox="0 0 13.719 16"><path d="M4.308,8.411v4.137a.979.979,0,0,1-.983.99,1.066,1.066,0,0,1-1.075-.99V8.411a1.066,1.066,0,0,1,1.075-.983A.987.987,0,0,1,4.308,8.411Zm.386,5.609a1.055,1.055,0,0,0,1.058,1.058h.711l.011,2.183a.986.986,0,0,0,1.972,0V15.077H9.774V17.26a.991.991,0,0,0,1.983,0V15.077h.722a1.054,1.054,0,0,0,1.05-1.058V7.61H4.694v6.41Zm8.86-6.756h-8.9A4.016,4.016,0,0,1,6.927,3.712L6.244,2.451a.138.138,0,1,1,.239-.136l.693,1.272a4.827,4.827,0,0,1,3.869,0l.69-1.268a.138.138,0,1,1,.239.136l-.682,1.258a4.025,4.025,0,0,1,2.262,3.551Zm-6.1-1.983a.375.375,0,0,0-.375-.375.375.375,0,0,0,0,.75A.375.375,0,0,0,7.456,5.281Zm4.052,0a.37.37,0,1,0-.364.375A.373.373,0,0,0,11.507,5.281Zm3.387,2.147a.98.98,0,0,0-.983.983v4.137a.986.986,0,0,0,.983.99,1.064,1.064,0,0,0,1.075-.99V8.411A1.058,1.058,0,0,0,14.894,7.428Z" transform="translate(-2.25 -2.245)" fill="#a4c639"/></svg>