<svg xmlns="http://www.w3.org/2000/svg" width="12" height="12" viewBox="0 0 12 12">
  <path id="icon-close-round" d="M6.562.563a6,6,0,1,0,6,6A6,6,0,0,0,6.562.563ZM9.5,8.137a.291.291,0,0,1,0,.411L8.546,9.5a.291.291,0,0,1-.411,0L6.562,7.917,4.987,9.5a.291.291,0,0,1-.411,0l-.956-.958a.291.291,0,0,1,0-.411L5.208,6.562,3.621,4.987a.291.291,0,0,1,0-.411l.958-.958a.291.291,0,0,1,.411,0l1.573,1.59L8.137,3.621a.291.291,0,0,1,.411,0l.958.958a.291.291,0,0,1,0,.411L7.917,6.562Z" transform="translate(-0.563 -0.563)" fill="#8690a0"/>
</svg>
