<svg xmlns="http://www.w3.org/2000/svg" width="16" height="16" viewBox="0 0 16 16"><g opacity="0.8"><path d="M15.429,11.429H14.286V9.143a.571.571,0,0,0-.571-.571H8.571v-4h2.857A.571.571,0,0,0,12,4V.571A.571.571,0,0,0,11.429,0H4.571A.571.571,0,0,0,4,.571V4a.571.571,0,0,0,.571.571H7.429v4H2.286a.571.571,0,0,0-.571.571v2.286H.571A.571.571,0,0,0,0,12v3.429A.571.571,0,0,0,.571,16H4a.571.571,0,0,0,.571-.571V12A.571.571,0,0,0,4,11.429H2.857V9.714H7.429v1.714H6.286A.571.571,0,0,0,5.714,12v3.429A.571.571,0,0,0,6.286,16H9.714a.571.571,0,0,0,.571-.571V12a.571.571,0,0,0-.571-.571H8.571V9.714h4.571v1.714H12a.571.571,0,0,0-.571.571v3.429A.571.571,0,0,0,12,16h3.429A.571.571,0,0,0,16,15.429V12A.571.571,0,0,0,15.429,11.429Z" fill="#4e5c73"/></g></svg>