<svg xmlns="http://www.w3.org/2000/svg" width="17" height="17" viewBox="0 0 17 17">
  <g id="icon-check-succes" transform="translate(-141)">
    <path id="Polygon_4" data-name="Polygon 4" d="M8.5,0a8.5,8.5,0,0,1,6.01,2.49h0A8.5,8.5,0,0,1,17,8.5h0a8.5,8.5,0,0,1-2.49,6.01h0A8.5,8.5,0,0,1,8.5,17h0a8.5,8.5,0,0,1-6.01-2.49h0A8.5,8.5,0,0,1,0,8.5H0A8.5,8.5,0,0,1,2.49,2.49h0A8.5,8.5,0,0,1,8.5,0Z" transform="translate(141)" fill="#35d86b"/>
    <path id="Icon_awesome-check" data-name="Icon awesome-check" d="M3.236,11.542l-3.1-3.1a.476.476,0,0,1,0-.674L.813,7.1a.476.476,0,0,1,.674,0L3.572,9.184,8.04,4.717a.476.476,0,0,1,.674,0l.674.674a.476.476,0,0,1,0,.674L3.909,11.542A.476.476,0,0,1,3.236,11.542Z" transform="translate(144.736 0.371)" fill="#fff"/>
  </g>
</svg>
