<svg xmlns="http://www.w3.org/2000/svg" width="12.178" height="16" viewBox="0 0 12.178 16"><g transform="translate(-50.526)" opacity="0.8"><g transform="translate(50.526)"><path d="M62.307.411a.67.67,0,0,0-.729.111l-1.05.929a.075.075,0,0,1-.1,0L59,.174a.68.68,0,0,0-.908,0L56.666,1.45a.076.076,0,0,1-.1,0L55.138.174a.68.68,0,0,0-.908,0L52.8,1.451a.076.076,0,0,1-.1,0L51.651.522a.675.675,0,0,0-1.124.51V14.968a.676.676,0,0,0,1.126.51l1.05-.929a.075.075,0,0,1,.1,0l1.428,1.277a.68.68,0,0,0,.908,0l1.427-1.276a.076.076,0,0,1,.1,0l1.427,1.276a.68.68,0,0,0,.908,0l1.429-1.277a.076.076,0,0,1,.1,0l1.051.929a.675.675,0,0,0,1.124-.51V1.032A.67.67,0,0,0,62.307.411ZM53.03,5.428H56.8a.3.3,0,1,1,0,.605H53.03a.3.3,0,0,1,0-.605Zm7.17,5.144H53.03a.3.3,0,0,1,0-.605H60.2a.3.3,0,1,1,0,.605Zm0-2.269H53.03a.3.3,0,0,1,0-.605H60.2a.3.3,0,1,1,0,.605Z" transform="translate(-50.526 0)" fill="#4e5c73"/></g></g></svg>