<svg width="22" height="22" viewBox="0 0 97 97" fill="none" xmlns="http://www.w3.org/2000/svg">
<path d="M83.4627 4H13.5373C8.28519 4 4 8.26321 4 13.5373V83.4627C4 88.7368 8.26321 93 13.5373 93H83.4627C88.7368 93 93 88.7368 93 83.4627V13.5373C93 8.28519 88.7368 4 83.4627 4Z" fill="#3276ff" stroke="#3276ff" stroke-width="8" stroke-miterlimit="10"/><path d="M52.4327 73.42C52.4327 82.0782 47.3564 86.0338 39.9288 86.0338C33.2263 86.0338 29.3586 82.5837 27.3809 78.3864L34.1932 74.277C35.5117 76.6064 36.6984 78.5622 39.5772 78.5622C42.3241 78.5622 44.0601 77.4854 44.0601 73.2881V44.874H52.4327V73.42Z" fill="white" stroke="white" stroke-width="2" stroke-miterlimit="10"/><path d="M72.2113 86.0338C64.432 86.0338 59.4217 82.342 56.9824 77.4854L63.7948 73.5519C65.5748 76.4746 67.9261 78.6282 72.0355 78.6282C75.4856 78.6282 77.7051 76.8921 77.7051 74.4968C77.7051 71.64 75.4417 70.6291 71.596 68.937L69.5083 68.0361C63.4651 65.4649 59.4656 62.2346 59.4656 55.4222C59.4656 49.1373 64.2562 44.3687 71.7059 44.3687C77.0239 44.3687 80.8476 46.2146 83.5945 51.0711L77.0898 55.2464C75.6614 52.6753 74.1012 51.6645 71.7059 51.6645C69.2666 51.6645 67.7064 53.2027 67.7064 55.2464C67.7064 57.7516 69.2666 58.7625 72.8486 60.3227L74.9362 61.2237C82.0562 64.2563 86.0338 67.3768 86.0338 74.3869C86.0557 81.9025 80.1444 86.0338 72.2113 86.0338Z" fill="white" stroke="white" stroke-width="2" stroke-miterlimit="10"/>
</svg>