<svg xmlns="http://www.w3.org/2000/svg" width="12.571" height="16" viewBox="0 0 12.571 16"><g transform="translate(-33.572 -313)"><g transform="translate(33.572 313)"><path d="M18.054,9.107h-5a1.714,1.714,0,0,1-1.714-1.714v-5A.143.143,0,0,0,11.2,2.25H7.911A2.286,2.286,0,0,0,5.625,4.536V15.964A2.286,2.286,0,0,0,7.911,18.25h8A2.286,2.286,0,0,0,18.2,15.964V9.25A.143.143,0,0,0,18.054,9.107Z" transform="translate(-5.625 -2.25)" fill="#3276ff"/><path d="M24.383,8.265,19.247,3.129a.072.072,0,0,0-.122.05V7.815a.571.571,0,0,0,.571.571h4.636a.072.072,0,0,0,.05-.122Z" transform="translate(-12.268 -2.672)" fill="#3276ff"/></g></g></svg>