<svg xmlns="http://www.w3.org/2000/svg" width="16" height="16" viewBox="0 0 16 16">
  <path id="icon-bug-white" d="M16,9.028a1.014,1.014,0,0,1-1.02.972H13.25v.5a4.482,4.482,0,0,1-.425,1.911l1.882,1.882a1,1,0,0,1-1.414,1.414L11.582,14A4.481,4.481,0,0,1,8.75,15V7.375A.375.375,0,0,0,8.375,7h-.75a.375.375,0,0,0-.375.375V15a4.481,4.481,0,0,1-2.832-1l-1.711,1.71a1,1,0,0,1-1.414-1.414l1.882-1.882A4.482,4.482,0,0,1,2.75,10.5V10H1.021A1.014,1.014,0,0,1,0,9.028,1,1,0,0,1,1,8H2.75V6.164L1.293,4.707A1,1,0,0,1,2.707,3.293L4.414,5h7.172l1.707-1.707a1,1,0,1,1,1.414,1.414L13.25,6.164V8H15A1,1,0,0,1,16,9.028ZM8.031,0a3.5,3.5,0,0,0-3.5,3.5h7A3.5,3.5,0,0,0,8.031,0Z" transform="translate(0)" fill="#fff"/>
</svg>
