<svg xmlns="http://www.w3.org/2000/svg" width="17.236" height="16.237" viewBox="0 0 17.236 16.237">
  <g transform="translate(-3.149 -4.022)">
    <path d="M5.032,19.66H18.5A1.265,1.265,0,0,0,19.616,17.8L12.88,5.288a1.265,1.265,0,0,0-2.227,0L3.918,17.8A1.265,1.265,0,0,0,5.032,19.66Z" transform="translate(0)" fill="#FF5151" stroke="#FF5151" stroke-linecap="round" stroke-linejoin="round" stroke-width="1.2"/>
    <path d="M17.6,13.554l.227,4.821.227-4.82a.227.227,0,0,0-.229-.237h0a.227.227,0,0,0-.224.235Z" transform="translate(-6.056 -3.809)" fill="none" stroke="#ffffff" stroke-linecap="round" stroke-linejoin="round" stroke-width="1.2"/>
    <path d="M17.384,26.7a.79.79,0,1,1,.79-.79.79.79,0,0,1-.79.79Z" transform="translate(-5.618 -8.977)" fill="#ffffff"/>
  </g>
</svg>