<svg width="23" height="6" viewBox="0 0 23 6" fill="none" xmlns="http://www.w3.org/2000/svg"><path d="M11.5 5.875C12.2625 5.875 12.9938 5.5721 13.5329 5.03293C14.0721 4.49376 14.375 3.7625 14.375 3C14.375 2.2375 14.0721 1.50624 13.5329 0.967069C12.9938 0.427901 12.2625 0.125 11.5 0.125C10.7375 0.125 10.0062 0.427901 9.46707 0.967069C8.9279 1.50624 8.625 2.2375 8.625 3C8.625 3.7625 8.9279 4.49376 9.46707 5.03293C10.0062 5.5721 10.7375 5.875 11.5 5.875ZM2.875 5.875C3.6375 5.875 4.36876 5.5721 4.90793 5.03293C5.4471 4.49376 5.75 3.7625 5.75 3C5.75 2.2375 5.4471 1.50624 4.90793 0.967069C4.36876 0.427901 3.6375 0.125 2.875 0.125C2.1125 0.125 1.38123 0.427901 0.842068 0.967069C0.302901 1.50624 0 2.2375 0 3C0 3.7625 0.302901 4.49376 0.842068 5.03293C1.38123 5.5721 2.1125 5.875 2.875 5.875ZM20.125 5.875C20.8875 5.875 21.6188 5.5721 22.1579 5.03293C22.6971 4.49376 23 3.7625 23 3C23 2.2375 22.6971 1.50624 22.1579 0.967069C21.6188 0.427901 20.8875 0.125 20.125 0.125C19.3625 0.125 18.6312 0.427901 18.0921 0.967069C17.5529 1.50624 17.25 2.2375 17.25 3C17.25 3.7625 17.5529 4.49376 18.0921 5.03293C18.6312 5.5721 19.3625 5.875 20.125 5.875Z" fill="#4E5C73"/></svg>