<svg xmlns="http://www.w3.org/2000/svg" width="16" height="16" viewBox="0 0 16 16"><path d="M4.54.146A.5.5,0,0,1,4.893,0h6.214a.5.5,0,0,1,.353.146L15.854,4.54A.5.5,0,0,1,16,4.893v6.214a.5.5,0,0,1-.146.353L11.46,15.854a.5.5,0,0,1-.353.146H4.893a.5.5,0,0,1-.353-.146L.146,11.46A.5.5,0,0,1,0,11.107V4.893A.5.5,0,0,1,.146,4.54ZM5.1,1,1,5.1v5.8L5.1,15h5.8L15,10.9V5.1L10.9,1Z" fill="#8690a0" fill-rule="evenodd"/><path d="M11.813,10.408h1.32a1.277,1.277,0,0,1,1.36-1.384,1.161,1.161,0,0,1,1.313,1.168c0,.635-.374.927-.965,1.371a2.278,2.278,0,0,0-1.168,1.987l.007.463h1.307v-.355c0-.718.273-.927,1.01-1.486a2.441,2.441,0,0,0,1.244-2.056c0-1.511-1.276-2.241-2.673-2.241-1.326,0-2.786.647-2.754,2.533Zm1.562,5.516a.942.942,0,0,0,1.01.927.938.938,0,1,0,0-1.867A.94.94,0,0,0,13.375,15.924Z" transform="translate(-6.563 -4.375)" fill="#8690a0"/></svg>