<svg xmlns="http://www.w3.org/2000/svg" width="16" height="16" viewBox="0 0 16 16"><path d="M4.54.146A.5.5,0,0,1,4.893,0h6.214a.5.5,0,0,1,.353.146L15.854,4.54A.5.5,0,0,1,16,4.893v6.214a.5.5,0,0,1-.146.353L11.46,15.854a.5.5,0,0,1-.353.146H4.893a.5.5,0,0,1-.353-.146L.146,11.46A.5.5,0,0,1,0,11.107V4.893A.5.5,0,0,1,.146,4.54ZM5.1,1,1,5.1v5.8L5.1,15h5.8L15,10.9V5.1L10.9,1Z" fill="#ffae11" fill-rule="evenodd"/><path d="M15.755,16a1,1,0,1,1,1,1,1,1,0,0,1-1-1Zm.1-6.005a.9.9,0,1,1,1.8,0L17.3,13.5a.552.552,0,0,1-1.1,0Z" transform="translate(-8.753 -4.995)" fill="#ffae11"/></svg>