<svg width="18" height="18" viewBox="0 0 18 18" fill="none" xmlns="http://www.w3.org/2000/svg">
<path d="M5.39151 0H0.679245C0.303538 0 0 0.303538 0 0.679245V5.43396C0 5.62075 0.15283 5.77358 0.339623 5.77358H1.35849C1.54528 5.77358 1.69811 5.62075 1.69811 5.43396V1.69811H5.39151C5.5783 1.69811 5.73113 1.54528 5.73113 1.35849V0.339623C5.73113 0.15283 5.5783 0 5.39151 0ZM17.6604 12.2264H16.6415C16.4547 12.2264 16.3019 12.3792 16.3019 12.566V16.3019H12.6085C12.4217 16.3019 12.2689 16.4547 12.2689 16.6415V17.6604C12.2689 17.8472 12.4217 18 12.6085 18H17.3208C17.6965 18 18 17.6965 18 17.3208V12.566C18 12.3792 17.8472 12.2264 17.6604 12.2264ZM5.39151 16.3019H1.69811V12.566C1.69811 12.3792 1.54528 12.2264 1.35849 12.2264H0.339623C0.15283 12.2264 0 12.3792 0 12.566V17.3208C0 17.6965 0.303538 18 0.679245 18H5.39151C5.5783 18 5.73113 17.8472 5.73113 17.6604V16.6415C5.73113 16.4547 5.5783 16.3019 5.39151 16.3019ZM17.3208 0H12.6085C12.4217 0 12.2689 0.15283 12.2689 0.339623V1.35849C12.2689 1.54528 12.4217 1.69811 12.6085 1.69811H16.3019V5.43396C16.3019 5.62075 16.4547 5.77358 16.6415 5.77358H17.6604C17.8472 5.77358 18 5.62075 18 5.43396V0.679245C18 0.303538 17.6965 0 17.3208 0Z" fill="white"/>
</svg>
