<svg xmlns="http://www.w3.org/2000/svg" width="172.326" height="42.66" viewBox="0 0 172.326 42.66">
  <g id="tu8VFu.tif" transform="translate(33.17 -309.96)">
    <g id="Сгруппировать_1" data-name="Сгруппировать 1" transform="translate(-33.17 309.96)">
      <path id="Контур_1" data-name="Контур 1" d="M263.1,309.96c.02.455.058.911.059,1.367q0,14.626,0,29.252v1.555h-7.11a7.183,7.183,0,0,1-.1-.867q-.007-15.426,0-30.852c0-.152.023-.3.035-.455Z" transform="translate(-189.476 -309.96)" fill="#7733de"/>
      <path id="Контур_2" data-name="Контур 2" d="M-33.17,348.154V317.8a3.988,3.988,0,0,1,.587-.091c3.861,0,7.725-.086,11.582.04a14.444,14.444,0,0,1,13.865,12.47c.81,5.741-.677,10.741-5.185,14.6a13.754,13.754,0,0,1-8.949,3.322C-25.2,348.2-29.132,348.154-33.17,348.154Zm7.276-6.808c1.5,0,2.906.023,4.313,0a6.967,6.967,0,0,0,7.075-5.668,13.449,13.449,0,0,0,.275-3.853c-.292-3.913-2.34-6.526-5.807-7.1a36.779,36.779,0,0,0-5.855-.055Z" transform="translate(33.17 -315.903)" fill="#7733de"/>
      <path id="Контур_3" data-name="Контур 3" d="M412.936,374.758c-2.593-2.774-1.714-4.853,1.122-6.831-.139-.166-.266-.334-.409-.486a7.752,7.752,0,0,1,2.672-12.685,11.174,11.174,0,0,1,7.961-.4,9.261,9.261,0,0,0,3.942.269c1.248-.126,2.5-.216,3.818-.327v6.28l-1.763-.312c.331,3.24-.4,6.042-3.136,8-2.621,1.875-5.593,2.078-8.7,1.673-.348.851.109,1.188.786,1.271.908.112,1.841.048,2.743.191a27.607,27.607,0,0,1,5.129,1.019,6.687,6.687,0,0,1,.555,12.445,13.116,13.116,0,0,1-12.345-.047c-2.884-1.464-4.25-3.955-3.752-6.921A14.082,14.082,0,0,1,412.936,374.758Zm7.936-10.6a2.214,2.214,0,1,0,.091-4.367,2.42,2.42,0,0,0-2.7,2.207A2.361,2.361,0,0,0,420.871,364.159Zm-.021,13.05-.024.115c-.229,0-.459.014-.686,0-.964-.072-1.715.272-1.833,1.274-.116.987.635,1.491,1.475,1.554a20.5,20.5,0,0,0,3.948-.062,1.594,1.594,0,0,0,1.011-1.132c.045-.342-.492-.978-.9-1.116A22.917,22.917,0,0,0,420.85,377.21Z" transform="translate(-309.181 -343.725)" fill="#7733de"/>
      <path id="Контур_4" data-name="Контур 4" d="M158.343,375.961h-6.674l-.473-2.67a7.342,7.342,0,0,1-4.509,2.952,10.315,10.315,0,0,1-12.312-8.067,12.253,12.253,0,0,1,1.571-9.66,9.948,9.948,0,0,1,11.412-4.158,23.1,23.1,0,0,1,3.915,2.257l.389-2.2h6.681Zm-12.47-6.3a4.484,4.484,0,1,0-4.573-4.526A4.38,4.38,0,0,0,145.874,369.661Z" transform="translate(-95.579 -343.768)" fill="#7733de"/>
      <path id="Контур_5" data-name="Контур 5" d="M305.606,380.439l1.4-4.357c-.262-.112-.431-.19-.6-.257a11.159,11.159,0,0,1-7.089-13.437c1.619-6.2,7.374-9.017,12.929-8.328,6.514.807,10.577,5.46,10.3,11.687-.168,3.816-1.727,7.049-5.124,8.93C313.7,376.741,309.76,378.434,305.606,380.439Zm5.156-10.7a4.483,4.483,0,0,0,.094-8.966,4.484,4.484,0,1,0-.094,8.966Z" transform="translate(-222.574 -343.842)" fill="#7733de"/>
      <path id="Контур_6" data-name="Контур 6" d="M513.024,356.079H520.2c0,.475-.007.917,0,1.358.065,3.542.027,7.091.241,10.624.127,2.1,1.153,3.08,2.751,3.285a4.076,4.076,0,0,0,4.555-2.315,12.549,12.549,0,0,0,.659-3.9c.093-2.969.029-5.942.029-9h7.12v21.519h-6.691l-.481-2.434c-.4.267-.736.482-1.061.71a11.223,11.223,0,0,1-6.725,2.257c-4.277-.054-6.968-2.409-7.447-6.673a48.859,48.859,0,0,1-.22-5.02c-.028-3.356,0-6.712.006-10.068A1.96,1.96,0,0,1,513.024,356.079Z" transform="translate(-387.365 -345.475)" fill="#7733de"/>
      <path id="Контур_7" data-name="Контур 7" d="M628.857,367.421a2.546,2.546,0,0,0,1.685,2.313,5.38,5.38,0,0,0,5.619-.721,2.44,2.44,0,0,1,1.5-.441c1.747.1,3.487.317,5.226.488-.338,4.4-5.83,7.994-11.244,7.472a11.192,11.192,0,0,1-10.024-12.819c.948-7.155,6.66-10.3,12.206-9.647,7.147.838,10.189,7.542,9.359,13.353Zm7.082-4.857c-.275-1.474-1.758-2.321-3.761-2.209-1.922.107-3.1.919-3.189,2.209Z" transform="translate(-470.989 -343.862)" fill="#7733de"/>
      <path id="Контур_8" data-name="Контур 8" d="M91.016,377.708V356.124h7.1v21.584Z" transform="translate(-62.464 -345.51)" fill="#7733de"/>
      <path id="Контур_9" data-name="Контур 9" d="M98.493,319.361a3.341,3.341,0,0,1-3.452,3.342,3.435,3.435,0,0,1-3.354-3.484,3.34,3.34,0,0,1,3.494-3.3A3.255,3.255,0,0,1,98.493,319.361Z" transform="translate(-62.979 -314.549)" fill="#7733de"/>
    </g>
  </g>
</svg>
