<svg width="24" height="24" viewBox="0 0 24 24" fill="none" xmlns="http://www.w3.org/2000/svg">
<path fill-rule="evenodd" clip-rule="evenodd" d="M12 24C18.6274 24 24 18.6274 24 12C24 5.37258 18.6274 0 12 0C5.37258 0 0 5.37258 0 12C0 18.6274 5.37258 24 12 24Z" fill="#F4F4F4"/>
<path d="M9.77778 7C8.24611 7 7 8.24611 7 9.77778V14.2222C7 15.7539 8.24611 17 9.77778 17H14.2222C15.7539 17 17 15.7539 17 14.2222V9.77778C17 8.24611 15.7539 7 14.2222 7H9.77778ZM9.77778 8.11111H14.2222C15.1411 8.11111 15.8889 8.85889 15.8889 9.77778V14.2222C15.8889 15.1411 15.1411 15.8889 14.2222 15.8889H9.77778C8.85889 15.8889 8.11111 15.1411 8.11111 14.2222V9.77778C8.11111 8.85889 8.85889 8.11111 9.77778 8.11111ZM14.7778 8.66667C14.6304 8.66667 14.4891 8.7252 14.3849 8.82939C14.2808 8.93357 14.2222 9.07488 14.2222 9.22222C14.2222 9.36956 14.2808 9.51087 14.3849 9.61506C14.4891 9.71925 14.6304 9.77778 14.7778 9.77778C14.9251 9.77778 15.0664 9.71925 15.1706 9.61506C15.2748 9.51087 15.3333 9.36956 15.3333 9.22222C15.3333 9.07488 15.2748 8.93357 15.1706 8.82939C15.0664 8.7252 14.9251 8.66667 14.7778 8.66667ZM12 9.22222C10.4683 9.22222 9.22222 10.4683 9.22222 12C9.22222 13.5317 10.4683 14.7778 12 14.7778C13.5317 14.7778 14.7778 13.5317 14.7778 12C14.7778 10.4683 13.5317 9.22222 12 9.22222ZM12 10.3333C12.9189 10.3333 13.6667 11.0811 13.6667 12C13.6667 12.9189 12.9189 13.6667 12 13.6667C11.0811 13.6667 10.3333 12.9189 10.3333 12C10.3333 11.0811 11.0811 10.3333 12 10.3333Z" fill="black"/>
</svg>
