<?xml version="1.0" encoding="UTF-8"?>
<svg width="73px" height="43px" viewBox="0 0 73 43" version="1.1" xmlns="http://www.w3.org/2000/svg" xmlns:xlink="http://www.w3.org/1999/xlink">
    <!-- Generator: Sketch 48.2 (47327) - http://www.bohemiancoding.com/sketch -->
    <title>amazonmusic-white</title>
    <desc>Created with Sketch.</desc>
    <defs></defs>
    <g id="About---Final-Draft" stroke="none" stroke-width="1" fill="none" fill-rule="evenodd" transform="translate(-1010.000000, -3411.000000)">
        <g id="Logo-Layout" transform="translate(0.000000, 3100.000000)" fill="#FFFFFF" fill-rule="nonzero">
            <g id="Col-4" transform="translate(1010.000000, 311.000000)">
                <g id="amazonmusic-white">
                    <path d="M48.489404,18.4675497 C48.0059603,18.8543046 47.2807947,18.9993377 46.3139073,18.9993377 C44.9602649,18.9993377 43.6066225,18.8059603 42.3496689,18.3708609 C42.0112583,18.2741722 41.7695364,18.1774834 41.6245033,18.1774834 C41.3827815,18.1774834 41.2860927,18.3708609 41.2860927,18.7092715 L41.2860927,19.5311258 C41.2860927,19.7728477 41.3344371,19.9662252 41.4311258,20.0629139 C41.5278146,20.1596026 41.6728477,20.3046358 41.9145695,20.4013245 C43.2198675,20.9331126 44.6701987,21.2231788 46.3139073,21.2231788 C48.0059603,21.2231788 49.3596026,20.8364238 50.4231788,20.0145695 C51.4384106,19.1927152 51.9701987,18.1291391 51.9701987,16.7271523 C51.9701987,15.7602649 51.7284768,14.986755 51.1966887,14.3582781 C50.713245,13.7298013 49.8913907,13.1980132 48.7311258,12.7629139 L46.410596,11.9410596 C45.492053,11.602649 44.9119205,11.2642384 44.5735099,10.9741722 C44.2834437,10.684106 44.0900662,10.297351 44.0900662,9.76556291 C44.0900662,8.50860927 45.0086093,7.88013245 46.8940397,7.88013245 C47.9576159,7.88013245 49.0211921,8.02516556 50.0364238,8.36357616 C50.3264901,8.4602649 50.5682119,8.50860927 50.713245,8.50860927 C50.9549669,8.50860927 51.1,8.31523179 51.1,7.97682119 L51.1,7.20331126 C51.1,6.9615894 51.0516556,6.76821192 50.9549669,6.62317881 C50.8582781,6.4781457 50.713245,6.38145695 50.4715232,6.33311258 C49.2629139,5.89801325 48.0543046,5.65629139 46.797351,5.65629139 C45.2019868,5.65629139 43.9450331,6.04304636 42.9298013,6.81655629 C41.9629139,7.59006623 41.4794702,8.60529801 41.4794702,9.86225166 C41.4794702,11.7960265 42.5430464,13.1496689 44.718543,13.9231788 L47.184106,14.8417219 C47.9576159,15.1317881 48.5377483,15.4218543 48.8278146,15.7119205 C49.1178808,16.0019868 49.2629139,16.3887417 49.2629139,16.8238411 C49.2145695,17.5490066 48.9728477,18.0807947 48.489404,18.4675497 Z" id="Shape"></path>
                    <path d="M35.6298013,6.67152318 L35.6298013,17.5490066 C34.2278146,18.4675497 32.8258278,18.9509934 31.4238411,18.9509934 C30.5536424,18.9509934 29.8768212,18.7092715 29.4900662,18.2258278 C29.1033113,17.7423841 28.8615894,16.9688742 28.8615894,15.905298 L28.8615894,6.71986755 C28.8615894,6.33311258 28.6682119,6.1397351 28.281457,6.1397351 L26.589404,6.1397351 C26.202649,6.1397351 26.0092715,6.33311258 26.0092715,6.71986755 L26.0092715,16.8721854 C26.0092715,18.2741722 26.3960265,19.3860927 27.1211921,20.1596026 C27.8463576,20.9331126 28.9099338,21.3198675 30.2635762,21.3198675 C32.1490066,21.3198675 33.9860927,20.6430464 35.8231788,19.3377483 L36.0165563,20.3529801 C36.0649007,20.5463576 36.113245,20.6913907 36.2582781,20.7880795 C36.3549669,20.8847682 36.5,20.8847682 36.6933775,20.8847682 L37.9503311,20.8847682 C38.3370861,20.8847682 38.5304636,20.6913907 38.5304636,20.3046358 L38.5304636,6.76821192 C38.5304636,6.38145695 38.3370861,6.18807947 37.9503311,6.18807947 L36.2582781,6.18807947 C35.8231788,6.09139073 35.6298013,6.28476821 35.6298013,6.67152318 Z" id="Shape"></path>
                    <path d="M20.0629139,20.8364238 L21.7549669,20.8364238 C22.1417219,20.8364238 22.3350993,20.6430464 22.3350993,20.2562914 L22.3350993,10.0072848 C22.3350993,8.60529801 21.9966887,7.54172185 21.2715232,6.76821192 C20.5463576,5.99470199 19.5311258,5.65629139 18.1774834,5.65629139 C16.2437086,5.65629139 14.3582781,6.33311258 12.4245033,7.73509934 C11.7960265,6.38145695 10.5874172,5.65629139 8.75033113,5.65629139 C7.00993377,5.65629139 5.17284768,6.28476821 3.33576159,7.59006623 L3.14238411,6.67152318 C3.09403974,6.4781457 3.04569536,6.33311258 2.90066225,6.23642384 C2.80397351,6.1397351 2.6589404,6.1397351 2.46556291,6.1397351 L1.25695364,6.1397351 C0.870198675,6.1397351 0.676821192,6.33311258 0.676821192,6.71986755 L0.676821192,20.2562914 C0.676821192,20.6430464 0.870198675,20.8364238 1.25695364,20.8364238 L2.94900662,20.8364238 C3.33576159,20.8364238 3.52913907,20.6430464 3.52913907,20.2562914 L3.52913907,9.28211921 C4.88278146,8.41192053 6.28476821,8.02516556 7.78344371,8.02516556 C8.55695364,8.02516556 9.13708609,8.26688742 9.52384106,8.70198675 C9.91059603,9.18543046 10.0556291,9.86225166 10.0556291,10.8291391 L10.0556291,20.2562914 C10.0556291,20.6430464 10.2490066,20.8364238 10.6357616,20.8364238 L12.3278146,20.8364238 C12.7145695,20.8364238 12.907947,20.6430464 12.907947,20.2562914 L12.907947,10.2006623 L12.907947,9.71721854 C12.907947,9.57218543 12.907947,9.42715232 12.8596026,9.28211921 C14.3099338,8.41192053 15.7119205,7.97682119 17.1139073,7.97682119 C17.8874172,7.97682119 18.4675497,8.21854305 18.8543046,8.65364238 C19.2410596,9.13708609 19.3860927,9.81390728 19.3860927,10.7807947 L19.3860927,20.207947 C19.4827815,20.6430464 19.6761589,20.8364238 20.0629139,20.8364238 Z" id="Shape"></path>
                    <path d="M64.6847682,31.7139073 C55.7410596,35.5331126 46.0721854,37.3701987 37.2251656,37.3701987 C24.1238411,37.3701987 11.4576159,33.7927152 1.20860927,27.7980132 C1.01523179,27.7013245 0.870198675,27.6529801 0.676821192,27.6529801 C0.0966887417,27.6529801 -0.241721854,28.3298013 0.386754967,28.8615894 C9.91059603,37.4668874 22.4317881,42.5913907 36.4033113,42.5913907 C46.3622517,42.5913907 57.9165563,39.4490066 65.8933775,33.5993377 C67.1986755,32.6324503 66.0384106,31.1337748 64.6847682,31.7139073 Z" id="Shape"></path>
                    <path d="M64.394702,9.37880795 C65.1198675,8.55695364 66.2801325,8.1218543 67.9238411,8.1218543 C68.7456954,8.1218543 69.5192053,8.21854305 70.3410596,8.4602649 C70.5344371,8.50860927 70.7278146,8.55695364 70.8245033,8.55695364 C71.0662252,8.55695364 71.2112583,8.36357616 71.2112583,7.97682119 L71.2112583,7.20331126 C71.2112583,6.91324503 71.1629139,6.71986755 71.0662252,6.62317881 C70.9695364,6.52649007 70.8245033,6.42980132 70.6311258,6.33311258 C69.615894,5.94635762 68.6006623,5.8013245 67.5370861,5.8013245 C65.2649007,5.8013245 63.4761589,6.4781457 62.2192053,7.83178808 C60.9622517,9.18543046 60.3337748,11.0708609 60.3337748,13.5364238 C60.3337748,16.0019868 60.9622517,17.8874172 62.1708609,19.1927152 C63.3794702,20.4980132 65.1198675,21.1748344 67.392053,21.1748344 C68.6490066,21.1748344 69.7609272,20.981457 70.6794702,20.5463576 C70.9211921,20.4496689 71.0662252,20.3529801 71.1629139,20.207947 C71.2596026,20.1112583 71.2596026,19.9178808 71.2596026,19.6761589 L71.2596026,18.8543046 C71.2596026,18.4675497 71.1145695,18.2741722 70.8728477,18.2741722 C70.7761589,18.2741722 70.6311258,18.3225166 70.4377483,18.3708609 C69.5192053,18.6609272 68.6490066,18.7576159 67.8271523,18.7576159 C66.2801325,18.7576159 65.1198675,18.3225166 64.394702,17.5006623 C63.6695364,16.6788079 63.2827815,15.3735099 63.2827815,13.6331126 L63.2827815,13.2463576 C63.3311258,11.5059603 63.6695364,10.2006623 64.394702,9.37880795 Z" id="Shape"></path>
                    <path d="M68.0688742,39.3523179 C72.3231788,35.7748344 73.4350993,28.281457 72.5649007,27.2178808 C72.1298013,26.6860927 70.1960265,26.202649 67.7304636,26.202649 C65.1198675,26.202649 61.9774834,26.7344371 59.6569536,28.4264901 C58.9317881,28.9099338 59.0768212,29.586755 59.8503311,29.4900662 C62.4125828,29.2 68.1655629,28.4748344 69.1807947,29.7801325 C70.1960265,31.0854305 68.0688742,36.4516556 67.1019868,38.8688742 C66.8119205,39.6423841 67.4403974,39.9324503 68.0688742,39.3523179 Z" id="Shape"></path>
                    <path d="M56.707947,6.09139073 L55.015894,6.09139073 C54.6291391,6.09139073 54.4357616,6.28476821 54.4357616,6.67152318 L54.4357616,20.207947 C54.4357616,20.594702 54.6291391,20.7880795 55.015894,20.7880795 L56.707947,20.7880795 C57.094702,20.7880795 57.2880795,20.594702 57.2880795,20.207947 L57.2880795,6.67152318 C57.2880795,6.28476821 57.094702,6.09139073 56.707947,6.09139073 Z" id="Shape"></path>
                    <path d="M57.1913907,0.483443709 C56.8529801,0.145033113 56.4178808,0 55.8860927,0 C55.3059603,0 54.8708609,0.145033113 54.5807947,0.483443709 C54.2423841,0.821854305 54.097351,1.20860927 54.097351,1.74039735 C54.097351,2.27218543 54.2423841,2.70728477 54.5807947,2.99735099 C54.9192053,3.33576159 55.3543046,3.4807947 55.8860927,3.4807947 C56.4662252,3.4807947 56.9013245,3.33576159 57.1913907,2.99735099 C57.5298013,2.6589404 57.6748344,2.27218543 57.6748344,1.74039735 C57.6748344,1.20860927 57.5298013,0.773509934 57.1913907,0.483443709 Z" id="Shape"></path>
                </g>
            </g>
        </g>
    </g>
</svg>