<?xml version="1.0" encoding="UTF-8"?>
<svg width="105px" height="28px" viewBox="0 0 105 28" version="1.1" xmlns="http://www.w3.org/2000/svg" xmlns:xlink="http://www.w3.org/1999/xlink">
    <!-- Generator: Sketch 48.2 (47327) - http://www.bohemiancoding.com/sketch -->
    <title>annsacks-white</title>
    <desc>Created with Sketch.</desc>
    <defs></defs>
    <g id="About---Final-Draft" stroke="none" stroke-width="1" fill="none" fill-rule="evenodd" transform="translate(-534.000000, -3498.000000)">
        <g id="Logo-Layout" transform="translate(0.000000, 3100.000000)" fill="#FFFFFF" fill-rule="nonzero">
            <g id="Col-2" transform="translate(517.000000, 398.000000)">
                <g id="annsacks-white" transform="translate(17.876404, 0.043478)">
                    <path d="M4.04843943,8.07451136 L4.0355414,8.07451136 C4.0355414,9.33245915 4.02909238,10.5898771 4.03822849,11.847295 C4.04199041,12.3967861 4.10379348,12.4513643 4.65518428,12.4635516 C5.12166306,12.4741493 5.58867925,12.4677907 6.0546206,12.4667309 C6.92631251,12.4656712 6.96285693,12.4359976 6.96393176,11.579173 C6.96769369,9.28476947 6.96876852,6.98930618 6.96124467,4.69437278 C6.96016984,4.43313931 6.91287706,4.16872653 6.86558428,3.91014248 C6.78120966,3.45444109 6.48133045,3.17837083 6.06160704,3.0167558 C5.04320004,2.62464065 4.08122192,3.22129154 4.05542586,4.30119786 C4.02533046,5.55808588 4.04843943,6.81656356 4.04843943,8.07398147 L4.04843943,8.07451136 Z M9.67359302,15.3853394 L9.67305561,26.1928807 C9.67305561,26.4578234 9.66553176,26.7227661 9.66338208,26.9877087 C9.66015758,27.3390227 9.47259871,27.5281918 9.13026349,27.5340205 C8.57439905,27.5453267 8.01832605,27.5417928 7.46265561,27.5234228 C7.15149062,27.5117653 6.97736721,27.3257756 6.96876852,27.0083743 C6.96339434,26.8096673 6.96178209,26.6104304 6.96178209,26.4117234 L6.96339434,16.5987768 C6.96339434,16.4000698 6.96769369,16.2008329 6.959095,16.0021259 C6.93491119,15.4383279 6.8661217,15.3673233 6.27979872,15.3556658 C5.74565322,15.3456878 5.21136393,15.3456878 4.67721842,15.3556658 C4.09895671,15.3662635 4.04628976,15.4176624 4.03930332,16.020142 C4.03016722,16.8600103 4.03500398,17.6998785 4.03500398,18.5397468 L4.03930332,26.3635038 C4.03930332,26.5399556 4.04736459,26.7174672 4.03285431,26.8933892 C3.9936228,27.3761147 3.85496897,27.5218332 3.37451733,27.5424987 C2.95264425,27.5599849 2.52862149,27.5557458 2.10621099,27.5430286 C1.38822062,27.5218332 1.24580486,27.384063 1.24419261,26.6761362 C1.23828101,24.2895326 1.24204294,21.9018693 1.24150552,19.5152657 C1.24150552,18.3659444 1.24473003,17.217153 1.23989326,16.0678317 C1.23720618,15.4250808 1.2350565,15.3980566 0.601978168,15.3143347 C0.166669635,15.2571071 -0.0230388983,15.0859542 0.00221974491,14.6360815 C0.0317777317,14.1072559 0.0161926114,13.5752511 0.0097435961,13.0453657 C0.00544425256,12.7184265 0.147860007,12.5833057 0.482671385,12.5472735 C1.23828101,12.4667309 1.23828101,12.4497746 1.23935585,11.7026363 C1.24150552,9.22701197 1.21141011,6.75138767 1.25386613,4.27682314 C1.2828867,2.59125787 2.01753703,1.25594682 3.53789238,0.420317641 C4.21772608,0.0467484776 4.98462148,-0.0364435206 5.73861885,0.0133657012 C8.13818996,0.170741647 9.65102147,1.77576434 9.66284467,4.180384 C9.68165429,7.91501587 9.66821884,11.6501776 9.66821884,15.3853394 L9.67359302,15.3853394 Z M33.8574004,16.4530583 C33.8574004,19.8289578 33.8579378,23.2053872 33.8563256,26.5812867 C33.8563256,27.4328124 33.7703387,27.5138849 32.8889733,27.5403792 C31.3003658,27.5891286 31.315951,27.5848895 30.9128875,26.1255853 C30.2529383,23.7326231 29.5661181,21.3470793 28.8997199,18.9557068 C28.705712,18.2578478 28.5541602,17.5488612 28.3644516,16.8488827 C28.3101724,16.6475263 28.1924779,16.4625963 28.1038039,16.269718 C28.0624227,16.4673652 27.985572,16.6650125 27.9850346,16.8631896 C27.9769733,19.9540108 27.9785855,23.0453618 27.9780481,26.136183 C27.9780481,26.399536 27.9801978,26.662889 27.9742862,26.9257122 C27.9656875,27.3273653 27.739972,27.5313711 27.3326092,27.5361401 C26.855382,27.5414389 26.3760052,27.5520366 25.9009278,27.518124 C25.4156394,27.4826217 25.2861216,27.3300147 25.2667746,26.8361615 C25.2511895,26.4202016 25.2624753,26.0037117 25.2624753,25.5866919 L25.2624753,6.25064602 C25.2732236,5.42296512 25.3925304,5.30533058 26.2566985,5.3010915 C28.1204639,5.29155356 27.8275711,5.25658113 28.24407,6.69680948 C29.0915781,9.63025471 29.9181269,12.5695287 30.7521995,15.5066831 C30.7882065,15.6333257 30.8059413,15.7663269 30.8543089,15.8882006 C30.8827921,15.9597351 30.9531938,16.0164328 31.004786,16.0789593 C31.0477794,16.0143133 31.1197934,15.9517868 31.1278547,15.8829017 C31.1482766,15.7090993 31.1418275,15.5326475 31.1412901,15.3572555 L31.1289295,6.47849672 C31.1289295,6.30310467 31.1267798,6.12771262 31.1305418,5.95232058 C31.1380656,5.55543646 31.3498083,5.33818347 31.7598582,5.32705588 C32.2143312,5.31028246 32.6692537,5.3088686 33.1238249,5.32281679 C33.6757531,5.34560186 33.840203,5.50933643 33.8493391,6.06147696 C33.8643868,6.89445671 33.8531011,7.72743646 33.8531011,8.56041621 L33.8531011,16.4530583 L33.856863,16.4530583 L33.8574004,16.4530583 Z M12.8986381,16.3629778 C12.8986381,12.9844289 12.8975633,9.60587999 12.8986381,6.22733107 C12.8997129,5.35619957 12.9513051,5.30903978 13.8246092,5.30850989 C14.1255633,5.30850989 14.4265173,5.30850989 14.7274713,5.29950184 C15.1289226,5.28784436 15.3680735,5.47118469 15.4734075,5.87336766 C15.7786608,7.03911541 16.0978871,8.1995643 16.4095895,9.3631925 C16.9814022,11.4996902 17.5521401,13.6361879 18.125565,15.7726856 C18.1475991,15.8553477 18.1900551,15.9348305 18.2330486,16.0090144 C18.2523956,16.0423972 18.3163484,16.0884972 18.3276341,16.0800191 C18.3727772,16.0482259 18.4335055,16.0005363 18.4372674,15.9539063 C18.4539274,15.7578488 18.456077,15.5602015 18.456077,15.3625543 C18.456077,12.4450056 18.4544648,9.52692707 18.4544648,6.60884851 C18.4544648,6.3672208 18.459839,6.12665285 18.4603764,5.88502514 C18.4614512,5.53530081 18.6522346,5.34878118 18.9752228,5.33553404 C19.4691443,5.32025521 19.9634006,5.31848824 20.4574214,5.33023519 C20.7718109,5.33447427 20.9276621,5.5215238 20.9335737,5.83256649 C20.9459344,6.55321055 20.9561453,7.2743845 20.958295,7.99555844 C20.9609821,9.18038206 20.958295,10.3646758 20.9550705,11.5489695 C20.9529208,12.314124 20.9432473,13.0792784 20.9432473,13.8444328 C20.941635,17.9907856 20.9421724,22.1371384 20.941635,26.284021 C20.941635,26.5033935 20.9346486,26.7227661 20.9378731,26.9421386 C20.9448595,27.3570388 20.7315046,27.5430286 20.342414,27.5467378 C19.9339764,27.5515067 19.5255387,27.5488573 19.1171011,27.5541562 C18.7328473,27.5589251 18.5366897,27.3580986 18.4410293,26.9871789 C17.9272578,24.9937502 17.3984385,23.0040308 16.8819799,21.011132 C16.4918145,19.5062577 16.1134722,17.9992637 15.7259939,16.4943894 C15.7066468,16.4202054 15.6453812,16.357679 15.6023878,16.2893238 C15.5620814,16.376225 15.4922171,16.4610066 15.4863055,16.5500273 C15.4680333,16.8123206 15.4723326,17.0762035 15.47287,17.3395565 C15.4750197,20.4113018 15.4782442,23.4825172 15.4809313,26.5542625 C15.4814687,27.4296331 15.3777471,27.5398493 14.5232525,27.5499171 C14.179305,27.5536263 13.8348201,27.5589251 13.4919475,27.5345504 C13.1157549,27.5080562 12.9061619,27.2992813 12.9077742,26.8944489 C12.9099239,26.3460176 12.9002503,25.7975863 12.9002503,25.249155 C12.8981007,22.2870959 12.8997129,19.3250369 12.8981007,16.3629778 L12.8986381,16.3629778 Z M47.8431649,21.6284484 C47.8431649,21.0349769 47.8302669,20.4404455 47.8474643,19.8469739 C47.8619745,19.3345748 48.0113767,19.1809081 48.5143999,19.1570632 C48.9477613,19.1410316 49.3815767,19.1408549 49.8149513,19.1565333 C50.3813899,19.1708402 50.5383159,19.3192081 50.5512139,19.915859 C50.5678739,20.7509583 50.5168192,21.5892369 50.5684113,22.4222167 C50.5952822,22.8673204 50.7188883,23.3304401 50.8999982,23.7395116 C51.2138502,24.4453189 51.8678879,24.7595409 52.6707903,24.6832374 C53.3828691,24.6154121 53.7913067,24.1824958 54.0197093,23.5249081 C54.2884183,22.7528651 54.1836218,21.9612164 54.159438,21.1732769 C54.1481522,20.7785124 54.0815124,20.3757995 54.1368664,19.9911027 C54.2481119,19.2211793 54.064315,18.497356 53.854722,17.7873096 C53.386631,16.2008329 52.469796,14.8750598 51.4438651,13.6065143 C50.1658853,12.0263962 48.9077899,10.4176643 48.2000104,8.47192536 C47.9947168,7.90600782 47.9076551,7.28180289 47.8576752,6.67667383 C47.8001715,5.97775507 47.8533759,5.27035815 47.8410152,4.56667042 C47.8152192,3.16406392 48.3257662,2.00202538 49.3269759,1.04505246 C50.0078844,0.39435326 50.841957,0.12835082 51.7448192,0.0409197388 C53.2743106,-0.107448156 54.6973933,0.106095635 55.7673925,1.37623079 C56.4633487,2.20232204 56.8755483,3.15929496 56.9271404,4.25138864 C56.9572358,4.88778093 56.9566984,5.52735253 56.9389636,6.16427471 C56.9244533,6.67932326 56.7653776,6.83193024 56.2671912,6.84888657 C55.8119982,6.86478313 55.3557303,6.86478313 54.9010747,6.84888657 C54.3765548,6.83034058 54.2255404,6.6671359 54.2061933,6.11287583 C54.1932953,5.73983656 54.2260778,5.36414785 54.2008192,4.99216834 C54.1766354,4.64350379 54.1454651,4.28583119 54.0428183,3.95571262 C53.792919,3.14922714 53.0926634,2.7168407 52.2333321,2.78678556 C51.4535387,2.8503718 50.8736647,3.37654795 50.7280244,4.18674263 C50.3948253,6.038162 50.6060306,7.76611809 51.8103842,9.29536718 C52.7422669,10.4796609 53.661789,11.6766719 54.5275693,12.910245 C56.0839316,15.1288749 57.0383859,17.5642279 56.9620726,20.3434765 C56.9368139,21.2670666 56.9835693,22.1917165 56.9502494,23.1147768 C56.8965076,24.5979259 56.3349058,25.8383874 55.131627,26.7365431 C54.4082625,27.2770261 53.5655912,27.5303113 52.6955115,27.5525665 C50.9650257,27.5949573 49.5102354,26.9734018 48.5305225,25.4536907 C48.0823159,24.7584811 47.8797093,23.9710715 47.8447772,23.1455102 C47.8238179,22.6405294 47.8410152,22.1344889 47.8410152,21.6284484 L47.8431649,21.6284484 Z M63.4411833,11.5749339 L63.4390336,11.5749339 C63.4390336,12.429639 63.4304349,13.2854038 63.4422581,14.1401088 C63.4503194,14.6933091 63.5454423,14.7802103 64.127466,14.7961069 C64.5810467,14.8082942 65.0362397,14.7913379 65.4908953,14.7929276 C65.8574143,14.7945172 66.0304629,14.6265436 66.0293881,14.2709905 C66.0240139,12.51707 66.0487351,10.7631496 66.0084288,9.00922909 C65.9901566,8.21599074 65.41082,7.7767158 64.6046931,7.81486754 C63.8469338,7.85089974 63.4616051,8.2536126 63.4449452,9.07599465 C63.4282852,9.90791463 63.4411833,10.7419542 63.4411833,11.5749339 Z M68.7884918,17.7496878 C68.7884918,20.6640571 68.7911789,23.5789564 68.7879544,26.4943855 C68.7868795,27.4434101 68.554715,27.6309895 67.5545802,27.5297814 C67.2391159,27.4979883 66.9220393,27.4767929 66.6049627,27.4630159 C66.2475798,27.4481791 66.0600209,27.2796756 66.0519596,26.9331306 C66.0465854,26.713758 66.0465854,26.4949154 66.0465854,26.2760727 C66.046048,23.5800161 66.0476603,20.8839595 66.0444358,18.1884328 C66.0433609,17.471498 66.026701,17.4450037 65.3081732,17.36976 C64.926069,17.3294887 64.5375159,17.3289588 64.1521872,17.3353174 C63.5287824,17.3459151 63.4578432,17.4148002 63.4535439,18.0337063 C63.4449452,19.5237439 63.4454826,21.0143113 63.44602,22.5048788 C63.44602,23.9074853 63.4567684,25.3095619 63.4513942,26.7121684 C63.4492445,27.3427319 63.3680944,27.4328124 62.72588,27.5069964 C62.3663474,27.5493872 62.0003658,27.5546861 61.6381461,27.5472677 C60.8771623,27.5313711 60.7223859,27.3750549 60.7229233,26.6480522 C60.7234607,24.5656029 60.7282975,22.4831535 60.7304472,20.4017639 C60.731522,19.5910393 60.725073,18.7797849 60.7325968,17.9685304 C60.7363588,17.5970808 60.6519841,17.3263094 60.1881925,17.3008749 C59.837796,17.281799 59.6658222,17.0587173 59.6599106,16.7285987 C59.652151,16.2904222 59.6514344,15.852152 59.6577609,15.4139532 C59.6631351,15.0870139 59.8254353,14.8485655 60.1731448,14.8247207 C60.6799299,14.7902781 60.7309846,14.4855941 60.7299097,14.0971881 C60.7229233,12.475739 60.7234607,10.85376 60.7304472,9.23231082 C60.7275631,8.92596977 60.7531073,8.62001082 60.8067605,8.31825861 C61.1351229,6.61944622 62.5732533,5.41236742 64.3612428,5.31062943 C65.7241347,5.23326617 66.9478353,5.52364334 67.8356498,6.60037035 C68.4096121,7.29663968 68.7927911,8.07610101 68.7890292,9.00499001 C68.7782808,11.9193594 68.7847299,14.8342586 68.7847299,17.7496878 L68.7895666,17.7496878 L68.7884918,17.7496878 Z M84.377374,16.4350422 L84.377374,6.48962431 C84.377374,6.27025178 84.3816734,6.05087925 84.3859727,5.83150672 C84.3924217,5.48337205 84.5751438,5.30321104 84.9233906,5.30056161 C85.4108287,5.29685241 85.8982668,5.30056161 86.3851674,5.30586046 C86.7248156,5.31062943 86.9354834,5.47542377 86.9532182,5.81984924 C86.9811639,6.36616103 87.0101845,6.91353258 87.00696,7.46037425 C86.9945994,9.54494317 86.9671911,11.6289822 86.9553679,13.7135511 C86.954293,13.9302742 86.9704156,14.1745514 87.0709127,14.3547124 C87.1628112,14.5179171 87.373479,14.6906597 87.547065,14.7081459 C87.6685215,14.7203333 87.887788,14.5004309 87.9372305,14.3446446 C88.0559998,13.9705455 88.1199526,13.5757809 88.1720821,13.1841957 C88.4692742,10.9904704 88.7417451,8.79356576 89.0534475,6.60143012 C89.2458431,5.24333399 89.2307954,5.2973823 90.5136121,5.30321104 C90.6683884,5.30321104 90.8237022,5.30056161 90.9784786,5.30162138 C91.7399998,5.30903978 91.9028375,5.474364 91.7932042,6.19818737 C91.3879911,8.86563017 90.9714922,11.5314833 90.5641294,14.1983962 C90.5050134,14.5883918 90.4378361,14.9826265 90.4399858,15.3736819 C90.4410607,15.5660303 90.5437075,15.8065982 90.6834361,15.9401293 C91.535781,16.7540332 91.8791911,17.7316717 91.8695175,18.9005987 C91.8480208,21.5097541 91.8867149,24.1194394 91.8985381,26.7285948 C91.9012252,27.3400825 91.7330134,27.5218332 91.1246563,27.5430286 C90.726967,27.5562757 90.3255158,27.5631642 89.9289014,27.5308412 C89.397395,27.4879205 89.2807753,27.3628676 89.2780882,26.8223845 C89.2694895,25.0250135 89.2770134,23.2271125 89.276476,21.4292115 C89.276476,20.5093306 89.2936733,19.5894497 89.2651902,18.6700986 C89.2393941,17.8381786 88.8331062,17.4185094 88.1247893,17.4121508 C87.5158948,17.4068519 87.0644637,17.7708832 86.9671911,18.372303 C86.9327963,18.5869066 86.9440821,18.8099883 86.9440821,19.0293608 C86.9430073,21.4880288 86.9435447,23.9472267 86.9424699,26.4058946 C86.9424699,26.6257971 86.9419324,26.8456995 86.9301092,27.0645421 C86.9150615,27.3416722 86.7796322,27.5308412 86.4840523,27.53667 C85.9526119,27.5491292 85.4209378,27.5484224 84.8895333,27.5345504 C84.5412865,27.5239527 84.3789863,27.3162377 84.3805985,26.972872 C84.3822108,26.6220879 84.3752243,26.2707739 84.3752243,25.9194599 L84.3752243,16.4350422 L84.377374,16.4350422 Z M72.5547167,16.3926514 C72.5547167,13.9641869 72.5606283,11.5351925 72.5514922,9.106728 C72.5466554,7.89435034 72.9975491,6.90346476 73.9767246,6.12082411 C75.0563972,5.25817078 76.302132,5.1744489 77.5908602,5.41713638 C79.5766195,5.79017566 80.6218974,7.59920421 80.6106117,9.14911882 C80.6030878,10.1993516 80.6186729,11.2495843 80.6106117,12.299817 C80.6052375,12.965353 80.4547605,13.0988841 79.757192,13.1078922 C79.3702511,13.113191 78.9822353,13.1153106 78.5952944,13.1010037 C78.0197198,13.0798083 77.9138484,12.9844289 77.9063246,12.4402367 C77.8934265,11.5431408 77.9009504,10.6460449 77.8988007,9.74841914 C77.8982633,9.57355698 77.9041749,9.39869482 77.8918143,9.22383266 C77.8326983,8.3368046 77.4317845,7.95157796 76.5842764,7.96005612 C75.6792646,7.96853429 75.2783508,8.35429082 75.277276,9.27788096 C75.2697522,13.6096936 75.2729767,17.9420361 75.2729767,22.2743787 C75.2729767,22.7332594 75.2611535,23.1937297 75.2805005,23.6520805 C75.3105959,24.3859717 75.8501635,24.8867134 76.5826642,24.8867134 C77.3081784,24.8867134 77.8746169,24.3796131 77.893964,23.6467817 C77.9208349,22.6188041 77.9025627,21.5902967 77.9036375,20.5617892 C77.9047123,19.7945153 78.0207946,19.6768807 78.7962887,19.6694623 C79.1611955,19.666283 79.5261023,19.6588646 79.8904716,19.6747612 C80.4617469,19.698606 80.6116865,19.837436 80.6052375,20.4017639 C80.5944891,21.3412506 80.5498834,22.2807373 80.5256996,23.220224 C80.5079648,23.9143738 80.5810537,24.597396 80.2661268,25.2793584 C79.4223806,27.1053433 77.6478265,27.7894253 75.7050607,27.4836814 C73.8326966,27.1895951 72.5617031,25.6635253 72.5568664,23.8094565 C72.5493425,21.3370115 72.5547167,18.8656263 72.5547167,16.3926514 Z M103.709372,23.7951496 C103.760427,25.6253735 102.602291,27.1631008 100.636416,27.4757331 C98.3658256,27.8376448 96.6917687,26.9341903 95.9232611,25.0260732 C95.8114781,24.7484133 95.7614983,24.4326016 95.753437,24.1332164 C95.730328,23.2620849 95.7351648,22.3898937 95.7443009,21.5182323 C95.7507499,20.8410388 95.8480226,20.7742733 96.5348427,20.7922894 C96.9185591,20.8012974 97.3044252,20.7366514 97.6881416,20.7456595 C98.2320086,20.7578468 98.3642134,20.8919078 98.3733495,21.4212633 C98.3840978,22.1185924 98.3937714,22.8169812 98.3669005,23.5137805 C98.3190703,24.7293374 99.5218116,25.1309905 100.397803,24.712911 C100.700369,24.5682523 100.922323,24.3748441 100.973377,24.0367773 C100.9895,23.9292106 101.050228,23.8237634 101.046466,23.7188461 C101.00401,22.5250144 101.029269,21.3237644 100.885778,20.1405304 C100.697682,18.5879664 99.7088331,17.3893657 98.749542,16.1891754 C97.9632996,15.2051784 97.1926423,14.2074043 96.4768016,13.1762474 C95.8012672,12.2033779 95.5615788,11.1081049 95.6970081,9.93334913 C95.7561241,9.41883046 95.658314,8.88417615 95.7480628,8.37760577 C96.1801469,5.95497 98.599065,4.93176141 100.720254,5.41607661 C102.645285,5.85588144 103.835128,7.62887779 103.713134,9.27682119 C103.690563,9.58044549 103.715284,9.8872491 103.70561,10.1919332 C103.686263,10.7854047 103.587378,10.8876726 102.996219,10.9035692 C102.564672,10.9141669 102.132051,10.9146968 101.701041,10.9009198 C101.213066,10.8850232 101.111494,10.7832852 101.072262,10.3191057 C101.032493,9.84220885 101.020133,9.36160284 100.95403,8.88841524 C100.868044,8.27639767 100.478953,7.97807223 99.7760103,7.928263 C99.1741022,7.88587218 98.5576838,8.21281143 98.4625608,8.74640597 C98.2701652,9.82843183 98.1841784,10.9491393 98.8226309,11.9220088 C99.4729066,12.9128944 100.204332,13.8635087 100.978752,14.7701425 C102.333045,16.3560893 103.267077,18.1296155 103.637358,20.1400005 C103.773325,20.8786607 103.696474,23.3373287 103.709372,23.7951496 Z" id="Shape"></path>
                </g>
            </g>
        </g>
    </g>
</svg>