<?xml version="1.0" encoding="UTF-8"?>
<svg width="125px" height="20px" viewBox="0 0 125 20" version="1.1" xmlns="http://www.w3.org/2000/svg" xmlns:xlink="http://www.w3.org/1999/xlink">
    <!-- Generator: Sketch 48.2 (47327) - http://www.bohemiancoding.com/sketch -->
    <title>authy-white</title>
    <desc>Created with Sketch.</desc>
    <defs></defs>
    <g id="About---Final-Draft" stroke="none" stroke-width="1" fill="none" fill-rule="evenodd" transform="translate(-787.000000, -3505.000000)">
        <g id="Logo-Layout" transform="translate(0.000000, 3100.000000)" fill="#FFFFFF" fill-rule="nonzero">
            <g id="Col-3" transform="translate(787.000000, 405.000000)">
                <g id="authy-white" transform="translate(0.948814, 0.855072)">
                    <path d="M40.4129262,3.3842225 C40.2349352,3.06853702 39.9012021,2.87912574 39.5229713,2.87912574 C39.1224916,2.87912574 38.7665096,3.06853702 38.6107675,3.4052682 L33.1597934,13.5913863 L33.1597934,13.612432 C33.0263001,13.8860261 33.048549,14.1806659 33.2042911,14.4332143 C33.404531,14.7068084 33.760513,14.8962197 34.1387438,14.8962197 C34.5169747,14.8962197 34.8507078,14.7068084 35.0064499,14.4121686 L36.3636312,11.8866848 L42.7268091,11.8866848 L44.0394927,14.3490315 C44.2174837,14.6857627 44.5512168,14.875174 44.9739454,14.875174 C45.3744251,14.875174 45.7526559,14.6857627 45.9306469,14.3911229 C46.0863891,14.1385745 46.0641402,13.822889 45.8861492,13.5492949 L40.4129262,3.3842225 Z M41.7701075,10.0978004 L37.2313373,10.0978004 L39.5007224,5.80447785 L41.7701075,10.0978004 Z M64.0634791,2.98435423 C63.551755,2.98435423 63.017782,3.32108541 63.017782,3.95245637 L63.017782,9.57165791 C63.017782,11.8866848 61.1488766,12.9389697 59.3912156,12.9389697 C57.6558034,12.9389697 55.7646492,11.8866848 55.7646492,9.57165791 L55.7646492,3.95245637 C55.7646492,3.34213111 55.2306762,3.02644563 54.7189521,3.02644563 C54.1182325,3.02644563 53.6955039,3.4052682 53.6955039,3.93141067 L53.6955039,9.57165791 C53.6955039,13.0441982 56.5656086,14.8541283 59.3912156,14.8541283 C62.2168226,14.8541283 65.0869273,13.0441982 65.0869273,9.57165791 L65.0869273,3.93141067 C65.0869273,3.30003971 64.5529543,2.98435423 64.0634791,2.98435423 Z M83.4867459,3.15271982 L74.11997,3.15271982 C73.4747527,3.15271982 73.1187707,3.63677089 73.1187707,4.07873056 C73.1187707,4.52069023 73.4747527,5.0047413 74.11997,5.0047413 L77.7687853,5.0047413 L77.7687853,13.9491632 C77.7687853,14.5805342 78.2805094,14.9172654 78.7922335,14.9172654 C79.3039576,14.9172654 79.8379306,14.5594885 79.8379306,13.9491632 L79.8379306,4.9836956 L83.5089948,4.9836956 C84.176461,4.9836956 84.532443,4.49964453 84.532443,4.05768486 C84.5101941,3.61572519 84.1542121,3.15271982 83.4867459,3.15271982 Z M101.530583,2.96330853 C101.041107,2.96330853 100.507134,3.30003971 100.507134,3.93141067 L100.507134,8.26682459 L94.5666851,8.26682459 L94.5666851,3.93141067 C94.5666851,3.32108541 94.0327121,2.98435423 93.5432369,2.98435423 C93.0537616,2.98435423 92.5420375,3.32108541 92.5420375,3.93141067 L92.5420375,13.9070718 C92.5420375,14.2017116 92.6532819,14.45426 92.8757707,14.6226256 C93.0760105,14.7909912 93.3207481,14.875174 93.5877346,14.875174 C94.0772098,14.875174 94.5666851,14.5384428 94.5666851,13.9070718 L94.5666851,10.0136176 L100.529383,10.0136176 L100.529383,13.9070718 C100.529383,14.2858944 100.707374,14.5173971 100.840867,14.6436713 C101.018858,14.8120369 101.263596,14.8962197 101.530583,14.8962197 C102.020058,14.8962197 102.554031,14.5594885 102.554031,13.9070718 L102.554031,3.93141067 C102.554031,3.30003971 102.042307,2.96330853 101.530583,2.96330853 Z M122.177537,3.4684053 C121.999546,3.17376552 121.643564,2.98435423 121.265334,2.98435423 C120.931601,2.98435423 120.620116,3.15271982 120.419876,3.4263139 L116.570821,8.35100738 L112.766264,3.4263139 C112.566024,3.15271982 112.25454,2.98435423 111.898558,2.98435423 C111.498078,2.98435423 111.097598,3.19481122 110.919607,3.53154239 C110.763865,3.82618217 110.808363,4.16291335 111.030852,4.45755313 L115.525124,10.0978004 L115.525124,13.822889 C115.525124,14.3911229 115.947853,14.7909912 116.548572,14.7909912 C117.038048,14.7909912 117.572021,14.45426 117.572021,13.822889 L117.572021,10.0978004 L122.044044,4.41546174 L122.066293,4.39441604 C122.311031,4.09977626 122.33328,3.76304508 122.177537,3.4684053 Z M11.2669016,5.86761494 L15.5164365,9.88734339 C16.1394049,10.4766229 17.1183554,10.4766229 17.7413238,9.88734339 C18.3642923,9.29806382 18.3642923,8.37205308 17.7413238,7.78277352 L13.4917889,3.76304508 C10.4436932,0.879784364 5.52669212,0.837692967 2.41184979,3.61572519 C2.38960091,3.63677089 2.34510317,3.65781659 2.32285429,3.67886228 L2.27835654,3.72095368 L2.2338588,3.76304508 C2.21160992,3.78409078 2.18936105,3.80513648 2.16711218,3.84722787 C-0.769739166,6.79362568 -0.725241419,11.4447251 2.32285429,14.3279858 L6.57238919,18.3477142 C7.19535765,18.9369938 8.1743081,18.9369938 8.79727657,18.3477142 C9.42024503,17.7584347 9.42024503,16.8324239 8.79727657,16.2431444 L4.54774167,12.2234159 C2.70108515,10.4766229 2.67883627,7.61440793 4.50324392,5.84656924 C6.3943982,4.09977626 9.42024503,4.12082196 11.2669016,5.86761494 Z" id="Shape"></path>
                    <path d="M16.8408795,0.442500359 C16.2135293,1.03250084 16.2135293,1.95964445 16.8408795,2.54964493 L21.1203038,6.57429105 C22.979949,8.32322104 23.0023543,11.1889377 21.1651146,12.9589391 C19.2830641,14.6867976 16.2583401,14.6867976 14.3762896,12.9167962 L10.0968653,8.89215007 C9.46951511,8.30214959 8.48367914,8.30214959 7.85632897,8.89215007 C7.22897881,9.48215055 7.22897881,10.4092942 7.85632897,10.9992946 L12.1357533,15.0239408 C15.205288,17.9107288 20.1568732,17.9528717 23.293624,15.1714409 C23.3160294,15.1503694 23.3608401,15.129298 23.3832455,15.1082265 L23.4280562,15.0660837 L23.4728669,15.0239408 C23.4952723,15.0028693 23.5176777,14.9817979 23.540083,14.939655 C26.4975909,11.9896526 26.4527802,7.33286309 23.3832455,4.46714648 L19.1038212,0.442500359 C18.4540656,-0.14750012 17.4458243,-0.14750012 16.8408795,0.442500359 Z M40.6577803,3.30821697 C40.4785374,2.99214529 40.142457,2.80250227 39.7615658,2.80250227 C39.3582693,2.80250227 38.9997835,2.99214529 38.8429459,3.32928842 L33.353632,13.5278681 L33.353632,13.5489396 C33.2191998,13.8228684 33.2416052,14.1178686 33.3984427,14.3707259 C33.600091,14.6446547 33.9585768,14.8342978 34.339468,14.8342978 C34.7203591,14.8342978 35.0564396,14.6446547 35.2132771,14.3496545 L36.5800043,11.821081 L42.9879381,11.821081 L44.3098545,14.2864402 C44.4890974,14.6235833 44.8251778,14.8132263 45.2508797,14.8132263 C45.6541762,14.8132263 46.0350674,14.6235833 46.2143103,14.3285831 C46.3711479,14.0757257 46.3487425,13.759654 46.1694996,13.4857252 L40.6577803,3.30821697 Z M42.0245075,10.0300081 L37.4538134,10.0300081 L39.7391604,5.73143322 L42.0245075,10.0300081 Z M64.4746811,2.9078595 C63.9593578,2.9078595 63.4216291,3.24500263 63.4216291,3.877146 L63.4216291,9.503222 C63.4216291,11.821081 61.5395786,12.8746533 59.7695549,12.8746533 C58.0219366,12.8746533 56.1174807,11.821081 56.1174807,9.503222 L56.1174807,3.877146 C56.1174807,3.26607408 55.579752,2.95000239 55.0644287,2.95000239 C54.4594839,2.95000239 54.033782,3.32928842 54.033782,3.85607456 L54.033782,9.503222 C54.033782,12.9800105 56.9240738,14.7921549 59.7695549,14.7921549 C62.615036,14.7921549 65.5053278,12.9800105 65.5053278,9.503222 L65.5053278,3.85607456 C65.5053278,3.22393119 64.9675991,2.9078595 64.4746811,2.9078595 Z M84.034563,3.07643107 L74.6019052,3.07643107 C73.9521496,3.07643107 73.5936638,3.56107432 73.5936638,4.00357468 C73.5936638,4.44607504 73.9521496,4.93071829 74.6019052,4.93071829 L78.2763847,4.93071829 L78.2763847,13.8860827 C78.2763847,14.5182261 78.791708,14.8553692 79.3070314,14.8553692 C79.8223547,14.8553692 80.3600834,14.4971546 80.3600834,13.8860827 L80.3600834,4.90964684 L84.0569683,4.90964684 C84.7291292,4.90964684 85.087615,4.42500359 85.087615,3.98250323 C85.0652097,3.54000287 84.7067238,3.07643107 84.034563,3.07643107 Z M102.205312,2.88678806 C101.712394,2.88678806 101.174666,3.22393119 101.174666,3.85607456 L101.174666,8.19679237 L95.1924337,8.19679237 L95.1924337,3.85607456 C95.1924337,3.24500263 94.654705,2.9078595 94.161787,2.9078595 C93.668869,2.9078595 93.1535457,3.24500263 93.1535457,3.85607456 L93.1535457,13.8439398 C93.1535457,14.13894 93.2655725,14.3917974 93.4896261,14.560369 C93.6912744,14.7289405 93.9377334,14.8132263 94.2065977,14.8132263 C94.6995157,14.8132263 95.1924337,14.4760832 95.1924337,13.8439398 L95.1924337,9.94572236 L101.197071,9.94572236 L101.197071,13.8439398 C101.197071,14.2232258 101.376314,14.4550117 101.510746,14.5814404 C101.689989,14.750012 101.936448,14.8342978 102.205312,14.8342978 C102.69823,14.8342978 103.235959,14.4971546 103.235959,13.8439398 L103.235959,3.85607456 C103.235959,3.22393119 102.720636,2.88678806 102.205312,2.88678806 Z M122.997489,3.39250275 C122.818246,3.09750251 122.45976,2.9078595 122.078869,2.9078595 C121.742789,2.9078595 121.429114,3.07643107 121.227465,3.35035986 L117.351338,8.28107815 L113.520021,3.35035986 C113.318372,3.07643107 113.004697,2.9078595 112.646211,2.9078595 C112.242915,2.9078595 111.839618,3.11857396 111.660375,3.45571709 C111.503538,3.75071733 111.548349,4.08786046 111.772402,4.3828607 L116.298286,10.0300081 L116.298286,13.759654 C116.298286,14.3285831 116.723987,14.7289405 117.328932,14.7289405 C117.82185,14.7289405 118.359579,14.3917974 118.359579,13.759654 L118.359579,10.0300081 L122.863057,4.34071781 L122.885462,4.31964636 C123.131921,4.02464612 123.154327,3.68750299 122.997489,3.39250275 Z" id="Shape"></path>
                    <path d="M11.6791965,5.86761494 L16.0842365,9.88734339 C16.7300016,10.4766229 17.7447752,10.4766229 18.3905402,9.88734339 C19.0363053,9.29806382 19.0363053,8.37205308 18.3905402,7.78277352 L13.9855002,3.76304508 C10.8258641,0.879784364 5.7289329,0.837692967 2.50010771,3.61572519 C2.47704468,3.63677089 2.4309186,3.65781659 2.40785556,3.67886228 L2.36172949,3.72095368 L2.31560342,3.76304508 C2.29254038,3.78409078 2.26947734,3.80513648 2.2464143,3.84722787 C-0.797906585,6.79362568 -0.751780511,11.4447251 2.40785556,14.3279858 L6.81289564,18.3477142 C7.45866068,18.9369938 8.47343431,18.9369938 9.11919934,18.3477142 C9.76496438,17.7584347 9.76496438,16.8324239 9.11919934,16.2431444 L4.71415927,12.2234159 C2.79992719,10.4766229 2.77686416,7.61440793 4.66803319,5.84656924 C6.62839134,4.09977626 9.76496438,4.12082196 11.6791965,5.86761494 Z" id="Shape"></path>
                    <path d="M17.118418,0.442500359 C16.4726529,1.03250084 16.4726529,1.95964445 17.118418,2.54964493 L21.5234581,6.57429105 C23.4376901,8.32322104 23.4607532,11.1889377 21.5695841,12.9589391 C19.632289,14.6867976 16.518779,14.6867976 14.5814839,12.9167962 L10.1764438,8.89215007 C9.5306788,8.30214959 8.51590517,8.30214959 7.87014013,8.89215007 C7.22437509,9.48215055 7.22437509,10.4092942 7.87014013,10.9992946 L12.2751802,15.0239408 C15.4348163,17.9107288 20.5317475,17.9528717 23.7605727,15.1714409 C23.7836357,15.1503694 23.8297618,15.129298 23.8528248,15.1082265 L23.8989509,15.0660837 L23.9450769,15.0239408 C23.96814,15.0028693 23.991203,14.9817979 24.0142661,14.939655 C27.0585869,11.9896526 27.0124609,7.33286309 23.8528248,4.46714648 L19.4477847,0.442500359 C18.7789567,-0.14750012 17.74112,-0.14750012 17.118418,0.442500359 Z" id="Shape"></path>
                </g>
            </g>
        </g>
    </g>
</svg>