<?xml version="1.0" encoding="UTF-8"?>
<svg width="105px" height="45px" viewBox="0 0 105 45" version="1.1" xmlns="http://www.w3.org/2000/svg" xmlns:xlink="http://www.w3.org/1999/xlink">
    <!-- Generator: Sketch 48.2 (47327) - http://www.bohemiancoding.com/sketch -->
    <title>bittorrent-white</title>
    <desc>Created with Sketch.</desc>
    <defs></defs>
    <g id="About---Final-Draft" stroke="none" stroke-width="1" fill="none" fill-rule="evenodd" transform="translate(-797.000000, -3751.000000)">
        <g id="Logo-Layout" transform="translate(0.000000, 3100.000000)" fill="#FFFFFF" fill-rule="nonzero">
            <g id="Col-3" transform="translate(787.000000, 405.000000)">
                <g id="bittorrent-white" transform="translate(10.982522, 246.362319)">
                    <path d="M54.1155377,14.1173762 L55.8773089,13.175662 C55.1422251,11.8492008 54.1125001,10.9306935 52.7468237,10.3883834 C50.9695246,9.67351571 48.964168,9.81824022 47.3066747,10.7809933 C45.6491814,11.7437465 44.5229563,13.4179978 44.2514412,15.3229169 C43.8705341,17.9184327 44.9257743,19.9014067 46.8515726,21.5063515 C48.2336517,22.6587605 49.8739215,23.2584773 51.6229351,23.4471866 C53.2449797,23.6224602 54.888287,23.6059711 56.5346319,23.6120782 C56.0152131,23.6688742 55.4976168,23.7372736 54.9769831,23.7781912 C54.4508817,23.8191087 53.9217428,23.8649119 53.3956415,23.8514763 C51.3939049,23.8007874 49.455349,23.4587901 47.6729225,22.4792119 C45.5326742,21.3029852 44.0928818,19.6137625 43.6645891,17.1171817 C43.075307,13.6856045 45.5660871,10.0372254 48.9681281,9.41918731 C50.3016067,9.17734631 51.6059249,9.26528849 52.9266458,9.74897049 L53.7771561,7.84599941 C53.1234782,7.66889363 52.5226535,7.46003095 51.904211,7.34582825 C47.6480147,6.55984501 43.1719007,9.17429276 41.8396371,13.3222323 C40.8038371,16.5437254 41.6300471,19.4366567 43.7447801,21.98698 C45.2526133,23.8050624 47.2816878,24.7021948 49.5464751,25.0973239 C50.6381657,25.2878653 51.7480816,25.3721432 52.8476699,25.5040565 C48.4055763,25.5981058 44.4634613,24.5275318 42.0364695,20.40341 C39.4424132,15.9959189 40.7977621,10.6064068 45.5976774,7.84050302 C46.9190059,7.07894816 48.3594058,6.69481183 49.8848567,6.66916203 C50.1758527,6.66488706 50.2991767,6.58366268 50.286419,6.27830789 C50.2681938,5.84775763 50.2675863,5.41537524 50.2870265,4.9860464 C50.3016067,4.66237032 50.1776752,4.5530533 49.8623789,4.57076388 C47.4688,4.70023431 45.2647634,5.39644324 43.3420027,6.86031413 C40.7096735,8.86527371 39.0274857,11.4992642 38.6368585,14.8105316 C38.1411325,19.0116028 39.9041188,22.1799642 43.3748081,24.4548574 C43.4817294,24.5244783 43.5922958,24.5892135 43.7004321,24.657613 C43.7077222,24.6624987 43.7089372,24.6783771 43.7253399,24.724791 C42.6366867,24.2435519 41.6950504,23.580932 40.833605,22.8102165 C37.7098023,20.0119451 36.2493547,16.5076935 36.401839,12.2974616 C36.604139,6.73206511 40.6932708,1.72974287 46.1906046,0.380685383 C53.3816688,-1.38426533 60.52474,3.15758189 61.9523822,10.4897612 C62.7069063,14.3671564 61.8333108,17.9227076 59.4026739,21.0562585 C59.27935,21.215043 59.0478897,21.3555062 58.8516648,21.3799346 C56.052271,21.7304819 53.2546998,21.9185805 50.4941865,21.105726 C49.0009335,20.6666258 47.795639,19.7896468 46.9220434,18.5095996 C45.5478618,16.49609 46.2604679,12.8043506 49.5325024,12.1075309 C51.3173589,11.7270588 52.7869192,12.3383791 53.8858999,13.8175178 C53.9527257,13.9072921 54.0225891,13.995845 54.1155377,14.1167655 L54.1155377,14.1173762 Z M3.33643024,34.366674 C4.65472114,34.366674 5.94081415,34.42347 7.22022458,34.3483528 C8.22990176,34.2891139 8.78151841,33.5855765 8.81432381,32.5528666 C8.8465217,31.5665706 8.34715067,30.8172299 7.41705696,30.732952 C6.07446576,30.6126422 4.72093944,30.6248564 3.33643024,30.5796639 L3.33643024,34.366674 Z M3.37348819,36.7533271 C3.34615036,36.8321087 3.32063505,36.8724155 3.32063505,36.9121116 C3.31455998,38.23613 3.30544737,39.5601484 3.31881253,40.8847775 C3.32002754,40.9763839 3.49498965,41.1443291 3.58915329,41.1443291 C4.93052947,41.1473826 6.27555069,41.1803609 7.61328182,41.0973044 C8.71894516,41.0295157 9.3859882,40.2746786 9.44187888,39.2321973 C9.51234973,37.9069575 8.9880709,37.1105922 7.83137695,36.8467657 C7.48509778,36.7685949 7.11937837,36.7606556 6.76216406,36.7569914 C5.6297704,36.7466093 4.49676923,36.7533271 3.37348819,36.7533271 Z M1.61872469e-15,27.9994159 C0.112996363,27.9872017 0.206552491,27.9670483 0.299501112,27.9670483 C2.87411716,27.9701018 5.44873322,27.9475055 8.02274176,27.9920873 C9.06704686,28.0104086 10.0870517,28.2546925 10.9223742,28.9844904 C11.8719082,29.8138341 12.0650955,30.9393718 12.0219625,32.1479661 C11.9776145,33.4060279 11.40109,34.3263672 10.3695426,34.9572302 C10.2644438,35.0213547 10.1629901,35.0915863 10.0020006,35.1978498 C10.2152357,35.2888455 10.3768327,35.3548022 10.5366071,35.4262552 C11.9059286,36.040629 12.5942344,37.1655561 12.7297085,38.6703445 C13.0419673,42.1367322 10.6702587,43.590221 8.43645425,43.7312949 C5.85758565,43.8931329 3.26474438,43.8155728 0.678585684,43.8412226 C0.459883047,43.8436655 0.241180409,43.8412226 0,43.8412226 L0,27.9994159 Z M73.5089941,36.8687512 C73.3291719,35.2723564 72.3194947,34.341635 70.975081,34.480266 C69.526176,34.6298899 68.5723895,35.6076359 68.6695907,36.8687512 L73.5089941,36.8687512 Z M76.2591798,40.1958971 C75.9165456,41.9755048 74.3534293,43.4332686 72.5084295,43.7288521 C71.4866022,43.8925222 70.4641674,43.8986293 69.4617803,43.6170922 C67.8087528,43.1529529 66.6429463,42.1110824 66.0694594,40.4762128 C65.3526007,38.4291142 65.4218565,36.4015584 66.6672466,34.5798117 C68.0620834,32.5382095 70.1039155,31.9470427 72.4397812,32.3653787 C74.4354428,32.7232545 75.9645387,34.4350735 76.3673161,36.6488958 C76.4675548,37.201588 76.4742373,37.7719907 76.5392406,38.3320114 C76.5793361,38.6813373 76.4420395,38.7735544 76.1048729,38.7717223 C73.7945225,38.7582867 71.4835647,38.7650045 69.1732143,38.7650045 C68.5960823,38.7650045 68.5960823,38.7650045 68.6629081,39.3494536 C68.7935222,40.5128554 69.4222923,41.2829601 70.432577,41.5211369 C71.7326427,41.8264917 72.9737801,41.4203698 73.5642772,40.4664414 C73.6918538,40.2606323 73.8218604,40.1885686 74.0502831,40.1916221 C74.7835445,40.2032256 75.5174133,40.1958971 76.2591798,40.1958971 Z M45.6584282,38.0272673 C45.521739,37.3951829 45.4458006,36.7172953 45.2234529,36.0894858 C44.8528735,35.0433403 43.8838993,34.4417913 42.7922086,34.4662197 C41.6829002,34.4906481 40.8050521,35.0805936 40.4205,36.1175784 C39.9587944,37.363426 39.9557569,38.6355341 40.3779745,39.8874887 C40.7643492,41.0301264 41.6294396,41.6157969 42.8037513,41.617629 C44.0187659,41.6194611 44.8893239,41.047837 45.2744835,39.8935958 C45.4688859,39.3134217 45.5272066,38.6886658 45.6584282,38.0272673 Z M48.6005862,38.0187174 C48.5756784,39.8777174 48.0653722,41.4753337 46.597027,42.6582781 C45.7732471,43.3221195 44.8085254,43.6696132 43.7642203,43.7838159 C42.5279429,43.918172 41.3086757,43.8448869 40.1592719,43.3178445 C38.2723541,42.4518583 37.3465129,40.9128701 37.1144451,38.9305068 C36.9850461,37.8245117 37.0682746,36.7252345 37.4625468,35.6674855 C38.2049208,33.6753508 40.0894085,32.3421718 42.2697523,32.2493439 C43.5011697,32.1974336 44.6955291,32.3262933 45.7975474,32.9211244 C47.511933,33.8463495 48.3308529,35.3419773 48.5519856,37.2064736 C48.586006,37.4935071 48.587221,37.7848156 48.6005862,38.0187174 Z M88.6681244,43.8412226 C87.7434983,43.8412226 86.849855,43.8479404 85.9568192,43.8296191 C85.8748057,43.827787 85.7618094,43.6812167 85.7235364,43.5780068 C85.6822259,43.4656362 85.7113863,43.3263944 85.7101712,43.1993668 C85.6986286,41.0893652 85.6889085,38.9793636 85.6718983,36.8693619 C85.6700758,36.6592778 85.6318028,36.4479723 85.5910998,36.2403311 C85.3991275,35.2540351 84.9106916,34.7398176 84.1087819,34.669586 C82.8220814,34.5566047 81.9794687,34.9468482 81.6745001,35.931312 C81.4796502,36.5786053 81.3741731,37.2497374 81.3610263,37.9258895 C81.3191083,39.7091615 81.3464461,41.4948764 81.3464461,43.2799805 L81.3464461,43.8125193 L78.4024656,43.8125193 C78.394568,43.6549562 78.3805953,43.5041109 78.3805953,43.3532657 C78.3787728,39.9253527 78.3878854,36.4974398 78.3684452,33.0701376 C78.3660152,32.6237089 78.5033118,32.5113383 78.9079117,32.5296596 C79.5409343,32.5595844 80.176387,32.5485916 80.8100171,32.5339346 C81.1186309,32.5266061 81.2279822,32.6536336 81.214617,32.9602099 C81.1988218,33.3205285 81.210972,33.68329 81.210972,34.1376579 C81.3349035,34.024066 81.381074,33.9953626 81.4090194,33.9532237 C82.4496794,32.4093498 83.9392874,32.0783452 85.6330178,32.3018649 C86.9573838,32.4765279 87.9585559,33.1141087 88.3607257,34.4759911 C88.5429779,35.0909756 88.6656944,35.7487098 88.6754145,36.3893442 C88.7118649,38.7961507 88.6893872,41.2047893 88.6887797,43.6128172 C88.6887797,43.6677811 88.6790595,43.7233557 88.6681244,43.8412226 Z M26.7388275,27.9639947 L38.3215622,27.9639947 C38.8774314,27.9639947 38.8780389,27.9652161 38.8798614,28.5234047 C38.8810764,29.0852575 38.8804689,29.6471103 38.8798614,30.2083524 C38.8786464,30.8343298 38.8780389,30.8355512 38.2893643,30.8361619 C37.2158989,30.8373833 36.1424334,30.8349405 35.0683605,30.837994 C34.8903608,30.837994 34.7123612,30.8563153 34.4997336,30.8685295 L34.4997336,43.832062 L33.4815513,43.832062 C32.8539962,43.832062 32.2252262,43.808855 31.5994936,43.8406119 C31.2307367,43.8589332 31.1189553,43.7410662 31.1232079,43.3612049 C31.1414331,41.9071053 31.130498,40.4523951 31.130498,38.9982956 L31.130498,31.3955719 C31.130498,30.8386047 31.1274604,30.8373833 30.5734137,30.8367726 C29.4440576,30.8355512 28.314094,30.8257798 27.1847379,30.8428797 C26.8469638,30.8477654 26.7187798,30.7512733 26.7309299,30.381794 C26.7570527,29.6061928 26.7388275,28.8281488 26.7388275,27.9639947 Z M95.4801041,32.0826202 C96.0772838,32.0826202 96.6398356,32.1101021 97.1981348,32.0740702 C97.6379701,32.0459776 97.7752668,32.2188084 97.7406388,32.6511908 C97.7102635,33.0273879 97.7224136,33.4090814 97.7376013,33.7871106 C97.7497514,34.0820834 97.6568028,34.2023932 97.3524417,34.1907897 C96.7491869,34.1694148 96.1435021,34.1846826 95.4801041,34.1846826 L95.4801041,40.0200127 C95.4813191,41.0985259 95.7990454,41.4173163 96.8676508,41.3867808 C97.3730969,41.3721237 97.877328,41.3269312 98.416187,41.2927315 L98.416187,43.7160272 C97.0505105,43.8155728 95.6854416,43.9609217 94.3337377,43.6738882 C93.0008667,43.3911296 92.3970044,42.5599539 92.3927518,41.1174578 C92.3866768,39.0044027 92.3909293,36.8913475 92.3909293,34.7782923 L92.3909293,34.2017825 L90.5216293,34.2017825 C90.5216293,33.5397733 90.5076566,32.9321172 90.538032,32.326904 C90.5422845,32.2395725 90.7603796,32.1009415 90.8843111,32.0948344 C91.3733545,32.0673524 91.8642205,32.0832309 92.3909293,32.0832309 C92.3909293,31.0248712 92.406117,30.0355216 92.3830317,29.0473935 C92.3745266,28.6827999 92.4820554,28.5649329 92.8344097,28.575315 C93.5956163,28.598522 94.3592531,28.589972 95.1216748,28.57959 C95.391408,28.5759257 95.4904317,28.6687536 95.4861791,28.9594513 C95.4709915,29.9775042 95.4801041,30.9955571 95.4801041,32.0826202 Z M21.9170418,34.1968968 L20.0507793,34.1968968 C20.0507793,33.5477125 20.0386292,32.9382243 20.0653595,32.3299576 C20.0690045,32.2456796 20.2634069,32.1076593 20.3745807,32.1021629 C20.8648391,32.0765131 21.3575276,32.0911701 21.9176493,32.0911701 L21.9176493,31.5390886 C21.9176493,30.6914237 21.926762,29.8431481 21.9115743,28.9954832 C21.9067142,28.7053961 21.972325,28.5685972 22.2821537,28.5747043 C23.0719133,28.5911935 23.8622803,28.5881399 24.6526473,28.5765364 C24.9321007,28.5722615 25.0135067,28.6852427 25.0080391,28.9661691 C24.9934589,29.8291018 25.0031791,30.6914237 25.0031791,31.5543564 L25.0031791,32.0899487 C25.621014,32.0899487 26.1975385,32.10827 26.7722404,32.0832309 C27.1397823,32.0673524 27.2843691,32.19438 27.2606763,32.5840128 C27.233946,33.0054024 27.2454886,33.431067 27.2558162,33.8548994 C27.2624988,34.1217795 27.1586151,34.2085003 26.903462,34.2017825 C26.286842,34.1865147 25.6702221,34.1968968 25.0031791,34.1968968 L25.0031791,34.7135571 C25.0031791,36.4681257 25.0153292,38.2226944 24.9989265,39.9766523 C24.9879914,41.1650932 25.3330555,41.4313626 26.5426026,41.4105985 C27.0024857,41.4032699 27.4611537,41.3580774 27.945337,41.3287634 L27.945337,43.7447305 C27.5547098,43.7789302 27.1659051,43.8436655 26.777708,43.842444 C25.9326653,43.8393905 25.0815475,43.8607653 24.2444024,43.7673268 C22.6284329,43.5865567 21.9255469,42.7260669 21.9188644,41.0191336 C21.9115743,38.942721 21.9170418,36.8663084 21.9170418,34.7898958 L21.9170418,34.1975075 L21.9170418,34.1968968 Z M58.328601,43.8338941 L58.328601,43.3679227 C58.328601,39.9192456 58.3346761,36.4711793 58.3207034,33.0225022 C58.3188809,32.6572979 58.4069694,32.5217204 58.7896991,32.5369881 C59.4717389,32.5591776 60.1543009,32.5599923 60.8363912,32.539431 C61.1553326,32.5321024 61.2968818,32.6157697 61.2762265,32.9669277 C61.2458512,33.4860308 61.2683289,34.0075768 61.3066019,34.5578261 C62.1188392,33.1141087 63.2974034,32.2927043 65.003284,32.2389618 L65.003284,35.115404 C64.6466772,35.115404 64.2912854,35.0744865 63.9492588,35.1233432 C62.6279303,35.3126632 61.7573723,36.1664352 61.5404922,37.5051106 C61.4556111,38.0629504 61.4119536,38.6263449 61.4098782,39.1906691 C61.3916529,40.5891941 61.394083,41.9889404 61.4104857,43.3880761 C61.4147382,43.7361806 61.3120695,43.8522154 60.9524251,43.8418333 C60.1013074,43.8167942 59.2483671,43.8338941 58.328601,43.8338941 Z M52.769909,34.5108015 C53.6325694,33.0847946 54.8087035,32.2939257 56.4981814,32.2389618 L56.4981814,35.1190683 C56.1458272,35.1190683 55.7770702,35.0744865 55.4222859,35.1270075 C53.9466506,35.3468629 53.0031918,36.4235439 52.9533762,38.0272673 C52.8987005,39.7800038 52.9175332,41.5351832 52.9053831,43.2897519 C52.901738,43.8418333 52.9029531,43.8418333 52.3470839,43.842444 L49.8502287,43.842444 C49.8405086,43.6714454 49.8259284,43.5340357 49.8259284,43.3972367 C49.8247134,39.943674 49.8320035,36.490722 49.8156008,33.03777 C49.8137783,32.6408087 49.9322422,32.5235525 50.3186169,32.5375988 C51.0142128,32.5632486 51.7122387,32.5528666 52.4084421,32.5424845 C52.6812129,32.5375988 52.7863116,32.6285946 52.7753765,32.9113531 C52.7553288,33.4438919 52.7693014,33.9770413 52.7693014,34.5101908 L52.769909,34.5108015 Z M18.1766192,43.230513 C17.2592832,43.230513 16.3547048,43.2366201 15.4501263,43.2195203 C15.3656828,43.2182988 15.2605841,43.0766142 15.2089459,42.9776793 C15.169458,42.9001191 15.1967958,42.7883593 15.1967958,42.6918672 L15.1974033,32.8185252 C15.1974033,32.2426261 15.1992258,32.2414047 15.7684602,32.2401833 C16.4670936,32.2389618 17.164512,32.2432368 17.8631454,32.2389618 C18.0873156,32.2377404 18.2258273,32.2774365 18.2252198,32.5546987 C18.2161072,36.0662788 18.2167147,39.577859 18.2142847,43.0894391 C18.2142847,43.1156996 18.2009195,43.1419601 18.1772267,43.230513 L18.1766192,43.230513 Z M18.2252198,27.9652161 L18.2252198,30.396451 C17.61589,30.396451 17.0083826,30.4056116 16.4014828,30.3927867 C16.0205757,30.3848475 15.5090546,30.4758432 15.2982495,30.2767519 C15.1038472,30.093539 15.2265636,29.5829858 15.2192736,29.2165601 C15.2131985,28.8892197 15.2034784,28.5600473 15.2320312,28.2351498 C15.2405363,28.1392684 15.3747954,27.9786517 15.4543789,27.9768196 C16.3698924,27.9584983 17.2860135,27.9646054 18.2252198,27.9646054 L18.2252198,27.9652161 Z M98.5170332,32.2389618 L100.204081,32.2389618 C100.269692,32.5858449 100.269084,32.6102733 99.9592556,32.6041662 C99.660362,32.5980591 99.574096,32.7116511 99.5898911,32.9907453 C99.6093314,33.3431248 99.5941437,33.6973363 99.5941437,34.0710906 L99.1342606,34.0710906 C99.1342606,33.7260397 99.121503,33.3870959 99.1385132,33.0505949 C99.1537009,32.7562329 99.0959877,32.5785164 98.7375584,32.5980591 C98.6342821,32.6035555 98.5237158,32.4575959 98.416187,32.3812572 L98.5170332,32.2389618 Z M103.276246,34.0710906 L102.817578,34.0484943 L102.817578,33.1122765 C102.783591,33.104392 102.74957,33.0966563 102.715516,33.0890696 C102.60495,33.3333534 102.515039,33.5910729 102.374705,33.8188675 C102.306664,33.9287953 102.142637,34.0478836 102.02235,34.0472729 C101.903279,34.0460515 101.741075,33.925131 101.674856,33.8133712 C101.53513,33.5764158 101.446434,33.3119786 101.337082,33.0585341 L101.218011,33.0676947 C101.218011,33.3040394 101.210721,33.540384 101.219833,33.7761179 C101.230161,34.0326159 101.116557,34.1083439 100.846216,34.0228445 L100.846216,32.3067506 C101.300024,32.1552946 101.565505,32.2823222 101.688221,32.720201 C101.755047,32.9583777 101.881409,33.1818974 102.026603,33.517177 C102.174227,33.1776225 102.309094,32.9351708 102.385032,32.6768406 C102.484056,32.341561 102.669346,32.1894944 103.032028,32.2530082 C103.109789,32.2670545 103.194232,32.2450689 103.276246,32.2395725 L103.276246,34.0710906 Z" id="Shape"></path>
                </g>
            </g>
        </g>
    </g>
</svg>