<?xml version="1.0" encoding="UTF-8"?>
<svg width="113px" height="15px" viewBox="0 0 113 15" version="1.1" xmlns="http://www.w3.org/2000/svg" xmlns:xlink="http://www.w3.org/1999/xlink">
    <!-- Generator: Sketch 48.2 (47327) - http://www.bohemiancoding.com/sketch -->
    <title>bose-white</title>
    <desc>Created with Sketch.</desc>
    <defs></defs>
    <g id="About---Final-Draft" stroke="none" stroke-width="1" fill="none" fill-rule="evenodd" transform="translate(-274.000000, -3765.000000)">
        <g id="Logo-Layout" transform="translate(0.000000, 3100.000000)" fill="#FFFFFF" fill-rule="nonzero">
            <g id="Col-1" transform="translate(274.000000, 388.000000)">
                <g id="bose-white" transform="translate(0.000000, 277.869565)">
                    <path d="M64.0890995,0.0436792501 C62.927566,0.0436792501 61.9194426,0.727987501 61.4091192,1.63575626 C60.9000482,2.54415806 59.4636288,5.10983922 58.9464177,6.01887405 C58.4285803,6.92854191 59.1054632,7.9318986 60.019036,7.9318986 L68.564291,7.9318986 L67.0301901,10.657737 C66.7859863,11.0945295 66.3808584,11.3211552 65.9406654,11.3211552 L64.6119462,11.3211552 C64.1717531,11.3211552 63.9870349,10.8299219 64.1454543,10.5342957 C64.3044998,10.2380364 64.6570299,9.62715992 64.6570299,9.62715992 L56.9113859,9.62715992 L55.7880483,11.6243778 C55.2633232,12.5562018 55.962748,13.5677879 56.8493957,13.5677879 L71.3256726,13.5677879 C72.4778136,13.5677879 73.5003388,12.9227277 74.0513628,11.9370959 C74.6023868,10.9520972 75.8985455,8.63266569 76.4583358,7.64513482 C77.0181261,6.65887002 76.309935,5.68146767 75.4195304,5.68146767 L66.87678,5.68146767 C66.87678,5.68146767 68.2731249,3.19681468 68.4547123,2.87523411 C68.6350475,2.55365355 69.0483155,2.28651379 69.5091719,2.28651379 L70.8416481,2.28651379 C71.2755795,2.28651379 71.4590454,2.77394889 71.3212894,3.02906104 C71.1835334,3.28543924 70.784041,3.98367421 70.784041,3.98367421 L78.5209188,3.98367421 C78.5209188,3.98367421 79.2535302,2.68595736 79.6830785,1.92125397 C80.1126267,1.15655058 79.5791353,0.0436792501 78.590423,0.0436792501 L64.0890995,0.0436792501 Z M57.9627146,0.0436792501 L43.5008395,0.0436792501 C42.4488846,0.0436792501 41.3624907,0.624803186 40.7995696,1.62056348 C40.2372747,2.61695681 35.6487476,10.7792793 35.1503214,11.6648919 C34.6518951,12.5511375 35.3362919,13.5677879 36.2273228,13.5677879 L50.7142445,13.5677879 C51.8814135,13.5677879 52.9058172,12.890443 53.4148882,11.9877385 C53.9239592,11.084401 58.5732241,2.81382995 59.0578748,1.9529056 C59.5418993,1.08944912 58.9201188,0.0436792501 57.9627146,0.0436792501 Z M50.6766746,3.08730004 C50.467536,3.45382592 46.6210128,10.2975415 46.407491,10.6805262 C46.1872358,11.0730115 45.7768262,11.317134 45.3304896,11.3211552 L43.9854901,11.3211552 C43.5540634,11.3211552 43.3561957,10.8337201 43.522129,10.5374608 C43.6874362,10.2431007 47.57466,3.33354972 47.8113499,2.91068394 C48.0492921,2.48655209 48.5001299,2.28714682 48.8820897,2.28714682 L50.2308461,2.28714682 C50.6190676,2.28714682 50.8851871,2.72077416 50.6766746,3.08730004 Z M37.3638098,0.0436792501 L21.0246961,0.0436792501 L14.6797801,11.3224213 L0,11.3236873 L0,13.57032 L30.0971809,13.5677879 C31.2220036,13.5661511 32.2587788,12.9522113 32.8103479,11.9611512 C33.3882969,10.9375374 34.2937295,9.31697395 34.6825771,8.62253717 C35.0726771,7.9262013 34.6600352,7.03742352 33.9374424,6.80699965 C35.0000421,6.80699965 36.071408,6.15877426 36.595507,5.23201452 C37.1202321,4.30462174 37.9511513,2.81003175 38.4289141,1.96113502 C38.9079293,1.11413739 38.321214,0.0430462174 37.3644359,0.0430462174 L37.3638098,0.0436792501 Z M28.6870604,8.72825362 C28.494202,9.07768762 27.8392348,10.2348712 27.5818816,10.6938199 C27.3675191,11.0846079 26.9594042,11.3260955 26.5174034,11.3236873 L22.4166578,11.3224213 L24.3245784,7.9318986 L28.2362226,7.9318986 C28.6432289,7.9318986 28.8799188,8.37881962 28.6870604,8.72825362 Z M31.8567007,3.08413487 C31.6638423,3.43483494 31.0088751,4.59201855 30.7508957,5.05033416 C30.5368731,5.44137578 30.128468,5.68279225 29.6864175,5.67956857 L25.5862981,5.67960046 L27.4942187,2.28777985 L31.4058629,2.28777985 C31.8128692,2.28777985 32.0489329,2.73470087 31.8567007,3.08413487 Z M82.9140828,0.0436792501 L75.3099517,13.5677879 L93.7429566,13.5677879 L95.0065548,11.3224213 L84.307923,11.3224213 L86.2152174,7.9318986 L96.9138492,7.9318986 L98.1786997,5.68146767 L87.4806941,5.68146767 L89.389867,2.28588075 L109.467804,2.28714682 L109.467804,0.0430462174 L82.9140828,0.0430462174 L82.9140828,0.0436792501 Z M111.519116,0 C112.170326,0 112.664995,0.508958218 112.664995,1.17744065 C112.664995,1.84529006 112.170326,2.34601885 111.519116,2.34601885 C110.860392,2.34601885 110.370106,1.84845522 110.370106,1.17680762 C110.370106,0.508958218 110.860392,7.02807378e-17 111.519116,0 Z M111.520994,2.1586412 C112.065757,2.1586412 112.475268,1.73767451 112.475268,1.17933975 C112.475268,0.618472859 112.061373,0.189909783 111.519116,0.189909783 C110.969344,0.189909783 110.557955,0.618472859 110.557955,1.17933975 C110.557955,1.73767451 110.971223,2.1586412 111.520994,2.1586412 Z M111.733264,1.29708382 L112.049476,1.81047326 L111.802142,1.81047326 L111.499705,1.32050602 L111.29808,1.32050602 L111.29808,1.81047326 L111.082054,1.81047326 L111.082054,0.547573207 L111.622433,0.547573207 C111.834076,0.547573207 111.996252,0.70583136 111.996252,0.914732121 L111.996252,0.971705055 C111.996252,1.13629353 111.893562,1.25340457 111.733264,1.29708382 Z M111.29808,1.14642206 L111.592377,1.14642206 C111.687554,1.14642206 111.788366,1.08944912 111.788366,0.986264805 L111.788366,0.922961545 C111.782666,0.818168909 111.696178,0.736599085 111.592377,0.738116023 L111.29808,0.738116023 L111.29808,1.14642206 Z" id="Shape"></path>
                </g>
            </g>
        </g>
    </g>
</svg>