<?xml version="1.0" encoding="UTF-8"?>
<svg xmlns="http://www.w3.org/2000/svg" viewBox="0 0 442 331.5">
  <g opacity=".1">
    <path d="M266.4 80.5l.2-.3-6.6-3.9c-2.1-1.2-4.8-1-7.7.7l-.9.5.3.2-54.1 31.2-.3-.2-.3.2a22.8 22.8 0 0 0-10.3 17.8v.2h.3v8.4l-.3.1c-.4.2-.6.7-.6 1.2v10.2c0 .8.3 1.6.9 2.2v6.8l-.3.1c-.4.2-.6.7-.6 1.2v10.2c0 .8.4 1.6.9 2.3v83.6c0 3.1 1.1 5.5 3 6.6l5.4 3.2.8.5c.9.5 1.8.7 2.9.7 1.5 0 3.1-.5 4.7-1.4l55.2-31.9a22.3 22.3 0 0 0 10.1-17.5V86.7c.2-2.8-.8-5.1-2.7-6.2zm-78.8 172.7v-83l.4.2.4.3.9.3.5-.1c.4-.2.6-.7.6-1.2v-10.2a4 4 0 0 0-1.7-3l-.4-.3-.6-.2v-6.3l.4.2.4.3.9.3.5-.1c.4-.2.6-.7.6-1.2V139a4 4 0 0 0-1.7-3l-.4-.3-.6-.2v-8.1l5.9 3.4-.3 126.1-5.8-3.7zm76.3-173.6h-1.1l-1.1.2-.3.1-.9.3-.4.2-1 .5-.2.1-5.9-3.4c2.5-1.3 4.8-1.5 6.5-.5l4.5 2.6-.1-.1zM187.6 126v-.6l.1-.6.1-.6.1-.6.1-.6.2-.7.2-.6.2-.7.2-.5.3-.7.2-.5.3-.7.2-.5.4-.7.3-.5.4-.7.3-.5.4-.6.3-.4.5-.6.3-.4.5-.6.3-.4.6-.6.3-.3.6-.6.3-.3.7-.5.3-.2 1-.6 5.9 3.5-.4.2-.5.3-.2.1-.3.3-.4.3-.2.1-.4.3-.4.4-.1.1-.4.4-.4.4-.1.1-.4.4-.4.4-.1.1-.4.5-.3.4-.1.1-.3.5-.1.1-.2.3-.1.1-.3.5a2 2 0 0 1-.4.6l-.3.5-.3.5-.1.1-.3.5-.3.6-.1.1-.2.5-.2.6-.1.1-.2.5-.2.6v.2l-.1.5-.2.6v.2l-.1.4-.1.6v.2l-.1.4-.1.6v1l-5.9-3.4c.2.3.2.2.2 0zm64.6-48l5.9 3.4-54.1 31.2-5.9-3.4L252.2 78zm-65.5 58.6c0-.4.1-.7.3-.8l.3-.1.6.2.4.3c.8.5 1.5 1.6 1.5 2.6V149c0 .4-.1.7-.3.8-.2.1-.5.1-.9-.1l-.4-.3a3.4 3.4 0 0 1-1.5-2.6v-10.2zm0 20.6c0-.4.1-.7.3-.8l.3-.1.6.2.4.3c.8.5 1.5 1.6 1.5 2.6v10.2c0 .4-.1.7-.3.8-.2.1-.5.1-.9-.1l-.4-.3a3.4 3.4 0 0 1-1.5-2.6v-10.2zm.9 96.6l5.6 3.4c0 1.9.5 3.5 1.3 4.7l-4.1-2.4c-1.7-1-2.7-3-2.8-5.7zm81.2-40.2c0 6.3-4.4 13.9-9.9 17.1l-55.2 31.9c-2.5 1.5-5 1.7-6.9.8v-.1l-.9-.5c-1.4-1.2-2.2-3.1-2.2-5.7L194 131h.3v-.6c0-6.2 4.3-13.7 9.7-16.8l.9-.5-.3-.2 54.1-31.2.3.2.3-.2c2.5-1.5 4.8-1.7 6.5-.7l.2.1.2-.3c1.7 1.1 2.6 3.2 2.6 6.1v126.7z"></path>
    <path d="M195.7 130.1v120.3l70.9-40.9.1-.1V89.1L195.8 130l-.1.1zm.5 119.4V141.3l70-40.3v108l-70 40.5zm70-159.6v10.5l-70 40.3v-10.4l70-40.4zm-43.1 20.2l.5.1.9-.3 13.8-8c1-.6 1.9-1.9 1.9-3 0-.4-.2-.8-.4-.9-.3-.2-.9-.1-1.4.2l-13.8 7.9c-1 .6-1.9 1.9-1.9 3-.1.5.1.8.4 1zm1.7-3.5l13.8-7.9.7-.2h.2c.2.1.2.4.2.5 0 .9-.8 2.1-1.7 2.6l-13.8 8c-.4.2-.7.3-.9.2-.2-.1-.2-.4-.2-.5 0-1 .8-2.2 1.7-2.7z"></path>
    <path d="M200 135.8l3.6-2.1V128l-1.6.9v.7l-1 .6v.8l-1 .6v.7l-1 .6v.6l-1 .6v2.9l2-1.2zm-1.4.3v-1.8l1-.6v-.6l1-.6v-.7l1-.6v-.8l1-.6v-.7l.6-.3v4.6l-2.6 1.5-2 1.2zm10.3-17.5l.6.1 1-.3a5 5 0 0 0 2.2-3.9c0-.7-.2-1.2-.6-1.4-.4-.2-1-.2-1.6.2a5 5 0 0 0-2.2 3.9c-.1.6.1 1.1.6 1.4zm1.8-4.9c.3-.2.5-.2.7-.2l.3.1c.2.1.4.5.4 1 0 1.3-.9 2.8-2 3.4-.4.2-.8.3-1.1.2-.2-.1-.4-.5-.4-1a5 5 0 0 1 2.1-3.5zm170.5-26.2V63.2l-16 9V49.6l-70 39.6v118.6l16-9v22.6l19.7-11.2v24.4l69.9-39.5.1-.1V76.4l-19.7 11.1zm-.5-23.5v23.8l-15.5 8.7V72.8l15.5-8.8zm-49.8 123l-19.2 10.9V103l53.1-30v23.8L330.9 116v71zm.5-70.7l33.3-18.8V168l-33.3 18.8v-70.5zm33.7 52l.1-.1V97.1l15.5-8.7v93l-49.3 27.9v-22l33.7-19zM295.7 207V89.5l69-39v22l-53.6 30.3v95.4l-15.4 8.8zm16 13.5v-22l19.2-10.9v22l-19.2 10.9zm88.8-25.8l-69 39v-23.8l49.7-28.1.1-.1V88.1l19.2-10.9v117.5zM70.6 163.5l.7.2.7-.2 25.6-14.8c.5-.3.7-.8.7-1.3v-5.3c0-.5-.3-1-.7-1.3-.5-.3-1-.3-1.5 0l-25.6 14.8c-.5.3-.7.8-.7 1.3v5.3c0 .6.3 1.1.8 1.3zm-.3-6.5c0-.3.2-.7.5-.8l25.6-14.8.5-.1.5.1c.3.2.5.5.5.8v5.3c0 .3-.2.7-.5.8l-25.6 14.8a1 1 0 0 1-1 0c-.3-.2-.5-.5-.5-.8V157zm28.4-2.2c0-.5-.3-1-.7-1.3-.5-.3-1-.3-1.5 0l-49.2 28.3c-.5.3-.7.8-.7 1.3v5.3c0 .5.3 1 .7 1.3l.7.2.7-.2L98 161.4c.5-.3.7-.8.7-1.3v-5.3zm-.5 5.3c0 .3-.2.7-.5.8l-49.2 28.3a1 1 0 0 1-1 0c-.3-.2-.5-.5-.5-.8v-5.3c0-.3.2-.7.5-.8L96.8 154l.5-.1.5.1c.3.2.5.5.5.8v5.3zm-1.7 5.3l-23.4 13.4c-.5.3-.7.8-.7 1.3v5.3c0 .5.3 1 .7 1.3l.7.2.7-.2L98 173.2c.5-.3.7-.8.7-1.3v-5.3c0-.5-.3-1-.7-1.3-.5-.1-1-.1-1.5.1zm1.7 6.6c0 .3-.2.7-.5.8l-23.4 13.4a1 1 0 0 1-1 0c-.3-.2-.5-.5-.5-.8v-5.3c0-.3.2-.7.5-.8l23.4-13.4.5-.1.5.1c.3.2.5.5.5.8v5.3zm-56.9 9.8L66.9 167c.5-.3.7-.8.7-1.3v-5.3c0-.5-.3-1-.7-1.3-.5-.3-1-.3-1.5 0L39.8 174c-.5.3-.7.8-.7 1.3v5.3c0 .5.3 1 .7 1.3l.7.2.8-.3zm-1.8-1.2v-5.3c0-.3.2-.7.5-.8l25.6-14.8.5-.1.5.1c.3.2.5.5.5.8v5.3c0 .3-.2.7-.5.8L41 181.4a1 1 0 0 1-1 0c-.3-.2-.5-.5-.5-.8zm125.2-23.2c-.4-.3-1-.2-1.7.2-1.1.6-2 2-2.3 3.4l-28.2 16.3v-18.1l10.7-6.1.2-.2a30 30 0 0 0 13.2-23.3c0-3.8-1.2-6.6-3.4-7.8-1.7-1-4.1-1-6.7.1-.4-3-1.7-5.2-3.6-6.3-2.3-1.4-5.9-1-9.5 1.1a33.5 33.5 0 0 0-15.2 26.4v.1a25 25 0 0 0-10.3 18.9c0 3.1 1 5.4 2.8 6.5.7.4 1.5.6 2.4.6 1.4 0 3-.5 4.7-1.5h.1v31.9L90 215.7v-17a5.6 5.6 0 0 0 2.2-4.1c0-.7-.2-1.3-.7-1.5-.4-.3-1-.2-1.7.2a5.4 5.4 0 0 0-2.5 4.3c0 .7.2 1.3.7 1.5l.6.2.9-.2v17.6l28.9-16.7v-32.5l.8-.5 12.9-7.4v66.3a5.6 5.6 0 0 0-2.2 4.1c0 .7.2 1.3.7 1.5l.6.2 1.1-.3a5.4 5.4 0 0 0 2.5-4.3c0-.7-.2-1.3-.7-1.5-.4-.2-.9-.2-1.5.1v-47.6l13.9-8v15.4a5.6 5.6 0 0 0-2.2 4.1c0 .7.2 1.3.7 1.5l.6.2 1.1-.3a5.4 5.4 0 0 0 2.5-4.3c0-.7-.2-1.3-.7-1.5-.4-.2-.9-.2-1.5.1v-15.4l13.7-7.9v.3c0 .7.2 1.3.7 1.5l.6.2 1.1-.3a5.4 5.4 0 0 0 2.5-4.3c-.3-1.2-.5-1.8-.9-2zm-76.6 41.1c-.3-.2-.4-.6-.4-1.1 0-1.4 1-3.1 2.2-3.8l.8-.3.4.1c.3.2.4.5.4 1.1 0 1.4-1 3.1-2.2 3.8-.5.3-.9.4-1.2.2zm30.7-32.2l-1.3.9c-2.6 1.5-4.9 1.8-6.6.8-1.6-.9-2.5-3.1-2.5-6 0-6.6 4.5-14.7 10.2-18.5l.1-.1v-.4a33 33 0 0 1 15-25.9c2.1-1.2 4.2-1.9 6-1.9 1.1 0 2.2.3 3 .8 1.8 1 3 3.2 3.4 6.2v.3l.3-.1c2.6-1.2 4.9-1.2 6.5-.3 2 1.1 3.1 3.8 3.1 7.4a30 30 0 0 1-13 22.9l-.1.1-.1.1-24 13.7zm14.5 59.4l.4.1c.3.2.4.5.4 1.1 0 1.4-1 3.1-2.2 3.8-.5.3-.9.3-1.2.2-.3-.2-.4-.6-.4-1.1 0-1.4 1-3.1 2.2-3.8l.8-.3zm14.4-40.6l.4.1c.3.2.4.5.4 1.1 0 1.4-1 3.1-2.2 3.8-.5.3-.9.3-1.2.2-.3-.2-.4-.6-.4-1.1 0-1.4 1-3.1 2.2-3.8.3-.2.5-.3.8-.3zm14.9-22.4c-.5.3-.9.3-1.2.2-.3-.2-.4-.6-.4-1.1 0-1.4 1-3.1 2.2-3.8l.8-.3.4.1c.3.2.4.5.4 1.1.1 1.4-.9 3.1-2.2 3.8z"></path>
    <path d="M117.9 213.4l-28.4 16.4.2.3h-.3v33l16.4-9.5v12.6l-31.5 18.2-.2-37.1a5.5 5.5 0 0 0 2.3-4.2c0-.7-.2-1.3-.7-1.5-.4-.3-1-.2-1.7.2a5.4 5.4 0 0 0-2.5 4.3c0 .7.2 1.3.7 1.5l.6.2.7-.2.2 37.7 32.5-18.8v-13.2l12-7v-32.8h-.2l-.1-.1zm-45.4 33.8c-.3-.2-.4-.6-.4-1.1 0-1.4 1-3.1 2.2-3.8l.8-.3.4.1c.3.2.4.5.4 1.1 0 1.4-1 3.1-2.2 3.8-.5.3-.9.4-1.2.2zm17.3 15.1v-32.1l27.9-16.1v32.1l-27.9 16.1z"></path>
    <path d="M109.2 228.9c-1.2-.7-3-.5-4.9.6a16.8 16.8 0 0 0-7.7 13.4c0 2.2.7 3.8 2 4.5.5.3 1.1.4 1.7.4a6 6 0 0 0 3.2-1c4.3-2.5 7.8-8.5 7.8-13.4-.2-2.1-.9-3.7-2.1-4.5zm-6.1 17.5c-1.8 1-3.3 1.2-4.4.6-1.1-.6-1.7-2.1-1.7-4.1 0-4.8 3.4-10.6 7.5-13 1.1-.6 2.1-.9 3-.9.6 0 1 .1 1.5.4 1.1.6 1.7 2.1 1.7 4.1a16.8 16.8 0 0 1-7.6 12.9z"></path>
    <path d="M102.8 241.8l-1.7-.8-.2.4 2.2 1.1 4.1-8.2-.4-.2zm-24.3-14.7v-4.9c0-.5-.3-1-.7-1.2l-.2-.1-2.8-1.1 3-1.7c.4-.2.7-.7.7-1.2V212c0-.5-.3-1-.7-1.2l-.4-.1-2.6-1 3-1.7c.4-.2.7-.7.7-1.2v-4.9c0-.5-.3-1-.7-1.2l-.6-.2-16.7-6.6v.1l-7 4 .2.4 6.9-4 15.7 6.2-21.8 12.5-.4.4-13-5.1c-.4-.2-.7-.7-.7-1.2s.3-.9.7-1.1l-.2-.5c-.6.3-1 .9-1 1.6v19.1h.5v-17.8l.5.4 13 5.1v5.3c0 .5.3 1 .7 1.2l.7.2.7-.2 4.8-2.8 2.2.9-8.4 4.8c-.4.2-.7.7-.7 1.2v4.9c0 .5.3 1 .7 1.2l.7.2.7-.2 4.8-2.7 2.2.9-8.4 4.8c-.4.2-.7.7-.7 1.2v4.9c0 .5.3 1 .7 1.2l.7.2.7-.2 21.9-12.5c.4-.4.6-.9.6-1.4zm-2-6.1s-.1 0 0 0l-2.2 1.2-2.2-.9 2.2-1.3 2.2 1zm-10.3 5.9L64 226l2.1-1.2 2.2.9-2.1 1.2zm.5-2.4l2.2-1.3v.1l2.1.8-2.2 1.3-2.1-.9zm4.9-.7l-2.2-.9 2.1-1.2 2.2.9-2.1 1.2zm4.8-13l-2.2 1.2-2.2-.9 2.2-1.3v.1l2.2.9zm-10.2 5.9l-2.2-.9 2.1-1.2 2.2.9-2.1 1.2zm.5-2.5L69 213v.1l2.1.8-2.2 1.3-2.2-1zm4.9-.6l-2.2-.9 2.1-1.2 2.2.9-2.1 1.2zM55.7 220c-.3.2-.6.2-.9 0a1 1 0 0 1-.4-.8v-4.9c0-.3.2-.6.4-.8L76.7 201l.4-.1.4.1c.3.2.4.5.4.8v4.9c0 .3-.2.6-.4.8L55.7 220zm5.6-2.7l2.1-1.2 2.2.9-2.1 1.2-2.2-.9zm-5.6 12.9c-.3.2-.6.2-.9 0a1 1 0 0 1-.4-.8v-4.9c0-.3.2-.6.4-.8l21.9-12.5.4-.1h.2l.1.1.1.1c.3.2.4.5.4.8v4.9c0 .3-.2.6-.4.8l-21.8 12.4zm5.6-2.6l2.1-1.2 2.2.9-2.1 1.2-2.2-.9zm16.3.3l-21.9 12.5c-.3.2-.6.2-.9 0a1 1 0 0 1-.4-.8v-4.9c0-.3.2-.6.4-.8l21.9-12.5.4-.1.4.1c.3.2.4.5.4.8v4.9c.1.4 0 .7-.3.8z"></path>
    <path d="M74.3 204.6c-.6.3-1 1.1-1 1.8 0 .3.1.6.3.7l.3.1.5-.1c.6-.3 1-1.1 1-1.8 0-.3-.1-.6-.3-.7-.2-.2-.5-.1-.8 0zm-.1 2l-.3.1-.1-.3c0-.5.4-1.1.8-1.3l.2-.1h.1l.1.3c0 .5-.4 1.1-.8 1.3zm-2.8-.5c-.6.3-1 1.1-1 1.8 0 .3.1.6.3.7l.3.1.5-.1c.6-.3 1-1.1 1-1.8 0-.3-.1-.6-.3-.7-.2-.2-.5-.2-.8 0zm-.1 2l-.3.1-.1-.3c0-.5.4-1.1.8-1.3l.2-.1h.1l.1.3c0 .4-.4 1-.8 1.3zm3 6.8c-.6.3-1 1.1-1 1.8 0 .3.1.6.3.7l.3.1.5-.1c.6-.3 1-1.1 1-1.8 0-.3-.1-.6-.3-.7-.2-.2-.5-.2-.8 0zm-.1 2l-.3.1-.1-.3c0-.5.4-1.1.8-1.3l.2-.1h.1l.1.3c0 .4-.4 1-.8 1.3zm-2.8-.6c-.6.3-1 1.1-1 1.8 0 .3.1.6.3.7l.3.1.5-.1c.6-.3 1-1.1 1-1.8 0-.3-.1-.6-.3-.7-.2-.2-.5-.1-.8 0zm-.1 2l-.3.1-.1-.3c0-.5.4-1.1.8-1.3l.2-.1h.1l.1.3c0 .5-.4 1.1-.8 1.3zm3 6.8c-.6.3-1 1.1-1 1.8 0 .3.1.6.3.7l.3.1.5-.1c.6-.3 1-1.1 1-1.8 0-.3-.1-.6-.3-.7-.2-.2-.5-.2-.8 0zm-.1 2l-.3.1-.1-.3c0-.5.4-1.1.8-1.3l.2-.1h.1l.1.3c0 .4-.4 1.1-.8 1.3zm-2.8-.5c-.6.3-1 1.1-1 1.8 0 .3.1.6.3.7l.3.1.5-.1c.6-.3 1-1.1 1-1.8 0-.3-.1-.6-.3-.7-.2-.2-.5-.2-.8 0zm-.1 2l-.3.1-.1-.3c0-.5.4-1.1.8-1.3l.2-.1h.1l.1.3c0 .4-.4 1-.8 1.3zm-31.3.1h.5v2.1H40zm7.8-27.5l3.6-2 .2.3-3.5 2.1z"></path>
  </g>
</svg>
