<svg width="108" height="108" viewBox="0 0 108 108" xmlns="http://www.w3.org/2000/svg"><g fill="#FFF" fill-rule="evenodd"><path d="M87.7 65.09c-2.88.43-5.68.13-8.39-.93l-.3-.08v17.74h-8.37V55.88l-.16-.02c-.5 1.5-1.2 2.88-2.18 4.1a14.05 14.05 0 0 1-7.57 4.89c-.22.06-.49.03-.72-.03a68.77 68.77 0 0 0-11.62-1.96c-.88-.06-1.42-.64-2-1.15a12.85 12.85 0 0 1-3.45-4.79c-.04-.1-.1-.2-.2-.45v5.93l-8.27.29-.03-.6-.07-11.8a5.34 5.34 0 0 0-1.05-3.31c-1.85-2.41-5.87-2.18-7.58.42a7.38 7.38 0 0 0-1.14 3.74c-.08 1.42-.07 2.84-.07 4.26 0 2.75.03 5.49.04 8.23v.5l-8.37 2.2L16 23.1h8.4v17.8l.14.05.4-.35c3.7-3.43 9.92-3.83 13.83-.86 2.18 1.65 3.27 3.93 3.74 6.57l.07.4c0 .04.04.06.06.08 2.38-5.75 6.81-8.78 12.9-9.1 7.06-.36 12.2 2.68 14.95 9.3v-7.14l-.01-1.9c0-.25.06-.4.35-.4h7.86c.03 0 .06.03.17.07v1.89c1.08-.3 2.08-.64 3.1-.85 4.02-.8 7.93-.5 11.55 1.53 4.36 2.46 6.3 6.35 6.31 11.26 0 7.36-5.32 12.63-12.13 13.64zm-.22 16.66h-.66v-2.47l-.1-.01-.56 2.46c-.52.17-.81.07-.9-.52a7.5 7.5 0 0 0-.48-1.75v2.3h-.7V78.3l.11-.05c.95-.07.95-.07 1.16.85l.37 1.53.1.22.58-2.58h1.08v3.48zm-3.94-2.86h-1.02v2.84c-.74.18-.78.15-.78-.53v-2.3H80.7v-.62h2.83v.61zM66.7 81.82S52.78 65.3 10.39 70.57c0 0 29-12.87 56.32 0v11.25zM54.95 80.5c-.08.76-.6 1.32-1.47 1.5-.8.17-1.6.1-2.37-.33l.26-.75c.4.12.76.25 1.13.31.24.04.52.06.72-.04.25-.14.53-.36.63-.61.15-.35-.04-.7-.38-.9-.4-.22-.86-.37-1.27-.6-.7-.4-1.03-.99-.93-1.63.12-.7.65-1.24 1.4-1.4a2.99 2.99 0 0 1 2.05.28l-.23.73c-.39-.09-.73-.21-1.1-.25-.53-.06-.96.19-1.05.58-.12.54.22.8.65.98.3.13.59.24.87.38.8.4 1.16 1 1.09 1.75zm-4.77.02c-.09.78-.56 1.27-1.32 1.46-.84.22-1.66.16-2.51-.28l.24-.72c.5.11.96.27 1.42.3.6.05 1.02-.25 1.1-.69.1-.55-.24-.84-.69-1.05-.31-.14-.65-.26-.95-.43-.65-.33-1.06-.83-.96-1.6.1-.74.55-1.2 1.26-1.4a2.98 2.98 0 0 1 2.18.23l-.23.74c-.43-.1-.8-.22-1.18-.25-.41-.03-.82.1-.96.56-.14.5.17.8.6.98.34.16.7.3 1.04.48.68.34 1.03.9.96 1.67zm-5.14 1.43h-.82l-.13-.46c-.5.21-.97.5-1.48.61a1.7 1.7 0 0 1-2-.99c-.32-.8-.08-1.8.72-2.2.65-.33 1.42-.44 2.14-.63.14-.04.3-.03.45-.05.13-1.34-.79-1.67-2.74-1.02-.37-.64-.36-.76.29-.93.58-.15 1.2-.25 1.8-.22 1.06.07 1.73.85 1.76 2 .04 1.29.01 2.56.01 3.89zm-5.74-1.3a2.51 2.51 0 0 1-4.08.76v2.99h-1.1v-8.2H35l.07.7c.49-.26.96-.62 1.48-.77 1.14-.33 2.2.2 2.72 1.26a3.8 3.8 0 0 1 .04 3.26zm-6.42-3.63h-1.42c0 1.26-.03 2.44.02 3.63.01.45.37.65.82.63.16 0 .3-.03.46-.05.22.83.16.92-.65.94-1.13.03-1.7-.5-1.74-1.63-.03-.94-.02-1.9-.02-2.84v-.6l-.9-.1v-.68c.03-.03.05-.07.08-.07.8-.1.85-.1.8-.9-.06-.81.57-.61 1.05-.84v1.67h1.5v.84zm-4.1 3.61a1.6 1.6 0 0 1-1.39 1.46c-.54.1-1.12.09-1.66 0-.85-.15-.87-.24-.56-.94.67.07 1.27.2 1.86.15.24-.02.61-.39.64-.63.04-.27-.17-.67-.4-.87-.28-.24-.69-.33-1.03-.5-.86-.4-1.26-1.03-1.13-1.76.14-.8.82-1.36 1.74-1.42.31-.02.64-.01.94.05.8.14.84.24.5 1-.34-.08-.67-.2-1-.24-.57-.08-1.03.17-1.12.57-.12.55.23.8.66 1 .3.12.62.25.92.4.75.38 1.12 1.01 1.03 1.73zm-5.14 1.43h-.83l-.11-.49c-.51.22-1 .5-1.52.63-.86.2-1.68-.26-1.97-1.01-.32-.82-.06-1.8.74-2.2.64-.32 1.39-.42 2.09-.61.15-.04.31-.03.5-.04.04-1.4-.95-1.75-2.77-1.02l-.16-.3c-.04-.1-.06-.2-.1-.36a3.3 3.3 0 0 1 2.94-.35c.92.34 1.18 1.15 1.19 2.04.02 1.22 0 2.45 0 3.7zm-5.08-5.8v.83h-1.33v5h-1.08v-4.95l-.82-.06v-.78l.74-.07c.06-.44.08-.87.17-1.27.25-1 1.06-1.6 2.1-1.55.8.03.88.14.67.78-.54.16-1.15.16-1.42.46-.32.36-.35.98-.54 1.6h1.5zm89.14-28.72a52.34 52.34 0 0 0-7.15-21.03A53.58 53.58 0 0 0 71.88 3.03 51.96 51.96 0 0 0 56.63.09C56.42.08 56.2.03 56 0h-3.9l-2.46.2C34.7 1.57 22.37 7.96 12.65 19.35a52.53 52.53 0 0 0-11.31 22.8A51.43 51.43 0 0 0 .1 51.17c-.01.28-.07.55-.1.83v4.1l.2 2.26C1.63 74.09 8.56 86.87 20.89 96.7c6.28 5 13.42 8.34 21.27 10.06 2.41.52 4.89.76 7.33 1.14.13.02.26.07.4.1h8.22l2.5-.3a52.75 52.75 0 0 0 13.81-3.59 53.5 53.5 0 0 0 21.23-15.57 52.86 52.86 0 0 0 11.5-24.5c.34-1.8.5-3.65.75-5.47.02-.15.07-.3.1-.46V50l-.3-2.45z"/><path d="M56.84 45A6.99 6.99 0 0 0 50 52.1a7 7 0 0 0 14-.15A6.97 6.97 0 0 0 56.84 45m29.19 0c-3.8-.01-7.01 3.07-7.03 6.75-.02 4.1 3 7.23 6.97 7.25A6.98 6.98 0 0 0 93 52.03 6.97 6.97 0 0 0 86.03 45M36.49 77c-.6.02-1.06.34-1.27.93-.13.36-.15.75-.22 1.12l.05.01c0 .2 0 .39.03.58.09.74.55 1.25 1.22 1.35.66.09 1.28-.28 1.52-.98.25-.72.25-1.45-.06-2.15-.25-.56-.68-.87-1.27-.86m5.94 2.44a.7.7 0 0 0-.4.86c.08.24.28.53.5.63.57.26 1.36-.21 1.45-.84.04-.3 0-.62 0-1.09-.57.16-1.08.25-1.55.44m-21.98-.04c-.35.14-.48.5-.44.87.03.32.18.57.51.68.59.2 1.35-.22 1.45-.82.06-.32.01-.66.01-1.13-.56.15-1.06.23-1.53.4"/></g></svg>