<?xml version="1.0" encoding="UTF-8"?>
<svg xmlns="http://www.w3.org/2000/svg" xmlns:xlink="http://www.w3.org/1999/xlink" width="200px" height="32px" viewBox="0 0 200 32">
  <!-- Generator: Sketch 53 (72520) - https://sketchapp.com -->
  <title>Artboard</title>
  <desc>Created with Sketch.</desc>
  <defs>
    <polygon id="path-1" points="4.92556918e-05 0.0486481576 26.2236154 0.0486481576 26.2236154 28.3712621 4.92556918e-05 28.3712621"></polygon>
  </defs>
  <g id="Artboard" stroke="none" stroke-width="1" fill="none" fill-rule="evenodd">
    <g id="Group-2">
      <g id="Group" transform="translate(0.000000, 0.619355)">
        <g id="Logo">
          <g>
            <polygon id="Fill-6" fill="#969BEB" points="4.90367776 11.2084063 20.3152364 11.2084063 20.3152364 0 4.90367776 0"></polygon>
            <polygon id="Fill-7" fill="#E6286E" points="4.90367776 25.5691769 20.3152364 25.5691769 20.3152364 14.3607706 4.90367776 14.3607706"></polygon>
            <polygon id="Fill-8" fill="#FFFFFF" points="18.0974829 0 18.0974829 9.18375949 7.12134928 9.18375949 7.12134928 0 0 0 0 25.5691769 7.12134928 25.5691769 7.12134928 16.3854174 18.0974829 16.3854174 18.0974829 25.5691769 25.2189142 25.5691769 25.2189142 0"></polygon>
            <g id="Group-14" transform="translate(25.218914, 0.000000)">
              <g id="Group-11">
                <mask id="mask-2" fill="white">
                  <use xlink:href="#path-1"></use>
                </mask>
                <g id="Clip-10"></g>
                <path d="M26.2236154,23.8802604 L23.6279225,20.6796205 C25.1892458,18.5368122 26.1107377,15.901472 26.1107377,13.0513441 C26.1107377,5.87022192 20.2656469,0.0486318053 13.0553525,0.0486318053 C5.84514011,0.0486318053 4.92556918e-05,5.87022192 4.92556918e-05,13.0513441 C4.92556918e-05,20.232548 5.84514011,26.0540563 13.0553525,26.0540563 C14.8157509,26.0540563 16.4943849,25.7061607 18.0268115,25.0770869 L20.6991791,28.3712621 L26.2236154,23.8802604 Z" id="Fill-9" fill="#FFFFFF" mask="url(#mask-2)"></path>
              </g>
              <path d="M19.1349332,13.0513195 C19.1349332,9.70726972 16.4130637,6.99630003 13.0553032,6.99630003 C9.69770687,6.99630003 6.97583735,9.70726972 6.97583735,13.0513195 C6.97583735,16.3954511 9.69770687,19.1064208 13.0553032,19.1064208 C16.4130637,19.1064208 19.1349332,16.3954511 19.1349332,13.0513195" id="Fill-12" fill="#FED530"></path>
            </g>
          </g>
        </g>
      </g>
      <path d="M67.6707531,25.944086 C62.206655,25.944086 57.8283713,22.7096774 57.8283713,16.5849462 L57.8283713,0.997849462 L63.3625219,0.997849462 L63.3625219,16.1376344 C63.3625219,19.0967742 65.0437828,20.5763441 67.6707531,20.5763441 C70.2977233,20.5763441 71.9789842,19.0967742 71.9789842,16.1376344 L71.9789842,0.997849462 L77.5131349,0.997849462 L77.5131349,16.5849462 C77.5131349,22.7096774 73.1348511,25.944086 67.6707531,25.944086 Z M83.2924694,15.5870968 L83.2924694,25.3935484 L77.9684764,25.3935484 L77.9684764,8.29247312 L83.117338,8.29247312 L83.117338,10.2537634 C84.0630473,8.63655914 86.1996497,7.84516129 87.9859895,7.84516129 C92.3642732,7.84516129 94.3257443,10.9075269 94.3257443,14.6580645 L94.3257443,25.3935484 L89.0017513,25.3935484 L89.0017513,15.5526882 C89.0017513,13.8666667 88.0910683,12.5935484 86.1646235,12.5935484 C84.41331,12.5935484 83.2924694,13.8666667 83.2924694,15.5870968 Z M100.28021,25.3935484 L94.9562172,25.3935484 L94.9562172,8.29247312 L100.28021,8.29247312 L100.28021,25.3935484 Z M94.150613,3.06236559 C94.150613,1.37634409 95.5516637,-7.10542736e-15 97.2329247,-7.10542736e-15 C98.9842382,-7.10542736e-15 100.385289,1.37634409 100.385289,3.06236559 C100.385289,4.7483871 98.9842382,6.12473118 97.2329247,6.12473118 C95.5516637,6.12473118 94.150613,4.7483871 94.150613,3.06236559 Z M119.964974,8.29247312 L113.345009,25.3935484 L107.985989,25.3935484 L100.84063,8.29247312 L106.619965,8.29247312 L110.647986,18.9247312 L114.360771,8.29247312 L119.964974,8.29247312 Z M123.362522,14.7956989 L130.33275,14.7956989 C130.262697,13.488172 129.352014,11.9053763 126.830123,11.9053763 C124.588441,11.9053763 123.467601,13.5225806 123.362522,14.7956989 Z M130.718039,19.2344086 L135.166375,20.4731183 C134.325744,23.4322581 131.558669,25.9096774 127.145359,25.9096774 C122.34676,25.9096774 118.073555,22.5376344 118.073555,16.7913978 C118.073555,11.2860215 122.241681,7.77634409 126.76007,7.77634409 C132.154116,7.77634409 135.481611,11.0451613 135.481611,16.5505376 C135.481611,17.2731183 135.411559,18.0645161 135.376532,18.1677419 L123.257443,18.1677419 C123.362522,20.0946237 125.148862,21.4709677 127.215412,21.4709677 C129.141856,21.4709677 130.227671,20.5763441 130.718039,19.2344086 Z M147.180385,8.29247312 L147.180385,13.4537634 C146.584939,13.316129 146.024518,13.2817204 145.499124,13.2817204 C143.362522,13.2817204 141.436077,14.5204301 141.436077,17.9268817 L141.436077,25.3935484 L136.112084,25.3935484 L136.112084,8.29247312 L141.260946,8.29247312 L141.260946,10.5978495 C142.171629,8.67096774 144.378284,8.12043011 145.779335,8.12043011 C146.304729,8.12043011 146.830123,8.18924731 147.180385,8.29247312 Z M147.355517,20.5419355 L151.873905,19.7505376 C151.943958,20.9204301 152.784588,22.055914 154.605954,22.055914 C155.971979,22.055914 156.637478,21.3333333 156.637478,20.5763441 C156.637478,19.9569892 156.217163,19.4408602 154.921191,19.1655914 L152.924694,18.7182796 C149.211909,17.9268817 147.740806,15.8623656 147.740806,13.4537634 C147.740806,10.3225806 150.542907,7.77634409 154.430823,7.77634409 C159.474606,7.77634409 161.225919,10.8731183 161.401051,12.8688172 L156.987741,13.6602151 C156.847636,12.5247312 156.112084,11.5612903 154.500876,11.5612903 C153.485114,11.5612903 152.609457,12.1462366 152.609457,13.0408602 C152.609457,13.7634409 153.204904,14.1763441 153.975482,14.3139785 L156.287215,14.7612903 C159.894921,15.483871 161.646235,17.6172043 161.646235,20.1290323 C161.646235,23.0537634 159.369527,25.9096774 154.711033,25.9096774 C149.246935,25.9096774 147.495622,22.4344086 147.355517,20.5419355 Z M167.285464,25.3935484 L161.961471,25.3935484 L161.961471,8.29247312 L167.285464,8.29247312 L167.285464,25.3935484 Z M161.50613,3.06236559 C161.50613,1.37634409 162.90718,-7.10542736e-15 164.588441,-7.10542736e-15 C166.339755,-7.10542736e-15 167.740806,1.37634409 167.740806,3.06236559 C167.740806,4.7483871 166.339755,6.12473118 164.588441,6.12473118 C162.90718,6.12473118 161.50613,4.7483871 161.50613,3.06236559 Z M176.217163,3.30322581 L176.217163,8.29247312 L179.614711,8.29247312 L179.614711,12.8688172 L176.217163,12.8688172 L176.217163,19.2688172 C176.217163,20.6795699 176.987741,21.0580645 178.143608,21.0580645 C178.704028,21.0580645 179.229422,20.9548387 179.544658,20.8860215 L179.544658,25.2215054 C179.334501,25.3247312 178.458844,25.7032258 176.777583,25.7032258 C173.169877,25.7032258 170.963222,23.6043011 170.963222,20.1978495 L170.963222,12.8688172 L167.880911,12.8688172 L167.880911,8.29247312 L168.756567,8.29247312 C170.577933,8.29247312 171.45359,7.08817204 171.45359,5.50537634 L171.45359,3.30322581 L176.217163,3.30322581 Z M189.001751,31.9655914 L183.397548,31.9655914 L187.355517,23.088172 L180.035026,8.29247312 L185.989492,8.29247312 L190.227671,17.4451613 L194.08056,8.29247312 L199.71979,8.29247312 L189.001751,31.9655914 Z" id="University" fill="#FFFFFF"></path>
    </g>
  </g>
</svg>
