<?xml version="1.0" encoding="UTF-8"?>
<svg width="72px" height="48px" viewBox="0 0 72 48" version="1.1" xmlns="http://www.w3.org/2000/svg" xmlns:xlink="http://www.w3.org/1999/xlink">
    <!-- Generator: Sketch 48.2 (47327) - http://www.bohemiancoding.com/sketch -->
    <title>intel-white</title>
    <desc>Created with Sketch.</desc>
    <defs></defs>
    <g id="About---Final-Draft" stroke="none" stroke-width="1" fill="none" fill-rule="evenodd" transform="translate(-295.000000, -3488.000000)">
        <g id="Logo-Layout" transform="translate(0.000000, 3100.000000)" fill="#FFFFFF" fill-rule="nonzero">
            <g id="Col-1" transform="translate(274.000000, 388.000000)">
                <g id="intel-white" transform="translate(21.182272, 0.000000)">
                    <path d="M9.12853128e-15,28.5398432 C0.041173258,28.2365701 0.092267783,27.9338023 0.121535521,27.6290128 C0.369567195,25.0744418 1.19055204,22.7139657 2.43815136,20.5000716 C3.79488462,18.0900608 5.57426386,16.0384179 7.63937558,14.1525642 C7.63937558,14.7757906 7.64433621,15.3509987 7.63342282,15.9257013 C7.63243069,15.9954542 7.55405268,16.0687452 7.50047784,16.1314216 C5.1689801,18.8679565 3.6381286,22.0058229 2.97042734,25.575348 C2.73854636,26.8124665 2.66401974,28.0748658 2.74868702,29.3313862 C2.93024621,32.0330446 3.78248304,34.4819755 5.50779137,36.5755712 C6.8337687,38.1844354 8.47921083,39.3656843 10.312661,40.2871293 C12.4621035,41.3677927 14.737546,42.0648155 17.0888863,42.4818161 C18.5597142,42.7426311 20.0434396,42.9427913 21.5286533,43.0984716 C23.4861193,43.3026755 25.4554908,43.3289592 27.4218859,43.2768973 C28.9631547,43.2359554 30.5059117,43.1727735 32.0432121,43.0509588 C33.632599,42.9245949 35.2214899,42.7572893 36.8004596,42.5328671 C39.0997132,42.2068485 41.3701952,41.7120077 43.6193464,41.1277014 C46.3973011,40.4064168 49.1316023,39.5420882 51.8043916,38.4811376 C54.0505665,37.589009 56.2446547,36.584164 58.3261365,35.335184 C58.3732625,35.3073839 58.4248531,35.2881766 58.5086878,35.2482457 C58.517617,35.3457985 58.5300185,35.4226277 58.5300185,35.4999624 C58.5315067,37.1073102 58.5275382,38.713647 58.5354752,40.3209948 C58.5364674,40.5297478 58.463546,40.6374098 58.2874436,40.7339518 C55.5432211,42.2427358 52.6581167,43.4012393 49.6990988,44.3813171 C46.5831127,45.4123396 43.4024071,46.2279748 40.178651,46.822666 C38.5118781,47.1309938 36.8302234,47.3660305 35.1480726,47.5712453 C33.7918354,47.7365292 32.4271651,47.8527839 31.0624948,47.9099003 C29.1809265,47.9877405 27.2953897,48.0413187 25.4133254,48.0079587 C23.9940881,47.9831914 22.5743548,47.8345875 21.1600782,47.6895218 C18.229832,47.3892814 15.3610977,46.7822296 12.5806626,45.7753627 C9.62263685,44.7037975 6.89577662,43.2258463 4.6114049,40.9836467 C2.34042688,38.7545889 0.891921902,36.0706214 0.355181358,32.8918132 C0.229677331,32.1457612 0.166677285,31.3885892 0.0714331223,30.6374826 C0.0615118553,30.5566098 0.0243071041,30.4792751 0,30.4009296 L0,28.5398432 M15.3814363,9.8410307 C15.3814363,9.41897554 15.3690347,9.04392773 15.3913575,8.67140719 C15.3958221,8.58750161 15.5034679,8.48085055 15.5897829,8.43384321 C17.2803668,7.51543097 18.9471396,6.54546229 20.6744322,5.70387926 C23.5863241,4.28607721 26.6286806,3.203392 29.7375096,2.31429617 C31.9106543,1.69166934 34.1167213,1.19518822 36.3450734,0.827246744 C37.6859327,0.606362788 39.0386974,0.460791668 40.3879897,0.296518703 C42.8241568,0.000321910928 45.2707413,-0.0456745193 47.7163336,0.0357037803 C49.1936102,0.0852383975 50.6698948,0.248500452 52.1402265,0.414289783 C54.6073021,0.691536492 57.0342307,1.260987 59.371838,2.11110315 C61.7896508,2.98857351 64.0526918,4.15920793 66.0225594,5.85652675 C68.5762935,8.05828994 70.2227277,10.7978575 70.7267281,14.1874406 C70.8522321,15.0300346 70.9415235,15.8882976 70.937059,16.7389789 C70.9226731,19.3850372 70.2564601,21.8698554 68.9726481,24.1732151 C67.2046783,27.3424197 64.7184088,29.7504086 61.4949892,31.3623055 C61.1546897,31.5326439 60.7990123,31.6701278 60.4492876,31.8207534 C60.4180356,31.8344007 60.3803348,31.8338953 60.3252718,31.8434989 C60.3203112,31.7464515 60.311382,31.6650732 60.311382,31.5831894 C60.310886,30.491406 60.3183269,29.3981063 60.3054293,28.3063229 C60.3024529,28.0738135 60.3887679,27.9555369 60.5733035,27.8377658 C62.9405178,26.3304982 64.8344876,24.3703426 66.1024256,21.823859 C67.045442,19.9309289 67.5142219,17.9207333 67.366891,15.799843 C67.1773948,13.0708899 66.1664177,10.6800865 64.328007,8.66584718 C62.5084466,6.67182611 60.2454056,5.38038788 57.7680652,4.43670288 C55.8195284,3.69469453 53.8060073,3.20996292 51.7488325,2.90416248 C50.0165793,2.64638029 48.2783734,2.46037274 46.5252855,2.45531819 C45.2092294,2.45178 43.8911891,2.41134358 42.5786055,2.4755364 C41.1201792,2.54731105 39.6632412,2.69338763 38.2107677,2.85210058 C34.9119464,3.21350111 31.6691803,3.88322935 28.4665953,4.75867789 C24.0342693,5.97075964 19.7591953,7.60135837 15.661216,9.70506323 C15.5873026,9.74347783 15.512397,9.77784879 15.3814363,9.8410307" id="Shape"></path>
                    <path d="M44.8744532,24.0752609 C45.7254878,24.0752609 46.5770164,24.0737234 47.428051,24.0757735 C47.5925284,24.076286 47.7224309,24.0603982 47.7076131,23.8333575 C47.6517995,22.9948955 47.4542291,22.2020467 46.8876959,21.5737127 C46.1033413,20.7055253 45.1154891,20.6204491 44.073799,20.9218034 C42.8621984,21.2713334 42.0916737,22.3434987 42.0412932,23.6903679 C42.0274633,24.0747484 42.0274633,24.0747484 42.4033411,24.0752609 L44.8744532,24.0752609 M50.8312016,30.7675816 C49.9026206,31.7336579 48.8762422,32.4552682 47.6379696,32.7930105 C46.1082805,33.2101915 44.5627858,33.2368419 43.0335907,32.792498 C40.9694737,32.1918394 39.5835171,30.8121697 38.942895,28.7119147 C38.2578195,26.4655951 38.2301597,24.1875 39.0540284,21.9698809 C39.9455649,19.5733966 41.6664034,18.1793767 44.1394912,17.8226716 C45.3204684,17.6520067 46.48564,17.7278577 47.5945041,18.2337025 C49.1059179,18.9225123 50.0690737,20.1361297 50.6632668,21.6910769 C51.0752011,22.7683673 51.2485692,23.8948584 51.2673383,25.0495374 C51.2742533,25.4513431 51.256472,25.8531488 51.2732655,26.2539296 C51.2841318,26.4999331 51.1932494,26.5711716 50.9680191,26.5593839 C50.6632668,26.5429837 50.3570326,26.5552839 50.0512924,26.5552839 L42.3539485,26.5552839 C41.9874553,26.5552839 41.9978278,26.562459 42.0259815,26.9499145 C42.0803134,27.685875 42.3015923,28.3511095 42.7683524,28.9169176 C43.2785781,29.5360265 43.9443904,29.8722313 44.7163969,29.9583325 C45.8558843,30.0849218 46.9558577,29.9685827 47.9185196,29.2403098 C48.1190536,29.0880951 48.2948912,28.9010299 48.4964131,28.7483027 C48.5586478,28.7016646 48.7058377,28.6714266 48.7453518,28.7103772 C49.4398119,29.3817618 50.1238995,30.0654465 50.8312016,30.7675816 M16.6994283,25.1499888 L16.6994283,18.130176 C16.6994283,17.7468205 16.6999222,17.7457955 17.0614761,17.7457955 C19.5587663,17.7457955 22.0565505,17.7278577 24.5538407,17.7560456 C25.6829557,17.7683458 26.7024191,18.1373511 27.4902312,19.0198887 C28.0696065,19.669748 28.3743588,20.4497841 28.4909254,21.3087464 C28.5353787,21.6377761 28.5501965,21.9734684 28.5506904,22.3060857 C28.5551358,25.6107329 28.5531601,28.9148676 28.5531601,32.2190023 C28.5531601,32.5956952 28.5526662,32.5962077 28.1841973,32.5962077 C27.2205475,32.5962077 26.2568978,32.5869826 25.2937419,32.6018453 C25.0235644,32.6064579 24.9450301,32.5265067 24.946018,32.2482152 C24.9549086,28.9066675 24.9420666,25.5635822 24.9583661,22.221522 C24.9623175,21.3968977 24.5553225,20.7531885 23.6277293,20.7316632 C22.5998691,20.7080878 21.5710211,20.7096253 20.542667,20.6942501 C20.3149671,20.6911751 20.2947162,20.8213519 20.2952101,21.0079046 C20.2996554,22.4977634 20.2971858,23.9876222 20.2971858,25.4769685 C20.2971858,27.7314882 20.2922465,29.9849829 20.3041008,32.2389901 C20.3055825,32.5372694 20.2151941,32.6079954 19.9371137,32.6028703 C18.992727,32.5859576 18.0478465,32.5962077 17.1029659,32.5962077 C16.6999222,32.5962077 16.6994283,32.5962077 16.6994283,32.197477 L16.6994283,25.1499888 M31.5231375,21.2697959 C31.5231375,18.8456362 31.5275829,16.4204516 31.5172104,13.9962919 C31.5162226,13.7159504 31.5987082,13.6370243 31.8688858,13.6411243 C32.8488351,13.6554745 33.8287845,13.6564996 34.8087338,13.6411243 C35.0873081,13.6359993 35.1574456,13.7308131 35.1539881,14.002442 C35.1406521,15.1140704 35.1485549,16.2256988 35.1490488,17.3373272 C35.1490488,17.7370829 35.1490488,17.7375954 35.5293719,17.7381079 C36.2267955,17.7391329 36.9242191,17.7457955 37.6216428,17.7345203 C37.8458852,17.7304203 37.9422008,17.7893586 37.9377554,18.0374122 C37.925703,18.823207 37.925703,19.609151 37.9377554,20.3949458 C37.9417069,20.6424869 37.8419338,20.7039878 37.6191731,20.7014252 C36.9128588,20.6922001 36.2055567,20.7065503 35.4992424,20.6937376 C35.2374616,20.6891251 35.141146,20.7654886 35.1421339,21.0509552 C35.1530003,23.4371893 35.1470731,25.8234234 35.1495428,28.21017 C35.1505306,29.0845075 35.5980276,29.5324389 36.4604226,29.5334639 C36.8565513,29.5334639 37.2521861,29.5411516 37.6478208,29.5303889 C37.846873,29.5247513 37.9392372,29.5790771 37.9367676,29.8020178 C37.9283708,30.6450923 37.9328162,31.4881669 37.934298,32.3317539 C37.934298,32.477306 37.9224437,32.6085079 37.7317883,32.6033828 C36.7439361,32.5787825 35.7462055,32.6366958 34.7716893,32.5111315 C33.036527,32.2871658 31.7142869,30.8024321 31.5833965,29.0265942 C31.5241254,28.2265703 31.5290647,27.4209088 31.5256072,26.6172973 C31.5177044,24.8347968 31.5231375,23.0522963 31.5231375,21.2697959 M57.6893651,22.1236331 L57.6893651,32.2236149 C57.6893651,32.6341333 57.6893651,32.6372083 57.2631069,32.5721199 C56.2051173,32.4122176 55.2627063,32.0416748 54.5746673,31.217563 C54.1212432,30.6743052 53.8831708,30.0449463 53.8105637,29.3653615 C53.7567257,28.8605418 53.7473411,28.349572 53.7463533,27.8411648 C53.7424019,22.5602893 53.7443776,17.2789013 53.7443776,11.9980259 C53.7443776,11.5972451 53.7443776,11.5962201 54.1538423,11.5962201 C55.2147955,11.5957076 56.2757487,11.6039077 57.336208,11.591095 C57.616758,11.586995 57.6957862,11.6710462 57.6952922,11.936525 C57.6864016,15.331886 57.6893651,18.7277595 57.6893651,22.1236331 M13.715127,32.6033828 C11.9231632,32.5644323 10.3786563,31.6029685 9.97907015,29.9906205 C9.86342064,29.5319932 9.80237733,29.0603877 9.79730535,28.5863504 C9.78248757,25.0864379 9.79187217,21.5870379 9.78446328,18.0871254 C9.78396935,17.8370218 9.83928907,17.7365704 10.133669,17.7406704 C11.222776,17.7565581 12.3123769,17.7524581 13.4019778,17.743233 C13.6440016,17.7406704 13.7363658,17.7990963 13.7358719,18.0440748 C13.7289569,22.8237181 13.7309326,27.6038739 13.7304387,32.3840297 C13.7304387,32.4573182 13.7205601,32.5311193 13.715127,32.6033828 M11.7349773,15.1750588 C11.1802984,15.1750588 10.6256194,15.1699337 10.0709404,15.1781338 C9.86694893,15.1806963 9.7829815,15.1304706 9.78446328,14.9510931 C9.79286002,14.0762431 9.79137824,13.201393 9.78545113,12.3270556 C9.78396935,12.1671533 9.84867367,12.1025773 10.0472319,12.1030899 C11.1862255,12.1071899 12.3262068,12.1071899 13.4652004,12.1030899 C13.654868,12.1025773 13.7368597,12.1522906 13.7358719,12.3188554 C13.7291853,13.2020628 13.7291853,14.085311 13.7358719,14.9685183 C13.7368597,15.1407208 13.6435077,15.1791588 13.4592733,15.1771088 C12.8848372,15.1719837 12.3094134,15.1750588 11.7349773,15.1750588 M61.097455,12.6130346 C61.099717,12.3564638 61.0025231,12.1097113 60.8277169,11.9282326 C60.6529107,11.7467539 60.415156,11.6457726 60.1678862,11.6479834 C59.6690208,11.6515709 59.253629,12.0851521 59.247208,12.6084221 C59.2441965,13.1433599 59.659263,13.5797743 60.1748011,13.5837235 C60.6934235,13.5837235 61.0984429,13.1583424 61.097455,12.6130346 M61.1527747,12.6114971 C61.1532687,13.1957555 60.7284922,13.6416368 60.1733193,13.6406118 C59.628025,13.6390743 59.1681798,13.16193 59.1770705,12.6079096 C59.190784,12.0396548 59.6403221,11.5873333 60.1881371,11.5905825 C60.7270105,11.5921201 61.1527747,12.042614 61.1527747,12.6114971" id="Shape"></path>
                    <path d="M60.5291681,12.4247343 L60.4313474,12.4909611 C60.4680301,12.6018909 60.4635467,12.7380697 60.5556612,12.8125748 C60.6066095,12.8531387 60.8328199,12.8076078 60.953873,12.7633187 C61.0068593,12.7438645 61.0357979,12.5828507 61.0052289,12.5696054 C60.8597206,12.5054482 60.6901647,12.4702652 60.5291681,12.4247343 M60.8845834,12.8961861 L61.1527752,13.2463602 C60.8491234,13.1817891 60.9070006,12.801399 60.476997,12.9086036 L60.4386839,13.2252504 L60.3669487,13.2256643 C60.358797,13.1495035 60.3465694,13.0729288 60.3424935,12.9963541 C60.3384177,12.901981 60.3327115,12.8063661 60.3441239,12.7128207 C60.3563515,12.6167919 60.365726,12.4479137 60.4142287,12.4404632 C60.5984578,12.4127307 60.812033,12.4065219 60.9881103,12.4495693 C61.2408138,12.5116569 61.1980173,12.7244104 60.8845834,12.8961861" id="Shape"></path>
                </g>
            </g>
        </g>
    </g>
</svg>