<svg width="40" height="49" viewBox="0 0 40 49" fill="none" xmlns="http://www.w3.org/2000/svg">
<g clip-path="url(#clip0)">
<path fill-rule="evenodd" clip-rule="evenodd" d="M27.2001 27.5L28.4001 26L27.3001 25L25.9001 26.5L21.9001 22.5L29.8001 14.5C29.8001 14.5 32.0001 12.1 32.1001 10.3C32.1001 10.3 30.6001 9.9 27.8001 12.8L20.0001 20.6L12.2001 12.8C9.40013 9.8 8.00013 10.3 8.00013 10.3C8.00013 12.1 10.3001 14.6 10.3001 14.6L18.2001 22.5L14.2001 26.5L12.8001 25L11.8001 26L12.8001 27.5L8.70013 31.8C8.70013 31.8 7.70013 32.9 8.00013 33.4C8.00013 33.4 9.00013 35.5 10.0001 34.3L10.4001 32.7C10.4001 32.7 10.6001 32.3 12.0001 32.4C12.0001 32.4 12.5001 32.4 12.6001 31.2L14.9001 29.3L16.1001 30.6L17.2001 29.6L16.2001 28.4L20.1001 24.4L24.0001 28.4L23.0001 29.6L24.0001 30.6L25.2001 29.3L27.6001 31.2C27.6001 32.3 28.2001 32.4 28.2001 32.4C29.6001 32.4 29.8001 32.7 29.8001 32.7L30.2001 34.3C31.2001 35.5 32.2001 33.3 32.2001 33.3C32.5001 32.9 31.5001 31.8 31.5001 31.8L27.3001 27.5H27.2001ZM20.1001 48.7C-3.99987 39.5 0.000130802 11.7 0.400131 5.2C5.00013 1.1 20.0001 0 20.0001 0C20.7001 0 35.0001 1.2 39.5001 5.2C39.9001 11.6 44.0001 39.4 20.1001 48.7Z" fill="white"/>
<rect x="6" y="8" width="27" height="27" fill="white"/>
</g>
<defs>
<clipPath id="clip0">
<rect width="40" height="49" fill="white"/>
</clipPath>
</defs>
</svg>
