<svg width="716" height="245" viewBox="0 0 716 245" fill="none" xmlns="http://www.w3.org/2000/svg">
<path d="M321.5 128.5H316V124H346.8V128.5H340.8C339.4 128.5 338.4 128.9 337.8 129.7C337.267 130.433 337 131.133 337 131.8V133.1L355.3 190L369.2 148.2L365.1 133.1C364.367 130.367 362.867 128.833 360.6 128.5H356.3V124H383.7V128.5H378.9C377.5 128.5 376.5 128.9 375.9 129.7C375.367 130.433 375.1 131.133 375.1 131.8V133.1L392 190L409.7 133.1V131.9C409.7 131.233 409.367 130.567 408.7 129.9C408.033 129.167 407.1 128.7 405.9 128.5H399.9V124H426V128.5H421C419.8 128.7 418.667 129.267 417.6 130.2C416.533 131.067 415.833 132.033 415.5 133.1L394.9 198H384.9L371.9 158.1L358.2 198H348.2L327 133.1C326.133 130.433 324.3 128.9 321.5 128.5ZM478.592 194.6C472.726 197.867 466.392 199.5 459.592 199.5C459.459 199.5 459.326 199.5 459.192 199.5C451.126 199.5 444.759 197.167 440.092 192.5C435.492 187.833 433.192 181.367 433.192 173.1C433.192 164.833 435.459 158.5 439.992 154.1C444.992 149.367 451.292 147 458.892 147C466.559 147 472.159 149.4 475.692 154.2C479.292 159 481.092 165.067 481.092 172.4V174.8H442.692C443.092 180 444.859 184.5 447.992 188.3C451.326 192.167 455.992 194.1 461.992 194.1C467.992 194.1 473.659 192.133 478.992 188.2L478.592 194.6ZM472.892 169.6C472.692 158.667 468.226 153.2 459.492 153.2H459.292C449.759 153.2 444.226 158.667 442.692 169.6H472.892ZM513.447 193C517.98 193 521.514 191.167 524.047 187.5C526.58 183.833 527.88 178.967 527.947 172.9C527.814 166.633 526.414 161.767 523.747 158.3C521.08 154.833 517.647 153.1 513.447 153.1C504.714 153.167 500.047 158.733 499.447 169.8V175.2C500.447 187.067 505.114 193 513.447 193ZM499.447 154.1C503.38 149.167 508.614 146.7 515.147 146.7C521.68 146.7 527.08 149 531.347 153.6C535.68 158.2 537.847 164.533 537.847 172.6C537.847 180.6 535.68 187.1 531.347 192.1C527.08 197.033 521.68 199.5 515.147 199.5C508.68 199.5 503.447 196.9 499.447 191.7V198.3H491.047V134H483.547V132L495.447 124H499.447V154.1ZM568.183 193.4C575.916 193.4 579.783 190.967 579.783 186.1C579.783 183.633 579.216 182.067 578.083 181.4C575.083 179.6 572.983 178.7 571.783 178.7C571.716 178.7 569.583 178.167 565.383 177.1C561.183 175.967 557.816 174.833 555.283 173.7C552.749 172.5 550.716 170.9 549.183 168.9C547.716 166.833 546.983 164.5 546.983 161.9C546.983 159.233 547.683 156.933 549.083 155C550.483 153 552.249 151.433 554.383 150.3C558.649 148.167 562.216 147.1 565.083 147.1C567.949 147.1 570.849 147.733 573.783 149C573.716 148.733 573.683 148.3 573.683 147.7C573.683 147.033 573.483 146.4 573.083 145.8H578.083L586.683 160.9L583.883 163.2L581.783 160.5C575.516 155.5 570.616 153 567.083 153C563.616 153 560.783 153.7 558.583 155.1C556.383 156.433 555.283 157.733 555.283 159C555.283 160.2 556.016 161.767 557.483 163.7C559.016 165.633 562.516 167.233 567.983 168.5C573.516 169.767 577.516 171 579.983 172.2C585.249 174.867 587.883 178.933 587.883 184.4V184.7C587.883 188.833 585.983 192.233 582.183 194.9C578.449 197.567 573.583 198.9 567.583 198.9C564.583 198.9 561.249 198.033 557.583 196.3L557.683 196.5L557.883 196.8H557.783C557.849 197 557.883 197.433 557.883 198.1C557.883 198.833 558.083 199.5 558.483 200.1H553.483L544.883 185L547.683 182.7L549.783 185.4L556.483 190.1C560.949 192.3 564.849 193.4 568.183 193.4ZM603.359 135.3C602.093 133.967 601.459 132.4 601.459 130.6C601.459 128.8 602.093 127.267 603.359 126C604.693 124.667 606.259 124 608.059 124C609.859 124 611.393 124.667 612.659 126C613.993 127.267 614.659 128.8 614.659 130.6C614.659 132.4 613.993 133.967 612.659 135.3C611.393 136.567 609.859 137.2 608.059 137.2C606.259 137.2 604.693 136.567 603.359 135.3ZM612.059 190.5C612.526 192.5 613.726 193.5 615.659 193.5H619.859V198H595.359V193.5L600.659 193.4C601.993 193.133 603.026 192.167 603.759 190.5V156H596.259V154L608.159 146H612.059V190.5ZM650.752 198.9C639.218 198.9 633.452 194.267 633.452 185V155.6H624.352V150.8H628.152C633.085 150.533 635.885 146.4 636.552 138.4L641.952 132.2V150.8H653.752V155.6H641.952V181.5C641.952 186.633 642.718 189.967 644.252 191.5C645.852 192.967 648.118 193.7 651.052 193.7C653.985 193.7 656.218 193.133 657.752 192V198.3C656.752 198.7 655.418 198.9 653.752 198.9H650.752ZM708.866 194.6C702.999 197.867 696.666 199.5 689.866 199.5C689.732 199.5 689.599 199.5 689.466 199.5C681.399 199.5 675.032 197.167 670.366 192.5C665.766 187.833 663.466 181.367 663.466 173.1C663.466 164.833 665.732 158.5 670.266 154.1C675.266 149.367 681.566 147 689.166 147C696.832 147 702.432 149.4 705.966 154.2C709.566 159 711.366 165.067 711.366 172.4V174.8H672.966C673.366 180 675.132 184.5 678.266 188.3C681.599 192.167 686.266 194.1 692.266 194.1C698.266 194.1 703.932 192.133 709.266 188.2L708.866 194.6ZM703.166 169.6C702.966 158.667 698.499 153.2 689.766 153.2H689.566C680.032 153.2 674.499 158.667 672.966 169.6H703.166Z" fill="white"/>
<path d="M40.6 128C51.9333 128 60.1333 124.9 65.2 118.7L67.2 116L70.1 118.4C67.5 121.8 65.6667 123.967 64.6 124.9C63.6 125.767 62.5 126.633 61.3 127.5C60.1667 128.367 59.0333 129.067 57.9 129.6C56.8333 130.133 56.0667 130.533 55.6 130.8L54.1 131.4C49.3 133.2 44.2667 134.1 39 134.1C33.7333 134.1 29 133.133 24.8 131.2C20.6667 129.267 17.1 126.533 14.1 123C11.1 119.467 8.66667 115.1 6.8 109.9C4.93333 104.7 4 99.6667 4 94.8C4 82.5333 9.2 72.4333 19.6 64.5C25.3333 60.2333 31.4667 58.1 38 58.1C44.5333 58.1 49.8667 58.9 54 60.5C54.3333 60.6333 54.5667 60.7 54.7 60.7C54.9 60.7 55 60.5667 55 60.3C55 60.0333 54.8 59.6 54.4 59H59.4L69.1 73.8L66.3 76.1L64.2 73.4L60.2 69.6C57.2 66.7333 54.1333 65 51 64.4C47.9333 63.8 45.0667 63.5 42.4 63.5C39.7333 63.5 37.1667 63.9333 34.7 64.8C32.2333 65.6 29.7667 66.9 27.3 68.7C24.9 70.5 22.7 72.6 20.7 75C18.7 77.4 17.1 80.2333 15.9 83.5C14.7 86.7667 14.1 90.1333 14.1 93.6C14.1 103.133 16.6667 111.267 21.8 118C27 124.667 33.2667 128 40.6 128ZM112.121 81.5H112.321C114.188 81.5 115.754 81.5667 117.021 81.7C116.021 85.5667 115.521 88.2 115.521 89.6C114.188 89.4 112.621 89.3 110.821 89.3C105.554 89.3 101.188 91.6 97.7211 96.2C94.3211 100.733 92.6211 105.267 92.6211 109.8V125.5C93.0878 127.5 94.2878 128.5 96.2211 128.5H101.021V133H75.9211V128.5L81.2211 128.4C82.5544 128.133 83.5878 127.167 84.3211 125.5V92.9H76.8211V90.9L88.7211 82.9H92.6211V95.8C96.5544 86.2667 103.054 81.5 112.121 81.5ZM167.666 129.6C161.8 132.867 155.466 134.5 148.666 134.5C148.533 134.5 148.4 134.5 148.266 134.5C140.2 134.5 133.833 132.167 129.166 127.5C124.566 122.833 122.266 116.367 122.266 108.1C122.266 99.8333 124.533 93.5 129.066 89.1C134.066 84.3667 140.366 82 147.966 82C155.633 82 161.233 84.4 164.766 89.2C168.366 94 170.166 100.067 170.166 107.4V109.8H131.766C132.166 115 133.933 119.5 137.066 123.3C140.4 127.167 145.066 129.1 151.066 129.1C157.066 129.1 162.733 127.133 168.066 123.2L167.666 129.6ZM161.966 104.6C161.766 93.6667 157.3 88.2 148.566 88.2H148.366C138.833 88.2 133.3 93.6667 131.766 104.6H161.966ZM227.021 127.7C225.954 132.1 223.621 134.3 220.021 134.3C216.488 134.3 213.988 131.933 212.521 127.2C208.854 132 204.654 134.4 199.921 134.4C194.188 134.4 189.288 133 185.221 130.2C181.154 127.333 179.121 123.767 179.121 119.5V119.2C179.121 111.733 183.321 106.033 191.721 102.1C196.388 99.9 200.088 98.8 202.821 98.8C205.554 98.8 208.788 99.6 212.521 101.2L212.621 96.8C212.621 93.1333 212.021 90.7 210.821 89.5C208.221 87.1 204.788 85.9 200.521 85.9C196.254 85.9 190.288 88.3 182.621 93.1L182.421 85.3C188.821 82.1 195.354 80.5 202.021 80.5H202.521C206.588 80.5 210.654 81.9667 214.721 84.9C216.854 86.4333 218.554 88.4667 219.821 91C221.154 93.5333 221.821 96.3667 221.821 99.5V126.4C222.221 126.867 222.721 127.1 223.321 127.1C223.454 127.1 224.688 125.8 227.021 123.2V127.7ZM212.521 109.1C211.988 106.1 209.554 104.6 205.221 104.6H204.621C201.288 104.6 197.854 106.1 194.321 109.1C190.788 112.1 189.021 115.3 189.021 118.7C189.021 119.167 189.054 119.633 189.121 120.1C189.788 125.567 193.488 128.3 200.221 128.3C203.688 128.3 206.254 127.467 207.921 125.8C209.588 124.133 210.654 122.733 211.121 121.6C211.588 120.467 211.921 119.033 212.121 117.3C212.388 115.567 212.521 114.433 212.521 113.9V109.1ZM258.38 133.9C246.847 133.9 241.08 129.267 241.08 120V90.6H231.98V85.8H235.78C240.714 85.5333 243.514 81.4 244.18 73.4L249.58 67.2V85.8H261.38V90.6H249.58V116.5C249.58 121.633 250.347 124.967 251.88 126.5C253.48 127.967 255.747 128.7 258.68 128.7C261.614 128.7 263.847 128.133 265.38 127V133.3C264.38 133.7 263.047 133.9 261.38 133.9H258.38ZM316.495 129.6C310.628 132.867 304.295 134.5 297.495 134.5C297.361 134.5 297.228 134.5 297.095 134.5C289.028 134.5 282.661 132.167 277.995 127.5C273.395 122.833 271.095 116.367 271.095 108.1C271.095 99.8333 273.361 93.5 277.895 89.1C282.895 84.3667 289.195 82 296.795 82C304.461 82 310.061 84.4 313.595 89.2C317.195 94 318.995 100.067 318.995 107.4V109.8H280.595C280.995 115 282.761 119.5 285.895 123.3C289.228 127.167 293.895 129.1 299.895 129.1C305.895 129.1 311.561 127.133 316.895 123.2L316.495 129.6ZM310.795 104.6C310.595 93.6667 306.128 88.2 297.395 88.2H297.195C287.661 88.2 282.128 93.6667 280.595 104.6H310.795Z" fill="white"/>
<rect x="407.053" width="6" height="300" transform="rotate(36.562 407.053 0)" fill="white"/>
</svg>
