<?xml version="1.0" encoding="UTF-8"?>
<svg xmlns="http://www.w3.org/2000/svg" width="560" height="158" viewBox="0 0 560 158">
  <path d="M541.95 86.68s-1.74.86-1.74 2.7c0 .33.1.87.2 1.08l6.84 1.2-11.52 31.07-11.93-31.07c2.55-.5 6.73-1.2 6.73-1.2a10.48 10.48 0 0 0 1.53-3.78h-21.31s-1.74.86-1.74 2.7c0 .33.1.87.2 1.08l5.92 1.2 17.03 40.77-.61 1.8c-3.58 10.3-9.9 14.89-15.3 16.69.6 2.69 2.55 6.29 7.14 6.29 2.75-1.5 7.85-9.1 12.95-21.98l17.23-43.57c2.55-.7 4.9-1.2 4.9-1.2a10.56 10.56 0 0 0 1.53-3.78h-18.05zm-58.72 43.07c-10.65 0-14.87-8.85-14.87-20.35 0-13.94 5.44-18.21 13.87-18.21 10.65 0 14.75 8.96 14.75 20.45 0 13.94-5.33 18.11-13.75 18.11m.33-43.92c-11.99 0-22.13 8.1-22.13 26.42 0 16.69 8.6 22.86 20.46 22.86 11.88 0 22.03-8 22.03-26.42 0-16.7-8.49-22.86-20.36-22.86m-31.11.57c-6.58 0-11 5.26-14.14 9.32v-9.9a462.6 462.6 0 0 1-13.48 1.22s-1.64 1.03-1.64 2.7c0 .28.1.74.2.93 0 0 4.62.46 8.33 1.02v36.72l-5.45 1.32s-1.75.92-1.75 2.66c0 .41.1.82.21 1.02 0 0 6.78-.3 10.56-.3 3.39-.01 11.2.3 11.2.3 1.13-1.17 1.54-2.96 1.54-2.96 0-.82-5.86-1.33-9.35-2.15V98.04c3.6-4.29 6.88-5.33 12.54-5.33 1.95 0 3.5.21 4.62.42.73-1.26 1.34-3.2 1.34-4.88 0-.65-.1-1.3-.3-1.86-.83.31-2.06 0-4.43 0m-42.28 43.43c-6.02 0-6.52-2.67-6.52-9.24V92.34h12.54a6.4 6.4 0 0 0 2.44-5.3l-14.98.1V75.63l-3.73.61-4.1 10.8-6.62 3.38.4 1.92h7.14v31.12c0 7.54.73 11.65 8.33 11.65 5.82 0 11.12-1.57 13.87-2.74l-.72-3.37c-1.62.41-5.4.82-8.05.82m-39.33-23.53c-6.91-2.86-13.29-4.38-13.29-9.37 0-4.18 3.24-7.03 9.01-7.03 3.34 0 5.47.41 6.89.92 1.5 2.44 2.32 7.13 2.63 8.96.56.4 1.23.6 1.79.6.85 0 1.7-.4 2.17-1.1a66.06 66.06 0 0 0-.38-11.27c-2.54-1-7.13-2.17-12.3-2.17-10.18 0-16.7 4.67-16.7 12.92 0 7.95 5.42 10.39 12.86 13.54 5.94 2.24 11.14 4.28 11.14 9.47 0 3.46-2.23 8.15-9.87 8.15-3.09 0-6.27-.41-8.4-1.12-1.38-2.24-2.44-6.1-3.07-9.78a2.9 2.9 0 0 0-1.7-.6c-.94 0-1.8.4-2.27 1.1-.1 1.03-.1 2.25-.1 3.57 0 2.86.2 6.73.57 9.15 2.46 1.34 8.7 2.88 14.01 2.88 12.14 0 17.72-7.96 17.72-15.7 0-6.71-3.66-9.77-10.71-13.12m-47.8-15.19c6.98 0 9.99 3.7 9.99 8.51a12 12 0 0 1-.33 2.78l-22.23 1.1c.96-8.5 5.59-12.4 12.57-12.4zm16 17.15c.61-2.66.87-5.3.87-7.34 0-8.15-4.53-15.08-14.62-15.08-12.03 0-21.92 7.86-21.92 26.04 0 18.75 9.79 23.24 19.78 23.24 9.45 0 15.45-3.89 16.6-4.84l-1.06-3.5c-2.18 1.54-6.42 3.07-10.5 3.07-10.84 0-17.94-5.26-17.94-20.17v-1.64l28.8.22zM120.5 26.46c7 0 10.01 3.71 10.01 8.53 0 .93-.1 1.86-.32 2.79l-22.28 1.1c.96-8.53 5.6-12.42 12.59-12.42zm16.04 17.2c.61-2.67.87-5.33.87-7.37 0-8.16-4.54-15.11-14.65-15.11-12.06 0-21.97 7.88-21.97 26.1 0 18.8 9.8 23.3 19.82 23.3 9.47 0 15.5-3.9 16.63-4.85l-1.05-3.51c-2.19 1.53-6.43 3.07-10.52 3.07-10.87 0-17.98-5.27-17.98-20.21v-1.65l28.85.22zm36.89 17.53c-3 1.64-6.8 2.88-11.71 2.88-5.14 0-8.38-2.16-8.38-7.1 0-6.78 8.94-8.73 15.86-10.17l4.23-.93-.09 11.1c0 1.55 0 2.98.09 4.22zm11.9 5.43c-4.38 0-5.19-2.07-5.19-8.76l.1-22.45c0-8.04-1.84-13.82-13.27-13.82-6.48 0-14.4 2.65-18.08 5.68l1.14 3.6c2.88-1.85 6.78-3.81 13.48-3.81 8.93 0 9.92 3.6 9.92 11.72v2.88l-7.47 1.13c-12.06 1.85-19.52 6.58-19.52 15.93 0 6.92 4.02 11.96 11.82 11.96 6.8 0 13.06-4.1 15.54-5.98.73 3.99 2.3 5.98 5.88 5.98 4.02 0 7.49-1.78 7.49-1.78l-.4-2.4s-1.03.12-1.44.12zm35.34-2.15l.7 3.37a37.74 37.74 0 0 1-13.86 2.74c-7.6 0-8.32-4.11-8.32-11.65V27.87h-7.14l-.4-1.92 6.62-3.37 4.1-10.78 3.71-.6v11.48l14.99-.1a6.38 6.38 0 0 1-2.45 5.3h-12.54v28.19c0 6.56.52 9.22 6.53 9.22 2.65 0 6.42-.4 8.06-.82zm-168.8-4.56l1.7 4.1A42.22 42.22 0 0 1 31 70.64c-21.75 0-31-15.8-31-33.09C0 9.41 17.68 0 34.11 0c8.94 0 15.96 1.8 18.62 2.78a72 72 0 0 1 .74 10.84c0 2.32-.1 4.54-.31 6.86a4.1 4.1 0 0 1-2.35.73c-1.49 0-2.55-.63-2.55-.63-.31-3.05-1.15-8.75-2.5-12.23a28.94 28.94 0 0 0-13.31-3.07c-12.59 0-24.13 6.13-24.13 28.06C8.32 51.68 16.74 64 33.59 64c8.63 0 14.46-2.42 18.29-4.1zM95.1 22.06c.2.55.3 1.2.3 1.85 0 1.68-.6 3.63-1.32 4.88-1.12-.2-2.65-.41-4.59-.41-5.6 0-8.86 1.04-12.43 5.33v30.26c3.47.81 9.27 1.32 9.27 2.14 0 0-.4 1.8-1.53 2.95 0 0-7.74-.3-11.1-.3-3.75 0-10.47.32-10.47.32-.1-.2-.2-.61-.2-1.02 0-1.75 1.72-2.67 1.72-2.67l5.41-1.32V27.36c-3.67-.56-8.26-1.03-8.26-1.03-.1-.18-.2-.65-.2-.93 0-1.67 1.63-2.7 1.63-2.7s7.46-.56 13.37-1.2v9.88c3.1-4.05 7.5-9.32 14.01-9.32 2.35 0 3.57.31 4.39 0zm151.36 4.4c7 0 10.01 3.71 10.01 8.53 0 .93-.1 1.86-.32 2.79l-22.28 1.1c.96-8.53 5.6-12.42 12.59-12.42zm-.01 44.28h12.43c18.55 0 26.82 12.72 26.82 30.5 0 20.17-9.63 26.68-25.45 26.68-4.93 0-9.22-.3-11.53-.72V76.94l-6.9 6.87v44.57l-7.74 1.28s-2.14 1-2.14 2.9c0 .28 0 .56.1.85 0 0 7.64-.3 12.75-.3 3.06 0 8.44.1 13.47.1 20.42 0 35.76-10.35 35.76-36.2 0-16.13-8.84-31.56-32.61-31.56h-9.58c-10.88 0-18.18-5.43-18.18-20.37v-1.65l28.85.22c.6-2.66.87-5.32.87-7.36 0-8.16-4.54-15.11-14.65-15.11-12.06 0-21.97 7.88-21.97 26.1 0 18.8 9.68 23.46 19.7 23.46z" fill="#FFF" fill-rule="evenodd"></path>
</svg>
