<svg width="716" height="165" viewBox="0 0 716 165" fill="none" xmlns="http://www.w3.org/2000/svg">
<path d="M321.5 83.5H316V79H346.8V83.5H340.8C339.4 83.5 338.4 83.9 337.8 84.7C337.267 85.4333 337 86.1333 337 86.8V88.1L355.3 145L369.2 103.2L365.1 88.1C364.367 85.3667 362.867 83.8333 360.6 83.5H356.3V79H383.7V83.5H378.9C377.5 83.5 376.5 83.9 375.9 84.7C375.367 85.4333 375.1 86.1333 375.1 86.8V88.1L392 145L409.7 88.1V86.9C409.7 86.2333 409.367 85.5667 408.7 84.9C408.033 84.1667 407.1 83.7 405.9 83.5H399.9V79H426V83.5H421C419.8 83.7 418.667 84.2667 417.6 85.2C416.533 86.0667 415.833 87.0333 415.5 88.1L394.9 153H384.9L371.9 113.1L358.2 153H348.2L327 88.1C326.133 85.4333 324.3 83.9 321.5 83.5ZM478.592 149.6C472.726 152.867 466.392 154.5 459.592 154.5C459.459 154.5 459.326 154.5 459.192 154.5C451.126 154.5 444.759 152.167 440.092 147.5C435.492 142.833 433.192 136.367 433.192 128.1C433.192 119.833 435.459 113.5 439.992 109.1C444.992 104.367 451.292 102 458.892 102C466.559 102 472.159 104.4 475.692 109.2C479.292 114 481.092 120.067 481.092 127.4V129.8H442.692C443.092 135 444.859 139.5 447.992 143.3C451.326 147.167 455.992 149.1 461.992 149.1C467.992 149.1 473.659 147.133 478.992 143.2L478.592 149.6ZM472.892 124.6C472.692 113.667 468.226 108.2 459.492 108.2H459.292C449.759 108.2 444.226 113.667 442.692 124.6H472.892ZM513.447 148C517.98 148 521.514 146.167 524.047 142.5C526.58 138.833 527.88 133.967 527.947 127.9C527.814 121.633 526.414 116.767 523.747 113.3C521.08 109.833 517.647 108.1 513.447 108.1C504.714 108.167 500.047 113.733 499.447 124.8V130.2C500.447 142.067 505.114 148 513.447 148ZM499.447 109.1C503.38 104.167 508.614 101.7 515.147 101.7C521.68 101.7 527.08 104 531.347 108.6C535.68 113.2 537.847 119.533 537.847 127.6C537.847 135.6 535.68 142.1 531.347 147.1C527.08 152.033 521.68 154.5 515.147 154.5C508.68 154.5 503.447 151.9 499.447 146.7V153.3H491.047V89H483.547V87L495.447 79H499.447V109.1ZM568.183 148.4C575.916 148.4 579.783 145.967 579.783 141.1C579.783 138.633 579.216 137.067 578.083 136.4C575.083 134.6 572.983 133.7 571.783 133.7C571.716 133.7 569.583 133.167 565.383 132.1C561.183 130.967 557.816 129.833 555.283 128.7C552.749 127.5 550.716 125.9 549.183 123.9C547.716 121.833 546.983 119.5 546.983 116.9C546.983 114.233 547.683 111.933 549.083 110C550.483 108 552.249 106.433 554.383 105.3C558.649 103.167 562.216 102.1 565.083 102.1C567.949 102.1 570.849 102.733 573.783 104C573.716 103.733 573.683 103.3 573.683 102.7C573.683 102.033 573.483 101.4 573.083 100.8H578.083L586.683 115.9L583.883 118.2L581.783 115.5C575.516 110.5 570.616 108 567.083 108C563.616 108 560.783 108.7 558.583 110.1C556.383 111.433 555.283 112.733 555.283 114C555.283 115.2 556.016 116.767 557.483 118.7C559.016 120.633 562.516 122.233 567.983 123.5C573.516 124.767 577.516 126 579.983 127.2C585.249 129.867 587.883 133.933 587.883 139.4V139.7C587.883 143.833 585.983 147.233 582.183 149.9C578.449 152.567 573.583 153.9 567.583 153.9C564.583 153.9 561.249 153.033 557.583 151.3L557.683 151.5L557.883 151.8H557.783C557.849 152 557.883 152.433 557.883 153.1C557.883 153.833 558.083 154.5 558.483 155.1H553.483L544.883 140L547.683 137.7L549.783 140.4L556.483 145.1C560.949 147.3 564.849 148.4 568.183 148.4ZM603.359 90.3C602.093 88.9667 601.459 87.4 601.459 85.6C601.459 83.8 602.093 82.2667 603.359 81C604.693 79.6667 606.259 79 608.059 79C609.859 79 611.393 79.6667 612.659 81C613.993 82.2667 614.659 83.8 614.659 85.6C614.659 87.4 613.993 88.9667 612.659 90.3C611.393 91.5667 609.859 92.2 608.059 92.2C606.259 92.2 604.693 91.5667 603.359 90.3ZM612.059 145.5C612.526 147.5 613.726 148.5 615.659 148.5H619.859V153H595.359V148.5L600.659 148.4C601.993 148.133 603.026 147.167 603.759 145.5V111H596.259V109L608.159 101H612.059V145.5ZM650.752 153.9C639.218 153.9 633.452 149.267 633.452 140V110.6H624.352V105.8H628.152C633.085 105.533 635.885 101.4 636.552 93.4L641.952 87.2V105.8H653.752V110.6H641.952V136.5C641.952 141.633 642.718 144.967 644.252 146.5C645.852 147.967 648.118 148.7 651.052 148.7C653.985 148.7 656.218 148.133 657.752 147V153.3C656.752 153.7 655.418 153.9 653.752 153.9H650.752ZM708.866 149.6C702.999 152.867 696.666 154.5 689.866 154.5C689.732 154.5 689.599 154.5 689.466 154.5C681.399 154.5 675.032 152.167 670.366 147.5C665.766 142.833 663.466 136.367 663.466 128.1C663.466 119.833 665.732 113.5 670.266 109.1C675.266 104.367 681.566 102 689.166 102C696.832 102 702.432 104.4 705.966 109.2C709.566 114 711.366 120.067 711.366 127.4V129.8H672.966C673.366 135 675.132 139.5 678.266 143.3C681.599 147.167 686.266 149.1 692.266 149.1C698.266 149.1 703.932 147.133 709.266 143.2L708.866 149.6ZM703.166 124.6C702.966 113.667 698.499 108.2 689.766 108.2H689.566C680.032 108.2 674.499 113.667 672.966 124.6H703.166Z" fill="white"/>
<path d="M40.6 83C51.9333 83 60.1333 79.9 65.2 73.7L67.2 71L70.1 73.4C67.5 76.8 65.6667 78.9667 64.6 79.9C63.6 80.7667 62.5 81.6333 61.3 82.5C60.1667 83.3667 59.0333 84.0667 57.9 84.6C56.8333 85.1333 56.0667 85.5333 55.6 85.8L54.1 86.4C49.3 88.2 44.2667 89.1 39 89.1C33.7333 89.1 29 88.1333 24.8 86.2C20.6667 84.2667 17.1 81.5333 14.1 78C11.1 74.4667 8.66667 70.1 6.8 64.9C4.93333 59.7 4 54.6667 4 49.8C4 37.5333 9.2 27.4333 19.6 19.5C25.3333 15.2333 31.4667 13.1 38 13.1C44.5333 13.1 49.8667 13.9 54 15.5C54.3333 15.6333 54.5667 15.7 54.7 15.7C54.9 15.7 55 15.5667 55 15.3C55 15.0333 54.8 14.6 54.4 14H59.4L69.1 28.8L66.3 31.1L64.2 28.4L60.2 24.6C57.2 21.7333 54.1333 20 51 19.4C47.9333 18.8 45.0667 18.5 42.4 18.5C39.7333 18.5 37.1667 18.9333 34.7 19.8C32.2333 20.6 29.7667 21.9 27.3 23.7C24.9 25.5 22.7 27.6 20.7 30C18.7 32.4 17.1 35.2333 15.9 38.5C14.7 41.7667 14.1 45.1333 14.1 48.6C14.1 58.1333 16.6667 66.2667 21.8 73C27 79.6667 33.2667 83 40.6 83ZM112.121 36.5H112.321C114.188 36.5 115.754 36.5667 117.021 36.7C116.021 40.5667 115.521 43.2 115.521 44.6C114.188 44.4 112.621 44.3 110.821 44.3C105.554 44.3 101.188 46.6 97.7211 51.2C94.3211 55.7333 92.6211 60.2667 92.6211 64.8V80.5C93.0878 82.5 94.2878 83.5 96.2211 83.5H101.021V88H75.9211V83.5L81.2211 83.4C82.5544 83.1333 83.5878 82.1667 84.3211 80.5V47.9H76.8211V45.9L88.7211 37.9H92.6211V50.8C96.5544 41.2667 103.054 36.5 112.121 36.5ZM167.666 84.6C161.8 87.8667 155.466 89.5 148.666 89.5C148.533 89.5 148.4 89.5 148.266 89.5C140.2 89.5 133.833 87.1667 129.166 82.5C124.566 77.8333 122.266 71.3667 122.266 63.1C122.266 54.8333 124.533 48.5 129.066 44.1C134.066 39.3667 140.366 37 147.966 37C155.633 37 161.233 39.4 164.766 44.2C168.366 49 170.166 55.0667 170.166 62.4V64.8H131.766C132.166 70 133.933 74.5 137.066 78.3C140.4 82.1667 145.066 84.1 151.066 84.1C157.066 84.1 162.733 82.1333 168.066 78.2L167.666 84.6ZM161.966 59.6C161.766 48.6667 157.3 43.2 148.566 43.2H148.366C138.833 43.2 133.3 48.6667 131.766 59.6H161.966ZM227.021 82.7C225.954 87.1 223.621 89.3 220.021 89.3C216.488 89.3 213.988 86.9333 212.521 82.2C208.854 87 204.654 89.4 199.921 89.4C194.188 89.4 189.288 88 185.221 85.2C181.154 82.3333 179.121 78.7667 179.121 74.5V74.2C179.121 66.7333 183.321 61.0333 191.721 57.1C196.388 54.9 200.088 53.8 202.821 53.8C205.554 53.8 208.788 54.6 212.521 56.2L212.621 51.8C212.621 48.1333 212.021 45.7 210.821 44.5C208.221 42.1 204.788 40.9 200.521 40.9C196.254 40.9 190.288 43.3 182.621 48.1L182.421 40.3C188.821 37.1 195.354 35.5 202.021 35.5H202.521C206.588 35.5 210.654 36.9667 214.721 39.9C216.854 41.4333 218.554 43.4667 219.821 46C221.154 48.5333 221.821 51.3667 221.821 54.5V81.4C222.221 81.8667 222.721 82.1 223.321 82.1C223.454 82.1 224.688 80.8 227.021 78.2V82.7ZM212.521 64.1C211.988 61.1 209.554 59.6 205.221 59.6H204.621C201.288 59.6 197.854 61.1 194.321 64.1C190.788 67.1 189.021 70.3 189.021 73.7C189.021 74.1667 189.054 74.6333 189.121 75.1C189.788 80.5667 193.488 83.3 200.221 83.3C203.688 83.3 206.254 82.4667 207.921 80.8C209.588 79.1333 210.654 77.7333 211.121 76.6C211.588 75.4667 211.921 74.0333 212.121 72.3C212.388 70.5667 212.521 69.4333 212.521 68.9V64.1ZM258.38 88.9C246.847 88.9 241.08 84.2667 241.08 75V45.6H231.98V40.8H235.78C240.714 40.5333 243.514 36.4 244.18 28.4L249.58 22.2V40.8H261.38V45.6H249.58V71.5C249.58 76.6333 250.347 79.9667 251.88 81.5C253.48 82.9667 255.747 83.7 258.68 83.7C261.614 83.7 263.847 83.1333 265.38 82V88.3C264.38 88.7 263.047 88.9 261.38 88.9H258.38ZM316.495 84.6C310.628 87.8667 304.295 89.5 297.495 89.5C297.361 89.5 297.228 89.5 297.095 89.5C289.028 89.5 282.661 87.1667 277.995 82.5C273.395 77.8333 271.095 71.3667 271.095 63.1C271.095 54.8333 273.361 48.5 277.895 44.1C282.895 39.3667 289.195 37 296.795 37C304.461 37 310.061 39.4 313.595 44.2C317.195 49 318.995 55.0667 318.995 62.4V64.8H280.595C280.995 70 282.761 74.5 285.895 78.3C289.228 82.1667 293.895 84.1 299.895 84.1C305.895 84.1 311.561 82.1333 316.895 78.2L316.495 84.6ZM310.795 59.6C310.595 48.6667 306.128 43.2 297.395 43.2H297.195C287.661 43.2 282.128 48.6667 280.595 59.6H310.795Z" fill="white"/>
</svg>
