<?xml version="1.0" encoding="UTF-8"?>
<svg width="335px" height="129px" viewBox="0 0 335 129" version="1.1" xmlns="http://www.w3.org/2000/svg" xmlns:xlink="http://www.w3.org/1999/xlink">
    <!-- Generator: Sketch 48.2 (47327) - http://www.bohemiancoding.com/sketch -->
    <title>logo-create_destroy-small</title>
    <desc>Created with Sketch.</desc>
    <defs></defs>
    <g id="Responsive-About-Copy" stroke="none" stroke-width="1" fill="none" fill-rule="evenodd" transform="translate(-40.000000, -156.000000)">
        <g id="Group-2" transform="translate(-64.000000, -23.000000)">
            <g id="logo-create_destroy-small" transform="translate(104.000000, 180.000000)">
                <g id="Create-Destroy" transform="translate(0.000000, 16.000000)" fill="#FFFFFF">
                    <path d="M193.842415,55.2090365 C198.046392,55.2090365 199.856775,57.4627109 199.856775,60.3900381 C199.856775,60.9534567 199.791973,61.5168753 199.662371,62.080294 L186.276878,62.7539467 C186.856038,57.5770278 189.638439,55.2090365 193.842415,55.2090365 L193.842415,55.2090365 Z M203.477541,65.6486119 C203.846097,64.0318454 204,62.4191617 204,61.1820904 C204,56.2215569 201.2743,52 195.19919,52 C187.953608,52 182,56.7849755 182,67.8492107 C182,79.2645618 187.892857,82 193.907216,82 C199.59757,82 203.214286,79.6320087 203.898748,79.0522591 L203.266937,76.921067 C201.954713,77.8560152 199.403166,78.7909635 196.948822,78.7909635 C190.416053,78.7909635 186.143225,75.5900925 186.143225,66.5141535 L186.143225,65.5138813 L203.477541,65.6486119 Z" id="Fill-1"></path>
                    <path d="M221.698314,64.4529075 C217.631689,62.7166257 213.881532,61.7870598 213.881532,58.7526618 C213.881532,56.2096642 215.784301,54.4733825 219.182386,54.4733825 C221.144493,54.4733825 222.398501,54.7231777 223.233188,55.030303 C224.123256,56.5208845 224.601915,59.3710074 224.779929,60.4848485 C225.112222,60.7346437 225.503852,60.8574939 225.836144,60.8574939 C226.334583,60.8574939 226.833021,60.6117936 227.113887,60.1777232 C227.169269,59.5552826 227.169269,58.8099918 227.169269,58.0687961 C227.169269,56.4594595 227.058505,54.6617527 226.892359,53.3185913 C225.393088,52.7125307 222.695191,52 219.657089,52 C213.66396,52 209.830731,54.8460278 209.830731,59.8665029 C209.830731,64.7027027 213.015199,66.1891892 217.394337,68.1097461 C220.887362,69.4733825 223.949198,70.7100737 223.949198,73.8714169 C223.949198,75.980344 222.635853,78.8304668 218.138039,78.8304668 C216.322299,78.8304668 214.451176,78.5806716 213.201124,78.1506962 C212.386217,76.7870598 211.761191,74.4324324 211.38934,72.2006552 C211.053092,71.95086 210.7208,71.8280098 210.388507,71.8280098 C209.834687,71.8280098 209.332292,72.0737101 209.055382,72.5077805 C209,73.1302211 209,73.8714169 209,74.6781327 C209,76.4144144 209.110764,78.7690418 209.332292,80.2473382 C210.776182,81.0581491 214.451176,82 217.576306,82 C224.720591,82 228,77.1556102 228,72.4463554 C228,68.3554464 225.848012,66.4963145 221.698314,64.4529075" id="Fill-3"></path>
                    <path d="M324.377323,53 C324.377323,53 323.357674,53.5159017 323.357674,54.611693 C323.357674,54.8036564 323.417419,55.1275947 323.477164,55.2555704 L327.496017,55.9674348 L320.716941,74.4719101 L313.698885,55.9674348 C315.200478,55.6714911 317.657993,55.2555704 317.657993,55.2555704 C318.319172,54.3557418 318.558152,53 318.558152,53 L306.019649,53 C306.019649,53 305,53.5159017 305,54.611693 C305,54.8036564 305.059745,55.1275947 305.11949,55.2555704 L308.596654,55.9674348 L318.617897,80.2468101 L318.259426,81.3146067 C316.156399,87.445439 312.436272,90.1809179 309.257833,91.2527138 C309.616304,92.8564083 310.759426,95 313.459904,95 C315.077005,94.1081699 318.080191,89.5850314 321.079395,81.9104932 L331.216144,55.9674348 C332.717738,55.551514 334.095858,55.2555704 334.095858,55.2555704 C334.757037,54.3557418 335,53 335,53 L324.377323,53 Z" id="Fill-5"></path>
                    <path d="M289.339923,78.7363846 C282.823342,78.7363846 280.240753,73.3459188 280.240753,66.3460546 C280.240753,57.8630993 283.569515,55.2636154 288.730548,55.2636154 C295.24713,55.2636154 297.759247,60.7151976 297.759247,67.7109874 C297.759247,76.1980171 294.496811,78.7363846 289.339923,78.7363846 M289.543048,52 C282.209821,52 276,56.9341301 276,68.0817602 C276,78.2393046 281.260523,82 288.523278,82 C295.790179,82 302,77.1269863 302,65.9141654 C302,55.7566209 296.809949,52 289.543048,52" id="Fill-8"></path>
                    <path d="M270.219444,52.3482622 C266.346669,52.3482622 263.746149,55.5563719 261.89778,58.026985 L261.89778,52 C258.397079,52.3974287 253.968194,52.7374965 253.968194,52.7374965 C253.968194,52.7374965 253,53.3643685 253,54.3804747 C253,54.5525572 253.060012,54.8352642 253.120024,54.9499859 C253.120024,54.9499859 255.840568,55.2326929 258.021004,55.5727607 L258.021004,77.9475841 L254.816363,78.754733 C254.816363,78.754733 253.784157,79.3160497 253.784157,80.3772252 C253.784157,80.6271546 253.844169,80.8770839 253.908182,81 C253.908182,81 257.896979,80.8115287 260.121424,80.8115287 C262.113823,80.8074315 266.710742,80.9959028 266.710742,80.9959028 C267.378876,80.2829895 267.618924,79.1931337 267.618924,79.1931337 C267.618924,78.6932749 264.170234,78.3818875 262.113823,77.886126 L262.113823,59.4446171 C264.230246,56.8306019 266.166633,56.1955355 269.495299,56.1955355 C270.643529,56.1955355 271.55171,56.3225487 272.215843,56.449562 C272.639928,55.6833851 273,54.4951964 273,53.4749929 C273,53.0775643 272.939988,52.6842328 272.819964,52.3400678 C272.335867,52.5326363 271.611722,52.3482622 270.219444,52.3482622" id="Fill-10"></path>
                    <path d="M244.693878,77.796921 C241.053061,77.796921 240.746939,76.1790808 240.746939,72.2057958 L240.746939,55.1145574 L248.334694,55.1145574 C248.95102,54.5888612 249.816327,53.7167761 249.816327,51.9074032 L240.746939,51.9644555 L240.746939,45 L238.489796,45.3708399 L236.012245,51.9074032 L232,53.9490604 L232.24898,55.1145574 L236.567347,55.1145574 L236.567347,73.9458909 C236.567347,78.5100747 237.008163,81 241.608163,81 C245.126531,81 248.334694,80.0504868 250,79.3414082 L249.567347,77.299751 C248.583673,77.548336 246.297959,77.796921 244.693878,77.796921" id="Fill-12"></path>
                    <path d="M72.1304198,15.866969 C76.3192626,15.866969 78.1231284,18.0922147 78.1231284,20.9826153 C78.1231284,21.5389267 78.0585605,22.0952381 77.9294247,22.6515495 L64.592117,23.3167045 C65.1691927,18.2010582 67.9415771,15.866969 72.1304198,15.866969 L72.1304198,15.866969 Z M81.7308601,26.1748551 C82.09809,24.5784832 82.2554743,22.9861426 82.2554743,21.760645 C82.2554743,16.8667171 79.5355513,12.6984127 73.4823103,12.6984127 C66.266847,12.6984127 60.3306354,17.4230285 60.3306354,28.3476946 C60.3306354,39.6190476 66.2022791,42.3199798 72.1949877,42.3199798 C77.8648568,42.3199798 81.4725884,39.9818594 82.1505514,39.4134543 L81.5210144,37.3091459 C80.2135143,38.2282691 77.6751886,39.1514235 75.2256437,39.1514235 C68.7163919,39.1514235 64.4629812,35.9909297 64.4629812,27.0294785 L64.4629812,26.0418241 L81.7308601,26.1748551 Z M103.813083,36.6923658 C102.021324,37.6759889 99.7453053,38.4177375 96.8034302,38.4177375 C93.7283837,38.4177375 91.7913466,37.1237087 91.7913466,34.164777 C91.7913466,30.0972537 97.1383762,28.9241623 101.282829,28.0614764 L103.813083,27.505165 L103.760622,34.164777 C103.760622,35.0879315 103.760622,35.9506173 103.813083,36.6923658 L103.813083,36.6923658 Z M110.939766,39.9455782 C108.316695,39.9455782 107.832435,38.7079869 107.832435,34.6928697 L107.888932,21.2325523 C107.888932,16.4111867 106.787242,12.9483497 99.94708,12.9483497 C96.0689703,12.9483497 91.3232293,14.5326279 89.1238851,16.3507181 L89.8058836,18.5074326 C91.5290395,17.398841 93.8655905,16.2257496 97.8768716,16.2257496 C103.223901,16.2257496 103.813083,18.3824641 103.813083,23.2522046 L103.813083,24.9816075 L99.3457914,25.6588561 C92.1262926,26.7674477 87.6590008,29.6014109 87.6590008,35.2129 C87.6590008,39.3610481 90.0641552,42.3844797 94.7332217,42.3844797 C98.8090707,42.3844797 102.554009,39.9294533 104.035035,38.7966742 C104.474904,41.1872008 105.411139,42.3844797 107.558022,42.3844797 C109.963176,42.3844797 112.03742,41.3162006 112.03742,41.3162006 L111.79529,39.8810784 C111.79529,39.8810784 111.181895,39.9455782 110.939766,39.9455782 L110.939766,39.9455782 Z M132.08979,38.659612 L132.513517,40.6792643 C130.867035,41.3807004 127.695137,42.3199798 124.216541,42.3199798 C119.668539,42.3199798 119.232706,39.8568909 119.232706,35.3378685 L119.232706,16.7135299 L114.963153,16.7135299 L114.716988,15.5605946 L118.683879,13.5409423 L121.137459,7.07482993 L123.361016,6.71201814 L123.361016,13.5973797 L132.331919,13.5409423 C132.331919,15.3308138 131.476395,16.1934996 130.867035,16.7135299 L123.361016,16.7135299 L123.361016,33.6205593 C123.361016,37.5550517 123.667714,39.1514235 127.267374,39.1514235 C128.853324,39.1514235 131.1132,38.9055178 132.08979,38.659612 L132.08979,38.659612 Z M31.0531264,35.9223986 L32.0700709,38.3854875 C30.8634581,39.191736 25.7101323,42.356261 18.5511659,42.356261 C5.53669777,42.356261 0,32.8868733 0,22.5185185 C0,5.63970773 10.5810653,0 20.4195997,0 C25.7706647,0 29.971614,1.07634165 31.5656341,1.66893424 C31.8844381,3.80549257 32.0095384,5.89367599 32.0095384,8.16729655 C32.0095384,9.55807508 31.949006,10.888385 31.8198702,12.2791635 C31.3719304,12.5936004 30.8634581,12.7185689 30.4155183,12.7185689 C29.5236741,12.7185689 28.8860661,12.3396321 28.8860661,12.3396321 C28.7004334,10.5094482 28.2000321,7.09498614 27.3929333,5.00680272 C26.0854332,4.31342908 23.2807649,3.16855631 19.4228326,3.16855631 C11.8885653,3.16855631 4.9797996,6.84101789 4.9797996,19.9909297 C4.9797996,30.9881582 10.0201316,38.3854875 20.1048311,38.3854875 C25.2742989,38.3854875 28.7609658,36.9342404 31.0531264,35.9223986 L31.0531264,35.9223986 Z M56.9246784,13.2265054 C57.0457432,13.5570673 57.1103111,13.9480978 57.1103111,14.3391282 C57.1103111,15.3429075 56.7430812,16.5119678 56.3153188,17.26581 C55.6454268,17.1408415 54.7293697,17.015873 53.5711829,17.015873 C50.2136519,17.015873 48.2645083,17.6407155 46.1256965,20.212648 L46.1256965,38.3572688 C48.2039759,38.8450491 51.6785362,39.1514235 51.6785362,39.6432351 C51.6785362,39.6432351 51.4323711,40.7195767 50.7624791,41.4129504 C50.7624791,41.4129504 46.1256965,41.2315445 44.1160205,41.2355757 C41.8722858,41.2355757 37.8488983,41.4210128 37.8488983,41.4210128 C37.7883659,41.3000756 37.7278334,41.0541698 37.7278334,40.808264 C37.7278334,39.7641723 38.7609199,39.2118922 38.7609199,39.2118922 L41.9973861,38.4177375 L41.9973861,16.4031242 C39.8020774,16.0685311 37.0539059,15.7903754 37.0539059,15.7903754 C36.9933735,15.6775006 36.9328411,15.3993449 36.9328411,15.2300328 C36.9328411,14.2302847 37.9094307,13.6135047 37.9094307,13.6135047 C37.9094307,13.6135047 42.3767225,13.2789116 45.9118153,12.8878811 L45.9118153,18.8178382 C47.772178,16.3869992 50.3992846,13.2305367 54.3016073,13.2305367 C55.7059592,13.2305367 56.4363836,13.4159738 56.9246784,13.2265054 L56.9246784,13.2265054 Z M147.52959,15.866969 C151.718433,15.866969 153.522298,18.0922147 153.522298,20.9826153 C153.522298,21.5389267 153.45773,22.0952381 153.328595,22.6515495 L139.991287,23.3167045 C140.568363,18.2010582 143.340747,15.866969 147.52959,15.866969 L147.52959,15.866969 Z M147.521519,42.4207609 L154.967005,42.4207609 C166.068649,42.4207609 171.0202,50.047871 171.0202,60.7105064 C171.0202,72.8002016 165.253479,76.7064752 155.786211,76.7064752 C152.836264,76.7064752 150.265655,76.521038 148.885516,76.2751323 L148.885516,46.1335349 L144.757205,50.2574956 L144.757205,76.9805996 L140.120423,77.7465357 C140.120423,77.7465357 138.837136,78.3471907 138.837136,79.4920635 C138.837136,79.6573444 138.837136,79.8226253 138.901704,80 C138.901704,80 143.473918,79.8226253 146.532823,79.8226253 C148.360902,79.8226253 151.585261,79.8790627 154.591704,79.8790627 C166.819251,79.8790627 176,73.6709499 176,58.1708239 C176,48.4958428 170.709467,39.2481733 156.47628,39.2481733 L150.741843,39.2481733 C144.232591,39.2481733 139.862151,35.9909297 139.862151,27.0294785 L139.862151,26.0418241 L157.13003,26.1748551 C157.493224,24.5784832 157.654644,22.9861426 157.654644,21.760645 C157.654644,16.8667171 154.934721,12.6984127 148.88148,12.6984127 C141.666017,12.6984127 135.729805,17.4230285 135.729805,28.3476946 C135.729805,39.6190476 141.52881,42.4207609 147.521519,42.4207609 L147.521519,42.4207609 Z" id="Fill-14"></path>
                </g>
                <path d="M86,127 L212.428834,0.571166263" id="line" stroke="#FFFFFF" stroke-width="3"></path>
            </g>
        </g>
    </g>
</svg>