<?xml version="1.0" encoding="UTF-8"?>
<svg width="107px" height="34px" viewBox="0 0 107 34" version="1.1" xmlns="http://www.w3.org/2000/svg" xmlns:xlink="http://www.w3.org/1999/xlink">
    <!-- Generator: Sketch 48.2 (47327) - http://www.bohemiancoding.com/sketch -->
    <title>mozilla-white</title>
    <desc>Created with Sketch.</desc>
    <defs></defs>
    <g id="About---Final-Draft" stroke="none" stroke-width="1" fill="none" fill-rule="evenodd" transform="translate(-796.000000, -3630.000000)">
        <g id="Logo-Layout" transform="translate(0.000000, 3100.000000)">
            <g id="Col-3" transform="translate(787.000000, 405.000000)">
                <g id="mozilla-white" transform="translate(9.000000, 125.000000)">
                    <rect id="Rectangle" fill="#FFFFFF" x="0.867665418" y="0.84057971" width="105.362634" height="32.359994"></rect>
                    <path d="M101.17573,24.5208663 L101.235115,26.5419488 C100.522486,26.9283322 99.6613925,27.1661066 98.8299916,27.1661066 C97.0187255,27.1661066 96.0685532,26.1555654 95.860703,24.5208663 C95.1183808,25.8583474 93.752508,27.1661066 91.5849273,27.1661066 C89.6548896,27.1661066 87.4873089,26.1555654 87.4873089,23.3319943 C87.4873089,20.0625963 90.605062,19.2898295 93.7228151,19.2898295 C94.4354444,19.2898295 95.2074594,19.2898295 95.860703,19.4087167 L95.860703,18.9628896 C95.860703,17.565965 95.860703,15.9609878 93.7228151,15.9609878 C92.8914143,15.9609878 92.2678637,15.9907096 91.644313,16.3473712 L91.1989197,17.863183 L88.1702453,17.5065214 L88.6750244,14.4154542 C90.9910695,13.4940784 92.2381708,13.1968604 94.4354444,13.1968604 C97.2562686,13.1968604 99.7504711,14.7126722 99.7504711,17.7740176 L99.7504711,23.5697687 C99.7504711,24.3722573 100.0474,24.6100317 100.670951,24.6100317 C100.789722,24.6100317 100.997572,24.6100317 101.17573,24.5208663 Z M92.9804929,24.4614227 C94.3463657,24.4614227 95.7716243,23.4211597 95.860703,21.2217465 C95.2371523,21.1325811 94.5839088,21.0434157 93.9603582,21.0434157 C92.5944854,21.0434157 91.377077,21.4000773 91.377077,22.9158891 C91.377077,23.7480995 91.8521632,24.4614227 92.9804929,24.4614227 Z M84.042934,6.42028986 L87.8139306,6.42028986 L82.0238177,26.8688886 L78.282514,26.8688886 L84.042934,6.42028986 Z M76.2930906,6.42028986 L80.0640872,6.42028986 L74.2739743,26.8688886 L70.5029776,26.8688886 L76.2930906,6.42028986 Z M64.0002354,18.2792882 L64.0002354,13.4643566 L67.9790823,13.4643566 L67.9790823,18.2792882 L64.0002354,18.2792882 Z M64.0002354,26.8688886 L64.0002354,22.0539569 L67.9790823,22.0539569 L67.9790823,26.8688886 L64.0002354,26.8688886 Z M57.5271861,23.9858739 L58.1507367,21.9053479 L61.1794112,22.1728441 L60.3777032,26.8688886 L48.649013,26.8688886 L48.2630054,24.8478061 L55.6268414,16.3473712 L51.4698372,16.3473712 L50.8759795,18.457619 L48.0551552,18.160401 L48.5302414,13.4643566 L60.3183175,13.4643566 L60.6152463,15.4557172 L53.1920246,23.9858739 L57.5271861,23.9858739 Z M38.9691319,13.1968604 C43.7793795,13.1968604 46.1548105,16.4365366 46.1548105,20.2112053 C46.1548105,24.4614227 43.0370574,27.1661066 38.7612817,27.1661066 C34.6042775,27.1661066 31.7834533,24.6694753 31.7834533,20.3598143 C31.7834533,16.4365366 34.1588842,13.1968604 38.9691319,13.1968604 Z M38.8503603,24.2236483 C40.8694766,24.2236483 42.1759636,22.6186711 42.1759636,20.0625963 C42.1759636,17.3876342 40.7210122,16.1393186 38.9097461,16.1393186 C36.9500156,16.1393186 35.7029143,17.6254086 35.7029143,20.1220399 C35.7029143,22.4106185 36.8015511,24.2236483 38.8503603,24.2236483 Z M28.3390784,17.863183 L28.3390784,23.9858739 L30.1503445,23.9858739 L30.1503445,26.8688886 L24.5383889,26.8688886 L24.5383889,19.3492731 C24.5383889,17.0309726 23.7663738,16.1095968 22.1926508,16.1095968 C20.3813847,16.1095968 19.6390626,17.417356 19.6390626,19.2898295 L19.6390626,23.9858739 L21.4206358,23.9858739 L21.4206358,26.8688886 L15.8086802,26.8688886 L15.8086802,19.3492731 C15.8086802,17.0309726 15.0069722,16.1095968 13.5223279,16.1095968 C11.7110618,16.1095968 10.9390467,17.417356 10.9390467,19.2898295 L10.9390467,23.9858739 L13.4629421,23.9858739 L13.4629421,26.8688886 L5.32709114,26.8688886 L5.32709114,23.9858739 L7.10866434,23.9858739 L7.10866434,16.377093 L5.32709114,16.377093 L5.32709114,13.4643566 L10.9390467,13.4643566 L10.9390467,15.485439 C11.7407547,14.0885144 13.1363204,13.1968604 15.0069722,13.1968604 C16.9667028,13.1968604 18.748276,14.1182362 19.3718266,16.1095968 C20.0844559,14.3262888 21.628486,13.1968604 23.7663738,13.1968604 C26.1121119,13.1968604 28.3390784,14.6532286 28.3390784,17.863183 Z" id="mozilla" fill="#000000"></path>
                </g>
            </g>
        </g>
    </g>
</svg>