<?xml version="1.0" encoding="UTF-8"?>
<svg width="80px" height="29px" viewBox="0 0 80 29" version="1.1" xmlns="http://www.w3.org/2000/svg" xmlns:xlink="http://www.w3.org/1999/xlink">
    <!-- Generator: Sketch 48.2 (47327) - http://www.bohemiancoding.com/sketch -->
    <title>nike-white</title>
    <desc>Created with Sketch.</desc>
    <defs></defs>
    <g id="About---Final-Draft" stroke="none" stroke-width="1" fill="none" fill-rule="evenodd" transform="translate(-291.000000, -3633.000000)">
        <g id="Logo-Layout" transform="translate(0.000000, 3100.000000)" fill="#FFFFFF" fill-rule="nonzero">
            <g id="Col-1" transform="translate(274.000000, 388.000000)">
                <g id="nike-white" transform="translate(17.837703, 145.072464)">
                    <path d="M78.2340311,0.217019349 C78.2279273,0.247458427 78.2318115,0.295935476 78.2146099,0.304954462 C78.1149136,0.358063293 78.0130964,0.406957971 77.9094196,0.451512983 C72.7922108,2.70625947 67.6744472,4.95987858 62.5572384,7.21406138 C49.7275937,12.8655834 36.897949,18.5171055 24.0683042,24.1675002 C22.9929246,24.6409969 21.9242038,25.1302769 20.8377263,25.5755894 C18.9538699,26.3472764 17.0256222,26.9904428 15.0429951,27.4650669 C13.8444297,27.7525471 12.6331017,27.9780217 11.404572,28.0935775 C10.2537272,28.2029327 9.10066283,28.2232254 7.94926311,28.1014691 C6.73793512,27.9746396 5.56877888,27.6871594 4.46343516,27.1640583 C2.15897105,26.0733247 0.762309325,24.266709 0.215741268,21.7977616 C-0.0506066184,20.5959818 -0.0544908584,19.3846192 0.117525485,18.1681835 C0.300639656,16.8643763 0.712369097,15.6270842 1.19956377,14.4106485 C1.88485469,12.6992959 2.75048532,11.0798242 3.73486271,9.52348546 C5.42617179,6.84766507 7.33055917,4.33024062 9.4713303,1.99375958 C10.0267766,1.38666909 10.62273,0.814527167 11.2014818,0.228293081 C11.2791666,0.149376955 11.3662845,0.0800435002 11.4567318,0 C11.5022329,0.12175631 11.4212188,0.189398705 11.3862606,0.266060085 C10.9995013,1.10595315 10.5933208,1.93626354 10.2237631,2.78235716 C9.66040205,4.06066802 9.22718351,5.39414499 8.93086605,6.76198471 C8.77993558,7.46828404 8.67672578,8.18247499 8.65231056,8.90399386 C8.62456598,9.74163218 8.69559209,10.5725063 8.93197584,11.3797055 C9.34370528,12.7832852 10.1521821,13.9061489 11.3596258,14.7409688 C12.2746418,15.3734252 13.2917578,15.7651874 14.374351,15.9962989 C15.2954707,16.1924619 16.2287981,16.2860339 17.1710038,16.2657411 C17.9178876,16.2488305 18.6592226,16.1608954 19.3966733,16.0442123 C20.8726845,15.8097187 22.3142924,15.4286665 23.7542357,15.0385954 C29.1300239,13.5814654 34.505812,12.1265903 39.8804904,10.6655146 C44.4583447,9.42033081 49.0345343,8.16387333 53.6129435,6.9181259 C58.9759691,5.45874124 64.3412144,4.00612082 69.7047949,2.5489909 C72.4742581,1.79646926 75.2420565,1.03943813 78.0104098,0.284661744 L78.23958,0.225474648 L78.2340311,0.217583036 L78.2340311,0.217019349 Z" id="Shape"></path>
                </g>
            </g>
        </g>
    </g>
</svg>