<?xml version="1.0" encoding="UTF-8"?>
<svg width="139px" height="36px" viewBox="0 0 139 36" version="1.1" xmlns="http://www.w3.org/2000/svg" xmlns:xlink="http://www.w3.org/1999/xlink">
    <!-- Generator: Sketch 48.2 (47327) - http://www.bohemiancoding.com/sketch -->
    <title>postmates-white</title>
    <desc>Created with Sketch.</desc>
    <defs></defs>
    <g id="About---Final-Draft" stroke="none" stroke-width="1" fill="none" fill-rule="evenodd" transform="translate(-517.000000, -3630.000000)">
        <g id="Logo-Layout" transform="translate(0.000000, 3100.000000)" fill="#FFFFFE">
            <g id="Col-2" transform="translate(517.000000, 398.000000)">
                <g id="postmates-white" transform="translate(0.000000, 132.000000)">
                    <path d="M62.1946387,14.6283867 C62.0343823,14.4366793 61.7750583,14.3413796 61.4137529,14.3413796 L60.5337995,14.3413796 L60.5337995,16.8984024 L61.3682984,16.8984024 C61.7395105,16.8984024 62.0087413,16.7992243 62.1789044,16.6030843 C62.3490676,16.4080525 62.4341492,16.077274 62.4341492,15.6057623 C62.4341492,15.145332 62.3543124,14.818432 62.1946387,14.6283867 Z M64.7371795,17.0956506 C64.5617716,17.5222828 64.3175991,17.8685751 64.0029138,18.1328655 C63.6888112,18.3966017 63.3158508,18.5905254 62.8828671,18.7124204 C62.451049,18.8343153 61.9755245,18.897479 61.4621212,18.897479 L60.5337995,18.897479 L60.5337995,22.6285714 L58,22.6285714 L58,12.3428571 L61.6462704,12.3428571 C62.1311189,12.3428571 62.5763403,12.398818 62.9831002,12.5118478 C63.3904429,12.6254317 63.743007,12.8066119 64.0413753,13.0559424 C64.3397436,13.3052729 64.5751748,13.6343891 64.7435897,14.0399668 C64.9143357,14.4460984 65,14.9480838 65,15.5470311 C65,16.1548435 64.9120047,16.6712346 64.7371795,17.0956506 Z" id="Fill-2"></path>
                    <path d="M72.1743451,16.3624838 C72.1189401,15.9210458 72.0400482,15.5694319 71.9346582,15.308233 C71.8274616,15.0464431 71.6943692,14.8585217 71.5359831,14.7491964 C71.3751882,14.6398711 71.1945197,14.583731 70.9915688,14.583731 C70.7789822,14.583731 70.5947004,14.6357344 70.4399277,14.7415141 C70.2869618,14.8472937 70.1562782,15.0269418 70.0490816,15.2845951 C69.9436917,15.5410664 69.8672087,15.8909075 69.8160193,16.3317545 C69.7690455,16.7720106 69.7473653,17.3233648 69.7473653,17.9846354 C69.7473653,18.6459059 69.7732611,19.1972602 69.8256549,19.6363343 C69.8792532,20.0783633 69.9599518,20.4287953 70.0653418,20.691767 C70.1719362,20.9553297 70.3032219,21.1420692 70.4561879,21.2513945 C70.6115628,21.3613108 70.7940379,21.416269 71.007829,21.416269 C71.2101777,21.416269 71.3908461,21.3630837 71.5510388,21.257895 C71.7112316,21.1544791 71.8407106,20.9730582 71.9424872,20.7154049 C72.0430593,20.4589336 72.1189401,20.1108654 72.1743451,19.6700184 C72.2267389,19.2285804 72.2538392,18.6772261 72.2538392,18.0159556 C72.2538392,17.3546851 72.2267389,16.8045127 72.1743451,16.3624838 Z M74.7277928,20.5079823 C74.548931,21.2165286 74.2845528,21.8062945 73.9376694,22.2695975 C73.5925926,22.7346734 73.1698284,23.0815597 72.6687745,23.3126203 C72.1677206,23.5401352 71.6046372,23.6571429 70.9759109,23.6571429 C69.720265,23.6571429 68.7422463,23.2009312 68.0454682,22.2849622 C67.3486902,21.370175 67,19.9483547 67,18.0159556 C67,16.0847383 67.353508,14.6540538 68.0605239,13.7309934 C68.7687444,12.8055692 69.7509786,12.3428571 71.007829,12.3428571 C72.2652815,12.3428571 73.2445047,12.8037964 73.9461006,13.723902 C74.6489009,14.6428258 75,16.0622823 75,17.9846354 C75,18.9561535 74.9084613,19.7970721 74.7277928,20.5079823 Z" id="Fill-3"></path>
                    <path d="M83.7389439,21.7997941 C83.5656766,22.2028204 83.3225248,22.5390697 83.0112211,22.8120876 C82.6993399,23.0815597 82.3308581,23.2925281 81.910396,23.4379012 C81.4835809,23.5844563 81.0221122,23.6571429 80.5213696,23.6571429 C80.1043729,23.6571429 79.725495,23.6122308 79.3876238,23.531271 C79.0532178,23.4473564 78.7424917,23.3232574 78.4623762,23.1560192 C78.1811056,22.9893719 77.9235149,22.7866768 77.6884488,22.5508887 C77.4539604,22.3162824 77.2235149,22.0479921 77,21.7454269 L78.7471122,20.1315486 C79.1023102,20.5694408 79.4297855,20.9021444 79.725495,21.1267046 C80.0212046,21.3518557 80.3013201,21.4629538 80.5669967,21.4629538 C80.8332508,21.4629538 81.0538779,21.393222 81.2271452,21.2513945 C81.4004125,21.110749 81.4864686,20.8891436 81.4864686,20.5859874 C81.4864686,20.4287953 81.4714521,20.2881497 81.4408416,20.1616869 C81.4108086,20.0381788 81.3466997,19.9146707 81.24967,19.7941174 C81.1526403,19.6753369 81.0151815,19.5530107 80.8349835,19.4342302 C80.6570957,19.3136769 80.415099,19.1854412 80.1084158,19.0495232 C79.5776403,18.8119622 79.1259901,18.5732193 78.7546205,18.3362493 C78.3809406,18.101643 78.0783003,17.8498993 77.8507426,17.5762905 C77.620297,17.3062273 77.4539604,17.004844 77.3511551,16.6774589 C77.2506601,16.3471191 77.199835,15.9689126 77.199835,15.5398845 C77.199835,15.0907642 77.275495,14.6723732 77.4285479,14.2858934 C77.5827558,13.8994135 77.800495,13.5631643 78.0869637,13.2753727 C78.3722772,12.9875811 78.7222772,12.7612482 79.1363861,12.5946009 C79.5499175,12.4267717 80.0113861,12.3428571 80.5213696,12.3428571 C80.929703,12.3428571 81.295297,12.3800869 81.6169967,12.4527734 C81.9381188,12.5260509 82.230363,12.6377401 82.4891089,12.7913865 C82.7507426,12.9414872 82.9938944,13.1240901 83.2191419,13.339786 C83.4415017,13.5525272 83.6673267,13.8001343 83.8908416,14.0826073 L82.1142739,15.7112593 C81.9323432,15.4937906 81.7729373,15.308233 81.6412541,15.1551775 C81.5066832,15.0050768 81.380198,14.8815687 81.2571782,14.787608 C81.1358911,14.6936473 81.0094059,14.629234 80.8829208,14.5914134 C80.7552805,14.5559565 80.6085809,14.5370462 80.4457096,14.5370462 C80.2002475,14.5370462 80.0113861,14.6150513 79.8785479,14.7722434 C79.7474422,14.9282536 79.679868,15.1114474 79.679868,15.319461 C79.679868,15.4671979 79.7000825,15.5966155 79.7422442,15.7112593 C79.7826733,15.828267 79.8531353,15.9393652 79.9547855,16.0492815 C80.0570132,16.1580158 80.1950495,16.2655683 80.3706271,16.371348 C80.5427393,16.4753548 80.7674092,16.5894077 81.0429043,16.7164615 C81.5834983,16.9563863 82.0391914,17.1980839 82.4134488,17.4445091 C82.7865512,17.6891615 83.089769,17.9586337 83.324835,18.2517437 C83.5604785,18.5442629 83.729703,18.8639656 83.8388614,19.2138067 C83.945132,19.5636478 84,19.9702198 84,20.4287953 C84,20.940556 83.9122112,21.3979496 83.7389439,21.7997941" id="Fill-4"></path>
                    <polyline id="Fill-5" points="89.7946809 14.4887617 89.7946809 22.6285714 87.2059045 22.6285714 87.2059045 14.4887617 85 14.4887617 85 12.3428571 92 12.3428571 92 14.4887617 89.7946809 14.4887617"></polyline>
                    <path d="M101.567371,23.3132113 L101.567371,20.8850069 C101.567371,20.2881497 101.572836,19.7255674 101.584374,19.1996239 C101.594697,18.6713166 101.612307,18.1725567 101.634168,17.7021623 C101.567371,17.9214039 101.495716,18.1642835 101.416166,18.4319828 C101.332973,18.6973184 101.246137,18.9750638 101.150192,19.2622644 C101.05364,19.550056 100.952837,19.8331199 100.851427,20.1161839 C100.750017,20.397475 100.654679,20.6639925 100.569665,20.9151453 L99.5069833,23.6571429 L98.4430875,20.9151453 C98.358073,20.6752205 98.2651643,20.4110668 98.1631469,20.1238662 C98.059915,19.8360747 97.9615411,19.550056 97.8643816,19.2622644 C97.7684367,18.9750638 97.6803859,18.6973184 97.5990149,18.4319828 C97.5182511,18.1642835 97.446596,17.9214039 97.3828352,17.7021623 C97.4022671,18.1625106 97.4186627,18.6583158 97.4295931,19.1913507 C97.4411308,19.7243855 97.446596,20.2881497 97.446596,20.8850069 L97.446596,23.3132113 L95,23.3132113 L95,12.3428571 L97.446596,12.3428571 L98.4430875,15.0393517 C98.6926658,15.6970766 98.9106673,16.325845 99.1055934,16.9280208 C99.299305,17.5290146 99.432292,18.0206832 99.5069833,18.4089358 C99.5919978,18.0206832 99.732879,17.5301965 99.9259834,16.9357031 C100.119695,16.3400278 100.339518,15.7012132 100.584846,15.0228052 L101.567371,12.3428571 L104,12.3428571 L104,23.3132113 L101.567371,23.3132113" id="Fill-6"></path>
                    <path d="M110.116299,18.382196 C109.981324,17.7056792 109.855263,17.0867855 109.735569,16.5238526 C109.617784,15.9609198 109.531197,15.4434204 109.474533,14.9724628 C109.417869,15.4434204 109.335739,15.9609198 109.231324,16.5238526 C109.12309,17.0867855 108.994482,17.712328 108.849321,18.3966017 L108.78247,18.7196232 L110.183149,18.7196232 L110.116299,18.382196 Z M111.094864,22.6285714 L110.65556,20.7175917 L108.32534,20.7175917 L107.904499,22.6285714 L105,22.6285714 L108.056664,12.3428571 L110.961163,12.3428571 L114,22.6285714 L111.094864,22.6285714 Z" id="Fill-7"></path>
                    <polyline id="Fill-8" points="118.797575 14.4887617 118.797575 22.6285714 116.204181 22.6285714 116.204181 14.4887617 114 14.4887617 114 12.3428571 121 12.3428571 121 14.4887617 118.797575 14.4887617"></polyline>
                    <polyline id="Fill-9" points="123 22.6285714 123 12.3428571 129.884146 12.3428571 129.884146 14.4444362 125.786199 14.4444362 125.786199 16.1930742 128.45591 16.1930742 128.45591 18.2935451 125.786199 18.2935451 125.786199 20.5269923 130 20.5269923 130 22.6285714 123 22.6285714"></polyline>
                    <path d="M138.405357,22.0794 C138.231174,22.4886 137.990087,22.83 137.678635,23.1072 C137.367183,23.3808 137.000938,23.595 136.57817,23.7426 C136.154249,23.8914 135.692838,23.9652 135.193938,23.9652 C134.774631,23.9652 134.399158,23.9196 134.063481,23.8374 C133.725498,23.7522 133.416929,23.6262 133.135469,23.4564 C132.856892,23.2872 132.598502,23.0814 132.363759,22.842 C132.131324,22.6038 131.899465,22.3314 131.676834,22.0242 L133.419237,20.3856 C133.7751,20.8302 134.103278,21.168 134.399158,21.396 C134.693307,21.6246 134.974191,21.7374 135.238925,21.7374 C135.505967,21.7374 135.72283,21.6666 135.898166,21.5226 C136.070041,21.3798 136.158286,21.1548 136.158286,20.847 C136.158286,20.6874 136.142714,20.5446 136.111568,20.4162 C136.080423,20.2908 136.017556,20.1654 135.92066,20.043 C135.82261,19.9224 135.684763,19.7982 135.507697,19.6776 C135.328324,19.5552 135.086083,19.425 134.781552,19.287 C134.250929,19.0458 133.799324,18.8034 133.428465,18.5628 C133.054722,18.3246 132.754228,18.069 132.524676,17.7912 C132.296278,17.517 132.131324,17.211 132.02866,16.8786 C131.925419,16.5432 131.874087,16.1592 131.874087,15.7236 C131.874087,15.2676 131.951373,14.8428 132.104216,14.4504 C132.257058,14.058 132.477382,13.7166 132.761726,13.4244 C133.047801,13.1322 133.396743,12.9024 133.810282,12.7332 C134.222668,12.5628 134.684079,12.4776 135.193938,12.4776 C135.60171,12.4776 135.966801,12.5154 136.287481,12.5892 C136.609315,12.6636 136.898851,12.777 137.159548,12.933 C137.418515,13.0854 137.662485,13.2708 137.884539,13.4898 C138.108324,13.7058 138.334415,13.9572 138.559353,14.244 L136.783498,15.8976 C136.600087,15.6768 136.443784,15.4884 136.309975,15.333 C136.176743,15.1806 136.051008,15.0552 135.928158,14.9598 C135.805307,14.8644 135.678996,14.799 135.553261,14.7606 C135.425797,14.7246 135.281606,14.7054 135.117228,14.7054 C134.873257,14.7054 134.684079,14.7846 134.55027,14.9442 C134.418191,15.1026 134.35244,15.2886 134.35244,15.4998 C134.35244,15.6498 134.373203,15.7812 134.414154,15.8976 C134.455104,16.0164 134.525469,16.1292 134.628133,16.2408 C134.73022,16.3512 134.868643,16.4604 135.039942,16.5678 C135.215278,16.6734 135.436755,16.7892 135.714178,16.9182 C136.253452,17.1618 136.710249,17.4072 137.081685,17.6574 C137.454274,17.9058 137.758228,18.1794 137.992971,18.477 C138.225983,18.774 138.398436,19.0986 138.50456,19.4538 C138.612415,19.809 138.6649,20.2218 138.6649,20.6874 C138.6649,21.207 138.578963,21.6714 138.405357,22.0794" id="Fill-10"></path>
                    <path d="M32.0559378,7.7376 C32.4135311,7.719 33.221,7.6944 34.1242116,7.7484 L37.9752614,4.1574 L36.2830373,3.981 L32.0363278,7.7352 L32.0392116,7.7388 C32.0449793,7.7376 32.0507469,7.7376 32.0559378,7.7376 Z M4.05118672,26.1768 L2.80076349,23.8614 L2.50257676,26.4996 L0,27.0216 L2.3203195,28.128 L2.02328631,30.7668 L3.75530705,28.8132 L6.07504979,29.9232 L4.82462656,27.6066 L6.55376349,25.6548 L4.05118672,26.1768 Z M12.4165643,30.1818 L11.1672946,27.8664 L10.8708382,30.504 L8.36768465,31.0248 L10.6880041,32.1348 L10.3915477,34.7736 L12.1212614,32.8188 L14.4410041,33.9288 L13.1905809,31.6116 L14.9208714,29.6604 L12.4165643,30.1818 Z M13.5383693,19.0074 L12.2867925,16.692 L11.9903361,19.3296 L9.48718257,19.8522 L11.8080788,20.9616 L11.5110456,23.5992 L13.2407593,21.645 L15.5610788,22.755 L14.3106556,20.4396 L16.0415228,18.4848 L13.5383693,19.0074 Z M44.5688216,22.341 C43.9730249,22.7862 43.3120539,23.0862 42.5991743,23.2344 C40.6381784,23.6436 38.6189295,22.8168 37.4509834,21.1278 C36.1728755,19.2756 36.2149793,16.8528 37.3736971,15.0648 L41.4825602,18.2394 C41.5644606,18.303 41.665971,18.3288 41.7594066,18.3162 C41.8614938,18.3054 41.9612739,18.2514 42.0270249,18.1602 C42.1567967,17.9814 42.1227676,17.7276 41.9514689,17.5932 L37.9585353,14.3202 C38.1598257,14.1066 38.376112,13.9038 38.6189295,13.7238 C39.2129959,13.278 39.8768506,12.9774 40.5897303,12.8292 C42.5484191,12.42 44.5688216,13.248 45.7373444,14.9364 C47.3776598,17.3124 46.8539585,20.6328 44.5688216,22.341 Z M30.9675851,14.691 C29.7471535,13.7748 27.2232365,14.217 25.5806141,14.502 C26.1389212,13.2804 27.12461,12.0144 27.4545187,10.5408 C27.6298548,11.4702 30.5811535,12.5268 30.5811535,12.5268 C30.5811535,12.5268 31.9221286,12.2172 33.0808465,11.7444 C33.0935353,11.7564 33.1073776,11.769 33.1200664,11.7786 L33.5618672,12.1206 L30.9675851,14.691 Z M32.7445934,19.3848 L31.5910664,16.6188 C31.628556,16.1796 31.6049087,15.7848 31.5103195,15.4566 L33.5214938,13.4634 L32.7445934,19.3848 Z M32.2635726,23.0376 C32.0530539,23.0436 31.8413817,23.1042 31.6452822,23.2116 C31.5356971,23.0778 31.3661286,22.9434 31.0592905,22.7382 C30.8268548,22.5822 29.7725311,21.9258 29.8123278,21.7878 C29.9651701,21.3108 30.3094979,20.6004 30.806668,19.5936 C31.3280622,20.1924 31.8534938,21.2124 32.3696971,22.2402 L32.2635726,23.0376 Z M30.6549793,25.3524 C29.6121909,23.91 28.0647344,22.9932 26.3932739,22.7574 L26.5634191,20.8524 L28.0128257,21.9174 C27.853639,22.5234 27.9216971,22.8432 28.3952199,23.0418 L30.9295187,24.063 L30.943361,24.0732 C30.8378133,24.414 30.8476183,24.7884 30.9900788,25.1268 L30.6549793,25.3524 Z M28.5192241,33.654 C27.9245809,34.1016 27.2613029,34.4016 26.5495768,34.5522 C24.590888,34.9596 22.5699087,34.1316 21.4031162,32.4438 C19.7622241,30.0672 20.2870788,26.7456 22.5699087,25.0386 C23.1657054,24.594 23.8289834,24.2928 24.539556,24.144 C24.8146722,24.0864 25.0909419,24.0558 25.3660581,24.0462 L24.8833071,29.4426 C24.8671577,29.622 24.9519419,29.796 25.0984398,29.889 C25.1982199,29.952 25.3141494,29.9718 25.4231577,29.949 C25.4779502,29.937 25.5310124,29.916 25.5788838,29.8824 L30.0539917,26.88 C31.2202075,29.184 30.6088382,32.0946 28.5192241,33.654 Z M26.2721535,24.0984 C27.5566058,24.2934 28.7430083,24.993 29.563166,26.0862 L25.8724564,28.5654 L26.2721535,24.0984 Z M29.5031826,17.4432 C29.038888,19.1154 28.5769004,20.2914 28.2735228,21.12 L26.8477635,20.0712 L29.5031826,17.4432 Z M23.9345311,17.9292 C24.1248631,17.9268 24.3244232,17.9118 24.5441701,17.8686 C26.2600415,17.6922 27.4597095,17.5086 28.2579502,17.373 L26.0933568,19.5168 L23.9345311,17.9292 Z M30.1278174,9.8628 C31.0748631,9.9504 32.0467095,9.8682 32.9043568,9.7308 L33.2169627,10.449 C32.5427261,10.4928 31.8494564,10.5684 31.2219378,10.6764 C30.7230373,10.7622 29.4276266,9.4272 30.1278174,9.8628 Z M46.7882075,14.151 C45.3255353,12.0336 42.79239,10.9962 40.3342241,11.5086 C39.4408174,11.694 38.607971,12.0714 37.8622158,12.6288 C37.5207718,12.885 37.2110498,13.1712 36.9330498,13.4796 L35.0724108,11.9544 C35.6139917,11.7438 37.3039087,11.037 36.6037178,10.6542 C36.4168465,10.5504 36.035029,10.4808 35.5395892,10.4418 L36.8598008,9.2472 L37.1481826,8.9874 L39.6213444,6.7482 L38.4707012,4.4184 L34.6802116,7.9554 C34.6802116,7.9554 34.676751,7.95 34.3087759,8.3004 C34.3047386,8.3004 34.301278,8.2992 34.2983942,8.2992 L34.301278,8.3076 L34.2983942,8.31 L34.2960871,8.3064 C33.4915021,8.253 32.7365187,8.3238 32.3195187,8.3856 L32.3183651,8.3838 C31.4687925,8.5422 30.7495685,8.6562 30.4075477,8.5866 C29.1634689,8.3352 28.8693195,6.9582 28.3052448,6.1578 C27.9851411,5.7042 27.3408963,5.6514 27.2861037,5.2614 C27.4643237,5.2278 27.6327386,5.1744 27.7826971,5.1 C28.4655851,4.761 28.7026349,4.4424 28.8877759,4.0122 C29.1225187,3.4662 28.8716266,2.5674 28.5209544,1.8222 C28.8029917,1.6092 29.8607759,0.7512 29.8198257,0.6042 C29.8059834,0.5502 28.4898091,0.7398 27.9366929,0.8508 C27.8547925,0.7494 27.7792365,0.669 27.7140622,0.6192 C27.2630332,0.2742 26.8939046,-0.0762 25.8297759,0.3864 C24.0112407,1.176 24.1058299,2.6514 24.7091245,3.966 C24.9865477,4.5744 25.4733361,4.9572 26.0039585,5.1504 C25.9647386,5.2278 25.9439751,5.2716 25.9237884,5.3106 L25.9739668,5.1792 C23.1022614,7.8744 16.3979627,12.4122 14.6324896,12.5028 C16.0934315,13.0956 20.3026515,13.1772 22.0663942,12.0816 C21.5715311,14.1768 21.5409627,16.2438 22.3916888,17.2686 C21.7382158,17.7726 21.0639793,18.3156 20.7386846,18.6456 C20.4837552,18.903 20.5604647,19.0356 20.7802116,19.3278 C20.7802116,19.3278 22.4874315,19.362 22.9932531,18.861 C23.1293693,18.7266 23.247029,18.6054 23.3543071,18.492 L25.7103859,20.2236 L25.4877552,22.698 C25.0880581,22.701 24.6866307,22.7394 24.2846266,22.8234 C23.3917967,23.0094 22.559527,23.3868 21.8137718,23.9442 C18.9507178,26.0856 18.2949378,30.249 20.3505228,33.2286 C21.8137718,35.3466 24.3463402,36.3816 26.8062365,35.8716 C27.6990664,35.6844 28.5307593,35.3076 29.275361,34.7502 C31.9273195,32.7678 32.6817261,29.0514 31.145805,26.1462 L31.6141369,25.8324 C32.0830456,26.1018 32.677112,26.0886 33.1425602,25.7424 C33.6120456,25.3902 33.8127593,24.7998 33.7106722,24.246 C34.3491494,24.0546 35.0193485,23.8284 35.7679876,23.5986 C36.5437344,23.3598 36.6579336,23.118 36.4670249,22.7196 C36.205751,22.176 34.2389876,22.6668 33.9852116,22.359 L33.4407469,21.0534 L34.5169876,12.858 L36.3337925,14.2614 C34.8480498,16.509 34.7857593,19.575 36.3995436,21.9144 C37.8622158,24.0318 40.3970913,25.068 42.8541037,24.5562 C43.7480871,24.369 44.5797801,23.9922 45.323805,23.4354 C48.189166,21.2946 48.8443693,17.1288 46.7882075,14.151 Z" id="Fill-12"></path>
                </g>
            </g>
        </g>
    </g>
</svg>