<?xml version="1.0" encoding="UTF-8"?>
<svg xmlns="http://www.w3.org/2000/svg" xmlns:xlink="http://www.w3.org/1999/xlink" width="181px" height="91px" viewBox="0 0 181 91">
  <!-- Generator: Sketch 53 (72520) - https://sketchapp.com -->
  <title>spotify-ooo-block-black</title>
  <desc>Created with Sketch.</desc>
  <g id="Page-1" stroke="none" stroke-width="1" fill="none" fill-rule="evenodd">
    <g id="spotify-ooo-block-black" transform="translate(0.000000, -1.000000)">
      <path d="M17.9,10.5 C14.3,8.5 8.3,8.3 4.9,9.3 C4.62364113,9.42849491 4.3037698,9.42394834 4.03117462,9.28765075 C3.75857944,9.15135316 3.56301939,8.89818404 3.5,8.6 C3.37205258,8.0767535 3.68155225,7.54618265 4.2,7.4 C8.2,6.2 14.8,6.4 19,8.8 C19.5,9.1 19.6,9.8 19.3,10.2 C19.1564065,10.42812 18.9268012,10.5886102 18.6632334,10.645089 C18.3996656,10.7015678 18.1244589,10.6492516 17.9,10.5 L17.9,10.5 Z M17.8,13.5 C17.5,14 17,14.1 16.6,13.9 C13.6,12.1 9,11.6 5.4,12.6 C4.9,12.7 4.4,12.5 4.3,12.1 C4.2,11.6 4.4,11.1 4.9,11.1 C9.1106447,9.89399445 13.6242928,10.3596883 17.5,12.4 C17.9,12.7 18,13.2 17.8,13.6 L17.8,13.5 Z M16.4,16.5 C16.2,16.8 15.8,16.9 15.4,16.7 C12.8,15.2 9.4,14.8 5.6,15.7 C5.41429347,15.7613684 5.21138156,15.7422447 5.04041062,15.6472609 C4.86943968,15.552277 4.74600386,15.3900964 4.7,15.2 C4.7,14.8 4.9,14.5 5.3,14.4 C9.5,13.4 13.3,13.9 16.2,15.6 C16.5,15.8 16.6,16.2 16.4,16.5 L16.4,16.5 Z M11.3,1 C8.36536875,0.919469069 5.52030459,2.01534999 3.39800327,4.04374417 C1.27570196,6.07213834 0.0522722778,8.86472941 0,11.8 C0.0784889152,14.7177435 1.31338907,17.4846695 3.43279183,19.4915376 C5.55219459,21.4984057 8.38231569,22.5806591 11.3,22.5 C17.3373806,22.6120073 22.3363547,17.8362016 22.5,11.8 C22.5,5.8 17.5,1 11.3,1 Z M30.6,11 C28.6,10.5 28.3,10.2 28.3,9.5 C28.3,8.9 28.9,8.5 29.8,8.5 C30.7,8.5 31.5,8.8 32.4,9.5 C32.4,9.55522847 32.4447715,9.6 32.5,9.6 C32.5552285,9.6 32.6,9.55522847 32.6,9.5 L33.6,8.2 L33.6,8 C32.4933136,7.2057979 31.1620936,6.78541264 29.8,6.8 C27.8,6.8 26.3,8 26.3,9.7 C26.3,11.5 27.5,12.2 29.7,12.7 C31.6,13.1 31.9,13.4 31.9,14 C31.9,14.7 31.2,15.1 30.2,15.1 C29.1,15.1 28.2,14.8 27.2,13.9 L27,13.9 L25.9,15.1 L25.9,15.3 C27.1,16.3 28.6,16.9 30.2,16.9 C32.4,16.9 33.9,15.7 33.9,13.9 C33.9,12.3 32.9,11.5 30.6,10.9 L30.6,11 Z M40.6,13 C40.6,14.3 39.8,15.2 38.6,15.2 C37.4,15.2 36.6,14.2 36.6,13 C36.6,11.7 37.4,10.8 38.6,10.8 C39.8,10.8 40.6,11.8 40.6,13 L40.6,13 Z M39,9.1 C38.0729872,9.07603096 37.1869945,9.48211096 36.6,10.2 L36.6,9.4 L36.4,9.3 L34.6,9.3 L34.6,18.8 L34.7,18.9 L36.4,18.9 L36.6,18.8 L36.6,15.8 C37.2064931,16.4806926 38.0896107,16.8486583 39,16.8 C40.8,16.8 42.7,15.5 42.7,13 C42.7,10.4 40.8,9.1 39,9.1 L39,9.1 Z M47.4,15.2 C46.1,15.2 45.2,14.2 45.2,13 C45.2,11.7 46.1,10.8 47.3,10.8 C48.6,10.8 49.5,11.8 49.5,13 C49.5,14.3 48.6,15.2 47.4,15.2 Z M47.4,9.2 C45,9.2 43.2,10.8 43.2,13 C43.2,15.2 45,16.9 47.3,16.9 C49.7,16.9 51.5,15.2 51.5,13 C51.5,10.8 49.7,9.1 47.4,9.1 L47.4,9.2 Z M56.5,9.3 L54.6,9.3 L54.6,7.4 L54.5,7.3 L52.7,7.3 L52.7,9.3 L51.7,9.3 L51.7,11 L52.7,11 L52.7,14.7 C52.7,16.2 53.4,17 54.9,17 C55.5,17 56.1,16.8 56.5,16.6 L56.6,16.5 L56.6,15 L56.4,14.9 C56.1,15.1 55.8,15.1 55.4,15.1 C54.9,15.1 54.6,14.9 54.6,14.4 L54.6,10.9 L56.6,10.9 L56.6,9.2 L56.5,9.3 Z M63.2,9.3 L63.2,9 C63.2,8.4 63.4,8 64,8 L65,8.2 L65.1,8.2 L65.1,6.6 C64.6501418,6.43335533 64.1786421,6.33231969 63.7,6.3 C62.1,6.3 61.2,7.2 61.2,8.8 L61.2,9.2 L60.2,9.2 L60.2,10.7 L60.4,10.8 L61.2,10.8 L61.2,16.5 L61.3,16.6 L63.2,16.6 L63.2,10.8 L64.8,10.8 L67.3,16.5 C67,17.1 66.7,17.2 66.3,17.2 C65.9885183,17.2043333 65.6803305,17.1358471 65.4,17 L65.3,17 L64.6,18.3 L64.7,18.4 C65.2521239,18.706406 65.8689452,18.8777452 66.5,18.9 C67.8,18.9 68.5,18.3 69.2,16.8 L72.2,9.3 L72.1,9.2 L70.2,9.2 L68.2,14.3 L66.2,9.3 L66.2,9.2 L63.2,9.2 L63.2,9.3 Z M59.3,9.3 L57.4,9.3 L57.4,16.6 L57.6,16.7 L59.4,16.7 L59.4,9.2 L59.3,9.3 Z M58.5,6 C57.8,6 57.2,6.5 57.2,7.2 C57.2,7.8 57.8,8.3 58.5,8.3 C59.1,8.3 59.7,7.8 59.7,7.2 C59.7,6.5 59.1,6 58.5,6 L58.5,6 Z M73.7,10 L73.4,10 L73.4,10.4 L73.7,10.4 C73.9,10.4 74,10.3 74,10.2 C74,10 73.9,10 73.7,10 L73.7,10 Z M73.9,10.5 L74.3,11 L74,11 L73.7,10.6 L73.4,10.6 L73.4,11 L73.2,11 L73.2,9.8 L73.7,9.8 C74,9.8 74.2,9.9 74.2,10.2 C74.2,10.4 74.2,10.5 73.9,10.5 L73.9,10.5 Z M73.7,9.4 C73.41793,9.3716473 73.1370812,9.46434919 72.9273146,9.6550461 C72.717548,9.84574302 72.5985786,10.1165122 72.6,10.4 C72.6,11 73,11.4 73.6,11.4 C73.8977192,11.4608366 74.2069489,11.383001 74.4403894,11.1884672 C74.6738298,10.9939335 74.8061522,10.7038091 74.8,10.4 C74.8,9.8 74.3,9.4 73.7,9.4 L73.7,9.4 Z M73.7,11.6 C73,11.6 72.4,11.1 72.4,10.4 C72.4,9.8 73,9.2 73.7,9.2 C74.3,9.2 74.9,9.8 74.9,10.4 C74.9,11.1 74.3,11.6 73.7,11.6 Z" id="Shape" fill="#000000" fill-rule="nonzero"></path>
      <path d="M4,35.1 L64.3,35.1" id="Path" stroke="#000000" stroke-width="2" stroke-linecap="square"></path>
      <path d="M123.3,62.4 C123.3,65.8 125.7,67.4 127.9,67.4 C130,67.4 132.4,65.8 132.4,62.4 C132.4,59 130,57.4 127.9,57.4 C125.7,57.4 123.3,59 123.3,62.4 L123.3,62.4 Z M119.7,62.4 C119.7,57.2 123.4,53.8 127.9,53.8 C132.3,53.8 136,57.2 136,62.4 C136,67.6 132.3,71 127.9,71 C123.4,71 119.7,67.6 119.7,62.4 Z M144.6,70.6 L147.8,70.6 L147.8,59.1 L144.3,59.1 L144.3,65.7 C144.3,66.8 143.6,67.7 142.5,67.7 C141.3,67.7 140.7,66.7 140.7,65.7 L140.7,59 L137.4,59 L137.4,66.3 C137.4,68.7 138.9,70.8 141.5,70.8 C142.7,70.8 143.9,70.4 144.5,69.4 L144.5,70.5 L144.6,70.6 Z M154,55.7 L151,55.7 L151,57.2 C151,58.3 150.4,59.2 149.3,59.2 L148.7,59.2 L148.7,62.2 L150.7,62.2 L150.7,67.2 C150.7,69.4 152.1,70.8 154.4,70.8 C155.4,70.8 156,70.6 156.1,70.5 L156.1,67.5 C155.808711,67.6011327 155.506706,67.668245 155.2,67.7 C154.5,67.7 154,67.5 154,66.5 L154,62.2 L156.1,62.2 L156.1,59.2 L154,59.2 L154,55.7 L154,55.7 Z M166.9,67.7 C168.1,67.7 169.3,66.8 169.3,64.9 C169.3,62.9 168.1,62 166.9,62 C165.6,62 164.4,63 164.4,64.9 C164.4,66.8 165.6,67.7 166.9,67.7 Z M166.9,58.7 C170.2,58.7 172.7,61.3 172.7,64.9 C172.7,68.4 170.2,70.9 166.9,70.9 C163.6,70.9 161,68.4 161,64.9 C161,61.3 163.6,58.8 166.9,58.8 L166.9,58.7 Z M180.7,62.1 L180.7,59.1 L178.3,59.1 L178.3,58.2 C178.3,57 179.2,56.7 179.8,56.7 L180.8,56.7 L180.8,54 C180.285773,53.8254132 179.74138,53.7573642 179.2,53.8 C176.5,53.8 175,55.6 175,58.2 L175,59.2 L173.2,59.2 L173.2,62.2 L175,62.2 L175,70.7 L178.3,70.7 L178.3,62.2 L180.7,62.2 L180.7,62.1 Z M123.3,82.7 C123.3,86.2 125.7,87.7 127.9,87.7 C130,87.7 132.4,86.2 132.4,82.7 C132.4,79.3 130,77.7 127.9,77.7 C125.7,77.7 123.3,79.3 123.3,82.7 Z M119.7,82.7 C119.7,77.5 123.4,74.2 127.9,74.2 C132.3,74.2 136,77.5 136,82.7 C136,87.9 132.3,91.3 127.9,91.3 C123.4,91.3 119.7,87.9 119.7,82.7 L119.7,82.7 Z M142.9,74 C143.4,74 144.1,74.1 144.5,74.3 L144.5,77 L143.5,76.9 C142.8,76.9 142,77.2 142,78.3 L142,79.3 L145.9,79.3 L145.9,78.3 C145.9,75.7 147.4,73.9 150.1,73.9 C150.7,73.9 151.4,73.9 151.7,74.1 L151.7,77.1 C151.376565,76.9909405 151.040501,76.9237277 150.7,76.9 C150.1,76.9 149.3,77.2 149.3,78.3 L149.3,79.3 L156.8,79.3 L156.8,91 L153.4,91 L153.4,82.5 L149.3,82.5 L149.3,91 L145.9,91 L145.9,82.5 L142,82.5 L142,91 L138.6,91 L138.6,82.5 L137,82.5 L137,79.5 L138.7,79.5 L138.7,78.5 C138.7,75.9 140.3,74.1 143,74.1 L142.9,74 Z M153.1,76 C153.1,74.7 154,73.8 155.1,73.8 C155.648223,73.7993143 156.172693,74.0236991 156.550778,74.4206881 C156.928862,74.8176771 157.127412,75.3524628 157.1,75.9 C157.1,77.0045695 156.204569,77.9 155.1,77.9 C153.995431,77.9 153.1,77.0045695 153.1,75.9 L153.1,76 Z M164,82.3 C165.3,82.3 166,83.2 166.2,84 L169.2,83 C168.7,81 166.9,79 163.9,79 C160.7,79 158.1,81.6 158.1,85.2 C158.1,88.8 160.7,91.3 164.1,91.3 C167,91.3 168.8,89.3 169.3,87.3 L166.3,86.3 C166.1,87.2 165.3,88.1 164,88.1 C162.6,88.1 161.4,87.1 161.4,85.2 C161.4,83.3 162.6,82.3 164,82.3 L164,82.3 Z M173.3,83.8 L177.7,83.8 C177.7,82.9 177.1,81.8 175.5,81.8 C174.358978,81.7952761 173.40372,82.6636919 173.3,83.8 L173.3,83.8 Z M177.9,86.8 L180.7,87.6 C180.2,89.6 178.5,91.3 175.7,91.3 C172.7,91.3 169.9,89 169.9,85.2 C169.9,81.4 172.6,79.1 175.4,79.1 C178.8,79.1 180.9,81.3 180.9,85 L180.9,86 L173.2,86 C173.2,87.4 174.4,88.3 175.7,88.3 C176.9,88.3 177.7,87.7 177.9,86.8 L177.9,86.8 Z" id="Shape" fill="#000000" fill-rule="nonzero"></path>
      <path d="M18.2,82 C23.5,82 27.8,77.5 27.8,72 C27.8,66.4 23.5,62 18.2,62 C12.7715114,62.1094005 8.44405338,66.5706974 8.5,72 C8.5,77.5 12.8,82 18.2,82 L18.2,82 Z M18.2,91 C8.2,91 0,82.5 0,72 C0,61.5 8.1,53 18.2,53 C28.2,53 36.3,61.5 36.3,72 C36.3,82.5 28.2,91 18.2,91 Z M56.8,82 C62.1,82 66.4,77.5 66.4,72 C66.4,66.4 62.1,62 56.8,62 C51.410831,62.1630824 47.1430721,66.6086646 47.2,72 C47.2,77.5 51.5,82 56.8,82 L56.8,82 Z M56.8,91 C46.8,91 38.6,82.5 38.6,72 C38.6,61.5 46.8,53 56.8,53 C66.8,53 75,61.5 75,72 C75,82.5 66.8,91 56.8,91 Z M94.8,82 C100.1,82 104.4,77.5 104.4,72 C104.4,66.4 100.1,62 94.8,62 C92.1743143,62.0263881 89.666668,63.094814 87.8287828,64.9702071 C85.9908975,66.8456002 84.973344,69.374317 85,72 C84.997566,77.4077803 89.2946532,81.8377671 94.7,82 L94.8,82 Z M94.8,91 C84.8,91 76.6,82.5 76.6,72 C76.6,61.5 84.7,53 94.8,53 C104.8,53 113,61.5 113,72 C113,82.5 104.8,91 94.8,91 Z" id="Shape" fill="#000000" fill-rule="nonzero"></path>
    </g>
  </g>
</svg>
