<?xml version="1.0" encoding="UTF-8"?>
<svg width="112px" height="35px" viewBox="0 0 112 35" version="1.1" xmlns="http://www.w3.org/2000/svg" xmlns:xlink="http://www.w3.org/1999/xlink">
    <!-- Generator: Sketch 48.2 (47327) - http://www.bohemiancoding.com/sketch -->
    <title>spotify-white</title>
    <desc>Created with Sketch.</desc>
    <defs></defs>
    <g id="About---Final-Draft" stroke="none" stroke-width="1" fill="none" fill-rule="evenodd" transform="translate(-1054.000000, -3630.000000)">
        <g id="Logo-Layout" transform="translate(0.000000, 3100.000000)" fill="#FFFFFF" fill-rule="nonzero">
            <g id="Col-4" transform="translate(1010.000000, 311.000000)">
                <g id="spotify-white" transform="translate(44.399501, 219.840580)">
                    <path d="M16.7395,0 C7.4946602,0 0,7.47773663 0,16.7016656 C0,25.9261281 7.4946602,33.4038647 16.7395,33.4038647 C25.9843397,33.4038647 33.4784654,25.9271951 33.4784654,16.7016656 C33.4784654,7.47720312 25.9843397,0 16.7395,0 Z M24.4159137,24.0903053 C24.2719125,24.3262478 24.0397935,24.4953384 23.77074,24.5602923 C23.5016864,24.6252462 23.2177949,24.5807287 22.9816645,24.4365561 C19.0509772,22.0394763 14.1030047,21.4979593 8.27673494,22.8258764 C7.91358042,22.9087902 7.53369039,22.7920473 7.28016574,22.5196238 C7.02664109,22.2472002 6.93799826,21.8604836 7.04762813,21.5051463 C7.15725801,21.149809 7.44850521,20.8798352 7.81165974,20.7969215 C14.1885357,19.3425615 19.6577132,19.9683738 24.0700474,22.6588864 C24.3062778,22.8027778 24.4754791,23.034517 24.5403575,23.3030256 C24.6052358,23.5715342 24.5604652,23.8547704 24.4159137,24.0903053 Z M26.4643829,19.5420958 C26.0871015,20.1548988 25.2837537,20.3468634 24.6692995,19.9710413 C20.1708997,17.2122388 13.3113077,16.4125009 7.98913671,18.0247811 C7.29957778,18.2328806 6.57131336,17.8448894 6.36083893,17.1572868 C6.15278567,16.4690763 6.54207014,15.7426368 7.23111759,15.5332693 C13.3107731,13.6926449 20.8679779,14.5836138 26.0351238,17.7521553 C26.6487475,18.1282531 26.8408962,18.929482 26.4643829,19.5420958 Z M26.6407907,14.8066228 C21.2453838,11.6092715 12.3453411,11.3153051 7.19423231,12.8753009 C6.65430601,13.0535605 6.05998453,12.9256231 5.64168798,12.5410905 C5.22339143,12.1565578 5.04689721,11.5758979 5.18063261,11.0242342 C5.31436801,10.4725705 5.73730307,10.0366525 6.28546467,9.88548673 C12.1978,8.09447918 22.0274585,8.44072997 28.2391526,12.1198447 C28.7200483,12.4048011 29.0120912,12.9241602 29.0052716,13.4822844 C28.9984519,14.0404087 28.6938059,14.5525057 28.2060906,14.8256735 C27.7183753,15.0988413 27.1216864,15.0915792 26.6407907,14.8066228 Z M45.541554,15.4190972 C42.6511383,14.7308637 42.1363482,14.2485668 42.1363482,13.2343561 C42.1363482,12.2761644 43.0408392,11.6316791 44.3852808,11.6316791 C45.6885605,11.6316791 46.9806143,12.1214452 48.3357472,13.1292538 C48.376909,13.1596641 48.4282276,13.1719349 48.4784772,13.1639322 C48.5289889,13.1565913 48.5742373,13.128801 48.6035663,13.0871061 L50.014829,11.1024329 C50.0731745,11.020815 50.0574507,10.9079209 49.9790129,10.845279 C48.3662176,9.55417434 46.550286,8.92676151 44.4280463,8.92676151 C41.3077659,8.92676151 39.1277927,10.7951286 39.1277927,13.4685689 C39.1277927,16.3356748 41.0078726,17.350419 44.2575187,18.1341515 C47.0228452,18.7701006 47.4895241,19.3025479 47.4895241,20.2543374 C47.4895241,21.3096287 46.5460095,21.9653178 45.0272984,21.9653178 C43.340198,21.9653178 41.9642169,21.3981921 40.4246576,20.0681409 C40.3857015,20.0361478 40.3360176,20.0201278 40.2856696,20.0233257 C40.2353762,20.0270752 40.1887294,20.0509297 40.1563038,20.0894815 L38.573979,21.9685189 C38.5075411,22.0463014 38.5158678,22.1628838 38.5926889,22.2304744 C40.3834957,23.8256822 42.5859208,24.6686349 44.9631501,24.6686349 C48.3255904,24.6686349 50.4986142,22.8349462 50.4986142,19.997717 C50.4986142,17.5995702 49.0627613,16.2732536 45.541554,15.4190972 Z M58.106603,12.5749324 C56.6488328,12.5749324 55.4535361,13.1473932 54.4677905,14.3211247 L54.4677905,13.0001433 C54.4677909,12.8957499 54.3831524,12.8110398 54.278553,12.8107457 L51.6907035,12.8107457 C51.5861041,12.8110398 51.5014656,12.8957499 51.501466,13.0001433 L51.501466,27.6792561 C51.501466,27.7838249 51.5859279,27.8686537 51.6907035,27.8686537 L54.278553,27.8686537 C54.3831524,27.8683597 54.4677909,27.7836495 54.4677905,27.6792561 L54.4677905,23.0462178 C55.4535361,24.1505925 56.6488328,24.6894419 58.106603,24.6894419 C60.8147306,24.6894419 63.556536,22.6092696 63.556536,18.6329874 C63.556536,14.6551047 60.8147306,12.5749324 58.106603,12.5749324 Z M60.547446,18.6329874 C60.547446,20.6576743 59.2976232,22.0709537 57.5078855,22.0709537 C55.7384615,22.0709537 54.4031076,20.593119 54.4031076,18.6329874 C54.4031076,16.6723223 55.7379269,15.1950212 57.5078855,15.1950212 C59.2687565,15.1950212 60.547446,16.640845 60.547446,18.6329874 Z M70.5839828,12.5749324 C67.0959187,12.5749324 64.3637355,15.2542413 64.3637355,18.6762021 C64.3637355,22.0602834 67.0777434,24.712383 70.5412172,24.712383 C74.0415764,24.712383 76.7823127,22.0410769 76.7823127,18.6329874 C76.7823127,15.2355683 74.0602863,12.5749324 70.5839828,12.5749324 Z M70.5839828,22.0917607 C68.7290276,22.0917607 67.33006,20.6043228 67.33006,18.6329874 C67.33006,16.6525823 68.6803818,15.2152947 70.5412172,15.2152947 C72.4084674,15.2152947 73.8165227,16.7027326 73.8165227,18.6762021 C73.8165227,20.6555402 72.4571132,22.0917607 70.5839828,22.0917607 Z M84.2304653,12.8107457 L81.3828152,12.8107457 L81.3828152,9.90576027 C81.3828152,9.85567041 81.3628777,9.80763209 81.3273888,9.77221321 C81.2918999,9.73679433 81.2437666,9.71689621 81.1935777,9.71689621 L78.6062628,9.71689621 C78.501663,9.71689579 78.4167853,9.80136729 78.4164907,9.90576027 L78.4164907,12.8107457 L77.1720136,12.8107457 C77.1218246,12.810887 77.0737475,12.8309208 77.0383588,12.8664398 C77.0029701,12.9019587 76.9831687,12.9500534 76.9833107,13.0001433 L76.9833107,15.2195628 C76.9833107,15.3235981 77.0677726,15.4084269 77.1720136,15.4084269 L78.4164907,15.4084269 L78.4164907,21.1506415 C78.4164907,23.4714287 79.573833,24.6478278 81.8569781,24.6478278 C82.7849902,24.6478278 83.5553044,24.4568297 84.2812494,24.0460237 C84.3403635,24.0126003 84.376911,23.9500419 84.3769373,23.8822348 L84.3769373,21.7689846 C84.3770483,21.7032615 84.3430116,21.6421792 84.2870097,21.6076005 C84.2310077,21.5730218 84.1610473,21.5698903 84.1021687,21.599327 C83.6331273,21.8423453 83.1119315,21.9679471 82.5834576,21.9653178 C81.7532717,21.9653178 81.3828152,21.5891902 81.3828152,20.7462376 L81.3828152,15.4084269 L84.2304653,15.4084269 C84.3347695,15.4081328 84.4191687,15.3236616 84.4191683,15.2195628 L84.4191683,13.0001433 C84.4191699,12.8959572 84.3348558,12.8113327 84.2304653,12.8107457 Z M94.1520697,12.8219495 L94.1520697,12.4650284 C94.1520697,11.4156058 94.5556695,10.9477137 95.4601605,10.9477137 C96.0000754,10.9477137 96.4330765,11.0544166 96.9184653,11.2160714 C96.9762243,11.2353589 97.0397598,11.2256375 97.0890765,11.1899667 C97.1383931,11.1542959 97.1674267,11.097062 97.16704,11.0362771 L97.16704,8.86007222 C97.16704,8.7773775 97.1135831,8.70375252 97.0333977,8.67921087 C96.5207458,8.52662577 95.8648294,8.37030608 94.8822912,8.37030608 C92.4922323,8.37030608 91.2290453,9.71369512 91.2290453,12.2532233 L91.2290453,12.7995419 L89.9856374,12.7995419 C89.880951,12.799835 89.7961589,12.8844597 89.7958653,12.9889395 L89.7958653,15.2190293 C89.7958653,15.3235981 89.8813964,15.4084269 89.9856374,15.4084269 L91.2290453,15.4084269 L91.2290453,24.2658316 C91.2290453,24.3698668 91.3129727,24.4546956 91.4177482,24.4546956 L94.0050632,24.4546956 C94.109663,24.454696 94.1945406,24.3702245 94.1948352,24.2658316 L94.1948352,15.4084269 L96.611088,15.4084269 L100.312445,24.263164 C99.8922738,25.193613 99.4790518,25.3787424 98.9150813,25.3787424 C98.4590938,25.3787424 97.9790506,25.2426963 97.4877815,24.9748721 C97.4416163,24.9502771 97.3874707,24.945277 97.3375676,24.9610007 C97.2877782,24.9779546 97.2471772,25.0146163 97.225308,25.0623684 L96.3486146,26.98302 C96.3066956,27.0730992 96.3423032,27.1801786 96.4298691,27.2273695 C97.3455861,27.7219373 98.1720301,27.933209 99.1935918,27.933209 C101.104142,27.933209 102.160451,27.0449076 103.09167,24.6558305 L107.581517,13.0801704 C107.604236,13.0220409 107.59681,12.9564734 107.561664,12.9048712 C107.526518,12.8532691 107.468162,12.8222537 107.405644,12.8219495 L104.711415,12.8219495 C104.6308,12.8221473 104.559055,12.8730173 104.532334,12.9489259 L101.772888,20.8145275 L98.7498994,12.9435908 C98.7220062,12.8705001 98.6518586,12.8221301 98.5734916,12.8219495 L94.1520697,12.8219495 Z M88.4006397,12.8107457 L85.8127902,12.8107457 C85.7081038,12.8110388 85.6233118,12.8956635 85.6230181,13.0001433 L85.6230181,24.2658316 C85.6230181,24.3698668 85.7080146,24.4546956 85.8127902,24.4546956 L88.4001051,24.4546956 C88.5047049,24.454696 88.5895825,24.3702245 88.5898772,24.2658316 L88.5898772,13.0001433 C88.5895835,12.8956635 88.5047914,12.8110388 88.4001051,12.8107457 L88.4006397,12.8107457 Z M87.1198119,7.68100558 C86.4493067,7.6696476 85.8248065,8.02014975 85.4862256,8.59785946 C85.1476447,9.17556918 85.1476447,9.89063187 85.4862256,10.4683416 C85.8248065,11.0460513 86.4493067,11.3965535 87.1198119,11.3851955 C88.1272217,11.3610594 88.9312933,10.5390789 88.9312933,9.53336728 C88.9312933,8.52765571 88.1272217,7.70567521 87.1198119,7.6815391 L87.1198119,7.68100558 Z M109.790892,16.4327744 C109.307342,16.4347692 108.843012,16.2439779 108.501037,15.9027783 C108.159062,15.5615787 107.967758,15.098221 107.969614,14.6156246 C107.969614,14.1310472 108.162529,13.6663245 108.505905,13.3237265 C108.849281,12.9811286 109.314978,12.7887301 109.800514,12.7888716 C110.283878,12.7868786 110.748045,12.9775238 111.089988,13.3184919 C111.431931,13.6594601 111.623362,14.1225426 111.621791,14.6049544 C111.621933,15.0896733 111.429098,15.5545879 111.085722,15.897386 C110.742347,16.240184 110.276569,16.4327744 109.790892,16.4327744 Z M109.800514,12.9691995 C108.867691,12.9691995 108.161525,13.7091838 108.161525,14.6156246 C108.161525,15.5209984 108.862345,16.250846 109.790892,16.250846 C110.723715,16.250846 111.429881,15.5119287 111.429881,14.6049544 C111.429881,13.6995806 110.728526,12.9691995 109.800514,12.9691995 Z M110.204114,14.7922179 L110.719438,15.5119287 L110.284834,15.5119287 L109.821362,14.851438 L109.422574,14.851438 L109.422574,15.5119287 L109.059066,15.5119287 L109.059066,13.604615 L109.911704,13.604615 C110.355397,13.604615 110.647806,13.8308251 110.647806,14.2128213 C110.647806,14.5254607 110.466587,14.7164588 110.204114,14.7922179 Z M109.896736,13.9316593 L109.422574,13.9316593 L109.422574,14.5345305 L109.896736,14.5345305 C110.133551,14.5345305 110.274677,14.4192914 110.274677,14.2330949 C110.274677,14.0367616 110.133551,13.9316593 109.896736,13.9316593 Z" id="Shape"></path>
                </g>
            </g>
        </g>
    </g>
</svg>