<?xml version="1.0" encoding="UTF-8"?>
<svg width="124px" height="29px" viewBox="0 0 124 29" version="1.1" xmlns="http://www.w3.org/2000/svg" xmlns:xlink="http://www.w3.org/1999/xlink">
    <!-- Generator: Sketch 48.2 (47327) - http://www.bohemiancoding.com/sketch -->
    <title>trimet-white</title>
    <desc>Created with Sketch.</desc>
    <defs></defs>
    <g id="About---Final-Draft" stroke="none" stroke-width="1" fill="none" fill-rule="evenodd" transform="translate(-524.000000, -3759.000000)">
        <g id="Logo-Layout" transform="translate(0.000000, 3100.000000)">
            <g id="Col-2" transform="translate(517.000000, 398.000000)">
                <g id="trimet-white" transform="translate(7.842697, 261.173913)">
                    <path d="M6.30632235,9.99494769 L6.30632235,20.7969408 L3.21498786,20.7969408 L3.21498786,9.99494769 L0,9.99494769 L0,7.32548961 L9.52131021,7.32548961 L9.52131021,9.99494769 L6.30632235,9.99494769 Z M22.8140485,11.4848778 C22.8140485,12.6023253 22.0103015,13.3472904 20.6501144,13.3472904 C20.3409809,13.3472904 20.0318475,13.3472904 19.8463674,13.28521 L19.8463674,9.80870643 C20.0318475,9.80870643 20.4028076,9.74662601 20.7119411,9.74662601 C22.1957816,9.80870643 22.8140485,10.4295106 22.8140485,11.4848778 Z M26.9564367,20.7969408 L24.112409,16.4513114 C23.8032755,15.954668 23.4323154,15.4580247 23.0613553,14.9613813 C24.8543293,14.5268184 26.0290364,13.0368883 26.0290364,11.2365561 C26.0290364,8.38085676 24.112409,7.26340919 20.9592478,7.26340919 C19.3517539,7.26340919 17.8679133,7.26340919 16.7550329,7.38757003 L16.7550329,20.8590213 L19.8463674,20.8590213 L19.8463674,15.5201051 L19.9700208,15.5201051 L23.1231819,20.7969408 L26.9564367,20.7969408 Z M34.2519861,7.32548961 L37.3433206,7.32548961 L37.3433206,20.7969408 L34.2519861,20.7969408 L34.2519861,7.32548961 Z M89.6487001,20.7969408 L88.7831264,15.2717834 C88.5976463,14.1543359 88.473993,13.1610491 88.4121663,12.105682 L88.3503396,12.105682 C88.1648595,13.0989687 87.9175528,14.0922554 87.5465926,15.2717834 L85.877272,20.7969408 L82.9095909,20.7969408 L81.302097,15.7684268 C80.9311368,14.5888988 80.6220034,13.28521 80.4365233,12.105682 C80.3128699,13.3472904 80.1892165,14.4026575 80.0655632,15.5201051 L79.3854696,20.7969408 L76.2323084,20.7969408 L78.3962425,7.32548961 L81.9821905,7.32548961 L83.8369912,13.2231295 C84.1461247,14.1543359 84.3316048,15.0855422 84.5789115,16.1409093 L84.6407382,16.1409093 C84.8262183,15.0855422 85.073525,14.2164163 85.3826585,13.1610491 L87.2992859,7.26340919 L90.8234072,7.26340919 L92.9873413,20.7348604 L89.6487001,20.7969408 Z M99.231837,20.7969408 L99.231837,7.32548961 L106.774693,7.32548961 L106.774693,9.93286727 L102.323171,9.93286727 L102.323171,12.6023253 L106.589213,12.6023253 L106.589213,15.1476226 L102.323171,15.1476226 L102.323171,18.1274828 L106.774693,18.1274828 L106.774693,20.7969408 L99.231837,20.7969408 Z M119.881951,9.99494769 L119.881951,20.7969408 L116.790617,20.7969408 L116.790617,9.99494769 L113.575629,9.99494769 L113.575629,7.32548961 L123.096939,7.32548961 L123.096939,9.99494769 L119.881951,9.99494769 Z M71.53348,14.0922554 C71.53348,21.9143884 65.2271576,28.1845109 57.4988214,28.1845109 C49.7086585,28.1845109 43.4641629,21.852308 43.4641629,14.0922554 C43.4023362,6.33220288 49.7086585,0 57.4988214,0 C65.2271576,0 71.53348,6.33220288 71.53348,14.0922554 Z" id="Shape" fill="#FFFFFF" fill-rule="nonzero"></path>
                    <path d="M60.5157772,16.8317583 C59.6045779,17.4001854 58.5111389,17.7159783 57.4176998,17.7159783 C54.0158894,17.7159783 51.2215452,14.8106841 51.2215452,11.2738043 C51.2215452,7.73692455 54.0158894,4.83163043 57.4176998,4.83163043 C60.8195102,4.83163043 63.6138545,7.73692455 63.6138545,11.2738043" id="Shape" stroke="#000000" stroke-width="2.759"></path>
                    <path d="M57.9908638,10.4685326 C58.9063515,11.0010913 59.7608067,11.7703426 60.3100994,12.7171136 C62.0190098,15.6165995 60.9814571,19.2853369 58.0518963,20.942186 C55.061303,22.5990351 51.277287,21.593091 49.5683765,18.7527782 C47.8594661,15.8532923 48.8970189,12.1845549 51.8265796,10.5277058" id="Shape" stroke="#000000" stroke-width="2.759"></path>
                    <path d="M54.526161,15.7027989 C54.526161,14.6936465 54.7694564,13.6251322 55.3776948,12.6753416 C57.0807625,9.76660819 60.9126648,8.81681767 63.8322094,10.4789511 C66.8125778,12.1410845 67.7857593,15.8808846 66.0826917,18.7302562 C64.379624,21.6389896 60.5477217,22.5887802 57.6281771,20.9266468" id="Shape" stroke="#000000" stroke-width="2.759"></path>
                </g>
            </g>
        </g>
    </g>
</svg>