<?xml version="1.0" encoding="UTF-8"?>
<svg width="45px" height="61px" viewBox="0 0 45 61" version="1.1" xmlns="http://www.w3.org/2000/svg" xmlns:xlink="http://www.w3.org/1999/xlink">
    <!-- Generator: Sketch 50 (54983) - http://www.bohemiancoding.com/sketch -->
    <title>path4987</title>
    <desc>Created with Sketch.</desc>
    <defs></defs>
    <g id="Page-1" stroke="none" stroke-width="1" fill="none" fill-rule="evenodd">
        <path d="M28.7372891,60.18296 C24.4303011,60.18296 21.2916989,59.1520327 19.3214826,57.0901781 C17.351264,55.0283212 16.3661547,52.8060985 16.3661547,50.4235099 C16.3661547,49.5529485 16.5379765,48.8198445 16.8816201,48.2241979 C17.2252614,47.6285513 17.6949065,47.1589063 18.2905553,46.8152627 C18.8862019,46.4716191 19.6193059,46.2997973 20.4898673,46.2997973 C21.3604288,46.2997973 22.0935328,46.4716191 22.6891794,46.8152627 C23.2848259,47.1589063 23.754471,47.6285513 24.0981146,48.2241979 C24.4417581,48.8198445 24.6135799,49.5529485 24.6135799,50.4235099 C24.6135799,51.4773479 24.3615746,52.3364546 23.8575641,53.0008299 C23.3535558,53.6652052 22.7579092,54.1004859 22.0706243,54.306672 C22.6662709,55.1314143 23.6055599,55.7156061 24.8884914,56.0592474 C26.1714251,56.4258005 27.4543577,56.6090771 28.7372891,56.6090771 C30.5242311,56.6090771 32.1393514,56.1279773 33.5826498,55.1657775 C35.0259482,54.2035778 36.091241,52.7831889 36.7785282,50.9046109 C37.465813,49.0260306 37.8094555,46.8954462 37.8094555,44.5128576 C37.8094555,41.9240829 37.4314487,39.7133149 36.6754351,37.8805538 C35.9423311,36.0248853 34.8541287,34.6503156 33.410828,33.7568446 C31.9675296,32.8633736 30.4096833,32.4166381 28.7372891,32.4166381 C27.637632,32.4166381 26.2630622,32.8748284 24.6135799,33.7912089 L21.5895233,35.3032338 L21.5895233,33.7912089 L35.1977712,15.6468763 L16.3661547,15.6468763 L16.3661547,34.4784927 C16.3661547,36.036339 16.7097972,37.3192716 17.397082,38.3272904 C18.0843692,39.3353093 19.1382072,39.8393187 20.5585961,39.8393187 C21.6582509,39.8393187 22.7120878,39.4727667 23.7201067,38.7396627 C24.7281255,38.0065564 25.598687,37.1130854 26.331791,36.0592497 C26.4234292,35.8530635 26.5379771,35.7041513 26.6754345,35.612513 C26.8128919,35.4979652 26.961803,35.4406913 27.1221678,35.4406913 C27.374173,35.4406913 27.6719975,35.5666939 28.015641,35.8186992 C28.3363728,36.1852523 28.4967386,36.6090782 28.4967386,37.090177 C28.4738291,37.3192727 28.4165551,37.6400055 28.3249168,38.0523756 C27.5459937,39.7934984 26.4692473,41.1222501 25.0946775,42.0386307 C23.7201078,42.9550113 22.2080806,43.4132016 20.5585961,43.4132016 C16.4807037,43.4132016 13.6628341,42.6113689 12.1049871,41.0077034 C10.5471406,39.404038 9.76821732,37.2276344 9.76821732,34.4784927 L9.76821732,15.6468763 L0.146224,15.6468763 L0.146224,12.1417221 L9.76821732,12.1417221 L9.76821732,4.16921516 L7.56890462,1.96990314 L7.56890462,0.18296 L13.9606566,0.18296 L16.3661547,1.42007344 L16.3661547,12.1417221 L41.2458809,12.0729934 L43.7201078,14.5472203 L28.4623743,29.8049538 C29.3787548,29.4384006 30.3409546,29.2093049 31.3489734,29.1176666 C32.998458,29.1176666 34.8541276,29.6445856 36.9159822,30.6984236 C39.0007486,31.7293521 40.6044152,33.1497421 41.7269819,34.9595937 C42.8495464,36.7465334 43.5711956,38.4647456 43.8919296,40.1142302 C44.2355709,41.7637147 44.4073915,43.2299239 44.4073915,44.5128576 C44.4073915,47.4452736 43.7888354,50.1715046 42.5517231,52.6915507 C41.3146085,55.2115967 39.4360282,57.090177 36.9159822,58.3272915 C34.3959384,59.5644038 31.6697074,60.18296 28.7372891,60.18296 Z" id="path4987" fill="#FFFFFF" fill-rule="nonzero"></path>
    </g>
</svg>