<svg width="143" height="32" viewBox="0 0 143 32" fill="none" xmlns="http://www.w3.org/2000/svg">
<path fill-rule="evenodd" clip-rule="evenodd" d="M10.671 25.9441C5.2069 25.9441 0.828613 22.7097 0.828613 16.5849V0.997849H6.36276V16.1376C6.36276 19.0968 8.04402 20.5763 10.671 20.5763C13.298 20.5763 14.9792 19.0968 14.9792 16.1376V0.997849H20.5134V16.5849C20.5134 22.7097 16.1351 25.9441 10.671 25.9441ZM26.2927 15.5871V25.3935H20.9687V8.29247H26.1176V10.2538C27.0633 8.63656 29.1999 7.84516 30.9862 7.84516C35.3645 7.84516 37.326 10.9075 37.326 14.6581V25.3935H32.002V15.5527C32.002 13.8667 31.0913 12.5935 29.1649 12.5935C27.4136 12.5935 26.2927 13.8667 26.2927 15.5871ZM43.2805 25.3935H37.9565V8.29247H43.2805V25.3935ZM37.1509 3.06237C37.1509 1.37634 38.5519 0 40.2332 0C41.9845 0 43.3855 1.37634 43.3855 3.06237C43.3855 4.74839 41.9845 6.12473 40.2332 6.12473C38.5519 6.12473 37.1509 4.74839 37.1509 3.06237ZM62.9652 8.29247L56.3452 25.3935H50.9862L43.8409 8.29247H49.6202L53.6482 18.9247L57.361 8.29247H62.9652ZM66.3628 14.7957H73.333C73.2629 13.4882 72.3523 11.9054 69.8304 11.9054C67.5887 11.9054 66.4678 13.5226 66.3628 14.7957ZM73.7183 19.2344L78.1666 20.4731C77.326 23.4323 74.5589 25.9097 70.1456 25.9097C65.347 25.9097 61.0738 22.5376 61.0738 16.7914C61.0738 11.286 65.2419 7.77634 69.7603 7.77634C75.1544 7.77634 78.4819 11.0452 78.4819 16.5505C78.4819 17.2731 78.4118 18.0645 78.3768 18.1677H66.2577C66.3628 20.0946 68.1491 21.471 70.2157 21.471C72.1421 21.471 73.2279 20.5763 73.7183 19.2344ZM90.1806 8.29247V13.4538C89.5852 13.3161 89.0248 13.2817 88.4994 13.2817C86.3628 13.2817 84.4363 14.5204 84.4363 17.9269V25.3935H79.1123V8.29247H84.2612V10.5978C85.1719 8.67097 87.3785 8.12043 88.7796 8.12043C89.305 8.12043 89.8304 8.18925 90.1806 8.29247ZM90.3558 20.5419L94.8741 19.7505C94.9442 20.9204 95.7848 22.0559 97.6062 22.0559C98.9722 22.0559 99.6377 21.3333 99.6377 20.5763C99.6377 19.957 99.2174 19.4409 97.9214 19.1656L95.9249 18.7183C92.2122 17.9269 90.741 15.8624 90.741 13.4538C90.741 10.3226 93.5431 7.77634 97.4311 7.77634C102.475 7.77634 104.226 10.8731 104.401 12.8688L99.988 13.6602C99.8479 12.5247 99.1123 11.5613 97.5011 11.5613C96.4854 11.5613 95.6097 12.1462 95.6097 13.0409C95.6097 13.7634 96.2051 14.1763 96.9757 14.314L99.2875 14.7613C102.895 15.4839 104.646 17.6172 104.646 20.129C104.646 23.0538 102.37 25.9097 97.7113 25.9097C92.2472 25.9097 90.4959 22.4344 90.3558 20.5419ZM110.286 25.3935H104.962V8.29247H110.286V25.3935ZM104.506 3.06237C104.506 1.37634 105.907 0 107.589 0C109.34 0 110.741 1.37634 110.741 3.06237C110.741 4.74839 109.34 6.12473 107.589 6.12473C105.907 6.12473 104.506 4.74839 104.506 3.06237ZM119.217 3.30323V8.29247H122.615V12.8688H119.217V19.2688C119.217 20.6796 119.988 21.0581 121.144 21.0581C121.704 21.0581 122.23 20.9548 122.545 20.886V25.2215C122.335 25.3247 121.459 25.7032 119.778 25.7032C116.17 25.7032 113.963 23.6043 113.963 20.1978V12.8688H110.881V8.29247H111.757C113.578 8.29247 114.454 7.08817 114.454 5.50538V3.30323H119.217ZM132.002 31.9656H126.398L130.356 23.0882L123.035 8.29247H128.99L133.228 17.4452L137.081 8.29247H142.72L132.002 31.9656Z" fill="black"/>
</svg>
