<?xml version="1.0" encoding="utf-8"?>
<svg width="25px" height="25px" viewBox="0 0 25 25" version="1.1" xmlns:xlink="http://www.w3.org/1999/xlink" xmlns="http://www.w3.org/2000/svg">
  <defs>
    <filter id="filter_1">
      <feColorMatrix in="SourceGraphic" type="matrix" values="0 0 0 0 0.9529412 0 0 0 0 0.9529412 0 0 0 0 0.9529412 0 0 0 1 0" />
    </filter>
  </defs>
  <g id="Group-5" transform="translate(0.5 0.5)">
    <path d="M12 24C18.6274 24 24 18.6274 24 12C24 5.37258 18.6274 0 12 0C5.37258 0 0 5.37258 0 12C0 18.6274 5.37258 24 12 24Z" id="Oval-Copy-13" fill="#F4F4F4" fill-rule="evenodd" stroke="none" />
    <g id="Group-3-Copy">
      <path d="M5.5 5L19 5L19 18L5.5 18L5.5 5Z" id="Rectangle" fill="#242424" fill-rule="evenodd" stroke="none" />
      <g id="logo--discord" filter="url(#filter_1)">
        <path d="M10.2352 11.1803C9.78917 11.1425 9.36562 11.3823 9.16846 11.7842C8.9713 12.1861 9.04093 12.6678 9.34384 12.9974C9.64674 13.3271 10.1209 13.4371 10.538 13.2745C10.9551 13.112 11.2298 12.7102 11.2297 12.2625C11.2415 11.9871 11.1433 11.7182 10.9568 11.5153C10.7703 11.3123 10.5107 11.1917 10.2352 11.1803L10.2352 11.1803ZM13.794 11.1803C13.3479 11.1425 12.9244 11.3823 12.7272 11.7842C12.53 12.1861 12.5997 12.6678 12.9026 12.9974C13.2055 13.3271 13.6796 13.4371 14.0967 13.2745C14.5139 13.112 14.7885 12.7102 14.7885 12.2625C14.8003 11.9871 14.7021 11.7182 14.5156 11.5153C14.329 11.3123 14.0694 11.1917 13.794 11.1803Z" id="Shape" fill="#000000" stroke="none" />
        <path d="M18.5325 3L5.4675 3C4.9361 3.00127 4.42697 3.2136 4.05213 3.59027C3.67728 3.96694 3.46744 4.4771 3.46875 5.0085L3.46875 18.1905C3.46744 18.7219 3.67728 19.2321 4.05213 19.6087C4.42697 19.9854 4.9361 20.1977 5.4675 20.199L16.524 20.199L16.0072 18.3953L17.2552 19.5555L18.435 20.6475L20.5313 22.5L20.5313 5.0085C20.5326 4.4771 20.3227 3.96694 19.9479 3.59027C19.573 3.2136 19.0639 3.00127 18.5325 3ZM14.769 15.7335C14.769 15.7335 14.418 15.3142 14.1255 14.9438C14.8322 14.7774 15.4573 14.3664 15.8903 13.7835C15.5394 14.017 15.1633 14.21 14.769 14.3587C14.3154 14.5524 13.841 14.693 13.3552 14.778C12.5202 14.9317 11.6638 14.9284 10.83 14.7682C10.3405 14.6725 9.86073 14.5321 9.39675 14.349C9.15218 14.255 8.91437 14.1442 8.685 14.0175C8.65575 13.998 8.6265 13.9882 8.59725 13.9688C8.58258 13.9614 8.56937 13.9515 8.55825 13.9395C8.38275 13.842 8.28525 13.7738 8.28525 13.7738C8.70251 14.3444 9.30603 14.7514 9.9915 14.9242C9.699 15.2948 9.33825 15.7335 9.33825 15.7335C8.16214 15.7651 7.04737 15.2096 6.3645 14.2515C6.39615 12.2749 6.87622 10.3313 7.7685 8.56725C8.55372 7.95055 9.51103 7.59284 10.5083 7.5435L10.6058 7.6605C9.66754 7.89268 8.79203 8.32877 8.0415 8.93775C8.0415 8.93775 8.256 8.82075 8.61675 8.655C9.31759 8.33509 10.0645 8.12779 10.83 8.04075C10.8846 8.02945 10.94 8.02293 10.9957 8.02125C11.6491 7.93613 12.3103 7.92958 12.9652 8.00175C13.9952 8.11938 14.9922 8.43735 15.9 8.93775C15.1875 8.3578 14.36 7.93574 13.4722 7.6995L13.6087 7.5435C14.606 7.59284 15.5633 7.95055 16.3485 8.56725C17.2408 10.3313 17.7208 12.2749 17.7525 14.2515C17.0643 15.2085 15.9474 15.7633 14.769 15.7335L14.769 15.7335Z" id="Shape" fill="#000000" stroke="none" />
        <path d="M0 0L24 0L24 24L0 24L0 0Z" id="_Transparent_Rectangle_" fill="none" fill-rule="evenodd" stroke="none" />
      </g>
    </g>
  </g>
</svg>