<?xml version="1.0" encoding="utf-8"?>
<svg width="285px" height="285px" viewBox="0 0 285 285" version="1.1" xmlns:xlink="http://www.w3.org/1999/xlink" xmlns="http://www.w3.org/2000/svg">
  <defs>
    <linearGradient x1="1.7019179" y1="1.8670118" x2="-0.13656956" y2="-0.21853307" id="gradient_1">
      <stop offset="0" stop-color="#C90099" />
      <stop offset="0.6046439" stop-color="#F67622" />
      <stop offset="1" stop-color="#D8D8D8" />
    </linearGradient>
    <linearGradient x1="2.0546677" y1="1.611218" x2="-0.873664" y2="-0.34619436" id="gradient_2">
      <stop offset="0" stop-color="#C90099" />
      <stop offset="0.6046439" stop-color="#F67622" />
      <stop offset="1" stop-color="#D8D8D8" />
    </linearGradient>
  </defs>
  <g id="Group" transform="translate(0.5 0.5)">
    <path d="M9.999 0L274.001 0Q274.246 0 274.492 0.0120442Q274.737 0.0240885 274.981 0.0481479Q275.225 0.0722074 275.468 0.108224Q275.711 0.144241 275.952 0.192128Q276.192 0.240015 276.431 0.299657Q276.669 0.3593 276.904 0.430553Q277.138 0.501807 277.37 0.584501Q277.601 0.667194 277.827 0.761128Q278.054 0.855062 278.276 0.960011Q278.498 1.06496 278.715 1.18067Q278.931 1.29638 279.142 1.42257Q279.352 1.54876 279.556 1.68514Q279.76 1.82151 279.957 1.96773Q280.155 2.11395 280.344 2.26967Q280.534 2.42539 280.716 2.59023Q280.898 2.75507 281.071 2.92864Q281.245 3.10221 281.41 3.28408Q281.575 3.46596 281.73 3.6557Q281.886 3.84545 282.032 4.0426Q282.178 4.23976 282.315 4.44385Q282.451 4.64795 282.577 4.85849Q282.704 5.06903 282.819 5.2855Q282.935 5.50198 283.04 5.72388Q283.145 5.94577 283.239 6.17255Q283.333 6.39932 283.415 6.63044Q283.498 6.86155 283.569 7.09644Q283.641 7.33134 283.7 7.56944Q283.76 7.80755 283.808 8.04829Q283.856 8.28904 283.892 8.53184Q283.928 8.77465 283.952 9.01893Q283.976 9.26321 283.988 9.50837Q284 9.75354 284 9.999L284 274.001Q284 274.246 283.988 274.492Q283.976 274.737 283.952 274.981Q283.928 275.225 283.892 275.468Q283.856 275.711 283.808 275.952Q283.76 276.192 283.7 276.431Q283.641 276.669 283.569 276.904Q283.498 277.138 283.415 277.37Q283.333 277.601 283.239 277.827Q283.145 278.054 283.04 278.276Q282.935 278.498 282.819 278.715Q282.704 278.931 282.577 279.142Q282.451 279.352 282.315 279.556Q282.178 279.76 282.032 279.957Q281.886 280.155 281.73 280.344Q281.575 280.534 281.41 280.716Q281.245 280.898 281.071 281.071Q280.898 281.245 280.716 281.41Q280.534 281.575 280.344 281.73Q280.155 281.886 279.957 282.032Q279.76 282.178 279.556 282.315Q279.352 282.451 279.142 282.577Q278.931 282.704 278.714 282.819Q278.498 282.935 278.276 283.04Q278.054 283.145 277.827 283.239Q277.601 283.333 277.37 283.415Q277.138 283.498 276.904 283.569Q276.669 283.641 276.431 283.7Q276.192 283.76 275.952 283.808Q275.711 283.856 275.468 283.892Q275.225 283.928 274.981 283.952Q274.737 283.976 274.492 283.988Q274.246 284 274.001 284L9.999 284Q9.75354 284 9.50837 283.988Q9.26321 283.976 9.01893 283.952Q8.77465 283.928 8.53184 283.892Q8.28904 283.856 8.04829 283.808Q7.80755 283.76 7.56944 283.7Q7.33134 283.641 7.09644 283.569Q6.86155 283.498 6.63044 283.415Q6.39932 283.333 6.17255 283.239Q5.94577 283.145 5.72388 283.04Q5.50198 282.935 5.2855 282.819Q5.06903 282.704 4.85849 282.577Q4.64795 282.451 4.44385 282.315Q4.23976 282.178 4.0426 282.032Q3.84545 281.886 3.6557 281.73Q3.46596 281.575 3.28408 281.41Q3.10221 281.245 2.92864 281.071Q2.75507 280.898 2.59023 280.716Q2.42539 280.534 2.26967 280.344Q2.11395 280.155 1.96773 279.957Q1.82151 279.76 1.68514 279.556Q1.54876 279.352 1.42257 279.142Q1.29638 278.931 1.18067 278.714Q1.06496 278.498 0.960011 278.276Q0.855062 278.054 0.761128 277.827Q0.667194 277.601 0.584501 277.37Q0.501807 277.138 0.430553 276.904Q0.3593 276.669 0.299657 276.431Q0.240015 276.192 0.192128 275.952Q0.144241 275.711 0.108224 275.468Q0.0722074 275.225 0.0481479 274.981Q0.0240885 274.737 0.0120442 274.492Q0 274.246 0 274.001L0 9.999Q0 9.75354 0.0120442 9.50837Q0.0240885 9.26321 0.0481479 9.01893Q0.0722074 8.77465 0.108224 8.53184Q0.144241 8.28904 0.192128 8.04829Q0.240015 7.80755 0.299657 7.56944Q0.3593 7.33134 0.430553 7.09644Q0.501807 6.86155 0.584501 6.63044Q0.667194 6.39932 0.761128 6.17255Q0.855062 5.94577 0.960011 5.72388Q1.06496 5.50198 1.18067 5.2855Q1.29638 5.06903 1.42257 4.85849Q1.54876 4.64795 1.68514 4.44385Q1.82151 4.23976 1.96773 4.0426Q2.11395 3.84545 2.26967 3.6557Q2.42539 3.46596 2.59023 3.28408Q2.75507 3.10221 2.92864 2.92864Q3.10221 2.75507 3.28408 2.59023Q3.46596 2.42539 3.6557 2.26967Q3.84545 2.11395 4.0426 1.96773Q4.23976 1.82151 4.44385 1.68514Q4.64795 1.54876 4.85849 1.42257Q5.06903 1.29638 5.2855 1.18067Q5.50198 1.06496 5.72388 0.960011Q5.94577 0.855062 6.17255 0.761128Q6.39932 0.667194 6.63044 0.584501Q6.86155 0.501807 7.09644 0.430553Q7.33134 0.3593 7.56944 0.299657Q7.80755 0.240015 8.04829 0.192128Q8.28904 0.144241 8.53184 0.108224Q8.77465 0.0722074 9.01893 0.0481479Q9.26321 0.0240885 9.50837 0.0120442Q9.75354 0 9.999 0Z" id="BG-BLACK" fill="#000000" fill-rule="evenodd" stroke="url(#gradient_1)" stroke-width="1" />
    <g id="blockchain" transform="translate(84 84)">
      <path d="M116.408 117.8L93.2112 117.8C92.4418 117.8 91.8193 117.178 91.8193 116.408L91.8193 106.201L75.2721 106.201L75.2721 116.408C75.2721 117.178 74.6497 117.8 73.8803 117.8L50.6833 117.8C49.9139 117.8 49.2915 117.178 49.2915 116.408L49.2915 106.201L32.7443 106.201L32.7443 116.408C32.7443 117.178 32.1218 117.8 31.3525 117.8L8.15546 117.8C7.38609 117.8 6.76364 117.178 6.76364 116.408L6.76364 93.2112C6.76364 92.4418 7.38609 91.8193 8.15546 91.8193L18.3621 91.8193L18.3621 75.2721L8.15546 75.2721C7.38609 75.2721 6.76364 74.6497 6.76364 73.8803L6.76364 50.6833C6.76364 49.9139 7.38609 49.2915 8.15546 49.2915L18.3621 49.2915L18.3621 32.7443L8.15546 32.7443C7.38609 32.7443 6.76364 32.1218 6.76364 31.3525L6.76364 8.15546C6.76364 7.38609 7.38609 6.76364 8.15546 6.76364L31.3525 6.76364C32.1218 6.76364 32.7443 7.38609 32.7443 8.15546L32.7443 18.3621L49.2915 18.3621L49.2915 8.15546C49.2915 7.38609 49.9139 6.76364 50.6833 6.76364L73.8803 6.76364C74.6497 6.76364 75.2721 7.38609 75.2721 8.15546L75.2721 18.3621L91.8155 18.3621L91.8155 8.15546C91.8155 7.38609 92.4379 6.76364 93.2073 6.76364L116.404 6.76364C117.174 6.76364 117.796 7.38609 117.796 8.15546L117.796 31.3525C117.796 32.1218 117.174 32.7443 116.404 32.7443L106.198 32.7443L106.198 49.2915L116.408 49.2915C117.178 49.2915 117.8 49.9139 117.8 50.6833L117.8 73.8803C117.8 74.6497 117.178 75.2721 116.408 75.2721L106.201 75.2721L106.201 91.8155L116.408 91.8155C117.178 91.8155 117.8 92.4379 117.8 93.2073L117.8 116.404C117.8 117.178 117.178 117.8 116.408 117.8ZM94.603 115.016L115.012 115.016L115.012 94.603L94.603 94.603L94.603 115.016ZM52.0751 115.016L72.4885 115.016L72.4885 94.603L52.0751 94.603C52.0751 94.603 52.0751 115.016 52.0751 115.016ZM9.54728 115.016L29.9606 115.016L29.9606 94.603L9.54728 94.603L9.54728 115.016ZM75.2721 103.418L91.8155 103.418L91.8155 93.2112C91.8155 92.4418 92.4379 91.8193 93.2073 91.8193L103.414 91.8193L103.414 75.2721L93.2112 75.2721C92.4418 75.2721 91.8193 74.6497 91.8193 73.8803L91.8193 63.6736L75.2721 63.6736L75.2721 73.8803C75.2721 74.6497 74.6497 75.2721 73.8803 75.2721L63.6736 75.2721L63.6736 91.8155L73.8803 91.8155C74.6497 91.8155 75.2721 92.4379 75.2721 93.2073L75.2721 103.418ZM32.7443 103.418L49.2915 103.418L49.2915 93.2112C49.2915 92.4418 49.9139 91.8193 50.6833 91.8193L60.89 91.8193L60.89 75.2721L50.6833 75.2721C49.9139 75.2721 49.2915 74.6497 49.2915 73.8803L49.2915 63.6736L32.7443 63.6736L32.7443 73.8803C32.7443 74.6497 32.1218 75.2721 31.3525 75.2721L21.1458 75.2721L21.1458 91.8155L31.3525 91.8155C32.1218 91.8155 32.7443 92.4379 32.7443 93.2073L32.7443 103.418ZM104.81 72.4885L115.016 72.4885L115.016 52.0751L94.603 52.0751L94.603 72.4885L104.81 72.4885ZM62.2818 72.4885L72.4885 72.4885L72.4885 52.0751L52.0751 52.0751L52.0751 72.4885L62.2818 72.4885ZM19.754 72.4885L29.9606 72.4885L29.9606 52.0751L9.54728 52.0751L9.54728 72.4885L19.754 72.4885ZM75.2721 60.89L91.8155 60.89L91.8155 50.6833C91.8155 49.9139 92.4379 49.2915 93.2073 49.2915L103.414 49.2915L103.414 32.7443L93.2112 32.7443C92.4418 32.7443 91.8193 32.1218 91.8193 31.3525L91.8193 21.1458L75.2721 21.1458L75.2721 31.3525C75.2721 32.1218 74.6497 32.7443 73.8803 32.7443L63.6736 32.7443L63.6736 49.2915L73.8803 49.2915C74.6497 49.2915 75.2721 49.9139 75.2721 50.6833L75.2721 60.89ZM32.7443 60.89L49.2915 60.89L49.2915 50.6833C49.2915 49.9139 49.9139 49.2915 50.6833 49.2915L60.89 49.2915L60.89 32.7443L50.6833 32.7443C49.9139 32.7443 49.2915 32.1218 49.2915 31.3525L49.2915 21.1458L32.7443 21.1458L32.7443 31.3525C32.7443 32.1218 32.1218 32.7443 31.3525 32.7443L21.1458 32.7443L21.1458 49.2915L31.3525 49.2915C32.1218 49.2915 32.7443 49.9139 32.7443 50.6833L32.7443 60.89ZM104.81 29.9606L115.016 29.9606L115.016 9.54728L94.603 9.54728L94.603 29.9606C94.603 29.9606 104.81 29.9606 104.81 29.9606ZM62.2818 29.9606L72.4885 29.9606L72.4885 9.54728L52.0751 9.54728L52.0751 29.9606C52.0751 29.9606 62.2818 29.9606 62.2818 29.9606ZM19.754 29.9606L29.9606 29.9606L29.9606 9.54728L9.54728 9.54728L9.54728 29.9606C9.54728 29.9606 19.754 29.9606 19.754 29.9606Z" id="blockchain_1_" fill="url(#gradient_2)" stroke="none" />
      <path d="M0 0L124 0L124 124L0 124L0 0Z" id="_Transparent_Rectangle" fill="none" fill-rule="evenodd" stroke="none" />
    </g>
  </g>
</svg>