<svg xmlns="http://www.w3.org/2000/svg" width="306.689" height="374.459" viewBox="0 0 306.689 374.459"><defs><style>.a{opacity:0.5;}.b{fill:#322289;isolation:isolate;}</style></defs><g class="a" transform="translate(-635.311 -1258.906)"><path class="b" d="M1308.8,449.117a2.418,2.418,0,1,1,2.418,2.418,2.419,2.419,0,0,1-2.418-2.418Z" transform="translate(-452.198 1160.402)"/><path class="b" d="M1367.356,491.176a2.421,2.421,0,1,1,2.421,2.422,2.419,2.419,0,0,1-2.421-2.422Z" transform="translate(-732.045 1060.162)"/><path class="b" d="M1364.021,540.179a3.536,3.536,0,1,1,3.536,3.536,3.535,3.535,0,0,1-3.536-3.536Z" transform="translate(-722.923 828.109)"/><path class="b" d="M1303.3,583.34a.924.924,0,1,1,.924.924h0A.924.924,0,0,1,1303.3,583.34Z" transform="translate(-436.116 676.49)"/><path class="b" d="M1351.3,562.866a2.979,2.979,0,1,1,2.981,2.978h0A2.98,2.98,0,0,1,1351.3,562.866Z" transform="translate(-675.87 748.963)"/><path class="b" d="M1343.914,488.921a1.506,1.506,0,1,1,1.506,1.506h0A1.507,1.507,0,0,1,1343.914,488.921Z" transform="translate(-645.792 1065.189)"/><path class="b" d="M1353.138,461.222a3.721,3.721,0,1,1,3.721,3.721h0A3.72,3.72,0,0,1,1353.138,461.222Z" transform="translate(-684.319 1132.053)"/><path class="b" d="M1324.525,450.582a1.245,1.245,0,1,1,1.245,1.245,1.245,1.245,0,0,1-1.245-1.245Z" transform="translate(-575.768 1156.463)"/><path class="b" d="M1339.176,432.584a1.375,1.375,0,1,1,1.375,1.375,1.375,1.375,0,0,1-1.375-1.375Z" transform="translate(-628.513 1199.406)"/><path class="b" d="M1315.294,437.708a1.771,1.771,0,1,1,1.771,1.771,1.77,1.77,0,0,1-1.771-1.771Z" transform="translate(-466.391 1187.348)"/><path class="b" d="M1267.256,472.927a3.526,3.526,0,1,1,3.526,3.526h0A3.526,3.526,0,0,1,1267.256,472.927Z" transform="translate(-355.413 1104.082)"/><path class="b" d="M1282.23,490.409a2.552,2.552,0,1,1,2.554,2.551h0A2.552,2.552,0,0,1,1282.23,490.409Z" transform="translate(-389.152 1062.047)"/><path class="b" d="M1250.553,519.441a3.1,3.1,0,1,1,3.1,3.1h0A3.1,3.1,0,0,1,1250.553,519.441Z" transform="translate(-314.756 899.574)"/><path class="b" d="M1312.138,539.309a3.248,3.248,0,1,1,3.248,3.248,3.247,3.247,0,0,1-3.248-3.248Z" transform="translate(-461.823 830.85)"/></g></svg>