<svg width="9" height="17" viewBox="0 0 9 17" fill="none" xmlns="http://www.w3.org/2000/svg">
<g clip-path="url(#clip0)">
<path d="M0.261993 8.659H2.044V16C2.044 16.0695 2.0716 16.1361 2.12074 16.1853C2.16987 16.2344 2.23651 16.262 2.306 16.262H5.328C5.39748 16.262 5.46413 16.2344 5.51326 16.1853C5.56239 16.1361 5.59 16.0695 5.59 16V8.7H7.639C7.70324 8.69993 7.76522 8.67626 7.81316 8.63349C7.86109 8.59072 7.89164 8.53182 7.89899 8.468L8.21 5.768C8.21423 5.73133 8.21066 5.69418 8.19952 5.65898C8.18839 5.62379 8.16994 5.59134 8.14539 5.56377C8.12085 5.5362 8.09075 5.51413 8.05708 5.499C8.0234 5.48388 7.98691 5.47604 7.95 5.476H5.59V3.775C5.59 3.265 5.865 3.006 6.407 3.006H7.95C8.01948 3.006 8.08613 2.9784 8.13526 2.92926C8.1844 2.88013 8.212 2.81349 8.212 2.744V0.264C8.21226 0.229426 8.20568 0.195141 8.19263 0.163123C8.17958 0.131104 8.16033 0.101985 8.13597 0.0774438C8.11162 0.0529026 8.08265 0.0334248 8.05073 0.0201331C8.01881 0.00684152 7.98457 -1.00728e-06 7.95 1.11219e-10L5.824 1.11219e-10H5.724C4.74469 0.00239419 3.79899 0.357386 3.06 1C2.71149 1.30468 2.44415 1.69117 2.282 2.12475C2.11984 2.55833 2.06795 3.0254 2.131 3.484V5.464H0.261993C0.192507 5.464 0.125871 5.4916 0.0767365 5.54074C0.0276019 5.58987 0 5.65651 0 5.726V8.4C0.000789733 8.46897 0.0287401 8.53484 0.0777893 8.58333C0.126839 8.63181 0.193023 8.659 0.261993 8.659V8.659Z" fill="white"/>
</g>
<defs>
<clipPath id="clip0">
<rect width="8.213" height="16.258" fill="white"/>
</clipPath>
</defs>
</svg>
