<svg xmlns="http://www.w3.org/2000/svg" xmlns:xlink="http://www.w3.org/1999/xlink" width="133.5" height="133.174" viewBox="0 0 133.5 133.174"><defs><style>.a{fill:none;}.b{fill:#432fb5;}.b,.c,.d,.e{stroke:#131031;}.b,.d{stroke-width:2px;}.c,.e{stroke-width:3px;}.c{fill:url(#a);}.d{fill:#eea528;}.e{fill:url(#b);}</style><linearGradient id="a" x1="0.164" y1="0.892" x2="1" y2="-0.074" gradientUnits="objectBoundingBox"><stop offset="0" stop-color="#e93725"/><stop offset="1" stop-color="#f0de2a"/></linearGradient><linearGradient id="b" x1="-0.332" y1="1.201" x2="1.211" y2="-0.207" xlink:href="#a"/></defs><g transform="translate(1.5 1.548)"><rect class="a" width="132" height="131.676" transform="translate(0 -0.049)"/><g transform="translate(0 -0.373)"><path class="b" d="M582.422,582.81a2.693,2.693,0,0,1-1.9-4.593l14.806-14.807c2.513-2.513,6.322,1.288,3.8,3.8C582.977,583.371,583.956,582.81,582.422,582.81Z" transform="translate(-509.198 -547.786)"/><path class="b" d="M571.421,559.116a2.693,2.693,0,0,1-1.9-4.593l2.112-2.113c2.513-2.513,6.322,1.288,3.8,3.8C573.341,558.309,572.834,559.116,571.421,559.116Z" transform="translate(-471.191 -551.585)"/><path class="b" d="M606,565.408a2.693,2.693,0,0,1-1.9-4.59l2.112-2.119c2.514-2.521,6.322,1.285,3.811,3.8C607.867,564.659,607.41,565.408,606,565.408Z" transform="translate(-551.401 -549.415)"/><path class="b" d="M617.01,612.357a2.694,2.694,0,0,1-1.9-4.593L653.17,569.7c2.513-2.513,6.322,1.288,3.8,3.8C616.025,614.455,618.6,612.357,617.01,612.357Z" transform="translate(-612.391 -545.978)"/><path class="b" d="M563.561,598.07a2.694,2.694,0,0,1-1.9-4.593l22.207-22.2c2.513-2.514,6.322,1.288,3.8,3.8C563.567,599.177,565.1,598.07,563.561,598.07Z" transform="translate(-472.848 -545.403)"/><path class="c" d="M639.552,617.188c15.479,0,23.373,18.851,12.367,29.857-11.1,11.093-29.855,3.024-29.855-12.363A17.484,17.484,0,0,1,639.552,617.188Zm-8.56,26.051v0a12.108,12.108,0,1,0,17.122-17.125c-7.685-7.684-20.671-2.092-20.671,8.564A12.018,12.018,0,0,0,630.992,643.239Z" transform="translate(-622.064 -530.179)"/><path class="d" d="M622.082,602.71c2.519-2.517,6.318,1.292,3.806,3.8l-14.8,14.806c-2.513,2.513-6.323-1.286-3.806-3.8Z" transform="translate(-571.318 -535.036)"/><path class="b" d="M590.536,626.289c2.516-2.516,6.318,1.3,3.8,3.81l-2.117,2.112c-2.514,2.512-6.32-1.3-3.8-3.808Z" transform="translate(-514.88 -527.321)"/><path class="b" d="M588.154,596.423c2.513-2.513,6.322,1.288,3.8,3.8l-29.606,29.608c-2.514,2.513-6.323-1.287-3.8-3.8Z" transform="translate(-472.907 -537.224)"/><path class="e" d="M642.171,590.583c-22.146,4.644-36.466,14.581-48.3,28.012-2.35,2.669-6.393-.884-4.038-3.554,1.969-2.238,4.076-4.48,6.261-6.663,19.9-19.9,47.886-23.647,49.068-23.8a2.694,2.694,0,0,1,3.008,3.01c-.151,1.181-3.9,29.168-23.8,49.066-5.942,5.942-6.756,6.633-8.1,6.633a2.693,2.693,0,0,1-1.783-4.706C627.605,626.981,637.548,612.635,642.171,590.583Z" transform="translate(-569.436 -541.057)"/></g></g></svg>