<svg xmlns="http://www.w3.org/2000/svg" xmlns:xlink="http://www.w3.org/1999/xlink" width="251.23" height="282.832" viewBox="0 0 251.23 282.832"><defs><style>.a,.e{fill:none;}.a{stroke:#624efd;stroke-miterlimit:10;opacity:0.7;}.b{fill:#26246d;}.c{mix-blend-mode:screen;isolation:isolate;fill:url(#a);}.d{fill:#432fb5;}.f{fill:#4426eb;}</style><radialGradient id="a" cx="0.5" cy="0.5" r="0.5" gradientTransform="matrix(1, 0, 0, -1, 0, 1)" gradientUnits="objectBoundingBox"><stop offset="0" stop-color="#3620db"/><stop offset="1" stop-color="#04081c" stop-opacity="0.012"/></radialGradient></defs><g transform="translate(-57.67 -401.119)"><path class="a" d="M1777.032,517.658h-43.575c-11.377,0-20.6-9.815-20.6-21.921V285.688c0-12.106-9.224-21.921-20.6-21.921H1559.978" transform="translate(1843.978 924.416) rotate(180)"/><g transform="translate(0 -30)"><circle class="b" cx="5.64" cy="5.64" r="5.64" transform="translate(290.229 695.279) rotate(180)"/><g transform="translate(260.95 713.95) rotate(-90)"><rect class="c" width="47.95" height="47.95"/><ellipse class="d" cx="5.047" cy="5.047" rx="5.047" ry="5.047" transform="translate(29.022 28.391) rotate(180)"/><ellipse class="e" cx="16.404" cy="16.404" rx="16.404" ry="16.404" transform="translate(40.379 39.748) rotate(180)"/><ellipse class="e" cx="11.357" cy="11.357" rx="11.357" ry="11.357" transform="translate(35.332 34.701) rotate(180)"/></g></g><path class="f" d="M1928.7,478.3a5.639,5.639,0,1,0-5.64-5.639A5.64,5.64,0,0,0,1928.7,478.3Z" transform="translate(-1865.388 -65.899)"/></g></svg>