<svg width="15" height="15" viewBox="0 0 15 15" fill="none" xmlns="http://www.w3.org/2000/svg">
<g clip-path="url(#clip0)">
<path d="M3.43999 4.73828H0.472985C0.409864 4.73828 0.349327 4.76335 0.304694 4.80798C0.26006 4.85262 0.234985 4.91316 0.234985 4.97628V14.5083C0.234985 14.5714 0.26006 14.6319 0.304694 14.6766C0.349327 14.7212 0.409864 14.7463 0.472985 14.7463H3.43999C3.50311 14.7463 3.56364 14.7212 3.60828 14.6766C3.65291 14.6319 3.67799 14.5714 3.67799 14.5083V4.97628C3.67799 4.91316 3.65291 4.85262 3.60828 4.80798C3.56364 4.76335 3.50311 4.73828 3.43999 4.73828Z" fill="white"/>
<path d="M1.95795 0C1.57122 4.54868e-07 1.19317 0.114643 0.871569 0.329438C0.549972 0.544234 0.299265 0.849542 0.151132 1.20678C0.00299937 1.56402 -0.0359107 1.95715 0.0393191 2.33649C0.114549 2.71584 0.300542 3.06437 0.573794 3.33804C0.847045 3.61171 1.19529 3.79824 1.57452 3.87405C1.95375 3.94986 2.34694 3.91155 2.7044 3.76397C3.06187 3.61638 3.36756 3.36614 3.58285 3.04488C3.79814 2.72361 3.91336 2.34573 3.91395 1.959C3.91395 1.43996 3.70797 0.942135 3.34123 0.574837C2.9745 0.20754 2.47699 0.000794854 1.95795 0V0Z" fill="white"/>
<path d="M10.986 4.50072C10.4991 4.49081 10.0156 4.58305 9.56659 4.77148C9.11756 4.95991 8.713 5.24035 8.37901 5.59472V4.97572C8.37901 4.9126 8.35394 4.85206 8.3093 4.80743C8.26467 4.7628 8.20413 4.73772 8.14101 4.73772H5.30001C5.23689 4.73772 5.17636 4.7628 5.13172 4.80743C5.08709 4.85206 5.06201 4.9126 5.06201 4.97572V14.5077C5.06201 14.5708 5.08709 14.6314 5.13172 14.676C5.17636 14.7206 5.23689 14.7457 5.30001 14.7457H8.26001C8.32313 14.7457 8.38367 14.7206 8.4283 14.676C8.47293 14.6314 8.49801 14.5708 8.49801 14.5077V9.79172C8.49801 8.20272 8.93001 7.58372 10.037 7.58372C11.243 7.58372 11.337 8.57672 11.337 9.87372V14.5077C11.337 14.5708 11.3621 14.6314 11.4067 14.676C11.4513 14.7206 11.5119 14.7457 11.575 14.7457H14.537C14.6001 14.7457 14.6607 14.7206 14.7053 14.676C14.7499 14.6314 14.775 14.5708 14.775 14.5077V9.27972C14.779 6.91672 14.329 4.50072 10.986 4.50072Z" fill="white"/>
</g>
<defs>
<clipPath id="clip0">
<rect width="14.779" height="14.747" fill="white"/>
</clipPath>
</defs>
</svg>
