<svg xmlns="http://www.w3.org/2000/svg" xmlns:xlink="http://www.w3.org/1999/xlink" width="121" height="133.004" viewBox="0 0 121 133.004"><defs><style>.a{fill:#432fb5;}.a,.b{stroke:#131031;}.b{fill:url(#a);}</style><linearGradient id="a" x1="1" y1="1.597" x2="1" y2="-0.331" gradientUnits="objectBoundingBox"><stop offset="0" stop-color="#e93725"/><stop offset="1" stop-color="#f0de2a"/></linearGradient></defs><g transform="translate(120.5 0.5) rotate(90)"><path class="a" d="M48.178,120c-10.953,0-16.3-.034-17.047-.221l-20.653-12.9A22,22,0,0,1,0,88.084C0,75.362,8.343,70.358,18,64.571c1.241-.75,2.493-1.5,3.741-2.275l.886-.547V7.5H68.024l.445-1.248A9.412,9.412,0,0,1,86.745,9.371a9.412,9.412,0,0,1-18.277,3.122l-.445-1.248H26.4V59.406l2.889-1.8a6.9,6.9,0,0,0,1.011-.765c.649-.57,3.251-.723,20.306-.723,5.254,0,11.858.015,20.185.03,14.181.03,33.352.071,59.326.071A1.886,1.886,0,0,1,132,58.1V118.07a1.886,1.886,0,0,1-1.886,1.874c-28.117,0-48.249.022-62.679.041ZM12.484,72.469a18.35,18.35,0,0,0,0,31.23L32.6,116.2h95.631V59.972H32.6l-6.2,3.849V76.966a2.934,2.934,0,0,0,2.244,2.8,5.476,5.476,0,0,1,2.542,1.728,9.254,9.254,0,0,1-.038,13.224,8.885,8.885,0,0,1-6.483,2.74,9.389,9.389,0,0,1-9.58-9.371,9.127,9.127,0,0,1,6.249-8.7l1.294-.427V66.164Zm11.952,9.94A5.38,5.38,0,0,0,20.547,84.1a5.308,5.308,0,0,0-1.309,5.963,5.976,5.976,0,0,0,5.356,3.7,5.388,5.388,0,0,0,3.888-1.705,5.3,5.3,0,0,0,1.331-5.956A5.991,5.991,0,0,0,24.436,82.409ZM77.317,3.748a5.622,5.622,0,1,0,5.657,5.622A5.647,5.647,0,0,0,77.317,3.748Z"/><g transform="translate(112.349 68.462)"><path class="b" d="M1.981,35.6A1.852,1.852,0,0,1,0,33.648V1.949A1.855,1.855,0,0,1,1.985,0,1.851,1.851,0,0,1,3.962,1.949v31.7a1.844,1.844,0,0,1-.571,1.462,2.144,2.144,0,0,1-1.411.487Z" transform="translate(0 0)"/></g><g transform="translate(97.913 68.462)"><path class="b" d="M1.981,35.6A1.852,1.852,0,0,1,0,33.648V1.949A1.855,1.855,0,0,1,1.985,0,1.851,1.851,0,0,1,3.962,1.949v31.7a1.844,1.844,0,0,1-.571,1.462,2.144,2.144,0,0,1-1.411.487Z" transform="translate(0 0)"/></g><g transform="translate(82.852 68.462)"><path class="b" d="M1.981,35.6A1.852,1.852,0,0,1,0,33.648V1.949A1.855,1.855,0,0,1,1.985,0,1.851,1.851,0,0,1,3.962,1.949v31.7a1.844,1.844,0,0,1-.571,1.462,2.144,2.144,0,0,1-1.411.487Z" transform="translate(0 0)"/></g><g transform="translate(37.698 100.129)"><path class="b" d="M1.949,3.962A1.851,1.851,0,0,1,0,1.985,2.147,2.147,0,0,1,.487.571,1.844,1.844,0,0,1,1.949,0,1.839,1.839,0,0,1,3.412.571,2.126,2.126,0,0,1,3.9,1.977,1.855,1.855,0,0,1,1.949,3.962Z" transform="translate(0)"/></g><g transform="translate(52.76 100.129)"><path class="b" d="M1.949,3.962A1.851,1.851,0,0,1,0,1.985,2.147,2.147,0,0,1,.487.571,1.844,1.844,0,0,1,1.949,0,1.839,1.839,0,0,1,3.412.571,2.126,2.126,0,0,1,3.9,1.977,1.855,1.855,0,0,1,1.949,3.962Z" transform="translate(0)"/></g><g transform="translate(67.822 100.129)"><path class="b" d="M1.949,3.962A1.851,1.851,0,0,1,0,1.985,2.147,2.147,0,0,1,.487.571,1.844,1.844,0,0,1,1.949,0,1.839,1.839,0,0,1,3.412.571,2.126,2.126,0,0,1,3.9,1.977,1.855,1.855,0,0,1,1.949,3.962Z" transform="translate(0)"/></g></g></svg>