<svg xmlns="http://www.w3.org/2000/svg" xmlns:xlink="http://www.w3.org/1999/xlink" width="47" height="47" viewBox="0 0 47 47"><defs><style>.a{fill:#fff;stroke:#707070;}.b{clip-path:url(#a);}.c{fill:#8d8a9b;opacity:0.2;}</style><clipPath id="a"><rect class="a" width="47" height="47" transform="translate(-0.412 -0.413)"/></clipPath></defs><g class="b" transform="translate(0.412 0.413)"><path class="c" d="M153.634,58.145l5.988,4.067A26.643,26.643,0,0,0,154.2,77.69v7.683H143.8V78.82a25.917,25.917,0,0,1,2.74-11.411A27.356,27.356,0,0,1,153.634,58.145Zm17.794,0,5.988,4.067a26.643,26.643,0,0,0-5.423,15.478v7.683H161.6V78.82a25.917,25.917,0,0,1,2.74-11.411A27.356,27.356,0,0,1,171.428,58.145Z" transform="translate(-137.649 -48.9)"/></g></svg>