<svg xmlns="http://www.w3.org/2000/svg" width="45.116" height="46.335" viewBox="0 0 45.116 46.335"><defs><style>.a{fill:none;}.b{fill:#1d173b;}</style></defs><rect class="a" width="45.116" height="46.335"/><path class="b" d="M42.1,66.122a9.127,9.127,0,0,1-2.592.713,4.53,4.53,0,0,0,1.986-2.5,8.97,8.97,0,0,1-2.868,1.1,4.513,4.513,0,0,0-7.81,3.087,4.42,4.42,0,0,0,.117,1.03,12.793,12.793,0,0,1-9.307-4.723,4.527,4.527,0,0,0,1.4,6.034,4.406,4.406,0,0,1-2.047-.564v.056A4.518,4.518,0,0,0,24.6,74.78a4.545,4.545,0,0,1-1.189.159,4.259,4.259,0,0,1-.849-.084,4.521,4.521,0,0,0,4.22,3.138,9.051,9.051,0,0,1-5.609,1.935,9.151,9.151,0,0,1-1.077-.065A12.822,12.822,0,0,0,39.865,69.045c0-.2,0-.392-.014-.583A9.266,9.266,0,0,0,42.1,66.122Z" transform="translate(-8.544 -49.783)"/></svg>