<svg xmlns="http://www.w3.org/2000/svg" xmlns:xlink="http://www.w3.org/1999/xlink" width="114" height="116.999" viewBox="0 0 114 116.999"><defs><style>.a{fill:none;}.b{fill:#432fb5;}.b,.c{stroke:#131031;}.c{fill:url(#a);}</style><linearGradient id="a" x1="-0.682" y1="-0.412" x2="1.831" y2="0.5" gradientUnits="objectBoundingBox"><stop offset="0" stop-color="#e93725"/><stop offset="1" stop-color="#f0de2a"/></linearGradient></defs><g transform="translate(0 0.5)"><rect class="a" width="114" height="114.398" transform="translate(0 1.602)"/><path class="b" d="M369.909-57.088a8.329,8.329,0,0,0-8.809.5L335.277-38.728a9.45,9.45,0,0,0-4.776-7.782L306.917-59.79a9.731,9.731,0,0,0-4.756-1.247H286.322v-3.309A1.642,1.642,0,0,0,284.69-66H271.632A1.642,1.642,0,0,0,270-64.346v47.974a1.643,1.643,0,0,0,1.632,1.654H284.69a1.643,1.643,0,0,0,1.632-1.654v-3.309h10.094a8.06,8.06,0,0,1,4.526,1.388l13.781,9.314a14.706,14.706,0,0,0,8.244,2.511,14.782,14.782,0,0,0,9.545-3.476l38.876-32.834a8.692,8.692,0,0,0,3.073-6.653A8.549,8.549,0,0,0,369.909-57.088ZM283.057-18.026h-9.793V-62.692h9.793ZM369.3-45.32,330.421-12.485a11.568,11.568,0,0,1-13.887.753l-13.782-9.314a11.277,11.277,0,0,0-6.336-1.944H286.322v-34.74h15.839a6.485,6.485,0,0,1,3.171.832l23.586,13.279a6.141,6.141,0,0,1,3.106,5.353,6.122,6.122,0,0,1-2.75,5.133,5.945,5.945,0,0,1-5.744.462l-20.852-9.393a1.627,1.627,0,0,0-2.156.84,1.666,1.666,0,0,0,.829,2.184L322.2-29.648a9.161,9.161,0,0,0,8.85-.71,9.383,9.383,0,0,0,3.263-3.7l28.624-19.793a5.146,5.146,0,0,1,5.443-.311,5.28,5.28,0,0,1,2.814,4.731A5.363,5.363,0,0,1,369.3-45.32Z" transform="translate(-265.284 122.467)"/><path class="c" d="M320.323-88.678l1.419,8.283a1.655,1.655,0,0,1-.657,1.618,1.657,1.657,0,0,1-1.744.126l-7.436-3.911-7.436,3.911a1.681,1.681,0,0,1-.771.19,1.665,1.665,0,0,1-.973-.316,1.655,1.655,0,0,1-.657-1.618l1.419-8.283-6.018-5.864a1.66,1.66,0,0,1-.418-1.7,1.658,1.658,0,0,1,1.337-1.125l8.314-1.209,3.72-7.533a1.72,1.72,0,0,1,2.964,0l3.72,7.533,8.314,1.209a1.658,1.658,0,0,1,1.337,1.125,1.66,1.66,0,0,1-.419,1.7Zm-4.551-6.746a1.651,1.651,0,0,1-1.246-.9l-2.62-5.308-2.62,5.308a1.651,1.651,0,0,1-1.246.9l-5.859.852,4.242,4.132a1.66,1.66,0,0,1,.475,1.464l-1,5.835,5.239-2.754a1.655,1.655,0,0,1,.771-.19,1.655,1.655,0,0,1,.771.19l5.239,2.754-1-5.835a1.66,1.66,0,0,1,.475-1.464l4.241-4.132Z" transform="translate(-252.797 106.954)"/><path class="c" d="M334.323-68.678l1.419,8.283a1.655,1.655,0,0,1-.657,1.618,1.66,1.66,0,0,1-1.744.126l-7.436-3.911-7.436,3.911a1.68,1.68,0,0,1-.771.19,1.666,1.666,0,0,1-.973-.316,1.655,1.655,0,0,1-.657-1.618l1.419-8.283-6.018-5.864a1.66,1.66,0,0,1-.418-1.7,1.658,1.658,0,0,1,1.337-1.125l8.314-1.209,3.72-7.533a1.72,1.72,0,0,1,2.964,0l3.72,7.533,8.314,1.209a1.658,1.658,0,0,1,1.337,1.125,1.661,1.661,0,0,1-.418,1.7Zm-4.551-6.746a1.651,1.651,0,0,1-1.246-.9l-2.62-5.309-2.62,5.309a1.651,1.651,0,0,1-1.246.9l-5.859.852,4.241,4.132a1.66,1.66,0,0,1,.475,1.464l-1,5.835,5.239-2.754a1.655,1.655,0,0,1,.771-.19,1.655,1.655,0,0,1,.771.19l5.239,2.754-1-5.835a1.66,1.66,0,0,1,.475-1.464l4.241-4.132Z" transform="translate(-286.841 112.93)"/><path class="c" d="M310.323-63.678l1.419,8.283a1.655,1.655,0,0,1-.657,1.618,1.661,1.661,0,0,1-1.744.126l-7.436-3.911-7.436,3.911a1.682,1.682,0,0,1-.771.19,1.665,1.665,0,0,1-.973-.316,1.655,1.655,0,0,1-.657-1.618l1.419-8.283-6.018-5.864a1.66,1.66,0,0,1-.418-1.7,1.658,1.658,0,0,1,1.337-1.125l8.314-1.209,3.72-7.534a1.72,1.72,0,0,1,2.965,0l3.72,7.534,8.314,1.209a1.658,1.658,0,0,1,1.337,1.125,1.661,1.661,0,0,1-.418,1.7Zm-4.551-6.746a1.651,1.651,0,0,1-1.246-.9l-2.62-5.309-2.62,5.309a1.651,1.651,0,0,1-1.246.9l-5.859.852,4.241,4.132a1.66,1.66,0,0,1,.475,1.464l-1,5.835,5.239-2.754a1.655,1.655,0,0,1,.771-.19,1.655,1.655,0,0,1,.771.19l5.239,2.754-1-5.835a1.66,1.66,0,0,1,.475-1.464l4.241-4.132Z" transform="translate(-228.48 118.027)"/></g></svg>