<svg xmlns="http://www.w3.org/2000/svg" width="45.116" height="46.335" viewBox="0 0 45.116 46.335"><defs><style>.a{fill:none;}.b{fill:#1d173b;fill-rule:evenodd;}</style></defs><rect class="a" width="45.116" height="46.335"/><path class="b" d="M284.916,282.652a10.583,10.583,0,0,0-3.146-7.535,10.8,10.8,0,0,0-15.186,0,10.582,10.582,0,0,0-1.662,12.94l-1.861,5.493-.147.434.437-.139,5.723-1.82a10.7,10.7,0,0,0,2.419.944,10.822,10.822,0,0,0,10.276-2.784A10.574,10.574,0,0,0,284.916,282.652Zm-15.82-5.305Zm2.57,4.194Zm-.094.318a8.906,8.906,0,0,0,.758,1.091,7.591,7.591,0,0,0,.857.9,7.5,7.5,0,0,0,2.132,1.335c.082.035.148.064.216.1a.468.468,0,0,0,.238.068.223.223,0,0,0,.129-.088h0c.111-.126.372-.427.591-.7.138-.169.265-.331.336-.439h0a.64.64,0,0,1,.474-.327,1.033,1.033,0,0,1,.468.088c.119.043.418.179.756.339.522.246,1.132.545,1.309.634h0l.14.066a1.1,1.1,0,0,1,.525.364h0a1.408,1.408,0,0,1,.056.745,4.06,4.06,0,0,1-.211.864,2.243,2.243,0,0,1-.853.969,3.337,3.337,0,0,1-1.357.588,1.491,1.491,0,0,0-.216.041c-.418.1-.885.214-3.47-.794a12.226,12.226,0,0,1-5.13-4.447l-.064-.093,0,0,0,0h0a5.944,5.944,0,0,1-1.266-3.2,3.465,3.465,0,0,1,1.055-2.566l.052-.055a1.387,1.387,0,0,1,.439-.326,1.262,1.262,0,0,1,.527-.122c.1,0,.215.007.321.014.085.005.167.011.251.011l.051,0c.239-.016.552-.036.834.637l.343.828c.251.606.523,1.262.57,1.357h0a.9.9,0,0,1,.1.318.724.724,0,0,1-.075.4h0l-.043.088a1.835,1.835,0,0,1-.283.452h0c-.059.068-.107.126-.156.184-.106.128-.213.255-.306.349h0C271.582,281.626,271.49,281.718,271.573,281.86Z" transform="translate(-249.776 -260.114)"/></svg>