<svg width="20" height="20" viewBox="0 0 20 20" fill="none" xmlns="http://www.w3.org/2000/svg">
<g clip-path="url(#clip0)">
<path d="M5.37052 0.199867L4.36865 1.2018C4.23486 1.33527 4.16818 1.48907 4.16818 1.66293C4.16818 1.8364 4.23486 1.99013 4.36865 2.1236L12.2445 9.99987L4.36886 17.8758C4.23508 18.0094 4.16839 18.1631 4.16839 18.3368C4.16839 18.5105 4.23508 18.6642 4.36886 18.7977L5.3708 19.7995C5.5043 19.9333 5.65803 20 5.83176 20C6.00534 20 6.15906 19.9331 6.29257 19.7995L15.6315 10.4609C15.765 10.3273 15.8318 10.1735 15.8318 9.99987C15.8318 9.82627 15.765 9.67273 15.6315 9.53927L6.29257 0.199867C6.159 0.0663333 6.00527 -5.74139e-07 5.83176 -5.76209e-07C5.65803 -5.7828e-07 5.5043 0.0663333 5.37052 0.199867Z" fill="black"/>
</g>
<defs>
<clipPath id="clip0">
<rect width="20" height="20" fill="white" transform="translate(0 20) rotate(-90)"/>
</clipPath>
</defs>
</svg>
