<svg width="20" height="20" viewBox="0 0 20 20" fill="none" xmlns="http://www.w3.org/2000/svg">
<g clip-path="url(#clip0)">
<path d="M14.6295 19.8001L15.6314 18.7982C15.7651 18.6647 15.8318 18.5109 15.8318 18.3371C15.8318 18.1636 15.7651 18.0099 15.6314 17.8764L7.75552 10.0001L15.6311 2.12418C15.7649 1.9906 15.8316 1.83688 15.8316 1.66322C15.8316 1.48949 15.7649 1.33577 15.6311 1.20227L14.6292 0.200471C14.4957 0.0666833 14.342 -6.51232e-08 14.1682 -7.27171e-08C13.9947 -8.03048e-08 13.8409 0.0668939 13.7074 0.200471L4.36852 9.53913C4.23499 9.67267 4.16819 9.82647 4.16819 10.0001C4.16819 10.1737 4.23499 10.3273 4.36852 10.4607L13.7074 19.8001C13.841 19.9337 13.9947 20 14.1682 20C14.342 20 14.4957 19.9337 14.6295 19.8001Z" fill="black"/>
</g>
<defs>
<clipPath id="clip0">
<rect width="20" height="20" fill="white" transform="translate(20) rotate(90)"/>
</clipPath>
</defs>
</svg>
