<svg width="24" height="24" viewBox="0 0 24 24" fill="none" xmlns="http://www.w3.org/2000/svg">
<path d="M3 19.1367C3 14.8477 3 10.5586 3 6.26953C3.00879 6.24809 3.02145 6.2277 3.02602 6.2052C3.27668 5.04258 4.06172 4.4066 5.24754 4.40625C5.47922 4.40625 5.7109 4.40625 5.95312 4.40625C5.95312 3.92215 5.95312 3.46125 5.95312 3C6.42176 3 6.89074 3 7.35938 3C7.35938 3.46582 7.35938 3.93129 7.35938 4.39535C10.4654 4.39535 13.5469 4.39535 16.6406 4.39535C16.6406 3.92285 16.6406 3.4616 16.6406 3C17.1093 3 17.5782 3 18.0469 3C18.0469 3.46547 18.0469 3.93059 18.0469 4.40766C18.3622 4.40766 18.654 4.39887 18.9455 4.40941C19.6162 4.43402 20.1577 4.71844 20.5725 5.24613C20.8098 5.54812 20.9213 5.9018 21.0004 6.26953C21.0004 10.5586 21.0004 14.8477 21.0004 19.1367C20.9891 19.1754 20.9747 19.2134 20.967 19.2524C20.7964 20.0828 20.3074 20.6326 19.5066 20.9047C19.3867 20.9455 19.2605 20.9687 19.1374 21C14.3797 21 9.62168 21 4.86398 21C4.83691 20.9898 4.8109 20.975 4.78313 20.9705C4.20094 20.8784 3.74426 20.5837 3.39445 20.1141C3.17684 19.8226 3.07664 19.4848 3 19.1367ZM4.40625 9.61289C4.40625 9.68531 4.40625 9.74297 4.40625 9.80027C4.40625 12.7942 4.40625 15.7877 4.40625 18.7816C4.40625 19.3181 4.68117 19.5938 5.21625 19.5938C9.7391 19.5941 14.262 19.5941 18.7848 19.5938C19.3192 19.5938 19.5934 19.3178 19.5934 18.7802C19.5937 15.7863 19.5934 12.7928 19.5934 9.79887C19.5934 9.7377 19.5934 9.67617 19.5934 9.61289C14.5214 9.61289 9.47754 9.61289 4.40625 9.61289ZM4.41012 8.19047C9.4807 8.19047 14.533 8.19047 19.5913 8.19047C19.5913 7.61004 19.5997 7.04227 19.5881 6.47484C19.5814 6.1493 19.341 5.86523 19.0186 5.83254C18.7022 5.8002 18.3798 5.82551 18.0409 5.82551C18.0409 6.29273 18.0409 6.75188 18.0409 7.21031C17.567 7.21031 17.1121 7.21031 16.6382 7.21031C16.6382 6.74273 16.6382 6.28359 16.6382 5.82551C13.5353 5.82551 10.4517 5.82551 7.3548 5.82551C7.3548 6.29309 7.3548 6.74766 7.3548 7.20785C6.88266 7.20785 6.42387 7.20785 5.94609 7.20785C5.94609 6.73781 5.94609 6.27902 5.94609 5.8125C5.68699 5.8125 5.44723 5.8125 5.20746 5.8125C5.1607 5.8125 5.11359 5.8118 5.06684 5.81531C4.71492 5.84168 4.42418 6.10781 4.41434 6.45832C4.39852 7.03137 4.41012 7.60512 4.41012 8.19047Z" fill="#5E5E5E"/>
<path d="M7.06821 12.4837C6.60626 12.4837 6.15204 12.4837 5.68481 12.4837C5.68481 12.0256 5.68481 11.5672 5.68481 11.0972C6.14149 11.0972 6.59993 11.0972 7.06821 11.0972C7.06821 11.5588 7.06821 12.0172 7.06821 12.4837Z" fill="#5E5E5E"/>
<path d="M8.49658 11.0937C8.96346 11.0937 9.41768 11.0937 9.88103 11.0937C9.88103 11.5556 9.88103 12.0099 9.88103 12.4781C9.42611 12.4781 8.96768 12.4781 8.49658 12.4781C8.49658 12.0246 8.49658 11.5662 8.49658 11.0937Z" fill="#5E5E5E"/>
<path d="M11.304 12.4788C11.304 12.0144 11.304 11.5602 11.304 11.0958C11.7694 11.0958 12.2275 11.0958 12.6947 11.0958C12.6947 11.557 12.6947 12.0112 12.6947 12.4788C12.237 12.4788 11.7789 12.4788 11.304 12.4788Z" fill="#5E5E5E"/>
<path d="M14.1228 11.0927C14.5865 11.0927 15.0407 11.0927 15.5051 11.0927C15.5051 11.5578 15.5051 12.0162 15.5051 12.4834C15.0446 12.4834 14.5904 12.4834 14.1228 12.4834C14.1228 12.0268 14.1228 11.5683 14.1228 11.0927Z" fill="#5E5E5E"/>
<path d="M16.9338 11.0944C17.4021 11.0944 17.8563 11.0944 18.3193 11.0944C18.3193 11.5567 18.3193 12.0109 18.3193 12.4789C17.8627 12.4789 17.4042 12.4789 16.9338 12.4789C16.9338 12.0236 16.9338 11.5652 16.9338 11.0944Z" fill="#5E5E5E"/>
<path d="M7.06652 15.2963C6.59754 15.2963 6.14332 15.2963 5.68066 15.2963C5.68066 14.8336 5.68066 14.3794 5.68066 13.9118C6.13805 13.9118 6.59648 13.9118 7.06652 13.9118C7.06652 14.3674 7.06652 14.8259 7.06652 15.2963Z" fill="#5E5E5E"/>
<path d="M9.88299 13.9108C9.88299 14.3776 9.88299 14.8319 9.88299 15.2952C9.42104 15.2952 8.96682 15.2952 8.49854 15.2952C8.49854 14.8403 8.49854 14.3819 8.49854 13.9108C8.95205 13.9108 9.41049 13.9108 9.88299 13.9108Z" fill="#5E5E5E"/>
<path d="M12.69 15.2973C12.2249 15.2973 11.7707 15.2973 11.3066 15.2973C11.3066 14.836 11.3066 14.3818 11.3066 13.9128C11.7602 13.9128 12.2186 13.9128 12.69 13.9128C12.69 14.365 12.69 14.8234 12.69 15.2973Z" fill="#5E5E5E"/>
<path d="M14.1172 15.2924C14.1172 14.8255 14.1172 14.3713 14.1172 13.908C14.5791 13.908 15.0334 13.908 15.5016 13.908C15.5016 14.3632 15.5016 14.8217 15.5016 15.2924C15.0481 15.2924 14.5897 15.2924 14.1172 15.2924Z" fill="#5E5E5E"/>
<path d="M18.3147 15.298C17.851 15.298 17.3968 15.298 16.9324 15.298C16.9324 14.8329 16.9324 14.3745 16.9324 13.9072C17.3929 13.9072 17.8471 13.9072 18.3147 13.9072C18.3147 14.3639 18.3147 14.8223 18.3147 15.298Z" fill="#5E5E5E"/>
<path d="M7.07183 16.725C7.07183 17.1866 7.07183 17.6408 7.07183 18.1059C6.60776 18.1059 6.14933 18.1059 5.6814 18.1059C5.6814 17.6478 5.6814 17.1933 5.6814 16.725C6.13597 16.725 6.5944 16.725 7.07183 16.725Z" fill="#5E5E5E"/>
<path d="M9.88266 16.7208C9.88266 17.1831 9.88266 17.6373 9.88266 18.1042C9.42422 18.1042 8.96578 18.1042 8.49609 18.1042C8.49609 17.6471 8.49609 17.1887 8.49609 16.7208C8.95312 16.7208 9.40734 16.7208 9.88266 16.7208Z" fill="#5E5E5E"/>
<path d="M12.6895 18.1108C12.2268 18.1108 11.7726 18.1108 11.3079 18.1108C11.3079 17.646 11.3079 17.1876 11.3079 16.72C11.7674 16.72 12.2216 16.72 12.6895 16.72C12.6895 17.1757 12.6895 17.6341 12.6895 18.1108Z" fill="#5E5E5E"/>
<path d="M14.1216 16.7187C14.5885 16.7187 15.0427 16.7187 15.506 16.7187C15.506 17.1806 15.506 17.6349 15.506 18.1031C15.0508 18.1031 14.5923 18.1031 14.1216 18.1031C14.1216 17.6496 14.1216 17.1912 14.1216 16.7187Z" fill="#5E5E5E"/>
</svg>
