<svg width="48" height="48" viewBox="0 0 48 48" fill="none" xmlns="http://www.w3.org/2000/svg">
<g style="mix-blend-mode:multiply">
<path d="M38.4966 17.824C36.494 17.0382 34.6204 17.1874 33.1591 18.1991V17.2404C33.4838 17.3103 33.9455 17.381 34.4829 17.381C34.4829 17.381 34.4829 17.381 34.4864 17.381C35.3616 17.381 36.1358 17.1876 36.7895 16.8116C38.5486 15.79 39.1095 13.5338 39.134 13.4376C39.2132 13.1059 39.0163 12.7719 38.6778 12.6603C38.6443 12.6499 37.8619 12.4058 36.877 12.4058C36.0016 12.4058 35.2274 12.5969 34.5792 12.9681C33.9662 13.3249 33.5098 13.8264 33.1593 14.3388V12.8834C33.1593 12.5173 32.8446 12.2199 32.4589 12.2199C32.0729 12.2199 31.7585 12.5173 31.7585 12.8834V18.1953C31.4 17.9486 31.0198 17.7549 30.6151 17.6143C28.9957 12.3594 23.879 8.70581 18.0718 8.70581C10.8634 8.70557 5 14.2618 5 21.0889C5 27.9168 10.8649 33.4726 18.0718 33.4726C20.9935 33.4726 23.8262 32.5319 26.12 30.8319C27.5836 32.3894 29.3072 33.4726 30.924 33.4726C31.348 33.4726 31.7555 33.3947 32.1277 33.2496C32.2397 33.2084 32.3466 33.1563 32.4586 33.0969C32.5684 33.1563 32.6746 33.2055 32.7799 33.2472C33.1591 33.3947 33.5665 33.4726 33.9925 33.4726C33.9925 33.4726 33.9925 33.4726 33.995 33.4726C37.047 33.4726 40.5079 29.596 41.8277 25.981C43.2201 22.1721 42.0037 19.2001 38.4966 17.824ZM35.3124 14.1025C35.7373 13.8572 36.2628 13.735 36.8767 13.735C37.1229 13.735 37.3504 13.7533 37.5487 13.7819C37.3017 14.3743 36.8305 15.2378 36.0618 15.6839C35.6323 15.9306 35.1016 16.0568 34.4887 16.0568H34.4864C34.2425 16.0568 34.016 16.0355 33.8185 16.0102C34.0647 15.4149 34.5352 14.554 35.3124 14.1025ZM18.7732 32.1171V30.101C18.7732 29.7359 18.4615 29.4376 18.073 29.4376C17.6878 29.4376 17.3728 29.7359 17.3728 30.101V32.1143C11.4774 31.7802 6.76008 27.2922 6.43336 21.7004H8.50342C8.88913 21.7004 9.20385 21.4026 9.20385 21.037C9.20385 20.6693 8.88913 20.3738 8.50342 20.3738H6.44036C6.82008 14.8313 11.5181 10.3997 17.3753 10.0679V11.9706C17.3753 12.3355 17.689 12.6341 18.0758 12.6341C18.4615 12.6341 18.7762 12.3355 18.7762 11.9706V10.063C23.424 10.3251 27.4796 13.1961 29.0555 17.329C28.2183 17.3076 27.3346 17.467 26.4237 17.824C22.918 19.1999 21.7029 22.1721 23.0903 25.981C23.5682 27.2844 24.3264 28.6269 25.2411 29.8058C23.3808 31.1767 21.1252 31.985 18.7732 32.1171ZM40.5076 25.5484C39.1093 29.3888 35.4324 32.853 33.3156 32.0212C33.1918 31.9748 33.0578 31.8976 32.8908 31.7712C32.7651 31.6793 32.6146 31.6341 32.4586 31.6341C32.3059 31.6341 32.1519 31.6793 32.0249 31.7712C31.8624 31.8943 31.727 31.9734 31.5955 32.0212C29.5259 32.8326 25.8058 29.3872 24.4082 25.546C22.9588 21.5683 24.9928 19.8181 26.9544 19.0486C28.9842 18.2483 30.6996 18.6305 31.8857 20.1962C31.8967 20.2093 31.9142 20.2145 31.9232 20.2254C31.9664 20.2772 32.0212 20.3182 32.0812 20.3549C32.1087 20.3724 32.1279 20.3911 32.1579 20.4041C32.2457 20.4432 32.3469 20.4735 32.4534 20.4735C32.5629 20.4735 32.6614 20.4458 32.7521 20.4015C32.7801 20.3911 32.7989 20.3736 32.8241 20.3596C32.8871 20.3203 32.9423 20.2772 32.9901 20.2225C32.9993 20.209 33.0158 20.2038 33.0228 20.1948C34.2097 18.6276 35.9223 18.2469 37.9549 19.0467C39.9219 19.8193 41.9572 21.5709 40.5076 25.5484ZM18.7732 15.1213V21.2572C18.7732 21.4154 18.7129 21.5709 18.6035 21.6903L15.2768 25.3384C15.1375 25.4914 14.9436 25.5692 14.7463 25.5692C14.5853 25.5692 14.4226 25.5148 14.2899 25.4061C13.9971 25.1674 13.9666 24.7481 14.2181 24.4706L17.3726 21.0117V15.1227C17.3726 14.7555 17.6875 14.4593 18.0728 14.4593C18.4615 14.4581 18.7732 14.7543 18.7732 15.1213Z" fill="#5D6CFD"/>
<path d="M38.4966 17.824C36.494 17.0382 34.6204 17.1874 33.1591 18.1991V17.2404C33.4838 17.3103 33.9455 17.381 34.4829 17.381C34.4829 17.381 34.4829 17.381 34.4864 17.381C35.3616 17.381 36.1358 17.1876 36.7895 16.8116C38.5486 15.79 39.1095 13.5338 39.134 13.4376C39.2132 13.1059 39.0163 12.7719 38.6778 12.6603C38.6443 12.6499 37.8619 12.4058 36.877 12.4058C36.0016 12.4058 35.2274 12.5969 34.5792 12.9681C33.9662 13.3249 33.5098 13.8264 33.1593 14.3388V12.8834C33.1593 12.5173 32.8446 12.2199 32.4589 12.2199C32.0729 12.2199 31.7585 12.5173 31.7585 12.8834V18.1953C31.4 17.9486 31.0198 17.7549 30.6151 17.6143C28.9957 12.3594 23.879 8.70581 18.0718 8.70581C10.8634 8.70557 5 14.2618 5 21.0889C5 27.9168 10.8649 33.4726 18.0718 33.4726C20.9935 33.4726 23.8262 32.5319 26.12 30.8319C27.5836 32.3894 29.3072 33.4726 30.924 33.4726C31.348 33.4726 31.7555 33.3947 32.1277 33.2496C32.2397 33.2084 32.3466 33.1563 32.4586 33.0969C32.5684 33.1563 32.6746 33.2055 32.7799 33.2472C33.1591 33.3947 33.5665 33.4726 33.9925 33.4726C33.9925 33.4726 33.9925 33.4726 33.995 33.4726C37.047 33.4726 40.5079 29.596 41.8277 25.981C43.2201 22.1721 42.0037 19.2001 38.4966 17.824ZM35.3124 14.1025C35.7373 13.8572 36.2628 13.735 36.8767 13.735C37.1229 13.735 37.3504 13.7533 37.5487 13.7819C37.3017 14.3743 36.8305 15.2378 36.0618 15.6839C35.6323 15.9306 35.1016 16.0568 34.4887 16.0568H34.4864C34.2425 16.0568 34.016 16.0355 33.8185 16.0102C34.0647 15.4149 34.5352 14.554 35.3124 14.1025ZM18.7732 32.1171V30.101C18.7732 29.7359 18.4615 29.4376 18.073 29.4376C17.6878 29.4376 17.3728 29.7359 17.3728 30.101V32.1143C11.4774 31.7802 6.76008 27.2922 6.43336 21.7004H8.50342C8.88913 21.7004 9.20385 21.4026 9.20385 21.037C9.20385 20.6693 8.88913 20.3738 8.50342 20.3738H6.44036C6.82008 14.8313 11.5181 10.3997 17.3753 10.0679V11.9706C17.3753 12.3355 17.689 12.6341 18.0758 12.6341C18.4615 12.6341 18.7762 12.3355 18.7762 11.9706V10.063C23.424 10.3251 27.4796 13.1961 29.0555 17.329C28.2183 17.3076 27.3346 17.467 26.4237 17.824C22.918 19.1999 21.7029 22.1721 23.0903 25.981C23.5682 27.2844 24.3264 28.6269 25.2411 29.8058C23.3808 31.1767 21.1252 31.985 18.7732 32.1171ZM40.5076 25.5484C39.1093 29.3888 35.4324 32.853 33.3156 32.0212C33.1918 31.9748 33.0578 31.8976 32.8908 31.7712C32.7651 31.6793 32.6146 31.6341 32.4586 31.6341C32.3059 31.6341 32.1519 31.6793 32.0249 31.7712C31.8624 31.8943 31.727 31.9734 31.5955 32.0212C29.5259 32.8326 25.8058 29.3872 24.4082 25.546C22.9588 21.5683 24.9928 19.8181 26.9544 19.0486C28.9842 18.2483 30.6996 18.6305 31.8857 20.1962C31.8967 20.2093 31.9142 20.2145 31.9232 20.2254C31.9664 20.2772 32.0212 20.3182 32.0812 20.3549C32.1087 20.3724 32.1279 20.3911 32.1579 20.4041C32.2457 20.4432 32.3469 20.4735 32.4534 20.4735C32.5629 20.4735 32.6614 20.4458 32.7521 20.4015C32.7801 20.3911 32.7989 20.3736 32.8241 20.3596C32.8871 20.3203 32.9423 20.2772 32.9901 20.2225C32.9993 20.209 33.0158 20.2038 33.0228 20.1948C34.2097 18.6276 35.9223 18.2469 37.9549 19.0467C39.9219 19.8193 41.9572 21.5709 40.5076 25.5484ZM18.7732 15.1213V21.2572C18.7732 21.4154 18.7129 21.5709 18.6035 21.6903L15.2768 25.3384C15.1375 25.4914 14.9436 25.5692 14.7463 25.5692C14.5853 25.5692 14.4226 25.5148 14.2899 25.4061C13.9971 25.1674 13.9666 24.7481 14.2181 24.4706L17.3726 21.0117V15.1227C17.3726 14.7555 17.6875 14.4593 18.0728 14.4593C18.4615 14.4581 18.7732 14.7543 18.7732 15.1213Z" stroke="#5D6CFD" stroke-width="0.5"/>
</g>
<g style="mix-blend-mode:multiply">
<ellipse cx="26.8261" cy="32.7612" rx="16.8261" ry="6.76121" fill="#B2F5EC"/>
</g>
<g style="mix-blend-mode:color-burn">
<ellipse cx="26.8261" cy="32.7612" rx="16.8261" ry="6.76121" fill="#B2F5EC"/>
</g>
</svg>
