<svg width="48" height="48" viewBox="0 0 48 48" fill="none" xmlns="http://www.w3.org/2000/svg">
<path fill-rule="evenodd" clip-rule="evenodd" d="M14.9374 11.0727L14.9784 12.0454H11.4892H8V27.4522V42.8589L17.3703 42.8605L26.7406 42.862L26.9653 43.2493C27.5947 44.3343 28.9313 45.0364 30.1872 44.9415C30.4659 44.9205 31.0449 44.7918 31.4737 44.6557L32.2535 44.4081L32.9943 44.6511C34.2901 45.0762 35.1096 45.0436 36.1184 44.5272C36.7008 44.2289 37.3774 43.5624 37.6473 43.021C37.8664 42.5814 39.5169 37.7241 39.6636 37.0868C39.8241 36.3901 39.8098 35.381 39.6293 34.6582C39.3475 33.5307 38.5765 32.3487 37.6951 31.6929L37.2767 31.3817L37.2735 21.7143L37.2703 12.047L33.7641 12.0267L30.258 12.0065L30.2708 11.0533L30.2837 10.1001H22.59H14.8963L14.9374 11.0727ZM28.0711 12.189C28.0711 12.365 27.4391 13.2218 27.0418 13.5842C26.4864 14.0908 25.4441 14.6213 24.5358 14.8595C23.9526 15.0124 23.6663 15.0384 22.5971 15.0353C21.4884 15.0321 21.2569 15.0079 20.6034 14.8274C19.6348 14.5598 18.739 14.0762 18.1228 13.4882C17.639 13.0265 17.1992 12.4249 17.1992 12.2247C17.1992 12.1422 18.2166 12.1232 22.6352 12.1232C25.6249 12.1232 28.0711 12.1528 28.0711 12.189ZM16.2586 14.5169C17.4869 15.945 19.5149 16.8955 21.754 17.0924C24.5252 17.3361 27.1437 16.4348 28.8202 14.6603L29.3793 14.0685H32.2984H35.2176V19.2819C35.2176 22.1493 35.2262 24.5144 35.2366 24.5377C35.247 24.561 35.0213 24.6639 34.7349 24.7663C33.0759 25.3596 31.7673 26.8429 31.3783 28.5709C31.3194 28.8329 31.2653 29.3828 31.2582 29.7929L31.2453 30.5384L30.2854 30.5344C29.6007 30.5316 29.1839 30.5694 28.8313 30.6663C28.2101 30.8372 27.3231 31.2631 26.853 31.6163L26.4921 31.8874H22.5657H18.6392L18.6605 32.8795L18.6818 33.8716L21.8645 33.8919C24.8481 33.911 25.0447 33.9207 25.0057 34.0476C24.484 35.747 24.5373 36.4564 25.372 38.9206C25.6781 39.8242 25.9524 40.6248 25.9816 40.6996C26.0319 40.8288 25.6218 40.8358 18.0057 40.8358H9.9767V27.4522V14.0685H12.9249H15.873L16.2586 14.5169ZM13.8164 20.3709L12.6021 21.6156L13.2835 22.3162C13.6583 22.7016 14.0003 23.0169 14.0434 23.0169C14.0866 23.0169 14.6606 22.4648 15.3188 21.7901L16.5156 20.5634L15.8106 19.8448C15.4229 19.4496 15.0888 19.1263 15.0681 19.1263C15.0475 19.1263 14.4842 19.6864 13.8164 20.3709ZM18.6768 20.2396C18.6558 20.2956 18.6484 20.7596 18.6602 21.2706L18.6818 22.1998L24.3268 22.2198L29.9717 22.2398V21.1888V20.1378H24.3434C19.7772 20.1378 18.7078 20.1571 18.6768 20.2396ZM13.8716 26.2281L12.6369 27.4935L13.3417 28.2118L14.0464 28.93L15.281 27.6647L16.5157 26.3993L15.8109 25.681L15.1062 24.9627L13.8716 26.2281ZM18.6437 27.0631V28.0746H24.3077H29.9717V27.0631V26.0515H24.3077H18.6437V27.0631ZM35.234 28.6701L35.2124 30.5257L34.2184 30.5292L33.2245 30.5327L33.2588 29.79C33.2987 28.9253 33.4732 28.3904 33.9069 27.8023C34.1769 27.4361 35.0967 26.7144 35.2057 26.7831C35.2331 26.8005 35.2459 27.6496 35.234 28.6701ZM13.8355 32.076L12.6386 33.331L13.3426 34.0484L14.0464 34.7659L15.281 33.5005L16.5157 32.2352L15.8107 31.5167C15.4229 31.1214 15.0892 30.8032 15.069 30.8096C15.049 30.8159 14.4938 31.3858 13.8355 32.076ZM31.4971 32.7873L32.2364 32.9869L32.9477 32.7874C34.5819 32.3289 35.961 32.6704 36.9297 33.773C37.5505 34.4797 37.8562 35.3569 37.7778 36.2058C37.7409 36.6048 36.7107 39.8047 35.9849 41.7747C35.7548 42.3993 35.3196 42.77 34.6768 42.8889C34.4671 42.9278 34.1464 42.8584 33.3229 42.5965L32.2438 42.2533L31.4309 42.5179C30.1447 42.9366 30.0091 42.9589 29.5586 42.8248C29.0647 42.6778 28.6562 42.2737 28.4606 41.7383C28.381 41.5201 27.9625 40.3086 27.5308 39.0461L26.7458 36.7507L26.7432 35.932C26.7408 35.1589 26.7547 35.0841 26.9939 34.5867C27.425 33.6905 28.3778 32.8859 29.2585 32.6743C29.8449 32.5334 30.7201 32.5776 31.4971 32.7873Z" fill="#5D6CFD"/>
<g style="mix-blend-mode:multiply">
<ellipse cx="30.9125" cy="21.175" rx="16.9125" ry="7.175" fill="#B2F5EC"/>
</g>
<g style="mix-blend-mode:color-burn">
<ellipse cx="30.9125" cy="21.175" rx="16.9125" ry="7.175" fill="#B2F5EC"/>
</g>
</svg>
