<svg width="48" height="48" viewBox="0 0 48 48" fill="none" xmlns="http://www.w3.org/2000/svg">
<path fill-rule="evenodd" clip-rule="evenodd" d="M20.9447 7.7203C20.4727 7.3916 19.8238 7.50787 19.4954 7.98023L14.0101 15.8632H10.0412C9.46611 15.8632 9 16.3294 9 16.9044C9 17.4795 9.46611 17.9456 10.0412 17.9456H11.255L13.8761 32.3617C13.9663 32.8566 14.3974 33.2165 14.9006 33.2165H33.8503C34.3536 33.2165 34.7846 32.8565 34.8745 32.3613L37.4955 17.9456H38.7088C39.2839 17.9456 39.7499 17.4795 39.7499 16.9044C39.75 16.3294 39.2839 15.8632 38.7088 15.8632H35.2275L29.7423 7.98032C29.4137 7.50868 28.7654 7.39169 28.2926 7.72039C27.821 8.04903 27.7044 8.69772 28.0327 9.16972L32.6903 15.8632H16.5471L21.2047 9.16964C21.533 8.69763 21.4167 8.04864 20.9447 7.7203ZM13.3714 17.9456H14.529L14.5532 17.9459L14.5773 17.9456H34.6567C34.666 17.9458 34.6753 17.946 34.6845 17.946C34.6886 17.946 34.6926 17.9459 34.6967 17.9459C34.7019 17.9458 34.7071 17.9457 34.7123 17.9456H35.3795L32.9813 31.1341H15.7696L13.3714 17.9456ZM28.1237 20.3261C28.5339 19.9232 29.193 19.9295 29.596 20.34C29.9989 20.7506 29.993 21.4097 29.5824 21.8122L23.9253 27.3653C23.723 27.5638 23.4595 27.6634 23.1954 27.6634C22.9434 27.6634 22.6915 27.5725 22.4919 27.3899L19.1601 24.3358C18.7363 23.9471 18.7075 23.2883 19.0962 22.8646C19.4849 22.4404 20.1433 22.4123 20.5674 22.8004L23.1711 25.1872L28.1237 20.3261Z" fill="#5D6CFD"/>
<g style="mix-blend-mode:multiply">
<ellipse cx="23.9125" cy="30.625" rx="16.9125" ry="7.175" fill="#B2F5EC"/>
</g>
<g style="mix-blend-mode:color-burn">
<ellipse cx="23.9125" cy="30.625" rx="16.9125" ry="7.175" fill="#B2F5EC"/>
</g>
</svg>
