<svg width="48" height="48" viewBox="0 0 48 48" fill="none" xmlns="http://www.w3.org/2000/svg">
<g clip-path="url(#clip0)">
<path d="M24.35 17.175C22.8815 17.175 10 17.0745 10 13.5875C10 10.1005 22.8815 10 24.35 10C25.8185 10 38.7 10.1005 38.7 13.5875C38.7 17.0745 25.8185 17.175 24.35 17.175ZM11.899 13.5875C12.7743 14.2667 16.9753 15.3812 24.35 15.3812C31.7247 15.3812 35.9257 14.2667 36.801 13.5875C35.9257 12.9083 31.7247 11.7938 24.35 11.7938C16.9753 11.7938 12.7743 12.9083 11.899 13.5875ZM36.9385 13.7262H36.9505H36.9385Z" fill="#5D6CFD"/>
<path d="M24.35 24.35C22.8815 24.35 10 24.2495 10 20.7625C10 20.2674 10.4018 19.8656 10.8969 19.8656C11.3573 19.8656 11.7363 20.2124 11.7878 20.6596C12.3402 21.3209 16.5855 22.5562 24.35 22.5562C32.1145 22.5562 36.3598 21.3209 36.9122 20.6596C36.9636 20.2124 37.3427 19.8656 37.8031 19.8656C38.2982 19.8656 38.7 20.2674 38.7 20.7625C38.7 24.2495 25.8185 24.35 24.35 24.35ZM36.9062 20.7613C36.9062 20.7625 36.9062 20.7625 36.9062 20.7613V20.7613ZM11.7938 20.7613C11.7938 20.7625 11.7938 20.7625 11.7938 20.7613V20.7613Z" fill="#5D6CFD"/>
<path d="M24.35 31.525C22.8815 31.525 10 31.4246 10 27.9375C10 27.4424 10.4018 27.0406 10.8969 27.0406C11.3573 27.0406 11.7363 27.3874 11.7878 27.8347C12.3402 28.496 16.5855 29.7313 24.35 29.7313C32.1145 29.7313 36.3598 28.496 36.9122 27.8347C36.9636 27.3874 37.3427 27.0406 37.8031 27.0406C38.2982 27.0406 38.7 27.4424 38.7 27.9375C38.7 31.4246 25.8185 31.525 24.35 31.525ZM36.9062 27.9363C36.9062 27.9375 36.9062 27.9375 36.9062 27.9363V27.9363ZM11.7938 27.9363C11.7938 27.9375 11.7938 27.9375 11.7938 27.9363V27.9363Z" fill="#5D6CFD"/>
<path d="M24.35 38.7001C22.8815 38.7001 10 38.5996 10 35.1126V13.5875C10 13.0925 10.4018 12.6907 10.8969 12.6907C11.392 12.6907 11.7938 13.0925 11.7938 13.5875V35.0157C12.3689 35.6806 16.613 36.9063 24.35 36.9063C32.087 36.9063 36.3311 35.6806 36.9062 35.0157V13.5875C36.9062 13.0925 37.3081 12.6907 37.8031 12.6907C38.2982 12.6907 38.7 13.0925 38.7 13.5875V35.1126C38.7 38.5996 25.8185 38.7001 24.35 38.7001Z" fill="#5D6CFD"/>
<path d="M15.98 27.9376C16.6405 27.9376 17.1758 27.4022 17.1758 26.7417C17.1758 26.0813 16.6405 25.5459 15.98 25.5459C15.3196 25.5459 14.7842 26.0813 14.7842 26.7417C14.7842 27.4022 15.3196 27.9376 15.98 27.9376Z" fill="#5D6CFD"/>
<path d="M15.98 20.7625C16.6405 20.7625 17.1758 20.2271 17.1758 19.5667C17.1758 18.9062 16.6405 18.3708 15.98 18.3708C15.3196 18.3708 14.7842 18.9062 14.7842 19.5667C14.7842 20.2271 15.3196 20.7625 15.98 20.7625Z" fill="#5D6CFD"/>
<path d="M15.98 35.1126C16.6405 35.1126 17.1758 34.5772 17.1758 33.9168C17.1758 33.2563 16.6405 32.7209 15.98 32.7209C15.3196 32.7209 14.7842 33.2563 14.7842 33.9168C14.7842 34.5772 15.3196 35.1126 15.98 35.1126Z" fill="#5D6CFD"/>
</g>
<g style="mix-blend-mode:multiply">
<ellipse cx="16.9125" cy="25.375" rx="16.9125" ry="7.175" fill="#B2F5EC"/>
</g>
<g style="mix-blend-mode:color-burn">
<ellipse cx="16.9125" cy="25.375" rx="16.9125" ry="7.175" fill="#B2F5EC"/>
</g>
<defs>
<clipPath id="clip0">
<rect width="28.7" height="28.7" fill="white" transform="translate(10 10)"/>
</clipPath>
</defs>
</svg>
