<svg width="48" height="48" viewBox="0 0 48 48" fill="none" xmlns="http://www.w3.org/2000/svg">
<path fill-rule="evenodd" clip-rule="evenodd" d="M31.2025 23.9934C31.1904 28.1069 28.808 31.8979 24.6663 34.3944C21.1948 36.487 19.2038 39.5962 19.2039 42.9251H16.9841C16.9841 40.8983 17.5898 38.8697 18.7357 37.0588C19.4604 35.9136 20.4057 34.8518 21.5218 33.9176C17.8416 31.4287 15.7434 27.8531 15.732 23.9934C15.7205 20.1143 17.8213 16.5126 21.5232 14.0084C20.3941 13.0634 19.4394 11.9877 18.7114 10.8277C17.5813 9.02715 16.9841 7.01195 16.9841 5H19.2038C19.3234 10.2373 24.7513 13.5827 24.7513 13.5827C28.8633 16.0946 31.2147 19.8891 31.2025 23.9934ZM28.907 25.0724H18.0274C18.1414 25.9185 18.3843 26.744 18.7484 27.535H28.1862C28.5503 26.744 28.7931 25.9185 28.907 25.0724ZM18.0273 22.8526H28.9072C28.7932 22.0069 28.5508 21.1812 28.1864 20.39H18.7481C18.3837 21.1812 18.1413 22.0069 18.0273 22.8526ZM23.4673 15.3995L23.3403 15.4771C22.0728 16.2513 21.0063 17.1626 20.1646 18.1703H26.7698C25.9282 17.1626 24.8618 16.2514 23.5943 15.4771L23.4673 15.3995ZM20.1627 29.7547C21.0209 30.7826 22.1137 31.7095 23.4141 32.4934C23.4232 32.4989 23.4323 32.5046 23.4413 32.5103C23.4499 32.5157 23.4585 32.5211 23.4672 32.5264C23.485 32.5155 23.5024 32.5042 23.5203 32.4934C24.8207 31.7095 25.9135 30.7826 26.7717 29.7547H20.1627ZM26.202 9.87597C25.896 10.3357 25.5467 10.7795 25.1555 11.2041C25.2288 11.2549 25.4671 11.4085 25.7537 11.5932L25.7539 11.5933L25.754 11.5934L25.7543 11.5936L25.7545 11.5937L25.7546 11.5938C26.2175 11.8921 26.806 12.2714 27.0285 12.4298C27.4745 11.9184 27.8744 11.3826 28.2227 10.8277C29.3527 9.02715 29.95 7.01195 29.95 5H27.7302C27.7302 5.90668 27.5811 6.79738 27.2952 7.65626H22.0259C22.3893 8.44056 22.9117 9.18808 23.5785 9.87597H26.202ZM25.1561 36.7204C25.5703 37.1697 25.938 37.6403 26.2564 38.1288H23.5013C22.8486 38.818 22.3391 39.5651 21.9883 40.3485H27.3219C27.5903 41.1823 27.7305 42.0459 27.7305 42.925H29.9502C29.9502 40.8981 29.3445 38.8696 28.1986 37.0588C27.8563 36.5178 27.4644 35.9958 27.0292 35.4965C26.6391 35.7742 26.2339 36.0412 25.812 36.2955C25.5852 36.4322 25.3671 36.5743 25.1561 36.7204ZM11.9956 37.4849C11.4151 37.4849 10.8589 37.9953 10.8858 38.5947C10.9127 39.1961 11.3734 39.7046 11.9956 39.7046C12.5761 39.7046 13.1323 39.1941 13.1055 38.5947C13.0785 37.9934 12.6179 37.4849 11.9956 37.4849ZM12.9918 12.6382C12.9649 12.0388 13.5211 11.5283 14.1016 11.5283C14.7238 11.5283 15.1846 12.0368 15.2115 12.6382C15.2384 13.2376 14.6822 13.748 14.1016 13.748C13.4795 13.748 13.0187 13.2395 12.9918 12.6382ZM8.11079 22.4045C7.53026 22.4045 6.97408 22.9149 7.00093 23.5143C7.02787 24.1156 7.48861 24.6242 8.11079 24.6242C8.69132 24.6242 9.24751 24.1137 9.22065 23.5143C9.19372 22.913 8.73298 22.4045 8.11079 22.4045ZM33.9759 38.5947C33.949 37.9953 34.5052 37.4849 35.0857 37.4849C35.7079 37.4849 36.1686 37.9934 36.1956 38.5947C36.2224 39.1941 35.6662 39.7046 35.0857 39.7046C34.4635 39.7046 34.0028 39.1961 33.9759 38.5947ZM32.9785 11.5283C32.3979 11.5283 31.8418 12.0388 31.8686 12.6382C31.8955 13.2395 32.3563 13.748 32.9785 13.748C33.559 13.748 34.1152 13.2376 34.0883 12.6382C34.0614 12.0368 33.6007 11.5283 32.9785 11.5283ZM37.8607 23.5143C37.8338 22.9149 38.39 22.4045 38.9705 22.4045C39.5927 22.4045 40.0535 22.913 40.0804 23.5143C40.1073 24.1137 39.5511 24.6242 38.9705 24.6242C38.3484 24.6242 37.8876 24.1156 37.8607 23.5143Z" fill="#5D6CFD"/>
<g style="mix-blend-mode:multiply">
<ellipse cx="18.9125" cy="23.175" rx="16.9125" ry="7.175" fill="#B2F5EC"/>
</g>
<g style="mix-blend-mode:color-burn">
<ellipse cx="18.9125" cy="23.175" rx="16.9125" ry="7.175" fill="#B2F5EC"/>
</g>
</svg>
