<svg width="48" height="48" viewBox="0 0 48 48" fill="none" xmlns="http://www.w3.org/2000/svg">
<path fill-rule="evenodd" clip-rule="evenodd" d="M38.8 23.4C38.8 31.3529 32.3529 37.8 24.4 37.8C16.4471 37.8 10 31.3529 10 23.4C10 15.4471 16.4471 9 24.4 9C32.3529 9 38.8 15.4471 38.8 23.4ZM40.8 23.4C40.8 32.4575 33.4575 39.8 24.4 39.8C15.3425 39.8 8 32.4575 8 23.4C8 14.3425 15.3425 7 24.4 7C33.4575 7 40.8 14.3425 40.8 23.4ZM32.0894 26.0198C32.2265 25.3982 32.2951 24.7445 32.2951 24.0589C32.2951 23.3733 32.2265 22.7242 32.0894 22.1117C31.9522 21.49 31.7328 20.9507 31.4311 20.4936C31.1295 20.0273 30.7364 19.6571 30.2518 19.3828C29.7765 19.1086 29.1959 18.9714 28.5103 18.9714C27.8247 18.9714 27.2396 19.1086 26.7551 19.3828C26.2705 19.6571 25.8729 20.0273 25.562 20.4936C25.2604 20.9507 25.041 21.49 24.9038 22.1117C24.7667 22.7242 24.6981 23.3733 24.6981 24.0589C24.6981 24.7445 24.7667 25.3982 24.9038 26.0198C25.041 26.6415 25.2604 27.19 25.562 27.6654C25.8729 28.1316 26.2705 28.5064 26.7551 28.7898C27.2396 29.0641 27.8247 29.2012 28.5103 29.2012C29.1959 29.2012 29.7765 29.0641 30.2518 28.7898C30.7364 28.5064 31.1295 28.1316 31.4311 27.6654C31.7328 27.19 31.9522 26.6415 32.0894 26.0198ZM29.8816 23.0579C29.9182 23.4235 29.9364 23.7572 29.9364 24.0589C29.9364 24.3697 29.9182 24.7125 29.8816 25.0874C29.845 25.453 29.7765 25.7959 29.6759 26.1158C29.5753 26.4266 29.4291 26.6918 29.2371 26.9112C29.0543 27.1214 28.812 27.2266 28.5103 27.2266C28.2086 27.2266 27.9618 27.1214 27.7698 26.9112C27.5778 26.6918 27.427 26.4266 27.3173 26.1158C27.2167 25.7959 27.1482 25.453 27.1116 25.0874C27.075 24.7125 27.0567 24.3697 27.0567 24.0589C27.0567 23.7572 27.075 23.4235 27.1116 23.0579C27.1482 22.6922 27.2167 22.3539 27.3173 22.0431C27.427 21.7231 27.5778 21.458 27.7698 21.2478C27.9618 21.0284 28.2086 20.9187 28.5103 20.9187C28.812 20.9187 29.0543 21.0284 29.2371 21.2478C29.4291 21.458 29.5753 21.7231 29.6759 22.0431C29.7765 22.3539 29.845 22.6922 29.8816 23.0579ZM19.0829 21.81V28.9407H21.3867V19.232H19.2749L16.0798 21.5769L17.2729 23.2087L19.0829 21.81Z" fill="#5D6CFD"/>
<g style="mix-blend-mode:multiply">
<ellipse cx="16.9125" cy="37.175" rx="16.9125" ry="7.175" fill="#B2F5EC"/>
</g>
<g style="mix-blend-mode:color-burn">
<ellipse cx="16.9125" cy="37.175" rx="16.9125" ry="7.175" fill="#B2F5EC"/>
</g>
</svg>
