<svg width="48" height="48" viewBox="0 0 48 48" fill="none" xmlns="http://www.w3.org/2000/svg">
<path fill-rule="evenodd" clip-rule="evenodd" d="M22.4289 5.27246C21.671 5.65565 21.3652 5.94466 21.143 6.48778L20.962 6.93037H16.8199V8.89545H11V38.825H36.3687V8.89545H30.5489V6.93037H26.4067L26.2175 6.46768C25.7088 5.22394 23.7485 4.60539 22.4289 5.27246ZM24.2795 7.2008C24.5045 7.38536 24.6345 7.69766 24.6885 8.18333L24.7678 8.89545H28.6089V10.8605H18.7457L18.8345 8.97103L22.6019 8.88668L22.6807 8.1791C22.7633 7.43615 23.1698 6.93037 23.6844 6.93037C23.8303 6.93037 24.0982 7.05206 24.2795 7.2008ZM30.4742 12.9012L30.6235 10.9361H34.3542L34.4304 36.8599H12.94V10.8514L16.7453 10.9361L16.8945 12.9012H30.4742ZM23.39 18.3358C23.0353 17.9811 22.4588 17.9793 22.1023 18.334L19.1083 21.3297L17.9333 20.1529C17.5786 19.7982 17.002 19.7982 16.6474 20.1529C16.2927 20.5075 16.2927 21.0841 16.6474 21.4388L18.4663 23.2577C18.6427 23.436 18.8755 23.5251 19.1083 23.5251C19.3412 23.5251 19.574 23.436 19.7522 23.2595L23.39 19.6217C23.7447 19.2671 23.7447 18.6905 23.39 18.3358ZM22.1023 25.6093C22.4588 25.2547 23.0353 25.2565 23.39 25.6112C23.7447 25.9658 23.7447 26.5424 23.39 26.8971L19.7522 30.5349C19.574 30.7114 19.3412 30.8005 19.1083 30.8005C18.8755 30.8005 18.6427 30.7114 18.4663 30.5349L16.6474 28.716C16.2927 28.3613 16.2927 27.7847 16.6474 27.4301C17.002 27.0754 17.5786 27.0754 17.9333 27.4301L19.1083 28.6051L22.1023 25.6093ZM30.0214 19.8872H26.3836C25.8816 19.8872 25.4741 20.2946 25.4741 20.7967C25.4741 21.2987 25.8816 21.7061 26.3836 21.7061H30.0214C30.5234 21.7061 30.9308 21.2987 30.9308 20.7967C30.9308 20.2946 30.5234 19.8872 30.0214 19.8872ZM26.3836 27.1628H30.0214C30.5234 27.1628 30.9308 27.5703 30.9308 28.0723C30.9308 28.5743 30.5234 28.9817 30.0214 28.9817H26.3836C25.8816 28.9817 25.4741 28.5743 25.4741 28.0723C25.4741 27.5703 25.8816 27.1628 26.3836 27.1628Z" fill="#5D6CFD"/>
<g style="mix-blend-mode:multiply">
<ellipse cx="16.9125" cy="27.175" rx="16.9125" ry="7.175" fill="#B2F5EC"/>
</g>
<g style="mix-blend-mode:color-burn">
<ellipse cx="16.9125" cy="27.175" rx="16.9125" ry="7.175" fill="#B2F5EC"/>
</g>
</svg>
