<svg width="51" height="48" viewBox="0 0 51 48" fill="none" xmlns="http://www.w3.org/2000/svg">
<path fill-rule="evenodd" clip-rule="evenodd" d="M31.6637 13.5227L12.462 13.7587L12.4956 29.6926L22.0964 29.5746L22.1015 32.0047L10.0439 32.1528L10 11.3586L34.1153 11.0623L34.1372 21.4594L31.6805 21.4896L31.6637 13.5227ZM34.152 28.9626L38.701 28.9067L38.7061 31.3393L34.1572 31.3952L34.1667 35.8977L31.7091 35.9279L31.6996 31.4254L27.1507 31.4814L27.1455 29.0488L31.6945 28.9929L31.685 24.4904L34.1426 24.4602L34.152 28.9626ZM26.3178 17.2733L15.8855 17.3994L15.8906 19.7753L26.3229 19.6492L26.3178 17.2733ZM15.9102 22.3207L23.873 22.2239L23.8781 24.6175L15.9154 24.7143L15.9102 22.3207Z" fill="#5D6CFD"/>
<g style="mix-blend-mode:multiply">
<ellipse cx="33.9125" cy="13.9861" rx="16.9125" ry="6.98608" fill="#B2F5EC"/>
</g>
<g style="mix-blend-mode:color-burn">
<ellipse cx="33.9125" cy="13.9861" rx="16.9125" ry="6.98608" fill="#B2F5EC"/>
</g>
</svg>
