<svg width="48" height="48" viewBox="0 0 48 48" fill="none" xmlns="http://www.w3.org/2000/svg">
<path fill-rule="evenodd" clip-rule="evenodd" d="M21.0262 4.35199C15.9196 5.43134 11.5501 8.94067 9.40694 13.6835C8.32268 16.0829 7.99683 17.6798 8.00002 20.5807C8.00304 23.5044 8.34165 25.1742 9.39825 27.4777C11.1026 31.1937 14.7127 34.675 18.189 35.9552L19.1724 36.3174L21.1787 39.7015C23.6241 43.8262 23.7356 43.975 24.3856 43.975C25.0328 43.975 25.1161 43.8639 27.5751 39.7228L29.597 36.3181L30.5812 35.9556C32.1692 35.3709 34.4685 33.8299 35.9198 32.378C38.1507 30.1459 39.5505 27.7229 40.3623 24.6879C40.9459 22.5063 40.9459 18.655 40.3623 16.4735C39.5654 13.494 38.1654 11.046 36.0104 8.86405C32.0991 4.90345 26.456 3.20424 21.0262 4.35199ZM26.8923 6.57588C29.6757 7.10484 31.9745 8.27277 33.976 10.1747C35.451 11.5764 36.197 12.5713 37.0366 14.2565C38.1234 16.4377 38.4714 18.0066 38.4595 20.67C38.4505 22.7088 38.3891 23.1764 37.9562 24.5095C36.6355 28.576 34.2132 31.5187 30.7865 33.2199C29.85 33.6849 28.8352 34.1544 28.5315 34.2631C28.0725 34.4274 27.6837 34.9614 26.2268 37.4283C25.2629 39.0606 24.4343 40.3958 24.3856 40.3958C24.3368 40.3958 23.5119 39.0665 22.5523 37.4417C21.2741 35.2775 20.6816 34.4364 20.3362 34.296C18.7285 33.6422 16.8296 32.6532 16.0189 32.0471C13.4859 30.1538 11.4962 27.1734 10.6289 23.9737C10.2336 22.5153 10.1829 18.9643 10.5369 17.5448C11.2578 14.6557 12.4284 12.5852 14.5286 10.4842C15.81 9.20229 16.4701 8.70065 17.7375 8.04508C20.8903 6.41444 23.6842 5.96602 26.8923 6.57588ZM23.6422 12.857C23.4956 13.029 23.3279 13.3059 23.2692 13.4727C23.2107 13.6394 22.8276 13.8667 22.4181 13.9779C20.2714 14.5601 18.2812 16.0577 17.1687 17.928C16.5649 18.9433 16.0533 20.6278 16.0533 21.6004C16.0533 22.131 16.0029 22.1879 15.5344 22.1879C15.0144 22.1879 14.2804 22.8674 14.2804 23.3487C14.2804 23.4696 14.4458 23.7802 14.648 24.0389L15.0153 24.5095H24.3856H33.7558L34.1232 24.0389C34.3253 23.7802 34.4907 23.4696 34.4907 23.3487C34.4907 22.8674 33.7567 22.1879 33.2368 22.1879C32.7682 22.1879 32.7179 22.131 32.7179 21.6004C32.7179 20.6985 32.2193 18.9733 31.7017 18.0832C30.6123 16.21 28.8877 14.8187 26.8058 14.1328C26.1371 13.9124 25.5478 13.6063 25.4936 13.4511C25.3046 12.9095 24.8586 12.5445 24.3856 12.5445C24.1232 12.5445 23.7888 12.685 23.6422 12.857ZM27.0884 16.7947C28.869 17.6778 30.0785 19.3736 30.3499 21.368L30.4614 22.1879H24.4097H18.3579V21.774C18.3579 21.037 18.868 19.6035 19.4394 18.7345C21.0755 16.2465 24.3225 15.423 27.0884 16.7947Z" fill="#5D6CFD"/>
<g style="mix-blend-mode:multiply">
<ellipse cx="24.9125" cy="33.175" rx="16.9125" ry="7.175" fill="#B2F5EC"/>
</g>
<g style="mix-blend-mode:color-burn">
<ellipse cx="24.9125" cy="33.175" rx="16.9125" ry="7.175" fill="#B2F5EC"/>
</g>
</svg>
