<svg width="51" height="48" viewBox="0 0 51 48" fill="none" xmlns="http://www.w3.org/2000/svg">
<path fill-rule="evenodd" clip-rule="evenodd" d="M34.6479 37.3393C29.0315 42.8927 19.8761 42.9182 14.2389 37.3962C8.60177 31.8742 8.58489 22.8637 14.2013 17.3103C18.8537 12.7101 25.9344 11.9031 31.4322 14.9002L34.6926 12.8803L39.7292 7.90024C40.9271 6.71591 42.8797 6.71047 44.0819 7.88811C45.2841 9.06583 45.2877 10.9875 44.0899 12.1719L39.0533 17.1519L37.0162 20.3702C40.0872 25.7668 39.3003 32.7391 34.6479 37.3393ZM42.6337 9.32005C42.233 8.92745 41.5821 8.92927 41.1828 9.32409L36.7881 13.6695L38.2416 15.0934L42.6364 10.7479C43.0356 10.3532 43.0344 9.71257 42.6337 9.32005ZM36.9416 16.6705L35.1916 14.9563L33.3081 16.1231C33.7593 16.4699 34.1945 16.8461 34.6102 17.2534C35.0259 17.6606 35.4102 18.0872 35.7648 18.5296L36.9416 16.6705ZM33.1621 18.6854C28.3264 13.9485 20.4727 13.9704 15.6548 18.7342C10.837 23.498 10.8514 31.2274 15.6871 35.9643C20.5228 40.7012 28.3765 40.6793 33.1944 35.9155C38.0122 31.1517 37.9978 23.4223 33.1621 18.6854ZM31.059 33.8028C27.4386 37.3822 21.5368 37.3986 17.903 33.8394C14.2692 30.2803 14.2584 24.4725 17.8788 20.8932C21.4992 17.3138 27.4009 17.2973 31.0347 20.8565C34.6685 24.4157 34.6793 30.2234 31.059 33.8028ZM29.5864 22.2885C26.7541 19.5144 22.1543 19.5273 19.3325 22.3171C16.5106 25.1069 16.5191 29.6335 19.3514 32.4076C22.1836 35.1816 26.7835 35.1688 29.6053 32.379C32.4271 29.5891 32.4186 25.0626 29.5864 22.2885Z" fill="#5D6CFD"/>
<g style="mix-blend-mode:multiply">
<ellipse cx="16.9125" cy="23.175" rx="16.9125" ry="7.175" fill="#B2F5EC"/>
</g>
<g style="mix-blend-mode:color-burn">
<ellipse cx="16.9125" cy="23.175" rx="16.9125" ry="7.175" fill="#B2F5EC"/>
</g>
</svg>
