<svg width="48" height="48" viewBox="0 0 48 48" fill="none" xmlns="http://www.w3.org/2000/svg">
<path fill-rule="evenodd" clip-rule="evenodd" d="M34.8719 34.9923L33.4497 33.579L30.4541 30.6024C28.9566 31.8053 27.0472 32.5245 24.9756 32.5245C20.1584 32.5245 16.2398 28.6307 16.2398 23.8439C16.2398 19.3796 19.6592 15.6841 24.0396 15.2253V11.0042V9C23.3598 9.04094 22.6921 9.12719 22.0396 9.25574C15.1819 10.6068 10 16.6308 10 23.8439C10 32.0533 16.7141 38.725 24.9756 38.725C28.0455 38.725 30.8947 37.8075 33.2721 36.2221C33.8327 35.8482 34.3671 35.4372 34.8719 34.9923ZM31.8198 34.779L30.2034 33.1727C28.6543 34.0342 26.8684 34.5245 24.9756 34.5245C19.0658 34.5245 14.2398 29.7471 14.2398 23.8439C14.2398 18.9641 17.546 14.8477 22.0396 13.5799V11.3004C16.2882 12.6176 12 17.7476 12 23.8439C12 30.9368 17.8067 36.725 24.9756 36.725C27.4915 36.725 29.8322 36.0161 31.8198 34.779ZM39.7258 24.7725H37.7217H33.6539C33.4846 26.393 32.8314 27.8834 31.8396 29.078L34.6905 31.866L36.1214 33.2653C36.5742 32.7688 36.9907 32.2412 37.3674 31.6865C38.3663 30.2157 39.0854 28.5539 39.4585 26.7725C39.595 26.1206 39.6852 25.4528 39.7258 24.7725ZM37.4073 26.7725H35.2886C35.0774 27.4893 34.7886 28.174 34.4319 28.8158L35.9108 30.262C36.5896 29.1948 37.0987 28.0201 37.4073 26.7725ZM39.4512 20.3459C39.5908 20.9977 39.6837 21.6655 39.7262 22.3459H37.7217H33.4837C33.0608 18.4682 29.8276 15.3756 25.7737 14.9712V11.0037V9C26.4535 9.03888 27.1212 9.12171 27.7737 9.24554C33.6241 10.3558 38.2548 14.762 39.4512 20.3459ZM27.7737 11.2862C32.5452 12.3313 36.265 15.8965 37.3964 20.3459H35.1103C34.0827 16.9241 31.2721 14.2735 27.7737 13.315V11.2862Z" fill="#5D6CFD"/>
<g style="mix-blend-mode:multiply">
<ellipse cx="16.9125" cy="35.175" rx="16.9125" ry="7.175" fill="#B2F5EC"/>
</g>
<g style="mix-blend-mode:color-burn">
<ellipse cx="16.9125" cy="35.175" rx="16.9125" ry="7.175" fill="#B2F5EC"/>
</g>
</svg>
