<svg width="23" height="21" viewBox="0 0 23 21" fill="none" xmlns="http://www.w3.org/2000/svg">
<g clip-path="url(#clip0)">
<path d="M10.5408 22C16.8997 22 22.0573 16.8527 22.0573 10.5C22.0573 4.14725 16.8997 -1 10.5408 -1C4.18197 -1 -0.975586 4.14725 -0.975586 10.5C-0.975586 16.8527 4.18197 22 10.5408 22Z" stroke="#FF0000" stroke-width="2"/>
<path d="M5.64431 7.7V14H4.47431V8.681H3.14231V7.7H5.64431ZM10.98 10.688C11.31 10.838 11.562 11.042 11.736 11.3C11.916 11.552 12.006 11.849 12.006 12.191C12.006 12.575 11.898 12.911 11.682 13.199C11.472 13.487 11.172 13.709 10.782 13.865C10.392 14.015 9.93905 14.09 9.42305 14.09C8.90705 14.09 8.45405 14.015 8.06405 13.865C7.68005 13.709 7.38305 13.487 7.17305 13.199C6.96305 12.911 6.85805 12.575 6.85805 12.191C6.85805 11.849 6.94505 11.552 7.11905 11.3C7.29305 11.042 7.54205 10.838 7.86605 10.688C7.61405 10.55 7.41905 10.37 7.28105 10.148C7.14905 9.92 7.08305 9.659 7.08305 9.365C7.08305 9.011 7.17905 8.702 7.37105 8.438C7.56905 8.174 7.84505 7.97 8.19905 7.826C8.55305 7.682 8.96105 7.61 9.42305 7.61C9.89105 7.61 10.302 7.682 10.656 7.826C11.01 7.97 11.286 8.174 11.484 8.438C11.682 8.702 11.781 9.011 11.781 9.365C11.781 9.659 11.712 9.917 11.574 10.139C11.436 10.361 11.238 10.544 10.98 10.688ZM9.42305 8.528C9.05705 8.528 8.76605 8.606 8.55005 8.762C8.34005 8.918 8.23505 9.137 8.23505 9.419C8.23505 9.689 8.34005 9.905 8.55005 10.067C8.76605 10.223 9.05705 10.301 9.42305 10.301C9.79505 10.301 10.089 10.223 10.305 10.067C10.521 9.905 10.629 9.689 10.629 9.419C10.629 9.137 10.518 8.918 10.296 8.762C10.08 8.606 9.78905 8.528 9.42305 8.528ZM9.42305 13.172C9.85505 13.172 10.197 13.082 10.449 12.902C10.701 12.722 10.827 12.473 10.827 12.155C10.827 11.843 10.701 11.597 10.449 11.417C10.197 11.237 9.85505 11.147 9.42305 11.147C8.99105 11.147 8.65205 11.237 8.40605 11.417C8.16005 11.597 8.03705 11.843 8.03705 12.155C8.03705 12.473 8.16005 12.722 8.40605 12.902C8.65205 13.082 8.99105 13.172 9.42305 13.172ZM17.1031 11.3H15.5101V12.875H14.5471V11.3H12.9541V10.4H14.5471V8.825H15.5101V10.4H17.1031V11.3Z" fill="white"/>
</g>
<defs>
<clipPath id="clip0">
<rect width="22" height="21" fill="white" transform="translate(0.0244141)"/>
</clipPath>
</defs>
</svg>
