<svg width="20" height="22" viewBox="0 0 20 22" fill="none" xmlns="http://www.w3.org/2000/svg">
<path fill-rule="evenodd" clip-rule="evenodd" d="M3.33056 19.6934C3.31676 20.164 3.16719 20.541 2.88185 20.8243C2.59652 21.1077 2.2453 21.2496 1.82821 21.25C1.60564 21.25 1.40043 21.2051 1.21258 21.1152C1.02473 21.0253 0.854244 20.8974 0.701116 20.7314C0.576032 20.5928 0.482107 20.4372 0.419342 20.2645C0.356578 20.0919 0.325195 19.9017 0.325195 19.6941C0.325195 19.4865 0.363477 19.2928 0.440041 19.113C0.516605 18.9333 0.631451 18.7673 0.784579 18.615C0.923908 18.4764 1.08394 18.3693 1.26466 18.2936C1.44539 18.2179 1.64014 18.1798 1.84891 18.1794C2.15516 18.1794 2.41958 18.252 2.64215 18.3972C2.86472 18.5424 3.03854 18.7396 3.16363 18.9889H2.62078C2.52329 18.8645 2.40845 18.7711 2.27624 18.7086C2.14404 18.6462 1.99447 18.615 1.82754 18.615C1.68821 18.615 1.55601 18.6391 1.43092 18.6874C1.30584 18.7356 1.19455 18.8151 1.09707 18.9258C0.985783 19.0227 0.902319 19.1403 0.846676 19.2784C0.791034 19.4165 0.763213 19.5549 0.763213 19.6934C0.763213 19.8457 0.791034 19.9909 0.846676 20.1291C0.902319 20.2672 0.971983 20.3847 1.05567 20.4817C1.16695 20.5924 1.2887 20.6754 1.42091 20.7307C1.55311 20.786 1.68866 20.8137 1.82754 20.8137C2.05011 20.8137 2.24486 20.7548 2.41179 20.6371C2.57871 20.5193 2.72472 20.3429 2.8498 20.1078H1.49369V19.6928H3.32989L3.33056 19.6934ZM4.70804 18.8016L4.27002 19.9225H5.12536L4.70804 18.8016ZM3.78994 21.1876H3.33056L4.49905 18.2405H4.91637L6.06416 21.1876H5.60477L5.27092 20.3369H4.12313L3.78927 21.1876H3.78994ZM6.23108 21.1876V18.2405H6.8574L7.71273 20.5235L8.56807 18.2405H9.19438V21.1876H8.79776L8.83983 18.6349L7.87966 21.1876H7.5665L6.60634 18.6349L6.62704 21.1876H6.23042H6.23108ZM11.0927 21.25C10.8701 21.25 10.6649 21.2084 10.477 21.1252C10.2892 21.0419 10.1258 20.9244 9.98695 20.7725C9.84807 20.6207 9.74368 20.4547 9.67379 20.2745C9.60391 20.0943 9.56919 19.8938 9.56963 19.6729C9.56963 19.4789 9.60791 19.2921 9.68448 19.1124C9.76104 18.9326 9.86877 18.7666 10.0076 18.6143C10.1608 18.4758 10.3277 18.3686 10.5084 18.2929C10.6892 18.2172 10.8839 18.1792 11.0927 18.1787C11.4403 18.1787 11.7499 18.2858 12.0215 18.5001C12.293 18.7144 12.4773 19.0015 12.5743 19.3614H11.7811C11.6974 19.2091 11.5999 19.0984 11.4886 19.0294C11.3773 18.9603 11.2451 18.9258 11.092 18.9258C10.8694 18.9258 10.6852 18.9984 10.5391 19.1436C10.3931 19.2888 10.3201 19.4721 10.3201 19.6934C10.3201 19.9285 10.3967 20.1222 10.5498 20.2745C10.703 20.4268 10.8839 20.5029 11.0927 20.5029C11.232 20.5029 11.3607 20.4684 11.4786 20.3993C11.5966 20.3303 11.6905 20.2265 11.7604 20.0879H12.5536C12.4561 20.4478 12.2752 20.7314 12.0108 20.9386C11.7464 21.1457 11.4403 21.2496 11.0927 21.25ZM13.9304 19.2166L13.6173 20.1503H14.2222L13.9298 19.2166H13.9304ZM13.2834 21.1876H12.4902L13.6173 18.2405H14.2222L15.3493 21.1876H14.5561L14.4099 20.752H13.429L13.2828 21.1876H13.2834ZM16.2674 19.5898C16.4482 19.5898 16.5837 19.5657 16.6741 19.5175C16.7644 19.4692 16.8096 19.3758 16.8096 19.2372C16.8096 19.1128 16.7713 19.0263 16.6948 18.9776C16.6182 18.9289 16.4965 18.9048 16.3295 18.9052H16.1419V19.5898H16.2674ZM15.4121 21.1876V18.2405H16.393C16.5461 18.2405 16.6852 18.2509 16.8103 18.2717C16.9354 18.2925 17.0466 18.3374 17.1441 18.4065C17.2692 18.4897 17.3667 18.6004 17.4366 18.7385C17.5065 18.8766 17.5412 19.0358 17.5407 19.216C17.5407 19.4652 17.4815 19.6729 17.3631 19.8389C17.2447 20.0049 17.0814 20.1156 16.873 20.1709L17.6035 21.1876H16.7061L16.1426 20.2327V21.1876H15.4121ZM17.916 21.1876V18.2405H19.5225V18.8839H18.6458V19.3614H19.5225V20.0255H18.6458V20.5441H19.5225V21.1876H17.916ZM19.001 10.1688C18.9592 10.1409 18.9173 10.1201 18.8755 10.1064C18.8337 10.0926 18.7918 10.0858 18.75 10.0858H18.6665L18.6458 10.0652H12.7406C12.5318 10.0652 12.3544 10.1378 12.2084 10.283C12.0624 10.4282 11.9894 10.6046 11.9894 10.8123C11.9894 11.0062 12.0624 11.1757 12.2084 11.3209C12.3544 11.4661 12.5318 11.5387 12.7406 11.5387H14.9734C15.0152 11.5387 15.05 11.5527 15.0776 11.5806C15.1052 11.6085 15.1192 11.643 15.1196 11.6842C15.1196 11.6979 15.1127 11.7152 15.0989 11.736C15.0851 11.7568 15.0711 11.774 15.0569 11.7878C14.4448 12.1061 13.7493 12.3586 12.9703 12.5455C12.1913 12.7323 11.3704 12.8257 10.5078 12.8257C10.299 12.8257 10.0902 12.8222 9.88145 12.8151C9.67268 12.808 9.47103 12.7907 9.27651 12.7633V14.444C9.45723 14.444 9.63462 14.4476 9.80867 14.4546C9.98272 14.4617 10.1601 14.4653 10.3408 14.4653C11.5512 14.4653 12.6883 14.3305 13.7522 14.0609C14.816 13.7913 15.7655 13.4143 16.6006 12.93L16.6213 12.9193C16.6213 12.9193 16.6353 12.9158 16.6634 12.9087C16.7052 12.9087 16.7399 12.9227 16.7675 12.9505C16.7951 12.9784 16.8092 13.013 16.8096 13.0541V13.0854C16.8096 13.0854 16.8027 13.0889 16.7889 13.096L16.4551 14.0296C16.3714 14.2789 16.3818 14.5211 16.4864 14.7561C16.591 14.9912 16.7684 15.1504 17.0186 15.2336C17.0742 15.2615 17.1299 15.2787 17.1855 15.2854C17.2412 15.292 17.2968 15.2956 17.3525 15.296C17.5332 15.296 17.707 15.2407 17.8739 15.13C18.0409 15.0193 18.159 14.867 18.2285 14.6731L19.4597 11.3322C19.5434 11.1109 19.5399 10.8895 19.4491 10.6682C19.3583 10.4468 19.2087 10.2808 19.0004 10.1701L19.001 10.1688ZM10.5084 3.8602C11.3849 3.8602 12.2126 3.95361 12.9916 4.14043C13.7706 4.32725 14.4731 4.58668 15.0989 4.91871L15.537 5.12656C15.537 5.12656 15.7735 5.06436 16.2467 4.93996C16.4693 4.63538 16.4553 4.39322 16.2047 4.21348L15.8287 3.94387C15.0635 3.58395 14.2149 3.30371 13.2828 3.10316C12.3506 2.90262 11.37 2.80234 10.3408 2.80234C10.1601 2.80234 9.98272 2.80589 9.80867 2.81297C9.63462 2.82005 9.45723 2.82359 9.27651 2.82359V3.92328C9.47148 3.89539 9.67313 3.87813 9.88145 3.87148C10.0898 3.86484 10.2985 3.8613 10.5078 3.86086L10.5084 3.8602ZM1.64058 0C1.27868 0 0.96909 0.127943 0.711799 0.383828C0.454508 0.639714 0.325863 0.947617 0.325863 1.30754V15.4607C0.325863 15.8206 0.454508 16.1285 0.711799 16.3844C0.96909 16.6403 1.27868 16.7682 1.64058 16.7682H9.27784V14.444C8.12315 14.3608 7.05192 14.1498 6.06416 13.8112C5.07639 13.4725 4.21394 13.0471 3.47678 12.5348C2.73963 12.0226 2.16229 11.4312 1.74475 10.7605C1.3272 10.0898 1.11843 9.38077 1.11843 8.63348C1.11843 7.88618 1.3272 7.18051 1.74475 6.51645C2.16229 5.85238 2.73963 5.26092 3.47678 4.74207C4.21394 4.22322 5.07639 3.79777 6.06416 3.46574C7.05192 3.13371 8.12315 2.92608 9.27784 2.84285V0H1.64058ZM3.43472 8.34262C3.43472 8.896 3.58072 9.42172 3.87274 9.91977C4.16475 10.4178 4.57517 10.8605 5.10399 11.2479C5.63282 11.6353 6.25178 11.9604 6.96089 12.2234C7.67 12.4864 8.44209 12.6663 9.27718 12.7633V3.92262C8.44254 4.01957 7.67044 4.19953 6.96089 4.4625C6.25134 4.72547 5.63237 5.05064 5.10399 5.43801C4.57561 5.82538 4.16519 6.26809 3.87274 6.76613C3.58028 7.26418 3.43427 7.7899 3.43472 8.34328V8.34262Z" fill="white"/>
</svg>
