<?xml version="1.0" encoding="UTF-8"?>
<svg width="28px" height="30px" viewBox="0 0 28 30" version="1.1" xmlns="http://www.w3.org/2000/svg" xmlns:xlink="http://www.w3.org/1999/xlink">
    <title>Group 6</title>
    <defs>
        <filter id="filter-1">
            <feColorMatrix in="SourceGraphic" type="matrix" values="0 0 0 0 1.000000 0 0 0 0 1.000000 0 0 0 0 1.000000 0 0 0 1.000000 0"></feColorMatrix>
        </filter>
    </defs>
    <g id="Web" stroke="none" stroke-width="1" fill="none" fill-rule="evenodd">
        <g id="Home---Logged-out-(2)" transform="translate(-406.000000, -100.000000)">
            <g id="Group-56" transform="translate(-0.500000, 0.000000)">
                <g id="Group-22" transform="translate(0.000000, 69.000000)">
                    <g id="Main-menu" transform="translate(0.500000, 0.000000)">
                        <g id="Group-16" transform="translate(262.500000, 14.000000)">
                            <g id="Group-6" transform="translate(144.000000, 17.000000)" filter="url(#filter-1)">
                                <g>
                                    <g id="Group-3" fill="#080B0D">
                                        <path d="M21.3188161,27.2959633 L21.3181011,18.5195767 C22.0837867,18.8209094 22.7732056,19.17261 23.1743206,19.5988294 C24.1491833,20.6346261 24.7945106,24.354215 25.0242639,26.167455 C24.4446372,26.4136533 23.1993456,26.8834878 21.3188161,27.2959633 L21.3188161,27.2959633 Z M13.5871239,25.9937894 L8.87543278,17.4984772 C9.52155445,17.2717428 9.92465556,17.0755944 10.1644189,16.8015111 C10.55179,16.3588467 10.7898056,15.7802528 10.9316933,15.3131989 C11.7431389,15.8082967 12.6449922,16.0867494 13.595545,16.0867494 C14.5274283,16.0867494 15.4122806,15.8189422 16.2112533,15.3420372 C16.3542533,15.8039272 16.5903622,16.3679828 16.9697094,16.8013522 C17.2137628,17.0802817 17.626,17.278575 18.2922211,17.510235 L13.5871239,25.9937894 Z M8.59984,9.48157944 C9.00190834,9.26239222 9.63341222,8.79939 9.73605445,8.01257222 C9.88842889,6.84458 9.83766389,5.42268333 10.5993772,5.27030889 C11.3610906,5.11793444 13.0369711,5.70201 14.3826011,5.44810556 C15.7283106,5.19412167 16.5154461,4.81334444 16.5154461,4.81334444 C16.5154461,4.81334444 17.1247056,6.94611 17.6326733,7.86019778 C17.9176406,8.37317056 18.3384578,8.82195222 18.6528989,9.11732667 C18.1625678,12.3970317 16.0816,14.8680717 13.595545,14.8680717 C11.2025194,14.8680717 9.18486889,12.578165 8.59984,9.48157944 L8.59984,9.48157944 Z M5.85519334,27.3049406 C3.95138667,26.8900817 2.69298667,26.4150833 2.10986445,26.167455 C2.33922056,24.3548506 2.98407111,20.6356589 3.95980778,19.5988294 C4.36799334,19.1652217 5.07441334,18.8085161 5.85614667,18.5034494 L5.85519334,27.3049406 Z M24.0619533,18.76363 C23.1059189,17.7479328 21.2299972,17.1625067 19.7226183,16.6919572 C19.0227128,16.4734056 18.0638978,16.1742972 17.8868956,15.9989633 C17.5457611,15.6089706 17.3467528,14.939095 17.2627006,14.5476722 C18.9052939,13.0163806 19.9815278,10.4887761 19.9815278,7.63330444 C19.9815278,2.52137222 16.6827561,0.700028889 13.595545,0.700028889 C10.5083339,0.700028889 7.20956222,2.52137222 7.20956222,7.63330444 C7.20956222,10.46105 8.26506111,12.9672839 9.88072278,14.5027861 C9.80270834,14.8866617 9.60211111,15.5934789 9.25001334,15.995865 C9.07023056,16.1742972 8.11157445,16.4734056 7.41151,16.6919572 C5.90421056,17.1625067 4.02820945,17.7479328 3.07233389,18.76363 C1.54088334,20.3907317 0.913272225,25.8546028 0.846856669,26.4723628 C0.819925002,26.7217389 0.948625002,26.9619789 1.17099,27.0780472 C1.34505278,27.1686139 5.52597556,29.3000289 13.5671039,29.3000289 C21.6082322,29.3000289 25.7892344,27.1686139 25.9631383,27.0780472 C26.1855828,26.9619789 26.3142828,26.7217389 26.2873511,26.4723628 C26.2208561,25.8546028 25.5933244,20.3907317 24.0619533,18.76363 L24.0619533,18.76363 Z" id="Fill-1"></path>
                                    </g>
                                    <path d="M18.1204633,17.5047172 C18.0020911,17.3553617 17.8213189,17.2577172 17.6159189,17.2577172 C17.4105911,17.2577172 17.2298189,17.3553617 17.1113744,17.5047172 C16.5426967,16.9393617 15.2845133,16.242345 15.2845133,17.9041783 C15.2845133,19.5658672 16.5426967,18.868995 17.1113744,18.3037117 C17.2298189,18.4529228 17.4105911,18.5504228 17.6159189,18.5504228 C17.8213189,18.5504228 18.0020911,18.4529228 18.1204633,18.3037117 C18.6892133,18.868995 19.9473244,19.5658672 19.9473244,17.9041783 C19.9473244,16.242345 18.6892133,16.9393617 18.1204633,17.5047172" id="Fill-4" fill="#080B0D"></path>
                                </g>
                            </g>
                        </g>
                    </g>
                </g>
            </g>
        </g>
    </g>
</svg>