<?xml version="1.0" encoding="UTF-8"?>
<svg width="117px" height="70px" viewBox="0 0 117 70" version="1.1" xmlns="http://www.w3.org/2000/svg" xmlns:xlink="http://www.w3.org/1999/xlink">
    <title>Group 4</title>
    <defs>
        <path d="M0.408974538,3.78145351 C0.408974538,5.65735103 2.32077441,6.65247038 6.60798269,7.00798164 L6.60798269,7.00798164 C9.35802426,7.24017615 10.5849479,7.52115103 10.5849479,8.5720751 L10.5849479,8.5720751 C10.5849479,9.59373096 9.38143884,10.0897297 6.90729898,10.0897297 L6.90729898,10.0897297 C4.57013437,10.0897297 2.74457818,9.50358486 1.33345992,8.29851484 L1.33345992,8.29851484 L0.0304389446,9.80290115 C1.79316603,11.2116779 4.0835015,11.9254322 6.84134793,11.9254322 L6.84134793,11.9254322 C10.6438746,11.9254322 12.9135271,10.5818259 12.9135271,8.33246597 L12.9135271,8.33246597 C12.9135271,6.2922762 11.1453367,5.31979094 6.81246996,4.97793818 L6.81246996,4.97793818 L6.60486074,4.96232846 C4.35862273,4.78984111 2.73599283,4.66535363 2.73599283,3.58984425 L2.73599283,3.58984425 C2.73599283,3.32877177 2.83940719,3.0969675 3.04389446,2.90028508 L3.04389446,2.90028508 C3.76779501,2.20214057 5.60739994,2.14633584 6.3660321,2.15296997 L6.3660321,2.15296997 C8.30749043,2.16936017 9.83763276,2.59004199 11.0380199,3.4392105 L11.0380199,3.4392105 L12.2867971,1.90438525 C10.8538252,0.879607452 8.7586112,0.316096733 6.36525162,0.316096733 L6.36525162,0.316096733 C2.6911149,0.316096733 0.408974538,1.64409325 0.408974538,3.78145351 L0.408974538,3.78145351 Z" id="path-1"></path>
        <path d="M0.267706616,6.12095957 C0.267706616,9.75490127 2.91667529,11.9254322 7.35334659,11.9254322 L7.35334659,11.9254322 C11.7896276,11.9254322 14.4393768,9.75490127 14.4393768,6.12095957 L14.4393768,6.12095957 C14.4393768,2.48662763 11.7896276,0.316877219 7.35334659,0.316877219 L7.35334659,0.316877219 C2.91667529,0.316877219 0.267706616,2.48662763 0.267706616,6.12095957 L0.267706616,6.12095957 Z M2.60487122,6.12095957 C2.60487122,3.67569769 4.38047633,2.21618932 7.35334659,2.21618932 L7.35334659,2.21618932 C10.3269973,2.21618932 12.1022122,3.67569769 12.1022122,6.12095957 L12.1022122,6.12095957 C12.1022122,8.56505073 10.3269973,10.0257298 7.35334659,10.0257298 L7.35334659,10.0257298 C4.38047633,10.0257298 2.60487122,8.56505073 2.60487122,6.12095957 L2.60487122,6.12095957 Z" id="path-3"></path>
        <path d="M3.8259412,3.53013709 C2.68877344,5.18047423 1.36702081,6.5197878 0.0561949747,7.44115124 L0.0561949747,7.44115124 L11.3287508,7.44115124 C10.0167542,6.5197878 8.69500161,5.18047423 7.55861434,3.53013709 L7.55861434,3.53013709 C6.75627498,2.36838404 6.1303254,1.17385058 5.69247289,0.0245853014 L5.69247289,0.0245853014 C5.25344965,1.17385058 4.62789031,2.36838404 3.8259412,3.53013709 L3.8259412,3.53013709 Z" id="path-5"></path>
        <path d="M0.14360938,6.52290974 C17.5527345,6.39256862 19.1882424,16.170104 16.5404445,19.8477529 L16.5404445,19.8477529 C15.0364484,21.9347718 12.8405517,22.7156478 10.8151912,22.4842338 L10.8151912,22.4842338 C10.3121681,22.4377949 9.81851086,22.3164293 9.34982916,22.1267713 L9.34982916,22.1267713 C8.96270822,21.9788692 8.59158725,21.7935039 8.24505157,21.5683337 L8.24505157,21.5683337 C8.84914755,26.5017842 12.7683568,30.3117255 17.5180029,30.3117255 L17.5180029,30.3117255 C22.6855991,30.3117255 26.8752467,25.8028592 26.8752467,20.2407275 L26.8752467,20.2407275 C26.8752467,16.9119557 25.3743725,13.9625 23.061403,12.1283585 L23.061403,12.1283585 L8.15958838,0 L0.14360938,6.52290974 Z" id="path-7"></path>
        <path d="M1.52311796,0.172877596 C-2.4253595,10.3605582 2.80272436,13.0426975 5.25383989,12.2192851 L5.25383989,12.2192851 C7.32017594,11.525043 7.99568637,9.45948741 7.32446861,7.90436953 L7.32446861,7.90436953 C8.63568469,8.99119596 10.8347033,8.9560741 12.1104073,7.20817624 L12.1104073,7.20817624 C13.5305011,5.26125451 12.6696253,0.104975335 3.44272269,0.104975335 L3.44272269,0.104975335 C2.83862671,0.104975335 2.19979911,0.126828936 1.52311796,0.172877596 L1.52311796,0.172877596 Z" id="path-9"></path>
        <path d="M3.8559899,2.24350632 C1.54145938,4.2118914 0.0515120602,6.97754269 0.0515120602,10.2688511 L0.0515120602,10.2688511 C0.0515120602,15.771666 4.23296452,20.2333128 9.39041442,20.2333128 L9.39041442,20.2333128 C10.4311922,20.2333128 11.5254332,20.0666791 12.6126499,19.6159486 L12.6126499,19.6159486 C7.07120099,18.2329278 2.39296934,13.1706972 6.33949559,0.240779857 L6.33949559,0.240779857 L3.8559899,2.24350632 Z" id="path-11"></path>
        <path d="M-0.00039024288,0.0210731155 L-0.00039024288,11.703384 L2.34692068,11.703384 L2.34692068,7.8239795 L7.83451606,7.8239795 C10.8690447,7.8239795 12.6809424,6.36525162 12.6809424,3.92194094 L12.6809424,3.92194094 C12.6809424,1.50399606 10.904947,0.0503413315 7.92583289,0.0210731155 L7.92583289,0.0210731155 L-0.00039024288,0.0210731155 Z M2.34692068,1.98711674 L7.61793126,1.98711674 C8.76212338,1.98711674 10.2840706,2.18887231 10.2840706,3.93911163 L10.2840706,3.93911163 C10.2840706,5.68974119 8.76212338,5.89149676 7.61793126,5.89149676 L7.61793126,5.89149676 L2.34692068,5.89149676 L2.34692068,1.98711674 Z" id="path-13"></path>
        <path d="M2.082969,0.748251 L1.608103,2.506903 L0.614929,2.506903 L0.563248,2.740591 L1.543689,2.740591 L0.385735,7.006146 C0.321321,7.248073 0.285369,7.469777 0.285369,7.668262 L0.285369,7.668262 C0.285369,8.256227 0.588714,8.629229 1.262065,8.629229 L1.262065,8.629229 C1.928675,8.629229 2.440991,8.322888 2.761563,7.316981 L2.761563,7.316981 L2.990757,6.587455 L2.781786,6.587455 L2.626743,7.039851 C2.301677,8.000818 1.972117,8.199303 1.656788,8.199303 L1.656788,8.199303 C1.388646,8.199303 1.181922,8.064483 1.181922,7.741664 L1.181922,7.741664 C1.181922,7.668262 1.191659,7.576135 1.217874,7.480263 L1.217874,7.480263 L2.488927,2.740591 L3.960712,2.740591 L3.993668,2.506903 L2.548098,2.506903 L3.065657,0.583471 C2.781786,0.690578 2.429756,0.737765 2.082969,0.748251 L2.082969,0.748251 Z" id="path-15"></path>
        <path d="M2.273215,0.748251 L1.7976,2.506903 L0.804426,2.506903 L0.751996,2.740591 L1.733186,2.740591 L0.574483,7.006146 C0.511567,7.248073 0.473368,7.469777 0.473368,7.668262 L0.473368,7.668262 C0.473368,8.256227 0.778211,8.629229 1.451562,8.629229 L1.451562,8.629229 C2.118172,8.629229 2.629739,8.322888 2.950311,7.316981 L2.950311,7.316981 L3.179505,6.587455 L2.972032,6.587455 L2.816989,7.039851 C2.491923,8.000818 2.160865,8.199303 1.845536,8.199303 L1.845536,8.199303 C1.578892,8.199303 1.371419,8.064483 1.371419,7.741664 L1.371419,7.741664 C1.371419,7.668262 1.380407,7.576135 1.40812,7.480263 L1.40812,7.480263 L2.678424,2.740591 L4.150958,2.740591 L4.183914,2.506903 L2.737595,2.506903 L3.254405,0.583471 C2.972032,0.690578 2.620002,0.737765 2.273215,0.748251 L2.273215,0.748251 Z" id="path-17"></path>
        <path d="M2.010316,0.565495 L1.942906,0.806673 C2.502409,0.806673 2.717372,0.945987 2.717372,1.248583 L2.717372,1.248583 C2.717372,1.337714 2.694153,1.444072 2.661946,1.561665 L2.661946,1.561665 L0.438914,9.216445 L1.41561,9.216445 L1.828309,7.776867 C2.661946,5.232514 3.744251,3.523296 4.574143,3.523296 L4.574143,3.523296 C4.85352,3.523296 4.941902,3.703056 4.941902,3.915023 L4.941902,3.915023 C4.941902,4.106767 4.875241,4.329969 4.821313,4.488008 L4.821313,4.488008 L3.756235,7.770875 C3.64014,8.113168 3.567487,8.421007 3.567487,8.672671 L3.567487,8.672671 C3.567487,9.110087 3.783948,9.378229 4.359929,9.378229 L4.359929,9.378229 C4.821313,9.378229 5.398043,9.16027 5.720862,8.196307 L5.720862,8.196307 L6.000988,7.356678 L5.787523,7.356678 L5.643715,7.78211 C5.326139,8.701133 5.056499,8.952797 4.777122,8.952797 L4.777122,8.952797 C4.579386,8.952797 4.513474,8.846439 4.513474,8.677914 L4.513474,8.677914 C4.513474,8.56107 4.54643,8.409772 4.595864,8.241247 L4.595864,8.241247 L5.688655,4.89097 C5.78228,4.59886 5.854184,4.296264 5.854184,4.027373 L5.854184,4.027373 C5.854184,3.534531 5.628735,3.158533 4.947145,3.158533 L4.947145,3.158533 C4.007899,3.158533 3.243919,3.870832 2.40429,5.781531 L2.40429,5.781531 L4.035612,0.094374 C3.47536,0.390978 2.831969,0.553511 2.010316,0.565495 L2.010316,0.565495 Z" id="path-19"></path>
        <path d="M0.627662,4.771879 C0.627662,5.830965 1.250081,6.382229 2.242506,6.382229 L2.242506,6.382229 C3.282118,6.382229 4.225858,5.613006 4.705218,4.849026 L4.705218,4.849026 L4.508231,4.760644 C3.879071,5.613006 3.210214,5.903618 2.617755,5.903618 L2.617755,5.903618 C2.103192,5.903618 1.77513,5.579301 1.77513,4.804835 L1.77513,4.804835 C1.77513,4.437076 1.823815,4.063325 1.912946,3.700809 L1.912946,3.700809 C3.324062,3.255154 5.57256,2.340625 5.57256,0.945987 L5.57256,0.945987 C5.57256,0.444906 5.165104,0.193242 4.663274,0.193242 L4.663274,0.193242 C2.338378,0.193242 0.627662,3.11584 0.627662,4.771879 L0.627662,4.771879 Z M4.394383,0.411201 C4.519466,0.411201 4.592119,0.489097 4.592119,0.923517 L4.592119,0.923517 C4.592119,1.676262 4.225858,2.318155 3.635646,2.746583 L3.635646,2.746583 C3.277624,3.014725 2.685165,3.249162 1.967623,3.483599 L1.967623,3.483599 C2.422266,1.844787 3.592953,0.411201 4.394383,0.411201 L4.394383,0.411201 Z" id="path-21"></path>
        <path d="M2.126411,0.565495 L2.061248,0.806673 C2.6215,0.806673 2.835714,0.945987 2.835714,1.248583 L2.835714,1.248583 C2.835714,1.337714 2.812495,1.444072 2.77879,1.561665 L2.77879,1.561665 L0.55426,9.216445 L1.533952,9.216445 L1.945153,7.776867 C2.77879,5.232514 3.861095,3.523296 4.690987,3.523296 L4.690987,3.523296 C4.970364,3.523296 5.059495,3.703056 5.059495,3.915023 L5.059495,3.915023 C5.059495,4.106767 4.992085,4.329969 4.938157,4.488008 L4.938157,4.488008 L3.873079,7.770875 C3.757733,8.113168 3.686578,8.421007 3.686578,8.672671 L3.686578,8.672671 C3.686578,9.110087 3.901541,9.378229 4.476773,9.378229 L4.476773,9.378229 C4.938157,9.378229 5.514887,9.16027 5.839204,8.196307 L5.839204,8.196307 L6.118581,7.356678 L5.905865,7.356678 L5.762057,7.78211 C5.442983,8.701133 5.174841,8.952797 4.893966,8.952797 L4.893966,8.952797 C4.696979,8.952797 4.629569,8.846439 4.629569,8.677914 L4.629569,8.677914 C4.629569,8.56107 4.663274,8.409772 4.712708,8.241247 L4.712708,8.241247 L5.806997,4.89097 C5.899124,4.59886 5.971028,4.296264 5.971028,4.027373 L5.971028,4.027373 C5.971028,3.534531 5.745579,3.158533 5.063989,3.158533 L5.063989,3.158533 C4.12699,3.158533 3.362261,3.870832 2.522632,5.781531 L2.522632,5.781531 L4.153205,0.094374 C3.592953,0.390978 2.950311,0.553511 2.126411,0.565495 L2.126411,0.565495 Z" id="path-23"></path>
        <path d="M0.743757,4.771879 C0.743757,5.830965 1.366176,6.382229 2.35935,6.382229 L2.35935,6.382229 C3.398962,6.382229 4.343451,5.613006 4.822811,4.849026 L4.822811,4.849026 L4.625824,4.760644 C3.995915,5.613006 3.327807,5.903618 2.735348,5.903618 L2.735348,5.903618 C2.221534,5.903618 1.891974,5.579301 1.891974,4.804835 L1.891974,4.804835 C1.891974,4.437076 1.940659,4.063325 2.030539,3.700809 L2.030539,3.700809 C3.440157,3.255154 5.690902,2.340625 5.690902,0.945987 L5.690902,0.945987 C5.690902,0.444906 5.281948,0.193242 4.780867,0.193242 L4.780867,0.193242 C2.455222,0.193242 0.743757,3.11584 0.743757,4.771879 L0.743757,4.771879 Z M4.511227,0.411201 C4.637059,0.411201 4.708214,0.489097 4.708214,0.923517 L4.708214,0.923517 C4.708214,1.676262 4.343451,2.318155 3.751741,2.746583 L3.751741,2.746583 C3.393719,3.014725 2.802009,3.249162 2.085216,3.483599 L2.085216,3.483599 C2.53911,1.844787 3.709048,0.411201 4.511227,0.411201 L4.511227,0.411201 Z" id="path-25"></path>
        <path d="M45.911193,0.350532 L45.724692,1.047102 C45.679752,0.500332 45.382399,0.193242 44.964457,0.193242 L44.964457,0.193242 C43.161614,0.193242 41.447902,3.171266 41.447902,4.999575 L41.447902,4.999575 C41.447902,5.806997 41.819406,6.382229 42.567657,6.382229 L42.567657,6.382229 C43.394553,6.382229 44.178007,5.702137 44.964457,3.940489 L44.964457,3.940489 L44.749494,4.770381 C44.661112,5.082714 44.562993,5.40029 44.562993,5.679667 L44.562993,5.679667 C44.562993,5.829467 44.592204,5.962789 44.661112,6.080382 L44.661112,6.080382 C44.784697,6.263887 45.021381,6.382229 45.317985,6.382229 L45.317985,6.382229 C45.783114,6.382229 46.341119,6.108844 46.690153,5.193566 L46.690153,5.193566 L46.987506,4.358431 L46.760559,4.358431 L46.615253,4.780867 C46.318649,5.663189 46.011559,5.946311 45.701473,5.946311 L45.701473,5.946311 C45.499992,5.946311 45.434829,5.818981 45.434829,5.663189 L45.434829,5.663189 C45.434829,5.511891 45.492502,5.339621 45.521713,5.238506 L45.521713,5.238506 L47.009227,0.193242 C46.690153,0.294357 46.29543,0.339297 45.911193,0.350532 L45.911193,0.350532 Z M42.499498,5.132897 C42.499498,3.11584 43.876909,0.411201 44.923262,0.411201 L44.923262,0.411201 C45.347196,0.411201 45.579386,0.80143 45.579386,1.403626 L45.579386,1.403626 C45.579386,1.481522 45.574143,1.56541 45.568151,1.653792 L45.568151,1.653792 L45.347196,2.485182 C44.754737,4.386144 43.580305,6.01447 42.911448,6.01447 L42.911448,6.01447 C42.649298,6.01447 42.499498,5.786025 42.499498,5.132897 L42.499498,5.132897 Z" id="path-27"></path>
        <path d="M2.33688,3.449894 L2.712878,1.961631 C2.787029,1.652294 2.878407,1.297268 2.878407,1.005158 L2.878407,1.005158 C2.878407,0.615678 2.723364,0.323568 2.206554,0.323568 L2.206554,0.323568 C1.727194,0.323568 1.136233,0.547519 0.800681,1.530956 L0.800681,1.530956 L0.505575,2.384816 L0.72653,2.384816 L0.880075,1.950396 C1.182671,1.084552 1.450064,0.752745 1.79011,0.752745 L1.79011,0.752745 C1.950396,0.752745 2.035782,0.833637 2.035782,1.020887 L2.035782,1.020887 C2.035782,1.136233 2.006571,1.286033 1.950396,1.480024 L1.950396,1.480024 L0.555758,6.512555 L1.569155,6.512555 L1.813329,5.533612 C2.672432,2.641723 3.713542,0.615678 4.562159,0.615678 L4.562159,0.615678 C4.619832,0.615678 4.661027,0.627662 4.692485,0.661367 L4.692485,0.661367 C4.386144,0.793191 4.170432,1.038863 4.170432,1.411116 L4.170432,1.411116 C4.170432,1.681505 4.363674,1.835799 4.629569,1.835799 L4.629569,1.835799 C5.062491,1.835799 5.450473,1.456805 5.450473,0.987182 L5.450473,0.987182 C5.450473,0.604443 5.194315,0.323568 4.762142,0.323568 L4.762142,0.323568 C3.851358,0.323568 3.179505,1.158703 2.33688,3.449894 L2.33688,3.449894 Z" id="path-29"></path>
        <path d="M2.00732,0.748251 L1.530956,2.506903 L0.537782,2.506903 L0.486101,2.740591 L1.467291,2.740591 L0.308588,7.006146 C0.245672,7.248073 0.207473,7.469777 0.207473,7.668262 L0.207473,7.668262 C0.207473,8.256227 0.511567,8.629229 1.185667,8.629229 L1.185667,8.629229 C1.852277,8.629229 2.364593,8.322888 2.685914,7.316981 L2.685914,7.316981 L2.91361,6.587455 L2.706137,6.587455 L2.551094,7.039851 C2.22453,8.000818 1.89497,8.199303 1.58039,8.199303 L1.58039,8.199303 C1.312248,8.199303 1.105524,8.064483 1.105524,7.741664 L1.105524,7.741664 C1.105524,7.668262 1.115261,7.576135 1.142225,7.480263 L1.142225,7.480263 L2.41178,2.740591 L3.885063,2.740591 L3.916521,2.506903 L2.470951,2.506903 L2.98851,0.583471 C2.706137,0.690578 2.353358,0.737765 2.00732,0.748251 L2.00732,0.748251 Z" id="path-31"></path>
        <path d="M0.39697,4.586876 C0.39697,5.798758 1.025381,6.382229 1.990842,6.382229 L1.990842,6.382229 C4.162942,6.382229 5.341868,3.661861 5.341868,1.982603 L5.341868,1.982603 C5.341868,0.772968 4.7187,0.193242 3.754737,0.193242 L3.754737,0.193242 C1.582637,0.193242 0.39697,2.909116 0.39697,4.586876 L0.39697,4.586876 Z M1.394638,5.161359 C1.394638,3.125577 2.438744,0.422436 3.686578,0.422436 L3.686578,0.422436 C4.122496,0.422436 4.3442,0.716793 4.3442,1.413363 L4.3442,1.413363 C4.3442,3.455137 3.311329,6.154533 2.05975,6.154533 L2.05975,6.154533 C1.616342,6.154533 1.394638,5.841451 1.394638,5.161359 L1.394638,5.161359 Z" id="path-33"></path>
        <path d="M3.882067,0.671853 C3.391472,1.177428 3.073147,1.945902 2.769053,3.16078 L2.769053,3.16078 L2.76381,3.172015 L1.788612,3.172015 L1.719704,3.402707 L2.709882,3.402707 L0.717542,11.235 C0.999915,11.133136 1.351196,11.082953 1.696485,11.071718 L1.696485,11.071718 L3.654371,3.402707 L4.938157,3.402707 L5.007814,3.172015 L3.712793,3.172015 L3.718036,3.16078 C4.000409,2.029041 4.207882,0.957971 4.602605,0.565495 L4.602605,0.565495 C4.757648,0.420189 4.959129,0.267393 5.237008,0.267393 L5.237008,0.267393 C5.518632,0.267393 5.73734,0.408954 5.73734,0.543025 L5.73734,0.543025 C5.374075,0.660618 5.114172,0.935501 5.114172,1.316742 L5.114172,1.316742 C5.103686,1.569155 5.278952,1.703975 5.55009,1.703975 L5.55009,1.703975 C5.966534,1.703975 6.281114,1.305507 6.281114,0.913031 L6.281114,0.913031 C6.281114,0.453894 5.912606,0.094374 5.246745,0.094374 L5.246745,0.094374 C4.729935,0.094374 4.219117,0.313082 3.882067,0.671853 L3.882067,0.671853 Z" id="path-35"></path>
        <path d="M2.443987,0.748251 L1.968372,2.506903 L0.975198,2.506903 L0.922768,2.740591 L1.904707,2.740591 L0.746753,7.006146 C0.682339,7.248073 0.645638,7.469777 0.645638,7.668262 L0.645638,7.668262 C0.645638,8.256227 0.948983,8.629229 1.623832,8.629229 L1.623832,8.629229 C2.288944,8.629229 2.802009,8.322888 3.122581,7.316981 L3.122581,7.316981 L3.351026,6.587455 L3.143553,6.587455 L2.98851,7.039851 C2.663444,8.000818 2.332386,8.199303 2.017806,8.199303 L2.017806,8.199303 C1.751162,8.199303 1.543689,8.064483 1.543689,7.741664 L1.543689,7.741664 C1.543689,7.668262 1.552677,7.576135 1.579641,7.480263 L1.579641,7.480263 L2.849196,2.740591 L4.322479,2.740591 L4.354686,2.506903 L2.907618,2.506903 L3.426675,0.583471 C3.143553,0.690578 2.790774,0.737765 2.443987,0.748251 L2.443987,0.748251 Z" id="path-37"></path>
        <path d="M2.310665,0.565495 L2.245502,0.806673 C2.805754,0.806673 3.020717,0.945987 3.020717,1.248583 L3.020717,1.248583 C3.020717,1.337714 2.996749,1.444072 2.964542,1.561665 L2.964542,1.561665 L0.740012,9.216445 L1.718206,9.216445 L2.130905,7.776867 C2.964542,5.232514 4.046098,3.523296 4.877488,3.523296 L4.877488,3.523296 C5.156116,3.523296 5.243749,3.703056 5.243749,3.915023 L5.243749,3.915023 C5.243749,4.106767 5.177837,4.329969 5.123909,4.488008 L5.123909,4.488008 L4.057333,7.770875 C3.941987,8.113168 3.870832,8.421007 3.870832,8.672671 L3.870832,8.672671 C3.870832,9.110087 4.085795,9.378229 4.661776,9.378229 L4.661776,9.378229 C5.123909,9.378229 5.699141,9.16027 6.023458,8.196307 L6.023458,8.196307 L6.303584,7.356678 L6.090119,7.356678 L5.94706,7.78211 C5.628735,8.701133 5.359844,8.952797 5.078969,8.952797 L5.078969,8.952797 C4.881233,8.952797 4.81607,8.846439 4.81607,8.677914 L4.81607,8.677914 C4.81607,8.56107 4.847528,8.409772 4.896962,8.241247 L4.896962,8.241247 L5.991251,4.89097 C6.084876,4.59886 6.155282,4.296264 6.155282,4.027373 L6.155282,4.027373 C6.155282,3.534531 5.931331,3.158533 5.249741,3.158533 L5.249741,3.158533 C4.311244,3.158533 3.546515,3.870832 2.706886,5.781531 L2.706886,5.781531 L4.338208,0.094374 C3.778705,0.390978 3.135314,0.553511 2.310665,0.565495 L2.310665,0.565495 Z" id="path-39"></path>
        <path d="M0.17976,4.771879 C0.17976,5.830965 0.802928,6.382229 1.796102,6.382229 L1.796102,6.382229 C2.834965,6.382229 3.779454,5.613006 4.258814,4.849026 L4.258814,4.849026 L4.061827,4.760644 C3.433416,5.613006 2.764559,5.903618 2.1721,5.903618 L2.1721,5.903618 C1.656788,5.903618 1.328726,5.579301 1.328726,4.804835 L1.328726,4.804835 C1.328726,4.437076 1.37816,4.063325 1.466542,3.700809 L1.466542,3.700809 C2.876909,3.255154 5.126156,2.340625 5.126156,0.945987 L5.126156,0.945987 C5.126156,0.444906 4.7187,0.193242 4.21687,0.193242 L4.21687,0.193242 C1.891225,0.193242 0.17976,3.11584 0.17976,4.771879 L0.17976,4.771879 Z M3.947979,0.411201 C4.073811,0.411201 4.144966,0.489097 4.144966,0.923517 L4.144966,0.923517 C4.144966,1.676262 3.779454,2.318155 3.188493,2.746583 L3.188493,2.746583 C2.830471,3.014725 2.238012,3.249162 1.52047,3.483599 L1.52047,3.483599 C1.974364,1.844787 3.1458,0.411201 3.947979,0.411201 L3.947979,0.411201 Z" id="path-41"></path>
        <path d="M5.815985,0.704809 C5.556082,0.892808 5.308163,1.193157 5.080467,1.560167 L5.080467,1.560167 C4.908946,1.521968 4.708963,1.504741 4.499243,1.504741 L4.499243,1.504741 C2.607269,1.504741 1.944404,3.016972 1.944404,3.852107 L1.944404,3.852107 C1.944404,4.68125 2.563078,5.069981 3.481352,5.092451 L3.481352,5.092451 C1.999081,5.815985 1.739178,6.209959 1.739178,6.660857 L1.739178,6.660857 C1.739178,6.939485 1.905456,7.138719 2.170602,7.256312 L2.170602,7.256312 C0.65912,7.850269 0.23968,8.412768 0.23968,8.907857 L0.23968,8.907857 C0.23968,9.387217 0.776713,9.737 1.954141,9.737 L1.954141,9.737 C4.237842,9.737 5.318649,8.451716 5.318649,7.628565 L5.318649,7.628565 C5.318649,7.072058 4.809329,6.856346 4.034114,6.649622 L4.034114,6.649622 L3.210214,6.433161 C2.766806,6.32156 2.530871,6.205465 2.530871,6.048175 L2.530871,6.048175 C2.530871,5.749324 3.204971,5.454218 3.874577,5.075973 L3.874577,5.075973 C5.230267,4.925424 6.120079,3.807167 6.120079,2.778041 L6.120079,2.778041 C6.120079,2.150379 5.806248,1.778126 5.273709,1.61035 L5.273709,1.61035 C5.4677,1.271053 5.705882,0.987182 5.893881,0.865095 L5.893881,0.865095 C5.965036,0.820904 6.086374,0.754243 6.170262,0.754243 L6.170262,0.754243 C6.197975,0.754243 6.219696,0.759486 6.236923,0.776713 L6.236923,0.776713 C6.142549,0.886816 6.086374,1.049349 6.086374,1.182671 L6.086374,1.182671 C6.086374,1.387897 6.215202,1.515976 6.406946,1.515976 L6.406946,1.515976 C6.744745,1.515976 7.039102,1.182671 7.039102,0.85386 L7.039102,0.85386 C7.039102,0.569989 6.84586,0.453145 6.552252,0.453145 L6.552252,0.453145 C6.281114,0.453145 6.032446,0.558754 5.815985,0.704809 L5.815985,0.704809 Z M2.927841,4.146464 C2.927841,3.779454 3.166023,1.709967 4.443817,1.709967 L4.443817,1.709967 C4.963623,1.709967 5.112674,2.038778 5.112674,2.449979 L5.112674,2.449979 C5.112674,3.323313 4.87599,4.886476 3.609431,4.886476 L3.609431,4.886476 C3.188493,4.886476 2.927841,4.692485 2.927841,4.146464 L2.927841,4.146464 Z M1.191659,8.713117 C1.191659,8.385055 1.324981,7.863002 2.348115,7.311738 L2.348115,7.311738 L3.868585,7.700469 C4.323228,7.823305 4.549426,7.856261 4.549426,8.062236 L4.549426,8.062236 C4.549426,8.907857 3.299345,9.547503 2.270219,9.547503 L2.270219,9.547503 C1.65529,9.547503 1.191659,9.269624 1.191659,8.713117 L1.191659,8.713117 Z" id="path-43"></path>
        <path d="M4.892468,0.350532 L4.706716,1.047102 C4.662525,0.500332 4.364423,0.193242 3.944983,0.193242 L3.944983,0.193242 C2.143638,0.193242 0.428428,3.171266 0.428428,4.999575 L0.428428,4.999575 C0.428428,5.806997 0.799932,6.382229 1.55043,6.382229 L1.55043,6.382229 C2.376577,6.382229 3.16078,5.702137 3.944983,3.940489 L3.944983,3.940489 L3.730769,4.770381 C3.643885,5.082714 3.545017,5.40029 3.545017,5.679667 L3.545017,5.679667 C3.545017,5.829467 3.574228,5.962789 3.643885,6.080382 L3.643885,6.080382 C3.765223,6.263887 4.003405,6.382229 4.29926,6.382229 L4.29926,6.382229 C4.765887,6.382229 5.322394,6.108844 5.672926,5.193566 L5.672926,5.193566 L5.96953,4.358431 L5.742583,4.358431 L5.596528,4.780867 C5.300673,5.663189 4.992085,5.946311 4.683497,5.946311 L4.683497,5.946311 C4.481267,5.946311 4.416853,5.818981 4.416853,5.663189 L4.416853,5.663189 C4.416853,5.511891 4.474526,5.339621 4.503737,5.238506 L4.503737,5.238506 L5.991251,0.193242 C5.672926,0.294357 5.277454,0.339297 4.892468,0.350532 L4.892468,0.350532 Z M1.480773,5.132897 C1.480773,3.11584 2.858933,0.411201 3.906035,0.411201 L3.906035,0.411201 C4.329969,0.411201 4.560661,0.80143 4.560661,1.403626 L4.560661,1.403626 C4.560661,1.481522 4.554669,1.56541 4.550175,1.653792 L4.550175,1.653792 L4.329969,2.485182 C3.736761,4.386144 2.562329,6.01447 1.894221,6.01447 L1.894221,6.01447 C1.632071,6.01447 1.480773,5.786025 1.480773,5.132897 L1.480773,5.132897 Z" id="path-45"></path>
        <path d="M5.435493,3.427424 L5.857929,1.916691 C5.938821,1.626079 6.015219,1.291276 6.015219,0.995421 L6.015219,0.995421 C6.015219,0.550515 5.841451,0.193242 5.237757,0.193242 L5.237757,0.193242 C4.222862,0.193242 3.447647,0.979692 2.491174,3.225943 L2.491174,3.225943 L2.867172,1.787863 C2.954056,1.503992 3.04094,1.169189 3.04094,0.878577 L3.04094,0.878577 C3.04094,0.495089 2.884399,0.193242 2.350362,0.193242 L2.350362,0.193242 C1.864261,0.193242 1.260567,0.411201 0.919023,1.369921 L0.919023,1.369921 L0.618674,2.201311 L0.843374,2.201311 L1.000664,1.775879 C1.307754,0.934752 1.58039,0.611184 1.928675,0.611184 L1.928675,0.611184 C2.11967,0.611184 2.176594,0.746004 2.176594,0.901047 L2.176594,0.901047 C2.176594,1.051596 2.11967,1.225364 2.08971,1.319738 L2.08971,1.319738 L0.669606,6.221194 L1.701728,6.221194 L1.892723,5.484927 C2.698647,2.730854 3.96221,0.555758 4.849026,0.555758 L4.849026,0.555758 C5.091702,0.555758 5.180084,0.712299 5.180084,0.929509 L5.180084,0.929509 C5.180084,1.102528 5.128403,1.308503 5.058746,1.515227 L5.058746,1.515227 L3.574228,6.221194 L4.646796,6.221194 L4.727688,5.936574 L4.716453,5.992 C5.735842,2.841706 6.947724,0.555758 7.88697,0.555758 L7.88697,0.555758 C8.072722,0.555758 8.147622,0.700315 8.147622,0.913031 L8.147622,0.913031 C8.147622,1.086799 8.09669,1.30326 8.026284,1.515227 L8.026284,1.515227 L6.902784,4.783114 C6.784442,5.128403 6.704299,5.429501 6.704299,5.679667 L6.704299,5.679667 C6.704299,5.830965 6.735008,5.964287 6.803916,6.069896 L6.803916,6.069896 C6.925254,6.254899 7.151452,6.382229 7.539434,6.382229 L7.539434,6.382229 C8.026284,6.382229 8.635221,6.165768 8.976765,5.206299 L8.976765,5.206299 L9.273369,4.370415 L9.051665,4.370415 L8.895873,4.7936 C8.565564,5.70738 8.27645,5.959044 7.979846,5.959044 L7.979846,5.959044 C7.784357,5.959044 7.701967,5.869913 7.701967,5.68491 L7.701967,5.68491 C7.701967,5.574058 7.730429,5.429501 7.788851,5.25049 L7.788851,5.25049 L8.94306,1.916691 C9.041928,1.63282 9.111585,1.324981 9.111585,1.046353 L9.111585,1.046353 C9.111585,0.572236 8.901865,0.193242 8.27645,0.193242 L8.27645,0.193242 C7.168679,0.193242 6.421177,1.092042 5.435493,3.427424 L5.435493,3.427424 Z" id="path-47"></path>
        <path d="M0.153545,4.771879 C0.153545,5.830965 0.775215,6.382229 1.768389,6.382229 L1.768389,6.382229 C2.808001,6.382229 3.753239,5.613006 4.23185,4.849026 L4.23185,4.849026 L4.034114,4.760644 C3.405703,5.613006 2.737595,5.903618 2.145136,5.903618 L2.145136,5.903618 C1.630573,5.903618 1.301013,5.579301 1.301013,4.804835 L1.301013,4.804835 C1.301013,4.437076 1.349698,4.063325 1.438829,3.700809 L1.438829,3.700809 C2.850694,3.255154 5.099192,2.340625 5.099192,0.945987 L5.099192,0.945987 C5.099192,0.444906 4.690987,0.193242 4.189157,0.193242 L4.189157,0.193242 C1.864261,0.193242 0.153545,3.11584 0.153545,4.771879 L0.153545,4.771879 Z M3.921015,0.411201 C4.046098,0.411201 4.118002,0.489097 4.118002,0.923517 L4.118002,0.923517 C4.118002,1.676262 3.753239,2.318155 3.16078,2.746583 L3.16078,2.746583 C2.803507,3.014725 2.211048,3.249162 1.493506,3.483599 L1.493506,3.483599 C1.948149,1.844787 3.120334,0.411201 3.921015,0.411201 L3.921015,0.411201 Z" id="path-49"></path>
    </defs>
    <g id="Symbols" stroke="none" stroke-width="1" fill="none" fill-rule="evenodd">
        <g id="desktop-header" transform="translate(-661.000000, -8.000000)">
            <g id="Group-4" transform="translate(661.942000, 8.000000)">
                <g id="Group-84" transform="translate(4.058000, 0.000000)">
                    <path d="M18.2786253,39.3404238 L12.238446,50.9501494 L14.7309273,50.9501494 L15.9867288,48.425278 L23.2713927,48.425278 L24.5264138,50.9501494 L27.0532364,50.9501494 L21.0142279,39.3404238 L18.2786253,39.3404238 Z M19.6210608,41.1464678 L22.3137367,46.5392342 L16.9283849,46.5392342 L19.6210608,41.1464678 Z" id="Fill-1" fill="#29235C"></path>
                    <polygon id="Fill-2" fill="#29235C" points="28.9860314 39.3404238 28.9860314 50.9501494 39.6146865 50.9501494 39.6146865 48.9275206 31.3368545 48.9275206 31.3368545 39.3404238"></polygon>
                    <path d="M47.2651249,39.3404238 L41.2245554,50.9501494 L43.7185977,50.9501494 L44.9732285,48.425278 L52.2571119,48.425278 L53.5133037,50.9501494 L56.0397361,50.9501494 L49.9995568,39.3404238 L47.2651249,39.3404238 Z M48.6075605,41.1464678 L51.3002363,46.5392342 L45.9137139,46.5392342 L48.6075605,41.1464678 Z" id="Fill-3" fill="#29235C"></path>
                    <g id="Group-6" transform="translate(56.975460, 39.024288)">
                        <mask id="mask-2" fill="white">
                            <use xlink:href="#path-1"></use>
                        </mask>
                        <g id="Clip-5"></g>
                        <polygon id="Fill-4" fill="#29235C" mask="url(#mask-2)" points="-1.92077546 13.8762563 14.8643513 13.8762563 14.8643513 -1.63472742 -1.92077546 -1.63472742"></polygon>
                    </g>
                    <polygon id="Fill-7" fill="#29235C" points="72.4649809 50.9493299 74.7198042 50.9493299 74.7198042 39.3411652 72.4649809 39.3411652"></polygon>
                    <polygon id="Fill-8" fill="#29235C" points="88.2550663 39.3413603 88.2550663 43.757739 79.8429908 39.3421408 79.8429908 39.3413603 79.8402591 39.3413603 78.7667009 39.3413603 77.6182162 39.3413603 77.6182162 50.949525 79.8429908 50.949525 79.8429908 42.0352069 88.2550663 46.4504149 88.2550663 47.7667041 88.2550663 50.949525 90.5013043 50.949525 90.5013043 39.3413603"></polygon>
                    <g id="Group-11" transform="translate(92.487563, 39.024288)">
                        <mask id="mask-4" fill="white">
                            <use xlink:href="#path-3"></use>
                        </mask>
                        <g id="Clip-10"></g>
                        <polygon id="Fill-9" fill="#29235C" mask="url(#mask-4)" points="-1.68311754 13.8762563 16.390201 13.8762563 16.390201 -1.63472742 -1.68311754 -1.63472742"></polygon>
                    </g>
                    <g id="Group-14" transform="translate(47.609631, 27.707244)">
                        <mask id="mask-6" fill="white">
                            <use xlink:href="#path-5"></use>
                        </mask>
                        <g id="Clip-13"></g>
                        <polygon id="Fill-12" fill="#C71F3C" mask="url(#mask-6)" points="-1.89462918 9.39236564 13.2803554 9.39236564 13.2803554 -1.9266291 -1.89462918 -1.9266291"></polygon>
                    </g>
                    <g id="Group-17" transform="translate(45.268174, 0.000000)">
                        <mask id="mask-8" fill="white">
                            <use xlink:href="#path-7"></use>
                        </mask>
                        <g id="Clip-16"></g>
                        <polygon id="Fill-15" fill="#C71F3C" mask="url(#mask-8)" points="-1.80760502 32.2629399 28.8264611 32.2629399 28.8264611 -1.9512144 -1.80760502 -1.9512144"></polygon>
                    </g>
                    <g id="Group-20" transform="translate(43.707203, 10.536558)">
                        <mask id="mask-10" fill="white">
                            <use xlink:href="#path-9"></use>
                        </mask>
                        <g id="Clip-19"></g>
                        <polygon id="Fill-18" fill="#C71F3C" mask="url(#mask-10)" points="-1.85716587 14.3094259 14.6060105 14.3094259 14.6060105 -1.84662931 -1.85716587 -1.84662931"></polygon>
                    </g>
                    <g id="Group-23" transform="translate(34.731616, 9.756072)">
                        <mask id="mask-12" fill="white">
                            <use xlink:href="#path-11"></use>
                        </mask>
                        <g id="Clip-22"></g>
                        <polygon id="Fill-21" fill="#C71F3C" mask="url(#mask-12)" points="-1.89970234 22.184137 14.563474 22.184137 14.563474 -1.71082479 -1.89970234 -1.71082479"></polygon>
                    </g>
                    <g id="Group-83" transform="translate(0.000000, 39.414531)">
                        <mask id="mask-14" fill="white">
                            <use xlink:href="#path-13"></use>
                        </mask>
                        <g id="Clip-82"></g>
                        <polygon id="Fill-81" fill="#29235C" mask="url(#mask-14)" points="-1.9512144 13.6545984 14.632547 13.6545984 14.632547 -1.93053153 -1.9512144 -1.93053153"></polygon>
                    </g>
                </g>
                <g id="Group-58" transform="translate(0.000000, 58.000000)">
                    <g id="Group-6" transform="translate(6.546000, 0.749000)">
                        <mask id="mask-16" fill="white">
                            <use xlink:href="#path-15"></use>
                        </mask>
                        <g id="Clip-5"></g>
                        <polygon id="Fill-4" fill="#29235C" mask="url(#mask-16)" points="-3.46038 12.374229 7.737919 12.374229 7.737919 -3.161529 -3.46038 -3.161529"></polygon>
                    </g>
                    <g id="Group-9" transform="translate(12.538000, 0.749000)">
                        <mask id="mask-18" fill="white">
                            <use xlink:href="#path-17"></use>
                        </mask>
                        <g id="Clip-8"></g>
                        <polygon id="Fill-7" fill="#29235C" mask="url(#mask-18)" points="-3.271632 12.374229 7.928165 12.374229 7.928165 -3.161529 -3.271632 -3.161529"></polygon>
                    </g>
                    <g id="Group-12" transform="translate(16.283000, 0.000000)">
                        <mask id="mask-20" fill="white">
                            <use xlink:href="#path-19"></use>
                        </mask>
                        <g id="Clip-11"></g>
                        <polygon id="Fill-10" fill="#29235C" mask="url(#mask-20)" points="-3.306835 13.123229 9.745239 13.123229 9.745239 -3.650626 -3.306835 -3.650626"></polygon>
                    </g>
                    <g id="Group-15" transform="translate(22.275000, 2.996000)">
                        <mask id="mask-22" fill="white">
                            <use xlink:href="#path-21"></use>
                        </mask>
                        <g id="Clip-14"></g>
                        <polygon id="Fill-13" fill="#29235C" mask="url(#mask-22)" points="-3.118087 10.127229 9.31756 10.127229 9.31756 -3.551758 -3.118087 -3.551758"></polygon>
                    </g>
                    <g id="Group-18" transform="translate(29.765000, 0.000000)">
                        <mask id="mask-24" fill="white">
                            <use xlink:href="#path-23"></use>
                        </mask>
                        <g id="Clip-17"></g>
                        <polygon id="Fill-16" fill="#29235C" mask="url(#mask-24)" points="-3.189991 13.123229 9.86433 13.123229 9.86433 -3.650626 -3.189991 -3.650626"></polygon>
                    </g>
                    <g id="Group-21" transform="translate(35.757000, 2.996000)">
                        <mask id="mask-26" fill="white">
                            <use xlink:href="#path-25"></use>
                        </mask>
                        <g id="Clip-20"></g>
                        <polygon id="Fill-19" fill="#29235C" mask="url(#mask-26)" points="-3.000494 10.127229 9.435902 10.127229 9.435902 -3.551758 -3.000494 -3.551758"></polygon>
                    </g>
                    <g id="Group-24" transform="translate(0.000000, 2.996000)">
                        <mask id="mask-28" fill="white">
                            <use xlink:href="#path-27"></use>
                        </mask>
                        <use id="Clip-23" fill="#29235C" xlink:href="#path-27"></use>
                        <path d="M4.911193,0.350532 L4.724692,1.047102 C4.679752,0.500332 4.382399,0.193242 3.964457,0.193242 L3.964457,0.193242 C2.161614,0.193242 0.447902,3.171266 0.447902,4.999575 L0.447902,4.999575 C0.447902,5.806997 0.819406,6.382229 1.567657,6.382229 L1.567657,6.382229 C2.394553,6.382229 3.178007,5.702137 3.964457,3.940489 L3.964457,3.940489 L3.749494,4.770381 C3.661112,5.082714 3.562993,5.40029 3.562993,5.679667 L3.562993,5.679667 C3.562993,5.829467 3.592204,5.962789 3.661112,6.080382 L3.661112,6.080382 C3.784697,6.263887 4.021381,6.382229 4.317985,6.382229 L4.317985,6.382229 C4.783114,6.382229 5.341119,6.108844 5.690153,5.193566 L5.690153,5.193566 L5.987506,4.358431 L5.760559,4.358431 L5.615253,4.780867 C5.318649,5.663189 5.011559,5.946311 4.701473,5.946311 L4.701473,5.946311 C4.499992,5.946311 4.434829,5.818981 4.434829,5.663189 L4.434829,5.663189 C4.434829,5.511891 4.492502,5.339621 4.521713,5.238506 L4.521713,5.238506 L6.009227,0.193242 C5.690153,0.294357 5.29543,0.339297 4.911193,0.350532 L4.911193,0.350532 Z M1.499498,5.132897 C1.499498,3.11584 2.876909,0.411201 3.923262,0.411201 L3.923262,0.411201 C4.347196,0.411201 4.579386,0.80143 4.579386,1.403626 L4.579386,1.403626 C4.579386,1.481522 4.574143,1.56541 4.568151,1.653792 L4.568151,1.653792 L4.347196,2.485182 C3.754737,4.386144 2.580305,6.01447 1.911448,6.01447 L1.911448,6.01447 C1.649298,6.01447 1.499498,5.786025 1.499498,5.132897 L1.499498,5.132897 Z" id="Clip-23" fill="#29235C"></path>
                    </g>
                    <g id="Group-27" transform="translate(47.741000, 2.247000)">
                        <mask id="mask-30" fill="white">
                            <use xlink:href="#path-29"></use>
                        </mask>
                        <g id="Clip-26"></g>
                        <polygon id="Fill-25" fill="#29235C" mask="url(#mask-30)" points="-3.239425 10.257555 9.195473 10.257555 9.195473 -3.421432 -3.239425 -3.421432"></polygon>
                    </g>
                    <g id="Group-30" transform="translate(52.984000, 0.749000)">
                        <mask id="mask-32" fill="white">
                            <use xlink:href="#path-31"></use>
                        </mask>
                        <g id="Clip-29"></g>
                        <polygon id="Fill-28" fill="#29235C" mask="url(#mask-32)" points="-3.537527 12.374229 7.661521 12.374229 7.661521 -3.161529 -3.537527 -3.161529"></polygon>
                    </g>
                    <g id="Group-33" transform="translate(58.976000, 2.996000)">
                        <mask id="mask-34" fill="white">
                            <use xlink:href="#path-33"></use>
                        </mask>
                        <g id="Clip-32"></g>
                        <polygon id="Fill-31" fill="#29235C" mask="url(#mask-34)" points="-3.347281 10.127229 9.087617 10.127229 9.087617 -3.551758 -3.347281 -3.551758"></polygon>
                    </g>
                    <g id="Group-36" transform="translate(64.219000, 0.000000)">
                        <mask id="mask-36" fill="white">
                            <use xlink:href="#path-35"></use>
                        </mask>
                        <g id="Clip-35"></g>
                        <polygon id="Fill-34" fill="#29235C" mask="url(#mask-36)" points="-3.027458 14.98 10.026114 14.98 10.026114 -3.650626 -3.027458 -3.650626"></polygon>
                    </g>
                    <g id="Group-39" transform="translate(71.709000, 0.749000)">
                        <mask id="mask-38" fill="white">
                            <use xlink:href="#path-37"></use>
                        </mask>
                        <g id="Clip-38"></g>
                        <polygon id="Fill-37" fill="#29235C" mask="url(#mask-38)" points="-3.099362 12.374229 8.099686 12.374229 8.099686 -3.161529 -3.099362 -3.161529"></polygon>
                    </g>
                    <g id="Group-42" transform="translate(74.705000, 0.000000)">
                        <mask id="mask-40" fill="white">
                            <use xlink:href="#path-39"></use>
                        </mask>
                        <g id="Clip-41"></g>
                        <polygon id="Fill-40" fill="#29235C" mask="url(#mask-40)" points="-3.004988 13.123229 10.048584 13.123229 10.048584 -3.650626 -3.004988 -3.650626"></polygon>
                    </g>
                    <g id="Group-45" transform="translate(81.446000, 2.996000)">
                        <mask id="mask-42" fill="white">
                            <use xlink:href="#path-41"></use>
                        </mask>
                        <g id="Clip-44"></g>
                        <polygon id="Fill-43" fill="#29235C" mask="url(#mask-42)" points="-3.564491 10.127229 8.871156 10.127229 8.871156 -3.551758 -3.564491 -3.551758"></polygon>
                    </g>
                    <g id="Group-48" transform="translate(88.187000, 1.498000)">
                        <mask id="mask-44" fill="white">
                            <use xlink:href="#path-43"></use>
                        </mask>
                        <g id="Clip-47"></g>
                        <polygon id="Fill-46" fill="#29235C" mask="url(#mask-44)" points="-3.50532 13.482 10.784102 13.482 10.784102 -3.291855 -3.50532 -3.291855"></polygon>
                    </g>
                    <g id="Group-51" transform="translate(94.179000, 2.996000)">
                        <mask id="mask-46" fill="white">
                            <use xlink:href="#path-45"></use>
                        </mask>
                        <g id="Clip-50"></g>
                        <polygon id="Fill-49" fill="#29235C" mask="url(#mask-46)" points="-3.315823 10.127229 9.737 10.127229 9.737 -3.551758 -3.315823 -3.551758"></polygon>
                    </g>
                    <g id="Group-54" transform="translate(100.171000, 2.996000)">
                        <mask id="mask-48" fill="white">
                            <use xlink:href="#path-47"></use>
                        </mask>
                        <g id="Clip-53"></g>
                        <polygon id="Fill-52" fill="#29235C" mask="url(#mask-48)" points="-3.126326 10.127229 13.018369 10.127229 13.018369 -3.551758 -3.126326 -3.551758"></polygon>
                    </g>
                    <g id="Group-57" transform="translate(109.908000, 2.996000)">
                        <mask id="mask-50" fill="white">
                            <use xlink:href="#path-49"></use>
                        </mask>
                        <g id="Clip-56"></g>
                        <polygon id="Fill-55" fill="#29235C" mask="url(#mask-50)" points="-3.591455 10.127229 8.844941 10.127229 8.844941 -3.551758 -3.591455 -3.551758"></polygon>
                    </g>
                </g>
            </g>
        </g>
    </g>
</svg>