<?xml version="1.0" encoding="UTF-8"?>
<svg width="29px" height="29px" viewBox="0 0 29 29" version="1.1" xmlns="http://www.w3.org/2000/svg" xmlns:xlink="http://www.w3.org/1999/xlink">
    <title>shutterstock_1933618019</title>
    <defs>
        <filter id="filter-1">
            <feColorMatrix in="SourceGraphic" type="matrix" values="0 0 0 0 1.000000 0 0 0 0 1.000000 0 0 0 0 1.000000 0 0 0 1.000000 0"></feColorMatrix>
        </filter>
    </defs>
    <g id="Web" stroke="none" stroke-width="1" fill="none" fill-rule="evenodd">
        <g id="shutterstock_1933618019" transform="translate(-525.000000, -102.000000)" filter="url(#filter-1)">
            <g transform="translate(525.000000, 102.000000)">
                <path d="M14.4342,6.86508595 C18.6144345,6.86508595 22.0032238,10.2538753 22.0032238,14.4341098 C22.0032238,18.6143443 18.6144345,22.0031336 14.4342,22.0031336 C10.2539655,22.0031336 6.86517616,18.6143443 6.86517616,14.4341098 C6.86517616,10.2538753 10.2539655,6.86508595 14.4342,6.86508595 Z M14.4343037,9.03534009 C13.1125821,9.03534009 12.0411314,10.1067908 12.0411314,11.4285124 C12.0411314,12.0973481 12.3156789,12.7020329 12.7581684,13.1361955 C12.5483582,13.0763838 12.3270549,13.0441324 12.0980112,13.0441324 C10.7764068,13.0441324 9.70495616,14.1154658 9.70495616,15.4370702 C9.70495616,16.7587918 10.7764068,17.8302425 12.0980112,17.8302425 C12.8254859,17.8302425 13.4770817,17.5738731 13.9158183,17.1113291 C13.9060842,17.3647666 13.840995,18.2504491 13.4084742,18.8321474 C12.8992536,19.5168156 12.3023093,19.8328795 12.3023093,19.8328795 L16.5660637,19.8328795 C16.5660637,19.8328795 15.9691193,19.5168156 15.460016,18.8321474 C15.027378,18.2503318 14.9622887,17.3644148 14.9525547,17.1112118 C15.3912912,17.5738731 16.0428871,17.8302425 16.7703617,17.8302425 C18.0920834,17.8302425 19.1635341,16.7587918 19.1635341,15.4370702 C19.1635341,14.1154658 18.0920834,13.0441324 16.7703617,13.0441324 C16.5414353,13.0441324 16.3200147,13.0763838 16.1104391,13.1361955 C16.552694,12.7020329 16.8273588,12.0973481 16.8273588,11.4285124 C16.8273588,10.1067908 15.7559081,9.03534009 14.4343037,9.03534009 Z" id="Combined-Shape" fill="#000000"></path>
                <path d="M27.6747819,17.8281315 L23.5679813,16.6090731 C23.7340648,15.9113599 23.8222939,15.1830643 23.8222939,14.4342 C23.8222939,13.6854259 23.7340648,12.9570401 23.5679813,12.2593269 L27.6747819,11.0402685 C27.9534521,12.1251791 28.1016733,13.2624136 28.1016733,14.4342 C28.1016733,15.6059864 27.9534521,16.7432209 27.6747819,17.8281315 Z M18.1155525,27.5970176 L17.117608,23.4313075 C18.5422635,23.0057692 19.8264563,22.2506802 20.8806941,21.2526454 L23.9871144,24.1980342 C22.3681385,25.7838115 20.3568229,26.9709342 18.1155525,27.5970176 Z M5.81265234,14.4342 C5.81265234,9.6807473 9.68065709,5.81283277 14.4342,5.81283277 C19.1875625,5.81283277 23.0555672,9.6807473 23.0555672,14.4342 C23.0555672,19.1877429 19.1875625,23.0556574 14.4342,23.0556574 C9.68065709,23.0556574 5.81265234,19.1877429 5.81265234,14.4342 Z M10.7527573,27.5970176 C8.51148689,26.9709342 6.50017133,25.7838115 4.88119537,24.1980342 L7.98761564,21.2526454 C9.04176331,22.2506802 10.325956,23.0057692 11.750792,23.4313075 L10.7527573,27.5970176 Z M1.19345574,17.8281315 C0.914812532,16.7432209 0.766690576,15.6059864 0.766690576,14.4342 C0.766690576,13.2624136 0.914812532,12.1251791 1.19345574,11.0402685 L5.30032845,12.2593269 C5.13424494,12.9570401 5.04601589,13.6854259 5.04601589,14.4342 C5.04601589,15.1830643 5.13424494,15.9113599 5.30032845,16.6090731 L1.19345574,17.8281315 Z M10.7527573,1.27145455 L11.750792,5.43718271 C10.325956,5.86263076 9.04176331,6.61781006 7.98761564,7.61575456 L4.88119537,4.67045605 C6.50017133,3.08466071 8.51148689,1.89756504 10.7527573,1.27145455 Z M18.1155525,1.27145455 C20.3568229,1.89756504 22.3681385,3.08466071 23.9871144,4.67045605 L20.8806941,7.61575456 C19.8264563,6.61781006 18.5422635,5.86263076 17.117608,5.43718271 L18.1155525,1.27145455 Z M28.4109261,10.8217708 C28.3636541,10.637825 28.3112399,10.4564051 28.2562997,10.2748951 L28.2562997,10.2736321 C27.6072118,8.12176348 26.469887,6.18081465 24.9684596,4.57843803 L24.9659336,4.57582183 C24.8304326,4.42760064 24.6887067,4.28325864 24.5441843,4.14270561 C22.8242592,2.452127 20.682675,1.18840377 18.2944464,0.523916353 C18.1116733,0.474064235 17.9277275,0.426828315 17.7424284,0.383345288 C16.6792594,0.132893875 15.5713443,0 14.4342,0 C13.2968753,0 12.1890504,0.132893875 11.1258814,0.383345288 C10.9405823,0.426828315 10.7566365,0.474064235 10.5739536,0.523916353 C8.18563482,1.18840377 6.04405061,2.452127 4.32412546,4.14270561 C4.17969325,4.28325864 4.03787724,4.42760064 3.9024664,4.57582183 C2.39964966,6.17828867 1.26109801,8.12059071 0.612082251,10.2736321 C0.557051864,10.4551421 0.504637675,10.637825 0.457338606,10.8217708 C0.158352195,11.9769579 0,13.1870851 0,14.4342 C0,15.6814051 0.158352195,16.8914421 0.457338606,18.0466292 C0.504637675,18.230575 0.557051864,18.4120851 0.612082251,18.5935049 L0.612082251,18.5947679 C1.26109801,20.7466365 2.39839569,22.6876756 3.8998502,24.2900522 L3.9024664,24.2925782 C4.03787724,24.4395364 4.17969325,24.5838784 4.32412546,24.7256944 C6.04405061,26.4163001 8.18563482,27.6800143 10.5739536,28.3445288 C10.7566365,28.3943267 10.9405823,28.4415987 11.1258814,28.4850818 C12.1890504,28.7356054 13.2968753,28.8684 14.4342,28.8684 C15.5713443,28.8684 16.6792594,28.7356054 17.7424284,28.4850818 C17.9277275,28.4415987 18.1116733,28.3943267 18.2944464,28.3445288 C20.682675,27.6800143 22.8242592,26.4163001 24.5441843,24.7256944 C24.6887067,24.5838784 24.8304326,24.4395364 24.9659336,24.2925782 L24.9684596,24.2900522 C26.469887,22.6876756 27.6072118,20.7466365 28.2562997,18.5947679 L28.2562997,18.5935049 C28.3112399,18.4120851 28.3636541,18.230575 28.4109261,18.0466292 C28.7098944,16.8914421 28.8684,15.6814051 28.8684,14.4342 C28.8684,13.1870851 28.7098944,11.9769579 28.4109261,10.8217708 L28.4109261,10.8217708 Z" id="Fill-3" fill="#000000"></path>
            </g>
        </g>
    </g>
</svg>