<svg width="34" height="35" viewBox="0 0 34 35" fill="none" xmlns="http://www.w3.org/2000/svg">
<rect y="0.998322" width="33.3" height="33.3" rx="16.65" fill="#E7E7E7"/>
<path fill-rule="evenodd" clip-rule="evenodd" d="M19.4135 19.393C19.1315 19.7895 18.9904 20.2622 18.9904 20.8111H16.0857C16.0857 19.9877 16.2725 19.3054 16.646 18.7641C17.0196 18.2228 17.5647 17.6319 18.2814 16.9915C18.8303 16.5035 19.2382 16.0804 19.505 15.7221C19.7719 15.3638 19.9053 14.9559 19.9053 14.4984C19.9053 13.858 19.6461 13.3396 19.1276 12.9432C18.6092 12.5467 17.9154 12.3485 17.0463 12.3485C15.3995 12.3485 14.1568 12.9355 13.3182 14.1096L11.0996 12.6687C11.7553 11.7691 12.6015 11.0791 13.6384 10.5988C14.6752 10.1185 15.8951 9.87833 17.2979 9.87833C19.0057 9.87833 20.3665 10.2481 21.3805 10.9876C22.3945 11.7271 22.9015 12.7449 22.9015 14.041C22.9015 14.6662 22.7986 15.2151 22.5927 15.6878C22.3869 16.1605 22.1391 16.5607 21.8494 16.8886C21.5597 17.2164 21.1785 17.5938 20.7058 18.0207C20.1264 18.5391 19.6956 18.9966 19.4135 19.393ZM18.8417 25.7628C18.4987 26.1059 18.0679 26.2775 17.5495 26.2775C17.0158 26.2775 16.5774 26.1059 16.2343 25.7628C15.8913 25.4198 15.7197 24.9966 15.7197 24.4935C15.7197 23.9903 15.8913 23.571 16.2343 23.2355C16.5774 22.9001 17.0158 22.7323 17.5495 22.7323C18.0679 22.7323 18.4987 22.9001 18.8417 23.2355C19.1848 23.571 19.3564 23.9903 19.3564 24.4935C19.3564 24.9966 19.1848 25.4198 18.8417 25.7628Z" fill="black"/>
</svg>
