<?xml version="1.0" encoding="UTF-8"?>
<svg width="33px" height="25px" viewBox="0 0 33 25" version="1.1" xmlns="http://www.w3.org/2000/svg" xmlns:xlink="http://www.w3.org/1999/xlink">
    <title>Fill 1</title>
    <g id="Web" stroke="none" stroke-width="1" fill="none" fill-rule="evenodd">
        <g id="Home---Logged-out-(2)" transform="translate(-663.000000, -105.000000)" fill="#FFFFFF">
            <path d="M668.054194,122.594438 L690.77113,122.594438 L690.77113,109.613378 L668.054194,109.613378 L668.054194,122.594438 Z M691.582426,107.990462 L667.242574,107.990462 C666.794806,107.990462 666.431278,108.353666 666.431278,108.802082 L666.431278,123.405734 C666.431278,123.853826 666.794806,124.21703 667.242574,124.21703 L691.582426,124.21703 C692.030194,124.21703 692.393722,123.853826 692.393722,123.405734 L692.393722,108.802082 C692.393722,108.353666 692.030194,107.990462 691.582426,107.990462 L691.582426,107.990462 Z M665.993878,105.827114 C664.743886,105.827114 663.72685,106.84415 663.72685,108.094142 L663.72685,124.11335 C663.72685,125.363342 664.743886,126.380702 665.993878,126.380702 L675.626398,126.380702 L675.626398,128.00297 L671.299054,128.00297 L671.299054,129.625886 L686.443786,129.625886 L686.443786,128.00297 L682.657846,128.00297 L682.657846,126.380702 L692.831122,126.380702 C694.081438,126.380702 695.09815,125.363342 695.09815,124.11335 L695.09815,108.094142 C695.09815,106.84415 694.081438,105.827114 692.831122,105.827114 L665.993878,105.827114 Z M678.462694,120.043586 L683.55889,117.131474 C684.073402,116.83793 684.107746,116.109578 683.628226,115.766786 C676.193398,110.455778 677.248666,109.942886 677.248666,119.33921 C677.248666,119.964854 677.925826,120.350738 678.462694,120.043586 L678.462694,120.043586 Z" id="Fill-1"></path>
        </g>
    </g>
</svg>