<?xml version="1.0" encoding="UTF-8"?>
<svg width="35px" height="23px" viewBox="0 0 35 23" version="1.1" xmlns="http://www.w3.org/2000/svg" xmlns:xlink="http://www.w3.org/1999/xlink">
    <title>Group 17</title>
    <defs>
        <path d="M16.6400824,0 C20.4684081,0 23.7960816,0.767733885 25.4883673,1.89678396 C27.2698212,1.31628806 29.6394333,0.962 32.2400824,0.962 C32.5912321,0.962 32.9381695,0.968459179 33.2800192,0.981063904 L33.2800192,2.9830639 C32.9381695,2.97045918 32.5912321,2.964 32.2400824,2.964 C29.6394333,2.964 27.2698212,3.31828806 25.4883673,3.89878396 C23.7960816,2.76973389 20.4684081,2.002 16.6400824,2.002 C12.7658353,2.002 9.40432306,2.7882626 7.73376914,3.94008331 C5.93766682,3.33484067 3.51879033,2.964 0.858082444,2.964 C0.568608274,2.964 0.281996553,2.96838948 -0.00126215095,2.97699272 L-0.00126215095,2.97699272 L-0.00126215095,0.974992724 C0.281996553,0.966389475 0.568608274,0.962 0.858082444,0.962 C3.51879033,0.962 5.93766682,1.33284067 7.73376914,1.93808331 C9.40432306,0.786262597 12.7658353,0 16.6400824,0 Z" id="path-1"></path>
        <path d="M16.6400827,1.96974006 C20.3332704,1.96974006 23.5434255,2.71045487 25.1756268,3.79972679 C26.8936458,3.23939741 29.1792798,2.89767976 31.6877535,2.89767976 C32.0267654,2.89767976 32.3617072,2.9039211 32.691732,2.91610047 L32.691732,4.84721822 C32.3617072,4.83503886 32.0267654,4.82879751 31.6877535,4.82879751 C29.1792798,4.82879751 26.8936458,5.17051516 25.1756268,5.73084454 C23.5434255,4.64157262 20.3332704,3.90085781 16.6400827,3.90085781 C12.9028141,3.90085781 9.66017752,4.65936013 8.04674886,5.76952858 C6.31447974,5.18618427 3.98219669,4.82879751 1.41685578,4.82879751 C1.13774533,4.82879751 0.86139371,4.8330281 0.588273542,4.84132 L0.588273542,4.84132 L0.588273542,2.91020225 C0.86139371,2.90191035 1.13774533,2.89767976 1.41685578,2.89767976 C3.98219669,2.89767976 6.31447974,3.25506652 8.04674886,3.83841083 C9.66017752,2.72824238 12.9028141,1.96974006 16.6400827,1.96974006 Z" id="path-3"></path>
    </defs>
    <g id="Web" stroke="none" stroke-width="1" fill="none" fill-rule="evenodd">
        <g id="Home---Logged-out-(2)" transform="translate(-1042.000000, -105.000000)">
            <g id="Group-56" transform="translate(-0.500000, 0.000000)">
                <g id="Group-22" transform="translate(0.000000, 69.000000)">
                    <g id="Main-menu" transform="translate(0.500000, 0.000000)">
                        <g id="Group-16" transform="translate(262.500000, 14.000000)">
                            <g id="Group-14" transform="translate(440.500000, 23.000000)">
                                <g id="Group" transform="translate(339.500000, 0.000000)">
                                    <path d="M32.0899353,1.96974006 L32.0899353,21.4697401 L1.23993532,21.4697401 L1.23993532,1.96974006 L32.0899353,1.96974006 Z M30.9142468,16.8320618 L22.3142468,16.8320618 L22.3142468,19.8353261 L30.9142468,19.8353261 L30.9142468,16.8320618 Z M20.9142468,16.8320618 L12.3142468,16.8320618 L12.3142468,19.8353261 L20.9142468,19.8353261 L20.9142468,16.8320618 Z M10.9142468,19.8353261 L10.9142468,16.8320618 L2.31424681,16.8320618 L2.31424681,19.8353261 L10.9142468,19.8353261 Z M30.9142468,12.3320618 L22.3142468,12.3320618 L22.3142468,15.3353261 L30.9142468,15.3353261 L30.9142468,12.3320618 Z M20.9142468,12.3320618 L12.3142468,12.3320618 L12.3142468,15.3353261 L20.9142468,15.3353261 L20.9142468,12.3320618 Z M10.9142468,12.3320618 L2.31424681,12.3320618 L2.31424681,15.3353261 L10.9142468,15.3353261 L10.9142468,12.3320618 Z M30.9142468,7.83206181 L22.3142468,7.83206181 L22.3142468,10.8353261 L30.9142468,10.8353261 L30.9142468,7.83206181 Z M20.9142468,7.83206181 L12.3142468,7.83206181 L12.3142468,10.8353261 L20.9142468,10.8353261 L20.9142468,7.83206181 Z M10.9142468,7.83206181 L2.31424681,7.83206181 L2.31424681,10.8353261 L10.9142468,10.8353261 L10.9142468,7.83206181 Z" id="Combined-Shape" fill="#FFFFFF"></path>
                                    <mask id="mask-2" fill="white">
                                        <use xlink:href="#path-1"></use>
                                    </mask>
                                    <path stroke="#141239" stroke-width="0.5" d="M16.6400824,-0.25 C20.4560137,-0.25 23.7770196,0.511617369 25.5251931,1.62240309 C27.3135446,1.05697436 29.6646432,0.712 32.2400824,0.712 C32.6770803,0.712 33.1076119,0.72191703 33.5300192,0.741153786 L33.5300192,0.741153786 L33.5300192,3.2436815 C33.1077727,3.22409795 32.6772205,3.214 32.2400824,3.214 C29.6694572,3.214 27.3268398,3.56264617 25.5658226,4.13648265 C23.6838698,2.9954021 20.4052723,2.252 16.6400824,2.252 C12.8310344,2.252 9.51961457,3.01243485 7.87567855,4.14590294 C5.84182436,3.5663566 3.38811237,3.19895109 0.693963233,3.21447306 L0.693963233,3.21447306 L-0.375706992,0.738653843 C0.0286845534,0.721058387 0.440430247,0.712 0.858082444,0.712 C3.49239869,0.712 5.89199753,1.07297154 7.69648787,1.6619957 C9.42667605,0.529706196 12.7799829,-0.25 16.6400824,-0.25 L16.6400824,-0.25 Z"></path>
                                    <mask id="mask-4" fill="white">
                                        <use xlink:href="#path-3"></use>
                                    </mask>
                                    <path stroke="#141239" stroke-width="0.65" d="M16.6400827,1.64474006 C20.3174389,1.64474006 23.5191449,2.37755221 25.2231532,3.4433421 C26.9499526,2.90241917 29.2117393,2.57267976 31.6877535,2.57267976 C32.1385047,2.57267976 32.5821455,2.58358535 33.016732,2.60469493 L33.016732,2.60469493 L33.016732,5.18659806 C32.5823895,5.16497289 32.138716,5.15379751 31.6877535,5.15379751 C29.2183455,5.15379751 26.9678337,5.48816774 25.2764007,6.03982613 C23.3975159,4.93492492 20.2511711,4.22585781 16.6400827,4.22585781 C12.9874117,4.22585781 9.80981554,4.95090144 8.23097622,6.03726966 C6.18996357,5.48718626 3.81232734,5.13433999 1.20355871,5.15462754 L1.20355871,5.15462754 L0.102026154,2.6040115 C0.53209121,2.58334994 0.970994887,2.57267976 1.41685578,2.57267976 C3.94834036,2.57267976 6.25588769,2.91741032 7.99886513,3.48005868 C9.68856878,2.39473527 12.9208545,1.64474006 16.6400827,1.64474006 Z"></path>
                                </g>
                            </g>
                        </g>
                    </g>
                </g>
            </g>
        </g>
    </g>
</svg>