<svg width="13" height="8" viewBox="0 0 13 8" fill="none" xmlns="http://www.w3.org/2000/svg">
<path d="M6.4286 5.36112L1.8906 0.823122C1.72962 0.662533 1.51143 0.572473 1.28404 0.572755C1.05665 0.573036 0.838691 0.663636 0.678102 0.824622C0.517514 0.985608 0.427454 1.20379 0.427735 1.43118C0.428017 1.65857 0.518616 1.87653 0.679602 2.03712L5.8196 7.17812C5.97564 7.33379 6.18572 7.42327 6.40609 7.42793C6.62645 7.43259 6.84012 7.35206 7.0026 7.20312L12.1786 2.04012C12.3319 1.87804 12.416 1.66255 12.4129 1.43946C12.4099 1.21637 12.32 1.00327 12.1623 0.845445C12.0046 0.687617 11.7915 0.59751 11.5685 0.594275C11.3454 0.591041 11.1298 0.674933 10.9676 0.828122L6.4286 5.36112Z" fill="#D0006F"/>
</svg>
