<svg width="10" height="16" viewBox="0 0 10 16" fill="none" xmlns="http://www.w3.org/2000/svg">
<path d="M6.5933 7.99037L1.29246 13.2912C1.10487 13.4793 0.999671 13.7341 1 13.9997C1.00033 14.2654 1.10616 14.52 1.29421 14.7075C1.48226 14.8951 1.73711 15.0003 2.00273 15C2.26834 14.9997 2.52294 14.8938 2.71053 14.7058L8.71574 8.70175C8.89758 8.51948 9.0021 8.27408 9.00755 8.01667C9.01299 7.75926 8.91892 7.50967 8.74495 7.31988L2.71403 1.27378C2.52471 1.09471 2.27299 0.996475 2.0124 1.0001C1.75181 1.0036 1.50289 1.10861 1.31853 1.29282C1.13417 1.47703 1.02892 1.72596 1.02514 1.98644C1.02136 2.24705 1.11935 2.49889 1.2983 2.68836L6.5933 7.99037Z" fill="#D0006F"/>
</svg>
