<svg width="13" height="8" viewBox="0 0 13 8" fill="none" xmlns="http://www.w3.org/2000/svg">
<g clip-path="url(#clip0_126:11)">
<path d="M6.4286 5.36122L1.8906 0.823218C1.72962 0.662629 1.51143 0.572569 1.28404 0.572851C1.05665 0.573132 0.838691 0.663732 0.678102 0.824718C0.517514 0.985704 0.427454 1.20389 0.427735 1.43128C0.428017 1.65867 0.518616 1.87663 0.679602 2.03722L5.8196 7.17822C5.97564 7.33389 6.18572 7.42337 6.40609 7.42803C6.62645 7.43269 6.84012 7.35216 7.0026 7.20322L12.1786 2.04022C12.3319 1.87814 12.416 1.66265 12.4129 1.43956C12.4099 1.21647 12.32 1.00337 12.1623 0.845541C12.0046 0.687713 11.7915 0.597606 11.5685 0.594371C11.3454 0.591137 11.1298 0.675029 10.9676 0.828218L6.4286 5.36122Z" fill="#3C4242"/>
</g>
<defs>
<clipPath id="clip0_126:11">
<rect width="6.857" height="12" fill="white" transform="translate(12.4287 0.571289) rotate(90)"/>
</clipPath>
</defs>
</svg>
