<svg width="18" height="19" viewBox="0 0 18 19" fill="none" xmlns="http://www.w3.org/2000/svg">
<g clip-path="url(#clip0)">
<path d="M15.814 1.77999H1.97501C1.4512 1.77999 0.948845 1.98807 0.578461 2.35845C0.208076 2.72884 0 3.23119 0 3.755V17.025C-2.68396e-07 17.5484 0.207807 18.0505 0.577759 18.4208C0.947711 18.7912 1.44954 18.9995 1.97299 19H15.812C16.0714 19 16.3282 18.9489 16.5678 18.8497C16.8074 18.7504 17.0251 18.6049 17.2085 18.4215C17.3919 18.2381 17.5374 18.0204 17.6367 17.7808C17.7359 17.5412 17.787 17.2843 17.787 17.025V3.75301C17.7865 3.2299 17.5784 2.72835 17.2085 2.35845C16.8386 1.98856 16.3371 1.78052 15.814 1.77999V1.77999ZM16.998 11.17V17.026C16.9982 17.1816 16.9678 17.3358 16.9084 17.4797C16.8491 17.6236 16.7619 17.7543 16.6519 17.8645C16.5419 17.9747 16.4113 18.0621 16.2675 18.1217C16.1238 18.1813 15.9696 18.212 15.814 18.212H1.96899C1.65523 18.2109 1.3547 18.0855 1.1333 17.8632C0.911906 17.6408 0.787728 17.3398 0.787994 17.026V3.75301C0.787994 3.43881 0.912688 3.13745 1.13467 2.91509C1.35666 2.69273 1.65778 2.56754 1.97198 2.56701H15.816C16.1298 2.56807 16.4303 2.69352 16.6517 2.91586C16.8731 3.13819 16.9973 3.43925 16.997 3.75301V11.168L16.998 11.17Z" fill="#3C4242"/>
<path d="M4.66701 0H4.33901C4.21419 0 4.11301 0.101184 4.11301 0.226V4.214C4.11301 4.33882 4.21419 4.44 4.33901 4.44H4.66701C4.79182 4.44 4.89301 4.33882 4.89301 4.214V0.226C4.89301 0.101184 4.79182 0 4.66701 0Z" fill="#3C4242"/>
<path d="M13.448 0H13.12C12.9952 0 12.894 0.101184 12.894 0.226V4.214C12.894 4.33882 12.9952 4.44 13.12 4.44H13.448C13.5728 4.44 13.674 4.33882 13.674 4.214V0.226C13.674 0.101184 13.5728 0 13.448 0Z" fill="#3C4242"/>
<path d="M5.288 8.449C5.64588 8.449 5.936 8.15888 5.936 7.801C5.936 7.44312 5.64588 7.153 5.288 7.153C4.93012 7.153 4.64 7.44312 4.64 7.801C4.64 8.15888 4.93012 8.449 5.288 8.449Z" fill="#3C4242"/>
<path d="M8.9 8.449C9.25788 8.449 9.548 8.15888 9.548 7.801C9.548 7.44312 9.25788 7.153 8.9 7.153C8.54212 7.153 8.252 7.44312 8.252 7.801C8.252 8.15888 8.54212 8.449 8.9 8.449Z" fill="#3C4242"/>
<path d="M12.513 8.449C12.8709 8.449 13.161 8.15888 13.161 7.801C13.161 7.44312 12.8709 7.153 12.513 7.153C12.1551 7.153 11.865 7.44312 11.865 7.801C11.865 8.15888 12.1551 8.449 12.513 8.449Z" fill="#3C4242"/>
<path d="M5.288 11.697C5.64588 11.697 5.936 11.4069 5.936 11.049C5.936 10.6911 5.64588 10.401 5.288 10.401C4.93012 10.401 4.64 10.6911 4.64 11.049C4.64 11.4069 4.93012 11.697 5.288 11.697Z" fill="#3C4242"/>
<path d="M8.9 11.697C9.25788 11.697 9.548 11.4069 9.548 11.049C9.548 10.6911 9.25788 10.401 8.9 10.401C8.54212 10.401 8.252 10.6911 8.252 11.049C8.252 11.4069 8.54212 11.697 8.9 11.697Z" fill="#3C4242"/>
<path d="M12.513 11.697C12.8709 11.697 13.161 11.4069 13.161 11.049C13.161 10.6911 12.8709 10.401 12.513 10.401C12.1551 10.401 11.865 10.6911 11.865 11.049C11.865 11.4069 12.1551 11.697 12.513 11.697Z" fill="#3C4242"/>
<path d="M5.33899 14.946C5.69687 14.946 5.98699 14.6559 5.98699 14.298C5.98699 13.9401 5.69687 13.65 5.33899 13.65C4.98111 13.65 4.69099 13.9401 4.69099 14.298C4.69099 14.6559 4.98111 14.946 5.33899 14.946Z" fill="#3C4242"/>
<path d="M8.95099 14.946C9.30887 14.946 9.59899 14.6559 9.59899 14.298C9.59899 13.9401 9.30887 13.65 8.95099 13.65C8.59311 13.65 8.30299 13.9401 8.30299 14.298C8.30299 14.6559 8.59311 14.946 8.95099 14.946Z" fill="#3C4242"/>
<path d="M12.564 14.946C12.9219 14.946 13.212 14.6559 13.212 14.298C13.212 13.9401 12.9219 13.65 12.564 13.65C12.2061 13.65 11.916 13.9401 11.916 14.298C11.916 14.6559 12.2061 14.946 12.564 14.946Z" fill="#3C4242"/>
</g>
<defs>
<clipPath id="clip0">
<rect width="17.786" height="19" fill="white"/>
</clipPath>
</defs>
</svg>
