<svg width="18" height="19" viewBox="0 0 18 19" fill="none" xmlns="http://www.w3.org/2000/svg">
<path d="M15.814 1.78003H1.97501C1.4512 1.78003 0.948845 1.98811 0.578461 2.35849C0.208076 2.72888 0 3.23123 0 3.75504V17.025C-2.68396e-07 17.5484 0.207807 18.0505 0.577759 18.4208C0.947711 18.7912 1.44954 18.9995 1.97299 19H15.812C16.0714 19 16.3282 18.9489 16.5678 18.8497C16.8074 18.7504 17.0251 18.6049 17.2085 18.4215C17.3919 18.2381 17.5374 18.0204 17.6367 17.7808C17.7359 17.5412 17.787 17.2843 17.787 17.025V3.75305C17.7865 3.22994 17.5784 2.72839 17.2085 2.35849C16.8386 1.9886 16.3371 1.78056 15.814 1.78003ZM16.998 11.17V17.026C16.9982 17.1816 16.9678 17.3358 16.9084 17.4797C16.8491 17.6236 16.7619 17.7543 16.6519 17.8645C16.5419 17.9747 16.4113 18.0621 16.2675 18.1217C16.1238 18.1813 15.9696 18.212 15.814 18.212H1.96899C1.65523 18.2109 1.3547 18.0855 1.1333 17.8632C0.911906 17.6408 0.787728 17.3398 0.787994 17.026V3.75305C0.787994 3.43885 0.912688 3.13749 1.13467 2.91513C1.35666 2.69277 1.65778 2.56758 1.97198 2.56705H15.816C16.1298 2.56811 16.4303 2.69356 16.6517 2.9159C16.8731 3.13823 16.9973 3.43929 16.997 3.75305V11.168L16.998 11.17Z" fill="#D0006F"/>
<path d="M4.66679 0H4.33879C4.21397 0 4.11279 0.101184 4.11279 0.226V4.214C4.11279 4.33882 4.21397 4.44 4.33879 4.44H4.66679C4.7916 4.44 4.89279 4.33882 4.89279 4.214V0.226C4.89279 0.101184 4.7916 0 4.66679 0Z" fill="#D0006F"/>
<path d="M13.448 0H13.12C12.9952 0 12.894 0.101184 12.894 0.226V4.214C12.894 4.33882 12.9952 4.44 13.12 4.44H13.448C13.5728 4.44 13.674 4.33882 13.674 4.214V0.226C13.674 0.101184 13.5728 0 13.448 0Z" fill="#D0006F"/>
<path d="M5.28814 8.44908C5.64602 8.44908 5.93614 8.15896 5.93614 7.80108C5.93614 7.4432 5.64602 7.15308 5.28814 7.15308C4.93026 7.15308 4.64014 7.4432 4.64014 7.80108C4.64014 8.15896 4.93026 8.44908 5.28814 8.44908Z" fill="#D0006F"/>
<path d="M8.89995 8.44908C9.25783 8.44908 9.54795 8.15896 9.54795 7.80108C9.54795 7.4432 9.25783 7.15308 8.89995 7.15308C8.54207 7.15308 8.25195 7.4432 8.25195 7.80108C8.25195 8.15896 8.54207 8.44908 8.89995 8.44908Z" fill="#D0006F"/>
<path d="M12.5132 8.44908C12.8711 8.44908 13.1612 8.15896 13.1612 7.80108C13.1612 7.4432 12.8711 7.15308 12.5132 7.15308C12.1553 7.15308 11.8652 7.4432 11.8652 7.80108C11.8652 8.15896 12.1553 8.44908 12.5132 8.44908Z" fill="#D0006F"/>
<path d="M5.28814 11.6969C5.64602 11.6969 5.93614 11.4068 5.93614 11.0489C5.93614 10.691 5.64602 10.4009 5.28814 10.4009C4.93026 10.4009 4.64014 10.691 4.64014 11.0489C4.64014 11.4068 4.93026 11.6969 5.28814 11.6969Z" fill="#D0006F"/>
<path d="M8.89995 11.6969C9.25783 11.6969 9.54795 11.4068 9.54795 11.0489C9.54795 10.691 9.25783 10.4009 8.89995 10.4009C8.54207 10.4009 8.25195 10.691 8.25195 11.0489C8.25195 11.4068 8.54207 11.6969 8.89995 11.6969Z" fill="#D0006F"/>
<path d="M12.5132 11.6969C12.8711 11.6969 13.1612 11.4068 13.1612 11.0489C13.1612 10.691 12.8711 10.4009 12.5132 10.4009C12.1553 10.4009 11.8652 10.691 11.8652 11.0489C11.8652 11.4068 12.1553 11.6969 12.5132 11.6969Z" fill="#D0006F"/>
<path d="M5.33892 14.9459C5.6968 14.9459 5.98692 14.6558 5.98692 14.2979C5.98692 13.94 5.6968 13.6499 5.33892 13.6499C4.98104 13.6499 4.69092 13.94 4.69092 14.2979C4.69092 14.6558 4.98104 14.9459 5.33892 14.9459Z" fill="#D0006F"/>
<path d="M8.95122 14.9459C9.3091 14.9459 9.59922 14.6558 9.59922 14.2979C9.59922 13.94 9.3091 13.6499 8.95122 13.6499C8.59334 13.6499 8.30322 13.94 8.30322 14.2979C8.30322 14.6558 8.59334 14.9459 8.95122 14.9459Z" fill="#D0006F"/>
<path d="M12.564 14.9459C12.9219 14.9459 13.212 14.6558 13.212 14.2979C13.212 13.94 12.9219 13.6499 12.564 13.6499C12.2061 13.6499 11.916 13.94 11.916 14.2979C11.916 14.6558 12.2061 14.9459 12.564 14.9459Z" fill="#D0006F"/>
</svg>
