<svg width="12" height="19" viewBox="0 0 12 19" fill="none" xmlns="http://www.w3.org/2000/svg">
<path d="M9.6307 0H1.92554C1.4138 0 0.923013 0.203295 0.561155 0.565153C0.199298 0.927011 -0.0039978 1.41779 -0.0039978 1.92954V1.92954V18.1153C-0.00374278 18.1914 0.019027 18.2657 0.0614262 18.3289C0.103826 18.3921 0.163959 18.4413 0.234278 18.4704C0.304598 18.4995 0.381937 18.5072 0.456586 18.4924C0.531236 18.4776 0.599865 18.4411 0.653801 18.3874L5.77662 13.2645L10.8995 18.3884C10.9543 18.441 11.0233 18.4764 11.0981 18.4902C11.1728 18.5039 11.2499 18.4955 11.3199 18.4659C11.3899 18.4363 11.4497 18.3869 11.4919 18.3237C11.5341 18.2605 11.5568 18.1863 11.5573 18.1103V1.93054C11.5575 1.41914 11.3547 0.92854 10.9935 0.566552C10.6323 0.204565 10.1421 0.000792389 9.6307 0V0ZM10.7868 17.1824L6.04972 12.4453C5.97727 12.3733 5.87928 12.3329 5.77713 12.3329C5.67499 12.3329 5.577 12.3733 5.50455 12.4453L0.770415 17.1794V1.93054C0.77015 1.62356 0.891758 1.32901 1.10855 1.11166C1.32533 0.894314 1.61956 0.77193 1.92654 0.771402H9.6367C9.94316 0.77272 10.2366 0.895464 10.4527 1.11273C10.6689 1.32999 10.7901 1.62408 10.7898 1.93054L10.7868 17.1824Z" fill="#fff"/>
</svg>
