<svg width="12" height="19" viewBox="0 0 12 19" fill="none" xmlns="http://www.w3.org/2000/svg">
<g clip-path="url(#clip0_164:11)">
<path d="M10.8709 17.4425L6.02311 12.6177C5.94859 12.5447 5.8484 12.5038 5.74405 12.5038C5.6397 12.5038 5.53951 12.5447 5.46499 12.6177L0.616211 17.4425V1.90464C0.616473 1.74941 0.647327 1.59576 0.706972 1.45245C0.766616 1.30914 0.853884 1.17898 0.963832 1.0694C1.07377 0.959825 1.20422 0.872981 1.34773 0.81382C1.49124 0.754659 1.64504 0.724349 1.80027 0.724611H9.6908C10.0036 0.7254 10.3032 0.849975 10.5244 1.0711C10.7455 1.29223 10.8701 1.59192 10.8709 1.90464V17.4425Z" fill="#3C1053"/>
<path d="M9.63079 0H1.92563C1.41389 0 0.923105 0.203295 0.561247 0.565153C0.19939 0.927011 -0.00390625 1.41779 -0.00390625 1.92954V18.1153C-0.00365123 18.1914 0.0191186 18.2657 0.0615178 18.3289C0.103918 18.3921 0.164051 18.4413 0.23437 18.4704C0.30469 18.4995 0.382029 18.5072 0.456678 18.4924C0.531328 18.4776 0.599957 18.4411 0.653893 18.3874L5.77671 13.2645L10.8996 18.3884C10.9544 18.441 11.0235 18.4764 11.0982 18.4902C11.1729 18.5039 11.25 18.4955 11.32 18.4659C11.39 18.4363 11.4498 18.3869 11.492 18.3237C11.5342 18.2605 11.5569 18.1863 11.5574 18.1103V1.93054C11.5576 1.41914 11.3548 0.92854 10.9936 0.566552C10.6324 0.204565 10.1422 0.000792389 9.63079 0ZM10.7869 17.1824L6.04981 12.4453C5.97736 12.3733 5.87937 12.3329 5.77722 12.3329C5.67508 12.3329 5.57709 12.3733 5.50464 12.4453L0.770507 17.1794V1.93054C0.770242 1.62356 0.891851 1.32901 1.10864 1.11166C1.32542 0.894314 1.61965 0.77193 1.92663 0.771402H9.63679C9.94325 0.77272 10.2367 0.895464 10.4528 1.11273C10.669 1.32999 10.7902 1.62408 10.7899 1.93054L10.7869 17.1824Z" fill="#3C1053"/>
</g>
<defs>
<clipPath id="clip0_164:11">
<rect width="12" height="19" fill="white"/>
</clipPath>
</defs>
</svg>
