<svg width="20" height="13" viewBox="0 0 20 13" fill="none" xmlns="http://www.w3.org/2000/svg">
<path d="M18.414 1.367C18.1187 1.20732 17.7852 1.13217 17.4499 1.14981C17.1147 1.16745 16.7909 1.27721 16.514 1.467L13 3.827V1.95C12.9995 1.43299 12.7939 0.937308 12.4283 0.571727C12.0627 0.206145 11.567 0.000529452 11.05 0H1.95C1.43299 0.000529452 0.937308 0.206145 0.571727 0.571727C0.206145 0.937308 0.000529452 1.43299 0 1.95V11.05C0.000529452 11.567 0.206145 12.0627 0.571727 12.4283C0.937308 12.7939 1.43299 12.9995 1.95 13H11.05C11.567 12.9995 12.0627 12.7939 12.4283 12.4283C12.7939 12.0627 12.9995 11.567 13 11.05V9.172L16.519 11.533C16.7953 11.7242 17.1193 11.8348 17.4548 11.8524C17.7903 11.8701 18.1242 11.7941 18.419 11.633C18.7531 11.4463 19.0303 11.1723 19.2207 10.8403C19.4111 10.5082 19.5076 10.1307 19.5 9.748V3.248C19.5072 2.86492 19.4101 2.48708 19.2189 2.15501C19.0278 1.82294 18.7499 1.54915 18.415 1.363L18.414 1.367ZM12 11.05C12 11.409 11.409 12.108 11.05 12.108H1.95C1.70257 12.0331 1.47812 11.8968 1.29751 11.7118C1.1169 11.5268 0.986005 11.2991 0.917 11.05V1.95C0.985964 1.70061 1.11681 1.47268 1.2974 1.28737C1.47799 1.10206 1.70247 0.965375 1.95 0.89H11.05C11.409 0.89 12 1.59 12 1.95V11.05ZM18.713 10.244C18.727 10.544 18.353 10.697 18.094 10.851C17.8131 10.9401 17.5087 10.9175 17.244 10.788L13 7.94V4.886L17.243 2.039C17.5164 1.93129 17.8206 1.93129 18.094 2.039C18.353 2.193 18.727 2.609 18.713 2.909V10.244Z" fill="white"/>
</svg>
