<svg width="20" height="20" viewBox="0 0 20 20" fill="none" xmlns="http://www.w3.org/2000/svg">
<path d="M19.6667 19.3333H18.3333V8.33333C18.3333 8.24493 18.2982 8.16014 18.2357 8.09763C18.1732 8.03512 18.0884 8 18 8H12.3333V0.333333C12.3333 0.244928 12.2982 0.160143 12.2357 0.0976311C12.1732 0.035119 12.0884 0 12 0H2C1.91159 0 1.82681 0.035119 1.7643 0.0976311C1.70179 0.160143 1.66667 0.244928 1.66667 0.333333V19.3333H0.333333C0.244928 19.3333 0.160143 19.3685 0.0976311 19.431C0.035119 19.4935 0 19.5783 0 19.6667C0 19.7551 0.035119 19.8399 0.0976311 19.9024C0.160143 19.9649 0.244928 20 0.333333 20H19.6667C19.7551 20 19.8399 19.9649 19.9024 19.9024C19.9649 19.8399 20 19.7551 20 19.6667C20 19.5783 19.9649 19.4935 19.9024 19.431C19.8399 19.3685 19.7551 19.3333 19.6667 19.3333V19.3333ZM11.6667 8.33333V19.3333H2.33333V0.666667H11.6667V8.33333ZM17.6667 19.3333H12.3333V8.66667H17.6667V19.3333Z" fill="#830051"/>
<path d="M4 4.66572H5.99999C6.0884 4.66572 6.17318 4.6306 6.23569 4.56809C6.2982 4.50557 6.33333 4.42079 6.33333 4.33238V2.33238C6.33333 2.24398 6.2982 2.15919 6.23569 2.09668C6.17318 2.03417 6.0884 1.99905 5.99999 1.99905H4C3.91159 1.99905 3.8268 2.03417 3.76429 2.09668C3.70178 2.15919 3.66666 2.24398 3.66666 2.33238V4.33238C3.66666 4.42079 3.70178 4.50557 3.76429 4.56809C3.8268 4.6306 3.91159 4.66572 4 4.66572V4.66572ZM4.33333 2.66572H5.66666V3.99905H4.33333V2.66572Z" fill="#830051"/>
<path d="M8 4.66572H9.99999C10.0884 4.66572 10.1732 4.6306 10.2357 4.56809C10.2982 4.50557 10.3333 4.42079 10.3333 4.33238V2.33238C10.3333 2.24398 10.2982 2.15919 10.2357 2.09668C10.1732 2.03417 10.0884 1.99905 9.99999 1.99905H8C7.91159 1.99905 7.8268 2.03417 7.76428 2.09668C7.70177 2.15919 7.66666 2.24398 7.66666 2.33238V4.33238C7.66666 4.42079 7.70177 4.50557 7.76428 4.56809C7.8268 4.6306 7.91159 4.66572 8 4.66572V4.66572ZM8.33332 2.66572H9.66666V3.99905H8.33332V2.66572Z" fill="#830051"/>
<path d="M4 8.66571H5.99999C6.0884 8.66571 6.17318 8.63059 6.23569 8.56808C6.2982 8.50557 6.33333 8.42079 6.33333 8.33238V6.33238C6.33333 6.24397 6.2982 6.15919 6.23569 6.09668C6.17318 6.03417 6.0884 5.99905 5.99999 5.99905H4C3.91159 5.99905 3.8268 6.03417 3.76429 6.09668C3.70178 6.15919 3.66666 6.24397 3.66666 6.33238V8.33238C3.66666 8.42079 3.70178 8.50557 3.76429 8.56808C3.8268 8.63059 3.91159 8.66571 4 8.66571V8.66571ZM4.33333 6.66572H5.66666V7.99905H4.33333V6.66572Z" fill="#830051"/>
<path d="M8 8.66571H9.99999C10.0884 8.66571 10.1732 8.63059 10.2357 8.56808C10.2982 8.50557 10.3333 8.42079 10.3333 8.33238V6.33238C10.3333 6.24397 10.2982 6.15919 10.2357 6.09668C10.1732 6.03417 10.0884 5.99905 9.99999 5.99905H8C7.91159 5.99905 7.8268 6.03417 7.76428 6.09668C7.70177 6.15919 7.66666 6.24397 7.66666 6.33238V8.33238C7.66666 8.42079 7.70177 8.50557 7.76428 8.56808C7.8268 8.63059 7.91159 8.66571 8 8.66571ZM8.33332 6.66572H9.66666V7.99905H8.33332V6.66572Z" fill="#830051"/>
<path d="M4 12.6657H5.99999C6.0884 12.6657 6.17318 12.6306 6.23569 12.5681C6.2982 12.5056 6.33333 12.4208 6.33333 12.3324V10.3324C6.33333 10.244 6.2982 10.1592 6.23569 10.0967C6.17318 10.0342 6.0884 9.99905 5.99999 9.99905H4C3.91159 9.99905 3.8268 10.0342 3.76429 10.0967C3.70178 10.1592 3.66666 10.244 3.66666 10.3324V12.3324C3.66666 12.4208 3.70178 12.5056 3.76429 12.5681C3.8268 12.6306 3.91159 12.6657 4 12.6657V12.6657ZM4.33333 10.6657H5.66666V11.9991H4.33333V10.6657Z" fill="#830051"/>
<path d="M8 12.6657H9.99999C10.0884 12.6657 10.1732 12.6306 10.2357 12.5681C10.2982 12.5056 10.3333 12.4208 10.3333 12.3324V10.3324C10.3333 10.244 10.2982 10.1592 10.2357 10.0967C10.1732 10.0342 10.0884 9.99905 9.99999 9.99905H8C7.91159 9.99905 7.8268 10.0342 7.76428 10.0967C7.70177 10.1592 7.66666 10.244 7.66666 10.3324V12.3324C7.66666 12.4208 7.70177 12.5056 7.76428 12.5681C7.8268 12.6306 7.91159 12.6657 8 12.6657ZM8.33332 10.6657H9.66666V11.9991H8.33332V10.6657Z" fill="#830051"/>
<path d="M4 16.6657H5.99999C6.0884 16.6657 6.17318 16.6306 6.23569 16.5681C6.2982 16.5056 6.33333 16.4208 6.33333 16.3324V14.3324C6.33333 14.244 6.2982 14.1592 6.23569 14.0967C6.17318 14.0342 6.0884 13.999 5.99999 13.999H4C3.91159 13.999 3.8268 14.0342 3.76429 14.0967C3.70178 14.1592 3.66666 14.244 3.66666 14.3324V16.3324C3.66666 16.4208 3.70178 16.5056 3.76429 16.5681C3.8268 16.6306 3.91159 16.6657 4 16.6657V16.6657ZM4.33333 14.6657H5.66666V15.999H4.33333V14.6657Z" fill="#830051"/>
<path d="M8 16.6657H9.99999C10.0884 16.6657 10.1732 16.6306 10.2357 16.5681C10.2982 16.5056 10.3333 16.4208 10.3333 16.3324V14.3324C10.3333 14.244 10.2982 14.1592 10.2357 14.0967C10.1732 14.0342 10.0884 13.999 9.99999 13.999H8C7.91159 13.999 7.8268 14.0342 7.76428 14.0967C7.70177 14.1592 7.66666 14.244 7.66666 14.3324V16.3324C7.66666 16.4208 7.70177 16.5056 7.76428 16.5681C7.8268 16.6306 7.91159 16.6657 8 16.6657ZM8.33332 14.6657H9.66666V15.999H8.33332V14.6657Z" fill="#830051"/>
<path d="M14 12.6657H16C16.0437 12.6657 16.0871 12.6571 16.1275 12.6403C16.168 12.6236 16.2047 12.599 16.2357 12.5681C16.2666 12.5371 16.2912 12.5004 16.3079 12.46C16.3247 12.4195 16.3333 12.3762 16.3333 12.3324V10.3324C16.3333 10.2886 16.3247 10.2453 16.3079 10.2048C16.2912 10.1644 16.2666 10.1276 16.2357 10.0967C16.2047 10.0657 16.168 10.0412 16.1275 10.0244C16.0871 10.0077 16.0437 9.99905 16 9.99905H14C13.9562 9.99905 13.9129 10.0077 13.8724 10.0244C13.832 10.0412 13.7952 10.0657 13.7643 10.0967C13.7333 10.1276 13.7088 10.1644 13.692 10.2048C13.6753 10.2453 13.6667 10.2886 13.6667 10.3324V12.3324C13.6667 12.3762 13.6753 12.4195 13.692 12.46C13.7088 12.5004 13.7333 12.5371 13.7643 12.5681C13.7952 12.599 13.832 12.6236 13.8724 12.6403C13.9129 12.6571 13.9562 12.6657 14 12.6657ZM14.3333 10.6657H15.6667V11.9991H14.3333V10.6657Z" fill="#830051"/>
<path d="M14 16.6657H16C16.0437 16.6657 16.0871 16.6571 16.1275 16.6404C16.168 16.6236 16.2047 16.599 16.2357 16.5681C16.2666 16.5371 16.2912 16.5004 16.3079 16.46C16.3247 16.4195 16.3333 16.3762 16.3333 16.3324V14.3324C16.3333 14.2886 16.3247 14.2453 16.3079 14.2048C16.2912 14.1644 16.2666 14.1276 16.2357 14.0967C16.2047 14.0657 16.168 14.0412 16.1275 14.0244C16.0871 14.0077 16.0437 13.999 16 13.999H14C13.9562 13.999 13.9129 14.0077 13.8724 14.0244C13.832 14.0412 13.7952 14.0657 13.7643 14.0967C13.7333 14.1276 13.7088 14.1644 13.692 14.2048C13.6753 14.2453 13.6667 14.2886 13.6667 14.3324V16.3324C13.6667 16.3762 13.6753 16.4195 13.692 16.46C13.7088 16.5004 13.7333 16.5371 13.7643 16.5681C13.7952 16.599 13.832 16.6236 13.8724 16.6404C13.9129 16.6571 13.9562 16.6657 14 16.6657ZM14.3333 14.6657H15.6667V15.999H14.3333V14.6657Z" fill="#830051"/>
</svg>
