<svg xmlns="http://www.w3.org/2000/svg" width="19.911" height="14" viewBox="0 0 19.911 14"><path id="Icon:_Email" data-name="Icon: Email" d="M18.161,76H1.75A1.752,1.752,0,0,0,0,77.75v10.5A1.752,1.752,0,0,0,1.75,90H18.161a1.752,1.752,0,0,0,1.75-1.75V77.75A1.752,1.752,0,0,0,18.161,76Zm-.269,1.167-7.485,7.509a.681.681,0,0,1-.9,0L2.019,77.167ZM1.167,88.036V77.964L6.186,83Zm.852.8,4.991-5.007L8.677,85.5a1.846,1.846,0,0,0,2.557,0L12.9,83.826l4.991,5.007Zm16.726-.8L13.725,83l5.019-5.036Z" transform="translate(0 -76)"/></svg>