<svg width="20" height="20" viewBox="0 0 20 20" fill="none" xmlns="http://www.w3.org/2000/svg">
<path d="M19.6667 19.3333H18.3333V8.33333C18.3333 8.24493 18.2982 8.16014 18.2357 8.09763C18.1732 8.03512 18.0884 8 18 8H12.3333V0.333333C12.3333 0.244928 12.2982 0.160143 12.2357 0.0976311C12.1732 0.035119 12.0884 0 12 0H2C1.91159 0 1.82681 0.035119 1.7643 0.0976311C1.70179 0.160143 1.66667 0.244928 1.66667 0.333333V19.3333H0.333333C0.244928 19.3333 0.160143 19.3685 0.0976311 19.431C0.035119 19.4935 0 19.5783 0 19.6667C0 19.7551 0.035119 19.8399 0.0976311 19.9024C0.160143 19.9649 0.244928 20 0.333333 20H19.6667C19.7551 20 19.8399 19.9649 19.9024 19.9024C19.9649 19.8399 20 19.7551 20 19.6667C20 19.5783 19.9649 19.4935 19.9024 19.431C19.8399 19.3685 19.7551 19.3333 19.6667 19.3333ZM11.6667 8.33333V19.3333H2.33333V0.666667H11.6667V8.33333ZM17.6667 19.3333H12.3333V8.66667H17.6667V19.3333Z" fill="white"/>
<path d="M4.00009 4.66569H6.00008C6.08849 4.66569 6.17327 4.63057 6.23578 4.56806C6.29829 4.50554 6.33342 4.42076 6.33342 4.33235V2.33235C6.33342 2.24395 6.29829 2.15916 6.23578 2.09665C6.17327 2.03414 6.08849 1.99902 6.00008 1.99902H4.00009C3.91168 1.99902 3.82689 2.03414 3.76438 2.09665C3.70187 2.15916 3.66675 2.24395 3.66675 2.33235V4.33235C3.66675 4.42076 3.70187 4.50554 3.76438 4.56806C3.82689 4.63057 3.91168 4.66569 4.00009 4.66569ZM4.33342 2.66569H5.66675V3.99902H4.33342V2.66569Z" fill="white"/>
<path d="M8.00009 4.66569H10.0001C10.0885 4.66569 10.1733 4.63057 10.2358 4.56806C10.2983 4.50554 10.3334 4.42076 10.3334 4.33235V2.33235C10.3334 2.24395 10.2983 2.15916 10.2358 2.09665C10.1733 2.03414 10.0885 1.99902 10.0001 1.99902H8.00009C7.91168 1.99902 7.82689 2.03414 7.76437 2.09665C7.70186 2.15916 7.66675 2.24395 7.66675 2.33235V4.33235C7.66675 4.42076 7.70186 4.50554 7.76437 4.56806C7.82689 4.63057 7.91168 4.66569 8.00009 4.66569ZM8.33341 2.66569H9.66675V3.99902H8.33341V2.66569Z" fill="white"/>
<path d="M4.00009 8.66568H6.00008C6.08849 8.66568 6.17327 8.63056 6.23578 8.56805C6.29829 8.50554 6.33342 8.42076 6.33342 8.33235V6.33235C6.33342 6.24394 6.29829 6.15916 6.23578 6.09665C6.17327 6.03414 6.08849 5.99902 6.00008 5.99902H4.00009C3.91168 5.99902 3.82689 6.03414 3.76438 6.09665C3.70187 6.15916 3.66675 6.24394 3.66675 6.33235V8.33235C3.66675 8.42076 3.70187 8.50554 3.76438 8.56805C3.82689 8.63056 3.91168 8.66568 4.00009 8.66568ZM4.33342 6.66569H5.66675V7.99902H4.33342V6.66569Z" fill="white"/>
<path d="M8.00009 8.66568H10.0001C10.0885 8.66568 10.1733 8.63056 10.2358 8.56805C10.2983 8.50554 10.3334 8.42076 10.3334 8.33235V6.33235C10.3334 6.24394 10.2983 6.15916 10.2358 6.09665C10.1733 6.03414 10.0885 5.99902 10.0001 5.99902H8.00009C7.91168 5.99902 7.82689 6.03414 7.76437 6.09665C7.70186 6.15916 7.66675 6.24394 7.66675 6.33235V8.33235C7.66675 8.42076 7.70186 8.50554 7.76437 8.56805C7.82689 8.63056 7.91168 8.66568 8.00009 8.66568ZM8.33341 6.66569H9.66675V7.99902H8.33341V6.66569Z" fill="white"/>
<path d="M4.00009 12.6657H6.00008C6.08849 12.6657 6.17327 12.6306 6.23578 12.5681C6.29829 12.5056 6.33342 12.4208 6.33342 12.3324V10.3324C6.33342 10.244 6.29829 10.1592 6.23578 10.0967C6.17327 10.0342 6.08849 9.99902 6.00008 9.99902H4.00009C3.91168 9.99902 3.82689 10.0342 3.76438 10.0967C3.70187 10.1592 3.66675 10.244 3.66675 10.3324V12.3324C3.66675 12.4208 3.70187 12.5056 3.76438 12.5681C3.82689 12.6306 3.91168 12.6657 4.00009 12.6657ZM4.33342 10.6657H5.66675V11.9991H4.33342V10.6657Z" fill="white"/>
<path d="M8.00009 12.6657H10.0001C10.0885 12.6657 10.1733 12.6306 10.2358 12.5681C10.2983 12.5056 10.3334 12.4208 10.3334 12.3324V10.3324C10.3334 10.244 10.2983 10.1592 10.2358 10.0967C10.1733 10.0342 10.0885 9.99902 10.0001 9.99902H8.00009C7.91168 9.99902 7.82689 10.0342 7.76437 10.0967C7.70186 10.1592 7.66675 10.244 7.66675 10.3324V12.3324C7.66675 12.4208 7.70186 12.5056 7.76437 12.5681C7.82689 12.6306 7.91168 12.6657 8.00009 12.6657ZM8.33341 10.6657H9.66675V11.9991H8.33341V10.6657Z" fill="white"/>
<path d="M4.00009 16.6657H6.00008C6.08849 16.6657 6.17327 16.6306 6.23578 16.5681C6.29829 16.5056 6.33342 16.4208 6.33342 16.3324V14.3324C6.33342 14.244 6.29829 14.1592 6.23578 14.0967C6.17327 14.0342 6.08849 13.999 6.00008 13.999H4.00009C3.91168 13.999 3.82689 14.0342 3.76438 14.0967C3.70187 14.1592 3.66675 14.244 3.66675 14.3324V16.3324C3.66675 16.4208 3.70187 16.5056 3.76438 16.5681C3.82689 16.6306 3.91168 16.6657 4.00009 16.6657ZM4.33342 14.6657H5.66675V15.999H4.33342V14.6657Z" fill="white"/>
<path d="M8.00009 16.6657H10.0001C10.0885 16.6657 10.1733 16.6306 10.2358 16.5681C10.2983 16.5056 10.3334 16.4208 10.3334 16.3324V14.3324C10.3334 14.244 10.2983 14.1592 10.2358 14.0967C10.1733 14.0342 10.0885 13.999 10.0001 13.999H8.00009C7.91168 13.999 7.82689 14.0342 7.76437 14.0967C7.70186 14.1592 7.66675 14.244 7.66675 14.3324V16.3324C7.66675 16.4208 7.70186 16.5056 7.76437 16.5681C7.82689 16.6306 7.91168 16.6657 8.00009 16.6657ZM8.33341 14.6657H9.66675V15.999H8.33341V14.6657Z" fill="white"/>
<path d="M14 12.6657H16C16.0437 12.6657 16.0871 12.6571 16.1275 12.6403C16.168 12.6236 16.2047 12.599 16.2357 12.5681C16.2666 12.5371 16.2912 12.5004 16.3079 12.46C16.3247 12.4195 16.3333 12.3762 16.3333 12.3324V10.3324C16.3333 10.2886 16.3247 10.2453 16.3079 10.2048C16.2912 10.1644 16.2666 10.1276 16.2357 10.0967C16.2047 10.0657 16.168 10.0412 16.1275 10.0244C16.0871 10.0077 16.0437 9.99902 16 9.99902H14C13.9562 9.99902 13.9129 10.0077 13.8724 10.0244C13.832 10.0412 13.7952 10.0657 13.7643 10.0967C13.7333 10.1276 13.7088 10.1644 13.692 10.2048C13.6753 10.2453 13.6667 10.2886 13.6667 10.3324V12.3324C13.6667 12.3762 13.6753 12.4195 13.692 12.46C13.7088 12.5004 13.7333 12.5371 13.7643 12.5681C13.7952 12.599 13.832 12.6236 13.8724 12.6403C13.9129 12.6571 13.9562 12.6657 14 12.6657ZM14.3333 10.6657H15.6667V11.9991H14.3333V10.6657Z" fill="white"/>
<path d="M14 16.6657H16C16.0437 16.6657 16.0871 16.6571 16.1275 16.6404C16.168 16.6236 16.2047 16.599 16.2357 16.5681C16.2666 16.5371 16.2912 16.5004 16.3079 16.46C16.3247 16.4195 16.3333 16.3762 16.3333 16.3324V14.3324C16.3333 14.2886 16.3247 14.2453 16.3079 14.2048C16.2912 14.1644 16.2666 14.1276 16.2357 14.0967C16.2047 14.0657 16.168 14.0412 16.1275 14.0244C16.0871 14.0077 16.0437 13.999 16 13.999H14C13.9562 13.999 13.9129 14.0077 13.8724 14.0244C13.832 14.0412 13.7952 14.0657 13.7643 14.0967C13.7333 14.1276 13.7088 14.1644 13.692 14.2048C13.6753 14.2453 13.6667 14.2886 13.6667 14.3324V16.3324C13.6667 16.3762 13.6753 16.4195 13.692 16.46C13.7088 16.5004 13.7333 16.5371 13.7643 16.5681C13.7952 16.599 13.832 16.6236 13.8724 16.6404C13.9129 16.6571 13.9562 16.6657 14 16.6657ZM14.3333 14.6657H15.6667V15.999H14.3333V14.6657Z" fill="white"/>
</svg>
