<svg width="14" height="14" viewBox="0 0 14 14" fill="none" xmlns="http://www.w3.org/2000/svg">
<path d="M9.65012 8.54008L9.68916 8.48692L9.41294 8.83647C10.22 7.89765 10.7059 6.67882 10.7059 5.35294C10.7059 2.39647 8.30941 0 5.35294 0C2.39647 0 0 2.39647 0 5.35294C0 8.30941 2.39647 10.7059 5.35294 10.7059C6.67882 10.7059 7.89765 10.22 8.83647 9.41294L13.1765 14L14 13.1765L9.65012 8.54008ZM5.35294 9.41294C3.30235 9.41294 1.23529 7.40353 1.23529 5.35294C1.23529 3.30235 3.30235 1.23529 5.35294 1.23529C7.40353 1.23529 9.41294 3.30235 9.41294 5.35294C9.41294 7.40353 7.40353 9.41294 5.35294 9.41294Z" fill="#D0006F"/>
</svg>
