<?xml version="1.0" encoding="UTF-8"?>
<svg width="27px" height="28px" viewBox="0 0 27 28" version="1.1" xmlns="http://www.w3.org/2000/svg" xmlns:xlink="http://www.w3.org/1999/xlink">
    <title>Group 43</title>
    <defs>
        <filter id="filter-1">
            <feColorMatrix in="SourceGraphic" type="matrix" values="0 0 0 0 1.000000 0 0 0 0 1.000000 0 0 0 0 1.000000 0 0 0 1.000000 0"></feColorMatrix>
        </filter>
        <path d="M0.55008,0.00072 C0.24624,0.00072 -0.00072,0.24048 -0.00072,0.53712 L-0.00072,0.53712 L-0.00072,14.5836 C-0.00072,14.88024 0.24624,15.12 0.55008,15.12 L0.55008,15.12 L22.4892,15.12 C22.79304,15.12 23.04,14.88024 23.04,14.5836 L23.04,14.5836 L23.04,0.53712 C23.04,0.24048 22.79304,0.00072 22.4892,0.00072 L22.4892,0.00072 L0.55008,0.00072 Z M1.10088,14.04864 L21.9384,14.04864 L21.9384,1.07208 L1.10088,1.07208 L1.10088,14.04864 Z" id="path-2"></path>
        <path d="M0.55224,0 C0.24696,0 0,0.24696 0,0.5508 L0,0.5508 L0,5.2092 C0,5.51304 0.24696,5.76 0.55224,5.76 L0.55224,5.76 L25.36632,5.76 C25.6716,5.76 25.92,5.51304 25.92,5.2092 L25.92,5.2092 L25.92,0.5508 C25.92,0.24696 25.6716,0 25.36632,0 L25.36632,0 L0.55224,0 Z M1.1052,4.65912 L24.81408,4.65912 L24.81408,1.1016 L1.1052,1.1016 L1.1052,4.65912 Z" id="path-4"></path>
        <path d="M0.55584,0.00072 C0.24912,0.00072 -0.00072,0.22896 -0.00072,0.50976 L-0.00072,0.50976 L-0.00072,3.09024 C-0.00072,3.37176 0.24912,3.6 0.55584,3.6 L0.55584,3.6 L21.76416,3.6 C22.07016,3.6 22.32,3.37176 22.32,3.09024 L22.32,3.09024 L22.32,0.50976 C22.32,0.22896 22.07016,0.00072 21.76416,0.00072 L21.76416,0.00072 L0.55584,0.00072 Z M1.11096,2.57976 L21.20904,2.57976 L21.20904,1.01952 L1.11096,1.01952 L1.11096,2.57976 Z" id="path-6"></path>
        <path d="M1.94112,0 C1.74312,0 1.55952,0.10872 1.46088,0.28368 L1.46088,0.28368 L0.072,2.75832 C-0.0252,2.93328 -0.0252,3.14712 0.07344,3.32064 L0.07344,3.32064 C0.1728,3.49416 0.35496,3.6 0.55224,3.6 L0.55224,3.6 L25.3548,3.6 L25.36632,3.6 C25.6716,3.6 25.92,3.348 25.92,3.03768 L25.92,3.03768 C25.92,2.89584 25.86816,2.76552 25.7832,2.6676 L25.7832,2.6676 L24.44544,0.28368 C24.34752,0.10872 24.16536,0 23.96736,0 L23.96736,0 L1.94112,0 Z M2.2608,1.12464 L23.64624,1.12464 L24.40224,2.47464 L1.50408,2.47464 L2.2608,1.12464 Z" id="path-8"></path>
        <path d="M2.28888,0 C2.10672,0 1.93536,0.08928 1.8324,0.23688 L1.8324,0.23688 L0.0936,2.76336 C-0.01944,2.9268 -0.03096,3.1392 0.06408,3.31488 L0.06408,3.31488 C0.15984,3.49056 0.34632,3.60072 0.54864,3.60072 L0.54864,3.60072 L22.47768,3.60072 C22.48128,3.59928 22.48488,3.59928 22.4892,3.60072 L22.4892,3.60072 C22.79304,3.60072 23.04,3.35952 23.04,3.06288 L23.04,3.06288 C23.04,2.91384 22.97808,2.7792 22.878,2.68272 L22.878,2.68272 L21.1932,0.23688 C21.09168,0.08928 20.9196,0 20.73744,0 L20.73744,0 L2.28888,0 Z M2.58264,1.07496 L20.4444,1.07496 L21.44448,2.52504 L1.584,2.52504 L2.58264,1.07496 Z" id="path-10"></path>
        <path d="M0.59112,0.00072 C0.26496,0.00072 0,0.32328 0,0.72072 L0,0.72072 C0,1.11672 0.26496,1.44072 0.59112,1.44072 L0.59112,1.44072 L3.00816,1.44072 C3.33504,1.44072 3.6,1.11672 3.6,0.72072 L3.6,0.72072 C3.6,0.32328 3.33504,0.00072 3.00816,0.00072 L3.00816,0.00072 L0.59112,0.00072 Z" id="path-12"></path>
        <path d="M0.5904,0.00072 C0.26424,0.00072 -0.00072,0.32328 -0.00072,0.72072 L-0.00072,0.72072 C-0.00072,1.11672 0.26424,1.44072 0.5904,1.44072 L0.5904,1.44072 L3.00744,1.44072 C3.33432,1.44072 3.6,1.11672 3.6,0.72072 L3.6,0.72072 C3.6,0.32328 3.33432,0.00072 3.00744,0.00072 L3.00744,0.00072 L0.5904,0.00072 Z" id="path-14"></path>
        <path d="M0.59112,0.00072 C0.26496,0.00072 0,0.32328 0,0.72072 L0,0.72072 C0,1.11672 0.26496,1.44072 0.59112,1.44072 L0.59112,1.44072 L3.00816,1.44072 C3.33504,1.44072 3.6,1.11672 3.6,0.72072 L3.6,0.72072 C3.6,0.32328 3.33504,0.00072 3.00816,0.00072 L3.00816,0.00072 L0.59112,0.00072 Z" id="path-16"></path>
        <path d="M0.56592,0 C0.252,0 0.00072,0.24336 0.00072,0.54504 L0.00072,0.54504 L0.00072,10.25568 C0.00072,10.55592 0.252,10.8 0.56592,10.8 L0.56592,10.8 L6.63408,10.8 C6.94656,10.8 7.2,10.55592 7.2,10.25568 L7.2,10.25568 L7.2,0.54504 C7.2,0.24336 6.94656,0 6.63408,0 L6.63408,0 L0.56592,0 Z M1.13256,9.7092 L6.06744,9.7092 L6.06744,1.0908 L1.13256,1.0908 L1.13256,9.7092 Z" id="path-18"></path>
        <path d="M0.56664,0 C0.25272,0 0,0.24336 0,0.54504 L0,0.54504 L0,10.25568 C0,10.55592 0.25272,10.8 0.56664,10.8 L0.56664,10.8 L6.63336,10.8 C6.94584,10.8 7.2,10.55592 7.2,10.25568 L7.2,10.25568 L7.2,0.54504 C7.2,0.24336 6.94584,0 6.63336,0 L6.63336,0 L0.56664,0 Z M1.13184,9.7092 L6.06816,9.7092 L6.06816,1.0908 L1.13184,1.0908 L1.13184,9.7092 Z" id="path-20"></path>
        <path d="M0.56592,0 C0.252,0 0,0.24336 0,0.54504 L0,0.54504 L0,10.25568 C0,10.55592 0.252,10.8 0.56592,10.8 L0.56592,10.8 L6.63408,10.8 C6.94584,10.8 7.19928,10.55592 7.19928,10.25568 L7.19928,10.25568 L7.19928,0.54504 C7.19928,0.24336 6.94584,0 6.63408,0 L6.63408,0 L0.56592,0 Z M1.13184,9.7092 L6.06672,9.7092 L6.06672,1.0908 L1.13184,1.0908 L1.13184,9.7092 Z" id="path-22"></path>
        <path d="M0.5292,0 C0.2376,0 0,0.22824 0,0.5076 L0,0.5076 C0,0.78768 0.2376,1.01592 0.5292,1.01592 L0.5292,1.01592 L1.4616,1.01592 C1.19736,1.5624 0.9108,2.32848 0.9108,3.09168 L0.9108,3.09168 C0.9108,3.37248 1.14768,3.60072 1.44,3.60072 L1.44,3.60072 C1.73376,3.60072 1.97064,3.37248 1.97064,3.09168 L1.97064,3.09168 C1.97064,2.00376 2.78568,0.79776 2.79288,0.78624 L2.79288,0.78624 C2.90016,0.63 2.9088,0.43056 2.81592,0.26712 L2.81592,0.26712 C2.72376,0.10296 2.54448,0 2.3508,0 L2.3508,0 L0.5292,0 Z" id="path-24"></path>
        <path d="M0.5292,0 C0.23688,0 0,0.22824 0,0.5076 L0,0.5076 C0,0.78768 0.23688,1.01592 0.5292,1.01592 L0.5292,1.01592 L1.4616,1.01592 C1.1952,1.5624 0.9108,2.32848 0.9108,3.09168 L0.9108,3.09168 C0.9108,3.37248 1.14768,3.60072 1.44,3.60072 L1.44,3.60072 C1.7316,3.60072 1.96848,3.37248 1.96848,3.09168 L1.96848,3.09168 C1.96848,2.00376 2.78568,0.79776 2.79288,0.78624 L2.79288,0.78624 C2.89944,0.63 2.9088,0.43056 2.81592,0.26712 L2.81592,0.26712 C2.7252,0.10296 2.54592,0 2.3508,0 L2.3508,0 L0.5292,0 Z" id="path-26"></path>
        <path d="M0.52992,0 C0.23832,0 -0.00072,0.22824 -0.00072,0.5076 L-0.00072,0.5076 C-0.00072,0.78768 0.23832,1.01592 0.52992,1.01592 L0.52992,1.01592 L1.46376,1.01592 C1.19808,1.56384 0.91008,2.33424 0.91008,3.09168 L0.91008,3.09168 C0.91008,3.37248 1.14696,3.60072 1.43928,3.60072 L1.43928,3.60072 C1.73088,3.60072 1.96992,3.37248 1.96992,3.09168 L1.96992,3.09168 C1.96992,2.01384 2.7864,0.79776 2.7936,0.7848 L2.7936,0.7848 C2.89944,0.62856 2.90952,0.42912 2.8152,0.26568 L2.8152,0.26568 C2.72304,0.10296 2.5452,0 2.35008,0 L2.35008,0 L0.52992,0 Z" id="path-28"></path>
    </defs>
    <g id="Web" stroke="none" stroke-width="1" fill="none" fill-rule="evenodd">
        <g id="Home---Logged-out-(2)" transform="translate(-263.000000, -102.000000)">
            <g id="Group-56" transform="translate(-0.500000, 0.000000)">
                <g id="Group-22" transform="translate(0.000000, 69.000000)">
                    <g id="Main-menu" transform="translate(0.500000, 0.000000)">
                        <g id="Group-16" transform="translate(262.500000, 14.000000)">
                            <g id="Group-43" transform="translate(0.000000, 19.000000)" filter="url(#filter-1)">
                                <g transform="translate(1.000000, 0.000000)">
                                    <g id="Group-3" transform="translate(1.440000, 2.880000)">
                                        <mask id="mask-3" fill="white">
                                            <use xlink:href="#path-2"></use>
                                        </mask>
                                        <g id="Clip-2"></g>
                                        <polygon id="Fill-1" fill="#262262" mask="url(#mask-3)" points="-3.6 18.72 26.64 18.72 26.64 -3.6 -3.6 -3.6"></polygon>
                                    </g>
                                    <g id="Group-6" transform="translate(0.000000, 19.440000)">
                                        <mask id="mask-5" fill="white">
                                            <use xlink:href="#path-4"></use>
                                        </mask>
                                        <g id="Clip-5"></g>
                                        <polygon id="Fill-4" fill="#262262" mask="url(#mask-5)" points="-3.6 9.36 29.52 9.36 29.52 -3.6 -3.6 -3.6"></polygon>
                                    </g>
                                    <g id="Group-9" transform="translate(2.160000, 23.760000)">
                                        <mask id="mask-7" fill="white">
                                            <use xlink:href="#path-6"></use>
                                        </mask>
                                        <g id="Clip-8"></g>
                                        <polygon id="Fill-7" fill="#262262" mask="url(#mask-7)" points="-3.6 7.2 25.92 7.2 25.92 -3.6 -3.6 -3.6"></polygon>
                                    </g>
                                    <g id="Group-12" transform="translate(0.000000, 16.560000)">
                                        <mask id="mask-9" fill="white">
                                            <use xlink:href="#path-8"></use>
                                        </mask>
                                        <g id="Clip-11"></g>
                                        <polygon id="Fill-10" fill="#262262" mask="url(#mask-9)" points="-3.6 7.2 29.52 7.2 29.52 -3.6 -3.6 -3.6"></polygon>
                                    </g>
                                    <g id="Group-15" transform="translate(1.440000, 0.000000)">
                                        <mask id="mask-11" fill="white">
                                            <use xlink:href="#path-10"></use>
                                        </mask>
                                        <g id="Clip-14"></g>
                                        <polygon id="Fill-13" fill="#262262" mask="url(#mask-11)" points="-3.6 7.2 26.64 7.2 26.64 -3.6 -3.6 -3.6"></polygon>
                                    </g>
                                    <g id="Group-18" transform="translate(5.760000, 21.600000)">
                                        <mask id="mask-13" fill="white">
                                            <use xlink:href="#path-12"></use>
                                        </mask>
                                        <g id="Clip-17"></g>
                                        <polygon id="Fill-16" fill="#262262" mask="url(#mask-13)" points="-3.6 5.04 7.2 5.04 7.2 -3.6 -3.6 -3.6"></polygon>
                                    </g>
                                    <g id="Group-21" transform="translate(11.520000, 21.600000)">
                                        <mask id="mask-15" fill="white">
                                            <use xlink:href="#path-14"></use>
                                        </mask>
                                        <g id="Clip-20"></g>
                                        <polygon id="Fill-19" fill="#262262" mask="url(#mask-15)" points="-3.6 5.04 7.2 5.04 7.2 -3.6 -3.6 -3.6"></polygon>
                                    </g>
                                    <g id="Group-24" transform="translate(16.560000, 21.600000)">
                                        <mask id="mask-17" fill="white">
                                            <use xlink:href="#path-16"></use>
                                        </mask>
                                        <g id="Clip-23"></g>
                                        <polygon id="Fill-22" fill="#262262" mask="url(#mask-17)" points="-3.6 5.04 7.2 5.04 7.2 -3.6 -3.6 -3.6"></polygon>
                                    </g>
                                    <g id="Group-27" transform="translate(3.600000, 5.040000)">
                                        <mask id="mask-19" fill="white">
                                            <use xlink:href="#path-18"></use>
                                        </mask>
                                        <g id="Clip-26"></g>
                                        <polygon id="Fill-25" fill="#262262" mask="url(#mask-19)" points="-3.6 14.4 10.8 14.4 10.8 -3.6 -3.6 -3.6"></polygon>
                                    </g>
                                    <g id="Group-30" transform="translate(9.360000, 5.040000)">
                                        <mask id="mask-21" fill="white">
                                            <use xlink:href="#path-20"></use>
                                        </mask>
                                        <g id="Clip-29"></g>
                                        <polygon id="Fill-28" fill="#262262" mask="url(#mask-21)" points="-3.6 14.4 10.8 14.4 10.8 -3.6 -3.6 -3.6"></polygon>
                                    </g>
                                    <g id="Group-33" transform="translate(15.120000, 5.040000)">
                                        <mask id="mask-23" fill="white">
                                            <use xlink:href="#path-22"></use>
                                        </mask>
                                        <g id="Clip-32"></g>
                                        <polygon id="Fill-31" fill="#262262" mask="url(#mask-23)" points="-3.6 14.4 10.8 14.4 10.8 -3.6 -3.6 -3.6"></polygon>
                                    </g>
                                    <g id="Group-36" transform="translate(5.760000, 8.640000)">
                                        <mask id="mask-25" fill="white">
                                            <use xlink:href="#path-24"></use>
                                        </mask>
                                        <g id="Clip-35"></g>
                                        <polygon id="Fill-34" fill="#262262" mask="url(#mask-25)" points="-3.6 7.2 6.48 7.2 6.48 -3.6 -3.6 -3.6"></polygon>
                                    </g>
                                    <g id="Group-39" transform="translate(17.280000, 8.640000)">
                                        <mask id="mask-27" fill="white">
                                            <use xlink:href="#path-26"></use>
                                        </mask>
                                        <g id="Clip-38"></g>
                                        <polygon id="Fill-37" fill="#262262" mask="url(#mask-27)" points="-3.6 7.2 6.48 7.2 6.48 -3.6 -3.6 -3.6"></polygon>
                                    </g>
                                    <g id="Group-42" transform="translate(11.520000, 8.640000)">
                                        <mask id="mask-29" fill="white">
                                            <use xlink:href="#path-28"></use>
                                        </mask>
                                        <g id="Clip-41"></g>
                                        <polygon id="Fill-40" fill="#262262" mask="url(#mask-29)" points="-3.6 7.2 6.48 7.2 6.48 -3.6 -3.6 -3.6"></polygon>
                                    </g>
                                </g>
                            </g>
                        </g>
                    </g>
                </g>
            </g>
        </g>
    </g>
</svg>