<svg width="23" height="23" viewBox="0 0 23 23" fill="none" xmlns="http://www.w3.org/2000/svg">
<path d="M19.0937 21.3364L1.67061 3.91331C1.23345 3.47615 1.35383 2.64617 1.93931 2.06069C2.52482 1.47518 3.3548 1.3548 3.79196 1.79196L21.2151 19.2151C21.6522 19.6522 21.5319 20.4822 20.9463 21.0677C20.3609 21.6532 19.5309 21.7736 19.0937 21.3364Z" fill="black"/>
<path d="M21.3364 3.90625L3.91328 21.3294C3.47612 21.7665 2.64614 21.6461 2.06066 21.0607C1.47517 20.4752 1.3548 19.6452 1.79196 19.208L19.2151 1.78493C19.6522 1.3478 20.4822 1.46814 21.0677 2.05363C21.6532 2.63912 21.7735 3.46912 21.3364 3.90625Z" fill="black"/>
</svg>
