<svg width="26" height="19" viewBox="0 0 26 19" fill="none" xmlns="http://www.w3.org/2000/svg">
<path fill-rule="evenodd" clip-rule="evenodd" d="M12.2676 18.4384H0.605469C1.08665 16.958 1.56757 15.486 2.04823 14.0222C2.52889 12.5585 3.00571 11.0903 3.47868 9.61775C3.95165 8.14517 4.42847 6.67701 4.90913 5.21327C5.38979 3.74954 5.86276 2.28554 6.32804 0.821289H12.2676V7.45806H9.67063V3.43227C9.44594 3.43227 9.23741 3.42811 9.04504 3.41978C8.85268 3.41145 8.66031 3.41562 8.46794 3.43227C8.41972 3.43227 8.36355 3.46481 8.29943 3.52987C8.2353 3.59494 8.19529 3.65194 8.17939 3.70087C7.85877 4.70966 7.53406 5.71012 7.20524 6.70225C6.87641 7.69439 6.5517 8.69068 6.23108 9.69114C5.91047 10.6916 5.58575 11.6879 5.25693 12.68C4.92811 13.6722 4.60339 14.6646 4.28278 15.6572V15.6939C4.28278 15.6939 4.29073 15.7142 4.30663 15.7548H9.62061V13.6318H7.69693V10.9724H12.2661V18.4392L12.2676 18.4384ZM15.4663 10.9482V18.415H12.8932V0.847055C12.9732 0.847055 13.0453 0.842891 13.1094 0.834563C13.1735 0.826234 13.2376 0.82207 13.3018 0.82207H18.448C18.5762 0.82207 18.6845 0.834302 18.7727 0.858767C18.861 0.883232 18.9371 0.968599 19.0013 1.11487C19.5142 2.53019 20.0313 3.95359 20.5525 5.38505C21.0737 6.81651 21.5908 8.24381 22.1038 9.66694L23.6427 13.9371C23.6427 13.9371 24.1636 15.3563 25.2055 18.1948C25.2214 18.2276 25.2294 18.2643 25.2294 18.3049V18.4392C24.8123 18.4392 24.3955 18.4434 23.979 18.4517C23.5624 18.46 23.1456 18.4478 22.7286 18.415C22.6645 18.415 22.5924 18.3661 22.5124 18.2682C22.4323 18.1703 22.3762 18.0727 22.3438 17.9754C21.9268 16.8854 21.5179 15.7873 21.1173 14.6812C20.7167 13.5751 20.3158 12.477 19.9146 11.387C19.8505 11.2241 19.7743 11.1062 19.6861 11.0333C19.5978 10.9605 19.4575 10.9238 19.2652 10.9232C18.6558 10.9232 18.0345 10.9274 17.4015 10.9357C16.7685 10.9441 16.1232 10.9482 15.4655 10.9482H15.4663ZM18.7843 8.23964C18.4955 7.47498 18.2148 6.71032 17.9425 5.94566C17.6701 5.181 17.3974 4.42467 17.1245 3.67666C17.1086 3.64387 17.0724 3.60327 17.016 3.55486C16.9596 3.50645 16.9075 3.48199 16.8598 3.48146H15.5132V8.23964H18.7835H18.7843Z" fill="white"/>
</svg>
