<svg width="27" height="21" viewBox="0 0 27 21" fill="none" xmlns="http://www.w3.org/2000/svg">
<path d="M25.76 11.5868H1.12C0.501758 11.5868 0 10.9148 0 10.0868C0 9.25876 0.501758 8.58676 1.12 8.58676H25.76C26.3782 8.58676 26.88 9.25876 26.88 10.0868C26.88 10.9148 26.3782 11.5868 25.76 11.5868Z" fill="black"/>
<path d="M25.76 3H1.12C0.501758 3 0 2.328 0 1.5C0 0.671997 0.501758 0 1.12 0H25.76C26.3782 0 26.88 0.671997 26.88 1.5C26.88 2.328 26.3782 3 25.76 3Z" fill="black"/>
<path d="M16.1767 20.1732H0.703333C0.315092 20.1732 0 19.5013 0 18.6732C0 17.8452 0.315092 17.1732 0.703333 17.1732H16.1767C16.5649 17.1732 16.88 17.8452 16.88 18.6732C16.88 19.5013 16.5649 20.1732 16.1767 20.1732Z" fill="black"/>
</svg>
