<?xml version="1.0" encoding="UTF-8"?>
<svg width="28px" height="23px" viewBox="0 0 28 23" version="1.1" xmlns="http://www.w3.org/2000/svg" xmlns:xlink="http://www.w3.org/1999/xlink">
    <title>Group 19</title>
    <defs>
        <filter id="filter-1">
            <feColorMatrix in="SourceGraphic" type="matrix" values="0 0 0 0 1.000000 0 0 0 0 1.000000 0 0 0 0 1.000000 0 0 0 1.000000 0"></feColorMatrix>
        </filter>
        <path d="M5.18534418,0.000640798836 C4.98861894,0.000640798836 4.80470968,0.102527814 4.70154106,0.26977631 L4.70154106,0.26977631 L0.0813814522,7.82928018 C-0.0538271023,8.04971498 -0.0192239651,8.33102567 0.164685301,8.51429414 L0.164685301,8.51429414 L12.7358769,20.9816763 C12.8416087,21.0874081 12.9857884,21.1463616 13.1363761,21.1463616 L13.1363761,21.1463616 C13.2863231,21.1463616 13.4305028,21.0874081 13.5362346,20.9816763 L13.5362346,20.9816763 L26.1067854,8.51429414 C26.2849275,8.33743366 26.324657,8.06637575 26.2022644,7.84914495 L26.2022644,7.84914495 L21.9768369,0.289000275 C21.8768723,0.1102174 21.6878366,0.000640798836 21.4814994,0.000640798836 L21.4814994,0.000640798836 L5.18534418,0.000640798836 Z M1.27775288,8.03433581 L5.5051028,1.12011637 L21.148284,1.12011637 L25.005893,8.02151983 L13.1363761,19.7942761 L1.27775288,8.03433581 Z" id="path-2"></path>
        <path d="M5.24429768,0.000640798836 C5.03860125,0.000640798836 4.86622636,0.101246216 4.76305775,0.259523529 L4.76305775,0.259523529 L0.0826630499,7.51592955 C-0.0243503558,7.68125565 -0.0281951488,7.88887447 0.0736918662,8.05740457 L0.0736918662,8.05740457 C0.173656485,8.22529386 0.364614538,8.33038487 0.57287416,8.33038487 L0.57287416,8.33038487 L9.03846759,8.33038487 C9.23647443,8.33038487 9.42038369,8.23490585 9.5261155,8.07791013 L9.5261155,8.07791013 C9.62864332,7.92091442 9.64017769,7.72418917 9.55431065,7.55758148 L9.55431065,7.55758148 L5.76783033,0.301816252 C5.67491449,0.125596572 5.48716044,0.0108935802 5.27761922,0.000640798836 L5.27761922,0.000640798836 C5.26608484,0.000640798836 5.25455046,0.000640798836 5.24429768,0.000640798836 L5.24429768,0.000640798836 Z M5.20072336,1.65774659 L8.11956206,7.25704682 L1.58789952,7.25704682 L5.20072336,1.65774659 Z" id="path-4"></path>
        <path d="M4.96875418,0.000640798836 C4.75152337,0.000640798836 4.57914848,0.105091009 4.47726147,0.272339505 L4.47726147,0.272339505 L0.0749734639,7.52874553 C-0.0256319535,7.69407163 -0.0256319535,7.89784566 0.0775366592,8.06317176 L0.0775366592,8.06317176 C0.180705272,8.22977946 0.369740929,8.33038487 0.57287416,8.33038487 L0.57287416,8.33038487 L9.03846759,8.33038487 C9.23903762,8.33038487 9.42551008,8.23234265 9.52996029,8.07150214 L9.52996029,8.07150214 C9.6344105,7.91066163 9.6388961,7.7100916 9.54662106,7.5434839 L9.54662106,7.5434839 L5.48267484,0.287718678 C5.38591422,0.114062193 5.19431537,0.00320399418 4.98413335,0.000640798836 L4.98413335,0.000640798836 C4.97964776,0.000640798836 4.97388057,0.000640798836 4.96875418,0.000640798836 L4.96875418,0.000640798836 Z M4.9546566,1.65646499 L8.09136691,7.25704682 L1.55714117,7.25704682 L4.9546566,1.65646499 Z" id="path-6"></path>
        <path d="M4.28822581,0.281310689 L0.0698470732,7.53643511 C-0.0269135511,7.70240201 -0.0230687581,7.90425365 0.0800998545,8.06765735 L0.0800998545,8.06765735 C0.183268467,8.23106105 0.371022526,8.33038487 0.57287416,8.33038487 L0.57287416,8.33038487 L9.03846759,8.33038487 C9.24031922,8.33038487 9.42935488,8.22977946 9.53124189,8.06765735 L9.53124189,8.06765735 C9.6356921,7.90425365 9.6388961,7.70112042 9.54149467,7.53451272 L9.54149467,7.53451272 L5.29492078,0.278747494 C5.19431537,0.107654205 5.00143492,0.000640798836 4.7918937,0.000640798836 L4.7918937,0.000640798836 C4.58171168,0.000640798836 4.39011283,0.107654205 4.28822581,0.281310689 L4.28822581,0.281310689 Z M4.79381609,1.65646499 L8.07086134,7.25704682 L1.53791721,7.25704682 L4.79381609,1.65646499 Z" id="path-8"></path>
        <path d="M0.371022526,0.0288359476 C0.0865078429,0.125596572 -0.066643079,0.440869599 0.0288359476,0.730510673 L0.0288359476,0.730510673 L4.06843181,13.0787043 C4.14404607,13.3100326 4.35550969,13.4567756 4.58299328,13.4567756 L4.58299328,13.4567756 C4.63938358,13.4567756 4.69897787,13.4465228 4.75536816,13.4285804 L4.75536816,13.4285804 C5.03988285,13.331179 5.19303377,13.0165468 5.09755474,12.7275465 L5.09755474,12.7275465 L1.05667728,0.379352911 C0.981703817,0.147383732 0.770881,0.000640798836 0.543397413,0.000640798836 L0.543397413,0.000640798836 C0.486366317,0.000640798836 0.428694422,0.0102527814 0.371022526,0.0288359476 L0.371022526,0.0288359476 Z" id="path-10"></path>
        <path d="M4.06138302,0.379352911 L0.0281951488,12.7288281 C-0.0672838778,13.0197508 0.0884302394,13.3324606 0.37422652,13.4285804 L0.37422652,13.4285804 C0.431898416,13.4465228 0.488929512,13.4567756 0.546601407,13.4567756 L0.546601407,13.4567756 C0.775366592,13.4567756 0.988111806,13.3093918 1.06500767,13.0774227 L1.06500767,13.0774227 L5.09883634,0.727947478 C5.19239297,0.438306404 5.03796045,0.123033377 4.75216417,0.02755435 L4.75216417,0.02755435 C4.69577387,0.00897118371 4.63746118,0 4.58107088,0 L4.58107088,0 C4.3510241,0 4.13763809,0.147383732 4.06138302,0.379352911 L4.06138302,0.379352911 Z" id="path-12"></path>
    </defs>
    <g id="Web" stroke="none" stroke-width="1" fill="none" fill-rule="evenodd">
        <g id="Home---Logged-out-(2)" transform="translate(-863.000000, -108.000000)">
            <g id="Group-56" transform="translate(-0.500000, 0.000000)">
                <g id="Group-22" transform="translate(0.000000, 69.000000)">
                    <g id="Main-menu" transform="translate(0.500000, 0.000000)">
                        <g id="Group-16" transform="translate(262.500000, 14.000000)">
                            <g id="Group-14" transform="translate(440.500000, 23.000000)">
                                <g id="Group-19" transform="translate(160.775000, 2.600000)" filter="url(#filter-1)">
                                    <g>
                                        <g id="Group-3">
                                            <mask id="mask-3" fill="white">
                                                <use xlink:href="#path-2"></use>
                                            </mask>
                                            <g id="Clip-2"></g>
                                            <polygon id="Fill-1" fill="#262262" mask="url(#mask-3)" points="-3.20399418 24.3503558 29.4767465 24.3503558 29.4767465 -3.20399418 -3.20399418 -3.20399418"></polygon>
                                        </g>
                                        <g id="Group-6">
                                            <mask id="mask-5" fill="white">
                                                <use xlink:href="#path-4"></use>
                                            </mask>
                                            <g id="Clip-5"></g>
                                            <polygon id="Fill-4" fill="#262262" mask="url(#mask-5)" points="-3.20399418 11.5343791 12.8159767 11.5343791 12.8159767 -3.20399418 -3.20399418 -3.20399418"></polygon>
                                        </g>
                                        <g id="Group-9" transform="translate(8.330385, 0.000000)">
                                            <mask id="mask-7" fill="white">
                                                <use xlink:href="#path-6"></use>
                                            </mask>
                                            <g id="Clip-8"></g>
                                            <polygon id="Fill-7" fill="#262262" mask="url(#mask-7)" points="-3.20399418 11.5343791 12.8159767 11.5343791 12.8159767 -3.20399418 -3.20399418 -3.20399418"></polygon>
                                        </g>
                                        <g id="Group-12" transform="translate(16.660770, 0.000000)">
                                            <mask id="mask-9" fill="white">
                                                <use xlink:href="#path-8"></use>
                                            </mask>
                                            <g id="Clip-11"></g>
                                            <polygon id="Fill-10" fill="#262262" mask="url(#mask-9)" points="-3.20399418 11.5343791 12.8159767 11.5343791 12.8159767 -3.20399418 -3.20399418 -3.20399418"></polygon>
                                        </g>
                                        <g id="Group-15" transform="translate(8.330385, 7.689586)">
                                            <mask id="mask-11" fill="white">
                                                <use xlink:href="#path-10"></use>
                                            </mask>
                                            <g id="Clip-14"></g>
                                            <polygon id="Fill-13" fill="#262262" mask="url(#mask-11)" points="-3.20399418 16.6607697 8.33038487 16.6607697 8.33038487 -3.20399418 -3.20399418 -3.20399418"></polygon>
                                        </g>
                                        <g id="Group-18" transform="translate(12.175178, 7.689586)">
                                            <mask id="mask-13" fill="white">
                                                <use xlink:href="#path-12"></use>
                                            </mask>
                                            <g id="Clip-17"></g>
                                            <polygon id="Fill-16" fill="#262262" mask="url(#mask-13)" points="-3.20399418 16.6607697 8.33038487 16.6607697 8.33038487 -3.20399418 -3.20399418 -3.20399418"></polygon>
                                        </g>
                                    </g>
                                </g>
                            </g>
                        </g>
                    </g>
                </g>
            </g>
        </g>
    </g>
</svg>