<svg width="121" height="121" viewBox="0 0 121 121" fill="none" xmlns="http://www.w3.org/2000/svg">
<rect width="121" height="121" fill="white"/>
<g clip-path="url(#clip0)">
<path d="M95.3506 80.1821C95.3506 80.1821 89.525 76.6112 87.0072 67.2143C85.9832 63.3885 86.7261 59.0135 87.5143 55.8172C88.1393 53.2817 88.4538 50.6265 88.4184 47.891C88.1983 31.2346 74.0095 17.1471 57.3148 17.002C39.7612 16.849 25.5017 31.0738 25.6511 48.5852C25.7945 65.5122 39.6039 79.3781 56.5699 79.6232C63.791 79.7272 70.4619 77.3995 75.8138 73.407L73.4867 71.4009C70.7292 69.0223 66.9397 68.1987 63.4549 69.2615C61.3381 69.9067 59.0837 70.242 56.7488 70.2106C44.9009 70.0577 35.2268 60.3901 35.0912 48.5714C34.9477 36.0076 45.4119 25.8439 58.1049 26.442C69.7995 26.993 79.0274 36.7116 78.9861 48.391C78.9802 50.1716 78.6304 51.8757 78.3513 53.5582C77.2899 60.0019 77.4688 64.2356 79.9924 68.7301C84.2673 76.3465 95.3506 80.1821 95.3506 80.1821Z" fill="url(#paint0_linear)"/>
<path d="M44.8299 51.6383C46.6579 51.6383 48.1397 50.1599 48.1397 48.3361C48.1397 46.5123 46.6579 45.0338 44.8299 45.0338C43.0019 45.0338 41.52 46.5123 41.52 48.3361C41.52 50.1599 43.0019 51.6383 44.8299 51.6383Z" fill="url(#paint1_linear)"/>
<path d="M60.2174 47.7773C60.5889 50.0363 58.6588 51.9639 56.3926 51.5933C55.0207 51.3678 53.9142 50.2657 53.6901 48.897C53.3186 46.638 55.2487 44.7103 57.5149 45.0809C58.8868 45.3045 59.9934 46.4085 60.2174 47.7773Z" fill="url(#paint2_linear)"/>
<path d="M72.3424 47.7773C72.7139 50.0363 70.7838 51.9639 68.5176 51.5933C67.1457 51.3698 66.0392 50.2657 65.8151 48.897C65.4436 46.638 67.3737 44.7103 69.6399 45.0809C71.0118 45.3045 72.1184 46.4085 72.3424 47.7773Z" fill="url(#paint3_linear)"/>
<path d="M5.24765 91.6477H7.03819C7.1915 91.6477 7.28584 91.7418 7.28584 91.8948V104.706C7.28584 104.859 7.18954 104.953 7.03819 104.953H5.24765C5.09434 104.953 5 104.859 5 104.706V91.8948C5 91.7418 5.09631 91.6477 5.24765 91.6477Z" fill="black"/>
<path d="M10.1807 91.8948C10.1807 91.7418 10.277 91.6477 10.4283 91.6477H10.7133C10.847 91.6477 11.018 91.7242 11.1143 91.8183L18.4101 99.6308C18.5064 99.7249 18.5634 99.7641 18.6381 99.7641C18.7128 99.7641 18.7718 99.67 18.7718 99.4798V91.8967C18.7718 91.7438 18.8681 91.6497 19.0194 91.6497H20.8099C20.9633 91.6497 21.0576 91.7438 21.0576 91.8967V104.708C21.0576 104.861 20.9633 104.955 20.8099 104.955H20.5426C20.3913 104.955 20.2183 104.878 20.124 104.765L10.3497 94.2715C10.2554 94.1577 10.1787 93.9871 10.1787 93.8342V91.8948H10.1807ZM10.1807 97.16C10.1807 97.007 10.2573 96.9893 10.3517 97.1031L12.2955 99.1935C12.3899 99.2896 12.4665 99.4602 12.4665 99.6111V104.706C12.4665 104.859 12.3702 104.953 12.2189 104.953H10.4283C10.275 104.953 10.1807 104.859 10.1807 104.706V97.16V97.16Z" fill="black"/>
<path d="M23.442 97.2542H29.7472C29.9005 97.2542 29.9949 97.3502 29.9949 97.5012V99.0798C29.9949 99.2328 29.9005 99.3269 29.7472 99.3269H23.442C23.2887 99.3269 23.1943 99.2328 23.1943 99.0798V97.5012C23.1943 97.3502 23.2887 97.2542 23.442 97.2542Z" fill="black"/>
<path d="M31.4611 104.725L37.4814 91.6301C37.5187 91.534 37.6523 91.4595 37.7663 91.4595C37.8803 91.4595 37.9943 91.5359 38.0337 91.6301L44.0539 104.725C44.1109 104.859 44.0539 104.953 43.9025 104.953H42.0353C41.882 104.953 41.7307 104.859 41.6737 104.725L41.1411 103.566C41.0074 103.282 40.7028 103.092 40.3785 103.092H35.1385C34.8142 103.092 34.5096 103.282 34.3759 103.566L33.8433 104.725C33.7863 104.859 33.633 104.953 33.5013 104.953H31.6144C31.4611 104.953 31.4041 104.859 31.4611 104.725ZM36.1291 100.962H39.4055C39.7299 100.962 39.8438 100.772 39.7102 100.468L37.9963 96.7423C37.9197 96.5893 37.843 96.5148 37.7683 96.5148C37.6917 96.5148 37.615 96.5913 37.5403 96.7423L35.8068 100.468C35.6712 100.772 35.8048 100.962 36.1291 100.962Z" fill="black"/>
<path d="M46.2827 98.3581C46.2827 98.2052 46.379 98.111 46.5304 98.111H50.6834C53.5785 98.111 53.5609 93.7969 50.6834 93.7969H46.5304C46.379 93.7969 46.2827 93.7028 46.2827 93.5498V91.8967C46.2827 91.7438 46.379 91.6497 46.5304 91.6497H50.6834C53.6925 91.6497 55.1981 93.7969 55.1981 95.9638C55.1981 97.9777 53.8832 100.011 51.2357 100.241C51.0077 100.26 50.6834 100.26 50.1508 100.26H49.1032C48.7789 100.26 48.5705 100.488 48.5705 100.794V104.71C48.5705 104.863 48.4742 104.957 48.3229 104.957H46.5323C46.381 104.957 46.2847 104.863 46.2847 104.71V98.3581H46.2827Z" fill="black"/>
<path d="M57.7139 98.3581C57.7139 98.2052 57.8102 98.111 57.9615 98.111H62.1146C65.0097 98.111 64.992 93.7969 62.1146 93.7969H57.9615C57.8102 93.7969 57.7139 93.7028 57.7139 93.5498V91.8967C57.7139 91.7438 57.8102 91.6497 57.9615 91.6497H62.1146C65.1237 91.6497 66.6292 93.7969 66.6292 95.9638C66.6292 97.9777 65.3143 100.011 62.6668 100.241C62.4389 100.26 62.1146 100.26 61.5819 100.26H60.5343C60.21 100.26 60.0017 100.488 60.0017 100.794V104.71C60.0017 104.863 59.9054 104.957 59.754 104.957H57.9635C57.8121 104.957 57.7158 104.863 57.7158 104.71V98.3581H57.7139Z" fill="black"/>
<path d="M81.6494 102.57C81.4372 102.9 81.1816 103.21 80.8809 103.502C80.5802 103.794 80.2343 104.053 79.8392 104.276C79.4442 104.5 79.0098 104.674 78.5322 104.806C78.0546 104.935 77.5357 105 76.9696 105C76.0282 105 75.1575 104.829 74.3575 104.488C73.5576 104.147 72.8677 103.674 72.2918 103.072C71.7159 102.47 71.2658 101.755 70.9415 100.927C70.6172 100.1 70.4561 99.1916 70.4561 98.2052C70.4561 97.2189 70.6212 96.3129 70.9514 95.4834C71.2796 94.6559 71.7375 93.9402 72.3193 93.3381C72.9011 92.7361 73.591 92.2635 74.385 91.9223C75.1791 91.5811 76.0419 91.4105 76.9716 91.4105C77.4296 91.4105 77.8796 91.4595 78.3219 91.5596C78.7641 91.6596 79.1788 91.7968 79.566 91.9772C79.9552 92.1557 80.307 92.3714 80.6254 92.6244C80.9438 92.8754 81.2072 93.1597 81.4195 93.4754L80.3601 94.2794C80.2304 94.0735 80.0574 93.8656 79.8392 93.6578C79.6211 93.4499 79.3655 93.2675 79.0707 93.1087C78.7759 92.9499 78.4555 92.8224 78.1096 92.7244C77.7617 92.6283 77.3883 92.5773 76.9893 92.5773C76.1775 92.5773 75.4503 92.7303 74.8096 93.0322C74.1688 93.3362 73.6244 93.746 73.1763 94.2618C72.7281 94.7775 72.3881 95.3756 72.1523 96.056C71.9164 96.7345 71.7985 97.4522 71.7985 98.2033C71.7985 98.9563 71.9184 99.672 72.1601 100.352C72.4019 101.033 72.7458 101.631 73.192 102.145C73.6382 102.661 74.1826 103.07 74.8253 103.374C75.466 103.678 76.1874 103.829 76.9873 103.829C77.7047 103.829 78.3887 103.676 79.0353 103.372C79.682 103.068 80.2245 102.58 80.6588 101.911L81.6494 102.57Z" fill="black"/>
<path d="M83.8369 91.74H85.1086V97.3464H91.9229V91.74H93.1945V104.673H91.9229V98.5543H85.1086V104.673H83.8369V91.74Z" fill="black"/>
<path d="M96.4238 104.671H95.0303L100.431 91.738H101.668L107.033 104.671H105.622L104.244 101.272H97.7839L96.4238 104.671ZM98.2595 100.068H103.767L101.013 93.2009L98.2595 100.068Z" fill="black"/>
<path d="M111.817 104.671H110.546V92.9087H106.363V91.74H116.002V92.9087H111.817V104.671Z" fill="black"/>
</g>
<defs>
<linearGradient id="paint0_linear" x1="44.6217" y1="25.2165" x2="74.2834" y2="80.924" gradientUnits="userSpaceOnUse">
<stop stop-color="#F4A121"/>
<stop offset="0.5523" stop-color="#F36F29"/>
<stop offset="0.9883" stop-color="#F24D23"/>
</linearGradient>
<linearGradient id="paint1_linear" x1="31.0238" y1="22.5259" x2="72.4397" y2="100.309" gradientUnits="userSpaceOnUse">
<stop stop-color="#F4A121"/>
<stop offset="0.5523" stop-color="#F36F29"/>
<stop offset="0.9883" stop-color="#F24D23"/>
</linearGradient>
<linearGradient id="paint2_linear" x1="39.5245" y1="15.7507" x2="80.9406" y2="93.5341" gradientUnits="userSpaceOnUse">
<stop stop-color="#F4A121"/>
<stop offset="0.5523" stop-color="#F36F29"/>
<stop offset="0.9883" stop-color="#F24D23"/>
</linearGradient>
<linearGradient id="paint3_linear" x1="48.0254" y1="8.97548" x2="89.4415" y2="86.7588" gradientUnits="userSpaceOnUse">
<stop stop-color="#F4A121"/>
<stop offset="0.5523" stop-color="#F36F29"/>
<stop offset="0.9883" stop-color="#F24D23"/>
</linearGradient>
<clipPath id="clip0">
<rect width="111" height="88" fill="white" transform="translate(5 17)"/>
</clipPath>
</defs>
</svg>
