<?xml version="1.0" encoding="utf-8"?>
<svg width="61px" height="61px" viewBox="0 0 61 61" version="1.1" xmlns:xlink="http://www.w3.org/1999/xlink" xmlns="http://www.w3.org/2000/svg">
  <defs>
    <linearGradient x1="1.7347412" y1="1.6685814" x2="-0.4250407" y2="-0.45013186" id="gradient_1">
      <stop offset="0" stop-color="#C90099" />
      <stop offset="0.643467" stop-color="#F67622" />
      <stop offset="1" stop-color="#D8D8D8" />
    </linearGradient>
  </defs>
  <g id="ICON---Art" transform="translate(0.5 0.5)">
    <path d="M30 60C46.5685 60 60 46.5685 60 30C60 13.4315 46.5685 0 30 0C13.4315 0 0 13.4315 0 30C0 46.5685 13.4315 60 30 60Z" id="BG" fill="url(#gradient_1)" fill-rule="evenodd" stroke="none" />
    <path d="M43 20.999L43 39.001Q43 39.1975 42.9807 39.393Q42.9615 39.5885 42.9232 39.7812Q42.8848 39.9738 42.8278 40.1618Q42.7708 40.3498 42.6956 40.5313Q42.6204 40.7128 42.5278 40.8861Q42.4352 41.0594 42.326 41.2227Q42.2169 41.3861 42.0923 41.5379Q41.9676 41.6898 41.8287 41.8287Q41.6898 41.9676 41.5379 42.0923Q41.3861 42.2169 41.2227 42.326Q41.0594 42.4352 40.8861 42.5278Q40.7128 42.6204 40.5313 42.6956Q40.3498 42.7708 40.1618 42.8278Q39.9738 42.8848 39.7812 42.9232Q39.5885 42.9615 39.393 42.9807Q39.1975 43 39.001 43L20.999 43Q20.8025 43 20.607 42.9807Q20.4115 42.9615 20.2188 42.9232Q20.0261 42.8848 19.8382 42.8278Q19.6502 42.7708 19.4686 42.6956Q19.2871 42.6204 19.1139 42.5278Q18.9406 42.4352 18.7773 42.326Q18.6139 42.2169 18.4621 42.0923Q18.3102 41.9676 18.1713 41.8287Q18.0324 41.6898 17.9077 41.5379Q17.7831 41.3861 17.674 41.2227Q17.5648 41.0594 17.4722 40.8861Q17.3796 40.7128 17.3044 40.5313Q17.2292 40.3498 17.1722 40.1618Q17.1152 39.9738 17.0768 39.7812Q17.0385 39.5885 17.0193 39.393Q17 39.1975 17 39.001L17 20.999Q17 20.8025 17.0193 20.607Q17.0385 20.4115 17.0768 20.2188Q17.1152 20.0261 17.1722 19.8382Q17.2292 19.6502 17.3044 19.4686Q17.3796 19.2871 17.4722 19.1139Q17.5648 18.9406 17.674 18.7773Q17.7831 18.6139 17.9077 18.4621Q18.0324 18.3102 18.1713 18.1713Q18.3102 18.0324 18.4621 17.9077Q18.6139 17.7831 18.7773 17.674Q18.9406 17.5648 19.1139 17.4722Q19.2871 17.3796 19.4686 17.3044Q19.6502 17.2292 19.8382 17.1722Q20.0261 17.1152 20.2188 17.0768Q20.4115 17.0385 20.607 17.0193Q20.8025 17 20.999 17L39.001 17Q39.1975 17 39.393 17.0193Q39.5885 17.0385 39.7812 17.0768Q39.9738 17.1152 40.1618 17.1722Q40.3498 17.2292 40.5313 17.3044Q40.7128 17.3796 40.8861 17.4722Q41.0594 17.5648 41.2227 17.674Q41.3861 17.7831 41.5379 17.9077Q41.6898 18.0324 41.8287 18.1713Q41.9676 18.3102 42.0923 18.4621Q42.2169 18.6139 42.326 18.7773Q42.4352 18.9406 42.5278 19.1139Q42.6204 19.2871 42.6956 19.4686Q42.7708 19.6502 42.8278 19.8382Q42.8848 20.0261 42.9232 20.2188Q42.9615 20.4115 42.9807 20.607Q43 20.8025 43 20.999Z" id="ART" fill="none" fill-rule="evenodd" stroke="#040404" stroke-width="0.75" />
  </g>
</svg>