<?xml version="1.0" encoding="utf-8"?>
<svg width="61px" height="61px" viewBox="0 0 61 61" version="1.1" xmlns:xlink="http://www.w3.org/1999/xlink" xmlns="http://www.w3.org/2000/svg">
  <defs>
    <linearGradient x1="1.7347412" y1="1.6685814" x2="-0.4250407" y2="-0.45013186" id="gradient_1">
      <stop offset="0" stop-color="#C90099" />
      <stop offset="0.643467" stop-color="#F67622" />
      <stop offset="1" stop-color="#D8D8D8" />
    </linearGradient>
  </defs>
  <g id="ICON---Film" transform="translate(0.5 0.5)">
    <g id="BG">
      <path d="M30 60C46.5685 60 60 46.5685 60 30C60 13.4315 46.5685 0 30 0C13.4315 0 0 13.4315 0 30C0 46.5685 13.4315 60 30 60Z" id="BG" fill="url(#gradient_1)" fill-rule="evenodd" stroke="none" />
    </g>
    <g id="tape--storage" transform="translate(12 12)">
      <path d="M18 35.1818C8.52539 35.1818 0.818182 27.4746 0.818182 18C0.818182 8.52539 8.52539 0.818182 18 0.818182C27.4746 0.818182 35.1818 8.52539 35.1818 18C35.1818 27.4746 27.4746 35.1818 18 35.1818ZM18 1.62358C8.96948 1.62358 1.62358 8.96948 1.62358 18C1.62358 27.0294 8.96948 34.3764 18 34.3764C27.0294 34.3764 34.3764 27.0305 34.3764 18C34.3764 8.96948 27.0294 1.62358 18 1.62358ZM23.2194 30.77C23.168 30.77 23.1165 30.76 23.0673 30.7409C22.9689 30.7007 22.8894 30.6224 22.848 30.5239L20.2383 24.3403C20.1522 24.1356 20.2484 23.8995 20.452 23.8123C21.9643 23.1736 23.1926 21.9375 23.8257 20.4229C23.866 20.3245 23.9443 20.2462 24.0438 20.2059C24.1423 20.1667 24.2541 20.1656 24.3515 20.207L30.5441 22.7955C30.6425 22.8369 30.7208 22.9152 30.7611 23.0136C30.8013 23.1132 30.8013 23.2239 30.76 23.3212C29.3729 26.6345 26.6815 29.3382 23.3749 30.7376C23.3268 30.7588 23.2731 30.77 23.2194 30.77ZM21.1332 24.3861L23.432 29.8326C26.2542 28.5295 28.5664 26.2095 29.8572 23.3794L24.4029 21.0985C23.7116 22.5181 22.5471 23.6881 21.1332 24.3861ZM18 22.8771C15.3109 22.8771 13.1229 20.6891 13.1229 18C13.1229 15.3109 15.3109 13.1229 18 13.1229C20.6891 13.1229 22.8771 15.3109 22.8771 18C22.8771 20.6891 20.6891 22.8771 18 22.8771ZM18 13.9283C15.755 13.9283 13.9283 15.755 13.9283 18C13.9283 20.245 15.755 22.0717 18 22.0717C20.245 22.0717 22.0717 20.245 22.0717 18C22.0717 15.755 20.245 13.9283 18 13.9283ZM18 20.6399C16.5447 20.6399 15.3601 19.4553 15.3601 18C15.3601 16.5447 16.5447 15.3601 18 15.3601C19.4564 15.3601 20.6399 16.5447 20.6399 18C20.6399 19.4564 19.4564 20.6399 18 20.6399ZM18 16.1655C16.9888 16.1655 16.1655 16.9888 16.1655 18C16.1655 19.0112 16.9888 19.8345 18 19.8345C19.0112 19.8345 19.8345 19.0123 19.8345 18C19.8345 16.9877 19.0112 16.1655 18 16.1655ZM11.8029 15.8254C11.7503 15.8254 11.6978 15.8154 11.6474 15.7941L5.45481 13.2056C5.35637 13.1643 5.27807 13.086 5.2378 12.9875C5.19753 12.8891 5.19753 12.7772 5.23892 12.6788C6.62488 9.3677 9.31625 6.66403 12.6229 5.26241C12.7202 5.21879 12.832 5.2199 12.9316 5.26017C13.03 5.30044 13.1094 5.37763 13.1508 5.47607L15.7605 11.6597C15.8467 11.8644 15.7516 12.1005 15.5469 12.1877C14.0345 12.8287 12.8063 14.0636 12.1743 15.5782C12.1329 15.6767 12.0546 15.755 11.9562 15.7952C11.9069 15.8154 11.8544 15.8254 11.8029 15.8254ZM6.14387 12.6206L11.5971 14.9003C12.2884 13.4819 13.4517 12.313 14.8668 11.6139L12.568 6.16737C9.74467 7.47054 7.43363 9.79165 6.14387 12.6206Z" id="tape--storage_1_" fill="#040404" stroke="none" />
      <path d="M0 0L36 0L36 36L0 36L0 0Z" id="_Transparent_Rectangle" fill="none" fill-rule="evenodd" stroke="none" />
    </g>
  </g>
</svg>