<?xml version="1.0" encoding="utf-8"?>
<svg width="61px" height="61px" viewBox="0 0 61 61" version="1.1" xmlns:xlink="http://www.w3.org/1999/xlink" xmlns="http://www.w3.org/2000/svg">
  <defs>
    <linearGradient x1="1.7347412" y1="1.6685814" x2="-0.4250407" y2="-0.45013186" id="gradient_1">
      <stop offset="0" stop-color="#C90099" />
      <stop offset="0.643467" stop-color="#F67622" />
      <stop offset="1" stop-color="#D8D8D8" />
    </linearGradient>
  </defs>
  <g id="ICON---Collectibles" transform="translate(0.5 0.5)">
    <path d="M30 60C46.5685 60 60 46.5685 60 30C60 13.4315 46.5685 0 30 0C13.4315 0 0 13.4315 0 30C0 46.5685 13.4315 60 30 60Z" id="BG" fill="url(#gradient_1)" fill-rule="evenodd" stroke="none" />
    <g id="strategy--move" transform="translate(14 13)">
      <path d="M27.5108 33.6395L7.101 33.6395C6.88724 33.6395 6.71429 33.4666 6.71429 33.2528L6.71429 31.3729C6.71429 28.6423 8.93574 26.4209 11.6664 26.4209L11.8458 26.4209L9.97772 22.6837C9.91541 22.5602 9.92508 22.412 10.0013 22.297L15.9481 13.3758L7.43401 14.8345C7.26536 14.8635 7.09886 14.7787 7.02259 14.6261L5.67984 11.9406C5.59927 11.7806 5.64009 11.5851 5.77759 11.4701L13.8341 4.75638C13.9028 4.69837 13.9909 4.66722 14.0812 4.66722L16.38 4.66722L16.38 1.02567C16.38 0.882806 16.4584 0.752828 16.583 0.685153C16.7076 0.618553 16.8601 0.624998 16.9794 0.703414L21.954 3.99692C23.677 5.70919 25.7459 7.77918 25.7459 12.3778L25.7459 22.5108C25.7459 22.5946 25.7191 22.6751 25.6686 22.7428L22.9132 26.4209L22.9455 26.4209C25.6761 26.4209 27.8975 28.6423 27.8975 31.3729L27.8975 33.2528C27.8975 33.4666 27.7246 33.6395 27.5108 33.6395ZM7.48772 32.8661L27.1241 32.8661L27.1241 31.3729C27.1241 29.0688 25.2496 27.1943 22.9455 27.1943L11.6664 27.1943C9.3622 27.1943 7.48772 29.0688 7.48772 31.3729C7.48772 31.3729 7.48772 32.8661 7.48772 32.8661ZM12.7116 26.4209L21.9475 26.4209L24.9757 22.3819L24.9757 20.7491L22.1398 20.7491L22.1398 19.9757L24.9757 19.9757L24.9757 16.4523L22.1398 16.4523L22.1398 15.6789L24.9757 15.6789L24.9757 12.3789C24.9757 12.3037 24.9757 12.2285 24.9746 12.1555L22.1398 12.1555L22.1398 11.3821L24.9392 11.3821C24.6739 7.79852 22.9788 6.10343 21.4695 4.59417L17.1555 1.74539L17.1555 5.055C17.1555 5.26877 16.9826 5.44172 16.7688 5.44172L14.223 5.44172L6.51019 11.8697L7.58762 14.0246L16.7033 12.4616C16.8591 12.4369 17.0094 12.5035 17.0932 12.6324C17.1781 12.7624 17.177 12.9289 17.0911 13.0578L10.7716 22.5387L12.7116 26.4209Z" id="strategy--move_1_" fill="#040404" stroke="none" />
      <path d="M0 0L32 0L32 32L0 32L0 0Z" id="_Transparent_Rectangle" fill="none" fill-rule="evenodd" stroke="none" />
    </g>
  </g>
</svg>