<?xml version="1.0" encoding="utf-8"?>
<svg width="61px" height="61px" viewBox="0 0 61 61" version="1.1" xmlns:xlink="http://www.w3.org/1999/xlink" xmlns="http://www.w3.org/2000/svg">
  <defs>
    <linearGradient x1="1.7347412" y1="1.6685814" x2="-0.4250407" y2="-0.45013186" id="gradient_1">
      <stop offset="0" stop-color="#C90099" />
      <stop offset="0.643467" stop-color="#F67622" />
      <stop offset="1" stop-color="#D8D8D8" />
    </linearGradient>
  </defs>
  <g id="ICON---Memorabilia" transform="translate(0.5 0.5)">
    <path d="M30 60C46.5685 60 60 46.5685 60 30C60 13.4315 46.5685 0 30 0C13.4315 0 0 13.4315 0 30C0 46.5685 13.4315 60 30 60Z" id="BG" fill="url(#gradient_1)" fill-rule="evenodd" stroke="none" />
    <g id="sports" transform="translate(12 14)">
      <path d="M7.977 31.359C7.435 31.359 6.902 31.171 6.471 30.819C5.591 30.1 5.382 28.771 5.986 27.726L10.682 19.592L11.306 19.951L6.61 28.086C6.181 28.828 6.317 29.763 6.927 30.26C7.313 30.575 7.788 30.7 8.272 30.613C8.746 30.526 9.156 30.237 9.397 29.82L14.148 21.592L14.771 21.951L10.021 30.179C9.675 30.78 9.085 31.196 8.402 31.321C8.259 31.347 8.117 31.359 7.977 31.359ZM18.001 31.357C17.459 31.357 16.927 31.169 16.495 30.815C15.616 30.097 15.407 28.768 16.01 27.724L18.776 22.932L13.459 19.862C12.165 19.115 11.427 17.688 11.54 16.222C10.731 16.02 10.131 15.287 10.131 14.417L10.131 8.917C10.131 7.616 11.19 6.557 12.491 6.557L18.662 6.557C18.14 5.553 18.149 4.325 18.729 3.321C19.656 1.717 21.714 1.164 23.319 2.091C24.096 2.54 24.652 3.265 24.884 4.132C25.116 4.999 24.997 5.904 24.548 6.682C24.042 7.558 23.19 8.145 22.223 8.315C22.436 8.613 22.601 8.928 22.72 9.252L25.82 11.042L27.89 7.456C28.402 6.568 29.542 6.262 30.43 6.775C31.319 7.288 31.623 8.428 31.111 9.316L28.361 14.079C27.711 15.204 26.262 15.592 25.137 14.943L21.985 13.123L20.165 16.275L19.542 15.915L21.792 12.018C22.524 10.749 22.315 9.343 21.234 8.255C21.129 8.15 21.099 7.99 21.16 7.855C21.222 7.72 21.344 7.63 21.508 7.642C22.492 7.687 23.427 7.186 23.926 6.323C24.279 5.712 24.372 5.001 24.19 4.32C24.008 3.639 23.571 3.07 22.961 2.716C21.699 1.988 20.083 2.422 19.354 3.683C18.805 4.635 18.907 5.844 19.609 6.689C19.663 6.754 19.692 6.835 19.692 6.919C19.692 7.279 19.692 7.279 12.492 7.279C11.588 7.279 10.852 8.015 10.852 8.919L10.852 14.419C10.852 15.047 11.364 15.559 11.992 15.559C12.62 15.559 13.132 15.047 13.132 14.419L13.132 9.986C13.132 9.787 13.293 9.626 13.492 9.626L17.013 9.626L17.013 10.346L13.85 10.346L13.85 14.417C13.85 15.352 13.158 16.127 12.259 16.258C12.159 17.458 12.76 18.628 13.82 19.239L19.448 22.489C19.621 22.589 19.679 22.808 19.58 22.98L16.634 28.084C16.205 28.826 16.342 29.761 16.951 30.258C17.337 30.573 17.81 30.699 18.295 30.611C18.77 30.524 19.18 30.235 19.421 29.818L23.421 22.89C23.64 22.51 23.698 22.068 23.585 21.645C23.472 21.221 23.2 20.868 22.821 20.649L16.758 17.149L17.118 16.525L23.18 20.025C23.726 20.339 24.117 20.848 24.28 21.458C24.443 22.068 24.359 22.703 24.044 23.249L20.044 30.177C19.697 30.778 19.106 31.195 18.424 31.319C18.283 31.345 18.142 31.357 18.001 31.357ZM22.345 12.498L25.496 14.318C26.279 14.77 27.284 14.501 27.737 13.717L30.487 8.954C30.8 8.41 30.614 7.711 30.07 7.397C29.524 7.084 28.828 7.271 28.512 7.814L26.262 11.711C26.162 11.884 25.942 11.943 25.771 11.843L22.928 10.202C22.986 10.931 22.818 11.677 22.413 12.376L22.345 12.498ZM8 17.36L1 17.36L1 16.64L8 16.64L8 17.36ZM8 13.36L1 13.36L1 12.64L8 12.64L8 13.36ZM8 9.36L1 9.36L1 8.64L8 8.64L8 9.36Z" id="sports_1_" fill="#040404" stroke="none" />
      <path d="M0 0L35.5556 0L35.5556 32L0 32L0 0Z" id="_Transparent_Rectangle" fill="none" fill-rule="evenodd" stroke="none" />
    </g>
  </g>
</svg>