<?xml version="1.0" encoding="utf-8"?>
<svg width="61px" height="61px" viewBox="0 0 61 61" version="1.1" xmlns:xlink="http://www.w3.org/1999/xlink" xmlns="http://www.w3.org/2000/svg">
  <defs>
    <linearGradient x1="1.7347412" y1="1.6685814" x2="-0.4250407" y2="-0.45013186" id="gradient_1">
      <stop offset="0" stop-color="#C90099" />
      <stop offset="0.643467" stop-color="#F67622" />
      <stop offset="1" stop-color="#D8D8D8" />
    </linearGradient>
  </defs>
  <g id="ICON---Causes" transform="translate(0.5 0.5)">
    <path d="M30 60C46.5685 60 60 46.5685 60 30C60 13.4315 46.5685 0 30 0C13.4315 0 0 13.4315 0 30C0 46.5685 13.4315 60 30 60Z" id="BG" fill="url(#gradient_1)" fill-rule="evenodd" stroke="none" />
    <g id="agriculture" transform="translate(14 14)">
      <path d="M17.396 29.111C16.714 29.111 16.049 28.85 15.563 28.364C14.852 27.653 14.624 26.566 14.982 25.594L15.04 25.439L15.196 25.381C16.169 25.025 17.254 25.25 17.965 25.961C18.675 26.672 18.903 27.758 18.545 28.73L18.487 28.886L18.331 28.944C18.025 29.057 17.709 29.111 17.396 29.111ZM15.605 26.006C15.422 26.671 15.597 27.381 16.071 27.855C16.545 28.33 17.254 28.503 17.92 28.321C18.103 27.656 17.928 26.946 17.454 26.472C16.981 25.997 16.27 25.825 15.605 26.006ZM12.902 24.378L12.738 24.35C11.717 24.177 10.888 23.439 10.626 22.469C10.364 21.499 10.707 20.444 11.501 19.779L11.628 19.673L11.792 19.701C12.813 19.874 13.642 20.612 13.905 21.583C14.167 22.553 13.824 23.608 13.03 24.272L12.902 24.378ZM11.838 20.445C11.349 20.93 11.147 21.633 11.322 22.281C11.497 22.927 12.026 23.432 12.694 23.604C13.184 23.12 13.386 22.416 13.211 21.769C13.035 21.123 12.506 20.617 11.838 20.445ZM17.716 21.902C17.404 21.902 17.087 21.847 16.781 21.735L16.625 21.677L16.567 21.522C16.209 20.55 16.437 19.463 17.147 18.752C17.859 18.043 18.945 17.814 19.916 18.172L20.072 18.23L20.13 18.385C20.488 19.357 20.261 20.444 19.549 21.155C19.062 21.643 18.398 21.902 17.716 21.902ZM17.191 21.111C17.855 21.294 18.566 21.12 19.04 20.645C19.515 20.171 19.689 19.46 19.506 18.796C18.842 18.611 18.132 18.787 17.656 19.262C17.183 19.736 17.009 20.446 17.191 21.111ZM12.873 12.691C12.19 12.691 11.526 12.43 11.039 11.943C10.329 11.233 10.101 10.146 10.459 9.175L10.517 9.019L10.673 8.961C11.643 8.604 12.731 8.831 13.442 9.541L13.442 9.541C14.152 10.251 14.38 11.338 14.022 12.31L13.964 12.466L13.808 12.524C13.503 12.636 13.186 12.691 12.873 12.691ZM11.083 9.585C10.9 10.25 11.075 10.96 11.549 11.434C12.023 11.909 12.732 12.084 13.398 11.9C13.581 11.235 13.406 10.525 12.933 10.05C12.458 9.578 11.748 9.402 11.083 9.585ZM15.999 31.36C11.51 31.36 7.836 27.803 7.646 23.36L1 23.36L1 22.64L7.999 22.64C8.198 22.64 8.359 22.801 8.359 23C8.359 27.213 11.786 30.64 15.999 30.64C20.212 30.64 23.639 27.213 23.639 23C23.639 22.801 23.8 22.64 23.999 22.64L31 22.64L31 23.361L24.352 23.361C24.162 27.804 20.488 31.36 15.999 31.36ZM23.631 17.36L8.705 17.36C5.764 17.36 2.638 15.165 2.638 11.098C2.638 7.632 4.195 5.32 8.012 3.12L11.591 1.086C12.156 0.768 12.591 0.639 13.096 0.639C14.222 0.639 14.83 1.534 14.83 2.375C14.83 3.148 14.401 3.607 13.758 4.059L12.207 5.095L24.77 5.095C25.764 5.095 26.573 5.904 26.573 6.897C26.573 7.305 26.436 7.682 26.206 7.985L26.557 7.985C26.561 7.985 26.565 7.985 26.568 7.985C27.042 7.985 27.49 8.17 27.83 8.508C28.173 8.849 28.362 9.301 28.362 9.782C28.362 10.776 27.552 11.585 26.557 11.585L26.21 11.585C26.438 11.887 26.572 12.262 26.572 12.668C26.572 13.565 25.913 14.312 25.053 14.448C25.291 14.754 25.433 15.137 25.433 15.553C25.434 16.55 24.625 17.36 23.631 17.36ZM13.095 1.36C12.719 1.36 12.396 1.459 11.944 1.714L8.368 3.746C4.81 5.797 3.357 7.928 3.357 11.099C3.357 14.698 6.112 16.641 8.705 16.641L23.631 16.641C24.228 16.641 24.713 16.154 24.713 15.556C24.713 14.959 24.228 14.473 23.631 14.473L16 14.473L16 13.753L24.77 13.753C25.367 13.753 25.852 13.267 25.852 12.67C25.852 12.073 25.367 11.587 24.77 11.587L16 11.587L16 10.867L26.556 10.867C27.154 10.867 27.64 10.381 27.64 9.784C27.64 9.496 27.527 9.225 27.321 9.02C27.118 8.817 26.849 8.706 26.565 8.706C26.563 8.706 26.561 8.706 26.558 8.706L16 8.706L16 7.986L24.77 7.986C25.366 7.982 25.852 7.494 25.852 6.898C25.852 6.301 25.367 5.815 24.77 5.815L11.019 5.815C10.86 5.815 10.721 5.711 10.674 5.56C10.628 5.408 10.687 5.244 10.819 5.156L13.35 3.466C13.988 3.018 14.11 2.737 14.11 2.376C14.109 1.887 13.792 1.36 13.095 1.36Z" id="agriculture_1_" fill="#040404" stroke="none" />
      <path d="M0 0L32 0L32 32L0 32L0 0Z" id="_Transparent_Rectangle" fill="none" fill-rule="evenodd" stroke="none" />
    </g>
  </g>
</svg>