<?xml version="1.0" encoding="utf-8"?>
<svg width="61px" height="61px" viewBox="0 0 61 61" version="1.1" xmlns:xlink="http://www.w3.org/1999/xlink" xmlns="http://www.w3.org/2000/svg">
  <defs>
    <linearGradient x1="1.7347412" y1="1.6685814" x2="-0.4250407" y2="-0.45013186" id="gradient_1">
      <stop offset="0" stop-color="#C90099" />
      <stop offset="0.643467" stop-color="#F67622" />
      <stop offset="1" stop-color="#D8D8D8" />
    </linearGradient>
  </defs>
  <g id="ICON---Performances" transform="translate(0.5 0.5)">
    <path d="M30 60C46.5685 60 60 46.5685 60 30C60 13.4315 46.5685 0 30 0C13.4315 0 0 13.4315 0 30C0 46.5685 13.4315 60 30 60Z" id="BG" fill="url(#gradient_1)" fill-rule="evenodd" stroke="none" />
    <g id="microphone" transform="translate(14 14)">
      <path d="M22.1961 32L9.94118 32L9.94118 31.2647L15.701 31.2647L15.701 27.9089C10.5999 27.7149 6.5098 23.5043 6.5098 18.3562L6.5098 14.2712L7.2451 14.2712L7.2451 16.9673L9.57353 16.9673L9.57353 7.12255C9.57353 3.54105 12.4871 0.627451 16.0686 0.627451C19.6501 0.627451 22.5637 3.54105 22.5637 7.12255L22.5637 16.9673L24.8911 16.9673L24.8911 14.2712L25.6275 14.2712L25.6275 18.3562C25.6275 23.5033 21.5364 27.7138 16.4363 27.9089L16.4363 31.2647L22.1961 31.2647L22.1961 32ZM7.2451 17.7026L7.2451 18.3562C7.2451 23.2214 11.2034 27.1797 16.0686 27.1797C20.9338 27.1797 24.8922 23.2214 24.8922 18.3562L24.8922 17.7026L22.5637 17.7026L22.5637 18.3562C22.5637 21.9377 19.6491 24.8513 16.0686 24.8513C12.4882 24.8513 9.57353 21.9377 9.57353 18.3562L9.57353 17.7026L7.2451 17.7026ZM16.0686 1.36275C12.8926 1.36275 10.3088 3.94649 10.3088 7.12255L10.3088 18.3562C10.3088 21.5323 12.8926 24.116 16.0686 24.116C19.2447 24.116 21.8284 21.5333 21.8284 18.3562L21.8284 7.12255C21.8284 3.94649 19.2447 1.36275 16.0686 1.36275Z" id="microphone_1_" fill="#040404" stroke="none" />
      <path d="M0 0L31.3725 0L31.3725 31.3725L0 31.3725L0 0Z" id="_Transparent_Rectangle" fill="none" fill-rule="evenodd" stroke="none" />
    </g>
  </g>
</svg>