<svg width="102" height="109" viewBox="0 0 102 109" fill="none" xmlns="http://www.w3.org/2000/svg">
<path d="M30.729 57.534C34.6546 57.534 37.837 54.3516 37.837 50.426C37.837 46.5004 34.6546 43.318 30.729 43.318C26.8034 43.318 23.621 46.5004 23.621 50.426C23.621 54.3516 26.8034 57.534 30.729 57.534Z" fill="#3B4141" fill-opacity="0.33"/>
<path d="M76.461 51.23C79.868 51.23 82.63 48.468 82.63 45.061C82.63 41.654 79.868 38.892 76.461 38.892C73.0539 38.892 70.292 41.654 70.292 45.061C70.292 48.468 73.0539 51.23 76.461 51.23Z" fill="#3B4141" fill-opacity="0.06"/>
<path d="M70.828 20.116C73.6424 20.116 75.924 17.8345 75.924 15.02C75.924 12.2056 73.6424 9.92401 70.828 9.92401C68.0136 9.92401 65.732 12.2056 65.732 15.02C65.732 17.8345 68.0136 20.116 70.828 20.116Z" fill="#3B4141" fill-opacity="0.04"/>
<path d="M25.129 40.183C29.2949 40.183 32.672 36.8883 32.672 32.824C32.672 28.7597 29.2949 25.465 25.129 25.465C20.9631 25.465 17.586 28.7597 17.586 32.824C17.586 36.8883 20.9631 40.183 25.129 40.183Z" fill="#3B4141" fill-opacity="0.58"/>
<path d="M46.798 66.653C50.585 66.653 53.655 63.6614 53.655 59.971C53.655 56.2806 50.585 53.289 46.798 53.289C43.011 53.289 39.941 56.2806 39.941 59.971C39.941 63.6614 43.011 66.653 46.798 66.653Z" fill="#3B4141" fill-opacity="0.22"/>
<path d="M64.421 63.726C68.0186 63.726 70.935 60.8862 70.935 57.383C70.935 53.8799 68.0186 51.04 64.421 51.04C60.8234 51.04 57.907 53.8799 57.907 57.383C57.907 60.8862 60.8234 63.726 64.421 63.726Z" fill="#3B4141" fill-opacity="0.11"/>
<path d="M33.289 23.094C37.6443 23.094 41.175 19.6475 41.175 15.396C41.175 11.1445 37.6443 7.698 33.289 7.698C28.9337 7.698 25.403 11.1445 25.403 15.396C25.403 19.6475 28.9337 23.094 33.289 23.094Z" fill="#3B4141" fill-opacity="0.82"/>
<path d="M78.411 34.753C81.6303 34.753 84.24 32.1916 84.24 29.032C84.24 25.8724 81.6303 23.311 78.411 23.311C75.1917 23.311 72.582 25.8724 72.582 29.032C72.582 32.1916 75.1917 34.753 78.411 34.753Z" fill="#3B4141" fill-opacity="0.03"/>
<path d="M52.857 0C54.5015 0 56.1092 0.487666 57.4766 1.40133C58.844 2.31499 59.9097 3.61362 60.5391 5.13299C61.1684 6.65235 61.3331 8.32422 61.0122 9.93718C60.6914 11.5501 59.8995 13.0317 58.7366 14.1946C57.5737 15.3575 56.0921 16.1494 54.4792 16.4702C52.8662 16.7911 51.1943 16.6264 49.675 15.9971C48.1556 15.3677 46.857 14.302 45.9433 12.9346C45.0297 11.5672 44.542 9.95955 44.542 8.315C44.542 6.10972 45.418 3.99477 46.9774 2.43541C48.5368 0.876042 50.6517 0 52.857 0V0Z" fill="#3B4141"/>
<path d="M1.14258 103.5H8.45947V101.881H3.01758V92.792H1.14258V103.5ZM14.3115 92.5356C12.7002 92.5552 11.4453 93.1045 10.5469 94.1836C9.63867 95.2432 9.18457 96.564 9.18457 98.146C9.18457 99.7134 9.63867 101.029 10.5469 102.094C11.4453 103.173 12.7002 103.727 14.3115 103.756C15.9326 103.727 17.1924 103.173 18.0908 102.094C18.9844 101.029 19.436 99.7134 19.4458 98.146C19.436 96.564 18.9844 95.2432 18.0908 94.1836C17.1924 93.1045 15.9326 92.5552 14.3115 92.5356ZM14.3115 94.0664C15.4639 94.0859 16.2939 94.5059 16.8018 95.3262C17.3145 96.127 17.5708 97.0669 17.5708 98.146C17.5708 99.2056 17.3145 100.141 16.8018 100.951C16.5527 101.332 16.2231 101.637 15.813 101.867C15.3931 102.106 14.8926 102.226 14.3115 102.226C13.1836 102.206 12.3584 101.781 11.8359 100.951C11.3086 100.141 11.0498 99.2056 11.0596 98.146C11.0498 97.0669 11.3086 96.127 11.8359 95.3262C12.3584 94.5059 13.1836 94.0859 14.3115 94.0664ZM24.9756 94.6377H25.0195L26.6235 99.2373H23.3569L24.9756 94.6377ZM19.9072 103.5H21.8408L22.8442 100.666H27.1216L28.125 103.5H30.1318L26.0083 92.792H24.0161L19.9072 103.5ZM33.0322 94.3228H34.8779C35.6055 94.3228 36.2085 94.418 36.687 94.6084C37.1606 94.7988 37.522 95.0674 37.771 95.4141C38.2397 96.127 38.4644 97.0376 38.4448 98.146C38.4448 98.395 38.4399 98.6489 38.4302 98.9077C38.4106 99.1616 38.3691 99.4033 38.3057 99.6328C38.208 100.102 38.0298 100.512 37.771 100.863C37.2778 101.591 36.3135 101.959 34.8779 101.969H33.0322V94.3228ZM31.1572 103.5H35.5957C37.2363 103.48 38.4399 102.956 39.2065 101.925C39.9487 100.915 40.3198 99.6548 40.3198 98.146C40.3198 96.6274 39.9487 95.3628 39.2065 94.3521C38.4399 93.3315 37.2363 92.8115 35.5957 92.792H31.1572V103.5ZM41.9971 103.5H43.8721V92.792H41.9971V103.5ZM46.0913 103.5H47.8784V95.6265H47.9224L52.8003 103.5H54.7778V92.792H52.9907V100.68H52.9614L48.0762 92.792H46.0913V103.5ZM66.3501 97.8604H61.7944V99.2886H64.6436C64.5947 101.188 63.5938 102.167 61.6406 102.226C60.5127 102.206 59.6899 101.781 59.1724 100.951C58.6401 100.141 58.3789 99.2056 58.3887 98.146C58.3789 97.0669 58.6401 96.127 59.1724 95.3262C59.6899 94.5059 60.5127 94.0859 61.6406 94.0664C62.334 94.0664 62.9443 94.2422 63.4717 94.5938C63.9844 94.9502 64.2944 95.4849 64.4019 96.1978H66.2329C66.0718 94.9771 65.5664 94.0615 64.7168 93.4512C63.8672 92.8408 62.8418 92.5356 61.6406 92.5356C60.0342 92.5552 58.7793 93.1045 57.876 94.1836C56.9678 95.2432 56.5137 96.564 56.5137 98.146C56.5137 99.7134 56.9678 101.029 57.876 102.094C58.7793 103.173 60.0342 103.727 61.6406 103.756C62.8711 103.786 63.9478 103.28 64.8706 102.24L65.1562 103.5H66.3501V97.8604ZM74.4434 94.3228H77.2119C77.4756 94.3228 77.7173 94.3423 77.937 94.3813C78.1665 94.4399 78.3618 94.5352 78.5229 94.667C78.8696 94.9258 79.0479 95.3994 79.0576 96.0879C79.0576 96.4199 79.0039 96.6958 78.8965 96.9155C78.7842 97.1548 78.6328 97.3403 78.4424 97.4722C78.2666 97.5991 78.0664 97.6943 77.8418 97.7578C77.6123 97.8262 77.3926 97.8604 77.1826 97.8604H74.4434V94.3228ZM72.5684 103.5H74.4434V99.3911H77.2925C78.0493 99.3813 78.6743 99.2666 79.1675 99.0469C79.646 98.8467 80.0146 98.5757 80.2734 98.2339C80.5322 97.897 80.7129 97.5381 80.8154 97.1572C80.8936 96.7861 80.9326 96.4346 80.9326 96.1025C80.9326 95.7559 80.8936 95.3921 80.8154 95.0112C80.7129 94.6304 80.5322 94.2764 80.2734 93.9492C80.0146 93.6074 79.646 93.3267 79.1675 93.1069C78.6743 92.9067 78.0493 92.8018 77.2925 92.792H72.5684V103.5ZM84.4482 94.3228H86.2939C87.0215 94.3228 87.6245 94.418 88.103 94.6084C88.5767 94.7988 88.938 95.0674 89.187 95.4141C89.6558 96.127 89.8804 97.0376 89.8608 98.146C89.8608 98.395 89.856 98.6489 89.8462 98.9077C89.8267 99.1616 89.7852 99.4033 89.7217 99.6328C89.624 100.102 89.4458 100.512 89.187 100.863C88.6938 101.591 87.7295 101.959 86.2939 101.969H84.4482V94.3228ZM82.5732 103.5H87.0117C88.6523 103.48 89.856 102.956 90.6226 101.925C91.3647 100.915 91.7358 99.6548 91.7358 98.146C91.7358 96.6274 91.3647 95.3628 90.6226 94.3521C89.856 93.3315 88.6523 92.8115 87.0117 92.792H82.5732V103.5ZM93.4131 103.5H95.2881V98.7466H100.129V97.2158H95.2881V94.4106H100.803V92.792H93.4131V103.5Z" fill="#3B4141"/>
</svg>