<svg width="153" height="35" viewBox="0 0 153 35" fill="none" xmlns="http://www.w3.org/2000/svg">
<g clip-path="url(#clip0)">
<path d="M19.2593 6.62478C19.3482 6.61229 19.4388 6.62063 19.524 6.64913C19.6092 6.67763 19.6865 6.72552 19.75 6.78902C19.8135 6.85252 19.8614 6.9299 19.8899 7.01507C19.9184 7.10023 19.9268 7.19084 19.9143 7.27978V9.60578C19.9277 9.69924 19.9191 9.79453 19.8892 9.8841C19.8594 9.97367 19.8091 10.0551 19.7423 10.1219C19.6756 10.1886 19.5942 10.2389 19.5046 10.2688C19.415 10.2986 19.3197 10.3072 19.2263 10.2938H12.3803V28.8938C12.393 28.9828 12.3848 29.0735 12.3564 29.1588C12.3279 29.244 12.2801 29.3215 12.2165 29.385C12.153 29.4486 12.0755 29.4965 11.9902 29.5249C11.905 29.5533 11.8142 29.5615 11.7253 29.5488H8.51528C8.42631 29.5615 8.33562 29.5533 8.25036 29.5249C8.1651 29.4965 8.08762 29.4486 8.02407 29.385C7.96052 29.3215 7.91264 29.244 7.88421 29.1588C7.85578 29.0735 7.84759 28.9828 7.86028 28.8938V10.2938H0.687282C0.59382 10.3072 0.498535 10.2986 0.408962 10.2688C0.319389 10.2389 0.237991 10.1886 0.17123 10.1219C0.104469 10.0551 0.0541941 9.97367 0.0243487 9.8841C-0.00549668 9.79453 -0.0140814 9.69924 -0.000706208 9.60578V7.27978C-0.000706208 6.84311 0.228616 6.62478 0.687282 6.62478H19.2593Z" fill="white"/>
<path d="M41.0098 28.898C41.0225 28.9869 41.0143 29.0776 40.9859 29.1629C40.9574 29.2481 40.9095 29.3256 40.846 29.3892C40.7824 29.4527 40.705 29.5006 40.6197 29.529C40.5344 29.5575 40.4438 29.5657 40.3548 29.553H37.1448C37.0558 29.5657 36.9652 29.5575 36.8799 29.5291C36.7947 29.5007 36.7173 29.4527 36.6538 29.3892C36.5903 29.3256 36.5425 29.2481 36.5142 29.1628C36.4859 29.0776 36.4779 28.9869 36.4908 28.898V20.4469H27.6098V28.898C27.6225 28.9869 27.6143 29.0776 27.5859 29.1629C27.5574 29.2481 27.5095 29.3256 27.446 29.3892C27.3824 29.4527 27.305 29.5006 27.2197 29.529C27.1345 29.5575 27.0437 29.5657 26.9548 29.553H23.7458C23.6568 29.5657 23.5661 29.5575 23.4808 29.529C23.3956 29.5006 23.3181 29.4527 23.2545 29.3892C23.191 29.3256 23.1431 29.2481 23.1147 29.1629C23.0862 29.0776 23.0781 28.9869 23.0908 28.898V7.27995C23.0781 7.19098 23.0862 7.10027 23.1147 7.01501C23.1431 6.92975 23.191 6.85227 23.2545 6.78872C23.3181 6.72517 23.3956 6.67729 23.4808 6.64886C23.5661 6.62043 23.6568 6.61225 23.7458 6.62495H26.9548C27.0437 6.61225 27.1345 6.62043 27.2197 6.64886C27.305 6.67729 27.3824 6.72517 27.446 6.78872C27.5095 6.85227 27.5574 6.92975 27.5859 7.01501C27.6143 7.10027 27.6225 7.19098 27.6098 7.27995V16.746H36.4868V7.27995C36.4741 7.19107 36.4823 7.10046 36.5107 7.01529C36.539 6.93011 36.5868 6.85271 36.6503 6.78918C36.7137 6.72565 36.791 6.67775 36.8761 6.64924C36.9613 6.62074 37.0519 6.61242 37.1408 6.62495H40.3508C40.4397 6.61247 40.5303 6.6208 40.6155 6.6493C40.7007 6.67781 40.778 6.72569 40.8415 6.7892C40.905 6.8527 40.9529 6.93008 40.9814 7.01524C41.0099 7.1004 41.0183 7.19102 41.0058 7.27995L41.0098 28.898Z" fill="white"/>
<path d="M65.3795 28.833C65.3714 28.9832 65.3165 29.1271 65.2225 29.2445C65.1286 29.362 65.0002 29.4471 64.8555 29.488C64.6218 29.5676 64.3805 29.6226 64.1355 29.652C63.7661 29.6994 63.3939 29.7211 63.0215 29.717C62.0296 29.7627 61.0442 29.5366 60.1715 29.063C59.4769 28.6497 58.875 28.0975 58.4035 27.441C57.9404 26.7882 57.5554 26.0834 57.2565 25.341C56.9498 24.5877 56.6278 23.8877 56.2905 23.241C55.9791 22.633 55.5634 22.0844 55.0625 21.62C54.5252 21.1632 53.8338 20.9289 53.1295 20.965H50.7055V28.892C50.7182 28.981 50.71 29.0717 50.6816 29.157C50.6532 29.2422 50.6053 29.3197 50.5417 29.3832C50.4782 29.4468 50.4007 29.4946 50.3154 29.5231C50.2302 29.5515 50.1395 29.5597 50.0505 29.547H46.8405C46.7515 29.5597 46.6608 29.5515 46.5755 29.5231C46.4903 29.4946 46.4128 29.4468 46.3492 29.3832C46.2857 29.3197 46.2378 29.2422 46.2094 29.157C46.181 29.0717 46.1728 28.981 46.1855 28.892V7.313C46.1855 6.855 46.4038 6.62567 46.8405 6.625H54.2405C57.0785 6.625 59.2295 7.18199 60.6935 8.29599C62.1575 9.40999 62.8892 11.2553 62.8885 13.832C62.9032 14.5966 62.7754 15.3572 62.5115 16.075C62.2815 16.6822 61.9612 17.2513 61.5615 17.763C61.1996 18.2248 60.7685 18.6279 60.2835 18.958C59.8623 19.2485 59.4055 19.4837 58.9245 19.658C59.5228 20.1491 60.0087 20.763 60.3495 21.458C60.7102 22.1787 61.0652 22.8787 61.4145 23.558C61.7327 24.1894 62.1365 24.7739 62.6145 25.295C62.8442 25.5365 63.1214 25.728 63.4285 25.8576C63.7356 25.9871 64.0662 26.052 64.3995 26.048H64.8915C65.2181 26.048 65.3818 26.2443 65.3825 26.637L65.3795 28.833ZM53.7195 17.565C54.9169 17.615 56.1006 17.2948 57.1095 16.648C57.5422 16.3518 57.8915 15.9492 58.1238 15.479C58.356 15.0087 58.4633 14.4867 58.4355 13.963C58.4624 13.4554 58.3731 12.9484 58.1745 12.4806C57.9759 12.0127 57.6733 11.5963 57.2895 11.263C56.3688 10.5688 55.2304 10.2263 54.0795 10.297H50.7055V17.568L53.7195 17.565Z" fill="white"/>
<path d="M73.0414 28.8979C73.0539 28.987 73.0456 29.0777 73.017 29.1629C72.9885 29.2482 72.9405 29.3256 72.8768 29.3891C72.8132 29.4527 72.7357 29.5005 72.6504 29.5289C72.5651 29.5574 72.4744 29.5656 72.3854 29.5529H69.1754C69.0865 29.5655 68.9959 29.5571 68.9108 29.5286C68.8257 29.5001 68.7483 29.4522 68.6849 29.3887C68.6215 29.3252 68.5736 29.2477 68.5453 29.1626C68.5169 29.0774 68.5087 28.9868 68.5214 28.8979V7.27992C68.5087 7.19104 68.5169 7.10043 68.5453 7.01525C68.5736 6.93008 68.6215 6.85268 68.6849 6.78915C68.7483 6.72562 68.8257 6.67771 68.9108 6.64921C68.9959 6.62071 69.0865 6.61239 69.1754 6.62492H72.3854C72.4744 6.61226 72.5651 6.62046 72.6504 6.64889C72.7357 6.67731 72.8132 6.72518 72.8768 6.78871C72.9405 6.85223 72.9885 6.92967 73.017 7.01492C73.0456 7.10017 73.0539 7.19089 73.0414 7.27992V28.8979Z" fill="white"/>
<path d="M92.4317 7.34607C92.4875 7.16823 92.5644 6.99769 92.6607 6.83808C92.7163 6.76196 92.7912 6.70208 92.8777 6.66463C92.9642 6.62718 93.0592 6.61353 93.1527 6.62508H96.7247C96.8238 6.61569 96.9235 6.63366 97.0131 6.67703C97.1027 6.72041 97.1787 6.78753 97.2327 6.87108C97.2814 6.95162 97.3111 7.04219 97.3196 7.13593C97.3281 7.22966 97.3151 7.3241 97.2817 7.41208L89.5197 28.1781C89.4044 28.5936 89.184 28.9724 88.8797 29.278C88.5776 29.4851 88.214 29.5832 87.8487 29.5561H85.5887C85.2458 29.5835 84.9039 29.4909 84.6217 29.2941C84.3269 28.976 84.1084 28.5951 83.9827 28.1801L76.3507 7.41408C76.3068 7.3272 76.2854 7.2307 76.2884 7.13341C76.2913 7.03612 76.3186 6.94112 76.3677 6.85707C76.4245 6.77748 76.5013 6.71429 76.5903 6.67391C76.6793 6.63352 76.7774 6.61736 76.8747 6.62708H80.7077C80.806 6.61361 80.9062 6.62618 80.9982 6.66356C81.0901 6.70094 81.1707 6.76181 81.2317 6.84007C81.3217 6.98756 81.3891 7.14767 81.4317 7.31508L86.8037 24.4151L92.4317 7.34607Z" fill="white"/>
<path d="M101.178 29.5539C101.089 29.5666 100.998 29.5585 100.913 29.53C100.828 29.5016 100.75 29.4537 100.687 29.3902C100.623 29.3266 100.575 29.2492 100.547 29.1639C100.518 29.0786 100.51 28.9879 100.523 28.8989V7.27995C100.51 7.19098 100.518 7.10027 100.547 7.01501C100.575 6.92975 100.623 6.85227 100.687 6.78872C100.75 6.72517 100.828 6.67729 100.913 6.64886C100.998 6.62043 101.089 6.61225 101.178 6.62495H114.345C114.434 6.61229 114.525 6.6205 114.61 6.64892C114.695 6.67735 114.773 6.72522 114.836 6.78874C114.9 6.85226 114.948 6.9297 114.977 7.01495C115.005 7.1002 115.013 7.19092 115.001 7.27995V9.60595C115.014 9.69947 115.005 9.79477 114.975 9.88433C114.945 9.9739 114.895 10.0553 114.828 10.122C114.761 10.1887 114.68 10.239 114.59 10.2688C114.501 10.2987 114.405 10.3073 114.312 10.2939H105.042V16.386H112.216C112.305 16.3734 112.395 16.3817 112.481 16.4102C112.566 16.4387 112.643 16.4867 112.706 16.5502C112.77 16.6137 112.818 16.6911 112.846 16.7763C112.874 16.8615 112.883 16.9521 112.87 17.041V19.334C112.87 19.771 112.642 19.9889 112.183 19.9889H105.042V25.8889H114.342C114.778 25.8889 114.998 26.1179 114.998 26.5769V28.9029C114.998 29.3403 114.768 29.5586 114.309 29.5579L101.178 29.5539Z" fill="white"/>
<path d="M146.953 18.8436C146.941 18.8862 146.925 18.9277 146.906 18.9676C146.883 19.0133 146.855 19.0565 146.824 19.0966C146.749 19.1906 146.668 19.2797 146.582 19.3636C146.401 19.5438 146.21 19.7128 146.009 19.8696C145.309 20.3886 144.609 20.9196 143.894 21.4256C143.403 21.7746 142.894 22.1016 142.394 22.4356L139.48 24.3786L138.242 23.6426L132.966 20.5116C131.774 19.7726 130.575 19.0456 129.391 18.2936C129.168 18.1516 128.958 17.9876 128.745 17.8296C128.677 17.7796 128.614 17.7226 128.545 17.6696C128.525 17.6536 128.502 17.6386 128.483 17.6206C128.439 17.5776 128.393 17.5346 128.351 17.4876C128.326 17.4579 128.303 17.4265 128.283 17.3936C128.261 17.359 128.243 17.3226 128.228 17.2846C128.212 17.2451 128.2 17.2038 128.194 17.1616C128.187 17.1175 128.187 17.0727 128.194 17.0286C128.201 16.9805 128.213 16.9332 128.23 16.8876C128.246 16.8383 128.268 16.7908 128.294 16.7456C128.346 16.6522 128.403 16.5621 128.466 16.4756C128.539 16.3775 128.618 16.2837 128.702 16.1946C129.383 15.4666 130.076 14.7486 130.76 14.0236L132.607 12.0666L132.695 12.3826L132.919 12.9376L132.934 12.9716C133.423 13.8506 133.881 14.7476 134.399 15.6076C135.115 16.7976 135.899 17.9456 136.66 19.0996C137.112 19.729 137.599 20.3323 138.12 20.9066C138.405 21.2013 138.708 21.4791 139.026 21.7386C139.185 21.863 139.352 21.9767 139.526 22.0786C139.608 22.1286 139.693 22.173 139.781 22.2116C139.863 22.2492 139.948 22.2826 140.034 22.3116C140.117 22.3396 140.203 22.3626 140.289 22.3806C140.367 22.3979 140.446 22.4106 140.526 22.4186C140.598 22.4235 140.671 22.4235 140.744 22.4186C140.811 22.4172 140.878 22.4108 140.944 22.3996C141.006 22.39 141.067 22.3759 141.127 22.3576C141.183 22.3412 141.239 22.3208 141.293 22.2966C141.344 22.2747 141.393 22.2496 141.441 22.2216C141.487 22.1961 141.532 22.1674 141.574 22.1356C141.651 22.0761 141.725 22.0123 141.796 21.9446C141.855 21.8852 141.909 21.8213 141.959 21.7536C142.022 21.667 142.08 21.5769 142.133 21.4836C142.197 21.3706 142.258 21.2536 142.311 21.1336C142.371 21.0004 142.424 20.8638 142.47 20.7246C142.562 20.4336 142.65 20.1406 142.72 19.8416C142.826 19.4409 142.906 19.0337 142.96 18.6226L143.199 16.2336C143.745 16.4976 144.299 16.7336 144.837 17.0256C145.375 17.3176 145.857 17.6346 146.363 17.9456C146.422 17.9829 146.478 18.0246 146.531 18.0706C146.606 18.1354 146.678 18.2042 146.747 18.2766C146.784 18.315 146.817 18.3569 146.847 18.4016C146.875 18.445 146.899 18.4908 146.919 18.5386C146.936 18.5866 146.949 18.6362 146.958 18.6866C146.961 18.7119 146.961 18.7374 146.958 18.7626C146.959 18.7889 146.956 18.8151 146.95 18.8406L146.953 18.8436ZM143.534 27.9056C143.767 28.0586 144.001 28.2056 144.234 28.3666C144.534 28.5666 144.828 28.7666 145.115 28.9866C145.322 29.1416 145.515 29.3096 145.715 29.4806C145.801 29.5579 145.883 29.64 145.961 29.7266C146.024 29.7976 146.079 29.8756 146.135 29.9536C146.137 29.9595 146.137 29.9658 146.135 29.9716C146.135 29.9852 146.133 29.9986 146.129 30.0116C146.126 30.0202 146.121 30.0278 146.114 30.0336C146.106 30.0414 146.097 30.0478 146.087 30.0526C146.073 30.0589 146.059 30.0633 146.044 30.0656C146.023 30.0701 146.003 30.0731 145.982 30.0746C144.847 30.1626 143.71 30.2436 142.576 30.3366L138.141 30.6986L138.003 30.7076L138.067 30.6366L138.347 30.3796C138.923 29.9356 139.478 29.4656 140.071 29.0476L142.581 27.2846L143.533 27.9116L143.534 27.9056ZM133.985 12.1596L133.995 12.1436L134.01 12.1356H134.031L134.063 12.1406L134.157 12.1686L134.401 12.2686L134.732 12.4216C135.587 12.8016 136.442 13.1809 137.298 13.5596C137.864 13.8103 138.431 14.0606 138.998 14.3106L140.118 14.8106L140.218 14.8566C140.278 15.7756 140.352 16.6936 140.399 17.6146C140.436 18.3336 140.451 19.0526 140.468 19.7726C140.468 19.8636 140.463 19.9536 140.457 20.0446C140.457 20.0956 140.449 20.1446 140.442 20.1976C140.435 20.2482 140.424 20.2983 140.411 20.3476C140.398 20.396 140.38 20.4429 140.358 20.4876C140.334 20.5307 140.307 20.5713 140.275 20.6086C140.258 20.6276 140.24 20.6447 140.22 20.6596C140.2 20.6759 140.178 20.6906 140.156 20.7036C140.132 20.7168 140.107 20.7281 140.081 20.7376C140.052 20.7482 140.023 20.7566 139.994 20.7626C139.92 20.776 139.844 20.7784 139.77 20.7696C139.729 20.7642 139.689 20.7562 139.65 20.7456C139.608 20.7357 139.566 20.7226 139.526 20.7066C139.438 20.6693 139.353 20.6269 139.27 20.5796C139.176 20.5236 139.086 20.4622 139 20.3956C138.9 20.3216 138.812 20.2436 138.722 20.1616C138.632 20.0796 138.529 19.9816 138.441 19.8836C138.247 19.6686 138.055 19.4496 137.875 19.2206C137.55 18.8086 137.213 18.4036 136.928 17.9616C136.534 17.3526 136.128 16.7496 135.748 16.1326C135.511 15.7686 135.293 15.3924 135.095 15.0056L134.231 13.2286L134.045 12.6626L134.003 12.4946L133.977 12.3316V12.2146L133.985 12.1596ZM135.673 8.67265C136.415 7.87265 137.158 7.07265 137.912 6.29065C138.049 6.14765 138.202 6.01864 138.349 5.89064C138.4 5.84364 138.454 5.80065 138.509 5.75665C138.564 5.71265 138.592 5.68964 138.637 5.65664C138.669 5.63616 138.702 5.61844 138.737 5.60365C138.773 5.58658 138.811 5.57382 138.85 5.56564C138.892 5.56088 138.934 5.56088 138.976 5.56564C138.997 5.56703 139.019 5.57176 139.039 5.57965C139.061 5.58689 139.082 5.59661 139.102 5.60864C139.123 5.62122 139.143 5.6356 139.162 5.65164C139.184 5.6701 139.204 5.69052 139.223 5.71264C139.244 5.73752 139.263 5.76392 139.281 5.79164C139.302 5.82306 139.32 5.85657 139.335 5.89164C139.372 5.98968 139.403 6.08986 139.428 6.19165C139.463 6.33665 139.489 6.48365 139.511 6.63165C139.565 6.99265 139.611 7.35465 139.653 7.71765C139.704 8.18765 139.741 8.65964 139.783 9.13064L140.008 11.6386L137.316 10.9956L134.805 10.5666L134.197 10.5186L133.997 10.5136C134.554 9.90164 135.107 9.28564 135.669 8.67964L135.673 8.67265ZM151.997 17.9596C151.991 17.8907 151.981 17.8222 151.966 17.7546C151.934 17.6189 151.894 17.4854 151.846 17.3546C151.79 17.2173 151.726 17.0837 151.653 16.9546C151.572 16.8119 151.484 16.6734 151.39 16.5396C151.335 16.4613 151.274 16.3871 151.208 16.3176C151.136 16.2384 151.059 16.1639 150.978 16.0946C150.796 15.9372 150.605 15.7913 150.406 15.6576C149.972 15.3632 149.519 15.0989 149.05 14.8666C148.477 14.6046 147.923 14.2956 147.332 14.0816L143.35 12.6456C143.35 11.8596 143.372 11.0736 143.35 10.2876C143.317 9.12164 143.272 7.95564 143.184 6.78764C143.122 5.97764 143.03 5.17132 142.908 4.36865C142.808 3.74265 142.669 3.12564 142.536 2.50764C142.502 2.36692 142.462 2.22806 142.414 2.09164C142.373 1.96864 142.329 1.84564 142.281 1.72464C142.233 1.60364 142.189 1.50865 142.138 1.40265C142.087 1.29665 142.038 1.21464 141.985 1.12564C141.932 1.03664 141.885 0.96465 141.826 0.88765C141.767 0.81065 141.721 0.750653 141.664 0.687653C141.612 0.628904 141.557 0.572833 141.5 0.519654C141.448 0.471654 141.393 0.426645 141.337 0.382645C141.285 0.343635 141.231 0.307262 141.175 0.273651C141.124 0.242232 141.071 0.214173 141.016 0.189652C140.92 0.147473 140.822 0.111065 140.722 0.0806427C140.639 0.0580373 140.554 0.041326 140.469 0.0306397C140.405 0.0213454 140.341 0.0160106 140.277 0.0146484C140.168 0.0146484 140.057 0.0146484 139.949 0.0146484C139.833 0.022959 139.717 0.0386545 139.603 0.0616455C139.348 0.11269 139.101 0.1992 138.87 0.31865C138.736 0.388472 138.606 0.46524 138.481 0.548645C138.347 0.635645 138.215 0.727653 138.088 0.825653C137.862 0.993325 137.645 1.17324 137.439 1.36464C136.348 2.4313 135.286 3.52364 134.252 4.64164C132.175 7.24964 130.103 9.86065 128.145 12.5666C128.099 12.6296 128.056 12.6946 128.015 12.7606L127.185 14.0986C126.869 14.6526 126.585 15.2236 126.307 15.7986C126.255 15.9126 126.209 16.0295 126.17 16.1486C126.13 16.2616 126.094 16.3766 126.065 16.4926C126.037 16.6021 126.016 16.7134 126.003 16.8256C125.992 16.9293 125.99 17.0336 125.997 17.1376C126.002 17.1899 126.014 17.2413 126.032 17.2906C126.05 17.3438 126.073 17.3953 126.1 17.4446C126.13 17.4978 126.163 17.5489 126.2 17.5976C126.238 17.6508 126.28 17.7015 126.325 17.7496C126.425 17.8496 126.525 17.9496 126.631 18.0396C126.74 18.1343 126.854 18.2228 126.973 18.3046C127.18 18.4456 127.395 18.5776 127.608 18.7046C127.701 18.7606 127.8 18.8096 127.894 18.8606C127.928 18.8776 127.827 18.8236 127.794 18.8046L127.783 18.7976C127.789 18.7998 127.794 18.8028 127.799 18.8066L127.957 18.8916C129.268 19.6026 130.584 20.3036 131.889 21.0256C133.194 21.7476 134.513 22.4796 135.809 23.2356L138.723 24.9356C137.711 25.7356 136.679 26.4986 135.689 27.3186C135.312 27.6373 134.954 27.9764 134.615 28.3346C134.336 28.6246 134.073 28.9291 133.826 29.2466C133.628 29.5026 133.446 29.7697 133.279 30.0466C133.147 30.2628 133.03 30.4873 132.927 30.7186C132.848 30.8943 132.781 31.0751 132.727 31.2596C132.688 31.3908 132.658 31.5244 132.638 31.6596C132.627 31.7409 132.62 31.8226 132.618 31.9046C132.618 31.9326 132.618 31.9606 132.618 31.9886C132.618 32.0636 132.618 32.1366 132.618 32.2096C132.622 32.2783 132.629 32.3467 132.64 32.4146C132.649 32.48 132.663 32.5448 132.68 32.6086C132.696 32.6686 132.716 32.7296 132.738 32.7886C132.76 32.8476 132.785 32.9006 132.811 32.9556C132.836 33.0091 132.866 33.0606 132.9 33.1096C132.965 33.2061 133.036 33.2977 133.115 33.3836C133.195 33.4671 133.282 33.544 133.375 33.6136C133.468 33.6832 133.565 33.7467 133.667 33.8036C133.769 33.8602 133.874 33.9113 133.982 33.9566C134.087 34.0071 134.197 34.0476 134.31 34.0776C134.834 34.2046 135.366 34.2982 135.902 34.3576C136.689 34.2976 137.477 34.2196 138.257 34.0926C139.733 33.8516 141.188 33.4636 142.648 33.1636C143.581 32.8376 144.584 32.6756 145.505 32.2846C146.005 32.0726 146.513 31.8696 147.011 31.6476C147.122 31.5955 147.23 31.536 147.333 31.4696C147.428 31.4116 147.521 31.3496 147.611 31.2836C147.691 31.2261 147.766 31.1629 147.837 31.0946C147.897 31.0361 147.951 30.9722 147.999 30.9036C148.079 30.7912 148.134 30.6635 148.163 30.5286C148.175 30.4698 148.181 30.4098 148.181 30.3496C148.18 30.2916 148.174 30.2337 148.164 30.1766C148.141 30.0644 148.101 29.9564 148.045 29.8566C148.017 29.8067 147.987 29.7583 147.954 29.7116C147.923 29.6648 147.89 29.6198 147.854 29.5766C147.781 29.4976 147.707 29.4176 147.628 29.3456C147.559 29.2837 147.487 29.2256 147.412 29.1716C147.339 29.1176 147.263 29.0716 147.188 29.0206C146.669 28.6956 146.153 28.3646 145.63 28.0446L143.448 26.6846C144.776 25.7496 146.117 24.8316 147.433 23.8766C147.995 23.4686 148.549 23.0476 149.082 22.5996C149.539 22.2166 149.974 21.8046 150.4 21.3856C150.6 21.1856 150.784 20.9656 150.968 20.7476C151.051 20.6475 151.129 20.543 151.202 20.4346C151.272 20.3392 151.334 20.239 151.39 20.1346C151.561 19.7816 151.73 19.4276 151.873 19.0606C151.923 18.9082 151.961 18.7521 151.987 18.5936C152 18.5202 152.009 18.4461 152.013 18.3716C152.018 18.3006 152.021 18.2276 152.02 18.1566C152.019 18.0856 152.012 18.0166 152.005 17.9476" fill="white"/>
</g>
<defs>
<clipPath id="clip0">
<rect width="153" height="35" fill="white"/>
</clipPath>
</defs>
</svg>
