<svg width="153" height="35" viewBox="0 0 153 35" fill="none" xmlns="http://www.w3.org/2000/svg">
<g clip-path="url(#clip0)">
<path d="M19.2598 6.62502C19.3487 6.61253 19.4393 6.62087 19.5245 6.64937C19.6097 6.67787 19.687 6.72576 19.7505 6.78926C19.814 6.85276 19.8619 6.93014 19.8904 7.01531C19.9189 7.10047 19.9273 7.19108 19.9148 7.28002V9.60602C19.9282 9.69948 19.9196 9.79477 19.8897 9.88434C19.8599 9.97391 19.8096 10.0553 19.7428 10.1221C19.6761 10.1888 19.5947 10.2391 19.5051 10.269C19.4155 10.2988 19.3202 10.3074 19.2268 10.294H12.3808V28.894C12.3935 28.983 12.3853 29.0737 12.3569 29.159C12.3284 29.2442 12.2806 29.3217 12.217 29.3852C12.1535 29.4488 12.076 29.4967 11.9907 29.5251C11.9055 29.5535 11.8147 29.5617 11.7258 29.549H8.51577C8.4268 29.5617 8.33611 29.5535 8.25085 29.5251C8.16559 29.4967 8.08811 29.4488 8.02456 29.3852C7.96101 29.3217 7.91313 29.2442 7.8847 29.159C7.85627 29.0737 7.84808 28.983 7.86077 28.894V10.294H0.68777C0.594308 10.3074 0.499023 10.2988 0.40945 10.269C0.319877 10.2391 0.238479 10.1888 0.171718 10.1221C0.104957 10.0553 0.0546824 9.97391 0.024837 9.88434C-0.00500842 9.79477 -0.0135931 9.69948 -0.000217945 9.60602V7.28002C-0.000217945 6.84335 0.229104 6.62502 0.68777 6.62502H19.2598Z" fill="#001E26"/>
<path d="M41.0098 28.898C41.0225 28.9869 41.0143 29.0776 40.9859 29.1629C40.9574 29.2481 40.9095 29.3256 40.846 29.3892C40.7824 29.4527 40.705 29.5006 40.6197 29.529C40.5344 29.5575 40.4438 29.5657 40.3548 29.553H37.1448C37.0558 29.5657 36.9652 29.5575 36.8799 29.5291C36.7947 29.5007 36.7173 29.4527 36.6538 29.3892C36.5903 29.3256 36.5425 29.2481 36.5142 29.1628C36.4859 29.0776 36.4779 28.9869 36.4908 28.898V20.4469H27.6098V28.898C27.6225 28.9869 27.6143 29.0776 27.5859 29.1629C27.5574 29.2481 27.5095 29.3256 27.446 29.3892C27.3824 29.4527 27.305 29.5006 27.2197 29.529C27.1345 29.5575 27.0437 29.5657 26.9548 29.553H23.7458C23.6568 29.5657 23.5661 29.5575 23.4808 29.529C23.3956 29.5006 23.3181 29.4527 23.2545 29.3892C23.191 29.3256 23.1431 29.2481 23.1147 29.1629C23.0862 29.0776 23.0781 28.9869 23.0908 28.898V7.27995C23.0781 7.19098 23.0862 7.10027 23.1147 7.01501C23.1431 6.92975 23.191 6.85227 23.2545 6.78872C23.3181 6.72517 23.3956 6.67729 23.4808 6.64886C23.5661 6.62043 23.6568 6.61225 23.7458 6.62495H26.9548C27.0437 6.61225 27.1345 6.62043 27.2197 6.64886C27.305 6.67729 27.3824 6.72517 27.446 6.78872C27.5095 6.85227 27.5574 6.92975 27.5859 7.01501C27.6143 7.10027 27.6225 7.19098 27.6098 7.27995V16.746H36.4868V7.27995C36.4741 7.19107 36.4823 7.10046 36.5107 7.01529C36.539 6.93011 36.5868 6.85271 36.6503 6.78918C36.7137 6.72565 36.791 6.67775 36.8761 6.64924C36.9613 6.62074 37.0519 6.61242 37.1408 6.62495H40.3508C40.4397 6.61247 40.5303 6.6208 40.6155 6.6493C40.7007 6.67781 40.778 6.72569 40.8415 6.7892C40.905 6.8527 40.9529 6.93008 40.9814 7.01524C41.0099 7.1004 41.0183 7.19102 41.0058 7.27995L41.0098 28.898Z" fill="#001E26"/>
<path d="M65.38 28.833C65.3719 28.9832 65.317 29.1271 65.223 29.2445C65.1291 29.362 65.0007 29.4471 64.856 29.488C64.6223 29.5676 64.381 29.6226 64.136 29.652C63.7666 29.6994 63.3944 29.7211 63.022 29.717C62.0301 29.7627 61.0447 29.5366 60.172 29.063C59.4774 28.6497 58.8755 28.0975 58.404 27.441C57.9409 26.7882 57.5559 26.0834 57.257 25.341C56.9503 24.5877 56.6283 23.8877 56.291 23.241C55.9796 22.633 55.5639 22.0844 55.063 21.62C54.5257 21.1632 53.8343 20.9289 53.13 20.965H50.706V28.892C50.7187 28.981 50.7105 29.0717 50.6821 29.157C50.6537 29.2422 50.6058 29.3197 50.5422 29.3832C50.4787 29.4468 50.4012 29.4946 50.3159 29.5231C50.2307 29.5515 50.14 29.5597 50.051 29.547H46.841C46.752 29.5597 46.6613 29.5515 46.576 29.5231C46.4908 29.4946 46.4133 29.4468 46.3497 29.3832C46.2862 29.3197 46.2383 29.2422 46.2099 29.157C46.1815 29.0717 46.1733 28.981 46.186 28.892V7.313C46.186 6.855 46.4043 6.62567 46.841 6.625H54.241C57.079 6.625 59.23 7.18199 60.694 8.29599C62.158 9.40999 62.8897 11.2553 62.889 13.832C62.9037 14.5966 62.7759 15.3572 62.512 16.075C62.282 16.6822 61.9617 17.2513 61.562 17.763C61.2001 18.2248 60.769 18.6279 60.284 18.958C59.8628 19.2485 59.406 19.4837 58.925 19.658C59.5233 20.1491 60.0092 20.763 60.35 21.458C60.7107 22.1787 61.0657 22.8787 61.415 23.558C61.7332 24.1894 62.137 24.7739 62.615 25.295C62.8447 25.5365 63.1219 25.728 63.429 25.8576C63.7361 25.9871 64.0667 26.052 64.4 26.048H64.892C65.2186 26.048 65.3823 26.2443 65.383 26.637L65.38 28.833ZM53.72 17.565C54.9174 17.615 56.1011 17.2948 57.11 16.648C57.5427 16.3518 57.892 15.9492 58.1243 15.479C58.3565 15.0087 58.4638 14.4867 58.436 13.963C58.4629 13.4554 58.3736 12.9484 58.175 12.4806C57.9764 12.0127 57.6738 11.5963 57.29 11.263C56.3693 10.5688 55.2309 10.2263 54.08 10.297H50.706V17.568L53.72 17.565Z" fill="#001E26"/>
<path d="M73.0419 28.8979C73.0544 28.987 73.0461 29.0777 73.0175 29.1629C72.989 29.2482 72.941 29.3256 72.8773 29.3891C72.8137 29.4527 72.7362 29.5005 72.6509 29.5289C72.5656 29.5574 72.4749 29.5656 72.3859 29.5529H69.1759C69.087 29.5655 68.9964 29.5571 68.9113 29.5286C68.8262 29.5001 68.7488 29.4522 68.6854 29.3887C68.622 29.3252 68.5741 29.2477 68.5458 29.1626C68.5174 29.0774 68.5092 28.9868 68.5219 28.8979V7.27992C68.5092 7.19104 68.5174 7.10043 68.5458 7.01525C68.5741 6.93008 68.622 6.85268 68.6854 6.78915C68.7488 6.72562 68.8262 6.67771 68.9113 6.64921C68.9964 6.62071 69.087 6.61239 69.1759 6.62492H72.3859C72.4749 6.61226 72.5656 6.62046 72.6509 6.64889C72.7362 6.67731 72.8137 6.72518 72.8773 6.78871C72.941 6.85223 72.989 6.92967 73.0175 7.01492C73.0461 7.10017 73.0544 7.19089 73.0419 7.27992V28.8979Z" fill="#001E26"/>
<path d="M92.4317 7.34595C92.4875 7.16811 92.5644 6.99757 92.6607 6.83796C92.7163 6.76184 92.7912 6.70196 92.8777 6.66451C92.9642 6.62706 93.0592 6.61341 93.1527 6.62496H96.7247C96.8238 6.61557 96.9235 6.63354 97.0131 6.67691C97.1027 6.72029 97.1787 6.78741 97.2327 6.87096C97.2814 6.9515 97.3111 7.04207 97.3196 7.13581C97.3281 7.22954 97.3151 7.32398 97.2817 7.41196L89.5197 28.178C89.4044 28.5935 89.184 28.9723 88.8797 29.2779C88.5776 29.485 88.214 29.5831 87.8487 29.556H85.5887C85.2458 29.5834 84.9039 29.4908 84.6217 29.294C84.3269 28.9759 84.1084 28.595 83.9827 28.18L76.3507 7.41396C76.3068 7.32708 76.2854 7.23058 76.2884 7.13329C76.2913 7.036 76.3186 6.941 76.3677 6.85695C76.4245 6.77736 76.5013 6.71417 76.5903 6.67379C76.6793 6.6334 76.7774 6.61724 76.8747 6.62696H80.7077C80.806 6.61349 80.9062 6.62606 80.9982 6.66344C81.0901 6.70082 81.1707 6.76169 81.2317 6.83995C81.3217 6.98744 81.3891 7.14755 81.4317 7.31496L86.8037 24.415L92.4317 7.34595Z" fill="#001E26"/>
<path d="M101.178 29.5539C101.089 29.5666 100.998 29.5585 100.913 29.53C100.828 29.5016 100.75 29.4537 100.687 29.3902C100.623 29.3266 100.575 29.2492 100.547 29.1639C100.518 29.0786 100.51 28.9879 100.523 28.8989V7.27995C100.51 7.19098 100.518 7.10027 100.547 7.01501C100.575 6.92975 100.623 6.85227 100.687 6.78872C100.75 6.72517 100.828 6.67729 100.913 6.64886C100.998 6.62043 101.089 6.61225 101.178 6.62495H114.345C114.434 6.61229 114.525 6.6205 114.61 6.64892C114.695 6.67735 114.773 6.72522 114.836 6.78874C114.9 6.85226 114.948 6.9297 114.977 7.01495C115.005 7.1002 115.013 7.19092 115.001 7.27995V9.60595C115.014 9.69947 115.005 9.79477 114.975 9.88433C114.945 9.9739 114.895 10.0553 114.828 10.122C114.761 10.1887 114.68 10.239 114.59 10.2688C114.501 10.2987 114.405 10.3073 114.312 10.2939H105.042V16.386H112.216C112.305 16.3734 112.395 16.3817 112.481 16.4102C112.566 16.4387 112.643 16.4867 112.706 16.5502C112.77 16.6137 112.818 16.6911 112.846 16.7763C112.874 16.8615 112.883 16.9521 112.87 17.041V19.334C112.87 19.771 112.642 19.9889 112.183 19.9889H105.042V25.8889H114.342C114.778 25.8889 114.998 26.1179 114.998 26.5769V28.9029C114.998 29.3403 114.768 29.5586 114.309 29.5579L101.178 29.5539Z" fill="#001E26"/>
<path d="M146.954 18.844C146.942 18.8866 146.926 18.9281 146.907 18.968C146.884 19.0137 146.856 19.0569 146.825 19.097C146.75 19.191 146.669 19.2801 146.583 19.364C146.402 19.5442 146.211 19.7132 146.01 19.87C145.31 20.389 144.61 20.92 143.895 21.426C143.404 21.775 142.895 22.102 142.395 22.436L139.481 24.379L138.243 23.643L132.967 20.512C131.775 19.773 130.576 19.046 129.392 18.294C129.169 18.152 128.959 17.988 128.746 17.83C128.678 17.78 128.615 17.723 128.546 17.67C128.526 17.654 128.503 17.639 128.484 17.621C128.44 17.578 128.394 17.535 128.352 17.488C128.327 17.4583 128.304 17.4269 128.284 17.394C128.262 17.3594 128.244 17.323 128.229 17.285C128.213 17.2455 128.201 17.2042 128.195 17.162C128.188 17.1179 128.188 17.0731 128.195 17.029C128.202 16.9809 128.214 16.9336 128.231 16.888C128.247 16.8387 128.269 16.7912 128.295 16.746C128.347 16.6526 128.404 16.5625 128.467 16.476C128.54 16.3779 128.619 16.2841 128.703 16.195C129.384 15.467 130.077 14.749 130.761 14.024L132.608 12.067L132.696 12.383L132.92 12.938L132.935 12.972C133.424 13.851 133.882 14.748 134.4 15.608C135.116 16.798 135.9 17.946 136.661 19.1C137.113 19.7294 137.6 20.3327 138.121 20.907C138.406 21.2017 138.709 21.4795 139.027 21.739C139.186 21.8634 139.353 21.9771 139.527 22.079C139.609 22.129 139.694 22.1734 139.782 22.212C139.864 22.2496 139.949 22.283 140.035 22.312C140.118 22.34 140.204 22.363 140.29 22.381C140.368 22.3983 140.447 22.411 140.527 22.419C140.599 22.4239 140.672 22.4239 140.745 22.419C140.812 22.4176 140.879 22.4112 140.945 22.4C141.007 22.3904 141.068 22.3763 141.128 22.358C141.184 22.3416 141.24 22.3212 141.294 22.297C141.345 22.2751 141.394 22.25 141.442 22.222C141.488 22.1965 141.533 22.1678 141.575 22.136C141.652 22.0765 141.726 22.0127 141.797 21.945C141.856 21.8856 141.91 21.8217 141.96 21.754C142.023 21.6674 142.081 21.5773 142.134 21.484C142.198 21.371 142.259 21.254 142.312 21.134C142.372 21.0008 142.425 20.8642 142.471 20.725C142.563 20.434 142.651 20.141 142.721 19.842C142.827 19.4413 142.907 19.0341 142.961 18.623L143.2 16.234C143.746 16.498 144.3 16.734 144.838 17.026C145.376 17.318 145.858 17.635 146.364 17.946C146.423 17.9833 146.479 18.025 146.532 18.071C146.607 18.1358 146.679 18.2046 146.748 18.277C146.785 18.3154 146.818 18.3573 146.848 18.402C146.876 18.4454 146.9 18.4912 146.92 18.539C146.937 18.587 146.95 18.6366 146.959 18.687C146.962 18.7123 146.962 18.7378 146.959 18.763C146.96 18.7893 146.957 18.8155 146.951 18.841L146.954 18.844ZM143.535 27.906C143.768 28.059 144.002 28.206 144.235 28.367C144.535 28.567 144.829 28.767 145.116 28.987C145.323 29.142 145.516 29.31 145.716 29.481C145.802 29.5583 145.884 29.6404 145.962 29.727C146.025 29.798 146.08 29.876 146.136 29.954C146.138 29.9599 146.138 29.9662 146.136 29.972C146.136 29.9856 146.134 29.999 146.13 30.012C146.127 30.0206 146.122 30.0282 146.115 30.034C146.107 30.0418 146.098 30.0482 146.088 30.053C146.074 30.0593 146.06 30.0637 146.045 30.066C146.024 30.0705 146.004 30.0735 145.983 30.075C144.848 30.163 143.711 30.244 142.577 30.337L138.142 30.699L138.004 30.708L138.068 30.637L138.348 30.38C138.924 29.936 139.479 29.466 140.072 29.048L142.582 27.285L143.534 27.912L143.535 27.906ZM133.986 12.16L133.996 12.144L134.011 12.136H134.032L134.064 12.141L134.158 12.169L134.402 12.269L134.733 12.422C135.588 12.802 136.443 13.1813 137.299 13.56C137.865 13.8107 138.432 14.061 138.999 14.311L140.119 14.811L140.219 14.857C140.279 15.776 140.353 16.694 140.4 17.615C140.437 18.334 140.452 19.053 140.469 19.773C140.469 19.864 140.464 19.954 140.458 20.045C140.458 20.096 140.45 20.145 140.443 20.198C140.436 20.2486 140.425 20.2987 140.412 20.348C140.399 20.3964 140.381 20.4433 140.359 20.488C140.335 20.5311 140.308 20.5717 140.276 20.609C140.259 20.628 140.241 20.6451 140.221 20.66C140.201 20.6763 140.179 20.691 140.157 20.704C140.133 20.7172 140.108 20.7285 140.082 20.738C140.053 20.7486 140.024 20.757 139.995 20.763C139.921 20.7764 139.845 20.7788 139.771 20.77C139.73 20.7646 139.69 20.7566 139.651 20.746C139.609 20.7361 139.567 20.723 139.527 20.707C139.439 20.6697 139.354 20.6273 139.271 20.58C139.177 20.524 139.087 20.4626 139.001 20.396C138.901 20.322 138.813 20.244 138.723 20.162C138.633 20.08 138.53 19.982 138.442 19.884C138.248 19.669 138.056 19.45 137.876 19.221C137.551 18.809 137.214 18.404 136.929 17.962C136.535 17.353 136.129 16.75 135.749 16.133C135.512 15.769 135.294 15.3928 135.096 15.006L134.232 13.229L134.046 12.663L134.004 12.495L133.978 12.332V12.215L133.986 12.16ZM135.674 8.67302C136.416 7.87302 137.159 7.07302 137.913 6.29102C138.05 6.14802 138.203 6.01901 138.35 5.89101C138.401 5.84401 138.455 5.80102 138.51 5.75702C138.565 5.71302 138.593 5.69001 138.638 5.65701C138.67 5.63653 138.703 5.61881 138.738 5.60402C138.774 5.58695 138.812 5.57419 138.851 5.56601C138.893 5.56125 138.935 5.56125 138.977 5.56601C138.998 5.5674 139.02 5.57213 139.04 5.58002C139.062 5.58726 139.083 5.59698 139.103 5.60901C139.124 5.62159 139.144 5.63597 139.163 5.65201C139.185 5.67047 139.205 5.69089 139.224 5.71301C139.245 5.73789 139.264 5.76429 139.282 5.79201C139.303 5.82343 139.321 5.85694 139.336 5.89201C139.373 5.99005 139.404 6.09023 139.429 6.19202C139.464 6.33702 139.49 6.48402 139.512 6.63202C139.566 6.99302 139.612 7.35502 139.654 7.71802C139.705 8.18802 139.742 8.66001 139.784 9.13101L140.009 11.639L137.317 10.996L134.806 10.567L134.198 10.519L133.998 10.514C134.555 9.90201 135.108 9.28601 135.67 8.68001L135.674 8.67302ZM151.998 17.96C151.992 17.8911 151.982 17.8226 151.967 17.755C151.935 17.6193 151.895 17.4858 151.847 17.355C151.791 17.2177 151.727 17.0841 151.654 16.955C151.573 16.8123 151.485 16.6738 151.391 16.54C151.336 16.4617 151.275 16.3875 151.209 16.318C151.137 16.2388 151.06 16.1643 150.979 16.095C150.797 15.9376 150.606 15.7917 150.407 15.658C149.973 15.3636 149.52 15.0993 149.051 14.867C148.478 14.605 147.924 14.296 147.333 14.082L143.351 12.646C143.351 11.86 143.373 11.074 143.351 10.288C143.318 9.12201 143.273 7.95601 143.185 6.78801C143.123 5.97801 143.031 5.17169 142.909 4.36902C142.809 3.74302 142.67 3.12601 142.537 2.50801C142.503 2.36729 142.463 2.22843 142.415 2.09201C142.374 1.96901 142.33 1.84601 142.282 1.72501C142.234 1.60401 142.19 1.50902 142.139 1.40302C142.088 1.29702 142.039 1.21501 141.986 1.12601C141.933 1.03701 141.886 0.965016 141.827 0.888016C141.768 0.811016 141.722 0.751019 141.665 0.688019C141.613 0.62927 141.558 0.573199 141.501 0.52002C141.449 0.47202 141.394 0.427011 141.338 0.383011C141.286 0.344001 141.232 0.307628 141.176 0.274017C141.125 0.242598 141.072 0.214539 141.017 0.190018C140.921 0.147839 140.823 0.111431 140.723 0.0810089C140.64 0.0584035 140.555 0.0416922 140.47 0.0310059C140.406 0.0217116 140.342 0.0163768 140.278 0.0150146C140.169 0.0150146 140.058 0.0150146 139.95 0.0150146C139.834 0.0233252 139.718 0.0390207 139.604 0.0620117C139.349 0.113056 139.102 0.199566 138.871 0.319016C138.737 0.388838 138.607 0.465606 138.482 0.549011C138.348 0.636011 138.216 0.728019 138.089 0.826019C137.863 0.993691 137.646 1.17361 137.44 1.36501C136.349 2.43167 135.287 3.52401 134.253 4.64201C132.176 7.25001 130.104 9.86102 128.146 12.567C128.1 12.63 128.057 12.695 128.016 12.761L127.186 14.099C126.87 14.653 126.586 15.224 126.308 15.799C126.256 15.913 126.21 16.0299 126.171 16.149C126.131 16.262 126.095 16.377 126.066 16.493C126.038 16.6025 126.017 16.7138 126.004 16.826C125.993 16.9297 125.991 17.034 125.998 17.138C126.003 17.1903 126.015 17.2417 126.033 17.291C126.051 17.3442 126.074 17.3957 126.101 17.445C126.131 17.4982 126.164 17.5493 126.201 17.598C126.239 17.6512 126.281 17.7019 126.326 17.75C126.426 17.85 126.526 17.95 126.632 18.04C126.741 18.1347 126.855 18.2232 126.974 18.305C127.181 18.446 127.396 18.578 127.609 18.705C127.702 18.761 127.801 18.81 127.895 18.861C127.929 18.878 127.828 18.824 127.795 18.805L127.784 18.798C127.79 18.8002 127.795 18.8032 127.8 18.807L127.958 18.892C129.269 19.603 130.585 20.304 131.89 21.026C133.195 21.748 134.514 22.48 135.81 23.236L138.724 24.936C137.712 25.736 136.68 26.499 135.69 27.319C135.313 27.6377 134.955 27.9768 134.616 28.335C134.337 28.625 134.074 28.9295 133.827 29.247C133.629 29.503 133.447 29.7701 133.28 30.047C133.148 30.2632 133.031 30.4877 132.928 30.719C132.849 30.8947 132.782 31.0755 132.728 31.26C132.689 31.3912 132.659 31.5248 132.639 31.66C132.628 31.7413 132.621 31.823 132.619 31.905C132.619 31.933 132.619 31.961 132.619 31.989C132.619 32.064 132.619 32.137 132.619 32.21C132.623 32.2787 132.63 32.3471 132.641 32.415C132.65 32.4804 132.664 32.5452 132.681 32.609C132.697 32.669 132.717 32.73 132.739 32.789C132.761 32.848 132.786 32.901 132.812 32.956C132.837 33.0095 132.867 33.061 132.901 33.11C132.966 33.2065 133.037 33.2981 133.116 33.384C133.196 33.4675 133.283 33.5444 133.376 33.614C133.469 33.6836 133.566 33.7471 133.668 33.804C133.77 33.8606 133.875 33.9117 133.983 33.957C134.088 34.0075 134.198 34.048 134.311 34.078C134.835 34.205 135.367 34.2986 135.903 34.358C136.69 34.298 137.478 34.22 138.258 34.093C139.734 33.852 141.189 33.464 142.649 33.164C143.582 32.838 144.585 32.676 145.506 32.285C146.006 32.073 146.514 31.87 147.012 31.648C147.123 31.5959 147.231 31.5364 147.334 31.47C147.429 31.412 147.522 31.35 147.612 31.284C147.692 31.2265 147.767 31.1633 147.838 31.095C147.898 31.0365 147.952 30.9726 148 30.904C148.08 30.7916 148.135 30.6639 148.164 30.529C148.176 30.4702 148.182 30.4102 148.182 30.35C148.181 30.292 148.175 30.2341 148.165 30.177C148.142 30.0648 148.102 29.9568 148.046 29.857C148.018 29.8071 147.988 29.7587 147.955 29.712C147.924 29.6652 147.891 29.6202 147.855 29.577C147.782 29.498 147.708 29.418 147.629 29.346C147.56 29.2841 147.488 29.226 147.413 29.172C147.34 29.118 147.264 29.072 147.189 29.021C146.67 28.696 146.154 28.365 145.631 28.045L143.449 26.685C144.777 25.75 146.118 24.832 147.434 23.877C147.996 23.469 148.55 23.048 149.083 22.6C149.54 22.217 149.975 21.805 150.401 21.386C150.601 21.186 150.785 20.966 150.969 20.748C151.052 20.6479 151.13 20.5434 151.203 20.435C151.273 20.3396 151.335 20.2394 151.391 20.135C151.562 19.782 151.731 19.428 151.874 19.061C151.924 18.9086 151.962 18.7525 151.988 18.594C152.001 18.5206 152.01 18.4465 152.014 18.372C152.019 18.301 152.022 18.228 152.021 18.157C152.02 18.086 152.013 18.017 152.006 17.948" fill="#F0AB00"/>
</g>
</svg>