<svg xmlns="http://www.w3.org/2000/svg" xmlns:xlink="http://www.w3.org/1999/xlink" width="165.437" height="24" viewBox="0 0 165.437 24">
  <defs>
    <linearGradient id="linear-gradient" x1="0.272" y1="0.13" x2="0.699" y2="1.011" gradientUnits="objectBoundingBox">
      <stop offset="0" stop-color="#f4a121"/>
      <stop offset="0.552" stop-color="#f36f29"/>
      <stop offset="0.988" stop-color="#f24d23"/>
    </linearGradient>
    <linearGradient id="linear-gradient-2" x1="-1.586" y1="-3.408" x2="4.694" y2="8.358" xlink:href="#linear-gradient"/>
    <linearGradient id="linear-gradient-3" x1="-2.133" y1="-4.434" x2="4.146" y2="7.332" xlink:href="#linear-gradient"/>
    <linearGradient id="linear-gradient-4" x1="-2.681" y1="-5.46" x2="3.599" y2="6.306" xlink:href="#linear-gradient"/>
  </defs>
  <g id="Logo" transform="translate(-128 -24.193)">
    <g id="Group_3" data-name="Group 3" transform="translate(128 24.193)">
      <g id="Group_2" data-name="Group 2">
        <path id="Path_1" data-name="Path 1" d="M285.286,71.193a8.4,8.4,0,0,1-3.162-4.926,9.1,9.1,0,0,1,.192-4.329,11.938,11.938,0,0,0,.343-3.011,12.078,12.078,0,0,0-11.788-11.734,11.895,11.895,0,1,0,7.011,21.426L277,67.857a4.024,4.024,0,0,0-3.8-.813,8.319,8.319,0,1,1,5.886-7.927,12.259,12.259,0,0,1-.24,1.963c-.4,2.448-.334,4.056.622,5.763C281.086,69.736,285.286,71.193,285.286,71.193Z" transform="translate(-258.871 -47.193)" fill="url(#linear-gradient)"/>
        <g id="Group_1" data-name="Group 1" transform="translate(5.495 10.129)">
          <circle id="Ellipse_1" data-name="Ellipse 1" cx="1.254" cy="1.254" r="1.254" transform="translate(0 1.774) rotate(-45)" fill="url(#linear-gradient-2)"/>
          <path id="Path_2" data-name="Path 2" d="M403.8,191.2a1.255,1.255,0,1,1-1.024-1.024A1.256,1.256,0,0,1,403.8,191.2Z" transform="translate(-396.193 -189.635)" fill="url(#linear-gradient-3)"/>
          <path id="Path_3" data-name="Path 3" d="M465.489,191.2a1.255,1.255,0,1,1-1.024-1.024A1.256,1.256,0,0,1,465.489,191.2Z" transform="translate(-453.288 -189.635)" fill="url(#linear-gradient-4)"/>
        </g>
      </g>
    </g>
    <g id="Group_6" data-name="Group 6" transform="translate(163.046 28.193)">
      <g id="Group_4" data-name="Group 4" transform="translate(0 0.055)">
        <path id="Path_4" data-name="Path 4" d="M154.1,427.863h2.1a.271.271,0,0,1,.291.291v15.084a.271.271,0,0,1-.291.291h-2.1a.27.27,0,0,1-.291-.291V428.154A.27.27,0,0,1,154.1,427.863Z" transform="translate(-153.807 -427.639)"/>
        <path id="Path_5" data-name="Path 5" d="M180.17,428.154a.271.271,0,0,1,.291-.291h.336a.747.747,0,0,1,.47.2l8.571,9.2c.112.112.179.157.269.157s.156-.112.156-.336v-8.93a.271.271,0,0,1,.291-.291h2.1a.27.27,0,0,1,.291.291v15.084a.27.27,0,0,1-.291.291h-.314a.679.679,0,0,1-.492-.224l-11.481-12.354a.868.868,0,0,1-.2-.515Zm0,6.2c0-.179.09-.2.2-.067l2.283,2.461a.758.758,0,0,1,.2.493v6a.271.271,0,0,1-.291.291h-2.1a.271.271,0,0,1-.291-.291Z" transform="translate(-174.083 -427.639)"/>
        <path id="Path_6" data-name="Path 6" d="M246.664,456.457h7.408a.27.27,0,0,1,.291.291v1.858a.27.27,0,0,1-.291.291h-7.408a.27.27,0,0,1-.291-.291v-1.858A.27.27,0,0,1,246.664,456.457Z" transform="translate(-225.001 -449.631)"/>
        <path id="Path_7" data-name="Path 7" d="M288.353,442.514l7.072-15.419a.385.385,0,0,1,.336-.2.351.351,0,0,1,.313.2l7.072,15.419c.067.157,0,.268-.179.268h-2.193a.474.474,0,0,1-.425-.268l-.627-1.365a1,1,0,0,0-.9-.56h-6.155a1,1,0,0,0-.895.56l-.627,1.365a.468.468,0,0,1-.4.268h-2.216C288.353,442.783,288.286,442.671,288.353,442.514Zm5.483-4.431h3.849c.381,0,.515-.224.358-.582l-2.014-4.386q-.134-.269-.269-.269t-.269.269l-2.037,4.386C293.3,437.859,293.455,438.083,293.836,438.083Z" transform="translate(-257.269 -426.893)"/>
        <path id="Path_8" data-name="Path 8" d="M363.848,435.763a.271.271,0,0,1,.291-.291h4.879a2.54,2.54,0,1,0,0-5.08h-4.879a.27.27,0,0,1-.291-.291v-1.947a.271.271,0,0,1,.291-.291h4.879a4.979,4.979,0,0,1,5.3,5.081,4.908,4.908,0,0,1-4.655,5.035c-.268.022-.649.022-1.275.022H367.16a.6.6,0,0,0-.626.627v4.61a.271.271,0,0,1-.291.291h-2.1a.271.271,0,0,1-.291-.291Z" transform="translate(-315.353 -427.639)"/>
        <path id="Path_9" data-name="Path 9" d="M422,435.763a.271.271,0,0,1,.291-.291h4.879a2.54,2.54,0,1,0,0-5.08H422.3A.271.271,0,0,1,422,430.1v-1.947a.271.271,0,0,1,.291-.291h4.879a4.979,4.979,0,0,1,5.3,5.081,4.908,4.908,0,0,1-4.655,5.035c-.268.022-.649.022-1.275.022h-1.231a.6.6,0,0,0-.627.627v4.61a.27.27,0,0,1-.291.291h-2.1a.271.271,0,0,1-.291-.291Z" transform="translate(-360.082 -427.639)"/>
      </g>
      <g id="Group_5" data-name="Group 5" transform="translate(76.892 0)">
        <path id="Path_10" data-name="Path 10" d="M499.989,439.794a6.315,6.315,0,0,1-.9,1.1,5.891,5.891,0,0,1-1.223.911,6.684,6.684,0,0,1-1.535.623,6.955,6.955,0,0,1-1.835.229,7.74,7.74,0,0,1-3.069-.6A7.225,7.225,0,0,1,489,440.385a7.615,7.615,0,0,1-1.586-2.526,8.744,8.744,0,0,1-.57-3.205,8.61,8.61,0,0,1,.58-3.2,7.673,7.673,0,0,1,1.607-2.527,7.386,7.386,0,0,1,2.426-1.667,7.616,7.616,0,0,1,3.038-.6,7.322,7.322,0,0,1,3.048.666,6.132,6.132,0,0,1,1.245.761,4.38,4.38,0,0,1,.933,1l-1.244.946a3.835,3.835,0,0,0-.612-.731,4.164,4.164,0,0,0-.9-.645,5.567,5.567,0,0,0-1.13-.452,4.88,4.88,0,0,0-1.317-.172,5.9,5.9,0,0,0-2.561.536,5.773,5.773,0,0,0-1.918,1.446,6.375,6.375,0,0,0-1.2,2.112,7.684,7.684,0,0,0-.414,2.529,7.527,7.527,0,0,0,.425,2.53,6.5,6.5,0,0,0,1.213,2.111,5.776,5.776,0,0,0,1.918,1.447,5.855,5.855,0,0,0,2.54.536,5.577,5.577,0,0,0,2.405-.537,4.615,4.615,0,0,0,1.908-1.721Z" transform="translate(-486.842 -426.654)"/>
        <path id="Path_11" data-name="Path 11" d="M554.919,428.33h1.493v6.6h8v-6.6h1.493v15.226h-1.493v-7.2h-8v7.2h-1.493Z" transform="translate(-539.201 -427.943)"/>
        <path id="Path_12" data-name="Path 12" d="M613.5,443.556h-1.638l6.346-15.226h1.451l6.3,15.226H624.3l-1.618-4H615.1Zm2.157-5.42h6.47l-3.235-8.086Z" transform="translate(-582.996 -427.943)"/>
        <path id="Path_13" data-name="Path 13" d="M675.929,443.556h-1.493v-13.85h-4.914V428.33h11.322v1.377h-4.915Z" transform="translate(-627.344 -427.943)"/>
      </g>
    </g>
  </g>
</svg>
