<svg width="1584" height="1032" viewBox="0 0 1584 1032" fill="none" xmlns="http://www.w3.org/2000/svg">
<mask id="mask0_646_637" style="mask-type:alpha" maskUnits="userSpaceOnUse" x="0" y="0" width="1584" height="1032">
<rect width="1584" height="1032" fill="#C4C4C4"/>
</mask>
<g mask="url(#mask0_646_637)">
<path d="M2191.04 -1407.85C2158.66 -1385.81 2119.7 -1360.98 2075.66 -1333.81C2030.35 -1305.86 1979.66 -1275.42 1925.3 -1242.93C1897.92 -1226.56 1872.04 -1211.08 1848.94 -1197.1C1737.64 -1130.48 1600.25 -1045.69 1522.86 -979.694L1522.51 -979.394C1442.14 -912.055 1447 -884.823 1447.04 -884.531L1447.34 -883.065C1449.83 -870.005 1482.52 -846.429 1504.15 -830.844C1507.51 -828.424 1510.85 -826.012 1514.15 -823.603C1552.14 -795.982 1615.64 -749.799 1608.98 -673.032C1604.42 -610.61 1552.22 -544.28 1444.76 -464.328C1341.3 -386.399 1180.28 -292.206 1036.39 -210.304C1017.08 -199.214 996.415 -187.411 974.987 -175.166C942.238 -156.448 906.762 -136.155 870.692 -115.33C825.113 -89.0146 -280.735 549.794 -323.738 575.76C-357.94 553.981 -390.815 530.186 -422.191 504.501C-383.209 480.321 719.078 -156.832 762.931 -182.477C815.522 -213.187 869.386 -243.971 919.357 -272.539C940.709 -284.737 961.331 -296.519 980.732 -307.655C1113.54 -383.26 1278.45 -479.451 1377.44 -554.049L1377.73 -554.248C1488.79 -636.873 1496.68 -674.53 1497.11 -681.255L1497.23 -682.587C1498.49 -696.328 1463.21 -721.975 1448.16 -732.945C1444.96 -735.266 1441.76 -737.588 1438.53 -739.892C1438.36 -740.018 1438.2 -740.146 1438.03 -740.268C1414.96 -693.453 1366.34 -643.188 1289.41 -585.963C1185.95 -508.034 1024.92 -413.801 881.02 -331.92C861.316 -320.609 840.491 -308.679 819.088 -296.45C781.936 -275.219 742.471 -252.655 703.228 -229.906C660.89 -205.397 -448.034 429.889 -486.617 453.395C-514.397 427.126 -540.662 399.298 -565.283 370.047C-528.292 347.173 579.077 -287.421 620.744 -311.712C667.933 -339.238 716.622 -367.067 763.442 -393.811C784.766 -405.998 805.541 -417.895 825.373 -429.285C958.163 -504.845 1123.11 -601.056 1222.07 -675.626L1222.33 -675.836C1333.42 -758.455 1341.31 -796.138 1341.76 -802.841L1341.88 -804.174C1343.14 -817.911 1307.86 -843.558 1292.8 -854.531C1289.6 -856.852 1286.39 -859.164 1283.17 -861.479C1279.11 -864.409 1275 -867.37 1270.84 -870.407C1252.56 -818.16 1201.7 -762.073 1114.18 -696.954C1010.7 -619.023 849.634 -524.763 705.734 -442.885C672.144 -423.584 637.565 -404.097 604.097 -385.246C594.187 -379.65 584.308 -374.082 574.478 -368.548C532.82 -345.002 -565.665 296.347 -602.913 318.389C-624.872 288.081 -645.144 256.587 -663.636 224.049C-626.32 201.907 471.751 -439.296 512.964 -462.554C524.882 -469.31 536.932 -476.078 549.039 -482.909C582.304 -501.672 616.717 -521.068 650.09 -540.243C782.88 -615.804 947.811 -712.036 1046.79 -786.584L1047.06 -786.804C1158.14 -869.413 1166.01 -907.086 1166.48 -913.796L1166.59 -915.123C1167.83 -928.889 1132.57 -954.511 1117.51 -965.481L1107.91 -972.444C1065.65 -1002.91 1017.76 -1037.42 1006.64 -1093.94C989.063 -1176.93 1062.6 -1249.96 1119.63 -1297.76C1203.32 -1369.08 1345.72 -1457.06 1460.43 -1525.75C1547.44 -1578.41 1641.64 -1637.13 1722.13 -1689.42C1770.36 -1720.68 1813.7 -1749.66 1847.63 -1773.69C1880.7 -1752.49 1912.52 -1729.39 1942.93 -1704.52C1911.02 -1680.61 1869.93 -1652.34 1825.56 -1622.94C1711.29 -1547.24 1575.29 -1464.14 1518.29 -1429.65C1407.01 -1363 1269.6 -1278.2 1192.22 -1212.24L1191.86 -1211.94C1111.5 -1144.6 1116.36 -1117.34 1116.41 -1117.09L1116.71 -1115.59C1119.2 -1102.53 1151.89 -1078.96 1173.53 -1063.37C1176.87 -1060.97 1180.22 -1058.55 1183.54 -1056.14C1184.8 -1055.22 1186.08 -1054.32 1187.4 -1053.34C1206.29 -1106.79 1254.72 -1153.07 1294.95 -1186.79C1378.67 -1258.12 1521.04 -1346.09 1635.74 -1414.77C1660.35 -1429.65 1689.72 -1447.15 1720.79 -1465.71C1769.67 -1494.88 1832.2 -1532.15 1891.49 -1568.7C1934.99 -1595.56 1976.78 -1621.98 2010.15 -1644.57C2037.22 -1618.22 2062.8 -1590.38 2086.78 -1561.19C2055.4 -1539.34 2016.34 -1514.14 1971.31 -1486.15C1915.11 -1451.24 1849.63 -1411.95 1778.25 -1369.38C1747.32 -1350.95 1718.12 -1333.53 1693.59 -1318.67C1582.29 -1252.04 1444.91 -1167.26 1367.5 -1101.29L1367.15 -1100.98C1286.8 -1033.61 1291.62 -1006.37 1291.69 -1006.1L1292 -1004.63C1294.49 -991.574 1327.18 -967.997 1348.81 -952.409C1349.51 -951.896 1350.19 -951.409 1350.89 -950.897C1373.29 -996.264 1414.97 -1035.58 1450.33 -1065.21C1534.04 -1136.54 1676.42 -1224.51 1791.12 -1293.16C1814.24 -1307.18 1840.24 -1322.73 1867.79 -1339.17C1912.15 -1365.69 1965.29 -1397.45 2016.11 -1428.81C2058.2 -1454.82 2098.73 -1480.55 2131.3 -1502.8C2152.92 -1472.26 2172.86 -1440.56 2191.04 -1407.85Z" fill="url(#paint0_linear_646_637)"/>
<path d="M2191.04 -768.846C2158.66 -746.808 2119.7 -721.98 2075.66 -694.811C2030.35 -666.855 1979.66 -636.421 1925.3 -603.932C1897.92 -587.555 1872.04 -572.077 1848.94 -558.102C1737.64 -491.476 1600.25 -406.693 1522.86 -340.693L1522.51 -340.394C1442.14 -273.054 1447 -245.822 1447.04 -245.531L1447.34 -244.064C1449.83 -231.005 1482.52 -207.429 1504.15 -191.843C1507.51 -189.424 1510.85 -187.011 1514.15 -184.602C1552.14 -156.982 1615.64 -110.799 1608.98 -34.0316C1604.42 28.3904 1552.22 94.7201 1444.76 174.672C1341.3 252.601 1180.28 346.795 1036.39 428.696C1017.08 439.786 996.415 451.589 974.987 463.835C942.238 482.553 906.762 502.846 870.692 523.671C825.113 549.986 -280.735 1188.79 -323.738 1214.76C-357.94 1192.98 -390.815 1169.19 -422.191 1143.5C-383.209 1119.32 719.078 482.168 762.931 456.523C815.522 425.814 869.386 395.029 919.357 366.461C940.709 354.263 961.331 342.482 980.732 331.345C1113.54 255.741 1278.45 159.55 1377.44 84.9516L1377.73 84.7522C1488.79 2.12745 1496.68 -35.5297 1497.11 -42.2547L1497.23 -43.5862C1498.49 -57.3272 1463.21 -82.9741 1448.16 -93.9441C1444.96 -96.2654 1441.76 -98.5877 1438.53 -100.892C1438.36 -101.018 1438.2 -101.145 1438.03 -101.268C1414.96 -54.453 1366.34 -4.18703 1289.41 53.0374C1185.95 130.967 1024.92 225.199 881.02 307.08C861.316 318.392 840.491 330.321 819.088 342.55C781.936 363.782 742.471 386.345 703.228 409.095C660.89 433.603 -448.034 1068.89 -486.617 1092.4C-514.397 1066.13 -540.662 1038.3 -565.283 1009.05C-528.292 986.174 579.077 351.579 620.744 327.289C667.933 299.762 716.622 271.934 763.442 245.189C784.766 233.003 805.541 221.106 825.373 209.716C958.163 134.155 1123.11 37.9441 1222.07 -36.6253L1222.33 -36.8354C1333.42 -119.454 1341.31 -157.137 1341.76 -163.841L1341.88 -165.173C1343.14 -178.911 1307.86 -204.558 1292.8 -215.531C1289.6 -217.851 1286.39 -220.164 1283.17 -222.479C1279.11 -225.409 1275 -228.37 1270.84 -231.407C1252.56 -179.159 1201.7 -123.073 1114.18 -57.9536C1010.7 19.9772 849.634 114.237 705.734 196.116C672.144 215.416 637.565 234.904 604.097 253.754C594.187 259.35 584.308 264.919 574.478 270.452C532.82 293.999 -565.665 935.347 -602.913 957.39C-624.872 927.082 -645.144 895.587 -663.636 863.049C-626.32 840.908 471.751 199.704 512.964 176.447C524.882 169.69 536.932 162.923 549.039 156.091C582.304 137.329 616.717 117.933 650.09 98.7572C782.88 23.1969 947.811 -73.0351 1046.79 -147.584L1047.06 -147.804C1158.14 -230.413 1166.01 -268.086 1166.48 -274.796L1166.59 -276.123C1167.83 -289.888 1132.57 -315.511 1117.51 -326.481L1107.91 -333.443C1065.65 -363.906 1017.76 -398.423 1006.64 -454.938C989.063 -537.925 1062.6 -610.955 1119.63 -658.758C1203.32 -730.08 1345.72 -818.063 1460.43 -886.754C1547.44 -939.41 1641.64 -998.133 1722.13 -1050.42C1770.36 -1081.68 1813.7 -1110.66 1847.63 -1134.69C1880.7 -1113.49 1912.52 -1090.39 1942.93 -1065.52C1911.02 -1041.61 1869.93 -1013.34 1825.56 -983.935C1711.29 -908.237 1575.29 -825.141 1518.29 -790.65C1407.01 -724.002 1269.6 -639.204 1192.22 -573.244L1191.86 -572.942C1111.5 -505.601 1116.36 -478.341 1116.41 -478.089L1116.71 -476.588C1119.2 -463.527 1151.89 -439.955 1173.53 -424.367C1176.87 -421.972 1180.22 -419.548 1183.54 -417.136C1184.8 -416.219 1186.08 -415.317 1187.4 -414.34C1206.29 -467.791 1254.72 -514.072 1294.95 -547.785C1378.67 -619.121 1521.04 -707.09 1635.74 -775.774C1660.35 -790.645 1689.72 -808.151 1720.79 -826.713C1769.67 -855.876 1832.2 -893.149 1891.49 -929.702C1934.99 -956.556 1976.78 -982.984 2010.15 -1005.57C2037.22 -979.222 2062.8 -951.381 2086.78 -922.186C2055.4 -900.34 2016.34 -875.137 1971.31 -847.149C1915.11 -812.24 1849.63 -772.952 1778.25 -730.379C1747.32 -711.953 1718.12 -694.526 1693.59 -679.671C1582.29 -613.043 1444.91 -528.261 1367.5 -462.286L1367.15 -461.983C1286.8 -394.61 1291.62 -367.373 1291.69 -367.096L1292 -365.63C1294.49 -352.573 1327.18 -328.997 1348.81 -313.408C1349.51 -312.896 1350.19 -312.408 1350.89 -311.896C1373.29 -357.264 1414.97 -396.579 1450.33 -426.206C1534.04 -497.537 1676.42 -585.51 1791.12 -654.162C1814.24 -668.176 1840.24 -683.73 1867.79 -700.167C1912.15 -726.693 1965.29 -758.449 2016.11 -789.81C2058.2 -815.817 2098.73 -841.546 2131.3 -863.804C2152.92 -833.259 2172.86 -801.56 2191.04 -768.846Z" fill="url(#paint1_linear_646_637)"/>
</g>
<defs>
<linearGradient id="paint0_linear_646_637" x1="-1594.93" y1="643.999" x2="1975.83" y2="312.757" gradientUnits="userSpaceOnUse">
<stop stop-color="#C70098"/>
<stop offset="1" stop-color="#FA6401"/>
</linearGradient>
<linearGradient id="paint1_linear_646_637" x1="-1594.93" y1="1283" x2="1975.83" y2="951.758" gradientUnits="userSpaceOnUse">
<stop stop-color="#C70098"/>
<stop offset="1" stop-color="#FA6401"/>
</linearGradient>
</defs>
</svg>
