<svg width="1583" height="1490" viewBox="0 0 1583 1490" fill="none" xmlns="http://www.w3.org/2000/svg">
<path d="M1014.5 202C1049.4 141.042 1196.67 44.1667 1276 0H1437C1166.5 158 1129 199 1097.5 229.5C1072.3 253.9 1082.67 270.667 1091 276L1133 309C1133.8 233.8 1406.67 71.6667 1543 0H1582.5V73.5C1449.5 147 1258 269.5 1226 309C1200.4 340.6 1208 348.5 1213.5 354L1252.5 386C1263.3 326.4 1477 195.5 1582.5 137.5V235C1395.5 336 1358.5 386 1332.5 416C1311.7 440 1332.5 452.128 1345.5 460.5C1566 602.5 1327.5 730.5 1289.5 764C1259.1 790.8 417.167 1258.83 0 1489.5V1399C357 1195.5 1087.6 780.7 1154 749.5C1237 710.5 1325.5 628 1345.5 607.5C1361.5 591.1 1355.83 578.333 1351 574L1313.5 541C1300.5 581.5 1218.5 641 1147 691C1089.8 731 358.5 1133.67 0 1330V1238C315.167 1059.83 962.789 705.476 1014.5 676.5C1072.5 644 1173.5 569.833 1218.5 530C1229.5 521.833 1249 501.4 1239 485C1229 468.6 1202.83 452.5 1191 446.5C1185 465.7 1165.72 496 1145.5 510.5C947.5 652.5 301.5 1017.83 0 1180.5V1081.5C395.5 851 1201.5 461 1095 386C988.5 311 977 267.5 1014.5 202Z" fill="url(#paint0_linear_626_463)"/>
<defs>
<linearGradient id="paint0_linear_626_463" x1="1670.5" y1="-104" x2="-238" y2="1632.5" gradientUnits="userSpaceOnUse">
<stop offset="0.298856" stop-color="#FA6302"/>
<stop offset="0.991686" stop-color="#D92462"/>
</linearGradient>
</defs>
</svg>
