<?xml version="1.0" encoding="utf-8"?>
<svg width="1584px" height="1535px" viewBox="0 0 1584 1535" version="1.1" xmlns:xlink="http://www.w3.org/1999/xlink" xmlns="http://www.w3.org/2000/svg">
  <defs>
    <linearGradient x1="-0.30911633" y1="0.3925185" x2="0.87047684" y2="0.54909796" id="gradient_1">
      <stop offset="0" stop-color="#C70098" />
      <stop offset="1" stop-color="#FA6401" />
    </linearGradient>
  </defs>
  <g id="solis-logo-final-swooplong-05" transform="matrix(0.8746197 -0.4848096 0.4848096 0.8746197 -421.65137 921.7471)">
    <path d="M2428.9 360.866C2400.04 363.006 2365.95 364.501 2327.74 365.613C2288.44 366.765 2244.77 367.511 2197.99 368.218C2174.43 368.582 2152.16 368.925 2132.21 369.331C2036.41 370.846 1917.21 374.341 1843.33 387.979L1842.99 388.039C1766.7 401.434 1759.75 420.648 1759.67 420.849L1759.33 421.9C1756.1 431.175 1768.3 458.33 1776.38 476.289C1777.64 479.077 1778.88 481.852 1780.1 484.615C1794.21 516.315 1817.77 569.311 1785.15 615.961C1759.19 654.208 1701.29 677.361 1603.02 688.818C1508.05 700.455 1370.26 701.243 1247.96 700.494C1231.51 700.455 1213.93 700.373 1195.71 700.293C1167.84 700.171 1137.65 700.05 1106.89 700.05C1068.01 700.05 124.653 700.272 87.5541 701C73.7186 674.436 61.4759 647.072 50.8911 619.053C84.7579 617.982 1025.23 617.504 1062.75 617.295C1107.73 617.073 1153.56 617.275 1196.08 617.455C1214.24 617.538 1231.79 617.618 1248.32 617.659C1361.19 618.346 1502.22 617.719 1593.09 606.559L1593.35 606.538C1694.91 594.7 1713.87 573.524 1716.63 569.383L1717.2 568.575C1723.08 560.25 1709.98 530.813 1704.41 518.236C1703.22 515.569 1702.03 512.903 1700.81 510.233C1700.75 510.091 1700.69 509.949 1700.63 509.81C1668.58 531.236 1618.91 545.435 1548.57 553.631C1453.59 565.268 1315.78 566.076 1193.49 565.309C1176.7 565.268 1158.97 565.209 1140.77 565.126C1109.16 564.987 1075.58 564.845 1042.07 564.904C1005.94 564.945 61.9158 561.778 28.5525 562.565C20.4829 535.5 13.9591 507.998 9.01267 480.193C41.1238 479.222 983.897 482.258 1019.52 482.108C1059.88 481.927 1101.3 482.108 1141.13 482.291C1159.28 482.371 1176.96 482.433 1193.85 482.472C1306.71 483.179 1447.75 482.552 1538.61 471.4L1538.85 471.361C1640.43 459.541 1659.39 438.347 1662.16 434.224L1662.72 433.416C1668.6 425.093 1655.51 395.657 1649.93 383.077C1648.74 380.411 1647.54 377.744 1646.33 375.074C1644.82 371.7 1643.28 368.288 1641.75 364.81C1610.75 391.48 1557.5 408.574 1477.46 417.909C1382.49 429.544 1244.63 430.354 1122.34 429.585C1093.72 429.526 1064.4 429.221 1036.03 428.919C1027.62 428.838 1019.25 428.752 1010.91 428.661C975.571 428.338 35.9884 432.905 4.01927 433.248C1.16576 405.75 -0.170246 378.116 0.0173198 350.47C32.0665 350.088 971.329 345.462 1006.29 345.806C1016.41 345.886 1026.61 346.007 1036.88 346.108C1065.09 346.392 1094.27 346.694 1122.7 346.753C1235.56 347.46 1376.6 346.815 1467.46 335.681L1467.71 335.642C1569.28 323.822 1588.23 302.628 1591 298.508L1591.57 297.7C1597.45 289.354 1584.35 259.938 1578.78 247.361L1575.2 239.358C1559.42 204.265 1541.53 164.495 1555.29 124.237C1574.69 64.6559 1648.71 45.0986 1702.85 35.5806C1782.73 20.8662 1906.32 17.1746 2005.07 15.5999C2080.18 14.051 2162.12 11.2759 2232.93 7.55859C2275.32 5.37465 2313.76 2.83963 2344.33 0C2357.66 25.7772 2369.48 52.3023 2379.75 79.4427C2350.51 82.9586 2313.78 85.868 2274.54 88.2868C2173.48 94.5082 2055.79 97.4382 2006.59 98.4501C1910.78 99.9835 1791.56 103.479 1717.7 117.096L1717.36 117.158C1641.08 130.553 1634.12 149.788 1634.06 149.969L1633.7 151.04C1630.47 160.313 1642.67 187.468 1650.76 205.43C1652.01 208.197 1653.26 210.985 1654.49 213.755C1654.96 214.805 1655.44 215.856 1655.93 216.966C1687.75 189.752 1735.83 178.032 1774.02 171.326C1853.92 156.611 1977.49 152.919 2076.22 151.342C2097.46 150.919 2122.72 150.568 2149.45 150.17C2191.48 149.566 2245.25 148.818 2296.68 147.331C2334.43 146.218 2370.92 144.749 2400.61 142.622C2408.19 169.477 2414.28 196.735 2418.84 224.267C2390.69 226.652 2356.4 228.348 2317.25 229.621C2268.41 231.198 2212.01 232.148 2150.62 233.015C2124.03 233.379 2098.91 233.743 2077.74 234.187C1981.93 235.703 1862.73 239.198 1788.85 252.815L1788.51 252.877C1712.23 266.301 1705.25 285.507 1705.19 285.709L1704.85 286.759C1701.62 296.032 1713.82 323.187 1721.91 341.149C1722.16 341.735 1722.42 342.3 1722.68 342.886C1753.76 322.136 1794.94 312.378 1828.51 306.487C1908.41 291.772 2031.97 288.081 2130.71 286.527C2150.67 286.101 2173.05 285.752 2196.75 285.414C2234.92 284.828 2280.64 284.142 2324.74 282.848C2361.27 281.759 2396.7 280.267 2425.75 278.06C2428.3 305.584 2429.35 333.227 2428.9 360.866Z" id="Path" fill="url(#gradient_1)" stroke="none" />
  </g>
</svg>