<?xml version="1.0" encoding="utf-8"?>
<svg width="1584px" height="3106px" viewBox="0 0 1584 3106" version="1.1" xmlns:xlink="http://www.w3.org/1999/xlink" xmlns="http://www.w3.org/2000/svg">
  <defs>
    <linearGradient x1="-0.30911633" y1="0.3925185" x2="0.87047684" y2="0.54909796" id="gradient_1">
      <stop offset="0" stop-color="#C70098" />
      <stop offset="1" stop-color="#FA6401" />
    </linearGradient>
  </defs>
  <g id="bg-double-swoop" transform="translate(-900.8867 0)">
    <g id="solis-logo-final-swooplong" transform="matrix(0.8660254 -0.5 0.5 0.8660254 0 1644.1661)">
      <path d="M3288.19 488.533C3249.13 491.43 3202.98 493.454 3151.25 494.96C3098.04 496.519 3038.92 497.529 2975.6 498.486C2943.7 498.979 2913.55 499.444 2886.55 499.993C2756.85 502.044 2595.48 506.776 2495.46 525.239L2495 525.319C2391.73 543.453 2382.32 569.465 2382.21 569.738L2381.74 571.16C2377.37 583.717 2393.89 620.478 2404.83 644.791C2406.53 648.566 2408.21 652.322 2409.87 656.062C2428.96 698.977 2460.86 770.722 2416.71 833.875C2381.55 885.654 2303.18 916.998 2170.14 932.508C2041.57 948.263 1855.03 949.329 1689.47 948.315C1667.2 948.263 1643.4 948.151 1618.72 948.042C1581 947.878 1540.13 947.714 1498.48 947.714C1445.85 947.714 168.753 948.014 118.529 949C99.7987 913.038 83.2249 875.993 68.8954 838.062C114.744 836.612 1387.93 835.965 1438.73 835.682C1499.63 835.382 1561.67 835.654 1619.23 835.899C1643.82 836.011 1667.57 836.119 1689.94 836.175C1842.76 837.105 2033.67 836.255 2156.7 821.148L2157.05 821.12C2294.54 805.093 2320.2 776.425 2323.94 770.819L2324.71 769.726C2332.67 758.455 2314.94 718.604 2307.39 701.578C2305.78 697.968 2304.17 694.357 2302.52 690.744C2302.44 690.552 2302.36 690.359 2302.28 690.171C2258.89 719.177 2191.65 738.398 2096.42 749.494C1967.85 765.249 1781.28 766.343 1615.72 765.305C1593 765.249 1569 765.168 1544.35 765.057C1501.56 764.868 1456.1 764.676 1410.74 764.756C1361.82 764.812 83.8204 760.524 38.6538 761.59C27.7294 724.95 18.8976 687.718 12.2012 650.075C55.6726 648.761 1331.98 652.871 1380.21 652.668C1434.84 652.424 1490.92 652.668 1544.84 652.917C1569.4 653.025 1593.34 653.109 1616.21 653.161C1768.99 654.119 1959.94 653.269 2082.93 638.172L2083.26 638.12C2220.78 622.117 2246.45 593.425 2250.19 587.844L2250.96 586.75C2258.92 575.483 2241.19 535.632 2233.64 518.602C2232.03 514.993 2230.4 511.382 2228.77 507.768C2226.72 503.201 2224.64 498.581 2222.56 493.873C2180.6 529.978 2108.51 553.12 2000.16 565.757C1871.58 581.508 1684.96 582.605 1519.4 581.564C1480.66 581.484 1440.97 581.071 1402.56 580.662C1391.18 580.553 1379.84 580.436 1368.56 580.313C1320.71 579.876 48.7204 586.058 5.4412 586.523C1.57818 549.296 -0.230476 511.885 0.0234472 474.46C43.4109 473.943 1314.97 467.68 1362.29 468.145C1375.99 468.253 1389.81 468.417 1403.71 468.554C1441.9 468.938 1481.4 469.347 1519.89 469.427C1672.67 470.385 1863.62 469.511 1986.61 454.438L1986.96 454.386C2124.46 438.383 2150.11 409.691 2153.87 404.114L2154.63 403.02C2162.59 391.721 2144.86 351.898 2137.31 334.872L2132.47 324.038C2111.11 276.53 2086.89 222.69 2105.52 168.189C2131.79 87.5299 2231.99 61.0536 2305.28 48.1684C2413.42 28.2482 2580.73 23.2507 2714.42 21.1189C2816.1 19.022 2927.04 15.2651 3022.89 10.2327C3080.29 7.2761 3132.32 3.84424 3173.71 0C3191.75 34.8967 3207.76 70.8058 3221.66 107.548C3182.07 112.308 3132.35 116.246 3079.22 119.521C2942.41 127.943 2783.09 131.91 2716.48 133.28C2586.78 135.356 2425.38 140.088 2325.39 158.523L2324.93 158.606C2221.66 176.741 2212.24 202.78 2212.16 203.025L2211.67 204.475C2207.29 217.028 2223.82 253.79 2234.76 278.106C2236.46 281.853 2238.15 285.627 2239.82 289.377C2240.45 290.799 2241.11 292.222 2241.76 293.725C2284.85 256.883 2349.93 241.016 2401.63 231.937C2509.8 212.017 2677.08 207.019 2810.75 204.884C2839.5 204.311 2873.69 203.836 2909.88 203.297C2966.79 202.48 3039.58 201.466 3109.2 199.453C3160.3 197.947 3209.71 195.958 3249.9 193.079C3260.17 229.435 3268.4 266.335 3274.57 303.608C3236.47 306.837 3190.04 309.133 3137.05 310.856C3070.93 312.991 2994.58 314.277 2911.47 315.452C2875.47 315.944 2841.47 316.437 2812.8 317.038C2683.1 319.09 2521.73 323.821 2421.71 342.256L2421.25 342.34C2317.98 360.513 2308.54 386.514 2308.46 386.787L2307.99 388.209C2303.62 400.762 2320.14 437.524 2331.08 461.84C2331.43 462.634 2331.78 463.399 2332.13 464.192C2374.21 436.101 2429.96 422.891 2475.4 414.916C2583.56 394.996 2750.85 389.998 2884.51 387.894C2911.54 387.318 2941.83 386.846 2973.91 386.388C3025.59 385.595 3087.49 384.665 3147.18 382.914C3196.64 381.44 3244.6 379.42 3283.94 376.432C3287.39 413.694 3288.81 451.117 3288.19 488.533Z" id="Path" fill="url(#gradient_1)" stroke="none" />
    </g>
    <g id="solis-logo-final-swooplong" transform="matrix(0.8660254 -0.5 0.5 0.8660254 0 2283.166)">
      <path d="M3288.19 488.533C3249.13 491.43 3202.98 493.454 3151.25 494.96C3098.04 496.519 3038.92 497.529 2975.6 498.486C2943.7 498.979 2913.55 499.444 2886.55 499.993C2756.85 502.044 2595.48 506.776 2495.46 525.239L2495 525.319C2391.73 543.453 2382.32 569.465 2382.21 569.738L2381.74 571.16C2377.37 583.717 2393.89 620.478 2404.83 644.791C2406.53 648.566 2408.21 652.322 2409.87 656.062C2428.96 698.977 2460.86 770.722 2416.71 833.875C2381.55 885.654 2303.18 916.998 2170.14 932.508C2041.57 948.263 1855.03 949.329 1689.47 948.315C1667.2 948.263 1643.4 948.151 1618.72 948.042C1581 947.878 1540.13 947.714 1498.48 947.714C1445.85 947.714 168.753 948.014 118.529 949C99.7987 913.038 83.2249 875.993 68.8954 838.062C114.744 836.612 1387.93 835.965 1438.73 835.682C1499.63 835.382 1561.67 835.654 1619.23 835.899C1643.82 836.011 1667.57 836.119 1689.94 836.175C1842.76 837.105 2033.67 836.255 2156.7 821.148L2157.05 821.12C2294.54 805.093 2320.2 776.425 2323.94 770.819L2324.71 769.726C2332.67 758.455 2314.94 718.604 2307.39 701.578C2305.78 697.968 2304.17 694.357 2302.52 690.744C2302.44 690.552 2302.36 690.359 2302.28 690.171C2258.89 719.177 2191.65 738.398 2096.42 749.494C1967.85 765.249 1781.28 766.343 1615.72 765.305C1593 765.249 1569 765.168 1544.35 765.057C1501.56 764.868 1456.1 764.676 1410.74 764.756C1361.82 764.812 83.8204 760.524 38.6538 761.59C27.7294 724.95 18.8976 687.718 12.2012 650.075C55.6726 648.761 1331.98 652.871 1380.21 652.668C1434.84 652.424 1490.92 652.668 1544.84 652.917C1569.4 653.025 1593.34 653.109 1616.21 653.161C1768.99 654.119 1959.94 653.269 2082.93 638.172L2083.26 638.12C2220.78 622.117 2246.45 593.425 2250.19 587.844L2250.96 586.75C2258.92 575.483 2241.19 535.632 2233.64 518.602C2232.03 514.993 2230.4 511.382 2228.77 507.768C2226.72 503.201 2224.64 498.581 2222.56 493.873C2180.6 529.978 2108.51 553.12 2000.16 565.757C1871.58 581.508 1684.96 582.605 1519.4 581.564C1480.66 581.484 1440.97 581.071 1402.56 580.662C1391.18 580.553 1379.84 580.436 1368.56 580.313C1320.71 579.876 48.7204 586.058 5.4412 586.523C1.57818 549.296 -0.230476 511.885 0.0234472 474.46C43.4109 473.943 1314.97 467.68 1362.29 468.145C1375.99 468.253 1389.81 468.417 1403.71 468.554C1441.9 468.938 1481.4 469.347 1519.89 469.427C1672.67 470.385 1863.62 469.511 1986.61 454.438L1986.96 454.386C2124.46 438.383 2150.11 409.691 2153.87 404.114L2154.63 403.02C2162.59 391.721 2144.86 351.898 2137.31 334.872L2132.47 324.038C2111.11 276.53 2086.89 222.69 2105.52 168.189C2131.79 87.5299 2231.99 61.0536 2305.28 48.1684C2413.42 28.2482 2580.73 23.2507 2714.42 21.1189C2816.1 19.022 2927.04 15.2651 3022.89 10.2327C3080.29 7.2761 3132.32 3.84424 3173.71 0C3191.75 34.8967 3207.76 70.8058 3221.66 107.548C3182.07 112.308 3132.35 116.246 3079.22 119.521C2942.41 127.943 2783.09 131.91 2716.48 133.28C2586.78 135.356 2425.38 140.088 2325.39 158.523L2324.93 158.606C2221.66 176.741 2212.24 202.78 2212.16 203.025L2211.67 204.475C2207.29 217.028 2223.82 253.79 2234.76 278.106C2236.46 281.853 2238.15 285.627 2239.82 289.377C2240.45 290.799 2241.11 292.222 2241.76 293.725C2284.85 256.883 2349.93 241.016 2401.63 231.937C2509.8 212.017 2677.08 207.019 2810.75 204.884C2839.5 204.311 2873.69 203.836 2909.88 203.297C2966.79 202.48 3039.58 201.466 3109.2 199.453C3160.3 197.947 3209.71 195.958 3249.9 193.079C3260.17 229.435 3268.4 266.335 3274.57 303.608C3236.47 306.837 3190.04 309.133 3137.05 310.856C3070.93 312.991 2994.58 314.277 2911.47 315.452C2875.47 315.944 2841.47 316.437 2812.8 317.038C2683.1 319.09 2521.73 323.821 2421.71 342.256L2421.25 342.34C2317.98 360.513 2308.54 386.514 2308.46 386.787L2307.99 388.209C2303.62 400.762 2320.14 437.524 2331.08 461.84C2331.43 462.634 2331.78 463.399 2332.13 464.192C2374.21 436.101 2429.96 422.891 2475.4 414.916C2583.56 394.996 2750.85 389.998 2884.51 387.894C2911.54 387.318 2941.83 386.846 2973.91 386.388C3025.59 385.595 3087.49 384.665 3147.18 382.914C3196.64 381.44 3244.6 379.42 3283.94 376.432C3287.39 413.694 3288.81 451.117 3288.19 488.533Z" id="Path" fill="url(#gradient_1)" stroke="none" />
    </g>
  </g>
</svg>