<?xml version="1.0" encoding="utf-8"?>
<svg width="24px" height="24px" viewBox="0 0 24 24" version="1.1" xmlns:xlink="http://www.w3.org/1999/xlink" xmlns="http://www.w3.org/2000/svg">
  <g id="pictogramsweathersunny">
    <path d="M11.9999 2.52052L11.9999 4.77052C11.9999 4.91978 12.1207 5.04052 12.2699 5.04052C12.4192 5.04052 12.5399 4.91978 12.5399 4.77052L12.5399 2.52052C12.5399 2.37052 12.4192 2.24977 12.2699 2.24977C12.1207 2.24977 11.9999 2.37052 11.9999 2.52052ZM6.77595 7.15905L5.1852 5.5668C5.07945 5.4618 5.07945 5.29005 5.1852 5.18505C5.2902 5.0793 5.4612 5.0793 5.5662 5.18505L7.15695 6.77655C7.2627 6.88155 7.2627 7.0533 7.15695 7.15905C7.10445 7.21155 7.03545 7.2378 6.96645 7.2378C6.89745 7.2378 6.82845 7.21155 6.77595 7.15905ZM17.3825 7.15905C17.2768 7.0533 17.2768 6.88155 17.3825 6.77655L18.9733 5.18505C19.079 5.0793 19.2493 5.0793 19.355 5.18505C19.4608 5.29005 19.4608 5.4618 19.355 5.5668L17.7635 7.15905C17.711 7.21155 17.642 7.2378 17.573 7.2378C17.504 7.2378 17.435 7.21155 17.3825 7.15905ZM6.74993 12.2705C6.74993 9.22627 9.22643 6.74977 12.2699 6.74977C15.3134 6.74977 17.7899 9.22627 17.7899 12.2705C17.7899 15.314 15.3134 17.7905 12.2699 17.7905C9.22643 17.7905 6.74993 15.314 6.74993 12.2705ZM7.28993 12.2705C7.28993 15.0163 9.52418 17.2498 12.2699 17.2498C15.0157 17.2498 17.2499 15.0163 17.2499 12.2705C17.2499 9.52477 15.0157 7.29052 12.2699 7.29052C9.52418 7.29052 7.28993 9.52477 7.28993 12.2705ZM2.24993 12.2705C2.24993 12.4198 2.37068 12.5405 2.51993 12.5405L4.76993 12.5405C4.91918 12.5405 5.03993 12.4198 5.03993 12.2705C5.03993 12.1205 4.91918 11.9998 4.76993 11.9998L2.51993 11.9998C2.37068 11.9998 2.24993 12.1205 2.24993 12.2705ZM19.4999 12.2705C19.4999 12.4198 19.6207 12.5405 19.7699 12.5405L22.0199 12.5405C22.1692 12.5405 22.2899 12.4198 22.2899 12.2705C22.2899 12.1205 22.1692 11.9998 22.0199 11.9998L19.7699 11.9998C19.6207 11.9998 19.4999 12.1205 19.4999 12.2705ZM5.18513 19.3561C5.07938 19.2503 5.07938 19.0786 5.18513 18.9736L6.77588 17.3828C6.88088 17.2771 7.05188 17.2771 7.15688 17.3828C7.26263 17.4878 7.26263 17.6596 7.15688 17.7646L5.56612 19.3561C5.51363 19.4086 5.44462 19.4348 5.37563 19.4348C5.30663 19.4348 5.23763 19.4086 5.18513 19.3561ZM18.9737 19.3561L17.3822 17.7646C17.2764 17.6596 17.2764 17.4878 17.3822 17.3828C17.4879 17.2771 17.6582 17.2771 17.7639 17.3828L19.3547 18.9736C19.4604 19.0786 19.4604 19.2503 19.3547 19.3561C19.3022 19.4086 19.2332 19.4348 19.1642 19.4348C19.0952 19.4348 19.0262 19.4086 18.9737 19.3561ZM11.9999 19.7705L11.9999 22.0205C11.9999 22.1698 12.1207 22.2905 12.2699 22.2905C12.4192 22.2905 12.5399 22.1698 12.5399 22.0205L12.5399 19.7705C12.5399 19.6205 12.4192 19.4998 12.2699 19.4998C12.1207 19.4998 11.9999 19.6205 11.9999 19.7705Z" id="Fill-19" fill="#FFFFFF" fill-rule="evenodd" stroke="none" />
  </g>
</svg>