<?xml version="1.0" encoding="utf-8"?>
<svg width="613px" height="647px" viewBox="0 0 613 647" version="1.1" xmlns:xlink="http://www.w3.org/1999/xlink" xmlns="http://www.w3.org/2000/svg">
  <defs>
    <linearGradient x1="15.865466" y1="-1087.3481" x2="-2.5670962" y2="330.63135" id="gradient_1">
      <stop offset="0" stop-color="#C90099" />
      <stop offset="0.6046439" stop-color="#F67622" />
      <stop offset="1" stop-color="#D8D8D8" />
    </linearGradient>
  </defs>
  <g id="Group" transform="translate(18 18)">
    <g id="LEGEND" transform="translate(64.325195 589.3257)">
      <g id="KEYITEM03" transform="translate(346 0)">
        <g id="Seed-Sail" fill="#F4F4F4" transform="translate(30.999985 0)">
          <path d="M35.7693 15.8136Q36.5933 16.2936 37.7773 16.2936Q38.7533 16.2936 39.5213 15.9336Q40.2893 15.5736 40.8013 14.8056L40.9133 14.8056L41.0413 16.1016L42.0013 16.1016L42.0013 4.53356L40.7853 4.53356L40.7853 8.83756L40.6733 8.83756Q40.3533 8.37356 39.9213 8.07756Q39.4893 7.78156 38.9533 7.63756Q38.4173 7.49356 37.7773 7.49356Q36.6253 7.49356 35.7933 7.97356Q34.9613 8.45356 34.5133 9.41356Q34.0653 10.3736 34.0653 11.8456Q34.0653 13.3656 34.5053 14.3496Q34.9453 15.3336 35.7693 15.8136ZM72.0987 5.94156L72.0987 4.53356L73.2987 4.53356L73.2987 5.94156L72.0987 5.94156ZM76.1098 4.53356L76.1098 16.1016L77.3098 16.1016L77.3098 4.53356L76.1098 4.53356ZM4.232 16.1416Q5.168 16.2936 6.176 16.2936Q7.648 16.2936 8.776 15.9736Q9.904 15.6536 10.536 14.9256Q11.168 14.1976 11.168 13.0136Q11.168 12.2296 10.816 11.7016Q10.464 11.1736 9.856 10.8216Q9.248 10.4696 8.488 10.2536Q7.728 10.0376 6.928 9.87756Q6.128 9.71756 5.376 9.55756Q4.624 9.39756 4.016 9.17356Q3.408 8.94956 3.048 8.61356Q2.688 8.27756 2.688 7.74956Q2.688 7.23756 3.088 6.86156Q3.488 6.48556 4.28 6.27756Q5.072 6.06956 6.288 6.06956Q7.264 6.06956 7.968 6.30956Q8.672 6.54956 9.056 6.94956Q9.44 7.34956 9.44 7.86156L9.44 8.18156L10.768 8.18156L10.768 7.92556Q10.768 7.26956 10.496 6.72556Q10.224 6.18156 9.656 5.77356Q9.088 5.36556 8.224 5.14956Q7.36 4.93356 6.192 4.93356Q4.88 4.93356 3.96 5.14956Q3.04 5.36556 2.456 5.75756Q1.872 6.14956 1.6 6.67756Q1.328 7.20556 1.328 7.82956Q1.328 8.59756 1.68 9.12556Q2.032 9.65356 2.64 9.98156Q3.248 10.3096 4.008 10.5256Q4.768 10.7416 5.568 10.8936Q6.368 11.0456 7.128 11.2136Q7.888 11.3816 8.488 11.6216Q9.088 11.8616 9.448 12.2376Q9.808 12.6136 9.808 13.2056Q9.808 13.6696 9.576 14.0056Q9.344 14.3416 8.96 14.5656Q8.576 14.7896 8.096 14.9176Q7.616 15.0456 7.104 15.0936Q6.592 15.1416 6.112 15.1416Q4.992 15.1416 4.136 14.9176Q3.28 14.6936 2.808 14.2456Q2.336 13.7976 2.336 13.1256Q2.336 12.9976 2.344 12.8936Q2.352 12.7896 2.368 12.7096L1.024 12.7096Q1.008 12.7736 1.008 12.8456L1.008 12.9976Q1.008 13.9896 1.424 14.6216Q1.84 15.2536 2.568 15.6216Q3.296 15.9896 4.232 16.1416ZM54.2044 16.2936Q53.1964 16.2936 52.2604 16.1416Q51.3244 15.9896 50.5964 15.6216Q49.8684 15.2536 49.4524 14.6216Q49.0364 13.9896 49.0364 12.9976L49.0364 12.8456Q49.0364 12.7736 49.0524 12.7096L50.3964 12.7096Q50.3804 12.7896 50.3724 12.8936Q50.3644 12.9976 50.3644 13.1256Q50.3644 13.7976 50.8364 14.2456Q51.3084 14.6936 52.1644 14.9176Q53.0204 15.1416 54.1404 15.1416Q54.6204 15.1416 55.1324 15.0936Q55.6444 15.0456 56.1244 14.9176Q56.6044 14.7896 56.9884 14.5656Q57.3724 14.3416 57.6044 14.0056Q57.8364 13.6696 57.8364 13.2056Q57.8364 12.6136 57.4764 12.2376Q57.1164 11.8616 56.5164 11.6216Q55.9164 11.3816 55.1564 11.2136Q54.3964 11.0456 53.5964 10.8936Q52.7964 10.7416 52.0364 10.5256Q51.2764 10.3096 50.6684 9.98156Q50.0604 9.65356 49.7084 9.12556Q49.3564 8.59756 49.3564 7.82956Q49.3564 7.20556 49.6284 6.67756Q49.9004 6.14956 50.4844 5.75756Q51.0684 5.36556 51.9884 5.14956Q52.9084 4.93356 54.2204 4.93356Q55.3884 4.93356 56.2524 5.14956Q57.1164 5.36556 57.6844 5.77356Q58.2524 6.18156 58.5244 6.72556Q58.7964 7.26956 58.7964 7.92556L58.7964 8.18156L57.4684 8.18156L57.4684 7.86156Q57.4684 7.34956 57.0844 6.94956Q56.7004 6.54956 55.9964 6.30956Q55.2924 6.06956 54.3164 6.06956Q53.1004 6.06956 52.3084 6.27756Q51.5164 6.48556 51.1164 6.86156Q50.7164 7.23756 50.7164 7.74956Q50.7164 8.27756 51.0764 8.61356Q51.4364 8.94956 52.0444 9.17356Q52.6524 9.39756 53.4044 9.55756Q54.1564 9.71756 54.9564 9.87756Q55.7564 10.0376 56.5164 10.2536Q57.2764 10.4696 57.8844 10.8216Q58.4924 11.1736 58.8444 11.7016Q59.1964 12.2296 59.1964 13.0136Q59.1964 14.1976 58.5644 14.9256Q57.9324 15.6536 56.8044 15.9736Q55.6764 16.2936 54.2044 16.2936ZM15.2991 15.8216Q16.2511 16.2936 17.5951 16.2936Q18.6511 16.2936 19.4111 16.0376Q20.1711 15.7816 20.6591 15.3496Q21.1471 14.9176 21.3791 14.3816Q21.6111 13.8456 21.6271 13.2696L20.4431 13.2696Q20.4271 13.6376 20.2431 14.0056Q20.0591 14.3736 19.7071 14.6536Q19.3551 14.9336 18.8511 15.1096Q18.3471 15.2856 17.6591 15.2856Q16.7471 15.2856 16.0751 14.9816Q15.4031 14.6776 15.0271 13.9976Q14.6511 13.3176 14.6511 12.2136L21.7071 12.2136L21.7071 11.4616Q21.7071 10.2456 21.2591 9.35756Q20.8111 8.46956 19.9071 7.98156Q19.0031 7.49356 17.6271 7.49356Q16.2511 7.49356 15.2991 7.97356Q14.3471 8.45356 13.8591 9.42956Q13.3711 10.4056 13.3711 11.8936Q13.3711 13.3816 13.8591 14.3656Q14.3471 15.3496 15.2991 15.8216ZM27.9422 16.2936Q26.5982 16.2936 25.6462 15.8216Q24.6942 15.3496 24.2062 14.3656Q23.7182 13.3816 23.7182 11.8936Q23.7182 10.4056 24.2062 9.42956Q24.6942 8.45356 25.6462 7.97356Q26.5982 7.49356 27.9742 7.49356Q29.3502 7.49356 30.2542 7.98156Q31.1582 8.46956 31.6062 9.35756Q32.0542 10.2456 32.0542 11.4616L32.0542 12.2136L24.9982 12.2136Q24.9982 13.3176 25.3742 13.9976Q25.7502 14.6776 26.4222 14.9816Q27.0942 15.2856 28.0062 15.2856Q28.6942 15.2856 29.1982 15.1096Q29.7022 14.9336 30.0542 14.6536Q30.4062 14.3736 30.5902 14.0056Q30.7742 13.6376 30.7902 13.2696L31.9742 13.2696Q31.9582 13.8456 31.7262 14.3816Q31.4942 14.9176 31.0062 15.3496Q30.5182 15.7816 29.7582 16.0376Q28.9982 16.2936 27.9422 16.2936ZM63.2236 16.1736Q63.7676 16.2936 64.3755 16.2936Q65.0796 16.2936 65.7436 16.1256Q66.4076 15.9576 66.9756 15.6296Q67.5435 15.3016 67.9116 14.8216L68.0236 14.8216Q68.0396 15.2376 68.1436 15.5656Q68.2476 15.8936 68.5116 16.0856Q68.7756 16.2776 69.2876 16.2776Q69.5756 16.2776 69.8716 16.2216Q70.1676 16.1656 70.4236 16.0536L70.4236 15.2696L69.6876 15.2696Q69.4156 15.2696 69.3036 15.1416Q69.1916 15.0136 69.1916 14.6936L69.1916 10.1656Q69.1916 9.22156 68.7756 8.63756Q68.3596 8.05356 67.5596 7.77356Q66.7596 7.49356 65.5756 7.49356Q64.3596 7.49356 63.5036 7.75756Q62.6476 8.02156 62.1916 8.54956Q61.7356 9.07756 61.7356 9.84556Q61.7356 9.95756 61.7436 10.0376Q61.7516 10.1176 61.7676 10.1976L62.9356 10.1976L62.9356 9.89356Q62.9356 9.50956 63.1836 9.18956Q63.4316 8.86956 63.9756 8.68556Q64.5196 8.50156 65.3996 8.50156Q66.4076 8.50156 66.9595 8.68556Q67.5116 8.86956 67.7436 9.27756Q67.9756 9.68556 67.9756 10.3416L67.9756 11.1576Q66.5835 11.1576 65.3755 11.2456Q64.1675 11.3336 63.2636 11.6056Q62.3596 11.8776 61.8556 12.4456Q61.3516 13.0136 61.3516 13.9576Q61.3516 14.6136 61.5916 15.0616Q61.8316 15.5096 62.2556 15.7816Q62.6796 16.0536 63.2236 16.1736ZM72.0987 7.68556L73.2987 7.68556L73.2987 16.1016L72.0987 16.1016L72.0987 7.68556ZM20.4431 11.2696L14.6511 11.2696Q14.7151 10.3096 15.0831 9.69356Q15.4511 9.07756 16.0911 8.78956Q16.7311 8.50156 17.5791 8.50156Q18.1551 8.50156 18.6751 8.63756Q19.1951 8.77356 19.5871 9.09356Q19.9791 9.41356 20.2111 9.94956Q20.4431 10.4856 20.4431 11.2696ZM24.9982 11.2696L30.7902 11.2696Q30.7902 10.4856 30.5582 9.94956Q30.3262 9.41356 29.9342 9.09356Q29.5422 8.77356 29.0222 8.63756Q28.5022 8.50156 27.9262 8.50156Q27.0782 8.50156 26.4382 8.78956Q25.7982 9.07756 25.4302 9.69356Q25.0622 10.3096 24.9982 11.2696ZM39.5053 14.8856Q38.8813 15.2376 38.0013 15.2376Q37.2013 15.2376 36.6013 14.9256Q36.0013 14.6136 35.6653 13.9176Q35.3293 13.2216 35.3293 12.0696L35.3293 11.7176Q35.3293 10.5816 35.6573 9.88556Q35.9853 9.18956 36.5933 8.86956Q37.2013 8.54956 38.0493 8.54956Q38.6093 8.54956 39.1053 8.70956Q39.6013 8.86956 39.9773 9.22956Q40.3533 9.58956 40.5693 10.2136Q40.7853 10.8376 40.7853 11.7496L40.7853 12.0216Q40.7853 13.1256 40.4573 13.8296Q40.1293 14.5336 39.5053 14.8856ZM65.7996 15.1016Q65.1916 15.2696 64.5835 15.2696Q64.0715 15.2696 63.6156 15.1416Q63.1596 15.0136 62.8876 14.7176Q62.6156 14.4216 62.6156 13.9256Q62.6156 13.1576 63.2156 12.7656Q63.8156 12.3736 65.0076 12.2296Q66.1996 12.0856 67.9756 12.0856L67.9756 12.9016Q67.9756 13.4296 67.6796 13.8696Q67.3836 14.3096 66.8956 14.6216Q66.4076 14.9336 65.7996 15.1016Z" />
        </g>
        <path d="M0 2L16 2L16 18L0 18L0 2Z" id="Rectangle-Copy-8" fill="#D8D8D8" fill-rule="evenodd" stroke="none" />
      </g>
      <g id="KEYITEM02" transform="translate(173 0)">
        <g id="Seed-Sail" fill="#F4F4F4" transform="translate(30.999992 0)">
          <path d="M35.7693 15.8136Q36.5933 16.2936 37.7773 16.2936Q38.7533 16.2936 39.5213 15.9336Q40.2893 15.5736 40.8013 14.8056L40.9133 14.8056L41.0413 16.1016L42.0013 16.1016L42.0013 4.53356L40.7853 4.53356L40.7853 8.83756L40.6733 8.83756Q40.3533 8.37356 39.9213 8.07756Q39.4893 7.78156 38.9533 7.63756Q38.4173 7.49356 37.7773 7.49356Q36.6253 7.49356 35.7933 7.97356Q34.9613 8.45356 34.5133 9.41356Q34.0653 10.3736 34.0653 11.8456Q34.0653 13.3656 34.5053 14.3496Q34.9453 15.3336 35.7693 15.8136ZM72.0987 5.94156L72.0987 4.53356L73.2987 4.53356L73.2987 5.94156L72.0987 5.94156ZM76.1098 4.53356L76.1098 16.1016L77.3098 16.1016L77.3098 4.53356L76.1098 4.53356ZM4.232 16.1416Q5.168 16.2936 6.176 16.2936Q7.648 16.2936 8.776 15.9736Q9.904 15.6536 10.536 14.9256Q11.168 14.1976 11.168 13.0136Q11.168 12.2296 10.816 11.7016Q10.464 11.1736 9.856 10.8216Q9.248 10.4696 8.488 10.2536Q7.728 10.0376 6.928 9.87756Q6.128 9.71756 5.376 9.55756Q4.624 9.39756 4.016 9.17356Q3.408 8.94956 3.048 8.61356Q2.688 8.27756 2.688 7.74956Q2.688 7.23756 3.088 6.86156Q3.488 6.48556 4.28 6.27756Q5.072 6.06956 6.288 6.06956Q7.264 6.06956 7.968 6.30956Q8.672 6.54956 9.056 6.94956Q9.44 7.34956 9.44 7.86156L9.44 8.18156L10.768 8.18156L10.768 7.92556Q10.768 7.26956 10.496 6.72556Q10.224 6.18156 9.656 5.77356Q9.088 5.36556 8.224 5.14956Q7.36 4.93356 6.192 4.93356Q4.88 4.93356 3.96 5.14956Q3.04 5.36556 2.456 5.75756Q1.872 6.14956 1.6 6.67756Q1.328 7.20556 1.328 7.82956Q1.328 8.59756 1.68 9.12556Q2.032 9.65356 2.64 9.98156Q3.248 10.3096 4.008 10.5256Q4.768 10.7416 5.568 10.8936Q6.368 11.0456 7.128 11.2136Q7.888 11.3816 8.488 11.6216Q9.088 11.8616 9.448 12.2376Q9.808 12.6136 9.808 13.2056Q9.808 13.6696 9.576 14.0056Q9.344 14.3416 8.96 14.5656Q8.576 14.7896 8.096 14.9176Q7.616 15.0456 7.104 15.0936Q6.592 15.1416 6.112 15.1416Q4.992 15.1416 4.136 14.9176Q3.28 14.6936 2.808 14.2456Q2.336 13.7976 2.336 13.1256Q2.336 12.9976 2.344 12.8936Q2.352 12.7896 2.368 12.7096L1.024 12.7096Q1.008 12.7736 1.008 12.8456L1.008 12.9976Q1.008 13.9896 1.424 14.6216Q1.84 15.2536 2.568 15.6216Q3.296 15.9896 4.232 16.1416ZM54.2044 16.2936Q53.1964 16.2936 52.2604 16.1416Q51.3244 15.9896 50.5964 15.6216Q49.8684 15.2536 49.4524 14.6216Q49.0364 13.9896 49.0364 12.9976L49.0364 12.8456Q49.0364 12.7736 49.0524 12.7096L50.3964 12.7096Q50.3804 12.7896 50.3724 12.8936Q50.3644 12.9976 50.3644 13.1256Q50.3644 13.7976 50.8364 14.2456Q51.3084 14.6936 52.1644 14.9176Q53.0204 15.1416 54.1404 15.1416Q54.6204 15.1416 55.1324 15.0936Q55.6444 15.0456 56.1244 14.9176Q56.6044 14.7896 56.9884 14.5656Q57.3724 14.3416 57.6044 14.0056Q57.8364 13.6696 57.8364 13.2056Q57.8364 12.6136 57.4764 12.2376Q57.1164 11.8616 56.5164 11.6216Q55.9164 11.3816 55.1564 11.2136Q54.3964 11.0456 53.5964 10.8936Q52.7964 10.7416 52.0364 10.5256Q51.2764 10.3096 50.6684 9.98156Q50.0604 9.65356 49.7084 9.12556Q49.3564 8.59756 49.3564 7.82956Q49.3564 7.20556 49.6284 6.67756Q49.9004 6.14956 50.4844 5.75756Q51.0684 5.36556 51.9884 5.14956Q52.9084 4.93356 54.2204 4.93356Q55.3884 4.93356 56.2524 5.14956Q57.1164 5.36556 57.6844 5.77356Q58.2524 6.18156 58.5244 6.72556Q58.7964 7.26956 58.7964 7.92556L58.7964 8.18156L57.4684 8.18156L57.4684 7.86156Q57.4684 7.34956 57.0844 6.94956Q56.7004 6.54956 55.9964 6.30956Q55.2924 6.06956 54.3164 6.06956Q53.1004 6.06956 52.3084 6.27756Q51.5164 6.48556 51.1164 6.86156Q50.7164 7.23756 50.7164 7.74956Q50.7164 8.27756 51.0764 8.61356Q51.4364 8.94956 52.0444 9.17356Q52.6524 9.39756 53.4044 9.55756Q54.1564 9.71756 54.9564 9.87756Q55.7564 10.0376 56.5164 10.2536Q57.2764 10.4696 57.8844 10.8216Q58.4924 11.1736 58.8444 11.7016Q59.1964 12.2296 59.1964 13.0136Q59.1964 14.1976 58.5644 14.9256Q57.9324 15.6536 56.8044 15.9736Q55.6764 16.2936 54.2044 16.2936ZM15.2991 15.8216Q16.2511 16.2936 17.5951 16.2936Q18.6511 16.2936 19.4111 16.0376Q20.1711 15.7816 20.6591 15.3496Q21.1471 14.9176 21.3791 14.3816Q21.6111 13.8456 21.6271 13.2696L20.4431 13.2696Q20.4271 13.6376 20.2431 14.0056Q20.0591 14.3736 19.7071 14.6536Q19.3551 14.9336 18.8511 15.1096Q18.3471 15.2856 17.6591 15.2856Q16.7471 15.2856 16.0751 14.9816Q15.4031 14.6776 15.0271 13.9976Q14.6511 13.3176 14.6511 12.2136L21.7071 12.2136L21.7071 11.4616Q21.7071 10.2456 21.2591 9.35756Q20.8111 8.46956 19.9071 7.98156Q19.0031 7.49356 17.6271 7.49356Q16.2511 7.49356 15.2991 7.97356Q14.3471 8.45356 13.8591 9.42956Q13.3711 10.4056 13.3711 11.8936Q13.3711 13.3816 13.8591 14.3656Q14.3471 15.3496 15.2991 15.8216ZM27.9422 16.2936Q26.5982 16.2936 25.6462 15.8216Q24.6942 15.3496 24.2062 14.3656Q23.7182 13.3816 23.7182 11.8936Q23.7182 10.4056 24.2062 9.42956Q24.6942 8.45356 25.6462 7.97356Q26.5982 7.49356 27.9742 7.49356Q29.3502 7.49356 30.2542 7.98156Q31.1582 8.46956 31.6062 9.35756Q32.0542 10.2456 32.0542 11.4616L32.0542 12.2136L24.9982 12.2136Q24.9982 13.3176 25.3742 13.9976Q25.7502 14.6776 26.4222 14.9816Q27.0942 15.2856 28.0062 15.2856Q28.6942 15.2856 29.1982 15.1096Q29.7022 14.9336 30.0542 14.6536Q30.4062 14.3736 30.5902 14.0056Q30.7742 13.6376 30.7902 13.2696L31.9742 13.2696Q31.9582 13.8456 31.7262 14.3816Q31.4942 14.9176 31.0062 15.3496Q30.5182 15.7816 29.7582 16.0376Q28.9982 16.2936 27.9422 16.2936ZM63.2236 16.1736Q63.7676 16.2936 64.3755 16.2936Q65.0796 16.2936 65.7436 16.1256Q66.4076 15.9576 66.9756 15.6296Q67.5435 15.3016 67.9116 14.8216L68.0236 14.8216Q68.0396 15.2376 68.1436 15.5656Q68.2476 15.8936 68.5116 16.0856Q68.7756 16.2776 69.2876 16.2776Q69.5756 16.2776 69.8716 16.2216Q70.1676 16.1656 70.4236 16.0536L70.4236 15.2696L69.6876 15.2696Q69.4156 15.2696 69.3036 15.1416Q69.1916 15.0136 69.1916 14.6936L69.1916 10.1656Q69.1916 9.22156 68.7756 8.63756Q68.3596 8.05356 67.5596 7.77356Q66.7596 7.49356 65.5756 7.49356Q64.3596 7.49356 63.5036 7.75756Q62.6476 8.02156 62.1916 8.54956Q61.7356 9.07756 61.7356 9.84556Q61.7356 9.95756 61.7436 10.0376Q61.7516 10.1176 61.7676 10.1976L62.9356 10.1976L62.9356 9.89356Q62.9356 9.50956 63.1836 9.18956Q63.4316 8.86956 63.9756 8.68556Q64.5196 8.50156 65.3996 8.50156Q66.4076 8.50156 66.9595 8.68556Q67.5116 8.86956 67.7436 9.27756Q67.9756 9.68556 67.9756 10.3416L67.9756 11.1576Q66.5835 11.1576 65.3755 11.2456Q64.1675 11.3336 63.2636 11.6056Q62.3596 11.8776 61.8556 12.4456Q61.3516 13.0136 61.3516 13.9576Q61.3516 14.6136 61.5916 15.0616Q61.8316 15.5096 62.2556 15.7816Q62.6796 16.0536 63.2236 16.1736ZM72.0987 7.68556L73.2987 7.68556L73.2987 16.1016L72.0987 16.1016L72.0987 7.68556ZM20.4431 11.2696L14.6511 11.2696Q14.7151 10.3096 15.0831 9.69356Q15.4511 9.07756 16.0911 8.78956Q16.7311 8.50156 17.5791 8.50156Q18.1551 8.50156 18.6751 8.63756Q19.1951 8.77356 19.5871 9.09356Q19.9791 9.41356 20.2111 9.94956Q20.4431 10.4856 20.4431 11.2696ZM24.9982 11.2696L30.7902 11.2696Q30.7902 10.4856 30.5582 9.94956Q30.3262 9.41356 29.9342 9.09356Q29.5422 8.77356 29.0222 8.63756Q28.5022 8.50156 27.9262 8.50156Q27.0782 8.50156 26.4382 8.78956Q25.7982 9.07756 25.4302 9.69356Q25.0622 10.3096 24.9982 11.2696ZM39.5053 14.8856Q38.8813 15.2376 38.0013 15.2376Q37.2013 15.2376 36.6013 14.9256Q36.0013 14.6136 35.6653 13.9176Q35.3293 13.2216 35.3293 12.0696L35.3293 11.7176Q35.3293 10.5816 35.6573 9.88556Q35.9853 9.18956 36.5933 8.86956Q37.2013 8.54956 38.0493 8.54956Q38.6093 8.54956 39.1053 8.70956Q39.6013 8.86956 39.9773 9.22956Q40.3533 9.58956 40.5693 10.2136Q40.7853 10.8376 40.7853 11.7496L40.7853 12.0216Q40.7853 13.1256 40.4573 13.8296Q40.1293 14.5336 39.5053 14.8856ZM65.7996 15.1016Q65.1916 15.2696 64.5835 15.2696Q64.0715 15.2696 63.6156 15.1416Q63.1596 15.0136 62.8876 14.7176Q62.6156 14.4216 62.6156 13.9256Q62.6156 13.1576 63.2156 12.7656Q63.8156 12.3736 65.0076 12.2296Q66.1996 12.0856 67.9756 12.0856L67.9756 12.9016Q67.9756 13.4296 67.6796 13.8696Q67.3836 14.3096 66.8956 14.6216Q66.4076 14.9336 65.7996 15.1016Z" />
        </g>
        <path d="M0 2L16 2L16 18L0 18L0 2Z" id="Rectangle-Copy-7" fill="#C90099" fill-rule="evenodd" stroke="none" />
      </g>
      <g id="KEYITEM01">
        <g id="Seed-Sail" fill="#F4F4F4" transform="translate(30.999992 0)">
          <path d="M35.7693 15.8136Q36.5933 16.2936 37.7773 16.2936Q38.7533 16.2936 39.5213 15.9336Q40.2893 15.5736 40.8013 14.8056L40.9133 14.8056L41.0413 16.1016L42.0013 16.1016L42.0013 4.53356L40.7853 4.53356L40.7853 8.83756L40.6733 8.83756Q40.3533 8.37356 39.9213 8.07756Q39.4893 7.78156 38.9533 7.63756Q38.4173 7.49356 37.7773 7.49356Q36.6253 7.49356 35.7933 7.97356Q34.9613 8.45356 34.5133 9.41356Q34.0653 10.3736 34.0653 11.8456Q34.0653 13.3656 34.5053 14.3496Q34.9453 15.3336 35.7693 15.8136ZM72.0987 5.94156L72.0987 4.53356L73.2987 4.53356L73.2987 5.94156L72.0987 5.94156ZM76.1098 4.53356L76.1098 16.1016L77.3098 16.1016L77.3098 4.53356L76.1098 4.53356ZM4.232 16.1416Q5.168 16.2936 6.176 16.2936Q7.648 16.2936 8.776 15.9736Q9.904 15.6536 10.536 14.9256Q11.168 14.1976 11.168 13.0136Q11.168 12.2296 10.816 11.7016Q10.464 11.1736 9.856 10.8216Q9.248 10.4696 8.488 10.2536Q7.728 10.0376 6.928 9.87756Q6.128 9.71756 5.376 9.55756Q4.624 9.39756 4.016 9.17356Q3.408 8.94956 3.048 8.61356Q2.688 8.27756 2.688 7.74956Q2.688 7.23756 3.088 6.86156Q3.488 6.48556 4.28 6.27756Q5.072 6.06956 6.288 6.06956Q7.264 6.06956 7.968 6.30956Q8.672 6.54956 9.056 6.94956Q9.44 7.34956 9.44 7.86156L9.44 8.18156L10.768 8.18156L10.768 7.92556Q10.768 7.26956 10.496 6.72556Q10.224 6.18156 9.656 5.77356Q9.088 5.36556 8.224 5.14956Q7.36 4.93356 6.192 4.93356Q4.88 4.93356 3.96 5.14956Q3.04 5.36556 2.456 5.75756Q1.872 6.14956 1.6 6.67756Q1.328 7.20556 1.328 7.82956Q1.328 8.59756 1.68 9.12556Q2.032 9.65356 2.64 9.98156Q3.248 10.3096 4.008 10.5256Q4.768 10.7416 5.568 10.8936Q6.368 11.0456 7.128 11.2136Q7.888 11.3816 8.488 11.6216Q9.088 11.8616 9.448 12.2376Q9.808 12.6136 9.808 13.2056Q9.808 13.6696 9.576 14.0056Q9.344 14.3416 8.96 14.5656Q8.576 14.7896 8.096 14.9176Q7.616 15.0456 7.104 15.0936Q6.592 15.1416 6.112 15.1416Q4.992 15.1416 4.136 14.9176Q3.28 14.6936 2.808 14.2456Q2.336 13.7976 2.336 13.1256Q2.336 12.9976 2.344 12.8936Q2.352 12.7896 2.368 12.7096L1.024 12.7096Q1.008 12.7736 1.008 12.8456L1.008 12.9976Q1.008 13.9896 1.424 14.6216Q1.84 15.2536 2.568 15.6216Q3.296 15.9896 4.232 16.1416ZM54.2044 16.2936Q53.1964 16.2936 52.2604 16.1416Q51.3244 15.9896 50.5964 15.6216Q49.8684 15.2536 49.4524 14.6216Q49.0364 13.9896 49.0364 12.9976L49.0364 12.8456Q49.0364 12.7736 49.0524 12.7096L50.3964 12.7096Q50.3804 12.7896 50.3724 12.8936Q50.3644 12.9976 50.3644 13.1256Q50.3644 13.7976 50.8364 14.2456Q51.3084 14.6936 52.1644 14.9176Q53.0204 15.1416 54.1404 15.1416Q54.6204 15.1416 55.1324 15.0936Q55.6444 15.0456 56.1244 14.9176Q56.6044 14.7896 56.9884 14.5656Q57.3724 14.3416 57.6044 14.0056Q57.8364 13.6696 57.8364 13.2056Q57.8364 12.6136 57.4764 12.2376Q57.1164 11.8616 56.5164 11.6216Q55.9164 11.3816 55.1564 11.2136Q54.3964 11.0456 53.5964 10.8936Q52.7964 10.7416 52.0364 10.5256Q51.2764 10.3096 50.6684 9.98156Q50.0604 9.65356 49.7084 9.12556Q49.3564 8.59756 49.3564 7.82956Q49.3564 7.20556 49.6284 6.67756Q49.9004 6.14956 50.4844 5.75756Q51.0684 5.36556 51.9884 5.14956Q52.9084 4.93356 54.2204 4.93356Q55.3884 4.93356 56.2524 5.14956Q57.1164 5.36556 57.6844 5.77356Q58.2524 6.18156 58.5244 6.72556Q58.7964 7.26956 58.7964 7.92556L58.7964 8.18156L57.4684 8.18156L57.4684 7.86156Q57.4684 7.34956 57.0844 6.94956Q56.7004 6.54956 55.9964 6.30956Q55.2924 6.06956 54.3164 6.06956Q53.1004 6.06956 52.3084 6.27756Q51.5164 6.48556 51.1164 6.86156Q50.7164 7.23756 50.7164 7.74956Q50.7164 8.27756 51.0764 8.61356Q51.4364 8.94956 52.0444 9.17356Q52.6524 9.39756 53.4044 9.55756Q54.1564 9.71756 54.9564 9.87756Q55.7564 10.0376 56.5164 10.2536Q57.2764 10.4696 57.8844 10.8216Q58.4924 11.1736 58.8444 11.7016Q59.1964 12.2296 59.1964 13.0136Q59.1964 14.1976 58.5644 14.9256Q57.9324 15.6536 56.8044 15.9736Q55.6764 16.2936 54.2044 16.2936ZM15.2991 15.8216Q16.2511 16.2936 17.5951 16.2936Q18.6511 16.2936 19.4111 16.0376Q20.1711 15.7816 20.6591 15.3496Q21.1471 14.9176 21.3791 14.3816Q21.6111 13.8456 21.6271 13.2696L20.4431 13.2696Q20.4271 13.6376 20.2431 14.0056Q20.0591 14.3736 19.7071 14.6536Q19.3551 14.9336 18.8511 15.1096Q18.3471 15.2856 17.6591 15.2856Q16.7471 15.2856 16.0751 14.9816Q15.4031 14.6776 15.0271 13.9976Q14.6511 13.3176 14.6511 12.2136L21.7071 12.2136L21.7071 11.4616Q21.7071 10.2456 21.2591 9.35756Q20.8111 8.46956 19.9071 7.98156Q19.0031 7.49356 17.6271 7.49356Q16.2511 7.49356 15.2991 7.97356Q14.3471 8.45356 13.8591 9.42956Q13.3711 10.4056 13.3711 11.8936Q13.3711 13.3816 13.8591 14.3656Q14.3471 15.3496 15.2991 15.8216ZM27.9422 16.2936Q26.5982 16.2936 25.6462 15.8216Q24.6942 15.3496 24.2062 14.3656Q23.7182 13.3816 23.7182 11.8936Q23.7182 10.4056 24.2062 9.42956Q24.6942 8.45356 25.6462 7.97356Q26.5982 7.49356 27.9742 7.49356Q29.3502 7.49356 30.2542 7.98156Q31.1582 8.46956 31.6062 9.35756Q32.0542 10.2456 32.0542 11.4616L32.0542 12.2136L24.9982 12.2136Q24.9982 13.3176 25.3742 13.9976Q25.7502 14.6776 26.4222 14.9816Q27.0942 15.2856 28.0062 15.2856Q28.6942 15.2856 29.1982 15.1096Q29.7022 14.9336 30.0542 14.6536Q30.4062 14.3736 30.5902 14.0056Q30.7742 13.6376 30.7902 13.2696L31.9742 13.2696Q31.9582 13.8456 31.7262 14.3816Q31.4942 14.9176 31.0062 15.3496Q30.5182 15.7816 29.7582 16.0376Q28.9982 16.2936 27.9422 16.2936ZM63.2236 16.1736Q63.7676 16.2936 64.3755 16.2936Q65.0796 16.2936 65.7436 16.1256Q66.4076 15.9576 66.9756 15.6296Q67.5435 15.3016 67.9116 14.8216L68.0236 14.8216Q68.0396 15.2376 68.1436 15.5656Q68.2476 15.8936 68.5116 16.0856Q68.7756 16.2776 69.2876 16.2776Q69.5756 16.2776 69.8716 16.2216Q70.1676 16.1656 70.4236 16.0536L70.4236 15.2696L69.6876 15.2696Q69.4156 15.2696 69.3036 15.1416Q69.1916 15.0136 69.1916 14.6936L69.1916 10.1656Q69.1916 9.22156 68.7756 8.63756Q68.3596 8.05356 67.5596 7.77356Q66.7596 7.49356 65.5756 7.49356Q64.3596 7.49356 63.5036 7.75756Q62.6476 8.02156 62.1916 8.54956Q61.7356 9.07756 61.7356 9.84556Q61.7356 9.95756 61.7436 10.0376Q61.7516 10.1176 61.7676 10.1976L62.9356 10.1976L62.9356 9.89356Q62.9356 9.50956 63.1836 9.18956Q63.4316 8.86956 63.9756 8.68556Q64.5196 8.50156 65.3996 8.50156Q66.4076 8.50156 66.9595 8.68556Q67.5116 8.86956 67.7436 9.27756Q67.9756 9.68556 67.9756 10.3416L67.9756 11.1576Q66.5835 11.1576 65.3755 11.2456Q64.1675 11.3336 63.2636 11.6056Q62.3596 11.8776 61.8556 12.4456Q61.3516 13.0136 61.3516 13.9576Q61.3516 14.6136 61.5916 15.0616Q61.8316 15.5096 62.2556 15.7816Q62.6796 16.0536 63.2236 16.1736ZM72.0987 7.68556L73.2987 7.68556L73.2987 16.1016L72.0987 16.1016L72.0987 7.68556ZM20.4431 11.2696L14.6511 11.2696Q14.7151 10.3096 15.0831 9.69356Q15.4511 9.07756 16.0911 8.78956Q16.7311 8.50156 17.5791 8.50156Q18.1551 8.50156 18.6751 8.63756Q19.1951 8.77356 19.5871 9.09356Q19.9791 9.41356 20.2111 9.94956Q20.4431 10.4856 20.4431 11.2696ZM24.9982 11.2696L30.7902 11.2696Q30.7902 10.4856 30.5582 9.94956Q30.3262 9.41356 29.9342 9.09356Q29.5422 8.77356 29.0222 8.63756Q28.5022 8.50156 27.9262 8.50156Q27.0782 8.50156 26.4382 8.78956Q25.7982 9.07756 25.4302 9.69356Q25.0622 10.3096 24.9982 11.2696ZM39.5053 14.8856Q38.8813 15.2376 38.0013 15.2376Q37.2013 15.2376 36.6013 14.9256Q36.0013 14.6136 35.6653 13.9176Q35.3293 13.2216 35.3293 12.0696L35.3293 11.7176Q35.3293 10.5816 35.6573 9.88556Q35.9853 9.18956 36.5933 8.86956Q37.2013 8.54956 38.0493 8.54956Q38.6093 8.54956 39.1053 8.70956Q39.6013 8.86956 39.9773 9.22956Q40.3533 9.58956 40.5693 10.2136Q40.7853 10.8376 40.7853 11.7496L40.7853 12.0216Q40.7853 13.1256 40.4573 13.8296Q40.1293 14.5336 39.5053 14.8856ZM65.7996 15.1016Q65.1916 15.2696 64.5835 15.2696Q64.0715 15.2696 63.6156 15.1416Q63.1596 15.0136 62.8876 14.7176Q62.6156 14.4216 62.6156 13.9256Q62.6156 13.1576 63.2156 12.7656Q63.8156 12.3736 65.0076 12.2296Q66.1996 12.0856 67.9756 12.0856L67.9756 12.9016Q67.9756 13.4296 67.6796 13.8696Q67.3836 14.3096 66.8956 14.6216Q66.4076 14.9336 65.7996 15.1016Z" />
        </g>
        <path d="M0 2L16 2L16 18L0 18L0 2Z" id="Rectangle" fill="#FC6300" fill-rule="evenodd" stroke="none" />
      </g>
    </g>
    <g id="CIRCLECHART">
      <path d="M288.326 493.326C401.544 493.326 493.325 401.544 493.325 288.326C493.325 175.107 401.544 83.3256 288.326 83.3256C175.107 83.3256 83.3256 175.107 83.3256 288.326C83.3256 401.544 175.107 493.326 288.326 493.326Z" id="ORANGE-48" fill="none" fill-rule="evenodd" stroke="#FC6300" stroke-width="36" stroke-linecap="round" stroke-dasharray="617.1975 74999.25" />
      <path d="M129.011 159.315C57.7601 247.302 71.3278 376.39 159.315 447.641C247.302 518.891 376.39 505.323 447.641 417.336C518.891 329.349 505.324 200.261 417.336 129.011C329.349 57.7601 200.261 71.3277 129.011 159.315Z" id="PINK-33" fill="none" fill-rule="evenodd" stroke="#C90099" stroke-width="36" stroke-linecap="round" stroke-dasharray="424.3275 74999.25" />
      <path d="M274.026 83.825C161.083 91.7227 75.9272 189.683 83.825 302.626C91.7227 415.568 189.683 500.724 302.626 492.826C415.568 484.929 500.724 386.968 492.826 274.026C484.929 161.083 386.968 75.9272 274.026 83.825Z" id="WHITE-19" fill="none" fill-rule="evenodd" stroke="#F4F4F4" stroke-width="36" stroke-linecap="round" stroke-dasharray="128.58 74999.25" />
      <g id="48PERCENTAGE" transform="translate(448.07425 70.3256)">
        <path d="M5.96046e-08 43.7529L30.4056 13.3473" id="Line-5-Copy" fill="none" fill-rule="evenodd" stroke="url(#gradient_1)" stroke-width="1" stroke-linecap="square" />
        <g id="48%" fill="#F4F4F4" transform="translate(26.25124 9.536743E-07)">
          <path d="M19.7273 16.1016L19.7273 13.3016L13.7273 13.3016L13.7273 12.2616Q14.4953 11.0776 15.1273 9.89356Q15.7593 8.70956 16.2473 7.47756Q16.7353 6.24556 17.0553 4.93356L18.3673 4.93356Q18.1593 5.81356 17.8233 6.73356Q17.4873 7.65356 17.0873 8.51756Q16.6873 9.38156 16.2793 10.1256Q15.8713 10.8696 15.5113 11.4216Q15.1513 11.9736 14.9273 12.2616L19.7273 12.2616L19.7273 8.37356Q19.8233 8.13356 19.9033 7.88556Q19.9833 7.63756 20.0713 7.38956Q20.1593 7.14156 20.2233 6.91756Q20.2873 6.69356 20.3353 6.50156L20.9433 6.50156L20.9433 12.2616L22.6713 12.2616L22.6713 13.3016L20.9433 13.3016L20.9433 16.1016L19.7273 16.1016ZM28.7625 16.2936Q27.2265 16.2936 26.2585 15.8856Q25.2905 15.4776 24.8345 14.7656Q24.3785 14.0536 24.3785 13.1736Q24.3785 12.2456 24.9065 11.5336Q25.4345 10.8216 26.4905 10.4536Q25.6425 10.0536 25.1865 9.38156Q24.7305 8.70956 24.7305 7.89356Q24.7305 7.06156 25.1625 6.38956Q25.5945 5.71756 26.4985 5.32556Q27.4025 4.93356 28.7625 4.93356Q30.1544 4.93356 31.0425 5.32556Q31.9305 5.71756 32.3705 6.38956Q32.8105 7.06156 32.8105 7.89356Q32.8105 8.70956 32.3545 9.38156Q31.8984 10.0536 31.0345 10.4536Q32.1065 10.8216 32.6264 11.5336Q33.1465 12.2456 33.1465 13.1736Q33.1465 14.0536 32.6985 14.7656Q32.2505 15.4776 31.2825 15.8856Q30.3144 16.2936 28.7625 16.2936ZM36.9176 10.4136Q37.5096 10.7096 38.3416 10.7096Q39.1736 10.7096 39.7496 10.4216Q40.3256 10.1336 40.6376 9.49356Q40.9496 8.85356 40.9496 7.82956Q40.9496 6.77356 40.6376 6.14156Q40.3256 5.50956 39.7496 5.22156Q39.1736 4.93356 38.3416 4.93356Q37.5096 4.93356 36.9176 5.22156Q36.3256 5.50956 36.0216 6.14156Q35.7176 6.77356 35.7176 7.82956Q35.7176 8.85356 36.0216 9.48556Q36.3256 10.1176 36.9176 10.4136ZM46.1016 5.12556L37.3976 16.1016L38.5976 16.1016L47.2856 5.12556L46.1016 5.12556ZM39.5496 9.34156Q39.2376 9.87756 38.3416 9.87756Q37.4616 9.87756 37.1416 9.34156Q36.8216 8.80556 36.8216 7.87756L36.8216 7.74956Q36.8216 6.83756 37.1416 6.29356Q37.4616 5.74956 38.3416 5.74956Q38.9336 5.74956 39.2696 5.99756Q39.6056 6.24556 39.7336 6.69356Q39.8616 7.14156 39.8616 7.74956L39.8616 7.87756Q39.8616 8.80556 39.5496 9.34156ZM28.7625 9.97356Q30.0585 9.97356 30.8265 9.43756Q31.5945 8.90156 31.5945 7.90956Q31.5945 6.94956 30.8425 6.44556Q30.0905 5.94156 28.7625 5.94156Q27.4505 5.94156 26.6905 6.44556Q25.9305 6.94956 25.9305 7.90956Q25.9305 8.90156 26.7065 9.43756Q27.4825 9.97356 28.7625 9.97356ZM44.9496 16.0056Q45.5416 16.2936 46.3576 16.2936Q47.2056 16.2936 47.7816 16.0056Q48.3576 15.7176 48.6696 15.0856Q48.9816 14.4536 48.9816 13.4136Q48.9816 12.3736 48.6696 11.7416Q48.3576 11.1096 47.7816 10.8136Q47.2056 10.5176 46.3576 10.5176Q45.5416 10.5176 44.9496 10.8136Q44.3576 11.1096 44.0536 11.7416Q43.7496 12.3736 43.7496 13.4136Q43.7496 14.4536 44.0536 15.0856Q44.3576 15.7176 44.9496 16.0056ZM28.7625 15.2856Q30.3144 15.2856 31.1065 14.7176Q31.8985 14.1496 31.8985 13.1736Q31.8985 12.1656 31.1065 11.5736Q30.3144 10.9816 28.7625 10.9816Q27.2265 10.9816 26.4265 11.5736Q25.6265 12.1656 25.6265 13.1736Q25.6265 14.1496 26.4265 14.7176Q27.2265 15.2856 28.7625 15.2856ZM47.5816 14.9336Q47.2696 15.4776 46.3576 15.4776Q45.4936 15.4776 45.1736 14.9336Q44.8536 14.3896 44.8536 13.4776L44.8536 13.3496Q44.8536 12.4216 45.1736 11.8856Q45.4936 11.3496 46.3576 11.3496Q46.9656 11.3496 47.2936 11.5896Q47.6216 11.8296 47.7576 12.2776Q47.8936 12.7256 47.8936 13.3496L47.8936 13.4776Q47.8936 14.3896 47.5816 14.9336Z" />
        </g>
      </g>
      <g id="33PERCENTAGE" transform="translate(40.325596 458.1827)">
        <path d="M42.7488 30.8957L73.1544 0.490149" id="Line-5-Copy" fill="none" fill-rule="evenodd" stroke="url(#gradient_1)" stroke-width="1" stroke-linecap="square" />
        <g id="33%" fill="#F4F4F4" transform="translate(0 35.142906)">
          <path d="M18.2633 16.2936Q16.7913 16.2936 15.7913 15.9096Q14.7913 15.5256 14.2873 14.8136Q13.7833 14.1016 13.7833 13.1096L13.7833 12.9336L14.9993 12.9336L14.9993 13.0936Q14.9993 14.1496 15.8073 14.7096Q16.6153 15.2696 18.0393 15.2696Q19.5593 15.2696 20.4473 14.7336Q21.3353 14.1976 21.3353 13.0456Q21.3353 12.2296 20.8953 11.7976Q20.4553 11.3656 19.7513 11.2056Q19.0473 11.0456 18.2313 11.0456L16.6153 11.0456L16.6153 10.0376L18.2633 10.0376Q18.9673 10.0376 19.5993 9.83756Q20.2313 9.63756 20.6393 9.17356Q21.0473 8.70956 21.0473 7.94156Q21.0473 7.26956 20.6793 6.83756Q20.3113 6.40556 19.6873 6.17356Q19.0633 5.94156 18.3273 5.94156Q17.5113 5.94156 16.8153 6.18956Q16.1193 6.43756 15.7033 6.90956Q15.2873 7.38156 15.2873 8.05356L15.2873 8.24556L14.0713 8.24556L14.0713 8.02156Q14.0713 7.12556 14.6153 6.42956Q15.1593 5.73356 16.1193 5.33356Q17.0793 4.93356 18.3273 4.93356Q19.4793 4.93356 20.3753 5.27756Q21.2713 5.62156 21.7833 6.27756Q22.2953 6.93356 22.2953 7.86156Q22.2953 8.61356 21.9993 9.11756Q21.7033 9.62156 21.2393 9.92556Q20.7753 10.2296 20.2473 10.4056L20.2473 10.4696Q21.2713 10.6776 21.9273 11.3416Q22.5833 12.0056 22.5833 13.1576Q22.5833 14.1336 22.0313 14.8376Q21.4793 15.5416 20.5033 15.9176Q19.5273 16.2936 18.2633 16.2936ZM29.0584 16.2936Q27.5864 16.2936 26.5864 15.9096Q25.5864 15.5256 25.0824 14.8136Q24.5784 14.1016 24.5784 13.1096L24.5784 12.9336L25.7944 12.9336L25.7944 13.0936Q25.7944 14.1496 26.6024 14.7096Q27.4104 15.2696 28.8344 15.2696Q30.3544 15.2696 31.2424 14.7336Q32.1304 14.1976 32.1304 13.0456Q32.1304 12.2296 31.6904 11.7976Q31.2504 11.3656 30.5464 11.2056Q29.8424 11.0456 29.0264 11.0456L27.4104 11.0456L27.4104 10.0376L29.0584 10.0376Q29.7624 10.0376 30.3944 9.83756Q31.0264 9.63756 31.4344 9.17356Q31.8424 8.70956 31.8424 7.94156Q31.8424 7.26956 31.4744 6.83756Q31.1064 6.40556 30.4824 6.17356Q29.8584 5.94156 29.1224 5.94156Q28.3064 5.94156 27.6104 6.18956Q26.9144 6.43756 26.4984 6.90956Q26.0824 7.38156 26.0824 8.05356L26.0824 8.24556L24.8664 8.24556L24.8664 8.02156Q24.8664 7.12556 25.4104 6.42956Q25.9544 5.73356 26.9144 5.33356Q27.8744 4.93356 29.1224 4.93356Q30.2744 4.93356 31.1704 5.27756Q32.0664 5.62156 32.5784 6.27756Q33.0904 6.93356 33.0904 7.86156Q33.0904 8.61356 32.7944 9.11756Q32.4984 9.62156 32.0344 9.92556Q31.5704 10.2296 31.0424 10.4056L31.0424 10.4696Q32.0664 10.6776 32.7224 11.3416Q33.3784 12.0056 33.3784 13.1576Q33.3784 14.1336 32.8264 14.8376Q32.2744 15.5416 31.2984 15.9176Q30.3224 16.2936 29.0584 16.2936ZM37.1656 10.4136Q37.7575 10.7096 38.5896 10.7096Q39.4215 10.7096 39.9976 10.4216Q40.5735 10.1336 40.8856 9.49356Q41.1975 8.85356 41.1975 7.82956Q41.1975 6.77356 40.8856 6.14156Q40.5735 5.50956 39.9976 5.22156Q39.4215 4.93356 38.5896 4.93356Q37.7575 4.93356 37.1656 5.22156Q36.5735 5.50956 36.2696 6.14156Q35.9655 6.77356 35.9655 7.82956Q35.9655 8.85356 36.2696 9.48556Q36.5735 10.1176 37.1656 10.4136ZM46.3495 5.12556L37.6455 16.1016L38.8456 16.1016L47.5336 5.12556L46.3495 5.12556ZM39.7976 9.34156Q39.4855 9.87756 38.5896 9.87756Q37.7095 9.87756 37.3895 9.34156Q37.0695 8.80556 37.0695 7.87756L37.0695 7.74956Q37.0695 6.83756 37.3895 6.29356Q37.7095 5.74956 38.5896 5.74956Q39.1815 5.74956 39.5175 5.99756Q39.8535 6.24556 39.9815 6.69356Q40.1096 7.14156 40.1096 7.74956L40.1096 7.87756Q40.1096 8.80556 39.7976 9.34156ZM45.1975 16.0056Q45.7896 16.2936 46.6055 16.2936Q47.4535 16.2936 48.0295 16.0056Q48.6055 15.7176 48.9175 15.0856Q49.2295 14.4536 49.2295 13.4136Q49.2295 12.3736 48.9175 11.7416Q48.6055 11.1096 48.0295 10.8136Q47.4535 10.5176 46.6055 10.5176Q45.7896 10.5176 45.1975 10.8136Q44.6055 11.1096 44.3016 11.7416Q43.9976 12.3736 43.9976 13.4136Q43.9976 14.4536 44.3016 15.0856Q44.6055 15.7176 45.1975 16.0056ZM47.8296 14.9336Q47.5175 15.4776 46.6055 15.4776Q45.7415 15.4776 45.4216 14.9336Q45.1015 14.3896 45.1016 13.4776L45.1016 13.3496Q45.1015 12.4216 45.4216 11.8856Q45.7415 11.3496 46.6055 11.3496Q47.2135 11.3496 47.5415 11.5896Q47.8695 11.8296 48.0056 12.2776Q48.1415 12.7256 48.1415 13.3496L48.1415 13.4776Q48.1415 14.3896 47.8296 14.9336Z" />
        </g>
      </g>
      <g id="19PERCENTAGE" transform="translate(101.32557 39.325603)">
        <path d="M77.0378 44.0357L58.8652 5.06444" id="Line-5-Copy" fill="none" fill-rule="evenodd" stroke="url(#gradient_1)" stroke-width="1" stroke-linecap="square" />
        <g id="19%" fill="#F4F4F4">
          <path d="M28.1144 16.2936Q26.8344 16.2936 26.0024 15.8616Q25.1704 15.4296 24.7704 14.6616Q24.3704 13.8936 24.3704 12.8856L25.5864 12.8856Q25.5864 13.7336 25.8984 14.2536Q26.2104 14.7736 26.8024 15.0216Q27.3944 15.2696 28.1944 15.2696Q29.4264 15.2696 30.1224 14.7176Q30.8184 14.1656 31.1224 13.1096Q31.4264 12.0536 31.4264 10.5496Q31.0904 11.1576 30.5144 11.5336Q29.9384 11.9096 29.2744 12.0776Q28.6104 12.2456 27.9544 12.2456Q26.6264 12.2456 25.7384 11.7656Q24.8504 11.2856 24.4024 10.4776Q23.9544 9.66956 23.9544 8.66156Q23.9544 7.52556 24.5064 6.68556Q25.0584 5.84556 26.0104 5.38956Q26.9624 4.93356 28.1464 4.93356Q29.2184 4.93356 30.0664 5.20556Q30.9144 5.47756 31.4984 6.09356Q32.0824 6.70956 32.3864 7.74156Q32.6904 8.77356 32.6904 10.2936Q32.6904 11.9416 32.3784 13.0936Q32.0664 14.2456 31.4744 14.9496Q30.8824 15.6536 30.0344 15.9736Q29.1864 16.2936 28.1144 16.2936ZM36.4775 10.4136Q37.0695 10.7096 37.9015 10.7096Q38.7335 10.7096 39.3095 10.4216Q39.8855 10.1336 40.1975 9.49356Q40.5095 8.85356 40.5095 7.82956Q40.5095 6.77356 40.1975 6.14156Q39.8855 5.50956 39.3095 5.22156Q38.7335 4.93356 37.9015 4.93356Q37.0695 4.93356 36.4775 5.22156Q35.8855 5.50956 35.5815 6.14156Q35.2775 6.77356 35.2775 7.82956Q35.2775 8.85356 35.5815 9.48556Q35.8855 10.1176 36.4775 10.4136ZM14.7913 16.1016L14.7913 15.0296L18.0553 15.0296L18.0553 7.23756L14.7913 7.23756L14.7913 6.43756Q15.6393 6.38956 16.3193 6.27756Q16.9993 6.16556 17.5993 5.88556Q18.1993 5.60556 18.7433 5.07756L19.2553 5.07756L19.2553 15.0296L22.3113 15.0296L22.3113 16.1016L14.7913 16.1016ZM45.6615 5.12556L36.9575 16.1016L38.1575 16.1016L46.8455 5.12556L45.6615 5.12556ZM39.1095 9.34156Q38.7975 9.87756 37.9015 9.87756Q37.0215 9.87756 36.7015 9.34156Q36.3815 8.80556 36.3815 7.87756L36.3815 7.74956Q36.3815 6.83756 36.7015 6.29356Q37.0215 5.74956 37.9015 5.74956Q38.4935 5.74956 38.8295 5.99756Q39.1655 6.24556 39.2935 6.69356Q39.4215 7.14156 39.4215 7.74956L39.4215 7.87756Q39.4215 8.80556 39.1095 9.34156ZM28.1944 11.2376Q29.2024 11.2376 29.8904 10.8696Q30.5784 10.5016 30.9224 9.89356Q31.2664 9.28556 31.2664 8.54956Q31.2664 7.84556 30.9304 7.25356Q30.5944 6.66156 29.9224 6.30156Q29.2504 5.94156 28.2424 5.94156Q27.2504 5.94156 26.5704 6.30156Q25.8904 6.66156 25.5464 7.27756Q25.2024 7.89356 25.2024 8.66156Q25.2024 9.34956 25.5224 9.93356Q25.8424 10.5176 26.4984 10.8776Q27.1544 11.2376 28.1944 11.2376ZM44.5095 16.0056Q45.1015 16.2936 45.9175 16.2936Q46.7655 16.2936 47.3415 16.0056Q47.9175 15.7176 48.2295 15.0856Q48.5415 14.4536 48.5415 13.4136Q48.5415 12.3736 48.2295 11.7416Q47.9175 11.1096 47.3415 10.8136Q46.7655 10.5176 45.9175 10.5176Q45.1015 10.5176 44.5095 10.8136Q43.9175 11.1096 43.6135 11.7416Q43.3095 12.3736 43.3095 13.4136Q43.3095 14.4536 43.6135 15.0856Q43.9175 15.7176 44.5095 16.0056ZM47.1415 14.9336Q46.8295 15.4776 45.9175 15.4776Q45.0535 15.4776 44.7335 14.9336Q44.4135 14.3896 44.4135 13.4776L44.4135 13.3496Q44.4135 12.4216 44.7335 11.8856Q45.0535 11.3496 45.9175 11.3496Q46.5255 11.3496 46.8535 11.5896Q47.1815 11.8296 47.3175 12.2776Q47.4535 12.7256 47.4535 13.3496L47.4535 13.4776Q47.4535 14.3896 47.1415 14.9336Z" />
        </g>
      </g>
    </g>
  </g>
</svg>