<?xml version="1.0" encoding="utf-8"?>
<svg width="112px" height="25px" viewBox="0 0 112 25" version="1.1" xmlns:xlink="http://www.w3.org/1999/xlink" xmlns="http://www.w3.org/2000/svg">
  <defs>
    <linearGradient x1="-5.683147" y1="-0.51060927" x2="11.688312" y2="2.3049867" id="gradient_1">
      <stop offset="0" stop-color="#F4F4F4" />
      <stop offset="0.005156653" stop-color="#F4F1F0" />
      <stop offset="0.07841632" stop-color="#F6D0B8" />
      <stop offset="0.154" stop-color="#F8B387" />
      <stop offset="0.2304" stop-color="#F99B5E" />
      <stop offset="0.3077" stop-color="#FA863C" />
      <stop offset="0.3863" stop-color="#FB7721" />
      <stop offset="0.4667" stop-color="#FC6C0F" />
      <stop offset="0.5499" stop-color="#FC6504" />
      <stop offset="0.6405" stop-color="#FC6300" />
      <stop offset="1" stop-color="#C90099" />
    </linearGradient>
    <linearGradient x1="-5.2032065" y1="-0.7806733" x2="7.4200535" y2="2.0536933" id="gradient_2">
      <stop offset="0" stop-color="#F4F4F4" />
      <stop offset="0.07490459" stop-color="#F6D3BC" />
      <stop offset="0.1516" stop-color="#F7B58B" />
      <stop offset="0.2304" stop-color="#F99C60" />
      <stop offset="0.3097" stop-color="#FA873D" />
      <stop offset="0.3898" stop-color="#FB7722" />
      <stop offset="0.4709" stop-color="#FB6C0F" />
      <stop offset="0.5537" stop-color="#FC6504" />
      <stop offset="0.641" stop-color="#FC6300" />
      <stop offset="1" stop-color="#C90099" />
    </linearGradient>
    <linearGradient x1="-9.93929" y1="-1.1162928" x2="8.99559" y2="1.9205285" id="gradient_3">
      <stop offset="0" stop-color="#F4F4F4" />
      <stop offset="0.07549835" stop-color="#F6D3BC" />
      <stop offset="0.1521" stop-color="#F7B58A" />
      <stop offset="0.2307" stop-color="#F99C60" />
      <stop offset="0.3098" stop-color="#FA873D" />
      <stop offset="0.3898" stop-color="#FB7722" />
      <stop offset="0.471" stop-color="#FC6C0F" />
      <stop offset="0.5539" stop-color="#FC6504" />
      <stop offset="0.6416" stop-color="#FC6300" />
      <stop offset="1" stop-color="#C90099" />
    </linearGradient>
    <linearGradient x1="-38.523834" y1="-1.3776214" x2="24.592466" y2="1.6592" id="gradient_4">
      <stop offset="0" stop-color="#F4F4F4" />
      <stop offset="0.06750132" stop-color="#F6D3BC" />
      <stop offset="0.1361" stop-color="#F7B58A" />
      <stop offset="0.2066" stop-color="#F99C60" />
      <stop offset="0.2775" stop-color="#FA873D" />
      <stop offset="0.3492" stop-color="#FB7722" />
      <stop offset="0.4219" stop-color="#FB6C0F" />
      <stop offset="0.4962" stop-color="#FC6504" />
      <stop offset="0.5747" stop-color="#FC6300" />
      <stop offset="0.9858" stop-color="#C90099" />
    </linearGradient>
    <linearGradient x1="-11.553565" y1="-1.4382848" x2="5.9419723" y2="1.3714106" id="gradient_5">
      <stop offset="0" stop-color="#F4F4F4" />
      <stop offset="0.07511932" stop-color="#F6D3BC" />
      <stop offset="0.1517" stop-color="#F7B58B" />
      <stop offset="0.2303" stop-color="#F99C60" />
      <stop offset="0.3095" stop-color="#FA873D" />
      <stop offset="0.3895" stop-color="#FB7722" />
      <stop offset="0.4706" stop-color="#FB6C0F" />
      <stop offset="0.5534" stop-color="#FC6504" />
      <stop offset="0.6408" stop-color="#FC6300" />
      <stop offset="0.9921" stop-color="#C90099" />
    </linearGradient>
    <linearGradient x1="-1.1143426" y1="0.13459678" x2="6.364047" y2="1.8543831" id="gradient_6">
      <stop offset="0" stop-color="#F4F4F4" />
      <stop offset="0.007577981" stop-color="#F4F0EE" />
      <stop offset="0.07965526" stop-color="#F6D0B7" />
      <stop offset="0.1542" stop-color="#F8B386" />
      <stop offset="0.2295" stop-color="#F99A5D" />
      <stop offset="0.306" stop-color="#FA863B" />
      <stop offset="0.3839" stop-color="#FB7721" />
      <stop offset="0.4638" stop-color="#FC6C0F" />
      <stop offset="0.5468" stop-color="#FC6504" />
      <stop offset="0.6383" stop-color="#FC6300" />
      <stop offset="0.9942" stop-color="#C90099" />
    </linearGradient>
  </defs>
  <g id="solis-logo-nav">
    <path d="M35 17.3L36.9 15.6C37.1 15.9 37.4 16.1 37.8 16.4C38.1 16.7 38.5 17 39 17.2C39.5 17.4 40 17.5 40.6 17.5C41.5 17.5 42.1 17.3 42.5 16.9C42.9 16.5 43.1 16.1 43.1 15.5C43.1 14.9 42.8 14.4 42.3 14.1C41.8 13.8 40.9 13.5 39.5 13.2C38.6 13 37.9 12.7 37.3 12.3C36.7 11.9 36.3 11.4 36 10.8C35.7 10.2 35.6 9.6 35.6 9C35.6 8.3 35.8 7.6 36.2 7C36.7 6.5 37.3 6 38 5.6C38.8 5.2 39.7 5 40.9 5C41.7 5 42.3 5.1 42.9 5.2C43.5 5.4 43.9 5.6 44.3 5.8C44.7 6 45 6.3 45.2 6.5C45.4 6.7 45.6 6.9 45.6 7L43.8 8.7C43.7 8.6 43.5 8.5 43.3 8.3C43 8.1 42.7 7.9 42.3 7.7C41.9 7.5 41.4 7.4 40.8 7.4C40 7.4 39.5 7.6 39.1 7.9C38.7 8.3 38.6 8.6 38.6 9C38.6 9.5 38.8 9.9 39.2 10.2C39.6 10.5 40.4 10.8 41.6 11C42.4 11.2 43.1 11.4 43.7 11.8C44.4 12.1 44.9 12.6 45.3 13.3C45.7 13.9 45.9 14.7 45.9 15.7C45.9 16.5 45.7 17.3 45.2 17.9C44.7 18.6 44.1 19.1 43.3 19.5C42.5 19.9 41.6 20.1 40.6 20.1C39.6 20.1 38.8 20 38 19.7C37.2 19.4 36.6 19.1 36.1 18.6C35.7 18.1 35.3 17.7 35 17.3Z" id="Path" fill="url(#gradient_1)" stroke="none" />
    <path d="M59.5 20C58.4 20 57.5 19.8 56.6 19.4C55.7 19 54.9 18.5 54.2 17.8C53.5 17.1 53 16.3 52.6 15.4C52.2 14.5 52 13.5 52 12.5C52 11.5 52.2 10.5 52.6 9.6C53 8.7 53.5 7.9 54.2 7.2C54.9 6.5 55.7 6 56.6 5.6C57.5 5.2 58.4 5 59.5 5C60.6 5 61.5 5.2 62.4 5.6C63.3 6 64.1 6.5 64.8 7.2C65.5 7.9 66 8.7 66.4 9.6C66.8 10.5 67 11.5 67 12.5C67 13.5 66.8 14.5 66.4 15.4C66 16.3 65.5 17.1 64.8 17.8C64.1 18.5 63.3 19 62.4 19.4C61.5 19.8 60.6 20 59.5 20ZM59.5 17.5C60.5 17.5 61.3 17.3 62 16.8C62.7 16.3 63.2 15.7 63.6 15C64 14.2 64.2 13.4 64.2 12.5C64.2 11.6 64 10.8 63.6 10C63.2 9.2 62.7 8.6 62 8.2C61.3 7.7 60.5 7.5 59.5 7.5C58.5 7.5 57.7 7.7 57 8.1C56.3 8.6 55.8 9.2 55.4 9.9C55 10.7 54.8 11.5 54.8 12.4C54.8 13.3 55 14.1 55.4 14.9C55.8 15.7 56.3 16.3 57 16.7C57.7 17.2 58.5 17.5 59.5 17.5L59.5 17.5Z" id="Shape" fill="url(#gradient_2)" stroke="none" />
    <path d="M74 20L74 6L76.8 6L76.8 17.6L84 17.6L84 20L74 20Z" id="Path_00000117636197325317304090000017127019377726488998_" fill="url(#gradient_3)" stroke="none" />
    <path d="M91 20L91 6L94 6L94 20L91 20Z" id="Path_00000124855234980515898770000006643953244805595051_" fill="url(#gradient_4)" stroke="none" />
    <path d="M101 17.3L102.9 15.6C103.1 15.9 103.4 16.1 103.8 16.4C104.2 16.7 104.5 17 105 17.2C105.5 17.4 106 17.5 106.6 17.5C107.5 17.5 108.1 17.3 108.5 16.9C108.9 16.5 109.1 16.1 109.1 15.5C109.1 14.9 108.8 14.4 108.3 14.1C107.8 13.8 106.9 13.5 105.5 13.2C104.6 13 103.9 12.7 103.3 12.3C102.7 11.9 102.3 11.4 102 10.8C101.7 10.2 101.6 9.6 101.6 9C101.6 8.3 101.8 7.6 102.2 7C102.6 6.4 103.1 5.9 103.9 5.5C104.7 5.1 105.6 4.9 106.8 4.9C107.6 4.9 108.2 5 108.8 5.1C109.4 5.3 109.8 5.5 110.2 5.7C110.6 5.9 110.9 6.2 111.1 6.4C111.3 6.6 111.5 6.8 111.5 6.9L109.7 8.6C109.6 8.5 109.4 8.4 109.2 8.2C108.9 8 108.6 7.8 108.2 7.6C107.8 7.4 107.3 7.3 106.7 7.3C105.9 7.3 105.4 7.5 105 7.8C104.6 8.1 104.5 8.5 104.5 8.9C104.5 9.4 104.7 9.8 105.1 10.1C105.5 10.4 106.3 10.7 107.5 10.9C108.3 11.1 109 11.3 109.6 11.7C110.3 12 110.8 12.5 111.2 13.2C111.6 13.8 111.8 14.6 111.8 15.6C111.8 16.4 111.6 17.2 111.1 17.8C110.6 18.5 110 19 109.2 19.4C108.4 19.8 107.5 20 106.5 20C105.5 20 104.7 19.9 103.9 19.6C103.2 19.3 102.5 19 102 18.5C101.7 18.1 101.3 17.7 101 17.3Z" id="Path_00000146492666367408360190000004394986372044080029_" fill="url(#gradient_5)" stroke="none" />
    <path d="M25 11.5C24.5 11.5 23.8 11.6 23 11.6C22.3 11.6 21.6 11.6 21.1 11.6C20.5 11.6 19.9 11.6 19.4 11.6C17.9 11.6 16.1 11.7 14.9 11.9C14.4 12 13.8 12.1 13.3 12.4L13.3 12.4C13.2 12.1 13 11.7 13 11.6L13 11.6C13 11.6 13.1 11.3 14.2 11.1L14.2 11.1C15.3 10.9 17.1 10.8 18.5 10.8C18.9 10.8 19.6 10.8 20.3 10.8C21.3 10.8 22.1 10.8 22.9 10.8C23.7 10.8 24.4 10.8 24.9 10.7C24.8 10.3 24.8 9.9 24.7 9.5C24.2 9.5 23.5 9.6 22.7 9.6C21.9 9.6 21.1 9.6 20.4 9.6C19.7 9.6 19.1 9.6 18.6 9.6C17.1 9.6 15.3 9.7 14.1 9.9C13.5 10 12.8 10.2 12.3 10.6C12.3 10.6 12.3 10.6 12.3 10.6C12.3 10.6 12.3 10.5 12.2 10.5C12.1 10.1 12 9.7 12 9.6L12 9.6C12 9.6 12.1 9.3 13.2 9.1L13.2 9.1C14.3 8.9 16.1 8.8 17.5 8.8C17.7 8.8 17.9 8.8 18.2 8.8C19.7 8.8 21.1 8.7 22.3 8.7C23.2 8.7 23.9 8.6 24.3 8.5C24.3 8.4 24.2 8.3 24.2 8.2C24.1 7.9 24 7.6 23.8 7.3C22 3.1 17.8 0.3 13.2 0C13 0 12.8 0 12.5 0C9.3 0 6.2 1.2 3.9 3.4C1.6 5.6 0.2 8.6 0 11.8C0 12 0 12.2 0 12.4C0 12.8 0 13.2 0.1 13.6C0.7 13.6 1.3 13.6 2.1 13.6C2.5 13.6 2.8 13.6 3.2 13.6C3.6 13.6 4.1 13.6 4.5 13.6C6.3 13.6 8.4 13.6 9.8 13.4C11 13.3 11.8 13 12.2 12.6C12.2 12.7 12.2 12.7 12.3 12.8C12.3 12.8 12.3 12.9 12.4 12.9C12.5 13.1 12.7 13.5 12.6 13.6L12.6 13.6C12.6 13.7 12.3 14 10.8 14.2L10.8 14.2C9.5 14.4 7.4 14.4 5.7 14.4C5.4 14.4 5.2 14.4 4.9 14.4C4.1 14.4 3.2 14.4 2.3 14.4C1.6 14.4 0.9 14.4 0.3 14.5C0.4 14.9 0.5 15.3 0.6 15.7C1.2 15.7 1.9 15.6 2.6 15.6C3.3 15.6 4.1 15.6 4.8 15.6C5.1 15.6 5.3 15.6 5.6 15.6C7.4 15.6 9.5 15.6 10.9 15.4C11.9 15.3 12.7 15.1 13.2 14.7L13.2 14.7C13.2 14.7 13.2 14.8 13.3 14.8C13.4 15 13.6 15.4 13.5 15.5L13.5 15.5C13.5 15.6 13.2 15.9 11.7 16.1L11.7 16.1C10.4 16.3 8.3 16.3 6.6 16.3C6.4 16.3 6.1 16.3 5.8 16.3C4.9 16.3 3.9 16.3 3 16.3C2.2 16.3 1.5 16.3 1 16.4C1 16.5 1 16.5 1.1 16.6C1.2 16.9 1.4 17.3 1.5 17.6C3.4 21.8 7.6 24.6 12.2 24.8C12.4 24.8 12.6 24.8 12.9 24.8C16.1 24.8 19.2 23.6 21.5 21.4C23.8 19.2 25.2 16.2 25.4 13C25.4 12.8 25.4 12.7 25.4 12.5C25 12.3 25 11.9 25 11.5ZM11.4 11.7L11.4 11.7C11.4 11.8 11.1 12.1 9.6 12.3L9.6 12.3C8.3 12.5 6.2 12.5 4.5 12.5C4.1 12.5 3.6 12.5 3.2 12.5C2.8 12.5 2.4 12.5 2 12.5C2 12.3 2 12.2 2 12C2.3 6.4 7 2 12.5 2L12.5 2C12.7 2 12.9 2 13.1 2C16.9 2.2 20.1 4.4 21.8 7.5C20.5 7.5 19.1 7.6 18.2 7.6C17.9 7.6 17.7 7.6 17.5 7.6C16 7.6 14.2 7.7 13 7.9C12.2 8 11.1 8.3 10.8 9.2C10.6 9.8 10.9 10.4 11.1 10.9C11.1 10.9 11.1 11 11.2 11C11.3 11.2 11.5 11.6 11.4 11.7ZM23 13.1C22.7 18.7 18 23.1 12.5 23.1C12.3 23.1 12.1 23.1 11.9 23.1C8.2 22.9 5 20.8 3.3 17.8C4 17.8 4.8 17.8 5.5 17.8C5.8 17.8 6 17.8 6.3 17.8C8.1 17.8 10.2 17.8 11.6 17.6C13.1 17.4 13.9 17.1 14.3 16.5C14.8 15.8 14.4 15 14.2 14.6C14.2 14.6 14.2 14.5 14.1 14.5C14 14.2 13.8 13.8 13.8 13.7L13.8 13.7C13.8 13.7 13.9 13.4 15 13.2L15 13.2C16.1 13 17.9 12.9 19.3 12.9C19.7 12.9 20.3 12.9 21 12.9C21.7 12.9 22.4 12.9 23 12.9C23 12.9 23 13 23 13.1Z" id="Shape_00000062169932493127285690000002898482339613602976_" fill="url(#gradient_6)" stroke="none" />
  </g>
</svg>