<?xml version="1.0" encoding="utf-8"?>
<!-- Generator: Adobe Illustrator 26.0.1, SVG Export Plug-In . SVG Version: 6.00 Build 0)  -->
<svg width="161px" version="1.1" id="Layer_1" xmlns="http://www.w3.org/2000/svg" xmlns:xlink="http://www.w3.org/1999/xlink" x="0px" y="0px"
	 viewBox="0 0 160 35" style="enable-background:new 0 0 160 35;" xml:space="preserve">
<style type="text/css">
	.st0{fill:url(#SVGID_1_);}
	.st1{fill:url(#SVGID_00000084492375118409049710000001471911664229902762_);}
	.st2{fill:#8E8E8E;}
	.st3{fill:url(#SVGID_00000080920847671204528750000004924019684071902600_);}
	.st4{fill:url(#SVGID_00000178202464735785086210000008241640026865933208_);}
	.st5{fill:url(#SVGID_00000099623888665014374660000015381818039396986527_);}
	.st6{fill:url(#SVGID_00000096038587651548345390000010330236970922299289_);}
	.st7{fill:url(#SVGID_00000121264269649519101850000007425040035480679072_);}
	.st8{fill:url(#SVGID_00000103979187931487812510000008068147382446103962_);}
	.st9{fill:#C90099;}
	.st10{fill:#FC6300;}
	.st11{fill:#F4F4F4;}
</style>
<g id="R4">
	<g id="solis-landing-V2_dark" transform="translate(-327.000000, -1799.000000)">
		<g id="How-we-do-it" transform="translate(136.000000, 1450.000000)">
			<g id="SOLIS-LABS-BODY" transform="translate(191.588652, 309.000000)">
				<g>
					<linearGradient id="SVGID_1_" gradientUnits="userSpaceOnUse" x1="-43.4036" y1="31.3185" x2="205.4952" y2="133.2431">
						<stop  offset="0" style="stop-color:#F4F4F4"/>
						<stop  offset="0.4924" style="stop-color:#FC6300"/>
						<stop  offset="1" style="stop-color:#C90099"/>
					</linearGradient>
					<path class="st0" d="M29.2,75c-3.2-1.6-6.3-3.5-9.5-5.3c-0.9-0.5-1.3-1.2-1.3-2.2c0-1,0-1.9,0-2.9c0-0.3,0.1-0.5,0.4-0.7
						c1-0.6,2.1-1.2,3.1-1.8c0.4-0.2,0.6-0.2,0.5,0.3c0,0.9,0,1.8,0,2.6c0,1,0.4,1.8,1.3,2.3c1.5,0.8,3,1.7,4.5,2.5
						c0.9,0.5,1.8,0.5,2.7,0c1.5-0.9,2.9-1.7,4.4-2.6c0.9-0.5,1.3-1.3,1.3-2.3c0-1.6,0-3.3,0-4.9c0-1.1-0.4-1.9-1.4-2.4
						c-1.5-0.8-3-1.7-4.5-2.5c-0.9-0.5-1.9-0.4-2.8,0.1C23.1,58.3,18,61.1,13,64c-1.1,0.6-2.2,0.7-3.3,0c-2.6-1.5-5.2-3-7.8-4.4
						c-1.2-0.7-1.8-1.6-1.7-3c0.1-3,0-6,0-9c0-1.1,0.4-1.8,1.3-2.4c2.8-1.6,5.6-3.2,8.4-4.8c0.3-0.2,0.6-0.3,1-0.4
						c0.3,0,0.6,0,0.9,0c3.2,1.6,6.3,3.6,9.4,5.3c0.8,0.4,1.1,1.1,1.1,2c0,1,0,2,0,3c0,0.4-0.1,0.6-0.4,0.7c-1,0.6-2,1.1-3,1.7
						c-0.4,0.3-0.6,0.2-0.6-0.3c0-0.9,0-1.7,0-2.6c0-1-0.4-1.8-1.3-2.3c-1.5-0.8-2.9-1.7-4.4-2.5c-1-0.5-1.9-0.5-2.9,0
						c-1.4,0.8-2.9,1.6-4.3,2.5c-0.9,0.5-1.3,1.2-1.3,2.3c0,1.7,0,3.3,0,5c0,1.1,0.4,1.8,1.4,2.4c1.5,0.9,3,1.7,4.5,2.6
						c0.9,0.5,1.8,0.5,2.7,0c5-2.9,10-5.7,14.9-8.6c1.3-0.8,2.5-0.8,3.8,0c2.6,1.5,5.1,3,7.7,4.4c1.2,0.6,1.7,1.6,1.7,2.9
						c0,3,0,6,0,8.9c0,1.2-0.5,2-1.5,2.5c-2.8,1.6-5.6,3.2-8.5,4.7c-0.3,0.2-0.6,0.3-1,0.4C29.7,75,29.5,75,29.2,75z"/>
					
						<linearGradient id="SVGID_00000016793386817057108330000013918177126756145054_" gradientUnits="userSpaceOnUse" x1="-24.6581" y1="-14.4576" x2="224.2406" y2="87.467">
						<stop  offset="0" style="stop-color:#F4F4F4"/>
						<stop  offset="0.4924" style="stop-color:#FC6300"/>
						<stop  offset="1" style="stop-color:#C90099"/>
					</linearGradient>
					<path style="fill:url(#SVGID_00000016793386817057108330000013918177126756145054_);" d="M159.3,64.4c-1.3,0-2.5,0-3.8,0
						c-0.5,0-0.6-0.2-0.6-0.7c0-2.4,0-4.7,0-7.1c0-0.1,0-0.2,0-0.3c0-1.4-0.4-2.1-1.3-2.4c-1.2-0.3-2.5,0.2-3.1,1.2
						c-0.7,1.1-1,2.4-1,3.7c0,1.6,0,3.2,0,4.8c0,0.5-0.1,0.7-0.6,0.7c-1,0-2.1,0-3.1,0c-0.4,0-0.6-0.1-0.6-0.6c0-4.1,0-8.2,0-12.4
						c0-0.5,0.2-0.6,0.6-0.6c1,0,1.9,0,2.9,0c0.4,0,0.6,0.1,0.6,0.5c0,0.5,0.1,0.9,0.2,1.6c1.3-1.9,3.1-2.8,5.3-2.7
						c2.3,0,3.9,1,4.6,3.3C159.3,57.2,159.3,60.8,159.3,64.4z"/>
					<path class="st2" d="M89.8,40c0,0.1,0,0.1,0,0.2c-1.4,0-2.9,0-4.3,0c0-0.1,0-0.1,0-0.2C86.9,40,88.4,40,89.8,40z"/>
					
						<linearGradient id="SVGID_00000082340237558521048220000004056862639575431862_" gradientUnits="userSpaceOnUse" x1="-30.4958" y1="-0.2021" x2="218.403" y2="101.7225">
						<stop  offset="0" style="stop-color:#F4F4F4"/>
						<stop  offset="0.4924" style="stop-color:#FC6300"/>
						<stop  offset="1" style="stop-color:#C90099"/>
					</linearGradient>
					<path style="fill:url(#SVGID_00000082340237558521048220000004056862639575431862_);" d="M119.9,62.4c-1.4,1.7-3.2,2.3-5.1,2.3
						c-2.8,0-4.9-1.4-6.2-3.9c-1.4-2.7-1.1-5.4,0.7-7.8c2.4-3.2,6.9-3.8,10.1-1.4c0.3,0.2,0.4,0.2,0.5-0.1c0.1-0.5,0.5-0.6,1-0.6
						c0.9,0,1.9,0,2.8,0c0.4,0,0.5,0.1,0.5,0.5c0,4.5,0.1,8.9,0,13.4c-0.1,2.7-1.8,4.5-4.1,5.5c-3.6,1.6-7.2,1.2-10.4-1.3
						c-0.4-0.3-0.6-0.6-0.1-1c0.6-0.6,1.2-1.3,1.7-2c0.3-0.4,0.5-0.3,0.8,0c1.8,1.4,3.8,1.9,5.9,1c1.2-0.5,1.7-1.4,1.7-2.7
						C119.9,63.7,119.9,63.1,119.9,62.4z M119.9,57.6c-0.1-0.6,0.2-1.3-0.1-2c-0.8-1.4-2.2-1.9-3.8-1.8c-1.7,0.1-3.1,1.1-3.5,2.5
						c-0.4,1.5-0.1,2.9,1.1,4c1.4,1.2,3,1.2,4.6,0.5C119.6,60.2,120.3,59.1,119.9,57.6z"/>
					
						<linearGradient id="SVGID_00000012433532593908677730000005196601083597910659_" gradientUnits="userSpaceOnUse" x1="-39.4918" y1="21.7659" x2="209.407" y2="123.6905">
						<stop  offset="0" style="stop-color:#F4F4F4"/>
						<stop  offset="0.4924" style="stop-color:#FC6300"/>
					</linearGradient>
					<path style="fill:url(#SVGID_00000012433532593908677730000005196601083597910659_);" d="M53.6,52.1c3.9-2.9,8-2.4,10.2,0.2
						c2.3,2.6,2.3,7.4,0.1,10c-2.3,2.7-6.7,3.1-10,0.9c-0.2,0.2-0.1,0.5-0.1,0.7c0,2,0,4.1,0,6.1c0,0.5-0.1,0.7-0.6,0.7
						c-1,0-2-0.1-3,0c-0.6,0-0.7-0.2-0.7-0.7c0-4.5,0-9,0-13.4c0-1.8,0-3.6,0-5.4c0-0.6,0.1-0.8,0.7-0.7c0.7,0.1,1.5,0.1,2.2,0
						c0.6-0.1,1,0.1,1,0.8C53.5,51.6,53.6,51.8,53.6,52.1z M53.9,57.3c0,1.2-0.1,2.2,0.7,3c1.7,1.8,5.4,1.1,6.3-1.3
						c0.5-1.5,0.2-3.2-1-4.3c-1.2-1.1-2.7-1.1-4.1-0.5C54.3,54.8,53.6,55.9,53.9,57.3z"/>
					
						<linearGradient id="SVGID_00000002365892859462535530000007943499314569130381_" gradientUnits="userSpaceOnUse" x1="-26.9791" y1="-8.7899" x2="221.9197" y2="93.1348">
						<stop  offset="0" style="stop-color:#F4F4F4"/>
						<stop  offset="0.4924" style="stop-color:#FC6300"/>
						<stop  offset="1" style="stop-color:#C90099"/>
					</linearGradient>
					<path style="fill:url(#SVGID_00000002365892859462535530000007943499314569130381_);" d="M142.5,56.7c0,4.6-2.6,7.4-6.4,7.9
						c-2.3,0.3-4.5,0-6.4-1.4c-2.3-1.7-3-4-2.7-6.8c0.4-2.8,2-4.6,4.6-5.6c3.3-1.2,6.9-0.4,9.1,1.9C142,54,142.5,55.7,142.5,56.7z
						 M138,57.5c0-1.5-0.5-2.8-2-3.4c-1.2-0.5-2.7-0.2-3.7,0.8c-1.2,1.3-1.2,3.5-0.1,5.1c0.5,0.7,1.2,1.1,2.1,1.2
						C136.5,61.3,138,59.8,138,57.5z"/>
					
						<linearGradient id="SVGID_00000098926027996303233170000007636940178494806436_" gradientUnits="userSpaceOnUse" x1="-35.5966" y1="12.2539" x2="213.3022" y2="114.1785">
						<stop  offset="0" style="stop-color:#F4F4F4"/>
						<stop  offset="0.4924" style="stop-color:#FC6300"/>
						<stop  offset="1" style="stop-color:#C90099"/>
					</linearGradient>
					<path style="fill:url(#SVGID_00000098926027996303233170000007636940178494806436_);" d="M75,50.3c3.7,0,6.7,2.1,7.5,5.2
						c1.3,4.7-1.9,9-6.9,9.2c-2.7,0.1-5.2-0.5-7-2.8c-3.3-4.3-0.7-10.5,4.7-11.4C73.9,50.3,74.5,50.2,75,50.3z M78.3,57.5
						c0-2.1-1.2-3.6-3.1-3.8c-1.7-0.2-3.2,1.1-3.5,3c-0.3,1.9,0.6,3.7,2.2,4.3C76.2,61.8,78.3,60.1,78.3,57.5z"/>
					
						<linearGradient id="SVGID_00000099656631051554875410000008649897294080665728_" gradientUnits="userSpaceOnUse" x1="-33.014" y1="5.9474" x2="215.8847" y2="107.872">
						<stop  offset="0" style="stop-color:#F4F4F4"/>
						<stop  offset="0.4924" style="stop-color:#FC6300"/>
						<stop  offset="1" style="stop-color:#C90099"/>
					</linearGradient>
					<path style="fill:url(#SVGID_00000099656631051554875410000008649897294080665728_);" d="M94.6,70.9c1.1-2.3,2-4.5,3-6.6
						c0.2-0.5,0.2-0.8,0-1.2c-1.9-3.8-3.8-7.6-5.6-11.4c-0.1-0.2-0.3-0.4-0.3-0.8c1.5,0,3,0,4.5,0c0.4,0,0.5,0.3,0.6,0.6
						c1.1,2.4,2.2,4.8,3.3,7.4c0.5-1,0.9-1.9,1.3-2.8c0.7-1.6,1.4-3.1,2.1-4.7c0.2-0.4,0.4-0.5,0.8-0.5c1.1,0,2.2,0,3.3,0
						c-0.9,2-1.7,3.8-2.5,5.7c-2,4.6-4.1,9.1-6.1,13.7c-0.2,0.5-0.4,0.7-1,0.6C97,70.8,95.9,70.9,94.6,70.9z"/>
					
						<linearGradient id="SVGID_00000163764479942701807920000017006627226926347961_" gradientUnits="userSpaceOnUse" x1="-31.913" y1="3.2587" x2="216.9858" y2="105.1833">
						<stop  offset="0" style="stop-color:#F4F4F4"/>
						<stop  offset="0.4924" style="stop-color:#FC6300"/>
						<stop  offset="1" style="stop-color:#C90099"/>
					</linearGradient>
					<path style="fill:url(#SVGID_00000163764479942701807920000017006627226926347961_);" d="M85.5,40.2c1.4,0,2.9,0,4.3,0
						c0,7.9,0,15.8,0,23.7c0,0.5-0.2,0.5-0.6,0.5c-1,0-2,0-3,0c-0.6,0-0.8-0.2-0.8-0.8c0-7.2,0-14.5,0-21.7
						C85.5,41.3,85.5,40.8,85.5,40.2z"/>
				</g>
			</g>
		</g>
	</g>
</g>
<rect x="-497" y="-168" class="st9" width="185.5" height="185.5"/>
<rect x="-497" y="40" class="st10" width="185.5" height="185.5"/>
<rect x="-497" y="237" class="st11" width="185.5" height="185.5"/>
</svg>
