<?xml version="1.0" encoding="utf-8"?>
<svg width="96px" height="96px" viewBox="0 0 96 96" version="1.1" xmlns:xlink="http://www.w3.org/1999/xlink" xmlns="http://www.w3.org/2000/svg">
  <defs>
    <linearGradient x1="2.9560518" y1="2.184877" x2="-0.39412412" y2="-0.36732808" id="gradient_1">
      <stop offset="0" stop-color="#C90099" />
      <stop offset="0.078143775" stop-color="#C90099" />
      <stop offset="0.7419974" stop-color="#F67622" />
      <stop offset="1" stop-color="#D8D8D8" />
    </linearGradient>
  </defs>
  <g id="global--currency-copy">
    <path d="M94.3606 0.948185L2.05292 0.948185C1.44062 0.948185 0.945231 1.4453 0.945231 2.05975L0.945231 51.4626C0.945231 52.077 1.44062 52.5742 2.05292 52.5742L94.3606 52.5742C94.9729 52.5742 95.4683 52.077 95.4683 51.4626L95.4683 2.05975C95.4683 1.4453 94.9729 0.948185 94.3606 0.948185ZM93.2529 13.1816C87.976 12.6505 83.8068 8.46668 83.2745 3.17131L93.2529 3.17131L93.2529 13.1816ZM93.2529 15.4016L93.2529 38.1053C86.7514 38.6518 81.5975 43.8237 81.056 50.351L15.3575 50.351C14.8191 43.8237 9.66523 38.6518 3.16062 38.1053L3.16062 15.4016C9.65908 14.8582 14.8098 9.6894 15.3545 3.16822L81.056 3.16822C81.6037 9.69249 86.7545 14.8582 93.2529 15.4016ZM13.1422 3.17131C12.6098 8.46668 8.44062 12.6505 3.16062 13.1816L3.16062 3.17131L13.1422 3.17131ZM3.16062 40.3284C8.44369 40.8595 12.616 45.0495 13.1422 50.351L3.16062 50.351L3.16062 40.3284ZM83.2745 50.351C83.8006 45.0495 87.9729 40.8595 93.2529 40.3284L93.2529 50.351L83.2745 50.351ZM15.8991 21.0119C12.7452 21.0119 10.176 23.5901 10.176 26.755C10.176 29.9199 12.7422 32.4981 15.8991 32.4981C19.056 32.4981 21.6222 29.9199 21.6222 26.755C21.6222 23.5901 19.0529 21.0119 15.8991 21.0119ZM15.8991 30.2749C13.9668 30.2749 12.3914 28.6941 12.3914 26.755C12.3914 24.8159 13.9668 23.235 15.8991 23.235C17.8314 23.235 19.4068 24.8159 19.4068 26.755C19.4068 28.6941 17.8314 30.2749 15.8991 30.2749ZM80.5145 21.0119C77.3606 21.0119 74.7914 23.587 74.7914 26.755C74.7914 29.923 77.3606 32.4981 80.5145 32.4981C83.6683 32.4981 86.2375 29.923 86.2375 26.755C86.2375 23.587 83.6683 21.0119 80.5145 21.0119ZM80.5145 30.2749C78.5791 30.2749 77.0068 28.6941 77.0068 26.755C77.0068 24.8159 78.5791 23.235 80.5145 23.235C82.4498 23.235 84.0221 24.8159 84.0221 26.755C84.0221 28.6941 82.4498 30.2749 80.5145 30.2749ZM81.5637 61.2166C83.6898 63.3532 83.6868 66.83 81.5637 68.9666L62.8991 87.8046C61.7606 88.9439 60.2622 89.6788 58.6714 89.8826L36.416 92.6522L33.6068 95.4713L32.0406 93.8965L35.1175 90.8089C35.2929 90.6329 35.5175 90.5217 35.7637 90.4908L58.3975 87.6718C59.4991 87.5328 60.5422 87.0203 61.3329 86.2298L79.9945 67.3919C81.2591 66.1229 81.2591 64.0572 79.9945 62.7851C78.8468 61.6396 77.016 61.4265 75.3391 62.8499L55.9975 78.7052L55.9298 78.6218C54.6683 79.6901 53.0591 80.3571 51.2837 80.3571L35.8991 80.3571L35.8991 78.1339L51.2837 78.1339C54.0652 78.1339 56.3298 75.8645 56.3298 73.0702C56.3298 71.9802 55.4468 71.094 54.3606 71.094L29.7452 71.094C21.8714 71.094 15.4683 77.5195 15.4683 85.4209C15.4683 85.7173 15.3514 86.0014 15.1452 86.2082L5.91446 95.4713L4.34831 93.8965L13.2591 84.9546C13.5052 76.0436 20.8068 68.8709 29.7452 68.8709L54.3606 68.8709C56.6683 68.8709 58.5452 70.7544 58.5452 73.0702C58.5452 73.3264 58.496 73.5673 58.4714 73.8143L73.9237 61.1455C74.7452 60.4477 76.0775 59.6079 77.7021 59.6079C79.1575 59.6079 80.5268 60.1791 81.5637 61.2166Z" id="global--currency_1_" fill="url(#gradient_1)" stroke="none" />
    <path d="M0 0L47.2615 0L47.2615 47.2615L0 47.2615L0 0Z" id="_Transparent_Rectangle" fill="none" fill-rule="evenodd" stroke="none" />
  </g>
</svg>