<?xml version="1.0" encoding="utf-8"?>
<svg width="97px" height="97px" viewBox="0 0 97 97" version="1.1" xmlns:xlink="http://www.w3.org/1999/xlink" xmlns="http://www.w3.org/2000/svg">
  <defs>
    <linearGradient x1="1.4777017" y1="1.1827792" x2="-0.42856088" y2="0" id="gradient_1">
      <stop offset="0" stop-color="#C90099" />
      <stop offset="0.5409563" stop-color="#F67622" />
      <stop offset="1" stop-color="#D8D8D8" />
    </linearGradient>
  </defs>
  <g id="ICON---tape--storage" transform="translate(0.5 0.5)">
    <path d="M48 94.08C22.59 94.08 1.92 73.41 1.92 48C1.92 22.59 22.59 1.92 48 1.92C73.41 1.92 94.08 22.59 94.08 48C94.08 73.41 73.41 94.08 48 94.08ZM48 4.08C23.781 4.08 4.08 23.781 4.08 48C4.08 72.216 23.781 91.92 48 91.92C72.216 91.92 91.92 72.219 91.92 48C91.92 23.781 72.216 4.08 48 4.08ZM61.998 82.248C61.86 82.248 61.722 82.221 61.59 82.17C61.326 82.062 61.113 81.852 61.002 81.588L54.003 65.004C53.772 64.455 54.03 63.822 54.576 63.588C58.632 61.875 61.926 58.56 63.624 54.498C63.732 54.234 63.942 54.024 64.209 53.916C64.473 53.811 64.773 53.808 65.034 53.919L81.642 60.861C81.906 60.972 82.116 61.182 82.224 61.446C82.332 61.713 82.332 62.01 82.221 62.271C78.501 71.157 71.283 78.408 62.415 82.161C62.286 82.218 62.142 82.248 61.998 82.248ZM56.403 65.127L62.568 79.734C70.137 76.239 76.338 70.017 79.8 62.427L65.172 56.31C63.318 60.117 60.195 63.255 56.403 65.127ZM48 61.08C40.788 61.08 34.92 55.212 34.92 48C34.92 40.788 40.788 34.92 48 34.92C55.212 34.92 61.08 40.788 61.08 48C61.08 55.212 55.212 61.08 48 61.08ZM48 37.08C41.979 37.08 37.08 41.979 37.08 48C37.08 54.021 41.979 58.92 48 58.92C54.021 58.92 58.92 54.021 58.92 48C58.92 41.979 54.021 37.08 48 37.08ZM48 55.08C44.097 55.08 40.92 51.903 40.92 48C40.92 44.097 44.097 40.92 48 40.92C51.906 40.92 55.08 44.097 55.08 48C55.08 51.906 51.906 55.08 48 55.08ZM48 43.08C45.288 43.08 43.08 45.288 43.08 48C43.08 50.712 45.288 52.92 48 52.92C50.712 52.92 52.92 50.715 52.92 48C52.92 45.285 50.712 43.08 48 43.08ZM31.38 42.168C31.239 42.168 31.098 42.141 30.963 42.084L14.355 35.142C14.091 35.031 13.881 34.821 13.773 34.557C13.665 34.293 13.665 33.993 13.776 33.729C17.493 24.849 24.711 17.598 33.579 13.839C33.84 13.722 34.14 13.725 34.407 13.833C34.671 13.941 34.884 14.148 34.995 14.412L41.994 30.996C42.225 31.545 41.97 32.178 41.421 32.412C37.365 34.131 34.071 37.443 32.376 41.505C32.265 41.769 32.055 41.979 31.791 42.087C31.659 42.141 31.518 42.168 31.38 42.168ZM16.203 33.573L30.828 39.687C32.682 35.883 35.802 32.748 39.597 30.873L33.432 16.266C25.86 19.761 19.662 25.986 16.203 33.573Z" id="tape--storage_1_" fill="url(#gradient_1)" stroke="none" />
    <path d="M0 0L96 0L96 96L0 96L0 0Z" id="_Transparent_Rectangle" fill="none" fill-rule="evenodd" stroke="none" />
  </g>
</svg>