<?xml version="1.0" encoding="utf-8"?>
<svg width="96px" height="96px" viewBox="0 0 96 96" version="1.1" xmlns:xlink="http://www.w3.org/1999/xlink" xmlns="http://www.w3.org/2000/svg">
  <defs>
    <linearGradient x1="3.7527428" y1="2.373496" x2="-0.7761065" y2="-0.35398734" id="gradient_1">
      <stop offset="0" stop-color="#C90099" />
      <stop offset="0.68606013" stop-color="#F67622" />
      <stop offset="1" stop-color="#D8D8D8" />
    </linearGradient>
  </defs>
  <g id="key--users">
    <path d="M73.08 93L70.92 93L70.92 70.5C70.92 59.844 63.678 50.688 53.304 48.228C52.854 48.12 52.521 47.739 52.479 47.28C52.434 46.818 52.692 46.38 53.115 46.191C57.666 44.166 60.603 39.648 60.603 34.683C60.603 27.735 54.951 22.08 48.003 22.08C41.055 22.08 35.403 27.732 35.403 34.683C35.403 39.651 38.343 44.169 42.891 46.191C43.314 46.38 43.569 46.818 43.527 47.28C43.485 47.739 43.152 48.123 42.702 48.228C32.328 50.688 25.083 59.844 25.083 70.5L25.083 93L22.92 93L22.92 70.5C22.92 59.724 29.691 50.346 39.678 46.863C35.7 44.142 33.24 39.6 33.24 34.683C33.24 28.791 36.711 23.694 41.712 21.327C42.279 19.878 42.6 18.144 42.6 16.5C42.6 9.53698 37.065 4.07998 30 4.07998C22.935 4.07998 17.397 9.53698 17.397 16.5C17.397 21.498 20.406 26.196 24.885 28.191C25.311 28.38 25.566 28.818 25.521 29.28C25.479 29.739 25.146 30.123 24.696 30.228C14.322 32.688 7.08004 41.844 7.08004 52.5L7.08004 75L4.92004 75L4.92004 52.5C4.92004 41.718 11.697 32.337 21.693 28.857C17.751 26.115 15.24 21.432 15.24 16.5C15.24 8.45998 21.861 1.91998 30 1.91998C38.139 1.91998 44.76 8.45998 44.76 16.5C44.76 17.811 44.592 19.143 44.274 20.397C46.656 19.776 49.341 19.776 51.726 20.397C51.408 19.14 51.237 17.811 51.237 16.5C51.237 8.45998 57.861 1.91998 66 1.91998C74.139 1.91998 80.763 8.45998 80.763 16.5C80.763 21.432 78.246 26.115 74.307 28.857C84.303 32.337 91.083 41.718 91.083 52.5L91.083 75L88.92 75L88.92 52.5C88.92 41.844 81.678 32.688 71.304 30.228C70.854 30.12 70.521 29.739 70.479 29.28C70.434 28.818 70.692 28.38 71.115 28.191C75.591 26.196 78.6 21.498 78.6 16.5C78.6 9.53698 73.065 4.07998 66 4.07998C58.935 4.07998 53.4 9.53698 53.4 16.5C53.4 18.141 53.718 19.875 54.288 21.327C59.292 23.694 62.763 28.788 62.763 34.683C62.763 39.603 60.303 44.145 56.325 46.866C66.312 50.349 73.083 59.727 73.083 70.503L73.08 93L73.08 93ZM56.778 88.08C56.556 88.08 56.334 88.011 56.1451 87.873L48 81.969L39.858 87.873C39.48 88.149 38.967 88.149 38.589 87.873C38.211 87.597 38.052 87.111 38.199 86.667L41.31 77.109L33.168 71.19C32.79 70.914 32.6311 70.428 32.775 69.984C32.919 69.54 33.336 69.237 33.801 69.237L43.866 69.237L46.977 59.667C47.118 59.22 47.532 58.92 48 58.92L48 58.92C48.468 58.92 48.882 59.223 49.026 59.667L52.137 69.237L62.202 69.237C62.67 69.237 63.084 69.54 63.231 69.984C63.375 70.428 63.216 70.917 62.8381 71.19L54.693 77.109L57.804 86.667C57.9481 87.111 57.789 87.6 57.411 87.873C57.222 88.011 57 88.08 56.778 88.08ZM48.0001 79.557C48.2221 79.557 48.4441 79.626 48.6331 79.764L54.7231 84.177L52.3981 77.031C52.2541 76.587 52.4131 76.098 52.7911 75.825L58.8811 71.4L51.3511 71.4C50.8831 71.4 50.4691 71.097 50.3251 70.653L48.0001 63.495L45.6751 70.653C45.5311 71.097 45.1141 71.4 44.6491 71.4L37.1221 71.4L43.2121 75.825C43.5901 76.101 43.7491 76.587 43.6051 77.031L41.2801 84.177L47.3671 79.764C47.5561 79.626 47.7781 79.557 48.0001 79.557Z" id="key--users_1_" fill="url(#gradient_1)" stroke="none" />
    <path d="M0 0L96 0L96 96L0 96L0 0Z" id="_Transparent_Rectangle" fill="none" fill-rule="evenodd" stroke="none" />
  </g>
</svg>