<?xml version="1.0" encoding="utf-8"?>
<svg width="161px" height="36px" viewBox="0 0 161 36" version="1.1" xmlns:xlink="http://www.w3.org/1999/xlink" xmlns="http://www.w3.org/2000/svg">
  <defs>
    <linearGradient x1="8.976429" y1="1" x2="-3.4258256" y2="-0.5517344" id="gradient_1">
      <stop offset="0" stop-color="#C90099" />
      <stop offset="0.6569281" stop-color="#F67622" />
      <stop offset="1" stop-color="#D8D8D8" />
    </linearGradient>
  </defs>
  <g id="solis-logo-how-we-do-it">
    <path d="M50 25.0871L52.8216 22.5525C53.1848 22.9281 53.6123 23.3349 54.1041 23.7729C54.596 24.2109 55.1838 24.5864 55.8676 24.8995C56.5512 25.2125 57.3421 25.369 58.2403 25.3688C59.5012 25.3688 60.4363 25.0823 61.0456 24.5094C61.6548 23.9364 61.9595 23.2636 61.9595 22.4909C61.9595 21.5942 61.5854 20.8954 60.8372 20.3945C60.089 19.8937 58.753 19.4659 56.8294 19.1113C55.5248 18.8611 54.4507 18.4335 53.6071 17.8283C52.7635 17.2232 52.1329 16.4984 51.7152 15.6537C51.3035 14.8298 51.09 13.9251 51.0907 13.0085C51.0907 11.9447 51.3633 10.959 51.9085 10.0515C52.4536 9.14401 53.277 8.40846 54.3786 7.84489C55.4794 7.28147 56.8634 6.99984 58.5307 7C59.6634 7 60.636 7.11993 61.4485 7.35978C62.2609 7.59963 62.9396 7.89168 63.4846 8.23594C64.0296 8.58019 64.4518 8.91442 64.751 9.23863C65.0502 9.56283 65.264 9.79751 65.3921 9.94266L62.7297 12.3823C62.6016 12.257 62.3504 12.038 61.9763 11.7251C61.6022 11.4122 61.1212 11.1257 60.5331 10.8656C59.9451 10.6052 59.2344 10.4749 58.401 10.4746C57.2894 10.4746 56.4717 10.7353 55.9481 11.2567C55.4244 11.7781 55.1626 12.2996 55.1626 12.8213C55.1626 13.5519 55.4672 14.1517 56.0765 14.6207C56.6857 15.0897 57.8667 15.5018 59.6195 15.8569C60.7106 16.0793 61.7633 16.4533 62.7456 16.9675C63.7054 17.4675 64.5171 18.2004 65.1023 19.0956C65.7006 20.0028 65.9998 21.1658 66 22.5847C66 23.7943 65.6687 24.8845 65.0061 25.8554C64.3436 26.8262 63.4298 27.5928 62.2647 28.1551C61.0992 28.7185 59.7793 29.0002 58.3049 29C56.894 29 55.6489 28.7914 54.5696 28.3743C53.4904 27.9571 52.5712 27.4407 51.8121 26.8251C51.0533 26.2085 50.4493 25.6292 50 25.0871Z" id="Path" fill="url(#gradient_1)" stroke="none" />
    <path d="M85.9996 29C84.457 29 83.0199 28.7135 81.6885 28.1405C80.3757 27.5794 79.1859 26.7716 78.1856 25.762C77.1832 24.7529 76.3868 23.5629 75.8397 22.2569C75.2797 20.9323 74.9998 19.5083 75 17.9851C75.0002 16.4618 75.2801 15.038 75.8397 13.7135C76.387 12.4077 77.1834 11.2178 78.1856 10.2086C79.1838 9.20022 80.3743 8.39689 81.6885 7.84495C83.0198 7.28149 84.4568 6.99984 85.9996 7C87.5424 7.00016 88.9796 7.28181 90.311 7.84495C91.6252 8.39695 92.8157 9.20027 93.8139 10.2086C94.816 11.2179 95.6124 12.4077 96.1598 13.7135C96.7195 15.0386 96.9995 16.4625 97 17.9851C97.0005 19.5077 96.7204 20.9316 96.1598 22.2569C95.6125 23.5628 94.8161 24.7528 93.8139 25.762C92.8135 26.7715 91.6238 27.5794 90.311 28.1405C88.9796 28.7133 87.5424 28.9998 85.9996 29ZM85.9996 25.2754C87.3946 25.2754 88.5993 24.9312 89.6138 24.2426C90.6282 23.554 91.4154 22.6516 91.9752 21.5354C92.535 20.4196 92.815 19.2043 92.8153 17.8896C92.8153 16.5546 92.5406 15.3342 91.9911 14.2283C91.4417 13.1224 90.6544 12.2359 89.6295 11.5688C88.6041 10.9012 87.3941 10.5675 85.9996 10.5675C84.6051 10.5675 83.3953 10.9012 82.37 11.5688C81.3449 12.2373 80.5578 13.124 80.0086 14.229C79.4595 15.334 79.1847 16.5544 79.1842 17.8903C79.1842 19.2049 79.459 20.4201 80.0086 21.5361C80.5583 22.652 81.3454 23.5544 82.37 24.2433C83.395 24.9319 84.6048 25.2762 85.9996 25.2762L85.9996 25.2754Z" id="Shape" fill="url(#gradient_1)" stroke="none" />
    <path d="M107 29L107 9L110.877 9L110.877 25.6418L121 25.6418L121 29L107 29Z" id="Path" fill="url(#gradient_1)" stroke="none" />
    <path d="M131 29L131 9L135 9L135 29L131 29Z" id="Path" fill="url(#gradient_1)" stroke="none" />
    <path d="M145 25.087L147.822 22.5523C148.185 22.9279 148.613 23.3348 149.104 23.7728C149.596 24.2108 150.184 24.5863 150.868 24.8994C151.551 25.2125 152.342 25.3689 153.241 25.3687C154.502 25.3687 155.437 25.0823 156.046 24.5093C156.655 23.9363 156.96 23.2634 156.96 22.4907C156.96 21.594 156.586 20.8952 155.838 20.3943C155.089 19.8935 153.753 19.4657 151.83 19.1111C150.525 18.8609 149.451 18.4332 148.607 17.8281C147.764 17.223 147.133 16.4981 146.715 15.6534C146.303 14.8297 146.089 13.9249 146.089 13.0082C146.089 11.9443 146.362 10.9586 146.907 10.0511C147.452 9.14358 148.275 8.40818 149.376 7.8449C150.477 7.28148 151.861 6.99984 153.528 7C154.661 7 155.634 7.11993 156.446 7.35978C157.259 7.59964 157.937 7.8917 158.482 8.23596C159.027 8.58023 159.449 8.91447 159.748 9.23868C160.048 9.56289 160.261 9.79757 160.39 9.94272L157.73 12.3819C157.601 12.2567 157.35 12.0376 156.976 11.7247C156.602 11.4118 156.121 11.1253 155.533 10.8652C154.945 10.6048 154.234 10.4745 153.401 10.4742C152.289 10.4742 151.471 10.7349 150.948 11.2563C150.424 11.7777 150.162 12.2993 150.162 12.821C150.162 13.5515 150.467 14.1513 151.076 14.6204C151.685 15.0894 152.866 15.5015 154.619 15.8566C155.71 16.079 156.763 16.453 157.745 16.9672C158.705 17.4672 159.517 18.2001 160.102 19.0953C160.7 20.0026 161 21.1656 161 22.5845C161 23.7942 160.669 24.8844 160.006 25.8553C159.343 26.8262 158.429 27.5928 157.265 28.1551C156.099 28.7185 154.779 29.0002 153.305 29C151.894 29 150.648 28.7914 149.569 28.3743C148.489 27.9571 147.57 27.4407 146.811 26.8251C146.053 26.2085 145.449 25.6291 145 25.087Z" id="Path" fill="url(#gradient_1)" stroke="none" />
    <path d="M35.9395 16.5128C35.2317 16.5707 34.2046 16.6005 33.1314 16.6169C32.1702 16.6315 31.1719 16.6354 30.3338 16.6385C29.4183 16.642 28.5537 16.6453 27.901 16.6586C25.7911 16.6924 23.1525 16.7714 21.446 17.0851C20.7293 17.2112 19.8502 17.4196 19.186 17.863L19.1692 17.8259C18.9966 17.4421 18.7359 16.8621 18.8048 16.664L18.8126 16.6406C18.814 16.6366 18.9624 16.2259 20.5922 15.9396L20.5995 15.9382C22.177 15.647 24.7237 15.5727 26.7699 15.5397C27.4146 15.5263 28.331 15.5232 29.3018 15.5197C30.6824 15.515 31.9238 15.5078 32.9874 15.4879C34.1622 15.4658 35.1208 15.4283 35.8084 15.3601C35.7222 14.7737 35.6065 14.192 35.4617 13.6172C34.7525 13.6742 33.6957 13.7061 32.5832 13.7244C31.4397 13.7424 30.2375 13.7467 29.2952 13.7502C28.3176 13.7537 27.3935 13.7567 26.738 13.7706C24.6281 13.8041 21.9897 13.8826 20.2832 14.197C19.4674 14.3403 18.4403 14.5906 17.7604 15.1723C17.7501 15.1488 17.7398 15.1254 17.7297 15.1034C17.7035 15.0443 17.6767 14.9861 17.65 14.9254C17.4777 14.5419 17.2165 13.9616 17.2862 13.7635L17.2934 13.7401C17.2946 13.7359 17.4437 13.3254 19.0726 13.0394L19.0803 13.0379C20.6574 12.7465 23.2038 12.6725 25.2507 12.6394C25.5377 12.6333 25.8778 12.6272 26.2567 12.6199C28.3582 12.581 30.4581 12.5358 32.1521 12.4608C33.3892 12.4059 34.41 12.3351 35.0568 12.2392C35.016 12.118 34.9731 11.9963 34.9295 11.8754C34.7657 11.4232 34.5847 10.9795 34.3865 10.5442C31.6083 4.43072 25.6553 0.374489 18.9493 0.0255544C18.6295 0.00867463 18.3057 3.27667e-07 17.9871 3.27667e-07C13.3905 -0.00062027 8.96866 1.76142 5.63222 4.92325C2.261 8.11 0.270386 12.4169 0.0256328 17.0497C0.00859691 17.3615 7.89819e-05 17.6721 7.89819e-05 17.9816C-0.00117136 18.5747 0.0263361 19.1639 0.0826012 19.749C0.890944 19.6956 1.85824 19.6848 2.8975 19.6893C3.42358 19.6909 3.96842 19.6965 4.52052 19.7022C5.12631 19.7083 5.75273 19.7146 6.36344 19.7165C8.97602 19.7324 11.9196 19.715 13.9487 19.4665C15.6577 19.267 16.795 18.9018 17.4575 18.3321C17.4903 18.4064 17.5236 18.4793 17.556 18.5518C17.5815 18.6085 17.6069 18.6655 17.6324 18.7227C17.752 18.9913 18.031 19.6196 17.9055 19.7976L17.894 19.8152C17.835 19.9033 17.4296 20.3544 15.2604 20.6085L15.2547 20.6085C13.3141 20.8467 10.302 20.8605 7.8908 20.8455C7.53 20.8455 7.15232 20.8429 6.76433 20.8411C5.54759 20.8359 4.26099 20.8298 3.07192 20.8467C2.01179 20.8619 1.02856 20.8936 0.241316 20.962C0.339026 21.5494 0.466094 22.1314 0.622044 22.706C1.42195 22.6479 2.44082 22.6219 3.519 22.6123C4.59249 22.6019 5.72412 22.6066 6.75659 22.6123C7.14552 22.6141 7.52484 22.6158 7.88307 22.6167C10.4952 22.6327 13.4393 22.6167 15.4674 22.3673C16.9699 22.1919 18.0307 21.8885 18.7153 21.4307L18.7197 21.4401C18.7451 21.497 18.7706 21.5535 18.7962 21.611C18.9157 21.8794 19.1947 22.5079 19.0693 22.6861L19.0576 22.7035C18.9985 22.7916 18.5931 23.2443 16.4239 23.4968L16.4187 23.4968C14.4778 23.7348 11.465 23.7486 9.05455 23.7334C8.70102 23.7334 8.32639 23.7312 7.93839 23.7296C6.65859 23.724 5.23813 23.7174 3.92739 23.7373C2.81287 23.7547 1.77782 23.7903 0.977218 23.8611C1.00707 23.9483 1.0377 24.0354 1.06912 24.1223C1.24917 24.6195 1.45008 25.1063 1.67186 25.5829C4.47679 31.6288 10.3952 35.6279 17.051 35.9747C17.3708 35.9913 17.695 36 18.0138 36C22.6105 36.0011 27.0326 34.239 30.3687 31.0767C33.7381 27.8895 35.7285 23.5828 35.9739 18.9498C35.9859 18.7266 35.9939 18.5044 35.9974 18.2812C36.0075 17.6881 35.9882 17.0986 35.9395 16.5128ZM16.3859 16.8982L16.3742 16.9156C16.3151 17.004 15.9098 17.4564 13.7405 17.7094L13.7353 17.7094C11.7944 17.9478 8.78214 17.9612 6.37117 17.9464C5.76398 17.9464 5.14108 17.9387 4.53904 17.9321C3.94943 17.9263 3.36849 17.9202 2.80607 17.9188C2.80607 17.6796 2.81474 17.4389 2.82717 17.1976C3.25525 9.09161 9.96371 2.80602 17.9869 2.80555L17.9869 2.80555C18.2571 2.80555 18.5285 2.81274 18.8011 2.82712C24.2635 3.11595 28.8969 6.2537 31.3403 10.7245C29.5004 10.7922 27.4411 10.8307 26.2239 10.853C25.8431 10.86 25.5018 10.8663 25.2184 10.8724C23.1084 10.9057 20.4691 10.9847 18.7631 11.2989C17.6066 11.5021 16.0253 11.9204 15.6109 13.1936C15.3171 14.0535 15.699 14.9029 16.0361 15.6527C16.0614 15.7092 16.0875 15.7661 16.1126 15.8231C16.2324 16.0915 16.5116 16.7205 16.3859 16.8982ZM33.1731 18.8021C32.7443 26.9084 26.0366 33.1944 18.0134 33.1944C17.7433 33.1944 17.4717 33.1873 17.1985 33.1729C11.8298 32.889 7.25829 29.8499 4.78356 25.498C5.85611 25.4903 6.96008 25.4949 7.93136 25.4992C8.32053 25.501 8.69657 25.5022 9.04752 25.5032C11.6592 25.5191 14.6037 25.5032 16.6318 25.2537C18.7308 25.009 19.9674 24.5143 20.5219 23.6977C21.2182 22.7006 20.7148 21.5685 20.414 20.8917C20.3878 20.8322 20.361 20.7731 20.3341 20.7138C20.1615 20.3298 19.9008 19.75 19.9702 19.5514L19.9777 19.528C19.9777 19.524 20.1275 19.113 21.7569 18.827L21.7642 18.8256C23.3422 18.5346 25.8886 18.4601 27.9348 18.427C28.5767 18.4141 29.4338 18.4106 30.3416 18.4071C31.3822 18.4034 32.3373 18.3982 33.189 18.3851C33.1851 18.524 33.1798 18.663 33.1731 18.8021Z" id="Shape" fill="url(#gradient_1)" stroke="none" />
  </g>
</svg>