<svg width="588" height="633" viewBox="0 0 588 633" fill="none" xmlns="http://www.w3.org/2000/svg">
<mask id="mask0_646_631" style="mask-type:alpha" maskUnits="userSpaceOnUse" x="0" y="0" width="588" height="633">
<rect width="588" height="633" fill="#C4C4C4"/>
</mask>
<g mask="url(#mask0_646_631)">
<path d="M1195.04 192.153C1162.66 214.192 1123.7 239.02 1079.66 266.189C1034.35 294.144 983.66 324.579 929.302 357.067C901.922 373.444 876.044 388.922 852.935 402.898C741.637 469.524 604.253 554.307 526.864 620.306L526.506 620.606C446.139 687.945 450.995 715.177 451.037 715.469L451.341 716.935C453.835 729.995 486.522 753.571 508.153 769.156C511.512 771.576 514.845 773.988 518.153 776.397C556.143 804.018 619.641 850.201 612.983 926.968C608.423 989.39 556.225 1055.72 448.764 1135.67C345.296 1213.6 184.281 1307.79 40.3947 1389.7C21.0823 1400.79 0.414875 1412.59 -21.0131 1424.83C-53.7616 1443.55 -89.2381 1463.85 -125.308 1484.67C-170.887 1510.99 -1276.74 2149.79 -1319.74 2175.76C-1353.94 2153.98 -1386.82 2130.19 -1418.19 2104.5C-1379.21 2080.32 -276.922 1443.17 -233.069 1417.52C-180.478 1386.81 -126.614 1356.03 -76.643 1327.46C-55.2914 1315.26 -34.6693 1303.48 -15.2683 1292.34C117.543 1216.74 282.451 1120.55 381.444 1045.95L381.733 1045.75C492.79 963.127 500.678 925.47 501.114 918.745L501.234 917.413C502.492 903.672 467.212 878.025 452.161 867.055C448.961 864.734 445.762 862.412 442.526 860.108C442.361 859.982 442.195 859.854 442.032 859.732C418.958 906.547 370.337 956.812 293.413 1014.04C189.946 1091.97 28.9185 1186.2 -114.98 1268.08C-134.684 1279.39 -155.509 1291.32 -176.912 1303.55C-214.064 1324.78 -253.529 1347.34 -292.772 1370.09C-335.11 1394.6 -1444.03 2029.89 -1482.62 2053.4C-1510.4 2027.13 -1536.66 1999.3 -1561.28 1970.05C-1524.29 1947.17 -416.923 1312.58 -375.256 1288.29C-328.067 1260.76 -279.378 1232.93 -232.558 1206.19C-211.234 1194 -190.459 1182.11 -170.627 1170.72C-37.837 1095.15 127.106 998.944 226.069 924.374L226.329 924.164C337.424 841.545 345.308 803.862 345.757 797.159L345.877 795.826C347.137 782.089 311.857 756.442 296.803 745.469C293.604 743.148 290.387 740.836 287.169 738.521C283.11 735.591 278.999 732.63 274.843 729.593C256.557 781.84 205.697 837.927 118.181 903.046C14.7031 980.977 -146.366 1075.24 -290.266 1157.12C-323.856 1176.42 -358.435 1195.9 -391.903 1214.75C-401.813 1220.35 -411.692 1225.92 -421.522 1231.45C-463.18 1255 -1561.66 1896.35 -1598.91 1918.39C-1620.87 1888.08 -1641.14 1856.59 -1659.64 1824.05C-1622.32 1801.91 -524.249 1160.7 -483.036 1137.45C-471.118 1130.69 -459.068 1123.92 -446.961 1117.09C-413.696 1098.33 -379.283 1078.93 -345.91 1059.76C-213.12 984.196 -48.189 887.964 50.787 813.416L51.064 813.196C162.141 730.587 170.009 692.914 170.476 686.204L170.587 684.877C171.832 671.111 136.566 645.489 121.514 634.519L111.905 627.556C69.6531 597.093 21.758 562.576 10.6416 506.062C-6.93749 423.074 66.6001 350.045 123.629 302.241C207.32 230.92 349.716 142.937 464.429 74.2456C551.438 21.5896 645.637 -37.134 726.129 -89.4172C774.361 -120.678 817.704 -149.665 851.627 -173.689C884.698 -152.488 916.518 -129.394 946.927 -104.525C915.021 -80.6074 873.931 -52.337 829.556 -22.9357C715.287 52.7629 579.295 135.858 522.294 170.35C411.008 236.998 273.598 321.796 196.221 387.756L195.865 388.058C115.498 455.398 120.359 482.659 120.412 482.911L120.713 484.412C123.196 497.473 155.893 521.045 177.525 536.633C180.871 539.028 184.222 541.451 187.543 543.864C188.799 544.78 190.082 545.683 191.397 546.659C210.293 493.208 258.72 446.927 298.954 413.214C382.672 341.878 525.042 253.91 639.736 185.226C664.348 170.355 693.72 152.848 724.792 134.286C773.669 105.124 836.2 67.8507 895.486 31.2974C938.987 4.44317 980.783 -21.9843 1014.15 -44.5726C1041.22 -18.2224 1066.8 9.61886 1090.78 38.8132C1059.4 60.6596 1020.34 85.863 975.306 113.85C919.112 148.759 853.634 188.048 782.246 230.62C751.315 249.047 722.117 266.473 697.589 281.329C586.291 347.956 448.906 432.738 371.504 498.713L371.147 499.016C290.799 566.389 295.624 593.627 295.692 593.903L295.996 595.37C298.488 608.426 331.175 632.003 352.808 647.591C353.508 648.104 354.193 648.591 354.893 649.103C377.29 603.736 418.966 564.42 454.33 534.794C538.04 463.463 680.418 375.489 795.119 306.837C818.24 292.823 844.236 277.27 871.789 260.833C916.148 234.306 969.29 202.551 1020.11 171.189C1062.2 145.183 1102.73 119.453 1135.3 97.1957C1156.92 127.741 1176.86 159.44 1195.04 192.153Z" fill="url(#paint0_linear_646_631)"/>
<path d="M1195.04 831.154C1162.66 853.192 1123.7 878.02 1079.66 905.189C1034.35 933.145 983.66 963.579 929.302 996.068C901.922 1012.44 876.044 1027.92 852.935 1041.9C741.637 1108.52 604.253 1193.31 526.864 1259.31L526.506 1259.61C446.139 1326.95 450.995 1354.18 451.037 1354.47L451.341 1355.94C453.835 1369 486.522 1392.57 508.153 1408.16C511.512 1410.58 514.845 1412.99 518.153 1415.4C556.143 1443.02 619.641 1489.2 612.983 1565.97C608.423 1628.39 556.225 1694.72 448.764 1774.67C345.296 1852.6 184.281 1946.79 40.3947 2028.7C21.0823 2039.79 0.414875 2051.59 -21.0131 2063.83C-53.7616 2082.55 -89.2381 2102.85 -125.308 2123.67C-170.887 2149.99 -1276.74 2788.79 -1319.74 2814.76C-1353.94 2792.98 -1386.82 2769.19 -1418.19 2743.5C-1379.21 2719.32 -276.922 2082.17 -233.069 2056.52C-180.478 2025.81 -126.614 1995.03 -76.643 1966.46C-55.2914 1954.26 -34.6693 1942.48 -15.2683 1931.35C117.543 1855.74 282.451 1759.55 381.444 1684.95L381.733 1684.75C492.79 1602.13 500.678 1564.47 501.114 1557.75L501.234 1556.41C502.492 1542.67 467.212 1517.03 452.161 1506.06C448.961 1503.73 445.762 1501.41 442.526 1499.11C442.361 1498.98 442.195 1498.85 442.032 1498.73C418.958 1545.55 370.337 1595.81 293.413 1653.04C189.946 1730.97 28.9185 1825.2 -114.98 1907.08C-134.684 1918.39 -155.509 1930.32 -176.912 1942.55C-214.064 1963.78 -253.529 1986.35 -292.772 2009.09C-335.11 2033.6 -1444.03 2668.89 -1482.62 2692.4C-1510.4 2666.13 -1536.66 2638.3 -1561.28 2609.05C-1524.29 2586.17 -416.923 1951.58 -375.256 1927.29C-328.067 1899.76 -279.378 1871.93 -232.558 1845.19C-211.234 1833 -190.459 1821.11 -170.627 1809.72C-37.837 1734.16 127.106 1637.94 226.069 1563.37L226.329 1563.16C337.424 1480.55 345.308 1442.86 345.757 1436.16L345.877 1434.83C347.137 1421.09 311.857 1395.44 296.803 1384.47C293.604 1382.15 290.387 1379.84 287.169 1377.52C283.11 1374.59 278.999 1371.63 274.843 1368.59C256.557 1420.84 205.697 1476.93 118.181 1542.05C14.7031 1619.98 -146.366 1714.24 -290.266 1796.12C-323.856 1815.42 -358.435 1834.9 -391.903 1853.75C-401.813 1859.35 -411.692 1864.92 -421.522 1870.45C-463.18 1894 -1561.66 2535.35 -1598.91 2557.39C-1620.87 2527.08 -1641.14 2495.59 -1659.64 2463.05C-1622.32 2440.91 -524.249 1799.7 -483.036 1776.45C-471.118 1769.69 -459.068 1762.92 -446.961 1756.09C-413.696 1737.33 -379.283 1717.93 -345.91 1698.76C-213.12 1623.2 -48.189 1526.96 50.787 1452.42L51.064 1452.2C162.141 1369.59 170.009 1331.91 170.476 1325.2L170.587 1323.88C171.832 1310.11 136.566 1284.49 121.514 1273.52L111.905 1266.56C69.6531 1236.09 21.758 1201.58 10.6416 1145.06C-6.93749 1062.07 66.6001 989.045 123.629 941.242C207.32 869.92 349.716 781.937 464.429 713.246C551.438 660.59 645.637 601.867 726.129 549.583C774.361 518.323 817.704 489.336 851.627 465.312C884.698 486.513 916.518 509.606 946.927 534.476C915.021 558.393 873.931 586.664 829.556 616.065C715.287 691.763 579.295 774.859 522.294 809.35C411.008 875.998 273.598 960.796 196.221 1026.76L195.865 1027.06C115.498 1094.4 120.359 1121.66 120.412 1121.91L120.713 1123.41C123.196 1136.47 155.893 1160.05 177.525 1175.63C180.871 1178.03 184.222 1180.45 187.543 1182.86C188.799 1183.78 190.082 1184.68 191.397 1185.66C210.293 1132.21 258.72 1085.93 298.954 1052.21C382.672 980.879 525.042 892.91 639.736 824.226C664.348 809.355 693.72 791.849 724.792 773.287C773.669 744.124 836.2 706.851 895.486 670.298C938.987 643.444 980.783 617.016 1014.15 594.428C1041.22 620.778 1066.8 648.619 1090.78 677.814C1059.4 699.66 1020.34 724.863 975.306 752.851C919.112 787.76 853.634 827.048 782.246 869.621C751.315 888.047 722.117 905.474 697.589 920.329C586.291 986.957 448.906 1071.74 371.504 1137.71L371.147 1138.02C290.799 1205.39 295.624 1232.63 295.692 1232.9L295.996 1234.37C298.488 1247.43 331.175 1271 352.808 1286.59C353.508 1287.1 354.193 1287.59 354.893 1288.1C377.29 1242.74 418.966 1203.42 454.33 1173.79C538.04 1102.46 680.418 1014.49 795.119 945.838C818.24 931.824 844.236 916.27 871.789 899.833C916.148 873.307 969.29 841.551 1020.11 810.19C1062.2 784.183 1102.73 758.454 1135.3 736.196C1156.92 766.741 1176.86 798.44 1195.04 831.154Z" fill="url(#paint1_linear_646_631)"/>
</g>
<defs>
<linearGradient id="paint0_linear_646_631" x1="-2590.93" y1="2244" x2="979.833" y2="1912.76" gradientUnits="userSpaceOnUse">
<stop stop-color="#C70098"/>
<stop offset="1" stop-color="#FA6401"/>
</linearGradient>
<linearGradient id="paint1_linear_646_631" x1="-2590.93" y1="2883" x2="979.833" y2="2551.76" gradientUnits="userSpaceOnUse">
<stop stop-color="#C70098"/>
<stop offset="1" stop-color="#FA6401"/>
</linearGradient>
</defs>
</svg>
