<svg width="36" height="32" viewBox="0 0 36 32" fill="none" xmlns="http://www.w3.org/2000/svg"><path d="M35.2208 32C35.2208 32 32.2768 30.1916 31.0051 25.4318C30.6244 23.5153 30.7122 21.5352 31.2611 19.6599C31.5834 18.3466 31.7371 16.9975 31.7182 15.6453C31.6017 11.5205 29.9064 7.59774 26.9819 4.68652C24.0574 1.7753 20.1269 0.0977754 16.0016 8.71569e-05C13.4846 -0.0213532 10.9987 0.556627 8.74928 1.68624C6.49989 2.81585 4.55169 4.46465 3.06574 6.49633C1.57979 8.528 0.598775 10.8842 0.203796 13.3701C-0.191182 15.856 0.0112267 18.4002 0.794282 20.7924C1.57734 23.1846 2.91855 25.356 4.70703 27.1272C6.49552 28.8984 8.67989 30.2184 11.0796 30.9782C13.4793 31.7379 16.0254 31.9156 18.5073 31.4965C20.9893 31.0773 23.3358 30.0735 25.3529 28.5678L24.1772 27.5511C23.4925 26.9569 22.6684 26.5459 21.7818 26.3564C20.8953 26.167 19.9752 26.2052 19.1075 26.4677C16.8738 27.1508 14.4814 27.1113 12.2715 26.3549C10.0615 25.5984 8.1468 24.1636 6.80023 22.255C5.45365 20.3464 4.74395 18.0614 4.77232 15.7258C4.8007 13.3901 5.56569 11.123 6.95823 9.24775C8.35078 7.37242 10.2998 5.98456 12.5275 5.28202C14.7551 4.57948 17.1477 4.59812 19.3642 5.33528C21.5806 6.07243 23.5078 7.49049 24.871 9.38728C26.2341 11.284 26.9637 13.5628 26.9557 15.8986C26.9196 16.7783 26.8126 17.6537 26.6357 18.5162C26.099 21.7802 26.1904 23.9242 27.4649 26.1962C29.6208 30.0572 35.2208 32 35.2208 32Z" fill="url(#paint0_linear)"/><path d="M10.8745 17.0534C11.5275 16.4004 11.5275 15.3416 10.8745 14.6885C10.2214 14.0355 9.16264 14.0355 8.50959 14.6885C7.85655 15.3416 7.85655 16.4004 8.50959 17.0534C9.16264 17.7065 10.2214 17.7065 10.8745 17.0534Z" fill="url(#paint1_linear)"/><path d="M17.4686 15.5874C17.5287 15.9374 17.4759 16.2975 17.3177 16.6156C17.1595 16.9336 16.9042 17.193 16.5888 17.3563C16.2734 17.5196 15.9142 17.5783 15.5632 17.5238C15.2123 17.4694 14.8877 17.3047 14.6365 17.0535C14.3854 16.8024 14.2207 16.4778 14.1663 16.1269C14.1118 15.7759 14.1705 15.4167 14.3338 15.1012C14.4971 14.7858 14.7565 14.5306 15.0745 14.3724C15.3925 14.2142 15.7526 14.1613 16.1027 14.2214C16.4436 14.2801 16.758 14.4429 17.0026 14.6875C17.2472 14.9321 17.41 15.2465 17.4686 15.5874Z" fill="url(#paint2_linear)"/><path d="M23.5951 15.5874C23.6552 15.9374 23.6023 16.2975 23.4442 16.6156C23.286 16.9336 23.0307 17.193 22.7153 17.3563C22.3999 17.5196 22.0407 17.5783 21.6897 17.5238C21.3387 17.4694 21.0142 17.3047 20.763 17.0535C20.5118 16.8024 20.3471 16.4778 20.2927 16.1269C20.2383 15.7759 20.2969 15.4167 20.4602 15.1012C20.6235 14.7858 20.883 14.5306 21.201 14.3724C21.519 14.2142 21.8791 14.1613 22.2292 14.2214C22.5701 14.2801 22.8844 14.4429 23.129 14.6875C23.3736 14.9321 23.5365 15.2465 23.5951 15.5874Z" fill="url(#paint3_linear)"/><defs><linearGradient id="paint0_linear" x1="9.58539" y1="4.15958" x2="22.4284" y2="33.318" gradientUnits="userSpaceOnUse"><stop stop-color="#F4A121"/><stop offset="0.552" stop-color="#F36F29"/><stop offset="0.988" stop-color="#F24D23"/></linearGradient><linearGradient id="paint1_linear" x1="-4.4831" y1="11.5622" x2="38.1937" y2="24.5359" gradientUnits="userSpaceOnUse"><stop stop-color="#F4A121"/><stop offset="0.552" stop-color="#F36F29"/><stop offset="0.988" stop-color="#F24D23"/></linearGradient><linearGradient id="paint2_linear" x1="7.00885" y1="-0.640198" x2="28.0203" y2="38.7323" gradientUnits="userSpaceOnUse"><stop stop-color="#F4A121"/><stop offset="0.552" stop-color="#F36F29"/><stop offset="0.988" stop-color="#F24D23"/></linearGradient><linearGradient id="paint3_linear" x1="11.3015" y1="-4.0735" x2="32.3163" y2="35.299" gradientUnits="userSpaceOnUse"><stop stop-color="#F4A121"/><stop offset="0.552" stop-color="#F36F29"/><stop offset="0.988" stop-color="#F24D23"/></linearGradient></defs></svg>