<svg width="260" height="500" fill="none" xmlns="http://www.w3.org/2000/svg"><path d="M100 496l-11-7h-6l-17 10h-7L1 465v-3l193-112h6l59 34v3l-18 10c-1 1-1 3 1 4l11 6v4l-147 85h-6z" fill="#E0E0E0"/><path d="M233 11L74 103c-3 1-5 5-5 9v373c0 4 2 5 5 3l159-91c3-2 5-6 5-10V14c0-3-2-5-5-3zm-2 349c0 3-3 5-5 6L81 450c-3 1-5 0-5-3V137c0-3 2-6 5-8l145-84c2-1 4 0 4 3v312h1z" fill="url(#paint0_linear)"/><path opacity=".3" d="M233 11L74 103c-3 1-5 5-5 9v373c0 4 2 5 5 3l159-91c3-2 5-6 5-10V14c0-3-2-5-5-3zm-2 349c0 3-3 5-5 6L81 450c-3 1-5 0-5-3V137c0-3 2-6 5-8l145-84c2-1 4 0 4 3v312h1z" fill="url(#paint1_linear)"/><path d="M231 360c0 3-3 5-5 6L81 450c-3 1-5 0-5-3V137c0-3 2-6 5-8l145-84c2-1 4 0 4 3v312h1z" fill="#F0F0FC"/><path opacity=".5" d="M231 360c0 3-3 5-5 6L81 450c-3 1-5 0-5-3V137c0-3 2-6 5-8l145-84c2-1 4 0 4 3v312h1z" fill="#F0F0FC"/><path d="M81 450l145-84 3-2-153-86v169c0 3 2 4 5 3z" fill="#F0F0FC"/><path opacity=".4" d="M81 450l145-84 3-2-153-86v169c0 3 2 4 5 3z" fill="#F0F0FC"/><path d="M219 354V49L81 129c-3 2-5 5-5 8v303l138-79c3-2 5-4 5-7z" fill="#37474F"/><path d="M74 489c-3 1-8 1-10-1l-6-3c-3-2-6-6-6-10V102l1-4 1-1 17 10-1 2-1 3v373c0 3 2 5 5 4z" fill="#F0F0FC"/><path opacity=".5" d="M74 489c-3 1-8 1-10-1l-6-3c-3-2-6-6-6-10V102l1-4 1-1 17 10-1 2-1 3v373c0 3 2 5 5 4z" fill="#F0F0FC"/><path d="M158 413c4 0 4 4 4 6 0 6-4 13-9 16l-4 2c-4 0-4-4-4-6 0-6 4-13 10-16l3-2z" fill="#F0F0FC"/><path d="M154 63c1-1 2 0 2 1l-2 5c-2 1-3 0-3-2l3-4zM137 85c1-1 2 0 2 1l-2 4c-2 1-3 0-3-1 0-2 1-3 3-4zM144 80l26-15c2-1 3 0 3 2l-3 4-26 15c-1 1-2 0-2-1l2-5z" fill="#263238"/><path d="M238 13c0-3-2-4-5-2L74 103l-3 4-17-10 4-4L216 1h11l6 4c3 1 5 5 5 8z" fill="#F0F0FC"/><path opacity=".4" d="M238 13c0-3-2-4-5-2L74 103l-3 4-17-10 4-4L216 1h11l6 4c3 1 5 5 5 8z" fill="#F0F0FC"/><path d="M197 25h-6l-1-2v-2l1-2 17-9 6-1 1 2v2l-1 2-17 10z" fill="#F0F0FC"/><path opacity=".3" d="M197 25h-6l-1-2v-2l1-2 17-9 6-1 1 2v2l-1 2-17 10z" fill="#F0F0FC"/><path d="M197 22l17-9V9l-6 1-17 9v3h6z" fill="#F0F0FC"/><path opacity=".3" d="M197 22l17-9V9l-6 1-17 9v3h6z" fill="#F0F0FC"/><path d="M63 158c0-1-1-4-3-4h-2l-2 1v43l2 5h2l2-1 1-2v-42z" fill="#F0F0FC"/><path opacity=".3" d="M63 158c0-1-1-4-3-4h-2l-2 1v43l2 5h2l2-1 1-2v-42z" fill="#F0F0FC"/><path d="M61 159v42c0 2-1 3-3 2l-2-5v-42c0-1 1-2 2-1l3 4z" fill="#F0F0FC"/><path opacity=".4" d="M61 159v42c0 2-1 3-3 2l-2-5v-42c0-1 1-2 2-1l3 4z" fill="#F0F0FC"/><path d="M63 214c0-2-1-4-3-5h-2l-2 1v22l2 5h2l2-1 1-2v-20z" fill="#F0F0FC"/><path opacity=".3" d="M63 214c0-2-1-4-3-5h-2l-2 1v22l2 5h2l2-1 1-2v-20z" fill="#F0F0FC"/><path d="M61 215v20c0 2-1 2-3 2l-2-5v-20c0-2 1-2 2-2 2 1 3 3 3 5z" fill="#F0F0FC"/><path opacity=".4" d="M61 215v20c0 2-1 2-3 2l-2-5v-20c0-2 1-2 2-2 2 1 3 3 3 5z" fill="#F0F0FC"/><path d="M244 56L97 140c-2 1-3 4-3 6v310c0 2 1 4 3 5l2 2c2 1 5 1 7-1l146-84c2-1 4-4 4-6V63c0-3-2-5-4-6l-2-1h-6z" fill="#E0E0E0"/><path d="M256 372c0 3-2 5-5 7l-144 83c-2 1-4 0-4-3V152c0-3 1-6 4-8l144-83c2-1 5 0 5 3v308z" fill="#FAFAFA"/><path d="M103 196v263c0 3 2 4 4 3l144-83c3-2 5-4 5-7V107l-153 89z" fill="#fff"/><path d="M253 62l1 2v308c0 2-1 4-4 6l-143 83h-2l-1-2V152c0-3 1-5 4-7l144-83h1zm0-1h-2l-144 83c-3 2-4 5-4 8v307c0 2 1 3 2 3h2l144-83c3-2 5-4 5-7V64c0-2-2-3-3-3z" fill="#E0E0E0"/><path d="M256 63v1c0-3-3-4-5-3l-144 83a9 9 0 00-3 4l-9-5 2-3 147-84h6l2 1c2 1 4 3 4 6z" fill="#F0F0F0"/><path opacity=".1" d="M117 200l51-30c1-1 3 0 3 1 0 2-2 4-3 5l-51 30c-2 0-3 0-3-2 0-1 1-4 3-4zM122 217l30-17c1-1 3 0 3 2l-3 4-30 17c-2 1-3 1-3-1s1-4 3-5z" fill="#000"/><path d="M114 214l-1-1h1l134-78v1l-134 78zM114 238l-1-1 1-1 134-77v1l-134 77v1z" fill="#E0E0E0"/><path d="M228 156c1 0 2 0 2 2l-2 4c-2 1-3 0-3-1 0-2 1-4 3-5z" fill="#455A64"/><path d="M226 164h-1l-1-3c0-2 1-5 4-7l8-4h3l1 2c0 3-2 6-4 7l-8 4-2 1zm-1-3v2h3l8-5c2-1 3-4 3-6l-1-2-2 1-8 4c-2 1-3 4-3 6z" fill="#455A64"/><path opacity=".1" d="M122 241l46-26c1-1 3-1 3 1s-2 4-3 5l-46 26c-2 1-3 1-3-1s1-4 3-5z" fill="#000"/><path d="M114 261h-1l1-1 134-77v1l-134 77z" fill="#E0E0E0"/><path d="M226 188h-1l-1-3c0-2 1-5 4-7l8-4 3-1 1 3-4 7-8 4-2 1z" fill="#27DEBF"/><path d="M236 175c1 0 2 0 2 2l-2 4c-1 0-2 0-2-2l2-4z" fill="#FAFAFA"/><path d="M226 235h-1l-1-2c0-3 1-6 4-7l8-5h3l1 3c0 2-2 5-4 6l-8 5h-2z" fill="#27DEBF"/><path d="M236 223c1-1 2 0 2 1l-2 4c-1 1-2 0-2-1l2-4z" fill="#FAFAFA"/><path d="M226 259h-1l-1-3c0-2 1-5 4-6l8-5h3l1 2c0 3-2 6-4 7l-8 5h-2z" fill="#27DEBF"/><path d="M236 247c1-1 2 0 2 1l-2 4c-1 1-2 0-2-1l2-4z" fill="#FAFAFA"/><path opacity=".1" d="M122 265l30-17c1-1 3-1 3 1s-2 4-3 5l-30 17c-2 1-3 0-3-1 0-2 1-4 3-5z" fill="#000"/><path d="M114 285h-1l1-1 134-77c0-1 0-1 0 0v1l-134 77z" fill="#E0E0E0"/><path d="M228 204c1-1 2 0 2 1l-2 4c-2 1-3 1-3-1l3-4z" fill="#455A64"/><path d="M226 212l-1-1-1-2c0-3 1-6 4-7l8-5h3l1 3c0 2-2 5-4 6l-8 5-2 1zm-1-3v2l3-1 8-4c2-1 3-4 3-6l-1-2h-2l-8 5c-2 1-3 4-3 6z" fill="#455A64"/><path opacity=".1" d="M122 289l41-24c1-1 2 0 2 2l-2 4-41 24c-2 1-3 0-3-2l3-4z" fill="#000"/><path d="M114 309h-1l1-1 134-78v1c1 0 0 0 0 0l-134 78z" fill="#E0E0E0"/><path opacity=".1" d="M122 313l30-18c1-1 3 0 3 2l-3 4-30 18c-2 0-3 0-3-2l3-4zM117 343l51-30c1-1 3 0 3 1 0 2-2 4-3 5l-51 29c-2 1-3 1-3-1s1-4 3-4zM122 360l56-32c2-1 3 0 3 1 0 2-1 4-3 5l-56 32c-2 1-3 1-3-1s1-4 3-5z" fill="#000"/><path d="M114 357l-1-1 1-1 134-77v1l-134 78zM114 380h-1l1-1 134-77v1l-134 77z" fill="#E0E0E0"/><path opacity=".1" d="M122 384l46-26c1-1 3-1 3 1s-2 4-3 5l-46 26c-2 1-3 0-3-1 0-2 1-4 3-5z" fill="#000"/><path d="M210 309l27-15c2-1 3-1 3 1s-1 4-3 5l-27 15c-2 1-3 1-3-1s1-4 3-5z" fill="#E0E0E0"/><path d="M243 292h-1v-1h1v-1l2 1v2l-2 3v1l-1-1 1-1 1-2-1-1z" fill="#27DEBF"/><path d="M210 333l27-16c2 0 3 0 3 2 0 1-1 4-3 4l-27 16c-2 1-3 0-3-1 0-2 1-4 3-5z" fill="#E0E0E0"/><path d="M243 316l-1-1 1-1 2 1v2l-2 3h-1v-1h1l1-3h-1z" fill="#27DEBF"/><path d="M120 436l-1-1-1-2v-11l3-6 36-20h3l1 2v11c0 2-1 5-3 6l-36 20-2 1zm39-39h-1l-36 20-2 5v12h1l36-20c1-1 3-3 3-5v-11l-1-1z" fill="#E0E0E0"/><path d="M130 420v2h1v-1h1v-1 2l-1 1v1h-1-1v-1-1-1a5 5 0 010-2l1-1 1-1h1v2h-1v-1 1h-1a2 2 0 000 1zM133 421v-1l1-2h0l-1 1v-1a4 4 0 011-1l1-1h1v5h-1l-1 1h-1v-1zm2-1v-1l-1 1h1zM140 418l-1 1v-3-1l-1 1v3l-1 1v-5l1-1v1l1-1h1v4zM142 414v1h1v-1h1v2l-1 1h-1l-1-1v-1a4 4 0 011-3h1l1-1v1h1l-1 1h-1l-1 1zM146 413h1v-1h1a4 4 0 01-1 2l-1 1v-1h-1v-1-1l1-1v-1l1-1h1v1l1 1h-1v1l-2 1zm1-2h-1v1l1-1zM150 412v1h-1v-7h1v6z" fill="#E16363"/><path d="M204 384v-11c0-2 1-4 3-5l35-21c2-1 3 0 3 2v11c0 2-1 4-3 5l-35 21c-2 1-3 0-3-2z" fill="url(#paint2_linear)"/><path d="M218 367l1 5v1h-1v-1l-1 1-1 1-1 1v-1l2-6v-1h1zm-1 4h1l-1-2v2zM222 371h-1v2l-1 1v-7h1l1-1h1v2a5 5 0 010 2v1h-1zm0-2v-1-1 1a1 1 0 00-1 0v2h1v-1zM226 369l-1-1v3h-1v-6h1v-1 1l1-1 1-1v1l1 1v1a5 5 0 01-1 1v1l-1 1zm1-3l-1-1a1 1 0 000 1h-1v1h1l1-1zM230 366l-1 1v-6-1h1v6zM232 367h-1l1-2-2-3v-1h1l1 2 1-3 1-1-2 8z" fill="#FAFAFA"/><path d="M162 145h1l1 1-1 2-1 2h-1v3h-1v-7l2-1zm-1 4l1-1h1v-1-1h-1l-1 1v2zM166 146l-1 1v4-5-1 1l1-1 1-1v2h-1zM167 147a6 6 0 011-2v-1l1-1h1v3l-2 1h1l1-1v1a4 4 0 01-1 1v1h-1v-1h-1v-1zm2-3a1 1 0 00-1 1v1l1-1v-1zM172 141h1v1h-1v5h-1v-6-1h1a2 2 0 011-1v-1 2h-1v1zM174 143a6 6 0 010-2v-1l1-1h1l1 1v2l-3 1 1 1 1-1v-1h1v1a3 3 0 01-2 2h-1v-1-1zm1-2l-1 1 2-1-1-1v1zM179 138v1l-1 1v3h-1v-5h2v-1h1v1h-1z" fill="#455A64"/><path d="M180 139a6 6 0 010-2l1-1h1v-1l1 1v2l-2 1v1h1v-1h1a4 4 0 01-1 2h-1-1v-1-1zm2-2h-1a2 2 0 000 1l1-1zM187 138h-1v-3c0-1 0-1 0 0h-1v4l-1 1v-5-1h1l1-1h1v5zM189 134a3 3 0 000 1h1v-1h1a4 4 0 01-1 2l-1 1h-1v-1-1-1a5 5 0 010-2h1v-1h2v1l-1 1v-1h-1a1 1 0 000 1v1zM192 133a6 6 0 010-3h1v-1h1l1 1v1l-3 2h2v-1h1v1a4 4 0 01-2 1v1l-1-1v-1zm1-3a2 2 0 000 1h-1 2v-1h-1zM197 130h-1-1v-1h1a3 3 0 010-2h2v1h-1-1v1h2v2l-1 1h-1c0 1 0 0 0 0h-1v-1h2v-1zM114 177l1 1v2l-2-1v-1-1l2-3c0-1 0-1 0 0v1l-1 2zM116 179v-6-1l2-1h1l1 1a3 3 0 010 1l-1 1h1v1a4 4 0 01-1 2v1h-1l-2 1zm3-6v-1l-1 1h-1v2l1-1h1v-1zm-2 5l1-1 1-1v-1h-1l-1 1v2zM121 173v-1a4 4 0 010-1h2v5-1l-1 1-1 1-1-1 1-2 1-1 1-1h-1l-1 1zm1 2v-1a2 2 0 001 0v-1l-1 1-1 1h1zM125 171v1a3 3 0 000 1h1a1 1 0 000-1 6 6 0 001 0v-1 1a4 4 0 010 1l-1 1h-1l-1-1v-1a5 5 0 011-2v-1h1l1-1v2h-1a1 1 0 00-1 0v1zM129 170v2h-1c0 1 0 1 0 0v-6-1h1v3l1-2h1l-1 3 1 1v1h-1l-1-1zM235 104v-1l8-4h1l-9 5zM235 108v-1l8-5h1v1l-9 5zM235 111l8-5h1l-9 5z" fill="#455A64"/><path d="M235 102l1 1-1 2-1-1 1-2zM242 102l1 1-1 2-2-1 2-2zM239 108h1l-1 2h-1l1-2zM131 149v-1l-2 1v-1l2-5v-1 4h1v1h-1v2zm0-2v-3l-1 3h1zM133 147l-1-2 1-3 1-1 1-1v1h-1l-1 2v3h1a2 2 0 001 0v-2h-1v-1h1v3l-1 1h-1zM147 139l-1 2-1-1 1-2 1 1z" fill="#455A64"/><path d="M146 135l-2 4c-1 0-1 0 0 0l2-3 1 1h1v-1l-2-1z" fill="#455A64"/><path d="M146 133l-4 5v1l1-1 3-4c1-1 2 0 3 1v-1c-1-1-2-2-3-1zM171 122l1-3h1v-1 8h-1v-5l-1 1zM174 120l2-3v7-5l-1 1v1l-1-1zM178 117h1v2h-1v-2zm0 4h1v1h-1v-1zM182 120v-1l-2 1h-1v-1h1l2-5v-1h1v7h-1zm0-2v-2l-1 2h1zM184 112h1l2-2v2l-2 1v1h1v-1h1v2a5 5 0 010 2 3 3 0 01-1 1h-1-1v-1h2v-1l1-1h-1-1v1h-1v-4zM112 160v-2l2-1v2l-2 1zM115 159v-4l2-1v4l-2 1zM118 157v-6l1-1v6l-1 1zM120 156v-8l2-1v8l-2 1zM245 77h-1l-6 4-1 2v5h1l6-4 1-2v-4-1zm-8 10v-4l1-2 6-3h1v4l-1 1-6 4h-1z" fill="#455A64"/><path d="M239 81v5h-1v-3-1l1-1zM240 81l1-1v5h-1v-4zM241 80l1-1v5h-1v-4zM244 79v3l-1 1v-4h1c0-1 0 0 0 0zM245 78l1 1v1l-1 2v-4zM227 89l6-5-2 8-1-3h-3z" fill="#455A64"/><defs><linearGradient id="paint0_linear" x1="326" y1="-41" x2="21" y2="467.5" gradientUnits="userSpaceOnUse"><stop stop-color="#C5C6F1"/><stop offset="1" stop-color="#EAEAF9"/></linearGradient><linearGradient id="paint1_linear" x1="36" y1="498.5" x2="339" y2="-70" gradientUnits="userSpaceOnUse"><stop stop-color="#F0F0FC"/><stop offset="1" stop-color="#BEBFEE" stop-opacity=".9"/><stop offset="1" stop-color="#BEBEED"/></linearGradient><linearGradient id="paint2_linear" x1="224.6" y1="346.8" x2="224.6" y2="386.1" gradientUnits="userSpaceOnUse"><stop stop-color="#56F3CF"/><stop offset="1" stop-color="#41C4E0"/></linearGradient></defs></svg>