<svg width="45" height="45" viewBox="0 0 45 45" fill="none" xmlns="http://www.w3.org/2000/svg">
<path d="M40.1019 36.9866C39.9161 36.9359 39.6908 36.9641 39.4318 37.0598C35.9629 38.6479 32.5897 39.7798 29.3123 40.4499C22.2337 41.8915 15.3353 41.1369 8.62275 38.1917C6.75878 37.3695 4.16837 35.9842 0.85151 34.0245C0.766045 33.9571 0.661781 33.9177 0.553049 33.9119C0.440423 33.9063 0.34469 33.9175 0.254589 33.9626C0.164488 34.0076 0.0969112 34.0639 0.0462292 34.1372C-0.00445282 34.2104 -0.0157151 34.3117 0.0237042 34.4412C0.0574922 34.5651 0.141962 34.7059 0.282746 34.858C0.868404 35.545 1.59485 36.2771 2.45644 37.0542C3.31803 37.8313 4.4612 38.7098 5.88592 39.6897C7.31065 40.6695 8.80296 41.5424 10.3516 42.3026C11.9058 43.0628 13.7078 43.7048 15.7633 44.2229C17.8187 44.741 19.8742 45 21.924 45C23.9625 45 25.9447 44.7916 27.865 44.3862C29.7909 43.9751 31.4128 43.4908 32.7361 42.9277C34.0539 42.3702 35.2702 41.7451 36.3852 41.0693C37.5002 40.3936 38.3224 39.8192 38.8574 39.363C39.3924 38.9013 39.7753 38.5409 39.9949 38.2706C40.254 37.9496 40.3835 37.6736 40.3835 37.4315C40.3891 37.1781 40.2878 37.0317 40.1019 36.9866ZM23.3431 13.29C22.4871 13.3632 21.4566 13.5208 20.2458 13.7574C19.0351 13.9882 17.9145 14.2811 16.8783 14.6246C15.8421 14.9681 14.7834 15.4468 13.7078 16.0549C12.6266 16.6631 11.7087 17.3614 10.9485 18.1385C10.1883 18.9157 9.56882 19.8899 9.08452 21.0668C8.60023 22.2381 8.35808 23.5277 8.35808 24.9356C8.35808 26.4616 8.62275 27.8188 9.16336 29.0183C9.69834 30.2177 10.4135 31.1582 11.3145 31.8565C12.2099 32.5547 13.2292 33.101 14.3555 33.5008C15.4817 33.9006 16.6756 34.0808 17.9145 34.0302C19.1533 33.9795 20.3641 33.788 21.541 33.4501C22.7124 33.1179 23.8161 32.5829 24.841 31.8565C25.8659 31.13 26.705 30.2684 27.3638 29.2829C27.606 29.6546 27.82 29.9305 28.0114 30.1108L28.5014 30.6119C28.828 30.9442 29.3292 31.4341 30.0049 32.0817C30.6751 32.7293 31.3621 33.36 32.0491 33.9795L37.9282 28.3538L37.5903 28.0778C37.3482 27.892 37.061 27.6273 36.7344 27.2726C36.4078 26.9234 36.0811 26.5349 35.7658 26.1181C35.4448 25.7014 35.1689 25.2115 34.938 24.6596C34.7071 24.1077 34.5888 23.5728 34.5888 23.0547V8.25554C34.5888 7.68677 34.4818 7.07296 34.2679 6.40846C34.0482 5.74959 33.6653 5.02878 33.1022 4.25166C32.539 3.47453 31.8407 2.77625 31.0073 2.16806C30.1682 1.55988 29.0532 1.0418 27.651 0.625078C26.2545 0.208359 24.689 0 22.9658 0C21.2032 0 19.5644 0.208359 18.0327 0.613816C16.5066 1.0249 15.2002 1.57114 14.1077 2.25817C13.0208 2.94519 12.086 3.73921 11.3089 4.64585C10.5318 5.5525 9.95175 6.49856 9.57445 7.48404C9.19715 8.46953 9.00568 9.46627 9.00568 10.4743L16.6192 11.1444C16.929 10.2209 17.3457 9.42122 17.8581 8.7342C18.3762 8.04718 18.8662 7.55162 19.311 7.2419C19.7615 6.93217 20.2458 6.68439 20.7583 6.49856C21.2764 6.31273 21.6255 6.21699 21.8057 6.19447C21.9859 6.17758 22.1267 6.17194 22.2337 6.17194C23.7373 6.17194 24.7791 6.61682 25.3647 7.50094C25.7307 8.03592 25.911 8.84683 25.911 9.93931V13.1266C25.055 13.1604 24.199 13.2167 23.3431 13.29ZM25.9166 21.8439C25.9166 22.7787 25.7927 23.6291 25.5505 24.378C25.0325 26.0168 24.047 27.0473 22.5997 27.464C21.3383 27.8357 20.1388 27.6499 19.0013 26.9121C17.7906 26.1238 17.188 25.0088 17.188 23.5728C17.188 22.4521 17.4696 21.4948 18.0327 20.6952C18.5958 19.9011 19.3448 19.3042 20.2852 18.91C21.2257 18.5158 22.1436 18.2343 23.0446 18.071C23.94 17.902 24.9029 17.8006 25.9166 17.7669V21.8439ZM44.7928 34.1709C44.5507 33.8669 43.8974 33.6698 42.8275 33.5684C41.7575 33.467 40.8284 33.4727 40.0287 33.5909C39.1671 33.6923 38.2774 33.9401 37.3651 34.3455C36.4472 34.7453 36.0474 35.0832 36.1487 35.3479L36.1881 35.4211L36.2388 35.4605L36.3177 35.4718H36.5767C36.6217 35.4718 36.6781 35.4661 36.7569 35.4605C36.8357 35.4549 36.9089 35.4436 36.9765 35.438C37.0441 35.4324 37.1398 35.4211 37.2637 35.4155C37.382 35.4098 37.4946 35.3929 37.6016 35.376C37.6185 35.376 37.81 35.3592 38.1816 35.3254C38.5533 35.2916 38.8236 35.2691 38.9869 35.2522C39.1502 35.2353 39.4262 35.2184 39.8035 35.2015C40.1808 35.1846 40.4848 35.1846 40.7101 35.2015C40.9354 35.2184 41.1888 35.2409 41.476 35.2634C41.7632 35.2859 41.994 35.3366 42.1742 35.4155C42.3544 35.4887 42.4896 35.5844 42.5741 35.7027C42.8669 36.0743 42.8106 36.8965 42.4051 38.1748C41.9997 39.4531 41.6167 40.4724 41.2563 41.227C41.0987 41.548 41.0987 41.7451 41.2563 41.8296C41.414 41.914 41.6336 41.8352 41.9265 41.6043C42.805 40.9173 43.537 39.8811 44.1283 38.4902C44.4718 37.668 44.7196 36.812 44.866 35.9167C45.0012 35.0213 44.9786 34.4412 44.7928 34.1709Z" fill="#495057"/>
</svg>
