<svg width="131" height="96" fill="none" xmlns="http://www.w3.org/2000/svg"><rect x="5.6" y="11.2" width="4.5" height="50.5" rx="2.3" fill="#8D8BFF"/><rect x="25.3" y="28.1" width="4.5" height="34.3" rx="2.3" fill="#8D8BFF"/><rect x="44.9" y="11.2" width="4.5" height="50.5" rx="2.3" fill="#8D8BFF"/><rect x="123.5" y="2.8" width="4.5" height="58.7" rx="2.3" fill="#8D8BFF"/><rect x="64.6" y="35.1" width="4.5" height="27.1" rx="2.3" fill="#8D8BFF"/><rect x="84.2" width="4.5" height="62.3" rx="2.3" fill="#8D8BFF"/><rect x="103.9" y="11.2" width="4.5" height="50.5" rx="2.3" fill="#8D8BFF"/><path d="M124 74l-2-1-1-2 1-1 2-1h2l1 1v2h-1v-2h-2-1v2l2 1 1 1h1v3l-3 1h-1l-1-1-1-2h1l1 2h3v-1-1l-2-1zM29 70h-2v8h-2v-8h-2v-1h6v1zM42 75v1l1-1 1-6h1l2 6v1-1l2-6h1l-2 9h-1l-2-6v-1 1l-2 6h-1l-2-9h1l1 6zM69 70h-3v8h-1v-8h-3v-1h7v1zM87 74h-3v4h-2v-9h6v1h-4v3h3v1zM105 74l-3-1v-2l1-1 2-1h1l1 1 1 2h-1l-1-2h-3v2l2 1 2 1 1 2-1 1-2 1h-2l-1-1v-2h1v2h3l1-1-1-1-1-1zM2 69l3 7 3-7h1v9H8v-7l-2 7H5l-3-7v7H1v-9h1z" fill="#8D8BFF"/></svg>