<svg width="412" height="189" viewBox="0 0 412 189" fill="none" xmlns="http://www.w3.org/2000/svg">
<path d="M7.34863 11H0.827148V10.0908L4.27246 6.2627C4.78288 5.68392 5.13379 5.21452 5.3252 4.85449C5.52116 4.48991 5.61914 4.11393 5.61914 3.72656C5.61914 3.20703 5.46191 2.78092 5.14746 2.44824C4.83301 2.11556 4.41374 1.94922 3.88965 1.94922C3.26074 1.94922 2.77083 2.12923 2.41992 2.48926C2.07357 2.84473 1.90039 3.34147 1.90039 3.97949H0.635742C0.635742 3.06348 0.929688 2.32292 1.51758 1.75781C2.11003 1.19271 2.90072 0.910156 3.88965 0.910156C4.81478 0.910156 5.54622 1.15397 6.08398 1.6416C6.62174 2.12467 6.89062 2.76953 6.89062 3.57617C6.89062 4.55599 6.26628 5.72266 5.01758 7.07617L2.35156 9.96777H7.34863V11Z" fill="#495057"/>
<path d="M6.05273 86H4.78125V77.5713L2.23145 78.5078V77.3594L5.85449 75.999H6.05273V86Z" fill="#495057"/>
<path d="M8.1377 156.755C8.1377 158.236 7.88477 159.337 7.37891 160.057C6.87305 160.777 6.08236 161.137 5.00684 161.137C3.94499 161.137 3.15885 160.786 2.64844 160.084C2.13802 159.378 1.8737 158.325 1.85547 156.926V155.237C1.85547 153.774 2.1084 152.688 2.61426 151.977C3.12012 151.266 3.91309 150.91 4.99316 150.91C6.06413 150.91 6.85254 151.254 7.3584 151.942C7.86426 152.626 8.12402 153.683 8.1377 155.114V156.755ZM6.87305 155.025C6.87305 153.954 6.72266 153.175 6.42188 152.688C6.12109 152.195 5.64486 151.949 4.99316 151.949C4.34603 151.949 3.87435 152.193 3.57812 152.681C3.2819 153.168 3.12923 153.918 3.12012 154.93V156.953C3.12012 158.029 3.27507 158.824 3.58496 159.339C3.89941 159.849 4.37337 160.104 5.00684 160.104C5.63118 160.104 6.09375 159.863 6.39453 159.38C6.69987 158.897 6.85938 158.136 6.87305 157.097V155.025Z" fill="#495057"/>
<path d="M15.4434 177.469L18.2324 184.43L21.0215 177.469H22.4805V186H21.3555V182.678L21.4609 179.092L18.6602 186H17.7988L15.0039 179.109L15.1152 182.678V186H13.9902V177.469H15.4434ZM28.2109 186C28.1484 185.875 28.0977 185.652 28.0586 185.332C27.5547 185.855 26.9531 186.117 26.2539 186.117C25.6289 186.117 25.1152 185.941 24.7129 185.59C24.3145 185.234 24.1152 184.785 24.1152 184.242C24.1152 183.582 24.3652 183.07 24.8652 182.707C25.3691 182.34 26.0762 182.156 26.9863 182.156H28.041V181.658C28.041 181.279 27.9277 180.979 27.7012 180.756C27.4746 180.529 27.1406 180.416 26.6992 180.416C26.3125 180.416 25.9883 180.514 25.7266 180.709C25.4648 180.904 25.334 181.141 25.334 181.418H24.2441C24.2441 181.102 24.3555 180.797 24.5781 180.504C24.8047 180.207 25.1094 179.973 25.4922 179.801C25.8789 179.629 26.3027 179.543 26.7637 179.543C27.4941 179.543 28.0664 179.727 28.4805 180.094C28.8945 180.457 29.1094 180.959 29.125 181.6V184.518C29.125 185.1 29.1992 185.562 29.3477 185.906V186H28.2109ZM26.4121 185.174C26.752 185.174 27.0742 185.086 27.3789 184.91C27.6836 184.734 27.9043 184.506 28.041 184.225V182.924H27.1914C25.8633 182.924 25.1992 183.312 25.1992 184.09C25.1992 184.43 25.3125 184.695 25.5391 184.887C25.7656 185.078 26.0566 185.174 26.4121 185.174ZM32.8047 184.412L34.2812 179.66H35.4414L32.8926 186.979C32.498 188.033 31.8711 188.561 31.0117 188.561L30.8066 188.543L30.4023 188.467V187.588L30.6953 187.611C31.0625 187.611 31.3477 187.537 31.5508 187.389C31.7578 187.24 31.9277 186.969 32.0605 186.574L32.3008 185.93L30.0391 179.66H31.2227L32.8047 184.412ZM42.8418 186H41.752V178.775L39.5664 179.578V178.594L42.6719 177.428H42.8418V186ZM47.5938 181.207H48.4082C48.9199 181.199 49.3223 181.064 49.6152 180.803C49.9082 180.541 50.0547 180.188 50.0547 179.742C50.0547 178.742 49.5566 178.242 48.5605 178.242C48.0918 178.242 47.7168 178.377 47.4355 178.646C47.1582 178.912 47.0195 179.266 47.0195 179.707H45.9355C45.9355 179.031 46.1816 178.471 46.6738 178.025C47.1699 177.576 47.7988 177.352 48.5605 177.352C49.3652 177.352 49.9961 177.564 50.4531 177.99C50.9102 178.416 51.1387 179.008 51.1387 179.766C51.1387 180.137 51.0176 180.496 50.7754 180.844C50.5371 181.191 50.2109 181.451 49.7969 181.623C50.2656 181.771 50.627 182.018 50.8809 182.361C51.1387 182.705 51.2676 183.125 51.2676 183.621C51.2676 184.387 51.0176 184.994 50.5176 185.443C50.0176 185.893 49.3672 186.117 48.5664 186.117C47.7656 186.117 47.1133 185.9 46.6094 185.467C46.1094 185.033 45.8594 184.461 45.8594 183.75H46.9492C46.9492 184.199 47.0957 184.559 47.3887 184.828C47.6816 185.098 48.0742 185.232 48.5664 185.232C49.0898 185.232 49.4902 185.096 49.7676 184.822C50.0449 184.549 50.1836 184.156 50.1836 183.645C50.1836 183.148 50.0312 182.768 49.7266 182.502C49.4219 182.236 48.9824 182.1 48.4082 182.092H47.5938V181.207Z" fill="#495057"/>
<path d="M103.443 177.469L106.232 184.43L109.021 177.469H110.48V186H109.355V182.678L109.461 179.092L106.66 186H105.799L103.004 179.109L103.115 182.678V186H101.99V177.469H103.443ZM116.211 186C116.148 185.875 116.098 185.652 116.059 185.332C115.555 185.855 114.953 186.117 114.254 186.117C113.629 186.117 113.115 185.941 112.713 185.59C112.314 185.234 112.115 184.785 112.115 184.242C112.115 183.582 112.365 183.07 112.865 182.707C113.369 182.34 114.076 182.156 114.986 182.156H116.041V181.658C116.041 181.279 115.928 180.979 115.701 180.756C115.475 180.529 115.141 180.416 114.699 180.416C114.312 180.416 113.988 180.514 113.727 180.709C113.465 180.904 113.334 181.141 113.334 181.418H112.244C112.244 181.102 112.355 180.797 112.578 180.504C112.805 180.207 113.109 179.973 113.492 179.801C113.879 179.629 114.303 179.543 114.764 179.543C115.494 179.543 116.066 179.727 116.48 180.094C116.895 180.457 117.109 180.959 117.125 181.6V184.518C117.125 185.1 117.199 185.562 117.348 185.906V186H116.211ZM114.412 185.174C114.752 185.174 115.074 185.086 115.379 184.91C115.684 184.734 115.904 184.506 116.041 184.225V182.924H115.191C113.863 182.924 113.199 183.312 113.199 184.09C113.199 184.43 113.312 184.695 113.539 184.887C113.766 185.078 114.057 185.174 114.412 185.174ZM120.805 184.412L122.281 179.66H123.441L120.893 186.979C120.498 188.033 119.871 188.561 119.012 188.561L118.807 188.543L118.402 188.467V187.588L118.695 187.611C119.062 187.611 119.348 187.537 119.551 187.389C119.758 187.24 119.928 186.969 120.061 186.574L120.301 185.93L118.039 179.66H119.223L120.805 184.412ZM130.842 186H129.752V178.775L127.566 179.578V178.594L130.672 177.428H130.842V186ZM138.271 177.463V178.383H138.072C137.229 178.398 136.557 178.648 136.057 179.133C135.557 179.617 135.268 180.299 135.189 181.178C135.639 180.662 136.252 180.404 137.029 180.404C137.771 180.404 138.363 180.666 138.805 181.189C139.25 181.713 139.473 182.389 139.473 183.217C139.473 184.096 139.232 184.799 138.752 185.326C138.275 185.854 137.635 186.117 136.83 186.117C136.014 186.117 135.352 185.805 134.844 185.18C134.336 184.551 134.082 183.742 134.082 182.754V182.338C134.082 180.768 134.416 179.568 135.084 178.74C135.756 177.908 136.754 177.482 138.078 177.463H138.271ZM136.848 181.307C136.477 181.307 136.135 181.418 135.822 181.641C135.51 181.863 135.293 182.143 135.172 182.479V182.877C135.172 183.58 135.33 184.146 135.646 184.576C135.963 185.006 136.357 185.221 136.83 185.221C137.318 185.221 137.701 185.041 137.979 184.682C138.26 184.322 138.4 183.852 138.4 183.27C138.4 182.684 138.258 182.211 137.973 181.852C137.691 181.488 137.316 181.307 136.848 181.307Z" fill="#495057"/>
<path d="M191.443 177.469L194.232 184.43L197.021 177.469H198.48V186H197.355V182.678L197.461 179.092L194.66 186H193.799L191.004 179.109L191.115 182.678V186H189.99V177.469H191.443ZM204.211 186C204.148 185.875 204.098 185.652 204.059 185.332C203.555 185.855 202.953 186.117 202.254 186.117C201.629 186.117 201.115 185.941 200.713 185.59C200.314 185.234 200.115 184.785 200.115 184.242C200.115 183.582 200.365 183.07 200.865 182.707C201.369 182.34 202.076 182.156 202.986 182.156H204.041V181.658C204.041 181.279 203.928 180.979 203.701 180.756C203.475 180.529 203.141 180.416 202.699 180.416C202.312 180.416 201.988 180.514 201.727 180.709C201.465 180.904 201.334 181.141 201.334 181.418H200.244C200.244 181.102 200.355 180.797 200.578 180.504C200.805 180.207 201.109 179.973 201.492 179.801C201.879 179.629 202.303 179.543 202.764 179.543C203.494 179.543 204.066 179.727 204.48 180.094C204.895 180.457 205.109 180.959 205.125 181.6V184.518C205.125 185.1 205.199 185.562 205.348 185.906V186H204.211ZM202.412 185.174C202.752 185.174 203.074 185.086 203.379 184.91C203.684 184.734 203.904 184.506 204.041 184.225V182.924H203.191C201.863 182.924 201.199 183.312 201.199 184.09C201.199 184.43 201.312 184.695 201.539 184.887C201.766 185.078 202.057 185.174 202.412 185.174ZM208.805 184.412L210.281 179.66H211.441L208.893 186.979C208.498 188.033 207.871 188.561 207.012 188.561L206.807 188.543L206.402 188.467V187.588L206.695 187.611C207.062 187.611 207.348 187.537 207.551 187.389C207.758 187.24 207.928 186.969 208.061 186.574L208.301 185.93L206.039 179.66H207.223L208.805 184.412ZM218.842 186H217.752V178.775L215.566 179.578V178.594L218.672 177.428H218.842V186ZM226.172 182.25C225.945 182.52 225.674 182.736 225.357 182.9C225.045 183.064 224.701 183.146 224.326 183.146C223.834 183.146 223.404 183.025 223.037 182.783C222.674 182.541 222.393 182.201 222.193 181.764C221.994 181.322 221.895 180.836 221.895 180.305C221.895 179.734 222.002 179.221 222.217 178.764C222.436 178.307 222.744 177.957 223.143 177.715C223.541 177.473 224.006 177.352 224.537 177.352C225.381 177.352 226.045 177.668 226.529 178.301C227.018 178.93 227.262 179.789 227.262 180.879V181.195C227.262 182.855 226.934 184.068 226.277 184.834C225.621 185.596 224.631 185.986 223.307 186.006H223.096V185.092H223.324C224.219 185.076 224.906 184.844 225.387 184.395C225.867 183.941 226.129 183.227 226.172 182.25ZM224.502 182.25C224.865 182.25 225.199 182.139 225.504 181.916C225.812 181.693 226.037 181.418 226.178 181.09V180.656C226.178 179.945 226.023 179.367 225.715 178.922C225.406 178.477 225.016 178.254 224.543 178.254C224.066 178.254 223.684 178.438 223.395 178.805C223.105 179.168 222.961 179.648 222.961 180.246C222.961 180.828 223.1 181.309 223.377 181.688C223.658 182.062 224.033 182.25 224.502 182.25Z" fill="#495057"/>
<path d="M279.443 177.469L282.232 184.43L285.021 177.469H286.48V186H285.355V182.678L285.461 179.092L282.66 186H281.799L279.004 179.109L279.115 182.678V186H277.99V177.469H279.443ZM292.211 186C292.148 185.875 292.098 185.652 292.059 185.332C291.555 185.855 290.953 186.117 290.254 186.117C289.629 186.117 289.115 185.941 288.713 185.59C288.314 185.234 288.115 184.785 288.115 184.242C288.115 183.582 288.365 183.07 288.865 182.707C289.369 182.34 290.076 182.156 290.986 182.156H292.041V181.658C292.041 181.279 291.928 180.979 291.701 180.756C291.475 180.529 291.141 180.416 290.699 180.416C290.312 180.416 289.988 180.514 289.727 180.709C289.465 180.904 289.334 181.141 289.334 181.418H288.244C288.244 181.102 288.355 180.797 288.578 180.504C288.805 180.207 289.109 179.973 289.492 179.801C289.879 179.629 290.303 179.543 290.764 179.543C291.494 179.543 292.066 179.727 292.48 180.094C292.895 180.457 293.109 180.959 293.125 181.6V184.518C293.125 185.1 293.199 185.562 293.348 185.906V186H292.211ZM290.412 185.174C290.752 185.174 291.074 185.086 291.379 184.91C291.684 184.734 291.904 184.506 292.041 184.225V182.924H291.191C289.863 182.924 289.199 183.312 289.199 184.09C289.199 184.43 289.312 184.695 289.539 184.887C289.766 185.078 290.057 185.174 290.412 185.174ZM296.805 184.412L298.281 179.66H299.441L296.893 186.979C296.498 188.033 295.871 188.561 295.012 188.561L294.807 188.543L294.402 188.467V187.588L294.695 187.611C295.062 187.611 295.348 187.537 295.551 187.389C295.758 187.24 295.928 186.969 296.061 186.574L296.301 185.93L294.039 179.66H295.223L296.805 184.412ZM308.869 186H303.279V185.221L306.232 181.939C306.67 181.443 306.971 181.041 307.135 180.732C307.303 180.42 307.387 180.098 307.387 179.766C307.387 179.32 307.252 178.955 306.982 178.67C306.713 178.385 306.354 178.242 305.904 178.242C305.365 178.242 304.945 178.396 304.645 178.705C304.348 179.01 304.199 179.436 304.199 179.982H303.115C303.115 179.197 303.367 178.562 303.871 178.078C304.379 177.594 305.057 177.352 305.904 177.352C306.697 177.352 307.324 177.561 307.785 177.979C308.246 178.393 308.477 178.945 308.477 179.637C308.477 180.477 307.941 181.477 306.871 182.637L304.586 185.115H308.869V186ZM315.607 186H310.018V185.221L312.971 181.939C313.408 181.443 313.709 181.041 313.873 180.732C314.041 180.42 314.125 180.098 314.125 179.766C314.125 179.32 313.99 178.955 313.721 178.67C313.451 178.385 313.092 178.242 312.643 178.242C312.104 178.242 311.684 178.396 311.383 178.705C311.086 179.01 310.938 179.436 310.938 179.982H309.854C309.854 179.197 310.105 178.562 310.609 178.078C311.117 177.594 311.795 177.352 312.643 177.352C313.436 177.352 314.062 177.561 314.523 177.979C314.984 178.393 315.215 178.945 315.215 179.637C315.215 180.477 314.68 181.477 313.609 182.637L311.324 185.115H315.607V186Z" fill="#495057"/>
<path d="M367.443 177.469L370.232 184.43L373.021 177.469H374.48V186H373.355V182.678L373.461 179.092L370.66 186H369.799L367.004 179.109L367.115 182.678V186H365.99V177.469H367.443ZM380.211 186C380.148 185.875 380.098 185.652 380.059 185.332C379.555 185.855 378.953 186.117 378.254 186.117C377.629 186.117 377.115 185.941 376.713 185.59C376.314 185.234 376.115 184.785 376.115 184.242C376.115 183.582 376.365 183.07 376.865 182.707C377.369 182.34 378.076 182.156 378.986 182.156H380.041V181.658C380.041 181.279 379.928 180.979 379.701 180.756C379.475 180.529 379.141 180.416 378.699 180.416C378.312 180.416 377.988 180.514 377.727 180.709C377.465 180.904 377.334 181.141 377.334 181.418H376.244C376.244 181.102 376.355 180.797 376.578 180.504C376.805 180.207 377.109 179.973 377.492 179.801C377.879 179.629 378.303 179.543 378.764 179.543C379.494 179.543 380.066 179.727 380.48 180.094C380.895 180.457 381.109 180.959 381.125 181.6V184.518C381.125 185.1 381.199 185.562 381.348 185.906V186H380.211ZM378.412 185.174C378.752 185.174 379.074 185.086 379.379 184.91C379.684 184.734 379.904 184.506 380.041 184.225V182.924H379.191C377.863 182.924 377.199 183.312 377.199 184.09C377.199 184.43 377.312 184.695 377.539 184.887C377.766 185.078 378.057 185.174 378.412 185.174ZM384.805 184.412L386.281 179.66H387.441L384.893 186.979C384.498 188.033 383.871 188.561 383.012 188.561L382.807 188.543L382.402 188.467V187.588L382.695 187.611C383.062 187.611 383.348 187.537 383.551 187.389C383.758 187.24 383.928 186.969 384.061 186.574L384.301 185.93L382.039 179.66H383.223L384.805 184.412ZM396.869 186H391.279V185.221L394.232 181.939C394.67 181.443 394.971 181.041 395.135 180.732C395.303 180.42 395.387 180.098 395.387 179.766C395.387 179.32 395.252 178.955 394.982 178.67C394.713 178.385 394.354 178.242 393.904 178.242C393.365 178.242 392.945 178.396 392.645 178.705C392.348 179.01 392.199 179.436 392.199 179.982H391.115C391.115 179.197 391.367 178.562 391.871 178.078C392.379 177.594 393.057 177.352 393.904 177.352C394.697 177.352 395.324 177.561 395.785 177.979C396.246 178.393 396.477 178.945 396.477 179.637C396.477 180.477 395.941 181.477 394.871 182.637L392.586 185.115H396.869V186ZM398.516 181.723L398.949 177.469H403.32V178.471H399.869L399.611 180.797C400.029 180.551 400.504 180.428 401.035 180.428C401.812 180.428 402.43 180.686 402.887 181.201C403.344 181.713 403.572 182.406 403.572 183.281C403.572 184.16 403.334 184.854 402.857 185.361C402.385 185.865 401.723 186.117 400.871 186.117C400.117 186.117 399.502 185.908 399.025 185.49C398.549 185.072 398.277 184.494 398.211 183.756H399.236C399.303 184.244 399.477 184.613 399.758 184.863C400.039 185.109 400.41 185.232 400.871 185.232C401.375 185.232 401.77 185.061 402.055 184.717C402.344 184.373 402.488 183.898 402.488 183.293C402.488 182.723 402.332 182.266 402.02 181.922C401.711 181.574 401.299 181.4 400.783 181.4C400.311 181.4 399.939 181.504 399.67 181.711L399.383 181.945L398.516 181.723Z" fill="#495057"/>
<line x1="25" y1="5.5" x2="412" y2="5.49997" stroke="#DDE2E5"/>
<line x1="25" y1="80.5" x2="412" y2="80.5" stroke="#DDE2E5"/>
<line x1="25" y1="155.5" x2="275" y2="155.5" stroke="#5351FB"/>
<line x1="320" y1="155.5" x2="412" y2="155.5" stroke="#5351FB"/>
<path d="M275 156L298.006 5.92436" stroke="#5351FB"/>
<path d="M320 156L296.994 5.92511" stroke="#5351FB"/>
<path d="M297.5 9.5L275 155H320L297.5 9.5Z" fill="#5351FB" fill-opacity="0.25"/>
</svg>
