<svg width="419" height="229" viewBox="0 0 419 229" fill="none" xmlns="http://www.w3.org/2000/svg">
<path d="M5.19141 163H3.91992V154.571L1.37012 155.508V154.359L4.99316 152.999H5.19141V163ZM15.1377 158.755C15.1377 160.236 14.8848 161.337 14.3789 162.057C13.873 162.777 13.0824 163.137 12.0068 163.137C10.945 163.137 10.1589 162.786 9.64844 162.084C9.13802 161.378 8.8737 160.325 8.85547 158.926V157.237C8.85547 155.774 9.1084 154.688 9.61426 153.977C10.1201 153.266 10.9131 152.91 11.9932 152.91C13.0641 152.91 13.8525 153.254 14.3584 153.942C14.8643 154.626 15.124 155.683 15.1377 157.114V158.755ZM13.873 157.025C13.873 155.954 13.7227 155.175 13.4219 154.688C13.1211 154.195 12.6449 153.949 11.9932 153.949C11.346 153.949 10.8743 154.193 10.5781 154.681C10.2819 155.168 10.1292 155.918 10.1201 156.93V158.953C10.1201 160.029 10.2751 160.824 10.585 161.339C10.8994 161.849 11.3734 162.104 12.0068 162.104C12.6312 162.104 13.0938 161.863 13.3945 161.38C13.6999 160.897 13.8594 160.136 13.873 159.097V157.025ZM22.999 158.755C22.999 160.236 22.7461 161.337 22.2402 162.057C21.7344 162.777 20.9437 163.137 19.8682 163.137C18.8063 163.137 18.0202 162.786 17.5098 162.084C16.9993 161.378 16.735 160.325 16.7168 158.926V157.237C16.7168 155.774 16.9697 154.688 17.4756 153.977C17.9814 153.266 18.7744 152.91 19.8545 152.91C20.9255 152.91 21.7139 153.254 22.2197 153.942C22.7256 154.626 22.9854 155.683 22.999 157.114V158.755ZM21.7344 157.025C21.7344 155.954 21.584 155.175 21.2832 154.688C20.9824 154.195 20.5062 153.949 19.8545 153.949C19.2074 153.949 18.7357 154.193 18.4395 154.681C18.1432 155.168 17.9906 155.918 17.9814 156.93V158.953C17.9814 160.029 18.1364 160.824 18.4463 161.339C18.7607 161.849 19.2347 162.104 19.8682 162.104C20.4925 162.104 20.9551 161.863 21.2559 161.38C21.5612 160.897 21.7207 160.136 21.7344 159.097V157.025Z" fill="#495057"/>
<path d="M15.1377 196.755C15.1377 198.236 14.8848 199.337 14.3789 200.057C13.873 200.777 13.0824 201.137 12.0068 201.137C10.945 201.137 10.1589 200.786 9.64844 200.084C9.13802 199.378 8.8737 198.325 8.85547 196.926V195.237C8.85547 193.774 9.1084 192.688 9.61426 191.977C10.1201 191.266 10.9131 190.91 11.9932 190.91C13.0641 190.91 13.8525 191.254 14.3584 191.942C14.8643 192.626 15.124 193.683 15.1377 195.114V196.755ZM13.873 195.025C13.873 193.954 13.7227 193.175 13.4219 192.688C13.1211 192.195 12.6449 191.949 11.9932 191.949C11.346 191.949 10.8743 192.193 10.5781 192.681C10.2819 193.168 10.1292 193.918 10.1201 194.93V196.953C10.1201 198.029 10.2751 198.824 10.585 199.339C10.8994 199.849 11.3734 200.104 12.0068 200.104C12.6312 200.104 13.0938 199.863 13.3945 199.38C13.6999 198.897 13.8594 198.136 13.873 197.097V195.025Z" fill="#495057"/>
<path d="M22.4434 217.469L25.2324 224.43L28.0215 217.469H29.4805V226H28.3555V222.678L28.4609 219.092L25.6602 226H24.7988L22.0039 219.109L22.1152 222.678V226H20.9902V217.469H22.4434ZM35.2109 226C35.1484 225.875 35.0977 225.652 35.0586 225.332C34.5547 225.855 33.9531 226.117 33.2539 226.117C32.6289 226.117 32.1152 225.941 31.7129 225.59C31.3145 225.234 31.1152 224.785 31.1152 224.242C31.1152 223.582 31.3652 223.07 31.8652 222.707C32.3691 222.34 33.0762 222.156 33.9863 222.156H35.041V221.658C35.041 221.279 34.9277 220.979 34.7012 220.756C34.4746 220.529 34.1406 220.416 33.6992 220.416C33.3125 220.416 32.9883 220.514 32.7266 220.709C32.4648 220.904 32.334 221.141 32.334 221.418H31.2441C31.2441 221.102 31.3555 220.797 31.5781 220.504C31.8047 220.207 32.1094 219.973 32.4922 219.801C32.8789 219.629 33.3027 219.543 33.7637 219.543C34.4941 219.543 35.0664 219.727 35.4805 220.094C35.8945 220.457 36.1094 220.959 36.125 221.6V224.518C36.125 225.1 36.1992 225.562 36.3477 225.906V226H35.2109ZM33.4121 225.174C33.752 225.174 34.0742 225.086 34.3789 224.91C34.6836 224.734 34.9043 224.506 35.041 224.225V222.924H34.1914C32.8633 222.924 32.1992 223.312 32.1992 224.09C32.1992 224.43 32.3125 224.695 32.5391 224.887C32.7656 225.078 33.0566 225.174 33.4121 225.174ZM39.8047 224.412L41.2812 219.66H42.4414L39.8926 226.979C39.498 228.033 38.8711 228.561 38.0117 228.561L37.8066 228.543L37.4023 228.467V227.588L37.6953 227.611C38.0625 227.611 38.3477 227.537 38.5508 227.389C38.7578 227.24 38.9277 226.969 39.0605 226.574L39.3008 225.93L37.0391 219.66H38.2227L39.8047 224.412ZM49.8418 226H48.752V218.775L46.5664 219.578V218.594L49.6719 217.428H49.8418V226ZM54.5938 221.207H55.4082C55.9199 221.199 56.3223 221.064 56.6152 220.803C56.9082 220.541 57.0547 220.188 57.0547 219.742C57.0547 218.742 56.5566 218.242 55.5605 218.242C55.0918 218.242 54.7168 218.377 54.4355 218.646C54.1582 218.912 54.0195 219.266 54.0195 219.707H52.9355C52.9355 219.031 53.1816 218.471 53.6738 218.025C54.1699 217.576 54.7988 217.352 55.5605 217.352C56.3652 217.352 56.9961 217.564 57.4531 217.99C57.9102 218.416 58.1387 219.008 58.1387 219.766C58.1387 220.137 58.0176 220.496 57.7754 220.844C57.5371 221.191 57.2109 221.451 56.7969 221.623C57.2656 221.771 57.627 222.018 57.8809 222.361C58.1387 222.705 58.2676 223.125 58.2676 223.621C58.2676 224.387 58.0176 224.994 57.5176 225.443C57.0176 225.893 56.3672 226.117 55.5664 226.117C54.7656 226.117 54.1133 225.9 53.6094 225.467C53.1094 225.033 52.8594 224.461 52.8594 223.75H53.9492C53.9492 224.199 54.0957 224.559 54.3887 224.828C54.6816 225.098 55.0742 225.232 55.5664 225.232C56.0898 225.232 56.4902 225.096 56.7676 224.822C57.0449 224.549 57.1836 224.156 57.1836 223.645C57.1836 223.148 57.0312 222.768 56.7266 222.502C56.4219 222.236 55.9824 222.1 55.4082 222.092H54.5938V221.207Z" fill="#495057"/>
<path d="M110.443 217.469L113.232 224.43L116.021 217.469H117.48V226H116.355V222.678L116.461 219.092L113.66 226H112.799L110.004 219.109L110.115 222.678V226H108.99V217.469H110.443ZM123.211 226C123.148 225.875 123.098 225.652 123.059 225.332C122.555 225.855 121.953 226.117 121.254 226.117C120.629 226.117 120.115 225.941 119.713 225.59C119.314 225.234 119.115 224.785 119.115 224.242C119.115 223.582 119.365 223.07 119.865 222.707C120.369 222.34 121.076 222.156 121.986 222.156H123.041V221.658C123.041 221.279 122.928 220.979 122.701 220.756C122.475 220.529 122.141 220.416 121.699 220.416C121.312 220.416 120.988 220.514 120.727 220.709C120.465 220.904 120.334 221.141 120.334 221.418H119.244C119.244 221.102 119.355 220.797 119.578 220.504C119.805 220.207 120.109 219.973 120.492 219.801C120.879 219.629 121.303 219.543 121.764 219.543C122.494 219.543 123.066 219.727 123.48 220.094C123.895 220.457 124.109 220.959 124.125 221.6V224.518C124.125 225.1 124.199 225.562 124.348 225.906V226H123.211ZM121.412 225.174C121.752 225.174 122.074 225.086 122.379 224.91C122.684 224.734 122.904 224.506 123.041 224.225V222.924H122.191C120.863 222.924 120.199 223.312 120.199 224.09C120.199 224.43 120.312 224.695 120.539 224.887C120.766 225.078 121.057 225.174 121.412 225.174ZM127.805 224.412L129.281 219.66H130.441L127.893 226.979C127.498 228.033 126.871 228.561 126.012 228.561L125.807 228.543L125.402 228.467V227.588L125.695 227.611C126.062 227.611 126.348 227.537 126.551 227.389C126.758 227.24 126.928 226.969 127.061 226.574L127.301 225.93L125.039 219.66H126.223L127.805 224.412ZM137.842 226H136.752V218.775L134.566 219.578V218.594L137.672 217.428H137.842V226ZM145.271 217.463V218.383H145.072C144.229 218.398 143.557 218.648 143.057 219.133C142.557 219.617 142.268 220.299 142.189 221.178C142.639 220.662 143.252 220.404 144.029 220.404C144.771 220.404 145.363 220.666 145.805 221.189C146.25 221.713 146.473 222.389 146.473 223.217C146.473 224.096 146.232 224.799 145.752 225.326C145.275 225.854 144.635 226.117 143.83 226.117C143.014 226.117 142.352 225.805 141.844 225.18C141.336 224.551 141.082 223.742 141.082 222.754V222.338C141.082 220.768 141.416 219.568 142.084 218.74C142.756 217.908 143.754 217.482 145.078 217.463H145.271ZM143.848 221.307C143.477 221.307 143.135 221.418 142.822 221.641C142.51 221.863 142.293 222.143 142.172 222.479V222.877C142.172 223.58 142.33 224.146 142.646 224.576C142.963 225.006 143.357 225.221 143.83 225.221C144.318 225.221 144.701 225.041 144.979 224.682C145.26 224.322 145.4 223.852 145.4 223.27C145.4 222.684 145.258 222.211 144.973 221.852C144.691 221.488 144.316 221.307 143.848 221.307Z" fill="#495057"/>
<path d="M198.443 217.469L201.232 224.43L204.021 217.469H205.48V226H204.355V222.678L204.461 219.092L201.66 226H200.799L198.004 219.109L198.115 222.678V226H196.99V217.469H198.443ZM211.211 226C211.148 225.875 211.098 225.652 211.059 225.332C210.555 225.855 209.953 226.117 209.254 226.117C208.629 226.117 208.115 225.941 207.713 225.59C207.314 225.234 207.115 224.785 207.115 224.242C207.115 223.582 207.365 223.07 207.865 222.707C208.369 222.34 209.076 222.156 209.986 222.156H211.041V221.658C211.041 221.279 210.928 220.979 210.701 220.756C210.475 220.529 210.141 220.416 209.699 220.416C209.312 220.416 208.988 220.514 208.727 220.709C208.465 220.904 208.334 221.141 208.334 221.418H207.244C207.244 221.102 207.355 220.797 207.578 220.504C207.805 220.207 208.109 219.973 208.492 219.801C208.879 219.629 209.303 219.543 209.764 219.543C210.494 219.543 211.066 219.727 211.48 220.094C211.895 220.457 212.109 220.959 212.125 221.6V224.518C212.125 225.1 212.199 225.562 212.348 225.906V226H211.211ZM209.412 225.174C209.752 225.174 210.074 225.086 210.379 224.91C210.684 224.734 210.904 224.506 211.041 224.225V222.924H210.191C208.863 222.924 208.199 223.312 208.199 224.09C208.199 224.43 208.312 224.695 208.539 224.887C208.766 225.078 209.057 225.174 209.412 225.174ZM215.805 224.412L217.281 219.66H218.441L215.893 226.979C215.498 228.033 214.871 228.561 214.012 228.561L213.807 228.543L213.402 228.467V227.588L213.695 227.611C214.062 227.611 214.348 227.537 214.551 227.389C214.758 227.24 214.928 226.969 215.061 226.574L215.301 225.93L213.039 219.66H214.223L215.805 224.412ZM225.842 226H224.752V218.775L222.566 219.578V218.594L225.672 217.428H225.842V226ZM233.172 222.25C232.945 222.52 232.674 222.736 232.357 222.9C232.045 223.064 231.701 223.146 231.326 223.146C230.834 223.146 230.404 223.025 230.037 222.783C229.674 222.541 229.393 222.201 229.193 221.764C228.994 221.322 228.895 220.836 228.895 220.305C228.895 219.734 229.002 219.221 229.217 218.764C229.436 218.307 229.744 217.957 230.143 217.715C230.541 217.473 231.006 217.352 231.537 217.352C232.381 217.352 233.045 217.668 233.529 218.301C234.018 218.93 234.262 219.789 234.262 220.879V221.195C234.262 222.855 233.934 224.068 233.277 224.834C232.621 225.596 231.631 225.986 230.307 226.006H230.096V225.092H230.324C231.219 225.076 231.906 224.844 232.387 224.395C232.867 223.941 233.129 223.227 233.172 222.25ZM231.502 222.25C231.865 222.25 232.199 222.139 232.504 221.916C232.812 221.693 233.037 221.418 233.178 221.09V220.656C233.178 219.945 233.023 219.367 232.715 218.922C232.406 218.477 232.016 218.254 231.543 218.254C231.066 218.254 230.684 218.438 230.395 218.805C230.105 219.168 229.961 219.648 229.961 220.246C229.961 220.828 230.1 221.309 230.377 221.688C230.658 222.062 231.033 222.25 231.502 222.25Z" fill="#495057"/>
<path d="M286.443 217.469L289.232 224.43L292.021 217.469H293.48V226H292.355V222.678L292.461 219.092L289.66 226H288.799L286.004 219.109L286.115 222.678V226H284.99V217.469H286.443ZM299.211 226C299.148 225.875 299.098 225.652 299.059 225.332C298.555 225.855 297.953 226.117 297.254 226.117C296.629 226.117 296.115 225.941 295.713 225.59C295.314 225.234 295.115 224.785 295.115 224.242C295.115 223.582 295.365 223.07 295.865 222.707C296.369 222.34 297.076 222.156 297.986 222.156H299.041V221.658C299.041 221.279 298.928 220.979 298.701 220.756C298.475 220.529 298.141 220.416 297.699 220.416C297.312 220.416 296.988 220.514 296.727 220.709C296.465 220.904 296.334 221.141 296.334 221.418H295.244C295.244 221.102 295.355 220.797 295.578 220.504C295.805 220.207 296.109 219.973 296.492 219.801C296.879 219.629 297.303 219.543 297.764 219.543C298.494 219.543 299.066 219.727 299.48 220.094C299.895 220.457 300.109 220.959 300.125 221.6V224.518C300.125 225.1 300.199 225.562 300.348 225.906V226H299.211ZM297.412 225.174C297.752 225.174 298.074 225.086 298.379 224.91C298.684 224.734 298.904 224.506 299.041 224.225V222.924H298.191C296.863 222.924 296.199 223.312 296.199 224.09C296.199 224.43 296.312 224.695 296.539 224.887C296.766 225.078 297.057 225.174 297.412 225.174ZM303.805 224.412L305.281 219.66H306.441L303.893 226.979C303.498 228.033 302.871 228.561 302.012 228.561L301.807 228.543L301.402 228.467V227.588L301.695 227.611C302.062 227.611 302.348 227.537 302.551 227.389C302.758 227.24 302.928 226.969 303.061 226.574L303.301 225.93L301.039 219.66H302.223L303.805 224.412ZM315.869 226H310.279V225.221L313.232 221.939C313.67 221.443 313.971 221.041 314.135 220.732C314.303 220.42 314.387 220.098 314.387 219.766C314.387 219.32 314.252 218.955 313.982 218.67C313.713 218.385 313.354 218.242 312.904 218.242C312.365 218.242 311.945 218.396 311.645 218.705C311.348 219.01 311.199 219.436 311.199 219.982H310.115C310.115 219.197 310.367 218.562 310.871 218.078C311.379 217.594 312.057 217.352 312.904 217.352C313.697 217.352 314.324 217.561 314.785 217.979C315.246 218.393 315.477 218.945 315.477 219.637C315.477 220.477 314.941 221.477 313.871 222.637L311.586 225.115H315.869V226ZM322.607 226H317.018V225.221L319.971 221.939C320.408 221.443 320.709 221.041 320.873 220.732C321.041 220.42 321.125 220.098 321.125 219.766C321.125 219.32 320.99 218.955 320.721 218.67C320.451 218.385 320.092 218.242 319.643 218.242C319.104 218.242 318.684 218.396 318.383 218.705C318.086 219.01 317.938 219.436 317.938 219.982H316.854C316.854 219.197 317.105 218.562 317.609 218.078C318.117 217.594 318.795 217.352 319.643 217.352C320.436 217.352 321.062 217.561 321.523 217.979C321.984 218.393 322.215 218.945 322.215 219.637C322.215 220.477 321.68 221.477 320.609 222.637L318.324 225.115H322.607V226Z" fill="#495057"/>
<path d="M374.443 217.469L377.232 224.43L380.021 217.469H381.48V226H380.355V222.678L380.461 219.092L377.66 226H376.799L374.004 219.109L374.115 222.678V226H372.99V217.469H374.443ZM387.211 226C387.148 225.875 387.098 225.652 387.059 225.332C386.555 225.855 385.953 226.117 385.254 226.117C384.629 226.117 384.115 225.941 383.713 225.59C383.314 225.234 383.115 224.785 383.115 224.242C383.115 223.582 383.365 223.07 383.865 222.707C384.369 222.34 385.076 222.156 385.986 222.156H387.041V221.658C387.041 221.279 386.928 220.979 386.701 220.756C386.475 220.529 386.141 220.416 385.699 220.416C385.312 220.416 384.988 220.514 384.727 220.709C384.465 220.904 384.334 221.141 384.334 221.418H383.244C383.244 221.102 383.355 220.797 383.578 220.504C383.805 220.207 384.109 219.973 384.492 219.801C384.879 219.629 385.303 219.543 385.764 219.543C386.494 219.543 387.066 219.727 387.48 220.094C387.895 220.457 388.109 220.959 388.125 221.6V224.518C388.125 225.1 388.199 225.562 388.348 225.906V226H387.211ZM385.412 225.174C385.752 225.174 386.074 225.086 386.379 224.91C386.684 224.734 386.904 224.506 387.041 224.225V222.924H386.191C384.863 222.924 384.199 223.312 384.199 224.09C384.199 224.43 384.312 224.695 384.539 224.887C384.766 225.078 385.057 225.174 385.412 225.174ZM391.805 224.412L393.281 219.66H394.441L391.893 226.979C391.498 228.033 390.871 228.561 390.012 228.561L389.807 228.543L389.402 228.467V227.588L389.695 227.611C390.062 227.611 390.348 227.537 390.551 227.389C390.758 227.24 390.928 226.969 391.061 226.574L391.301 225.93L389.039 219.66H390.223L391.805 224.412ZM403.869 226H398.279V225.221L401.232 221.939C401.67 221.443 401.971 221.041 402.135 220.732C402.303 220.42 402.387 220.098 402.387 219.766C402.387 219.32 402.252 218.955 401.982 218.67C401.713 218.385 401.354 218.242 400.904 218.242C400.365 218.242 399.945 218.396 399.645 218.705C399.348 219.01 399.199 219.436 399.199 219.982H398.115C398.115 219.197 398.367 218.562 398.871 218.078C399.379 217.594 400.057 217.352 400.904 217.352C401.697 217.352 402.324 217.561 402.785 217.979C403.246 218.393 403.477 218.945 403.477 219.637C403.477 220.477 402.941 221.477 401.871 222.637L399.586 225.115H403.869V226ZM405.516 221.723L405.949 217.469H410.32V218.471H406.869L406.611 220.797C407.029 220.551 407.504 220.428 408.035 220.428C408.812 220.428 409.43 220.686 409.887 221.201C410.344 221.713 410.572 222.406 410.572 223.281C410.572 224.16 410.334 224.854 409.857 225.361C409.385 225.865 408.723 226.117 407.871 226.117C407.117 226.117 406.502 225.908 406.025 225.49C405.549 225.072 405.277 224.494 405.211 223.756H406.236C406.303 224.244 406.477 224.613 406.758 224.863C407.039 225.109 407.41 225.232 407.871 225.232C408.375 225.232 408.77 225.061 409.055 224.717C409.344 224.373 409.488 223.898 409.488 223.293C409.488 222.723 409.332 222.266 409.02 221.922C408.711 221.574 408.299 221.4 407.783 221.4C407.311 221.4 406.939 221.504 406.67 221.711L406.383 221.945L405.516 221.723Z" fill="#495057"/>
<path d="M6.16602 45.6572H7.54688V46.6895H6.16602V49H4.89453V46.6895H0.362305V45.9443L4.81934 39.0469H6.16602V45.6572ZM1.79785 45.6572H4.89453V40.7764L4.74414 41.0498L1.79785 45.6572ZM14.9297 44.7549C14.9297 46.236 14.6768 47.3366 14.1709 48.0566C13.665 48.7767 12.8743 49.1367 11.7988 49.1367C10.737 49.1367 9.95085 48.7858 9.44043 48.084C8.93001 47.3776 8.66569 46.3249 8.64746 44.9258V43.2373C8.64746 41.7744 8.90039 40.6875 9.40625 39.9766C9.91211 39.2656 10.7051 38.9102 11.7852 38.9102C12.8561 38.9102 13.6445 39.2542 14.1504 39.9424C14.6562 40.626 14.916 41.6833 14.9297 43.1143V44.7549ZM13.665 43.0254C13.665 41.9544 13.5146 41.1751 13.2139 40.6875C12.9131 40.1953 12.4368 39.9492 11.7852 39.9492C11.138 39.9492 10.6663 40.193 10.3701 40.6807C10.0739 41.1683 9.92122 41.918 9.91211 42.9297V44.9531C9.91211 46.0286 10.0671 46.8239 10.377 47.3389C10.6914 47.8493 11.1654 48.1045 11.7988 48.1045C12.4232 48.1045 12.8857 47.863 13.1865 47.3799C13.4919 46.8968 13.6514 46.1357 13.665 45.0967V43.0254ZM22.791 44.7549C22.791 46.236 22.5381 47.3366 22.0322 48.0566C21.5264 48.7767 20.7357 49.1367 19.6602 49.1367C18.5983 49.1367 17.8122 48.7858 17.3018 48.084C16.7913 47.3776 16.527 46.3249 16.5088 44.9258V43.2373C16.5088 41.7744 16.7617 40.6875 17.2676 39.9766C17.7734 39.2656 18.5664 38.9102 19.6465 38.9102C20.7174 38.9102 21.5059 39.2542 22.0117 39.9424C22.5176 40.626 22.7773 41.6833 22.791 43.1143V44.7549ZM21.5264 43.0254C21.5264 41.9544 21.376 41.1751 21.0752 40.6875C20.7744 40.1953 20.2982 39.9492 19.6465 39.9492C18.9993 39.9492 18.5277 40.193 18.2314 40.6807C17.9352 41.1683 17.7826 41.918 17.7734 42.9297V44.9531C17.7734 46.0286 17.9284 46.8239 18.2383 47.3389C18.5527 47.8493 19.0267 48.1045 19.6602 48.1045C20.2845 48.1045 20.7471 47.863 21.0479 47.3799C21.3532 46.8968 21.5127 46.1357 21.5264 45.0967V43.0254Z" fill="#495057"/>
<line x1="32" y1="43.5" x2="419" y2="43.5" stroke="#DDE2E5"/>
<path d="M1.4082 6.00977L1.91406 1.04688H7.01367V2.21582H2.9873L2.68652 4.92969C3.17415 4.64258 3.72786 4.49902 4.34766 4.49902C5.25456 4.49902 5.97461 4.7998 6.50781 5.40137C7.04102 5.99837 7.30762 6.80729 7.30762 7.82812C7.30762 8.85352 7.02962 9.66243 6.47363 10.2549C5.9222 10.8428 5.14974 11.1367 4.15625 11.1367C3.27669 11.1367 2.55892 10.8929 2.00293 10.4053C1.44694 9.91764 1.13021 9.24316 1.05273 8.38184H2.24902C2.3265 8.9515 2.5293 9.38216 2.85742 9.67383C3.18555 9.96094 3.61849 10.1045 4.15625 10.1045C4.74414 10.1045 5.20443 9.90397 5.53711 9.50293C5.87435 9.10189 6.04297 8.54818 6.04297 7.8418C6.04297 7.17643 5.86068 6.64323 5.49609 6.24219C5.13607 5.83659 4.65527 5.63379 4.05371 5.63379C3.50228 5.63379 3.06934 5.75456 2.75488 5.99609L2.41992 6.26953L1.4082 6.00977ZM14.9297 6.75488C14.9297 8.236 14.6768 9.33659 14.1709 10.0566C13.665 10.7767 12.8743 11.1367 11.7988 11.1367C10.737 11.1367 9.95085 10.7858 9.44043 10.084C8.93001 9.3776 8.66569 8.32487 8.64746 6.92578V5.2373C8.64746 3.77441 8.90039 2.6875 9.40625 1.97656C9.91211 1.26562 10.7051 0.910156 11.7852 0.910156C12.8561 0.910156 13.6445 1.25423 14.1504 1.94238C14.6562 2.62598 14.916 3.68327 14.9297 5.11426V6.75488ZM13.665 5.02539C13.665 3.95443 13.5146 3.17513 13.2139 2.6875C12.9131 2.19531 12.4368 1.94922 11.7852 1.94922C11.138 1.94922 10.6663 2.19303 10.3701 2.68066C10.0739 3.16829 9.92122 3.91797 9.91211 4.92969V6.95312C9.91211 8.02865 10.0671 8.82389 10.377 9.33887C10.6914 9.84928 11.1654 10.1045 11.7988 10.1045C12.4232 10.1045 12.8857 9.86296 13.1865 9.37988C13.4919 8.89681 13.6514 8.13574 13.665 7.09668V5.02539ZM22.791 6.75488C22.791 8.236 22.5381 9.33659 22.0322 10.0566C21.5264 10.7767 20.7357 11.1367 19.6602 11.1367C18.5983 11.1367 17.8122 10.7858 17.3018 10.084C16.7913 9.3776 16.527 8.32487 16.5088 6.92578V5.2373C16.5088 3.77441 16.7617 2.6875 17.2676 1.97656C17.7734 1.26562 18.5664 0.910156 19.6465 0.910156C20.7174 0.910156 21.5059 1.25423 22.0117 1.94238C22.5176 2.62598 22.7773 3.68327 22.791 5.11426V6.75488ZM21.5264 5.02539C21.5264 3.95443 21.376 3.17513 21.0752 2.6875C20.7744 2.19531 20.2982 1.94922 19.6465 1.94922C18.9993 1.94922 18.5277 2.19303 18.2314 2.68066C17.9352 3.16829 17.7826 3.91797 17.7734 4.92969V6.95312C17.7734 8.02865 17.9284 8.82389 18.2383 9.33887C18.5527 9.84928 19.0267 10.1045 19.6602 10.1045C20.2845 10.1045 20.7471 9.86296 21.0479 9.37988C21.3532 8.89681 21.5127 8.13574 21.5264 7.09668V5.02539Z" fill="#495057"/>
<line x1="32" y1="5.5" x2="419" y2="5.49997" stroke="#DDE2E5"/>
<line x1="32" y1="157.5" x2="419" y2="157.5" stroke="#DDE2E5"/>
<path d="M7.55664 125H1.03516V124.091L4.48047 120.263C4.99089 119.684 5.3418 119.215 5.5332 118.854C5.72917 118.49 5.82715 118.114 5.82715 117.727C5.82715 117.207 5.66992 116.781 5.35547 116.448C5.04102 116.116 4.62174 115.949 4.09766 115.949C3.46875 115.949 2.97884 116.129 2.62793 116.489C2.28158 116.845 2.1084 117.341 2.1084 117.979H0.84375C0.84375 117.063 1.1377 116.323 1.72559 115.758C2.31803 115.193 3.10872 114.91 4.09766 114.91C5.02279 114.91 5.75423 115.154 6.29199 115.642C6.82975 116.125 7.09863 116.77 7.09863 117.576C7.09863 118.556 6.47428 119.723 5.22559 121.076L2.55957 123.968H7.55664V125ZM15.1377 120.755C15.1377 122.236 14.8848 123.337 14.3789 124.057C13.873 124.777 13.0824 125.137 12.0068 125.137C10.945 125.137 10.1589 124.786 9.64844 124.084C9.13802 123.378 8.8737 122.325 8.85547 120.926V119.237C8.85547 117.774 9.1084 116.688 9.61426 115.977C10.1201 115.266 10.9131 114.91 11.9932 114.91C13.0641 114.91 13.8525 115.254 14.3584 115.942C14.8643 116.626 15.124 117.683 15.1377 119.114V120.755ZM13.873 119.025C13.873 117.954 13.7227 117.175 13.4219 116.688C13.1211 116.195 12.6449 115.949 11.9932 115.949C11.346 115.949 10.8743 116.193 10.5781 116.681C10.2819 117.168 10.1292 117.918 10.1201 118.93V120.953C10.1201 122.029 10.2751 122.824 10.585 123.339C10.8994 123.849 11.3734 124.104 12.0068 124.104C12.6312 124.104 13.0938 123.863 13.3945 123.38C13.6999 122.897 13.8594 122.136 13.873 121.097V119.025ZM22.999 120.755C22.999 122.236 22.7461 123.337 22.2402 124.057C21.7344 124.777 20.9437 125.137 19.8682 125.137C18.8063 125.137 18.0202 124.786 17.5098 124.084C16.9993 123.378 16.735 122.325 16.7168 120.926V119.237C16.7168 117.774 16.9697 116.688 17.4756 115.977C17.9814 115.266 18.7744 114.91 19.8545 114.91C20.9255 114.91 21.7139 115.254 22.2197 115.942C22.7256 116.626 22.9854 117.683 22.999 119.114V120.755ZM21.7344 119.025C21.7344 117.954 21.584 117.175 21.2832 116.688C20.9824 116.195 20.5062 115.949 19.8545 115.949C19.2074 115.949 18.7357 116.193 18.4395 116.681C18.1432 117.168 17.9906 117.918 17.9814 118.93V120.953C17.9814 122.029 18.1364 122.824 18.4463 123.339C18.7607 123.849 19.2347 124.104 19.8682 124.104C20.4925 124.104 20.9551 123.863 21.2559 123.38C21.5612 122.897 21.7207 122.136 21.7344 121.097V119.025Z" fill="#495057"/>
<line x1="32" y1="119.5" x2="419" y2="119.5" stroke="#DDE2E5"/>
<path d="M2.87402 81.4082H3.82422C4.42122 81.3991 4.89062 81.2419 5.23242 80.9365C5.57422 80.6312 5.74512 80.2188 5.74512 79.6992C5.74512 78.5326 5.16406 77.9492 4.00195 77.9492C3.45508 77.9492 3.01758 78.1064 2.68945 78.4209C2.36589 78.7308 2.2041 79.1432 2.2041 79.6582H0.939453C0.939453 78.8698 1.22656 78.2158 1.80078 77.6963C2.37956 77.1722 3.11328 76.9102 4.00195 76.9102C4.94076 76.9102 5.67676 77.1585 6.20996 77.6553C6.74316 78.152 7.00977 78.8424 7.00977 79.7266C7.00977 80.1595 6.86849 80.5788 6.58594 80.9844C6.30794 81.39 5.92741 81.693 5.44434 81.8936C5.99121 82.0667 6.41276 82.3538 6.70898 82.7549C7.00977 83.1559 7.16016 83.6458 7.16016 84.2246C7.16016 85.1178 6.86849 85.8265 6.28516 86.3506C5.70182 86.8747 4.94303 87.1367 4.00879 87.1367C3.07454 87.1367 2.31348 86.8838 1.72559 86.3779C1.14225 85.8721 0.850586 85.2044 0.850586 84.375H2.12207C2.12207 84.8991 2.29297 85.3184 2.63477 85.6328C2.97656 85.9473 3.43457 86.1045 4.00879 86.1045C4.61947 86.1045 5.08659 85.945 5.41016 85.626C5.73372 85.307 5.89551 84.849 5.89551 84.252C5.89551 83.6732 5.71777 83.2288 5.3623 82.9189C5.00684 82.609 4.49414 82.4495 3.82422 82.4404H2.87402V81.4082ZM15.1377 82.7549C15.1377 84.236 14.8848 85.3366 14.3789 86.0566C13.873 86.7767 13.0824 87.1367 12.0068 87.1367C10.945 87.1367 10.1589 86.7858 9.64844 86.084C9.13802 85.3776 8.8737 84.3249 8.85547 82.9258V81.2373C8.85547 79.7744 9.1084 78.6875 9.61426 77.9766C10.1201 77.2656 10.9131 76.9102 11.9932 76.9102C13.0641 76.9102 13.8525 77.2542 14.3584 77.9424C14.8643 78.626 15.124 79.6833 15.1377 81.1143V82.7549ZM13.873 81.0254C13.873 79.9544 13.7227 79.1751 13.4219 78.6875C13.1211 78.1953 12.6449 77.9492 11.9932 77.9492C11.346 77.9492 10.8743 78.193 10.5781 78.6807C10.2819 79.1683 10.1292 79.918 10.1201 80.9297V82.9531C10.1201 84.0286 10.2751 84.8239 10.585 85.3389C10.8994 85.8493 11.3734 86.1045 12.0068 86.1045C12.6312 86.1045 13.0938 85.863 13.3945 85.3799C13.6999 84.8968 13.8594 84.1357 13.873 83.0967V81.0254ZM22.999 82.7549C22.999 84.236 22.7461 85.3366 22.2402 86.0566C21.7344 86.7767 20.9437 87.1367 19.8682 87.1367C18.8063 87.1367 18.0202 86.7858 17.5098 86.084C16.9993 85.3776 16.735 84.3249 16.7168 82.9258V81.2373C16.7168 79.7744 16.9697 78.6875 17.4756 77.9766C17.9814 77.2656 18.7744 76.9102 19.8545 76.9102C20.9255 76.9102 21.7139 77.2542 22.2197 77.9424C22.7256 78.626 22.9854 79.6833 22.999 81.1143V82.7549ZM21.7344 81.0254C21.7344 79.9544 21.584 79.1751 21.2832 78.6875C20.9824 78.1953 20.5062 77.9492 19.8545 77.9492C19.2074 77.9492 18.7357 78.193 18.4395 78.6807C18.1432 79.1683 17.9906 79.918 17.9814 80.9297V82.9531C17.9814 84.0286 18.1364 84.8239 18.4463 85.3389C18.7607 85.8493 19.2347 86.1045 19.8682 86.1045C20.4925 86.1045 20.9551 85.863 21.2559 85.3799C21.5612 84.8968 21.7207 84.1357 21.7344 83.0967V81.0254Z" fill="#495057"/>
<line x1="32" y1="81.5" x2="419" y2="81.5" stroke="#DDE2E5"/>
<g opacity="0.16" clip-path="url(#clip0)">
<path d="M47.9784 113.242L32 99.7461V194.998H591.243V119.146L575.264 108.06L559.286 136.762L543.308 133.075L527.329 154.572L511.351 146.137L495.373 171.561L479.394 157.632L463.416 182.96L447.437 161.03L431.459 168.621L415.481 125.894L399.502 119.315L383.524 134.328L367.546 139.389L351.567 112.398L335.589 125.894L319.611 132.4L303.632 121.676L287.654 154.572L271.675 144.45L255.697 168.911L239.719 132.641L223.74 159.632L207.762 180.719L191.784 140.233L175.805 147.824L159.827 122.52L143.849 132.641L127.87 109.868L111.892 144.45L95.9135 163.006L79.9351 124.207L63.9567 134.328L47.9784 113.242Z" fill="#5351FB"/>
</g>
<g clip-path="url(#clip1)">
<path d="M32 99.7461L47.9784 113.242L63.9567 134.328L79.9351 124.207L95.9135 163.006L111.892 144.45L127.87 109.868L143.849 132.641L159.827 122.52L175.805 147.824L191.784 140.233L207.762 180.719L223.74 159.632L239.719 132.641L255.697 168.911L271.675 144.45L287.654 154.572L303.632 121.676L319.611 132.4L335.589 125.894L351.567 112.398L367.546 139.389L383.524 134.328L399.502 119.315L415.481 125.894L431.459 168.621L447.437 161.03L463.416 182.96L479.394 157.632L495.373 171.561L511.351 146.137L527.329 154.572L543.308 133.075L559.286 136.762L575.264 108.06L591.243 119.146" stroke="#5351FB" stroke-width="0.665765"/>
</g>
<defs>
<clipPath id="clip0">
<rect width="387" height="95.2516" fill="white" transform="translate(32 99.7461)"/>
</clipPath>
<clipPath id="clip1">
<rect width="387" height="83.2142" fill="white" transform="translate(32 99.7461)"/>
</clipPath>
</defs>
</svg>
