<svg width="217" height="187" viewBox="0 0 217 187" fill="none" xmlns="http://www.w3.org/2000/svg">
<g clip-path="url(#clip0)">
<path d="M131.14 13.1999L212.18 143.66C223.75 162.28 210.36 186.37 188.43 186.37H27.9998C6.18985 186.37 -7.22015 162.51 4.11985 143.88L83.5198 13.4199C94.3498 -4.38012 120.15 -4.50012 131.14 13.1999Z" fill="url(#paint0_linear)"/>
<path d="M122.8 29.0998L194.41 144.38C201.85 156.36 193.24 171.84 179.14 171.84H37.3703C23.3503 171.84 14.7203 156.5 22.0103 144.52L92.1703 29.2398C99.1403 17.7898 115.73 17.7198 122.8 29.0998Z" fill="white"/>
<path d="M112.299 136.36H104.059C102.329 136.36 100.909 134.99 100.849 133.26L98.0995 49.0004C98.0395 47.1904 99.4895 45.6904 101.309 45.6904H115.119C116.929 45.6904 118.389 47.1904 118.329 49.0004L115.509 133.25C115.449 134.99 114.029 136.36 112.299 136.36Z" fill="#4E4E4E"/>
<path d="M108.26 157.82C112.584 157.82 116.09 154.315 116.09 149.99C116.09 145.666 112.584 142.16 108.26 142.16C103.935 142.16 100.43 145.666 100.43 149.99C100.43 154.315 103.935 157.82 108.26 157.82Z" fill="#4E4E4E"/>
<g opacity="0.2">
<g opacity="0.2">
<g opacity="0.2">
<path opacity="0.2" d="M212.181 143.66L131.141 13.1898C125.831 4.63976 117.071 0.269766 108.221 0.00976562V186.36H188.441C210.351 186.36 223.751 162.28 212.181 143.66Z" fill="#4E4E4E"/>
</g>
</g>
</g>
</g>
<defs>
<linearGradient id="paint0_linear" x1="108.217" y1="-0.00292969" x2="108.217" y2="186.37" gradientUnits="userSpaceOnUse">
<stop stop-color="#F9A297"/>
<stop offset="1" stop-color="#ED4C64"/>
</linearGradient>
<clipPath id="clip0">
<rect width="216.43" height="186.37" fill="white"/>
</clipPath>
</defs>
</svg>
