<svg width="561" height="591" viewBox="0 0 561 591" fill="none" xmlns="http://www.w3.org/2000/svg">
<path d="M528.058 584H32.7876C19.0116 584 7.8457 572.834 7.8457 559.057V33.8821C7.8457 20.0438 19.058 8.83105 32.8957 8.83105H527.966C541.803 8.83105 553.016 20.0438 553.016 33.8821V559.057C553 572.834 541.834 584 528.058 584Z" fill="#D2D0E8"/>
<path d="M520.213 575.169H24.9419C11.1659 575.169 0 564.003 0 550.226V25.051C0 11.2127 11.2123 0 25.05 0H520.12C533.958 0 545.17 11.2127 545.17 25.051V550.226C545.155 564.003 533.989 575.169 520.213 575.169Z" fill="#F8F8FB"/>
<path d="M545.155 53.2218H0V24.9429C0 11.1664 11.1659 0 24.9419 0H520.213C533.989 0 545.155 11.1664 545.155 24.9429V53.2218Z" fill="#1E1E30"/>
<path d="M29.9297 26.6109C29.9297 21.0973 34.393 16.6338 39.9065 16.6338C45.4199 16.6338 49.8832 21.0973 49.8832 26.6109C49.8832 32.1246 45.4199 36.5881 39.9065 36.5881C34.4084 36.5881 29.9297 32.1246 29.9297 26.6109Z" fill="url(#paint0_linear)"/>
<path d="M59.875 26.6109C59.875 21.0973 64.3383 16.6338 69.8518 16.6338C75.3652 16.6338 79.8285 21.0973 79.8285 26.6109C79.8285 32.1246 75.3652 36.5881 69.8518 36.5881C64.3383 36.5881 59.875 32.1246 59.875 26.6109Z" fill="url(#paint1_linear)"/>
<path d="M89.8066 26.6109C89.8066 21.0973 94.2699 16.6338 99.7834 16.6338C105.297 16.6338 109.76 21.0973 109.76 26.6109C109.76 32.1246 105.297 36.5881 99.7834 36.5881C94.2854 36.5881 89.8066 32.1246 89.8066 26.6109Z" fill="url(#paint2_linear)"/>
<defs>
<filter id="filter0_d" x="83" y="443" width="379.172" height="125.161" filterUnits="userSpaceOnUse" color-interpolation-filters="sRGB">
<feFlood flood-opacity="0" result="BackgroundImageFix"/>
<feColorMatrix in="SourceAlpha" type="matrix" values="0 0 0 0 0 0 0 0 0 0 0 0 0 0 0 0 0 0 127 0"/>
<feOffset dy="10"/>
<feGaussianBlur stdDeviation="15"/>
<feColorMatrix type="matrix" values="0 0 0 0 0.0745098 0 0 0 0 0.0901961 0 0 0 0 0.121569 0 0 0 0.2 0"/>
<feBlend mode="normal" in2="BackgroundImageFix" result="effect1_dropShadow"/>
<feBlend mode="normal" in="SourceGraphic" in2="effect1_dropShadow" result="shape"/>
</filter>
<linearGradient id="paint0_linear" x1="39.9065" y1="16.6338" x2="39.9065" y2="36.5881" gradientUnits="userSpaceOnUse">
<stop stop-color="#F9A297"/>
<stop offset="1" stop-color="#ED4C64"/>
</linearGradient>
<linearGradient id="paint1_linear" x1="69.8518" y1="16.6338" x2="69.8518" y2="36.5881" gradientUnits="userSpaceOnUse">
<stop stop-color="#FFF1C2"/>
<stop offset="1" stop-color="#FFC200"/>
</linearGradient>
<linearGradient id="paint2_linear" x1="106.753" y1="10.5688" x2="95.1417" y2="35.4811" gradientUnits="userSpaceOnUse">
<stop stop-color="#59FCCB"/>
<stop offset="1" stop-color="#24D6FB"/>
</linearGradient>
<linearGradient id="paint3_linear" x1="273.217" y1="128.997" x2="273.217" y2="315.37" gradientUnits="userSpaceOnUse">
<stop stop-color="#F9A297"/>
<stop offset="1" stop-color="#ED4C64"/>
</linearGradient>
<clipPath id="clip0">
<rect width="216.43" height="186.37" fill="white" transform="translate(165 129)"/>
</clipPath>
</defs>
</svg>
