<svg width="960" height="865" viewBox="0 0 960 865" fill="none" xmlns="http://www.w3.org/2000/svg">
<g clip-path="url(#clip0)">
<path d="M64.422 728.891H40.3359V785.531H64.422V728.891Z" fill="#D9E0FE"/>
<path d="M102.07 752.315H2.66227C1.20556 752.315 0 751.135 0 749.654V410.164C0 408.708 1.18044 407.503 2.66227 407.503H102.096C103.552 407.503 104.758 408.683 104.758 410.164V749.679C104.733 751.135 103.552 752.315 102.07 752.315Z" fill="#DEE4FF"/>
<path d="M75.6238 785.506H29.0843L25.543 796H79.1902L75.6238 785.506Z" fill="#DEE4FF"/>
<path d="M10.0469 739.636V420.232C10.0469 418.775 11.2273 417.57 12.7091 417.57H92.0499C93.5066 417.57 94.7121 418.75 94.7121 420.232V739.636C94.7121 741.092 93.5317 742.297 92.0499 742.297H12.7091C11.2273 742.272 10.0469 741.092 10.0469 739.636Z" fill="#FAFAFA"/>
<path d="M94.687 461.155L10.0469 501.476V469.591L94.687 429.295V461.155Z" fill="#E6EAFE"/>
<path d="M94.687 537.529L10.0469 577.825V545.965L94.687 505.644V537.529Z" fill="#E6EAFE"/>
<path d="M94.687 613.903L10.0469 654.199V622.313L94.687 582.018V613.903Z" fill="#E6EAFE"/>
<path d="M94.687 690.251L10.0469 730.572V698.687L94.687 658.366V690.251Z" fill="#E6EAFE"/>
<path d="M919.69 728.891H895.604V785.531H919.69V728.891Z" fill="#D9E0FE"/>
<path d="M957.338 752.315H857.904C856.448 752.315 855.242 751.135 855.242 749.654V410.164C855.242 408.708 856.423 407.503 857.904 407.503H957.338C958.795 407.503 960 408.683 960 410.164V749.679C960 751.135 958.82 752.315 957.338 752.315Z" fill="#DEE4FF"/>
<path d="M930.916 785.506H884.377L880.811 796H934.458L930.916 785.506Z" fill="#DEE4FF"/>
<path d="M865.314 739.636V420.232C865.314 418.775 866.495 417.57 867.977 417.57H947.317C948.774 417.57 949.98 418.75 949.98 420.232V739.636C949.98 741.092 948.799 742.297 947.317 742.297H867.977C866.495 742.272 865.314 741.092 865.314 739.636Z" fill="#FAFAFA"/>
<path d="M949.955 461.155L865.314 501.476V469.591L949.955 429.295V461.155Z" fill="#E6EAFE"/>
<path d="M949.955 537.529L865.314 577.825V545.965L949.955 505.644V537.529Z" fill="#E6EAFE"/>
<path d="M949.955 613.903L865.314 654.199V622.313L949.955 582.018V613.903Z" fill="#E6EAFE"/>
<path d="M949.955 690.251L865.314 730.572V698.687L949.955 658.366V690.251Z" fill="#E6EAFE"/>
<path d="M672.199 483.701H264.219V514.507H672.199V483.701Z" fill="#E6EAFE"/>
<path d="M672.199 514.532H264.218L227.223 796.001H652.96L672.199 514.532Z" fill="#E6EAFE"/>
<path d="M582.585 564.695L584.444 544.886H555.109L553.225 564.695L515.777 745.461H585.85L582.585 564.695Z" fill="#D9E0FE"/>
<path d="M471.851 564.695L473.735 544.886H444.375L442.516 564.695L405.068 745.461H475.141L471.851 564.695Z" fill="#D9E0FE"/>
<path d="M361.14 564.695L363.024 544.886H333.664L331.805 564.695L294.357 745.461H364.43L361.14 564.695Z" fill="#D9E0FE"/>
<path d="M699.927 514.532V483.701H672.2V514.532L652.961 796H719.166L699.927 514.532Z" fill="#D9E0FE"/>
<path d="M583.465 158.999H395.197C395.197 158.999 408.082 143.534 429.179 140.697C450.276 137.86 444.324 146.647 444.324 146.647C444.324 146.647 459.343 119.03 507.716 117.172C556.089 115.339 521.329 142.103 521.329 142.103C521.329 142.103 542.627 129.976 576.483 130.554C610.314 131.131 583.465 158.999 583.465 158.999Z" fill="#FAFAFA"/>
</g>
<path d="M480 865C739.574 865 950 853.807 950 840C950 826.193 739.574 815 480 815C220.426 815 10 826.193 10 840C10 853.807 220.426 865 480 865Z" fill="#E6EAFE"/>
<defs>
<clipPath id="clip0">
<rect width="960" height="796" fill="white"/>
</clipPath>
</defs>
</svg>
