<svg width="178" height="549" viewBox="0 0 178 549" fill="none" xmlns="http://www.w3.org/2000/svg">
<g clip-path="url(#clip0)">
<path d="M120.043 108.771C121.655 107.956 123.593 106.906 125.368 105.929C127.179 104.933 128.99 103.883 130.765 102.815C134.315 100.624 137.883 98.4697 141.288 96.0799C148.134 91.3546 154.564 86.1224 160.323 80.4195C161.084 79.7316 161.718 78.9531 162.424 78.2289L163.456 77.1245L163.982 76.5633L164.235 76.2917C164.308 76.2193 164.289 76.2374 164.253 76.2736L164.199 76.3641C163.945 76.853 164.163 76.7081 164.253 76.2374C164.38 75.7848 164.471 75.0606 164.507 74.264C164.615 70.969 163.982 66.8412 163.185 62.822C161.573 54.6931 159.128 46.3469 156.719 38.1637L163.764 35.0859C168.165 42.9614 171.842 50.9817 174.83 59.708C176.261 64.1255 177.565 68.5611 177.945 73.9924C178.018 75.3865 178.054 76.8349 177.801 78.5367C177.529 80.2023 177.112 82.2119 175.591 84.4749L175.283 84.8913L175.048 85.1991L174.776 85.5431L174.215 86.213L173.092 87.5708C172.331 88.4579 171.625 89.4175 170.81 90.2503C164.561 97.1843 157.624 103.304 150.199 108.626C146.504 111.324 142.737 113.877 138.825 116.212C136.869 117.389 134.894 118.529 132.884 119.634C130.856 120.756 128.918 121.752 126.599 122.838L120.043 108.771Z" fill="#FFB573"/>
<path d="M103.925 534.407C105.319 534.407 106.859 534.118 107.927 533.864C108.072 533.828 108.181 533.719 108.199 533.574C108.217 533.43 108.163 533.285 108.036 533.212C107.511 532.868 102.91 529.899 101.136 530.696C100.864 530.822 100.502 531.094 100.429 531.71C100.32 532.506 100.52 533.158 101.027 533.611C101.679 534.208 102.766 534.407 103.925 534.407ZM106.913 533.357C104.269 533.882 102.295 533.792 101.516 533.086C101.19 532.796 101.063 532.361 101.154 531.8C101.19 531.492 101.335 531.402 101.462 531.347C102.385 530.931 105.029 532.217 106.913 533.357Z" fill="#407BFF"/>
<path d="M107.854 533.883C107.908 533.883 107.98 533.864 108.035 533.828C108.143 533.756 108.216 533.647 108.216 533.52C108.216 533.339 108.198 528.976 106.549 527.51C106.115 527.13 105.608 526.967 105.028 527.021C104.123 527.13 103.887 527.691 103.815 528.017C103.471 529.718 106.223 532.995 107.672 533.81C107.727 533.864 107.781 533.883 107.854 533.883ZM105.264 527.727C105.553 527.727 105.825 527.836 106.06 528.035C107.038 528.904 107.383 531.348 107.473 532.814C106.024 531.656 104.304 529.212 104.521 528.162C104.557 527.999 104.648 527.781 105.119 527.727C105.155 527.727 105.209 527.727 105.264 527.727Z" fill="#407BFF"/>
<path d="M106.515 63.4922C104.758 72.4901 101.027 90.7213 107.33 96.7139C107.33 96.7139 104.866 105.839 88.1495 105.839C69.7482 105.839 79.3654 96.7139 79.3654 96.7139C89.3992 94.3241 89.1457 86.8651 87.3888 79.8767L106.515 63.4922Z" fill="#FFB573"/>
<path d="M75.8323 100.352C72.9526 100.751 75.3977 93.2735 76.5749 92.495C79.2916 90.7027 114.337 88.168 114.12 92.4226C113.975 94.2511 113.124 97.8177 111.584 99.0307C110.045 100.244 101.044 96.5866 75.8323 100.352Z" fill="#263238"/>
<path d="M81.5375 97.8367C79.2374 98.6152 79.4547 91.0837 80.2516 90.1785C82.0628 88.0784 110.425 80.8004 111.277 84.9101C111.603 86.6843 111.766 90.2509 110.788 91.6268C109.81 93.0028 101.478 90.7216 81.5375 97.8367Z" fill="#263238"/>
<path d="M70.9969 47.2705C70.7796 47.2886 70.5441 47.1981 70.3992 46.9989C68.3707 44.5186 65.7265 44.7721 65.7083 44.7721C65.3099 44.8083 64.9658 44.5367 64.9114 44.1384C64.8752 43.7401 65.1469 43.3961 65.5453 43.3418C65.6902 43.3237 68.9865 43.0159 71.504 46.0756C71.7576 46.3834 71.7033 46.836 71.3954 47.0895C71.2867 47.2162 71.1418 47.2705 70.9969 47.2705Z" fill="#263238"/>
<path d="M67.484 56.1416C67.484 56.1416 65.9264 61.5911 63.916 64.3429C65.6728 65.6827 68.3352 64.7231 68.3352 64.7231L67.484 56.1416Z" fill="#FF5652"/>
<path d="M68.3708 53.9331C68.4976 55.1461 67.9361 56.1962 67.1392 56.2867C66.3423 56.3591 65.5997 55.4358 65.473 54.2228C65.3462 53.0098 65.9076 51.9597 66.7045 51.8692C67.5015 51.7968 68.244 52.7201 68.3708 53.9331Z" fill="#263238"/>
<path d="M67.0671 51.905L64.0605 51.3438C64.0605 51.3437 65.7811 53.4801 67.0671 51.905Z" fill="#263238"/>
<path d="M125.494 533.52H110.316L111.512 498.397H126.671L125.494 533.52Z" fill="#FFB573"/>
<path d="M109.122 531.765H126.165C126.781 531.765 127.288 532.199 127.378 532.797L129.316 546.284C129.515 547.678 128.32 549 126.889 548.982C120.949 548.873 118.087 548.529 110.589 548.529C105.97 548.529 99.2329 549 92.8758 549C86.6454 549 86.1745 542.7 88.8188 542.139C100.7 539.586 102.584 536.055 106.586 532.688C107.311 532.091 108.216 531.765 109.122 531.765Z" fill="#263238"/>
<g opacity="0.2">
<path opacity="0.2" d="M126.69 498.416H111.512L110.896 516.521H126.074L126.69 498.416Z" fill="black"/>
</g>
<path d="M65.1289 117.77C55.7471 114.095 46.7819 110.093 37.8711 105.549C28.9602 100.987 20.2123 96.153 11.7905 89.6716C9.68954 88.0241 7.62483 86.2137 5.59634 84.1136C5.08921 83.5704 4.58209 83.0635 4.09308 82.4479C3.56785 81.7962 3.16939 81.416 2.49927 80.4021C1.26768 78.646 0.325885 76.2743 0.0723234 73.8664C-0.163126 71.4585 0.27155 69.1412 0.959788 67.3126C1.64803 65.4479 2.5536 63.909 3.51351 62.5873C5.41522 59.9441 7.53427 57.9707 9.65332 56.2146C13.8914 52.7023 18.3831 50.1496 22.8747 47.7598C25.1206 46.5649 27.4026 45.4967 29.7209 44.501C32.0573 43.4871 34.3212 42.5638 36.8025 41.7129L40.0263 48.6831C32.1297 53.6618 23.9433 59.1294 17.9303 65.2668C16.4632 66.7876 15.1954 68.3808 14.3804 69.7748C13.5111 71.2051 13.5292 72.2732 13.6741 72.1827C13.7465 72.1827 13.7103 72.1465 13.9276 72.3638L14.6521 73.1423C14.9238 73.4681 15.3041 73.794 15.6482 74.138C17.079 75.4596 18.7453 76.7994 20.5383 78.0667C24.1244 80.6194 28.0908 83.0092 32.184 85.2541C36.2591 87.5172 40.461 89.6897 44.7534 91.7536C53.284 95.8453 62.1405 99.7739 70.8159 103.359L65.1289 117.77Z" fill="#FFB573"/>
<path d="M44.482 43.74L46.9995 38.3086L35.5892 34.3438C35.5892 34.3438 32.0394 45.0254 36.2775 49.9679C39.8636 49.3886 42.9425 47.0531 44.482 43.74Z" fill="#FFB573"/>
<path d="M46.982 26.5412L37.8719 23.916L35.5898 34.3442L46.982 38.291V26.5412Z" fill="#FFB573"/>
<path d="M164.706 38.8334L166.028 26.124L154.274 28.8759C154.274 28.8759 154.093 40.7886 160.323 42.6896L164.706 38.8334Z" fill="#FFB573"/>
<path d="M160.378 17.2168L152.717 20.8015L154.274 28.8761L166.029 26.1242L160.378 17.2168Z" fill="#FFB573"/>
<path d="M108.904 45.7312C109.465 60.7761 110.008 67.1307 103.217 75.5493C92.9836 88.2043 74.3831 85.5973 69.3481 71.0232C64.8202 57.9155 64.6753 35.5203 78.7299 28.1337C92.5671 20.8376 108.342 30.6864 108.904 45.7312Z" fill="#FFB573"/>
<path d="M102.348 75.5134C117.127 69.1406 126.835 55.689 122.724 34.6516C118.812 14.5194 105.21 12.5279 99.5956 16.7101C93.981 20.8741 79.9989 14.6643 71.5951 21.725C57.0516 33.9636 70.7982 47.1618 77.9704 54.9829C82.2447 63.7817 87.8593 81.7775 102.348 75.5134Z" fill="url(#paint0_linear)"/>
<path d="M96.2072 31.0304C101.188 38.2359 110.751 40.2817 117.561 35.5746C124.371 30.8674 125.856 21.2177 120.857 13.9941C115.876 6.78847 106.313 4.74267 99.5035 9.44983C92.7116 14.157 91.2265 23.8248 96.2072 31.0304Z" fill="url(#paint1_linear)"/>
<path d="M100.047 18.1223C97.9103 5.99231 109.393 -3.3496 124.752 1.15841C140.092 5.68453 131.978 19.281 128.827 30.1437C125.675 41.0064 133.934 51.344 137.393 43.0884C140.853 34.8146 135.039 32.2619 135.039 32.2619C135.039 32.2619 151.339 36.4802 136.198 54.8563C121.057 73.2142 107.346 52.9372 111.059 40.9701C114.048 31.2843 102.058 29.5824 100.047 18.1223Z" fill="url(#paint2_linear)"/>
<path d="M84.7065 22.7028C77.6974 19.0457 65.8343 16.0946 59.0787 27.4461C55.8911 32.8232 57.1227 40.1012 57.1227 40.1012L77.7517 41.4771L84.7065 22.7028Z" fill="url(#paint3_linear)"/>
<path d="M54.6962 36.5344C54.6781 36.5344 54.6781 36.5344 54.66 36.5344C54.4064 36.5163 54.2253 36.299 54.2434 36.0637C54.2615 35.7559 54.7687 28.4779 59.1517 23.8974C69.7831 12.8537 82.2438 22.0146 85.8118 25.0923C85.9929 25.2553 86.0292 25.545 85.8661 25.726C85.7031 25.907 85.4134 25.9432 85.2322 25.7803C81.8273 22.8474 69.8918 14.0667 59.8218 24.5311C55.6561 28.8581 55.1671 36.0455 55.149 36.118C55.1309 36.3533 54.9317 36.5344 54.6962 36.5344Z" fill="url(#paint4_linear)"/>
<path d="M80.4882 54.3851C80.4701 57.3181 79.148 60.1786 77.4817 62.1339C74.9823 65.0668 72.1026 63.6184 71.4506 60.3777C70.8529 57.4629 71.4506 52.4117 74.602 50.6556C77.7353 48.8995 80.5064 51.0358 80.4882 54.3851Z" fill="#FFB573"/>
<path d="M77.2266 192.142C77.2266 192.142 78.1865 297.402 87.3328 356.06C94.7042 403.439 108.36 513.008 108.36 513.008H129.044C129.044 513.008 131.072 407.241 127.323 360.369C117.851 241.785 142.301 219.625 122.56 192.124H77.2266V192.142Z" fill="#2B454E"/>
<path opacity="0.1" d="M77.2266 192.142C77.2266 192.142 78.1865 297.402 87.3328 356.06C94.7042 403.439 108.36 513.008 108.36 513.008H129.044C129.044 513.008 131.072 407.241 127.323 360.369C117.851 241.785 142.301 219.625 122.56 192.124H77.2266V192.142Z" fill="white"/>
<path opacity="0.3" d="M88.0934 239.884C95.3562 271.657 89.5605 321.698 85.594 343.731C81.3922 310.274 79.2731 266.914 78.2227 235.141C81.9717 229.057 85.5216 228.659 88.0934 239.884Z" fill="black"/>
<path d="M105.536 513.424H131.888L133.264 504.173L105.391 503.231L105.536 513.424Z" fill="#407BFF"/>
<path d="M113.052 103.286C115.534 98.3615 128.846 95.2656 136.144 95.2656L141.596 119.453C141.596 119.453 127.089 140.979 121.058 138.698C113.922 136.019 107.746 113.841 113.052 103.286Z" fill="#407BFF"/>
<path opacity="0.4" d="M113.052 103.286C115.534 98.3615 128.846 95.2656 136.144 95.2656L141.596 119.453C141.596 119.453 127.089 140.979 121.058 138.698C113.922 136.019 107.746 113.841 113.052 103.286Z" fill="black"/>
<path d="M97.6928 507.504C97.7653 507.396 97.7653 507.269 97.711 507.142C97.6385 507.015 97.4936 506.925 97.3487 506.961C96.588 507.07 89.8868 508.138 88.9812 510.057C88.8001 510.419 88.8363 510.817 89.0536 511.18C89.4159 511.795 89.9411 512.139 90.6112 512.211C92.8027 512.447 95.9722 509.387 97.6747 507.559C97.6747 507.541 97.6747 507.522 97.6928 507.504ZM89.6513 510.274C90.2671 509.26 93.7445 508.319 96.3888 507.83C93.9981 510.256 91.8972 511.614 90.6656 511.487C90.2309 511.451 89.9049 511.216 89.6513 510.799C89.5608 510.636 89.5427 510.492 89.6151 510.347C89.6151 510.329 89.6332 510.311 89.6513 510.274Z" fill="#407BFF"/>
<path d="M97.6934 507.504C97.7115 507.486 97.7115 507.45 97.7296 507.432C97.7658 507.305 97.7477 507.178 97.6572 507.088C97.5485 506.961 94.8499 503.865 92.3867 503.702C91.626 503.648 90.9559 503.883 90.4126 504.372C89.67 505.042 89.7243 505.621 89.9235 505.983C90.7023 507.54 95.52 508.083 97.4761 507.667C97.5666 507.649 97.6391 507.576 97.6934 507.504ZM90.6118 505.223C90.6661 505.132 90.7567 505.024 90.9016 504.897C91.3181 504.535 91.789 504.372 92.3505 504.408C93.9805 504.517 95.8279 506.2 96.661 507.051C94.5058 507.232 91.0283 506.581 90.5574 505.639C90.5212 505.585 90.4669 505.458 90.6118 505.223Z" fill="#407BFF"/>
<path d="M113.505 501.077L99.6316 507.233L93.4556 494.379L85.3598 477.523L84.418 475.568L98.2733 469.395L99.36 471.603L107.184 487.915L113.505 501.077Z" fill="#FFB573"/>
<path opacity="0.2" d="M107.184 487.916L93.4552 494.379L85.3594 477.524L99.3596 471.604L107.184 487.916Z" fill="black"/>
<path d="M60.9624 192.142C60.9624 192.142 16.6435 302.272 28.6514 354.141C39.5183 401.013 87.5138 489.78 87.5138 489.78L106.078 480.456C106.078 480.456 76.3934 373.295 73.1695 350.013C66.9029 304.716 107.183 240.789 107.183 192.124L60.9624 192.142Z" fill="#2B454E"/>
<path opacity="0.1" d="M60.9624 192.142C60.9624 192.142 16.6435 302.272 28.6514 354.141C39.5183 401.013 87.5138 489.78 87.5138 489.78L106.078 480.456C106.078 480.456 76.3934 373.295 73.1695 350.013C66.9029 304.716 107.183 240.789 107.183 192.124L60.9624 192.142Z" fill="white"/>
<path d="M97.15 505.314L110.933 495.284C111.44 494.922 112.092 494.976 112.527 495.411L122.035 505.169C123.013 506.183 122.832 507.957 121.655 508.772C116.783 512.194 114.265 513.588 108.216 517.987C104.485 520.703 97.0594 526.695 91.9157 530.443C86.8807 534.1 82.7875 529.302 84.5987 527.275C92.7126 518.222 94.4151 512.61 95.6648 507.541C95.8822 506.636 96.4255 505.839 97.15 505.314Z" fill="#263238"/>
<path d="M86.32 493.709L110.282 482.755L107.203 472.997L81.5566 484.693L86.32 493.709Z" fill="#407BFF"/>
<path d="M72.7179 102.037C70.7256 96.8949 53.411 91.2463 44.7356 89.291L40.9141 117.842C40.9141 117.842 55.0954 138.227 61.3257 136.526C68.679 134.534 76.9741 113.062 72.7179 102.037Z" fill="#407BFF"/>
<path opacity="0.4" d="M72.7179 102.037C70.7256 96.8949 53.411 91.2463 44.7356 89.291L40.9141 117.842C40.9141 117.842 55.0954 138.227 61.3257 136.526C68.679 134.534 76.9741 113.062 72.7179 102.037Z" fill="black"/>
<path d="M53.7008 100.607C53.7008 100.607 46.4744 103.159 60.9455 192.143C85.396 192.143 110.662 192.143 122.561 192.143C121.528 167.068 121.492 151.625 133.482 100.172C133.482 100.172 120.569 97.3659 107.311 96.7323C96.9511 96.2254 88.4387 95.8995 79.3286 96.7323C67.3388 97.8185 53.7008 100.607 53.7008 100.607Z" fill="#407BFF"/>
<path opacity="0.4" d="M53.7008 100.607C53.7008 100.607 46.4744 103.159 60.9455 192.143C85.396 192.143 110.662 192.143 122.561 192.143C121.528 167.068 121.492 151.625 133.482 100.172C133.482 100.172 120.569 97.3659 107.311 96.7323C96.9511 96.2254 88.4387 95.8995 79.3286 96.7323C67.3388 97.8185 53.7008 100.607 53.7008 100.607Z" fill="black"/>
<path d="M123.502 188.522L126.273 194.044C126.49 194.478 125.983 194.913 125.277 194.913H60.6549C60.0934 194.913 59.6407 194.641 59.6044 194.297L59.043 188.793C59.0067 188.413 59.4777 188.087 60.0934 188.087H122.488C122.94 188.051 123.357 188.25 123.502 188.522Z" fill="#407BFF"/>
<path opacity="0.3" d="M123.502 188.522L126.273 194.044C126.49 194.478 125.983 194.913 125.277 194.913H60.6549C60.0934 194.913 59.6407 194.641 59.6044 194.297L59.043 188.793C59.0067 188.413 59.4777 188.087 60.0934 188.087H122.488C122.94 188.051 123.357 188.25 123.502 188.522Z" fill="white"/>
<path d="M115.117 195.492H116.784C117.11 195.492 117.363 195.329 117.345 195.112L116.566 187.943C116.548 187.725 116.258 187.562 115.914 187.562H114.248C113.922 187.562 113.668 187.725 113.686 187.943L114.465 195.112C114.483 195.329 114.791 195.492 115.117 195.492Z" fill="#263238"/>
<path d="M74.6011 195.492H76.2674C76.5934 195.492 76.8469 195.329 76.8288 195.112L76.0681 187.96C76.05 187.743 75.7603 187.58 75.4161 187.58H73.7499C73.4239 187.58 73.1703 187.743 73.1884 187.96L73.9672 195.13C73.9853 195.329 74.2751 195.492 74.6011 195.492Z" fill="#263238"/>
</g>
<defs>
<linearGradient id="paint0_linear" x1="123.671" y1="45.8594" x2="65.1712" y2="45.8594" gradientUnits="userSpaceOnUse">
<stop stop-color="#0074DB"/>
<stop offset="1" stop-color="#00429A"/>
</linearGradient>
<linearGradient id="paint1_linear" x1="108.539" y1="6.91699" x2="108.539" y2="38.1074" gradientUnits="userSpaceOnUse">
<stop stop-color="#F9A297"/>
<stop offset="1" stop-color="#ED4C64"/>
</linearGradient>
<linearGradient id="paint2_linear" x1="142.638" y1="31.1152" x2="99.7834" y2="31.1152" gradientUnits="userSpaceOnUse">
<stop stop-color="#0074DB"/>
<stop offset="1" stop-color="#00429A"/>
</linearGradient>
<linearGradient id="paint3_linear" x1="84.7057" y1="30.4515" x2="56.8837" y2="30.4515" gradientUnits="userSpaceOnUse">
<stop stop-color="#0074DB"/>
<stop offset="1" stop-color="#00429A"/>
</linearGradient>
<linearGradient id="paint4_linear" x1="85.9693" y1="27.5665" x2="54.2365" y2="27.5665" gradientUnits="userSpaceOnUse">
<stop stop-color="#0074DB"/>
<stop offset="1" stop-color="#00429A"/>
</linearGradient>
<clipPath id="clip0">
<rect width="178" height="549" fill="white"/>
</clipPath>
</defs>
</svg>
