<svg width="40" height="40" viewBox="0 0 40 40" fill="none" xmlns="http://www.w3.org/2000/svg">
<path d="M38.8115 16.2495C39.0614 17.5884 39.1975 18.9882 39.1975 20.449C39.1975 31.8753 31.5502 40 20 40C17.3733 40.0008 14.7723 39.484 12.3454 38.4792C9.91851 37.4744 7.71341 36.0012 5.85608 34.1439C3.99875 32.2866 2.52559 30.0815 1.52078 27.6546C0.515969 25.2277 -0.000799923 22.6267 9.29403e-07 20C-0.000799923 17.3733 0.515969 14.7723 1.52078 12.3454C2.52559 9.91851 3.99875 7.71341 5.85608 5.85608C7.71341 3.99875 9.91851 2.52559 12.3454 1.52078C14.7723 0.515969 17.3733 -0.000799923 20 9.29403e-07C25.4002 9.29403e-07 29.9126 1.987 33.3746 5.21333L27.7367 10.8513V10.8371C25.6379 8.83787 22.9744 7.81187 20 7.81187C13.4011 7.81187 8.03738 13.3868 8.03738 19.9878C8.03738 26.5868 13.4011 32.1739 20 32.1739C25.9874 32.1739 30.063 28.7505 30.9 24.0492H20V16.2495H38.8135H38.8115Z" fill="#ACB5BD"/>
</svg>
