<svg width="60" height="24" viewBox="0 0 60 24" fill="none" xmlns="http://www.w3.org/2000/svg">
<path d="M0 22.3373H11.67V24H0V22.3373ZM0 19.139H11.67V20.8055H0V19.139ZM3.32063 15.9445H8.33062V17.6203H3.32063V15.9445ZM3.32063 12.7612H8.33062V14.437H3.32063V12.7612ZM3.32063 9.56297H8.33062V11.2388H3.32063V9.56297ZM3.32063 6.36846H8.33062V8.04427H3.32063V6.36846ZM0 3.18516H11.67V4.86097H0V3.18516ZM0 6.0995e-07H11.67V1.66272H0V6.0995e-07ZM13.3294 20.8055H31.2694C31.5713 20.2893 31.8075 19.7263 31.9425 19.139H13.3294V20.8055ZM29.8725 12.7612H16.6706V14.437H31.2806C30.9083 13.8072 30.4366 13.2413 29.8837 12.7612H29.8725ZM16.6594 9.56297V11.2388H29.8725C30.4406 10.7731 30.8981 10.2064 31.2806 9.56297H16.6594ZM31.2694 3.18516H13.3294V4.86097H31.9313C31.7859 4.27561 31.5634 3.71209 31.2694 3.18516ZM25.7625 6.0995e-07H13.3294V1.66272H30.0394C28.8734 0.592811 27.3468 -0.000694534 25.7625 6.0995e-07ZM16.6594 6.36846H21.66V8.04427H16.6594V6.36846ZM26.67 8.04427H31.8956C32.0444 7.49801 32.1201 6.93451 32.1206 6.36846H26.67V8.04427ZM16.6594 15.9445H21.66V17.6203H16.6594V15.9445ZM26.67 15.9445V17.6203H32.1206C32.1206 17.0443 32.04 16.4813 31.8956 15.9445H26.67ZM13.3294 23.9925L25.7513 24C27.4219 24 28.9237 23.3697 30.0487 22.3373H13.3294V23.9925ZM33.3394 22.3373H41.6588V24H33.3394V22.3373ZM33.3394 19.139H41.6588V20.8055H33.3394V19.139ZM36.66 15.9445H41.6606V17.6203H36.66V15.9445ZM36.66 12.7612H41.6606V14.437H36.66V12.7612ZM43.9856 3.18516H33.3412V4.86097H44.5613L43.9856 3.18516ZM42.8794 6.0995e-07H33.3394V1.66272H43.4569L42.8794 6.0995e-07ZM51.66 22.3373H60V24H51.66V22.3373ZM51.66 19.139H60V20.8055H51.66V19.139ZM51.66 15.9445H56.6606V17.6203H51.66V15.9445ZM51.66 12.7612H56.6606V14.437H51.66V12.7612ZM51.66 11.2388H56.6606V9.56297H47.1375L46.6594 10.9171L46.1925 9.56297H36.66V11.2388H41.6606V9.6995L42.1987 11.2388H51.1331L51.66 9.6995V11.2388ZM56.6606 6.36846H48.2437L47.6663 8.04427H56.6606V6.36846ZM50.46 6.0995e-07L49.8825 1.66272H60V6.0995e-07H50.46ZM46.6594 23.9925L47.2369 22.3373H46.0837L46.6594 23.9925ZM45.5569 20.8055H47.7713L48.3694 19.139H44.97L45.5569 20.8055ZM44.4319 17.6203H48.8962L49.4812 15.9445H43.8469L44.4319 17.6203ZM43.32 14.437H50.0194L50.5838 12.7612H42.7444L43.32 14.437ZM36.66 8.04427H45.6656L45.0881 6.36846H36.66V8.04427ZM48.78 4.86097H60V3.18516H49.3444L48.78 4.86097Z" fill="#495057"/>
</svg>
