<svg width="113" height="40" viewBox="0 0 113 40" fill="none" xmlns="http://www.w3.org/2000/svg">
<path d="M0 37.2288H21.9608V40H0V37.2288ZM0 31.8984H21.9608V34.6758H0V31.8984ZM6.24881 26.5742H15.6767V29.3672H6.24881V26.5742ZM6.24881 21.2687H15.6767V24.0617H6.24881V21.2687ZM6.24881 15.9383H15.6767V18.7313H6.24881V15.9383ZM6.24881 10.6141H15.6767V13.4071H6.24881V10.6141ZM0 5.3086H21.9608V8.10162H0V5.3086ZM0 1.01658e-06H21.9608V2.7712H0V1.01658e-06ZM25.0835 34.6758H58.8433C59.4114 33.8155 59.8559 32.8772 60.11 31.8984H25.0835V34.6758ZM56.2146 21.2687H31.3711V24.0617H58.8644C58.1638 23.012 57.2762 22.0689 56.2358 21.2687H56.2146ZM31.3499 15.9383V18.7313H56.2146C57.2837 17.9551 58.1447 17.0106 58.8644 15.9383H31.3499ZM58.8433 5.3086H25.0835V8.10162H60.0888C59.8154 7.12603 59.3965 6.18682 58.8433 5.3086ZM48.4803 1.01658e-06H25.0835V2.7712H56.5286C54.3345 0.988018 51.4617 -0.00115756 48.4803 1.01658e-06ZM31.3499 10.6141H40.7602V13.4071H31.3499V10.6141ZM50.1881 13.4071H60.0218C60.3018 12.4967 60.4441 11.5575 60.4452 10.6141H50.1881V13.4071ZM31.3499 26.5742H40.7602V29.3672H31.3499V26.5742ZM50.1881 26.5742V29.3672H60.4452C60.4452 28.4071 60.2935 27.4688 60.0218 26.5742H50.1881ZM25.0835 39.9876L48.4592 40C51.603 40 54.4292 38.9495 56.5463 37.2288H25.0835V39.9876ZM62.7386 37.2288H78.3942V40H62.7386V37.2288ZM62.7386 31.8984H78.3942V34.6758H62.7386V31.8984ZM68.9874 26.5742H78.3977V29.3672H68.9874V26.5742ZM68.9874 21.2687H78.3977V24.0617H68.9874V21.2687ZM82.7729 5.3086H62.7422V8.10162H83.8562L82.7729 5.3086ZM80.6912 1.01658e-06H62.7386V2.7712H81.7779L80.6912 1.01658e-06ZM97.2147 37.2288H112.909V40H97.2147V37.2288ZM97.2147 31.8984H112.909V34.6758H97.2147V31.8984ZM97.2147 26.5742H106.625V29.3672H97.2147V26.5742ZM97.2147 21.2687H106.625V24.0617H97.2147V21.2687ZM97.2147 18.7313H106.625V15.9383H88.7042L87.8045 18.1951L86.9259 15.9383H68.9874V18.7313H78.3977V16.1659L79.4104 18.7313H96.2232L97.2147 16.1659V18.7313ZM106.625 10.6141H90.786L89.6992 13.4071H106.625V10.6141ZM94.9565 1.01658e-06L93.8698 2.7712H112.909V1.01658e-06H94.9565ZM87.8045 39.9876L88.8912 37.2288H86.7212L87.8045 39.9876ZM85.7298 34.6758H89.8968L91.0224 31.8984H84.6254L85.7298 34.6758ZM83.6127 29.3672H92.0138L93.1147 26.5742H82.5118L83.6127 29.3672ZM81.5204 24.0617H94.1274L95.1894 21.2687H80.4371L81.5204 24.0617ZM68.9874 13.4071H85.9344L84.8477 10.6141H68.9874V13.4071ZM91.7951 8.10162H112.909V5.3086H92.8571L91.7951 8.10162Z" fill="#495057"/>
</svg>
