<svg width="1100" height="341" viewBox="0 0 1100 341" fill="none" xmlns="http://www.w3.org/2000/svg">
<path d="M11.5908 320.533C11.5908 322.696 11.1432 324.35 10.248 325.496C9.35286 326.642 8.04232 327.215 6.31641 327.215C4.61198 327.215 3.30859 326.653 2.40625 325.528C1.50391 324.404 1.04199 322.793 1.02051 320.694V317.815C1.02051 315.631 1.47168 313.973 2.37402 312.842C3.28353 311.71 4.59049 311.145 6.29492 311.145C7.99935 311.145 9.30273 311.707 10.2051 312.831C11.1074 313.948 11.5693 315.556 11.5908 317.654V320.533ZM8.48633 317.375C8.48633 316.079 8.30729 315.137 7.94922 314.55C7.59831 313.955 7.04688 313.658 6.29492 313.658C5.56445 313.658 5.02376 313.941 4.67285 314.507C4.3291 315.065 4.14648 315.943 4.125 317.139V320.941C4.125 322.216 4.29688 323.165 4.64062 323.788C4.99154 324.404 5.55013 324.712 6.31641 324.712C7.07552 324.712 7.62337 324.415 7.95996 323.82C8.29655 323.226 8.47201 322.316 8.48633 321.092V317.375Z" fill="#A3A3A3"/>
<path d="M8.60449 265H5.5V253.033L1.79395 254.183V251.658L8.27148 249.338H8.60449V265ZM24.2236 258.533C24.2236 260.696 23.776 262.35 22.8809 263.496C21.9857 264.642 20.6751 265.215 18.9492 265.215C17.2448 265.215 15.9414 264.653 15.0391 263.528C14.1367 262.404 13.6748 260.793 13.6533 258.694V255.815C13.6533 253.631 14.1045 251.973 15.0068 250.842C15.9163 249.71 17.2233 249.145 18.9277 249.145C20.6322 249.145 21.9355 249.707 22.8379 250.831C23.7402 251.948 24.2021 253.556 24.2236 255.654V258.533ZM21.1191 255.375C21.1191 254.079 20.9401 253.137 20.582 252.55C20.2311 251.955 19.6797 251.658 18.9277 251.658C18.1973 251.658 17.6566 251.941 17.3057 252.507C16.9619 253.065 16.7793 253.943 16.7578 255.139V258.941C16.7578 260.216 16.9297 261.165 17.2734 261.788C17.6243 262.404 18.1829 262.712 18.9492 262.712C19.7083 262.712 20.2562 262.415 20.5928 261.82C20.9294 261.226 21.1048 260.316 21.1191 259.092V255.375Z" fill="#A3A3A3"/>
<path d="M8.60449 203H5.5V191.033L1.79395 192.183V189.658L8.27148 187.338H8.60449V203ZM14.1582 195.309L15.0605 187.359H23.8262V189.948H17.6064L17.2197 193.311C17.9574 192.917 18.7415 192.72 19.5723 192.72C21.0618 192.72 22.2292 193.182 23.0742 194.105C23.9193 195.029 24.3418 196.322 24.3418 197.983C24.3418 198.993 24.127 199.899 23.6973 200.701C23.2747 201.496 22.666 202.116 21.8711 202.56C21.0762 202.996 20.138 203.215 19.0566 203.215C18.1113 203.215 17.234 203.025 16.4248 202.646C15.6156 202.259 14.9746 201.718 14.502 201.023C14.0365 200.329 13.7894 199.537 13.7607 198.649H16.833C16.8975 199.301 17.123 199.81 17.5098 200.175C17.9036 200.533 18.4157 200.712 19.0459 200.712C19.7477 200.712 20.2884 200.461 20.668 199.96C21.0475 199.451 21.2373 198.735 21.2373 197.812C21.2373 196.924 21.0189 196.243 20.582 195.771C20.1452 195.298 19.5257 195.062 18.7236 195.062C17.986 195.062 17.388 195.255 16.9297 195.642L16.6289 195.921L14.1582 195.309Z" fill="#A3A3A3"/>
<path d="M11.7842 141H1.06348V138.873L6.12305 133.48C6.81771 132.721 7.32975 132.059 7.65918 131.493C7.99577 130.927 8.16406 130.39 8.16406 129.882C8.16406 129.187 7.98861 128.643 7.6377 128.249C7.28678 127.848 6.78548 127.647 6.13379 127.647C5.43197 127.647 4.87695 127.891 4.46875 128.378C4.06771 128.858 3.86719 129.492 3.86719 130.279H0.751953C0.751953 129.327 0.977539 128.457 1.42871 127.669C1.88704 126.881 2.53158 126.265 3.3623 125.821C4.19303 125.37 5.13477 125.145 6.1875 125.145C7.79883 125.145 9.0485 125.531 9.93652 126.305C10.8317 127.078 11.2793 128.17 11.2793 129.581C11.2793 130.354 11.0788 131.142 10.6777 131.944C10.2767 132.746 9.58919 133.681 8.61523 134.748L5.05957 138.497H11.7842V141ZM24.2236 134.533C24.2236 136.696 23.776 138.35 22.8809 139.496C21.9857 140.642 20.6751 141.215 18.9492 141.215C17.2448 141.215 15.9414 140.653 15.0391 139.528C14.1367 138.404 13.6748 136.793 13.6533 134.694V131.815C13.6533 129.631 14.1045 127.973 15.0068 126.842C15.9163 125.71 17.2233 125.145 18.9277 125.145C20.6322 125.145 21.9355 125.707 22.8379 126.831C23.7402 127.948 24.2021 129.556 24.2236 131.654V134.533ZM21.1191 131.375C21.1191 130.079 20.9401 129.137 20.582 128.55C20.2311 127.955 19.6797 127.658 18.9277 127.658C18.1973 127.658 17.6566 127.941 17.3057 128.507C16.9619 129.065 16.7793 129.943 16.7578 131.139V134.941C16.7578 136.216 16.9297 137.165 17.2734 137.788C17.6243 138.404 18.1829 138.712 18.9492 138.712C19.7083 138.712 20.2562 138.415 20.5928 137.82C20.9294 137.226 21.1048 136.316 21.1191 135.092V131.375Z" fill="#A3A3A3"/>
<path d="M11.7842 79H1.06348V76.873L6.12305 71.4805C6.81771 70.7214 7.32975 70.0589 7.65918 69.4932C7.99577 68.9274 8.16406 68.3903 8.16406 67.8818C8.16406 67.1872 7.98861 66.6429 7.6377 66.249C7.28678 65.848 6.78548 65.6475 6.13379 65.6475C5.43197 65.6475 4.87695 65.891 4.46875 66.3779C4.06771 66.8577 3.86719 67.4915 3.86719 68.2793H0.751953C0.751953 67.3268 0.977539 66.4567 1.42871 65.6689C1.88704 64.8812 2.53158 64.2653 3.3623 63.8213C4.19303 63.3701 5.13477 63.1445 6.1875 63.1445C7.79883 63.1445 9.0485 63.5312 9.93652 64.3047C10.8317 65.0781 11.2793 66.1702 11.2793 67.5811C11.2793 68.3545 11.0788 69.1423 10.6777 69.9443C10.2767 70.7464 9.58919 71.681 8.61523 72.748L5.05957 76.4971H11.7842V79ZM14.1582 71.3086L15.0605 63.3594H23.8262V65.9482H17.6064L17.2197 69.3105C17.9574 68.9167 18.7415 68.7197 19.5723 68.7197C21.0618 68.7197 22.2292 69.1816 23.0742 70.1055C23.9193 71.0293 24.3418 72.3219 24.3418 73.9834C24.3418 74.9932 24.127 75.8991 23.6973 76.7012C23.2747 77.4961 22.666 78.1156 21.8711 78.5596C21.0762 78.9964 20.138 79.2148 19.0566 79.2148C18.1113 79.2148 17.234 79.0251 16.4248 78.6455C15.6156 78.2588 14.9746 77.7181 14.502 77.0234C14.0365 76.3288 13.7894 75.5374 13.7607 74.6494H16.833C16.8975 75.3011 17.123 75.8096 17.5098 76.1748C17.9036 76.5329 18.4157 76.7119 19.0459 76.7119C19.7477 76.7119 20.2884 76.4613 20.668 75.96C21.0475 75.4515 21.2373 74.7354 21.2373 73.8115C21.2373 72.9235 21.0189 72.2432 20.582 71.7705C20.1452 71.2979 19.5257 71.0615 18.7236 71.0615C17.986 71.0615 17.388 71.2549 16.9297 71.6416L16.6289 71.9209L14.1582 71.3086Z" fill="#A3A3A3"/>
<path d="M112.088 335.563C110.962 335.24 110.142 334.843 109.627 334.374C109.117 333.9 108.861 333.317 108.861 332.624C108.861 331.84 109.174 331.193 109.798 330.683C110.427 330.168 111.243 329.91 112.245 329.91C112.929 329.91 113.537 330.042 114.07 330.307C114.608 330.571 115.023 330.936 115.314 331.4C115.611 331.865 115.759 332.373 115.759 332.925H114.439C114.439 332.323 114.248 331.852 113.865 331.51C113.482 331.163 112.942 330.99 112.245 330.99C111.598 330.99 111.092 331.134 110.728 331.421C110.368 331.703 110.188 332.098 110.188 332.604C110.188 333.009 110.358 333.353 110.7 333.636C111.047 333.914 111.632 334.169 112.457 334.401C113.286 334.634 113.934 334.891 114.398 335.174C114.868 335.452 115.214 335.778 115.438 336.151C115.665 336.525 115.779 336.965 115.779 337.471C115.779 338.277 115.465 338.924 114.836 339.412C114.207 339.895 113.366 340.137 112.313 340.137C111.63 340.137 110.992 340.007 110.399 339.747C109.807 339.483 109.349 339.123 109.025 338.667C108.706 338.211 108.547 337.694 108.547 337.115H109.866C109.866 337.717 110.087 338.193 110.529 338.544C110.976 338.89 111.571 339.063 112.313 339.063C113.006 339.063 113.537 338.922 113.906 338.64C114.275 338.357 114.46 337.972 114.46 337.484C114.46 336.997 114.289 336.621 113.947 336.356C113.605 336.088 112.986 335.823 112.088 335.563ZM120.339 340.137C119.336 340.137 118.521 339.809 117.892 339.152C117.263 338.492 116.948 337.61 116.948 336.507V336.274C116.948 335.541 117.087 334.887 117.365 334.312C117.648 333.734 118.04 333.283 118.541 332.959C119.047 332.631 119.594 332.467 120.182 332.467C121.143 332.467 121.891 332.784 122.424 333.417C122.957 334.05 123.224 334.957 123.224 336.138V336.664H118.213C118.231 337.393 118.443 337.983 118.849 338.435C119.259 338.881 119.778 339.104 120.407 339.104C120.854 339.104 121.232 339.013 121.542 338.831C121.852 338.649 122.123 338.407 122.355 338.106L123.128 338.708C122.508 339.66 121.578 340.137 120.339 340.137ZM120.182 333.506C119.671 333.506 119.243 333.693 118.896 334.066C118.55 334.436 118.336 334.955 118.254 335.625H121.959V335.529C121.923 334.887 121.749 334.39 121.439 334.039C121.13 333.684 120.71 333.506 120.182 333.506ZM127.038 338.284L128.87 332.604H130.162L127.51 340H126.546L123.866 332.604H125.158L127.038 338.284ZM131.338 339.337C131.338 339.118 131.402 338.936 131.529 338.79C131.661 338.644 131.857 338.571 132.117 338.571C132.377 338.571 132.573 338.644 132.705 338.79C132.842 338.936 132.91 339.118 132.91 339.337C132.91 339.547 132.842 339.722 132.705 339.863C132.573 340.005 132.377 340.075 132.117 340.075C131.857 340.075 131.661 340.005 131.529 339.863C131.402 339.722 131.338 339.547 131.338 339.337ZM131.345 333.301C131.345 333.082 131.409 332.9 131.536 332.754C131.668 332.608 131.864 332.535 132.124 332.535C132.384 332.535 132.58 332.608 132.712 332.754C132.849 332.9 132.917 333.082 132.917 333.301C132.917 333.51 132.849 333.686 132.712 333.827C132.58 333.968 132.384 334.039 132.124 334.039C131.864 334.039 131.668 333.968 131.536 333.827C131.409 333.686 131.345 333.51 131.345 333.301ZM138.693 335.01L139.199 330.047H144.299V331.216H140.272L139.972 333.93C140.459 333.643 141.013 333.499 141.633 333.499C142.54 333.499 143.26 333.8 143.793 334.401C144.326 334.998 144.593 335.807 144.593 336.828C144.593 337.854 144.315 338.662 143.759 339.255C143.207 339.843 142.435 340.137 141.441 340.137C140.562 340.137 139.844 339.893 139.288 339.405C138.732 338.918 138.415 338.243 138.338 337.382H139.534C139.612 337.951 139.814 338.382 140.143 338.674C140.471 338.961 140.904 339.104 141.441 339.104C142.029 339.104 142.49 338.904 142.822 338.503C143.16 338.102 143.328 337.548 143.328 336.842C143.328 336.176 143.146 335.643 142.781 335.242C142.421 334.837 141.94 334.634 141.339 334.634C140.787 334.634 140.354 334.755 140.04 334.996L139.705 335.27L138.693 335.01Z" fill="#A3A3A3"/>
<path d="M322.088 335.563C320.962 335.24 320.142 334.843 319.627 334.374C319.117 333.9 318.861 333.317 318.861 332.624C318.861 331.84 319.174 331.193 319.798 330.683C320.427 330.168 321.243 329.91 322.245 329.91C322.929 329.91 323.537 330.042 324.07 330.307C324.608 330.571 325.023 330.936 325.314 331.4C325.611 331.865 325.759 332.373 325.759 332.925H324.439C324.439 332.323 324.248 331.852 323.865 331.51C323.482 331.163 322.942 330.99 322.245 330.99C321.598 330.99 321.092 331.134 320.728 331.421C320.368 331.703 320.188 332.098 320.188 332.604C320.188 333.009 320.358 333.353 320.7 333.636C321.047 333.914 321.632 334.169 322.457 334.401C323.286 334.634 323.934 334.891 324.398 335.174C324.868 335.452 325.214 335.778 325.438 336.151C325.665 336.525 325.779 336.965 325.779 337.471C325.779 338.277 325.465 338.924 324.836 339.412C324.207 339.895 323.366 340.137 322.313 340.137C321.63 340.137 320.992 340.007 320.399 339.747C319.807 339.483 319.349 339.123 319.025 338.667C318.706 338.211 318.547 337.694 318.547 337.115H319.866C319.866 337.717 320.087 338.193 320.529 338.544C320.976 338.89 321.571 339.063 322.313 339.063C323.006 339.063 323.537 338.922 323.906 338.64C324.275 338.357 324.46 337.972 324.46 337.484C324.46 336.997 324.289 336.621 323.947 336.356C323.605 336.088 322.986 335.823 322.088 335.563ZM330.339 340.137C329.336 340.137 328.521 339.809 327.892 339.152C327.263 338.492 326.948 337.61 326.948 336.507V336.274C326.948 335.541 327.087 334.887 327.365 334.312C327.648 333.734 328.04 333.283 328.541 332.959C329.047 332.631 329.594 332.467 330.182 332.467C331.143 332.467 331.891 332.784 332.424 333.417C332.957 334.05 333.224 334.957 333.224 336.138V336.664H328.213C328.231 337.393 328.443 337.983 328.849 338.435C329.259 338.881 329.778 339.104 330.407 339.104C330.854 339.104 331.232 339.013 331.542 338.831C331.852 338.649 332.123 338.407 332.355 338.106L333.128 338.708C332.508 339.66 331.578 340.137 330.339 340.137ZM330.182 333.506C329.671 333.506 329.243 333.693 328.896 334.066C328.55 334.436 328.336 334.955 328.254 335.625H331.959V335.529C331.923 334.887 331.749 334.39 331.439 334.039C331.13 333.684 330.71 333.506 330.182 333.506ZM337.038 338.284L338.87 332.604H340.162L337.51 340H336.546L333.866 332.604H335.158L337.038 338.284ZM341.338 339.337C341.338 339.118 341.402 338.936 341.529 338.79C341.661 338.644 341.857 338.571 342.117 338.571C342.377 338.571 342.573 338.644 342.705 338.79C342.842 338.936 342.91 339.118 342.91 339.337C342.91 339.547 342.842 339.722 342.705 339.863C342.573 340.005 342.377 340.075 342.117 340.075C341.857 340.075 341.661 340.005 341.529 339.863C341.402 339.722 341.338 339.547 341.338 339.337ZM341.345 333.301C341.345 333.082 341.409 332.9 341.536 332.754C341.668 332.608 341.864 332.535 342.124 332.535C342.384 332.535 342.58 332.608 342.712 332.754C342.849 332.9 342.917 333.082 342.917 333.301C342.917 333.51 342.849 333.686 342.712 333.827C342.58 333.968 342.384 334.039 342.124 334.039C341.864 334.039 341.668 333.968 341.536 333.827C341.409 333.686 341.345 333.51 341.345 333.301ZM353.451 336.657H354.832V337.689H353.451V340H352.18V337.689H347.647V336.944L352.104 330.047H353.451V336.657ZM349.083 336.657H352.18V331.776L352.029 332.05L349.083 336.657Z" fill="#A3A3A3"/>
<path d="M534.088 335.563C532.962 335.24 532.142 334.843 531.627 334.374C531.117 333.9 530.861 333.317 530.861 332.624C530.861 331.84 531.174 331.193 531.798 330.683C532.427 330.168 533.243 329.91 534.245 329.91C534.929 329.91 535.537 330.042 536.07 330.307C536.608 330.571 537.023 330.936 537.314 331.4C537.611 331.865 537.759 332.373 537.759 332.925H536.439C536.439 332.323 536.248 331.852 535.865 331.51C535.482 331.163 534.942 330.99 534.245 330.99C533.598 330.99 533.092 331.134 532.728 331.421C532.368 331.703 532.188 332.098 532.188 332.604C532.188 333.009 532.358 333.353 532.7 333.636C533.047 333.914 533.632 334.169 534.457 334.401C535.286 334.634 535.934 334.891 536.398 335.174C536.868 335.452 537.214 335.778 537.438 336.151C537.665 336.525 537.779 336.965 537.779 337.471C537.779 338.277 537.465 338.924 536.836 339.412C536.207 339.895 535.366 340.137 534.313 340.137C533.63 340.137 532.992 340.007 532.399 339.747C531.807 339.483 531.349 339.123 531.025 338.667C530.706 338.211 530.547 337.694 530.547 337.115H531.866C531.866 337.717 532.087 338.193 532.529 338.544C532.976 338.89 533.571 339.063 534.313 339.063C535.006 339.063 535.537 338.922 535.906 338.64C536.275 338.357 536.46 337.972 536.46 337.484C536.46 336.997 536.289 336.621 535.947 336.356C535.605 336.088 534.986 335.823 534.088 335.563ZM542.339 340.137C541.336 340.137 540.521 339.809 539.892 339.152C539.263 338.492 538.948 337.61 538.948 336.507V336.274C538.948 335.541 539.087 334.887 539.365 334.312C539.648 333.734 540.04 333.283 540.541 332.959C541.047 332.631 541.594 332.467 542.182 332.467C543.143 332.467 543.891 332.784 544.424 333.417C544.957 334.05 545.224 334.957 545.224 336.138V336.664H540.213C540.231 337.393 540.443 337.983 540.849 338.435C541.259 338.881 541.778 339.104 542.407 339.104C542.854 339.104 543.232 339.013 543.542 338.831C543.852 338.649 544.123 338.407 544.355 338.106L545.128 338.708C544.508 339.66 543.578 340.137 542.339 340.137ZM542.182 333.506C541.671 333.506 541.243 333.693 540.896 334.066C540.55 334.436 540.336 334.955 540.254 335.625H543.959V335.529C543.923 334.887 543.749 334.39 543.439 334.039C543.13 333.684 542.71 333.506 542.182 333.506ZM549.038 338.284L550.87 332.604H552.162L549.51 340H548.546L545.866 332.604H547.158L549.038 338.284ZM553.338 339.337C553.338 339.118 553.402 338.936 553.529 338.79C553.661 338.644 553.857 338.571 554.117 338.571C554.377 338.571 554.573 338.644 554.705 338.79C554.842 338.936 554.91 339.118 554.91 339.337C554.91 339.547 554.842 339.722 554.705 339.863C554.573 340.005 554.377 340.075 554.117 340.075C553.857 340.075 553.661 340.005 553.529 339.863C553.402 339.722 553.338 339.547 553.338 339.337ZM553.345 333.301C553.345 333.082 553.409 332.9 553.536 332.754C553.668 332.608 553.864 332.535 554.124 332.535C554.384 332.535 554.58 332.608 554.712 332.754C554.849 332.9 554.917 333.082 554.917 333.301C554.917 333.51 554.849 333.686 554.712 333.827C554.58 333.968 554.384 334.039 554.124 334.039C553.864 334.039 553.668 333.968 553.536 333.827C553.409 333.686 553.345 333.51 553.345 333.301ZM561.951 334.408H562.901C563.498 334.399 563.968 334.242 564.31 333.937C564.651 333.631 564.822 333.219 564.822 332.699C564.822 331.533 564.241 330.949 563.079 330.949C562.532 330.949 562.095 331.106 561.767 331.421C561.443 331.731 561.281 332.143 561.281 332.658H560.017C560.017 331.87 560.304 331.216 560.878 330.696C561.457 330.172 562.19 329.91 563.079 329.91C564.018 329.91 564.754 330.159 565.287 330.655C565.82 331.152 566.087 331.842 566.087 332.727C566.087 333.16 565.946 333.579 565.663 333.984C565.385 334.39 565.005 334.693 564.521 334.894C565.068 335.067 565.49 335.354 565.786 335.755C566.087 336.156 566.237 336.646 566.237 337.225C566.237 338.118 565.946 338.826 565.362 339.351C564.779 339.875 564.02 340.137 563.086 340.137C562.152 340.137 561.391 339.884 560.803 339.378C560.219 338.872 559.928 338.204 559.928 337.375H561.199C561.199 337.899 561.37 338.318 561.712 338.633C562.054 338.947 562.512 339.104 563.086 339.104C563.697 339.104 564.164 338.945 564.487 338.626C564.811 338.307 564.973 337.849 564.973 337.252C564.973 336.673 564.795 336.229 564.439 335.919C564.084 335.609 563.571 335.45 562.901 335.44H561.951V334.408Z" fill="#A3A3A3"/>
<path d="M741.088 335.563C739.962 335.24 739.142 334.843 738.627 334.374C738.117 333.9 737.861 333.317 737.861 332.624C737.861 331.84 738.174 331.193 738.798 330.683C739.427 330.168 740.243 329.91 741.245 329.91C741.929 329.91 742.537 330.042 743.07 330.307C743.608 330.571 744.023 330.936 744.314 331.4C744.611 331.865 744.759 332.373 744.759 332.925H743.439C743.439 332.323 743.248 331.852 742.865 331.51C742.482 331.163 741.942 330.99 741.245 330.99C740.598 330.99 740.092 331.134 739.728 331.421C739.368 331.703 739.188 332.098 739.188 332.604C739.188 333.009 739.358 333.353 739.7 333.636C740.047 333.914 740.632 334.169 741.457 334.401C742.286 334.634 742.934 334.891 743.398 335.174C743.868 335.452 744.214 335.778 744.438 336.151C744.665 336.525 744.779 336.965 744.779 337.471C744.779 338.277 744.465 338.924 743.836 339.412C743.207 339.895 742.366 340.137 741.313 340.137C740.63 340.137 739.992 340.007 739.399 339.747C738.807 339.483 738.349 339.123 738.025 338.667C737.706 338.211 737.547 337.694 737.547 337.115H738.866C738.866 337.717 739.087 338.193 739.529 338.544C739.976 338.89 740.571 339.063 741.313 339.063C742.006 339.063 742.537 338.922 742.906 338.64C743.275 338.357 743.46 337.972 743.46 337.484C743.46 336.997 743.289 336.621 742.947 336.356C742.605 336.088 741.986 335.823 741.088 335.563ZM749.339 340.137C748.336 340.137 747.521 339.809 746.892 339.152C746.263 338.492 745.948 337.61 745.948 336.507V336.274C745.948 335.541 746.087 334.887 746.365 334.312C746.648 333.734 747.04 333.283 747.541 332.959C748.047 332.631 748.594 332.467 749.182 332.467C750.143 332.467 750.891 332.784 751.424 333.417C751.957 334.05 752.224 334.957 752.224 336.138V336.664H747.213C747.231 337.393 747.443 337.983 747.849 338.435C748.259 338.881 748.778 339.104 749.407 339.104C749.854 339.104 750.232 339.013 750.542 338.831C750.852 338.649 751.123 338.407 751.355 338.106L752.128 338.708C751.508 339.66 750.578 340.137 749.339 340.137ZM749.182 333.506C748.671 333.506 748.243 333.693 747.896 334.066C747.55 334.436 747.336 334.955 747.254 335.625H750.959V335.529C750.923 334.887 750.749 334.39 750.439 334.039C750.13 333.684 749.71 333.506 749.182 333.506ZM756.038 338.284L757.87 332.604H759.162L756.51 340H755.546L752.866 332.604H754.158L756.038 338.284ZM760.338 339.337C760.338 339.118 760.402 338.936 760.529 338.79C760.661 338.644 760.857 338.571 761.117 338.571C761.377 338.571 761.573 338.644 761.705 338.79C761.842 338.936 761.91 339.118 761.91 339.337C761.91 339.547 761.842 339.722 761.705 339.863C761.573 340.005 761.377 340.075 761.117 340.075C760.857 340.075 760.661 340.005 760.529 339.863C760.402 339.722 760.338 339.547 760.338 339.337ZM760.345 333.301C760.345 333.082 760.409 332.9 760.536 332.754C760.668 332.608 760.864 332.535 761.124 332.535C761.384 332.535 761.58 332.608 761.712 332.754C761.849 332.9 761.917 333.082 761.917 333.301C761.917 333.51 761.849 333.686 761.712 333.827C761.58 333.968 761.384 334.039 761.124 334.039C760.864 334.039 760.668 333.968 760.536 333.827C760.409 333.686 760.345 333.51 760.345 333.301ZM773.634 340H767.112V339.091L770.558 335.263C771.068 334.684 771.419 334.215 771.61 333.854C771.806 333.49 771.904 333.114 771.904 332.727C771.904 332.207 771.747 331.781 771.433 331.448C771.118 331.116 770.699 330.949 770.175 330.949C769.546 330.949 769.056 331.129 768.705 331.489C768.359 331.845 768.186 332.341 768.186 332.979H766.921C766.921 332.063 767.215 331.323 767.803 330.758C768.395 330.193 769.186 329.91 770.175 329.91C771.1 329.91 771.831 330.154 772.369 330.642C772.907 331.125 773.176 331.77 773.176 332.576C773.176 333.556 772.551 334.723 771.303 336.076L768.637 338.968H773.634V340Z" fill="#A3A3A3"/>
<path d="M953.088 335.563C951.962 335.24 951.142 334.843 950.627 334.374C950.117 333.9 949.861 333.317 949.861 332.624C949.861 331.84 950.174 331.193 950.798 330.683C951.427 330.168 952.243 329.91 953.245 329.91C953.929 329.91 954.537 330.042 955.07 330.307C955.608 330.571 956.023 330.936 956.314 331.4C956.611 331.865 956.759 332.373 956.759 332.925H955.439C955.439 332.323 955.248 331.852 954.865 331.51C954.482 331.163 953.942 330.99 953.245 330.99C952.598 330.99 952.092 331.134 951.728 331.421C951.368 331.703 951.188 332.098 951.188 332.604C951.188 333.009 951.358 333.353 951.7 333.636C952.047 333.914 952.632 334.169 953.457 334.401C954.286 334.634 954.934 334.891 955.398 335.174C955.868 335.452 956.214 335.778 956.438 336.151C956.665 336.525 956.779 336.965 956.779 337.471C956.779 338.277 956.465 338.924 955.836 339.412C955.207 339.895 954.366 340.137 953.313 340.137C952.63 340.137 951.992 340.007 951.399 339.747C950.807 339.483 950.349 339.123 950.025 338.667C949.706 338.211 949.547 337.694 949.547 337.115H950.866C950.866 337.717 951.087 338.193 951.529 338.544C951.976 338.89 952.571 339.063 953.313 339.063C954.006 339.063 954.537 338.922 954.906 338.64C955.275 338.357 955.46 337.972 955.46 337.484C955.46 336.997 955.289 336.621 954.947 336.356C954.605 336.088 953.986 335.823 953.088 335.563ZM961.339 340.137C960.336 340.137 959.521 339.809 958.892 339.152C958.263 338.492 957.948 337.61 957.948 336.507V336.274C957.948 335.541 958.087 334.887 958.365 334.312C958.648 333.734 959.04 333.283 959.541 332.959C960.047 332.631 960.594 332.467 961.182 332.467C962.143 332.467 962.891 332.784 963.424 333.417C963.957 334.05 964.224 334.957 964.224 336.138V336.664H959.213C959.231 337.393 959.443 337.983 959.849 338.435C960.259 338.881 960.778 339.104 961.407 339.104C961.854 339.104 962.232 339.013 962.542 338.831C962.852 338.649 963.123 338.407 963.355 338.106L964.128 338.708C963.508 339.66 962.578 340.137 961.339 340.137ZM961.182 333.506C960.671 333.506 960.243 333.693 959.896 334.066C959.55 334.436 959.336 334.955 959.254 335.625H962.959V335.529C962.923 334.887 962.749 334.39 962.439 334.039C962.13 333.684 961.71 333.506 961.182 333.506ZM968.038 338.284L969.87 332.604H971.162L968.51 340H967.546L964.866 332.604H966.158L968.038 338.284ZM972.338 339.337C972.338 339.118 972.402 338.936 972.529 338.79C972.661 338.644 972.857 338.571 973.117 338.571C973.377 338.571 973.573 338.644 973.705 338.79C973.842 338.936 973.91 339.118 973.91 339.337C973.91 339.547 973.842 339.722 973.705 339.863C973.573 340.005 973.377 340.075 973.117 340.075C972.857 340.075 972.661 340.005 972.529 339.863C972.402 339.722 972.338 339.547 972.338 339.337ZM972.345 333.301C972.345 333.082 972.409 332.9 972.536 332.754C972.668 332.608 972.864 332.535 973.124 332.535C973.384 332.535 973.58 332.608 973.712 332.754C973.849 332.9 973.917 333.082 973.917 333.301C973.917 333.51 973.849 333.686 973.712 333.827C973.58 333.968 973.384 334.039 973.124 334.039C972.864 334.039 972.668 333.968 972.536 333.827C972.409 333.686 972.345 333.51 972.345 333.301ZM983.269 340H981.997V331.571L979.447 332.508V331.359L983.07 329.999H983.269V340Z" fill="#A3A3A3"/>
<path d="M48.5 315.5L1100 315.5" stroke="#A4A4A4"/>
<path d="M48.5 257L1100 257" stroke="#A4A4A4"/>
<path d="M48.5 195L1100 195" stroke="#A4A4A4"/>
<path d="M48.5 133L1100 133" stroke="#A4A4A4"/>
<path d="M48.5 71L1100 71" stroke="#A4A4A4"/>
<path d="M101 169C101 166.239 103.239 164 106 164H154C156.761 164 159 166.239 159 169V315H101V169Z" fill="url(#paint0_linear)"/>
<path d="M310 119C310 116.239 312.239 114 315 114H363C365.761 114 368 116.239 368 119V315H310V119Z" fill="url(#paint1_linear)"/>
<path d="M519 151C519 148.239 521.239 146 524 146H572C574.761 146 577 148.239 577 151V315H519V151Z" fill="url(#paint2_linear)"/>
<path d="M728 290C728 287.239 730.239 285 733 285H781C783.761 285 786 287.239 786 290V315H728V290Z" fill="url(#paint3_linear)"/>
<path d="M937 151C937 148.239 939.239 146 942 146H990C992.761 146 995 148.239 995 151V315H937V151Z" fill="url(#paint4_linear)"/>
<path d="M4.56641 8.53223L6.82227 1.04688H9.10547L5.63965 11H3.5L0.0478516 1.04688H2.32422L4.56641 8.53223ZM14.1572 10.248C13.6696 10.8405 12.9951 11.1367 12.1338 11.1367C11.3408 11.1367 10.7347 10.9089 10.3154 10.4531C9.90072 9.9974 9.6888 9.32975 9.67969 8.4502V3.60352H11.6553V8.38184C11.6553 9.15202 12.0062 9.53711 12.708 9.53711C13.3779 9.53711 13.8382 9.30469 14.0889 8.83984V3.60352H16.0713V11H14.2119L14.1572 10.248ZM19.6465 11H17.6641V0.5H19.6465V11ZM23.0986 3.60352L23.1602 4.45801C23.6888 3.7972 24.3975 3.4668 25.2861 3.4668C26.07 3.4668 26.6533 3.69694 27.0361 4.15723C27.4189 4.61751 27.6149 5.30566 27.624 6.22168V11H25.6484V6.26953C25.6484 5.85026 25.5573 5.5472 25.375 5.36035C25.1927 5.16895 24.8896 5.07324 24.4658 5.07324C23.9098 5.07324 23.4928 5.31022 23.2148 5.78418V11H21.2393V3.60352H23.0986ZM32.5322 11.1367C31.4476 11.1367 30.5635 10.804 29.8799 10.1387C29.2008 9.47331 28.8613 8.58691 28.8613 7.47949V7.28809C28.8613 6.54525 29.0049 5.88216 29.292 5.29883C29.5791 4.71094 29.9847 4.25977 30.5088 3.94531C31.0374 3.6263 31.639 3.4668 32.3135 3.4668C33.3252 3.4668 34.1204 3.78581 34.6992 4.42383C35.2826 5.06185 35.5742 5.96647 35.5742 7.1377V7.94434H30.8643C30.9281 8.42741 31.1195 8.81478 31.4385 9.10645C31.762 9.39811 32.1699 9.54395 32.6621 9.54395C33.4232 9.54395 34.0179 9.26823 34.4463 8.7168L35.417 9.80371C35.1208 10.223 34.7197 10.5511 34.2139 10.7881C33.708 11.0205 33.1475 11.1367 32.5322 11.1367ZM32.3066 5.06641C31.9147 5.06641 31.5957 5.19857 31.3496 5.46289C31.1081 5.72721 30.9531 6.10547 30.8848 6.59766H33.6328V6.44043C33.6237 6.00293 33.5052 5.66569 33.2773 5.42871C33.0495 5.18717 32.7259 5.06641 32.3066 5.06641ZM40.8584 5.45605C40.5895 5.4196 40.3525 5.40137 40.1475 5.40137C39.4001 5.40137 38.9102 5.6543 38.6777 6.16016V11H36.7021V3.60352H38.5684L38.623 4.48535C39.0195 3.80632 39.5687 3.4668 40.2705 3.4668C40.4893 3.4668 40.6943 3.49642 40.8857 3.55566L40.8584 5.45605ZM45.8965 11C45.8053 10.8223 45.7393 10.6012 45.6982 10.3369C45.2197 10.8701 44.5977 11.1367 43.832 11.1367C43.1074 11.1367 42.5059 10.9271 42.0273 10.5078C41.5534 10.0885 41.3164 9.5599 41.3164 8.92188C41.3164 8.13802 41.6058 7.53646 42.1846 7.11719C42.7679 6.69792 43.6087 6.486 44.707 6.48145H45.6162V6.05762C45.6162 5.71582 45.5273 5.44238 45.3496 5.2373C45.1764 5.03223 44.9007 4.92969 44.5225 4.92969C44.1898 4.92969 43.9277 5.00944 43.7363 5.16895C43.5495 5.32845 43.4561 5.5472 43.4561 5.8252H41.4805C41.4805 5.39681 41.6126 5.00033 41.877 4.63574C42.1413 4.27116 42.515 3.98633 42.998 3.78125C43.4811 3.57161 44.0234 3.4668 44.625 3.4668C45.5365 3.4668 46.2588 3.69694 46.792 4.15723C47.3298 4.61296 47.5986 5.25553 47.5986 6.08496V9.29102C47.6032 9.99284 47.7012 10.5238 47.8926 10.8838V11H45.8965ZM44.2627 9.62598C44.5544 9.62598 44.8232 9.56217 45.0693 9.43457C45.3154 9.30241 45.4977 9.12695 45.6162 8.9082V7.63672H44.8779C43.889 7.63672 43.3626 7.97852 43.2988 8.66211L43.292 8.77832C43.292 9.02441 43.3786 9.22721 43.5518 9.38672C43.7249 9.54622 43.9619 9.62598 44.2627 9.62598ZM55.7812 7.37012C55.7812 8.55501 55.5283 9.48014 55.0225 10.1455C54.5166 10.8063 53.8102 11.1367 52.9033 11.1367C52.1012 11.1367 51.4609 10.8291 50.9824 10.2139L50.8936 11H49.1162V0.5H51.0918V4.2666C51.5475 3.7334 52.1468 3.4668 52.8896 3.4668C53.792 3.4668 54.4984 3.79948 55.0088 4.46484C55.5238 5.12565 55.7812 6.05762 55.7812 7.26074V7.37012ZM53.8057 7.22656C53.8057 6.47917 53.6872 5.93457 53.4502 5.59277C53.2132 5.24642 52.86 5.07324 52.3906 5.07324C51.7617 5.07324 51.3288 5.33073 51.0918 5.8457V8.76465C51.3333 9.28418 51.7708 9.54395 52.4043 9.54395C53.0423 9.54395 53.4616 9.22949 53.6621 8.60059C53.7578 8.2998 53.8057 7.8418 53.8057 7.22656ZM59.0898 11H57.1074V3.60352H59.0898V11ZM56.9912 1.68945C56.9912 1.39323 57.0892 1.14941 57.2852 0.958008C57.4857 0.766602 57.7568 0.670898 58.0986 0.670898C58.4359 0.670898 58.7048 0.766602 58.9053 0.958008C59.1058 1.14941 59.2061 1.39323 59.2061 1.68945C59.2061 1.99023 59.1035 2.23633 58.8984 2.42773C58.6979 2.61914 58.4313 2.71484 58.0986 2.71484C57.766 2.71484 57.4971 2.61914 57.292 2.42773C57.0915 2.23633 56.9912 1.99023 56.9912 1.68945ZM62.8086 11H60.8262V0.5H62.8086V11ZM66.5273 11H64.5449V3.60352H66.5273V11ZM64.4287 1.68945C64.4287 1.39323 64.5267 1.14941 64.7227 0.958008C64.9232 0.766602 65.1943 0.670898 65.5361 0.670898C65.8734 0.670898 66.1423 0.766602 66.3428 0.958008C66.5433 1.14941 66.6436 1.39323 66.6436 1.68945C66.6436 1.99023 66.541 2.23633 66.3359 2.42773C66.1354 2.61914 65.8688 2.71484 65.5361 2.71484C65.2035 2.71484 64.9346 2.61914 64.7295 2.42773C64.529 2.23633 64.4287 1.99023 64.4287 1.68945ZM70.5264 1.78516V3.60352H71.791V5.05273H70.5264V8.74414C70.5264 9.01758 70.5788 9.21354 70.6836 9.33203C70.7884 9.45052 70.9889 9.50977 71.2852 9.50977C71.5039 9.50977 71.6976 9.49382 71.8662 9.46191V10.959C71.4788 11.0775 71.0801 11.1367 70.6699 11.1367C69.2845 11.1367 68.5781 10.4372 68.5508 9.03809V5.05273H67.4707V3.60352H68.5508V1.78516H70.5264ZM74.9766 11H72.9941V3.60352H74.9766V11ZM72.8779 1.68945C72.8779 1.39323 72.9759 1.14941 73.1719 0.958008C73.3724 0.766602 73.6436 0.670898 73.9854 0.670898C74.3226 0.670898 74.5915 0.766602 74.792 0.958008C74.9925 1.14941 75.0928 1.39323 75.0928 1.68945C75.0928 1.99023 74.9902 2.23633 74.7852 2.42773C74.5846 2.61914 74.318 2.71484 73.9854 2.71484C73.6527 2.71484 73.3838 2.61914 73.1787 2.42773C72.9782 2.23633 72.8779 1.99023 72.8779 1.68945ZM80.0146 11.1367C78.93 11.1367 78.0459 10.804 77.3623 10.1387C76.6833 9.47331 76.3438 8.58691 76.3438 7.47949V7.28809C76.3438 6.54525 76.4873 5.88216 76.7744 5.29883C77.0615 4.71094 77.4671 4.25977 77.9912 3.94531C78.5199 3.6263 79.1214 3.4668 79.7959 3.4668C80.8076 3.4668 81.6029 3.78581 82.1816 4.42383C82.765 5.06185 83.0566 5.96647 83.0566 7.1377V7.94434H78.3467C78.4105 8.42741 78.6019 8.81478 78.9209 9.10645C79.2445 9.39811 79.6523 9.54395 80.1445 9.54395C80.9056 9.54395 81.5003 9.26823 81.9287 8.7168L82.8994 9.80371C82.6032 10.223 82.2021 10.5511 81.6963 10.7881C81.1904 11.0205 80.6299 11.1367 80.0146 11.1367ZM79.7891 5.06641C79.3971 5.06641 79.0781 5.19857 78.832 5.46289C78.5905 5.72721 78.4355 6.10547 78.3672 6.59766H81.1152V6.44043C81.1061 6.00293 80.9876 5.66569 80.7598 5.42871C80.5319 5.18717 80.2083 5.06641 79.7891 5.06641ZM88.1904 8.95605C88.1904 8.71452 88.0697 8.52539 87.8281 8.38867C87.5911 8.2474 87.2083 8.12207 86.6797 8.0127C84.9206 7.64355 84.041 6.89616 84.041 5.77051C84.041 5.11426 84.3122 4.56738 84.8545 4.12988C85.4014 3.68783 86.1146 3.4668 86.9941 3.4668C87.9329 3.4668 88.6826 3.68783 89.2432 4.12988C89.8083 4.57194 90.0908 5.14616 90.0908 5.85254H88.1152C88.1152 5.56999 88.0241 5.33757 87.8418 5.15527C87.6595 4.96842 87.3747 4.875 86.9873 4.875C86.6546 4.875 86.3971 4.9502 86.2148 5.10059C86.0326 5.25098 85.9414 5.44238 85.9414 5.6748C85.9414 5.89355 86.0439 6.07129 86.249 6.20801C86.4587 6.34017 86.8096 6.45638 87.3018 6.55664C87.7939 6.65234 88.2087 6.76172 88.5459 6.88477C89.5895 7.26758 90.1113 7.93066 90.1113 8.87402C90.1113 9.5485 89.8219 10.0954 89.2432 10.5146C88.6644 10.9294 87.917 11.1367 87.001 11.1367C86.3812 11.1367 85.8298 11.0273 85.3467 10.8086C84.8682 10.5853 84.4922 10.2822 84.2188 9.89941C83.9453 9.51204 83.8086 9.09505 83.8086 8.64844H85.6816C85.6999 8.99935 85.8298 9.26823 86.0713 9.45508C86.3128 9.64193 86.6364 9.73535 87.042 9.73535C87.4202 9.73535 87.7051 9.66471 87.8965 9.52344C88.0924 9.3776 88.1904 9.18848 88.1904 8.95605ZM101.541 7.37012C101.541 8.55501 101.288 9.48014 100.782 10.1455C100.276 10.8063 99.57 11.1367 98.6631 11.1367C97.861 11.1367 97.2207 10.8291 96.7422 10.2139L96.6533 11H94.876V0.5H96.8516V4.2666C97.3073 3.7334 97.9066 3.4668 98.6494 3.4668C99.5518 3.4668 100.258 3.79948 100.769 4.46484C101.284 5.12565 101.541 6.05762 101.541 7.26074V7.37012ZM99.5654 7.22656C99.5654 6.47917 99.4469 5.93457 99.21 5.59277C98.973 5.24642 98.6198 5.07324 98.1504 5.07324C97.5215 5.07324 97.0885 5.33073 96.8516 5.8457V8.76465C97.0931 9.28418 97.5306 9.54395 98.1641 9.54395C98.8021 9.54395 99.2214 9.22949 99.4219 8.60059C99.5176 8.2998 99.5654 7.8418 99.5654 7.22656ZM105.444 8.2041L106.812 3.60352H108.931L105.957 12.1484L105.793 12.5381C105.351 13.5042 104.622 13.9873 103.605 13.9873C103.318 13.9873 103.027 13.944 102.73 13.8574V12.3604L103.031 12.3672C103.405 12.3672 103.683 12.3102 103.865 12.1963C104.052 12.0824 104.198 11.8932 104.303 11.6289L104.535 11.0205L101.944 3.60352H104.07L105.444 8.2041ZM117.202 8.95605C117.202 8.71452 117.081 8.52539 116.84 8.38867C116.603 8.2474 116.22 8.12207 115.691 8.0127C113.932 7.64355 113.053 6.89616 113.053 5.77051C113.053 5.11426 113.324 4.56738 113.866 4.12988C114.413 3.68783 115.126 3.4668 116.006 3.4668C116.945 3.4668 117.694 3.68783 118.255 4.12988C118.82 4.57194 119.103 5.14616 119.103 5.85254H117.127C117.127 5.56999 117.036 5.33757 116.854 5.15527C116.671 4.96842 116.386 4.875 115.999 4.875C115.666 4.875 115.409 4.9502 115.227 5.10059C115.044 5.25098 114.953 5.44238 114.953 5.6748C114.953 5.89355 115.056 6.07129 115.261 6.20801C115.47 6.34017 115.821 6.45638 116.313 6.55664C116.806 6.65234 117.22 6.76172 117.558 6.88477C118.601 7.26758 119.123 7.93066 119.123 8.87402C119.123 9.5485 118.834 10.0954 118.255 10.5146C117.676 10.9294 116.929 11.1367 116.013 11.1367C115.393 11.1367 114.841 11.0273 114.358 10.8086C113.88 10.5853 113.504 10.2822 113.23 9.89941C112.957 9.51204 112.82 9.09505 112.82 8.64844H114.693C114.712 8.99935 114.841 9.26823 115.083 9.45508C115.325 9.64193 115.648 9.73535 116.054 9.73535C116.432 9.73535 116.717 9.66471 116.908 9.52344C117.104 9.3776 117.202 9.18848 117.202 8.95605ZM123.806 11.1367C122.721 11.1367 121.837 10.804 121.153 10.1387C120.474 9.47331 120.135 8.58691 120.135 7.47949V7.28809C120.135 6.54525 120.278 5.88216 120.565 5.29883C120.853 4.71094 121.258 4.25977 121.782 3.94531C122.311 3.6263 122.912 3.4668 123.587 3.4668C124.599 3.4668 125.394 3.78581 125.973 4.42383C126.556 5.06185 126.848 5.96647 126.848 7.1377V7.94434H122.138C122.201 8.42741 122.393 8.81478 122.712 9.10645C123.035 9.39811 123.443 9.54395 123.936 9.54395C124.697 9.54395 125.291 9.26823 125.72 8.7168L126.69 9.80371C126.394 10.223 125.993 10.5511 125.487 10.7881C124.981 11.0205 124.421 11.1367 123.806 11.1367ZM123.58 5.06641C123.188 5.06641 122.869 5.19857 122.623 5.46289C122.382 5.72721 122.227 6.10547 122.158 6.59766H124.906V6.44043C124.897 6.00293 124.779 5.66569 124.551 5.42871C124.323 5.18717 123.999 5.06641 123.58 5.06641ZM130.648 8.58691L132.022 3.60352H134.087L131.592 11H129.705L127.21 3.60352H129.274L130.648 8.58691ZM138.271 11.1367C137.186 11.1367 136.302 10.804 135.618 10.1387C134.939 9.47331 134.6 8.58691 134.6 7.47949V7.28809C134.6 6.54525 134.743 5.88216 135.03 5.29883C135.317 4.71094 135.723 4.25977 136.247 3.94531C136.776 3.6263 137.377 3.4668 138.052 3.4668C139.063 3.4668 139.859 3.78581 140.438 4.42383C141.021 5.06185 141.312 5.96647 141.312 7.1377V7.94434H136.603C136.666 8.42741 136.858 8.81478 137.177 9.10645C137.5 9.39811 137.908 9.54395 138.4 9.54395C139.161 9.54395 139.756 9.26823 140.185 8.7168L141.155 9.80371C140.859 10.223 140.458 10.5511 139.952 10.7881C139.446 11.0205 138.886 11.1367 138.271 11.1367ZM138.045 5.06641C137.653 5.06641 137.334 5.19857 137.088 5.46289C136.846 5.72721 136.691 6.10547 136.623 6.59766H139.371V6.44043C139.362 6.00293 139.243 5.66569 139.016 5.42871C138.788 5.18717 138.464 5.06641 138.045 5.06641ZM146.597 5.45605C146.328 5.4196 146.091 5.40137 145.886 5.40137C145.138 5.40137 144.648 5.6543 144.416 6.16016V11H142.44V3.60352H144.307L144.361 4.48535C144.758 3.80632 145.307 3.4668 146.009 3.4668C146.228 3.4668 146.433 3.49642 146.624 3.55566L146.597 5.45605ZM149.639 11H147.656V3.60352H149.639V11ZM147.54 1.68945C147.54 1.39323 147.638 1.14941 147.834 0.958008C148.035 0.766602 148.306 0.670898 148.647 0.670898C148.985 0.670898 149.254 0.766602 149.454 0.958008C149.655 1.14941 149.755 1.39323 149.755 1.68945C149.755 1.99023 149.652 2.23633 149.447 2.42773C149.247 2.61914 148.98 2.71484 148.647 2.71484C148.315 2.71484 148.046 2.61914 147.841 2.42773C147.64 2.23633 147.54 1.99023 147.54 1.68945ZM153.638 1.78516V3.60352H154.902V5.05273H153.638V8.74414C153.638 9.01758 153.69 9.21354 153.795 9.33203C153.9 9.45052 154.1 9.50977 154.396 9.50977C154.615 9.50977 154.809 9.49382 154.978 9.46191V10.959C154.59 11.0775 154.191 11.1367 153.781 11.1367C152.396 11.1367 151.689 10.4372 151.662 9.03809V5.05273H150.582V3.60352H151.662V1.78516H153.638ZM158.765 8.2041L160.132 3.60352H162.251L159.277 12.1484L159.113 12.5381C158.671 13.5042 157.942 13.9873 156.926 13.9873C156.639 13.9873 156.347 13.944 156.051 13.8574V12.3604L156.352 12.3672C156.725 12.3672 157.003 12.3102 157.186 12.1963C157.372 12.0824 157.518 11.8932 157.623 11.6289L157.855 11.0205L155.265 3.60352H157.391L158.765 8.2041Z" fill="black"/>
<defs>
<linearGradient id="paint0_linear" x1="130" y1="164" x2="130" y2="315" gradientUnits="userSpaceOnUse">
<stop stop-color="#4B4CFF"/>
<stop offset="1" stop-color="#8D8BFF"/>
</linearGradient>
<linearGradient id="paint1_linear" x1="339" y1="114" x2="339" y2="315" gradientUnits="userSpaceOnUse">
<stop stop-color="#4B4CFF"/>
<stop offset="1" stop-color="#8D8BFF"/>
</linearGradient>
<linearGradient id="paint2_linear" x1="548" y1="146" x2="548" y2="315" gradientUnits="userSpaceOnUse">
<stop stop-color="#4B4CFF"/>
<stop offset="1" stop-color="#8D8BFF"/>
</linearGradient>
<linearGradient id="paint3_linear" x1="757" y1="285" x2="757" y2="315" gradientUnits="userSpaceOnUse">
<stop stop-color="#4B4CFF"/>
<stop offset="1" stop-color="#8D8BFF"/>
</linearGradient>
<linearGradient id="paint4_linear" x1="966" y1="146" x2="966" y2="315" gradientUnits="userSpaceOnUse">
<stop stop-color="#4B4CFF"/>
<stop offset="1" stop-color="#8D8BFF"/>
</linearGradient>
</defs>
</svg>
