<svg width="317" height="221" viewBox="0 0 317 221" fill="none" xmlns="http://www.w3.org/2000/svg">
<path opacity="0.1" d="M0 0.166016H4.79903C9.59805 0.166016 19.1521 0.166016 28.8382 9.25381C38.4142 18.3416 47.9903 36.5172 57.6764 54.6928C67.2524 72.8683 76.8285 91.0439 86.5146 103.142C96.0686 115.467 105.667 121.147 115.353 109.22C124.885 97.2918 134.505 66.6205 144.191 45.605C153.701 24.5895 163.343 12.0937 172.809 15.3313C182.517 18.3416 192.181 36.5172 201.647 48.6153C211.333 60.9406 221.019 66.6205 230.485 69.858C240.149 72.8683 249.858 72.8683 259.324 72.8683C268.966 72.8683 278.476 72.8683 288.162 78.9458C297.782 84.7961 307.314 97.2918 312.157 103.142L317 109.22V220.999H312.201C307.402 220.999 297.848 220.999 288.162 220.999C278.586 220.999 269.01 220.999 259.324 220.999C249.748 220.999 240.171 220.999 230.485 220.999C220.931 220.999 211.333 220.999 201.647 220.999C192.115 220.999 182.495 220.999 172.809 220.999C163.299 220.999 153.657 220.999 144.191 220.999C134.483 220.999 124.819 220.999 115.353 220.999C105.667 220.999 95.9805 220.999 86.5146 220.999C76.8505 220.999 67.1423 220.999 57.6764 220.999C48.0343 220.999 38.5243 220.999 28.8382 220.999C19.2181 220.999 9.68611 220.999 4.84305 220.999H0V0.166016Z" fill="white"/>
</svg>
