<svg width="521" height="385" viewBox="0 0 521 385" fill="none" xmlns="http://www.w3.org/2000/svg">
<rect x="31" width="490" height="364" rx="15" fill="white"/>
<line x1="31" y1="339.5" x2="521" y2="339.5" stroke="#E1E4E8" stroke-dasharray="7 7"/>
<line x1="31" y1="276.5" x2="521" y2="276.5" stroke="#E1E4E8" stroke-dasharray="7 7"/>
<line x1="31" y1="213.5" x2="521" y2="213.5" stroke="#E1E4E8" stroke-dasharray="7 7"/>
<line x1="31" y1="150.5" x2="521" y2="150.5" stroke="#E1E4E8" stroke-dasharray="7 7"/>
<line x1="31" y1="87.5" x2="521" y2="87.5" stroke="#E1E4E8" stroke-dasharray="7 7"/>
<line x1="31" y1="24.5" x2="521" y2="24.5" stroke="#E1E4E8" stroke-dasharray="7 7"/>
<line x1="44.5" y1="-2.18557e-08" x2="44.5" y2="364" stroke="#E1E4E8" stroke-dasharray="7 7"/>
<line x1="102.5" y1="-2.18557e-08" x2="102.5" y2="364" stroke="#E1E4E8" stroke-dasharray="7 7"/>
<line x1="160.5" y1="-2.18557e-08" x2="160.5" y2="364" stroke="#E1E4E8" stroke-dasharray="7 7"/>
<line x1="218.5" y1="-2.18557e-08" x2="218.5" y2="364" stroke="#E1E4E8" stroke-dasharray="7 7"/>
<line x1="276.5" y1="-2.18557e-08" x2="276.5" y2="364" stroke="#E1E4E8" stroke-dasharray="7 7"/>
<line x1="334.5" y1="-2.18557e-08" x2="334.5" y2="364" stroke="#E1E4E8" stroke-dasharray="7 7"/>
<line x1="392.5" y1="-2.18557e-08" x2="392.5" y2="364" stroke="#E1E4E8" stroke-dasharray="7 7"/>
<line x1="450.5" y1="-2.18557e-08" x2="450.5" y2="364" stroke="#E1E4E8" stroke-dasharray="7 7"/>
<line x1="508.5" y1="-2.18557e-08" x2="508.5" y2="364" stroke="#E1E4E8" stroke-dasharray="7 7"/>
<path d="M44.0056 382.144C43.2296 382.144 42.6256 381.8 42.1936 381.112C41.7616 380.424 41.5456 379.436 41.5456 378.148C41.5456 376.86 41.7616 375.88 42.1936 375.208C42.6256 374.536 43.2296 374.2 44.0056 374.2C44.7736 374.2 45.3736 374.536 45.8056 375.208C46.2376 375.88 46.4536 376.86 46.4536 378.148C46.4536 379.436 46.2376 380.424 45.8056 381.112C45.3736 381.8 44.7736 382.144 44.0056 382.144ZM44.0056 381.352C44.2296 381.352 44.4296 381.292 44.6056 381.172C44.7896 381.044 44.9456 380.852 45.0736 380.596C45.2096 380.332 45.3136 380 45.3856 379.6C45.4576 379.192 45.4936 378.708 45.4936 378.148C45.4936 377.588 45.4576 377.108 45.3856 376.708C45.3136 376.308 45.2096 375.984 45.0736 375.736C44.9456 375.48 44.7896 375.292 44.6056 375.172C44.4296 375.052 44.2296 374.992 44.0056 374.992C43.7816 374.992 43.5776 375.052 43.3936 375.172C43.2096 375.292 43.0496 375.48 42.9136 375.736C42.7856 375.984 42.6856 376.308 42.6136 376.708C42.5416 377.108 42.5056 377.588 42.5056 378.148C42.5056 379.268 42.6416 380.084 42.9136 380.596C43.1936 381.1 43.5576 381.352 44.0056 381.352Z" fill="#7D7E8E"/>
<path d="M102.234 382.144C101.858 382.144 101.51 382.068 101.19 381.916C100.87 381.764 100.59 381.536 100.35 381.232C100.118 380.92 99.9336 380.536 99.7976 380.08C99.6616 379.616 99.5936 379.076 99.5936 378.46C99.5936 377.692 99.6736 377.04 99.8336 376.504C99.9936 375.96 100.21 375.52 100.482 375.184C100.754 374.84 101.062 374.592 101.406 374.44C101.758 374.28 102.126 374.2 102.51 374.2C102.926 374.2 103.282 374.28 103.578 374.44C103.882 374.592 104.142 374.784 104.358 375.016L103.806 375.628C103.646 375.444 103.454 375.3 103.23 375.196C103.014 375.084 102.786 375.028 102.546 375.028C102.282 375.028 102.03 375.084 101.79 375.196C101.55 375.308 101.338 375.492 101.154 375.748C100.97 376.004 100.822 376.34 100.71 376.756C100.598 377.164 100.538 377.672 100.53 378.28C100.77 377.984 101.05 377.752 101.37 377.584C101.69 377.408 102.006 377.32 102.318 377.32C102.982 377.32 103.51 377.516 103.902 377.908C104.302 378.3 104.502 378.892 104.502 379.684C104.502 380.052 104.442 380.388 104.322 380.692C104.202 380.988 104.038 381.244 103.83 381.46C103.622 381.676 103.382 381.844 103.11 381.964C102.838 382.084 102.546 382.144 102.234 382.144ZM102.234 381.364C102.426 381.364 102.602 381.324 102.762 381.244C102.922 381.164 103.062 381.052 103.182 380.908C103.302 380.756 103.394 380.58 103.458 380.38C103.53 380.172 103.566 379.94 103.566 379.684C103.566 379.18 103.45 378.784 103.218 378.496C102.986 378.208 102.63 378.064 102.15 378.064C101.902 378.064 101.634 378.144 101.346 378.304C101.058 378.456 100.794 378.712 100.554 379.072C100.618 379.824 100.79 380.396 101.07 380.788C101.358 381.172 101.746 381.364 102.234 381.364Z" fill="#7D7E8E"/>
<path d="M154.983 382V381.184H156.735V375.544H155.343V374.908C155.695 374.844 155.999 374.768 156.255 374.68C156.519 374.584 156.755 374.472 156.963 374.344H157.719V381.184H159.303V382H154.983ZM160.48 382V381.412C161.056 380.836 161.568 380.316 162.016 379.852C162.464 379.388 162.84 378.96 163.144 378.568C163.448 378.168 163.68 377.804 163.84 377.476C164 377.14 164.08 376.816 164.08 376.504C164.08 376.064 163.96 375.704 163.72 375.424C163.48 375.144 163.116 375.004 162.628 375.004C162.308 375.004 162.012 375.096 161.74 375.28C161.468 375.456 161.22 375.672 160.996 375.928L160.432 375.364C160.752 375.012 161.092 374.732 161.452 374.524C161.812 374.308 162.244 374.2 162.748 374.2C163.46 374.2 164.02 374.408 164.428 374.824C164.836 375.232 165.04 375.776 165.04 376.456C165.04 376.816 164.96 377.18 164.8 377.548C164.648 377.908 164.432 378.284 164.152 378.676C163.88 379.06 163.552 379.464 163.168 379.888C162.792 380.304 162.376 380.748 161.92 381.22C162.128 381.204 162.344 381.188 162.568 381.172C162.792 381.156 163.004 381.148 163.204 381.148H165.424V382H160.48Z" fill="#7D7E8E"/>
<path d="M212.983 382V381.184H214.735V375.544H213.343V374.908C213.695 374.844 213.999 374.768 214.255 374.68C214.519 374.584 214.755 374.472 214.963 374.344H215.719V381.184H217.303V382H212.983ZM221 382.144C220.64 382.144 220.304 382.092 219.992 381.988C219.688 381.884 219.424 381.74 219.2 381.556C218.984 381.364 218.812 381.14 218.684 380.884C218.556 380.628 218.492 380.348 218.492 380.044C218.492 379.796 218.532 379.568 218.612 379.36C218.7 379.144 218.808 378.952 218.936 378.784C219.072 378.608 219.224 378.456 219.392 378.328C219.568 378.192 219.748 378.076 219.932 377.98V377.932C219.652 377.732 219.404 377.492 219.188 377.212C218.972 376.924 218.864 376.576 218.864 376.168C218.864 375.872 218.92 375.604 219.032 375.364C219.144 375.124 219.296 374.92 219.488 374.752C219.68 374.576 219.908 374.44 220.172 374.344C220.436 374.248 220.724 374.2 221.036 374.2C221.372 374.2 221.672 374.252 221.936 374.356C222.2 374.452 222.424 374.592 222.608 374.776C222.8 374.952 222.944 375.168 223.04 375.424C223.144 375.672 223.196 375.944 223.196 376.24C223.196 376.44 223.16 376.632 223.088 376.816C223.024 377 222.94 377.172 222.836 377.332C222.74 377.492 222.628 377.636 222.5 377.764C222.38 377.892 222.26 378 222.14 378.088V378.136C222.308 378.232 222.472 378.344 222.632 378.472C222.792 378.592 222.932 378.732 223.052 378.892C223.18 379.044 223.28 379.22 223.352 379.42C223.432 379.62 223.472 379.848 223.472 380.104C223.472 380.392 223.412 380.66 223.292 380.908C223.172 381.156 223.004 381.372 222.788 381.556C222.572 381.74 222.312 381.884 222.008 381.988C221.704 382.092 221.368 382.144 221 382.144ZM221.54 377.824C221.796 377.592 221.992 377.348 222.128 377.092C222.272 376.836 222.344 376.568 222.344 376.288C222.344 375.904 222.228 375.584 221.996 375.328C221.764 375.064 221.436 374.932 221.012 374.932C220.652 374.932 220.356 375.044 220.124 375.268C219.892 375.492 219.776 375.792 219.776 376.168C219.776 376.4 219.824 376.6 219.92 376.768C220.016 376.928 220.144 377.072 220.304 377.2C220.472 377.328 220.66 377.444 220.868 377.548C221.084 377.644 221.308 377.736 221.54 377.824ZM221.024 381.412C221.472 381.412 221.832 381.288 222.104 381.04C222.384 380.792 222.524 380.468 222.524 380.068C222.524 379.82 222.468 379.608 222.356 379.432C222.244 379.256 222.092 379.104 221.9 378.976C221.708 378.84 221.484 378.72 221.228 378.616C220.98 378.504 220.72 378.392 220.448 378.28C220.144 378.488 219.888 378.732 219.68 379.012C219.48 379.284 219.38 379.596 219.38 379.948C219.38 380.164 219.42 380.36 219.5 380.536C219.588 380.712 219.704 380.868 219.848 381.004C220 381.132 220.176 381.232 220.376 381.304C220.576 381.376 220.792 381.412 221.024 381.412Z" fill="#7D7E8E"/>
<path d="M270.515 382V381.412C271.091 380.836 271.603 380.316 272.051 379.852C272.499 379.388 272.875 378.96 273.179 378.568C273.483 378.168 273.715 377.804 273.875 377.476C274.035 377.14 274.115 376.816 274.115 376.504C274.115 376.064 273.995 375.704 273.755 375.424C273.515 375.144 273.151 375.004 272.663 375.004C272.343 375.004 272.047 375.096 271.775 375.28C271.503 375.456 271.255 375.672 271.031 375.928L270.467 375.364C270.787 375.012 271.127 374.732 271.487 374.524C271.847 374.308 272.279 374.2 272.783 374.2C273.495 374.2 274.055 374.408 274.463 374.824C274.871 375.232 275.075 375.776 275.075 376.456C275.075 376.816 274.995 377.18 274.835 377.548C274.683 377.908 274.467 378.284 274.187 378.676C273.915 379.06 273.587 379.464 273.203 379.888C272.827 380.304 272.411 380.748 271.955 381.22C272.163 381.204 272.379 381.188 272.603 381.172C272.827 381.156 273.039 381.148 273.239 381.148H275.459V382H270.515ZM279.648 382V379.888H276.204V379.24L279.48 374.344H280.584V379.096H281.628V379.888H280.584V382H279.648ZM277.248 379.096H279.648V376.876C279.648 376.668 279.652 376.424 279.66 376.144C279.676 375.856 279.692 375.608 279.708 375.4H279.66C279.564 375.584 279.464 375.764 279.36 375.94C279.256 376.116 279.148 376.296 279.036 376.48L277.248 379.096Z" fill="#7D7E8E"/>
<path d="M330.867 382.144C330.563 382.144 330.283 382.112 330.027 382.048C329.779 381.992 329.551 381.916 329.343 381.82C329.135 381.716 328.947 381.6 328.779 381.472C328.619 381.344 328.475 381.208 328.347 381.064L328.851 380.416C329.083 380.656 329.351 380.868 329.655 381.052C329.967 381.236 330.351 381.328 330.807 381.328C331.271 381.328 331.651 381.204 331.947 380.956C332.243 380.7 332.391 380.356 332.391 379.924C332.391 379.7 332.347 379.496 332.259 379.312C332.179 379.12 332.043 378.956 331.851 378.82C331.659 378.684 331.407 378.58 331.095 378.508C330.783 378.436 330.399 378.4 329.943 378.4V377.644C330.351 377.644 330.691 377.608 330.963 377.536C331.243 377.464 331.467 377.364 331.635 377.236C331.811 377.108 331.935 376.956 332.007 376.78C332.079 376.604 332.115 376.416 332.115 376.216C332.115 375.84 331.995 375.544 331.755 375.328C331.523 375.112 331.203 375.004 330.795 375.004C330.475 375.004 330.179 375.076 329.907 375.22C329.643 375.364 329.395 375.552 329.163 375.784L328.635 375.16C328.931 374.88 329.255 374.652 329.607 374.476C329.967 374.292 330.375 374.2 330.831 374.2C331.167 374.2 331.475 374.244 331.755 374.332C332.035 374.42 332.275 374.548 332.475 374.716C332.683 374.876 332.843 375.076 332.955 375.316C333.067 375.556 333.123 375.832 333.123 376.144C333.123 376.608 332.995 376.988 332.739 377.284C332.483 377.58 332.147 377.808 331.731 377.968V378.016C331.963 378.072 332.179 378.156 332.379 378.268C332.579 378.372 332.755 378.508 332.907 378.676C333.059 378.836 333.175 379.024 333.255 379.24C333.343 379.456 333.387 379.696 333.387 379.96C333.387 380.296 333.319 380.6 333.183 380.872C333.055 381.144 332.875 381.376 332.643 381.568C332.419 381.752 332.155 381.896 331.851 382C331.547 382.096 331.219 382.144 330.867 382.144ZM336.988 382.144C336.212 382.144 335.608 381.8 335.176 381.112C334.744 380.424 334.528 379.436 334.528 378.148C334.528 376.86 334.744 375.88 335.176 375.208C335.608 374.536 336.212 374.2 336.988 374.2C337.756 374.2 338.356 374.536 338.788 375.208C339.22 375.88 339.436 376.86 339.436 378.148C339.436 379.436 339.22 380.424 338.788 381.112C338.356 381.8 337.756 382.144 336.988 382.144ZM336.988 381.352C337.212 381.352 337.412 381.292 337.588 381.172C337.772 381.044 337.928 380.852 338.056 380.596C338.192 380.332 338.296 380 338.368 379.6C338.44 379.192 338.476 378.708 338.476 378.148C338.476 377.588 338.44 377.108 338.368 376.708C338.296 376.308 338.192 375.984 338.056 375.736C337.928 375.48 337.772 375.292 337.588 375.172C337.412 375.052 337.212 374.992 336.988 374.992C336.764 374.992 336.56 375.052 336.376 375.172C336.192 375.292 336.032 375.48 335.896 375.736C335.768 375.984 335.668 376.308 335.596 376.708C335.524 377.108 335.488 377.588 335.488 378.148C335.488 379.268 335.624 380.084 335.896 380.596C336.176 381.1 336.54 381.352 336.988 381.352Z" fill="#7D7E8E"/>
<path d="M388.867 382.144C388.563 382.144 388.283 382.112 388.027 382.048C387.779 381.992 387.551 381.916 387.343 381.82C387.135 381.716 386.947 381.6 386.779 381.472C386.619 381.344 386.475 381.208 386.347 381.064L386.851 380.416C387.083 380.656 387.351 380.868 387.655 381.052C387.967 381.236 388.351 381.328 388.807 381.328C389.271 381.328 389.651 381.204 389.947 380.956C390.243 380.7 390.391 380.356 390.391 379.924C390.391 379.7 390.347 379.496 390.259 379.312C390.179 379.12 390.043 378.956 389.851 378.82C389.659 378.684 389.407 378.58 389.095 378.508C388.783 378.436 388.399 378.4 387.943 378.4V377.644C388.351 377.644 388.691 377.608 388.963 377.536C389.243 377.464 389.467 377.364 389.635 377.236C389.811 377.108 389.935 376.956 390.007 376.78C390.079 376.604 390.115 376.416 390.115 376.216C390.115 375.84 389.995 375.544 389.755 375.328C389.523 375.112 389.203 375.004 388.795 375.004C388.475 375.004 388.179 375.076 387.907 375.22C387.643 375.364 387.395 375.552 387.163 375.784L386.635 375.16C386.931 374.88 387.255 374.652 387.607 374.476C387.967 374.292 388.375 374.2 388.831 374.2C389.167 374.2 389.475 374.244 389.755 374.332C390.035 374.42 390.275 374.548 390.475 374.716C390.683 374.876 390.843 375.076 390.955 375.316C391.067 375.556 391.123 375.832 391.123 376.144C391.123 376.608 390.995 376.988 390.739 377.284C390.483 377.58 390.147 377.808 389.731 377.968V378.016C389.963 378.072 390.179 378.156 390.379 378.268C390.579 378.372 390.755 378.508 390.907 378.676C391.059 378.836 391.175 379.024 391.255 379.24C391.343 379.456 391.387 379.696 391.387 379.96C391.387 380.296 391.319 380.6 391.183 380.872C391.055 381.144 390.875 381.376 390.643 381.568C390.419 381.752 390.155 381.896 389.851 382C389.547 382.096 389.219 382.144 388.867 382.144ZM395.216 382.144C394.84 382.144 394.492 382.068 394.172 381.916C393.852 381.764 393.572 381.536 393.332 381.232C393.1 380.92 392.916 380.536 392.78 380.08C392.644 379.616 392.576 379.076 392.576 378.46C392.576 377.692 392.656 377.04 392.816 376.504C392.976 375.96 393.192 375.52 393.464 375.184C393.736 374.84 394.044 374.592 394.388 374.44C394.74 374.28 395.108 374.2 395.492 374.2C395.908 374.2 396.264 374.28 396.56 374.44C396.864 374.592 397.124 374.784 397.34 375.016L396.788 375.628C396.628 375.444 396.436 375.3 396.212 375.196C395.996 375.084 395.768 375.028 395.528 375.028C395.264 375.028 395.012 375.084 394.772 375.196C394.532 375.308 394.32 375.492 394.136 375.748C393.952 376.004 393.804 376.34 393.692 376.756C393.58 377.164 393.52 377.672 393.512 378.28C393.752 377.984 394.032 377.752 394.352 377.584C394.672 377.408 394.988 377.32 395.3 377.32C395.964 377.32 396.492 377.516 396.884 377.908C397.284 378.3 397.484 378.892 397.484 379.684C397.484 380.052 397.424 380.388 397.304 380.692C397.184 380.988 397.02 381.244 396.812 381.46C396.604 381.676 396.364 381.844 396.092 381.964C395.82 382.084 395.528 382.144 395.216 382.144ZM395.216 381.364C395.408 381.364 395.584 381.324 395.744 381.244C395.904 381.164 396.044 381.052 396.164 380.908C396.284 380.756 396.376 380.58 396.44 380.38C396.512 380.172 396.548 379.94 396.548 379.684C396.548 379.18 396.432 378.784 396.2 378.496C395.968 378.208 395.612 378.064 395.132 378.064C394.884 378.064 394.616 378.144 394.328 378.304C394.04 378.456 393.776 378.712 393.536 379.072C393.6 379.824 393.772 380.396 394.052 380.788C394.34 381.172 394.728 381.364 395.216 381.364Z" fill="#7D7E8E"/>
<path d="M447.683 382V379.888H444.239V379.24L447.515 374.344H448.619V379.096H449.663V379.888H448.619V382H447.683ZM445.283 379.096H447.683V376.876C447.683 376.668 447.687 376.424 447.695 376.144C447.711 375.856 447.727 375.608 447.743 375.4H447.695C447.599 375.584 447.499 375.764 447.395 375.94C447.291 376.116 447.183 376.296 447.071 376.48L445.283 379.096ZM450.48 382V381.412C451.056 380.836 451.568 380.316 452.016 379.852C452.464 379.388 452.84 378.96 453.144 378.568C453.448 378.168 453.68 377.804 453.84 377.476C454 377.14 454.08 376.816 454.08 376.504C454.08 376.064 453.96 375.704 453.72 375.424C453.48 375.144 453.116 375.004 452.628 375.004C452.308 375.004 452.012 375.096 451.74 375.28C451.468 375.456 451.22 375.672 450.996 375.928L450.432 375.364C450.752 375.012 451.092 374.732 451.452 374.524C451.812 374.308 452.244 374.2 452.748 374.2C453.46 374.2 454.02 374.408 454.428 374.824C454.836 375.232 455.04 375.776 455.04 376.456C455.04 376.816 454.96 377.18 454.8 377.548C454.648 377.908 454.432 378.284 454.152 378.676C453.88 379.06 453.552 379.464 453.168 379.888C452.792 380.304 452.376 380.748 451.92 381.22C452.128 381.204 452.344 381.188 452.568 381.172C452.792 381.156 453.004 381.148 453.204 381.148H455.424V382H450.48Z" fill="#7D7E8E"/>
<path d="M505.683 382V379.888H502.239V379.24L505.515 374.344H506.619V379.096H507.663V379.888H506.619V382H505.683ZM503.283 379.096H505.683V376.876C505.683 376.668 505.687 376.424 505.695 376.144C505.711 375.856 505.727 375.608 505.743 375.4H505.695C505.599 375.584 505.499 375.764 505.395 375.94C505.291 376.116 505.183 376.296 505.071 376.48L503.283 379.096ZM511 382.144C510.64 382.144 510.304 382.092 509.992 381.988C509.688 381.884 509.424 381.74 509.2 381.556C508.984 381.364 508.812 381.14 508.684 380.884C508.556 380.628 508.492 380.348 508.492 380.044C508.492 379.796 508.532 379.568 508.612 379.36C508.7 379.144 508.808 378.952 508.936 378.784C509.072 378.608 509.224 378.456 509.392 378.328C509.568 378.192 509.748 378.076 509.932 377.98V377.932C509.652 377.732 509.404 377.492 509.188 377.212C508.972 376.924 508.864 376.576 508.864 376.168C508.864 375.872 508.92 375.604 509.032 375.364C509.144 375.124 509.296 374.92 509.488 374.752C509.68 374.576 509.908 374.44 510.172 374.344C510.436 374.248 510.724 374.2 511.036 374.2C511.372 374.2 511.672 374.252 511.936 374.356C512.2 374.452 512.424 374.592 512.608 374.776C512.8 374.952 512.944 375.168 513.04 375.424C513.144 375.672 513.196 375.944 513.196 376.24C513.196 376.44 513.16 376.632 513.088 376.816C513.024 377 512.94 377.172 512.836 377.332C512.74 377.492 512.628 377.636 512.5 377.764C512.38 377.892 512.26 378 512.14 378.088V378.136C512.308 378.232 512.472 378.344 512.632 378.472C512.792 378.592 512.932 378.732 513.052 378.892C513.18 379.044 513.28 379.22 513.352 379.42C513.432 379.62 513.472 379.848 513.472 380.104C513.472 380.392 513.412 380.66 513.292 380.908C513.172 381.156 513.004 381.372 512.788 381.556C512.572 381.74 512.312 381.884 512.008 381.988C511.704 382.092 511.368 382.144 511 382.144ZM511.54 377.824C511.796 377.592 511.992 377.348 512.128 377.092C512.272 376.836 512.344 376.568 512.344 376.288C512.344 375.904 512.228 375.584 511.996 375.328C511.764 375.064 511.436 374.932 511.012 374.932C510.652 374.932 510.356 375.044 510.124 375.268C509.892 375.492 509.776 375.792 509.776 376.168C509.776 376.4 509.824 376.6 509.92 376.768C510.016 376.928 510.144 377.072 510.304 377.2C510.472 377.328 510.66 377.444 510.868 377.548C511.084 377.644 511.308 377.736 511.54 377.824ZM511.024 381.412C511.472 381.412 511.832 381.288 512.104 381.04C512.384 380.792 512.524 380.468 512.524 380.068C512.524 379.82 512.468 379.608 512.356 379.432C512.244 379.256 512.092 379.104 511.9 378.976C511.708 378.84 511.484 378.72 511.228 378.616C510.98 378.504 510.72 378.392 510.448 378.28C510.144 378.488 509.888 378.732 509.68 379.012C509.48 379.284 509.38 379.596 509.38 379.948C509.38 380.164 509.42 380.36 509.5 380.536C509.588 380.712 509.704 380.868 509.848 381.004C510 381.132 510.176 381.232 510.376 381.304C510.576 381.376 510.792 381.412 511.024 381.412Z" fill="#7D7E8E"/>
<path d="M3.10519 344.144C2.32919 344.144 1.72519 343.8 1.29319 343.112C0.861188 342.424 0.645188 341.436 0.645188 340.148C0.645188 338.86 0.861188 337.88 1.29319 337.208C1.72519 336.536 2.32919 336.2 3.10519 336.2C3.87319 336.2 4.47319 336.536 4.90519 337.208C5.33719 337.88 5.55319 338.86 5.55319 340.148C5.55319 341.436 5.33719 342.424 4.90519 343.112C4.47319 343.8 3.87319 344.144 3.10519 344.144ZM3.10519 343.352C3.32919 343.352 3.52919 343.292 3.70519 343.172C3.88919 343.044 4.04519 342.852 4.17319 342.596C4.30919 342.332 4.41319 342 4.48519 341.6C4.55719 341.192 4.59319 340.708 4.59319 340.148C4.59319 339.588 4.55719 339.108 4.48519 338.708C4.41319 338.308 4.30919 337.984 4.17319 337.736C4.04519 337.48 3.88919 337.292 3.70519 337.172C3.52919 337.052 3.32919 336.992 3.10519 336.992C2.88119 336.992 2.67719 337.052 2.49319 337.172C2.30919 337.292 2.14919 337.48 2.01319 337.736C1.88519 337.984 1.78519 338.308 1.71319 338.708C1.64119 339.108 1.60519 339.588 1.60519 340.148C1.60519 341.268 1.74119 342.084 2.01319 342.596C2.29319 343.1 2.65719 343.352 3.10519 343.352ZM7.58203 344.144C7.38203 344.144 7.21003 344.076 7.06603 343.94C6.93003 343.796 6.86203 343.616 6.86203 343.4C6.86203 343.168 6.93003 342.984 7.06603 342.848C7.21003 342.704 7.38203 342.632 7.58203 342.632C7.77403 342.632 7.93803 342.704 8.07403 342.848C8.21803 342.984 8.29003 343.168 8.29003 343.4C8.29003 343.616 8.21803 343.796 8.07403 343.94C7.93803 344.076 7.77403 344.144 7.58203 344.144ZM11.1943 344C11.2263 343.28 11.2903 342.62 11.3863 342.02C11.4823 341.42 11.6143 340.852 11.7823 340.316C11.9583 339.772 12.1783 339.248 12.4423 338.744C12.7143 338.24 13.0383 337.724 13.4143 337.196H9.59831V336.344H14.5303V336.956C14.0743 337.532 13.7023 338.084 13.4143 338.612C13.1343 339.14 12.9103 339.68 12.7423 340.232C12.5743 340.776 12.4503 341.356 12.3703 341.972C12.2983 342.58 12.2463 343.256 12.2143 344H11.1943ZM18.2512 344.144C17.8752 344.144 17.5272 344.068 17.2072 343.916C16.8872 343.764 16.6072 343.536 16.3672 343.232C16.1352 342.92 15.9512 342.536 15.8152 342.08C15.6792 341.616 15.6112 341.076 15.6112 340.46C15.6112 339.692 15.6912 339.04 15.8512 338.504C16.0112 337.96 16.2272 337.52 16.4992 337.184C16.7712 336.84 17.0792 336.592 17.4232 336.44C17.7752 336.28 18.1432 336.2 18.5272 336.2C18.9432 336.2 19.2992 336.28 19.5952 336.44C19.8992 336.592 20.1592 336.784 20.3752 337.016L19.8232 337.628C19.6632 337.444 19.4712 337.3 19.2472 337.196C19.0312 337.084 18.8032 337.028 18.5632 337.028C18.2992 337.028 18.0472 337.084 17.8072 337.196C17.5672 337.308 17.3552 337.492 17.1712 337.748C16.9872 338.004 16.8392 338.34 16.7272 338.756C16.6152 339.164 16.5552 339.672 16.5472 340.28C16.7872 339.984 17.0672 339.752 17.3872 339.584C17.7072 339.408 18.0232 339.32 18.3352 339.32C18.9992 339.32 19.5272 339.516 19.9192 339.908C20.3192 340.3 20.5192 340.892 20.5192 341.684C20.5192 342.052 20.4592 342.388 20.3392 342.692C20.2192 342.988 20.0552 343.244 19.8472 343.46C19.6392 343.676 19.3992 343.844 19.1272 343.964C18.8552 344.084 18.5632 344.144 18.2512 344.144ZM18.2512 343.364C18.4432 343.364 18.6192 343.324 18.7792 343.244C18.9392 343.164 19.0792 343.052 19.1992 342.908C19.3192 342.756 19.4112 342.58 19.4752 342.38C19.5472 342.172 19.5832 341.94 19.5832 341.684C19.5832 341.18 19.4672 340.784 19.2352 340.496C19.0032 340.208 18.6472 340.064 18.1672 340.064C17.9192 340.064 17.6512 340.144 17.3632 340.304C17.0752 340.456 16.8112 340.712 16.5712 341.072C16.6352 341.824 16.8072 342.396 17.0872 342.788C17.3752 343.172 17.7632 343.364 18.2512 343.364Z" fill="#7D7E8E"/>
<path d="M3.10519 281.144C2.32919 281.144 1.72519 280.8 1.29319 280.112C0.861188 279.424 0.645188 278.436 0.645188 277.148C0.645188 275.86 0.861188 274.88 1.29319 274.208C1.72519 273.536 2.32919 273.2 3.10519 273.2C3.87319 273.2 4.47319 273.536 4.90519 274.208C5.33719 274.88 5.55319 275.86 5.55319 277.148C5.55319 278.436 5.33719 279.424 4.90519 280.112C4.47319 280.8 3.87319 281.144 3.10519 281.144ZM3.10519 280.352C3.32919 280.352 3.52919 280.292 3.70519 280.172C3.88919 280.044 4.04519 279.852 4.17319 279.596C4.30919 279.332 4.41319 279 4.48519 278.6C4.55719 278.192 4.59319 277.708 4.59319 277.148C4.59319 276.588 4.55719 276.108 4.48519 275.708C4.41319 275.308 4.30919 274.984 4.17319 274.736C4.04519 274.48 3.88919 274.292 3.70519 274.172C3.52919 274.052 3.32919 273.992 3.10519 273.992C2.88119 273.992 2.67719 274.052 2.49319 274.172C2.30919 274.292 2.14919 274.48 2.01319 274.736C1.88519 274.984 1.78519 275.308 1.71319 275.708C1.64119 276.108 1.60519 276.588 1.60519 277.148C1.60519 278.268 1.74119 279.084 2.01319 279.596C2.29319 280.1 2.65719 280.352 3.10519 280.352ZM7.58203 281.144C7.38203 281.144 7.21003 281.076 7.06603 280.94C6.93003 280.796 6.86203 280.616 6.86203 280.4C6.86203 280.168 6.93003 279.984 7.06603 279.848C7.21003 279.704 7.38203 279.632 7.58203 279.632C7.77403 279.632 7.93803 279.704 8.07403 279.848C8.21803 279.984 8.29003 280.168 8.29003 280.4C8.29003 280.616 8.21803 280.796 8.07403 280.94C7.93803 281.076 7.77403 281.144 7.58203 281.144ZM11.1943 281C11.2263 280.28 11.2903 279.62 11.3863 279.02C11.4823 278.42 11.6143 277.852 11.7823 277.316C11.9583 276.772 12.1783 276.248 12.4423 275.744C12.7143 275.24 13.0383 274.724 13.4143 274.196H9.59831V273.344H14.5303V273.956C14.0743 274.532 13.7023 275.084 13.4143 275.612C13.1343 276.14 12.9103 276.68 12.7423 277.232C12.5743 277.776 12.4503 278.356 12.3703 278.972C12.2983 279.58 12.2463 280.256 12.2143 281H11.1943ZM18.0352 281.144C17.6752 281.144 17.3392 281.092 17.0272 280.988C16.7232 280.884 16.4592 280.74 16.2352 280.556C16.0192 280.364 15.8472 280.14 15.7192 279.884C15.5912 279.628 15.5272 279.348 15.5272 279.044C15.5272 278.796 15.5672 278.568 15.6472 278.36C15.7352 278.144 15.8432 277.952 15.9712 277.784C16.1072 277.608 16.2592 277.456 16.4272 277.328C16.6032 277.192 16.7832 277.076 16.9672 276.98V276.932C16.6872 276.732 16.4392 276.492 16.2232 276.212C16.0072 275.924 15.8992 275.576 15.8992 275.168C15.8992 274.872 15.9552 274.604 16.0672 274.364C16.1792 274.124 16.3312 273.92 16.5232 273.752C16.7152 273.576 16.9432 273.44 17.2072 273.344C17.4712 273.248 17.7592 273.2 18.0712 273.2C18.4072 273.2 18.7072 273.252 18.9712 273.356C19.2352 273.452 19.4592 273.592 19.6432 273.776C19.8352 273.952 19.9792 274.168 20.0752 274.424C20.1792 274.672 20.2312 274.944 20.2312 275.24C20.2312 275.44 20.1952 275.632 20.1232 275.816C20.0592 276 19.9752 276.172 19.8712 276.332C19.7752 276.492 19.6632 276.636 19.5352 276.764C19.4152 276.892 19.2952 277 19.1752 277.088V277.136C19.3432 277.232 19.5072 277.344 19.6672 277.472C19.8272 277.592 19.9672 277.732 20.0872 277.892C20.2152 278.044 20.3152 278.22 20.3872 278.42C20.4672 278.62 20.5072 278.848 20.5072 279.104C20.5072 279.392 20.4472 279.66 20.3272 279.908C20.2072 280.156 20.0392 280.372 19.8232 280.556C19.6072 280.74 19.3472 280.884 19.0432 280.988C18.7392 281.092 18.4032 281.144 18.0352 281.144ZM18.5752 276.824C18.8312 276.592 19.0272 276.348 19.1632 276.092C19.3072 275.836 19.3792 275.568 19.3792 275.288C19.3792 274.904 19.2632 274.584 19.0312 274.328C18.7992 274.064 18.4712 273.932 18.0472 273.932C17.6872 273.932 17.3912 274.044 17.1592 274.268C16.9272 274.492 16.8112 274.792 16.8112 275.168C16.8112 275.4 16.8592 275.6 16.9552 275.768C17.0512 275.928 17.1792 276.072 17.3392 276.2C17.5072 276.328 17.6952 276.444 17.9032 276.548C18.1192 276.644 18.3432 276.736 18.5752 276.824ZM18.0592 280.412C18.5072 280.412 18.8672 280.288 19.1392 280.04C19.4192 279.792 19.5592 279.468 19.5592 279.068C19.5592 278.82 19.5032 278.608 19.3912 278.432C19.2792 278.256 19.1272 278.104 18.9352 277.976C18.7432 277.84 18.5192 277.72 18.2632 277.616C18.0152 277.504 17.7552 277.392 17.4832 277.28C17.1792 277.488 16.9232 277.732 16.7152 278.012C16.5152 278.284 16.4152 278.596 16.4152 278.948C16.4152 279.164 16.4552 279.36 16.5352 279.536C16.6232 279.712 16.7392 279.868 16.8832 280.004C17.0352 280.132 17.2112 280.232 17.4112 280.304C17.6112 280.376 17.8272 280.412 18.0592 280.412Z" fill="#7D7E8E"/>
<path d="M3.10519 218.144C2.32919 218.144 1.72519 217.8 1.29319 217.112C0.861188 216.424 0.645188 215.436 0.645188 214.148C0.645188 212.86 0.861188 211.88 1.29319 211.208C1.72519 210.536 2.32919 210.2 3.10519 210.2C3.87319 210.2 4.47319 210.536 4.90519 211.208C5.33719 211.88 5.55319 212.86 5.55319 214.148C5.55319 215.436 5.33719 216.424 4.90519 217.112C4.47319 217.8 3.87319 218.144 3.10519 218.144ZM3.10519 217.352C3.32919 217.352 3.52919 217.292 3.70519 217.172C3.88919 217.044 4.04519 216.852 4.17319 216.596C4.30919 216.332 4.41319 216 4.48519 215.6C4.55719 215.192 4.59319 214.708 4.59319 214.148C4.59319 213.588 4.55719 213.108 4.48519 212.708C4.41319 212.308 4.30919 211.984 4.17319 211.736C4.04519 211.48 3.88919 211.292 3.70519 211.172C3.52919 211.052 3.32919 210.992 3.10519 210.992C2.88119 210.992 2.67719 211.052 2.49319 211.172C2.30919 211.292 2.14919 211.48 2.01319 211.736C1.88519 211.984 1.78519 212.308 1.71319 212.708C1.64119 213.108 1.60519 213.588 1.60519 214.148C1.60519 215.268 1.74119 216.084 2.01319 216.596C2.29319 217.1 2.65719 217.352 3.10519 217.352ZM7.58203 218.144C7.38203 218.144 7.21003 218.076 7.06603 217.94C6.93003 217.796 6.86203 217.616 6.86203 217.4C6.86203 217.168 6.93003 216.984 7.06603 216.848C7.21003 216.704 7.38203 216.632 7.58203 216.632C7.77403 216.632 7.93803 216.704 8.07403 216.848C8.21803 216.984 8.29003 217.168 8.29003 217.4C8.29003 217.616 8.21803 217.796 8.07403 217.94C7.93803 218.076 7.77403 218.144 7.58203 218.144ZM12.0703 218.144C11.7103 218.144 11.3743 218.092 11.0623 217.988C10.7583 217.884 10.4943 217.74 10.2703 217.556C10.0543 217.364 9.88231 217.14 9.75431 216.884C9.62631 216.628 9.56231 216.348 9.56231 216.044C9.56231 215.796 9.60231 215.568 9.68231 215.36C9.77031 215.144 9.87831 214.952 10.0063 214.784C10.1423 214.608 10.2943 214.456 10.4623 214.328C10.6383 214.192 10.8183 214.076 11.0023 213.98V213.932C10.7223 213.732 10.4743 213.492 10.2583 213.212C10.0423 212.924 9.93431 212.576 9.93431 212.168C9.93431 211.872 9.99031 211.604 10.1023 211.364C10.2143 211.124 10.3663 210.92 10.5583 210.752C10.7503 210.576 10.9783 210.44 11.2423 210.344C11.5063 210.248 11.7943 210.2 12.1063 210.2C12.4423 210.2 12.7423 210.252 13.0063 210.356C13.2703 210.452 13.4943 210.592 13.6783 210.776C13.8703 210.952 14.0143 211.168 14.1103 211.424C14.2143 211.672 14.2663 211.944 14.2663 212.24C14.2663 212.44 14.2303 212.632 14.1583 212.816C14.0943 213 14.0103 213.172 13.9063 213.332C13.8103 213.492 13.6983 213.636 13.5703 213.764C13.4503 213.892 13.3303 214 13.2103 214.088V214.136C13.3783 214.232 13.5423 214.344 13.7023 214.472C13.8623 214.592 14.0023 214.732 14.1223 214.892C14.2503 215.044 14.3503 215.22 14.4223 215.42C14.5023 215.62 14.5423 215.848 14.5423 216.104C14.5423 216.392 14.4823 216.66 14.3623 216.908C14.2423 217.156 14.0743 217.372 13.8583 217.556C13.6423 217.74 13.3823 217.884 13.0783 217.988C12.7743 218.092 12.4383 218.144 12.0703 218.144ZM12.6103 213.824C12.8663 213.592 13.0623 213.348 13.1983 213.092C13.3423 212.836 13.4143 212.568 13.4143 212.288C13.4143 211.904 13.2983 211.584 13.0663 211.328C12.8343 211.064 12.5063 210.932 12.0823 210.932C11.7223 210.932 11.4263 211.044 11.1943 211.268C10.9623 211.492 10.8463 211.792 10.8463 212.168C10.8463 212.4 10.8943 212.6 10.9903 212.768C11.0863 212.928 11.2143 213.072 11.3743 213.2C11.5423 213.328 11.7303 213.444 11.9383 213.548C12.1543 213.644 12.3783 213.736 12.6103 213.824ZM12.0943 217.412C12.5423 217.412 12.9023 217.288 13.1743 217.04C13.4543 216.792 13.5943 216.468 13.5943 216.068C13.5943 215.82 13.5383 215.608 13.4263 215.432C13.3143 215.256 13.1623 215.104 12.9703 214.976C12.7783 214.84 12.5543 214.72 12.2983 214.616C12.0503 214.504 11.7903 214.392 11.5183 214.28C11.2143 214.488 10.9583 214.732 10.7503 215.012C10.5503 215.284 10.4503 215.596 10.4503 215.948C10.4503 216.164 10.4903 216.36 10.5703 216.536C10.6583 216.712 10.7743 216.868 10.9183 217.004C11.0703 217.132 11.2463 217.232 11.4463 217.304C11.6463 217.376 11.8623 217.412 12.0943 217.412ZM18.0232 218.144C17.2472 218.144 16.6432 217.8 16.2112 217.112C15.7792 216.424 15.5632 215.436 15.5632 214.148C15.5632 212.86 15.7792 211.88 16.2112 211.208C16.6432 210.536 17.2472 210.2 18.0232 210.2C18.7912 210.2 19.3912 210.536 19.8232 211.208C20.2552 211.88 20.4712 212.86 20.4712 214.148C20.4712 215.436 20.2552 216.424 19.8232 217.112C19.3912 217.8 18.7912 218.144 18.0232 218.144ZM18.0232 217.352C18.2472 217.352 18.4472 217.292 18.6232 217.172C18.8072 217.044 18.9632 216.852 19.0912 216.596C19.2272 216.332 19.3312 216 19.4032 215.6C19.4752 215.192 19.5112 214.708 19.5112 214.148C19.5112 213.588 19.4752 213.108 19.4032 212.708C19.3312 212.308 19.2272 211.984 19.0912 211.736C18.9632 211.48 18.8072 211.292 18.6232 211.172C18.4472 211.052 18.2472 210.992 18.0232 210.992C17.7992 210.992 17.5952 211.052 17.4112 211.172C17.2272 211.292 17.0672 211.48 16.9312 211.736C16.8032 211.984 16.7032 212.308 16.6312 212.708C16.5592 213.108 16.5232 213.588 16.5232 214.148C16.5232 215.268 16.6592 216.084 16.9312 216.596C17.2112 217.1 17.5752 217.352 18.0232 217.352Z" fill="#7D7E8E"/>
<path d="M3.10519 155.144C2.32919 155.144 1.72519 154.8 1.29319 154.112C0.861188 153.424 0.645188 152.436 0.645188 151.148C0.645188 149.86 0.861188 148.88 1.29319 148.208C1.72519 147.536 2.32919 147.2 3.10519 147.2C3.87319 147.2 4.47319 147.536 4.90519 148.208C5.33719 148.88 5.55319 149.86 5.55319 151.148C5.55319 152.436 5.33719 153.424 4.90519 154.112C4.47319 154.8 3.87319 155.144 3.10519 155.144ZM3.10519 154.352C3.32919 154.352 3.52919 154.292 3.70519 154.172C3.88919 154.044 4.04519 153.852 4.17319 153.596C4.30919 153.332 4.41319 153 4.48519 152.6C4.55719 152.192 4.59319 151.708 4.59319 151.148C4.59319 150.588 4.55719 150.108 4.48519 149.708C4.41319 149.308 4.30919 148.984 4.17319 148.736C4.04519 148.48 3.88919 148.292 3.70519 148.172C3.52919 148.052 3.32919 147.992 3.10519 147.992C2.88119 147.992 2.67719 148.052 2.49319 148.172C2.30919 148.292 2.14919 148.48 2.01319 148.736C1.88519 148.984 1.78519 149.308 1.71319 149.708C1.64119 150.108 1.60519 150.588 1.60519 151.148C1.60519 152.268 1.74119 153.084 2.01319 153.596C2.29319 154.1 2.65719 154.352 3.10519 154.352ZM7.58203 155.144C7.38203 155.144 7.21003 155.076 7.06603 154.94C6.93003 154.796 6.86203 154.616 6.86203 154.4C6.86203 154.168 6.93003 153.984 7.06603 153.848C7.21003 153.704 7.38203 153.632 7.58203 153.632C7.77403 153.632 7.93803 153.704 8.07403 153.848C8.21803 153.984 8.29003 154.168 8.29003 154.4C8.29003 154.616 8.21803 154.796 8.07403 154.94C7.93803 155.076 7.77403 155.144 7.58203 155.144ZM12.0703 155.144C11.7103 155.144 11.3743 155.092 11.0623 154.988C10.7583 154.884 10.4943 154.74 10.2703 154.556C10.0543 154.364 9.88231 154.14 9.75431 153.884C9.62631 153.628 9.56231 153.348 9.56231 153.044C9.56231 152.796 9.60231 152.568 9.68231 152.36C9.77031 152.144 9.87831 151.952 10.0063 151.784C10.1423 151.608 10.2943 151.456 10.4623 151.328C10.6383 151.192 10.8183 151.076 11.0023 150.98V150.932C10.7223 150.732 10.4743 150.492 10.2583 150.212C10.0423 149.924 9.93431 149.576 9.93431 149.168C9.93431 148.872 9.99031 148.604 10.1023 148.364C10.2143 148.124 10.3663 147.92 10.5583 147.752C10.7503 147.576 10.9783 147.44 11.2423 147.344C11.5063 147.248 11.7943 147.2 12.1063 147.2C12.4423 147.2 12.7423 147.252 13.0063 147.356C13.2703 147.452 13.4943 147.592 13.6783 147.776C13.8703 147.952 14.0143 148.168 14.1103 148.424C14.2143 148.672 14.2663 148.944 14.2663 149.24C14.2663 149.44 14.2303 149.632 14.1583 149.816C14.0943 150 14.0103 150.172 13.9063 150.332C13.8103 150.492 13.6983 150.636 13.5703 150.764C13.4503 150.892 13.3303 151 13.2103 151.088V151.136C13.3783 151.232 13.5423 151.344 13.7023 151.472C13.8623 151.592 14.0023 151.732 14.1223 151.892C14.2503 152.044 14.3503 152.22 14.4223 152.42C14.5023 152.62 14.5423 152.848 14.5423 153.104C14.5423 153.392 14.4823 153.66 14.3623 153.908C14.2423 154.156 14.0743 154.372 13.8583 154.556C13.6423 154.74 13.3823 154.884 13.0783 154.988C12.7743 155.092 12.4383 155.144 12.0703 155.144ZM12.6103 150.824C12.8663 150.592 13.0623 150.348 13.1983 150.092C13.3423 149.836 13.4143 149.568 13.4143 149.288C13.4143 148.904 13.2983 148.584 13.0663 148.328C12.8343 148.064 12.5063 147.932 12.0823 147.932C11.7223 147.932 11.4263 148.044 11.1943 148.268C10.9623 148.492 10.8463 148.792 10.8463 149.168C10.8463 149.4 10.8943 149.6 10.9903 149.768C11.0863 149.928 11.2143 150.072 11.3743 150.2C11.5423 150.328 11.7303 150.444 11.9383 150.548C12.1543 150.644 12.3783 150.736 12.6103 150.824ZM12.0943 154.412C12.5423 154.412 12.9023 154.288 13.1743 154.04C13.4543 153.792 13.5943 153.468 13.5943 153.068C13.5943 152.82 13.5383 152.608 13.4263 152.432C13.3143 152.256 13.1623 152.104 12.9703 151.976C12.7783 151.84 12.5543 151.72 12.2983 151.616C12.0503 151.504 11.7903 151.392 11.5183 151.28C11.2143 151.488 10.9583 151.732 10.7503 152.012C10.5503 152.284 10.4503 152.596 10.4503 152.948C10.4503 153.164 10.4903 153.36 10.5703 153.536C10.6583 153.712 10.7743 153.868 10.9183 154.004C11.0703 154.132 11.2463 154.232 11.4463 154.304C11.6463 154.376 11.8623 154.412 12.0943 154.412ZM15.5152 155V154.412C16.0912 153.836 16.6032 153.316 17.0512 152.852C17.4992 152.388 17.8752 151.96 18.1792 151.568C18.4832 151.168 18.7152 150.804 18.8752 150.476C19.0352 150.14 19.1152 149.816 19.1152 149.504C19.1152 149.064 18.9952 148.704 18.7552 148.424C18.5152 148.144 18.1512 148.004 17.6632 148.004C17.3432 148.004 17.0472 148.096 16.7752 148.28C16.5032 148.456 16.2552 148.672 16.0312 148.928L15.4672 148.364C15.7872 148.012 16.1272 147.732 16.4872 147.524C16.8472 147.308 17.2792 147.2 17.7832 147.2C18.4952 147.2 19.0552 147.408 19.4632 147.824C19.8712 148.232 20.0752 148.776 20.0752 149.456C20.0752 149.816 19.9952 150.18 19.8352 150.548C19.6832 150.908 19.4672 151.284 19.1872 151.676C18.9152 152.06 18.5872 152.464 18.2032 152.888C17.8272 153.304 17.4112 153.748 16.9552 154.22C17.1632 154.204 17.3792 154.188 17.6032 154.172C17.8272 154.156 18.0392 154.148 18.2392 154.148H20.4592V155H15.5152Z" fill="#7D7E8E"/>
<path d="M3.10519 92.144C2.32919 92.144 1.72519 91.8 1.29319 91.112C0.861188 90.424 0.645188 89.436 0.645188 88.148C0.645188 86.86 0.861188 85.88 1.29319 85.208C1.72519 84.536 2.32919 84.2 3.10519 84.2C3.87319 84.2 4.47319 84.536 4.90519 85.208C5.33719 85.88 5.55319 86.86 5.55319 88.148C5.55319 89.436 5.33719 90.424 4.90519 91.112C4.47319 91.8 3.87319 92.144 3.10519 92.144ZM3.10519 91.352C3.32919 91.352 3.52919 91.292 3.70519 91.172C3.88919 91.044 4.04519 90.852 4.17319 90.596C4.30919 90.332 4.41319 90 4.48519 89.6C4.55719 89.192 4.59319 88.708 4.59319 88.148C4.59319 87.588 4.55719 87.108 4.48519 86.708C4.41319 86.308 4.30919 85.984 4.17319 85.736C4.04519 85.48 3.88919 85.292 3.70519 85.172C3.52919 85.052 3.32919 84.992 3.10519 84.992C2.88119 84.992 2.67719 85.052 2.49319 85.172C2.30919 85.292 2.14919 85.48 2.01319 85.736C1.88519 85.984 1.78519 86.308 1.71319 86.708C1.64119 87.108 1.60519 87.588 1.60519 88.148C1.60519 89.268 1.74119 90.084 2.01319 90.596C2.29319 91.1 2.65719 91.352 3.10519 91.352ZM7.58203 92.144C7.38203 92.144 7.21003 92.076 7.06603 91.94C6.93003 91.796 6.86203 91.616 6.86203 91.4C6.86203 91.168 6.93003 90.984 7.06603 90.848C7.21003 90.704 7.38203 90.632 7.58203 90.632C7.77403 90.632 7.93803 90.704 8.07403 90.848C8.21803 90.984 8.29003 91.168 8.29003 91.4C8.29003 91.616 8.21803 91.796 8.07403 91.94C7.93803 92.076 7.77403 92.144 7.58203 92.144ZM12.0703 92.144C11.7103 92.144 11.3743 92.092 11.0623 91.988C10.7583 91.884 10.4943 91.74 10.2703 91.556C10.0543 91.364 9.88231 91.14 9.75431 90.884C9.62631 90.628 9.56231 90.348 9.56231 90.044C9.56231 89.796 9.60231 89.568 9.68231 89.36C9.77031 89.144 9.87831 88.952 10.0063 88.784C10.1423 88.608 10.2943 88.456 10.4623 88.328C10.6383 88.192 10.8183 88.076 11.0023 87.98V87.932C10.7223 87.732 10.4743 87.492 10.2583 87.212C10.0423 86.924 9.93431 86.576 9.93431 86.168C9.93431 85.872 9.99031 85.604 10.1023 85.364C10.2143 85.124 10.3663 84.92 10.5583 84.752C10.7503 84.576 10.9783 84.44 11.2423 84.344C11.5063 84.248 11.7943 84.2 12.1063 84.2C12.4423 84.2 12.7423 84.252 13.0063 84.356C13.2703 84.452 13.4943 84.592 13.6783 84.776C13.8703 84.952 14.0143 85.168 14.1103 85.424C14.2143 85.672 14.2663 85.944 14.2663 86.24C14.2663 86.44 14.2303 86.632 14.1583 86.816C14.0943 87 14.0103 87.172 13.9063 87.332C13.8103 87.492 13.6983 87.636 13.5703 87.764C13.4503 87.892 13.3303 88 13.2103 88.088V88.136C13.3783 88.232 13.5423 88.344 13.7023 88.472C13.8623 88.592 14.0023 88.732 14.1223 88.892C14.2503 89.044 14.3503 89.22 14.4223 89.42C14.5023 89.62 14.5423 89.848 14.5423 90.104C14.5423 90.392 14.4823 90.66 14.3623 90.908C14.2423 91.156 14.0743 91.372 13.8583 91.556C13.6423 91.74 13.3823 91.884 13.0783 91.988C12.7743 92.092 12.4383 92.144 12.0703 92.144ZM12.6103 87.824C12.8663 87.592 13.0623 87.348 13.1983 87.092C13.3423 86.836 13.4143 86.568 13.4143 86.288C13.4143 85.904 13.2983 85.584 13.0663 85.328C12.8343 85.064 12.5063 84.932 12.0823 84.932C11.7223 84.932 11.4263 85.044 11.1943 85.268C10.9623 85.492 10.8463 85.792 10.8463 86.168C10.8463 86.4 10.8943 86.6 10.9903 86.768C11.0863 86.928 11.2143 87.072 11.3743 87.2C11.5423 87.328 11.7303 87.444 11.9383 87.548C12.1543 87.644 12.3783 87.736 12.6103 87.824ZM12.0943 91.412C12.5423 91.412 12.9023 91.288 13.1743 91.04C13.4543 90.792 13.5943 90.468 13.5943 90.068C13.5943 89.82 13.5383 89.608 13.4263 89.432C13.3143 89.256 13.1623 89.104 12.9703 88.976C12.7783 88.84 12.5543 88.72 12.2983 88.616C12.0503 88.504 11.7903 88.392 11.5183 88.28C11.2143 88.488 10.9583 88.732 10.7503 89.012C10.5503 89.284 10.4503 89.596 10.4503 89.948C10.4503 90.164 10.4903 90.36 10.5703 90.536C10.6583 90.712 10.7743 90.868 10.9183 91.004C11.0703 91.132 11.2463 91.232 11.4463 91.304C11.6463 91.376 11.8623 91.412 12.0943 91.412ZM18.6832 92V89.888H15.2392V89.24L18.5152 84.344H19.6192V89.096H20.6632V89.888H19.6192V92H18.6832ZM16.2832 89.096H18.6832V86.876C18.6832 86.668 18.6872 86.424 18.6952 86.144C18.7112 85.856 18.7272 85.608 18.7432 85.4H18.6952C18.5992 85.584 18.4992 85.764 18.3952 85.94C18.2912 86.116 18.1832 86.296 18.0712 86.48L16.2832 89.096Z" fill="#7D7E8E"/>
<path d="M3.10519 29.144C2.32919 29.144 1.72519 28.8 1.29319 28.112C0.861188 27.424 0.645188 26.436 0.645188 25.148C0.645188 23.86 0.861188 22.88 1.29319 22.208C1.72519 21.536 2.32919 21.2 3.10519 21.2C3.87319 21.2 4.47319 21.536 4.90519 22.208C5.33719 22.88 5.55319 23.86 5.55319 25.148C5.55319 26.436 5.33719 27.424 4.90519 28.112C4.47319 28.8 3.87319 29.144 3.10519 29.144ZM3.10519 28.352C3.32919 28.352 3.52919 28.292 3.70519 28.172C3.88919 28.044 4.04519 27.852 4.17319 27.596C4.30919 27.332 4.41319 27 4.48519 26.6C4.55719 26.192 4.59319 25.708 4.59319 25.148C4.59319 24.588 4.55719 24.108 4.48519 23.708C4.41319 23.308 4.30919 22.984 4.17319 22.736C4.04519 22.48 3.88919 22.292 3.70519 22.172C3.52919 22.052 3.32919 21.992 3.10519 21.992C2.88119 21.992 2.67719 22.052 2.49319 22.172C2.30919 22.292 2.14919 22.48 2.01319 22.736C1.88519 22.984 1.78519 23.308 1.71319 23.708C1.64119 24.108 1.60519 24.588 1.60519 25.148C1.60519 26.268 1.74119 27.084 2.01319 27.596C2.29319 28.1 2.65719 28.352 3.10519 28.352ZM7.58203 29.144C7.38203 29.144 7.21003 29.076 7.06603 28.94C6.93003 28.796 6.86203 28.616 6.86203 28.4C6.86203 28.168 6.93003 27.984 7.06603 27.848C7.21003 27.704 7.38203 27.632 7.58203 27.632C7.77403 27.632 7.93803 27.704 8.07403 27.848C8.21803 27.984 8.29003 28.168 8.29003 28.4C8.29003 28.616 8.21803 28.796 8.07403 28.94C7.93803 29.076 7.77403 29.144 7.58203 29.144ZM12.0703 29.144C11.7103 29.144 11.3743 29.092 11.0623 28.988C10.7583 28.884 10.4943 28.74 10.2703 28.556C10.0543 28.364 9.88231 28.14 9.75431 27.884C9.62631 27.628 9.56231 27.348 9.56231 27.044C9.56231 26.796 9.60231 26.568 9.68231 26.36C9.77031 26.144 9.87831 25.952 10.0063 25.784C10.1423 25.608 10.2943 25.456 10.4623 25.328C10.6383 25.192 10.8183 25.076 11.0023 24.98V24.932C10.7223 24.732 10.4743 24.492 10.2583 24.212C10.0423 23.924 9.93431 23.576 9.93431 23.168C9.93431 22.872 9.99031 22.604 10.1023 22.364C10.2143 22.124 10.3663 21.92 10.5583 21.752C10.7503 21.576 10.9783 21.44 11.2423 21.344C11.5063 21.248 11.7943 21.2 12.1063 21.2C12.4423 21.2 12.7423 21.252 13.0063 21.356C13.2703 21.452 13.4943 21.592 13.6783 21.776C13.8703 21.952 14.0143 22.168 14.1103 22.424C14.2143 22.672 14.2663 22.944 14.2663 23.24C14.2663 23.44 14.2303 23.632 14.1583 23.816C14.0943 24 14.0103 24.172 13.9063 24.332C13.8103 24.492 13.6983 24.636 13.5703 24.764C13.4503 24.892 13.3303 25 13.2103 25.088V25.136C13.3783 25.232 13.5423 25.344 13.7023 25.472C13.8623 25.592 14.0023 25.732 14.1223 25.892C14.2503 26.044 14.3503 26.22 14.4223 26.42C14.5023 26.62 14.5423 26.848 14.5423 27.104C14.5423 27.392 14.4823 27.66 14.3623 27.908C14.2423 28.156 14.0743 28.372 13.8583 28.556C13.6423 28.74 13.3823 28.884 13.0783 28.988C12.7743 29.092 12.4383 29.144 12.0703 29.144ZM12.6103 24.824C12.8663 24.592 13.0623 24.348 13.1983 24.092C13.3423 23.836 13.4143 23.568 13.4143 23.288C13.4143 22.904 13.2983 22.584 13.0663 22.328C12.8343 22.064 12.5063 21.932 12.0823 21.932C11.7223 21.932 11.4263 22.044 11.1943 22.268C10.9623 22.492 10.8463 22.792 10.8463 23.168C10.8463 23.4 10.8943 23.6 10.9903 23.768C11.0863 23.928 11.2143 24.072 11.3743 24.2C11.5423 24.328 11.7303 24.444 11.9383 24.548C12.1543 24.644 12.3783 24.736 12.6103 24.824ZM12.0943 28.412C12.5423 28.412 12.9023 28.288 13.1743 28.04C13.4543 27.792 13.5943 27.468 13.5943 27.068C13.5943 26.82 13.5383 26.608 13.4263 26.432C13.3143 26.256 13.1623 26.104 12.9703 25.976C12.7783 25.84 12.5543 25.72 12.2983 25.616C12.0503 25.504 11.7903 25.392 11.5183 25.28C11.2143 25.488 10.9583 25.732 10.7503 26.012C10.5503 26.284 10.4503 26.596 10.4503 26.948C10.4503 27.164 10.4903 27.36 10.5703 27.536C10.6583 27.712 10.7743 27.868 10.9183 28.004C11.0703 28.132 11.2463 28.232 11.4463 28.304C11.6463 28.376 11.8623 28.412 12.0943 28.412ZM18.2512 29.144C17.8752 29.144 17.5272 29.068 17.2072 28.916C16.8872 28.764 16.6072 28.536 16.3672 28.232C16.1352 27.92 15.9512 27.536 15.8152 27.08C15.6792 26.616 15.6112 26.076 15.6112 25.46C15.6112 24.692 15.6912 24.04 15.8512 23.504C16.0112 22.96 16.2272 22.52 16.4992 22.184C16.7712 21.84 17.0792 21.592 17.4232 21.44C17.7752 21.28 18.1432 21.2 18.5272 21.2C18.9432 21.2 19.2992 21.28 19.5952 21.44C19.8992 21.592 20.1592 21.784 20.3752 22.016L19.8232 22.628C19.6632 22.444 19.4712 22.3 19.2472 22.196C19.0312 22.084 18.8032 22.028 18.5632 22.028C18.2992 22.028 18.0472 22.084 17.8072 22.196C17.5672 22.308 17.3552 22.492 17.1712 22.748C16.9872 23.004 16.8392 23.34 16.7272 23.756C16.6152 24.164 16.5552 24.672 16.5472 25.28C16.7872 24.984 17.0672 24.752 17.3872 24.584C17.7072 24.408 18.0232 24.32 18.3352 24.32C18.9992 24.32 19.5272 24.516 19.9192 24.908C20.3192 25.3 20.5192 25.892 20.5192 26.684C20.5192 27.052 20.4592 27.388 20.3392 27.692C20.2192 27.988 20.0552 28.244 19.8472 28.46C19.6392 28.676 19.3992 28.844 19.1272 28.964C18.8552 29.084 18.5632 29.144 18.2512 29.144ZM18.2512 28.364C18.4432 28.364 18.6192 28.324 18.7792 28.244C18.9392 28.164 19.0792 28.052 19.1992 27.908C19.3192 27.756 19.4112 27.58 19.4752 27.38C19.5472 27.172 19.5832 26.94 19.5832 26.684C19.5832 26.18 19.4672 25.784 19.2352 25.496C19.0032 25.208 18.6472 25.064 18.1672 25.064C17.9192 25.064 17.6512 25.144 17.3632 25.304C17.0752 25.456 16.8112 25.712 16.5712 26.072C16.6352 26.824 16.8072 27.396 17.0872 27.788C17.3752 28.172 17.7632 28.364 18.2512 28.364Z" fill="#7D7E8E"/>
<circle cx="56" cy="346" r="5" fill="#E75555"/>
<circle cx="66" cy="166" r="5" fill="#E75555"/>
<circle cx="84" cy="96" r="5" fill="#E75555"/>
<circle cx="95" cy="82" r="5" fill="#E75555"/>
<circle cx="125" cy="60" r="5" fill="#E75555"/>
<circle cx="159" cy="66" r="5" fill="#E75555"/>
<circle cx="187" cy="64" r="5" fill="#E75555"/>
<circle cx="207" cy="66" r="5" fill="#E75555"/>
<circle cx="236" cy="63" r="5" fill="#E75555"/>
<circle cx="276" cy="58" r="5" fill="#E75555"/>
<circle cx="292" cy="50" r="5" fill="#E75555"/>
<circle cx="334" cy="46" r="5" fill="#E75555"/>
<circle cx="353" cy="46" r="5" fill="#E75555"/>
<circle cx="382" cy="40" r="5" fill="#E75555"/>
<circle cx="408" cy="40" r="5" fill="#E75555"/>
<circle cx="434" cy="36" r="5" fill="#E75555"/>
<circle cx="465" cy="36" r="5" fill="#E75555"/>
<circle cx="497" cy="34" r="5" fill="#E75555"/>
<path d="M56.5 346L66 166L84 96L96 81.5L125.5 59.5L159.5 65.5H187.5L207 66.5L236 63L276 58L292 50L334 46H353L382.5 40H407.5L434.5 35.5L465 36.5L497.5 34" stroke="#E65454"/>
<circle cx="56" cy="336" r="5" fill="#52C95E"/>
<circle cx="67" cy="162" r="5" fill="#52C95E"/>
<circle cx="84" cy="104" r="5" fill="#52C95E"/>
<circle cx="95" cy="87" r="5" fill="#52C95E"/>
<circle cx="125" cy="77" r="5" fill="#52C95E"/>
<circle cx="159" cy="73" r="5" fill="#52C95E"/>
<circle cx="187" cy="68" r="5" fill="#52C95E"/>
<circle cx="207" cy="68" r="5" fill="#52C95E"/>
<circle cx="236" cy="66" r="5" fill="#52C95E"/>
<circle cx="276" cy="62" r="5" fill="#52C95E"/>
<circle cx="292" cy="62" r="5" fill="#52C95E"/>
<circle cx="334" cy="54" r="5" fill="#52C95E"/>
<circle cx="353" cy="56" r="5" fill="#52C95E"/>
<circle cx="382" cy="58" r="5" fill="#52C95E"/>
<circle cx="408" cy="60" r="5" fill="#52C95E"/>
<circle cx="434" cy="59" r="5" fill="#52C95E"/>
<circle cx="465" cy="66" r="5" fill="#52C95E"/>
<circle cx="497" cy="73" r="5" fill="#52C95E"/>
<path d="M56 336L67 162L84.5 104L95 86.5L124.5 77L158.5 73.5L187 69L207 68L236.5 65.5L276 62H292L334 53.5L353.5 55.5L382 58L408.5 60L434 58L465 65.5L496.5 73.5" stroke="#52C95E"/>
<path d="M411.164 300V291.796H408.392V290.816H415.112V291.796H412.34V300H411.164ZM416.011 300V293.196H416.963L417.061 294.428H417.103C417.337 293.999 417.617 293.658 417.943 293.406C418.279 293.154 418.643 293.028 419.035 293.028C419.306 293.028 419.549 293.075 419.763 293.168L419.539 294.176C419.427 294.139 419.325 294.111 419.231 294.092C419.138 294.073 419.021 294.064 418.881 294.064C418.592 294.064 418.289 294.181 417.971 294.414C417.663 294.647 417.393 295.053 417.159 295.632V300H416.011ZM422.091 300.168C421.522 300.168 421.046 300 420.663 299.664C420.29 299.328 420.103 298.852 420.103 298.236C420.103 297.489 420.434 296.92 421.097 296.528C421.76 296.127 422.819 295.847 424.275 295.688C424.275 295.473 424.252 295.263 424.205 295.058C424.168 294.853 424.098 294.671 423.995 294.512C423.892 294.353 423.748 294.227 423.561 294.134C423.384 294.031 423.155 293.98 422.875 293.98C422.483 293.98 422.114 294.055 421.769 294.204C421.424 294.353 421.116 294.521 420.845 294.708L420.397 293.91C420.714 293.705 421.102 293.509 421.559 293.322C422.016 293.126 422.52 293.028 423.071 293.028C423.902 293.028 424.504 293.285 424.877 293.798C425.25 294.302 425.437 294.979 425.437 295.828V300H424.485L424.387 299.188H424.345C424.018 299.459 423.668 299.692 423.295 299.888C422.922 300.075 422.52 300.168 422.091 300.168ZM422.427 299.244C422.754 299.244 423.062 299.169 423.351 299.02C423.64 298.861 423.948 298.633 424.275 298.334V296.444C423.706 296.519 423.225 296.607 422.833 296.71C422.45 296.813 422.138 296.934 421.895 297.074C421.662 297.214 421.489 297.377 421.377 297.564C421.274 297.741 421.223 297.937 421.223 298.152C421.223 298.544 421.34 298.824 421.573 298.992C421.806 299.16 422.091 299.244 422.427 299.244ZM427.578 300V293.196H428.726V300H427.578ZM428.166 291.796C427.942 291.796 427.75 291.726 427.592 291.586C427.442 291.446 427.368 291.269 427.368 291.054C427.368 290.83 427.442 290.653 427.592 290.522C427.75 290.382 427.942 290.312 428.166 290.312C428.39 290.312 428.576 290.382 428.726 290.522C428.884 290.653 428.964 290.83 428.964 291.054C428.964 291.269 428.884 291.446 428.726 291.586C428.576 291.726 428.39 291.796 428.166 291.796ZM431.023 300V293.196H431.975L432.073 294.176H432.115C432.442 293.849 432.782 293.579 433.137 293.364C433.501 293.14 433.921 293.028 434.397 293.028C435.116 293.028 435.638 293.252 435.965 293.7C436.301 294.148 436.469 294.811 436.469 295.688V300H435.321V295.842C435.321 295.198 435.218 294.736 435.013 294.456C434.808 294.167 434.481 294.022 434.033 294.022C433.678 294.022 433.366 294.111 433.095 294.288C432.824 294.465 432.516 294.727 432.171 295.072V300H431.023ZM438.679 300V293.196H439.827V300H438.679ZM439.267 291.796C439.043 291.796 438.852 291.726 438.693 291.586C438.544 291.446 438.469 291.269 438.469 291.054C438.469 290.83 438.544 290.653 438.693 290.522C438.852 290.382 439.043 290.312 439.267 290.312C439.491 290.312 439.678 290.382 439.827 290.522C439.986 290.653 440.065 290.83 440.065 291.054C440.065 291.269 439.986 291.446 439.827 291.586C439.678 291.726 439.491 291.796 439.267 291.796ZM442.125 300V293.196H443.077L443.175 294.176H443.217C443.543 293.849 443.884 293.579 444.239 293.364C444.603 293.14 445.023 293.028 445.499 293.028C446.217 293.028 446.74 293.252 447.067 293.7C447.403 294.148 447.571 294.811 447.571 295.688V300H446.423V295.842C446.423 295.198 446.32 294.736 446.115 294.456C445.909 294.167 445.583 294.022 445.135 294.022C444.78 294.022 444.467 294.111 444.197 294.288C443.926 294.465 443.618 294.727 443.273 295.072V300H442.125ZM452.077 303.136C451.657 303.136 451.274 303.094 450.929 303.01C450.583 302.935 450.285 302.819 450.033 302.66C449.79 302.501 449.599 302.31 449.459 302.086C449.328 301.862 449.263 301.601 449.263 301.302C449.263 301.013 449.351 300.737 449.529 300.476C449.706 300.215 449.949 299.977 450.257 299.762V299.706C450.089 299.603 449.944 299.463 449.823 299.286C449.711 299.099 449.655 298.871 449.655 298.6C449.655 298.311 449.734 298.059 449.893 297.844C450.051 297.629 450.219 297.461 450.397 297.34V297.284C450.173 297.097 449.967 296.85 449.781 296.542C449.603 296.225 449.515 295.861 449.515 295.45C449.515 295.077 449.58 294.741 449.711 294.442C449.851 294.143 450.037 293.891 450.271 293.686C450.504 293.471 450.775 293.308 451.083 293.196C451.4 293.084 451.731 293.028 452.077 293.028C452.263 293.028 452.436 293.047 452.595 293.084C452.763 293.112 452.912 293.149 453.043 293.196H455.409V294.078H454.009C454.167 294.237 454.298 294.437 454.401 294.68C454.513 294.923 454.569 295.189 454.569 295.478C454.569 295.842 454.503 296.173 454.373 296.472C454.242 296.761 454.065 297.009 453.841 297.214C453.617 297.41 453.351 297.564 453.043 297.676C452.744 297.788 452.422 297.844 452.077 297.844C451.909 297.844 451.736 297.825 451.559 297.788C451.381 297.741 451.213 297.681 451.055 297.606C450.933 297.709 450.831 297.825 450.747 297.956C450.663 298.077 450.621 298.231 450.621 298.418C450.621 298.633 450.705 298.81 450.873 298.95C451.041 299.09 451.358 299.16 451.825 299.16H453.141C453.934 299.16 454.527 299.291 454.919 299.552C455.32 299.804 455.521 300.215 455.521 300.784C455.521 301.101 455.441 301.4 455.283 301.68C455.124 301.969 454.895 302.221 454.597 302.436C454.298 302.651 453.934 302.819 453.505 302.94C453.085 303.071 452.609 303.136 452.077 303.136ZM452.077 297.074C452.273 297.074 452.455 297.037 452.623 296.962C452.8 296.887 452.954 296.78 453.085 296.64C453.225 296.5 453.332 296.332 453.407 296.136C453.481 295.931 453.519 295.702 453.519 295.45C453.519 294.946 453.379 294.559 453.099 294.288C452.819 294.008 452.478 293.868 452.077 293.868C451.675 293.868 451.335 294.008 451.055 294.288C450.775 294.559 450.635 294.946 450.635 295.45C450.635 295.702 450.672 295.931 450.747 296.136C450.821 296.332 450.924 296.5 451.055 296.64C451.195 296.78 451.349 296.887 451.517 296.962C451.694 297.037 451.881 297.074 452.077 297.074ZM452.245 302.338C452.571 302.338 452.865 302.296 453.127 302.212C453.397 302.137 453.626 302.035 453.813 301.904C453.999 301.783 454.144 301.638 454.247 301.47C454.349 301.302 454.401 301.129 454.401 300.952C454.401 300.635 454.284 300.415 454.051 300.294C453.817 300.173 453.477 300.112 453.029 300.112H451.853C451.722 300.112 451.577 300.103 451.419 300.084C451.269 300.075 451.12 300.047 450.971 300C450.728 300.177 450.551 300.364 450.439 300.56C450.327 300.756 450.271 300.952 450.271 301.148C450.271 301.512 450.443 301.801 450.789 302.016C451.143 302.231 451.629 302.338 452.245 302.338ZM461.416 300.168C460.931 300.168 460.469 300.079 460.03 299.902C459.592 299.725 459.209 299.501 458.882 299.23L459.456 298.46C459.755 298.703 460.058 298.899 460.366 299.048C460.684 299.197 461.048 299.272 461.458 299.272C461.906 299.272 462.242 299.169 462.466 298.964C462.69 298.759 462.802 298.507 462.802 298.208C462.802 298.031 462.756 297.877 462.662 297.746C462.569 297.615 462.448 297.503 462.298 297.41C462.158 297.307 461.995 297.219 461.808 297.144C461.622 297.069 461.435 296.995 461.248 296.92C461.006 296.836 460.763 296.743 460.52 296.64C460.278 296.528 460.058 296.397 459.862 296.248C459.676 296.089 459.522 295.907 459.4 295.702C459.279 295.497 459.218 295.249 459.218 294.96C459.218 294.689 459.27 294.437 459.372 294.204C459.484 293.961 459.638 293.756 459.834 293.588C460.04 293.411 460.287 293.275 460.576 293.182C460.866 293.079 461.192 293.028 461.556 293.028C461.986 293.028 462.378 293.103 462.732 293.252C463.096 293.401 463.409 293.583 463.67 293.798L463.124 294.526C462.891 294.349 462.648 294.204 462.396 294.092C462.144 293.98 461.869 293.924 461.57 293.924C461.141 293.924 460.824 294.022 460.618 294.218C460.422 294.414 460.324 294.643 460.324 294.904C460.324 295.063 460.366 295.203 460.45 295.324C460.534 295.436 460.646 295.539 460.786 295.632C460.926 295.716 461.085 295.795 461.262 295.87C461.449 295.935 461.64 296.005 461.836 296.08C462.079 296.173 462.322 296.271 462.564 296.374C462.816 296.477 463.04 296.607 463.236 296.766C463.432 296.915 463.591 297.102 463.712 297.326C463.843 297.55 463.908 297.821 463.908 298.138C463.908 298.418 463.852 298.679 463.74 298.922C463.638 299.165 463.479 299.379 463.264 299.566C463.059 299.753 462.798 299.897 462.48 300C462.172 300.112 461.818 300.168 461.416 300.168ZM468.191 300.168C467.743 300.168 467.323 300.089 466.931 299.93C466.539 299.771 466.199 299.543 465.909 299.244C465.629 298.936 465.405 298.563 465.237 298.124C465.079 297.676 464.999 297.172 464.999 296.612C464.999 296.043 465.088 295.539 465.265 295.1C465.443 294.652 465.681 294.274 465.979 293.966C466.278 293.658 466.623 293.425 467.015 293.266C467.417 293.107 467.837 293.028 468.275 293.028C468.723 293.028 469.106 293.107 469.423 293.266C469.741 293.425 470.021 293.611 470.263 293.826L469.675 294.582C469.479 294.405 469.269 294.26 469.045 294.148C468.831 294.036 468.588 293.98 468.317 293.98C468.009 293.98 467.725 294.045 467.463 294.176C467.202 294.297 466.978 294.475 466.791 294.708C466.605 294.941 466.455 295.221 466.343 295.548C466.241 295.865 466.189 296.22 466.189 296.612C466.189 297.004 466.241 297.359 466.343 297.676C466.446 297.993 466.586 298.269 466.763 298.502C466.95 298.726 467.174 298.903 467.435 299.034C467.697 299.155 467.981 299.216 468.289 299.216C468.607 299.216 468.896 299.151 469.157 299.02C469.428 298.88 469.671 298.717 469.885 298.53L470.389 299.3C470.081 299.571 469.741 299.785 469.367 299.944C468.994 300.093 468.602 300.168 468.191 300.168ZM474.233 300.168C473.813 300.168 473.412 300.089 473.029 299.93C472.656 299.771 472.325 299.543 472.035 299.244C471.746 298.936 471.513 298.563 471.335 298.124C471.167 297.676 471.083 297.172 471.083 296.612C471.083 296.043 471.167 295.539 471.335 295.1C471.513 294.652 471.746 294.274 472.035 293.966C472.325 293.658 472.656 293.425 473.029 293.266C473.412 293.107 473.813 293.028 474.233 293.028C474.653 293.028 475.05 293.107 475.423 293.266C475.806 293.425 476.142 293.658 476.431 293.966C476.721 294.274 476.949 294.652 477.117 295.1C477.295 295.539 477.383 296.043 477.383 296.612C477.383 297.172 477.295 297.676 477.117 298.124C476.949 298.563 476.721 298.936 476.431 299.244C476.142 299.543 475.806 299.771 475.423 299.93C475.05 300.089 474.653 300.168 474.233 300.168ZM474.233 299.216C474.523 299.216 474.789 299.155 475.031 299.034C475.274 298.903 475.479 298.726 475.647 298.502C475.825 298.269 475.96 297.993 476.053 297.676C476.147 297.359 476.193 297.004 476.193 296.612C476.193 296.22 476.147 295.865 476.053 295.548C475.96 295.221 475.825 294.941 475.647 294.708C475.479 294.475 475.274 294.297 475.031 294.176C474.789 294.045 474.523 293.98 474.233 293.98C473.944 293.98 473.678 294.045 473.435 294.176C473.193 294.297 472.983 294.475 472.805 294.708C472.637 294.941 472.507 295.221 472.413 295.548C472.32 295.865 472.273 296.22 472.273 296.612C472.273 297.004 472.32 297.359 472.413 297.676C472.507 297.993 472.637 298.269 472.805 298.502C472.983 298.726 473.193 298.903 473.435 299.034C473.678 299.155 473.944 299.216 474.233 299.216ZM479.175 300V293.196H480.127L480.225 294.428H480.267C480.501 293.999 480.781 293.658 481.107 293.406C481.443 293.154 481.807 293.028 482.199 293.028C482.47 293.028 482.713 293.075 482.927 293.168L482.703 294.176C482.591 294.139 482.489 294.111 482.395 294.092C482.302 294.073 482.185 294.064 482.045 294.064C481.756 294.064 481.453 294.181 481.135 294.414C480.827 294.647 480.557 295.053 480.323 295.632V300H479.175ZM486.65 300.168C486.193 300.168 485.763 300.089 485.362 299.93C484.97 299.762 484.625 299.529 484.326 299.23C484.037 298.922 483.808 298.549 483.64 298.11C483.472 297.671 483.388 297.172 483.388 296.612C483.388 296.052 483.472 295.553 483.64 295.114C483.817 294.666 484.046 294.288 484.326 293.98C484.615 293.672 484.942 293.439 485.306 293.28C485.67 293.112 486.048 293.028 486.44 293.028C486.869 293.028 487.252 293.103 487.588 293.252C487.933 293.401 488.218 293.616 488.442 293.896C488.675 294.176 488.853 294.512 488.974 294.904C489.095 295.296 489.156 295.735 489.156 296.22C489.156 296.341 489.151 296.463 489.142 296.584C489.142 296.696 489.133 296.794 489.114 296.878H484.522C484.569 297.606 484.793 298.185 485.194 298.614C485.605 299.034 486.137 299.244 486.79 299.244C487.117 299.244 487.415 299.197 487.686 299.104C487.966 299.001 488.232 298.871 488.484 298.712L488.89 299.468C488.591 299.655 488.26 299.818 487.896 299.958C487.532 300.098 487.117 300.168 486.65 300.168ZM484.508 296.052H488.148C488.148 295.361 487.999 294.839 487.7 294.484C487.411 294.12 487 293.938 486.468 293.938C486.225 293.938 485.992 293.985 485.768 294.078C485.553 294.171 485.357 294.311 485.18 294.498C485.003 294.675 484.853 294.895 484.732 295.156C484.62 295.417 484.545 295.716 484.508 296.052Z" fill="#545770"/>
<path d="M411.164 324V315.796H408.392V314.816H415.112V315.796H412.34V324H411.164ZM418.482 324.168C418.025 324.168 417.596 324.089 417.194 323.93C416.802 323.762 416.457 323.529 416.158 323.23C415.869 322.922 415.64 322.549 415.472 322.11C415.304 321.671 415.22 321.172 415.22 320.612C415.22 320.052 415.304 319.553 415.472 319.114C415.65 318.666 415.878 318.288 416.158 317.98C416.448 317.672 416.774 317.439 417.138 317.28C417.502 317.112 417.88 317.028 418.272 317.028C418.702 317.028 419.084 317.103 419.42 317.252C419.766 317.401 420.05 317.616 420.274 317.896C420.508 318.176 420.685 318.512 420.806 318.904C420.928 319.296 420.988 319.735 420.988 320.22C420.988 320.341 420.984 320.463 420.974 320.584C420.974 320.696 420.965 320.794 420.946 320.878H416.354C416.401 321.606 416.625 322.185 417.026 322.614C417.437 323.034 417.969 323.244 418.622 323.244C418.949 323.244 419.248 323.197 419.518 323.104C419.798 323.001 420.064 322.871 420.316 322.712L420.722 323.468C420.424 323.655 420.092 323.818 419.728 323.958C419.364 324.098 418.949 324.168 418.482 324.168ZM416.34 320.052H419.98C419.98 319.361 419.831 318.839 419.532 318.484C419.243 318.12 418.832 317.938 418.3 317.938C418.058 317.938 417.824 317.985 417.6 318.078C417.386 318.171 417.19 318.311 417.012 318.498C416.835 318.675 416.686 318.895 416.564 319.156C416.452 319.417 416.378 319.716 416.34 320.052ZM424.447 324.168C423.962 324.168 423.5 324.079 423.061 323.902C422.623 323.725 422.24 323.501 421.913 323.23L422.487 322.46C422.786 322.703 423.089 322.899 423.397 323.048C423.715 323.197 424.079 323.272 424.489 323.272C424.937 323.272 425.273 323.169 425.497 322.964C425.721 322.759 425.833 322.507 425.833 322.208C425.833 322.031 425.787 321.877 425.693 321.746C425.6 321.615 425.479 321.503 425.329 321.41C425.189 321.307 425.026 321.219 424.839 321.144C424.653 321.069 424.466 320.995 424.279 320.92C424.037 320.836 423.794 320.743 423.551 320.64C423.309 320.528 423.089 320.397 422.893 320.248C422.707 320.089 422.553 319.907 422.431 319.702C422.31 319.497 422.249 319.249 422.249 318.96C422.249 318.689 422.301 318.437 422.403 318.204C422.515 317.961 422.669 317.756 422.865 317.588C423.071 317.411 423.318 317.275 423.607 317.182C423.897 317.079 424.223 317.028 424.587 317.028C425.017 317.028 425.409 317.103 425.763 317.252C426.127 317.401 426.44 317.583 426.701 317.798L426.155 318.526C425.922 318.349 425.679 318.204 425.427 318.092C425.175 317.98 424.9 317.924 424.601 317.924C424.172 317.924 423.855 318.022 423.649 318.218C423.453 318.414 423.355 318.643 423.355 318.904C423.355 319.063 423.397 319.203 423.481 319.324C423.565 319.436 423.677 319.539 423.817 319.632C423.957 319.716 424.116 319.795 424.293 319.87C424.48 319.935 424.671 320.005 424.867 320.08C425.11 320.173 425.353 320.271 425.595 320.374C425.847 320.477 426.071 320.607 426.267 320.766C426.463 320.915 426.622 321.102 426.743 321.326C426.874 321.55 426.939 321.821 426.939 322.138C426.939 322.418 426.883 322.679 426.771 322.922C426.669 323.165 426.51 323.379 426.295 323.566C426.09 323.753 425.829 323.897 425.511 324C425.203 324.112 424.849 324.168 424.447 324.168ZM430.403 324.168C430.039 324.168 429.731 324.112 429.479 324C429.237 323.888 429.036 323.734 428.877 323.538C428.728 323.342 428.621 323.104 428.555 322.824C428.49 322.544 428.457 322.236 428.457 321.9V318.134H427.449V317.266L428.513 317.196L428.653 315.292H429.619V317.196H431.453V318.134H429.619V321.914C429.619 322.334 429.694 322.661 429.843 322.894C430.002 323.118 430.277 323.23 430.669 323.23C430.791 323.23 430.921 323.211 431.061 323.174C431.201 323.137 431.327 323.095 431.439 323.048L431.663 323.916C431.477 323.981 431.271 324.037 431.047 324.084C430.833 324.14 430.618 324.168 430.403 324.168ZM437.572 324.168C437.087 324.168 436.625 324.079 436.186 323.902C435.748 323.725 435.365 323.501 435.038 323.23L435.612 322.46C435.911 322.703 436.214 322.899 436.522 323.048C436.84 323.197 437.204 323.272 437.614 323.272C438.062 323.272 438.398 323.169 438.622 322.964C438.846 322.759 438.958 322.507 438.958 322.208C438.958 322.031 438.912 321.877 438.818 321.746C438.725 321.615 438.604 321.503 438.454 321.41C438.314 321.307 438.151 321.219 437.964 321.144C437.778 321.069 437.591 320.995 437.404 320.92C437.162 320.836 436.919 320.743 436.676 320.64C436.434 320.528 436.214 320.397 436.018 320.248C435.832 320.089 435.678 319.907 435.556 319.702C435.435 319.497 435.374 319.249 435.374 318.96C435.374 318.689 435.426 318.437 435.528 318.204C435.64 317.961 435.794 317.756 435.99 317.588C436.196 317.411 436.443 317.275 436.732 317.182C437.022 317.079 437.348 317.028 437.712 317.028C438.142 317.028 438.534 317.103 438.888 317.252C439.252 317.401 439.565 317.583 439.826 317.798L439.28 318.526C439.047 318.349 438.804 318.204 438.552 318.092C438.3 317.98 438.025 317.924 437.726 317.924C437.297 317.924 436.98 318.022 436.774 318.218C436.578 318.414 436.48 318.643 436.48 318.904C436.48 319.063 436.522 319.203 436.606 319.324C436.69 319.436 436.802 319.539 436.942 319.632C437.082 319.716 437.241 319.795 437.418 319.87C437.605 319.935 437.796 320.005 437.992 320.08C438.235 320.173 438.478 320.271 438.72 320.374C438.972 320.477 439.196 320.607 439.392 320.766C439.588 320.915 439.747 321.102 439.868 321.326C439.999 321.55 440.064 321.821 440.064 322.138C440.064 322.418 440.008 322.679 439.896 322.922C439.794 323.165 439.635 323.379 439.42 323.566C439.215 323.753 438.954 323.897 438.636 324C438.328 324.112 437.974 324.168 437.572 324.168ZM444.348 324.168C443.9 324.168 443.48 324.089 443.088 323.93C442.696 323.771 442.355 323.543 442.066 323.244C441.786 322.936 441.562 322.563 441.394 322.124C441.235 321.676 441.156 321.172 441.156 320.612C441.156 320.043 441.244 319.539 441.422 319.1C441.599 318.652 441.837 318.274 442.136 317.966C442.434 317.658 442.78 317.425 443.172 317.266C443.573 317.107 443.993 317.028 444.432 317.028C444.88 317.028 445.262 317.107 445.58 317.266C445.897 317.425 446.177 317.611 446.42 317.826L445.832 318.582C445.636 318.405 445.426 318.26 445.202 318.148C444.987 318.036 444.744 317.98 444.474 317.98C444.166 317.98 443.881 318.045 443.62 318.176C443.358 318.297 443.134 318.475 442.948 318.708C442.761 318.941 442.612 319.221 442.5 319.548C442.397 319.865 442.346 320.22 442.346 320.612C442.346 321.004 442.397 321.359 442.5 321.676C442.602 321.993 442.742 322.269 442.92 322.502C443.106 322.726 443.33 322.903 443.592 323.034C443.853 323.155 444.138 323.216 444.446 323.216C444.763 323.216 445.052 323.151 445.314 323.02C445.584 322.88 445.827 322.717 446.042 322.53L446.546 323.3C446.238 323.571 445.897 323.785 445.524 323.944C445.15 324.093 444.758 324.168 444.348 324.168ZM450.39 324.168C449.97 324.168 449.568 324.089 449.186 323.93C448.812 323.771 448.481 323.543 448.192 323.244C447.902 322.936 447.669 322.563 447.492 322.124C447.324 321.676 447.24 321.172 447.24 320.612C447.24 320.043 447.324 319.539 447.492 319.1C447.669 318.652 447.902 318.274 448.192 317.966C448.481 317.658 448.812 317.425 449.186 317.266C449.568 317.107 449.97 317.028 450.39 317.028C450.81 317.028 451.206 317.107 451.58 317.266C451.962 317.425 452.298 317.658 452.588 317.966C452.877 318.274 453.106 318.652 453.274 319.1C453.451 319.539 453.54 320.043 453.54 320.612C453.54 321.172 453.451 321.676 453.274 322.124C453.106 322.563 452.877 322.936 452.588 323.244C452.298 323.543 451.962 323.771 451.58 323.93C451.206 324.089 450.81 324.168 450.39 324.168ZM450.39 323.216C450.679 323.216 450.945 323.155 451.188 323.034C451.43 322.903 451.636 322.726 451.804 322.502C451.981 322.269 452.116 321.993 452.21 321.676C452.303 321.359 452.35 321.004 452.35 320.612C452.35 320.22 452.303 319.865 452.21 319.548C452.116 319.221 451.981 318.941 451.804 318.708C451.636 318.475 451.43 318.297 451.188 318.176C450.945 318.045 450.679 317.98 450.39 317.98C450.1 317.98 449.834 318.045 449.592 318.176C449.349 318.297 449.139 318.475 448.962 318.708C448.794 318.941 448.663 319.221 448.57 319.548C448.476 319.865 448.43 320.22 448.43 320.612C448.43 321.004 448.476 321.359 448.57 321.676C448.663 321.993 448.794 322.269 448.962 322.502C449.139 322.726 449.349 322.903 449.592 323.034C449.834 323.155 450.1 323.216 450.39 323.216ZM455.332 324V317.196H456.284L456.382 318.428H456.424C456.657 317.999 456.937 317.658 457.264 317.406C457.6 317.154 457.964 317.028 458.356 317.028C458.626 317.028 458.869 317.075 459.084 317.168L458.86 318.176C458.748 318.139 458.645 318.111 458.552 318.092C458.458 318.073 458.342 318.064 458.202 318.064C457.912 318.064 457.609 318.181 457.292 318.414C456.984 318.647 456.713 319.053 456.48 319.632V324H455.332ZM462.806 324.168C462.349 324.168 461.92 324.089 461.518 323.93C461.126 323.762 460.781 323.529 460.482 323.23C460.193 322.922 459.964 322.549 459.796 322.11C459.628 321.671 459.544 321.172 459.544 320.612C459.544 320.052 459.628 319.553 459.796 319.114C459.974 318.666 460.202 318.288 460.482 317.98C460.772 317.672 461.098 317.439 461.462 317.28C461.826 317.112 462.204 317.028 462.596 317.028C463.026 317.028 463.408 317.103 463.744 317.252C464.09 317.401 464.374 317.616 464.598 317.896C464.832 318.176 465.009 318.512 465.13 318.904C465.252 319.296 465.312 319.735 465.312 320.22C465.312 320.341 465.308 320.463 465.298 320.584C465.298 320.696 465.289 320.794 465.27 320.878H460.678C460.725 321.606 460.949 322.185 461.35 322.614C461.761 323.034 462.293 323.244 462.946 323.244C463.273 323.244 463.572 323.197 463.842 323.104C464.122 323.001 464.388 322.871 464.64 322.712L465.046 323.468C464.748 323.655 464.416 323.818 464.052 323.958C463.688 324.098 463.273 324.168 462.806 324.168ZM460.664 320.052H464.304C464.304 319.361 464.155 318.839 463.856 318.484C463.567 318.12 463.156 317.938 462.624 317.938C462.382 317.938 462.148 317.985 461.924 318.078C461.71 318.171 461.514 318.311 461.336 318.498C461.159 318.675 461.01 318.895 460.888 319.156C460.776 319.417 460.702 319.716 460.664 320.052Z" fill="#545770"/>
<circle cx="394" cy="295" r="4" fill="#E65454"/>
<circle cx="394" cy="319" r="4" fill="#52C95E"/>
</svg>
