<svg width="171" height="30" viewBox="0 0 171 30" fill="none" xmlns="http://www.w3.org/2000/svg">
<path d="M5.2168 9.66602C4.92773 9.83398 4.62891 9.95898 4.32031 10.041C4.01562 10.127 3.70312 10.1699 3.38281 10.1699C2.36719 10.1699 1.57227 9.86523 0.998047 9.25586C0.427734 8.64648 0.142578 7.80273 0.142578 6.72461C0.142578 5.64648 0.427734 4.80273 0.998047 4.19336C1.57227 3.58398 2.36719 3.2793 3.38281 3.2793C3.69922 3.2793 4.00781 3.32031 4.30859 3.40234C4.60938 3.48438 4.91211 3.61133 5.2168 3.7832V4.91406C4.93164 4.66016 4.64453 4.47656 4.35547 4.36328C4.07031 4.25 3.74609 4.19336 3.38281 4.19336C2.70703 4.19336 2.1875 4.41211 1.82422 4.84961C1.46094 5.28711 1.2793 5.91211 1.2793 6.72461C1.2793 7.5332 1.46094 8.1582 1.82422 8.59961C2.19141 9.03711 2.71094 9.25586 3.38281 9.25586C3.75781 9.25586 4.09375 9.19922 4.39062 9.08594C4.6875 8.96875 4.96289 8.78906 5.2168 8.54688V9.66602ZM12.3887 5.93359V10H11.3047V5.93359C11.3047 5.34375 11.2012 4.91016 10.9941 4.63281C10.7871 4.35547 10.4629 4.2168 10.0215 4.2168C9.51758 4.2168 9.12891 4.39648 8.85547 4.75586C8.58594 5.11133 8.45117 5.62305 8.45117 6.29102V10H7.37305V0.882812H8.45117V4.42188C8.64258 4.04688 8.90234 3.76367 9.23047 3.57227C9.55859 3.37695 9.94727 3.2793 10.3965 3.2793C11.0645 3.2793 11.5625 3.5 11.8906 3.94141C12.2227 4.37891 12.3887 5.04297 12.3887 5.93359ZM20.0234 6.17969V6.70703H15.3535V6.74219C15.3223 7.63672 15.4922 8.2793 15.8633 8.66992C16.2383 9.06055 16.7656 9.25586 17.4453 9.25586C17.7891 9.25586 18.1484 9.20117 18.5234 9.0918C18.8984 8.98242 19.2988 8.81641 19.7246 8.59375V9.66602C19.3145 9.83398 18.918 9.95898 18.5352 10.041C18.1562 10.127 17.7891 10.1699 17.4336 10.1699C16.4141 10.1699 15.6172 9.86523 15.043 9.25586C14.4688 8.64258 14.1816 7.79883 14.1816 6.72461C14.1816 5.67773 14.4629 4.8418 15.0254 4.2168C15.5879 3.5918 16.3379 3.2793 17.2754 3.2793C18.1113 3.2793 18.7695 3.5625 19.25 4.12891C19.7344 4.69531 19.9922 5.37891 20.0234 6.17969ZM18.9453 5.86328C18.8984 5.41016 18.7324 5.01953 18.4473 4.69141C18.166 4.35938 17.7598 4.19336 17.2285 4.19336C16.709 4.19336 16.2812 4.36523 15.9453 4.70898C15.6094 5.05273 15.4258 5.43945 15.3945 5.86914L18.9453 5.86328ZM26.9082 9.66602C26.6191 9.83398 26.3203 9.95898 26.0117 10.041C25.707 10.127 25.3945 10.1699 25.0742 10.1699C24.0586 10.1699 23.2637 9.86523 22.6895 9.25586C22.1191 8.64648 21.834 7.80273 21.834 6.72461C21.834 5.64648 22.1191 4.80273 22.6895 4.19336C23.2637 3.58398 24.0586 3.2793 25.0742 3.2793C25.3906 3.2793 25.6992 3.32031 26 3.40234C26.3008 3.48438 26.6035 3.61133 26.9082 3.7832V4.91406C26.623 4.66016 26.3359 4.47656 26.0469 4.36328C25.7617 4.25 25.4375 4.19336 25.0742 4.19336C24.3984 4.19336 23.8789 4.41211 23.5156 4.84961C23.1523 5.28711 22.9707 5.91211 22.9707 6.72461C22.9707 7.5332 23.1523 8.1582 23.5156 8.59961C23.8828 9.03711 24.4023 9.25586 25.0742 9.25586C25.4492 9.25586 25.7852 9.19922 26.082 9.08594C26.3789 8.96875 26.6543 8.78906 26.9082 8.54688V9.66602ZM29.3047 0.882812H30.418V6.16211L33.248 3.4375H34.5605L31.9766 5.91016L34.9648 10H33.6465L31.2207 6.61328L30.418 7.36914V10H29.3047V0.882812ZM5.76758 23.791C5.53711 23.6113 5.30273 23.4805 5.06445 23.3984C4.82617 23.3164 4.56445 23.2754 4.2793 23.2754C3.60742 23.2754 3.09375 23.4863 2.73828 23.9082C2.38281 24.3301 2.20508 24.9395 2.20508 25.7363V29H1.12109V22.4375H2.20508V23.7207C2.38477 23.2559 2.66016 22.9004 3.03125 22.6543C3.40625 22.4043 3.84961 22.2793 4.36133 22.2793C4.62695 22.2793 4.875 22.3125 5.10547 22.3789C5.33594 22.4453 5.55664 22.5488 5.76758 22.6895V23.791ZM12.793 25.1797V25.707H8.12305V25.7422C8.0918 26.6367 8.26172 27.2793 8.63281 27.6699C9.00781 28.0605 9.53516 28.2559 10.2148 28.2559C10.5586 28.2559 10.918 28.2012 11.293 28.0918C11.668 27.9824 12.0684 27.8164 12.4941 27.5938V28.666C12.084 28.834 11.6875 28.959 11.3047 29.041C10.9258 29.127 10.5586 29.1699 10.2031 29.1699C9.18359 29.1699 8.38672 28.8652 7.8125 28.2559C7.23828 27.6426 6.95117 26.7988 6.95117 25.7246C6.95117 24.6777 7.23242 23.8418 7.79492 23.2168C8.35742 22.5918 9.10742 22.2793 10.0449 22.2793C10.8809 22.2793 11.5391 22.5625 12.0195 23.1289C12.5039 23.6953 12.7617 24.3789 12.793 25.1797ZM11.7148 24.8633C11.668 24.4102 11.502 24.0195 11.2168 23.6914C10.9355 23.3594 10.5293 23.1934 9.99805 23.1934C9.47852 23.1934 9.05078 23.3652 8.71484 23.709C8.37891 24.0527 8.19531 24.4395 8.16406 24.8691L11.7148 24.8633ZM19.1621 22.666V23.7207C18.8535 23.541 18.543 23.4062 18.2305 23.3164C17.918 23.2266 17.5996 23.1816 17.2754 23.1816C16.7871 23.1816 16.4219 23.2617 16.1797 23.4219C15.9414 23.5781 15.8223 23.8184 15.8223 24.1426C15.8223 24.4355 15.9121 24.6543 16.0918 24.7988C16.2715 24.9434 16.7188 25.084 17.4336 25.2207L17.8672 25.3027C18.4023 25.4043 18.8066 25.6074 19.0801 25.9121C19.3574 26.2168 19.4961 26.6133 19.4961 27.1016C19.4961 27.75 19.2656 28.2578 18.8047 28.625C18.3438 28.9883 17.7031 29.1699 16.8828 29.1699C16.5586 29.1699 16.2188 29.1348 15.8633 29.0645C15.5078 28.998 15.123 28.8965 14.709 28.7598V27.6465C15.1113 27.8535 15.4961 28.0098 15.8633 28.1152C16.2305 28.2168 16.5781 28.2676 16.9062 28.2676C17.3828 28.2676 17.752 28.1719 18.0137 27.9805C18.2754 27.7852 18.4062 27.5137 18.4062 27.166C18.4062 26.666 17.9277 26.3203 16.9707 26.1289L16.9238 26.1172L16.5195 26.0352C15.8984 25.9141 15.4453 25.7109 15.1602 25.4258C14.875 25.1367 14.7324 24.7441 14.7324 24.248C14.7324 23.6191 14.9453 23.1348 15.3711 22.7949C15.7969 22.4512 16.4043 22.2793 17.1934 22.2793C17.5449 22.2793 17.8828 22.3125 18.207 22.3789C18.5312 22.4414 18.8496 22.5371 19.1621 22.666ZM21.834 26.5156V22.4492H22.9121V26.5156C22.9121 27.1055 23.0156 27.5391 23.2227 27.8164C23.4336 28.0938 23.7578 28.2324 24.1953 28.2324C24.7031 28.2324 25.0918 28.0547 25.3613 27.6992C25.6309 27.3398 25.7656 26.8262 25.7656 26.1582V22.4492H26.8496V29H25.7656V28.0156C25.5742 28.3945 25.3125 28.6816 24.9805 28.877C24.6523 29.0723 24.2676 29.1699 23.8262 29.1699C23.1543 29.1699 22.6543 28.9512 22.3262 28.5137C21.998 28.0723 21.834 27.4062 21.834 26.5156ZM32.1348 26.627C32.1348 27.1113 32.2227 27.4766 32.3984 27.7227C32.5781 27.9688 32.8418 28.0918 33.1895 28.0918H34.4492V29H33.084C32.4395 29 31.9395 28.7949 31.584 28.3848C31.2324 27.9707 31.0566 27.3848 31.0566 26.627V20.6914H29.3281V19.8477H32.1348V26.627ZM38.75 20.5742V22.4375H41.1992V23.2754H38.75V26.8379C38.75 27.3223 38.8418 27.6602 39.0254 27.8516C39.209 28.043 39.5293 28.1387 39.9863 28.1387H41.1992V29H39.8809C39.0723 29 38.502 28.8379 38.1699 28.5137C37.8379 28.1895 37.6719 27.6309 37.6719 26.8379V23.2754H35.9199V22.4375H37.6719V20.5742H38.75Z" fill="#D28445"/>
<path d="M42.8984 7.07031H49.0918V8.06055H42.8984V7.07031ZM42.8984 4.31055H49.0918V5.30078H42.8984V4.31055ZM62.7734 1.55078V2.75195C62.4141 2.52148 62.0527 2.34766 61.6895 2.23047C61.3301 2.11328 60.9668 2.05469 60.5996 2.05469C60.041 2.05469 59.5996 2.18555 59.2754 2.44727C58.9512 2.70508 58.7891 3.05469 58.7891 3.49609C58.7891 3.88281 58.8945 4.17773 59.1055 4.38086C59.3203 4.58398 59.7188 4.75391 60.3008 4.89062L60.9219 5.03125C61.7422 5.22266 62.3398 5.52344 62.7148 5.93359C63.0898 6.34375 63.2773 6.90234 63.2773 7.60938C63.2773 8.44141 63.0195 9.07617 62.5039 9.51367C61.9883 9.95117 61.2383 10.1699 60.2539 10.1699C59.8438 10.1699 59.4316 10.125 59.0176 10.0352C58.6035 9.94922 58.1875 9.81836 57.7695 9.64258V8.38281C58.2188 8.66797 58.6426 8.87695 59.041 9.00977C59.4434 9.14258 59.8477 9.20898 60.2539 9.20898C60.8516 9.20898 61.3164 9.07617 61.6484 8.81055C61.9805 8.54102 62.1465 8.16602 62.1465 7.68555C62.1465 7.24805 62.0312 6.91406 61.8008 6.68359C61.5742 6.45312 61.1777 6.27539 60.6113 6.15039L59.9785 6.00391C59.166 5.82031 58.5762 5.54297 58.209 5.17188C57.8418 4.80078 57.6582 4.30273 57.6582 3.67773C57.6582 2.89648 57.9199 2.27148 58.4434 1.80273C58.9707 1.33008 59.6699 1.09375 60.541 1.09375C60.877 1.09375 61.2305 1.13281 61.6016 1.21094C61.9727 1.28516 62.3633 1.39844 62.7734 1.55078ZM67.6719 1.57422V3.4375H70.1211V4.27539H67.6719V7.83789C67.6719 8.32227 67.7637 8.66016 67.9473 8.85156C68.1309 9.04297 68.4512 9.13867 68.9082 9.13867H70.1211V10H68.8027C67.9941 10 67.4238 9.83789 67.0918 9.51367C66.7598 9.18945 66.5938 8.63086 66.5938 7.83789V4.27539H64.8418V3.4375H66.5938V1.57422H67.6719ZM78.0723 4.79102C77.8418 4.61133 77.6074 4.48047 77.3691 4.39844C77.1309 4.31641 76.8691 4.27539 76.584 4.27539C75.9121 4.27539 75.3984 4.48633 75.043 4.9082C74.6875 5.33008 74.5098 5.93945 74.5098 6.73633V10H73.4258V3.4375H74.5098V4.7207C74.6895 4.25586 74.9648 3.90039 75.3359 3.6543C75.7109 3.4043 76.1543 3.2793 76.666 3.2793C76.9316 3.2793 77.1797 3.3125 77.4102 3.37891C77.6406 3.44531 77.8613 3.54883 78.0723 3.68945V4.79102ZM80.3867 3.46094H83.1465V9.16211H85.2852V10H79.9297V9.16211H82.0684V4.29883H80.3867V3.46094ZM82.0684 0.912109H83.1465V2.27148H82.0684V0.912109ZM91.9238 5.93359V10H90.8398V5.93359C90.8398 5.34375 90.7363 4.91016 90.5293 4.63281C90.3223 4.35547 89.998 4.2168 89.5566 4.2168C89.0527 4.2168 88.6641 4.39648 88.3906 4.75586C88.1211 5.11133 87.9863 5.62305 87.9863 6.29102V10H86.9082V3.4375H87.9863V4.42188C88.1777 4.04688 88.4375 3.76367 88.7656 3.57227C89.0938 3.37695 89.4824 3.2793 89.9316 3.2793C90.5996 3.2793 91.0977 3.5 91.4258 3.94141C91.7578 4.37891 91.9238 5.04297 91.9238 5.93359ZM98.0234 6.66602C98.0234 5.85742 97.8906 5.24414 97.625 4.82617C97.3633 4.4043 96.9805 4.19336 96.4766 4.19336C95.9492 4.19336 95.5469 4.4043 95.2695 4.82617C94.9922 5.24414 94.8535 5.85742 94.8535 6.66602C94.8535 7.47461 94.9922 8.0918 95.2695 8.51758C95.5508 8.93945 95.957 9.15039 96.4883 9.15039C96.9844 9.15039 97.3633 8.9375 97.625 8.51172C97.8906 8.08594 98.0234 7.4707 98.0234 6.66602ZM99.1016 9.57812C99.1016 10.5625 98.8691 11.3086 98.4043 11.8164C97.9395 12.3242 97.2559 12.5781 96.3535 12.5781C96.0566 12.5781 95.7461 12.5508 95.4219 12.4961C95.0977 12.4414 94.7734 12.3613 94.4492 12.2559V11.1895C94.832 11.3691 95.1797 11.502 95.4922 11.5879C95.8047 11.6738 96.0918 11.7168 96.3535 11.7168C96.9355 11.7168 97.3594 11.5586 97.625 11.2422C97.8906 10.9258 98.0234 10.4238 98.0234 9.73633V9.68945V8.95703C97.8516 9.32422 97.6172 9.59766 97.3203 9.77734C97.0234 9.95703 96.6621 10.0469 96.2363 10.0469C95.4707 10.0469 94.8594 9.74023 94.4023 9.12695C93.9453 8.51367 93.7168 7.69336 93.7168 6.66602C93.7168 5.63477 93.9453 4.8125 94.4023 4.19922C94.8594 3.58594 95.4707 3.2793 96.2363 3.2793C96.6582 3.2793 97.0156 3.36328 97.3086 3.53125C97.6016 3.69922 97.8398 3.95898 98.0234 4.31055V3.46094H99.1016V9.57812ZM100.438 1.28125H102.02L103.531 5.72266L105.055 1.28125H106.643V10H105.547V2.29492L103.988 6.88867H103.092L101.527 2.29492V10H100.438V1.28125ZM109.309 3.46094H112.068V9.16211H114.207V10H108.852V9.16211H110.99V4.29883H109.309V3.46094ZM110.99 0.912109H112.068V2.27148H110.99V0.912109ZM120.389 3.66602V4.7207C120.08 4.54102 119.77 4.40625 119.457 4.31641C119.145 4.22656 118.826 4.18164 118.502 4.18164C118.014 4.18164 117.648 4.26172 117.406 4.42188C117.168 4.57812 117.049 4.81836 117.049 5.14258C117.049 5.43555 117.139 5.6543 117.318 5.79883C117.498 5.94336 117.945 6.08398 118.66 6.2207L119.094 6.30273C119.629 6.4043 120.033 6.60742 120.307 6.91211C120.584 7.2168 120.723 7.61328 120.723 8.10156C120.723 8.75 120.492 9.25781 120.031 9.625C119.57 9.98828 118.93 10.1699 118.109 10.1699C117.785 10.1699 117.445 10.1348 117.09 10.0645C116.734 9.99805 116.35 9.89648 115.936 9.75977V8.64648C116.338 8.85352 116.723 9.00977 117.09 9.11523C117.457 9.2168 117.805 9.26758 118.133 9.26758C118.609 9.26758 118.979 9.17188 119.24 8.98047C119.502 8.78516 119.633 8.51367 119.633 8.16602C119.633 7.66602 119.154 7.32031 118.197 7.12891L118.15 7.11719L117.746 7.03516C117.125 6.91406 116.672 6.71094 116.387 6.42578C116.102 6.13672 115.959 5.74414 115.959 5.24805C115.959 4.61914 116.172 4.13477 116.598 3.79492C117.023 3.45117 117.631 3.2793 118.42 3.2793C118.771 3.2793 119.109 3.3125 119.434 3.37891C119.758 3.44141 120.076 3.53711 120.389 3.66602ZM125.879 4.10547C126.012 3.82422 126.18 3.61719 126.383 3.48438C126.59 3.34766 126.838 3.2793 127.127 3.2793C127.654 3.2793 128.025 3.48438 128.24 3.89453C128.459 4.30078 128.568 5.06836 128.568 6.19727V10H127.584V6.24414C127.584 5.31836 127.531 4.74414 127.426 4.52148C127.324 4.29492 127.137 4.18164 126.863 4.18164C126.551 4.18164 126.336 4.30273 126.219 4.54492C126.105 4.7832 126.049 5.34961 126.049 6.24414V10H125.064V6.24414C125.064 5.30664 125.008 4.72852 124.895 4.50977C124.785 4.29102 124.586 4.18164 124.297 4.18164C124.012 4.18164 123.812 4.30273 123.699 4.54492C123.59 4.7832 123.535 5.34961 123.535 6.24414V10H122.557V3.4375H123.535V4C123.664 3.76562 123.824 3.58789 124.016 3.4668C124.211 3.3418 124.432 3.2793 124.678 3.2793C124.975 3.2793 125.221 3.34766 125.416 3.48438C125.615 3.62109 125.77 3.82812 125.879 4.10547ZM133.262 6.70117H132.904C132.275 6.70117 131.801 6.8125 131.48 7.03516C131.164 7.25391 131.006 7.58203 131.006 8.01953C131.006 8.41406 131.125 8.7207 131.363 8.93945C131.602 9.1582 131.932 9.26758 132.354 9.26758C132.947 9.26758 133.414 9.0625 133.754 8.65234C134.094 8.23828 134.266 7.66797 134.27 6.94141V6.70117H133.262ZM135.354 6.25586V10H134.27V9.02734C134.039 9.41797 133.748 9.70703 133.396 9.89453C133.049 10.0781 132.625 10.1699 132.125 10.1699C131.457 10.1699 130.924 9.98242 130.525 9.60742C130.127 9.22852 129.928 8.72266 129.928 8.08984C129.928 7.35938 130.172 6.80469 130.66 6.42578C131.152 6.04688 131.873 5.85742 132.822 5.85742H134.27V5.6875C134.266 5.16406 134.133 4.78516 133.871 4.55078C133.609 4.3125 133.191 4.19336 132.617 4.19336C132.25 4.19336 131.879 4.24609 131.504 4.35156C131.129 4.45703 130.764 4.61133 130.408 4.81445V3.73633C130.807 3.58398 131.188 3.4707 131.551 3.39648C131.918 3.31836 132.273 3.2793 132.617 3.2793C133.16 3.2793 133.623 3.35938 134.006 3.51953C134.393 3.67969 134.705 3.91992 134.943 4.24023C135.092 4.43555 135.197 4.67773 135.26 4.9668C135.322 5.25195 135.354 5.68164 135.354 6.25586ZM139.977 1.57422V3.4375H142.426V4.27539H139.977V7.83789C139.977 8.32227 140.068 8.66016 140.252 8.85156C140.436 9.04297 140.756 9.13867 141.213 9.13867H142.426V10H141.107C140.299 10 139.729 9.83789 139.396 9.51367C139.064 9.18945 138.898 8.63086 138.898 7.83789V4.27539H137.146V3.4375H138.898V1.57422H139.977ZM149.826 9.66602C149.537 9.83398 149.238 9.95898 148.93 10.041C148.625 10.127 148.312 10.1699 147.992 10.1699C146.977 10.1699 146.182 9.86523 145.607 9.25586C145.037 8.64648 144.752 7.80273 144.752 6.72461C144.752 5.64648 145.037 4.80273 145.607 4.19336C146.182 3.58398 146.977 3.2793 147.992 3.2793C148.309 3.2793 148.617 3.32031 148.918 3.40234C149.219 3.48438 149.521 3.61133 149.826 3.7832V4.91406C149.541 4.66016 149.254 4.47656 148.965 4.36328C148.68 4.25 148.355 4.19336 147.992 4.19336C147.316 4.19336 146.797 4.41211 146.434 4.84961C146.07 5.28711 145.889 5.91211 145.889 6.72461C145.889 7.5332 146.07 8.1582 146.434 8.59961C146.801 9.03711 147.32 9.25586 147.992 9.25586C148.367 9.25586 148.703 9.19922 149 9.08594C149.297 8.96875 149.572 8.78906 149.826 8.54688V9.66602ZM156.998 5.93359V10H155.914V5.93359C155.914 5.34375 155.811 4.91016 155.604 4.63281C155.396 4.35547 155.072 4.2168 154.631 4.2168C154.127 4.2168 153.738 4.39648 153.465 4.75586C153.195 5.11133 153.061 5.62305 153.061 6.29102V10H151.982V0.882812H153.061V4.42188C153.252 4.04688 153.512 3.76367 153.84 3.57227C154.168 3.37695 154.557 3.2793 155.006 3.2793C155.674 3.2793 156.172 3.5 156.5 3.94141C156.832 4.37891 156.998 5.04297 156.998 5.93359ZM163.08 0.308594C162.561 1.19922 162.172 2.08789 161.914 2.97461C161.66 3.85742 161.533 4.74805 161.533 5.64648C161.533 6.54102 161.66 7.43164 161.914 8.31836C162.172 9.20508 162.561 10.0977 163.08 10.9961H162.143C161.553 10.0664 161.113 9.16211 160.824 8.2832C160.535 7.40039 160.391 6.52148 160.391 5.64648C160.391 4.77539 160.535 3.89844 160.824 3.01562C161.113 2.13281 161.553 1.23047 162.143 0.308594H163.08ZM167.34 0.308594H168.277C168.867 1.23047 169.307 2.13281 169.596 3.01562C169.885 3.89844 170.029 4.77539 170.029 5.64648C170.029 6.52539 169.885 7.40625 169.596 8.28906C169.307 9.17188 168.867 10.0742 168.277 10.9961H167.34C167.859 10.0898 168.246 9.19336 168.5 8.30664C168.758 7.41992 168.887 6.5332 168.887 5.64648C168.887 4.75586 168.758 3.86719 168.5 2.98047C168.246 2.09375 167.859 1.20312 167.34 0.308594ZM50.1289 26.0703H56.3223V27.0605H50.1289V26.0703ZM50.1289 23.3105H56.3223V24.3008H50.1289V23.3105ZM70.291 28.666C70.002 28.834 69.7031 28.959 69.3945 29.041C69.0898 29.127 68.7773 29.1699 68.457 29.1699C67.4414 29.1699 66.6465 28.8652 66.0723 28.2559C65.502 27.6465 65.2168 26.8027 65.2168 25.7246C65.2168 24.6465 65.502 23.8027 66.0723 23.1934C66.6465 22.584 67.4414 22.2793 68.457 22.2793C68.7734 22.2793 69.082 22.3203 69.3828 22.4023C69.6836 22.4844 69.9863 22.6113 70.291 22.7832V23.9141C70.0059 23.6602 69.7188 23.4766 69.4297 23.3633C69.1445 23.25 68.8203 23.1934 68.457 23.1934C67.7812 23.1934 67.2617 23.4121 66.8984 23.8496C66.5352 24.2871 66.3535 24.9121 66.3535 25.7246C66.3535 26.5332 66.5352 27.1582 66.8984 27.5996C67.2656 28.0371 67.7852 28.2559 68.457 28.2559C68.832 28.2559 69.168 28.1992 69.4648 28.0859C69.7617 27.9688 70.0371 27.7891 70.291 27.5469V28.666ZM77.4629 24.9336V29H76.3789V24.9336C76.3789 24.3438 76.2754 23.9102 76.0684 23.6328C75.8613 23.3555 75.5371 23.2168 75.0957 23.2168C74.5918 23.2168 74.2031 23.3965 73.9297 23.7559C73.6602 24.1113 73.5254 24.623 73.5254 25.291V29H72.4473V19.8828H73.5254V23.4219C73.7168 23.0469 73.9766 22.7637 74.3047 22.5723C74.6328 22.377 75.0215 22.2793 75.4707 22.2793C76.1387 22.2793 76.6367 22.5 76.9648 22.9414C77.2969 23.3789 77.4629 24.043 77.4629 24.9336ZM85.0977 25.1797V25.707H80.4277V25.7422C80.3965 26.6367 80.5664 27.2793 80.9375 27.6699C81.3125 28.0605 81.8398 28.2559 82.5195 28.2559C82.8633 28.2559 83.2227 28.2012 83.5977 28.0918C83.9727 27.9824 84.373 27.8164 84.7988 27.5938V28.666C84.3887 28.834 83.9922 28.959 83.6094 29.041C83.2305 29.127 82.8633 29.1699 82.5078 29.1699C81.4883 29.1699 80.6914 28.8652 80.1172 28.2559C79.543 27.6426 79.2559 26.7988 79.2559 25.7246C79.2559 24.6777 79.5371 23.8418 80.0996 23.2168C80.6621 22.5918 81.4121 22.2793 82.3496 22.2793C83.1855 22.2793 83.8438 22.5625 84.3242 23.1289C84.8086 23.6953 85.0664 24.3789 85.0977 25.1797ZM84.0195 24.8633C83.9727 24.4102 83.8066 24.0195 83.5215 23.6914C83.2402 23.3594 82.834 23.1934 82.3027 23.1934C81.7832 23.1934 81.3555 23.3652 81.0195 23.709C80.6836 24.0527 80.5 24.4395 80.4688 24.8691L84.0195 24.8633ZM91.9824 28.666C91.6934 28.834 91.3945 28.959 91.0859 29.041C90.7812 29.127 90.4688 29.1699 90.1484 29.1699C89.1328 29.1699 88.3379 28.8652 87.7637 28.2559C87.1934 27.6465 86.9082 26.8027 86.9082 25.7246C86.9082 24.6465 87.1934 23.8027 87.7637 23.1934C88.3379 22.584 89.1328 22.2793 90.1484 22.2793C90.4648 22.2793 90.7734 22.3203 91.0742 22.4023C91.375 22.4844 91.6777 22.6113 91.9824 22.7832V23.9141C91.6973 23.6602 91.4102 23.4766 91.1211 23.3633C90.8359 23.25 90.5117 23.1934 90.1484 23.1934C89.4727 23.1934 88.9531 23.4121 88.5898 23.8496C88.2266 24.2871 88.0449 24.9121 88.0449 25.7246C88.0449 26.5332 88.2266 27.1582 88.5898 27.5996C88.957 28.0371 89.4766 28.2559 90.1484 28.2559C90.5234 28.2559 90.8594 28.1992 91.1562 28.0859C91.4531 27.9688 91.7285 27.7891 91.9824 27.5469V28.666ZM94.3789 19.8828H95.4922V25.1621L98.3223 22.4375H99.6348L97.0508 24.9102L100.039 29H98.7207L96.2949 25.6133L95.4922 26.3691V29H94.3789V19.8828ZM102.506 26.6328H104.568V29H102.506V26.6328ZM114.225 23.791C113.994 23.6113 113.76 23.4805 113.521 23.3984C113.283 23.3164 113.021 23.2754 112.736 23.2754C112.064 23.2754 111.551 23.4863 111.195 23.9082C110.84 24.3301 110.662 24.9395 110.662 25.7363V29H109.578V22.4375H110.662V23.7207C110.842 23.2559 111.117 22.9004 111.488 22.6543C111.863 22.4043 112.307 22.2793 112.818 22.2793C113.084 22.2793 113.332 22.3125 113.562 22.3789C113.793 22.4453 114.014 22.5488 114.225 22.6895V23.791ZM115.83 26.5156V22.4492H116.908V26.5156C116.908 27.1055 117.012 27.5391 117.219 27.8164C117.43 28.0938 117.754 28.2324 118.191 28.2324C118.699 28.2324 119.088 28.0547 119.357 27.6992C119.627 27.3398 119.762 26.8262 119.762 26.1582V22.4492H120.846V29H119.762V28.0156C119.57 28.3945 119.309 28.6816 118.977 28.877C118.648 29.0723 118.264 29.1699 117.822 29.1699C117.15 29.1699 116.65 28.9512 116.322 28.5137C115.994 28.0723 115.83 27.4062 115.83 26.5156ZM128.076 24.9336V29H126.992V24.9336C126.992 24.3438 126.889 23.9102 126.682 23.6328C126.475 23.3555 126.15 23.2168 125.709 23.2168C125.205 23.2168 124.816 23.3965 124.543 23.7559C124.273 24.1113 124.139 24.623 124.139 25.291V29H123.061V22.4375H124.139V23.4219C124.33 23.0469 124.59 22.7637 124.918 22.5723C125.246 22.377 125.635 22.2793 126.084 22.2793C126.752 22.2793 127.25 22.5 127.578 22.9414C127.91 23.3789 128.076 24.043 128.076 24.9336ZM134.158 19.3086C133.639 20.1992 133.25 21.0879 132.992 21.9746C132.738 22.8574 132.611 23.748 132.611 24.6465C132.611 25.541 132.738 26.4316 132.992 27.3184C133.25 28.2051 133.639 29.0977 134.158 29.9961H133.221C132.631 29.0664 132.191 28.1621 131.902 27.2832C131.613 26.4004 131.469 25.5215 131.469 24.6465C131.469 23.7754 131.613 22.8984 131.902 22.0156C132.191 21.1328 132.631 20.2305 133.221 19.3086H134.158ZM141.406 23.2754V19.8828H142.484V29H141.406V28.1738C141.227 28.498 140.986 28.7461 140.686 28.918C140.389 29.0859 140.045 29.1699 139.654 29.1699C138.861 29.1699 138.236 28.8633 137.779 28.25C137.326 27.6328 137.1 26.7832 137.1 25.7012C137.1 24.6348 137.328 23.7988 137.785 23.1934C138.242 22.584 138.865 22.2793 139.654 22.2793C140.049 22.2793 140.396 22.3652 140.697 22.5371C140.998 22.7051 141.234 22.9512 141.406 23.2754ZM138.236 25.7246C138.236 26.5605 138.369 27.1914 138.635 27.6172C138.9 28.043 139.293 28.2559 139.812 28.2559C140.332 28.2559 140.727 28.041 140.996 27.6113C141.27 27.1816 141.406 26.5527 141.406 25.7246C141.406 24.8926 141.27 24.2637 140.996 23.8379C140.727 23.4082 140.332 23.1934 139.812 23.1934C139.293 23.1934 138.9 23.4062 138.635 23.832C138.369 24.2578 138.236 24.8887 138.236 25.7246ZM149.838 19.8828V20.7793H148.613C148.227 20.7793 147.957 20.8594 147.805 21.0195C147.656 21.1758 147.582 21.4551 147.582 21.8574V22.4375H149.838V23.2754H147.582V29H146.504V23.2754H144.752V22.4375H146.504V21.9805C146.504 21.2617 146.668 20.7324 146.996 20.3926C147.328 20.0527 147.844 19.8828 148.543 19.8828H149.838ZM152.879 19.3086H153.816C154.406 20.2305 154.846 21.1328 155.135 22.0156C155.424 22.8984 155.568 23.7754 155.568 24.6465C155.568 25.5254 155.424 26.4062 155.135 27.2891C154.846 28.1719 154.406 29.0742 153.816 29.9961H152.879C153.398 29.0898 153.785 28.1934 154.039 27.3066C154.297 26.4199 154.426 25.5332 154.426 24.6465C154.426 23.7559 154.297 22.8672 154.039 21.9805C153.785 21.0938 153.398 20.2031 152.879 19.3086Z" fill="#303245"/>
</svg>
