<svg width="308" height="49" viewBox="0 0 308 49" fill="none" xmlns="http://www.w3.org/2000/svg">
<path d="M5.2168 9.66602C4.92773 9.83398 4.62891 9.95898 4.32031 10.041C4.01562 10.127 3.70312 10.1699 3.38281 10.1699C2.36719 10.1699 1.57227 9.86523 0.998047 9.25586C0.427734 8.64648 0.142578 7.80273 0.142578 6.72461C0.142578 5.64648 0.427734 4.80273 0.998047 4.19336C1.57227 3.58398 2.36719 3.2793 3.38281 3.2793C3.69922 3.2793 4.00781 3.32031 4.30859 3.40234C4.60938 3.48438 4.91211 3.61133 5.2168 3.7832V4.91406C4.93164 4.66016 4.64453 4.47656 4.35547 4.36328C4.07031 4.25 3.74609 4.19336 3.38281 4.19336C2.70703 4.19336 2.1875 4.41211 1.82422 4.84961C1.46094 5.28711 1.2793 5.91211 1.2793 6.72461C1.2793 7.5332 1.46094 8.1582 1.82422 8.59961C2.19141 9.03711 2.71094 9.25586 3.38281 9.25586C3.75781 9.25586 4.09375 9.19922 4.39062 9.08594C4.6875 8.96875 4.96289 8.78906 5.2168 8.54688V9.66602ZM12.3887 5.93359V10H11.3047V5.93359C11.3047 5.34375 11.2012 4.91016 10.9941 4.63281C10.7871 4.35547 10.4629 4.2168 10.0215 4.2168C9.51758 4.2168 9.12891 4.39648 8.85547 4.75586C8.58594 5.11133 8.45117 5.62305 8.45117 6.29102V10H7.37305V0.882812H8.45117V4.42188C8.64258 4.04688 8.90234 3.76367 9.23047 3.57227C9.55859 3.37695 9.94727 3.2793 10.3965 3.2793C11.0645 3.2793 11.5625 3.5 11.8906 3.94141C12.2227 4.37891 12.3887 5.04297 12.3887 5.93359ZM20.0234 6.17969V6.70703H15.3535V6.74219C15.3223 7.63672 15.4922 8.2793 15.8633 8.66992C16.2383 9.06055 16.7656 9.25586 17.4453 9.25586C17.7891 9.25586 18.1484 9.20117 18.5234 9.0918C18.8984 8.98242 19.2988 8.81641 19.7246 8.59375V9.66602C19.3145 9.83398 18.918 9.95898 18.5352 10.041C18.1562 10.127 17.7891 10.1699 17.4336 10.1699C16.4141 10.1699 15.6172 9.86523 15.043 9.25586C14.4688 8.64258 14.1816 7.79883 14.1816 6.72461C14.1816 5.67773 14.4629 4.8418 15.0254 4.2168C15.5879 3.5918 16.3379 3.2793 17.2754 3.2793C18.1113 3.2793 18.7695 3.5625 19.25 4.12891C19.7344 4.69531 19.9922 5.37891 20.0234 6.17969ZM18.9453 5.86328C18.8984 5.41016 18.7324 5.01953 18.4473 4.69141C18.166 4.35938 17.7598 4.19336 17.2285 4.19336C16.709 4.19336 16.2812 4.36523 15.9453 4.70898C15.6094 5.05273 15.4258 5.43945 15.3945 5.86914L18.9453 5.86328ZM26.9082 9.66602C26.6191 9.83398 26.3203 9.95898 26.0117 10.041C25.707 10.127 25.3945 10.1699 25.0742 10.1699C24.0586 10.1699 23.2637 9.86523 22.6895 9.25586C22.1191 8.64648 21.834 7.80273 21.834 6.72461C21.834 5.64648 22.1191 4.80273 22.6895 4.19336C23.2637 3.58398 24.0586 3.2793 25.0742 3.2793C25.3906 3.2793 25.6992 3.32031 26 3.40234C26.3008 3.48438 26.6035 3.61133 26.9082 3.7832V4.91406C26.623 4.66016 26.3359 4.47656 26.0469 4.36328C25.7617 4.25 25.4375 4.19336 25.0742 4.19336C24.3984 4.19336 23.8789 4.41211 23.5156 4.84961C23.1523 5.28711 22.9707 5.91211 22.9707 6.72461C22.9707 7.5332 23.1523 8.1582 23.5156 8.59961C23.8828 9.03711 24.4023 9.25586 25.0742 9.25586C25.4492 9.25586 25.7852 9.19922 26.082 9.08594C26.3789 8.96875 26.6543 8.78906 26.9082 8.54688V9.66602ZM29.3047 0.882812H30.418V6.16211L33.248 3.4375H34.5605L31.9766 5.91016L34.9648 10H33.6465L31.2207 6.61328L30.418 7.36914V10H29.3047V0.882812ZM5.76758 23.791C5.53711 23.6113 5.30273 23.4805 5.06445 23.3984C4.82617 23.3164 4.56445 23.2754 4.2793 23.2754C3.60742 23.2754 3.09375 23.4863 2.73828 23.9082C2.38281 24.3301 2.20508 24.9395 2.20508 25.7363V29H1.12109V22.4375H2.20508V23.7207C2.38477 23.2559 2.66016 22.9004 3.03125 22.6543C3.40625 22.4043 3.84961 22.2793 4.36133 22.2793C4.62695 22.2793 4.875 22.3125 5.10547 22.3789C5.33594 22.4453 5.55664 22.5488 5.76758 22.6895V23.791ZM12.793 25.1797V25.707H8.12305V25.7422C8.0918 26.6367 8.26172 27.2793 8.63281 27.6699C9.00781 28.0605 9.53516 28.2559 10.2148 28.2559C10.5586 28.2559 10.918 28.2012 11.293 28.0918C11.668 27.9824 12.0684 27.8164 12.4941 27.5938V28.666C12.084 28.834 11.6875 28.959 11.3047 29.041C10.9258 29.127 10.5586 29.1699 10.2031 29.1699C9.18359 29.1699 8.38672 28.8652 7.8125 28.2559C7.23828 27.6426 6.95117 26.7988 6.95117 25.7246C6.95117 24.6777 7.23242 23.8418 7.79492 23.2168C8.35742 22.5918 9.10742 22.2793 10.0449 22.2793C10.8809 22.2793 11.5391 22.5625 12.0195 23.1289C12.5039 23.6953 12.7617 24.3789 12.793 25.1797ZM11.7148 24.8633C11.668 24.4102 11.502 24.0195 11.2168 23.6914C10.9355 23.3594 10.5293 23.1934 9.99805 23.1934C9.47852 23.1934 9.05078 23.3652 8.71484 23.709C8.37891 24.0527 8.19531 24.4395 8.16406 24.8691L11.7148 24.8633ZM19.1621 22.666V23.7207C18.8535 23.541 18.543 23.4062 18.2305 23.3164C17.918 23.2266 17.5996 23.1816 17.2754 23.1816C16.7871 23.1816 16.4219 23.2617 16.1797 23.4219C15.9414 23.5781 15.8223 23.8184 15.8223 24.1426C15.8223 24.4355 15.9121 24.6543 16.0918 24.7988C16.2715 24.9434 16.7188 25.084 17.4336 25.2207L17.8672 25.3027C18.4023 25.4043 18.8066 25.6074 19.0801 25.9121C19.3574 26.2168 19.4961 26.6133 19.4961 27.1016C19.4961 27.75 19.2656 28.2578 18.8047 28.625C18.3438 28.9883 17.7031 29.1699 16.8828 29.1699C16.5586 29.1699 16.2188 29.1348 15.8633 29.0645C15.5078 28.998 15.123 28.8965 14.709 28.7598V27.6465C15.1113 27.8535 15.4961 28.0098 15.8633 28.1152C16.2305 28.2168 16.5781 28.2676 16.9062 28.2676C17.3828 28.2676 17.752 28.1719 18.0137 27.9805C18.2754 27.7852 18.4062 27.5137 18.4062 27.166C18.4062 26.666 17.9277 26.3203 16.9707 26.1289L16.9238 26.1172L16.5195 26.0352C15.8984 25.9141 15.4453 25.7109 15.1602 25.4258C14.875 25.1367 14.7324 24.7441 14.7324 24.248C14.7324 23.6191 14.9453 23.1348 15.3711 22.7949C15.7969 22.4512 16.4043 22.2793 17.1934 22.2793C17.5449 22.2793 17.8828 22.3125 18.207 22.3789C18.5312 22.4414 18.8496 22.5371 19.1621 22.666ZM21.834 26.5156V22.4492H22.9121V26.5156C22.9121 27.1055 23.0156 27.5391 23.2227 27.8164C23.4336 28.0938 23.7578 28.2324 24.1953 28.2324C24.7031 28.2324 25.0918 28.0547 25.3613 27.6992C25.6309 27.3398 25.7656 26.8262 25.7656 26.1582V22.4492H26.8496V29H25.7656V28.0156C25.5742 28.3945 25.3125 28.6816 24.9805 28.877C24.6523 29.0723 24.2676 29.1699 23.8262 29.1699C23.1543 29.1699 22.6543 28.9512 22.3262 28.5137C21.998 28.0723 21.834 27.4062 21.834 26.5156ZM32.1348 26.627C32.1348 27.1113 32.2227 27.4766 32.3984 27.7227C32.5781 27.9688 32.8418 28.0918 33.1895 28.0918H34.4492V29H33.084C32.4395 29 31.9395 28.7949 31.584 28.3848C31.2324 27.9707 31.0566 27.3848 31.0566 26.627V20.6914H29.3281V19.8477H32.1348V26.627ZM38.75 20.5742V22.4375H41.1992V23.2754H38.75V26.8379C38.75 27.3223 38.8418 27.6602 39.0254 27.8516C39.209 28.043 39.5293 28.1387 39.9863 28.1387H41.1992V29H39.8809C39.0723 29 38.502 28.8379 38.1699 28.5137C37.8379 28.1895 37.6719 27.6309 37.6719 26.8379V23.2754H35.9199V22.4375H37.6719V20.5742H38.75Z" fill="#D28445"/>
<path d="M42.8984 7.07031H49.0918V8.06055H42.8984V7.07031ZM42.8984 4.31055H49.0918V5.30078H42.8984V4.31055ZM59.0059 5.58789V9.02734H60.4062C61.0938 9.02734 61.584 8.9082 61.877 8.66992C62.1699 8.42773 62.3164 8.03125 62.3164 7.48047C62.3164 6.75391 62.1621 6.25781 61.8535 5.99219C61.5449 5.72266 61.0625 5.58789 60.4062 5.58789H59.0059ZM59.0059 2.22461V4.62695H60.3828C60.9531 4.62695 61.3652 4.51758 61.6191 4.29883C61.877 4.08008 62.0059 3.80469 62.0059 3.47266C62.0059 3.03125 61.8789 2.71289 61.625 2.51758C61.375 2.32227 60.9609 2.22461 60.3828 2.22461H59.0059ZM57.8164 1.25195H60.4062C61.3008 1.25195 61.9902 1.44531 62.4746 1.83203C62.959 2.21875 63.2012 2.76562 63.2012 3.47266C63.2012 3.85156 63.0723 4.19531 62.8145 4.50391C62.5605 4.8125 62.1777 5.00586 61.666 5.08398C62.2402 5.16992 62.6895 5.41602 63.0137 5.82227C63.3418 6.22461 63.5059 6.81641 63.5059 7.59766C63.5059 8.39062 63.2461 8.99023 62.7266 9.39648C62.207 9.79883 61.4336 10 60.4062 10H57.8164V1.25195ZM67.6836 4.19336C67.1367 4.19336 66.7227 4.40625 66.4414 4.83203C66.1602 5.25781 66.0195 5.88867 66.0195 6.72461C66.0195 7.55664 66.1602 8.1875 66.4414 8.61719C66.7227 9.04297 67.1367 9.25586 67.6836 9.25586C68.2344 9.25586 68.6504 9.04297 68.9316 8.61719C69.2129 8.1875 69.3535 7.55664 69.3535 6.72461C69.3535 5.88867 69.2129 5.25781 68.9316 4.83203C68.6504 4.40625 68.2344 4.19336 67.6836 4.19336ZM67.6836 3.2793C68.5938 3.2793 69.2891 3.57422 69.7695 4.16406C70.2539 4.75391 70.4961 5.60742 70.4961 6.72461C70.4961 7.8457 70.2559 8.70117 69.7754 9.29102C69.2949 9.87695 68.5977 10.1699 67.6836 10.1699C66.7734 10.1699 66.0781 9.87695 65.5977 9.29102C65.1172 8.70117 64.877 7.8457 64.877 6.72461C64.877 5.60742 65.1172 4.75391 65.5977 4.16406C66.0781 3.57422 66.7734 3.2793 67.6836 3.2793ZM74.9141 4.19336C74.3672 4.19336 73.9531 4.40625 73.6719 4.83203C73.3906 5.25781 73.25 5.88867 73.25 6.72461C73.25 7.55664 73.3906 8.1875 73.6719 8.61719C73.9531 9.04297 74.3672 9.25586 74.9141 9.25586C75.4648 9.25586 75.8809 9.04297 76.1621 8.61719C76.4434 8.1875 76.584 7.55664 76.584 6.72461C76.584 5.88867 76.4434 5.25781 76.1621 4.83203C75.8809 4.40625 75.4648 4.19336 74.9141 4.19336ZM74.9141 3.2793C75.8242 3.2793 76.5195 3.57422 77 4.16406C77.4844 4.75391 77.7266 5.60742 77.7266 6.72461C77.7266 7.8457 77.4863 8.70117 77.0059 9.29102C76.5254 9.87695 75.8281 10.1699 74.9141 10.1699C74.0039 10.1699 73.3086 9.87695 72.8281 9.29102C72.3477 8.70117 72.1074 7.8457 72.1074 6.72461C72.1074 5.60742 72.3477 4.75391 72.8281 4.16406C73.3086 3.57422 74.0039 3.2793 74.9141 3.2793ZM84.2363 3.66602V4.7207C83.9277 4.54102 83.6172 4.40625 83.3047 4.31641C82.9922 4.22656 82.6738 4.18164 82.3496 4.18164C81.8613 4.18164 81.4961 4.26172 81.2539 4.42188C81.0156 4.57812 80.8965 4.81836 80.8965 5.14258C80.8965 5.43555 80.9863 5.6543 81.166 5.79883C81.3457 5.94336 81.793 6.08398 82.5078 6.2207L82.9414 6.30273C83.4766 6.4043 83.8809 6.60742 84.1543 6.91211C84.4316 7.2168 84.5703 7.61328 84.5703 8.10156C84.5703 8.75 84.3398 9.25781 83.8789 9.625C83.418 9.98828 82.7773 10.1699 81.957 10.1699C81.6328 10.1699 81.293 10.1348 80.9375 10.0645C80.582 9.99805 80.1973 9.89648 79.7832 9.75977V8.64648C80.1855 8.85352 80.5703 9.00977 80.9375 9.11523C81.3047 9.2168 81.6523 9.26758 81.9805 9.26758C82.457 9.26758 82.8262 9.17188 83.0879 8.98047C83.3496 8.78516 83.4805 8.51367 83.4805 8.16602C83.4805 7.66602 83.002 7.32031 82.0449 7.12891L81.998 7.11719L81.5938 7.03516C80.9727 6.91406 80.5195 6.71094 80.2344 6.42578C79.9492 6.13672 79.8066 5.74414 79.8066 5.24805C79.8066 4.61914 80.0195 4.13477 80.4453 3.79492C80.8711 3.45117 81.4785 3.2793 82.2676 3.2793C82.6191 3.2793 82.957 3.3125 83.2812 3.37891C83.6055 3.44141 83.9238 3.53711 84.2363 3.66602ZM89.3633 1.57422V3.4375H91.8125V4.27539H89.3633V7.83789C89.3633 8.32227 89.4551 8.66016 89.6387 8.85156C89.8223 9.04297 90.1426 9.13867 90.5996 9.13867H91.8125V10H90.4941C89.6855 10 89.1152 9.83789 88.7832 9.51367C88.4512 9.18945 88.2852 8.63086 88.2852 7.83789V4.27539H86.5332V3.4375H88.2852V1.57422H89.3633ZM94.8477 3.46094H97.6074V9.16211H99.7461V10H94.3906V9.16211H96.5293V4.29883H94.8477V3.46094ZM96.5293 0.912109H97.6074V2.27148H96.5293V0.912109ZM106.385 5.93359V10H105.301V5.93359C105.301 5.34375 105.197 4.91016 104.99 4.63281C104.783 4.35547 104.459 4.2168 104.018 4.2168C103.514 4.2168 103.125 4.39648 102.852 4.75586C102.582 5.11133 102.447 5.62305 102.447 6.29102V10H101.369V3.4375H102.447V4.42188C102.639 4.04688 102.898 3.76367 103.227 3.57227C103.555 3.37695 103.943 3.2793 104.393 3.2793C105.061 3.2793 105.559 3.5 105.887 3.94141C106.219 4.37891 106.385 5.04297 106.385 5.93359ZM112.484 6.66602C112.484 5.85742 112.352 5.24414 112.086 4.82617C111.824 4.4043 111.441 4.19336 110.938 4.19336C110.41 4.19336 110.008 4.4043 109.73 4.82617C109.453 5.24414 109.314 5.85742 109.314 6.66602C109.314 7.47461 109.453 8.0918 109.73 8.51758C110.012 8.93945 110.418 9.15039 110.949 9.15039C111.445 9.15039 111.824 8.9375 112.086 8.51172C112.352 8.08594 112.484 7.4707 112.484 6.66602ZM113.562 9.57812C113.562 10.5625 113.33 11.3086 112.865 11.8164C112.4 12.3242 111.717 12.5781 110.814 12.5781C110.518 12.5781 110.207 12.5508 109.883 12.4961C109.559 12.4414 109.234 12.3613 108.91 12.2559V11.1895C109.293 11.3691 109.641 11.502 109.953 11.5879C110.266 11.6738 110.553 11.7168 110.814 11.7168C111.396 11.7168 111.82 11.5586 112.086 11.2422C112.352 10.9258 112.484 10.4238 112.484 9.73633V9.68945V8.95703C112.312 9.32422 112.078 9.59766 111.781 9.77734C111.484 9.95703 111.123 10.0469 110.697 10.0469C109.932 10.0469 109.32 9.74023 108.863 9.12695C108.406 8.51367 108.178 7.69336 108.178 6.66602C108.178 5.63477 108.406 4.8125 108.863 4.19922C109.32 3.58594 109.932 3.2793 110.697 3.2793C111.119 3.2793 111.477 3.36328 111.77 3.53125C112.062 3.69922 112.301 3.95898 112.484 4.31055V3.46094H113.562V9.57812ZM119.99 5.63477C119.99 4.34961 119.857 3.43164 119.592 2.88086C119.33 2.33008 118.898 2.05469 118.297 2.05469C117.699 2.05469 117.268 2.33008 117.002 2.88086C116.74 3.43164 116.609 4.34961 116.609 5.63477C116.609 6.91602 116.74 7.83203 117.002 8.38281C117.268 8.93359 117.699 9.20898 118.297 9.20898C118.898 9.20898 119.33 8.93555 119.592 8.38867C119.857 7.83789 119.99 6.91992 119.99 5.63477ZM121.227 5.63477C121.227 7.1582 120.984 8.29492 120.5 9.04492C120.02 9.79492 119.285 10.1699 118.297 10.1699C117.309 10.1699 116.574 9.79688 116.094 9.05078C115.613 8.30469 115.373 7.16602 115.373 5.63477C115.373 4.10742 115.613 2.96875 116.094 2.21875C116.578 1.46875 117.312 1.09375 118.297 1.09375C119.285 1.09375 120.02 1.46875 120.5 2.21875C120.984 2.96875 121.227 4.10742 121.227 5.63477ZM122.504 3.4375H123.623L125.527 8.94531L127.438 3.4375H128.557L126.225 10H124.836L122.504 3.4375ZM135.711 6.17969V6.70703H131.041V6.74219C131.01 7.63672 131.18 8.2793 131.551 8.66992C131.926 9.06055 132.453 9.25586 133.133 9.25586C133.477 9.25586 133.836 9.20117 134.211 9.0918C134.586 8.98242 134.986 8.81641 135.412 8.59375V9.66602C135.002 9.83398 134.605 9.95898 134.223 10.041C133.844 10.127 133.477 10.1699 133.121 10.1699C132.102 10.1699 131.305 9.86523 130.73 9.25586C130.156 8.64258 129.869 7.79883 129.869 6.72461C129.869 5.67773 130.15 4.8418 130.713 4.2168C131.275 3.5918 132.025 3.2793 132.963 3.2793C133.799 3.2793 134.457 3.5625 134.938 4.12891C135.422 4.69531 135.68 5.37891 135.711 6.17969ZM134.633 5.86328C134.586 5.41016 134.42 5.01953 134.135 4.69141C133.854 4.35938 133.447 4.19336 132.916 4.19336C132.396 4.19336 131.969 4.36523 131.633 4.70898C131.297 5.05273 131.113 5.43945 131.082 5.86914L134.633 5.86328ZM143.146 4.79102C142.916 4.61133 142.682 4.48047 142.443 4.39844C142.205 4.31641 141.943 4.27539 141.658 4.27539C140.986 4.27539 140.473 4.48633 140.117 4.9082C139.762 5.33008 139.584 5.93945 139.584 6.73633V10H138.5V3.4375H139.584V4.7207C139.764 4.25586 140.039 3.90039 140.41 3.6543C140.785 3.4043 141.229 3.2793 141.74 3.2793C142.006 3.2793 142.254 3.3125 142.484 3.37891C142.715 3.44531 142.936 3.54883 143.146 3.68945V4.79102ZM149.838 0.882812V1.7793H148.613C148.227 1.7793 147.957 1.85938 147.805 2.01953C147.656 2.17578 147.582 2.45508 147.582 2.85742V3.4375H149.838V4.27539H147.582V10H146.504V4.27539H144.752V3.4375H146.504V2.98047C146.504 2.26172 146.668 1.73242 146.996 1.39258C147.328 1.05273 147.844 0.882812 148.543 0.882812H149.838ZM152.691 3.46094H155.451V9.16211H157.59V10H152.234V9.16211H154.373V4.29883H152.691V3.46094ZM154.373 0.912109H155.451V2.27148H154.373V0.912109ZM161.668 1.57422V3.4375H164.117V4.27539H161.668V7.83789C161.668 8.32227 161.76 8.66016 161.943 8.85156C162.127 9.04297 162.447 9.13867 162.904 9.13867H164.117V10H162.799C161.99 10 161.42 9.83789 161.088 9.51367C160.756 9.18945 160.59 8.63086 160.59 7.83789V4.27539H158.838V3.4375H160.59V1.57422H161.668ZM170.311 0.308594C169.791 1.19922 169.402 2.08789 169.145 2.97461C168.891 3.85742 168.764 4.74805 168.764 5.64648C168.764 6.54102 168.891 7.43164 169.145 8.31836C169.402 9.20508 169.791 10.0977 170.311 10.9961H169.373C168.783 10.0664 168.344 9.16211 168.055 8.2832C167.766 7.40039 167.621 6.52148 167.621 5.64648C167.621 4.77539 167.766 3.89844 168.055 3.01562C168.344 2.13281 168.783 1.23047 169.373 0.308594H170.311ZM174.57 0.308594H175.508C176.098 1.23047 176.537 2.13281 176.826 3.01562C177.115 3.89844 177.26 4.77539 177.26 5.64648C177.26 6.52539 177.115 7.40625 176.826 8.28906C176.537 9.17188 176.098 10.0742 175.508 10.9961H174.57C175.09 10.0898 175.477 9.19336 175.73 8.30664C175.988 7.41992 176.117 6.5332 176.117 5.64648C176.117 4.75586 175.988 3.86719 175.73 2.98047C175.477 2.09375 175.09 1.20312 174.57 0.308594ZM50.1289 26.0703H56.3223V27.0605H50.1289V26.0703ZM50.1289 23.3105H56.3223V24.3008H50.1289V23.3105ZM70.291 28.666C70.002 28.834 69.7031 28.959 69.3945 29.041C69.0898 29.127 68.7773 29.1699 68.457 29.1699C67.4414 29.1699 66.6465 28.8652 66.0723 28.2559C65.502 27.6465 65.2168 26.8027 65.2168 25.7246C65.2168 24.6465 65.502 23.8027 66.0723 23.1934C66.6465 22.584 67.4414 22.2793 68.457 22.2793C68.7734 22.2793 69.082 22.3203 69.3828 22.4023C69.6836 22.4844 69.9863 22.6113 70.291 22.7832V23.9141C70.0059 23.6602 69.7188 23.4766 69.4297 23.3633C69.1445 23.25 68.8203 23.1934 68.457 23.1934C67.7812 23.1934 67.2617 23.4121 66.8984 23.8496C66.5352 24.2871 66.3535 24.9121 66.3535 25.7246C66.3535 26.5332 66.5352 27.1582 66.8984 27.5996C67.2656 28.0371 67.7852 28.2559 68.457 28.2559C68.832 28.2559 69.168 28.1992 69.4648 28.0859C69.7617 27.9688 70.0371 27.7891 70.291 27.5469V28.666ZM77.4629 24.9336V29H76.3789V24.9336C76.3789 24.3438 76.2754 23.9102 76.0684 23.6328C75.8613 23.3555 75.5371 23.2168 75.0957 23.2168C74.5918 23.2168 74.2031 23.3965 73.9297 23.7559C73.6602 24.1113 73.5254 24.623 73.5254 25.291V29H72.4473V19.8828H73.5254V23.4219C73.7168 23.0469 73.9766 22.7637 74.3047 22.5723C74.6328 22.377 75.0215 22.2793 75.4707 22.2793C76.1387 22.2793 76.6367 22.5 76.9648 22.9414C77.2969 23.3789 77.4629 24.043 77.4629 24.9336ZM85.0977 25.1797V25.707H80.4277V25.7422C80.3965 26.6367 80.5664 27.2793 80.9375 27.6699C81.3125 28.0605 81.8398 28.2559 82.5195 28.2559C82.8633 28.2559 83.2227 28.2012 83.5977 28.0918C83.9727 27.9824 84.373 27.8164 84.7988 27.5938V28.666C84.3887 28.834 83.9922 28.959 83.6094 29.041C83.2305 29.127 82.8633 29.1699 82.5078 29.1699C81.4883 29.1699 80.6914 28.8652 80.1172 28.2559C79.543 27.6426 79.2559 26.7988 79.2559 25.7246C79.2559 24.6777 79.5371 23.8418 80.0996 23.2168C80.6621 22.5918 81.4121 22.2793 82.3496 22.2793C83.1855 22.2793 83.8438 22.5625 84.3242 23.1289C84.8086 23.6953 85.0664 24.3789 85.0977 25.1797ZM84.0195 24.8633C83.9727 24.4102 83.8066 24.0195 83.5215 23.6914C83.2402 23.3594 82.834 23.1934 82.3027 23.1934C81.7832 23.1934 81.3555 23.3652 81.0195 23.709C80.6836 24.0527 80.5 24.4395 80.4688 24.8691L84.0195 24.8633ZM91.9824 28.666C91.6934 28.834 91.3945 28.959 91.0859 29.041C90.7812 29.127 90.4688 29.1699 90.1484 29.1699C89.1328 29.1699 88.3379 28.8652 87.7637 28.2559C87.1934 27.6465 86.9082 26.8027 86.9082 25.7246C86.9082 24.6465 87.1934 23.8027 87.7637 23.1934C88.3379 22.584 89.1328 22.2793 90.1484 22.2793C90.4648 22.2793 90.7734 22.3203 91.0742 22.4023C91.375 22.4844 91.6777 22.6113 91.9824 22.7832V23.9141C91.6973 23.6602 91.4102 23.4766 91.1211 23.3633C90.8359 23.25 90.5117 23.1934 90.1484 23.1934C89.4727 23.1934 88.9531 23.4121 88.5898 23.8496C88.2266 24.2871 88.0449 24.9121 88.0449 25.7246C88.0449 26.5332 88.2266 27.1582 88.5898 27.5996C88.957 28.0371 89.4766 28.2559 90.1484 28.2559C90.5234 28.2559 90.8594 28.1992 91.1562 28.0859C91.4531 27.9688 91.7285 27.7891 91.9824 27.5469V28.666ZM94.3789 19.8828H95.4922V25.1621L98.3223 22.4375H99.6348L97.0508 24.9102L100.039 29H98.7207L96.2949 25.6133L95.4922 26.3691V29H94.3789V19.8828ZM102.506 26.6328H104.568V29H102.506V26.6328ZM114.225 23.791C113.994 23.6113 113.76 23.4805 113.521 23.3984C113.283 23.3164 113.021 23.2754 112.736 23.2754C112.064 23.2754 111.551 23.4863 111.195 23.9082C110.84 24.3301 110.662 24.9395 110.662 25.7363V29H109.578V22.4375H110.662V23.7207C110.842 23.2559 111.117 22.9004 111.488 22.6543C111.863 22.4043 112.307 22.2793 112.818 22.2793C113.084 22.2793 113.332 22.3125 113.562 22.3789C113.793 22.4453 114.014 22.5488 114.225 22.6895V23.791ZM115.83 26.5156V22.4492H116.908V26.5156C116.908 27.1055 117.012 27.5391 117.219 27.8164C117.43 28.0938 117.754 28.2324 118.191 28.2324C118.699 28.2324 119.088 28.0547 119.357 27.6992C119.627 27.3398 119.762 26.8262 119.762 26.1582V22.4492H120.846V29H119.762V28.0156C119.57 28.3945 119.309 28.6816 118.977 28.877C118.648 29.0723 118.264 29.1699 117.822 29.1699C117.15 29.1699 116.65 28.9512 116.322 28.5137C115.994 28.0723 115.83 27.4062 115.83 26.5156ZM128.076 24.9336V29H126.992V24.9336C126.992 24.3438 126.889 23.9102 126.682 23.6328C126.475 23.3555 126.15 23.2168 125.709 23.2168C125.205 23.2168 124.816 23.3965 124.543 23.7559C124.273 24.1113 124.139 24.623 124.139 25.291V29H123.061V22.4375H124.139V23.4219C124.33 23.0469 124.59 22.7637 124.918 22.5723C125.246 22.377 125.635 22.2793 126.084 22.2793C126.752 22.2793 127.25 22.5 127.578 22.9414C127.91 23.3789 128.076 24.043 128.076 24.9336ZM134.158 19.3086C133.639 20.1992 133.25 21.0879 132.992 21.9746C132.738 22.8574 132.611 23.748 132.611 24.6465C132.611 25.541 132.738 26.4316 132.992 27.3184C133.25 28.2051 133.639 29.0977 134.158 29.9961H133.221C132.631 29.0664 132.191 28.1621 131.902 27.2832C131.613 26.4004 131.469 25.5215 131.469 24.6465C131.469 23.7754 131.613 22.8984 131.902 22.0156C132.191 21.1328 132.631 20.2305 133.221 19.3086H134.158ZM139.977 20.5742V22.4375H142.426V23.2754H139.977V26.8379C139.977 27.3223 140.068 27.6602 140.252 27.8516C140.436 28.043 140.756 28.1387 141.213 28.1387H142.426V29H141.107C140.299 29 139.729 28.8379 139.396 28.5137C139.064 28.1895 138.898 27.6309 138.898 26.8379V23.2754H137.146V22.4375H138.898V20.5742H139.977ZM150.377 23.791C150.146 23.6113 149.912 23.4805 149.674 23.3984C149.436 23.3164 149.174 23.2754 148.889 23.2754C148.217 23.2754 147.703 23.4863 147.348 23.9082C146.992 24.3301 146.814 24.9395 146.814 25.7363V29H145.73V22.4375H146.814V23.7207C146.994 23.2559 147.27 22.9004 147.641 22.6543C148.016 22.4043 148.459 22.2793 148.971 22.2793C149.236 22.2793 149.484 22.3125 149.715 22.3789C149.945 22.4453 150.166 22.5488 150.377 22.6895V23.791ZM154.953 25.7012H154.596C153.967 25.7012 153.492 25.8125 153.172 26.0352C152.855 26.2539 152.697 26.582 152.697 27.0195C152.697 27.4141 152.816 27.7207 153.055 27.9395C153.293 28.1582 153.623 28.2676 154.045 28.2676C154.639 28.2676 155.105 28.0625 155.445 27.6523C155.785 27.2383 155.957 26.668 155.961 25.9414V25.7012H154.953ZM157.045 25.2559V29H155.961V28.0273C155.73 28.418 155.439 28.707 155.088 28.8945C154.74 29.0781 154.316 29.1699 153.816 29.1699C153.148 29.1699 152.615 28.9824 152.217 28.6074C151.818 28.2285 151.619 27.7227 151.619 27.0898C151.619 26.3594 151.863 25.8047 152.352 25.4258C152.844 25.0469 153.564 24.8574 154.514 24.8574H155.961V24.6875C155.957 24.1641 155.824 23.7852 155.562 23.5508C155.301 23.3125 154.883 23.1934 154.309 23.1934C153.941 23.1934 153.57 23.2461 153.195 23.3516C152.82 23.457 152.455 23.6113 152.1 23.8145V22.7363C152.498 22.584 152.879 22.4707 153.242 22.3965C153.609 22.3184 153.965 22.2793 154.309 22.2793C154.852 22.2793 155.314 22.3594 155.697 22.5195C156.084 22.6797 156.396 22.9199 156.635 23.2402C156.783 23.4355 156.889 23.6777 156.951 23.9668C157.014 24.252 157.045 24.6816 157.045 25.2559ZM159.922 22.4609H162.682V28.1621H164.82V29H159.465V28.1621H161.604V23.2988H159.922V22.4609ZM161.604 19.9121H162.682V21.2715H161.604V19.9121ZM171.459 24.9336V29H170.375V24.9336C170.375 24.3438 170.271 23.9102 170.064 23.6328C169.857 23.3555 169.533 23.2168 169.092 23.2168C168.588 23.2168 168.199 23.3965 167.926 23.7559C167.656 24.1113 167.521 24.623 167.521 25.291V29H166.443V22.4375H167.521V23.4219C167.713 23.0469 167.973 22.7637 168.301 22.5723C168.629 22.377 169.018 22.2793 169.467 22.2793C170.135 22.2793 170.633 22.5 170.961 22.9414C171.293 23.3789 171.459 24.043 171.459 24.9336ZM179.703 30.1133V31.1094H172.531V30.1133H179.703ZM184.789 23.2754V19.8828H185.867V29H184.789V28.1738C184.609 28.498 184.369 28.7461 184.068 28.918C183.771 29.0859 183.428 29.1699 183.037 29.1699C182.244 29.1699 181.619 28.8633 181.162 28.25C180.709 27.6328 180.482 26.7832 180.482 25.7012C180.482 24.6348 180.711 23.7988 181.168 23.1934C181.625 22.584 182.248 22.2793 183.037 22.2793C183.432 22.2793 183.779 22.3652 184.08 22.5371C184.381 22.7051 184.617 22.9512 184.789 23.2754ZM181.619 25.7246C181.619 26.5605 181.752 27.1914 182.018 27.6172C182.283 28.043 182.676 28.2559 183.195 28.2559C183.715 28.2559 184.109 28.041 184.379 27.6113C184.652 27.1816 184.789 26.5527 184.789 25.7246C184.789 24.8926 184.652 24.2637 184.379 23.8379C184.109 23.4082 183.715 23.1934 183.195 23.1934C182.676 23.1934 182.283 23.4062 182.018 23.832C181.752 24.2578 181.619 24.8887 181.619 25.7246ZM192.693 22.666V23.7207C192.385 23.541 192.074 23.4062 191.762 23.3164C191.449 23.2266 191.131 23.1816 190.807 23.1816C190.318 23.1816 189.953 23.2617 189.711 23.4219C189.473 23.5781 189.354 23.8184 189.354 24.1426C189.354 24.4355 189.443 24.6543 189.623 24.7988C189.803 24.9434 190.25 25.084 190.965 25.2207L191.398 25.3027C191.934 25.4043 192.338 25.6074 192.611 25.9121C192.889 26.2168 193.027 26.6133 193.027 27.1016C193.027 27.75 192.797 28.2578 192.336 28.625C191.875 28.9883 191.234 29.1699 190.414 29.1699C190.09 29.1699 189.75 29.1348 189.395 29.0645C189.039 28.998 188.654 28.8965 188.24 28.7598V27.6465C188.643 27.8535 189.027 28.0098 189.395 28.1152C189.762 28.2168 190.109 28.2676 190.438 28.2676C190.914 28.2676 191.283 28.1719 191.545 27.9805C191.807 27.7852 191.938 27.5137 191.938 27.166C191.938 26.666 191.459 26.3203 190.502 26.1289L190.455 26.1172L190.051 26.0352C189.43 25.9141 188.977 25.7109 188.691 25.4258C188.406 25.1367 188.264 24.7441 188.264 24.248C188.264 23.6191 188.477 23.1348 188.902 22.7949C189.328 22.4512 189.936 22.2793 190.725 22.2793C191.076 22.2793 191.414 22.3125 191.738 22.3789C192.062 22.4414 192.381 22.5371 192.693 22.666ZM196.812 26.8848H198.641V28.4375L197.34 30.9629L196.168 30.9688L196.812 28.4375V26.8848ZM209.27 22.4375H210.389L212.293 27.9453L214.203 22.4375H215.322L212.99 29H211.602L209.27 22.4375ZM220.027 25.7012H219.67C219.041 25.7012 218.566 25.8125 218.246 26.0352C217.93 26.2539 217.771 26.582 217.771 27.0195C217.771 27.4141 217.891 27.7207 218.129 27.9395C218.367 28.1582 218.697 28.2676 219.119 28.2676C219.713 28.2676 220.18 28.0625 220.52 27.6523C220.859 27.2383 221.031 26.668 221.035 25.9414V25.7012H220.027ZM222.119 25.2559V29H221.035V28.0273C220.805 28.418 220.514 28.707 220.162 28.8945C219.814 29.0781 219.391 29.1699 218.891 29.1699C218.223 29.1699 217.689 28.9824 217.291 28.6074C216.893 28.2285 216.693 27.7227 216.693 27.0898C216.693 26.3594 216.938 25.8047 217.426 25.4258C217.918 25.0469 218.639 24.8574 219.588 24.8574H221.035V24.6875C221.031 24.1641 220.898 23.7852 220.637 23.5508C220.375 23.3125 219.957 23.1934 219.383 23.1934C219.016 23.1934 218.645 23.2461 218.27 23.3516C217.895 23.457 217.529 23.6113 217.174 23.8145V22.7363C217.572 22.584 217.953 22.4707 218.316 22.3965C218.684 22.3184 219.039 22.2793 219.383 22.2793C219.926 22.2793 220.389 22.3594 220.771 22.5195C221.158 22.6797 221.471 22.9199 221.709 23.2402C221.857 23.4355 221.963 23.6777 222.025 23.9668C222.088 24.252 222.119 24.6816 222.119 25.2559ZM227.357 26.627C227.357 27.1113 227.445 27.4766 227.621 27.7227C227.801 27.9688 228.064 28.0918 228.412 28.0918H229.672V29H228.307C227.662 29 227.162 28.7949 226.807 28.3848C226.455 27.9707 226.279 27.3848 226.279 26.627V20.6914H224.551V19.8477H227.357V26.627ZM232.227 22.4609H234.986V28.1621H237.125V29H231.77V28.1621H233.908V23.2988H232.227V22.4609ZM233.908 19.9121H234.986V21.2715H233.908V19.9121ZM242.633 23.2754V19.8828H243.711V29H242.633V28.1738C242.453 28.498 242.213 28.7461 241.912 28.918C241.615 29.0859 241.271 29.1699 240.881 29.1699C240.088 29.1699 239.463 28.8633 239.006 28.25C238.553 27.6328 238.326 26.7832 238.326 25.7012C238.326 24.6348 238.555 23.7988 239.012 23.1934C239.469 22.584 240.092 22.2793 240.881 22.2793C241.275 22.2793 241.623 22.3652 241.924 22.5371C242.225 22.7051 242.461 22.9512 242.633 23.2754ZM239.463 25.7246C239.463 26.5605 239.596 27.1914 239.861 27.6172C240.127 28.043 240.52 28.2559 241.039 28.2559C241.559 28.2559 241.953 28.041 242.223 27.6113C242.496 27.1816 242.633 26.5527 242.633 25.7246C242.633 24.8926 242.496 24.2637 242.223 23.8379C241.953 23.4082 241.559 23.1934 241.039 23.1934C240.52 23.1934 240.127 23.4062 239.861 23.832C239.596 24.2578 239.463 24.8887 239.463 25.7246ZM248.949 25.7012H248.592C247.963 25.7012 247.488 25.8125 247.168 26.0352C246.852 26.2539 246.693 26.582 246.693 27.0195C246.693 27.4141 246.812 27.7207 247.051 27.9395C247.289 28.1582 247.619 28.2676 248.041 28.2676C248.635 28.2676 249.102 28.0625 249.441 27.6523C249.781 27.2383 249.953 26.668 249.957 25.9414V25.7012H248.949ZM251.041 25.2559V29H249.957V28.0273C249.727 28.418 249.436 28.707 249.084 28.8945C248.736 29.0781 248.312 29.1699 247.812 29.1699C247.145 29.1699 246.611 28.9824 246.213 28.6074C245.814 28.2285 245.615 27.7227 245.615 27.0898C245.615 26.3594 245.859 25.8047 246.348 25.4258C246.84 25.0469 247.561 24.8574 248.51 24.8574H249.957V24.6875C249.953 24.1641 249.82 23.7852 249.559 23.5508C249.297 23.3125 248.879 23.1934 248.305 23.1934C247.938 23.1934 247.566 23.2461 247.191 23.3516C246.816 23.457 246.451 23.6113 246.096 23.8145V22.7363C246.494 22.584 246.875 22.4707 247.238 22.3965C247.605 22.3184 247.961 22.2793 248.305 22.2793C248.848 22.2793 249.311 22.3594 249.693 22.5195C250.08 22.6797 250.393 22.9199 250.631 23.2402C250.779 23.4355 250.885 23.6777 250.947 23.9668C251.01 24.252 251.041 24.6816 251.041 25.2559ZM255.664 20.5742V22.4375H258.113V23.2754H255.664V26.8379C255.664 27.3223 255.756 27.6602 255.939 27.8516C256.123 28.043 256.443 28.1387 256.9 28.1387H258.113V29H256.795C255.986 29 255.416 28.8379 255.084 28.5137C254.752 28.1895 254.586 27.6309 254.586 26.8379V23.2754H252.834V22.4375H254.586V20.5742H255.664ZM261.148 22.4609H263.908V28.1621H266.047V29H260.691V28.1621H262.83V23.2988H261.148V22.4609ZM262.83 19.9121H263.908V21.2715H262.83V19.9121ZM270.137 23.1934C269.59 23.1934 269.176 23.4062 268.895 23.832C268.613 24.2578 268.473 24.8887 268.473 25.7246C268.473 26.5566 268.613 27.1875 268.895 27.6172C269.176 28.043 269.59 28.2559 270.137 28.2559C270.688 28.2559 271.104 28.043 271.385 27.6172C271.666 27.1875 271.807 26.5566 271.807 25.7246C271.807 24.8887 271.666 24.2578 271.385 23.832C271.104 23.4062 270.688 23.1934 270.137 23.1934ZM270.137 22.2793C271.047 22.2793 271.742 22.5742 272.223 23.1641C272.707 23.7539 272.949 24.6074 272.949 25.7246C272.949 26.8457 272.709 27.7012 272.229 28.291C271.748 28.877 271.051 29.1699 270.137 29.1699C269.227 29.1699 268.531 28.877 268.051 28.291C267.57 27.7012 267.33 26.8457 267.33 25.7246C267.33 24.6074 267.57 23.7539 268.051 23.1641C268.531 22.5742 269.227 22.2793 270.137 22.2793ZM279.916 24.9336V29H278.832V24.9336C278.832 24.3438 278.729 23.9102 278.521 23.6328C278.314 23.3555 277.99 23.2168 277.549 23.2168C277.045 23.2168 276.656 23.3965 276.383 23.7559C276.113 24.1113 275.979 24.623 275.979 25.291V29H274.9V22.4375H275.979V23.4219C276.17 23.0469 276.43 22.7637 276.758 22.5723C277.086 22.377 277.475 22.2793 277.924 22.2793C278.592 22.2793 279.09 22.5 279.418 22.9414C279.75 23.3789 279.916 24.043 279.916 24.9336ZM288.16 30.1133V31.1094H280.988V30.1133H288.16ZM293.246 23.2754V19.8828H294.324V29H293.246V28.1738C293.066 28.498 292.826 28.7461 292.525 28.918C292.229 29.0859 291.885 29.1699 291.494 29.1699C290.701 29.1699 290.076 28.8633 289.619 28.25C289.166 27.6328 288.939 26.7832 288.939 25.7012C288.939 24.6348 289.168 23.7988 289.625 23.1934C290.082 22.584 290.705 22.2793 291.494 22.2793C291.889 22.2793 292.236 22.3652 292.537 22.5371C292.838 22.7051 293.074 22.9512 293.246 23.2754ZM290.076 25.7246C290.076 26.5605 290.209 27.1914 290.475 27.6172C290.74 28.043 291.133 28.2559 291.652 28.2559C292.172 28.2559 292.566 28.041 292.836 27.6113C293.109 27.1816 293.246 26.5527 293.246 25.7246C293.246 24.8926 293.109 24.2637 292.836 23.8379C292.566 23.4082 292.172 23.1934 291.652 23.1934C291.133 23.1934 290.74 23.4062 290.475 23.832C290.209 24.2578 290.076 24.8887 290.076 25.7246ZM301.15 22.666V23.7207C300.842 23.541 300.531 23.4062 300.219 23.3164C299.906 23.2266 299.588 23.1816 299.264 23.1816C298.775 23.1816 298.41 23.2617 298.168 23.4219C297.93 23.5781 297.811 23.8184 297.811 24.1426C297.811 24.4355 297.9 24.6543 298.08 24.7988C298.26 24.9434 298.707 25.084 299.422 25.2207L299.855 25.3027C300.391 25.4043 300.795 25.6074 301.068 25.9121C301.346 26.2168 301.484 26.6133 301.484 27.1016C301.484 27.75 301.254 28.2578 300.793 28.625C300.332 28.9883 299.691 29.1699 298.871 29.1699C298.547 29.1699 298.207 29.1348 297.852 29.0645C297.496 28.998 297.111 28.8965 296.697 28.7598V27.6465C297.1 27.8535 297.484 28.0098 297.852 28.1152C298.219 28.2168 298.566 28.2676 298.895 28.2676C299.371 28.2676 299.74 28.1719 300.002 27.9805C300.264 27.7852 300.395 27.5137 300.395 27.166C300.395 26.666 299.916 26.3203 298.959 26.1289L298.912 26.1172L298.508 26.0352C297.887 25.9141 297.434 25.7109 297.148 25.4258C296.863 25.1367 296.721 24.7441 296.721 24.248C296.721 23.6191 296.934 23.1348 297.359 22.7949C297.785 22.4512 298.393 22.2793 299.182 22.2793C299.533 22.2793 299.871 22.3125 300.195 22.3789C300.52 22.4414 300.838 22.5371 301.15 22.666ZM305.27 26.8848H307.098V28.4375L305.797 30.9629L304.625 30.9688L305.27 28.4375V26.8848ZM5.2168 47.666C4.92773 47.834 4.62891 47.959 4.32031 48.041C4.01562 48.127 3.70312 48.1699 3.38281 48.1699C2.36719 48.1699 1.57227 47.8652 0.998047 47.2559C0.427734 46.6465 0.142578 45.8027 0.142578 44.7246C0.142578 43.6465 0.427734 42.8027 0.998047 42.1934C1.57227 41.584 2.36719 41.2793 3.38281 41.2793C3.69922 41.2793 4.00781 41.3203 4.30859 41.4023C4.60938 41.4844 4.91211 41.6113 5.2168 41.7832V42.9141C4.93164 42.6602 4.64453 42.4766 4.35547 42.3633C4.07031 42.25 3.74609 42.1934 3.38281 42.1934C2.70703 42.1934 2.1875 42.4121 1.82422 42.8496C1.46094 43.2871 1.2793 43.9121 1.2793 44.7246C1.2793 45.5332 1.46094 46.1582 1.82422 46.5996C2.19141 47.0371 2.71094 47.2559 3.38281 47.2559C3.75781 47.2559 4.09375 47.1992 4.39062 47.0859C4.6875 46.9688 4.96289 46.7891 5.2168 46.5469V47.666ZM10.4434 45.627C10.4434 46.1113 10.5312 46.4766 10.707 46.7227C10.8867 46.9688 11.1504 47.0918 11.498 47.0918H12.7578V48H11.3926C10.748 48 10.248 47.7949 9.89258 47.3848C9.54102 46.9707 9.36523 46.3848 9.36523 45.627V39.6914H7.63672V38.8477H10.4434V45.627ZM19.6895 38.8828V39.7793H18.4648C18.0781 39.7793 17.8086 39.8594 17.6562 40.0195C17.5078 40.1758 17.4336 40.4551 17.4336 40.8574V41.4375H19.6895V42.2754H17.4336V48H16.3555V42.2754H14.6035V41.4375H16.3555V40.9805C16.3555 40.2617 16.5195 39.7324 16.8477 39.3926C17.1797 39.0527 17.6953 38.8828 18.3945 38.8828H19.6895ZM22.7305 38.3086H23.668C24.2578 39.2305 24.6973 40.1328 24.9863 41.0156C25.2754 41.8984 25.4199 42.7754 25.4199 43.6465C25.4199 44.5254 25.2754 45.4062 24.9863 46.2891C24.6973 47.1719 24.2578 48.0742 23.668 48.9961H22.7305C23.25 48.0898 23.6367 47.1934 23.8906 46.3066C24.1484 45.4199 24.2773 44.5332 24.2773 43.6465C24.2773 42.7559 24.1484 41.8672 23.8906 40.9805C23.6367 40.0938 23.25 39.2031 22.7305 38.3086Z" fill="#303245"/>
</svg>
