<svg width="318" height="108" viewBox="0 0 318 108" fill="none" xmlns="http://www.w3.org/2000/svg">
<path d="M2.33789 2.22461V5.51172H3.70898C4.25586 5.51172 4.68164 5.36719 4.98633 5.07812C5.29492 4.78906 5.44922 4.38477 5.44922 3.86523C5.44922 3.3457 5.29688 2.94336 4.99219 2.6582C4.6875 2.36914 4.25977 2.22461 3.70898 2.22461H2.33789ZM1.1543 1.25195H3.70898C4.68555 1.25195 5.42578 1.47461 5.92969 1.91992C6.43359 2.36133 6.68555 3.00977 6.68555 3.86523C6.68555 4.72852 6.43359 5.38086 5.92969 5.82227C5.42969 6.26367 4.68945 6.48438 3.70898 6.48438H2.33789V10H1.1543V1.25195ZM13.793 6.17969V6.70703H9.12305V6.74219C9.0918 7.63672 9.26172 8.2793 9.63281 8.66992C10.0078 9.06055 10.5352 9.25586 11.2148 9.25586C11.5586 9.25586 11.918 9.20117 12.293 9.0918C12.668 8.98242 13.0684 8.81641 13.4941 8.59375V9.66602C13.084 9.83398 12.6875 9.95898 12.3047 10.041C11.9258 10.127 11.5586 10.1699 11.2031 10.1699C10.1836 10.1699 9.38672 9.86523 8.8125 9.25586C8.23828 8.64258 7.95117 7.79883 7.95117 6.72461C7.95117 5.67773 8.23242 4.8418 8.79492 4.2168C9.35742 3.5918 10.1074 3.2793 11.0449 3.2793C11.8809 3.2793 12.5391 3.5625 13.0195 4.12891C13.5039 4.69531 13.7617 5.37891 13.793 6.17969ZM12.7148 5.86328C12.668 5.41016 12.502 5.01953 12.2168 4.69141C11.9355 4.35938 11.5293 4.19336 10.998 4.19336C10.4785 4.19336 10.0508 4.36523 9.71484 4.70898C9.37891 5.05273 9.19531 5.43945 9.16406 5.86914L12.7148 5.86328ZM21.2285 4.79102C20.998 4.61133 20.7637 4.48047 20.5254 4.39844C20.2871 4.31641 20.0254 4.27539 19.7402 4.27539C19.0684 4.27539 18.5547 4.48633 18.1992 4.9082C17.8438 5.33008 17.666 5.93945 17.666 6.73633V10H16.582V3.4375H17.666V4.7207C17.8457 4.25586 18.1211 3.90039 18.4922 3.6543C18.8672 3.4043 19.3105 3.2793 19.8223 3.2793C20.0879 3.2793 20.3359 3.3125 20.5664 3.37891C20.7969 3.44531 21.0176 3.54883 21.2285 3.68945V4.79102ZM27.9199 0.882812V1.7793H26.6953C26.3086 1.7793 26.0391 1.85938 25.8867 2.01953C25.7383 2.17578 25.6641 2.45508 25.6641 2.85742V3.4375H27.9199V4.27539H25.6641V10H24.5859V4.27539H22.834V3.4375H24.5859V2.98047C24.5859 2.26172 24.75 1.73242 25.0781 1.39258C25.4102 1.05273 25.9258 0.882812 26.625 0.882812H27.9199ZM32.5312 4.19336C31.9844 4.19336 31.5703 4.40625 31.2891 4.83203C31.0078 5.25781 30.8672 5.88867 30.8672 6.72461C30.8672 7.55664 31.0078 8.1875 31.2891 8.61719C31.5703 9.04297 31.9844 9.25586 32.5312 9.25586C33.082 9.25586 33.498 9.04297 33.7793 8.61719C34.0605 8.1875 34.2012 7.55664 34.2012 6.72461C34.2012 5.88867 34.0605 5.25781 33.7793 4.83203C33.498 4.40625 33.082 4.19336 32.5312 4.19336ZM32.5312 3.2793C33.4414 3.2793 34.1367 3.57422 34.6172 4.16406C35.1016 4.75391 35.3438 5.60742 35.3438 6.72461C35.3438 7.8457 35.1035 8.70117 34.623 9.29102C34.1426 9.87695 33.4453 10.1699 32.5312 10.1699C31.6211 10.1699 30.9258 9.87695 30.4453 9.29102C29.9648 8.70117 29.7246 7.8457 29.7246 6.72461C29.7246 5.60742 29.9648 4.75391 30.4453 4.16406C30.9258 3.57422 31.6211 3.2793 32.5312 3.2793ZM42.9199 4.79102C42.6895 4.61133 42.4551 4.48047 42.2168 4.39844C41.9785 4.31641 41.7168 4.27539 41.4316 4.27539C40.7598 4.27539 40.2461 4.48633 39.8906 4.9082C39.5352 5.33008 39.3574 5.93945 39.3574 6.73633V10H38.2734V3.4375H39.3574V4.7207C39.5371 4.25586 39.8125 3.90039 40.1836 3.6543C40.5586 3.4043 41.002 3.2793 41.5137 3.2793C41.7793 3.2793 42.0273 3.3125 42.2578 3.37891C42.4883 3.44531 42.709 3.54883 42.9199 3.68945V4.79102ZM47.3438 4.10547C47.4766 3.82422 47.6445 3.61719 47.8477 3.48438C48.0547 3.34766 48.3027 3.2793 48.5918 3.2793C49.1191 3.2793 49.4902 3.48438 49.7051 3.89453C49.9238 4.30078 50.0332 5.06836 50.0332 6.19727V10H49.0488V6.24414C49.0488 5.31836 48.9961 4.74414 48.8906 4.52148C48.7891 4.29492 48.6016 4.18164 48.3281 4.18164C48.0156 4.18164 47.8008 4.30273 47.6836 4.54492C47.5703 4.7832 47.5137 5.34961 47.5137 6.24414V10H46.5293V6.24414C46.5293 5.30664 46.4727 4.72852 46.3594 4.50977C46.25 4.29102 46.0508 4.18164 45.7617 4.18164C45.4766 4.18164 45.2773 4.30273 45.1641 4.54492C45.0547 4.7832 45 5.34961 45 6.24414V10H44.0215V3.4375H45V4C45.1289 3.76562 45.2891 3.58789 45.4805 3.4668C45.6758 3.3418 45.8965 3.2793 46.1426 3.2793C46.4395 3.2793 46.6855 3.34766 46.8809 3.48438C47.0801 3.62109 47.2344 3.82812 47.3438 4.10547ZM54.7266 6.70117H54.3691C53.7402 6.70117 53.2656 6.8125 52.9453 7.03516C52.6289 7.25391 52.4707 7.58203 52.4707 8.01953C52.4707 8.41406 52.5898 8.7207 52.8281 8.93945C53.0664 9.1582 53.3965 9.26758 53.8184 9.26758C54.4121 9.26758 54.8789 9.0625 55.2188 8.65234C55.5586 8.23828 55.7305 7.66797 55.7344 6.94141V6.70117H54.7266ZM56.8184 6.25586V10H55.7344V9.02734C55.5039 9.41797 55.2129 9.70703 54.8613 9.89453C54.5137 10.0781 54.0898 10.1699 53.5898 10.1699C52.9219 10.1699 52.3887 9.98242 51.9902 9.60742C51.5918 9.22852 51.3926 8.72266 51.3926 8.08984C51.3926 7.35938 51.6367 6.80469 52.125 6.42578C52.6172 6.04688 53.3379 5.85742 54.2871 5.85742H55.7344V5.6875C55.7305 5.16406 55.5977 4.78516 55.3359 4.55078C55.0742 4.3125 54.6562 4.19336 54.082 4.19336C53.7148 4.19336 53.3438 4.24609 52.9688 4.35156C52.5938 4.45703 52.2285 4.61133 51.873 4.81445V3.73633C52.2715 3.58398 52.6523 3.4707 53.0156 3.39648C53.3828 3.31836 53.7383 3.2793 54.082 3.2793C54.625 3.2793 55.0879 3.35938 55.4707 3.51953C55.8574 3.67969 56.1699 3.91992 56.4082 4.24023C56.5566 4.43555 56.6621 4.67773 56.7246 4.9668C56.7871 5.25195 56.8184 5.68164 56.8184 6.25586ZM64.002 5.93359V10H62.918V5.93359C62.918 5.34375 62.8145 4.91016 62.6074 4.63281C62.4004 4.35547 62.0762 4.2168 61.6348 4.2168C61.1309 4.2168 60.7422 4.39648 60.4688 4.75586C60.1992 5.11133 60.0645 5.62305 60.0645 6.29102V10H58.9863V3.4375H60.0645V4.42188C60.2559 4.04688 60.5156 3.76367 60.8438 3.57227C61.1719 3.37695 61.5605 3.2793 62.0098 3.2793C62.6777 3.2793 63.1758 3.5 63.5039 3.94141C63.8359 4.37891 64.002 5.04297 64.002 5.93359ZM71.291 9.66602C71.002 9.83398 70.7031 9.95898 70.3945 10.041C70.0898 10.127 69.7773 10.1699 69.457 10.1699C68.4414 10.1699 67.6465 9.86523 67.0723 9.25586C66.502 8.64648 66.2168 7.80273 66.2168 6.72461C66.2168 5.64648 66.502 4.80273 67.0723 4.19336C67.6465 3.58398 68.4414 3.2793 69.457 3.2793C69.7734 3.2793 70.082 3.32031 70.3828 3.40234C70.6836 3.48438 70.9863 3.61133 71.291 3.7832V4.91406C71.0059 4.66016 70.7188 4.47656 70.4297 4.36328C70.1445 4.25 69.8203 4.19336 69.457 4.19336C68.7812 4.19336 68.2617 4.41211 67.8984 4.84961C67.5352 5.28711 67.3535 5.91211 67.3535 6.72461C67.3535 7.5332 67.5352 8.1582 67.8984 8.59961C68.2656 9.03711 68.7852 9.25586 69.457 9.25586C69.832 9.25586 70.168 9.19922 70.4648 9.08594C70.7617 8.96875 71.0371 8.78906 71.291 8.54688V9.66602ZM78.8672 6.17969V6.70703H74.1973V6.74219C74.166 7.63672 74.3359 8.2793 74.707 8.66992C75.082 9.06055 75.6094 9.25586 76.2891 9.25586C76.6328 9.25586 76.9922 9.20117 77.3672 9.0918C77.7422 8.98242 78.1426 8.81641 78.5684 8.59375V9.66602C78.1582 9.83398 77.7617 9.95898 77.3789 10.041C77 10.127 76.6328 10.1699 76.2773 10.1699C75.2578 10.1699 74.4609 9.86523 73.8867 9.25586C73.3125 8.64258 73.0254 7.79883 73.0254 6.72461C73.0254 5.67773 73.3066 4.8418 73.8691 4.2168C74.4316 3.5918 75.1816 3.2793 76.1191 3.2793C76.9551 3.2793 77.6133 3.5625 78.0938 4.12891C78.5781 4.69531 78.8359 5.37891 78.8672 6.17969ZM77.7891 5.86328C77.7422 5.41016 77.5762 5.01953 77.291 4.69141C77.0098 4.35938 76.6035 4.19336 76.0723 4.19336C75.5527 4.19336 75.125 4.36523 74.7891 4.70898C74.4531 5.05273 74.2695 5.43945 74.2383 5.86914L77.7891 5.86328ZM85.4648 1.55078V2.75195C85.1055 2.52148 84.7441 2.34766 84.3809 2.23047C84.0215 2.11328 83.6582 2.05469 83.291 2.05469C82.7324 2.05469 82.291 2.18555 81.9668 2.44727C81.6426 2.70508 81.4805 3.05469 81.4805 3.49609C81.4805 3.88281 81.5859 4.17773 81.7969 4.38086C82.0117 4.58398 82.4102 4.75391 82.9922 4.89062L83.6133 5.03125C84.4336 5.22266 85.0312 5.52344 85.4062 5.93359C85.7812 6.34375 85.9688 6.90234 85.9688 7.60938C85.9688 8.44141 85.7109 9.07617 85.1953 9.51367C84.6797 9.95117 83.9297 10.1699 82.9453 10.1699C82.5352 10.1699 82.123 10.125 81.709 10.0352C81.2949 9.94922 80.8789 9.81836 80.4609 9.64258V8.38281C80.9102 8.66797 81.334 8.87695 81.7324 9.00977C82.1348 9.14258 82.5391 9.20898 82.9453 9.20898C83.543 9.20898 84.0078 9.07617 84.3398 8.81055C84.6719 8.54102 84.8379 8.16602 84.8379 7.68555C84.8379 7.24805 84.7227 6.91406 84.4922 6.68359C84.2656 6.45312 83.8691 6.27539 83.3027 6.15039L82.6699 6.00391C81.8574 5.82031 81.2676 5.54297 80.9004 5.17188C80.5332 4.80078 80.3496 4.30273 80.3496 3.67773C80.3496 2.89648 80.6113 2.27148 81.1348 1.80273C81.6621 1.33008 82.3613 1.09375 83.2324 1.09375C83.5684 1.09375 83.9219 1.13281 84.293 1.21094C84.6641 1.28516 85.0547 1.39844 85.4648 1.55078ZM87.9082 7.51562V3.44922H88.9863V7.51562C88.9863 8.10547 89.0898 8.53906 89.2969 8.81641C89.5078 9.09375 89.832 9.23242 90.2695 9.23242C90.7773 9.23242 91.166 9.05469 91.4355 8.69922C91.7051 8.33984 91.8398 7.82617 91.8398 7.1582V3.44922H92.9238V10H91.8398V9.01562C91.6484 9.39453 91.3867 9.68164 91.0547 9.87695C90.7266 10.0723 90.3418 10.1699 89.9004 10.1699C89.2285 10.1699 88.7285 9.95117 88.4004 9.51367C88.0723 9.07227 87.9082 8.40625 87.9082 7.51562ZM95.8477 3.46094H98.6074V9.16211H100.746V10H95.3906V9.16211H97.5293V4.29883H95.8477V3.46094ZM97.5293 0.912109H98.6074V2.27148H97.5293V0.912109ZM104.824 1.57422V3.4375H107.273V4.27539H104.824V7.83789C104.824 8.32227 104.916 8.66016 105.1 8.85156C105.283 9.04297 105.604 9.13867 106.061 9.13867H107.273V10H105.955C105.146 10 104.576 9.83789 104.244 9.51367C103.912 9.18945 103.746 8.63086 103.746 7.83789V4.27539H101.994V3.4375H103.746V1.57422H104.824ZM115.02 6.17969V6.70703H110.35V6.74219C110.318 7.63672 110.488 8.2793 110.859 8.66992C111.234 9.06055 111.762 9.25586 112.441 9.25586C112.785 9.25586 113.145 9.20117 113.52 9.0918C113.895 8.98242 114.295 8.81641 114.721 8.59375V9.66602C114.311 9.83398 113.914 9.95898 113.531 10.041C113.152 10.127 112.785 10.1699 112.43 10.1699C111.41 10.1699 110.613 9.86523 110.039 9.25586C109.465 8.64258 109.178 7.79883 109.178 6.72461C109.178 5.67773 109.459 4.8418 110.021 4.2168C110.584 3.5918 111.334 3.2793 112.271 3.2793C113.107 3.2793 113.766 3.5625 114.246 4.12891C114.73 4.69531 114.988 5.37891 115.02 6.17969ZM113.941 5.86328C113.895 5.41016 113.729 5.01953 113.443 4.69141C113.162 4.35938 112.756 4.19336 112.225 4.19336C111.705 4.19336 111.277 4.36523 110.941 4.70898C110.605 5.05273 110.422 5.43945 110.391 5.86914L113.941 5.86328ZM2.33789 21.2246V24.5117H3.70898C4.25586 24.5117 4.68164 24.3672 4.98633 24.0781C5.29492 23.7891 5.44922 23.3848 5.44922 22.8652C5.44922 22.3457 5.29688 21.9434 4.99219 21.6582C4.6875 21.3691 4.25977 21.2246 3.70898 21.2246H2.33789ZM1.1543 20.252H3.70898C4.68555 20.252 5.42578 20.4746 5.92969 20.9199C6.43359 21.3613 6.68555 22.0098 6.68555 22.8652C6.68555 23.7285 6.43359 24.3809 5.92969 24.8223C5.42969 25.2637 4.68945 25.4844 3.70898 25.4844H2.33789V29H1.1543V20.252ZM13.793 25.1797V25.707H9.12305V25.7422C9.0918 26.6367 9.26172 27.2793 9.63281 27.6699C10.0078 28.0605 10.5352 28.2559 11.2148 28.2559C11.5586 28.2559 11.918 28.2012 12.293 28.0918C12.668 27.9824 13.0684 27.8164 13.4941 27.5938V28.666C13.084 28.834 12.6875 28.959 12.3047 29.041C11.9258 29.127 11.5586 29.1699 11.2031 29.1699C10.1836 29.1699 9.38672 28.8652 8.8125 28.2559C8.23828 27.6426 7.95117 26.7988 7.95117 25.7246C7.95117 24.6777 8.23242 23.8418 8.79492 23.2168C9.35742 22.5918 10.1074 22.2793 11.0449 22.2793C11.8809 22.2793 12.5391 22.5625 13.0195 23.1289C13.5039 23.6953 13.7617 24.3789 13.793 25.1797ZM12.7148 24.8633C12.668 24.4102 12.502 24.0195 12.2168 23.6914C11.9355 23.3594 11.5293 23.1934 10.998 23.1934C10.4785 23.1934 10.0508 23.3652 9.71484 23.709C9.37891 24.0527 9.19531 24.4395 9.16406 24.8691L12.7148 24.8633ZM21.2285 23.791C20.998 23.6113 20.7637 23.4805 20.5254 23.3984C20.2871 23.3164 20.0254 23.2754 19.7402 23.2754C19.0684 23.2754 18.5547 23.4863 18.1992 23.9082C17.8438 24.3301 17.666 24.9395 17.666 25.7363V29H16.582V22.4375H17.666V23.7207C17.8457 23.2559 18.1211 22.9004 18.4922 22.6543C18.8672 22.4043 19.3105 22.2793 19.8223 22.2793C20.0879 22.2793 20.3359 22.3125 20.5664 22.3789C20.7969 22.4453 21.0176 22.5488 21.2285 22.6895V23.791ZM27.9199 19.8828V20.7793H26.6953C26.3086 20.7793 26.0391 20.8594 25.8867 21.0195C25.7383 21.1758 25.6641 21.4551 25.6641 21.8574V22.4375H27.9199V23.2754H25.6641V29H24.5859V23.2754H22.834V22.4375H24.5859V21.9805C24.5859 21.2617 24.75 20.7324 25.0781 20.3926C25.4102 20.0527 25.9258 19.8828 26.625 19.8828H27.9199ZM32.5312 23.1934C31.9844 23.1934 31.5703 23.4062 31.2891 23.832C31.0078 24.2578 30.8672 24.8887 30.8672 25.7246C30.8672 26.5566 31.0078 27.1875 31.2891 27.6172C31.5703 28.043 31.9844 28.2559 32.5312 28.2559C33.082 28.2559 33.498 28.043 33.7793 27.6172C34.0605 27.1875 34.2012 26.5566 34.2012 25.7246C34.2012 24.8887 34.0605 24.2578 33.7793 23.832C33.498 23.4062 33.082 23.1934 32.5312 23.1934ZM32.5312 22.2793C33.4414 22.2793 34.1367 22.5742 34.6172 23.1641C35.1016 23.7539 35.3438 24.6074 35.3438 25.7246C35.3438 26.8457 35.1035 27.7012 34.623 28.291C34.1426 28.877 33.4453 29.1699 32.5312 29.1699C31.6211 29.1699 30.9258 28.877 30.4453 28.291C29.9648 27.7012 29.7246 26.8457 29.7246 25.7246C29.7246 24.6074 29.9648 23.7539 30.4453 23.1641C30.9258 22.5742 31.6211 22.2793 32.5312 22.2793ZM42.9199 23.791C42.6895 23.6113 42.4551 23.4805 42.2168 23.3984C41.9785 23.3164 41.7168 23.2754 41.4316 23.2754C40.7598 23.2754 40.2461 23.4863 39.8906 23.9082C39.5352 24.3301 39.3574 24.9395 39.3574 25.7363V29H38.2734V22.4375H39.3574V23.7207C39.5371 23.2559 39.8125 22.9004 40.1836 22.6543C40.5586 22.4043 41.002 22.2793 41.5137 22.2793C41.7793 22.2793 42.0273 22.3125 42.2578 22.3789C42.4883 22.4453 42.709 22.5488 42.9199 22.6895V23.791ZM47.3438 23.1055C47.4766 22.8242 47.6445 22.6172 47.8477 22.4844C48.0547 22.3477 48.3027 22.2793 48.5918 22.2793C49.1191 22.2793 49.4902 22.4844 49.7051 22.8945C49.9238 23.3008 50.0332 24.0684 50.0332 25.1973V29H49.0488V25.2441C49.0488 24.3184 48.9961 23.7441 48.8906 23.5215C48.7891 23.2949 48.6016 23.1816 48.3281 23.1816C48.0156 23.1816 47.8008 23.3027 47.6836 23.5449C47.5703 23.7832 47.5137 24.3496 47.5137 25.2441V29H46.5293V25.2441C46.5293 24.3066 46.4727 23.7285 46.3594 23.5098C46.25 23.291 46.0508 23.1816 45.7617 23.1816C45.4766 23.1816 45.2773 23.3027 45.1641 23.5449C45.0547 23.7832 45 24.3496 45 25.2441V29H44.0215V22.4375H45V23C45.1289 22.7656 45.2891 22.5879 45.4805 22.4668C45.6758 22.3418 45.8965 22.2793 46.1426 22.2793C46.4395 22.2793 46.6855 22.3477 46.8809 22.4844C47.0801 22.6211 47.2344 22.8281 47.3438 23.1055ZM54.7266 25.7012H54.3691C53.7402 25.7012 53.2656 25.8125 52.9453 26.0352C52.6289 26.2539 52.4707 26.582 52.4707 27.0195C52.4707 27.4141 52.5898 27.7207 52.8281 27.9395C53.0664 28.1582 53.3965 28.2676 53.8184 28.2676C54.4121 28.2676 54.8789 28.0625 55.2188 27.6523C55.5586 27.2383 55.7305 26.668 55.7344 25.9414V25.7012H54.7266ZM56.8184 25.2559V29H55.7344V28.0273C55.5039 28.418 55.2129 28.707 54.8613 28.8945C54.5137 29.0781 54.0898 29.1699 53.5898 29.1699C52.9219 29.1699 52.3887 28.9824 51.9902 28.6074C51.5918 28.2285 51.3926 27.7227 51.3926 27.0898C51.3926 26.3594 51.6367 25.8047 52.125 25.4258C52.6172 25.0469 53.3379 24.8574 54.2871 24.8574H55.7344V24.6875C55.7305 24.1641 55.5977 23.7852 55.3359 23.5508C55.0742 23.3125 54.6562 23.1934 54.082 23.1934C53.7148 23.1934 53.3438 23.2461 52.9688 23.3516C52.5938 23.457 52.2285 23.6113 51.873 23.8145V22.7363C52.2715 22.584 52.6523 22.4707 53.0156 22.3965C53.3828 22.3184 53.7383 22.2793 54.082 22.2793C54.625 22.2793 55.0879 22.3594 55.4707 22.5195C55.8574 22.6797 56.1699 22.9199 56.4082 23.2402C56.5566 23.4355 56.6621 23.6777 56.7246 23.9668C56.7871 24.252 56.8184 24.6816 56.8184 25.2559ZM64.002 24.9336V29H62.918V24.9336C62.918 24.3438 62.8145 23.9102 62.6074 23.6328C62.4004 23.3555 62.0762 23.2168 61.6348 23.2168C61.1309 23.2168 60.7422 23.3965 60.4688 23.7559C60.1992 24.1113 60.0645 24.623 60.0645 25.291V29H58.9863V22.4375H60.0645V23.4219C60.2559 23.0469 60.5156 22.7637 60.8438 22.5723C61.1719 22.377 61.5605 22.2793 62.0098 22.2793C62.6777 22.2793 63.1758 22.5 63.5039 22.9414C63.8359 23.3789 64.002 24.043 64.002 24.9336ZM71.291 28.666C71.002 28.834 70.7031 28.959 70.3945 29.041C70.0898 29.127 69.7773 29.1699 69.457 29.1699C68.4414 29.1699 67.6465 28.8652 67.0723 28.2559C66.502 27.6465 66.2168 26.8027 66.2168 25.7246C66.2168 24.6465 66.502 23.8027 67.0723 23.1934C67.6465 22.584 68.4414 22.2793 69.457 22.2793C69.7734 22.2793 70.082 22.3203 70.3828 22.4023C70.6836 22.4844 70.9863 22.6113 71.291 22.7832V23.9141C71.0059 23.6602 70.7188 23.4766 70.4297 23.3633C70.1445 23.25 69.8203 23.1934 69.457 23.1934C68.7812 23.1934 68.2617 23.4121 67.8984 23.8496C67.5352 24.2871 67.3535 24.9121 67.3535 25.7246C67.3535 26.5332 67.5352 27.1582 67.8984 27.5996C68.2656 28.0371 68.7852 28.2559 69.457 28.2559C69.832 28.2559 70.168 28.1992 70.4648 28.0859C70.7617 27.9688 71.0371 27.7891 71.291 27.5469V28.666ZM78.8672 25.1797V25.707H74.1973V25.7422C74.166 26.6367 74.3359 27.2793 74.707 27.6699C75.082 28.0605 75.6094 28.2559 76.2891 28.2559C76.6328 28.2559 76.9922 28.2012 77.3672 28.0918C77.7422 27.9824 78.1426 27.8164 78.5684 27.5938V28.666C78.1582 28.834 77.7617 28.959 77.3789 29.041C77 29.127 76.6328 29.1699 76.2773 29.1699C75.2578 29.1699 74.4609 28.8652 73.8867 28.2559C73.3125 27.6426 73.0254 26.7988 73.0254 25.7246C73.0254 24.6777 73.3066 23.8418 73.8691 23.2168C74.4316 22.5918 75.1816 22.2793 76.1191 22.2793C76.9551 22.2793 77.6133 22.5625 78.0938 23.1289C78.5781 23.6953 78.8359 24.3789 78.8672 25.1797ZM77.7891 24.8633C77.7422 24.4102 77.5762 24.0195 77.291 23.6914C77.0098 23.3594 76.6035 23.1934 76.0723 23.1934C75.5527 23.1934 75.125 23.3652 74.7891 23.709C74.4531 24.0527 74.2695 24.4395 74.2383 24.8691L77.7891 24.8633ZM85.4648 20.5508V21.752C85.1055 21.5215 84.7441 21.3477 84.3809 21.2305C84.0215 21.1133 83.6582 21.0547 83.291 21.0547C82.7324 21.0547 82.291 21.1855 81.9668 21.4473C81.6426 21.7051 81.4805 22.0547 81.4805 22.4961C81.4805 22.8828 81.5859 23.1777 81.7969 23.3809C82.0117 23.584 82.4102 23.7539 82.9922 23.8906L83.6133 24.0312C84.4336 24.2227 85.0312 24.5234 85.4062 24.9336C85.7812 25.3438 85.9688 25.9023 85.9688 26.6094C85.9688 27.4414 85.7109 28.0762 85.1953 28.5137C84.6797 28.9512 83.9297 29.1699 82.9453 29.1699C82.5352 29.1699 82.123 29.125 81.709 29.0352C81.2949 28.9492 80.8789 28.8184 80.4609 28.6426V27.3828C80.9102 27.668 81.334 27.877 81.7324 28.0098C82.1348 28.1426 82.5391 28.209 82.9453 28.209C83.543 28.209 84.0078 28.0762 84.3398 27.8105C84.6719 27.541 84.8379 27.166 84.8379 26.6855C84.8379 26.248 84.7227 25.9141 84.4922 25.6836C84.2656 25.4531 83.8691 25.2754 83.3027 25.1504L82.6699 25.0039C81.8574 24.8203 81.2676 24.543 80.9004 24.1719C80.5332 23.8008 80.3496 23.3027 80.3496 22.6777C80.3496 21.8965 80.6113 21.2715 81.1348 20.8027C81.6621 20.3301 82.3613 20.0938 83.2324 20.0938C83.5684 20.0938 83.9219 20.1328 84.293 20.2109C84.6641 20.2852 85.0547 20.3984 85.4648 20.5508ZM87.9082 26.5156V22.4492H88.9863V26.5156C88.9863 27.1055 89.0898 27.5391 89.2969 27.8164C89.5078 28.0938 89.832 28.2324 90.2695 28.2324C90.7773 28.2324 91.166 28.0547 91.4355 27.6992C91.7051 27.3398 91.8398 26.8262 91.8398 26.1582V22.4492H92.9238V29H91.8398V28.0156C91.6484 28.3945 91.3867 28.6816 91.0547 28.877C90.7266 29.0723 90.3418 29.1699 89.9004 29.1699C89.2285 29.1699 88.7285 28.9512 88.4004 28.5137C88.0723 28.0723 87.9082 27.4062 87.9082 26.5156ZM95.8477 22.4609H98.6074V28.1621H100.746V29H95.3906V28.1621H97.5293V23.2988H95.8477V22.4609ZM97.5293 19.9121H98.6074V21.2715H97.5293V19.9121ZM104.824 20.5742V22.4375H107.273V23.2754H104.824V26.8379C104.824 27.3223 104.916 27.6602 105.1 27.8516C105.283 28.043 105.604 28.1387 106.061 28.1387H107.273V29H105.955C105.146 29 104.576 28.8379 104.244 28.5137C103.912 28.1895 103.746 27.6309 103.746 26.8379V23.2754H101.994V22.4375H103.746V20.5742H104.824ZM115.02 25.1797V25.707H110.35V25.7422C110.318 26.6367 110.488 27.2793 110.859 27.6699C111.234 28.0605 111.762 28.2559 112.441 28.2559C112.785 28.2559 113.145 28.2012 113.52 28.0918C113.895 27.9824 114.295 27.8164 114.721 27.5938V28.666C114.311 28.834 113.914 28.959 113.531 29.041C113.152 29.127 112.785 29.1699 112.43 29.1699C111.41 29.1699 110.613 28.8652 110.039 28.2559C109.465 27.6426 109.178 26.7988 109.178 25.7246C109.178 24.6777 109.459 23.8418 110.021 23.2168C110.584 22.5918 111.334 22.2793 112.271 22.2793C113.107 22.2793 113.766 22.5625 114.246 23.1289C114.73 23.6953 114.988 24.3789 115.02 25.1797ZM113.941 24.8633C113.895 24.4102 113.729 24.0195 113.443 23.6914C113.162 23.3594 112.756 23.1934 112.225 23.1934C111.705 23.1934 111.277 23.3652 110.941 23.709C110.605 24.0527 110.422 24.4395 110.391 24.8691L113.941 24.8633ZM117.967 26.6328H120.029V29H117.967V26.6328ZM129.686 23.791C129.455 23.6113 129.221 23.4805 128.982 23.3984C128.744 23.3164 128.482 23.2754 128.197 23.2754C127.525 23.2754 127.012 23.4863 126.656 23.9082C126.301 24.3301 126.123 24.9395 126.123 25.7363V29H125.039V22.4375H126.123V23.7207C126.303 23.2559 126.578 22.9004 126.949 22.6543C127.324 22.4043 127.768 22.2793 128.279 22.2793C128.545 22.2793 128.793 22.3125 129.023 22.3789C129.254 22.4453 129.475 22.5488 129.686 22.6895V23.791ZM131.291 26.5156V22.4492H132.369V26.5156C132.369 27.1055 132.473 27.5391 132.68 27.8164C132.891 28.0938 133.215 28.2324 133.652 28.2324C134.16 28.2324 134.549 28.0547 134.818 27.6992C135.088 27.3398 135.223 26.8262 135.223 26.1582V22.4492H136.307V29H135.223V28.0156C135.031 28.3945 134.77 28.6816 134.438 28.877C134.109 29.0723 133.725 29.1699 133.283 29.1699C132.611 29.1699 132.111 28.9512 131.783 28.5137C131.455 28.0723 131.291 27.4062 131.291 26.5156ZM143.537 24.9336V29H142.453V24.9336C142.453 24.3438 142.35 23.9102 142.143 23.6328C141.936 23.3555 141.611 23.2168 141.17 23.2168C140.666 23.2168 140.277 23.3965 140.004 23.7559C139.734 24.1113 139.6 24.623 139.6 25.291V29H138.521V22.4375H139.6V23.4219C139.791 23.0469 140.051 22.7637 140.379 22.5723C140.707 22.377 141.096 22.2793 141.545 22.2793C142.213 22.2793 142.711 22.5 143.039 22.9414C143.371 23.3789 143.537 24.043 143.537 24.9336ZM149.619 19.3086C149.1 20.1992 148.711 21.0879 148.453 21.9746C148.199 22.8574 148.072 23.748 148.072 24.6465C148.072 25.541 148.199 26.4316 148.453 27.3184C148.711 28.2051 149.1 29.0977 149.619 29.9961H148.682C148.092 29.0664 147.652 28.1621 147.363 27.2832C147.074 26.4004 146.93 25.5215 146.93 24.6465C146.93 23.7754 147.074 22.8984 147.363 22.0156C147.652 21.1328 148.092 20.2305 148.682 19.3086H149.619ZM155.438 20.5742V22.4375H157.887V23.2754H155.438V26.8379C155.438 27.3223 155.529 27.6602 155.713 27.8516C155.896 28.043 156.217 28.1387 156.674 28.1387H157.887V29H156.568C155.76 29 155.189 28.8379 154.857 28.5137C154.525 28.1895 154.359 27.6309 154.359 26.8379V23.2754H152.607V22.4375H154.359V20.5742H155.438ZM165.838 23.791C165.607 23.6113 165.373 23.4805 165.135 23.3984C164.896 23.3164 164.635 23.2754 164.35 23.2754C163.678 23.2754 163.164 23.4863 162.809 23.9082C162.453 24.3301 162.275 24.9395 162.275 25.7363V29H161.191V22.4375H162.275V23.7207C162.455 23.2559 162.73 22.9004 163.102 22.6543C163.477 22.4043 163.92 22.2793 164.432 22.2793C164.697 22.2793 164.945 22.3125 165.176 22.3789C165.406 22.4453 165.627 22.5488 165.838 22.6895V23.791ZM170.414 25.7012H170.057C169.428 25.7012 168.953 25.8125 168.633 26.0352C168.316 26.2539 168.158 26.582 168.158 27.0195C168.158 27.4141 168.277 27.7207 168.516 27.9395C168.754 28.1582 169.084 28.2676 169.506 28.2676C170.1 28.2676 170.566 28.0625 170.906 27.6523C171.246 27.2383 171.418 26.668 171.422 25.9414V25.7012H170.414ZM172.506 25.2559V29H171.422V28.0273C171.191 28.418 170.9 28.707 170.549 28.8945C170.201 29.0781 169.777 29.1699 169.277 29.1699C168.609 29.1699 168.076 28.9824 167.678 28.6074C167.279 28.2285 167.08 27.7227 167.08 27.0898C167.08 26.3594 167.324 25.8047 167.812 25.4258C168.305 25.0469 169.025 24.8574 169.975 24.8574H171.422V24.6875C171.418 24.1641 171.285 23.7852 171.023 23.5508C170.762 23.3125 170.344 23.1934 169.77 23.1934C169.402 23.1934 169.031 23.2461 168.656 23.3516C168.281 23.457 167.916 23.6113 167.561 23.8145V22.7363C167.959 22.584 168.34 22.4707 168.703 22.3965C169.07 22.3184 169.426 22.2793 169.77 22.2793C170.312 22.2793 170.775 22.3594 171.158 22.5195C171.545 22.6797 171.857 22.9199 172.096 23.2402C172.244 23.4355 172.35 23.6777 172.412 23.9668C172.475 24.252 172.506 24.6816 172.506 25.2559ZM175.383 22.4609H178.143V28.1621H180.281V29H174.926V28.1621H177.064V23.2988H175.383V22.4609ZM177.064 19.9121H178.143V21.2715H177.064V19.9121ZM186.92 24.9336V29H185.836V24.9336C185.836 24.3438 185.732 23.9102 185.525 23.6328C185.318 23.3555 184.994 23.2168 184.553 23.2168C184.049 23.2168 183.66 23.3965 183.387 23.7559C183.117 24.1113 182.982 24.623 182.982 25.291V29H181.904V22.4375H182.982V23.4219C183.174 23.0469 183.434 22.7637 183.762 22.5723C184.09 22.377 184.479 22.2793 184.928 22.2793C185.596 22.2793 186.094 22.5 186.422 22.9414C186.754 23.3789 186.92 24.043 186.92 24.9336ZM195.164 30.1133V31.1094H187.992V30.1133H195.164ZM200.25 23.2754V19.8828H201.328V29H200.25V28.1738C200.07 28.498 199.83 28.7461 199.529 28.918C199.232 29.0859 198.889 29.1699 198.498 29.1699C197.705 29.1699 197.08 28.8633 196.623 28.25C196.17 27.6328 195.943 26.7832 195.943 25.7012C195.943 24.6348 196.172 23.7988 196.629 23.1934C197.086 22.584 197.709 22.2793 198.498 22.2793C198.893 22.2793 199.24 22.3652 199.541 22.5371C199.842 22.7051 200.078 22.9512 200.25 23.2754ZM197.08 25.7246C197.08 26.5605 197.213 27.1914 197.479 27.6172C197.744 28.043 198.137 28.2559 198.656 28.2559C199.176 28.2559 199.57 28.041 199.84 27.6113C200.113 27.1816 200.25 26.5527 200.25 25.7246C200.25 24.8926 200.113 24.2637 199.84 23.8379C199.57 23.4082 199.176 23.1934 198.656 23.1934C198.137 23.1934 197.744 23.4062 197.479 23.832C197.213 24.2578 197.08 24.8887 197.08 25.7246ZM206.566 25.7012H206.209C205.58 25.7012 205.105 25.8125 204.785 26.0352C204.469 26.2539 204.311 26.582 204.311 27.0195C204.311 27.4141 204.43 27.7207 204.668 27.9395C204.906 28.1582 205.236 28.2676 205.658 28.2676C206.252 28.2676 206.719 28.0625 207.059 27.6523C207.398 27.2383 207.57 26.668 207.574 25.9414V25.7012H206.566ZM208.658 25.2559V29H207.574V28.0273C207.344 28.418 207.053 28.707 206.701 28.8945C206.354 29.0781 205.93 29.1699 205.43 29.1699C204.762 29.1699 204.229 28.9824 203.83 28.6074C203.432 28.2285 203.232 27.7227 203.232 27.0898C203.232 26.3594 203.477 25.8047 203.965 25.4258C204.457 25.0469 205.178 24.8574 206.127 24.8574H207.574V24.6875C207.57 24.1641 207.438 23.7852 207.176 23.5508C206.914 23.3125 206.496 23.1934 205.922 23.1934C205.555 23.1934 205.184 23.2461 204.809 23.3516C204.434 23.457 204.068 23.6113 203.713 23.8145V22.7363C204.111 22.584 204.492 22.4707 204.855 22.3965C205.223 22.3184 205.578 22.2793 205.922 22.2793C206.465 22.2793 206.928 22.3594 207.311 22.5195C207.697 22.6797 208.01 22.9199 208.248 23.2402C208.396 23.4355 208.502 23.6777 208.564 23.9668C208.627 24.252 208.658 24.6816 208.658 25.2559ZM213.281 20.5742V22.4375H215.73V23.2754H213.281V26.8379C213.281 27.3223 213.373 27.6602 213.557 27.8516C213.74 28.043 214.061 28.1387 214.518 28.1387H215.73V29H214.412C213.604 29 213.033 28.8379 212.701 28.5137C212.369 28.1895 212.203 27.6309 212.203 26.8379V23.2754H210.451V22.4375H212.203V20.5742H213.281ZM221.027 25.7012H220.67C220.041 25.7012 219.566 25.8125 219.246 26.0352C218.93 26.2539 218.771 26.582 218.771 27.0195C218.771 27.4141 218.891 27.7207 219.129 27.9395C219.367 28.1582 219.697 28.2676 220.119 28.2676C220.713 28.2676 221.18 28.0625 221.52 27.6523C221.859 27.2383 222.031 26.668 222.035 25.9414V25.7012H221.027ZM223.119 25.2559V29H222.035V28.0273C221.805 28.418 221.514 28.707 221.162 28.8945C220.814 29.0781 220.391 29.1699 219.891 29.1699C219.223 29.1699 218.689 28.9824 218.291 28.6074C217.893 28.2285 217.693 27.7227 217.693 27.0898C217.693 26.3594 217.938 25.8047 218.426 25.4258C218.918 25.0469 219.639 24.8574 220.588 24.8574H222.035V24.6875C222.031 24.1641 221.898 23.7852 221.637 23.5508C221.375 23.3125 220.957 23.1934 220.383 23.1934C220.016 23.1934 219.645 23.2461 219.27 23.3516C218.895 23.457 218.529 23.6113 218.174 23.8145V22.7363C218.572 22.584 218.953 22.4707 219.316 22.3965C219.684 22.3184 220.039 22.2793 220.383 22.2793C220.926 22.2793 221.389 22.3594 221.771 22.5195C222.158 22.6797 222.471 22.9199 222.709 23.2402C222.857 23.4355 222.963 23.6777 223.025 23.9668C223.088 24.252 223.119 24.6816 223.119 25.2559ZM229.846 22.666V23.7207C229.537 23.541 229.227 23.4062 228.914 23.3164C228.602 23.2266 228.283 23.1816 227.959 23.1816C227.471 23.1816 227.105 23.2617 226.863 23.4219C226.625 23.5781 226.506 23.8184 226.506 24.1426C226.506 24.4355 226.596 24.6543 226.775 24.7988C226.955 24.9434 227.402 25.084 228.117 25.2207L228.551 25.3027C229.086 25.4043 229.49 25.6074 229.764 25.9121C230.041 26.2168 230.18 26.6133 230.18 27.1016C230.18 27.75 229.949 28.2578 229.488 28.625C229.027 28.9883 228.387 29.1699 227.566 29.1699C227.242 29.1699 226.902 29.1348 226.547 29.0645C226.191 28.998 225.807 28.8965 225.393 28.7598V27.6465C225.795 27.8535 226.18 28.0098 226.547 28.1152C226.914 28.2168 227.262 28.2676 227.59 28.2676C228.066 28.2676 228.436 28.1719 228.697 27.9805C228.959 27.7852 229.09 27.5137 229.09 27.166C229.09 26.666 228.611 26.3203 227.654 26.1289L227.607 26.1172L227.203 26.0352C226.582 25.9141 226.129 25.7109 225.844 25.4258C225.559 25.1367 225.416 24.7441 225.416 24.248C225.416 23.6191 225.629 23.1348 226.055 22.7949C226.48 22.4512 227.088 22.2793 227.877 22.2793C228.229 22.2793 228.566 22.3125 228.891 22.3789C229.215 22.4414 229.533 22.5371 229.846 22.666ZM237.938 25.1797V25.707H233.268V25.7422C233.236 26.6367 233.406 27.2793 233.777 27.6699C234.152 28.0605 234.68 28.2559 235.359 28.2559C235.703 28.2559 236.062 28.2012 236.438 28.0918C236.812 27.9824 237.213 27.8164 237.639 27.5938V28.666C237.229 28.834 236.832 28.959 236.449 29.041C236.07 29.127 235.703 29.1699 235.348 29.1699C234.328 29.1699 233.531 28.8652 232.957 28.2559C232.383 27.6426 232.096 26.7988 232.096 25.7246C232.096 24.6777 232.377 23.8418 232.939 23.2168C233.502 22.5918 234.252 22.2793 235.189 22.2793C236.025 22.2793 236.684 22.5625 237.164 23.1289C237.648 23.6953 237.906 24.3789 237.938 25.1797ZM236.859 24.8633C236.812 24.4102 236.646 24.0195 236.361 23.6914C236.08 23.3594 235.674 23.1934 235.143 23.1934C234.623 23.1934 234.195 23.3652 233.859 23.709C233.523 24.0527 233.34 24.4395 233.309 24.8691L236.859 24.8633ZM242.203 20.5742V22.4375H244.652V23.2754H242.203V26.8379C242.203 27.3223 242.295 27.6602 242.479 27.8516C242.662 28.043 242.982 28.1387 243.439 28.1387H244.652V29H243.334C242.525 29 241.955 28.8379 241.623 28.5137C241.291 28.1895 241.125 27.6309 241.125 26.8379V23.2754H239.373V22.4375H241.125V20.5742H242.203ZM246.352 26.0703H252.545V27.0605H246.352V26.0703ZM246.352 23.3105H252.545V24.3008H246.352V23.3105ZM257.18 25.7012H256.822C256.193 25.7012 255.719 25.8125 255.398 26.0352C255.082 26.2539 254.924 26.582 254.924 27.0195C254.924 27.4141 255.043 27.7207 255.281 27.9395C255.52 28.1582 255.85 28.2676 256.271 28.2676C256.865 28.2676 257.332 28.0625 257.672 27.6523C258.012 27.2383 258.184 26.668 258.188 25.9414V25.7012H257.18ZM259.271 25.2559V29H258.188V28.0273C257.957 28.418 257.666 28.707 257.314 28.8945C256.967 29.0781 256.543 29.1699 256.043 29.1699C255.375 29.1699 254.842 28.9824 254.443 28.6074C254.045 28.2285 253.846 27.7227 253.846 27.0898C253.846 26.3594 254.09 25.8047 254.578 25.4258C255.07 25.0469 255.791 24.8574 256.74 24.8574H258.188V24.6875C258.184 24.1641 258.051 23.7852 257.789 23.5508C257.527 23.3125 257.109 23.1934 256.535 23.1934C256.168 23.1934 255.797 23.2461 255.422 23.3516C255.047 23.457 254.682 23.6113 254.326 23.8145V22.7363C254.725 22.584 255.105 22.4707 255.469 22.3965C255.836 22.3184 256.191 22.2793 256.535 22.2793C257.078 22.2793 257.541 22.3594 257.924 22.5195C258.311 22.6797 258.623 22.9199 258.861 23.2402C259.01 23.4355 259.115 23.6777 259.178 23.9668C259.24 24.252 259.271 24.6816 259.271 25.2559ZM264.51 26.627C264.51 27.1113 264.598 27.4766 264.773 27.7227C264.953 27.9688 265.217 28.0918 265.564 28.0918H266.824V29H265.459C264.814 29 264.314 28.7949 263.959 28.3848C263.607 27.9707 263.432 27.3848 263.432 26.627V20.6914H261.703V19.8477H264.51V26.627ZM271.125 20.5742V22.4375H273.574V23.2754H271.125V26.8379C271.125 27.3223 271.217 27.6602 271.4 27.8516C271.584 28.043 271.904 28.1387 272.361 28.1387H273.574V29H272.256C271.447 29 270.877 28.8379 270.545 28.5137C270.213 28.1895 270.047 27.6309 270.047 26.8379V23.2754H268.295V22.4375H270.047V20.5742H271.125ZM281.32 25.1797V25.707H276.65V25.7422C276.619 26.6367 276.789 27.2793 277.16 27.6699C277.535 28.0605 278.062 28.2559 278.742 28.2559C279.086 28.2559 279.445 28.2012 279.82 28.0918C280.195 27.9824 280.596 27.8164 281.021 27.5938V28.666C280.611 28.834 280.215 28.959 279.832 29.041C279.453 29.127 279.086 29.1699 278.73 29.1699C277.711 29.1699 276.914 28.8652 276.34 28.2559C275.766 27.6426 275.479 26.7988 275.479 25.7246C275.479 24.6777 275.76 23.8418 276.322 23.2168C276.885 22.5918 277.635 22.2793 278.572 22.2793C279.408 22.2793 280.066 22.5625 280.547 23.1289C281.031 23.6953 281.289 24.3789 281.32 25.1797ZM280.242 24.8633C280.195 24.4102 280.029 24.0195 279.744 23.6914C279.463 23.3594 279.057 23.1934 278.525 23.1934C278.006 23.1934 277.578 23.3652 277.242 23.709C276.906 24.0527 276.723 24.4395 276.691 24.8691L280.242 24.8633ZM288.756 23.791C288.525 23.6113 288.291 23.4805 288.053 23.3984C287.814 23.3164 287.553 23.2754 287.268 23.2754C286.596 23.2754 286.082 23.4863 285.727 23.9082C285.371 24.3301 285.193 24.9395 285.193 25.7363V29H284.109V22.4375H285.193V23.7207C285.373 23.2559 285.648 22.9004 286.02 22.6543C286.395 22.4043 286.838 22.2793 287.35 22.2793C287.615 22.2793 287.863 22.3125 288.094 22.3789C288.324 22.4453 288.545 22.5488 288.756 22.6895V23.791ZM295.377 24.9336V29H294.293V24.9336C294.293 24.3438 294.189 23.9102 293.982 23.6328C293.775 23.3555 293.451 23.2168 293.01 23.2168C292.506 23.2168 292.117 23.3965 291.844 23.7559C291.574 24.1113 291.439 24.623 291.439 25.291V29H290.361V22.4375H291.439V23.4219C291.631 23.0469 291.891 22.7637 292.219 22.5723C292.547 22.377 292.936 22.2793 293.385 22.2793C294.053 22.2793 294.551 22.5 294.879 22.9414C295.211 23.3789 295.377 24.043 295.377 24.9336ZM300.562 25.7012H300.205C299.576 25.7012 299.102 25.8125 298.781 26.0352C298.465 26.2539 298.307 26.582 298.307 27.0195C298.307 27.4141 298.426 27.7207 298.664 27.9395C298.902 28.1582 299.232 28.2676 299.654 28.2676C300.248 28.2676 300.715 28.0625 301.055 27.6523C301.395 27.2383 301.566 26.668 301.57 25.9414V25.7012H300.562ZM302.654 25.2559V29H301.57V28.0273C301.34 28.418 301.049 28.707 300.697 28.8945C300.35 29.0781 299.926 29.1699 299.426 29.1699C298.758 29.1699 298.225 28.9824 297.826 28.6074C297.428 28.2285 297.229 27.7227 297.229 27.0898C297.229 26.3594 297.473 25.8047 297.961 25.4258C298.453 25.0469 299.174 24.8574 300.123 24.8574H301.57V24.6875C301.566 24.1641 301.434 23.7852 301.172 23.5508C300.91 23.3125 300.492 23.1934 299.918 23.1934C299.551 23.1934 299.18 23.2461 298.805 23.3516C298.43 23.457 298.064 23.6113 297.709 23.8145V22.7363C298.107 22.584 298.488 22.4707 298.852 22.3965C299.219 22.3184 299.574 22.2793 299.918 22.2793C300.461 22.2793 300.924 22.3594 301.307 22.5195C301.693 22.6797 302.006 22.9199 302.244 23.2402C302.393 23.4355 302.498 23.6777 302.561 23.9668C302.623 24.252 302.654 24.6816 302.654 25.2559ZM307.277 20.5742V22.4375H309.727V23.2754H307.277V26.8379C307.277 27.3223 307.369 27.6602 307.553 27.8516C307.736 28.043 308.057 28.1387 308.514 28.1387H309.727V29H308.408C307.6 29 307.029 28.8379 306.697 28.5137C306.365 28.1895 306.199 27.6309 306.199 26.8379V23.2754H304.447V22.4375H306.199V20.5742H307.277ZM312.762 22.4609H315.521V28.1621H317.66V29H312.305V28.1621H314.443V23.2988H312.762V22.4609ZM314.443 19.9121H315.521V21.2715H314.443V19.9121ZM0.585938 41.4375H1.70508L3.60938 46.9453L5.51953 41.4375H6.63867L4.30664 48H2.91797L0.585938 41.4375ZM13.793 44.1797V44.707H9.12305V44.7422C9.0918 45.6367 9.26172 46.2793 9.63281 46.6699C10.0078 47.0605 10.5352 47.2559 11.2148 47.2559C11.5586 47.2559 11.918 47.2012 12.293 47.0918C12.668 46.9824 13.0684 46.8164 13.4941 46.5938V47.666C13.084 47.834 12.6875 47.959 12.3047 48.041C11.9258 48.127 11.5586 48.1699 11.2031 48.1699C10.1836 48.1699 9.38672 47.8652 8.8125 47.2559C8.23828 46.6426 7.95117 45.7988 7.95117 44.7246C7.95117 43.6777 8.23242 42.8418 8.79492 42.2168C9.35742 41.5918 10.1074 41.2793 11.0449 41.2793C11.8809 41.2793 12.5391 41.5625 13.0195 42.1289C13.5039 42.6953 13.7617 43.3789 13.793 44.1797ZM12.7148 43.8633C12.668 43.4102 12.502 43.0195 12.2168 42.6914C11.9355 42.3594 11.5293 42.1934 10.998 42.1934C10.4785 42.1934 10.0508 42.3652 9.71484 42.709C9.37891 43.0527 9.19531 43.4395 9.16406 43.8691L12.7148 43.8633ZM21.6328 49.1133V50.1094H14.4609V49.1133H21.6328ZM25.2891 39.5742V41.4375H27.7383V42.2754H25.2891V45.8379C25.2891 46.3223 25.3809 46.6602 25.5645 46.8516C25.748 47.043 26.0684 47.1387 26.5254 47.1387H27.7383V48H26.4199C25.6113 48 25.041 47.8379 24.709 47.5137C24.377 47.1895 24.2109 46.6309 24.2109 45.8379V42.2754H22.459V41.4375H24.2109V39.5742H25.2891ZM35.6895 42.791C35.459 42.6113 35.2246 42.4805 34.9863 42.3984C34.748 42.3164 34.4863 42.2754 34.2012 42.2754C33.5293 42.2754 33.0156 42.4863 32.6602 42.9082C32.3047 43.3301 32.127 43.9395 32.127 44.7363V48H31.043V41.4375H32.127V42.7207C32.3066 42.2559 32.582 41.9004 32.9531 41.6543C33.3281 41.4043 33.7715 41.2793 34.2832 41.2793C34.5488 41.2793 34.7969 41.3125 35.0273 41.3789C35.2578 41.4453 35.4785 41.5488 35.6895 41.6895V42.791ZM40.2656 44.7012H39.9082C39.2793 44.7012 38.8047 44.8125 38.4844 45.0352C38.168 45.2539 38.0098 45.582 38.0098 46.0195C38.0098 46.4141 38.1289 46.7207 38.3672 46.9395C38.6055 47.1582 38.9355 47.2676 39.3574 47.2676C39.9512 47.2676 40.418 47.0625 40.7578 46.6523C41.0977 46.2383 41.2695 45.668 41.2734 44.9414V44.7012H40.2656ZM42.3574 44.2559V48H41.2734V47.0273C41.043 47.418 40.752 47.707 40.4004 47.8945C40.0527 48.0781 39.6289 48.1699 39.1289 48.1699C38.4609 48.1699 37.9277 47.9824 37.5293 47.6074C37.1309 47.2285 36.9316 46.7227 36.9316 46.0898C36.9316 45.3594 37.1758 44.8047 37.6641 44.4258C38.1562 44.0469 38.877 43.8574 39.8262 43.8574H41.2734V43.6875C41.2695 43.1641 41.1367 42.7852 40.875 42.5508C40.6133 42.3125 40.1953 42.1934 39.6211 42.1934C39.2539 42.1934 38.8828 42.2461 38.5078 42.3516C38.1328 42.457 37.7676 42.6113 37.4121 42.8145V41.7363C37.8105 41.584 38.1914 41.4707 38.5547 41.3965C38.9219 41.3184 39.2773 41.2793 39.6211 41.2793C40.1641 41.2793 40.627 41.3594 41.0098 41.5195C41.3965 41.6797 41.709 41.9199 41.9473 42.2402C42.0957 42.4355 42.2012 42.6777 42.2637 42.9668C42.3262 43.252 42.3574 43.6816 42.3574 44.2559ZM45.2344 41.4609H47.9941V47.1621H50.1328V48H44.7773V47.1621H46.916V42.2988H45.2344V41.4609ZM46.916 38.9121H47.9941V40.2715H46.916V38.9121ZM56.7715 43.9336V48H55.6875V43.9336C55.6875 43.3438 55.584 42.9102 55.377 42.6328C55.1699 42.3555 54.8457 42.2168 54.4043 42.2168C53.9004 42.2168 53.5117 42.3965 53.2383 42.7559C52.9688 43.1113 52.834 43.623 52.834 44.291V48H51.7559V41.4375H52.834V42.4219C53.0254 42.0469 53.2852 41.7637 53.6133 41.5723C53.9414 41.377 54.3301 41.2793 54.7793 41.2793C55.4473 41.2793 55.9453 41.5 56.2734 41.9414C56.6055 42.3789 56.7715 43.043 56.7715 43.9336ZM65.0156 49.1133V50.1094H57.8438V49.1133H65.0156ZM70.1016 42.2754V38.8828H71.1797V48H70.1016V47.1738C69.9219 47.498 69.6816 47.7461 69.3809 47.918C69.084 48.0859 68.7402 48.1699 68.3496 48.1699C67.5566 48.1699 66.9316 47.8633 66.4746 47.25C66.0215 46.6328 65.7949 45.7832 65.7949 44.7012C65.7949 43.6348 66.0234 42.7988 66.4805 42.1934C66.9375 41.584 67.5605 41.2793 68.3496 41.2793C68.7441 41.2793 69.0918 41.3652 69.3926 41.5371C69.6934 41.7051 69.9297 41.9512 70.1016 42.2754ZM66.9316 44.7246C66.9316 45.5605 67.0645 46.1914 67.3301 46.6172C67.5957 47.043 67.9883 47.2559 68.5078 47.2559C69.0273 47.2559 69.4219 47.041 69.6914 46.6113C69.9648 46.1816 70.1016 45.5527 70.1016 44.7246C70.1016 43.8926 69.9648 43.2637 69.6914 42.8379C69.4219 42.4082 69.0273 42.1934 68.5078 42.1934C67.9883 42.1934 67.5957 42.4062 67.3301 42.832C67.0645 43.2578 66.9316 43.8887 66.9316 44.7246ZM78.5332 38.8828V39.7793H77.3086C76.9219 39.7793 76.6523 39.8594 76.5 40.0195C76.3516 40.1758 76.2773 40.4551 76.2773 40.8574V41.4375H78.5332V42.2754H76.2773V48H75.1992V42.2754H73.4473V41.4375H75.1992V40.9805C75.1992 40.2617 75.3633 39.7324 75.6914 39.3926C76.0234 39.0527 76.5391 38.8828 77.2383 38.8828H78.5332ZM3.96094 80.1055C4.09375 79.8242 4.26172 79.6172 4.46484 79.4844C4.67188 79.3477 4.91992 79.2793 5.20898 79.2793C5.73633 79.2793 6.10742 79.4844 6.32227 79.8945C6.54102 80.3008 6.65039 81.0684 6.65039 82.1973V86H5.66602V82.2441C5.66602 81.3184 5.61328 80.7441 5.50781 80.5215C5.40625 80.2949 5.21875 80.1816 4.94531 80.1816C4.63281 80.1816 4.41797 80.3027 4.30078 80.5449C4.1875 80.7832 4.13086 81.3496 4.13086 82.2441V86H3.14648V82.2441C3.14648 81.3066 3.08984 80.7285 2.97656 80.5098C2.86719 80.291 2.66797 80.1816 2.37891 80.1816C2.09375 80.1816 1.89453 80.3027 1.78125 80.5449C1.67188 80.7832 1.61719 81.3496 1.61719 82.2441V86H0.638672V79.4375H1.61719V80C1.74609 79.7656 1.90625 79.5879 2.09766 79.4668C2.29297 79.3418 2.51367 79.2793 2.75977 79.2793C3.05664 79.2793 3.30273 79.3477 3.49805 79.4844C3.69727 79.6211 3.85156 79.8281 3.96094 80.1055ZM10.8398 80.1934C10.293 80.1934 9.87891 80.4062 9.59766 80.832C9.31641 81.2578 9.17578 81.8887 9.17578 82.7246C9.17578 83.5566 9.31641 84.1875 9.59766 84.6172C9.87891 85.043 10.293 85.2559 10.8398 85.2559C11.3906 85.2559 11.8066 85.043 12.0879 84.6172C12.3691 84.1875 12.5098 83.5566 12.5098 82.7246C12.5098 81.8887 12.3691 81.2578 12.0879 80.832C11.8066 80.4062 11.3906 80.1934 10.8398 80.1934ZM10.8398 79.2793C11.75 79.2793 12.4453 79.5742 12.9258 80.1641C13.4102 80.7539 13.6523 81.6074 13.6523 82.7246C13.6523 83.8457 13.4121 84.7012 12.9316 85.291C12.4512 85.877 11.7539 86.1699 10.8398 86.1699C9.92969 86.1699 9.23438 85.877 8.75391 85.291C8.27344 84.7012 8.0332 83.8457 8.0332 82.7246C8.0332 81.6074 8.27344 80.7539 8.75391 80.1641C9.23438 79.5742 9.92969 79.2793 10.8398 79.2793ZM19.4883 80.2754V76.8828H20.5664V86H19.4883V85.1738C19.3086 85.498 19.0684 85.7461 18.7676 85.918C18.4707 86.0859 18.127 86.1699 17.7363 86.1699C16.9434 86.1699 16.3184 85.8633 15.8613 85.25C15.4082 84.6328 15.1816 83.7832 15.1816 82.7012C15.1816 81.6348 15.4102 80.7988 15.8672 80.1934C16.3242 79.584 16.9473 79.2793 17.7363 79.2793C18.1309 79.2793 18.4785 79.3652 18.7793 79.5371C19.0801 79.7051 19.3164 79.9512 19.4883 80.2754ZM16.3184 82.7246C16.3184 83.5605 16.4512 84.1914 16.7168 84.6172C16.9824 85.043 17.375 85.2559 17.8945 85.2559C18.4141 85.2559 18.8086 85.041 19.0781 84.6113C19.3516 84.1816 19.4883 83.5527 19.4883 82.7246C19.4883 81.8926 19.3516 81.2637 19.0781 80.8379C18.8086 80.4082 18.4141 80.1934 17.8945 80.1934C17.375 80.1934 16.9824 80.4062 16.7168 80.832C16.4512 81.2578 16.3184 81.8887 16.3184 82.7246ZM28.2539 82.1797V82.707H23.584V82.7422C23.5527 83.6367 23.7227 84.2793 24.0938 84.6699C24.4688 85.0605 24.9961 85.2559 25.6758 85.2559C26.0195 85.2559 26.3789 85.2012 26.7539 85.0918C27.1289 84.9824 27.5293 84.8164 27.9551 84.5938V85.666C27.5449 85.834 27.1484 85.959 26.7656 86.041C26.3867 86.127 26.0195 86.1699 25.6641 86.1699C24.6445 86.1699 23.8477 85.8652 23.2734 85.2559C22.6992 84.6426 22.4121 83.7988 22.4121 82.7246C22.4121 81.6777 22.6934 80.8418 23.2559 80.2168C23.8184 79.5918 24.5684 79.2793 25.5059 79.2793C26.3418 79.2793 27 79.5625 27.4805 80.1289C27.9648 80.6953 28.2227 81.3789 28.2539 82.1797ZM27.1758 81.8633C27.1289 81.4102 26.9629 81.0195 26.6777 80.6914C26.3965 80.3594 25.9902 80.1934 25.459 80.1934C24.9395 80.1934 24.5117 80.3652 24.1758 80.709C23.8398 81.0527 23.6562 81.4395 23.625 81.8691L27.1758 81.8633ZM33.1348 83.627C33.1348 84.1113 33.2227 84.4766 33.3984 84.7227C33.5781 84.9688 33.8418 85.0918 34.1895 85.0918H35.4492V86H34.084C33.4395 86 32.9395 85.7949 32.584 85.3848C32.2324 84.9707 32.0566 84.3848 32.0566 83.627V77.6914H30.3281V76.8477H33.1348V83.627ZM36.668 83.0703H42.8613V84.0605H36.668V83.0703ZM36.668 80.3105H42.8613V81.3008H36.668V80.3105ZM47.4961 82.7012H47.1387C46.5098 82.7012 46.0352 82.8125 45.7148 83.0352C45.3984 83.2539 45.2402 83.582 45.2402 84.0195C45.2402 84.4141 45.3594 84.7207 45.5977 84.9395C45.8359 85.1582 46.166 85.2676 46.5879 85.2676C47.1816 85.2676 47.6484 85.0625 47.9883 84.6523C48.3281 84.2383 48.5 83.668 48.5039 82.9414V82.7012H47.4961ZM49.5879 82.2559V86H48.5039V85.0273C48.2734 85.418 47.9824 85.707 47.6309 85.8945C47.2832 86.0781 46.8594 86.1699 46.3594 86.1699C45.6914 86.1699 45.1582 85.9824 44.7598 85.6074C44.3613 85.2285 44.1621 84.7227 44.1621 84.0898C44.1621 83.3594 44.4062 82.8047 44.8945 82.4258C45.3867 82.0469 46.1074 81.8574 47.0566 81.8574H48.5039V81.6875C48.5 81.1641 48.3672 80.7852 48.1055 80.5508C47.8438 80.3125 47.4258 80.1934 46.8516 80.1934C46.4844 80.1934 46.1133 80.2461 45.7383 80.3516C45.3633 80.457 44.998 80.6113 44.6426 80.8145V79.7363C45.041 79.584 45.4219 79.4707 45.7852 79.3965C46.1523 79.3184 46.5078 79.2793 46.8516 79.2793C47.3945 79.2793 47.8574 79.3594 48.2402 79.5195C48.627 79.6797 48.9395 79.9199 49.1777 80.2402C49.3262 80.4355 49.4316 80.6777 49.4941 80.9668C49.5566 81.252 49.5879 81.6816 49.5879 82.2559ZM54.8262 83.627C54.8262 84.1113 54.9141 84.4766 55.0898 84.7227C55.2695 84.9688 55.5332 85.0918 55.8809 85.0918H57.1406V86H55.7754C55.1309 86 54.6309 85.7949 54.2754 85.3848C53.9238 84.9707 53.748 84.3848 53.748 83.627V77.6914H52.0195V76.8477H54.8262V83.627ZM61.4414 77.5742V79.4375H63.8906V80.2754H61.4414V83.8379C61.4414 84.3223 61.5332 84.6602 61.7168 84.8516C61.9004 85.043 62.2207 85.1387 62.6777 85.1387H63.8906V86H62.5723C61.7637 86 61.1934 85.8379 60.8613 85.5137C60.5293 85.1895 60.3633 84.6309 60.3633 83.8379V80.2754H58.6113V79.4375H60.3633V77.5742H61.4414ZM72.2461 87.1133V88.1094H65.0742V87.1133H72.2461ZM79.0723 80.791C78.8418 80.6113 78.6074 80.4805 78.3691 80.3984C78.1309 80.3164 77.8691 80.2754 77.584 80.2754C76.9121 80.2754 76.3984 80.4863 76.043 80.9082C75.6875 81.3301 75.5098 81.9395 75.5098 82.7363V86H74.4258V79.4375H75.5098V80.7207C75.6895 80.2559 75.9648 79.9004 76.3359 79.6543C76.7109 79.4043 77.1543 79.2793 77.666 79.2793C77.9316 79.2793 78.1797 79.3125 78.4102 79.3789C78.6406 79.4453 78.8613 79.5488 79.0723 79.6895V80.791ZM85.7637 76.8828V77.7793H84.5391C84.1523 77.7793 83.8828 77.8594 83.7305 78.0195C83.582 78.1758 83.5078 78.4551 83.5078 78.8574V79.4375H85.7637V80.2754H83.5078V86H82.4297V80.2754H80.6777V79.4375H82.4297V78.9805C82.4297 78.2617 82.5938 77.7324 82.9219 77.3926C83.2539 77.0527 83.7695 76.8828 84.4688 76.8828H85.7637ZM93.9375 87.1133V88.1094H86.7656V87.1133H93.9375ZM100.213 85.666C99.9238 85.834 99.625 85.959 99.3164 86.041C99.0117 86.127 98.6992 86.1699 98.3789 86.1699C97.3633 86.1699 96.5684 85.8652 95.9941 85.2559C95.4238 84.6465 95.1387 83.8027 95.1387 82.7246C95.1387 81.6465 95.4238 80.8027 95.9941 80.1934C96.5684 79.584 97.3633 79.2793 98.3789 79.2793C98.6953 79.2793 99.0039 79.3203 99.3047 79.4023C99.6055 79.4844 99.9082 79.6113 100.213 79.7832V80.9141C99.9277 80.6602 99.6406 80.4766 99.3516 80.3633C99.0664 80.25 98.7422 80.1934 98.3789 80.1934C97.7031 80.1934 97.1836 80.4121 96.8203 80.8496C96.457 81.2871 96.2754 81.9121 96.2754 82.7246C96.2754 83.5332 96.457 84.1582 96.8203 84.5996C97.1875 85.0371 97.707 85.2559 98.3789 85.2559C98.7539 85.2559 99.0898 85.1992 99.3867 85.0859C99.6836 84.9688 99.959 84.7891 100.213 84.5469V85.666ZM105.439 83.627C105.439 84.1113 105.527 84.4766 105.703 84.7227C105.883 84.9688 106.146 85.0918 106.494 85.0918H107.754V86H106.389C105.744 86 105.244 85.7949 104.889 85.3848C104.537 84.9707 104.361 84.3848 104.361 83.627V77.6914H102.633V76.8477H105.439V83.627ZM114.686 76.8828V77.7793H113.461C113.074 77.7793 112.805 77.8594 112.652 78.0195C112.504 78.1758 112.43 78.4551 112.43 78.8574V79.4375H114.686V80.2754H112.43V86H111.352V80.2754H109.6V79.4375H111.352V78.9805C111.352 78.2617 111.516 77.7324 111.844 77.3926C112.176 77.0527 112.691 76.8828 113.391 76.8828H114.686Z" fill="#D28445"/>
<path d="M123.434 7.07031H129.627V8.06055H123.434V7.07031ZM123.434 4.31055H129.627V5.30078H123.434V4.31055ZM140.678 0.296875H143.162V1.13477H141.756V10.1582H143.162V10.9961H140.678V0.296875ZM151.172 6.17969V6.70703H146.502V6.74219C146.471 7.63672 146.641 8.2793 147.012 8.66992C147.387 9.06055 147.914 9.25586 148.594 9.25586C148.938 9.25586 149.297 9.20117 149.672 9.0918C150.047 8.98242 150.447 8.81641 150.873 8.59375V9.66602C150.463 9.83398 150.066 9.95898 149.684 10.041C149.305 10.127 148.938 10.1699 148.582 10.1699C147.562 10.1699 146.766 9.86523 146.191 9.25586C145.617 8.64258 145.33 7.79883 145.33 6.72461C145.33 5.67773 145.611 4.8418 146.174 4.2168C146.736 3.5918 147.486 3.2793 148.424 3.2793C149.26 3.2793 149.918 3.5625 150.398 4.12891C150.883 4.69531 151.141 5.37891 151.172 6.17969ZM150.094 5.86328C150.047 5.41016 149.881 5.01953 149.596 4.69141C149.314 4.35938 148.908 4.19336 148.377 4.19336C147.857 4.19336 147.43 4.36523 147.094 4.70898C146.758 5.05273 146.574 5.43945 146.543 5.86914L150.094 5.86328ZM158.607 4.79102C158.377 4.61133 158.143 4.48047 157.904 4.39844C157.666 4.31641 157.404 4.27539 157.119 4.27539C156.447 4.27539 155.934 4.48633 155.578 4.9082C155.223 5.33008 155.045 5.93945 155.045 6.73633V10H153.961V3.4375H155.045V4.7207C155.225 4.25586 155.5 3.90039 155.871 3.6543C156.246 3.4043 156.689 3.2793 157.201 3.2793C157.467 3.2793 157.715 3.3125 157.945 3.37891C158.176 3.44531 158.396 3.54883 158.607 3.68945V4.79102ZM165.299 0.882812V1.7793H164.074C163.688 1.7793 163.418 1.85938 163.266 2.01953C163.117 2.17578 163.043 2.45508 163.043 2.85742V3.4375H165.299V4.27539H163.043V10H161.965V4.27539H160.213V3.4375H161.965V2.98047C161.965 2.26172 162.129 1.73242 162.457 1.39258C162.789 1.05273 163.305 0.882812 164.004 0.882812H165.299ZM169.91 4.19336C169.363 4.19336 168.949 4.40625 168.668 4.83203C168.387 5.25781 168.246 5.88867 168.246 6.72461C168.246 7.55664 168.387 8.1875 168.668 8.61719C168.949 9.04297 169.363 9.25586 169.91 9.25586C170.461 9.25586 170.877 9.04297 171.158 8.61719C171.439 8.1875 171.58 7.55664 171.58 6.72461C171.58 5.88867 171.439 5.25781 171.158 4.83203C170.877 4.40625 170.461 4.19336 169.91 4.19336ZM169.91 3.2793C170.82 3.2793 171.516 3.57422 171.996 4.16406C172.48 4.75391 172.723 5.60742 172.723 6.72461C172.723 7.8457 172.482 8.70117 172.002 9.29102C171.521 9.87695 170.824 10.1699 169.91 10.1699C169 10.1699 168.305 9.87695 167.824 9.29102C167.344 8.70117 167.104 7.8457 167.104 6.72461C167.104 5.60742 167.344 4.75391 167.824 4.16406C168.305 3.57422 169 3.2793 169.91 3.2793ZM180.299 4.79102C180.068 4.61133 179.834 4.48047 179.596 4.39844C179.357 4.31641 179.096 4.27539 178.811 4.27539C178.139 4.27539 177.625 4.48633 177.27 4.9082C176.914 5.33008 176.736 5.93945 176.736 6.73633V10H175.652V3.4375H176.736V4.7207C176.916 4.25586 177.191 3.90039 177.562 3.6543C177.938 3.4043 178.381 3.2793 178.893 3.2793C179.158 3.2793 179.406 3.3125 179.637 3.37891C179.867 3.44531 180.088 3.54883 180.299 3.68945V4.79102ZM184.723 4.10547C184.855 3.82422 185.023 3.61719 185.227 3.48438C185.434 3.34766 185.682 3.2793 185.971 3.2793C186.498 3.2793 186.869 3.48438 187.084 3.89453C187.303 4.30078 187.412 5.06836 187.412 6.19727V10H186.428V6.24414C186.428 5.31836 186.375 4.74414 186.27 4.52148C186.168 4.29492 185.98 4.18164 185.707 4.18164C185.395 4.18164 185.18 4.30273 185.062 4.54492C184.949 4.7832 184.893 5.34961 184.893 6.24414V10H183.908V6.24414C183.908 5.30664 183.852 4.72852 183.738 4.50977C183.629 4.29102 183.43 4.18164 183.141 4.18164C182.855 4.18164 182.656 4.30273 182.543 4.54492C182.434 4.7832 182.379 5.34961 182.379 6.24414V10H181.4V3.4375H182.379V4C182.508 3.76562 182.668 3.58789 182.859 3.4668C183.055 3.3418 183.275 3.2793 183.521 3.2793C183.818 3.2793 184.064 3.34766 184.26 3.48438C184.459 3.62109 184.613 3.82812 184.723 4.10547ZM192.105 6.70117H191.748C191.119 6.70117 190.645 6.8125 190.324 7.03516C190.008 7.25391 189.85 7.58203 189.85 8.01953C189.85 8.41406 189.969 8.7207 190.207 8.93945C190.445 9.1582 190.775 9.26758 191.197 9.26758C191.791 9.26758 192.258 9.0625 192.598 8.65234C192.938 8.23828 193.109 7.66797 193.113 6.94141V6.70117H192.105ZM194.197 6.25586V10H193.113V9.02734C192.883 9.41797 192.592 9.70703 192.24 9.89453C191.893 10.0781 191.469 10.1699 190.969 10.1699C190.301 10.1699 189.768 9.98242 189.369 9.60742C188.971 9.22852 188.771 8.72266 188.771 8.08984C188.771 7.35938 189.016 6.80469 189.504 6.42578C189.996 6.04688 190.717 5.85742 191.666 5.85742H193.113V5.6875C193.109 5.16406 192.977 4.78516 192.715 4.55078C192.453 4.3125 192.035 4.19336 191.461 4.19336C191.094 4.19336 190.723 4.24609 190.348 4.35156C189.973 4.45703 189.607 4.61133 189.252 4.81445V3.73633C189.65 3.58398 190.031 3.4707 190.395 3.39648C190.762 3.31836 191.117 3.2793 191.461 3.2793C192.004 3.2793 192.467 3.35938 192.85 3.51953C193.236 3.67969 193.549 3.91992 193.787 4.24023C193.936 4.43555 194.041 4.67773 194.104 4.9668C194.166 5.25195 194.197 5.68164 194.197 6.25586ZM201.381 5.93359V10H200.297V5.93359C200.297 5.34375 200.193 4.91016 199.986 4.63281C199.779 4.35547 199.455 4.2168 199.014 4.2168C198.51 4.2168 198.121 4.39648 197.848 4.75586C197.578 5.11133 197.443 5.62305 197.443 6.29102V10H196.365V3.4375H197.443V4.42188C197.635 4.04688 197.895 3.76367 198.223 3.57227C198.551 3.37695 198.939 3.2793 199.389 3.2793C200.057 3.2793 200.555 3.5 200.883 3.94141C201.215 4.37891 201.381 5.04297 201.381 5.93359ZM208.67 9.66602C208.381 9.83398 208.082 9.95898 207.773 10.041C207.469 10.127 207.156 10.1699 206.836 10.1699C205.82 10.1699 205.025 9.86523 204.451 9.25586C203.881 8.64648 203.596 7.80273 203.596 6.72461C203.596 5.64648 203.881 4.80273 204.451 4.19336C205.025 3.58398 205.82 3.2793 206.836 3.2793C207.152 3.2793 207.461 3.32031 207.762 3.40234C208.062 3.48438 208.365 3.61133 208.67 3.7832V4.91406C208.385 4.66016 208.098 4.47656 207.809 4.36328C207.523 4.25 207.199 4.19336 206.836 4.19336C206.16 4.19336 205.641 4.41211 205.277 4.84961C204.914 5.28711 204.732 5.91211 204.732 6.72461C204.732 7.5332 204.914 8.1582 205.277 8.59961C205.645 9.03711 206.164 9.25586 206.836 9.25586C207.211 9.25586 207.547 9.19922 207.844 9.08594C208.141 8.96875 208.416 8.78906 208.67 8.54688V9.66602ZM216.246 6.17969V6.70703H211.576V6.74219C211.545 7.63672 211.715 8.2793 212.086 8.66992C212.461 9.06055 212.988 9.25586 213.668 9.25586C214.012 9.25586 214.371 9.20117 214.746 9.0918C215.121 8.98242 215.521 8.81641 215.947 8.59375V9.66602C215.537 9.83398 215.141 9.95898 214.758 10.041C214.379 10.127 214.012 10.1699 213.656 10.1699C212.637 10.1699 211.84 9.86523 211.266 9.25586C210.691 8.64258 210.404 7.79883 210.404 6.72461C210.404 5.67773 210.686 4.8418 211.248 4.2168C211.811 3.5918 212.561 3.2793 213.498 3.2793C214.334 3.2793 214.992 3.5625 215.473 4.12891C215.957 4.69531 216.215 5.37891 216.246 6.17969ZM215.168 5.86328C215.121 5.41016 214.955 5.01953 214.67 4.69141C214.389 4.35938 213.982 4.19336 213.451 4.19336C212.932 4.19336 212.504 4.36523 212.168 4.70898C211.832 5.05273 211.648 5.43945 211.617 5.86914L215.168 5.86328ZM224.086 11.1133V12.1094H216.914V11.1133H224.086ZM230.361 9.66602C230.072 9.83398 229.773 9.95898 229.465 10.041C229.16 10.127 228.848 10.1699 228.527 10.1699C227.512 10.1699 226.717 9.86523 226.143 9.25586C225.572 8.64648 225.287 7.80273 225.287 6.72461C225.287 5.64648 225.572 4.80273 226.143 4.19336C226.717 3.58398 227.512 3.2793 228.527 3.2793C228.844 3.2793 229.152 3.32031 229.453 3.40234C229.754 3.48438 230.057 3.61133 230.361 3.7832V4.91406C230.076 4.66016 229.789 4.47656 229.5 4.36328C229.215 4.25 228.891 4.19336 228.527 4.19336C227.852 4.19336 227.332 4.41211 226.969 4.84961C226.605 5.28711 226.424 5.91211 226.424 6.72461C226.424 7.5332 226.605 8.1582 226.969 8.59961C227.336 9.03711 227.855 9.25586 228.527 9.25586C228.902 9.25586 229.238 9.19922 229.535 9.08594C229.832 8.96875 230.107 8.78906 230.361 8.54688V9.66602ZM237.533 5.93359V10H236.449V5.93359C236.449 5.34375 236.346 4.91016 236.139 4.63281C235.932 4.35547 235.607 4.2168 235.166 4.2168C234.662 4.2168 234.273 4.39648 234 4.75586C233.73 5.11133 233.596 5.62305 233.596 6.29102V10H232.518V0.882812H233.596V4.42188C233.787 4.04688 234.047 3.76367 234.375 3.57227C234.703 3.37695 235.092 3.2793 235.541 3.2793C236.209 3.2793 236.707 3.5 237.035 3.94141C237.367 4.37891 237.533 5.04297 237.533 5.93359ZM245.168 6.17969V6.70703H240.498V6.74219C240.467 7.63672 240.637 8.2793 241.008 8.66992C241.383 9.06055 241.91 9.25586 242.59 9.25586C242.934 9.25586 243.293 9.20117 243.668 9.0918C244.043 8.98242 244.443 8.81641 244.869 8.59375V9.66602C244.459 9.83398 244.062 9.95898 243.68 10.041C243.301 10.127 242.934 10.1699 242.578 10.1699C241.559 10.1699 240.762 9.86523 240.188 9.25586C239.613 8.64258 239.326 7.79883 239.326 6.72461C239.326 5.67773 239.607 4.8418 240.17 4.2168C240.732 3.5918 241.482 3.2793 242.42 3.2793C243.256 3.2793 243.914 3.5625 244.395 4.12891C244.879 4.69531 245.137 5.37891 245.168 6.17969ZM244.09 5.86328C244.043 5.41016 243.877 5.01953 243.592 4.69141C243.311 4.35938 242.904 4.19336 242.373 4.19336C241.854 4.19336 241.426 4.36523 241.09 4.70898C240.754 5.05273 240.57 5.43945 240.539 5.86914L244.09 5.86328ZM252.053 9.66602C251.764 9.83398 251.465 9.95898 251.156 10.041C250.852 10.127 250.539 10.1699 250.219 10.1699C249.203 10.1699 248.408 9.86523 247.834 9.25586C247.264 8.64648 246.979 7.80273 246.979 6.72461C246.979 5.64648 247.264 4.80273 247.834 4.19336C248.408 3.58398 249.203 3.2793 250.219 3.2793C250.535 3.2793 250.844 3.32031 251.145 3.40234C251.445 3.48438 251.748 3.61133 252.053 3.7832V4.91406C251.768 4.66016 251.48 4.47656 251.191 4.36328C250.906 4.25 250.582 4.19336 250.219 4.19336C249.543 4.19336 249.023 4.41211 248.66 4.84961C248.297 5.28711 248.115 5.91211 248.115 6.72461C248.115 7.5332 248.297 8.1582 248.66 8.59961C249.027 9.03711 249.547 9.25586 250.219 9.25586C250.594 9.25586 250.93 9.19922 251.227 9.08594C251.523 8.96875 251.799 8.78906 252.053 8.54688V9.66602ZM254.449 0.882812H255.562V6.16211L258.393 3.4375H259.705L257.121 5.91016L260.109 10H258.791L256.365 6.61328L255.562 7.36914V10H254.449V0.882812ZM267.469 11.1133V12.1094H260.297V11.1133H267.469ZM273.229 3.66602V4.7207C272.92 4.54102 272.609 4.40625 272.297 4.31641C271.984 4.22656 271.666 4.18164 271.342 4.18164C270.854 4.18164 270.488 4.26172 270.246 4.42188C270.008 4.57812 269.889 4.81836 269.889 5.14258C269.889 5.43555 269.979 5.6543 270.158 5.79883C270.338 5.94336 270.785 6.08398 271.5 6.2207L271.934 6.30273C272.469 6.4043 272.873 6.60742 273.146 6.91211C273.424 7.2168 273.562 7.61328 273.562 8.10156C273.562 8.75 273.332 9.25781 272.871 9.625C272.41 9.98828 271.77 10.1699 270.949 10.1699C270.625 10.1699 270.285 10.1348 269.93 10.0645C269.574 9.99805 269.189 9.89648 268.775 9.75977V8.64648C269.178 8.85352 269.562 9.00977 269.93 9.11523C270.297 9.2168 270.645 9.26758 270.973 9.26758C271.449 9.26758 271.818 9.17188 272.08 8.98047C272.342 8.78516 272.473 8.51367 272.473 8.16602C272.473 7.66602 271.994 7.32031 271.037 7.12891L270.99 7.11719L270.586 7.03516C269.965 6.91406 269.512 6.71094 269.227 6.42578C268.941 6.13672 268.799 5.74414 268.799 5.24805C268.799 4.61914 269.012 4.13477 269.438 3.79492C269.863 3.45117 270.471 3.2793 271.26 3.2793C271.611 3.2793 271.949 3.3125 272.273 3.37891C272.598 3.44141 272.916 3.53711 273.229 3.66602ZM275.9 7.51562V3.44922H276.979V7.51562C276.979 8.10547 277.082 8.53906 277.289 8.81641C277.5 9.09375 277.824 9.23242 278.262 9.23242C278.77 9.23242 279.158 9.05469 279.428 8.69922C279.697 8.33984 279.832 7.82617 279.832 7.1582V3.44922H280.916V10H279.832V9.01562C279.641 9.39453 279.379 9.68164 279.047 9.87695C278.719 10.0723 278.334 10.1699 277.893 10.1699C277.221 10.1699 276.721 9.95117 276.393 9.51367C276.064 9.07227 275.9 8.40625 275.9 7.51562ZM283.84 3.46094H286.6V9.16211H288.738V10H283.383V9.16211H285.521V4.29883H283.84V3.46094ZM285.521 0.912109H286.6V2.27148H285.521V0.912109ZM292.816 1.57422V3.4375H295.266V4.27539H292.816V7.83789C292.816 8.32227 292.908 8.66016 293.092 8.85156C293.275 9.04297 293.596 9.13867 294.053 9.13867H295.266V10H293.947C293.139 10 292.568 9.83789 292.236 9.51367C291.904 9.18945 291.738 8.63086 291.738 7.83789V4.27539H289.986V3.4375H291.738V1.57422H292.816ZM303.012 6.17969V6.70703H298.342V6.74219C298.311 7.63672 298.48 8.2793 298.852 8.66992C299.227 9.06055 299.754 9.25586 300.434 9.25586C300.777 9.25586 301.137 9.20117 301.512 9.0918C301.887 8.98242 302.287 8.81641 302.713 8.59375V9.66602C302.303 9.83398 301.906 9.95898 301.523 10.041C301.145 10.127 300.777 10.1699 300.422 10.1699C299.402 10.1699 298.605 9.86523 298.031 9.25586C297.457 8.64258 297.17 7.79883 297.17 6.72461C297.17 5.67773 297.451 4.8418 298.014 4.2168C298.576 3.5918 299.326 3.2793 300.264 3.2793C301.1 3.2793 301.758 3.5625 302.238 4.12891C302.723 4.69531 302.98 5.37891 303.012 6.17969ZM301.934 5.86328C301.887 5.41016 301.721 5.01953 301.436 4.69141C301.154 4.35938 300.748 4.19336 300.217 4.19336C299.697 4.19336 299.27 4.36523 298.934 4.70898C298.598 5.05273 298.414 5.43945 298.383 5.86914L301.934 5.86328ZM308.689 0.308594C308.17 1.19922 307.781 2.08789 307.523 2.97461C307.27 3.85742 307.143 4.74805 307.143 5.64648C307.143 6.54102 307.27 7.43164 307.523 8.31836C307.781 9.20508 308.17 10.0977 308.689 10.9961H307.752C307.162 10.0664 306.723 9.16211 306.434 8.2832C306.145 7.40039 306 6.52148 306 5.64648C306 4.77539 306.145 3.89844 306.434 3.01562C306.723 2.13281 307.162 1.23047 307.752 0.308594H308.689ZM312.949 0.308594H313.887C314.477 1.23047 314.916 2.13281 315.205 3.01562C315.494 3.89844 315.639 4.77539 315.639 5.64648C315.639 6.52539 315.494 7.40625 315.205 8.28906C314.916 9.17188 314.477 10.0742 313.887 10.9961H312.949C313.469 10.0898 313.855 9.19336 314.109 8.30664C314.367 7.41992 314.496 6.5332 314.496 5.64648C314.496 4.75586 314.367 3.86719 314.109 2.98047C313.855 2.09375 313.469 1.20312 312.949 0.308594ZM82.125 45.8848H83.9531V47.4375L82.6523 49.9629L81.4805 49.9688L82.125 47.4375V45.8848ZM3.59766 58.5742V60.4375H6.04688V61.2754H3.59766V64.8379C3.59766 65.3223 3.68945 65.6602 3.87305 65.8516C4.05664 66.043 4.37695 66.1387 4.83398 66.1387H6.04688V67H4.72852C3.91992 67 3.34961 66.8379 3.01758 66.5137C2.68555 66.1895 2.51953 65.6309 2.51953 64.8379V61.2754H0.767578V60.4375H2.51953V58.5742H3.59766ZM13.793 63.1797V63.707H9.12305V63.7422C9.0918 64.6367 9.26172 65.2793 9.63281 65.6699C10.0078 66.0605 10.5352 66.2559 11.2148 66.2559C11.5586 66.2559 11.918 66.2012 12.293 66.0918C12.668 65.9824 13.0684 65.8164 13.4941 65.5938V66.666C13.084 66.834 12.6875 66.959 12.3047 67.041C11.9258 67.127 11.5586 67.1699 11.2031 67.1699C10.1836 67.1699 9.38672 66.8652 8.8125 66.2559C8.23828 65.6426 7.95117 64.7988 7.95117 63.7246C7.95117 62.6777 8.23242 61.8418 8.79492 61.2168C9.35742 60.5918 10.1074 60.2793 11.0449 60.2793C11.8809 60.2793 12.5391 60.5625 13.0195 61.1289C13.5039 61.6953 13.7617 62.3789 13.793 63.1797ZM12.7148 62.8633C12.668 62.4102 12.502 62.0195 12.2168 61.6914C11.9355 61.3594 11.5293 61.1934 10.998 61.1934C10.4785 61.1934 10.0508 61.3652 9.71484 61.709C9.37891 62.0527 9.19531 62.4395 9.16406 62.8691L12.7148 62.8633ZM20.1621 60.666V61.7207C19.8535 61.541 19.543 61.4062 19.2305 61.3164C18.918 61.2266 18.5996 61.1816 18.2754 61.1816C17.7871 61.1816 17.4219 61.2617 17.1797 61.4219C16.9414 61.5781 16.8223 61.8184 16.8223 62.1426C16.8223 62.4355 16.9121 62.6543 17.0918 62.7988C17.2715 62.9434 17.7188 63.084 18.4336 63.2207L18.8672 63.3027C19.4023 63.4043 19.8066 63.6074 20.0801 63.9121C20.3574 64.2168 20.4961 64.6133 20.4961 65.1016C20.4961 65.75 20.2656 66.2578 19.8047 66.625C19.3438 66.9883 18.7031 67.1699 17.8828 67.1699C17.5586 67.1699 17.2188 67.1348 16.8633 67.0645C16.5078 66.998 16.123 66.8965 15.709 66.7598V65.6465C16.1113 65.8535 16.4961 66.0098 16.8633 66.1152C17.2305 66.2168 17.5781 66.2676 17.9062 66.2676C18.3828 66.2676 18.752 66.1719 19.0137 65.9805C19.2754 65.7852 19.4062 65.5137 19.4062 65.166C19.4062 64.666 18.9277 64.3203 17.9707 64.1289L17.9238 64.1172L17.5195 64.0352C16.8984 63.9141 16.4453 63.7109 16.1602 63.4258C15.875 63.1367 15.7324 62.7441 15.7324 62.248C15.7324 61.6191 15.9453 61.1348 16.3711 60.7949C16.7969 60.4512 17.4043 60.2793 18.1934 60.2793C18.5449 60.2793 18.8828 60.3125 19.207 60.3789C19.5312 60.4414 19.8496 60.5371 20.1621 60.666ZM25.2891 58.5742V60.4375H27.7383V61.2754H25.2891V64.8379C25.2891 65.3223 25.3809 65.6602 25.5645 65.8516C25.748 66.043 26.0684 66.1387 26.5254 66.1387H27.7383V67H26.4199C25.6113 67 25.041 66.8379 24.709 66.5137C24.377 66.1895 24.2109 65.6309 24.2109 64.8379V61.2754H22.459V60.4375H24.2109V58.5742H25.2891ZM36.0938 68.1133V69.1094H28.9219V68.1133H36.0938ZM41.1797 61.2754V57.8828H42.2578V67H41.1797V66.1738C41 66.498 40.7598 66.7461 40.459 66.918C40.1621 67.0859 39.8184 67.1699 39.4277 67.1699C38.6348 67.1699 38.0098 66.8633 37.5527 66.25C37.0996 65.6328 36.873 64.7832 36.873 63.7012C36.873 62.6348 37.1016 61.7988 37.5586 61.1934C38.0156 60.584 38.6387 60.2793 39.4277 60.2793C39.8223 60.2793 40.1699 60.3652 40.4707 60.5371C40.7715 60.7051 41.0078 60.9512 41.1797 61.2754ZM38.0098 63.7246C38.0098 64.5605 38.1426 65.1914 38.4082 65.6172C38.6738 66.043 39.0664 66.2559 39.5859 66.2559C40.1055 66.2559 40.5 66.041 40.7695 65.6113C41.043 65.1816 41.1797 64.5527 41.1797 63.7246C41.1797 62.8926 41.043 62.2637 40.7695 61.8379C40.5 61.4082 40.1055 61.1934 39.5859 61.1934C39.0664 61.1934 38.6738 61.4062 38.4082 61.832C38.1426 62.2578 38.0098 62.8887 38.0098 63.7246ZM47.4961 63.7012H47.1387C46.5098 63.7012 46.0352 63.8125 45.7148 64.0352C45.3984 64.2539 45.2402 64.582 45.2402 65.0195C45.2402 65.4141 45.3594 65.7207 45.5977 65.9395C45.8359 66.1582 46.166 66.2676 46.5879 66.2676C47.1816 66.2676 47.6484 66.0625 47.9883 65.6523C48.3281 65.2383 48.5 64.668 48.5039 63.9414V63.7012H47.4961ZM49.5879 63.2559V67H48.5039V66.0273C48.2734 66.418 47.9824 66.707 47.6309 66.8945C47.2832 67.0781 46.8594 67.1699 46.3594 67.1699C45.6914 67.1699 45.1582 66.9824 44.7598 66.6074C44.3613 66.2285 44.1621 65.7227 44.1621 65.0898C44.1621 64.3594 44.4062 63.8047 44.8945 63.4258C45.3867 63.0469 46.1074 62.8574 47.0566 62.8574H48.5039V62.6875C48.5 62.1641 48.3672 61.7852 48.1055 61.5508C47.8438 61.3125 47.4258 61.1934 46.8516 61.1934C46.4844 61.1934 46.1133 61.2461 45.7383 61.3516C45.3633 61.457 44.998 61.6113 44.6426 61.8145V60.7363C45.041 60.584 45.4219 60.4707 45.7852 60.3965C46.1523 60.3184 46.5078 60.2793 46.8516 60.2793C47.3945 60.2793 47.8574 60.3594 48.2402 60.5195C48.627 60.6797 48.9395 60.9199 49.1777 61.2402C49.3262 61.4355 49.4316 61.6777 49.4941 61.9668C49.5566 62.252 49.5879 62.6816 49.5879 63.2559ZM54.2109 58.5742V60.4375H56.6602V61.2754H54.2109V64.8379C54.2109 65.3223 54.3027 65.6602 54.4863 65.8516C54.6699 66.043 54.9902 66.1387 55.4473 66.1387H56.6602V67H55.3418C54.5332 67 53.9629 66.8379 53.6309 66.5137C53.2988 66.1895 53.1328 65.6309 53.1328 64.8379V61.2754H51.3809V60.4375H53.1328V58.5742H54.2109ZM61.957 63.7012H61.5996C60.9707 63.7012 60.4961 63.8125 60.1758 64.0352C59.8594 64.2539 59.7012 64.582 59.7012 65.0195C59.7012 65.4141 59.8203 65.7207 60.0586 65.9395C60.2969 66.1582 60.627 66.2676 61.0488 66.2676C61.6426 66.2676 62.1094 66.0625 62.4492 65.6523C62.7891 65.2383 62.9609 64.668 62.9648 63.9414V63.7012H61.957ZM64.0488 63.2559V67H62.9648V66.0273C62.7344 66.418 62.4434 66.707 62.0918 66.8945C61.7441 67.0781 61.3203 67.1699 60.8203 67.1699C60.1523 67.1699 59.6191 66.9824 59.2207 66.6074C58.8223 66.2285 58.623 65.7227 58.623 65.0898C58.623 64.3594 58.8672 63.8047 59.3555 63.4258C59.8477 63.0469 60.5684 62.8574 61.5176 62.8574H62.9648V62.6875C62.9609 62.1641 62.8281 61.7852 62.5664 61.5508C62.3047 61.3125 61.8867 61.1934 61.3125 61.1934C60.9453 61.1934 60.5742 61.2461 60.1992 61.3516C59.8242 61.457 59.459 61.6113 59.1035 61.8145V60.7363C59.502 60.584 59.8828 60.4707 60.2461 60.3965C60.6133 60.3184 60.9688 60.2793 61.3125 60.2793C61.8555 60.2793 62.3184 60.3594 62.7012 60.5195C63.0879 60.6797 63.4004 60.9199 63.6387 61.2402C63.7871 61.4355 63.8926 61.6777 63.9551 61.9668C64.0176 62.252 64.0488 62.6816 64.0488 63.2559ZM70.7754 60.666V61.7207C70.4668 61.541 70.1562 61.4062 69.8438 61.3164C69.5312 61.2266 69.2129 61.1816 68.8887 61.1816C68.4004 61.1816 68.0352 61.2617 67.793 61.4219C67.5547 61.5781 67.4355 61.8184 67.4355 62.1426C67.4355 62.4355 67.5254 62.6543 67.7051 62.7988C67.8848 62.9434 68.332 63.084 69.0469 63.2207L69.4805 63.3027C70.0156 63.4043 70.4199 63.6074 70.6934 63.9121C70.9707 64.2168 71.1094 64.6133 71.1094 65.1016C71.1094 65.75 70.8789 66.2578 70.418 66.625C69.957 66.9883 69.3164 67.1699 68.4961 67.1699C68.1719 67.1699 67.832 67.1348 67.4766 67.0645C67.1211 66.998 66.7363 66.8965 66.3223 66.7598V65.6465C66.7246 65.8535 67.1094 66.0098 67.4766 66.1152C67.8438 66.2168 68.1914 66.2676 68.5195 66.2676C68.9961 66.2676 69.3652 66.1719 69.627 65.9805C69.8887 65.7852 70.0195 65.5137 70.0195 65.166C70.0195 64.666 69.541 64.3203 68.584 64.1289L68.5371 64.1172L68.1328 64.0352C67.5117 63.9141 67.0586 63.7109 66.7734 63.4258C66.4883 63.1367 66.3457 62.7441 66.3457 62.248C66.3457 61.6191 66.5586 61.1348 66.9844 60.7949C67.4102 60.4512 68.0176 60.2793 68.8066 60.2793C69.1582 60.2793 69.4961 60.3125 69.8203 60.3789C70.1445 60.4414 70.4629 60.5371 70.7754 60.666ZM78.8672 63.1797V63.707H74.1973V63.7422C74.166 64.6367 74.3359 65.2793 74.707 65.6699C75.082 66.0605 75.6094 66.2559 76.2891 66.2559C76.6328 66.2559 76.9922 66.2012 77.3672 66.0918C77.7422 65.9824 78.1426 65.8164 78.5684 65.5938V66.666C78.1582 66.834 77.7617 66.959 77.3789 67.041C77 67.127 76.6328 67.1699 76.2773 67.1699C75.2578 67.1699 74.4609 66.8652 73.8867 66.2559C73.3125 65.6426 73.0254 64.7988 73.0254 63.7246C73.0254 62.6777 73.3066 61.8418 73.8691 61.2168C74.4316 60.5918 75.1816 60.2793 76.1191 60.2793C76.9551 60.2793 77.6133 60.5625 78.0938 61.1289C78.5781 61.6953 78.8359 62.3789 78.8672 63.1797ZM77.7891 62.8633C77.7422 62.4102 77.5762 62.0195 77.291 61.6914C77.0098 61.3594 76.6035 61.1934 76.0723 61.1934C75.5527 61.1934 75.125 61.3652 74.7891 61.709C74.4531 62.0527 74.2695 62.4395 74.2383 62.8691L77.7891 62.8633ZM83.1328 58.5742V60.4375H85.582V61.2754H83.1328V64.8379C83.1328 65.3223 83.2246 65.6602 83.4082 65.8516C83.5918 66.043 83.9121 66.1387 84.3691 66.1387H85.582V67H84.2637C83.4551 67 82.8848 66.8379 82.5527 66.5137C82.2207 66.1895 82.0547 65.6309 82.0547 64.8379V61.2754H80.3027V60.4375H82.0547V58.5742H83.1328ZM87.2812 64.0703H93.4746V65.0605H87.2812V64.0703ZM87.2812 61.3105H93.4746V62.3008H87.2812V61.3105ZM98.1094 63.7012H97.752C97.123 63.7012 96.6484 63.8125 96.3281 64.0352C96.0117 64.2539 95.8535 64.582 95.8535 65.0195C95.8535 65.4141 95.9727 65.7207 96.2109 65.9395C96.4492 66.1582 96.7793 66.2676 97.2012 66.2676C97.7949 66.2676 98.2617 66.0625 98.6016 65.6523C98.9414 65.2383 99.1133 64.668 99.1172 63.9414V63.7012H98.1094ZM100.201 63.2559V67H99.1172V66.0273C98.8867 66.418 98.5957 66.707 98.2441 66.8945C97.8965 67.0781 97.4727 67.1699 96.9727 67.1699C96.3047 67.1699 95.7715 66.9824 95.373 66.6074C94.9746 66.2285 94.7754 65.7227 94.7754 65.0898C94.7754 64.3594 95.0195 63.8047 95.5078 63.4258C96 63.0469 96.7207 62.8574 97.6699 62.8574H99.1172V62.6875C99.1133 62.1641 98.9805 61.7852 98.7188 61.5508C98.457 61.3125 98.0391 61.1934 97.4648 61.1934C97.0977 61.1934 96.7266 61.2461 96.3516 61.3516C95.9766 61.457 95.6113 61.6113 95.2559 61.8145V60.7363C95.6543 60.584 96.0352 60.4707 96.3984 60.3965C96.7656 60.3184 97.1211 60.2793 97.4648 60.2793C98.0078 60.2793 98.4707 60.3594 98.8535 60.5195C99.2402 60.6797 99.5527 60.9199 99.791 61.2402C99.9395 61.4355 100.045 61.6777 100.107 61.9668C100.17 62.252 100.201 62.6816 100.201 63.2559ZM105.439 64.627C105.439 65.1113 105.527 65.4766 105.703 65.7227C105.883 65.9688 106.146 66.0918 106.494 66.0918H107.754V67H106.389C105.744 67 105.244 66.7949 104.889 66.3848C104.537 65.9707 104.361 65.3848 104.361 64.627V58.6914H102.633V57.8477H105.439V64.627ZM112.055 58.5742V60.4375H114.504V61.2754H112.055V64.8379C112.055 65.3223 112.146 65.6602 112.33 65.8516C112.514 66.043 112.834 66.1387 113.291 66.1387H114.504V67H113.186C112.377 67 111.807 66.8379 111.475 66.5137C111.143 66.1895 110.977 65.6309 110.977 64.8379V61.2754H109.225V60.4375H110.977V58.5742H112.055ZM122.25 63.1797V63.707H117.58V63.7422C117.549 64.6367 117.719 65.2793 118.09 65.6699C118.465 66.0605 118.992 66.2559 119.672 66.2559C120.016 66.2559 120.375 66.2012 120.75 66.0918C121.125 65.9824 121.525 65.8164 121.951 65.5938V66.666C121.541 66.834 121.145 66.959 120.762 67.041C120.383 67.127 120.016 67.1699 119.66 67.1699C118.641 67.1699 117.844 66.8652 117.27 66.2559C116.695 65.6426 116.408 64.7988 116.408 63.7246C116.408 62.6777 116.689 61.8418 117.252 61.2168C117.814 60.5918 118.564 60.2793 119.502 60.2793C120.338 60.2793 120.996 60.5625 121.477 61.1289C121.961 61.6953 122.219 62.3789 122.25 63.1797ZM121.172 62.8633C121.125 62.4102 120.959 62.0195 120.674 61.6914C120.393 61.3594 119.986 61.1934 119.455 61.1934C118.936 61.1934 118.508 61.3652 118.172 61.709C117.836 62.0527 117.652 62.4395 117.621 62.8691L121.172 62.8633ZM129.686 61.791C129.455 61.6113 129.221 61.4805 128.982 61.3984C128.744 61.3164 128.482 61.2754 128.197 61.2754C127.525 61.2754 127.012 61.4863 126.656 61.9082C126.301 62.3301 126.123 62.9395 126.123 63.7363V67H125.039V60.4375H126.123V61.7207C126.303 61.2559 126.578 60.9004 126.949 60.6543C127.324 60.4043 127.768 60.2793 128.279 60.2793C128.545 60.2793 128.793 60.3125 129.023 60.3789C129.254 60.4453 129.475 60.5488 129.686 60.6895V61.791ZM136.307 62.9336V67H135.223V62.9336C135.223 62.3438 135.119 61.9102 134.912 61.6328C134.705 61.3555 134.381 61.2168 133.939 61.2168C133.436 61.2168 133.047 61.3965 132.773 61.7559C132.504 62.1113 132.369 62.623 132.369 63.291V67H131.291V60.4375H132.369V61.4219C132.561 61.0469 132.82 60.7637 133.148 60.5723C133.477 60.377 133.865 60.2793 134.314 60.2793C134.982 60.2793 135.48 60.5 135.809 60.9414C136.141 61.3789 136.307 62.043 136.307 62.9336ZM141.492 63.7012H141.135C140.506 63.7012 140.031 63.8125 139.711 64.0352C139.395 64.2539 139.236 64.582 139.236 65.0195C139.236 65.4141 139.355 65.7207 139.594 65.9395C139.832 66.1582 140.162 66.2676 140.584 66.2676C141.178 66.2676 141.645 66.0625 141.984 65.6523C142.324 65.2383 142.496 64.668 142.5 63.9414V63.7012H141.492ZM143.584 63.2559V67H142.5V66.0273C142.27 66.418 141.979 66.707 141.627 66.8945C141.279 67.0781 140.855 67.1699 140.355 67.1699C139.688 67.1699 139.154 66.9824 138.756 66.6074C138.357 66.2285 138.158 65.7227 138.158 65.0898C138.158 64.3594 138.402 63.8047 138.891 63.4258C139.383 63.0469 140.104 62.8574 141.053 62.8574H142.5V62.6875C142.496 62.1641 142.363 61.7852 142.102 61.5508C141.84 61.3125 141.422 61.1934 140.848 61.1934C140.48 61.1934 140.109 61.2461 139.734 61.3516C139.359 61.457 138.994 61.6113 138.639 61.8145V60.7363C139.037 60.584 139.418 60.4707 139.781 60.3965C140.148 60.3184 140.504 60.2793 140.848 60.2793C141.391 60.2793 141.854 60.3594 142.236 60.5195C142.623 60.6797 142.936 60.9199 143.174 61.2402C143.322 61.4355 143.428 61.6777 143.49 61.9668C143.553 62.252 143.584 62.6816 143.584 63.2559ZM148.207 58.5742V60.4375H150.656V61.2754H148.207V64.8379C148.207 65.3223 148.299 65.6602 148.482 65.8516C148.666 66.043 148.986 66.1387 149.443 66.1387H150.656V67H149.338C148.529 67 147.959 66.8379 147.627 66.5137C147.295 66.1895 147.129 65.6309 147.129 64.8379V61.2754H145.377V60.4375H147.129V58.5742H148.207ZM153.691 60.4609H156.451V66.1621H158.59V67H153.234V66.1621H155.373V61.2988H153.691V60.4609ZM155.373 57.9121H156.451V59.2715H155.373V57.9121ZM159.656 60.4375H160.775L162.68 65.9453L164.59 60.4375H165.709L163.377 67H161.988L159.656 60.4375ZM172.863 63.1797V63.707H168.193V63.7422C168.162 64.6367 168.332 65.2793 168.703 65.6699C169.078 66.0605 169.605 66.2559 170.285 66.2559C170.629 66.2559 170.988 66.2012 171.363 66.0918C171.738 65.9824 172.139 65.8164 172.564 65.5938V66.666C172.154 66.834 171.758 66.959 171.375 67.041C170.996 67.127 170.629 67.1699 170.273 67.1699C169.254 67.1699 168.457 66.8652 167.883 66.2559C167.309 65.6426 167.021 64.7988 167.021 63.7246C167.021 62.6777 167.303 61.8418 167.865 61.2168C168.428 60.5918 169.178 60.2793 170.115 60.2793C170.951 60.2793 171.609 60.5625 172.09 61.1289C172.574 61.6953 172.832 62.3789 172.863 63.1797ZM171.785 62.8633C171.738 62.4102 171.572 62.0195 171.287 61.6914C171.006 61.3594 170.6 61.1934 170.068 61.1934C169.549 61.1934 169.121 61.3652 168.785 61.709C168.449 62.0527 168.266 62.4395 168.234 62.8691L171.785 62.8633ZM180.703 68.1133V69.1094H173.531V68.1133H180.703ZM184.359 58.5742V60.4375H186.809V61.2754H184.359V64.8379C184.359 65.3223 184.451 65.6602 184.635 65.8516C184.818 66.043 185.139 66.1387 185.596 66.1387H186.809V67H185.49C184.682 67 184.111 66.8379 183.779 66.5137C183.447 66.1895 183.281 65.6309 183.281 64.8379V61.2754H181.529V60.4375H183.281V58.5742H184.359ZM194.555 63.1797V63.707H189.885V63.7422C189.854 64.6367 190.023 65.2793 190.395 65.6699C190.77 66.0605 191.297 66.2559 191.977 66.2559C192.32 66.2559 192.68 66.2012 193.055 66.0918C193.43 65.9824 193.83 65.8164 194.256 65.5938V66.666C193.846 66.834 193.449 66.959 193.066 67.041C192.688 67.127 192.32 67.1699 191.965 67.1699C190.945 67.1699 190.148 66.8652 189.574 66.2559C189 65.6426 188.713 64.7988 188.713 63.7246C188.713 62.6777 188.994 61.8418 189.557 61.2168C190.119 60.5918 190.869 60.2793 191.807 60.2793C192.643 60.2793 193.301 60.5625 193.781 61.1289C194.266 61.6953 194.523 62.3789 194.555 63.1797ZM193.477 62.8633C193.43 62.4102 193.264 62.0195 192.979 61.6914C192.697 61.3594 192.291 61.1934 191.76 61.1934C191.24 61.1934 190.812 61.3652 190.477 61.709C190.141 62.0527 189.957 62.4395 189.926 62.8691L193.477 62.8633ZM200.924 60.666V61.7207C200.615 61.541 200.305 61.4062 199.992 61.3164C199.68 61.2266 199.361 61.1816 199.037 61.1816C198.549 61.1816 198.184 61.2617 197.941 61.4219C197.703 61.5781 197.584 61.8184 197.584 62.1426C197.584 62.4355 197.674 62.6543 197.854 62.7988C198.033 62.9434 198.48 63.084 199.195 63.2207L199.629 63.3027C200.164 63.4043 200.568 63.6074 200.842 63.9121C201.119 64.2168 201.258 64.6133 201.258 65.1016C201.258 65.75 201.027 66.2578 200.566 66.625C200.105 66.9883 199.465 67.1699 198.645 67.1699C198.32 67.1699 197.98 67.1348 197.625 67.0645C197.27 66.998 196.885 66.8965 196.471 66.7598V65.6465C196.873 65.8535 197.258 66.0098 197.625 66.1152C197.992 66.2168 198.34 66.2676 198.668 66.2676C199.145 66.2676 199.514 66.1719 199.775 65.9805C200.037 65.7852 200.168 65.5137 200.168 65.166C200.168 64.666 199.689 64.3203 198.732 64.1289L198.686 64.1172L198.281 64.0352C197.66 63.9141 197.207 63.7109 196.922 63.4258C196.637 63.1367 196.494 62.7441 196.494 62.248C196.494 61.6191 196.707 61.1348 197.133 60.7949C197.559 60.4512 198.166 60.2793 198.955 60.2793C199.307 60.2793 199.645 60.3125 199.969 60.3789C200.293 60.4414 200.611 60.5371 200.924 60.666ZM206.051 58.5742V60.4375H208.5V61.2754H206.051V64.8379C206.051 65.3223 206.143 65.6602 206.326 65.8516C206.51 66.043 206.83 66.1387 207.287 66.1387H208.5V67H207.182C206.373 67 205.803 66.8379 205.471 66.5137C205.139 66.1895 204.973 65.6309 204.973 64.8379V61.2754H203.221V60.4375H204.973V58.5742H206.051ZM216.855 68.1133V69.1094H209.684V68.1133H216.855ZM221.941 61.2754V57.8828H223.02V67H221.941V66.1738C221.762 66.498 221.521 66.7461 221.221 66.918C220.924 67.0859 220.58 67.1699 220.189 67.1699C219.396 67.1699 218.771 66.8633 218.314 66.25C217.861 65.6328 217.635 64.7832 217.635 63.7012C217.635 62.6348 217.863 61.7988 218.32 61.1934C218.777 60.584 219.4 60.2793 220.189 60.2793C220.584 60.2793 220.932 60.3652 221.232 60.5371C221.533 60.7051 221.77 60.9512 221.941 61.2754ZM218.771 63.7246C218.771 64.5605 218.904 65.1914 219.17 65.6172C219.436 66.043 219.828 66.2559 220.348 66.2559C220.867 66.2559 221.262 66.041 221.531 65.6113C221.805 65.1816 221.941 64.5527 221.941 63.7246C221.941 62.8926 221.805 62.2637 221.531 61.8379C221.262 61.4082 220.867 61.1934 220.348 61.1934C219.828 61.1934 219.436 61.4062 219.17 61.832C218.904 62.2578 218.771 62.8887 218.771 63.7246ZM230.373 57.8828V58.7793H229.148C228.762 58.7793 228.492 58.8594 228.34 59.0195C228.191 59.1758 228.117 59.4551 228.117 59.8574V60.4375H230.373V61.2754H228.117V67H227.039V61.2754H225.287V60.4375H227.039V59.9805C227.039 59.2617 227.203 58.7324 227.531 58.3926C227.863 58.0527 228.379 57.8828 229.078 57.8828H230.373ZM233.965 64.8848H235.793V66.4375L234.492 68.9629L233.32 68.9688L233.965 66.4375V64.8848ZM118.277 83.8848H120.105V85.4375L118.805 87.9629L117.633 87.9688L118.277 85.4375V83.8848ZM6.2168 104.666C5.92773 104.834 5.62891 104.959 5.32031 105.041C5.01562 105.127 4.70312 105.17 4.38281 105.17C3.36719 105.17 2.57227 104.865 1.99805 104.256C1.42773 103.646 1.14258 102.803 1.14258 101.725C1.14258 100.646 1.42773 99.8027 1.99805 99.1934C2.57227 98.584 3.36719 98.2793 4.38281 98.2793C4.69922 98.2793 5.00781 98.3203 5.30859 98.4023C5.60938 98.4844 5.91211 98.6113 6.2168 98.7832V99.9141C5.93164 99.6602 5.64453 99.4766 5.35547 99.3633C5.07031 99.25 4.74609 99.1934 4.38281 99.1934C3.70703 99.1934 3.1875 99.4121 2.82422 99.8496C2.46094 100.287 2.2793 100.912 2.2793 101.725C2.2793 102.533 2.46094 103.158 2.82422 103.6C3.19141 104.037 3.71094 104.256 4.38281 104.256C4.75781 104.256 5.09375 104.199 5.39062 104.086C5.6875 103.969 5.96289 103.789 6.2168 103.547V104.666ZM13.3887 100.934V105H12.3047V100.934C12.3047 100.344 12.2012 99.9102 11.9941 99.6328C11.7871 99.3555 11.4629 99.2168 11.0215 99.2168C10.5176 99.2168 10.1289 99.3965 9.85547 99.7559C9.58594 100.111 9.45117 100.623 9.45117 101.291V105H8.37305V95.8828H9.45117V99.4219C9.64258 99.0469 9.90234 98.7637 10.2305 98.5723C10.5586 98.377 10.9473 98.2793 11.3965 98.2793C12.0645 98.2793 12.5625 98.5 12.8906 98.9414C13.2227 99.3789 13.3887 100.043 13.3887 100.934ZM21.0234 101.18V101.707H16.3535V101.742C16.3223 102.637 16.4922 103.279 16.8633 103.67C17.2383 104.061 17.7656 104.256 18.4453 104.256C18.7891 104.256 19.1484 104.201 19.5234 104.092C19.8984 103.982 20.2988 103.816 20.7246 103.594V104.666C20.3145 104.834 19.918 104.959 19.5352 105.041C19.1562 105.127 18.7891 105.17 18.4336 105.17C17.4141 105.17 16.6172 104.865 16.043 104.256C15.4688 103.643 15.1816 102.799 15.1816 101.725C15.1816 100.678 15.4629 99.8418 16.0254 99.2168C16.5879 98.5918 17.3379 98.2793 18.2754 98.2793C19.1113 98.2793 19.7695 98.5625 20.25 99.1289C20.7344 99.6953 20.9922 100.379 21.0234 101.18ZM19.9453 100.863C19.8984 100.41 19.7324 100.02 19.4473 99.6914C19.166 99.3594 18.7598 99.1934 18.2285 99.1934C17.709 99.1934 17.2812 99.3652 16.9453 99.709C16.6094 100.053 16.4258 100.439 16.3945 100.869L19.9453 100.863ZM27.9082 104.666C27.6191 104.834 27.3203 104.959 27.0117 105.041C26.707 105.127 26.3945 105.17 26.0742 105.17C25.0586 105.17 24.2637 104.865 23.6895 104.256C23.1191 103.646 22.834 102.803 22.834 101.725C22.834 100.646 23.1191 99.8027 23.6895 99.1934C24.2637 98.584 25.0586 98.2793 26.0742 98.2793C26.3906 98.2793 26.6992 98.3203 27 98.4023C27.3008 98.4844 27.6035 98.6113 27.9082 98.7832V99.9141C27.623 99.6602 27.3359 99.4766 27.0469 99.3633C26.7617 99.25 26.4375 99.1934 26.0742 99.1934C25.3984 99.1934 24.8789 99.4121 24.5156 99.8496C24.1523 100.287 23.9707 100.912 23.9707 101.725C23.9707 102.533 24.1523 103.158 24.5156 103.6C24.8828 104.037 25.4023 104.256 26.0742 104.256C26.4492 104.256 26.7852 104.199 27.082 104.086C27.3789 103.969 27.6543 103.789 27.9082 103.547V104.666ZM30.3047 95.8828H31.418V101.162L34.248 98.4375H35.5605L32.9766 100.91L35.9648 105H34.6465L32.2207 101.613L31.418 102.369V105H30.3047V95.8828ZM40.3711 98.0977V100.693H42.9785V101.684H40.3711V104.279H39.3867V101.684H36.7852V100.693H39.3867V98.0977H40.3711ZM48.4102 99.2754V95.8828H49.4883V105H48.4102V104.174C48.2305 104.498 47.9902 104.746 47.6895 104.918C47.3926 105.086 47.0488 105.17 46.6582 105.17C45.8652 105.17 45.2402 104.863 44.7832 104.25C44.3301 103.633 44.1035 102.783 44.1035 101.701C44.1035 100.635 44.332 99.7988 44.7891 99.1934C45.2461 98.584 45.8691 98.2793 46.6582 98.2793C47.0527 98.2793 47.4004 98.3652 47.7012 98.5371C48.002 98.7051 48.2383 98.9512 48.4102 99.2754ZM45.2402 101.725C45.2402 102.561 45.373 103.191 45.6387 103.617C45.9043 104.043 46.2969 104.256 46.8164 104.256C47.3359 104.256 47.7305 104.041 48 103.611C48.2734 103.182 48.4102 102.553 48.4102 101.725C48.4102 100.893 48.2734 100.264 48 99.8379C47.7305 99.4082 47.3359 99.1934 46.8164 99.1934C46.2969 99.1934 45.9043 99.4062 45.6387 99.832C45.373 100.258 45.2402 100.889 45.2402 101.725ZM54.7266 101.701H54.3691C53.7402 101.701 53.2656 101.812 52.9453 102.035C52.6289 102.254 52.4707 102.582 52.4707 103.02C52.4707 103.414 52.5898 103.721 52.8281 103.939C53.0664 104.158 53.3965 104.268 53.8184 104.268C54.4121 104.268 54.8789 104.062 55.2188 103.652C55.5586 103.238 55.7305 102.668 55.7344 101.941V101.701H54.7266ZM56.8184 101.256V105H55.7344V104.027C55.5039 104.418 55.2129 104.707 54.8613 104.895C54.5137 105.078 54.0898 105.17 53.5898 105.17C52.9219 105.17 52.3887 104.982 51.9902 104.607C51.5918 104.229 51.3926 103.723 51.3926 103.09C51.3926 102.359 51.6367 101.805 52.125 101.426C52.6172 101.047 53.3379 100.857 54.2871 100.857H55.7344V100.688C55.7305 100.164 55.5977 99.7852 55.3359 99.5508C55.0742 99.3125 54.6562 99.1934 54.082 99.1934C53.7148 99.1934 53.3438 99.2461 52.9688 99.3516C52.5938 99.457 52.2285 99.6113 51.873 99.8145V98.7363C52.2715 98.584 52.6523 98.4707 53.0156 98.3965C53.3828 98.3184 53.7383 98.2793 54.082 98.2793C54.625 98.2793 55.0879 98.3594 55.4707 98.5195C55.8574 98.6797 56.1699 98.9199 56.4082 99.2402C56.5566 99.4355 56.6621 99.6777 56.7246 99.9668C56.7871 100.252 56.8184 100.682 56.8184 101.256ZM61.4414 96.5742V98.4375H63.8906V99.2754H61.4414V102.838C61.4414 103.322 61.5332 103.66 61.7168 103.852C61.9004 104.043 62.2207 104.139 62.6777 104.139H63.8906V105H62.5723C61.7637 105 61.1934 104.838 60.8613 104.514C60.5293 104.189 60.3633 103.631 60.3633 102.838V99.2754H58.6113V98.4375H60.3633V96.5742H61.4414ZM69.1875 101.701H68.8301C68.2012 101.701 67.7266 101.812 67.4062 102.035C67.0898 102.254 66.9316 102.582 66.9316 103.02C66.9316 103.414 67.0508 103.721 67.2891 103.939C67.5273 104.158 67.8574 104.268 68.2793 104.268C68.873 104.268 69.3398 104.062 69.6797 103.652C70.0195 103.238 70.1914 102.668 70.1953 101.941V101.701H69.1875ZM71.2793 101.256V105H70.1953V104.027C69.9648 104.418 69.6738 104.707 69.3223 104.895C68.9746 105.078 68.5508 105.17 68.0508 105.17C67.3828 105.17 66.8496 104.982 66.4512 104.607C66.0527 104.229 65.8535 103.723 65.8535 103.09C65.8535 102.359 66.0977 101.805 66.5859 101.426C67.0781 101.047 67.7988 100.857 68.748 100.857H70.1953V100.688C70.1914 100.164 70.0586 99.7852 69.7969 99.5508C69.5352 99.3125 69.1172 99.1934 68.543 99.1934C68.1758 99.1934 67.8047 99.2461 67.4297 99.3516C67.0547 99.457 66.6895 99.6113 66.334 99.8145V98.7363C66.7324 98.584 67.1133 98.4707 67.4766 98.3965C67.8438 98.3184 68.1992 98.2793 68.543 98.2793C69.0859 98.2793 69.5488 98.3594 69.9316 98.5195C70.3184 98.6797 70.6309 98.9199 70.8691 99.2402C71.0176 99.4355 71.123 99.6777 71.1855 99.9668C71.248 100.252 71.2793 100.682 71.2793 101.256ZM78.0059 98.666V99.7207C77.6973 99.541 77.3867 99.4062 77.0742 99.3164C76.7617 99.2266 76.4434 99.1816 76.1191 99.1816C75.6309 99.1816 75.2656 99.2617 75.0234 99.4219C74.7852 99.5781 74.666 99.8184 74.666 100.143C74.666 100.436 74.7559 100.654 74.9355 100.799C75.1152 100.943 75.5625 101.084 76.2773 101.221L76.7109 101.303C77.2461 101.404 77.6504 101.607 77.9238 101.912C78.2012 102.217 78.3398 102.613 78.3398 103.102C78.3398 103.75 78.1094 104.258 77.6484 104.625C77.1875 104.988 76.5469 105.17 75.7266 105.17C75.4023 105.17 75.0625 105.135 74.707 105.064C74.3516 104.998 73.9668 104.896 73.5527 104.76V103.646C73.9551 103.854 74.3398 104.01 74.707 104.115C75.0742 104.217 75.4219 104.268 75.75 104.268C76.2266 104.268 76.5957 104.172 76.8574 103.98C77.1191 103.785 77.25 103.514 77.25 103.166C77.25 102.666 76.7715 102.32 75.8145 102.129L75.7676 102.117L75.3633 102.035C74.7422 101.914 74.2891 101.711 74.0039 101.426C73.7188 101.137 73.5762 100.744 73.5762 100.248C73.5762 99.6191 73.7891 99.1348 74.2148 98.7949C74.6406 98.4512 75.248 98.2793 76.0371 98.2793C76.3887 98.2793 76.7266 98.3125 77.0508 98.3789C77.375 98.4414 77.6934 98.5371 78.0059 98.666ZM86.0977 101.18V101.707H81.4277V101.742C81.3965 102.637 81.5664 103.279 81.9375 103.67C82.3125 104.061 82.8398 104.256 83.5195 104.256C83.8633 104.256 84.2227 104.201 84.5977 104.092C84.9727 103.982 85.373 103.816 85.7988 103.594V104.666C85.3887 104.834 84.9922 104.959 84.6094 105.041C84.2305 105.127 83.8633 105.17 83.5078 105.17C82.4883 105.17 81.6914 104.865 81.1172 104.256C80.543 103.643 80.2559 102.799 80.2559 101.725C80.2559 100.678 80.5371 99.8418 81.0996 99.2168C81.6621 98.5918 82.4121 98.2793 83.3496 98.2793C84.1855 98.2793 84.8438 98.5625 85.3242 99.1289C85.8086 99.6953 86.0664 100.379 86.0977 101.18ZM85.0195 100.863C84.9727 100.41 84.8066 100.02 84.5215 99.6914C84.2402 99.3594 83.834 99.1934 83.3027 99.1934C82.7832 99.1934 82.3555 99.3652 82.0195 99.709C81.6836 100.053 81.5 100.439 81.4688 100.869L85.0195 100.863ZM90.3633 96.5742V98.4375H92.8125V99.2754H90.3633V102.838C90.3633 103.322 90.4551 103.66 90.6387 103.852C90.8223 104.043 91.1426 104.139 91.5996 104.139H92.8125V105H91.4941C90.6855 105 90.1152 104.838 89.7832 104.514C89.4512 104.189 89.2852 103.631 89.2852 102.838V99.2754H87.5332V98.4375H89.2852V96.5742H90.3633ZM99.6973 98.666V99.7207C99.3887 99.541 99.0781 99.4062 98.7656 99.3164C98.4531 99.2266 98.1348 99.1816 97.8105 99.1816C97.3223 99.1816 96.957 99.2617 96.7148 99.4219C96.4766 99.5781 96.3574 99.8184 96.3574 100.143C96.3574 100.436 96.4473 100.654 96.627 100.799C96.8066 100.943 97.2539 101.084 97.9688 101.221L98.4023 101.303C98.9375 101.404 99.3418 101.607 99.6152 101.912C99.8926 102.217 100.031 102.613 100.031 103.102C100.031 103.75 99.8008 104.258 99.3398 104.625C98.8789 104.988 98.2383 105.17 97.418 105.17C97.0938 105.17 96.7539 105.135 96.3984 105.064C96.043 104.998 95.6582 104.896 95.2441 104.76V103.646C95.6465 103.854 96.0312 104.01 96.3984 104.115C96.7656 104.217 97.1133 104.268 97.4414 104.268C97.918 104.268 98.2871 104.172 98.5488 103.98C98.8105 103.785 98.9414 103.514 98.9414 103.166C98.9414 102.666 98.4629 102.32 97.5059 102.129L97.459 102.117L97.0547 102.035C96.4336 101.914 95.9805 101.711 95.6953 101.426C95.4102 101.137 95.2676 100.744 95.2676 100.248C95.2676 99.6191 95.4805 99.1348 95.9062 98.7949C96.332 98.4512 96.9395 98.2793 97.7285 98.2793C98.0801 98.2793 98.418 98.3125 98.7422 98.3789C99.0664 98.4414 99.3848 98.5371 99.6973 98.666ZM108.398 106.113V107.109H101.227V106.113H108.398ZM110.654 104.174V107.496H109.57V98.4375H110.654V99.2754C110.834 98.9512 111.072 98.7051 111.369 98.5371C111.67 98.3652 112.016 98.2793 112.406 98.2793C113.199 98.2793 113.82 98.5859 114.27 99.1992C114.723 99.8125 114.949 100.662 114.949 101.748C114.949 102.814 114.723 103.652 114.27 104.262C113.816 104.867 113.195 105.17 112.406 105.17C112.008 105.17 111.658 105.086 111.357 104.918C111.061 104.746 110.826 104.498 110.654 104.174ZM113.818 101.725C113.818 100.889 113.686 100.258 113.42 99.832C113.158 99.4062 112.768 99.1934 112.248 99.1934C111.725 99.1934 111.328 99.4082 111.059 99.8379C110.789 100.264 110.654 100.893 110.654 101.725C110.654 102.553 110.789 103.182 111.059 103.611C111.328 104.041 111.725 104.256 112.248 104.256C112.768 104.256 113.158 104.043 113.42 103.617C113.686 103.191 113.818 102.561 113.818 101.725ZM119.297 99.1934C118.75 99.1934 118.336 99.4062 118.055 99.832C117.773 100.258 117.633 100.889 117.633 101.725C117.633 102.557 117.773 103.188 118.055 103.617C118.336 104.043 118.75 104.256 119.297 104.256C119.848 104.256 120.264 104.043 120.545 103.617C120.826 103.188 120.967 102.557 120.967 101.725C120.967 100.889 120.826 100.258 120.545 99.832C120.264 99.4062 119.848 99.1934 119.297 99.1934ZM119.297 98.2793C120.207 98.2793 120.902 98.5742 121.383 99.1641C121.867 99.7539 122.109 100.607 122.109 101.725C122.109 102.846 121.869 103.701 121.389 104.291C120.908 104.877 120.211 105.17 119.297 105.17C118.387 105.17 117.691 104.877 117.211 104.291C116.73 103.701 116.49 102.846 116.49 101.725C116.49 100.607 116.73 99.7539 117.211 99.1641C117.691 98.5742 118.387 98.2793 119.297 98.2793ZM127.131 102.627C127.131 103.111 127.219 103.477 127.395 103.723C127.574 103.969 127.838 104.092 128.186 104.092H129.445V105H128.08C127.436 105 126.936 104.795 126.58 104.385C126.229 103.971 126.053 103.385 126.053 102.627V96.6914H124.324V95.8477H127.131V102.627ZM132 98.4609H134.76V104.162H136.898V105H131.543V104.162H133.682V99.2988H132V98.4609ZM133.682 95.9121H134.76V97.2715H133.682V95.9121ZM143.596 104.666C143.307 104.834 143.008 104.959 142.699 105.041C142.395 105.127 142.082 105.17 141.762 105.17C140.746 105.17 139.951 104.865 139.377 104.256C138.807 103.646 138.521 102.803 138.521 101.725C138.521 100.646 138.807 99.8027 139.377 99.1934C139.951 98.584 140.746 98.2793 141.762 98.2793C142.078 98.2793 142.387 98.3203 142.688 98.4023C142.988 98.4844 143.291 98.6113 143.596 98.7832V99.9141C143.311 99.6602 143.023 99.4766 142.734 99.3633C142.449 99.25 142.125 99.1934 141.762 99.1934C141.086 99.1934 140.566 99.4121 140.203 99.8496C139.84 100.287 139.658 100.912 139.658 101.725C139.658 102.533 139.84 103.158 140.203 103.6C140.57 104.037 141.09 104.256 141.762 104.256C142.137 104.256 142.473 104.199 142.77 104.086C143.066 103.969 143.342 103.789 143.596 103.547V104.666ZM149.637 102.891C149.457 103.348 149.229 103.949 148.951 104.695C148.564 105.727 148.305 106.355 148.172 106.582C147.992 106.887 147.768 107.115 147.498 107.268C147.229 107.42 146.914 107.496 146.555 107.496H145.688V106.594H146.326C146.643 106.594 146.891 106.502 147.07 106.318C147.25 106.135 147.479 105.66 147.756 104.895L145.219 98.4375H146.361L148.307 103.57L150.223 98.4375H151.365L149.637 102.891ZM152.355 102.07H158.549V103.061H152.355V102.07ZM152.355 99.3105H158.549V100.301H152.355V99.3105ZM162.357 95.8828H163.834V97.0898L162.68 99.334H161.783L162.357 97.0898V95.8828ZM171.68 101.725C171.68 100.889 171.547 100.258 171.281 99.832C171.016 99.4062 170.623 99.1934 170.104 99.1934C169.58 99.1934 169.184 99.4082 168.914 99.8379C168.645 100.264 168.51 100.893 168.51 101.725C168.51 102.553 168.645 103.182 168.914 103.611C169.184 104.041 169.58 104.256 170.104 104.256C170.623 104.256 171.016 104.043 171.281 103.617C171.547 103.191 171.68 102.561 171.68 101.725ZM168.51 99.2754C168.682 98.9551 168.918 98.709 169.219 98.5371C169.523 98.3652 169.875 98.2793 170.273 98.2793C171.062 98.2793 171.684 98.584 172.137 99.1934C172.59 99.7988 172.816 100.635 172.816 101.701C172.816 102.783 172.588 103.633 172.131 104.25C171.678 104.863 171.055 105.17 170.262 105.17C169.871 105.17 169.525 105.086 169.225 104.918C168.928 104.746 168.689 104.498 168.51 104.174V105H167.432V95.8828H168.51V99.2754ZM177.141 99.1934C176.594 99.1934 176.18 99.4062 175.898 99.832C175.617 100.258 175.477 100.889 175.477 101.725C175.477 102.557 175.617 103.188 175.898 103.617C176.18 104.043 176.594 104.256 177.141 104.256C177.691 104.256 178.107 104.043 178.389 103.617C178.67 103.188 178.811 102.557 178.811 101.725C178.811 100.889 178.67 100.258 178.389 99.832C178.107 99.4062 177.691 99.1934 177.141 99.1934ZM177.141 98.2793C178.051 98.2793 178.746 98.5742 179.227 99.1641C179.711 99.7539 179.953 100.607 179.953 101.725C179.953 102.846 179.713 103.701 179.232 104.291C178.752 104.877 178.055 105.17 177.141 105.17C176.23 105.17 175.535 104.877 175.055 104.291C174.574 103.701 174.334 102.846 174.334 101.725C174.334 100.607 174.574 99.7539 175.055 99.1641C175.535 98.5742 176.23 98.2793 177.141 98.2793ZM184.359 96.5742V98.4375H186.809V99.2754H184.359V102.838C184.359 103.322 184.451 103.66 184.635 103.852C184.818 104.043 185.139 104.139 185.596 104.139H186.809V105H185.49C184.682 105 184.111 104.838 183.779 104.514C183.447 104.189 183.281 103.631 183.281 102.838V99.2754H181.529V98.4375H183.281V96.5742H184.359ZM194.15 100.934V105H193.066V100.934C193.066 100.344 192.963 99.9102 192.756 99.6328C192.549 99.3555 192.225 99.2168 191.783 99.2168C191.279 99.2168 190.891 99.3965 190.617 99.7559C190.348 100.111 190.213 100.623 190.213 101.291V105H189.135V95.8828H190.213V99.4219C190.404 99.0469 190.664 98.7637 190.992 98.5723C191.32 98.377 191.709 98.2793 192.158 98.2793C192.826 98.2793 193.324 98.5 193.652 98.9414C193.984 99.3789 194.15 100.043 194.15 100.934ZM198.51 95.8828H199.986V97.0898L198.832 99.334H197.936L198.51 97.0898V95.8828ZM204.492 95.3086H205.43C206.02 96.2305 206.459 97.1328 206.748 98.0156C207.037 98.8984 207.182 99.7754 207.182 100.646C207.182 101.525 207.037 102.406 206.748 103.289C206.459 104.172 206.02 105.074 205.43 105.996H204.492C205.012 105.09 205.398 104.193 205.652 103.307C205.91 102.42 206.039 101.533 206.039 100.646C206.039 99.7559 205.91 98.8672 205.652 97.9805C205.398 97.0938 205.012 96.2031 204.492 95.3086Z" fill="#303245"/>
</svg>
