<svg width="319" height="89" viewBox="0 0 319 89" fill="none" xmlns="http://www.w3.org/2000/svg">
<path d="M5.30273 5.63477C5.30273 4.34961 5.16992 3.43164 4.9043 2.88086C4.64258 2.33008 4.21094 2.05469 3.60938 2.05469C3.01172 2.05469 2.58008 2.33008 2.31445 2.88086C2.05273 3.43164 1.92188 4.34961 1.92188 5.63477C1.92188 6.91602 2.05273 7.83203 2.31445 8.38281C2.58008 8.93359 3.01172 9.20898 3.60938 9.20898C4.21094 9.20898 4.64258 8.93555 4.9043 8.38867C5.16992 7.83789 5.30273 6.91992 5.30273 5.63477ZM6.53906 5.63477C6.53906 7.1582 6.29688 8.29492 5.8125 9.04492C5.33203 9.79492 4.59766 10.1699 3.60938 10.1699C2.62109 10.1699 1.88672 9.79688 1.40625 9.05078C0.925781 8.30469 0.685547 7.16602 0.685547 5.63477C0.685547 4.10742 0.925781 2.96875 1.40625 2.21875C1.89062 1.46875 2.625 1.09375 3.60938 1.09375C4.59766 1.09375 5.33203 1.46875 5.8125 2.21875C6.29688 2.96875 6.53906 4.10742 6.53906 5.63477ZM7.81641 3.4375H8.93555L10.8398 8.94531L12.75 3.4375H13.8691L11.5371 10H10.1484L7.81641 3.4375ZM21.0234 6.17969V6.70703H16.3535V6.74219C16.3223 7.63672 16.4922 8.2793 16.8633 8.66992C17.2383 9.06055 17.7656 9.25586 18.4453 9.25586C18.7891 9.25586 19.1484 9.20117 19.5234 9.0918C19.8984 8.98242 20.2988 8.81641 20.7246 8.59375V9.66602C20.3145 9.83398 19.918 9.95898 19.5352 10.041C19.1562 10.127 18.7891 10.1699 18.4336 10.1699C17.4141 10.1699 16.6172 9.86523 16.043 9.25586C15.4688 8.64258 15.1816 7.79883 15.1816 6.72461C15.1816 5.67773 15.4629 4.8418 16.0254 4.2168C16.5879 3.5918 17.3379 3.2793 18.2754 3.2793C19.1113 3.2793 19.7695 3.5625 20.25 4.12891C20.7344 4.69531 20.9922 5.37891 21.0234 6.17969ZM19.9453 5.86328C19.8984 5.41016 19.7324 5.01953 19.4473 4.69141C19.166 4.35938 18.7598 4.19336 18.2285 4.19336C17.709 4.19336 17.2812 4.36523 16.9453 4.70898C16.6094 5.05273 16.4258 5.43945 16.3945 5.86914L19.9453 5.86328ZM28.459 4.79102C28.2285 4.61133 27.9941 4.48047 27.7559 4.39844C27.5176 4.31641 27.2559 4.27539 26.9707 4.27539C26.2988 4.27539 25.7852 4.48633 25.4297 4.9082C25.0742 5.33008 24.8965 5.93945 24.8965 6.73633V10H23.8125V3.4375H24.8965V4.7207C25.0762 4.25586 25.3516 3.90039 25.7227 3.6543C26.0977 3.4043 26.541 3.2793 27.0527 3.2793C27.3184 3.2793 27.5664 3.3125 27.7969 3.37891C28.0273 3.44531 28.248 3.54883 28.459 3.68945V4.79102ZM35.1504 0.882812V1.7793H33.9258C33.5391 1.7793 33.2695 1.85938 33.1172 2.01953C32.9688 2.17578 32.8945 2.45508 32.8945 2.85742V3.4375H35.1504V4.27539H32.8945V10H31.8164V4.27539H30.0645V3.4375H31.8164V2.98047C31.8164 2.26172 31.9805 1.73242 32.3086 1.39258C32.6406 1.05273 33.1562 0.882812 33.8555 0.882812H35.1504ZM38.0039 3.46094H40.7637V9.16211H42.9023V10H37.5469V9.16211H39.6855V4.29883H38.0039V3.46094ZM39.6855 0.912109H40.7637V2.27148H39.6855V0.912109ZM46.9805 1.57422V3.4375H49.4297V4.27539H46.9805V7.83789C46.9805 8.32227 47.0723 8.66016 47.2559 8.85156C47.4395 9.04297 47.7598 9.13867 48.2168 9.13867H49.4297V10H48.1113C47.3027 10 46.7324 9.83789 46.4004 9.51367C46.0684 9.18945 45.9023 8.63086 45.9023 7.83789V4.27539H44.1504V3.4375H45.9023V1.57422H46.9805ZM57.1758 6.17969V6.70703H52.5059V6.74219C52.4746 7.63672 52.6445 8.2793 53.0156 8.66992C53.3906 9.06055 53.918 9.25586 54.5977 9.25586C54.9414 9.25586 55.3008 9.20117 55.6758 9.0918C56.0508 8.98242 56.4512 8.81641 56.877 8.59375V9.66602C56.4668 9.83398 56.0703 9.95898 55.6875 10.041C55.3086 10.127 54.9414 10.1699 54.5859 10.1699C53.5664 10.1699 52.7695 9.86523 52.1953 9.25586C51.6211 8.64258 51.334 7.79883 51.334 6.72461C51.334 5.67773 51.6152 4.8418 52.1777 4.2168C52.7402 3.5918 53.4902 3.2793 54.4277 3.2793C55.2637 3.2793 55.9219 3.5625 56.4023 4.12891C56.8867 4.69531 57.1445 5.37891 57.1758 6.17969ZM56.0977 5.86328C56.0508 5.41016 55.8848 5.01953 55.5996 4.69141C55.3184 4.35938 54.9121 4.19336 54.3809 4.19336C53.8613 4.19336 53.4336 4.36523 53.0977 4.70898C52.7617 5.05273 52.5781 5.43945 52.5469 5.86914L56.0977 5.86328ZM63.7734 1.55078V2.75195C63.4141 2.52148 63.0527 2.34766 62.6895 2.23047C62.3301 2.11328 61.9668 2.05469 61.5996 2.05469C61.041 2.05469 60.5996 2.18555 60.2754 2.44727C59.9512 2.70508 59.7891 3.05469 59.7891 3.49609C59.7891 3.88281 59.8945 4.17773 60.1055 4.38086C60.3203 4.58398 60.7188 4.75391 61.3008 4.89062L61.9219 5.03125C62.7422 5.22266 63.3398 5.52344 63.7148 5.93359C64.0898 6.34375 64.2773 6.90234 64.2773 7.60938C64.2773 8.44141 64.0195 9.07617 63.5039 9.51367C62.9883 9.95117 62.2383 10.1699 61.2539 10.1699C60.8438 10.1699 60.4316 10.125 60.0176 10.0352C59.6035 9.94922 59.1875 9.81836 58.7695 9.64258V8.38281C59.2188 8.66797 59.6426 8.87695 60.041 9.00977C60.4434 9.14258 60.8477 9.20898 61.2539 9.20898C61.8516 9.20898 62.3164 9.07617 62.6484 8.81055C62.9805 8.54102 63.1465 8.16602 63.1465 7.68555C63.1465 7.24805 63.0312 6.91406 62.8008 6.68359C62.5742 6.45312 62.1777 6.27539 61.6113 6.15039L60.9785 6.00391C60.166 5.82031 59.5762 5.54297 59.209 5.17188C58.8418 4.80078 58.6582 4.30273 58.6582 3.67773C58.6582 2.89648 58.9199 2.27148 59.4434 1.80273C59.9707 1.33008 60.6699 1.09375 61.541 1.09375C61.877 1.09375 62.2305 1.13281 62.6016 1.21094C62.9727 1.28516 63.3633 1.39844 63.7734 1.55078ZM66.2168 7.51562V3.44922H67.2949V7.51562C67.2949 8.10547 67.3984 8.53906 67.6055 8.81641C67.8164 9.09375 68.1406 9.23242 68.5781 9.23242C69.0859 9.23242 69.4746 9.05469 69.7441 8.69922C70.0137 8.33984 70.1484 7.82617 70.1484 7.1582V3.44922H71.2324V10H70.1484V9.01562C69.957 9.39453 69.6953 9.68164 69.3633 9.87695C69.0352 10.0723 68.6504 10.1699 68.209 10.1699C67.5371 10.1699 67.0371 9.95117 66.709 9.51367C66.3809 9.07227 66.2168 8.40625 66.2168 7.51562ZM74.1562 3.46094H76.916V9.16211H79.0547V10H73.6992V9.16211H75.8379V4.29883H74.1562V3.46094ZM75.8379 0.912109H76.916V2.27148H75.8379V0.912109ZM83.1328 1.57422V3.4375H85.582V4.27539H83.1328V7.83789C83.1328 8.32227 83.2246 8.66016 83.4082 8.85156C83.5918 9.04297 83.9121 9.13867 84.3691 9.13867H85.582V10H84.2637C83.4551 10 82.8848 9.83789 82.5527 9.51367C82.2207 9.18945 82.0547 8.63086 82.0547 7.83789V4.27539H80.3027V3.4375H82.0547V1.57422H83.1328ZM93.3281 6.17969V6.70703H88.6582V6.74219C88.627 7.63672 88.7969 8.2793 89.168 8.66992C89.543 9.06055 90.0703 9.25586 90.75 9.25586C91.0938 9.25586 91.4531 9.20117 91.8281 9.0918C92.2031 8.98242 92.6035 8.81641 93.0293 8.59375V9.66602C92.6191 9.83398 92.2227 9.95898 91.8398 10.041C91.4609 10.127 91.0938 10.1699 90.7383 10.1699C89.7188 10.1699 88.9219 9.86523 88.3477 9.25586C87.7734 8.64258 87.4863 7.79883 87.4863 6.72461C87.4863 5.67773 87.7676 4.8418 88.3301 4.2168C88.8926 3.5918 89.6426 3.2793 90.5801 3.2793C91.416 3.2793 92.0742 3.5625 92.5547 4.12891C93.0391 4.69531 93.2969 5.37891 93.3281 6.17969ZM92.25 5.86328C92.2031 5.41016 92.0371 5.01953 91.752 4.69141C91.4707 4.35938 91.0645 4.19336 90.5332 4.19336C90.0137 4.19336 89.5859 4.36523 89.25 4.70898C88.9141 5.05273 88.7305 5.43945 88.6992 5.86914L92.25 5.86328ZM119.297 4.19336C118.75 4.19336 118.336 4.40625 118.055 4.83203C117.773 5.25781 117.633 5.88867 117.633 6.72461C117.633 7.55664 117.773 8.1875 118.055 8.61719C118.336 9.04297 118.75 9.25586 119.297 9.25586C119.848 9.25586 120.264 9.04297 120.545 8.61719C120.826 8.1875 120.967 7.55664 120.967 6.72461C120.967 5.88867 120.826 5.25781 120.545 4.83203C120.264 4.40625 119.848 4.19336 119.297 4.19336ZM119.297 3.2793C120.207 3.2793 120.902 3.57422 121.383 4.16406C121.867 4.75391 122.109 5.60742 122.109 6.72461C122.109 7.8457 121.869 8.70117 121.389 9.29102C120.908 9.87695 120.211 10.1699 119.297 10.1699C118.387 10.1699 117.691 9.87695 117.211 9.29102C116.73 8.70117 116.49 7.8457 116.49 6.72461C116.49 5.60742 116.73 4.75391 117.211 4.16406C117.691 3.57422 118.387 3.2793 119.297 3.2793ZM123.504 3.4375H124.623L126.527 8.94531L128.438 3.4375H129.557L127.225 10H125.836L123.504 3.4375ZM136.711 6.17969V6.70703H132.041V6.74219C132.01 7.63672 132.18 8.2793 132.551 8.66992C132.926 9.06055 133.453 9.25586 134.133 9.25586C134.477 9.25586 134.836 9.20117 135.211 9.0918C135.586 8.98242 135.986 8.81641 136.412 8.59375V9.66602C136.002 9.83398 135.605 9.95898 135.223 10.041C134.844 10.127 134.477 10.1699 134.121 10.1699C133.102 10.1699 132.305 9.86523 131.73 9.25586C131.156 8.64258 130.869 7.79883 130.869 6.72461C130.869 5.67773 131.15 4.8418 131.713 4.2168C132.275 3.5918 133.025 3.2793 133.963 3.2793C134.799 3.2793 135.457 3.5625 135.938 4.12891C136.422 4.69531 136.68 5.37891 136.711 6.17969ZM135.633 5.86328C135.586 5.41016 135.42 5.01953 135.135 4.69141C134.854 4.35938 134.447 4.19336 133.916 4.19336C133.396 4.19336 132.969 4.36523 132.633 4.70898C132.297 5.05273 132.113 5.43945 132.082 5.86914L135.633 5.86328ZM144.146 4.79102C143.916 4.61133 143.682 4.48047 143.443 4.39844C143.205 4.31641 142.943 4.27539 142.658 4.27539C141.986 4.27539 141.473 4.48633 141.117 4.9082C140.762 5.33008 140.584 5.93945 140.584 6.73633V10H139.5V3.4375H140.584V4.7207C140.764 4.25586 141.039 3.90039 141.41 3.6543C141.785 3.4043 142.229 3.2793 142.74 3.2793C143.006 3.2793 143.254 3.3125 143.484 3.37891C143.715 3.44531 143.936 3.54883 144.146 3.68945V4.79102ZM150.838 0.882812V1.7793H149.613C149.227 1.7793 148.957 1.85938 148.805 2.01953C148.656 2.17578 148.582 2.45508 148.582 2.85742V3.4375H150.838V4.27539H148.582V10H147.504V4.27539H145.752V3.4375H147.504V2.98047C147.504 2.26172 147.668 1.73242 147.996 1.39258C148.328 1.05273 148.844 0.882812 149.543 0.882812H150.838ZM153.691 3.46094H156.451V9.16211H158.59V10H153.234V9.16211H155.373V4.29883H153.691V3.46094ZM155.373 0.912109H156.451V2.27148H155.373V0.912109ZM162.668 1.57422V3.4375H165.117V4.27539H162.668V7.83789C162.668 8.32227 162.76 8.66016 162.943 8.85156C163.127 9.04297 163.447 9.13867 163.904 9.13867H165.117V10H163.799C162.99 10 162.42 9.83789 162.088 9.51367C161.756 9.18945 161.59 8.63086 161.59 7.83789V4.27539H159.838V3.4375H161.59V1.57422H162.668ZM173.473 11.1133V12.1094H166.301V11.1133H173.473ZM179.748 9.66602C179.459 9.83398 179.16 9.95898 178.852 10.041C178.547 10.127 178.234 10.1699 177.914 10.1699C176.898 10.1699 176.104 9.86523 175.529 9.25586C174.959 8.64648 174.674 7.80273 174.674 6.72461C174.674 5.64648 174.959 4.80273 175.529 4.19336C176.104 3.58398 176.898 3.2793 177.914 3.2793C178.23 3.2793 178.539 3.32031 178.84 3.40234C179.141 3.48438 179.443 3.61133 179.748 3.7832V4.91406C179.463 4.66016 179.176 4.47656 178.887 4.36328C178.602 4.25 178.277 4.19336 177.914 4.19336C177.238 4.19336 176.719 4.41211 176.355 4.84961C175.992 5.28711 175.811 5.91211 175.811 6.72461C175.811 7.5332 175.992 8.1582 176.355 8.59961C176.723 9.03711 177.242 9.25586 177.914 9.25586C178.289 9.25586 178.625 9.19922 178.922 9.08594C179.219 8.96875 179.494 8.78906 179.748 8.54688V9.66602ZM186.92 5.93359V10H185.836V5.93359C185.836 5.34375 185.732 4.91016 185.525 4.63281C185.318 4.35547 184.994 4.2168 184.553 4.2168C184.049 4.2168 183.66 4.39648 183.387 4.75586C183.117 5.11133 182.982 5.62305 182.982 6.29102V10H181.904V0.882812H182.982V4.42188C183.174 4.04688 183.434 3.76367 183.762 3.57227C184.09 3.37695 184.479 3.2793 184.928 3.2793C185.596 3.2793 186.094 3.5 186.422 3.94141C186.754 4.37891 186.92 5.04297 186.92 5.93359ZM194.555 6.17969V6.70703H189.885V6.74219C189.854 7.63672 190.023 8.2793 190.395 8.66992C190.77 9.06055 191.297 9.25586 191.977 9.25586C192.32 9.25586 192.68 9.20117 193.055 9.0918C193.43 8.98242 193.83 8.81641 194.256 8.59375V9.66602C193.846 9.83398 193.449 9.95898 193.066 10.041C192.688 10.127 192.32 10.1699 191.965 10.1699C190.945 10.1699 190.148 9.86523 189.574 9.25586C189 8.64258 188.713 7.79883 188.713 6.72461C188.713 5.67773 188.994 4.8418 189.557 4.2168C190.119 3.5918 190.869 3.2793 191.807 3.2793C192.643 3.2793 193.301 3.5625 193.781 4.12891C194.266 4.69531 194.523 5.37891 194.555 6.17969ZM193.477 5.86328C193.43 5.41016 193.264 5.01953 192.979 4.69141C192.697 4.35938 192.291 4.19336 191.76 4.19336C191.24 4.19336 190.812 4.36523 190.477 4.70898C190.141 5.05273 189.957 5.43945 189.926 5.86914L193.477 5.86328ZM201.439 9.66602C201.15 9.83398 200.852 9.95898 200.543 10.041C200.238 10.127 199.926 10.1699 199.605 10.1699C198.59 10.1699 197.795 9.86523 197.221 9.25586C196.65 8.64648 196.365 7.80273 196.365 6.72461C196.365 5.64648 196.65 4.80273 197.221 4.19336C197.795 3.58398 198.59 3.2793 199.605 3.2793C199.922 3.2793 200.23 3.32031 200.531 3.40234C200.832 3.48438 201.135 3.61133 201.439 3.7832V4.91406C201.154 4.66016 200.867 4.47656 200.578 4.36328C200.293 4.25 199.969 4.19336 199.605 4.19336C198.93 4.19336 198.41 4.41211 198.047 4.84961C197.684 5.28711 197.502 5.91211 197.502 6.72461C197.502 7.5332 197.684 8.1582 198.047 8.59961C198.414 9.03711 198.934 9.25586 199.605 9.25586C199.98 9.25586 200.316 9.19922 200.613 9.08594C200.91 8.96875 201.186 8.78906 201.439 8.54688V9.66602ZM203.836 0.882812H204.949V6.16211L207.779 3.4375H209.092L206.508 5.91016L209.496 10H208.178L205.752 6.61328L204.949 7.36914V10H203.836V0.882812ZM216.855 11.1133V12.1094H209.684V11.1133H216.855ZM222.615 3.66602V4.7207C222.307 4.54102 221.996 4.40625 221.684 4.31641C221.371 4.22656 221.053 4.18164 220.729 4.18164C220.24 4.18164 219.875 4.26172 219.633 4.42188C219.395 4.57812 219.275 4.81836 219.275 5.14258C219.275 5.43555 219.365 5.6543 219.545 5.79883C219.725 5.94336 220.172 6.08398 220.887 6.2207L221.32 6.30273C221.855 6.4043 222.26 6.60742 222.533 6.91211C222.811 7.2168 222.949 7.61328 222.949 8.10156C222.949 8.75 222.719 9.25781 222.258 9.625C221.797 9.98828 221.156 10.1699 220.336 10.1699C220.012 10.1699 219.672 10.1348 219.316 10.0645C218.961 9.99805 218.576 9.89648 218.162 9.75977V8.64648C218.564 8.85352 218.949 9.00977 219.316 9.11523C219.684 9.2168 220.031 9.26758 220.359 9.26758C220.836 9.26758 221.205 9.17188 221.467 8.98047C221.729 8.78516 221.859 8.51367 221.859 8.16602C221.859 7.66602 221.381 7.32031 220.424 7.12891L220.377 7.11719L219.973 7.03516C219.352 6.91406 218.898 6.71094 218.613 6.42578C218.328 6.13672 218.186 5.74414 218.186 5.24805C218.186 4.61914 218.398 4.13477 218.824 3.79492C219.25 3.45117 219.857 3.2793 220.646 3.2793C220.998 3.2793 221.336 3.3125 221.66 3.37891C221.984 3.44141 222.303 3.53711 222.615 3.66602ZM225.287 7.51562V3.44922H226.365V7.51562C226.365 8.10547 226.469 8.53906 226.676 8.81641C226.887 9.09375 227.211 9.23242 227.648 9.23242C228.156 9.23242 228.545 9.05469 228.814 8.69922C229.084 8.33984 229.219 7.82617 229.219 7.1582V3.44922H230.303V10H229.219V9.01562C229.027 9.39453 228.766 9.68164 228.434 9.87695C228.105 10.0723 227.721 10.1699 227.279 10.1699C226.607 10.1699 226.107 9.95117 225.779 9.51367C225.451 9.07227 225.287 8.40625 225.287 7.51562ZM233.227 3.46094H235.986V9.16211H238.125V10H232.77V9.16211H234.908V4.29883H233.227V3.46094ZM234.908 0.912109H235.986V2.27148H234.908V0.912109ZM242.203 1.57422V3.4375H244.652V4.27539H242.203V7.83789C242.203 8.32227 242.295 8.66016 242.479 8.85156C242.662 9.04297 242.982 9.13867 243.439 9.13867H244.652V10H243.334C242.525 10 241.955 9.83789 241.623 9.51367C241.291 9.18945 241.125 8.63086 241.125 7.83789V4.27539H239.373V3.4375H241.125V1.57422H242.203ZM252.398 6.17969V6.70703H247.729V6.74219C247.697 7.63672 247.867 8.2793 248.238 8.66992C248.613 9.06055 249.141 9.25586 249.82 9.25586C250.164 9.25586 250.523 9.20117 250.898 9.0918C251.273 8.98242 251.674 8.81641 252.1 8.59375V9.66602C251.689 9.83398 251.293 9.95898 250.91 10.041C250.531 10.127 250.164 10.1699 249.809 10.1699C248.789 10.1699 247.992 9.86523 247.418 9.25586C246.844 8.64258 246.557 7.79883 246.557 6.72461C246.557 5.67773 246.838 4.8418 247.4 4.2168C247.963 3.5918 248.713 3.2793 249.65 3.2793C250.486 3.2793 251.145 3.5625 251.625 4.12891C252.109 4.69531 252.367 5.37891 252.398 6.17969ZM251.32 5.86328C251.273 5.41016 251.107 5.01953 250.822 4.69141C250.541 4.35938 250.135 4.19336 249.604 4.19336C249.084 4.19336 248.656 4.36523 248.32 4.70898C247.984 5.05273 247.801 5.43945 247.77 5.86914L251.32 5.86328ZM258.076 0.308594C257.557 1.19922 257.168 2.08789 256.91 2.97461C256.656 3.85742 256.529 4.74805 256.529 5.64648C256.529 6.54102 256.656 7.43164 256.91 8.31836C257.168 9.20508 257.557 10.0977 258.076 10.9961H257.139C256.549 10.0664 256.109 9.16211 255.82 8.2832C255.531 7.40039 255.387 6.52148 255.387 5.64648C255.387 4.77539 255.531 3.89844 255.82 3.01562C256.109 2.13281 256.549 1.23047 257.139 0.308594H258.076ZM262.336 0.308594H263.273C263.863 1.23047 264.303 2.13281 264.592 3.01562C264.881 3.89844 265.025 4.77539 265.025 5.64648C265.025 6.52539 264.881 7.40625 264.592 8.28906C264.303 9.17188 263.863 10.0742 263.273 10.9961H262.336C262.855 10.0898 263.242 9.19336 263.496 8.30664C263.754 7.41992 263.883 6.5332 263.883 5.64648C263.883 4.75586 263.754 3.86719 263.496 2.98047C263.242 2.09375 262.855 1.20312 262.336 0.308594ZM107.994 23.791C107.764 23.6113 107.529 23.4805 107.291 23.3984C107.053 23.3164 106.791 23.2754 106.506 23.2754C105.834 23.2754 105.32 23.4863 104.965 23.9082C104.609 24.3301 104.432 24.9395 104.432 25.7363V29H103.348V22.4375H104.432V23.7207C104.611 23.2559 104.887 22.9004 105.258 22.6543C105.633 22.4043 106.076 22.2793 106.588 22.2793C106.854 22.2793 107.102 22.3125 107.332 22.3789C107.562 22.4453 107.783 22.5488 107.994 22.6895V23.791ZM109.6 26.5156V22.4492H110.678V26.5156C110.678 27.1055 110.781 27.5391 110.988 27.8164C111.199 28.0938 111.523 28.2324 111.961 28.2324C112.469 28.2324 112.857 28.0547 113.127 27.6992C113.396 27.3398 113.531 26.8262 113.531 26.1582V22.4492H114.615V29H113.531V28.0156C113.34 28.3945 113.078 28.6816 112.746 28.877C112.418 29.0723 112.033 29.1699 111.592 29.1699C110.92 29.1699 110.42 28.9512 110.092 28.5137C109.764 28.0723 109.6 27.4062 109.6 26.5156ZM121.846 24.9336V29H120.762V24.9336C120.762 24.3438 120.658 23.9102 120.451 23.6328C120.244 23.3555 119.92 23.2168 119.479 23.2168C118.975 23.2168 118.586 23.3965 118.312 23.7559C118.043 24.1113 117.908 24.623 117.908 25.291V29H116.83V22.4375H117.908V23.4219C118.1 23.0469 118.359 22.7637 118.688 22.5723C119.016 22.377 119.404 22.2793 119.854 22.2793C120.521 22.2793 121.02 22.5 121.348 22.9414C121.68 23.3789 121.846 24.043 121.846 24.9336ZM127.928 19.3086C127.408 20.1992 127.02 21.0879 126.762 21.9746C126.508 22.8574 126.381 23.748 126.381 24.6465C126.381 25.541 126.508 26.4316 126.762 27.3184C127.02 28.2051 127.408 29.0977 127.928 29.9961H126.99C126.4 29.0664 125.961 28.1621 125.672 27.2832C125.383 26.4004 125.238 25.5215 125.238 24.6465C125.238 23.7754 125.383 22.8984 125.672 22.0156C125.961 21.1328 126.4 20.2305 126.99 19.3086H127.928ZM133.746 20.5742V22.4375H136.195V23.2754H133.746V26.8379C133.746 27.3223 133.838 27.6602 134.021 27.8516C134.205 28.043 134.525 28.1387 134.982 28.1387H136.195V29H134.877C134.068 29 133.498 28.8379 133.166 28.5137C132.834 28.1895 132.668 27.6309 132.668 26.8379V23.2754H130.916V22.4375H132.668V20.5742H133.746ZM144.146 23.791C143.916 23.6113 143.682 23.4805 143.443 23.3984C143.205 23.3164 142.943 23.2754 142.658 23.2754C141.986 23.2754 141.473 23.4863 141.117 23.9082C140.762 24.3301 140.584 24.9395 140.584 25.7363V29H139.5V22.4375H140.584V23.7207C140.764 23.2559 141.039 22.9004 141.41 22.6543C141.785 22.4043 142.229 22.2793 142.74 22.2793C143.006 22.2793 143.254 22.3125 143.484 22.3789C143.715 22.4453 143.936 22.5488 144.146 22.6895V23.791ZM148.723 25.7012H148.365C147.736 25.7012 147.262 25.8125 146.941 26.0352C146.625 26.2539 146.467 26.582 146.467 27.0195C146.467 27.4141 146.586 27.7207 146.824 27.9395C147.062 28.1582 147.393 28.2676 147.814 28.2676C148.408 28.2676 148.875 28.0625 149.215 27.6523C149.555 27.2383 149.727 26.668 149.73 25.9414V25.7012H148.723ZM150.814 25.2559V29H149.73V28.0273C149.5 28.418 149.209 28.707 148.857 28.8945C148.51 29.0781 148.086 29.1699 147.586 29.1699C146.918 29.1699 146.385 28.9824 145.986 28.6074C145.588 28.2285 145.389 27.7227 145.389 27.0898C145.389 26.3594 145.633 25.8047 146.121 25.4258C146.613 25.0469 147.334 24.8574 148.283 24.8574H149.73V24.6875C149.727 24.1641 149.594 23.7852 149.332 23.5508C149.07 23.3125 148.652 23.1934 148.078 23.1934C147.711 23.1934 147.34 23.2461 146.965 23.3516C146.59 23.457 146.225 23.6113 145.869 23.8145V22.7363C146.268 22.584 146.648 22.4707 147.012 22.3965C147.379 22.3184 147.734 22.2793 148.078 22.2793C148.621 22.2793 149.084 22.3594 149.467 22.5195C149.854 22.6797 150.166 22.9199 150.404 23.2402C150.553 23.4355 150.658 23.6777 150.721 23.9668C150.783 24.252 150.814 24.6816 150.814 25.2559ZM153.691 22.4609H156.451V28.1621H158.59V29H153.234V28.1621H155.373V23.2988H153.691V22.4609ZM155.373 19.9121H156.451V21.2715H155.373V19.9121ZM165.229 24.9336V29H164.145V24.9336C164.145 24.3438 164.041 23.9102 163.834 23.6328C163.627 23.3555 163.303 23.2168 162.861 23.2168C162.357 23.2168 161.969 23.3965 161.695 23.7559C161.426 24.1113 161.291 24.623 161.291 25.291V29H160.213V22.4375H161.291V23.4219C161.482 23.0469 161.742 22.7637 162.07 22.5723C162.398 22.377 162.787 22.2793 163.236 22.2793C163.904 22.2793 164.402 22.5 164.73 22.9414C165.062 23.3789 165.229 24.043 165.229 24.9336ZM173.473 30.1133V31.1094H166.301V30.1133H173.473ZM178.559 23.2754V19.8828H179.637V29H178.559V28.1738C178.379 28.498 178.139 28.7461 177.838 28.918C177.541 29.0859 177.197 29.1699 176.807 29.1699C176.014 29.1699 175.389 28.8633 174.932 28.25C174.479 27.6328 174.252 26.7832 174.252 25.7012C174.252 24.6348 174.48 23.7988 174.938 23.1934C175.395 22.584 176.018 22.2793 176.807 22.2793C177.201 22.2793 177.549 22.3652 177.85 22.5371C178.15 22.7051 178.387 22.9512 178.559 23.2754ZM175.389 25.7246C175.389 26.5605 175.521 27.1914 175.787 27.6172C176.053 28.043 176.445 28.2559 176.965 28.2559C177.484 28.2559 177.879 28.041 178.148 27.6113C178.422 27.1816 178.559 26.5527 178.559 25.7246C178.559 24.8926 178.422 24.2637 178.148 23.8379C177.879 23.4082 177.484 23.1934 176.965 23.1934C176.445 23.1934 176.053 23.4062 175.787 23.832C175.521 24.2578 175.389 24.8887 175.389 25.7246ZM184.875 25.7012H184.518C183.889 25.7012 183.414 25.8125 183.094 26.0352C182.777 26.2539 182.619 26.582 182.619 27.0195C182.619 27.4141 182.738 27.7207 182.977 27.9395C183.215 28.1582 183.545 28.2676 183.967 28.2676C184.561 28.2676 185.027 28.0625 185.367 27.6523C185.707 27.2383 185.879 26.668 185.883 25.9414V25.7012H184.875ZM186.967 25.2559V29H185.883V28.0273C185.652 28.418 185.361 28.707 185.01 28.8945C184.662 29.0781 184.238 29.1699 183.738 29.1699C183.07 29.1699 182.537 28.9824 182.139 28.6074C181.74 28.2285 181.541 27.7227 181.541 27.0898C181.541 26.3594 181.785 25.8047 182.273 25.4258C182.766 25.0469 183.486 24.8574 184.436 24.8574H185.883V24.6875C185.879 24.1641 185.746 23.7852 185.484 23.5508C185.223 23.3125 184.805 23.1934 184.23 23.1934C183.863 23.1934 183.492 23.2461 183.117 23.3516C182.742 23.457 182.377 23.6113 182.021 23.8145V22.7363C182.42 22.584 182.801 22.4707 183.164 22.3965C183.531 22.3184 183.887 22.2793 184.23 22.2793C184.773 22.2793 185.236 22.3594 185.619 22.5195C186.006 22.6797 186.318 22.9199 186.557 23.2402C186.705 23.4355 186.811 23.6777 186.873 23.9668C186.936 24.252 186.967 24.6816 186.967 25.2559ZM191.59 20.5742V22.4375H194.039V23.2754H191.59V26.8379C191.59 27.3223 191.682 27.6602 191.865 27.8516C192.049 28.043 192.369 28.1387 192.826 28.1387H194.039V29H192.721C191.912 29 191.342 28.8379 191.01 28.5137C190.678 28.1895 190.512 27.6309 190.512 26.8379V23.2754H188.76V22.4375H190.512V20.5742H191.59ZM199.336 25.7012H198.979C198.35 25.7012 197.875 25.8125 197.555 26.0352C197.238 26.2539 197.08 26.582 197.08 27.0195C197.08 27.4141 197.199 27.7207 197.438 27.9395C197.676 28.1582 198.006 28.2676 198.428 28.2676C199.021 28.2676 199.488 28.0625 199.828 27.6523C200.168 27.2383 200.34 26.668 200.344 25.9414V25.7012H199.336ZM201.428 25.2559V29H200.344V28.0273C200.113 28.418 199.822 28.707 199.471 28.8945C199.123 29.0781 198.699 29.1699 198.199 29.1699C197.531 29.1699 196.998 28.9824 196.6 28.6074C196.201 28.2285 196.002 27.7227 196.002 27.0898C196.002 26.3594 196.246 25.8047 196.734 25.4258C197.227 25.0469 197.947 24.8574 198.896 24.8574H200.344V24.6875C200.34 24.1641 200.207 23.7852 199.945 23.5508C199.684 23.3125 199.266 23.1934 198.691 23.1934C198.324 23.1934 197.953 23.2461 197.578 23.3516C197.203 23.457 196.838 23.6113 196.482 23.8145V22.7363C196.881 22.584 197.262 22.4707 197.625 22.3965C197.992 22.3184 198.348 22.2793 198.691 22.2793C199.234 22.2793 199.697 22.3594 200.08 22.5195C200.467 22.6797 200.779 22.9199 201.018 23.2402C201.166 23.4355 201.271 23.6777 201.334 23.9668C201.396 24.252 201.428 24.6816 201.428 25.2559ZM208.154 22.666V23.7207C207.846 23.541 207.535 23.4062 207.223 23.3164C206.91 23.2266 206.592 23.1816 206.268 23.1816C205.779 23.1816 205.414 23.2617 205.172 23.4219C204.934 23.5781 204.814 23.8184 204.814 24.1426C204.814 24.4355 204.904 24.6543 205.084 24.7988C205.264 24.9434 205.711 25.084 206.426 25.2207L206.859 25.3027C207.395 25.4043 207.799 25.6074 208.072 25.9121C208.35 26.2168 208.488 26.6133 208.488 27.1016C208.488 27.75 208.258 28.2578 207.797 28.625C207.336 28.9883 206.695 29.1699 205.875 29.1699C205.551 29.1699 205.211 29.1348 204.855 29.0645C204.5 28.998 204.115 28.8965 203.701 28.7598V27.6465C204.104 27.8535 204.488 28.0098 204.855 28.1152C205.223 28.2168 205.57 28.2676 205.898 28.2676C206.375 28.2676 206.744 28.1719 207.006 27.9805C207.268 27.7852 207.398 27.5137 207.398 27.166C207.398 26.666 206.92 26.3203 205.963 26.1289L205.916 26.1172L205.512 26.0352C204.891 25.9141 204.438 25.7109 204.152 25.4258C203.867 25.1367 203.725 24.7441 203.725 24.248C203.725 23.6191 203.938 23.1348 204.363 22.7949C204.789 22.4512 205.396 22.2793 206.186 22.2793C206.537 22.2793 206.875 22.3125 207.199 22.3789C207.523 22.4414 207.842 22.5371 208.154 22.666ZM216.246 25.1797V25.707H211.576V25.7422C211.545 26.6367 211.715 27.2793 212.086 27.6699C212.461 28.0605 212.988 28.2559 213.668 28.2559C214.012 28.2559 214.371 28.2012 214.746 28.0918C215.121 27.9824 215.521 27.8164 215.947 27.5938V28.666C215.537 28.834 215.141 28.959 214.758 29.041C214.379 29.127 214.012 29.1699 213.656 29.1699C212.637 29.1699 211.84 28.8652 211.266 28.2559C210.691 27.6426 210.404 26.7988 210.404 25.7246C210.404 24.6777 210.686 23.8418 211.248 23.2168C211.811 22.5918 212.561 22.2793 213.498 22.2793C214.334 22.2793 214.992 22.5625 215.473 23.1289C215.957 23.6953 216.215 24.3789 216.246 25.1797ZM215.168 24.8633C215.121 24.4102 214.955 24.0195 214.67 23.6914C214.389 23.3594 213.982 23.1934 213.451 23.1934C212.932 23.1934 212.504 23.3652 212.168 23.709C211.832 24.0527 211.648 24.4395 211.617 24.8691L215.168 24.8633ZM220.512 20.5742V22.4375H222.961V23.2754H220.512V26.8379C220.512 27.3223 220.604 27.6602 220.787 27.8516C220.971 28.043 221.291 28.1387 221.748 28.1387H222.961V29H221.643C220.834 29 220.264 28.8379 219.932 28.5137C219.6 28.1895 219.434 27.6309 219.434 26.8379V23.2754H217.682V22.4375H219.434V20.5742H220.512Z" fill="#AC4142"/>
<path d="M162.357 76.8828H163.834V78.0898L162.68 80.334H161.783L162.357 78.0898V76.8828ZM171.68 82.7246C171.68 81.8887 171.547 81.2578 171.281 80.832C171.016 80.4062 170.623 80.1934 170.104 80.1934C169.58 80.1934 169.184 80.4082 168.914 80.8379C168.645 81.2637 168.51 81.8926 168.51 82.7246C168.51 83.5527 168.645 84.1816 168.914 84.6113C169.184 85.041 169.58 85.2559 170.104 85.2559C170.623 85.2559 171.016 85.043 171.281 84.6172C171.547 84.1914 171.68 83.5605 171.68 82.7246ZM168.51 80.2754C168.682 79.9551 168.918 79.709 169.219 79.5371C169.523 79.3652 169.875 79.2793 170.273 79.2793C171.062 79.2793 171.684 79.584 172.137 80.1934C172.59 80.7988 172.816 81.6348 172.816 82.7012C172.816 83.7832 172.588 84.6328 172.131 85.25C171.678 85.8633 171.055 86.1699 170.262 86.1699C169.871 86.1699 169.525 86.0859 169.225 85.918C168.928 85.7461 168.689 85.498 168.51 85.1738V86H167.432V76.8828H168.51V80.2754ZM177.141 80.1934C176.594 80.1934 176.18 80.4062 175.898 80.832C175.617 81.2578 175.477 81.8887 175.477 82.7246C175.477 83.5566 175.617 84.1875 175.898 84.6172C176.18 85.043 176.594 85.2559 177.141 85.2559C177.691 85.2559 178.107 85.043 178.389 84.6172C178.67 84.1875 178.811 83.5566 178.811 82.7246C178.811 81.8887 178.67 81.2578 178.389 80.832C178.107 80.4062 177.691 80.1934 177.141 80.1934ZM177.141 79.2793C178.051 79.2793 178.746 79.5742 179.227 80.1641C179.711 80.7539 179.953 81.6074 179.953 82.7246C179.953 83.8457 179.713 84.7012 179.232 85.291C178.752 85.877 178.055 86.1699 177.141 86.1699C176.23 86.1699 175.535 85.877 175.055 85.291C174.574 84.7012 174.334 83.8457 174.334 82.7246C174.334 81.6074 174.574 80.7539 175.055 80.1641C175.535 79.5742 176.23 79.2793 177.141 79.2793ZM184.359 77.5742V79.4375H186.809V80.2754H184.359V83.8379C184.359 84.3223 184.451 84.6602 184.635 84.8516C184.818 85.043 185.139 85.1387 185.596 85.1387H186.809V86H185.49C184.682 86 184.111 85.8379 183.779 85.5137C183.447 85.1895 183.281 84.6309 183.281 83.8379V80.2754H181.529V79.4375H183.281V77.5742H184.359ZM194.15 81.9336V86H193.066V81.9336C193.066 81.3438 192.963 80.9102 192.756 80.6328C192.549 80.3555 192.225 80.2168 191.783 80.2168C191.279 80.2168 190.891 80.3965 190.617 80.7559C190.348 81.1113 190.213 81.623 190.213 82.291V86H189.135V76.8828H190.213V80.4219C190.404 80.0469 190.664 79.7637 190.992 79.5723C191.32 79.377 191.709 79.2793 192.158 79.2793C192.826 79.2793 193.324 79.5 193.652 79.9414C193.984 80.3789 194.15 81.043 194.15 81.9336ZM198.51 76.8828H199.986V78.0898L198.832 80.334H197.936L198.51 78.0898V76.8828Z" fill="#D28445"/>
<path d="M101.742 7.07031H107.936V8.06055H101.742V7.07031ZM101.742 4.31055H107.936V5.30078H101.742V4.31055ZM5.30273 24.6348C5.30273 23.3496 5.16992 22.4316 4.9043 21.8809C4.64258 21.3301 4.21094 21.0547 3.60938 21.0547C3.01172 21.0547 2.58008 21.3301 2.31445 21.8809C2.05273 22.4316 1.92188 23.3496 1.92188 24.6348C1.92188 25.916 2.05273 26.832 2.31445 27.3828C2.58008 27.9336 3.01172 28.209 3.60938 28.209C4.21094 28.209 4.64258 27.9355 4.9043 27.3887C5.16992 26.8379 5.30273 25.9199 5.30273 24.6348ZM6.53906 24.6348C6.53906 26.1582 6.29688 27.2949 5.8125 28.0449C5.33203 28.7949 4.59766 29.1699 3.60938 29.1699C2.62109 29.1699 1.88672 28.7969 1.40625 28.0508C0.925781 27.3047 0.685547 26.166 0.685547 24.6348C0.685547 23.1074 0.925781 21.9688 1.40625 21.2188C1.89062 20.4688 2.625 20.0938 3.60938 20.0938C4.59766 20.0938 5.33203 20.4688 5.8125 21.2188C6.29688 21.9688 6.53906 23.1074 6.53906 24.6348ZM7.81641 22.4375H8.93555L10.8398 27.9453L12.75 22.4375H13.8691L11.5371 29H10.1484L7.81641 22.4375ZM21.0234 25.1797V25.707H16.3535V25.7422C16.3223 26.6367 16.4922 27.2793 16.8633 27.6699C17.2383 28.0605 17.7656 28.2559 18.4453 28.2559C18.7891 28.2559 19.1484 28.2012 19.5234 28.0918C19.8984 27.9824 20.2988 27.8164 20.7246 27.5938V28.666C20.3145 28.834 19.918 28.959 19.5352 29.041C19.1562 29.127 18.7891 29.1699 18.4336 29.1699C17.4141 29.1699 16.6172 28.8652 16.043 28.2559C15.4688 27.6426 15.1816 26.7988 15.1816 25.7246C15.1816 24.6777 15.4629 23.8418 16.0254 23.2168C16.5879 22.5918 17.3379 22.2793 18.2754 22.2793C19.1113 22.2793 19.7695 22.5625 20.25 23.1289C20.7344 23.6953 20.9922 24.3789 21.0234 25.1797ZM19.9453 24.8633C19.8984 24.4102 19.7324 24.0195 19.4473 23.6914C19.166 23.3594 18.7598 23.1934 18.2285 23.1934C17.709 23.1934 17.2812 23.3652 16.9453 23.709C16.6094 24.0527 16.4258 24.4395 16.3945 24.8691L19.9453 24.8633ZM28.459 23.791C28.2285 23.6113 27.9941 23.4805 27.7559 23.3984C27.5176 23.3164 27.2559 23.2754 26.9707 23.2754C26.2988 23.2754 25.7852 23.4863 25.4297 23.9082C25.0742 24.3301 24.8965 24.9395 24.8965 25.7363V29H23.8125V22.4375H24.8965V23.7207C25.0762 23.2559 25.3516 22.9004 25.7227 22.6543C26.0977 22.4043 26.541 22.2793 27.0527 22.2793C27.3184 22.2793 27.5664 22.3125 27.7969 22.3789C28.0273 22.4453 28.248 22.5488 28.459 22.6895V23.791ZM35.1504 19.8828V20.7793H33.9258C33.5391 20.7793 33.2695 20.8594 33.1172 21.0195C32.9688 21.1758 32.8945 21.4551 32.8945 21.8574V22.4375H35.1504V23.2754H32.8945V29H31.8164V23.2754H30.0645V22.4375H31.8164V21.9805C31.8164 21.2617 31.9805 20.7324 32.3086 20.3926C32.6406 20.0527 33.1562 19.8828 33.8555 19.8828H35.1504ZM38.0039 22.4609H40.7637V28.1621H42.9023V29H37.5469V28.1621H39.6855V23.2988H38.0039V22.4609ZM39.6855 19.9121H40.7637V21.2715H39.6855V19.9121ZM46.9805 20.5742V22.4375H49.4297V23.2754H46.9805V26.8379C46.9805 27.3223 47.0723 27.6602 47.2559 27.8516C47.4395 28.043 47.7598 28.1387 48.2168 28.1387H49.4297V29H48.1113C47.3027 29 46.7324 28.8379 46.4004 28.5137C46.0684 28.1895 45.9023 27.6309 45.9023 26.8379V23.2754H44.1504V22.4375H45.9023V20.5742H46.9805ZM57.1758 25.1797V25.707H52.5059V25.7422C52.4746 26.6367 52.6445 27.2793 53.0156 27.6699C53.3906 28.0605 53.918 28.2559 54.5977 28.2559C54.9414 28.2559 55.3008 28.2012 55.6758 28.0918C56.0508 27.9824 56.4512 27.8164 56.877 27.5938V28.666C56.4668 28.834 56.0703 28.959 55.6875 29.041C55.3086 29.127 54.9414 29.1699 54.5859 29.1699C53.5664 29.1699 52.7695 28.8652 52.1953 28.2559C51.6211 27.6426 51.334 26.7988 51.334 25.7246C51.334 24.6777 51.6152 23.8418 52.1777 23.2168C52.7402 22.5918 53.4902 22.2793 54.4277 22.2793C55.2637 22.2793 55.9219 22.5625 56.4023 23.1289C56.8867 23.6953 57.1445 24.3789 57.1758 25.1797ZM56.0977 24.8633C56.0508 24.4102 55.8848 24.0195 55.5996 23.6914C55.3184 23.3594 54.9121 23.1934 54.3809 23.1934C53.8613 23.1934 53.4336 23.3652 53.0977 23.709C52.7617 24.0527 52.5781 24.4395 52.5469 24.8691L56.0977 24.8633ZM63.7734 20.5508V21.752C63.4141 21.5215 63.0527 21.3477 62.6895 21.2305C62.3301 21.1133 61.9668 21.0547 61.5996 21.0547C61.041 21.0547 60.5996 21.1855 60.2754 21.4473C59.9512 21.7051 59.7891 22.0547 59.7891 22.4961C59.7891 22.8828 59.8945 23.1777 60.1055 23.3809C60.3203 23.584 60.7188 23.7539 61.3008 23.8906L61.9219 24.0312C62.7422 24.2227 63.3398 24.5234 63.7148 24.9336C64.0898 25.3438 64.2773 25.9023 64.2773 26.6094C64.2773 27.4414 64.0195 28.0762 63.5039 28.5137C62.9883 28.9512 62.2383 29.1699 61.2539 29.1699C60.8438 29.1699 60.4316 29.125 60.0176 29.0352C59.6035 28.9492 59.1875 28.8184 58.7695 28.6426V27.3828C59.2188 27.668 59.6426 27.877 60.041 28.0098C60.4434 28.1426 60.8477 28.209 61.2539 28.209C61.8516 28.209 62.3164 28.0762 62.6484 27.8105C62.9805 27.541 63.1465 27.166 63.1465 26.6855C63.1465 26.248 63.0312 25.9141 62.8008 25.6836C62.5742 25.4531 62.1777 25.2754 61.6113 25.1504L60.9785 25.0039C60.166 24.8203 59.5762 24.543 59.209 24.1719C58.8418 23.8008 58.6582 23.3027 58.6582 22.6777C58.6582 21.8965 58.9199 21.2715 59.4434 20.8027C59.9707 20.3301 60.6699 20.0938 61.541 20.0938C61.877 20.0938 62.2305 20.1328 62.6016 20.2109C62.9727 20.2852 63.3633 20.3984 63.7734 20.5508ZM66.2168 26.5156V22.4492H67.2949V26.5156C67.2949 27.1055 67.3984 27.5391 67.6055 27.8164C67.8164 28.0938 68.1406 28.2324 68.5781 28.2324C69.0859 28.2324 69.4746 28.0547 69.7441 27.6992C70.0137 27.3398 70.1484 26.8262 70.1484 26.1582V22.4492H71.2324V29H70.1484V28.0156C69.957 28.3945 69.6953 28.6816 69.3633 28.877C69.0352 29.0723 68.6504 29.1699 68.209 29.1699C67.5371 29.1699 67.0371 28.9512 66.709 28.5137C66.3809 28.0723 66.2168 27.4062 66.2168 26.5156ZM74.1562 22.4609H76.916V28.1621H79.0547V29H73.6992V28.1621H75.8379V23.2988H74.1562V22.4609ZM75.8379 19.9121H76.916V21.2715H75.8379V19.9121ZM83.1328 20.5742V22.4375H85.582V23.2754H83.1328V26.8379C83.1328 27.3223 83.2246 27.6602 83.4082 27.8516C83.5918 28.043 83.9121 28.1387 84.3691 28.1387H85.582V29H84.2637C83.4551 29 82.8848 28.8379 82.5527 28.5137C82.2207 28.1895 82.0547 27.6309 82.0547 26.8379V23.2754H80.3027V22.4375H82.0547V20.5742H83.1328ZM93.3281 25.1797V25.707H88.6582V25.7422C88.627 26.6367 88.7969 27.2793 89.168 27.6699C89.543 28.0605 90.0703 28.2559 90.75 28.2559C91.0938 28.2559 91.4531 28.2012 91.8281 28.0918C92.2031 27.9824 92.6035 27.8164 93.0293 27.5938V28.666C92.6191 28.834 92.2227 28.959 91.8398 29.041C91.4609 29.127 91.0938 29.1699 90.7383 29.1699C89.7188 29.1699 88.9219 28.8652 88.3477 28.2559C87.7734 27.6426 87.4863 26.7988 87.4863 25.7246C87.4863 24.6777 87.7676 23.8418 88.3301 23.2168C88.8926 22.5918 89.6426 22.2793 90.5801 22.2793C91.416 22.2793 92.0742 22.5625 92.5547 23.1289C93.0391 23.6953 93.2969 24.3789 93.3281 25.1797ZM92.25 24.8633C92.2031 24.4102 92.0371 24.0195 91.752 23.6914C91.4707 23.3594 91.0645 23.1934 90.5332 23.1934C90.0137 23.1934 89.5859 23.3652 89.25 23.709C88.9141 24.0527 88.7305 24.4395 88.6992 24.8691L92.25 24.8633ZM96.2754 26.6328H98.3379V29H96.2754V26.6328ZM224.66 26.0703H230.854V27.0605H224.66V26.0703ZM224.66 23.3105H230.854V24.3008H224.66V23.3105ZM235.488 25.7012H235.131C234.502 25.7012 234.027 25.8125 233.707 26.0352C233.391 26.2539 233.232 26.582 233.232 27.0195C233.232 27.4141 233.352 27.7207 233.59 27.9395C233.828 28.1582 234.158 28.2676 234.58 28.2676C235.174 28.2676 235.641 28.0625 235.98 27.6523C236.32 27.2383 236.492 26.668 236.496 25.9414V25.7012H235.488ZM237.58 25.2559V29H236.496V28.0273C236.266 28.418 235.975 28.707 235.623 28.8945C235.275 29.0781 234.852 29.1699 234.352 29.1699C233.684 29.1699 233.15 28.9824 232.752 28.6074C232.354 28.2285 232.154 27.7227 232.154 27.0898C232.154 26.3594 232.398 25.8047 232.887 25.4258C233.379 25.0469 234.1 24.8574 235.049 24.8574H236.496V24.6875C236.492 24.1641 236.359 23.7852 236.098 23.5508C235.836 23.3125 235.418 23.1934 234.844 23.1934C234.477 23.1934 234.105 23.2461 233.73 23.3516C233.355 23.457 232.99 23.6113 232.635 23.8145V22.7363C233.033 22.584 233.414 22.4707 233.777 22.3965C234.145 22.3184 234.5 22.2793 234.844 22.2793C235.387 22.2793 235.85 22.3594 236.232 22.5195C236.619 22.6797 236.932 22.9199 237.17 23.2402C237.318 23.4355 237.424 23.6777 237.486 23.9668C237.549 24.252 237.58 24.6816 237.58 25.2559ZM242.818 26.627C242.818 27.1113 242.906 27.4766 243.082 27.7227C243.262 27.9688 243.525 28.0918 243.873 28.0918H245.133V29H243.768C243.123 29 242.623 28.7949 242.268 28.3848C241.916 27.9707 241.74 27.3848 241.74 26.627V20.6914H240.012V19.8477H242.818V26.627ZM249.434 20.5742V22.4375H251.883V23.2754H249.434V26.8379C249.434 27.3223 249.525 27.6602 249.709 27.8516C249.893 28.043 250.213 28.1387 250.67 28.1387H251.883V29H250.564C249.756 29 249.186 28.8379 248.854 28.5137C248.521 28.1895 248.355 27.6309 248.355 26.8379V23.2754H246.604V22.4375H248.355V20.5742H249.434ZM259.629 25.1797V25.707H254.959V25.7422C254.928 26.6367 255.098 27.2793 255.469 27.6699C255.844 28.0605 256.371 28.2559 257.051 28.2559C257.395 28.2559 257.754 28.2012 258.129 28.0918C258.504 27.9824 258.904 27.8164 259.33 27.5938V28.666C258.92 28.834 258.523 28.959 258.141 29.041C257.762 29.127 257.395 29.1699 257.039 29.1699C256.02 29.1699 255.223 28.8652 254.648 28.2559C254.074 27.6426 253.787 26.7988 253.787 25.7246C253.787 24.6777 254.068 23.8418 254.631 23.2168C255.193 22.5918 255.943 22.2793 256.881 22.2793C257.717 22.2793 258.375 22.5625 258.855 23.1289C259.34 23.6953 259.598 24.3789 259.629 25.1797ZM258.551 24.8633C258.504 24.4102 258.338 24.0195 258.053 23.6914C257.771 23.3594 257.365 23.1934 256.834 23.1934C256.314 23.1934 255.887 23.3652 255.551 23.709C255.215 24.0527 255.031 24.4395 255 24.8691L258.551 24.8633ZM267.064 23.791C266.834 23.6113 266.6 23.4805 266.361 23.3984C266.123 23.3164 265.861 23.2754 265.576 23.2754C264.904 23.2754 264.391 23.4863 264.035 23.9082C263.68 24.3301 263.502 24.9395 263.502 25.7363V29H262.418V22.4375H263.502V23.7207C263.682 23.2559 263.957 22.9004 264.328 22.6543C264.703 22.4043 265.146 22.2793 265.658 22.2793C265.924 22.2793 266.172 22.3125 266.402 22.3789C266.633 22.4453 266.854 22.5488 267.064 22.6895V23.791ZM273.686 24.9336V29H272.602V24.9336C272.602 24.3438 272.498 23.9102 272.291 23.6328C272.084 23.3555 271.76 23.2168 271.318 23.2168C270.814 23.2168 270.426 23.3965 270.152 23.7559C269.883 24.1113 269.748 24.623 269.748 25.291V29H268.67V22.4375H269.748V23.4219C269.939 23.0469 270.199 22.7637 270.527 22.5723C270.855 22.377 271.244 22.2793 271.693 22.2793C272.361 22.2793 272.859 22.5 273.188 22.9414C273.52 23.3789 273.686 24.043 273.686 24.9336ZM278.871 25.7012H278.514C277.885 25.7012 277.41 25.8125 277.09 26.0352C276.773 26.2539 276.615 26.582 276.615 27.0195C276.615 27.4141 276.734 27.7207 276.973 27.9395C277.211 28.1582 277.541 28.2676 277.963 28.2676C278.557 28.2676 279.023 28.0625 279.363 27.6523C279.703 27.2383 279.875 26.668 279.879 25.9414V25.7012H278.871ZM280.963 25.2559V29H279.879V28.0273C279.648 28.418 279.357 28.707 279.006 28.8945C278.658 29.0781 278.234 29.1699 277.734 29.1699C277.066 29.1699 276.533 28.9824 276.135 28.6074C275.736 28.2285 275.537 27.7227 275.537 27.0898C275.537 26.3594 275.781 25.8047 276.27 25.4258C276.762 25.0469 277.482 24.8574 278.432 24.8574H279.879V24.6875C279.875 24.1641 279.742 23.7852 279.48 23.5508C279.219 23.3125 278.801 23.1934 278.227 23.1934C277.859 23.1934 277.488 23.2461 277.113 23.3516C276.738 23.457 276.373 23.6113 276.018 23.8145V22.7363C276.416 22.584 276.797 22.4707 277.16 22.3965C277.527 22.3184 277.883 22.2793 278.227 22.2793C278.77 22.2793 279.232 22.3594 279.615 22.5195C280.002 22.6797 280.314 22.9199 280.553 23.2402C280.701 23.4355 280.807 23.6777 280.869 23.9668C280.932 24.252 280.963 24.6816 280.963 25.2559ZM285.586 20.5742V22.4375H288.035V23.2754H285.586V26.8379C285.586 27.3223 285.678 27.6602 285.861 27.8516C286.045 28.043 286.365 28.1387 286.822 28.1387H288.035V29H286.717C285.908 29 285.338 28.8379 285.006 28.5137C284.674 28.1895 284.508 27.6309 284.508 26.8379V23.2754H282.756V22.4375H284.508V20.5742H285.586ZM291.07 22.4609H293.83V28.1621H295.969V29H290.613V28.1621H292.752V23.2988H291.07V22.4609ZM292.752 19.9121H293.83V21.2715H292.752V19.9121ZM297.035 22.4375H298.154L300.059 27.9453L301.969 22.4375H303.088L300.756 29H299.367L297.035 22.4375ZM310.242 25.1797V25.707H305.572V25.7422C305.541 26.6367 305.711 27.2793 306.082 27.6699C306.457 28.0605 306.984 28.2559 307.664 28.2559C308.008 28.2559 308.367 28.2012 308.742 28.0918C309.117 27.9824 309.518 27.8164 309.943 27.5938V28.666C309.533 28.834 309.137 28.959 308.754 29.041C308.375 29.127 308.008 29.1699 307.652 29.1699C306.633 29.1699 305.836 28.8652 305.262 28.2559C304.688 27.6426 304.4 26.7988 304.4 25.7246C304.4 24.6777 304.682 23.8418 305.244 23.2168C305.807 22.5918 306.557 22.2793 307.494 22.2793C308.33 22.2793 308.988 22.5625 309.469 23.1289C309.953 23.6953 310.211 24.3789 310.242 25.1797ZM309.164 24.8633C309.117 24.4102 308.951 24.0195 308.666 23.6914C308.385 23.3594 307.979 23.1934 307.447 23.1934C306.928 23.1934 306.5 23.3652 306.164 23.709C305.828 24.0527 305.645 24.4395 305.613 24.8691L309.164 24.8633ZM318.082 30.1133V31.1094H310.91V30.1133H318.082ZM3.59766 39.5742V41.4375H6.04688V42.2754H3.59766V45.8379C3.59766 46.3223 3.68945 46.6602 3.87305 46.8516C4.05664 47.043 4.37695 47.1387 4.83398 47.1387H6.04688V48H4.72852C3.91992 48 3.34961 47.8379 3.01758 47.5137C2.68555 47.1895 2.51953 46.6309 2.51953 45.8379V42.2754H0.767578V41.4375H2.51953V39.5742H3.59766ZM13.998 42.791C13.7676 42.6113 13.5332 42.4805 13.2949 42.3984C13.0566 42.3164 12.7949 42.2754 12.5098 42.2754C11.8379 42.2754 11.3242 42.4863 10.9688 42.9082C10.6133 43.3301 10.4355 43.9395 10.4355 44.7363V48H9.35156V41.4375H10.4355V42.7207C10.6152 42.2559 10.8906 41.9004 11.2617 41.6543C11.6367 41.4043 12.0801 41.2793 12.5918 41.2793C12.8574 41.2793 13.1055 41.3125 13.3359 41.3789C13.5664 41.4453 13.7871 41.5488 13.998 41.6895V42.791ZM18.5742 44.7012H18.2168C17.5879 44.7012 17.1133 44.8125 16.793 45.0352C16.4766 45.2539 16.3184 45.582 16.3184 46.0195C16.3184 46.4141 16.4375 46.7207 16.6758 46.9395C16.9141 47.1582 17.2441 47.2676 17.666 47.2676C18.2598 47.2676 18.7266 47.0625 19.0664 46.6523C19.4062 46.2383 19.5781 45.668 19.582 44.9414V44.7012H18.5742ZM20.666 44.2559V48H19.582V47.0273C19.3516 47.418 19.0605 47.707 18.709 47.8945C18.3613 48.0781 17.9375 48.1699 17.4375 48.1699C16.7695 48.1699 16.2363 47.9824 15.8379 47.6074C15.4395 47.2285 15.2402 46.7227 15.2402 46.0898C15.2402 45.3594 15.4844 44.8047 15.9727 44.4258C16.4648 44.0469 17.1855 43.8574 18.1348 43.8574H19.582V43.6875C19.5781 43.1641 19.4453 42.7852 19.1836 42.5508C18.9219 42.3125 18.5039 42.1934 17.9297 42.1934C17.5625 42.1934 17.1914 42.2461 16.8164 42.3516C16.4414 42.457 16.0762 42.6113 15.7207 42.8145V41.7363C16.1191 41.584 16.5 41.4707 16.8633 41.3965C17.2305 41.3184 17.5859 41.2793 17.9297 41.2793C18.4727 41.2793 18.9355 41.3594 19.3184 41.5195C19.7051 41.6797 20.0176 41.9199 20.2559 42.2402C20.4043 42.4355 20.5098 42.6777 20.5723 42.9668C20.6348 43.252 20.666 43.6816 20.666 44.2559ZM23.543 41.4609H26.3027V47.1621H28.4414V48H23.0859V47.1621H25.2246V42.2988H23.543V41.4609ZM25.2246 38.9121H26.3027V40.2715H25.2246V38.9121ZM35.0801 43.9336V48H33.9961V43.9336C33.9961 43.3438 33.8926 42.9102 33.6855 42.6328C33.4785 42.3555 33.1543 42.2168 32.7129 42.2168C32.209 42.2168 31.8203 42.3965 31.5469 42.7559C31.2773 43.1113 31.1426 43.623 31.1426 44.291V48H30.0645V41.4375H31.1426V42.4219C31.334 42.0469 31.5938 41.7637 31.9219 41.5723C32.25 41.377 32.6387 41.2793 33.0879 41.2793C33.7559 41.2793 34.2539 41.5 34.582 41.9414C34.9141 42.3789 35.0801 43.043 35.0801 43.9336ZM43.3242 49.1133V50.1094H36.1523V49.1133H43.3242ZM48.4102 42.2754V38.8828H49.4883V48H48.4102V47.1738C48.2305 47.498 47.9902 47.7461 47.6895 47.918C47.3926 48.0859 47.0488 48.1699 46.6582 48.1699C45.8652 48.1699 45.2402 47.8633 44.7832 47.25C44.3301 46.6328 44.1035 45.7832 44.1035 44.7012C44.1035 43.6348 44.332 42.7988 44.7891 42.1934C45.2461 41.584 45.8691 41.2793 46.6582 41.2793C47.0527 41.2793 47.4004 41.3652 47.7012 41.5371C48.002 41.7051 48.2383 41.9512 48.4102 42.2754ZM45.2402 44.7246C45.2402 45.5605 45.373 46.1914 45.6387 46.6172C45.9043 47.043 46.2969 47.2559 46.8164 47.2559C47.3359 47.2559 47.7305 47.041 48 46.6113C48.2734 46.1816 48.4102 45.5527 48.4102 44.7246C48.4102 43.8926 48.2734 43.2637 48 42.8379C47.7305 42.4082 47.3359 42.1934 46.8164 42.1934C46.2969 42.1934 45.9043 42.4062 45.6387 42.832C45.373 43.2578 45.2402 43.8887 45.2402 44.7246ZM56.8418 38.8828V39.7793H55.6172C55.2305 39.7793 54.9609 39.8594 54.8086 40.0195C54.6602 40.1758 54.5859 40.4551 54.5859 40.8574V41.4375H56.8418V42.2754H54.5859V48H53.5078V42.2754H51.7559V41.4375H53.5078V40.9805C53.5078 40.2617 53.6719 39.7324 54 39.3926C54.332 39.0527 54.8477 38.8828 55.5469 38.8828H56.8418ZM60.4336 45.8848H62.2617V47.4375L60.9609 49.9629L59.7891 49.9688L60.4336 47.4375V45.8848ZM75.9023 39.5742V41.4375H78.3516V42.2754H75.9023V45.8379C75.9023 46.3223 75.9941 46.6602 76.1777 46.8516C76.3613 47.043 76.6816 47.1387 77.1387 47.1387H78.3516V48H77.0332C76.2246 48 75.6543 47.8379 75.3223 47.5137C74.9902 47.1895 74.8242 46.6309 74.8242 45.8379V42.2754H73.0723V41.4375H74.8242V39.5742H75.9023ZM86.0977 44.1797V44.707H81.4277V44.7422C81.3965 45.6367 81.5664 46.2793 81.9375 46.6699C82.3125 47.0605 82.8398 47.2559 83.5195 47.2559C83.8633 47.2559 84.2227 47.2012 84.5977 47.0918C84.9727 46.9824 85.373 46.8164 85.7988 46.5938V47.666C85.3887 47.834 84.9922 47.959 84.6094 48.041C84.2305 48.127 83.8633 48.1699 83.5078 48.1699C82.4883 48.1699 81.6914 47.8652 81.1172 47.2559C80.543 46.6426 80.2559 45.7988 80.2559 44.7246C80.2559 43.6777 80.5371 42.8418 81.0996 42.2168C81.6621 41.5918 82.4121 41.2793 83.3496 41.2793C84.1855 41.2793 84.8438 41.5625 85.3242 42.1289C85.8086 42.6953 86.0664 43.3789 86.0977 44.1797ZM85.0195 43.8633C84.9727 43.4102 84.8066 43.0195 84.5215 42.6914C84.2402 42.3594 83.834 42.1934 83.3027 42.1934C82.7832 42.1934 82.3555 42.3652 82.0195 42.709C81.6836 43.0527 81.5 43.4395 81.4688 43.8691L85.0195 43.8633ZM92.4668 41.666V42.7207C92.1582 42.541 91.8477 42.4062 91.5352 42.3164C91.2227 42.2266 90.9043 42.1816 90.5801 42.1816C90.0918 42.1816 89.7266 42.2617 89.4844 42.4219C89.2461 42.5781 89.127 42.8184 89.127 43.1426C89.127 43.4355 89.2168 43.6543 89.3965 43.7988C89.5762 43.9434 90.0234 44.084 90.7383 44.2207L91.1719 44.3027C91.707 44.4043 92.1113 44.6074 92.3848 44.9121C92.6621 45.2168 92.8008 45.6133 92.8008 46.1016C92.8008 46.75 92.5703 47.2578 92.1094 47.625C91.6484 47.9883 91.0078 48.1699 90.1875 48.1699C89.8633 48.1699 89.5234 48.1348 89.168 48.0645C88.8125 47.998 88.4277 47.8965 88.0137 47.7598V46.6465C88.416 46.8535 88.8008 47.0098 89.168 47.1152C89.5352 47.2168 89.8828 47.2676 90.2109 47.2676C90.6875 47.2676 91.0566 47.1719 91.3184 46.9805C91.5801 46.7852 91.7109 46.5137 91.7109 46.166C91.7109 45.666 91.2324 45.3203 90.2754 45.1289L90.2285 45.1172L89.8242 45.0352C89.2031 44.9141 88.75 44.7109 88.4648 44.4258C88.1797 44.1367 88.0371 43.7441 88.0371 43.248C88.0371 42.6191 88.25 42.1348 88.6758 41.7949C89.1016 41.4512 89.709 41.2793 90.498 41.2793C90.8496 41.2793 91.1875 41.3125 91.5117 41.3789C91.8359 41.4414 92.1543 41.5371 92.4668 41.666ZM97.5938 39.5742V41.4375H100.043V42.2754H97.5938V45.8379C97.5938 46.3223 97.6855 46.6602 97.8691 46.8516C98.0527 47.043 98.373 47.1387 98.8301 47.1387H100.043V48H98.7246C97.916 48 97.3457 47.8379 97.0137 47.5137C96.6816 47.1895 96.5156 46.6309 96.5156 45.8379V42.2754H94.7637V41.4375H96.5156V39.5742H97.5938ZM108.398 49.1133V50.1094H101.227V49.1133H108.398ZM113.484 42.2754V38.8828H114.562V48H113.484V47.1738C113.305 47.498 113.064 47.7461 112.764 47.918C112.467 48.0859 112.123 48.1699 111.732 48.1699C110.939 48.1699 110.314 47.8633 109.857 47.25C109.404 46.6328 109.178 45.7832 109.178 44.7012C109.178 43.6348 109.406 42.7988 109.863 42.1934C110.32 41.584 110.943 41.2793 111.732 41.2793C112.127 41.2793 112.475 41.3652 112.775 41.5371C113.076 41.7051 113.312 41.9512 113.484 42.2754ZM110.314 44.7246C110.314 45.5605 110.447 46.1914 110.713 46.6172C110.979 47.043 111.371 47.2559 111.891 47.2559C112.41 47.2559 112.805 47.041 113.074 46.6113C113.348 46.1816 113.484 45.5527 113.484 44.7246C113.484 43.8926 113.348 43.2637 113.074 42.8379C112.805 42.4082 112.41 42.1934 111.891 42.1934C111.371 42.1934 110.979 42.4062 110.713 42.832C110.447 43.2578 110.314 43.8887 110.314 44.7246ZM119.801 44.7012H119.443C118.814 44.7012 118.34 44.8125 118.02 45.0352C117.703 45.2539 117.545 45.582 117.545 46.0195C117.545 46.4141 117.664 46.7207 117.902 46.9395C118.141 47.1582 118.471 47.2676 118.893 47.2676C119.486 47.2676 119.953 47.0625 120.293 46.6523C120.633 46.2383 120.805 45.668 120.809 44.9414V44.7012H119.801ZM121.893 44.2559V48H120.809V47.0273C120.578 47.418 120.287 47.707 119.936 47.8945C119.588 48.0781 119.164 48.1699 118.664 48.1699C117.996 48.1699 117.463 47.9824 117.064 47.6074C116.666 47.2285 116.467 46.7227 116.467 46.0898C116.467 45.3594 116.711 44.8047 117.199 44.4258C117.691 44.0469 118.412 43.8574 119.361 43.8574H120.809V43.6875C120.805 43.1641 120.672 42.7852 120.41 42.5508C120.148 42.3125 119.73 42.1934 119.156 42.1934C118.789 42.1934 118.418 42.2461 118.043 42.3516C117.668 42.457 117.303 42.6113 116.947 42.8145V41.7363C117.346 41.584 117.727 41.4707 118.09 41.3965C118.457 41.3184 118.812 41.2793 119.156 41.2793C119.699 41.2793 120.162 41.3594 120.545 41.5195C120.932 41.6797 121.244 41.9199 121.482 42.2402C121.631 42.4355 121.736 42.6777 121.799 42.9668C121.861 43.252 121.893 43.6816 121.893 44.2559ZM126.516 39.5742V41.4375H128.965V42.2754H126.516V45.8379C126.516 46.3223 126.607 46.6602 126.791 46.8516C126.975 47.043 127.295 47.1387 127.752 47.1387H128.965V48H127.646C126.838 48 126.268 47.8379 125.936 47.5137C125.604 47.1895 125.438 46.6309 125.438 45.8379V42.2754H123.686V41.4375H125.438V39.5742H126.516ZM134.262 44.7012H133.904C133.275 44.7012 132.801 44.8125 132.48 45.0352C132.164 45.2539 132.006 45.582 132.006 46.0195C132.006 46.4141 132.125 46.7207 132.363 46.9395C132.602 47.1582 132.932 47.2676 133.354 47.2676C133.947 47.2676 134.414 47.0625 134.754 46.6523C135.094 46.2383 135.266 45.668 135.27 44.9414V44.7012H134.262ZM136.354 44.2559V48H135.27V47.0273C135.039 47.418 134.748 47.707 134.396 47.8945C134.049 48.0781 133.625 48.1699 133.125 48.1699C132.457 48.1699 131.924 47.9824 131.525 47.6074C131.127 47.2285 130.928 46.7227 130.928 46.0898C130.928 45.3594 131.172 44.8047 131.66 44.4258C132.152 44.0469 132.873 43.8574 133.822 43.8574H135.27V43.6875C135.266 43.1641 135.133 42.7852 134.871 42.5508C134.609 42.3125 134.191 42.1934 133.617 42.1934C133.25 42.1934 132.879 42.2461 132.504 42.3516C132.129 42.457 131.764 42.6113 131.408 42.8145V41.7363C131.807 41.584 132.188 41.4707 132.551 41.3965C132.918 41.3184 133.273 41.2793 133.617 41.2793C134.16 41.2793 134.623 41.3594 135.006 41.5195C135.393 41.6797 135.705 41.9199 135.943 42.2402C136.092 42.4355 136.197 42.6777 136.26 42.9668C136.322 43.252 136.354 43.6816 136.354 44.2559ZM143.08 41.666V42.7207C142.771 42.541 142.461 42.4062 142.148 42.3164C141.836 42.2266 141.518 42.1816 141.193 42.1816C140.705 42.1816 140.34 42.2617 140.098 42.4219C139.859 42.5781 139.74 42.8184 139.74 43.1426C139.74 43.4355 139.83 43.6543 140.01 43.7988C140.189 43.9434 140.637 44.084 141.352 44.2207L141.785 44.3027C142.32 44.4043 142.725 44.6074 142.998 44.9121C143.275 45.2168 143.414 45.6133 143.414 46.1016C143.414 46.75 143.184 47.2578 142.723 47.625C142.262 47.9883 141.621 48.1699 140.801 48.1699C140.477 48.1699 140.137 48.1348 139.781 48.0645C139.426 47.998 139.041 47.8965 138.627 47.7598V46.6465C139.029 46.8535 139.414 47.0098 139.781 47.1152C140.148 47.2168 140.496 47.2676 140.824 47.2676C141.301 47.2676 141.67 47.1719 141.932 46.9805C142.193 46.7852 142.324 46.5137 142.324 46.166C142.324 45.666 141.846 45.3203 140.889 45.1289L140.842 45.1172L140.438 45.0352C139.816 44.9141 139.363 44.7109 139.078 44.4258C138.793 44.1367 138.65 43.7441 138.65 43.248C138.65 42.6191 138.863 42.1348 139.289 41.7949C139.715 41.4512 140.322 41.2793 141.111 41.2793C141.463 41.2793 141.801 41.3125 142.125 41.3789C142.449 41.4414 142.768 41.5371 143.08 41.666ZM151.172 44.1797V44.707H146.502V44.7422C146.471 45.6367 146.641 46.2793 147.012 46.6699C147.387 47.0605 147.914 47.2559 148.594 47.2559C148.938 47.2559 149.297 47.2012 149.672 47.0918C150.047 46.9824 150.447 46.8164 150.873 46.5938V47.666C150.463 47.834 150.066 47.959 149.684 48.041C149.305 48.127 148.938 48.1699 148.582 48.1699C147.562 48.1699 146.766 47.8652 146.191 47.2559C145.617 46.6426 145.33 45.7988 145.33 44.7246C145.33 43.6777 145.611 42.8418 146.174 42.2168C146.736 41.5918 147.486 41.2793 148.424 41.2793C149.26 41.2793 149.918 41.5625 150.398 42.1289C150.883 42.6953 151.141 43.3789 151.172 44.1797ZM150.094 43.8633C150.047 43.4102 149.881 43.0195 149.596 42.6914C149.314 42.3594 148.908 42.1934 148.377 42.1934C147.857 42.1934 147.43 42.3652 147.094 42.709C146.758 43.0527 146.574 43.4395 146.543 43.8691L150.094 43.8633ZM155.438 39.5742V41.4375H157.887V42.2754H155.438V45.8379C155.438 46.3223 155.529 46.6602 155.713 46.8516C155.896 47.043 156.217 47.1387 156.674 47.1387H157.887V48H156.568C155.76 48 155.189 47.8379 154.857 47.5137C154.525 47.1895 154.359 46.6309 154.359 45.8379V42.2754H152.607V41.4375H154.359V39.5742H155.438ZM159.586 45.0703H165.779V46.0605H159.586V45.0703ZM159.586 42.3105H165.779V43.3008H159.586V42.3105ZM170.414 44.7012H170.057C169.428 44.7012 168.953 44.8125 168.633 45.0352C168.316 45.2539 168.158 45.582 168.158 46.0195C168.158 46.4141 168.277 46.7207 168.516 46.9395C168.754 47.1582 169.084 47.2676 169.506 47.2676C170.1 47.2676 170.566 47.0625 170.906 46.6523C171.246 46.2383 171.418 45.668 171.422 44.9414V44.7012H170.414ZM172.506 44.2559V48H171.422V47.0273C171.191 47.418 170.9 47.707 170.549 47.8945C170.201 48.0781 169.777 48.1699 169.277 48.1699C168.609 48.1699 168.076 47.9824 167.678 47.6074C167.279 47.2285 167.08 46.7227 167.08 46.0898C167.08 45.3594 167.324 44.8047 167.812 44.4258C168.305 44.0469 169.025 43.8574 169.975 43.8574H171.422V43.6875C171.418 43.1641 171.285 42.7852 171.023 42.5508C170.762 42.3125 170.344 42.1934 169.77 42.1934C169.402 42.1934 169.031 42.2461 168.656 42.3516C168.281 42.457 167.916 42.6113 167.561 42.8145V41.7363C167.959 41.584 168.34 41.4707 168.703 41.3965C169.07 41.3184 169.426 41.2793 169.77 41.2793C170.312 41.2793 170.775 41.3594 171.158 41.5195C171.545 41.6797 171.857 41.9199 172.096 42.2402C172.244 42.4355 172.35 42.6777 172.412 42.9668C172.475 43.252 172.506 43.6816 172.506 44.2559ZM177.744 45.627C177.744 46.1113 177.832 46.4766 178.008 46.7227C178.188 46.9688 178.451 47.0918 178.799 47.0918H180.059V48H178.693C178.049 48 177.549 47.7949 177.193 47.3848C176.842 46.9707 176.666 46.3848 176.666 45.627V39.6914H174.938V38.8477H177.744V45.627ZM184.359 39.5742V41.4375H186.809V42.2754H184.359V45.8379C184.359 46.3223 184.451 46.6602 184.635 46.8516C184.818 47.043 185.139 47.1387 185.596 47.1387H186.809V48H185.49C184.682 48 184.111 47.8379 183.779 47.5137C183.447 47.1895 183.281 46.6309 183.281 45.8379V42.2754H181.529V41.4375H183.281V39.5742H184.359ZM194.555 44.1797V44.707H189.885V44.7422C189.854 45.6367 190.023 46.2793 190.395 46.6699C190.77 47.0605 191.297 47.2559 191.977 47.2559C192.32 47.2559 192.68 47.2012 193.055 47.0918C193.43 46.9824 193.83 46.8164 194.256 46.5938V47.666C193.846 47.834 193.449 47.959 193.066 48.041C192.688 48.127 192.32 48.1699 191.965 48.1699C190.945 48.1699 190.148 47.8652 189.574 47.2559C189 46.6426 188.713 45.7988 188.713 44.7246C188.713 43.6777 188.994 42.8418 189.557 42.2168C190.119 41.5918 190.869 41.2793 191.807 41.2793C192.643 41.2793 193.301 41.5625 193.781 42.1289C194.266 42.6953 194.523 43.3789 194.555 44.1797ZM193.477 43.8633C193.43 43.4102 193.264 43.0195 192.979 42.6914C192.697 42.3594 192.291 42.1934 191.76 42.1934C191.24 42.1934 190.812 42.3652 190.477 42.709C190.141 43.0527 189.957 43.4395 189.926 43.8691L193.477 43.8633ZM201.99 42.791C201.76 42.6113 201.525 42.4805 201.287 42.3984C201.049 42.3164 200.787 42.2754 200.502 42.2754C199.83 42.2754 199.316 42.4863 198.961 42.9082C198.605 43.3301 198.428 43.9395 198.428 44.7363V48H197.344V41.4375H198.428V42.7207C198.607 42.2559 198.883 41.9004 199.254 41.6543C199.629 41.4043 200.072 41.2793 200.584 41.2793C200.85 41.2793 201.098 41.3125 201.328 41.3789C201.559 41.4453 201.779 41.5488 201.99 41.6895V42.791ZM208.611 43.9336V48H207.527V43.9336C207.527 43.3438 207.424 42.9102 207.217 42.6328C207.01 42.3555 206.686 42.2168 206.244 42.2168C205.74 42.2168 205.352 42.3965 205.078 42.7559C204.809 43.1113 204.674 43.623 204.674 44.291V48H203.596V41.4375H204.674V42.4219C204.865 42.0469 205.125 41.7637 205.453 41.5723C205.781 41.377 206.17 41.2793 206.619 41.2793C207.287 41.2793 207.785 41.5 208.113 41.9414C208.445 42.3789 208.611 43.043 208.611 43.9336ZM213.797 44.7012H213.439C212.811 44.7012 212.336 44.8125 212.016 45.0352C211.699 45.2539 211.541 45.582 211.541 46.0195C211.541 46.4141 211.66 46.7207 211.898 46.9395C212.137 47.1582 212.467 47.2676 212.889 47.2676C213.482 47.2676 213.949 47.0625 214.289 46.6523C214.629 46.2383 214.801 45.668 214.805 44.9414V44.7012H213.797ZM215.889 44.2559V48H214.805V47.0273C214.574 47.418 214.283 47.707 213.932 47.8945C213.584 48.0781 213.16 48.1699 212.66 48.1699C211.992 48.1699 211.459 47.9824 211.061 47.6074C210.662 47.2285 210.463 46.7227 210.463 46.0898C210.463 45.3594 210.707 44.8047 211.195 44.4258C211.688 44.0469 212.408 43.8574 213.357 43.8574H214.805V43.6875C214.801 43.1641 214.668 42.7852 214.406 42.5508C214.145 42.3125 213.727 42.1934 213.152 42.1934C212.785 42.1934 212.414 42.2461 212.039 42.3516C211.664 42.457 211.299 42.6113 210.943 42.8145V41.7363C211.342 41.584 211.723 41.4707 212.086 41.3965C212.453 41.3184 212.809 41.2793 213.152 41.2793C213.695 41.2793 214.158 41.3594 214.541 41.5195C214.928 41.6797 215.24 41.9199 215.479 42.2402C215.627 42.4355 215.732 42.6777 215.795 42.9668C215.857 43.252 215.889 43.6816 215.889 44.2559ZM220.512 39.5742V41.4375H222.961V42.2754H220.512V45.8379C220.512 46.3223 220.604 46.6602 220.787 46.8516C220.971 47.043 221.291 47.1387 221.748 47.1387H222.961V48H221.643C220.834 48 220.264 47.8379 219.932 47.5137C219.6 47.1895 219.434 46.6309 219.434 45.8379V42.2754H217.682V41.4375H219.434V39.5742H220.512ZM225.996 41.4609H228.756V47.1621H230.895V48H225.539V47.1621H227.678V42.2988H225.996V41.4609ZM227.678 38.9121H228.756V40.2715H227.678V38.9121ZM231.961 41.4375H233.08L234.984 46.9453L236.895 41.4375H238.014L235.682 48H234.293L231.961 41.4375ZM245.168 44.1797V44.707H240.498V44.7422C240.467 45.6367 240.637 46.2793 241.008 46.6699C241.383 47.0605 241.91 47.2559 242.59 47.2559C242.934 47.2559 243.293 47.2012 243.668 47.0918C244.043 46.9824 244.443 46.8164 244.869 46.5938V47.666C244.459 47.834 244.062 47.959 243.68 48.041C243.301 48.127 242.934 48.1699 242.578 48.1699C241.559 48.1699 240.762 47.8652 240.188 47.2559C239.613 46.6426 239.326 45.7988 239.326 44.7246C239.326 43.6777 239.607 42.8418 240.17 42.2168C240.732 41.5918 241.482 41.2793 242.42 41.2793C243.256 41.2793 243.914 41.5625 244.395 42.1289C244.879 42.6953 245.137 43.3789 245.168 44.1797ZM244.09 43.8633C244.043 43.4102 243.877 43.0195 243.592 42.6914C243.311 42.3594 242.904 42.1934 242.373 42.1934C241.854 42.1934 241.426 42.3652 241.09 42.709C240.754 43.0527 240.57 43.4395 240.539 43.8691L244.09 43.8633ZM253.008 49.1133V50.1094H245.836V49.1133H253.008ZM256.664 39.5742V41.4375H259.113V42.2754H256.664V45.8379C256.664 46.3223 256.756 46.6602 256.939 46.8516C257.123 47.043 257.443 47.1387 257.9 47.1387H259.113V48H257.795C256.986 48 256.416 47.8379 256.084 47.5137C255.752 47.1895 255.586 46.6309 255.586 45.8379V42.2754H253.834V41.4375H255.586V39.5742H256.664ZM266.859 44.1797V44.707H262.189V44.7422C262.158 45.6367 262.328 46.2793 262.699 46.6699C263.074 47.0605 263.602 47.2559 264.281 47.2559C264.625 47.2559 264.984 47.2012 265.359 47.0918C265.734 46.9824 266.135 46.8164 266.561 46.5938V47.666C266.15 47.834 265.754 47.959 265.371 48.041C264.992 48.127 264.625 48.1699 264.27 48.1699C263.25 48.1699 262.453 47.8652 261.879 47.2559C261.305 46.6426 261.018 45.7988 261.018 44.7246C261.018 43.6777 261.299 42.8418 261.861 42.2168C262.424 41.5918 263.174 41.2793 264.111 41.2793C264.947 41.2793 265.605 41.5625 266.086 42.1289C266.57 42.6953 266.828 43.3789 266.859 44.1797ZM265.781 43.8633C265.734 43.4102 265.568 43.0195 265.283 42.6914C265.002 42.3594 264.596 42.1934 264.064 42.1934C263.545 42.1934 263.117 42.3652 262.781 42.709C262.445 43.0527 262.262 43.4395 262.23 43.8691L265.781 43.8633ZM273.229 41.666V42.7207C272.92 42.541 272.609 42.4062 272.297 42.3164C271.984 42.2266 271.666 42.1816 271.342 42.1816C270.854 42.1816 270.488 42.2617 270.246 42.4219C270.008 42.5781 269.889 42.8184 269.889 43.1426C269.889 43.4355 269.979 43.6543 270.158 43.7988C270.338 43.9434 270.785 44.084 271.5 44.2207L271.934 44.3027C272.469 44.4043 272.873 44.6074 273.146 44.9121C273.424 45.2168 273.562 45.6133 273.562 46.1016C273.562 46.75 273.332 47.2578 272.871 47.625C272.41 47.9883 271.77 48.1699 270.949 48.1699C270.625 48.1699 270.285 48.1348 269.93 48.0645C269.574 47.998 269.189 47.8965 268.775 47.7598V46.6465C269.178 46.8535 269.562 47.0098 269.93 47.1152C270.297 47.2168 270.645 47.2676 270.973 47.2676C271.449 47.2676 271.818 47.1719 272.08 46.9805C272.342 46.7852 272.473 46.5137 272.473 46.166C272.473 45.666 271.994 45.3203 271.037 45.1289L270.99 45.1172L270.586 45.0352C269.965 44.9141 269.512 44.7109 269.227 44.4258C268.941 44.1367 268.799 43.7441 268.799 43.248C268.799 42.6191 269.012 42.1348 269.438 41.7949C269.863 41.4512 270.471 41.2793 271.26 41.2793C271.611 41.2793 271.949 41.3125 272.273 41.3789C272.598 41.4414 272.916 41.5371 273.229 41.666ZM278.355 39.5742V41.4375H280.805V42.2754H278.355V45.8379C278.355 46.3223 278.447 46.6602 278.631 46.8516C278.814 47.043 279.135 47.1387 279.592 47.1387H280.805V48H279.486C278.678 48 278.107 47.8379 277.775 47.5137C277.443 47.1895 277.277 46.6309 277.277 45.8379V42.2754H275.525V41.4375H277.277V39.5742H278.355ZM289.16 49.1133V50.1094H281.988V49.1133H289.16ZM294.246 42.2754V38.8828H295.324V48H294.246V47.1738C294.066 47.498 293.826 47.7461 293.525 47.918C293.229 48.0859 292.885 48.1699 292.494 48.1699C291.701 48.1699 291.076 47.8633 290.619 47.25C290.166 46.6328 289.939 45.7832 289.939 44.7012C289.939 43.6348 290.168 42.7988 290.625 42.1934C291.082 41.584 291.705 41.2793 292.494 41.2793C292.889 41.2793 293.236 41.3652 293.537 41.5371C293.838 41.7051 294.074 41.9512 294.246 42.2754ZM291.076 44.7246C291.076 45.5605 291.209 46.1914 291.475 46.6172C291.74 47.043 292.133 47.2559 292.652 47.2559C293.172 47.2559 293.566 47.041 293.836 46.6113C294.109 46.1816 294.246 45.5527 294.246 44.7246C294.246 43.8926 294.109 43.2637 293.836 42.8379C293.566 42.4082 293.172 42.1934 292.652 42.1934C292.133 42.1934 291.74 42.4062 291.475 42.832C291.209 43.2578 291.076 43.8887 291.076 44.7246ZM302.678 38.8828V39.7793H301.453C301.066 39.7793 300.797 39.8594 300.645 40.0195C300.496 40.1758 300.422 40.4551 300.422 40.8574V41.4375H302.678V42.2754H300.422V48H299.344V42.2754H297.592V41.4375H299.344V40.9805C299.344 40.2617 299.508 39.7324 299.836 39.3926C300.168 39.0527 300.684 38.8828 301.383 38.8828H302.678ZM306.27 45.8848H308.098V47.4375L306.797 49.9629L305.625 49.9688L306.27 47.4375V45.8848ZM3.96094 61.1055C4.09375 60.8242 4.26172 60.6172 4.46484 60.4844C4.67188 60.3477 4.91992 60.2793 5.20898 60.2793C5.73633 60.2793 6.10742 60.4844 6.32227 60.8945C6.54102 61.3008 6.65039 62.0684 6.65039 63.1973V67H5.66602V63.2441C5.66602 62.3184 5.61328 61.7441 5.50781 61.5215C5.40625 61.2949 5.21875 61.1816 4.94531 61.1816C4.63281 61.1816 4.41797 61.3027 4.30078 61.5449C4.1875 61.7832 4.13086 62.3496 4.13086 63.2441V67H3.14648V63.2441C3.14648 62.3066 3.08984 61.7285 2.97656 61.5098C2.86719 61.291 2.66797 61.1816 2.37891 61.1816C2.09375 61.1816 1.89453 61.3027 1.78125 61.5449C1.67188 61.7832 1.61719 62.3496 1.61719 63.2441V67H0.638672V60.4375H1.61719V61C1.74609 60.7656 1.90625 60.5879 2.09766 60.4668C2.29297 60.3418 2.51367 60.2793 2.75977 60.2793C3.05664 60.2793 3.30273 60.3477 3.49805 60.4844C3.69727 60.6211 3.85156 60.8281 3.96094 61.1055ZM10.8398 61.1934C10.293 61.1934 9.87891 61.4062 9.59766 61.832C9.31641 62.2578 9.17578 62.8887 9.17578 63.7246C9.17578 64.5566 9.31641 65.1875 9.59766 65.6172C9.87891 66.043 10.293 66.2559 10.8398 66.2559C11.3906 66.2559 11.8066 66.043 12.0879 65.6172C12.3691 65.1875 12.5098 64.5566 12.5098 63.7246C12.5098 62.8887 12.3691 62.2578 12.0879 61.832C11.8066 61.4062 11.3906 61.1934 10.8398 61.1934ZM10.8398 60.2793C11.75 60.2793 12.4453 60.5742 12.9258 61.1641C13.4102 61.7539 13.6523 62.6074 13.6523 63.7246C13.6523 64.8457 13.4121 65.7012 12.9316 66.291C12.4512 66.877 11.7539 67.1699 10.8398 67.1699C9.92969 67.1699 9.23438 66.877 8.75391 66.291C8.27344 65.7012 8.0332 64.8457 8.0332 63.7246C8.0332 62.6074 8.27344 61.7539 8.75391 61.1641C9.23438 60.5742 9.92969 60.2793 10.8398 60.2793ZM19.4883 61.2754V57.8828H20.5664V67H19.4883V66.1738C19.3086 66.498 19.0684 66.7461 18.7676 66.918C18.4707 67.0859 18.127 67.1699 17.7363 67.1699C16.9434 67.1699 16.3184 66.8633 15.8613 66.25C15.4082 65.6328 15.1816 64.7832 15.1816 63.7012C15.1816 62.6348 15.4102 61.7988 15.8672 61.1934C16.3242 60.584 16.9473 60.2793 17.7363 60.2793C18.1309 60.2793 18.4785 60.3652 18.7793 60.5371C19.0801 60.7051 19.3164 60.9512 19.4883 61.2754ZM16.3184 63.7246C16.3184 64.5605 16.4512 65.1914 16.7168 65.6172C16.9824 66.043 17.375 66.2559 17.8945 66.2559C18.4141 66.2559 18.8086 66.041 19.0781 65.6113C19.3516 65.1816 19.4883 64.5527 19.4883 63.7246C19.4883 62.8926 19.3516 62.2637 19.0781 61.8379C18.8086 61.4082 18.4141 61.1934 17.8945 61.1934C17.375 61.1934 16.9824 61.4062 16.7168 61.832C16.4512 62.2578 16.3184 62.8887 16.3184 63.7246ZM28.2539 63.1797V63.707H23.584V63.7422C23.5527 64.6367 23.7227 65.2793 24.0938 65.6699C24.4688 66.0605 24.9961 66.2559 25.6758 66.2559C26.0195 66.2559 26.3789 66.2012 26.7539 66.0918C27.1289 65.9824 27.5293 65.8164 27.9551 65.5938V66.666C27.5449 66.834 27.1484 66.959 26.7656 67.041C26.3867 67.127 26.0195 67.1699 25.6641 67.1699C24.6445 67.1699 23.8477 66.8652 23.2734 66.2559C22.6992 65.6426 22.4121 64.7988 22.4121 63.7246C22.4121 62.6777 22.6934 61.8418 23.2559 61.2168C23.8184 60.5918 24.5684 60.2793 25.5059 60.2793C26.3418 60.2793 27 60.5625 27.4805 61.1289C27.9648 61.6953 28.2227 62.3789 28.2539 63.1797ZM27.1758 62.8633C27.1289 62.4102 26.9629 62.0195 26.6777 61.6914C26.3965 61.3594 25.9902 61.1934 25.459 61.1934C24.9395 61.1934 24.5117 61.3652 24.1758 61.709C23.8398 62.0527 23.6562 62.4395 23.625 62.8691L27.1758 62.8633ZM33.1348 64.627C33.1348 65.1113 33.2227 65.4766 33.3984 65.7227C33.5781 65.9688 33.8418 66.0918 34.1895 66.0918H35.4492V67H34.084C33.4395 67 32.9395 66.7949 32.584 66.3848C32.2324 65.9707 32.0566 65.3848 32.0566 64.627V58.6914H30.3281V57.8477H33.1348V64.627ZM36.668 64.0703H42.8613V65.0605H36.668V64.0703ZM36.668 61.3105H42.8613V62.3008H36.668V61.3105ZM47.4961 63.7012H47.1387C46.5098 63.7012 46.0352 63.8125 45.7148 64.0352C45.3984 64.2539 45.2402 64.582 45.2402 65.0195C45.2402 65.4141 45.3594 65.7207 45.5977 65.9395C45.8359 66.1582 46.166 66.2676 46.5879 66.2676C47.1816 66.2676 47.6484 66.0625 47.9883 65.6523C48.3281 65.2383 48.5 64.668 48.5039 63.9414V63.7012H47.4961ZM49.5879 63.2559V67H48.5039V66.0273C48.2734 66.418 47.9824 66.707 47.6309 66.8945C47.2832 67.0781 46.8594 67.1699 46.3594 67.1699C45.6914 67.1699 45.1582 66.9824 44.7598 66.6074C44.3613 66.2285 44.1621 65.7227 44.1621 65.0898C44.1621 64.3594 44.4062 63.8047 44.8945 63.4258C45.3867 63.0469 46.1074 62.8574 47.0566 62.8574H48.5039V62.6875C48.5 62.1641 48.3672 61.7852 48.1055 61.5508C47.8438 61.3125 47.4258 61.1934 46.8516 61.1934C46.4844 61.1934 46.1133 61.2461 45.7383 61.3516C45.3633 61.457 44.998 61.6113 44.6426 61.8145V60.7363C45.041 60.584 45.4219 60.4707 45.7852 60.3965C46.1523 60.3184 46.5078 60.2793 46.8516 60.2793C47.3945 60.2793 47.8574 60.3594 48.2402 60.5195C48.627 60.6797 48.9395 60.9199 49.1777 61.2402C49.3262 61.4355 49.4316 61.6777 49.4941 61.9668C49.5566 62.252 49.5879 62.6816 49.5879 63.2559ZM54.8262 64.627C54.8262 65.1113 54.9141 65.4766 55.0898 65.7227C55.2695 65.9688 55.5332 66.0918 55.8809 66.0918H57.1406V67H55.7754C55.1309 67 54.6309 66.7949 54.2754 66.3848C53.9238 65.9707 53.748 65.3848 53.748 64.627V58.6914H52.0195V57.8477H54.8262V64.627ZM61.4414 58.5742V60.4375H63.8906V61.2754H61.4414V64.8379C61.4414 65.3223 61.5332 65.6602 61.7168 65.8516C61.9004 66.043 62.2207 66.1387 62.6777 66.1387H63.8906V67H62.5723C61.7637 67 61.1934 66.8379 60.8613 66.5137C60.5293 66.1895 60.3633 65.6309 60.3633 64.8379V61.2754H58.6113V60.4375H60.3633V58.5742H61.4414ZM72.2461 68.1133V69.1094H65.0742V68.1133H72.2461ZM79.0723 61.791C78.8418 61.6113 78.6074 61.4805 78.3691 61.3984C78.1309 61.3164 77.8691 61.2754 77.584 61.2754C76.9121 61.2754 76.3984 61.4863 76.043 61.9082C75.6875 62.3301 75.5098 62.9395 75.5098 63.7363V67H74.4258V60.4375H75.5098V61.7207C75.6895 61.2559 75.9648 60.9004 76.3359 60.6543C76.7109 60.4043 77.1543 60.2793 77.666 60.2793C77.9316 60.2793 78.1797 60.3125 78.4102 60.3789C78.6406 60.4453 78.8613 60.5488 79.0723 60.6895V61.791ZM85.7637 57.8828V58.7793H84.5391C84.1523 58.7793 83.8828 58.8594 83.7305 59.0195C83.582 59.1758 83.5078 59.4551 83.5078 59.8574V60.4375H85.7637V61.2754H83.5078V67H82.4297V61.2754H80.6777V60.4375H82.4297V59.9805C82.4297 59.2617 82.5938 58.7324 82.9219 58.3926C83.2539 58.0527 83.7695 57.8828 84.4688 57.8828H85.7637ZM93.9375 68.1133V69.1094H86.7656V68.1133H93.9375ZM100.213 66.666C99.9238 66.834 99.625 66.959 99.3164 67.041C99.0117 67.127 98.6992 67.1699 98.3789 67.1699C97.3633 67.1699 96.5684 66.8652 95.9941 66.2559C95.4238 65.6465 95.1387 64.8027 95.1387 63.7246C95.1387 62.6465 95.4238 61.8027 95.9941 61.1934C96.5684 60.584 97.3633 60.2793 98.3789 60.2793C98.6953 60.2793 99.0039 60.3203 99.3047 60.4023C99.6055 60.4844 99.9082 60.6113 100.213 60.7832V61.9141C99.9277 61.6602 99.6406 61.4766 99.3516 61.3633C99.0664 61.25 98.7422 61.1934 98.3789 61.1934C97.7031 61.1934 97.1836 61.4121 96.8203 61.8496C96.457 62.2871 96.2754 62.9121 96.2754 63.7246C96.2754 64.5332 96.457 65.1582 96.8203 65.5996C97.1875 66.0371 97.707 66.2559 98.3789 66.2559C98.7539 66.2559 99.0898 66.1992 99.3867 66.0859C99.6836 65.9688 99.959 65.7891 100.213 65.5469V66.666ZM105.439 64.627C105.439 65.1113 105.527 65.4766 105.703 65.7227C105.883 65.9688 106.146 66.0918 106.494 66.0918H107.754V67H106.389C105.744 67 105.244 66.7949 104.889 66.3848C104.537 65.9707 104.361 65.3848 104.361 64.627V58.6914H102.633V57.8477H105.439V64.627ZM114.686 57.8828V58.7793H113.461C113.074 58.7793 112.805 58.8594 112.652 59.0195C112.504 59.1758 112.43 59.4551 112.43 59.8574V60.4375H114.686V61.2754H112.43V67H111.352V61.2754H109.6V60.4375H111.352V59.9805C111.352 59.2617 111.516 58.7324 111.844 58.3926C112.176 58.0527 112.691 57.8828 113.391 57.8828H114.686ZM118.277 64.8848H120.105V66.4375L118.805 68.9629L117.633 68.9688L118.277 66.4375V64.8848ZM6.2168 85.666C5.92773 85.834 5.62891 85.959 5.32031 86.041C5.01562 86.127 4.70312 86.1699 4.38281 86.1699C3.36719 86.1699 2.57227 85.8652 1.99805 85.2559C1.42773 84.6465 1.14258 83.8027 1.14258 82.7246C1.14258 81.6465 1.42773 80.8027 1.99805 80.1934C2.57227 79.584 3.36719 79.2793 4.38281 79.2793C4.69922 79.2793 5.00781 79.3203 5.30859 79.4023C5.60938 79.4844 5.91211 79.6113 6.2168 79.7832V80.9141C5.93164 80.6602 5.64453 80.4766 5.35547 80.3633C5.07031 80.25 4.74609 80.1934 4.38281 80.1934C3.70703 80.1934 3.1875 80.4121 2.82422 80.8496C2.46094 81.2871 2.2793 81.9121 2.2793 82.7246C2.2793 83.5332 2.46094 84.1582 2.82422 84.5996C3.19141 85.0371 3.71094 85.2559 4.38281 85.2559C4.75781 85.2559 5.09375 85.1992 5.39062 85.0859C5.6875 84.9688 5.96289 84.7891 6.2168 84.5469V85.666ZM13.3887 81.9336V86H12.3047V81.9336C12.3047 81.3438 12.2012 80.9102 11.9941 80.6328C11.7871 80.3555 11.4629 80.2168 11.0215 80.2168C10.5176 80.2168 10.1289 80.3965 9.85547 80.7559C9.58594 81.1113 9.45117 81.623 9.45117 82.291V86H8.37305V76.8828H9.45117V80.4219C9.64258 80.0469 9.90234 79.7637 10.2305 79.5723C10.5586 79.377 10.9473 79.2793 11.3965 79.2793C12.0645 79.2793 12.5625 79.5 12.8906 79.9414C13.2227 80.3789 13.3887 81.043 13.3887 81.9336ZM21.0234 82.1797V82.707H16.3535V82.7422C16.3223 83.6367 16.4922 84.2793 16.8633 84.6699C17.2383 85.0605 17.7656 85.2559 18.4453 85.2559C18.7891 85.2559 19.1484 85.2012 19.5234 85.0918C19.8984 84.9824 20.2988 84.8164 20.7246 84.5938V85.666C20.3145 85.834 19.918 85.959 19.5352 86.041C19.1562 86.127 18.7891 86.1699 18.4336 86.1699C17.4141 86.1699 16.6172 85.8652 16.043 85.2559C15.4688 84.6426 15.1816 83.7988 15.1816 82.7246C15.1816 81.6777 15.4629 80.8418 16.0254 80.2168C16.5879 79.5918 17.3379 79.2793 18.2754 79.2793C19.1113 79.2793 19.7695 79.5625 20.25 80.1289C20.7344 80.6953 20.9922 81.3789 21.0234 82.1797ZM19.9453 81.8633C19.8984 81.4102 19.7324 81.0195 19.4473 80.6914C19.166 80.3594 18.7598 80.1934 18.2285 80.1934C17.709 80.1934 17.2812 80.3652 16.9453 80.709C16.6094 81.0527 16.4258 81.4395 16.3945 81.8691L19.9453 81.8633ZM27.9082 85.666C27.6191 85.834 27.3203 85.959 27.0117 86.041C26.707 86.127 26.3945 86.1699 26.0742 86.1699C25.0586 86.1699 24.2637 85.8652 23.6895 85.2559C23.1191 84.6465 22.834 83.8027 22.834 82.7246C22.834 81.6465 23.1191 80.8027 23.6895 80.1934C24.2637 79.584 25.0586 79.2793 26.0742 79.2793C26.3906 79.2793 26.6992 79.3203 27 79.4023C27.3008 79.4844 27.6035 79.6113 27.9082 79.7832V80.9141C27.623 80.6602 27.3359 80.4766 27.0469 80.3633C26.7617 80.25 26.4375 80.1934 26.0742 80.1934C25.3984 80.1934 24.8789 80.4121 24.5156 80.8496C24.1523 81.2871 23.9707 81.9121 23.9707 82.7246C23.9707 83.5332 24.1523 84.1582 24.5156 84.5996C24.8828 85.0371 25.4023 85.2559 26.0742 85.2559C26.4492 85.2559 26.7852 85.1992 27.082 85.0859C27.3789 84.9688 27.6543 84.7891 27.9082 84.5469V85.666ZM30.3047 76.8828H31.418V82.1621L34.248 79.4375H35.5605L32.9766 81.9102L35.9648 86H34.6465L32.2207 82.6133L31.418 83.3691V86H30.3047V76.8828ZM43.3242 87.1133V88.1094H36.1523V87.1133H43.3242ZM48.4102 80.2754V76.8828H49.4883V86H48.4102V85.1738C48.2305 85.498 47.9902 85.7461 47.6895 85.918C47.3926 86.0859 47.0488 86.1699 46.6582 86.1699C45.8652 86.1699 45.2402 85.8633 44.7832 85.25C44.3301 84.6328 44.1035 83.7832 44.1035 82.7012C44.1035 81.6348 44.332 80.7988 44.7891 80.1934C45.2461 79.584 45.8691 79.2793 46.6582 79.2793C47.0527 79.2793 47.4004 79.3652 47.7012 79.5371C48.002 79.7051 48.2383 79.9512 48.4102 80.2754ZM45.2402 82.7246C45.2402 83.5605 45.373 84.1914 45.6387 84.6172C45.9043 85.043 46.2969 85.2559 46.8164 85.2559C47.3359 85.2559 47.7305 85.041 48 84.6113C48.2734 84.1816 48.4102 83.5527 48.4102 82.7246C48.4102 81.8926 48.2734 81.2637 48 80.8379C47.7305 80.4082 47.3359 80.1934 46.8164 80.1934C46.2969 80.1934 45.9043 80.4062 45.6387 80.832C45.373 81.2578 45.2402 81.8887 45.2402 82.7246ZM54.7266 82.7012H54.3691C53.7402 82.7012 53.2656 82.8125 52.9453 83.0352C52.6289 83.2539 52.4707 83.582 52.4707 84.0195C52.4707 84.4141 52.5898 84.7207 52.8281 84.9395C53.0664 85.1582 53.3965 85.2676 53.8184 85.2676C54.4121 85.2676 54.8789 85.0625 55.2188 84.6523C55.5586 84.2383 55.7305 83.668 55.7344 82.9414V82.7012H54.7266ZM56.8184 82.2559V86H55.7344V85.0273C55.5039 85.418 55.2129 85.707 54.8613 85.8945C54.5137 86.0781 54.0898 86.1699 53.5898 86.1699C52.9219 86.1699 52.3887 85.9824 51.9902 85.6074C51.5918 85.2285 51.3926 84.7227 51.3926 84.0898C51.3926 83.3594 51.6367 82.8047 52.125 82.4258C52.6172 82.0469 53.3379 81.8574 54.2871 81.8574H55.7344V81.6875C55.7305 81.1641 55.5977 80.7852 55.3359 80.5508C55.0742 80.3125 54.6562 80.1934 54.082 80.1934C53.7148 80.1934 53.3438 80.2461 52.9688 80.3516C52.5938 80.457 52.2285 80.6113 51.873 80.8145V79.7363C52.2715 79.584 52.6523 79.4707 53.0156 79.3965C53.3828 79.3184 53.7383 79.2793 54.082 79.2793C54.625 79.2793 55.0879 79.3594 55.4707 79.5195C55.8574 79.6797 56.1699 79.9199 56.4082 80.2402C56.5566 80.4355 56.6621 80.6777 56.7246 80.9668C56.7871 81.252 56.8184 81.6816 56.8184 82.2559ZM61.4414 77.5742V79.4375H63.8906V80.2754H61.4414V83.8379C61.4414 84.3223 61.5332 84.6602 61.7168 84.8516C61.9004 85.043 62.2207 85.1387 62.6777 85.1387H63.8906V86H62.5723C61.7637 86 61.1934 85.8379 60.8613 85.5137C60.5293 85.1895 60.3633 84.6309 60.3633 83.8379V80.2754H58.6113V79.4375H60.3633V77.5742H61.4414ZM69.1875 82.7012H68.8301C68.2012 82.7012 67.7266 82.8125 67.4062 83.0352C67.0898 83.2539 66.9316 83.582 66.9316 84.0195C66.9316 84.4141 67.0508 84.7207 67.2891 84.9395C67.5273 85.1582 67.8574 85.2676 68.2793 85.2676C68.873 85.2676 69.3398 85.0625 69.6797 84.6523C70.0195 84.2383 70.1914 83.668 70.1953 82.9414V82.7012H69.1875ZM71.2793 82.2559V86H70.1953V85.0273C69.9648 85.418 69.6738 85.707 69.3223 85.8945C68.9746 86.0781 68.5508 86.1699 68.0508 86.1699C67.3828 86.1699 66.8496 85.9824 66.4512 85.6074C66.0527 85.2285 65.8535 84.7227 65.8535 84.0898C65.8535 83.3594 66.0977 82.8047 66.5859 82.4258C67.0781 82.0469 67.7988 81.8574 68.748 81.8574H70.1953V81.6875C70.1914 81.1641 70.0586 80.7852 69.7969 80.5508C69.5352 80.3125 69.1172 80.1934 68.543 80.1934C68.1758 80.1934 67.8047 80.2461 67.4297 80.3516C67.0547 80.457 66.6895 80.6113 66.334 80.8145V79.7363C66.7324 79.584 67.1133 79.4707 67.4766 79.3965C67.8438 79.3184 68.1992 79.2793 68.543 79.2793C69.0859 79.2793 69.5488 79.3594 69.9316 79.5195C70.3184 79.6797 70.6309 79.9199 70.8691 80.2402C71.0176 80.4355 71.123 80.6777 71.1855 80.9668C71.248 81.252 71.2793 81.6816 71.2793 82.2559ZM78.0059 79.666V80.7207C77.6973 80.541 77.3867 80.4062 77.0742 80.3164C76.7617 80.2266 76.4434 80.1816 76.1191 80.1816C75.6309 80.1816 75.2656 80.2617 75.0234 80.4219C74.7852 80.5781 74.666 80.8184 74.666 81.1426C74.666 81.4355 74.7559 81.6543 74.9355 81.7988C75.1152 81.9434 75.5625 82.084 76.2773 82.2207L76.7109 82.3027C77.2461 82.4043 77.6504 82.6074 77.9238 82.9121C78.2012 83.2168 78.3398 83.6133 78.3398 84.1016C78.3398 84.75 78.1094 85.2578 77.6484 85.625C77.1875 85.9883 76.5469 86.1699 75.7266 86.1699C75.4023 86.1699 75.0625 86.1348 74.707 86.0645C74.3516 85.998 73.9668 85.8965 73.5527 85.7598V84.6465C73.9551 84.8535 74.3398 85.0098 74.707 85.1152C75.0742 85.2168 75.4219 85.2676 75.75 85.2676C76.2266 85.2676 76.5957 85.1719 76.8574 84.9805C77.1191 84.7852 77.25 84.5137 77.25 84.166C77.25 83.666 76.7715 83.3203 75.8145 83.1289L75.7676 83.1172L75.3633 83.0352C74.7422 82.9141 74.2891 82.7109 74.0039 82.4258C73.7188 82.1367 73.5762 81.7441 73.5762 81.248C73.5762 80.6191 73.7891 80.1348 74.2148 79.7949C74.6406 79.4512 75.248 79.2793 76.0371 79.2793C76.3887 79.2793 76.7266 79.3125 77.0508 79.3789C77.375 79.4414 77.6934 79.5371 78.0059 79.666ZM86.0977 82.1797V82.707H81.4277V82.7422C81.3965 83.6367 81.5664 84.2793 81.9375 84.6699C82.3125 85.0605 82.8398 85.2559 83.5195 85.2559C83.8633 85.2559 84.2227 85.2012 84.5977 85.0918C84.9727 84.9824 85.373 84.8164 85.7988 84.5938V85.666C85.3887 85.834 84.9922 85.959 84.6094 86.041C84.2305 86.127 83.8633 86.1699 83.5078 86.1699C82.4883 86.1699 81.6914 85.8652 81.1172 85.2559C80.543 84.6426 80.2559 83.7988 80.2559 82.7246C80.2559 81.6777 80.5371 80.8418 81.0996 80.2168C81.6621 79.5918 82.4121 79.2793 83.3496 79.2793C84.1855 79.2793 84.8438 79.5625 85.3242 80.1289C85.8086 80.6953 86.0664 81.3789 86.0977 82.1797ZM85.0195 81.8633C84.9727 81.4102 84.8066 81.0195 84.5215 80.6914C84.2402 80.3594 83.834 80.1934 83.3027 80.1934C82.7832 80.1934 82.3555 80.3652 82.0195 80.709C81.6836 81.0527 81.5 81.4395 81.4688 81.8691L85.0195 81.8633ZM90.3633 77.5742V79.4375H92.8125V80.2754H90.3633V83.8379C90.3633 84.3223 90.4551 84.6602 90.6387 84.8516C90.8223 85.043 91.1426 85.1387 91.5996 85.1387H92.8125V86H91.4941C90.6855 86 90.1152 85.8379 89.7832 85.5137C89.4512 85.1895 89.2852 84.6309 89.2852 83.8379V80.2754H87.5332V79.4375H89.2852V77.5742H90.3633ZM99.6973 79.666V80.7207C99.3887 80.541 99.0781 80.4062 98.7656 80.3164C98.4531 80.2266 98.1348 80.1816 97.8105 80.1816C97.3223 80.1816 96.957 80.2617 96.7148 80.4219C96.4766 80.5781 96.3574 80.8184 96.3574 81.1426C96.3574 81.4355 96.4473 81.6543 96.627 81.7988C96.8066 81.9434 97.2539 82.084 97.9688 82.2207L98.4023 82.3027C98.9375 82.4043 99.3418 82.6074 99.6152 82.9121C99.8926 83.2168 100.031 83.6133 100.031 84.1016C100.031 84.75 99.8008 85.2578 99.3398 85.625C98.8789 85.9883 98.2383 86.1699 97.418 86.1699C97.0938 86.1699 96.7539 86.1348 96.3984 86.0645C96.043 85.998 95.6582 85.8965 95.2441 85.7598V84.6465C95.6465 84.8535 96.0312 85.0098 96.3984 85.1152C96.7656 85.2168 97.1133 85.2676 97.4414 85.2676C97.918 85.2676 98.2871 85.1719 98.5488 84.9805C98.8105 84.7852 98.9414 84.5137 98.9414 84.166C98.9414 83.666 98.4629 83.3203 97.5059 83.1289L97.459 83.1172L97.0547 83.0352C96.4336 82.9141 95.9805 82.7109 95.6953 82.4258C95.4102 82.1367 95.2676 81.7441 95.2676 81.248C95.2676 80.6191 95.4805 80.1348 95.9062 79.7949C96.332 79.4512 96.9395 79.2793 97.7285 79.2793C98.0801 79.2793 98.418 79.3125 98.7422 79.3789C99.0664 79.4414 99.3848 79.5371 99.6973 79.666ZM108.398 87.1133V88.1094H101.227V87.1133H108.398ZM110.654 85.1738V88.4961H109.57V79.4375H110.654V80.2754C110.834 79.9512 111.072 79.7051 111.369 79.5371C111.67 79.3652 112.016 79.2793 112.406 79.2793C113.199 79.2793 113.82 79.5859 114.27 80.1992C114.723 80.8125 114.949 81.6621 114.949 82.748C114.949 83.8145 114.723 84.6523 114.27 85.2617C113.816 85.8672 113.195 86.1699 112.406 86.1699C112.008 86.1699 111.658 86.0859 111.357 85.918C111.061 85.7461 110.826 85.498 110.654 85.1738ZM113.818 82.7246C113.818 81.8887 113.686 81.2578 113.42 80.832C113.158 80.4062 112.768 80.1934 112.248 80.1934C111.725 80.1934 111.328 80.4082 111.059 80.8379C110.789 81.2637 110.654 81.8926 110.654 82.7246C110.654 83.5527 110.789 84.1816 111.059 84.6113C111.328 85.041 111.725 85.2559 112.248 85.2559C112.768 85.2559 113.158 85.043 113.42 84.6172C113.686 84.1914 113.818 83.5605 113.818 82.7246ZM119.297 80.1934C118.75 80.1934 118.336 80.4062 118.055 80.832C117.773 81.2578 117.633 81.8887 117.633 82.7246C117.633 83.5566 117.773 84.1875 118.055 84.6172C118.336 85.043 118.75 85.2559 119.297 85.2559C119.848 85.2559 120.264 85.043 120.545 84.6172C120.826 84.1875 120.967 83.5566 120.967 82.7246C120.967 81.8887 120.826 81.2578 120.545 80.832C120.264 80.4062 119.848 80.1934 119.297 80.1934ZM119.297 79.2793C120.207 79.2793 120.902 79.5742 121.383 80.1641C121.867 80.7539 122.109 81.6074 122.109 82.7246C122.109 83.8457 121.869 84.7012 121.389 85.291C120.908 85.877 120.211 86.1699 119.297 86.1699C118.387 86.1699 117.691 85.877 117.211 85.291C116.73 84.7012 116.49 83.8457 116.49 82.7246C116.49 81.6074 116.73 80.7539 117.211 80.1641C117.691 79.5742 118.387 79.2793 119.297 79.2793ZM127.131 83.627C127.131 84.1113 127.219 84.4766 127.395 84.7227C127.574 84.9688 127.838 85.0918 128.186 85.0918H129.445V86H128.08C127.436 86 126.936 85.7949 126.58 85.3848C126.229 84.9707 126.053 84.3848 126.053 83.627V77.6914H124.324V76.8477H127.131V83.627ZM132 79.4609H134.76V85.1621H136.898V86H131.543V85.1621H133.682V80.2988H132V79.4609ZM133.682 76.9121H134.76V78.2715H133.682V76.9121ZM143.596 85.666C143.307 85.834 143.008 85.959 142.699 86.041C142.395 86.127 142.082 86.1699 141.762 86.1699C140.746 86.1699 139.951 85.8652 139.377 85.2559C138.807 84.6465 138.521 83.8027 138.521 82.7246C138.521 81.6465 138.807 80.8027 139.377 80.1934C139.951 79.584 140.746 79.2793 141.762 79.2793C142.078 79.2793 142.387 79.3203 142.688 79.4023C142.988 79.4844 143.291 79.6113 143.596 79.7832V80.9141C143.311 80.6602 143.023 80.4766 142.734 80.3633C142.449 80.25 142.125 80.1934 141.762 80.1934C141.086 80.1934 140.566 80.4121 140.203 80.8496C139.84 81.2871 139.658 81.9121 139.658 82.7246C139.658 83.5332 139.84 84.1582 140.203 84.5996C140.57 85.0371 141.09 85.2559 141.762 85.2559C142.137 85.2559 142.473 85.1992 142.77 85.0859C143.066 84.9688 143.342 84.7891 143.596 84.5469V85.666ZM149.637 83.8906C149.457 84.3477 149.229 84.9492 148.951 85.6953C148.564 86.7266 148.305 87.3555 148.172 87.582C147.992 87.8867 147.768 88.1152 147.498 88.2676C147.229 88.4199 146.914 88.4961 146.555 88.4961H145.688V87.5938H146.326C146.643 87.5938 146.891 87.502 147.07 87.3184C147.25 87.1348 147.479 86.6602 147.756 85.8945L145.219 79.4375H146.361L148.307 84.5703L150.223 79.4375H151.365L149.637 83.8906ZM152.355 83.0703H158.549V84.0605H152.355V83.0703ZM152.355 80.3105H158.549V81.3008H152.355V80.3105ZM204.492 76.3086H205.43C206.02 77.2305 206.459 78.1328 206.748 79.0156C207.037 79.8984 207.182 80.7754 207.182 81.6465C207.182 82.5254 207.037 83.4062 206.748 84.2891C206.459 85.1719 206.02 86.0742 205.43 86.9961H204.492C205.012 86.0898 205.398 85.1934 205.652 84.3066C205.91 83.4199 206.039 82.5332 206.039 81.6465C206.039 80.7559 205.91 79.8672 205.652 78.9805C205.398 78.0938 205.012 77.2031 204.492 76.3086Z" fill="#303245"/>
</svg>
