<svg width="280" height="70" viewBox="0 0 280 70" fill="none" xmlns="http://www.w3.org/2000/svg">
<path d="M6.2168 9.66602C5.92773 9.83398 5.62891 9.95898 5.32031 10.041C5.01562 10.127 4.70312 10.1699 4.38281 10.1699C3.36719 10.1699 2.57227 9.86523 1.99805 9.25586C1.42773 8.64648 1.14258 7.80273 1.14258 6.72461C1.14258 5.64648 1.42773 4.80273 1.99805 4.19336C2.57227 3.58398 3.36719 3.2793 4.38281 3.2793C4.69922 3.2793 5.00781 3.32031 5.30859 3.40234C5.60938 3.48438 5.91211 3.61133 6.2168 3.7832V4.91406C5.93164 4.66016 5.64453 4.47656 5.35547 4.36328C5.07031 4.25 4.74609 4.19336 4.38281 4.19336C3.70703 4.19336 3.1875 4.41211 2.82422 4.84961C2.46094 5.28711 2.2793 5.91211 2.2793 6.72461C2.2793 7.5332 2.46094 8.1582 2.82422 8.59961C3.19141 9.03711 3.71094 9.25586 4.38281 9.25586C4.75781 9.25586 5.09375 9.19922 5.39062 9.08594C5.6875 8.96875 5.96289 8.78906 6.2168 8.54688V9.66602ZM13.3887 5.93359V10H12.3047V5.93359C12.3047 5.34375 12.2012 4.91016 11.9941 4.63281C11.7871 4.35547 11.4629 4.2168 11.0215 4.2168C10.5176 4.2168 10.1289 4.39648 9.85547 4.75586C9.58594 5.11133 9.45117 5.62305 9.45117 6.29102V10H8.37305V0.882812H9.45117V4.42188C9.64258 4.04688 9.90234 3.76367 10.2305 3.57227C10.5586 3.37695 10.9473 3.2793 11.3965 3.2793C12.0645 3.2793 12.5625 3.5 12.8906 3.94141C13.2227 4.37891 13.3887 5.04297 13.3887 5.93359ZM21.0234 6.17969V6.70703H16.3535V6.74219C16.3223 7.63672 16.4922 8.2793 16.8633 8.66992C17.2383 9.06055 17.7656 9.25586 18.4453 9.25586C18.7891 9.25586 19.1484 9.20117 19.5234 9.0918C19.8984 8.98242 20.2988 8.81641 20.7246 8.59375V9.66602C20.3145 9.83398 19.918 9.95898 19.5352 10.041C19.1562 10.127 18.7891 10.1699 18.4336 10.1699C17.4141 10.1699 16.6172 9.86523 16.043 9.25586C15.4688 8.64258 15.1816 7.79883 15.1816 6.72461C15.1816 5.67773 15.4629 4.8418 16.0254 4.2168C16.5879 3.5918 17.3379 3.2793 18.2754 3.2793C19.1113 3.2793 19.7695 3.5625 20.25 4.12891C20.7344 4.69531 20.9922 5.37891 21.0234 6.17969ZM19.9453 5.86328C19.8984 5.41016 19.7324 5.01953 19.4473 4.69141C19.166 4.35938 18.7598 4.19336 18.2285 4.19336C17.709 4.19336 17.2812 4.36523 16.9453 4.70898C16.6094 5.05273 16.4258 5.43945 16.3945 5.86914L19.9453 5.86328ZM27.9082 9.66602C27.6191 9.83398 27.3203 9.95898 27.0117 10.041C26.707 10.127 26.3945 10.1699 26.0742 10.1699C25.0586 10.1699 24.2637 9.86523 23.6895 9.25586C23.1191 8.64648 22.834 7.80273 22.834 6.72461C22.834 5.64648 23.1191 4.80273 23.6895 4.19336C24.2637 3.58398 25.0586 3.2793 26.0742 3.2793C26.3906 3.2793 26.6992 3.32031 27 3.40234C27.3008 3.48438 27.6035 3.61133 27.9082 3.7832V4.91406C27.623 4.66016 27.3359 4.47656 27.0469 4.36328C26.7617 4.25 26.4375 4.19336 26.0742 4.19336C25.3984 4.19336 24.8789 4.41211 24.5156 4.84961C24.1523 5.28711 23.9707 5.91211 23.9707 6.72461C23.9707 7.5332 24.1523 8.1582 24.5156 8.59961C24.8828 9.03711 25.4023 9.25586 26.0742 9.25586C26.4492 9.25586 26.7852 9.19922 27.082 9.08594C27.3789 8.96875 27.6543 8.78906 27.9082 8.54688V9.66602ZM30.3047 0.882812H31.418V6.16211L34.248 3.4375H35.5605L32.9766 5.91016L35.9648 10H34.6465L32.2207 6.61328L31.418 7.36914V10H30.3047V0.882812ZM6.76758 23.791C6.53711 23.6113 6.30273 23.4805 6.06445 23.3984C5.82617 23.3164 5.56445 23.2754 5.2793 23.2754C4.60742 23.2754 4.09375 23.4863 3.73828 23.9082C3.38281 24.3301 3.20508 24.9395 3.20508 25.7363V29H2.12109V22.4375H3.20508V23.7207C3.38477 23.2559 3.66016 22.9004 4.03125 22.6543C4.40625 22.4043 4.84961 22.2793 5.36133 22.2793C5.62695 22.2793 5.875 22.3125 6.10547 22.3789C6.33594 22.4453 6.55664 22.5488 6.76758 22.6895V23.791ZM13.793 25.1797V25.707H9.12305V25.7422C9.0918 26.6367 9.26172 27.2793 9.63281 27.6699C10.0078 28.0605 10.5352 28.2559 11.2148 28.2559C11.5586 28.2559 11.918 28.2012 12.293 28.0918C12.668 27.9824 13.0684 27.8164 13.4941 27.5938V28.666C13.084 28.834 12.6875 28.959 12.3047 29.041C11.9258 29.127 11.5586 29.1699 11.2031 29.1699C10.1836 29.1699 9.38672 28.8652 8.8125 28.2559C8.23828 27.6426 7.95117 26.7988 7.95117 25.7246C7.95117 24.6777 8.23242 23.8418 8.79492 23.2168C9.35742 22.5918 10.1074 22.2793 11.0449 22.2793C11.8809 22.2793 12.5391 22.5625 13.0195 23.1289C13.5039 23.6953 13.7617 24.3789 13.793 25.1797ZM12.7148 24.8633C12.668 24.4102 12.502 24.0195 12.2168 23.6914C11.9355 23.3594 11.5293 23.1934 10.998 23.1934C10.4785 23.1934 10.0508 23.3652 9.71484 23.709C9.37891 24.0527 9.19531 24.4395 9.16406 24.8691L12.7148 24.8633ZM20.1621 22.666V23.7207C19.8535 23.541 19.543 23.4062 19.2305 23.3164C18.918 23.2266 18.5996 23.1816 18.2754 23.1816C17.7871 23.1816 17.4219 23.2617 17.1797 23.4219C16.9414 23.5781 16.8223 23.8184 16.8223 24.1426C16.8223 24.4355 16.9121 24.6543 17.0918 24.7988C17.2715 24.9434 17.7188 25.084 18.4336 25.2207L18.8672 25.3027C19.4023 25.4043 19.8066 25.6074 20.0801 25.9121C20.3574 26.2168 20.4961 26.6133 20.4961 27.1016C20.4961 27.75 20.2656 28.2578 19.8047 28.625C19.3438 28.9883 18.7031 29.1699 17.8828 29.1699C17.5586 29.1699 17.2188 29.1348 16.8633 29.0645C16.5078 28.998 16.123 28.8965 15.709 28.7598V27.6465C16.1113 27.8535 16.4961 28.0098 16.8633 28.1152C17.2305 28.2168 17.5781 28.2676 17.9062 28.2676C18.3828 28.2676 18.752 28.1719 19.0137 27.9805C19.2754 27.7852 19.4062 27.5137 19.4062 27.166C19.4062 26.666 18.9277 26.3203 17.9707 26.1289L17.9238 26.1172L17.5195 26.0352C16.8984 25.9141 16.4453 25.7109 16.1602 25.4258C15.875 25.1367 15.7324 24.7441 15.7324 24.248C15.7324 23.6191 15.9453 23.1348 16.3711 22.7949C16.7969 22.4512 17.4043 22.2793 18.1934 22.2793C18.5449 22.2793 18.8828 22.3125 19.207 22.3789C19.5312 22.4414 19.8496 22.5371 20.1621 22.666ZM22.834 26.5156V22.4492H23.9121V26.5156C23.9121 27.1055 24.0156 27.5391 24.2227 27.8164C24.4336 28.0938 24.7578 28.2324 25.1953 28.2324C25.7031 28.2324 26.0918 28.0547 26.3613 27.6992C26.6309 27.3398 26.7656 26.8262 26.7656 26.1582V22.4492H27.8496V29H26.7656V28.0156C26.5742 28.3945 26.3125 28.6816 25.9805 28.877C25.6523 29.0723 25.2676 29.1699 24.8262 29.1699C24.1543 29.1699 23.6543 28.9512 23.3262 28.5137C22.998 28.0723 22.834 27.4062 22.834 26.5156ZM33.1348 26.627C33.1348 27.1113 33.2227 27.4766 33.3984 27.7227C33.5781 27.9688 33.8418 28.0918 34.1895 28.0918H35.4492V29H34.084C33.4395 29 32.9395 28.7949 32.584 28.3848C32.2324 27.9707 32.0566 27.3848 32.0566 26.627V20.6914H30.3281V19.8477H33.1348V26.627ZM39.75 20.5742V22.4375H42.1992V23.2754H39.75V26.8379C39.75 27.3223 39.8418 27.6602 40.0254 27.8516C40.209 28.043 40.5293 28.1387 40.9863 28.1387H42.1992V29H40.8809C40.0723 29 39.502 28.8379 39.1699 28.5137C38.8379 28.1895 38.6719 27.6309 38.6719 26.8379V23.2754H36.9199V22.4375H38.6719V20.5742H39.75Z" fill="#D28445"/>
<path d="M43.8984 7.07031H50.0918V8.06055H43.8984V7.07031ZM43.8984 4.31055H50.0918V5.30078H43.8984V4.31055ZM65.3496 1.25195H72.0234V2.24805H69.2871V10H68.0977V2.24805H65.3496V1.25195ZM79.0723 4.79102C78.8418 4.61133 78.6074 4.48047 78.3691 4.39844C78.1309 4.31641 77.8691 4.27539 77.584 4.27539C76.9121 4.27539 76.3984 4.48633 76.043 4.9082C75.6875 5.33008 75.5098 5.93945 75.5098 6.73633V10H74.4258V3.4375H75.5098V4.7207C75.6895 4.25586 75.9648 3.90039 76.3359 3.6543C76.7109 3.4043 77.1543 3.2793 77.666 3.2793C77.9316 3.2793 78.1797 3.3125 78.4102 3.37891C78.6406 3.44531 78.8613 3.54883 79.0723 3.68945V4.79102ZM83.6484 6.70117H83.291C82.6621 6.70117 82.1875 6.8125 81.8672 7.03516C81.5508 7.25391 81.3926 7.58203 81.3926 8.01953C81.3926 8.41406 81.5117 8.7207 81.75 8.93945C81.9883 9.1582 82.3184 9.26758 82.7402 9.26758C83.334 9.26758 83.8008 9.0625 84.1406 8.65234C84.4805 8.23828 84.6523 7.66797 84.6562 6.94141V6.70117H83.6484ZM85.7402 6.25586V10H84.6562V9.02734C84.4258 9.41797 84.1348 9.70703 83.7832 9.89453C83.4355 10.0781 83.0117 10.1699 82.5117 10.1699C81.8438 10.1699 81.3105 9.98242 80.9121 9.60742C80.5137 9.22852 80.3145 8.72266 80.3145 8.08984C80.3145 7.35938 80.5586 6.80469 81.0469 6.42578C81.5391 6.04688 82.2598 5.85742 83.209 5.85742H84.6562V5.6875C84.6523 5.16406 84.5195 4.78516 84.2578 4.55078C83.9961 4.3125 83.5781 4.19336 83.0039 4.19336C82.6367 4.19336 82.2656 4.24609 81.8906 4.35156C81.5156 4.45703 81.1504 4.61133 80.7949 4.81445V3.73633C81.1934 3.58398 81.5742 3.4707 81.9375 3.39648C82.3047 3.31836 82.6602 3.2793 83.0039 3.2793C83.5469 3.2793 84.0098 3.35938 84.3926 3.51953C84.7793 3.67969 85.0918 3.91992 85.3301 4.24023C85.4785 4.43555 85.584 4.67773 85.6465 4.9668C85.709 5.25195 85.7402 5.68164 85.7402 6.25586ZM88.6172 3.46094H91.377V9.16211H93.5156V10H88.1602V9.16211H90.2988V4.29883H88.6172V3.46094ZM90.2988 0.912109H91.377V2.27148H90.2988V0.912109ZM100.154 5.93359V10H99.0703V5.93359C99.0703 5.34375 98.9668 4.91016 98.7598 4.63281C98.5527 4.35547 98.2285 4.2168 97.7871 4.2168C97.2832 4.2168 96.8945 4.39648 96.6211 4.75586C96.3516 5.11133 96.2168 5.62305 96.2168 6.29102V10H95.1387V3.4375H96.2168V4.42188C96.4082 4.04688 96.668 3.76367 96.9961 3.57227C97.3242 3.37695 97.7129 3.2793 98.1621 3.2793C98.8301 3.2793 99.3281 3.5 99.6562 3.94141C99.9883 4.37891 100.154 5.04297 100.154 5.93359ZM101.502 1.25195H108.176V2.24805H105.439V10H104.25V2.24805H101.502V1.25195ZM115.02 6.17969V6.70703H110.35V6.74219C110.318 7.63672 110.488 8.2793 110.859 8.66992C111.234 9.06055 111.762 9.25586 112.441 9.25586C112.785 9.25586 113.145 9.20117 113.52 9.0918C113.895 8.98242 114.295 8.81641 114.721 8.59375V9.66602C114.311 9.83398 113.914 9.95898 113.531 10.041C113.152 10.127 112.785 10.1699 112.43 10.1699C111.41 10.1699 110.613 9.86523 110.039 9.25586C109.465 8.64258 109.178 7.79883 109.178 6.72461C109.178 5.67773 109.459 4.8418 110.021 4.2168C110.584 3.5918 111.334 3.2793 112.271 3.2793C113.107 3.2793 113.766 3.5625 114.246 4.12891C114.73 4.69531 114.988 5.37891 115.02 6.17969ZM113.941 5.86328C113.895 5.41016 113.729 5.01953 113.443 4.69141C113.162 4.35938 112.756 4.19336 112.225 4.19336C111.705 4.19336 111.277 4.36523 110.941 4.70898C110.605 5.05273 110.422 5.43945 110.391 5.86914L113.941 5.86328ZM121.389 3.66602V4.7207C121.08 4.54102 120.77 4.40625 120.457 4.31641C120.145 4.22656 119.826 4.18164 119.502 4.18164C119.014 4.18164 118.648 4.26172 118.406 4.42188C118.168 4.57812 118.049 4.81836 118.049 5.14258C118.049 5.43555 118.139 5.6543 118.318 5.79883C118.498 5.94336 118.945 6.08398 119.66 6.2207L120.094 6.30273C120.629 6.4043 121.033 6.60742 121.307 6.91211C121.584 7.2168 121.723 7.61328 121.723 8.10156C121.723 8.75 121.492 9.25781 121.031 9.625C120.57 9.98828 119.93 10.1699 119.109 10.1699C118.785 10.1699 118.445 10.1348 118.09 10.0645C117.734 9.99805 117.35 9.89648 116.936 9.75977V8.64648C117.338 8.85352 117.723 9.00977 118.09 9.11523C118.457 9.2168 118.805 9.26758 119.133 9.26758C119.609 9.26758 119.979 9.17188 120.24 8.98047C120.502 8.78516 120.633 8.51367 120.633 8.16602C120.633 7.66602 120.154 7.32031 119.197 7.12891L119.15 7.11719L118.746 7.03516C118.125 6.91406 117.672 6.71094 117.387 6.42578C117.102 6.13672 116.959 5.74414 116.959 5.24805C116.959 4.61914 117.172 4.13477 117.598 3.79492C118.023 3.45117 118.631 3.2793 119.42 3.2793C119.771 3.2793 120.109 3.3125 120.434 3.37891C120.758 3.44141 121.076 3.53711 121.389 3.66602ZM126.516 1.57422V3.4375H128.965V4.27539H126.516V7.83789C126.516 8.32227 126.607 8.66016 126.791 8.85156C126.975 9.04297 127.295 9.13867 127.752 9.13867H128.965V10H127.646C126.838 10 126.268 9.83789 125.936 9.51367C125.604 9.18945 125.438 8.63086 125.438 7.83789V4.27539H123.686V3.4375H125.438V1.57422H126.516ZM132.703 9.02734C133.699 9.02734 134.395 8.7832 134.789 8.29492C135.184 7.80273 135.381 6.91602 135.381 5.63477C135.381 4.3418 135.184 3.45117 134.789 2.96289C134.398 2.4707 133.703 2.22461 132.703 2.22461H132.141V9.02734H132.703ZM132.727 1.25195C134.062 1.25195 135.047 1.60742 135.68 2.31836C136.312 3.0293 136.629 4.13477 136.629 5.63477C136.629 7.12695 136.312 8.22852 135.68 8.93945C135.047 9.64648 134.062 10 132.727 10H130.951V1.25195H132.727ZM144.146 4.79102C143.916 4.61133 143.682 4.48047 143.443 4.39844C143.205 4.31641 142.943 4.27539 142.658 4.27539C141.986 4.27539 141.473 4.48633 141.117 4.9082C140.762 5.33008 140.584 5.93945 140.584 6.73633V10H139.5V3.4375H140.584V4.7207C140.764 4.25586 141.039 3.90039 141.41 3.6543C141.785 3.4043 142.229 3.2793 142.74 3.2793C143.006 3.2793 143.254 3.3125 143.484 3.37891C143.715 3.44531 143.936 3.54883 144.146 3.68945V4.79102ZM146.461 3.46094H149.221V9.16211H151.359V10H146.004V9.16211H148.143V4.29883H146.461V3.46094ZM148.143 0.912109H149.221V2.27148H148.143V0.912109ZM158.068 0.882812V1.7793H156.844C156.457 1.7793 156.188 1.85938 156.035 2.01953C155.887 2.17578 155.812 2.45508 155.812 2.85742V3.4375H158.068V4.27539H155.812V10H154.734V4.27539H152.982V3.4375H154.734V2.98047C154.734 2.26172 154.898 1.73242 155.227 1.39258C155.559 1.05273 156.074 0.882812 156.773 0.882812H158.068ZM162.668 1.57422V3.4375H165.117V4.27539H162.668V7.83789C162.668 8.32227 162.76 8.66016 162.943 8.85156C163.127 9.04297 163.447 9.13867 163.904 9.13867H165.117V10H163.799C162.99 10 162.42 9.83789 162.088 9.51367C161.756 9.18945 161.59 8.63086 161.59 7.83789V4.27539H159.838V3.4375H161.59V1.57422H162.668ZM171.311 0.308594C170.791 1.19922 170.402 2.08789 170.145 2.97461C169.891 3.85742 169.764 4.74805 169.764 5.64648C169.764 6.54102 169.891 7.43164 170.145 8.31836C170.402 9.20508 170.791 10.0977 171.311 10.9961H170.373C169.783 10.0664 169.344 9.16211 169.055 8.2832C168.766 7.40039 168.621 6.52148 168.621 5.64648C168.621 4.77539 168.766 3.89844 169.055 3.01562C169.344 2.13281 169.783 1.23047 170.373 0.308594H171.311ZM175.57 0.308594H176.508C177.098 1.23047 177.537 2.13281 177.826 3.01562C178.115 3.89844 178.26 4.77539 178.26 5.64648C178.26 6.52539 178.115 7.40625 177.826 8.28906C177.537 9.17188 177.098 10.0742 176.508 10.9961H175.57C176.09 10.0898 176.477 9.19336 176.73 8.30664C176.988 7.41992 177.117 6.5332 177.117 5.64648C177.117 4.75586 176.988 3.86719 176.73 2.98047C176.477 2.09375 176.09 1.20312 175.57 0.308594ZM51.1289 26.0703H57.3223V27.0605H51.1289V26.0703ZM51.1289 23.3105H57.3223V24.3008H51.1289V23.3105ZM6.2168 47.666C5.92773 47.834 5.62891 47.959 5.32031 48.041C5.01562 48.127 4.70312 48.1699 4.38281 48.1699C3.36719 48.1699 2.57227 47.8652 1.99805 47.2559C1.42773 46.6465 1.14258 45.8027 1.14258 44.7246C1.14258 43.6465 1.42773 42.8027 1.99805 42.1934C2.57227 41.584 3.36719 41.2793 4.38281 41.2793C4.69922 41.2793 5.00781 41.3203 5.30859 41.4023C5.60938 41.4844 5.91211 41.6113 6.2168 41.7832V42.9141C5.93164 42.6602 5.64453 42.4766 5.35547 42.3633C5.07031 42.25 4.74609 42.1934 4.38281 42.1934C3.70703 42.1934 3.1875 42.4121 2.82422 42.8496C2.46094 43.2871 2.2793 43.9121 2.2793 44.7246C2.2793 45.5332 2.46094 46.1582 2.82422 46.5996C3.19141 47.0371 3.71094 47.2559 4.38281 47.2559C4.75781 47.2559 5.09375 47.1992 5.39062 47.0859C5.6875 46.9688 5.96289 46.7891 6.2168 46.5469V47.666ZM13.3887 43.9336V48H12.3047V43.9336C12.3047 43.3438 12.2012 42.9102 11.9941 42.6328C11.7871 42.3555 11.4629 42.2168 11.0215 42.2168C10.5176 42.2168 10.1289 42.3965 9.85547 42.7559C9.58594 43.1113 9.45117 43.623 9.45117 44.291V48H8.37305V38.8828H9.45117V42.4219C9.64258 42.0469 9.90234 41.7637 10.2305 41.5723C10.5586 41.377 10.9473 41.2793 11.3965 41.2793C12.0645 41.2793 12.5625 41.5 12.8906 41.9414C13.2227 42.3789 13.3887 43.043 13.3887 43.9336ZM21.0234 44.1797V44.707H16.3535V44.7422C16.3223 45.6367 16.4922 46.2793 16.8633 46.6699C17.2383 47.0605 17.7656 47.2559 18.4453 47.2559C18.7891 47.2559 19.1484 47.2012 19.5234 47.0918C19.8984 46.9824 20.2988 46.8164 20.7246 46.5938V47.666C20.3145 47.834 19.918 47.959 19.5352 48.041C19.1562 48.127 18.7891 48.1699 18.4336 48.1699C17.4141 48.1699 16.6172 47.8652 16.043 47.2559C15.4688 46.6426 15.1816 45.7988 15.1816 44.7246C15.1816 43.6777 15.4629 42.8418 16.0254 42.2168C16.5879 41.5918 17.3379 41.2793 18.2754 41.2793C19.1113 41.2793 19.7695 41.5625 20.25 42.1289C20.7344 42.6953 20.9922 43.3789 21.0234 44.1797ZM19.9453 43.8633C19.8984 43.4102 19.7324 43.0195 19.4473 42.6914C19.166 42.3594 18.7598 42.1934 18.2285 42.1934C17.709 42.1934 17.2812 42.3652 16.9453 42.709C16.6094 43.0527 16.4258 43.4395 16.3945 43.8691L19.9453 43.8633ZM27.9082 47.666C27.6191 47.834 27.3203 47.959 27.0117 48.041C26.707 48.127 26.3945 48.1699 26.0742 48.1699C25.0586 48.1699 24.2637 47.8652 23.6895 47.2559C23.1191 46.6465 22.834 45.8027 22.834 44.7246C22.834 43.6465 23.1191 42.8027 23.6895 42.1934C24.2637 41.584 25.0586 41.2793 26.0742 41.2793C26.3906 41.2793 26.6992 41.3203 27 41.4023C27.3008 41.4844 27.6035 41.6113 27.9082 41.7832V42.9141C27.623 42.6602 27.3359 42.4766 27.0469 42.3633C26.7617 42.25 26.4375 42.1934 26.0742 42.1934C25.3984 42.1934 24.8789 42.4121 24.5156 42.8496C24.1523 43.2871 23.9707 43.9121 23.9707 44.7246C23.9707 45.5332 24.1523 46.1582 24.5156 46.5996C24.8828 47.0371 25.4023 47.2559 26.0742 47.2559C26.4492 47.2559 26.7852 47.1992 27.082 47.0859C27.3789 46.9688 27.6543 46.7891 27.9082 46.5469V47.666ZM30.3047 38.8828H31.418V44.1621L34.248 41.4375H35.5605L32.9766 43.9102L35.9648 48H34.6465L32.2207 44.6133L31.418 45.3691V48H30.3047V38.8828ZM38.4316 45.6328H40.4941V48H38.4316V45.6328ZM50.1504 42.791C49.9199 42.6113 49.6855 42.4805 49.4473 42.3984C49.209 42.3164 48.9473 42.2754 48.6621 42.2754C47.9902 42.2754 47.4766 42.4863 47.1211 42.9082C46.7656 43.3301 46.5879 43.9395 46.5879 44.7363V48H45.5039V41.4375H46.5879V42.7207C46.7676 42.2559 47.043 41.9004 47.4141 41.6543C47.7891 41.4043 48.2324 41.2793 48.7441 41.2793C49.0098 41.2793 49.2578 41.3125 49.4883 41.3789C49.7188 41.4453 49.9395 41.5488 50.1504 41.6895V42.791ZM51.7559 45.5156V41.4492H52.834V45.5156C52.834 46.1055 52.9375 46.5391 53.1445 46.8164C53.3555 47.0938 53.6797 47.2324 54.1172 47.2324C54.625 47.2324 55.0137 47.0547 55.2832 46.6992C55.5527 46.3398 55.6875 45.8262 55.6875 45.1582V41.4492H56.7715V48H55.6875V47.0156C55.4961 47.3945 55.2344 47.6816 54.9023 47.877C54.5742 48.0723 54.1895 48.1699 53.748 48.1699C53.0762 48.1699 52.5762 47.9512 52.248 47.5137C51.9199 47.0723 51.7559 46.4062 51.7559 45.5156ZM64.002 43.9336V48H62.918V43.9336C62.918 43.3438 62.8145 42.9102 62.6074 42.6328C62.4004 42.3555 62.0762 42.2168 61.6348 42.2168C61.1309 42.2168 60.7422 42.3965 60.4688 42.7559C60.1992 43.1113 60.0645 43.623 60.0645 44.291V48H58.9863V41.4375H60.0645V42.4219C60.2559 42.0469 60.5156 41.7637 60.8438 41.5723C61.1719 41.377 61.5605 41.2793 62.0098 41.2793C62.6777 41.2793 63.1758 41.5 63.5039 41.9414C63.8359 42.3789 64.002 43.043 64.002 43.9336ZM70.084 38.3086C69.5645 39.1992 69.1758 40.0879 68.918 40.9746C68.6641 41.8574 68.5371 42.748 68.5371 43.6465C68.5371 44.541 68.6641 45.4316 68.918 46.3184C69.1758 47.2051 69.5645 48.0977 70.084 48.9961H69.1465C68.5566 48.0664 68.1172 47.1621 67.8281 46.2832C67.5391 45.4004 67.3945 44.5215 67.3945 43.6465C67.3945 42.7754 67.5391 41.8984 67.8281 41.0156C68.1172 40.1328 68.5566 39.2305 69.1465 38.3086H70.084ZM75.9023 39.5742V41.4375H78.3516V42.2754H75.9023V45.8379C75.9023 46.3223 75.9941 46.6602 76.1777 46.8516C76.3613 47.043 76.6816 47.1387 77.1387 47.1387H78.3516V48H77.0332C76.2246 48 75.6543 47.8379 75.3223 47.5137C74.9902 47.1895 74.8242 46.6309 74.8242 45.8379V42.2754H73.0723V41.4375H74.8242V39.5742H75.9023ZM86.3027 42.791C86.0723 42.6113 85.8379 42.4805 85.5996 42.3984C85.3613 42.3164 85.0996 42.2754 84.8145 42.2754C84.1426 42.2754 83.6289 42.4863 83.2734 42.9082C82.918 43.3301 82.7402 43.9395 82.7402 44.7363V48H81.6562V41.4375H82.7402V42.7207C82.9199 42.2559 83.1953 41.9004 83.5664 41.6543C83.9414 41.4043 84.3848 41.2793 84.8965 41.2793C85.1621 41.2793 85.4102 41.3125 85.6406 41.3789C85.8711 41.4453 86.0918 41.5488 86.3027 41.6895V42.791ZM90.8789 44.7012H90.5215C89.8926 44.7012 89.418 44.8125 89.0977 45.0352C88.7812 45.2539 88.623 45.582 88.623 46.0195C88.623 46.4141 88.7422 46.7207 88.9805 46.9395C89.2188 47.1582 89.5488 47.2676 89.9707 47.2676C90.5645 47.2676 91.0312 47.0625 91.3711 46.6523C91.7109 46.2383 91.8828 45.668 91.8867 44.9414V44.7012H90.8789ZM92.9707 44.2559V48H91.8867V47.0273C91.6562 47.418 91.3652 47.707 91.0137 47.8945C90.666 48.0781 90.2422 48.1699 89.7422 48.1699C89.0742 48.1699 88.541 47.9824 88.1426 47.6074C87.7441 47.2285 87.5449 46.7227 87.5449 46.0898C87.5449 45.3594 87.7891 44.8047 88.2773 44.4258C88.7695 44.0469 89.4902 43.8574 90.4395 43.8574H91.8867V43.6875C91.8828 43.1641 91.75 42.7852 91.4883 42.5508C91.2266 42.3125 90.8086 42.1934 90.2344 42.1934C89.8672 42.1934 89.4961 42.2461 89.1211 42.3516C88.7461 42.457 88.3809 42.6113 88.0254 42.8145V41.7363C88.4238 41.584 88.8047 41.4707 89.168 41.3965C89.5352 41.3184 89.8906 41.2793 90.2344 41.2793C90.7773 41.2793 91.2402 41.3594 91.623 41.5195C92.0098 41.6797 92.3223 41.9199 92.5605 42.2402C92.709 42.4355 92.8145 42.6777 92.877 42.9668C92.9395 43.252 92.9707 43.6816 92.9707 44.2559ZM95.8477 41.4609H98.6074V47.1621H100.746V48H95.3906V47.1621H97.5293V42.2988H95.8477V41.4609ZM97.5293 38.9121H98.6074V40.2715H97.5293V38.9121ZM107.385 43.9336V48H106.301V43.9336C106.301 43.3438 106.197 42.9102 105.99 42.6328C105.783 42.3555 105.459 42.2168 105.018 42.2168C104.514 42.2168 104.125 42.3965 103.852 42.7559C103.582 43.1113 103.447 43.623 103.447 44.291V48H102.369V41.4375H103.447V42.4219C103.639 42.0469 103.898 41.7637 104.227 41.5723C104.555 41.377 104.943 41.2793 105.393 41.2793C106.061 41.2793 106.559 41.5 106.887 41.9414C107.219 42.3789 107.385 43.043 107.385 43.9336ZM115.629 49.1133V50.1094H108.457V49.1133H115.629ZM120.715 42.2754V38.8828H121.793V48H120.715V47.1738C120.535 47.498 120.295 47.7461 119.994 47.918C119.697 48.0859 119.354 48.1699 118.963 48.1699C118.17 48.1699 117.545 47.8633 117.088 47.25C116.635 46.6328 116.408 45.7832 116.408 44.7012C116.408 43.6348 116.637 42.7988 117.094 42.1934C117.551 41.584 118.174 41.2793 118.963 41.2793C119.357 41.2793 119.705 41.3652 120.006 41.5371C120.307 41.7051 120.543 41.9512 120.715 42.2754ZM117.545 44.7246C117.545 45.5605 117.678 46.1914 117.943 46.6172C118.209 47.043 118.602 47.2559 119.121 47.2559C119.641 47.2559 120.035 47.041 120.305 46.6113C120.578 46.1816 120.715 45.5527 120.715 44.7246C120.715 43.8926 120.578 43.2637 120.305 42.8379C120.035 42.4082 119.641 42.1934 119.121 42.1934C118.602 42.1934 118.209 42.4062 117.943 42.832C117.678 43.2578 117.545 43.8887 117.545 44.7246ZM127.031 44.7012H126.674C126.045 44.7012 125.57 44.8125 125.25 45.0352C124.934 45.2539 124.775 45.582 124.775 46.0195C124.775 46.4141 124.895 46.7207 125.133 46.9395C125.371 47.1582 125.701 47.2676 126.123 47.2676C126.717 47.2676 127.184 47.0625 127.523 46.6523C127.863 46.2383 128.035 45.668 128.039 44.9414V44.7012H127.031ZM129.123 44.2559V48H128.039V47.0273C127.809 47.418 127.518 47.707 127.166 47.8945C126.818 48.0781 126.395 48.1699 125.895 48.1699C125.227 48.1699 124.693 47.9824 124.295 47.6074C123.896 47.2285 123.697 46.7227 123.697 46.0898C123.697 45.3594 123.941 44.8047 124.43 44.4258C124.922 44.0469 125.643 43.8574 126.592 43.8574H128.039V43.6875C128.035 43.1641 127.902 42.7852 127.641 42.5508C127.379 42.3125 126.961 42.1934 126.387 42.1934C126.02 42.1934 125.648 42.2461 125.273 42.3516C124.898 42.457 124.533 42.6113 124.178 42.8145V41.7363C124.576 41.584 124.957 41.4707 125.32 41.3965C125.688 41.3184 126.043 41.2793 126.387 41.2793C126.93 41.2793 127.393 41.3594 127.775 41.5195C128.162 41.6797 128.475 41.9199 128.713 42.2402C128.861 42.4355 128.967 42.6777 129.029 42.9668C129.092 43.252 129.123 43.6816 129.123 44.2559ZM133.746 39.5742V41.4375H136.195V42.2754H133.746V45.8379C133.746 46.3223 133.838 46.6602 134.021 46.8516C134.205 47.043 134.525 47.1387 134.982 47.1387H136.195V48H134.877C134.068 48 133.498 47.8379 133.166 47.5137C132.834 47.1895 132.668 46.6309 132.668 45.8379V42.2754H130.916V41.4375H132.668V39.5742H133.746ZM141.492 44.7012H141.135C140.506 44.7012 140.031 44.8125 139.711 45.0352C139.395 45.2539 139.236 45.582 139.236 46.0195C139.236 46.4141 139.355 46.7207 139.594 46.9395C139.832 47.1582 140.162 47.2676 140.584 47.2676C141.178 47.2676 141.645 47.0625 141.984 46.6523C142.324 46.2383 142.496 45.668 142.5 44.9414V44.7012H141.492ZM143.584 44.2559V48H142.5V47.0273C142.27 47.418 141.979 47.707 141.627 47.8945C141.279 48.0781 140.855 48.1699 140.355 48.1699C139.688 48.1699 139.154 47.9824 138.756 47.6074C138.357 47.2285 138.158 46.7227 138.158 46.0898C138.158 45.3594 138.402 44.8047 138.891 44.4258C139.383 44.0469 140.104 43.8574 141.053 43.8574H142.5V43.6875C142.496 43.1641 142.363 42.7852 142.102 42.5508C141.84 42.3125 141.422 42.1934 140.848 42.1934C140.48 42.1934 140.109 42.2461 139.734 42.3516C139.359 42.457 138.994 42.6113 138.639 42.8145V41.7363C139.037 41.584 139.418 41.4707 139.781 41.3965C140.148 41.3184 140.504 41.2793 140.848 41.2793C141.391 41.2793 141.854 41.3594 142.236 41.5195C142.623 41.6797 142.936 41.9199 143.174 42.2402C143.322 42.4355 143.428 42.6777 143.49 42.9668C143.553 43.252 143.584 43.6816 143.584 44.2559ZM150.311 41.666V42.7207C150.002 42.541 149.691 42.4062 149.379 42.3164C149.066 42.2266 148.748 42.1816 148.424 42.1816C147.936 42.1816 147.57 42.2617 147.328 42.4219C147.09 42.5781 146.971 42.8184 146.971 43.1426C146.971 43.4355 147.061 43.6543 147.24 43.7988C147.42 43.9434 147.867 44.084 148.582 44.2207L149.016 44.3027C149.551 44.4043 149.955 44.6074 150.229 44.9121C150.506 45.2168 150.645 45.6133 150.645 46.1016C150.645 46.75 150.414 47.2578 149.953 47.625C149.492 47.9883 148.852 48.1699 148.031 48.1699C147.707 48.1699 147.367 48.1348 147.012 48.0645C146.656 47.998 146.271 47.8965 145.857 47.7598V46.6465C146.26 46.8535 146.645 47.0098 147.012 47.1152C147.379 47.2168 147.727 47.2676 148.055 47.2676C148.531 47.2676 148.9 47.1719 149.162 46.9805C149.424 46.7852 149.555 46.5137 149.555 46.166C149.555 45.666 149.076 45.3203 148.119 45.1289L148.072 45.1172L147.668 45.0352C147.047 44.9141 146.594 44.7109 146.309 44.4258C146.023 44.1367 145.881 43.7441 145.881 43.248C145.881 42.6191 146.094 42.1348 146.52 41.7949C146.945 41.4512 147.553 41.2793 148.342 41.2793C148.693 41.2793 149.031 41.3125 149.355 41.3789C149.68 41.4414 149.998 41.5371 150.311 41.666ZM158.402 44.1797V44.707H153.732V44.7422C153.701 45.6367 153.871 46.2793 154.242 46.6699C154.617 47.0605 155.145 47.2559 155.824 47.2559C156.168 47.2559 156.527 47.2012 156.902 47.0918C157.277 46.9824 157.678 46.8164 158.104 46.5938V47.666C157.693 47.834 157.297 47.959 156.914 48.041C156.535 48.127 156.168 48.1699 155.812 48.1699C154.793 48.1699 153.996 47.8652 153.422 47.2559C152.848 46.6426 152.561 45.7988 152.561 44.7246C152.561 43.6777 152.842 42.8418 153.404 42.2168C153.967 41.5918 154.717 41.2793 155.654 41.2793C156.49 41.2793 157.148 41.5625 157.629 42.1289C158.113 42.6953 158.371 43.3789 158.402 44.1797ZM157.324 43.8633C157.277 43.4102 157.111 43.0195 156.826 42.6914C156.545 42.3594 156.139 42.1934 155.607 42.1934C155.088 42.1934 154.66 42.3652 154.324 42.709C153.988 43.0527 153.805 43.4395 153.773 43.8691L157.324 43.8633ZM162.668 39.5742V41.4375H165.117V42.2754H162.668V45.8379C162.668 46.3223 162.76 46.6602 162.943 46.8516C163.127 47.043 163.447 47.1387 163.904 47.1387H165.117V48H163.799C162.99 48 162.42 47.8379 162.088 47.5137C161.756 47.1895 161.59 46.6309 161.59 45.8379V42.2754H159.838V41.4375H161.59V39.5742H162.668ZM166.816 45.0703H173.01V46.0605H166.816V45.0703ZM166.816 42.3105H173.01V43.3008H166.816V42.3105ZM177.129 39.5742V41.4375H179.578V42.2754H177.129V45.8379C177.129 46.3223 177.221 46.6602 177.404 46.8516C177.588 47.043 177.908 47.1387 178.365 47.1387H179.578V48H178.26C177.451 48 176.881 47.8379 176.549 47.5137C176.217 47.1895 176.051 46.6309 176.051 45.8379V42.2754H174.299V41.4375H176.051V39.5742H177.129ZM187.529 42.791C187.299 42.6113 187.064 42.4805 186.826 42.3984C186.588 42.3164 186.326 42.2754 186.041 42.2754C185.369 42.2754 184.855 42.4863 184.5 42.9082C184.145 43.3301 183.967 43.9395 183.967 44.7363V48H182.883V41.4375H183.967V42.7207C184.146 42.2559 184.422 41.9004 184.793 41.6543C185.168 41.4043 185.611 41.2793 186.123 41.2793C186.389 41.2793 186.637 41.3125 186.867 41.3789C187.098 41.4453 187.318 41.5488 187.529 41.6895V42.791ZM192.105 44.7012H191.748C191.119 44.7012 190.645 44.8125 190.324 45.0352C190.008 45.2539 189.85 45.582 189.85 46.0195C189.85 46.4141 189.969 46.7207 190.207 46.9395C190.445 47.1582 190.775 47.2676 191.197 47.2676C191.791 47.2676 192.258 47.0625 192.598 46.6523C192.938 46.2383 193.109 45.668 193.113 44.9414V44.7012H192.105ZM194.197 44.2559V48H193.113V47.0273C192.883 47.418 192.592 47.707 192.24 47.8945C191.893 48.0781 191.469 48.1699 190.969 48.1699C190.301 48.1699 189.768 47.9824 189.369 47.6074C188.971 47.2285 188.771 46.7227 188.771 46.0898C188.771 45.3594 189.016 44.8047 189.504 44.4258C189.996 44.0469 190.717 43.8574 191.666 43.8574H193.113V43.6875C193.109 43.1641 192.977 42.7852 192.715 42.5508C192.453 42.3125 192.035 42.1934 191.461 42.1934C191.094 42.1934 190.723 42.2461 190.348 42.3516C189.973 42.457 189.607 42.6113 189.252 42.8145V41.7363C189.65 41.584 190.031 41.4707 190.395 41.3965C190.762 41.3184 191.117 41.2793 191.461 41.2793C192.004 41.2793 192.467 41.3594 192.85 41.5195C193.236 41.6797 193.549 41.9199 193.787 42.2402C193.936 42.4355 194.041 42.6777 194.104 42.9668C194.166 43.252 194.197 43.6816 194.197 44.2559ZM197.074 41.4609H199.834V47.1621H201.973V48H196.617V47.1621H198.756V42.2988H197.074V41.4609ZM198.756 38.9121H199.834V40.2715H198.756V38.9121ZM208.611 43.9336V48H207.527V43.9336C207.527 43.3438 207.424 42.9102 207.217 42.6328C207.01 42.3555 206.686 42.2168 206.244 42.2168C205.74 42.2168 205.352 42.3965 205.078 42.7559C204.809 43.1113 204.674 43.623 204.674 44.291V48H203.596V41.4375H204.674V42.4219C204.865 42.0469 205.125 41.7637 205.453 41.5723C205.781 41.377 206.17 41.2793 206.619 41.2793C207.287 41.2793 207.785 41.5 208.113 41.9414C208.445 42.3789 208.611 43.043 208.611 43.9336ZM216.855 49.1133V50.1094H209.684V49.1133H216.855ZM221.941 42.2754V38.8828H223.02V48H221.941V47.1738C221.762 47.498 221.521 47.7461 221.221 47.918C220.924 48.0859 220.58 48.1699 220.189 48.1699C219.396 48.1699 218.771 47.8633 218.314 47.25C217.861 46.6328 217.635 45.7832 217.635 44.7012C217.635 43.6348 217.863 42.7988 218.32 42.1934C218.777 41.584 219.4 41.2793 220.189 41.2793C220.584 41.2793 220.932 41.3652 221.232 41.5371C221.533 41.7051 221.77 41.9512 221.941 42.2754ZM218.771 44.7246C218.771 45.5605 218.904 46.1914 219.17 46.6172C219.436 47.043 219.828 47.2559 220.348 47.2559C220.867 47.2559 221.262 47.041 221.531 46.6113C221.805 46.1816 221.941 45.5527 221.941 44.7246C221.941 43.8926 221.805 43.2637 221.531 42.8379C221.262 42.4082 220.867 42.1934 220.348 42.1934C219.828 42.1934 219.436 42.4062 219.17 42.832C218.904 43.2578 218.771 43.8887 218.771 44.7246ZM228.258 44.7012H227.9C227.271 44.7012 226.797 44.8125 226.477 45.0352C226.16 45.2539 226.002 45.582 226.002 46.0195C226.002 46.4141 226.121 46.7207 226.359 46.9395C226.598 47.1582 226.928 47.2676 227.35 47.2676C227.943 47.2676 228.41 47.0625 228.75 46.6523C229.09 46.2383 229.262 45.668 229.266 44.9414V44.7012H228.258ZM230.35 44.2559V48H229.266V47.0273C229.035 47.418 228.744 47.707 228.393 47.8945C228.045 48.0781 227.621 48.1699 227.121 48.1699C226.453 48.1699 225.92 47.9824 225.521 47.6074C225.123 47.2285 224.924 46.7227 224.924 46.0898C224.924 45.3594 225.168 44.8047 225.656 44.4258C226.148 44.0469 226.869 43.8574 227.818 43.8574H229.266V43.6875C229.262 43.1641 229.129 42.7852 228.867 42.5508C228.605 42.3125 228.188 42.1934 227.613 42.1934C227.246 42.1934 226.875 42.2461 226.5 42.3516C226.125 42.457 225.76 42.6113 225.404 42.8145V41.7363C225.803 41.584 226.184 41.4707 226.547 41.3965C226.914 41.3184 227.27 41.2793 227.613 41.2793C228.156 41.2793 228.619 41.3594 229.002 41.5195C229.389 41.6797 229.701 41.9199 229.939 42.2402C230.088 42.4355 230.193 42.6777 230.256 42.9668C230.318 43.252 230.35 43.6816 230.35 44.2559ZM234.973 39.5742V41.4375H237.422V42.2754H234.973V45.8379C234.973 46.3223 235.064 46.6602 235.248 46.8516C235.432 47.043 235.752 47.1387 236.209 47.1387H237.422V48H236.104C235.295 48 234.725 47.8379 234.393 47.5137C234.061 47.1895 233.895 46.6309 233.895 45.8379V42.2754H232.143V41.4375H233.895V39.5742H234.973ZM242.719 44.7012H242.361C241.732 44.7012 241.258 44.8125 240.938 45.0352C240.621 45.2539 240.463 45.582 240.463 46.0195C240.463 46.4141 240.582 46.7207 240.82 46.9395C241.059 47.1582 241.389 47.2676 241.811 47.2676C242.404 47.2676 242.871 47.0625 243.211 46.6523C243.551 46.2383 243.723 45.668 243.727 44.9414V44.7012H242.719ZM244.811 44.2559V48H243.727V47.0273C243.496 47.418 243.205 47.707 242.854 47.8945C242.506 48.0781 242.082 48.1699 241.582 48.1699C240.914 48.1699 240.381 47.9824 239.982 47.6074C239.584 47.2285 239.385 46.7227 239.385 46.0898C239.385 45.3594 239.629 44.8047 240.117 44.4258C240.609 44.0469 241.33 43.8574 242.279 43.8574H243.727V43.6875C243.723 43.1641 243.59 42.7852 243.328 42.5508C243.066 42.3125 242.648 42.1934 242.074 42.1934C241.707 42.1934 241.336 42.2461 240.961 42.3516C240.586 42.457 240.221 42.6113 239.865 42.8145V41.7363C240.264 41.584 240.645 41.4707 241.008 41.3965C241.375 41.3184 241.73 41.2793 242.074 41.2793C242.617 41.2793 243.08 41.3594 243.463 41.5195C243.85 41.6797 244.162 41.9199 244.4 42.2402C244.549 42.4355 244.654 42.6777 244.717 42.9668C244.779 43.252 244.811 43.6816 244.811 44.2559ZM251.537 41.666V42.7207C251.229 42.541 250.918 42.4062 250.605 42.3164C250.293 42.2266 249.975 42.1816 249.65 42.1816C249.162 42.1816 248.797 42.2617 248.555 42.4219C248.316 42.5781 248.197 42.8184 248.197 43.1426C248.197 43.4355 248.287 43.6543 248.467 43.7988C248.646 43.9434 249.094 44.084 249.809 44.2207L250.242 44.3027C250.777 44.4043 251.182 44.6074 251.455 44.9121C251.732 45.2168 251.871 45.6133 251.871 46.1016C251.871 46.75 251.641 47.2578 251.18 47.625C250.719 47.9883 250.078 48.1699 249.258 48.1699C248.934 48.1699 248.594 48.1348 248.238 48.0645C247.883 47.998 247.498 47.8965 247.084 47.7598V46.6465C247.486 46.8535 247.871 47.0098 248.238 47.1152C248.605 47.2168 248.953 47.2676 249.281 47.2676C249.758 47.2676 250.127 47.1719 250.389 46.9805C250.65 46.7852 250.781 46.5137 250.781 46.166C250.781 45.666 250.303 45.3203 249.346 45.1289L249.299 45.1172L248.895 45.0352C248.273 44.9141 247.82 44.7109 247.535 44.4258C247.25 44.1367 247.107 43.7441 247.107 43.248C247.107 42.6191 247.32 42.1348 247.746 41.7949C248.172 41.4512 248.779 41.2793 249.568 41.2793C249.92 41.2793 250.258 41.3125 250.582 41.3789C250.906 41.4414 251.225 41.5371 251.537 41.666ZM259.629 44.1797V44.707H254.959V44.7422C254.928 45.6367 255.098 46.2793 255.469 46.6699C255.844 47.0605 256.371 47.2559 257.051 47.2559C257.395 47.2559 257.754 47.2012 258.129 47.0918C258.504 46.9824 258.904 46.8164 259.33 46.5938V47.666C258.92 47.834 258.523 47.959 258.141 48.041C257.762 48.127 257.395 48.1699 257.039 48.1699C256.02 48.1699 255.223 47.8652 254.648 47.2559C254.074 46.6426 253.787 45.7988 253.787 44.7246C253.787 43.6777 254.068 42.8418 254.631 42.2168C255.193 41.5918 255.943 41.2793 256.881 41.2793C257.717 41.2793 258.375 41.5625 258.855 42.1289C259.34 42.6953 259.598 43.3789 259.629 44.1797ZM258.551 43.8633C258.504 43.4102 258.338 43.0195 258.053 42.6914C257.771 42.3594 257.365 42.1934 256.834 42.1934C256.314 42.1934 255.887 42.3652 255.551 42.709C255.215 43.0527 255.031 43.4395 255 43.8691L258.551 43.8633ZM263.895 39.5742V41.4375H266.344V42.2754H263.895V45.8379C263.895 46.3223 263.986 46.6602 264.17 46.8516C264.354 47.043 264.674 47.1387 265.131 47.1387H266.344V48H265.025C264.217 48 263.646 47.8379 263.314 47.5137C262.982 47.1895 262.816 46.6309 262.816 45.8379V42.2754H261.064V41.4375H262.816V39.5742H263.895ZM270.117 45.8848H271.945V47.4375L270.645 49.9629L269.473 49.9688L270.117 47.4375V45.8848ZM3.59766 58.5742V60.4375H6.04688V61.2754H3.59766V64.8379C3.59766 65.3223 3.68945 65.6602 3.87305 65.8516C4.05664 66.043 4.37695 66.1387 4.83398 66.1387H6.04688V67H4.72852C3.91992 67 3.34961 66.8379 3.01758 66.5137C2.68555 66.1895 2.51953 65.6309 2.51953 64.8379V61.2754H0.767578V60.4375H2.51953V58.5742H3.59766ZM13.793 63.1797V63.707H9.12305V63.7422C9.0918 64.6367 9.26172 65.2793 9.63281 65.6699C10.0078 66.0605 10.5352 66.2559 11.2148 66.2559C11.5586 66.2559 11.918 66.2012 12.293 66.0918C12.668 65.9824 13.0684 65.8164 13.4941 65.5938V66.666C13.084 66.834 12.6875 66.959 12.3047 67.041C11.9258 67.127 11.5586 67.1699 11.2031 67.1699C10.1836 67.1699 9.38672 66.8652 8.8125 66.2559C8.23828 65.6426 7.95117 64.7988 7.95117 63.7246C7.95117 62.6777 8.23242 61.8418 8.79492 61.2168C9.35742 60.5918 10.1074 60.2793 11.0449 60.2793C11.8809 60.2793 12.5391 60.5625 13.0195 61.1289C13.5039 61.6953 13.7617 62.3789 13.793 63.1797ZM12.7148 62.8633C12.668 62.4102 12.502 62.0195 12.2168 61.6914C11.9355 61.3594 11.5293 61.1934 10.998 61.1934C10.4785 61.1934 10.0508 61.3652 9.71484 61.709C9.37891 62.0527 9.19531 62.4395 9.16406 62.8691L12.7148 62.8633ZM20.1621 60.666V61.7207C19.8535 61.541 19.543 61.4062 19.2305 61.3164C18.918 61.2266 18.5996 61.1816 18.2754 61.1816C17.7871 61.1816 17.4219 61.2617 17.1797 61.4219C16.9414 61.5781 16.8223 61.8184 16.8223 62.1426C16.8223 62.4355 16.9121 62.6543 17.0918 62.7988C17.2715 62.9434 17.7188 63.084 18.4336 63.2207L18.8672 63.3027C19.4023 63.4043 19.8066 63.6074 20.0801 63.9121C20.3574 64.2168 20.4961 64.6133 20.4961 65.1016C20.4961 65.75 20.2656 66.2578 19.8047 66.625C19.3438 66.9883 18.7031 67.1699 17.8828 67.1699C17.5586 67.1699 17.2188 67.1348 16.8633 67.0645C16.5078 66.998 16.123 66.8965 15.709 66.7598V65.6465C16.1113 65.8535 16.4961 66.0098 16.8633 66.1152C17.2305 66.2168 17.5781 66.2676 17.9062 66.2676C18.3828 66.2676 18.752 66.1719 19.0137 65.9805C19.2754 65.7852 19.4062 65.5137 19.4062 65.166C19.4062 64.666 18.9277 64.3203 17.9707 64.1289L17.9238 64.1172L17.5195 64.0352C16.8984 63.9141 16.4453 63.7109 16.1602 63.4258C15.875 63.1367 15.7324 62.7441 15.7324 62.248C15.7324 61.6191 15.9453 61.1348 16.3711 60.7949C16.7969 60.4512 17.4043 60.2793 18.1934 60.2793C18.5449 60.2793 18.8828 60.3125 19.207 60.3789C19.5312 60.4414 19.8496 60.5371 20.1621 60.666ZM25.2891 58.5742V60.4375H27.7383V61.2754H25.2891V64.8379C25.2891 65.3223 25.3809 65.6602 25.5645 65.8516C25.748 66.043 26.0684 66.1387 26.5254 66.1387H27.7383V67H26.4199C25.6113 67 25.041 66.8379 24.709 66.5137C24.377 66.1895 24.2109 65.6309 24.2109 64.8379V61.2754H22.459V60.4375H24.2109V58.5742H25.2891ZM36.0938 68.1133V69.1094H28.9219V68.1133H36.0938ZM41.1797 61.2754V57.8828H42.2578V67H41.1797V66.1738C41 66.498 40.7598 66.7461 40.459 66.918C40.1621 67.0859 39.8184 67.1699 39.4277 67.1699C38.6348 67.1699 38.0098 66.8633 37.5527 66.25C37.0996 65.6328 36.873 64.7832 36.873 63.7012C36.873 62.6348 37.1016 61.7988 37.5586 61.1934C38.0156 60.584 38.6387 60.2793 39.4277 60.2793C39.8223 60.2793 40.1699 60.3652 40.4707 60.5371C40.7715 60.7051 41.0078 60.9512 41.1797 61.2754ZM38.0098 63.7246C38.0098 64.5605 38.1426 65.1914 38.4082 65.6172C38.6738 66.043 39.0664 66.2559 39.5859 66.2559C40.1055 66.2559 40.5 66.041 40.7695 65.6113C41.043 65.1816 41.1797 64.5527 41.1797 63.7246C41.1797 62.8926 41.043 62.2637 40.7695 61.8379C40.5 61.4082 40.1055 61.1934 39.5859 61.1934C39.0664 61.1934 38.6738 61.4062 38.4082 61.832C38.1426 62.2578 38.0098 62.8887 38.0098 63.7246ZM47.4961 63.7012H47.1387C46.5098 63.7012 46.0352 63.8125 45.7148 64.0352C45.3984 64.2539 45.2402 64.582 45.2402 65.0195C45.2402 65.4141 45.3594 65.7207 45.5977 65.9395C45.8359 66.1582 46.166 66.2676 46.5879 66.2676C47.1816 66.2676 47.6484 66.0625 47.9883 65.6523C48.3281 65.2383 48.5 64.668 48.5039 63.9414V63.7012H47.4961ZM49.5879 63.2559V67H48.5039V66.0273C48.2734 66.418 47.9824 66.707 47.6309 66.8945C47.2832 67.0781 46.8594 67.1699 46.3594 67.1699C45.6914 67.1699 45.1582 66.9824 44.7598 66.6074C44.3613 66.2285 44.1621 65.7227 44.1621 65.0898C44.1621 64.3594 44.4062 63.8047 44.8945 63.4258C45.3867 63.0469 46.1074 62.8574 47.0566 62.8574H48.5039V62.6875C48.5 62.1641 48.3672 61.7852 48.1055 61.5508C47.8438 61.3125 47.4258 61.1934 46.8516 61.1934C46.4844 61.1934 46.1133 61.2461 45.7383 61.3516C45.3633 61.457 44.998 61.6113 44.6426 61.8145V60.7363C45.041 60.584 45.4219 60.4707 45.7852 60.3965C46.1523 60.3184 46.5078 60.2793 46.8516 60.2793C47.3945 60.2793 47.8574 60.3594 48.2402 60.5195C48.627 60.6797 48.9395 60.9199 49.1777 61.2402C49.3262 61.4355 49.4316 61.6777 49.4941 61.9668C49.5566 62.252 49.5879 62.6816 49.5879 63.2559ZM54.2109 58.5742V60.4375H56.6602V61.2754H54.2109V64.8379C54.2109 65.3223 54.3027 65.6602 54.4863 65.8516C54.6699 66.043 54.9902 66.1387 55.4473 66.1387H56.6602V67H55.3418C54.5332 67 53.9629 66.8379 53.6309 66.5137C53.2988 66.1895 53.1328 65.6309 53.1328 64.8379V61.2754H51.3809V60.4375H53.1328V58.5742H54.2109ZM61.957 63.7012H61.5996C60.9707 63.7012 60.4961 63.8125 60.1758 64.0352C59.8594 64.2539 59.7012 64.582 59.7012 65.0195C59.7012 65.4141 59.8203 65.7207 60.0586 65.9395C60.2969 66.1582 60.627 66.2676 61.0488 66.2676C61.6426 66.2676 62.1094 66.0625 62.4492 65.6523C62.7891 65.2383 62.9609 64.668 62.9648 63.9414V63.7012H61.957ZM64.0488 63.2559V67H62.9648V66.0273C62.7344 66.418 62.4434 66.707 62.0918 66.8945C61.7441 67.0781 61.3203 67.1699 60.8203 67.1699C60.1523 67.1699 59.6191 66.9824 59.2207 66.6074C58.8223 66.2285 58.623 65.7227 58.623 65.0898C58.623 64.3594 58.8672 63.8047 59.3555 63.4258C59.8477 63.0469 60.5684 62.8574 61.5176 62.8574H62.9648V62.6875C62.9609 62.1641 62.8281 61.7852 62.5664 61.5508C62.3047 61.3125 61.8867 61.1934 61.3125 61.1934C60.9453 61.1934 60.5742 61.2461 60.1992 61.3516C59.8242 61.457 59.459 61.6113 59.1035 61.8145V60.7363C59.502 60.584 59.8828 60.4707 60.2461 60.3965C60.6133 60.3184 60.9688 60.2793 61.3125 60.2793C61.8555 60.2793 62.3184 60.3594 62.7012 60.5195C63.0879 60.6797 63.4004 60.9199 63.6387 61.2402C63.7871 61.4355 63.8926 61.6777 63.9551 61.9668C64.0176 62.252 64.0488 62.6816 64.0488 63.2559ZM70.7754 60.666V61.7207C70.4668 61.541 70.1562 61.4062 69.8438 61.3164C69.5312 61.2266 69.2129 61.1816 68.8887 61.1816C68.4004 61.1816 68.0352 61.2617 67.793 61.4219C67.5547 61.5781 67.4355 61.8184 67.4355 62.1426C67.4355 62.4355 67.5254 62.6543 67.7051 62.7988C67.8848 62.9434 68.332 63.084 69.0469 63.2207L69.4805 63.3027C70.0156 63.4043 70.4199 63.6074 70.6934 63.9121C70.9707 64.2168 71.1094 64.6133 71.1094 65.1016C71.1094 65.75 70.8789 66.2578 70.418 66.625C69.957 66.9883 69.3164 67.1699 68.4961 67.1699C68.1719 67.1699 67.832 67.1348 67.4766 67.0645C67.1211 66.998 66.7363 66.8965 66.3223 66.7598V65.6465C66.7246 65.8535 67.1094 66.0098 67.4766 66.1152C67.8438 66.2168 68.1914 66.2676 68.5195 66.2676C68.9961 66.2676 69.3652 66.1719 69.627 65.9805C69.8887 65.7852 70.0195 65.5137 70.0195 65.166C70.0195 64.666 69.541 64.3203 68.584 64.1289L68.5371 64.1172L68.1328 64.0352C67.5117 63.9141 67.0586 63.7109 66.7734 63.4258C66.4883 63.1367 66.3457 62.7441 66.3457 62.248C66.3457 61.6191 66.5586 61.1348 66.9844 60.7949C67.4102 60.4512 68.0176 60.2793 68.8066 60.2793C69.1582 60.2793 69.4961 60.3125 69.8203 60.3789C70.1445 60.4414 70.4629 60.5371 70.7754 60.666ZM78.8672 63.1797V63.707H74.1973V63.7422C74.166 64.6367 74.3359 65.2793 74.707 65.6699C75.082 66.0605 75.6094 66.2559 76.2891 66.2559C76.6328 66.2559 76.9922 66.2012 77.3672 66.0918C77.7422 65.9824 78.1426 65.8164 78.5684 65.5938V66.666C78.1582 66.834 77.7617 66.959 77.3789 67.041C77 67.127 76.6328 67.1699 76.2773 67.1699C75.2578 67.1699 74.4609 66.8652 73.8867 66.2559C73.3125 65.6426 73.0254 64.7988 73.0254 63.7246C73.0254 62.6777 73.3066 61.8418 73.8691 61.2168C74.4316 60.5918 75.1816 60.2793 76.1191 60.2793C76.9551 60.2793 77.6133 60.5625 78.0938 61.1289C78.5781 61.6953 78.8359 62.3789 78.8672 63.1797ZM77.7891 62.8633C77.7422 62.4102 77.5762 62.0195 77.291 61.6914C77.0098 61.3594 76.6035 61.1934 76.0723 61.1934C75.5527 61.1934 75.125 61.3652 74.7891 61.709C74.4531 62.0527 74.2695 62.4395 74.2383 62.8691L77.7891 62.8633ZM83.1328 58.5742V60.4375H85.582V61.2754H83.1328V64.8379C83.1328 65.3223 83.2246 65.6602 83.4082 65.8516C83.5918 66.043 83.9121 66.1387 84.3691 66.1387H85.582V67H84.2637C83.4551 67 82.8848 66.8379 82.5527 66.5137C82.2207 66.1895 82.0547 65.6309 82.0547 64.8379V61.2754H80.3027V60.4375H82.0547V58.5742H83.1328ZM87.2812 64.0703H93.4746V65.0605H87.2812V64.0703ZM87.2812 61.3105H93.4746V62.3008H87.2812V61.3105ZM97.5938 58.5742V60.4375H100.043V61.2754H97.5938V64.8379C97.5938 65.3223 97.6855 65.6602 97.8691 65.8516C98.0527 66.043 98.373 66.1387 98.8301 66.1387H100.043V67H98.7246C97.916 67 97.3457 66.8379 97.0137 66.5137C96.6816 66.1895 96.5156 65.6309 96.5156 64.8379V61.2754H94.7637V60.4375H96.5156V58.5742H97.5938ZM107.789 63.1797V63.707H103.119V63.7422C103.088 64.6367 103.258 65.2793 103.629 65.6699C104.004 66.0605 104.531 66.2559 105.211 66.2559C105.555 66.2559 105.914 66.2012 106.289 66.0918C106.664 65.9824 107.064 65.8164 107.49 65.5938V66.666C107.08 66.834 106.684 66.959 106.301 67.041C105.922 67.127 105.555 67.1699 105.199 67.1699C104.18 67.1699 103.383 66.8652 102.809 66.2559C102.234 65.6426 101.947 64.7988 101.947 63.7246C101.947 62.6777 102.229 61.8418 102.791 61.2168C103.354 60.5918 104.104 60.2793 105.041 60.2793C105.877 60.2793 106.535 60.5625 107.016 61.1289C107.5 61.6953 107.758 62.3789 107.789 63.1797ZM106.711 62.8633C106.664 62.4102 106.498 62.0195 106.213 61.6914C105.932 61.3594 105.525 61.1934 104.994 61.1934C104.475 61.1934 104.047 61.3652 103.711 61.709C103.375 62.0527 103.191 62.4395 103.16 62.8691L106.711 62.8633ZM114.158 60.666V61.7207C113.85 61.541 113.539 61.4062 113.227 61.3164C112.914 61.2266 112.596 61.1816 112.271 61.1816C111.783 61.1816 111.418 61.2617 111.176 61.4219C110.938 61.5781 110.818 61.8184 110.818 62.1426C110.818 62.4355 110.908 62.6543 111.088 62.7988C111.268 62.9434 111.715 63.084 112.43 63.2207L112.863 63.3027C113.398 63.4043 113.803 63.6074 114.076 63.9121C114.354 64.2168 114.492 64.6133 114.492 65.1016C114.492 65.75 114.262 66.2578 113.801 66.625C113.34 66.9883 112.699 67.1699 111.879 67.1699C111.555 67.1699 111.215 67.1348 110.859 67.0645C110.504 66.998 110.119 66.8965 109.705 66.7598V65.6465C110.107 65.8535 110.492 66.0098 110.859 66.1152C111.227 66.2168 111.574 66.2676 111.902 66.2676C112.379 66.2676 112.748 66.1719 113.01 65.9805C113.271 65.7852 113.402 65.5137 113.402 65.166C113.402 64.666 112.924 64.3203 111.967 64.1289L111.92 64.1172L111.516 64.0352C110.895 63.9141 110.441 63.7109 110.156 63.4258C109.871 63.1367 109.729 62.7441 109.729 62.248C109.729 61.6191 109.941 61.1348 110.367 60.7949C110.793 60.4512 111.4 60.2793 112.189 60.2793C112.541 60.2793 112.879 60.3125 113.203 60.3789C113.527 60.4414 113.846 60.5371 114.158 60.666ZM119.285 58.5742V60.4375H121.734V61.2754H119.285V64.8379C119.285 65.3223 119.377 65.6602 119.561 65.8516C119.744 66.043 120.064 66.1387 120.521 66.1387H121.734V67H120.416C119.607 67 119.037 66.8379 118.705 66.5137C118.373 66.1895 118.207 65.6309 118.207 64.8379V61.2754H116.455V60.4375H118.207V58.5742H119.285ZM130.09 68.1133V69.1094H122.918V68.1133H130.09ZM135.176 61.2754V57.8828H136.254V67H135.176V66.1738C134.996 66.498 134.756 66.7461 134.455 66.918C134.158 67.0859 133.814 67.1699 133.424 67.1699C132.631 67.1699 132.006 66.8633 131.549 66.25C131.096 65.6328 130.869 64.7832 130.869 63.7012C130.869 62.6348 131.098 61.7988 131.555 61.1934C132.012 60.584 132.635 60.2793 133.424 60.2793C133.818 60.2793 134.166 60.3652 134.467 60.5371C134.768 60.7051 135.004 60.9512 135.176 61.2754ZM132.006 63.7246C132.006 64.5605 132.139 65.1914 132.404 65.6172C132.67 66.043 133.062 66.2559 133.582 66.2559C134.102 66.2559 134.496 66.041 134.766 65.6113C135.039 65.1816 135.176 64.5527 135.176 63.7246C135.176 62.8926 135.039 62.2637 134.766 61.8379C134.496 61.4082 134.102 61.1934 133.582 61.1934C133.062 61.1934 132.67 61.4062 132.404 61.832C132.139 62.2578 132.006 62.8887 132.006 63.7246ZM141.492 63.7012H141.135C140.506 63.7012 140.031 63.8125 139.711 64.0352C139.395 64.2539 139.236 64.582 139.236 65.0195C139.236 65.4141 139.355 65.7207 139.594 65.9395C139.832 66.1582 140.162 66.2676 140.584 66.2676C141.178 66.2676 141.645 66.0625 141.984 65.6523C142.324 65.2383 142.496 64.668 142.5 63.9414V63.7012H141.492ZM143.584 63.2559V67H142.5V66.0273C142.27 66.418 141.979 66.707 141.627 66.8945C141.279 67.0781 140.855 67.1699 140.355 67.1699C139.688 67.1699 139.154 66.9824 138.756 66.6074C138.357 66.2285 138.158 65.7227 138.158 65.0898C138.158 64.3594 138.402 63.8047 138.891 63.4258C139.383 63.0469 140.104 62.8574 141.053 62.8574H142.5V62.6875C142.496 62.1641 142.363 61.7852 142.102 61.5508C141.84 61.3125 141.422 61.1934 140.848 61.1934C140.48 61.1934 140.109 61.2461 139.734 61.3516C139.359 61.457 138.994 61.6113 138.639 61.8145V60.7363C139.037 60.584 139.418 60.4707 139.781 60.3965C140.148 60.3184 140.504 60.2793 140.848 60.2793C141.391 60.2793 141.854 60.3594 142.236 60.5195C142.623 60.6797 142.936 60.9199 143.174 61.2402C143.322 61.4355 143.428 61.6777 143.49 61.9668C143.553 62.252 143.584 62.6816 143.584 63.2559ZM148.207 58.5742V60.4375H150.656V61.2754H148.207V64.8379C148.207 65.3223 148.299 65.6602 148.482 65.8516C148.666 66.043 148.986 66.1387 149.443 66.1387H150.656V67H149.338C148.529 67 147.959 66.8379 147.627 66.5137C147.295 66.1895 147.129 65.6309 147.129 64.8379V61.2754H145.377V60.4375H147.129V58.5742H148.207ZM155.953 63.7012H155.596C154.967 63.7012 154.492 63.8125 154.172 64.0352C153.855 64.2539 153.697 64.582 153.697 65.0195C153.697 65.4141 153.816 65.7207 154.055 65.9395C154.293 66.1582 154.623 66.2676 155.045 66.2676C155.639 66.2676 156.105 66.0625 156.445 65.6523C156.785 65.2383 156.957 64.668 156.961 63.9414V63.7012H155.953ZM158.045 63.2559V67H156.961V66.0273C156.73 66.418 156.439 66.707 156.088 66.8945C155.74 67.0781 155.316 67.1699 154.816 67.1699C154.148 67.1699 153.615 66.9824 153.217 66.6074C152.818 66.2285 152.619 65.7227 152.619 65.0898C152.619 64.3594 152.863 63.8047 153.352 63.4258C153.844 63.0469 154.564 62.8574 155.514 62.8574H156.961V62.6875C156.957 62.1641 156.824 61.7852 156.562 61.5508C156.301 61.3125 155.883 61.1934 155.309 61.1934C154.941 61.1934 154.57 61.2461 154.195 61.3516C153.82 61.457 153.455 61.6113 153.1 61.8145V60.7363C153.498 60.584 153.879 60.4707 154.242 60.3965C154.609 60.3184 154.965 60.2793 155.309 60.2793C155.852 60.2793 156.314 60.3594 156.697 60.5195C157.084 60.6797 157.396 60.9199 157.635 61.2402C157.783 61.4355 157.889 61.6777 157.951 61.9668C158.014 62.252 158.045 62.6816 158.045 63.2559ZM164.771 60.666V61.7207C164.463 61.541 164.152 61.4062 163.84 61.3164C163.527 61.2266 163.209 61.1816 162.885 61.1816C162.396 61.1816 162.031 61.2617 161.789 61.4219C161.551 61.5781 161.432 61.8184 161.432 62.1426C161.432 62.4355 161.521 62.6543 161.701 62.7988C161.881 62.9434 162.328 63.084 163.043 63.2207L163.477 63.3027C164.012 63.4043 164.416 63.6074 164.689 63.9121C164.967 64.2168 165.105 64.6133 165.105 65.1016C165.105 65.75 164.875 66.2578 164.414 66.625C163.953 66.9883 163.312 67.1699 162.492 67.1699C162.168 67.1699 161.828 67.1348 161.473 67.0645C161.117 66.998 160.732 66.8965 160.318 66.7598V65.6465C160.721 65.8535 161.105 66.0098 161.473 66.1152C161.84 66.2168 162.188 66.2676 162.516 66.2676C162.992 66.2676 163.361 66.1719 163.623 65.9805C163.885 65.7852 164.016 65.5137 164.016 65.166C164.016 64.666 163.537 64.3203 162.58 64.1289L162.533 64.1172L162.129 64.0352C161.508 63.9141 161.055 63.7109 160.77 63.4258C160.484 63.1367 160.342 62.7441 160.342 62.248C160.342 61.6191 160.555 61.1348 160.98 60.7949C161.406 60.4512 162.014 60.2793 162.803 60.2793C163.154 60.2793 163.492 60.3125 163.816 60.3789C164.141 60.4414 164.459 60.5371 164.771 60.666ZM172.863 63.1797V63.707H168.193V63.7422C168.162 64.6367 168.332 65.2793 168.703 65.6699C169.078 66.0605 169.605 66.2559 170.285 66.2559C170.629 66.2559 170.988 66.2012 171.363 66.0918C171.738 65.9824 172.139 65.8164 172.564 65.5938V66.666C172.154 66.834 171.758 66.959 171.375 67.041C170.996 67.127 170.629 67.1699 170.273 67.1699C169.254 67.1699 168.457 66.8652 167.883 66.2559C167.309 65.6426 167.021 64.7988 167.021 63.7246C167.021 62.6777 167.303 61.8418 167.865 61.2168C168.428 60.5918 169.178 60.2793 170.115 60.2793C170.951 60.2793 171.609 60.5625 172.09 61.1289C172.574 61.6953 172.832 62.3789 172.863 63.1797ZM171.785 62.8633C171.738 62.4102 171.572 62.0195 171.287 61.6914C171.006 61.3594 170.6 61.1934 170.068 61.1934C169.549 61.1934 169.121 61.3652 168.785 61.709C168.449 62.0527 168.266 62.4395 168.234 62.8691L171.785 62.8633ZM177.129 58.5742V60.4375H179.578V61.2754H177.129V64.8379C177.129 65.3223 177.221 65.6602 177.404 65.8516C177.588 66.043 177.908 66.1387 178.365 66.1387H179.578V67H178.26C177.451 67 176.881 66.8379 176.549 66.5137C176.217 66.1895 176.051 65.6309 176.051 64.8379V61.2754H174.299V60.4375H176.051V58.5742H177.129ZM183.352 64.8848H185.18V66.4375L183.879 68.9629L182.707 68.9688L183.352 66.4375V64.8848ZM199.184 61.1055C199.316 60.8242 199.484 60.6172 199.688 60.4844C199.895 60.3477 200.143 60.2793 200.432 60.2793C200.959 60.2793 201.33 60.4844 201.545 60.8945C201.764 61.3008 201.873 62.0684 201.873 63.1973V67H200.889V63.2441C200.889 62.3184 200.836 61.7441 200.73 61.5215C200.629 61.2949 200.441 61.1816 200.168 61.1816C199.855 61.1816 199.641 61.3027 199.523 61.5449C199.41 61.7832 199.354 62.3496 199.354 63.2441V67H198.369V63.2441C198.369 62.3066 198.312 61.7285 198.199 61.5098C198.09 61.291 197.891 61.1816 197.602 61.1816C197.316 61.1816 197.117 61.3027 197.004 61.5449C196.895 61.7832 196.84 62.3496 196.84 63.2441V67H195.861V60.4375H196.84V61C196.969 60.7656 197.129 60.5879 197.32 60.4668C197.516 60.3418 197.736 60.2793 197.982 60.2793C198.279 60.2793 198.525 60.3477 198.721 60.4844C198.92 60.6211 199.074 60.8281 199.184 61.1055ZM206.062 61.1934C205.516 61.1934 205.102 61.4062 204.82 61.832C204.539 62.2578 204.398 62.8887 204.398 63.7246C204.398 64.5566 204.539 65.1875 204.82 65.6172C205.102 66.043 205.516 66.2559 206.062 66.2559C206.613 66.2559 207.029 66.043 207.311 65.6172C207.592 65.1875 207.732 64.5566 207.732 63.7246C207.732 62.8887 207.592 62.2578 207.311 61.832C207.029 61.4062 206.613 61.1934 206.062 61.1934ZM206.062 60.2793C206.973 60.2793 207.668 60.5742 208.148 61.1641C208.633 61.7539 208.875 62.6074 208.875 63.7246C208.875 64.8457 208.635 65.7012 208.154 66.291C207.674 66.877 206.977 67.1699 206.062 67.1699C205.152 67.1699 204.457 66.877 203.977 66.291C203.496 65.7012 203.256 64.8457 203.256 63.7246C203.256 62.6074 203.496 61.7539 203.977 61.1641C204.457 60.5742 205.152 60.2793 206.062 60.2793ZM214.711 61.2754V57.8828H215.789V67H214.711V66.1738C214.531 66.498 214.291 66.7461 213.99 66.918C213.693 67.0859 213.35 67.1699 212.959 67.1699C212.166 67.1699 211.541 66.8633 211.084 66.25C210.631 65.6328 210.404 64.7832 210.404 63.7012C210.404 62.6348 210.633 61.7988 211.09 61.1934C211.547 60.584 212.17 60.2793 212.959 60.2793C213.354 60.2793 213.701 60.3652 214.002 60.5371C214.303 60.7051 214.539 60.9512 214.711 61.2754ZM211.541 63.7246C211.541 64.5605 211.674 65.1914 211.939 65.6172C212.205 66.043 212.598 66.2559 213.117 66.2559C213.637 66.2559 214.031 66.041 214.301 65.6113C214.574 65.1816 214.711 64.5527 214.711 63.7246C214.711 62.8926 214.574 62.2637 214.301 61.8379C214.031 61.4082 213.637 61.1934 213.117 61.1934C212.598 61.1934 212.205 61.4062 211.939 61.832C211.674 62.2578 211.541 62.8887 211.541 63.7246ZM223.477 63.1797V63.707H218.807V63.7422C218.775 64.6367 218.945 65.2793 219.316 65.6699C219.691 66.0605 220.219 66.2559 220.898 66.2559C221.242 66.2559 221.602 66.2012 221.977 66.0918C222.352 65.9824 222.752 65.8164 223.178 65.5938V66.666C222.768 66.834 222.371 66.959 221.988 67.041C221.609 67.127 221.242 67.1699 220.887 67.1699C219.867 67.1699 219.07 66.8652 218.496 66.2559C217.922 65.6426 217.635 64.7988 217.635 63.7246C217.635 62.6777 217.916 61.8418 218.479 61.2168C219.041 60.5918 219.791 60.2793 220.729 60.2793C221.564 60.2793 222.223 60.5625 222.703 61.1289C223.188 61.6953 223.445 62.3789 223.477 63.1797ZM222.398 62.8633C222.352 62.4102 222.186 62.0195 221.9 61.6914C221.619 61.3594 221.213 61.1934 220.682 61.1934C220.162 61.1934 219.734 61.3652 219.398 61.709C219.062 62.0527 218.879 62.4395 218.848 62.8691L222.398 62.8633ZM228.357 64.627C228.357 65.1113 228.445 65.4766 228.621 65.7227C228.801 65.9688 229.064 66.0918 229.412 66.0918H230.672V67H229.307C228.662 67 228.162 66.7949 227.807 66.3848C227.455 65.9707 227.279 65.3848 227.279 64.627V58.6914H225.551V57.8477H228.357V64.627ZM231.891 64.0703H238.084V65.0605H231.891V64.0703ZM231.891 61.3105H238.084V62.3008H231.891V61.3105ZM242.566 61.1055C242.699 60.8242 242.867 60.6172 243.07 60.4844C243.277 60.3477 243.525 60.2793 243.814 60.2793C244.342 60.2793 244.713 60.4844 244.928 60.8945C245.146 61.3008 245.256 62.0684 245.256 63.1973V67H244.271V63.2441C244.271 62.3184 244.219 61.7441 244.113 61.5215C244.012 61.2949 243.824 61.1816 243.551 61.1816C243.238 61.1816 243.023 61.3027 242.906 61.5449C242.793 61.7832 242.736 62.3496 242.736 63.2441V67H241.752V63.2441C241.752 62.3066 241.695 61.7285 241.582 61.5098C241.473 61.291 241.273 61.1816 240.984 61.1816C240.699 61.1816 240.5 61.3027 240.387 61.5449C240.277 61.7832 240.223 62.3496 240.223 63.2441V67H239.244V60.4375H240.223V61C240.352 60.7656 240.512 60.5879 240.703 60.4668C240.898 60.3418 241.119 60.2793 241.365 60.2793C241.662 60.2793 241.908 60.3477 242.104 60.4844C242.303 60.6211 242.457 60.8281 242.566 61.1055ZM249.445 61.1934C248.898 61.1934 248.484 61.4062 248.203 61.832C247.922 62.2578 247.781 62.8887 247.781 63.7246C247.781 64.5566 247.922 65.1875 248.203 65.6172C248.484 66.043 248.898 66.2559 249.445 66.2559C249.996 66.2559 250.412 66.043 250.693 65.6172C250.975 65.1875 251.115 64.5566 251.115 63.7246C251.115 62.8887 250.975 62.2578 250.693 61.832C250.412 61.4062 249.996 61.1934 249.445 61.1934ZM249.445 60.2793C250.355 60.2793 251.051 60.5742 251.531 61.1641C252.016 61.7539 252.258 62.6074 252.258 63.7246C252.258 64.8457 252.018 65.7012 251.537 66.291C251.057 66.877 250.359 67.1699 249.445 67.1699C248.535 67.1699 247.84 66.877 247.359 66.291C246.879 65.7012 246.639 64.8457 246.639 63.7246C246.639 62.6074 246.879 61.7539 247.359 61.1641C247.84 60.5742 248.535 60.2793 249.445 60.2793ZM258.094 61.2754V57.8828H259.172V67H258.094V66.1738C257.914 66.498 257.674 66.7461 257.373 66.918C257.076 67.0859 256.732 67.1699 256.342 67.1699C255.549 67.1699 254.924 66.8633 254.467 66.25C254.014 65.6328 253.787 64.7832 253.787 63.7012C253.787 62.6348 254.016 61.7988 254.473 61.1934C254.93 60.584 255.553 60.2793 256.342 60.2793C256.736 60.2793 257.084 60.3652 257.385 60.5371C257.686 60.7051 257.922 60.9512 258.094 61.2754ZM254.924 63.7246C254.924 64.5605 255.057 65.1914 255.322 65.6172C255.588 66.043 255.98 66.2559 256.5 66.2559C257.02 66.2559 257.414 66.041 257.684 65.6113C257.957 65.1816 258.094 64.5527 258.094 63.7246C258.094 62.8926 257.957 62.2637 257.684 61.8379C257.414 61.4082 257.02 61.1934 256.5 61.1934C255.98 61.1934 255.588 61.4062 255.322 61.832C255.057 62.2578 254.924 62.8887 254.924 63.7246ZM266.859 63.1797V63.707H262.189V63.7422C262.158 64.6367 262.328 65.2793 262.699 65.6699C263.074 66.0605 263.602 66.2559 264.281 66.2559C264.625 66.2559 264.984 66.2012 265.359 66.0918C265.734 65.9824 266.135 65.8164 266.561 65.5938V66.666C266.15 66.834 265.754 66.959 265.371 67.041C264.992 67.127 264.625 67.1699 264.27 67.1699C263.25 67.1699 262.453 66.8652 261.879 66.2559C261.305 65.6426 261.018 64.7988 261.018 63.7246C261.018 62.6777 261.299 61.8418 261.861 61.2168C262.424 60.5918 263.174 60.2793 264.111 60.2793C264.947 60.2793 265.605 60.5625 266.086 61.1289C266.57 61.6953 266.828 62.3789 266.859 63.1797ZM265.781 62.8633C265.734 62.4102 265.568 62.0195 265.283 61.6914C265.002 61.3594 264.596 61.1934 264.064 61.1934C263.545 61.1934 263.117 61.3652 262.781 61.709C262.445 62.0527 262.262 62.4395 262.23 62.8691L265.781 62.8633ZM271.74 64.627C271.74 65.1113 271.828 65.4766 272.004 65.7227C272.184 65.9688 272.447 66.0918 272.795 66.0918H274.055V67H272.689C272.045 67 271.545 66.7949 271.189 66.3848C270.838 65.9707 270.662 65.3848 270.662 64.627V58.6914H268.934V57.8477H271.74V64.627ZM276.797 57.3086H277.734C278.324 58.2305 278.764 59.1328 279.053 60.0156C279.342 60.8984 279.486 61.7754 279.486 62.6465C279.486 63.5254 279.342 64.4062 279.053 65.2891C278.764 66.1719 278.324 67.0742 277.734 67.9961H276.797C277.316 67.0898 277.703 66.1934 277.957 65.3066C278.215 64.4199 278.344 63.5332 278.344 62.6465C278.344 61.7559 278.215 60.8672 277.957 59.9805C277.703 59.0938 277.316 58.2031 276.797 57.3086Z" fill="#303245"/>
</svg>
