<svg width="294" height="51" viewBox="0 0 294 51" fill="none" xmlns="http://www.w3.org/2000/svg">
<path d="M5.92969 1.55078V2.75195C5.57031 2.52148 5.20898 2.34766 4.8457 2.23047C4.48633 2.11328 4.12305 2.05469 3.75586 2.05469C3.19727 2.05469 2.75586 2.18555 2.43164 2.44727C2.10742 2.70508 1.94531 3.05469 1.94531 3.49609C1.94531 3.88281 2.05078 4.17773 2.26172 4.38086C2.47656 4.58398 2.875 4.75391 3.45703 4.89062L4.07812 5.03125C4.89844 5.22266 5.49609 5.52344 5.87109 5.93359C6.24609 6.34375 6.43359 6.90234 6.43359 7.60938C6.43359 8.44141 6.17578 9.07617 5.66016 9.51367C5.14453 9.95117 4.39453 10.1699 3.41016 10.1699C3 10.1699 2.58789 10.125 2.17383 10.0352C1.75977 9.94922 1.34375 9.81836 0.925781 9.64258V8.38281C1.375 8.66797 1.79883 8.87695 2.19727 9.00977C2.59961 9.14258 3.00391 9.20898 3.41016 9.20898C4.00781 9.20898 4.47266 9.07617 4.80469 8.81055C5.13672 8.54102 5.30273 8.16602 5.30273 7.68555C5.30273 7.24805 5.1875 6.91406 4.95703 6.68359C4.73047 6.45312 4.33398 6.27539 3.76758 6.15039L3.13477 6.00391C2.32227 5.82031 1.73242 5.54297 1.36523 5.17188C0.998047 4.80078 0.814453 4.30273 0.814453 3.67773C0.814453 2.89648 1.07617 2.27148 1.59961 1.80273C2.12695 1.33008 2.82617 1.09375 3.69727 1.09375C4.0332 1.09375 4.38672 1.13281 4.75781 1.21094C5.12891 1.28516 5.51953 1.39844 5.92969 1.55078ZM13.793 6.17969V6.70703H9.12305V6.74219C9.0918 7.63672 9.26172 8.2793 9.63281 8.66992C10.0078 9.06055 10.5352 9.25586 11.2148 9.25586C11.5586 9.25586 11.918 9.20117 12.293 9.0918C12.668 8.98242 13.0684 8.81641 13.4941 8.59375V9.66602C13.084 9.83398 12.6875 9.95898 12.3047 10.041C11.9258 10.127 11.5586 10.1699 11.2031 10.1699C10.1836 10.1699 9.38672 9.86523 8.8125 9.25586C8.23828 8.64258 7.95117 7.79883 7.95117 6.72461C7.95117 5.67773 8.23242 4.8418 8.79492 4.2168C9.35742 3.5918 10.1074 3.2793 11.0449 3.2793C11.8809 3.2793 12.5391 3.5625 13.0195 4.12891C13.5039 4.69531 13.7617 5.37891 13.793 6.17969ZM12.7148 5.86328C12.668 5.41016 12.502 5.01953 12.2168 4.69141C11.9355 4.35938 11.5293 4.19336 10.998 4.19336C10.4785 4.19336 10.0508 4.36523 9.71484 4.70898C9.37891 5.05273 9.19531 5.43945 9.16406 5.86914L12.7148 5.86328ZM19.4883 6.66602C19.4883 5.85742 19.3555 5.24414 19.0898 4.82617C18.8281 4.4043 18.4453 4.19336 17.9414 4.19336C17.4141 4.19336 17.0117 4.4043 16.7344 4.82617C16.457 5.24414 16.3184 5.85742 16.3184 6.66602C16.3184 7.47461 16.457 8.0918 16.7344 8.51758C17.0156 8.93945 17.4219 9.15039 17.9531 9.15039C18.4492 9.15039 18.8281 8.9375 19.0898 8.51172C19.3555 8.08594 19.4883 7.4707 19.4883 6.66602ZM20.5664 9.57812C20.5664 10.5625 20.334 11.3086 19.8691 11.8164C19.4043 12.3242 18.7207 12.5781 17.8184 12.5781C17.5215 12.5781 17.2109 12.5508 16.8867 12.4961C16.5625 12.4414 16.2383 12.3613 15.9141 12.2559V11.1895C16.2969 11.3691 16.6445 11.502 16.957 11.5879C17.2695 11.6738 17.5566 11.7168 17.8184 11.7168C18.4004 11.7168 18.8242 11.5586 19.0898 11.2422C19.3555 10.9258 19.4883 10.4238 19.4883 9.73633V9.68945V8.95703C19.3164 9.32422 19.082 9.59766 18.7852 9.77734C18.4883 9.95703 18.127 10.0469 17.7012 10.0469C16.9355 10.0469 16.3242 9.74023 15.8672 9.12695C15.4102 8.51367 15.1816 7.69336 15.1816 6.66602C15.1816 5.63477 15.4102 4.8125 15.8672 4.19922C16.3242 3.58594 16.9355 3.2793 17.7012 3.2793C18.123 3.2793 18.4805 3.36328 18.7734 3.53125C19.0664 3.69922 19.3047 3.95898 19.4883 4.31055V3.46094H20.5664V9.57812ZM25.6523 4.10547C25.7852 3.82422 25.9531 3.61719 26.1562 3.48438C26.3633 3.34766 26.6113 3.2793 26.9004 3.2793C27.4277 3.2793 27.7988 3.48438 28.0137 3.89453C28.2324 4.30078 28.3418 5.06836 28.3418 6.19727V10H27.3574V6.24414C27.3574 5.31836 27.3047 4.74414 27.1992 4.52148C27.0977 4.29492 26.9102 4.18164 26.6367 4.18164C26.3242 4.18164 26.1094 4.30273 25.9922 4.54492C25.8789 4.7832 25.8223 5.34961 25.8223 6.24414V10H24.8379V6.24414C24.8379 5.30664 24.7812 4.72852 24.668 4.50977C24.5586 4.29102 24.3594 4.18164 24.0703 4.18164C23.7852 4.18164 23.5859 4.30273 23.4727 4.54492C23.3633 4.7832 23.3086 5.34961 23.3086 6.24414V10H22.3301V3.4375H23.3086V4C23.4375 3.76562 23.5977 3.58789 23.7891 3.4668C23.9844 3.3418 24.2051 3.2793 24.4512 3.2793C24.748 3.2793 24.9941 3.34766 25.1895 3.48438C25.3887 3.62109 25.543 3.82812 25.6523 4.10547ZM35.4844 6.17969V6.70703H30.8145V6.74219C30.7832 7.63672 30.9531 8.2793 31.3242 8.66992C31.6992 9.06055 32.2266 9.25586 32.9062 9.25586C33.25 9.25586 33.6094 9.20117 33.9844 9.0918C34.3594 8.98242 34.7598 8.81641 35.1855 8.59375V9.66602C34.7754 9.83398 34.3789 9.95898 33.9961 10.041C33.6172 10.127 33.25 10.1699 32.8945 10.1699C31.875 10.1699 31.0781 9.86523 30.5039 9.25586C29.9297 8.64258 29.6426 7.79883 29.6426 6.72461C29.6426 5.67773 29.9238 4.8418 30.4863 4.2168C31.0488 3.5918 31.7988 3.2793 32.7363 3.2793C33.5723 3.2793 34.2305 3.5625 34.7109 4.12891C35.1953 4.69531 35.4531 5.37891 35.4844 6.17969ZM34.4062 5.86328C34.3594 5.41016 34.1934 5.01953 33.9082 4.69141C33.627 4.35938 33.2207 4.19336 32.6895 4.19336C32.1699 4.19336 31.7422 4.36523 31.4062 4.70898C31.0703 5.05273 30.8867 5.43945 30.8555 5.86914L34.4062 5.86328ZM42.3105 5.93359V10H41.2266V5.93359C41.2266 5.34375 41.123 4.91016 40.916 4.63281C40.709 4.35547 40.3848 4.2168 39.9434 4.2168C39.4395 4.2168 39.0508 4.39648 38.7773 4.75586C38.5078 5.11133 38.373 5.62305 38.373 6.29102V10H37.2949V3.4375H38.373V4.42188C38.5645 4.04688 38.8242 3.76367 39.1523 3.57227C39.4805 3.37695 39.8691 3.2793 40.3184 3.2793C40.9863 3.2793 41.4844 3.5 41.8125 3.94141C42.1445 4.37891 42.3105 5.04297 42.3105 5.93359ZM46.9805 1.57422V3.4375H49.4297V4.27539H46.9805V7.83789C46.9805 8.32227 47.0723 8.66016 47.2559 8.85156C47.4395 9.04297 47.7598 9.13867 48.2168 9.13867H49.4297V10H48.1113C47.3027 10 46.7324 9.83789 46.4004 9.51367C46.0684 9.18945 45.9023 8.63086 45.9023 7.83789V4.27539H44.1504V3.4375H45.9023V1.57422H46.9805ZM52.9512 2.22461V5.51172H54.3223C54.8691 5.51172 55.2949 5.36719 55.5996 5.07812C55.9082 4.78906 56.0625 4.38477 56.0625 3.86523C56.0625 3.3457 55.9102 2.94336 55.6055 2.6582C55.3008 2.36914 54.873 2.22461 54.3223 2.22461H52.9512ZM51.7676 1.25195H54.3223C55.2988 1.25195 56.0391 1.47461 56.543 1.91992C57.0469 2.36133 57.2988 3.00977 57.2988 3.86523C57.2988 4.72852 57.0469 5.38086 56.543 5.82227C56.043 6.26367 55.3027 6.48438 54.3223 6.48438H52.9512V10H51.7676V1.25195ZM64.4062 6.17969V6.70703H59.7363V6.74219C59.7051 7.63672 59.875 8.2793 60.2461 8.66992C60.6211 9.06055 61.1484 9.25586 61.8281 9.25586C62.1719 9.25586 62.5312 9.20117 62.9062 9.0918C63.2812 8.98242 63.6816 8.81641 64.1074 8.59375V9.66602C63.6973 9.83398 63.3008 9.95898 62.918 10.041C62.5391 10.127 62.1719 10.1699 61.8164 10.1699C60.7969 10.1699 60 9.86523 59.4258 9.25586C58.8516 8.64258 58.5645 7.79883 58.5645 6.72461C58.5645 5.67773 58.8457 4.8418 59.4082 4.2168C59.9707 3.5918 60.7207 3.2793 61.6582 3.2793C62.4941 3.2793 63.1523 3.5625 63.6328 4.12891C64.1172 4.69531 64.375 5.37891 64.4062 6.17969ZM63.3281 5.86328C63.2812 5.41016 63.1152 5.01953 62.8301 4.69141C62.5488 4.35938 62.1426 4.19336 61.6113 4.19336C61.0918 4.19336 60.6641 4.36523 60.3281 4.70898C59.9922 5.05273 59.8086 5.43945 59.7773 5.86914L63.3281 5.86328ZM71.8418 4.79102C71.6113 4.61133 71.377 4.48047 71.1387 4.39844C70.9004 4.31641 70.6387 4.27539 70.3535 4.27539C69.6816 4.27539 69.168 4.48633 68.8125 4.9082C68.457 5.33008 68.2793 5.93945 68.2793 6.73633V10H67.1953V3.4375H68.2793V4.7207C68.459 4.25586 68.7344 3.90039 69.1055 3.6543C69.4805 3.4043 69.9238 3.2793 70.4355 3.2793C70.7012 3.2793 70.9492 3.3125 71.1797 3.37891C71.4102 3.44531 71.6309 3.54883 71.8418 3.68945V4.79102ZM78.5332 0.882812V1.7793H77.3086C76.9219 1.7793 76.6523 1.85938 76.5 2.01953C76.3516 2.17578 76.2773 2.45508 76.2773 2.85742V3.4375H78.5332V4.27539H76.2773V10H75.1992V4.27539H73.4473V3.4375H75.1992V2.98047C75.1992 2.26172 75.3633 1.73242 75.6914 1.39258C76.0234 1.05273 76.5391 0.882812 77.2383 0.882812H78.5332ZM83.1445 4.19336C82.5977 4.19336 82.1836 4.40625 81.9023 4.83203C81.6211 5.25781 81.4805 5.88867 81.4805 6.72461C81.4805 7.55664 81.6211 8.1875 81.9023 8.61719C82.1836 9.04297 82.5977 9.25586 83.1445 9.25586C83.6953 9.25586 84.1113 9.04297 84.3926 8.61719C84.6738 8.1875 84.8145 7.55664 84.8145 6.72461C84.8145 5.88867 84.6738 5.25781 84.3926 4.83203C84.1113 4.40625 83.6953 4.19336 83.1445 4.19336ZM83.1445 3.2793C84.0547 3.2793 84.75 3.57422 85.2305 4.16406C85.7148 4.75391 85.957 5.60742 85.957 6.72461C85.957 7.8457 85.7168 8.70117 85.2363 9.29102C84.7559 9.87695 84.0586 10.1699 83.1445 10.1699C82.2344 10.1699 81.5391 9.87695 81.0586 9.29102C80.5781 8.70117 80.3379 7.8457 80.3379 6.72461C80.3379 5.60742 80.5781 4.75391 81.0586 4.16406C81.5391 3.57422 82.2344 3.2793 83.1445 3.2793ZM93.5332 4.79102C93.3027 4.61133 93.0684 4.48047 92.8301 4.39844C92.5918 4.31641 92.3301 4.27539 92.0449 4.27539C91.373 4.27539 90.8594 4.48633 90.5039 4.9082C90.1484 5.33008 89.9707 5.93945 89.9707 6.73633V10H88.8867V3.4375H89.9707V4.7207C90.1504 4.25586 90.4258 3.90039 90.7969 3.6543C91.1719 3.4043 91.6152 3.2793 92.127 3.2793C92.3926 3.2793 92.6406 3.3125 92.8711 3.37891C93.1016 3.44531 93.3223 3.54883 93.5332 3.68945V4.79102ZM97.957 4.10547C98.0898 3.82422 98.2578 3.61719 98.4609 3.48438C98.668 3.34766 98.916 3.2793 99.2051 3.2793C99.7324 3.2793 100.104 3.48438 100.318 3.89453C100.537 4.30078 100.646 5.06836 100.646 6.19727V10H99.6621V6.24414C99.6621 5.31836 99.6094 4.74414 99.5039 4.52148C99.4023 4.29492 99.2148 4.18164 98.9414 4.18164C98.6289 4.18164 98.4141 4.30273 98.2969 4.54492C98.1836 4.7832 98.127 5.34961 98.127 6.24414V10H97.1426V6.24414C97.1426 5.30664 97.0859 4.72852 96.9727 4.50977C96.8633 4.29102 96.6641 4.18164 96.375 4.18164C96.0898 4.18164 95.8906 4.30273 95.7773 4.54492C95.668 4.7832 95.6133 5.34961 95.6133 6.24414V10H94.6348V3.4375H95.6133V4C95.7422 3.76562 95.9023 3.58789 96.0938 3.4668C96.2891 3.3418 96.5098 3.2793 96.7559 3.2793C97.0527 3.2793 97.2988 3.34766 97.4941 3.48438C97.6934 3.62109 97.8477 3.82812 97.957 4.10547ZM105.34 6.70117H104.982C104.354 6.70117 103.879 6.8125 103.559 7.03516C103.242 7.25391 103.084 7.58203 103.084 8.01953C103.084 8.41406 103.203 8.7207 103.441 8.93945C103.68 9.1582 104.01 9.26758 104.432 9.26758C105.025 9.26758 105.492 9.0625 105.832 8.65234C106.172 8.23828 106.344 7.66797 106.348 6.94141V6.70117H105.34ZM107.432 6.25586V10H106.348V9.02734C106.117 9.41797 105.826 9.70703 105.475 9.89453C105.127 10.0781 104.703 10.1699 104.203 10.1699C103.535 10.1699 103.002 9.98242 102.604 9.60742C102.205 9.22852 102.006 8.72266 102.006 8.08984C102.006 7.35938 102.25 6.80469 102.738 6.42578C103.23 6.04688 103.951 5.85742 104.9 5.85742H106.348V5.6875C106.344 5.16406 106.211 4.78516 105.949 4.55078C105.688 4.3125 105.27 4.19336 104.695 4.19336C104.328 4.19336 103.957 4.24609 103.582 4.35156C103.207 4.45703 102.842 4.61133 102.486 4.81445V3.73633C102.885 3.58398 103.266 3.4707 103.629 3.39648C103.996 3.31836 104.352 3.2793 104.695 3.2793C105.238 3.2793 105.701 3.35938 106.084 3.51953C106.471 3.67969 106.783 3.91992 107.021 4.24023C107.17 4.43555 107.275 4.67773 107.338 4.9668C107.4 5.25195 107.432 5.68164 107.432 6.25586ZM114.615 5.93359V10H113.531V5.93359C113.531 5.34375 113.428 4.91016 113.221 4.63281C113.014 4.35547 112.689 4.2168 112.248 4.2168C111.744 4.2168 111.355 4.39648 111.082 4.75586C110.812 5.11133 110.678 5.62305 110.678 6.29102V10H109.6V3.4375H110.678V4.42188C110.869 4.04688 111.129 3.76367 111.457 3.57227C111.785 3.37695 112.174 3.2793 112.623 3.2793C113.291 3.2793 113.789 3.5 114.117 3.94141C114.449 4.37891 114.615 5.04297 114.615 5.93359ZM121.904 9.66602C121.615 9.83398 121.316 9.95898 121.008 10.041C120.703 10.127 120.391 10.1699 120.07 10.1699C119.055 10.1699 118.26 9.86523 117.686 9.25586C117.115 8.64648 116.83 7.80273 116.83 6.72461C116.83 5.64648 117.115 4.80273 117.686 4.19336C118.26 3.58398 119.055 3.2793 120.07 3.2793C120.387 3.2793 120.695 3.32031 120.996 3.40234C121.297 3.48438 121.6 3.61133 121.904 3.7832V4.91406C121.619 4.66016 121.332 4.47656 121.043 4.36328C120.758 4.25 120.434 4.19336 120.07 4.19336C119.395 4.19336 118.875 4.41211 118.512 4.84961C118.148 5.28711 117.967 5.91211 117.967 6.72461C117.967 7.5332 118.148 8.1582 118.512 8.59961C118.879 9.03711 119.398 9.25586 120.07 9.25586C120.445 9.25586 120.781 9.19922 121.078 9.08594C121.375 8.96875 121.65 8.78906 121.904 8.54688V9.66602ZM129.48 6.17969V6.70703H124.811V6.74219C124.779 7.63672 124.949 8.2793 125.32 8.66992C125.695 9.06055 126.223 9.25586 126.902 9.25586C127.246 9.25586 127.605 9.20117 127.98 9.0918C128.355 8.98242 128.756 8.81641 129.182 8.59375V9.66602C128.771 9.83398 128.375 9.95898 127.992 10.041C127.613 10.127 127.246 10.1699 126.891 10.1699C125.871 10.1699 125.074 9.86523 124.5 9.25586C123.926 8.64258 123.639 7.79883 123.639 6.72461C123.639 5.67773 123.92 4.8418 124.482 4.2168C125.045 3.5918 125.795 3.2793 126.732 3.2793C127.568 3.2793 128.227 3.5625 128.707 4.12891C129.191 4.69531 129.449 5.37891 129.48 6.17969ZM128.402 5.86328C128.355 5.41016 128.189 5.01953 127.904 4.69141C127.623 4.35938 127.217 4.19336 126.686 4.19336C126.166 4.19336 125.738 4.36523 125.402 4.70898C125.066 5.05273 124.883 5.43945 124.852 5.86914L128.402 5.86328ZM135.158 0.308594C134.639 1.19922 134.25 2.08789 133.992 2.97461C133.738 3.85742 133.611 4.74805 133.611 5.64648C133.611 6.54102 133.738 7.43164 133.992 8.31836C134.25 9.20508 134.639 10.0977 135.158 10.9961H134.221C133.631 10.0664 133.191 9.16211 132.902 8.2832C132.613 7.40039 132.469 6.52148 132.469 5.64648C132.469 4.77539 132.613 3.89844 132.902 3.01562C133.191 2.13281 133.631 1.23047 134.221 0.308594H135.158ZM143.607 0.882812V1.7793H142.383C141.996 1.7793 141.727 1.85938 141.574 2.01953C141.426 2.17578 141.352 2.45508 141.352 2.85742V3.4375H143.607V4.27539H141.352V10H140.273V4.27539H138.521V3.4375H140.273V2.98047C140.273 2.26172 140.438 1.73242 140.766 1.39258C141.098 1.05273 141.613 0.882812 142.312 0.882812H143.607ZM151.172 6.17969V6.70703H146.502V6.74219C146.471 7.63672 146.641 8.2793 147.012 8.66992C147.387 9.06055 147.914 9.25586 148.594 9.25586C148.938 9.25586 149.297 9.20117 149.672 9.0918C150.047 8.98242 150.447 8.81641 150.873 8.59375V9.66602C150.463 9.83398 150.066 9.95898 149.684 10.041C149.305 10.127 148.938 10.1699 148.582 10.1699C147.562 10.1699 146.766 9.86523 146.191 9.25586C145.617 8.64258 145.33 7.79883 145.33 6.72461C145.33 5.67773 145.611 4.8418 146.174 4.2168C146.736 3.5918 147.486 3.2793 148.424 3.2793C149.26 3.2793 149.918 3.5625 150.398 4.12891C150.883 4.69531 151.141 5.37891 151.172 6.17969ZM150.094 5.86328C150.047 5.41016 149.881 5.01953 149.596 4.69141C149.314 4.35938 148.908 4.19336 148.377 4.19336C147.857 4.19336 147.43 4.36523 147.094 4.70898C146.758 5.05273 146.574 5.43945 146.543 5.86914L150.094 5.86328ZM155.953 6.70117H155.596C154.967 6.70117 154.492 6.8125 154.172 7.03516C153.855 7.25391 153.697 7.58203 153.697 8.01953C153.697 8.41406 153.816 8.7207 154.055 8.93945C154.293 9.1582 154.623 9.26758 155.045 9.26758C155.639 9.26758 156.105 9.0625 156.445 8.65234C156.785 8.23828 156.957 7.66797 156.961 6.94141V6.70117H155.953ZM158.045 6.25586V10H156.961V9.02734C156.73 9.41797 156.439 9.70703 156.088 9.89453C155.74 10.0781 155.316 10.1699 154.816 10.1699C154.148 10.1699 153.615 9.98242 153.217 9.60742C152.818 9.22852 152.619 8.72266 152.619 8.08984C152.619 7.35938 152.863 6.80469 153.352 6.42578C153.844 6.04688 154.564 5.85742 155.514 5.85742H156.961V5.6875C156.957 5.16406 156.824 4.78516 156.562 4.55078C156.301 4.3125 155.883 4.19336 155.309 4.19336C154.941 4.19336 154.57 4.24609 154.195 4.35156C153.82 4.45703 153.455 4.61133 153.1 4.81445V3.73633C153.498 3.58398 153.879 3.4707 154.242 3.39648C154.609 3.31836 154.965 3.2793 155.309 3.2793C155.852 3.2793 156.314 3.35938 156.697 3.51953C157.084 3.67969 157.396 3.91992 157.635 4.24023C157.783 4.43555 157.889 4.67773 157.951 4.9668C158.014 5.25195 158.045 5.68164 158.045 6.25586ZM162.668 1.57422V3.4375H165.117V4.27539H162.668V7.83789C162.668 8.32227 162.76 8.66016 162.943 8.85156C163.127 9.04297 163.447 9.13867 163.904 9.13867H165.117V10H163.799C162.99 10 162.42 9.83789 162.088 9.51367C161.756 9.18945 161.59 8.63086 161.59 7.83789V4.27539H159.838V3.4375H161.59V1.57422H162.668ZM167.443 7.51562V3.44922H168.521V7.51562C168.521 8.10547 168.625 8.53906 168.832 8.81641C169.043 9.09375 169.367 9.23242 169.805 9.23242C170.312 9.23242 170.701 9.05469 170.971 8.69922C171.24 8.33984 171.375 7.82617 171.375 7.1582V3.44922H172.459V10H171.375V9.01562C171.184 9.39453 170.922 9.68164 170.59 9.87695C170.262 10.0723 169.877 10.1699 169.436 10.1699C168.764 10.1699 168.264 9.95117 167.936 9.51367C167.607 9.07227 167.443 8.40625 167.443 7.51562ZM180.299 4.79102C180.068 4.61133 179.834 4.48047 179.596 4.39844C179.357 4.31641 179.096 4.27539 178.811 4.27539C178.139 4.27539 177.625 4.48633 177.27 4.9082C176.914 5.33008 176.736 5.93945 176.736 6.73633V10H175.652V3.4375H176.736V4.7207C176.916 4.25586 177.191 3.90039 177.562 3.6543C177.938 3.4043 178.381 3.2793 178.893 3.2793C179.158 3.2793 179.406 3.3125 179.637 3.37891C179.867 3.44531 180.088 3.54883 180.299 3.68945V4.79102ZM187.324 6.17969V6.70703H182.654V6.74219C182.623 7.63672 182.793 8.2793 183.164 8.66992C183.539 9.06055 184.066 9.25586 184.746 9.25586C185.09 9.25586 185.449 9.20117 185.824 9.0918C186.199 8.98242 186.6 8.81641 187.025 8.59375V9.66602C186.615 9.83398 186.219 9.95898 185.836 10.041C185.457 10.127 185.09 10.1699 184.734 10.1699C183.715 10.1699 182.918 9.86523 182.344 9.25586C181.77 8.64258 181.482 7.79883 181.482 6.72461C181.482 5.67773 181.764 4.8418 182.326 4.2168C182.889 3.5918 183.639 3.2793 184.576 3.2793C185.412 3.2793 186.07 3.5625 186.551 4.12891C187.035 4.69531 187.293 5.37891 187.324 6.17969ZM186.246 5.86328C186.199 5.41016 186.033 5.01953 185.748 4.69141C185.467 4.35938 185.061 4.19336 184.529 4.19336C184.01 4.19336 183.582 4.36523 183.246 4.70898C182.91 5.05273 182.727 5.43945 182.695 5.86914L186.246 5.86328ZM195.164 11.1133V12.1094H187.992V11.1133H195.164ZM196.805 9.00977H198.645V2.40039L196.441 3.46094V2.32422L198.633 1.28125H199.816V9.00977H201.633V10H196.805V9.00977ZM202.969 7.07031H209.162V8.06055H202.969V7.07031ZM202.969 4.31055H209.162V5.30078H202.969V4.31055ZM212.971 0.882812H214.447V2.08984L213.293 4.33398H212.396L212.971 2.08984V0.882812ZM216.914 3.4375H217.98L219.123 8.74023L220.061 5.35352H220.98L221.93 8.74023L223.072 3.4375H224.139L222.604 10H221.572L220.523 6.40234L219.48 10H218.449L216.914 3.4375ZM227.754 4.19336C227.207 4.19336 226.793 4.40625 226.512 4.83203C226.23 5.25781 226.09 5.88867 226.09 6.72461C226.09 7.55664 226.23 8.1875 226.512 8.61719C226.793 9.04297 227.207 9.25586 227.754 9.25586C228.305 9.25586 228.721 9.04297 229.002 8.61719C229.283 8.1875 229.424 7.55664 229.424 6.72461C229.424 5.88867 229.283 5.25781 229.002 4.83203C228.721 4.40625 228.305 4.19336 227.754 4.19336ZM227.754 3.2793C228.664 3.2793 229.359 3.57422 229.84 4.16406C230.324 4.75391 230.566 5.60742 230.566 6.72461C230.566 7.8457 230.326 8.70117 229.846 9.29102C229.365 9.87695 228.668 10.1699 227.754 10.1699C226.844 10.1699 226.148 9.87695 225.668 9.29102C225.188 8.70117 224.947 7.8457 224.947 6.72461C224.947 5.60742 225.188 4.75391 225.668 4.16406C226.148 3.57422 226.844 3.2793 227.754 3.2793ZM238.143 4.79102C237.912 4.61133 237.678 4.48047 237.439 4.39844C237.201 4.31641 236.939 4.27539 236.654 4.27539C235.982 4.27539 235.469 4.48633 235.113 4.9082C234.758 5.33008 234.58 5.93945 234.58 6.73633V10H233.496V3.4375H234.58V4.7207C234.76 4.25586 235.035 3.90039 235.406 3.6543C235.781 3.4043 236.225 3.2793 236.736 3.2793C237.002 3.2793 237.25 3.3125 237.48 3.37891C237.711 3.44531 237.932 3.54883 238.143 3.68945V4.79102ZM239.988 0.882812H241.102V6.16211L243.932 3.4375H245.244L242.66 5.91016L245.648 10H244.33L241.904 6.61328L241.102 7.36914V10H239.988V0.882812ZM252.053 9.66602C251.764 9.83398 251.465 9.95898 251.156 10.041C250.852 10.127 250.539 10.1699 250.219 10.1699C249.203 10.1699 248.408 9.86523 247.834 9.25586C247.264 8.64648 246.979 7.80273 246.979 6.72461C246.979 5.64648 247.264 4.80273 247.834 4.19336C248.408 3.58398 249.203 3.2793 250.219 3.2793C250.535 3.2793 250.844 3.32031 251.145 3.40234C251.445 3.48438 251.748 3.61133 252.053 3.7832V4.91406C251.768 4.66016 251.48 4.47656 251.191 4.36328C250.906 4.25 250.582 4.19336 250.219 4.19336C249.543 4.19336 249.023 4.41211 248.66 4.84961C248.297 5.28711 248.115 5.91211 248.115 6.72461C248.115 7.5332 248.297 8.1582 248.66 8.59961C249.027 9.03711 249.547 9.25586 250.219 9.25586C250.594 9.25586 250.93 9.19922 251.227 9.08594C251.523 8.96875 251.799 8.78906 252.053 8.54688V9.66602ZM257.279 7.62695C257.279 8.11133 257.367 8.47656 257.543 8.72266C257.723 8.96875 257.986 9.0918 258.334 9.0918H259.594V10H258.229C257.584 10 257.084 9.79492 256.729 9.38477C256.377 8.9707 256.201 8.38477 256.201 7.62695V1.69141H254.473V0.847656H257.279V7.62695ZM264.41 6.70117H264.053C263.424 6.70117 262.949 6.8125 262.629 7.03516C262.312 7.25391 262.154 7.58203 262.154 8.01953C262.154 8.41406 262.273 8.7207 262.512 8.93945C262.75 9.1582 263.08 9.26758 263.502 9.26758C264.096 9.26758 264.562 9.0625 264.902 8.65234C265.242 8.23828 265.414 7.66797 265.418 6.94141V6.70117H264.41ZM266.502 6.25586V10H265.418V9.02734C265.188 9.41797 264.896 9.70703 264.545 9.89453C264.197 10.0781 263.773 10.1699 263.273 10.1699C262.605 10.1699 262.072 9.98242 261.674 9.60742C261.275 9.22852 261.076 8.72266 261.076 8.08984C261.076 7.35938 261.32 6.80469 261.809 6.42578C262.301 6.04688 263.021 5.85742 263.971 5.85742H265.418V5.6875C265.414 5.16406 265.281 4.78516 265.02 4.55078C264.758 4.3125 264.34 4.19336 263.766 4.19336C263.398 4.19336 263.027 4.24609 262.652 4.35156C262.277 4.45703 261.912 4.61133 261.557 4.81445V3.73633C261.955 3.58398 262.336 3.4707 262.699 3.39648C263.066 3.31836 263.422 3.2793 263.766 3.2793C264.309 3.2793 264.771 3.35938 265.154 3.51953C265.541 3.67969 265.854 3.91992 266.092 4.24023C266.24 4.43555 266.346 4.67773 266.408 4.9668C266.471 5.25195 266.502 5.68164 266.502 6.25586ZM273.229 3.66602V4.7207C272.92 4.54102 272.609 4.40625 272.297 4.31641C271.984 4.22656 271.666 4.18164 271.342 4.18164C270.854 4.18164 270.488 4.26172 270.246 4.42188C270.008 4.57812 269.889 4.81836 269.889 5.14258C269.889 5.43555 269.979 5.6543 270.158 5.79883C270.338 5.94336 270.785 6.08398 271.5 6.2207L271.934 6.30273C272.469 6.4043 272.873 6.60742 273.146 6.91211C273.424 7.2168 273.562 7.61328 273.562 8.10156C273.562 8.75 273.332 9.25781 272.871 9.625C272.41 9.98828 271.77 10.1699 270.949 10.1699C270.625 10.1699 270.285 10.1348 269.93 10.0645C269.574 9.99805 269.189 9.89648 268.775 9.75977V8.64648C269.178 8.85352 269.562 9.00977 269.93 9.11523C270.297 9.2168 270.645 9.26758 270.973 9.26758C271.449 9.26758 271.818 9.17188 272.08 8.98047C272.342 8.78516 272.473 8.51367 272.473 8.16602C272.473 7.66602 271.994 7.32031 271.037 7.12891L270.99 7.11719L270.586 7.03516C269.965 6.91406 269.512 6.71094 269.227 6.42578C268.941 6.13672 268.799 5.74414 268.799 5.24805C268.799 4.61914 269.012 4.13477 269.438 3.79492C269.863 3.45117 270.471 3.2793 271.26 3.2793C271.611 3.2793 271.949 3.3125 272.273 3.37891C272.598 3.44141 272.916 3.53711 273.229 3.66602ZM280.459 3.66602V4.7207C280.15 4.54102 279.84 4.40625 279.527 4.31641C279.215 4.22656 278.896 4.18164 278.572 4.18164C278.084 4.18164 277.719 4.26172 277.477 4.42188C277.238 4.57812 277.119 4.81836 277.119 5.14258C277.119 5.43555 277.209 5.6543 277.389 5.79883C277.568 5.94336 278.016 6.08398 278.73 6.2207L279.164 6.30273C279.699 6.4043 280.104 6.60742 280.377 6.91211C280.654 7.2168 280.793 7.61328 280.793 8.10156C280.793 8.75 280.562 9.25781 280.102 9.625C279.641 9.98828 279 10.1699 278.18 10.1699C277.855 10.1699 277.516 10.1348 277.16 10.0645C276.805 9.99805 276.42 9.89648 276.006 9.75977V8.64648C276.408 8.85352 276.793 9.00977 277.16 9.11523C277.527 9.2168 277.875 9.26758 278.203 9.26758C278.68 9.26758 279.049 9.17188 279.311 8.98047C279.572 8.78516 279.703 8.51367 279.703 8.16602C279.703 7.66602 279.225 7.32031 278.268 7.12891L278.221 7.11719L277.816 7.03516C277.195 6.91406 276.742 6.71094 276.457 6.42578C276.172 6.13672 276.029 5.74414 276.029 5.24805C276.029 4.61914 276.242 4.13477 276.668 3.79492C277.094 3.45117 277.701 3.2793 278.49 3.2793C278.842 3.2793 279.18 3.3125 279.504 3.37891C279.828 3.44141 280.146 3.53711 280.459 3.66602ZM285.275 0.882812H286.752V2.08984L285.598 4.33398H284.701L285.275 2.08984V0.882812ZM291.809 7.88477H293.637V9.4375L292.336 11.9629L291.164 11.9688L291.809 9.4375V7.88477Z" fill="#D28445"/>
<path d="M6.22852 19.8828V20.7793H5.00391C4.61719 20.7793 4.34766 20.8594 4.19531 21.0195C4.04688 21.1758 3.97266 21.4551 3.97266 21.8574V22.4375H6.22852V23.2754H3.97266V29H2.89453V23.2754H1.14258V22.4375H2.89453V21.9805C2.89453 21.2617 3.05859 20.7324 3.38672 20.3926C3.71875 20.0527 4.23438 19.8828 4.93359 19.8828H6.22852ZM13.793 25.1797V25.707H9.12305V25.7422C9.0918 26.6367 9.26172 27.2793 9.63281 27.6699C10.0078 28.0605 10.5352 28.2559 11.2148 28.2559C11.5586 28.2559 11.918 28.2012 12.293 28.0918C12.668 27.9824 13.0684 27.8164 13.4941 27.5938V28.666C13.084 28.834 12.6875 28.959 12.3047 29.041C11.9258 29.127 11.5586 29.1699 11.2031 29.1699C10.1836 29.1699 9.38672 28.8652 8.8125 28.2559C8.23828 27.6426 7.95117 26.7988 7.95117 25.7246C7.95117 24.6777 8.23242 23.8418 8.79492 23.2168C9.35742 22.5918 10.1074 22.2793 11.0449 22.2793C11.8809 22.2793 12.5391 22.5625 13.0195 23.1289C13.5039 23.6953 13.7617 24.3789 13.793 25.1797ZM12.7148 24.8633C12.668 24.4102 12.502 24.0195 12.2168 23.6914C11.9355 23.3594 11.5293 23.1934 10.998 23.1934C10.4785 23.1934 10.0508 23.3652 9.71484 23.709C9.37891 24.0527 9.19531 24.4395 9.16406 24.8691L12.7148 24.8633ZM18.5742 25.7012H18.2168C17.5879 25.7012 17.1133 25.8125 16.793 26.0352C16.4766 26.2539 16.3184 26.582 16.3184 27.0195C16.3184 27.4141 16.4375 27.7207 16.6758 27.9395C16.9141 28.1582 17.2441 28.2676 17.666 28.2676C18.2598 28.2676 18.7266 28.0625 19.0664 27.6523C19.4062 27.2383 19.5781 26.668 19.582 25.9414V25.7012H18.5742ZM20.666 25.2559V29H19.582V28.0273C19.3516 28.418 19.0605 28.707 18.709 28.8945C18.3613 29.0781 17.9375 29.1699 17.4375 29.1699C16.7695 29.1699 16.2363 28.9824 15.8379 28.6074C15.4395 28.2285 15.2402 27.7227 15.2402 27.0898C15.2402 26.3594 15.4844 25.8047 15.9727 25.4258C16.4648 25.0469 17.1855 24.8574 18.1348 24.8574H19.582V24.6875C19.5781 24.1641 19.4453 23.7852 19.1836 23.5508C18.9219 23.3125 18.5039 23.1934 17.9297 23.1934C17.5625 23.1934 17.1914 23.2461 16.8164 23.3516C16.4414 23.457 16.0762 23.6113 15.7207 23.8145V22.7363C16.1191 22.584 16.5 22.4707 16.8633 22.3965C17.2305 22.3184 17.5859 22.2793 17.9297 22.2793C18.4727 22.2793 18.9355 22.3594 19.3184 22.5195C19.7051 22.6797 20.0176 22.9199 20.2559 23.2402C20.4043 23.4355 20.5098 23.6777 20.5723 23.9668C20.6348 24.252 20.666 24.6816 20.666 25.2559ZM25.2891 20.5742V22.4375H27.7383V23.2754H25.2891V26.8379C25.2891 27.3223 25.3809 27.6602 25.5645 27.8516C25.748 28.043 26.0684 28.1387 26.5254 28.1387H27.7383V29H26.4199C25.6113 29 25.041 28.8379 24.709 28.5137C24.377 28.1895 24.2109 27.6309 24.2109 26.8379V23.2754H22.459V22.4375H24.2109V20.5742H25.2891ZM30.0645 26.5156V22.4492H31.1426V26.5156C31.1426 27.1055 31.2461 27.5391 31.4531 27.8164C31.6641 28.0938 31.9883 28.2324 32.4258 28.2324C32.9336 28.2324 33.3223 28.0547 33.5918 27.6992C33.8613 27.3398 33.9961 26.8262 33.9961 26.1582V22.4492H35.0801V29H33.9961V28.0156C33.8047 28.3945 33.543 28.6816 33.2109 28.877C32.8828 29.0723 32.498 29.1699 32.0566 29.1699C31.3848 29.1699 30.8848 28.9512 30.5566 28.5137C30.2285 28.0723 30.0645 27.4062 30.0645 26.5156ZM42.9199 23.791C42.6895 23.6113 42.4551 23.4805 42.2168 23.3984C41.9785 23.3164 41.7168 23.2754 41.4316 23.2754C40.7598 23.2754 40.2461 23.4863 39.8906 23.9082C39.5352 24.3301 39.3574 24.9395 39.3574 25.7363V29H38.2734V22.4375H39.3574V23.7207C39.5371 23.2559 39.8125 22.9004 40.1836 22.6543C40.5586 22.4043 41.002 22.2793 41.5137 22.2793C41.7793 22.2793 42.0273 22.3125 42.2578 22.3789C42.4883 22.4453 42.709 22.5488 42.9199 22.6895V23.791ZM49.9453 25.1797V25.707H45.2754V25.7422C45.2441 26.6367 45.4141 27.2793 45.7852 27.6699C46.1602 28.0605 46.6875 28.2559 47.3672 28.2559C47.7109 28.2559 48.0703 28.2012 48.4453 28.0918C48.8203 27.9824 49.2207 27.8164 49.6465 27.5938V28.666C49.2363 28.834 48.8398 28.959 48.457 29.041C48.0781 29.127 47.7109 29.1699 47.3555 29.1699C46.3359 29.1699 45.5391 28.8652 44.9648 28.2559C44.3906 27.6426 44.1035 26.7988 44.1035 25.7246C44.1035 24.6777 44.3848 23.8418 44.9473 23.2168C45.5098 22.5918 46.2598 22.2793 47.1973 22.2793C48.0332 22.2793 48.6914 22.5625 49.1719 23.1289C49.6562 23.6953 49.9141 24.3789 49.9453 25.1797ZM48.8672 24.8633C48.8203 24.4102 48.6543 24.0195 48.3691 23.6914C48.0879 23.3594 47.6816 23.1934 47.1504 23.1934C46.6309 23.1934 46.2031 23.3652 45.8672 23.709C45.5312 24.0527 45.3477 24.4395 45.3164 24.8691L48.8672 24.8633ZM57.7852 30.1133V31.1094H50.6133V30.1133H57.7852ZM60.0293 28.0039H64.0488V29H58.7344V28.0039C59.4648 27.2344 60.1035 26.5547 60.6504 25.9648C61.1973 25.375 61.5742 24.959 61.7812 24.7168C62.1719 24.2402 62.4355 23.8555 62.5723 23.5625C62.709 23.2656 62.7773 22.9629 62.7773 22.6543C62.7773 22.166 62.6328 21.7832 62.3438 21.5059C62.0586 21.2285 61.666 21.0898 61.166 21.0898C60.8105 21.0898 60.4375 21.1543 60.0469 21.2832C59.6562 21.4121 59.2422 21.6074 58.8047 21.8691V20.6738C59.207 20.4824 59.6016 20.3379 59.9883 20.2402C60.3789 20.1426 60.7637 20.0938 61.1426 20.0938C61.998 20.0938 62.6855 20.3223 63.2051 20.7793C63.7285 21.2324 63.9902 21.8281 63.9902 22.5664C63.9902 22.9414 63.9023 23.3164 63.7266 23.6914C63.5547 24.0664 63.2734 24.4805 62.8828 24.9336C62.6641 25.1875 62.3457 25.5391 61.9277 25.9883C61.5137 26.4375 60.8809 27.1094 60.0293 28.0039ZM65.5898 26.0703H71.7832V27.0605H65.5898V26.0703ZM65.5898 23.3105H71.7832V24.3008H65.5898V23.3105ZM75.5918 19.8828H77.0684V21.0898L75.9141 23.334H75.0176L75.5918 21.0898V19.8828ZM85.6934 24.9336V29H84.6094V24.9336C84.6094 24.3438 84.5059 23.9102 84.2988 23.6328C84.0918 23.3555 83.7676 23.2168 83.3262 23.2168C82.8223 23.2168 82.4336 23.3965 82.1602 23.7559C81.8906 24.1113 81.7559 24.623 81.7559 25.291V29H80.6777V19.8828H81.7559V23.4219C81.9473 23.0469 82.207 22.7637 82.5352 22.5723C82.8633 22.377 83.252 22.2793 83.7012 22.2793C84.3691 22.2793 84.8672 22.5 85.1953 22.9414C85.5273 23.3789 85.6934 24.043 85.6934 24.9336ZM90.375 23.1934C89.8281 23.1934 89.4141 23.4062 89.1328 23.832C88.8516 24.2578 88.7109 24.8887 88.7109 25.7246C88.7109 26.5566 88.8516 27.1875 89.1328 27.6172C89.4141 28.043 89.8281 28.2559 90.375 28.2559C90.9258 28.2559 91.3418 28.043 91.623 27.6172C91.9043 27.1875 92.0449 26.5566 92.0449 25.7246C92.0449 24.8887 91.9043 24.2578 91.623 23.832C91.3418 23.4062 90.9258 23.1934 90.375 23.1934ZM90.375 22.2793C91.2852 22.2793 91.9805 22.5742 92.4609 23.1641C92.9453 23.7539 93.1875 24.6074 93.1875 25.7246C93.1875 26.8457 92.9473 27.7012 92.4668 28.291C91.9863 28.877 91.2891 29.1699 90.375 29.1699C89.4648 29.1699 88.7695 28.877 88.2891 28.291C87.8086 27.7012 87.5684 26.8457 87.5684 25.7246C87.5684 24.6074 87.8086 23.7539 88.2891 23.1641C88.7695 22.5742 89.4648 22.2793 90.375 22.2793ZM95.1387 26.5156V22.4492H96.2168V26.5156C96.2168 27.1055 96.3203 27.5391 96.5273 27.8164C96.7383 28.0938 97.0625 28.2324 97.5 28.2324C98.0078 28.2324 98.3965 28.0547 98.666 27.6992C98.9355 27.3398 99.0703 26.8262 99.0703 26.1582V22.4492H100.154V29H99.0703V28.0156C98.8789 28.3945 98.6172 28.6816 98.2852 28.877C97.957 29.0723 97.5723 29.1699 97.1309 29.1699C96.459 29.1699 95.959 28.9512 95.6309 28.5137C95.3027 28.0723 95.1387 27.4062 95.1387 26.5156ZM107.994 23.791C107.764 23.6113 107.529 23.4805 107.291 23.3984C107.053 23.3164 106.791 23.2754 106.506 23.2754C105.834 23.2754 105.32 23.4863 104.965 23.9082C104.609 24.3301 104.432 24.9395 104.432 25.7363V29H103.348V22.4375H104.432V23.7207C104.611 23.2559 104.887 22.9004 105.258 22.6543C105.633 22.4043 106.076 22.2793 106.588 22.2793C106.854 22.2793 107.102 22.3125 107.332 22.3789C107.562 22.4453 107.783 22.5488 107.994 22.6895V23.791ZM114.158 22.666V23.7207C113.85 23.541 113.539 23.4062 113.227 23.3164C112.914 23.2266 112.596 23.1816 112.271 23.1816C111.783 23.1816 111.418 23.2617 111.176 23.4219C110.938 23.5781 110.818 23.8184 110.818 24.1426C110.818 24.4355 110.908 24.6543 111.088 24.7988C111.268 24.9434 111.715 25.084 112.43 25.2207L112.863 25.3027C113.398 25.4043 113.803 25.6074 114.076 25.9121C114.354 26.2168 114.492 26.6133 114.492 27.1016C114.492 27.75 114.262 28.2578 113.801 28.625C113.34 28.9883 112.699 29.1699 111.879 29.1699C111.555 29.1699 111.215 29.1348 110.859 29.0645C110.504 28.998 110.119 28.8965 109.705 28.7598V27.6465C110.107 27.8535 110.492 28.0098 110.859 28.1152C111.227 28.2168 111.574 28.2676 111.902 28.2676C112.379 28.2676 112.748 28.1719 113.01 27.9805C113.271 27.7852 113.402 27.5137 113.402 27.166C113.402 26.666 112.924 26.3203 111.967 26.1289L111.92 26.1172L111.516 26.0352C110.895 25.9141 110.441 25.7109 110.156 25.4258C109.871 25.1367 109.729 24.7441 109.729 24.248C109.729 23.6191 109.941 23.1348 110.367 22.7949C110.793 22.4512 111.4 22.2793 112.189 22.2793C112.541 22.2793 112.879 22.3125 113.203 22.3789C113.527 22.4414 113.846 22.5371 114.158 22.666ZM116.285 24.7578H122.496V25.748H116.285V24.7578ZM125.115 28.1738V31.4961H124.031V22.4375H125.115V23.2754C125.295 22.9512 125.533 22.7051 125.83 22.5371C126.131 22.3652 126.477 22.2793 126.867 22.2793C127.66 22.2793 128.281 22.5859 128.73 23.1992C129.184 23.8125 129.41 24.6621 129.41 25.748C129.41 26.8145 129.184 27.6523 128.73 28.2617C128.277 28.8672 127.656 29.1699 126.867 29.1699C126.469 29.1699 126.119 29.0859 125.818 28.918C125.521 28.7461 125.287 28.498 125.115 28.1738ZM128.279 25.7246C128.279 24.8887 128.146 24.2578 127.881 23.832C127.619 23.4062 127.229 23.1934 126.709 23.1934C126.186 23.1934 125.789 23.4082 125.52 23.8379C125.25 24.2637 125.115 24.8926 125.115 25.7246C125.115 26.5527 125.25 27.1816 125.52 27.6113C125.789 28.041 126.186 28.2559 126.709 28.2559C127.229 28.2559 127.619 28.043 127.881 27.6172C128.146 27.1914 128.279 26.5605 128.279 25.7246ZM136.711 25.1797V25.707H132.041V25.7422C132.01 26.6367 132.18 27.2793 132.551 27.6699C132.926 28.0605 133.453 28.2559 134.133 28.2559C134.477 28.2559 134.836 28.2012 135.211 28.0918C135.586 27.9824 135.986 27.8164 136.412 27.5938V28.666C136.002 28.834 135.605 28.959 135.223 29.041C134.844 29.127 134.477 29.1699 134.121 29.1699C133.102 29.1699 132.305 28.8652 131.73 28.2559C131.156 27.6426 130.869 26.7988 130.869 25.7246C130.869 24.6777 131.15 23.8418 131.713 23.2168C132.275 22.5918 133.025 22.2793 133.963 22.2793C134.799 22.2793 135.457 22.5625 135.938 23.1289C136.422 23.6953 136.68 24.3789 136.711 25.1797ZM135.633 24.8633C135.586 24.4102 135.42 24.0195 135.135 23.6914C134.854 23.3594 134.447 23.1934 133.916 23.1934C133.396 23.1934 132.969 23.3652 132.633 23.709C132.297 24.0527 132.113 24.4395 132.082 24.8691L135.633 24.8633ZM144.146 23.791C143.916 23.6113 143.682 23.4805 143.443 23.3984C143.205 23.3164 142.943 23.2754 142.658 23.2754C141.986 23.2754 141.473 23.4863 141.117 23.9082C140.762 24.3301 140.584 24.9395 140.584 25.7363V29H139.5V22.4375H140.584V23.7207C140.764 23.2559 141.039 22.9004 141.41 22.6543C141.785 22.4043 142.229 22.2793 142.74 22.2793C143.006 22.2793 143.254 22.3125 143.484 22.3789C143.715 22.4453 143.936 22.5488 144.146 22.6895V23.791ZM145.207 24.7578H151.418V25.748H145.207V24.7578ZM151.84 22.4375H152.906L154.049 27.7402L154.986 24.3535H155.906L156.855 27.7402L157.998 22.4375H159.064L157.529 29H156.498L155.449 25.4023L154.406 29H153.375L151.84 22.4375ZM165.633 25.1797V25.707H160.963V25.7422C160.932 26.6367 161.102 27.2793 161.473 27.6699C161.848 28.0605 162.375 28.2559 163.055 28.2559C163.398 28.2559 163.758 28.2012 164.133 28.0918C164.508 27.9824 164.908 27.8164 165.334 27.5938V28.666C164.924 28.834 164.527 28.959 164.145 29.041C163.766 29.127 163.398 29.1699 163.043 29.1699C162.023 29.1699 161.227 28.8652 160.652 28.2559C160.078 27.6426 159.791 26.7988 159.791 25.7246C159.791 24.6777 160.072 23.8418 160.635 23.2168C161.197 22.5918 161.947 22.2793 162.885 22.2793C163.721 22.2793 164.379 22.5625 164.859 23.1289C165.344 23.6953 165.602 24.3789 165.633 25.1797ZM164.555 24.8633C164.508 24.4102 164.342 24.0195 164.057 23.6914C163.775 23.3594 163.369 23.1934 162.838 23.1934C162.318 23.1934 161.891 23.3652 161.555 23.709C161.219 24.0527 161.035 24.4395 161.004 24.8691L164.555 24.8633ZM172.863 25.1797V25.707H168.193V25.7422C168.162 26.6367 168.332 27.2793 168.703 27.6699C169.078 28.0605 169.605 28.2559 170.285 28.2559C170.629 28.2559 170.988 28.2012 171.363 28.0918C171.738 27.9824 172.139 27.8164 172.564 27.5938V28.666C172.154 28.834 171.758 28.959 171.375 29.041C170.996 29.127 170.629 29.1699 170.273 29.1699C169.254 29.1699 168.457 28.8652 167.883 28.2559C167.309 27.6426 167.021 26.7988 167.021 25.7246C167.021 24.6777 167.303 23.8418 167.865 23.2168C168.428 22.5918 169.178 22.2793 170.115 22.2793C170.951 22.2793 171.609 22.5625 172.09 23.1289C172.574 23.6953 172.832 24.3789 172.863 25.1797ZM171.785 24.8633C171.738 24.4102 171.572 24.0195 171.287 23.6914C171.006 23.3594 170.6 23.1934 170.068 23.1934C169.549 23.1934 169.121 23.3652 168.785 23.709C168.449 24.0527 168.266 24.4395 168.234 24.8691L171.785 24.8633ZM174.914 19.8828H176.027V25.1621L178.857 22.4375H180.17L177.586 24.9102L180.574 29H179.256L176.83 25.6133L176.027 26.3691V29H174.914V19.8828ZM184.049 19.8828H185.525V21.0898L184.371 23.334H183.475L184.049 21.0898V19.8828ZM190.031 19.3086H190.969C191.559 20.2305 191.998 21.1328 192.287 22.0156C192.576 22.8984 192.721 23.7754 192.721 24.6465C192.721 25.5254 192.576 26.4062 192.287 27.2891C191.998 28.1719 191.559 29.0742 190.969 29.9961H190.031C190.551 29.0898 190.938 28.1934 191.191 27.3066C191.449 26.4199 191.578 25.5332 191.578 24.6465C191.578 23.7559 191.449 22.8672 191.191 21.9805C190.938 21.0938 190.551 20.2031 190.031 19.3086ZM2.2793 45.6328H4.3418V48H2.2793V45.6328ZM13.998 42.791C13.7676 42.6113 13.5332 42.4805 13.2949 42.3984C13.0566 42.3164 12.7949 42.2754 12.5098 42.2754C11.8379 42.2754 11.3242 42.4863 10.9688 42.9082C10.6133 43.3301 10.4355 43.9395 10.4355 44.7363V48H9.35156V41.4375H10.4355V42.7207C10.6152 42.2559 10.8906 41.9004 11.2617 41.6543C11.6367 41.4043 12.0801 41.2793 12.5918 41.2793C12.8574 41.2793 13.1055 41.3125 13.3359 41.3789C13.5664 41.4453 13.7871 41.5488 13.998 41.6895V42.791ZM15.6035 45.5156V41.4492H16.6816V45.5156C16.6816 46.1055 16.7852 46.5391 16.9922 46.8164C17.2031 47.0938 17.5273 47.2324 17.9648 47.2324C18.4727 47.2324 18.8613 47.0547 19.1309 46.6992C19.4004 46.3398 19.5352 45.8262 19.5352 45.1582V41.4492H20.6191V48H19.5352V47.0156C19.3438 47.3945 19.082 47.6816 18.75 47.877C18.4219 48.0723 18.0371 48.1699 17.5957 48.1699C16.9238 48.1699 16.4238 47.9512 16.0957 47.5137C15.7676 47.0723 15.6035 46.4062 15.6035 45.5156ZM27.8496 43.9336V48H26.7656V43.9336C26.7656 43.3438 26.6621 42.9102 26.4551 42.6328C26.248 42.3555 25.9238 42.2168 25.4824 42.2168C24.9785 42.2168 24.5898 42.3965 24.3164 42.7559C24.0469 43.1113 23.9121 43.623 23.9121 44.291V48H22.834V41.4375H23.9121V42.4219C24.1035 42.0469 24.3633 41.7637 24.6914 41.5723C25.0195 41.377 25.4082 41.2793 25.8574 41.2793C26.5254 41.2793 27.0234 41.5 27.3516 41.9414C27.6836 42.3789 27.8496 43.043 27.8496 43.9336ZM33.9316 38.3086C33.4121 39.1992 33.0234 40.0879 32.7656 40.9746C32.5117 41.8574 32.3848 42.748 32.3848 43.6465C32.3848 44.541 32.5117 45.4316 32.7656 46.3184C33.0234 47.2051 33.4121 48.0977 33.9316 48.9961H32.9941C32.4043 48.0664 31.9648 47.1621 31.6758 46.2832C31.3867 45.4004 31.2422 44.5215 31.2422 43.6465C31.2422 42.7754 31.3867 41.8984 31.6758 41.0156C31.9648 40.1328 32.4043 39.2305 32.9941 38.3086H33.9316ZM36.7383 41.4375H37.8574L39.7617 46.9453L41.6719 41.4375H42.791L40.459 48H39.0703L36.7383 41.4375ZM47.4961 44.7012H47.1387C46.5098 44.7012 46.0352 44.8125 45.7148 45.0352C45.3984 45.2539 45.2402 45.582 45.2402 46.0195C45.2402 46.4141 45.3594 46.7207 45.5977 46.9395C45.8359 47.1582 46.166 47.2676 46.5879 47.2676C47.1816 47.2676 47.6484 47.0625 47.9883 46.6523C48.3281 46.2383 48.5 45.668 48.5039 44.9414V44.7012H47.4961ZM49.5879 44.2559V48H48.5039V47.0273C48.2734 47.418 47.9824 47.707 47.6309 47.8945C47.2832 48.0781 46.8594 48.1699 46.3594 48.1699C45.6914 48.1699 45.1582 47.9824 44.7598 47.6074C44.3613 47.2285 44.1621 46.7227 44.1621 46.0898C44.1621 45.3594 44.4062 44.8047 44.8945 44.4258C45.3867 44.0469 46.1074 43.8574 47.0566 43.8574H48.5039V43.6875C48.5 43.1641 48.3672 42.7852 48.1055 42.5508C47.8438 42.3125 47.4258 42.1934 46.8516 42.1934C46.4844 42.1934 46.1133 42.2461 45.7383 42.3516C45.3633 42.457 44.998 42.6113 44.6426 42.8145V41.7363C45.041 41.584 45.4219 41.4707 45.7852 41.3965C46.1523 41.3184 46.5078 41.2793 46.8516 41.2793C47.3945 41.2793 47.8574 41.3594 48.2402 41.5195C48.627 41.6797 48.9395 41.9199 49.1777 42.2402C49.3262 42.4355 49.4316 42.6777 49.4941 42.9668C49.5566 43.252 49.5879 43.6816 49.5879 44.2559ZM54.8262 45.627C54.8262 46.1113 54.9141 46.4766 55.0898 46.7227C55.2695 46.9688 55.5332 47.0918 55.8809 47.0918H57.1406V48H55.7754C55.1309 48 54.6309 47.7949 54.2754 47.3848C53.9238 46.9707 53.748 46.3848 53.748 45.627V39.6914H52.0195V38.8477H54.8262V45.627ZM59.6953 41.4609H62.4551V47.1621H64.5938V48H59.2383V47.1621H61.377V42.2988H59.6953V41.4609ZM61.377 38.9121H62.4551V40.2715H61.377V38.9121ZM70.1016 42.2754V38.8828H71.1797V48H70.1016V47.1738C69.9219 47.498 69.6816 47.7461 69.3809 47.918C69.084 48.0859 68.7402 48.1699 68.3496 48.1699C67.5566 48.1699 66.9316 47.8633 66.4746 47.25C66.0215 46.6328 65.7949 45.7832 65.7949 44.7012C65.7949 43.6348 66.0234 42.7988 66.4805 42.1934C66.9375 41.584 67.5605 41.2793 68.3496 41.2793C68.7441 41.2793 69.0918 41.3652 69.3926 41.5371C69.6934 41.7051 69.9297 41.9512 70.1016 42.2754ZM66.9316 44.7246C66.9316 45.5605 67.0645 46.1914 67.3301 46.6172C67.5957 47.043 67.9883 47.2559 68.5078 47.2559C69.0273 47.2559 69.4219 47.041 69.6914 46.6113C69.9648 46.1816 70.1016 45.5527 70.1016 44.7246C70.1016 43.8926 69.9648 43.2637 69.6914 42.8379C69.4219 42.4082 69.0273 42.1934 68.5078 42.1934C67.9883 42.1934 67.5957 42.4062 67.3301 42.832C67.0645 43.2578 66.9316 43.8887 66.9316 44.7246ZM76.418 44.7012H76.0605C75.4316 44.7012 74.957 44.8125 74.6367 45.0352C74.3203 45.2539 74.1621 45.582 74.1621 46.0195C74.1621 46.4141 74.2812 46.7207 74.5195 46.9395C74.7578 47.1582 75.0879 47.2676 75.5098 47.2676C76.1035 47.2676 76.5703 47.0625 76.9102 46.6523C77.25 46.2383 77.4219 45.668 77.4258 44.9414V44.7012H76.418ZM78.5098 44.2559V48H77.4258V47.0273C77.1953 47.418 76.9043 47.707 76.5527 47.8945C76.2051 48.0781 75.7812 48.1699 75.2812 48.1699C74.6133 48.1699 74.0801 47.9824 73.6816 47.6074C73.2832 47.2285 73.084 46.7227 73.084 46.0898C73.084 45.3594 73.3281 44.8047 73.8164 44.4258C74.3086 44.0469 75.0293 43.8574 75.9785 43.8574H77.4258V43.6875C77.4219 43.1641 77.2891 42.7852 77.0273 42.5508C76.7656 42.3125 76.3477 42.1934 75.7734 42.1934C75.4062 42.1934 75.0352 42.2461 74.6602 42.3516C74.2852 42.457 73.9199 42.6113 73.5645 42.8145V41.7363C73.9629 41.584 74.3438 41.4707 74.707 41.3965C75.0742 41.3184 75.4297 41.2793 75.7734 41.2793C76.3164 41.2793 76.7793 41.3594 77.1621 41.5195C77.5488 41.6797 77.8613 41.9199 78.0996 42.2402C78.248 42.4355 78.3535 42.6777 78.416 42.9668C78.4785 43.252 78.5098 43.6816 78.5098 44.2559ZM83.1328 39.5742V41.4375H85.582V42.2754H83.1328V45.8379C83.1328 46.3223 83.2246 46.6602 83.4082 46.8516C83.5918 47.043 83.9121 47.1387 84.3691 47.1387H85.582V48H84.2637C83.4551 48 82.8848 47.8379 82.5527 47.5137C82.2207 47.1895 82.0547 46.6309 82.0547 45.8379V42.2754H80.3027V41.4375H82.0547V39.5742H83.1328ZM88.6172 41.4609H91.377V47.1621H93.5156V48H88.1602V47.1621H90.2988V42.2988H88.6172V41.4609ZM90.2988 38.9121H91.377V40.2715H90.2988V38.9121ZM97.6055 42.1934C97.0586 42.1934 96.6445 42.4062 96.3633 42.832C96.082 43.2578 95.9414 43.8887 95.9414 44.7246C95.9414 45.5566 96.082 46.1875 96.3633 46.6172C96.6445 47.043 97.0586 47.2559 97.6055 47.2559C98.1562 47.2559 98.5723 47.043 98.8535 46.6172C99.1348 46.1875 99.2754 45.5566 99.2754 44.7246C99.2754 43.8887 99.1348 43.2578 98.8535 42.832C98.5723 42.4062 98.1562 42.1934 97.6055 42.1934ZM97.6055 41.2793C98.5156 41.2793 99.2109 41.5742 99.6914 42.1641C100.176 42.7539 100.418 43.6074 100.418 44.7246C100.418 45.8457 100.178 46.7012 99.6973 47.291C99.2168 47.877 98.5195 48.1699 97.6055 48.1699C96.6953 48.1699 96 47.877 95.5195 47.291C95.0391 46.7012 94.7988 45.8457 94.7988 44.7246C94.7988 43.6074 95.0391 42.7539 95.5195 42.1641C96 41.5742 96.6953 41.2793 97.6055 41.2793ZM107.385 43.9336V48H106.301V43.9336C106.301 43.3438 106.197 42.9102 105.99 42.6328C105.783 42.3555 105.459 42.2168 105.018 42.2168C104.514 42.2168 104.125 42.3965 103.852 42.7559C103.582 43.1113 103.447 43.623 103.447 44.291V48H102.369V41.4375H103.447V42.4219C103.639 42.0469 103.898 41.7637 104.227 41.5723C104.555 41.377 104.943 41.2793 105.393 41.2793C106.061 41.2793 106.559 41.5 106.887 41.9414C107.219 42.3789 107.385 43.043 107.385 43.9336ZM115.629 49.1133V50.1094H108.457V49.1133H115.629ZM120.715 42.2754V38.8828H121.793V48H120.715V47.1738C120.535 47.498 120.295 47.7461 119.994 47.918C119.697 48.0859 119.354 48.1699 118.963 48.1699C118.17 48.1699 117.545 47.8633 117.088 47.25C116.635 46.6328 116.408 45.7832 116.408 44.7012C116.408 43.6348 116.637 42.7988 117.094 42.1934C117.551 41.584 118.174 41.2793 118.963 41.2793C119.357 41.2793 119.705 41.3652 120.006 41.5371C120.307 41.7051 120.543 41.9512 120.715 42.2754ZM117.545 44.7246C117.545 45.5605 117.678 46.1914 117.943 46.6172C118.209 47.043 118.602 47.2559 119.121 47.2559C119.641 47.2559 120.035 47.041 120.305 46.6113C120.578 46.1816 120.715 45.5527 120.715 44.7246C120.715 43.8926 120.578 43.2637 120.305 42.8379C120.035 42.4082 119.641 42.1934 119.121 42.1934C118.602 42.1934 118.209 42.4062 117.943 42.832C117.678 43.2578 117.545 43.8887 117.545 44.7246ZM128.619 41.666V42.7207C128.311 42.541 128 42.4062 127.688 42.3164C127.375 42.2266 127.057 42.1816 126.732 42.1816C126.244 42.1816 125.879 42.2617 125.637 42.4219C125.398 42.5781 125.279 42.8184 125.279 43.1426C125.279 43.4355 125.369 43.6543 125.549 43.7988C125.729 43.9434 126.176 44.084 126.891 44.2207L127.324 44.3027C127.859 44.4043 128.264 44.6074 128.537 44.9121C128.814 45.2168 128.953 45.6133 128.953 46.1016C128.953 46.75 128.723 47.2578 128.262 47.625C127.801 47.9883 127.16 48.1699 126.34 48.1699C126.016 48.1699 125.676 48.1348 125.32 48.0645C124.965 47.998 124.58 47.8965 124.166 47.7598V46.6465C124.568 46.8535 124.953 47.0098 125.32 47.1152C125.688 47.2168 126.035 47.2676 126.363 47.2676C126.84 47.2676 127.209 47.1719 127.471 46.9805C127.732 46.7852 127.863 46.5137 127.863 46.166C127.863 45.666 127.385 45.3203 126.428 45.1289L126.381 45.1172L125.977 45.0352C125.355 44.9141 124.902 44.7109 124.617 44.4258C124.332 44.1367 124.189 43.7441 124.189 43.248C124.189 42.6191 124.402 42.1348 124.828 41.7949C125.254 41.4512 125.861 41.2793 126.65 41.2793C127.002 41.2793 127.34 41.3125 127.664 41.3789C127.988 41.4414 128.307 41.5371 128.619 41.666ZM132.738 45.8848H134.566V47.4375L133.266 49.9629L132.094 49.9688L132.738 47.4375V45.8848ZM148.57 42.1055C148.703 41.8242 148.871 41.6172 149.074 41.4844C149.281 41.3477 149.529 41.2793 149.818 41.2793C150.346 41.2793 150.717 41.4844 150.932 41.8945C151.15 42.3008 151.26 43.0684 151.26 44.1973V48H150.275V44.2441C150.275 43.3184 150.223 42.7441 150.117 42.5215C150.016 42.2949 149.828 42.1816 149.555 42.1816C149.242 42.1816 149.027 42.3027 148.91 42.5449C148.797 42.7832 148.74 43.3496 148.74 44.2441V48H147.756V44.2441C147.756 43.3066 147.699 42.7285 147.586 42.5098C147.477 42.291 147.277 42.1816 146.988 42.1816C146.703 42.1816 146.504 42.3027 146.391 42.5449C146.281 42.7832 146.227 43.3496 146.227 44.2441V48H145.248V41.4375H146.227V42C146.355 41.7656 146.516 41.5879 146.707 41.4668C146.902 41.3418 147.123 41.2793 147.369 41.2793C147.666 41.2793 147.912 41.3477 148.107 41.4844C148.307 41.6211 148.461 41.8281 148.57 42.1055ZM155.449 42.1934C154.902 42.1934 154.488 42.4062 154.207 42.832C153.926 43.2578 153.785 43.8887 153.785 44.7246C153.785 45.5566 153.926 46.1875 154.207 46.6172C154.488 47.043 154.902 47.2559 155.449 47.2559C156 47.2559 156.416 47.043 156.697 46.6172C156.979 46.1875 157.119 45.5566 157.119 44.7246C157.119 43.8887 156.979 43.2578 156.697 42.832C156.416 42.4062 156 42.1934 155.449 42.1934ZM155.449 41.2793C156.359 41.2793 157.055 41.5742 157.535 42.1641C158.02 42.7539 158.262 43.6074 158.262 44.7246C158.262 45.8457 158.021 46.7012 157.541 47.291C157.061 47.877 156.363 48.1699 155.449 48.1699C154.539 48.1699 153.844 47.877 153.363 47.291C152.883 46.7012 152.643 45.8457 152.643 44.7246C152.643 43.6074 152.883 42.7539 153.363 42.1641C153.844 41.5742 154.539 41.2793 155.449 41.2793ZM164.098 42.2754V38.8828H165.176V48H164.098V47.1738C163.918 47.498 163.678 47.7461 163.377 47.918C163.08 48.0859 162.736 48.1699 162.346 48.1699C161.553 48.1699 160.928 47.8633 160.471 47.25C160.018 46.6328 159.791 45.7832 159.791 44.7012C159.791 43.6348 160.02 42.7988 160.477 42.1934C160.934 41.584 161.557 41.2793 162.346 41.2793C162.74 41.2793 163.088 41.3652 163.389 41.5371C163.689 41.7051 163.926 41.9512 164.098 42.2754ZM160.928 44.7246C160.928 45.5605 161.061 46.1914 161.326 46.6172C161.592 47.043 161.984 47.2559 162.504 47.2559C163.023 47.2559 163.418 47.041 163.688 46.6113C163.961 46.1816 164.098 45.5527 164.098 44.7246C164.098 43.8926 163.961 43.2637 163.688 42.8379C163.418 42.4082 163.023 42.1934 162.504 42.1934C161.984 42.1934 161.592 42.4062 161.326 42.832C161.061 43.2578 160.928 43.8887 160.928 44.7246ZM172.863 44.1797V44.707H168.193V44.7422C168.162 45.6367 168.332 46.2793 168.703 46.6699C169.078 47.0605 169.605 47.2559 170.285 47.2559C170.629 47.2559 170.988 47.2012 171.363 47.0918C171.738 46.9824 172.139 46.8164 172.564 46.5938V47.666C172.154 47.834 171.758 47.959 171.375 48.041C170.996 48.127 170.629 48.1699 170.273 48.1699C169.254 48.1699 168.457 47.8652 167.883 47.2559C167.309 46.6426 167.021 45.7988 167.021 44.7246C167.021 43.6777 167.303 42.8418 167.865 42.2168C168.428 41.5918 169.178 41.2793 170.115 41.2793C170.951 41.2793 171.609 41.5625 172.09 42.1289C172.574 42.6953 172.832 43.3789 172.863 44.1797ZM171.785 43.8633C171.738 43.4102 171.572 43.0195 171.287 42.6914C171.006 42.3594 170.6 42.1934 170.068 42.1934C169.549 42.1934 169.121 42.3652 168.785 42.709C168.449 43.0527 168.266 43.4395 168.234 43.8691L171.785 43.8633ZM177.744 45.627C177.744 46.1113 177.832 46.4766 178.008 46.7227C178.188 46.9688 178.451 47.0918 178.799 47.0918H180.059V48H178.693C178.049 48 177.549 47.7949 177.193 47.3848C176.842 46.9707 176.666 46.3848 176.666 45.627V39.6914H174.938V38.8477H177.744V45.627ZM182.801 38.3086H183.738C184.328 39.2305 184.768 40.1328 185.057 41.0156C185.346 41.8984 185.49 42.7754 185.49 43.6465C185.49 44.5254 185.346 45.4062 185.057 46.2891C184.768 47.1719 184.328 48.0742 183.738 48.9961H182.801C183.32 48.0898 183.707 47.1934 183.961 46.3066C184.219 45.4199 184.348 44.5332 184.348 43.6465C184.348 42.7559 184.219 41.8672 183.961 40.9805C183.707 40.0938 183.32 39.2031 182.801 38.3086Z" fill="#303245"/>
</svg>
