<svg width="317" height="51" viewBox="0 0 317 51" fill="none" xmlns="http://www.w3.org/2000/svg">
<path d="M0.177734 1.25195H5.03516V2.24805H3.20117V9.00391H5.03516V10H0.177734V9.00391H2.01172V2.24805H0.177734V1.25195ZM12.3887 5.93359V10H11.3047V5.93359C11.3047 5.34375 11.2012 4.91016 10.9941 4.63281C10.7871 4.35547 10.4629 4.2168 10.0215 4.2168C9.51758 4.2168 9.12891 4.39648 8.85547 4.75586C8.58594 5.11133 8.45117 5.62305 8.45117 6.29102V10H7.37305V3.4375H8.45117V4.42188C8.64258 4.04688 8.90234 3.76367 9.23047 3.57227C9.55859 3.37695 9.94727 3.2793 10.3965 3.2793C11.0645 3.2793 11.5625 3.5 11.8906 3.94141C12.2227 4.37891 12.3887 5.04297 12.3887 5.93359ZM17.0586 1.57422V3.4375H19.5078V4.27539H17.0586V7.83789C17.0586 8.32227 17.1504 8.66016 17.334 8.85156C17.5176 9.04297 17.8379 9.13867 18.2949 9.13867H19.5078V10H18.1895C17.3809 10 16.8105 9.83789 16.4785 9.51367C16.1465 9.18945 15.9805 8.63086 15.9805 7.83789V4.27539H14.2285V3.4375H15.9805V1.57422H17.0586ZM27.2539 6.17969V6.70703H22.584V6.74219C22.5527 7.63672 22.7227 8.2793 23.0938 8.66992C23.4688 9.06055 23.9961 9.25586 24.6758 9.25586C25.0195 9.25586 25.3789 9.20117 25.7539 9.0918C26.1289 8.98242 26.5293 8.81641 26.9551 8.59375V9.66602C26.5449 9.83398 26.1484 9.95898 25.7656 10.041C25.3867 10.127 25.0195 10.1699 24.6641 10.1699C23.6445 10.1699 22.8477 9.86523 22.2734 9.25586C21.6992 8.64258 21.4121 7.79883 21.4121 6.72461C21.4121 5.67773 21.6934 4.8418 22.2559 4.2168C22.8184 3.5918 23.5684 3.2793 24.5059 3.2793C25.3418 3.2793 26 3.5625 26.4805 4.12891C26.9648 4.69531 27.2227 5.37891 27.2539 6.17969ZM26.1758 5.86328C26.1289 5.41016 25.9629 5.01953 25.6777 4.69141C25.3965 4.35938 24.9902 4.19336 24.459 4.19336C23.9395 4.19336 23.5117 4.36523 23.1758 4.70898C22.8398 5.05273 22.6562 5.43945 22.625 5.86914L26.1758 5.86328ZM32.9492 6.66602C32.9492 5.85742 32.8164 5.24414 32.5508 4.82617C32.2891 4.4043 31.9062 4.19336 31.4023 4.19336C30.875 4.19336 30.4727 4.4043 30.1953 4.82617C29.918 5.24414 29.7793 5.85742 29.7793 6.66602C29.7793 7.47461 29.918 8.0918 30.1953 8.51758C30.4766 8.93945 30.8828 9.15039 31.4141 9.15039C31.9102 9.15039 32.2891 8.9375 32.5508 8.51172C32.8164 8.08594 32.9492 7.4707 32.9492 6.66602ZM34.0273 9.57812C34.0273 10.5625 33.7949 11.3086 33.3301 11.8164C32.8652 12.3242 32.1816 12.5781 31.2793 12.5781C30.9824 12.5781 30.6719 12.5508 30.3477 12.4961C30.0234 12.4414 29.6992 12.3613 29.375 12.2559V11.1895C29.7578 11.3691 30.1055 11.502 30.418 11.5879C30.7305 11.6738 31.0176 11.7168 31.2793 11.7168C31.8613 11.7168 32.2852 11.5586 32.5508 11.2422C32.8164 10.9258 32.9492 10.4238 32.9492 9.73633V9.68945V8.95703C32.7773 9.32422 32.543 9.59766 32.2461 9.77734C31.9492 9.95703 31.5879 10.0469 31.1621 10.0469C30.3965 10.0469 29.7852 9.74023 29.3281 9.12695C28.8711 8.51367 28.6426 7.69336 28.6426 6.66602C28.6426 5.63477 28.8711 4.8125 29.3281 4.19922C29.7852 3.58594 30.3965 3.2793 31.1621 3.2793C31.584 3.2793 31.9414 3.36328 32.2344 3.53125C32.5273 3.69922 32.7656 3.95898 32.9492 4.31055V3.46094H34.0273V9.57812ZM41.9199 4.79102C41.6895 4.61133 41.4551 4.48047 41.2168 4.39844C40.9785 4.31641 40.7168 4.27539 40.4316 4.27539C39.7598 4.27539 39.2461 4.48633 38.8906 4.9082C38.5352 5.33008 38.3574 5.93945 38.3574 6.73633V10H37.2734V3.4375H38.3574V4.7207C38.5371 4.25586 38.8125 3.90039 39.1836 3.6543C39.5586 3.4043 40.002 3.2793 40.5137 3.2793C40.7793 3.2793 41.0273 3.3125 41.2578 3.37891C41.4883 3.44531 41.709 3.54883 41.9199 3.68945V4.79102ZM44.2344 3.46094H46.9941V9.16211H49.1328V10H43.7773V9.16211H45.916V4.29883H44.2344V3.46094ZM45.916 0.912109H46.9941V2.27148H45.916V0.912109ZM53.2109 1.57422V3.4375H55.6602V4.27539H53.2109V7.83789C53.2109 8.32227 53.3027 8.66016 53.4863 8.85156C53.6699 9.04297 53.9902 9.13867 54.4473 9.13867H55.6602V10H54.3418C53.5332 10 52.9629 9.83789 52.6309 9.51367C52.2988 9.18945 52.1328 8.63086 52.1328 7.83789V4.27539H50.3809V3.4375H52.1328V1.57422H53.2109ZM61.8711 7.89062C61.6914 8.34766 61.4629 8.94922 61.1855 9.69531C60.7988 10.7266 60.5391 11.3555 60.4062 11.582C60.2266 11.8867 60.002 12.1152 59.7324 12.2676C59.4629 12.4199 59.1484 12.4961 58.7891 12.4961H57.9219V11.5938H58.5605C58.877 11.5938 59.125 11.502 59.3047 11.3184C59.4844 11.1348 59.7129 10.6602 59.9902 9.89453L57.4531 3.4375H58.5957L60.541 8.57031L62.457 3.4375H63.5996L61.8711 7.89062ZM70.3613 9.68945C70.0605 9.84961 69.752 9.96875 69.4355 10.0469C69.1191 10.1289 68.7832 10.1699 68.4277 10.1699C67.3066 10.1699 66.4355 9.77344 65.8145 8.98047C65.1973 8.1875 64.8887 7.07227 64.8887 5.63477C64.8887 4.20508 65.1992 3.0918 65.8203 2.29492C66.4453 1.49414 67.3145 1.09375 68.4277 1.09375C68.7832 1.09375 69.1191 1.13477 69.4355 1.2168C69.752 1.29492 70.0605 1.41406 70.3613 1.57422V2.78711C70.0723 2.54883 69.7617 2.36719 69.4297 2.24219C69.0977 2.11719 68.7637 2.05469 68.4277 2.05469C67.6582 2.05469 67.082 2.35156 66.6992 2.94531C66.3164 3.53906 66.125 4.43555 66.125 5.63477C66.125 6.83008 66.3164 7.72461 66.6992 8.31836C67.082 8.91211 67.6582 9.20898 68.4277 9.20898C68.7715 9.20898 69.1074 9.14648 69.4355 9.02148C69.7676 8.89648 70.0762 8.71484 70.3613 8.47656V9.68945ZM77.4629 5.93359V10H76.3789V5.93359C76.3789 5.34375 76.2754 4.91016 76.0684 4.63281C75.8613 4.35547 75.5371 4.2168 75.0957 4.2168C74.5918 4.2168 74.2031 4.39648 73.9297 4.75586C73.6602 5.11133 73.5254 5.62305 73.5254 6.29102V10H72.4473V0.882812H73.5254V4.42188C73.7168 4.04688 73.9766 3.76367 74.3047 3.57227C74.6328 3.37695 75.0215 3.2793 75.4707 3.2793C76.1387 3.2793 76.6367 3.5 76.9648 3.94141C77.2969 4.37891 77.4629 5.04297 77.4629 5.93359ZM85.0977 6.17969V6.70703H80.4277V6.74219C80.3965 7.63672 80.5664 8.2793 80.9375 8.66992C81.3125 9.06055 81.8398 9.25586 82.5195 9.25586C82.8633 9.25586 83.2227 9.20117 83.5977 9.0918C83.9727 8.98242 84.373 8.81641 84.7988 8.59375V9.66602C84.3887 9.83398 83.9922 9.95898 83.6094 10.041C83.2305 10.127 82.8633 10.1699 82.5078 10.1699C81.4883 10.1699 80.6914 9.86523 80.1172 9.25586C79.543 8.64258 79.2559 7.79883 79.2559 6.72461C79.2559 5.67773 79.5371 4.8418 80.0996 4.2168C80.6621 3.5918 81.4121 3.2793 82.3496 3.2793C83.1855 3.2793 83.8438 3.5625 84.3242 4.12891C84.8086 4.69531 85.0664 5.37891 85.0977 6.17969ZM84.0195 5.86328C83.9727 5.41016 83.8066 5.01953 83.5215 4.69141C83.2402 4.35938 82.834 4.19336 82.3027 4.19336C81.7832 4.19336 81.3555 4.36523 81.0195 4.70898C80.6836 5.05273 80.5 5.43945 80.4688 5.86914L84.0195 5.86328ZM91.9824 9.66602C91.6934 9.83398 91.3945 9.95898 91.0859 10.041C90.7812 10.127 90.4688 10.1699 90.1484 10.1699C89.1328 10.1699 88.3379 9.86523 87.7637 9.25586C87.1934 8.64648 86.9082 7.80273 86.9082 6.72461C86.9082 5.64648 87.1934 4.80273 87.7637 4.19336C88.3379 3.58398 89.1328 3.2793 90.1484 3.2793C90.4648 3.2793 90.7734 3.32031 91.0742 3.40234C91.375 3.48438 91.6777 3.61133 91.9824 3.7832V4.91406C91.6973 4.66016 91.4102 4.47656 91.1211 4.36328C90.8359 4.25 90.5117 4.19336 90.1484 4.19336C89.4727 4.19336 88.9531 4.41211 88.5898 4.84961C88.2266 5.28711 88.0449 5.91211 88.0449 6.72461C88.0449 7.5332 88.2266 8.1582 88.5898 8.59961C88.957 9.03711 89.4766 9.25586 90.1484 9.25586C90.5234 9.25586 90.8594 9.19922 91.1562 9.08594C91.4531 8.96875 91.7285 8.78906 91.9824 8.54688V9.66602ZM94.3789 0.882812H95.4922V6.16211L98.3223 3.4375H99.6348L97.0508 5.91016L100.039 10H98.7207L96.2949 6.61328L95.4922 7.36914V10H94.3789V0.882812ZM106.156 1.55078V2.75195C105.797 2.52148 105.436 2.34766 105.072 2.23047C104.713 2.11328 104.35 2.05469 103.982 2.05469C103.424 2.05469 102.982 2.18555 102.658 2.44727C102.334 2.70508 102.172 3.05469 102.172 3.49609C102.172 3.88281 102.277 4.17773 102.488 4.38086C102.703 4.58398 103.102 4.75391 103.684 4.89062L104.305 5.03125C105.125 5.22266 105.723 5.52344 106.098 5.93359C106.473 6.34375 106.66 6.90234 106.66 7.60938C106.66 8.44141 106.402 9.07617 105.887 9.51367C105.371 9.95117 104.621 10.1699 103.637 10.1699C103.227 10.1699 102.814 10.125 102.4 10.0352C101.986 9.94922 101.57 9.81836 101.152 9.64258V8.38281C101.602 8.66797 102.025 8.87695 102.424 9.00977C102.826 9.14258 103.23 9.20898 103.637 9.20898C104.234 9.20898 104.699 9.07617 105.031 8.81055C105.363 8.54102 105.529 8.16602 105.529 7.68555C105.529 7.24805 105.414 6.91406 105.184 6.68359C104.957 6.45312 104.561 6.27539 103.994 6.15039L103.361 6.00391C102.549 5.82031 101.959 5.54297 101.592 5.17188C101.225 4.80078 101.041 4.30273 101.041 3.67773C101.041 2.89648 101.303 2.27148 101.826 1.80273C102.354 1.33008 103.053 1.09375 103.924 1.09375C104.26 1.09375 104.613 1.13281 104.984 1.21094C105.355 1.28516 105.746 1.39844 106.156 1.55078ZM108.6 7.51562V3.44922H109.678V7.51562C109.678 8.10547 109.781 8.53906 109.988 8.81641C110.199 9.09375 110.523 9.23242 110.961 9.23242C111.469 9.23242 111.857 9.05469 112.127 8.69922C112.396 8.33984 112.531 7.82617 112.531 7.1582V3.44922H113.615V10H112.531V9.01562C112.34 9.39453 112.078 9.68164 111.746 9.87695C111.418 10.0723 111.033 10.1699 110.592 10.1699C109.92 10.1699 109.42 9.95117 109.092 9.51367C108.764 9.07227 108.6 8.40625 108.6 7.51562ZM116.539 3.46094H119.299V9.16211H121.438V10H116.082V9.16211H118.221V4.29883H116.539V3.46094ZM118.221 0.912109H119.299V2.27148H118.221V0.912109ZM125.516 1.57422V3.4375H127.965V4.27539H125.516V7.83789C125.516 8.32227 125.607 8.66016 125.791 8.85156C125.975 9.04297 126.295 9.13867 126.752 9.13867H127.965V10H126.646C125.838 10 125.268 9.83789 124.936 9.51367C124.604 9.18945 124.438 8.63086 124.438 7.83789V4.27539H122.686V3.4375H124.438V1.57422H125.516ZM135.711 6.17969V6.70703H131.041V6.74219C131.01 7.63672 131.18 8.2793 131.551 8.66992C131.926 9.06055 132.453 9.25586 133.133 9.25586C133.477 9.25586 133.836 9.20117 134.211 9.0918C134.586 8.98242 134.986 8.81641 135.412 8.59375V9.66602C135.002 9.83398 134.605 9.95898 134.223 10.041C133.844 10.127 133.477 10.1699 133.121 10.1699C132.102 10.1699 131.305 9.86523 130.73 9.25586C130.156 8.64258 129.869 7.79883 129.869 6.72461C129.869 5.67773 130.15 4.8418 130.713 4.2168C131.275 3.5918 132.025 3.2793 132.963 3.2793C133.799 3.2793 134.457 3.5625 134.938 4.12891C135.422 4.69531 135.68 5.37891 135.711 6.17969ZM134.633 5.86328C134.586 5.41016 134.42 5.01953 134.135 4.69141C133.854 4.35938 133.447 4.19336 132.916 4.19336C132.396 4.19336 131.969 4.36523 131.633 4.70898C131.297 5.05273 131.113 5.43945 131.082 5.86914L134.633 5.86328ZM138.658 7.63281H140.721V10H138.658V7.63281ZM176.129 1.57422V3.4375H178.578V4.27539H176.129V7.83789C176.129 8.32227 176.221 8.66016 176.404 8.85156C176.588 9.04297 176.908 9.13867 177.365 9.13867H178.578V10H177.26C176.451 10 175.881 9.83789 175.549 9.51367C175.217 9.18945 175.051 8.63086 175.051 7.83789V4.27539H173.299V3.4375H175.051V1.57422H176.129ZM186.529 4.79102C186.299 4.61133 186.064 4.48047 185.826 4.39844C185.588 4.31641 185.326 4.27539 185.041 4.27539C184.369 4.27539 183.855 4.48633 183.5 4.9082C183.145 5.33008 182.967 5.93945 182.967 6.73633V10H181.883V3.4375H182.967V4.7207C183.146 4.25586 183.422 3.90039 183.793 3.6543C184.168 3.4043 184.611 3.2793 185.123 3.2793C185.389 3.2793 185.637 3.3125 185.867 3.37891C186.098 3.44531 186.318 3.54883 186.529 3.68945V4.79102ZM191.105 6.70117H190.748C190.119 6.70117 189.645 6.8125 189.324 7.03516C189.008 7.25391 188.85 7.58203 188.85 8.01953C188.85 8.41406 188.969 8.7207 189.207 8.93945C189.445 9.1582 189.775 9.26758 190.197 9.26758C190.791 9.26758 191.258 9.0625 191.598 8.65234C191.938 8.23828 192.109 7.66797 192.113 6.94141V6.70117H191.105ZM193.197 6.25586V10H192.113V9.02734C191.883 9.41797 191.592 9.70703 191.24 9.89453C190.893 10.0781 190.469 10.1699 189.969 10.1699C189.301 10.1699 188.768 9.98242 188.369 9.60742C187.971 9.22852 187.771 8.72266 187.771 8.08984C187.771 7.35938 188.016 6.80469 188.504 6.42578C188.996 6.04688 189.717 5.85742 190.666 5.85742H192.113V5.6875C192.109 5.16406 191.977 4.78516 191.715 4.55078C191.453 4.3125 191.035 4.19336 190.461 4.19336C190.094 4.19336 189.723 4.24609 189.348 4.35156C188.973 4.45703 188.607 4.61133 188.252 4.81445V3.73633C188.65 3.58398 189.031 3.4707 189.395 3.39648C189.762 3.31836 190.117 3.2793 190.461 3.2793C191.004 3.2793 191.467 3.35938 191.85 3.51953C192.236 3.67969 192.549 3.91992 192.787 4.24023C192.936 4.43555 193.041 4.67773 193.104 4.9668C193.166 5.25195 193.197 5.68164 193.197 6.25586ZM196.074 3.46094H198.834V9.16211H200.973V10H195.617V9.16211H197.756V4.29883H196.074V3.46094ZM197.756 0.912109H198.834V2.27148H197.756V0.912109ZM207.611 5.93359V10H206.527V5.93359C206.527 5.34375 206.424 4.91016 206.217 4.63281C206.01 4.35547 205.686 4.2168 205.244 4.2168C204.74 4.2168 204.352 4.39648 204.078 4.75586C203.809 5.11133 203.674 5.62305 203.674 6.29102V10H202.596V3.4375H203.674V4.42188C203.865 4.04688 204.125 3.76367 204.453 3.57227C204.781 3.37695 205.17 3.2793 205.619 3.2793C206.287 3.2793 206.785 3.5 207.113 3.94141C207.445 4.37891 207.611 5.04297 207.611 5.93359ZM215.855 11.1133V12.1094H208.684V11.1133H215.855ZM220.941 4.27539V0.882812H222.02V10H220.941V9.17383C220.762 9.49805 220.521 9.74609 220.221 9.91797C219.924 10.0859 219.58 10.1699 219.189 10.1699C218.396 10.1699 217.771 9.86328 217.314 9.25C216.861 8.63281 216.635 7.7832 216.635 6.70117C216.635 5.63477 216.863 4.79883 217.32 4.19336C217.777 3.58398 218.4 3.2793 219.189 3.2793C219.584 3.2793 219.932 3.36523 220.232 3.53711C220.533 3.70508 220.77 3.95117 220.941 4.27539ZM217.771 6.72461C217.771 7.56055 217.904 8.19141 218.17 8.61719C218.436 9.04297 218.828 9.25586 219.348 9.25586C219.867 9.25586 220.262 9.04102 220.531 8.61133C220.805 8.18164 220.941 7.55273 220.941 6.72461C220.941 5.89258 220.805 5.26367 220.531 4.83789C220.262 4.4082 219.867 4.19336 219.348 4.19336C218.828 4.19336 218.436 4.40625 218.17 4.83203C217.904 5.25781 217.771 5.88867 217.771 6.72461ZM227.258 6.70117H226.9C226.271 6.70117 225.797 6.8125 225.477 7.03516C225.16 7.25391 225.002 7.58203 225.002 8.01953C225.002 8.41406 225.121 8.7207 225.359 8.93945C225.598 9.1582 225.928 9.26758 226.35 9.26758C226.943 9.26758 227.41 9.0625 227.75 8.65234C228.09 8.23828 228.262 7.66797 228.266 6.94141V6.70117H227.258ZM229.35 6.25586V10H228.266V9.02734C228.035 9.41797 227.744 9.70703 227.393 9.89453C227.045 10.0781 226.621 10.1699 226.121 10.1699C225.453 10.1699 224.92 9.98242 224.521 9.60742C224.123 9.22852 223.924 8.72266 223.924 8.08984C223.924 7.35938 224.168 6.80469 224.656 6.42578C225.148 6.04688 225.869 5.85742 226.818 5.85742H228.266V5.6875C228.262 5.16406 228.129 4.78516 227.867 4.55078C227.605 4.3125 227.188 4.19336 226.613 4.19336C226.246 4.19336 225.875 4.24609 225.5 4.35156C225.125 4.45703 224.76 4.61133 224.404 4.81445V3.73633C224.803 3.58398 225.184 3.4707 225.547 3.39648C225.914 3.31836 226.27 3.2793 226.613 3.2793C227.156 3.2793 227.619 3.35938 228.002 3.51953C228.389 3.67969 228.701 3.91992 228.939 4.24023C229.088 4.43555 229.193 4.67773 229.256 4.9668C229.318 5.25195 229.35 5.68164 229.35 6.25586ZM233.973 1.57422V3.4375H236.422V4.27539H233.973V7.83789C233.973 8.32227 234.064 8.66016 234.248 8.85156C234.432 9.04297 234.752 9.13867 235.209 9.13867H236.422V10H235.104C234.295 10 233.725 9.83789 233.393 9.51367C233.061 9.18945 232.895 8.63086 232.895 7.83789V4.27539H231.143V3.4375H232.895V1.57422H233.973ZM241.719 6.70117H241.361C240.732 6.70117 240.258 6.8125 239.938 7.03516C239.621 7.25391 239.463 7.58203 239.463 8.01953C239.463 8.41406 239.582 8.7207 239.82 8.93945C240.059 9.1582 240.389 9.26758 240.811 9.26758C241.404 9.26758 241.871 9.0625 242.211 8.65234C242.551 8.23828 242.723 7.66797 242.727 6.94141V6.70117H241.719ZM243.811 6.25586V10H242.727V9.02734C242.496 9.41797 242.205 9.70703 241.854 9.89453C241.506 10.0781 241.082 10.1699 240.582 10.1699C239.914 10.1699 239.381 9.98242 238.982 9.60742C238.584 9.22852 238.385 8.72266 238.385 8.08984C238.385 7.35938 238.629 6.80469 239.117 6.42578C239.609 6.04688 240.33 5.85742 241.279 5.85742H242.727V5.6875C242.723 5.16406 242.59 4.78516 242.328 4.55078C242.066 4.3125 241.648 4.19336 241.074 4.19336C240.707 4.19336 240.336 4.24609 239.961 4.35156C239.586 4.45703 239.221 4.61133 238.865 4.81445V3.73633C239.264 3.58398 239.645 3.4707 240.008 3.39648C240.375 3.31836 240.73 3.2793 241.074 3.2793C241.617 3.2793 242.08 3.35938 242.463 3.51953C242.85 3.67969 243.162 3.91992 243.4 4.24023C243.549 4.43555 243.654 4.67773 243.717 4.9668C243.779 5.25195 243.811 5.68164 243.811 6.25586ZM250.537 3.66602V4.7207C250.229 4.54102 249.918 4.40625 249.605 4.31641C249.293 4.22656 248.975 4.18164 248.65 4.18164C248.162 4.18164 247.797 4.26172 247.555 4.42188C247.316 4.57812 247.197 4.81836 247.197 5.14258C247.197 5.43555 247.287 5.6543 247.467 5.79883C247.646 5.94336 248.094 6.08398 248.809 6.2207L249.242 6.30273C249.777 6.4043 250.182 6.60742 250.455 6.91211C250.732 7.2168 250.871 7.61328 250.871 8.10156C250.871 8.75 250.641 9.25781 250.18 9.625C249.719 9.98828 249.078 10.1699 248.258 10.1699C247.934 10.1699 247.594 10.1348 247.238 10.0645C246.883 9.99805 246.498 9.89648 246.084 9.75977V8.64648C246.486 8.85352 246.871 9.00977 247.238 9.11523C247.605 9.2168 247.953 9.26758 248.281 9.26758C248.758 9.26758 249.127 9.17188 249.389 8.98047C249.65 8.78516 249.781 8.51367 249.781 8.16602C249.781 7.66602 249.303 7.32031 248.346 7.12891L248.299 7.11719L247.895 7.03516C247.273 6.91406 246.82 6.71094 246.535 6.42578C246.25 6.13672 246.107 5.74414 246.107 5.24805C246.107 4.61914 246.32 4.13477 246.746 3.79492C247.172 3.45117 247.779 3.2793 248.568 3.2793C248.92 3.2793 249.258 3.3125 249.582 3.37891C249.906 3.44141 250.225 3.53711 250.537 3.66602ZM258.629 6.17969V6.70703H253.959V6.74219C253.928 7.63672 254.098 8.2793 254.469 8.66992C254.844 9.06055 255.371 9.25586 256.051 9.25586C256.395 9.25586 256.754 9.20117 257.129 9.0918C257.504 8.98242 257.904 8.81641 258.33 8.59375V9.66602C257.92 9.83398 257.523 9.95898 257.141 10.041C256.762 10.127 256.395 10.1699 256.039 10.1699C255.02 10.1699 254.223 9.86523 253.648 9.25586C253.074 8.64258 252.787 7.79883 252.787 6.72461C252.787 5.67773 253.068 4.8418 253.631 4.2168C254.193 3.5918 254.943 3.2793 255.881 3.2793C256.717 3.2793 257.375 3.5625 257.855 4.12891C258.34 4.69531 258.598 5.37891 258.629 6.17969ZM257.551 5.86328C257.504 5.41016 257.338 5.01953 257.053 4.69141C256.771 4.35938 256.365 4.19336 255.834 4.19336C255.314 4.19336 254.887 4.36523 254.551 4.70898C254.215 5.05273 254.031 5.43945 254 5.86914L257.551 5.86328ZM262.895 1.57422V3.4375H265.344V4.27539H262.895V7.83789C262.895 8.32227 262.986 8.66016 263.17 8.85156C263.354 9.04297 263.674 9.13867 264.131 9.13867H265.344V10H264.025C263.217 10 262.646 9.83789 262.314 9.51367C261.982 9.18945 261.816 8.63086 261.816 7.83789V4.27539H260.064V3.4375H261.816V1.57422H262.895ZM278.785 4.27539V0.882812H279.863V10H278.785V9.17383C278.605 9.49805 278.365 9.74609 278.064 9.91797C277.768 10.0859 277.424 10.1699 277.033 10.1699C276.24 10.1699 275.615 9.86328 275.158 9.25C274.705 8.63281 274.479 7.7832 274.479 6.70117C274.479 5.63477 274.707 4.79883 275.164 4.19336C275.621 3.58398 276.244 3.2793 277.033 3.2793C277.428 3.2793 277.775 3.36523 278.076 3.53711C278.377 3.70508 278.613 3.95117 278.785 4.27539ZM275.615 6.72461C275.615 7.56055 275.748 8.19141 276.014 8.61719C276.279 9.04297 276.672 9.25586 277.191 9.25586C277.711 9.25586 278.105 9.04102 278.375 8.61133C278.648 8.18164 278.785 7.55273 278.785 6.72461C278.785 5.89258 278.648 5.26367 278.375 4.83789C278.105 4.4082 277.711 4.19336 277.191 4.19336C276.672 4.19336 276.279 4.40625 276.014 4.83203C275.748 5.25781 275.615 5.88867 275.615 6.72461ZM287.217 0.882812V1.7793H285.992C285.605 1.7793 285.336 1.85938 285.184 2.01953C285.035 2.17578 284.961 2.45508 284.961 2.85742V3.4375H287.217V4.27539H284.961V10H283.883V4.27539H282.131V3.4375H283.883V2.98047C283.883 2.26172 284.047 1.73242 284.375 1.39258C284.707 1.05273 285.223 0.882812 285.922 0.882812H287.217ZM295.391 11.1133V12.1094H288.219V11.1133H295.391ZM299.047 1.57422V3.4375H301.496V4.27539H299.047V7.83789C299.047 8.32227 299.139 8.66016 299.322 8.85156C299.506 9.04297 299.826 9.13867 300.283 9.13867H301.496V10H300.178C299.369 10 298.799 9.83789 298.467 9.51367C298.135 9.18945 297.969 8.63086 297.969 7.83789V4.27539H296.217V3.4375H297.969V1.57422H299.047ZM309.447 4.79102C309.217 4.61133 308.982 4.48047 308.744 4.39844C308.506 4.31641 308.244 4.27539 307.959 4.27539C307.287 4.27539 306.773 4.48633 306.418 4.9082C306.062 5.33008 305.885 5.93945 305.885 6.73633V10H304.801V3.4375H305.885V4.7207C306.064 4.25586 306.34 3.90039 306.711 3.6543C307.086 3.4043 307.529 3.2793 308.041 3.2793C308.307 3.2793 308.555 3.3125 308.785 3.37891C309.016 3.44531 309.236 3.54883 309.447 3.68945V4.79102ZM314.023 6.70117H313.666C313.037 6.70117 312.562 6.8125 312.242 7.03516C311.926 7.25391 311.768 7.58203 311.768 8.01953C311.768 8.41406 311.887 8.7207 312.125 8.93945C312.363 9.1582 312.693 9.26758 313.115 9.26758C313.709 9.26758 314.176 9.0625 314.516 8.65234C314.855 8.23828 315.027 7.66797 315.031 6.94141V6.70117H314.023ZM316.115 6.25586V10H315.031V9.02734C314.801 9.41797 314.51 9.70703 314.158 9.89453C313.811 10.0781 313.387 10.1699 312.887 10.1699C312.219 10.1699 311.686 9.98242 311.287 9.60742C310.889 9.22852 310.689 8.72266 310.689 8.08984C310.689 7.35938 310.934 6.80469 311.422 6.42578C311.914 6.04688 312.635 5.85742 313.584 5.85742H315.031V5.6875C315.027 5.16406 314.895 4.78516 314.633 4.55078C314.371 4.3125 313.953 4.19336 313.379 4.19336C313.012 4.19336 312.641 4.24609 312.266 4.35156C311.891 4.45703 311.525 4.61133 311.17 4.81445V3.73633C311.568 3.58398 311.949 3.4707 312.312 3.39648C312.68 3.31836 313.035 3.2793 313.379 3.2793C313.922 3.2793 314.385 3.35938 314.768 3.51953C315.154 3.67969 315.467 3.91992 315.705 4.24023C315.854 4.43555 315.959 4.67773 316.021 4.9668C316.084 5.25195 316.115 5.68164 316.115 6.25586ZM0.851562 22.4609H3.61133V28.1621H5.75V29H0.394531V28.1621H2.5332V23.2988H0.851562V22.4609ZM2.5332 19.9121H3.61133V21.2715H2.5332V19.9121ZM12.3887 24.9336V29H11.3047V24.9336C11.3047 24.3438 11.2012 23.9102 10.9941 23.6328C10.7871 23.3555 10.4629 23.2168 10.0215 23.2168C9.51758 23.2168 9.12891 23.3965 8.85547 23.7559C8.58594 24.1113 8.45117 24.623 8.45117 25.291V29H7.37305V22.4375H8.45117V23.4219C8.64258 23.0469 8.90234 22.7637 9.23047 22.5723C9.55859 22.377 9.94727 22.2793 10.3965 22.2793C11.0645 22.2793 11.5625 22.5 11.8906 22.9414C12.2227 23.3789 12.3887 24.043 12.3887 24.9336ZM31.5195 20.5742V22.4375H33.9688V23.2754H31.5195V26.8379C31.5195 27.3223 31.6113 27.6602 31.7949 27.8516C31.9785 28.043 32.2988 28.1387 32.7559 28.1387H33.9688V29H32.6504C31.8418 29 31.2715 28.8379 30.9395 28.5137C30.6074 28.1895 30.4414 27.6309 30.4414 26.8379V23.2754H28.6895V22.4375H30.4414V20.5742H31.5195ZM41.7148 25.1797V25.707H37.0449V25.7422C37.0137 26.6367 37.1836 27.2793 37.5547 27.6699C37.9297 28.0605 38.457 28.2559 39.1367 28.2559C39.4805 28.2559 39.8398 28.2012 40.2148 28.0918C40.5898 27.9824 40.9902 27.8164 41.416 27.5938V28.666C41.0059 28.834 40.6094 28.959 40.2266 29.041C39.8477 29.127 39.4805 29.1699 39.125 29.1699C38.1055 29.1699 37.3086 28.8652 36.7344 28.2559C36.1602 27.6426 35.873 26.7988 35.873 25.7246C35.873 24.6777 36.1543 23.8418 36.7168 23.2168C37.2793 22.5918 38.0293 22.2793 38.9668 22.2793C39.8027 22.2793 40.4609 22.5625 40.9414 23.1289C41.4258 23.6953 41.6836 24.3789 41.7148 25.1797ZM40.6367 24.8633C40.5898 24.4102 40.4238 24.0195 40.1387 23.6914C39.8574 23.3594 39.4512 23.1934 38.9199 23.1934C38.4004 23.1934 37.9727 23.3652 37.6367 23.709C37.3008 24.0527 37.1172 24.4395 37.0859 24.8691L40.6367 24.8633ZM48.084 22.666V23.7207C47.7754 23.541 47.4648 23.4062 47.1523 23.3164C46.8398 23.2266 46.5215 23.1816 46.1973 23.1816C45.709 23.1816 45.3438 23.2617 45.1016 23.4219C44.8633 23.5781 44.7441 23.8184 44.7441 24.1426C44.7441 24.4355 44.834 24.6543 45.0137 24.7988C45.1934 24.9434 45.6406 25.084 46.3555 25.2207L46.7891 25.3027C47.3242 25.4043 47.7285 25.6074 48.002 25.9121C48.2793 26.2168 48.418 26.6133 48.418 27.1016C48.418 27.75 48.1875 28.2578 47.7266 28.625C47.2656 28.9883 46.625 29.1699 45.8047 29.1699C45.4805 29.1699 45.1406 29.1348 44.7852 29.0645C44.4297 28.998 44.0449 28.8965 43.6309 28.7598V27.6465C44.0332 27.8535 44.418 28.0098 44.7852 28.1152C45.1523 28.2168 45.5 28.2676 45.8281 28.2676C46.3047 28.2676 46.6738 28.1719 46.9355 27.9805C47.1973 27.7852 47.3281 27.5137 47.3281 27.166C47.3281 26.666 46.8496 26.3203 45.8926 26.1289L45.8457 26.1172L45.4414 26.0352C44.8203 25.9141 44.3672 25.7109 44.082 25.4258C43.7969 25.1367 43.6543 24.7441 43.6543 24.248C43.6543 23.6191 43.8672 23.1348 44.293 22.7949C44.7188 22.4512 45.3262 22.2793 46.1152 22.2793C46.4668 22.2793 46.8047 22.3125 47.1289 22.3789C47.4531 22.4414 47.7715 22.5371 48.084 22.666ZM53.2109 20.5742V22.4375H55.6602V23.2754H53.2109V26.8379C53.2109 27.3223 53.3027 27.6602 53.4863 27.8516C53.6699 28.043 53.9902 28.1387 54.4473 28.1387H55.6602V29H54.3418C53.5332 29 52.9629 28.8379 52.6309 28.5137C52.2988 28.1895 52.1328 27.6309 52.1328 26.8379V23.2754H50.3809V22.4375H52.1328V20.5742H53.2109ZM64.0156 30.1133V31.1094H56.8438V30.1133H64.0156ZM69.1016 23.2754V19.8828H70.1797V29H69.1016V28.1738C68.9219 28.498 68.6816 28.7461 68.3809 28.918C68.084 29.0859 67.7402 29.1699 67.3496 29.1699C66.5566 29.1699 65.9316 28.8633 65.4746 28.25C65.0215 27.6328 64.7949 26.7832 64.7949 25.7012C64.7949 24.6348 65.0234 23.7988 65.4805 23.1934C65.9375 22.584 66.5605 22.2793 67.3496 22.2793C67.7441 22.2793 68.0918 22.3652 68.3926 22.5371C68.6934 22.7051 68.9297 22.9512 69.1016 23.2754ZM65.9316 25.7246C65.9316 26.5605 66.0645 27.1914 66.3301 27.6172C66.5957 28.043 66.9883 28.2559 67.5078 28.2559C68.0273 28.2559 68.4219 28.041 68.6914 27.6113C68.9648 27.1816 69.1016 26.5527 69.1016 25.7246C69.1016 24.8926 68.9648 24.2637 68.6914 23.8379C68.4219 23.4082 68.0273 23.1934 67.5078 23.1934C66.9883 23.1934 66.5957 23.4062 66.3301 23.832C66.0645 24.2578 65.9316 24.8887 65.9316 25.7246ZM75.418 25.7012H75.0605C74.4316 25.7012 73.957 25.8125 73.6367 26.0352C73.3203 26.2539 73.1621 26.582 73.1621 27.0195C73.1621 27.4141 73.2812 27.7207 73.5195 27.9395C73.7578 28.1582 74.0879 28.2676 74.5098 28.2676C75.1035 28.2676 75.5703 28.0625 75.9102 27.6523C76.25 27.2383 76.4219 26.668 76.4258 25.9414V25.7012H75.418ZM77.5098 25.2559V29H76.4258V28.0273C76.1953 28.418 75.9043 28.707 75.5527 28.8945C75.2051 29.0781 74.7812 29.1699 74.2812 29.1699C73.6133 29.1699 73.0801 28.9824 72.6816 28.6074C72.2832 28.2285 72.084 27.7227 72.084 27.0898C72.084 26.3594 72.3281 25.8047 72.8164 25.4258C73.3086 25.0469 74.0293 24.8574 74.9785 24.8574H76.4258V24.6875C76.4219 24.1641 76.2891 23.7852 76.0273 23.5508C75.7656 23.3125 75.3477 23.1934 74.7734 23.1934C74.4062 23.1934 74.0352 23.2461 73.6602 23.3516C73.2852 23.457 72.9199 23.6113 72.5645 23.8145V22.7363C72.9629 22.584 73.3438 22.4707 73.707 22.3965C74.0742 22.3184 74.4297 22.2793 74.7734 22.2793C75.3164 22.2793 75.7793 22.3594 76.1621 22.5195C76.5488 22.6797 76.8613 22.9199 77.0996 23.2402C77.248 23.4355 77.3535 23.6777 77.416 23.9668C77.4785 24.252 77.5098 24.6816 77.5098 25.2559ZM82.1328 20.5742V22.4375H84.582V23.2754H82.1328V26.8379C82.1328 27.3223 82.2246 27.6602 82.4082 27.8516C82.5918 28.043 82.9121 28.1387 83.3691 28.1387H84.582V29H83.2637C82.4551 29 81.8848 28.8379 81.5527 28.5137C81.2207 28.1895 81.0547 27.6309 81.0547 26.8379V23.2754H79.3027V22.4375H81.0547V20.5742H82.1328ZM89.8789 25.7012H89.5215C88.8926 25.7012 88.418 25.8125 88.0977 26.0352C87.7812 26.2539 87.623 26.582 87.623 27.0195C87.623 27.4141 87.7422 27.7207 87.9805 27.9395C88.2188 28.1582 88.5488 28.2676 88.9707 28.2676C89.5645 28.2676 90.0312 28.0625 90.3711 27.6523C90.7109 27.2383 90.8828 26.668 90.8867 25.9414V25.7012H89.8789ZM91.9707 25.2559V29H90.8867V28.0273C90.6562 28.418 90.3652 28.707 90.0137 28.8945C89.666 29.0781 89.2422 29.1699 88.7422 29.1699C88.0742 29.1699 87.541 28.9824 87.1426 28.6074C86.7441 28.2285 86.5449 27.7227 86.5449 27.0898C86.5449 26.3594 86.7891 25.8047 87.2773 25.4258C87.7695 25.0469 88.4902 24.8574 89.4395 24.8574H90.8867V24.6875C90.8828 24.1641 90.75 23.7852 90.4883 23.5508C90.2266 23.3125 89.8086 23.1934 89.2344 23.1934C88.8672 23.1934 88.4961 23.2461 88.1211 23.3516C87.7461 23.457 87.3809 23.6113 87.0254 23.8145V22.7363C87.4238 22.584 87.8047 22.4707 88.168 22.3965C88.5352 22.3184 88.8906 22.2793 89.2344 22.2793C89.7773 22.2793 90.2402 22.3594 90.623 22.5195C91.0098 22.6797 91.3223 22.9199 91.5605 23.2402C91.709 23.4355 91.8145 23.6777 91.877 23.9668C91.9395 24.252 91.9707 24.6816 91.9707 25.2559ZM98.6973 22.666V23.7207C98.3887 23.541 98.0781 23.4062 97.7656 23.3164C97.4531 23.2266 97.1348 23.1816 96.8105 23.1816C96.3223 23.1816 95.957 23.2617 95.7148 23.4219C95.4766 23.5781 95.3574 23.8184 95.3574 24.1426C95.3574 24.4355 95.4473 24.6543 95.627 24.7988C95.8066 24.9434 96.2539 25.084 96.9688 25.2207L97.4023 25.3027C97.9375 25.4043 98.3418 25.6074 98.6152 25.9121C98.8926 26.2168 99.0312 26.6133 99.0312 27.1016C99.0312 27.75 98.8008 28.2578 98.3398 28.625C97.8789 28.9883 97.2383 29.1699 96.418 29.1699C96.0938 29.1699 95.7539 29.1348 95.3984 29.0645C95.043 28.998 94.6582 28.8965 94.2441 28.7598V27.6465C94.6465 27.8535 95.0312 28.0098 95.3984 28.1152C95.7656 28.2168 96.1133 28.2676 96.4414 28.2676C96.918 28.2676 97.2871 28.1719 97.5488 27.9805C97.8105 27.7852 97.9414 27.5137 97.9414 27.166C97.9414 26.666 97.4629 26.3203 96.5059 26.1289L96.459 26.1172L96.0547 26.0352C95.4336 25.9141 94.9805 25.7109 94.6953 25.4258C94.4102 25.1367 94.2676 24.7441 94.2676 24.248C94.2676 23.6191 94.4805 23.1348 94.9062 22.7949C95.332 22.4512 95.9395 22.2793 96.7285 22.2793C97.0801 22.2793 97.418 22.3125 97.7422 22.3789C98.0664 22.4414 98.3848 22.5371 98.6973 22.666ZM106.789 25.1797V25.707H102.119V25.7422C102.088 26.6367 102.258 27.2793 102.629 27.6699C103.004 28.0605 103.531 28.2559 104.211 28.2559C104.555 28.2559 104.914 28.2012 105.289 28.0918C105.664 27.9824 106.064 27.8164 106.49 27.5938V28.666C106.08 28.834 105.684 28.959 105.301 29.041C104.922 29.127 104.555 29.1699 104.199 29.1699C103.18 29.1699 102.383 28.8652 101.809 28.2559C101.234 27.6426 100.947 26.7988 100.947 25.7246C100.947 24.6777 101.229 23.8418 101.791 23.2168C102.354 22.5918 103.104 22.2793 104.041 22.2793C104.877 22.2793 105.535 22.5625 106.016 23.1289C106.5 23.6953 106.758 24.3789 106.789 25.1797ZM105.711 24.8633C105.664 24.4102 105.498 24.0195 105.213 23.6914C104.932 23.3594 104.525 23.1934 103.994 23.1934C103.475 23.1934 103.047 23.3652 102.711 23.709C102.375 24.0527 102.191 24.4395 102.16 24.8691L105.711 24.8633ZM111.055 20.5742V22.4375H113.504V23.2754H111.055V26.8379C111.055 27.3223 111.146 27.6602 111.33 27.8516C111.514 28.043 111.834 28.1387 112.291 28.1387H113.504V29H112.186C111.377 29 110.807 28.8379 110.475 28.5137C110.143 28.1895 109.977 27.6309 109.977 26.8379V23.2754H108.225V22.4375H109.977V20.5742H111.055ZM126.945 23.2754V19.8828H128.023V29H126.945V28.1738C126.766 28.498 126.525 28.7461 126.225 28.918C125.928 29.0859 125.584 29.1699 125.193 29.1699C124.4 29.1699 123.775 28.8633 123.318 28.25C122.865 27.6328 122.639 26.7832 122.639 25.7012C122.639 24.6348 122.867 23.7988 123.324 23.1934C123.781 22.584 124.404 22.2793 125.193 22.2793C125.588 22.2793 125.936 22.3652 126.236 22.5371C126.537 22.7051 126.773 22.9512 126.945 23.2754ZM123.775 25.7246C123.775 26.5605 123.908 27.1914 124.174 27.6172C124.439 28.043 124.832 28.2559 125.352 28.2559C125.871 28.2559 126.266 28.041 126.535 27.6113C126.809 27.1816 126.945 26.5527 126.945 25.7246C126.945 24.8926 126.809 24.2637 126.535 23.8379C126.266 23.4082 125.871 23.1934 125.352 23.1934C124.832 23.1934 124.439 23.4062 124.174 23.832C123.908 24.2578 123.775 24.8887 123.775 25.7246ZM135.377 19.8828V20.7793H134.152C133.766 20.7793 133.496 20.8594 133.344 21.0195C133.195 21.1758 133.121 21.4551 133.121 21.8574V22.4375H135.377V23.2754H133.121V29H132.043V23.2754H130.291V22.4375H132.043V21.9805C132.043 21.2617 132.207 20.7324 132.535 20.3926C132.867 20.0527 133.383 19.8828 134.082 19.8828H135.377ZM143.551 30.1133V31.1094H136.379V30.1133H143.551ZM147.207 20.5742V22.4375H149.656V23.2754H147.207V26.8379C147.207 27.3223 147.299 27.6602 147.482 27.8516C147.666 28.043 147.986 28.1387 148.443 28.1387H149.656V29H148.338C147.529 29 146.959 28.8379 146.627 28.5137C146.295 28.1895 146.129 27.6309 146.129 26.8379V23.2754H144.377V22.4375H146.129V20.5742H147.207ZM157.402 25.1797V25.707H152.732V25.7422C152.701 26.6367 152.871 27.2793 153.242 27.6699C153.617 28.0605 154.145 28.2559 154.824 28.2559C155.168 28.2559 155.527 28.2012 155.902 28.0918C156.277 27.9824 156.678 27.8164 157.104 27.5938V28.666C156.693 28.834 156.297 28.959 155.914 29.041C155.535 29.127 155.168 29.1699 154.812 29.1699C153.793 29.1699 152.996 28.8652 152.422 28.2559C151.848 27.6426 151.561 26.7988 151.561 25.7246C151.561 24.6777 151.842 23.8418 152.404 23.2168C152.967 22.5918 153.717 22.2793 154.654 22.2793C155.49 22.2793 156.148 22.5625 156.629 23.1289C157.113 23.6953 157.371 24.3789 157.402 25.1797ZM156.324 24.8633C156.277 24.4102 156.111 24.0195 155.826 23.6914C155.545 23.3594 155.139 23.1934 154.607 23.1934C154.088 23.1934 153.66 23.3652 153.324 23.709C152.988 24.0527 152.805 24.4395 152.773 24.8691L156.324 24.8633ZM163.771 22.666V23.7207C163.463 23.541 163.152 23.4062 162.84 23.3164C162.527 23.2266 162.209 23.1816 161.885 23.1816C161.396 23.1816 161.031 23.2617 160.789 23.4219C160.551 23.5781 160.432 23.8184 160.432 24.1426C160.432 24.4355 160.521 24.6543 160.701 24.7988C160.881 24.9434 161.328 25.084 162.043 25.2207L162.477 25.3027C163.012 25.4043 163.416 25.6074 163.689 25.9121C163.967 26.2168 164.105 26.6133 164.105 27.1016C164.105 27.75 163.875 28.2578 163.414 28.625C162.953 28.9883 162.312 29.1699 161.492 29.1699C161.168 29.1699 160.828 29.1348 160.473 29.0645C160.117 28.998 159.732 28.8965 159.318 28.7598V27.6465C159.721 27.8535 160.105 28.0098 160.473 28.1152C160.84 28.2168 161.188 28.2676 161.516 28.2676C161.992 28.2676 162.361 28.1719 162.623 27.9805C162.885 27.7852 163.016 27.5137 163.016 27.166C163.016 26.666 162.537 26.3203 161.58 26.1289L161.533 26.1172L161.129 26.0352C160.508 25.9141 160.055 25.7109 159.77 25.4258C159.484 25.1367 159.342 24.7441 159.342 24.248C159.342 23.6191 159.555 23.1348 159.98 22.7949C160.406 22.4512 161.014 22.2793 161.803 22.2793C162.154 22.2793 162.492 22.3125 162.816 22.3789C163.141 22.4414 163.459 22.5371 163.771 22.666ZM168.898 20.5742V22.4375H171.348V23.2754H168.898V26.8379C168.898 27.3223 168.99 27.6602 169.174 27.8516C169.357 28.043 169.678 28.1387 170.135 28.1387H171.348V29H170.029C169.221 29 168.65 28.8379 168.318 28.5137C167.986 28.1895 167.82 27.6309 167.82 26.8379V23.2754H166.068V22.4375H167.82V20.5742H168.898ZM5.2168 47.666C4.92773 47.834 4.62891 47.959 4.32031 48.041C4.01562 48.127 3.70312 48.1699 3.38281 48.1699C2.36719 48.1699 1.57227 47.8652 0.998047 47.2559C0.427734 46.6465 0.142578 45.8027 0.142578 44.7246C0.142578 43.6465 0.427734 42.8027 0.998047 42.1934C1.57227 41.584 2.36719 41.2793 3.38281 41.2793C3.69922 41.2793 4.00781 41.3203 4.30859 41.4023C4.60938 41.4844 4.91211 41.6113 5.2168 41.7832V42.9141C4.93164 42.6602 4.64453 42.4766 4.35547 42.3633C4.07031 42.25 3.74609 42.1934 3.38281 42.1934C2.70703 42.1934 2.1875 42.4121 1.82422 42.8496C1.46094 43.2871 1.2793 43.9121 1.2793 44.7246C1.2793 45.5332 1.46094 46.1582 1.82422 46.5996C2.19141 47.0371 2.71094 47.2559 3.38281 47.2559C3.75781 47.2559 4.09375 47.1992 4.39062 47.0859C4.6875 46.9688 4.96289 46.7891 5.2168 46.5469V47.666ZM12.3887 43.9336V48H11.3047V43.9336C11.3047 43.3438 11.2012 42.9102 10.9941 42.6328C10.7871 42.3555 10.4629 42.2168 10.0215 42.2168C9.51758 42.2168 9.12891 42.3965 8.85547 42.7559C8.58594 43.1113 8.45117 43.623 8.45117 44.291V48H7.37305V38.8828H8.45117V42.4219C8.64258 42.0469 8.90234 41.7637 9.23047 41.5723C9.55859 41.377 9.94727 41.2793 10.3965 41.2793C11.0645 41.2793 11.5625 41.5 11.8906 41.9414C12.2227 42.3789 12.3887 43.043 12.3887 43.9336ZM20.0234 44.1797V44.707H15.3535V44.7422C15.3223 45.6367 15.4922 46.2793 15.8633 46.6699C16.2383 47.0605 16.7656 47.2559 17.4453 47.2559C17.7891 47.2559 18.1484 47.2012 18.5234 47.0918C18.8984 46.9824 19.2988 46.8164 19.7246 46.5938V47.666C19.3145 47.834 18.918 47.959 18.5352 48.041C18.1562 48.127 17.7891 48.1699 17.4336 48.1699C16.4141 48.1699 15.6172 47.8652 15.043 47.2559C14.4688 46.6426 14.1816 45.7988 14.1816 44.7246C14.1816 43.6777 14.4629 42.8418 15.0254 42.2168C15.5879 41.5918 16.3379 41.2793 17.2754 41.2793C18.1113 41.2793 18.7695 41.5625 19.25 42.1289C19.7344 42.6953 19.9922 43.3789 20.0234 44.1797ZM18.9453 43.8633C18.8984 43.4102 18.7324 43.0195 18.4473 42.6914C18.166 42.3594 17.7598 42.1934 17.2285 42.1934C16.709 42.1934 16.2812 42.3652 15.9453 42.709C15.6094 43.0527 15.4258 43.4395 15.3945 43.8691L18.9453 43.8633ZM26.9082 47.666C26.6191 47.834 26.3203 47.959 26.0117 48.041C25.707 48.127 25.3945 48.1699 25.0742 48.1699C24.0586 48.1699 23.2637 47.8652 22.6895 47.2559C22.1191 46.6465 21.834 45.8027 21.834 44.7246C21.834 43.6465 22.1191 42.8027 22.6895 42.1934C23.2637 41.584 24.0586 41.2793 25.0742 41.2793C25.3906 41.2793 25.6992 41.3203 26 41.4023C26.3008 41.4844 26.6035 41.6113 26.9082 41.7832V42.9141C26.623 42.6602 26.3359 42.4766 26.0469 42.3633C25.7617 42.25 25.4375 42.1934 25.0742 42.1934C24.3984 42.1934 23.8789 42.4121 23.5156 42.8496C23.1523 43.2871 22.9707 43.9121 22.9707 44.7246C22.9707 45.5332 23.1523 46.1582 23.5156 46.5996C23.8828 47.0371 24.4023 47.2559 25.0742 47.2559C25.4492 47.2559 25.7852 47.1992 26.082 47.0859C26.3789 46.9688 26.6543 46.7891 26.9082 46.5469V47.666ZM29.3047 38.8828H30.418V44.1621L33.248 41.4375H34.5605L31.9766 43.9102L34.9648 48H33.6465L31.2207 44.6133L30.418 45.3691V48H29.3047V38.8828ZM42.3242 49.1133V50.1094H35.1523V49.1133H42.3242ZM47.4102 42.2754V38.8828H48.4883V48H47.4102V47.1738C47.2305 47.498 46.9902 47.7461 46.6895 47.918C46.3926 48.0859 46.0488 48.1699 45.6582 48.1699C44.8652 48.1699 44.2402 47.8633 43.7832 47.25C43.3301 46.6328 43.1035 45.7832 43.1035 44.7012C43.1035 43.6348 43.332 42.7988 43.7891 42.1934C44.2461 41.584 44.8691 41.2793 45.6582 41.2793C46.0527 41.2793 46.4004 41.3652 46.7012 41.5371C47.002 41.7051 47.2383 41.9512 47.4102 42.2754ZM44.2402 44.7246C44.2402 45.5605 44.373 46.1914 44.6387 46.6172C44.9043 47.043 45.2969 47.2559 45.8164 47.2559C46.3359 47.2559 46.7305 47.041 47 46.6113C47.2734 46.1816 47.4102 45.5527 47.4102 44.7246C47.4102 43.8926 47.2734 43.2637 47 42.8379C46.7305 42.4082 46.3359 42.1934 45.8164 42.1934C45.2969 42.1934 44.9043 42.4062 44.6387 42.832C44.373 43.2578 44.2402 43.8887 44.2402 44.7246ZM53.7266 44.7012H53.3691C52.7402 44.7012 52.2656 44.8125 51.9453 45.0352C51.6289 45.2539 51.4707 45.582 51.4707 46.0195C51.4707 46.4141 51.5898 46.7207 51.8281 46.9395C52.0664 47.1582 52.3965 47.2676 52.8184 47.2676C53.4121 47.2676 53.8789 47.0625 54.2188 46.6523C54.5586 46.2383 54.7305 45.668 54.7344 44.9414V44.7012H53.7266ZM55.8184 44.2559V48H54.7344V47.0273C54.5039 47.418 54.2129 47.707 53.8613 47.8945C53.5137 48.0781 53.0898 48.1699 52.5898 48.1699C51.9219 48.1699 51.3887 47.9824 50.9902 47.6074C50.5918 47.2285 50.3926 46.7227 50.3926 46.0898C50.3926 45.3594 50.6367 44.8047 51.125 44.4258C51.6172 44.0469 52.3379 43.8574 53.2871 43.8574H54.7344V43.6875C54.7305 43.1641 54.5977 42.7852 54.3359 42.5508C54.0742 42.3125 53.6562 42.1934 53.082 42.1934C52.7148 42.1934 52.3438 42.2461 51.9688 42.3516C51.5938 42.457 51.2285 42.6113 50.873 42.8145V41.7363C51.2715 41.584 51.6523 41.4707 52.0156 41.3965C52.3828 41.3184 52.7383 41.2793 53.082 41.2793C53.625 41.2793 54.0879 41.3594 54.4707 41.5195C54.8574 41.6797 55.1699 41.9199 55.4082 42.2402C55.5566 42.4355 55.6621 42.6777 55.7246 42.9668C55.7871 43.252 55.8184 43.6816 55.8184 44.2559ZM60.4414 39.5742V41.4375H62.8906V42.2754H60.4414V45.8379C60.4414 46.3223 60.5332 46.6602 60.7168 46.8516C60.9004 47.043 61.2207 47.1387 61.6777 47.1387H62.8906V48H61.5723C60.7637 48 60.1934 47.8379 59.8613 47.5137C59.5293 47.1895 59.3633 46.6309 59.3633 45.8379V42.2754H57.6113V41.4375H59.3633V39.5742H60.4414ZM68.1875 44.7012H67.8301C67.2012 44.7012 66.7266 44.8125 66.4062 45.0352C66.0898 45.2539 65.9316 45.582 65.9316 46.0195C65.9316 46.4141 66.0508 46.7207 66.2891 46.9395C66.5273 47.1582 66.8574 47.2676 67.2793 47.2676C67.873 47.2676 68.3398 47.0625 68.6797 46.6523C69.0195 46.2383 69.1914 45.668 69.1953 44.9414V44.7012H68.1875ZM70.2793 44.2559V48H69.1953V47.0273C68.9648 47.418 68.6738 47.707 68.3223 47.8945C67.9746 48.0781 67.5508 48.1699 67.0508 48.1699C66.3828 48.1699 65.8496 47.9824 65.4512 47.6074C65.0527 47.2285 64.8535 46.7227 64.8535 46.0898C64.8535 45.3594 65.0977 44.8047 65.5859 44.4258C66.0781 44.0469 66.7988 43.8574 67.748 43.8574H69.1953V43.6875C69.1914 43.1641 69.0586 42.7852 68.7969 42.5508C68.5352 42.3125 68.1172 42.1934 67.543 42.1934C67.1758 42.1934 66.8047 42.2461 66.4297 42.3516C66.0547 42.457 65.6895 42.6113 65.334 42.8145V41.7363C65.7324 41.584 66.1133 41.4707 66.4766 41.3965C66.8438 41.3184 67.1992 41.2793 67.543 41.2793C68.0859 41.2793 68.5488 41.3594 68.9316 41.5195C69.3184 41.6797 69.6309 41.9199 69.8691 42.2402C70.0176 42.4355 70.123 42.6777 70.1855 42.9668C70.248 43.252 70.2793 43.6816 70.2793 44.2559ZM77.0059 41.666V42.7207C76.6973 42.541 76.3867 42.4062 76.0742 42.3164C75.7617 42.2266 75.4434 42.1816 75.1191 42.1816C74.6309 42.1816 74.2656 42.2617 74.0234 42.4219C73.7852 42.5781 73.666 42.8184 73.666 43.1426C73.666 43.4355 73.7559 43.6543 73.9355 43.7988C74.1152 43.9434 74.5625 44.084 75.2773 44.2207L75.7109 44.3027C76.2461 44.4043 76.6504 44.6074 76.9238 44.9121C77.2012 45.2168 77.3398 45.6133 77.3398 46.1016C77.3398 46.75 77.1094 47.2578 76.6484 47.625C76.1875 47.9883 75.5469 48.1699 74.7266 48.1699C74.4023 48.1699 74.0625 48.1348 73.707 48.0645C73.3516 47.998 72.9668 47.8965 72.5527 47.7598V46.6465C72.9551 46.8535 73.3398 47.0098 73.707 47.1152C74.0742 47.2168 74.4219 47.2676 74.75 47.2676C75.2266 47.2676 75.5957 47.1719 75.8574 46.9805C76.1191 46.7852 76.25 46.5137 76.25 46.166C76.25 45.666 75.7715 45.3203 74.8145 45.1289L74.7676 45.1172L74.3633 45.0352C73.7422 44.9141 73.2891 44.7109 73.0039 44.4258C72.7188 44.1367 72.5762 43.7441 72.5762 43.248C72.5762 42.6191 72.7891 42.1348 73.2148 41.7949C73.6406 41.4512 74.248 41.2793 75.0371 41.2793C75.3887 41.2793 75.7266 41.3125 76.0508 41.3789C76.375 41.4414 76.6934 41.5371 77.0059 41.666ZM85.0977 44.1797V44.707H80.4277V44.7422C80.3965 45.6367 80.5664 46.2793 80.9375 46.6699C81.3125 47.0605 81.8398 47.2559 82.5195 47.2559C82.8633 47.2559 83.2227 47.2012 83.5977 47.0918C83.9727 46.9824 84.373 46.8164 84.7988 46.5938V47.666C84.3887 47.834 83.9922 47.959 83.6094 48.041C83.2305 48.127 82.8633 48.1699 82.5078 48.1699C81.4883 48.1699 80.6914 47.8652 80.1172 47.2559C79.543 46.6426 79.2559 45.7988 79.2559 44.7246C79.2559 43.6777 79.5371 42.8418 80.0996 42.2168C80.6621 41.5918 81.4121 41.2793 82.3496 41.2793C83.1855 41.2793 83.8438 41.5625 84.3242 42.1289C84.8086 42.6953 85.0664 43.3789 85.0977 44.1797ZM84.0195 43.8633C83.9727 43.4102 83.8066 43.0195 83.5215 42.6914C83.2402 42.3594 82.834 42.1934 82.3027 42.1934C81.7832 42.1934 81.3555 42.3652 81.0195 42.709C80.6836 43.0527 80.5 43.4395 80.4688 43.8691L84.0195 43.8633ZM89.3633 39.5742V41.4375H91.8125V42.2754H89.3633V45.8379C89.3633 46.3223 89.4551 46.6602 89.6387 46.8516C89.8223 47.043 90.1426 47.1387 90.5996 47.1387H91.8125V48H90.4941C89.6855 48 89.1152 47.8379 88.7832 47.5137C88.4512 47.1895 88.2852 46.6309 88.2852 45.8379V42.2754H86.5332V41.4375H88.2852V39.5742H89.3633ZM98.6973 41.666V42.7207C98.3887 42.541 98.0781 42.4062 97.7656 42.3164C97.4531 42.2266 97.1348 42.1816 96.8105 42.1816C96.3223 42.1816 95.957 42.2617 95.7148 42.4219C95.4766 42.5781 95.3574 42.8184 95.3574 43.1426C95.3574 43.4355 95.4473 43.6543 95.627 43.7988C95.8066 43.9434 96.2539 44.084 96.9688 44.2207L97.4023 44.3027C97.9375 44.4043 98.3418 44.6074 98.6152 44.9121C98.8926 45.2168 99.0312 45.6133 99.0312 46.1016C99.0312 46.75 98.8008 47.2578 98.3398 47.625C97.8789 47.9883 97.2383 48.1699 96.418 48.1699C96.0938 48.1699 95.7539 48.1348 95.3984 48.0645C95.043 47.998 94.6582 47.8965 94.2441 47.7598V46.6465C94.6465 46.8535 95.0312 47.0098 95.3984 47.1152C95.7656 47.2168 96.1133 47.2676 96.4414 47.2676C96.918 47.2676 97.2871 47.1719 97.5488 46.9805C97.8105 46.7852 97.9414 46.5137 97.9414 46.166C97.9414 45.666 97.4629 45.3203 96.5059 45.1289L96.459 45.1172L96.0547 45.0352C95.4336 44.9141 94.9805 44.7109 94.6953 44.4258C94.4102 44.1367 94.2676 43.7441 94.2676 43.248C94.2676 42.6191 94.4805 42.1348 94.9062 41.7949C95.332 41.4512 95.9395 41.2793 96.7285 41.2793C97.0801 41.2793 97.418 41.3125 97.7422 41.3789C98.0664 41.4414 98.3848 41.5371 98.6973 41.666ZM107.398 49.1133V50.1094H100.227V49.1133H107.398ZM109.654 47.1738V50.4961H108.57V41.4375H109.654V42.2754C109.834 41.9512 110.072 41.7051 110.369 41.5371C110.67 41.3652 111.016 41.2793 111.406 41.2793C112.199 41.2793 112.82 41.5859 113.27 42.1992C113.723 42.8125 113.949 43.6621 113.949 44.748C113.949 45.8145 113.723 46.6523 113.27 47.2617C112.816 47.8672 112.195 48.1699 111.406 48.1699C111.008 48.1699 110.658 48.0859 110.357 47.918C110.061 47.7461 109.826 47.498 109.654 47.1738ZM112.818 44.7246C112.818 43.8887 112.686 43.2578 112.42 42.832C112.158 42.4062 111.768 42.1934 111.248 42.1934C110.725 42.1934 110.328 42.4082 110.059 42.8379C109.789 43.2637 109.654 43.8926 109.654 44.7246C109.654 45.5527 109.789 46.1816 110.059 46.6113C110.328 47.041 110.725 47.2559 111.248 47.2559C111.768 47.2559 112.158 47.043 112.42 46.6172C112.686 46.1914 112.818 45.5605 112.818 44.7246ZM118.297 42.1934C117.75 42.1934 117.336 42.4062 117.055 42.832C116.773 43.2578 116.633 43.8887 116.633 44.7246C116.633 45.5566 116.773 46.1875 117.055 46.6172C117.336 47.043 117.75 47.2559 118.297 47.2559C118.848 47.2559 119.264 47.043 119.545 46.6172C119.826 46.1875 119.967 45.5566 119.967 44.7246C119.967 43.8887 119.826 43.2578 119.545 42.832C119.264 42.4062 118.848 42.1934 118.297 42.1934ZM118.297 41.2793C119.207 41.2793 119.902 41.5742 120.383 42.1641C120.867 42.7539 121.109 43.6074 121.109 44.7246C121.109 45.8457 120.869 46.7012 120.389 47.291C119.908 47.877 119.211 48.1699 118.297 48.1699C117.387 48.1699 116.691 47.877 116.211 47.291C115.73 46.7012 115.49 45.8457 115.49 44.7246C115.49 43.6074 115.73 42.7539 116.211 42.1641C116.691 41.5742 117.387 41.2793 118.297 41.2793ZM126.131 45.627C126.131 46.1113 126.219 46.4766 126.395 46.7227C126.574 46.9688 126.838 47.0918 127.186 47.0918H128.445V48H127.08C126.436 48 125.936 47.7949 125.58 47.3848C125.229 46.9707 125.053 46.3848 125.053 45.627V39.6914H123.324V38.8477H126.131V45.627ZM131 41.4609H133.76V47.1621H135.898V48H130.543V47.1621H132.682V42.2988H131V41.4609ZM132.682 38.9121H133.76V40.2715H132.682V38.9121ZM142.596 47.666C142.307 47.834 142.008 47.959 141.699 48.041C141.395 48.127 141.082 48.1699 140.762 48.1699C139.746 48.1699 138.951 47.8652 138.377 47.2559C137.807 46.6465 137.521 45.8027 137.521 44.7246C137.521 43.6465 137.807 42.8027 138.377 42.1934C138.951 41.584 139.746 41.2793 140.762 41.2793C141.078 41.2793 141.387 41.3203 141.688 41.4023C141.988 41.4844 142.291 41.6113 142.596 41.7832V42.9141C142.311 42.6602 142.023 42.4766 141.734 42.3633C141.449 42.25 141.125 42.1934 140.762 42.1934C140.086 42.1934 139.566 42.4121 139.203 42.8496C138.84 43.2871 138.658 43.9121 138.658 44.7246C138.658 45.5332 138.84 46.1582 139.203 46.5996C139.57 47.0371 140.09 47.2559 140.762 47.2559C141.137 47.2559 141.473 47.1992 141.77 47.0859C142.066 46.9688 142.342 46.7891 142.596 46.5469V47.666ZM148.637 45.8906C148.457 46.3477 148.229 46.9492 147.951 47.6953C147.564 48.7266 147.305 49.3555 147.172 49.582C146.992 49.8867 146.768 50.1152 146.498 50.2676C146.229 50.4199 145.914 50.4961 145.555 50.4961H144.688V49.5938H145.326C145.643 49.5938 145.891 49.502 146.07 49.3184C146.25 49.1348 146.479 48.6602 146.756 47.8945L144.219 41.4375H145.361L147.307 46.5703L149.223 41.4375H150.365L148.637 45.8906Z" fill="#6A9FB5"/>
<path d="M150.377 4.79102C150.146 4.61133 149.912 4.48047 149.674 4.39844C149.436 4.31641 149.174 4.27539 148.889 4.27539C148.217 4.27539 147.703 4.48633 147.348 4.9082C146.992 5.33008 146.814 5.93945 146.814 6.73633V10H145.73V3.4375H146.814V4.7207C146.994 4.25586 147.27 3.90039 147.641 3.6543C148.016 3.4043 148.459 3.2793 148.971 3.2793C149.236 3.2793 149.484 3.3125 149.715 3.37891C149.945 3.44531 150.166 3.54883 150.377 3.68945V4.79102ZM151.982 7.51562V3.44922H153.061V7.51562C153.061 8.10547 153.164 8.53906 153.371 8.81641C153.582 9.09375 153.906 9.23242 154.344 9.23242C154.852 9.23242 155.24 9.05469 155.51 8.69922C155.779 8.33984 155.914 7.82617 155.914 7.1582V3.44922H156.998V10H155.914V9.01562C155.723 9.39453 155.461 9.68164 155.129 9.87695C154.801 10.0723 154.416 10.1699 153.975 10.1699C153.303 10.1699 152.803 9.95117 152.475 9.51367C152.146 9.07227 151.982 8.40625 151.982 7.51562ZM164.229 5.93359V10H163.145V5.93359C163.145 5.34375 163.041 4.91016 162.834 4.63281C162.627 4.35547 162.303 4.2168 161.861 4.2168C161.357 4.2168 160.969 4.39648 160.695 4.75586C160.426 5.11133 160.291 5.62305 160.291 6.29102V10H159.213V3.4375H160.291V4.42188C160.482 4.04688 160.742 3.76367 161.07 3.57227C161.398 3.37695 161.787 3.2793 162.236 3.2793C162.904 3.2793 163.402 3.5 163.73 3.94141C164.062 4.37891 164.229 5.04297 164.229 5.93359Z" fill="#AC4142"/>
<path d="M170.311 0.308594C169.791 1.19922 169.402 2.08789 169.145 2.97461C168.891 3.85742 168.764 4.74805 168.764 5.64648C168.764 6.54102 168.891 7.43164 169.145 8.31836C169.402 9.20508 169.791 10.0977 170.311 10.9961H169.373C168.783 10.0664 168.344 9.16211 168.055 8.2832C167.766 7.40039 167.621 6.52148 167.621 5.64648C167.621 4.77539 167.766 3.89844 168.055 3.01562C168.344 2.13281 168.783 1.23047 169.373 0.308594H170.311ZM267.043 7.07031H273.236V8.06055H267.043V7.07031ZM267.043 4.31055H273.236V5.30078H267.043V4.31055ZM16.0508 26.8848H17.8789V28.4375L16.5781 30.9629L15.4062 30.9688L16.0508 28.4375V26.8848ZM115.203 26.0703H121.396V27.0605H115.203V26.0703ZM115.203 23.3105H121.396V24.3008H115.203V23.3105ZM175.121 26.8848H176.949V28.4375L175.648 30.9629L174.477 30.9688L175.121 28.4375V26.8848ZM151.355 45.0703H157.549V46.0605H151.355V45.0703ZM151.355 42.3105H157.549V43.3008H151.355V42.3105ZM203.492 38.3086H204.43C205.02 39.2305 205.459 40.1328 205.748 41.0156C206.037 41.8984 206.182 42.7754 206.182 43.6465C206.182 44.5254 206.037 45.4062 205.748 46.2891C205.459 47.1719 205.02 48.0742 204.43 48.9961H203.492C204.012 48.0898 204.398 47.1934 204.652 46.3066C204.91 45.4199 205.039 44.5332 205.039 43.6465C205.039 42.7559 204.91 41.8672 204.652 40.9805C204.398 40.0938 204.012 39.2031 203.492 38.3086Z" fill="#303245"/>
<path d="M161.357 38.8828H162.834V40.0898L161.68 42.334H160.783L161.357 40.0898V38.8828ZM170.68 44.7246C170.68 43.8887 170.547 43.2578 170.281 42.832C170.016 42.4062 169.623 42.1934 169.104 42.1934C168.58 42.1934 168.184 42.4082 167.914 42.8379C167.645 43.2637 167.51 43.8926 167.51 44.7246C167.51 45.5527 167.645 46.1816 167.914 46.6113C168.184 47.041 168.58 47.2559 169.104 47.2559C169.623 47.2559 170.016 47.043 170.281 46.6172C170.547 46.1914 170.68 45.5605 170.68 44.7246ZM167.51 42.2754C167.682 41.9551 167.918 41.709 168.219 41.5371C168.523 41.3652 168.875 41.2793 169.273 41.2793C170.062 41.2793 170.684 41.584 171.137 42.1934C171.59 42.7988 171.816 43.6348 171.816 44.7012C171.816 45.7832 171.588 46.6328 171.131 47.25C170.678 47.8633 170.055 48.1699 169.262 48.1699C168.871 48.1699 168.525 48.0859 168.225 47.918C167.928 47.7461 167.689 47.498 167.51 47.1738V48H166.432V38.8828H167.51V42.2754ZM176.141 42.1934C175.594 42.1934 175.18 42.4062 174.898 42.832C174.617 43.2578 174.477 43.8887 174.477 44.7246C174.477 45.5566 174.617 46.1875 174.898 46.6172C175.18 47.043 175.594 47.2559 176.141 47.2559C176.691 47.2559 177.107 47.043 177.389 46.6172C177.67 46.1875 177.811 45.5566 177.811 44.7246C177.811 43.8887 177.67 43.2578 177.389 42.832C177.107 42.4062 176.691 42.1934 176.141 42.1934ZM176.141 41.2793C177.051 41.2793 177.746 41.5742 178.227 42.1641C178.711 42.7539 178.953 43.6074 178.953 44.7246C178.953 45.8457 178.713 46.7012 178.232 47.291C177.752 47.877 177.055 48.1699 176.141 48.1699C175.23 48.1699 174.535 47.877 174.055 47.291C173.574 46.7012 173.334 45.8457 173.334 44.7246C173.334 43.6074 173.574 42.7539 174.055 42.1641C174.535 41.5742 175.23 41.2793 176.141 41.2793ZM183.359 39.5742V41.4375H185.809V42.2754H183.359V45.8379C183.359 46.3223 183.451 46.6602 183.635 46.8516C183.818 47.043 184.139 47.1387 184.596 47.1387H185.809V48H184.49C183.682 48 183.111 47.8379 182.779 47.5137C182.447 47.1895 182.281 46.6309 182.281 45.8379V42.2754H180.529V41.4375H182.281V39.5742H183.359ZM193.15 43.9336V48H192.066V43.9336C192.066 43.3438 191.963 42.9102 191.756 42.6328C191.549 42.3555 191.225 42.2168 190.783 42.2168C190.279 42.2168 189.891 42.3965 189.617 42.7559C189.348 43.1113 189.213 43.623 189.213 44.291V48H188.135V38.8828H189.213V42.4219C189.404 42.0469 189.664 41.7637 189.992 41.5723C190.32 41.377 190.709 41.2793 191.158 41.2793C191.826 41.2793 192.324 41.5 192.652 41.9414C192.984 42.3789 193.15 43.043 193.15 43.9336ZM197.51 38.8828H198.986V40.0898L197.832 42.334H196.936L197.51 40.0898V38.8828Z" fill="#D28445"/>
</svg>
