<svg width="565" height="393" viewBox="0 0 565 393" fill="none" xmlns="http://www.w3.org/2000/svg">
<path d="M550.328 296.771C540.489 327.131 521.294 352.187 495.827 372.348C495.768 372.407 495.695 372.451 495.637 372.495C490.929 376.217 486.003 379.777 480.871 383.162C479.205 384.276 477.509 385.36 475.784 386.43C474.161 387.455 472.509 388.452 470.842 389.448C470.067 389.902 469.293 390.356 468.518 390.811H66.338C65.3292 390.034 64.3497 389.243 63.3702 388.452C60.0224 385.741 56.8208 382.928 53.7653 380.041L53.7507 380.026C-43.2052 288.141 1.79332 105.307 108.763 77.5254C169.975 61.6274 213.76 83.6941 259.27 92.8959C263.291 93.7018 267.311 94.4197 271.375 94.9912C277.998 95.929 284.693 96.515 291.521 96.5737C292.983 96.5883 294.445 96.5737 295.907 96.5444C297.675 96.5004 299.43 96.4271 301.169 96.3246C351.256 93.3501 385.597 65.3052 437.729 60.9095C456.603 59.3123 473.869 62.111 489.175 68.5727C489.511 68.7193 489.848 68.8658 490.184 69.0123C493.444 70.4336 496.616 72.0161 499.701 73.7597C507.055 77.9357 513.867 83.0201 520.095 88.9251C526.352 94.8447 532.01 101.585 537.054 109.043C566.76 153.118 574.45 222.395 550.328 296.771Z" fill="#EAE6F4"/>
<path d="M429.732 65.8767H423.898C417.934 65.8767 413.08 70.7267 413.08 76.7195V112.003C413.08 117.981 417.919 122.846 423.898 122.846H430.901L424.659 148.795L453.912 122.846H518.442C524.407 122.846 529.26 117.996 529.26 112.003V76.7049C529.26 70.7267 524.421 65.862 518.442 65.862H451.237H429.732V65.8767Z" fill="white"/>
<path d="M429.732 65.8767H423.898C417.934 65.8767 413.08 70.7267 413.08 76.7195V112.003C413.08 117.981 417.919 122.846 423.898 122.846H430.901L424.659 148.795L453.912 122.846H518.442C524.407 122.846 529.26 117.996 529.26 112.003V76.7049C529.26 70.7267 524.421 65.862 518.442 65.862H451.237H429.732V65.8767Z" fill="#CFCAD8"/>
<path d="M429.732 65.8767H423.898C417.934 65.8767 413.08 70.7267 413.08 76.7195V112.003C413.08 117.981 417.919 122.846 423.898 122.846H430.901L424.951 147.594C424.863 147.96 425.302 148.224 425.58 147.975L453.912 122.831H518.442C524.407 122.831 529.26 117.981 529.26 111.988V76.7049C529.26 70.7267 524.421 65.862 518.442 65.862H451.237H429.732V65.8767Z" fill="#CFCAD8"/>
<path d="M419.177 116.75V81.4669C419.177 75.4887 424.016 70.6241 429.995 70.6241H435.828H457.319H524.524C525.372 70.6241 526.191 70.7413 526.98 70.9318C525.124 67.6643 521.644 65.4371 517.624 65.4371H450.418H428.928H423.095C417.13 65.4371 412.276 70.2871 412.276 76.28V111.563C412.276 116.706 415.858 120.985 420.639 122.098C419.732 120.516 419.177 118.714 419.177 116.75Z" fill="white"/>
<path d="M425.317 148.956C425.097 148.956 424.864 148.898 424.659 148.781C424.176 148.487 423.957 147.931 424.074 147.403L429.761 123.739H423.884C417.437 123.739 412.188 118.479 412.188 112.017V76.7049C412.188 70.2431 417.437 64.9829 423.884 64.9829H429.717C430.2 64.9829 430.594 65.3785 430.594 65.862C430.594 66.3456 430.2 66.7412 429.717 66.7412H423.884C418.402 66.7412 413.943 71.2102 413.943 76.7049V111.988C413.943 117.483 418.402 121.952 423.884 121.952H431.998L426.15 146.275L453.561 121.952H518.428C523.91 121.952 528.369 117.483 528.369 111.988V76.7049C528.369 71.2102 523.91 66.7412 518.428 66.7412H451.222C450.74 66.7412 450.345 66.3456 450.345 65.862C450.345 65.3785 450.74 64.9829 451.222 64.9829H518.428C524.875 64.9829 530.123 70.2431 530.123 76.7049V111.988C530.123 118.45 524.875 123.71 518.428 123.71H454.234L426.15 148.619C425.916 148.839 425.624 148.956 425.317 148.956Z" fill="#2E2E2E"/>
<path d="M458.371 86.6686H431.369C430.887 86.6686 430.492 86.273 430.492 85.7894C430.492 85.3059 430.887 84.9103 431.369 84.9103H458.371C458.854 84.9103 459.249 85.3059 459.249 85.7894C459.249 86.273 458.854 86.6686 458.371 86.6686Z" fill="#2E2E2E"/>
<path d="M512.653 86.6686H471.938C471.455 86.6686 471.061 86.273 471.061 85.7894C471.061 85.3059 471.455 84.9103 471.938 84.9103H512.653C513.135 84.9103 513.53 85.3059 513.53 85.7894C513.53 86.273 513.135 86.6686 512.653 86.6686Z" fill="#2E2E2E"/>
<path d="M473.079 103.665H431.355C430.872 103.665 430.478 103.27 430.478 102.786C430.478 102.303 430.872 101.907 431.355 101.907H473.079C473.561 101.907 473.956 102.303 473.956 102.786C473.956 103.284 473.561 103.665 473.079 103.665Z" fill="#2E2E2E"/>
<path d="M211.888 108.589H216.785C221.8 108.589 225.864 112.662 225.864 117.688V147.315C225.864 152.341 221.8 156.414 216.785 156.414H210.908L216.142 178.203L191.581 156.414H137.417C132.402 156.414 128.338 152.341 128.338 147.315V117.688C128.338 112.662 132.402 108.589 137.417 108.589H193.847H211.888Z" fill="white"/>
<path d="M211.888 108.589H216.785C221.8 108.589 225.864 112.662 225.864 117.688V147.315C225.864 152.341 221.8 156.414 216.785 156.414H210.908L216.142 178.203L191.581 156.414H137.417C132.402 156.414 128.338 152.341 128.338 147.315V117.688C128.338 112.662 132.402 108.589 137.417 108.589H193.847H211.888Z" fill="#CFCAD8"/>
<path d="M211.888 108.589H216.785C221.8 108.589 225.864 112.662 225.864 117.688V147.315C225.864 152.341 221.8 156.414 216.785 156.414H210.908L215.908 177.192C215.981 177.499 215.616 177.719 215.382 177.514L191.596 156.414H137.417C132.402 156.414 128.338 152.341 128.338 147.315V117.688C128.338 112.662 132.402 108.589 137.417 108.589H193.847H211.888Z" fill="#CFCAD8"/>
<path d="M220.747 151.301V121.673C220.747 116.648 216.683 112.574 211.668 112.574H206.771H188.731H132.3C131.583 112.574 130.911 112.677 130.238 112.823C131.803 110.083 134.712 108.208 138.089 108.208H194.505H212.56H217.458C222.472 108.208 226.536 112.281 226.536 117.307V146.934C226.536 151.242 223.539 154.832 219.519 155.77C220.279 154.466 220.747 152.942 220.747 151.301Z" fill="white"/>
<path d="M215.587 178.481C215.294 178.481 215.017 178.379 214.797 178.173L191.26 157.294H137.417C131.934 157.294 127.461 152.825 127.461 147.315V117.688C127.461 112.193 131.92 107.71 137.417 107.71H193.848C194.33 107.71 194.725 108.105 194.725 108.589C194.725 109.072 194.33 109.468 193.848 109.468H137.417C132.899 109.468 129.215 113.16 129.215 117.688V147.315C129.215 151.843 132.899 155.535 137.417 155.535H191.918L214.636 175.697L209.783 155.535H216.771C221.288 155.535 224.972 151.843 224.972 147.315V117.688C224.972 113.16 221.288 109.468 216.771 109.468H211.873C211.391 109.468 210.996 109.072 210.996 108.589C210.996 108.105 211.391 107.71 211.873 107.71H216.771C222.253 107.71 226.727 112.179 226.727 117.688V147.315C226.727 152.81 222.268 157.294 216.771 157.294H212.005L216.742 176.987C216.859 177.499 216.639 178.027 216.186 178.305C216.011 178.423 215.806 178.481 215.587 178.481Z" fill="#2E2E2E"/>
<path d="M210.528 126.186H187.854C187.371 126.186 186.977 125.791 186.977 125.307C186.977 124.824 187.371 124.428 187.854 124.428H210.528C211.011 124.428 211.406 124.824 211.406 125.307C211.406 125.791 211.011 126.186 210.528 126.186Z" fill="#2E2E2E"/>
<path d="M176.465 126.186H142.285C141.803 126.186 141.408 125.791 141.408 125.307C141.408 124.824 141.803 124.428 142.285 124.428H176.465C176.948 124.428 177.343 124.824 177.343 125.307C177.343 125.791 176.948 126.186 176.465 126.186Z" fill="#2E2E2E"/>
<path d="M210.528 140.458H175.5C175.018 140.458 174.623 140.062 174.623 139.579C174.623 139.095 175.018 138.7 175.5 138.7H210.528C211.011 138.7 211.405 139.095 211.405 139.579C211.405 140.062 211.011 140.458 210.528 140.458Z" fill="#2E2E2E"/>
<path d="M332.455 168.664H315.833C315.16 168.664 314.619 168.122 314.619 167.448V150.788C314.619 150.114 315.16 149.572 315.833 149.572H332.455C333.127 149.572 333.668 150.114 333.668 150.788V167.448C333.668 168.122 333.127 168.664 332.455 168.664ZM316.388 166.906H331.914V151.345H316.388V166.906Z" fill="#2E2E2E"/>
<path d="M324.282 163.316L318.42 157.865C318.069 157.528 318.04 156.986 318.376 156.62C318.712 156.268 319.268 156.239 319.619 156.576L324.019 160.664L334.648 145.645C334.925 145.249 335.481 145.161 335.876 145.44C336.27 145.718 336.358 146.275 336.08 146.671L324.282 163.316Z" fill="#9D60FB"/>
<path d="M332.455 199.068H315.833C315.16 199.068 314.619 198.526 314.619 197.852V181.192C314.619 180.518 315.16 179.976 315.833 179.976H332.455C333.127 179.976 333.668 180.518 333.668 181.192V197.852C333.668 198.526 333.127 199.068 332.455 199.068ZM316.388 197.31H331.914V181.749H316.388V197.31Z" fill="#2E2E2E"/>
<path d="M388.272 155.916H346.533C346.051 155.916 345.656 155.521 345.656 155.037C345.656 154.554 346.051 154.158 346.533 154.158H388.272C388.754 154.158 389.149 154.554 389.149 155.037C389.149 155.521 388.754 155.916 388.272 155.916Z" fill="#2E2E2E"/>
<path d="M370.246 163.125H346.533C346.051 163.125 345.656 162.73 345.656 162.246C345.656 161.763 346.051 161.367 346.533 161.367H370.246C370.729 161.367 371.123 161.763 371.123 162.246C371.123 162.73 370.729 163.125 370.246 163.125Z" fill="#2E2E2E"/>
<path d="M388.271 185.368H370.933C370.45 185.368 370.056 184.972 370.056 184.489C370.056 184.005 370.45 183.609 370.933 183.609H388.271C388.754 183.609 389.149 184.005 389.149 184.489C389.149 184.972 388.754 185.368 388.271 185.368Z" fill="#2E2E2E"/>
<path d="M364.691 185.368H346.533C346.051 185.368 345.656 184.972 345.656 184.489C345.656 184.005 346.051 183.609 346.533 183.609H364.691C365.173 183.609 365.568 184.005 365.568 184.489C365.568 184.972 365.173 185.368 364.691 185.368Z" fill="#2E2E2E"/>
<path d="M379.149 192.562H346.533C346.051 192.562 345.656 192.167 345.656 191.683C345.656 191.2 346.051 190.804 346.533 190.804H379.149C379.632 190.804 380.026 191.2 380.026 191.683C380.026 192.167 379.632 192.562 379.149 192.562Z" fill="#2E2E2E"/>
<path d="M276.813 233.179L285.672 233.897C285.672 233.897 284.195 241.223 286.242 245.956L280.424 262.513L259.664 245.326C259.664 245.326 261.389 244.696 261.945 238.864H274.137L276.813 233.179Z" fill="white"/>
<path d="M298.215 191.58C298.975 193.588 299.37 195.786 299.312 198.072L298.771 217.486C298.507 226.805 294.692 234.263 283.493 233.941C282.368 233.912 280.467 233.882 276.973 233.238L274.137 238.864H261.944L264.547 213.164L265.497 208.123L298.215 191.58Z" fill="white"/>
<path d="M265.512 206.585C264.84 206.277 264.109 206.087 263.319 206.072C260.264 205.984 257.72 208.402 257.632 211.464C257.544 214.526 259.957 217.076 263.012 217.164C263.86 217.193 264.679 217.017 265.41 216.695L265.512 206.585Z" fill="white"/>
<path d="M258.378 208.797C258.378 208.797 252.559 205.325 256.243 196.24C254.548 193.793 253.48 190.438 255.191 186.364C257.018 181.983 260.79 178.877 267.471 179.609C268.041 173.573 272.193 170.613 276.93 169.367C281.579 168.151 287.222 169.294 290.555 174.569C298.611 168.723 309.575 178.32 304.181 187.229C311.344 193.192 307.119 204.768 299.809 205.163L258.378 208.797Z" fill="white"/>
<path d="M368.374 271.29C368.374 271.29 369.091 268.008 370.538 266.909C371.985 265.81 377.497 265.766 382.38 264.447C387.263 263.129 388.491 262.059 390.406 260.359C392.321 258.66 394.061 254.982 393.71 254.322C393.373 253.663 392.73 252.022 392.73 252.022C392.73 252.022 394.718 250.527 393.666 249.209C392.599 247.89 392.014 247.084 390.654 247.128C390.435 244.872 390.143 244.579 388.491 244.242C386.839 243.905 386.195 244.579 386.195 244.579C386.195 244.579 385.64 242.835 384.163 243.304C382.687 243.773 381.532 245.091 380.128 246.542C378.725 247.993 378.856 248.886 376.649 250.161C374.441 251.436 370.158 252.843 370.158 252.843L368.082 252.667C368.082 252.667 371.517 249.648 372.321 246.923C373.126 244.198 374.573 243.143 373.316 241.868C372.058 240.608 371.737 240.022 369.354 240.71C366.971 241.384 363.345 245.721 361.211 246.82C359.076 247.919 354.193 251.245 352.132 253.004C350.071 254.762 348.886 256.799 348.331 258.718C347.775 260.638 346.796 267.905 346.796 267.905L368.374 271.29Z" fill="white"/>
<path d="M368.052 253.868C366.839 253.868 365.538 253.648 364.017 253.136C363.564 252.974 363.316 252.476 363.462 252.022C363.623 251.568 364.12 251.319 364.573 251.465C368.52 252.799 370.698 251.861 374.295 250.278C374.982 249.985 375.684 249.678 376.458 249.355C377.95 248.286 378.841 247.099 379.704 245.941C380.596 244.754 381.444 243.626 382.774 242.923C383.753 242.425 385.215 242.278 386.312 243.084C386.823 243.465 387.13 244.227 387.101 245.018C387.087 245.502 386.677 245.883 386.195 245.868C385.712 245.853 385.332 245.443 385.347 244.959C385.362 244.74 385.288 244.564 385.245 244.491C384.835 244.212 384.134 244.212 383.578 244.505C382.598 245.003 381.911 245.941 381.107 247.011C380.186 248.242 379.148 249.634 377.379 250.879C377.321 250.923 377.262 250.952 377.204 250.967C376.415 251.289 375.698 251.597 374.996 251.905C372.526 252.989 370.494 253.868 368.052 253.868Z" fill="#2E2E2E"/>
<path d="M368.301 272.067C368.184 272.067 368.067 272.037 367.95 271.993C367.511 271.803 367.307 271.29 367.497 270.836C367.658 270.469 367.789 270.089 367.935 269.693C368.359 268.506 368.842 267.158 370.026 266.103C370.669 265.517 372.541 265.195 377.292 264.477C380.157 264.037 383.403 263.554 384.704 263.055C389.572 260.564 392.101 256.989 392.423 256.037C393.008 254.293 392.511 253.824 392.35 253.663C391.955 253.297 391.005 253.473 389.689 254.191C388.724 254.703 387.642 255.714 386.575 256.682C385.011 258.117 383.549 259.48 382.043 259.817C381.195 260.008 379.865 260.022 378.184 260.022C374.836 260.037 370.26 260.052 367.541 261.678C367.131 261.927 366.59 261.795 366.342 261.37C366.093 260.96 366.225 260.418 366.649 260.169C369.778 258.308 374.631 258.279 378.184 258.264C379.704 258.264 381.005 258.249 381.663 258.103C382.701 257.868 384.075 256.608 385.391 255.377C386.531 254.322 387.701 253.238 388.856 252.623C389.631 252.198 392.014 250.938 393.534 252.359C394.528 253.282 394.704 254.703 394.075 256.579C393.607 257.956 390.8 261.898 385.45 264.623C385.42 264.638 385.391 264.652 385.376 264.652C383.929 265.224 380.684 265.707 377.555 266.191C375.114 266.557 371.766 267.07 371.181 267.407C370.348 268.169 369.982 269.18 369.602 270.264C369.456 270.675 369.31 271.1 369.12 271.51C368.959 271.861 368.637 272.067 368.301 272.067Z" fill="#2E2E2E"/>
<path d="M377.35 256.726C376.985 256.726 376.634 256.491 376.517 256.125C376.371 255.671 376.605 255.172 377.072 255.011C377.321 254.923 377.57 254.85 377.818 254.762C379.558 254.191 381.546 253.531 382.306 253.004C383.169 252.403 384.485 251.143 385.756 249.912C387.101 248.608 388.271 247.494 389.017 247.026C390.449 246.132 392.598 245.941 393.929 247.626C395.318 249.37 394.704 251.612 393.534 252.96C393.212 253.326 392.657 253.37 392.291 253.048C391.926 252.725 391.882 252.169 392.204 251.802C392.789 251.128 393.359 249.736 392.555 248.725C391.78 247.758 390.552 248.154 389.938 248.52C389.353 248.886 388.139 250.044 386.97 251.172C385.64 252.447 384.28 253.766 383.3 254.44C382.335 255.114 380.406 255.744 378.374 256.433C378.125 256.52 377.877 256.594 377.628 256.682C377.526 256.711 377.438 256.726 377.35 256.726Z" fill="#2E2E2E"/>
<path d="M375.859 253.707C375.479 253.707 375.128 253.458 375.011 253.077C374.88 252.608 375.143 252.125 375.611 251.993C376.766 251.656 379.997 250.484 380.903 249.15C382.087 247.45 386.078 243.289 388.125 243.245C389.236 243.231 390.274 243.67 390.932 244.476C391.561 245.238 391.809 246.234 391.619 247.216C391.517 247.7 391.064 248.007 390.581 247.905C390.113 247.802 389.792 247.348 389.894 246.864C389.982 246.395 389.879 245.956 389.587 245.604C389.265 245.209 388.739 244.989 388.154 245.003C387.219 245.018 383.798 248.051 382.336 250.147C380.903 252.213 376.576 253.517 376.093 253.663C376.02 253.692 375.947 253.707 375.859 253.707Z" fill="#2E2E2E"/>
<path d="M344.471 266.704L369.573 271.891L362.146 299.511C362.146 299.511 352.293 330.237 349.661 334.574C347.03 338.911 341.503 344.362 335.056 344.45C328.609 344.538 325.378 342.325 323.083 340.626C320.788 338.926 317.571 335.102 316.036 332.538C314.501 329.973 313.405 327.775 313.405 327.775L316.373 377.125L316.548 388.613L233.773 388.701L235.045 352.274C235.045 352.274 217.779 348.699 214.388 345.754C210.996 342.809 207.97 338.779 207.97 331.512C207.97 324.244 211.683 307.174 212.589 301.723C213.496 296.273 221.142 276.873 224.022 272.448C226.902 268.023 236.478 256.901 251.082 252.359C253.802 257.458 267.719 283.671 267.719 283.671L280.117 262.967L291.432 276.58L293.011 251.114C293.011 251.114 308.8 259.29 313.61 264.565C318.419 269.839 323.068 277.327 324.823 281.474C326.577 285.62 332.863 298.72 332.863 298.72L344.471 266.704Z" fill="#CFCAD8"/>
<path d="M280.292 262.66L259.006 245.985L250.585 251.245L268.143 284.008L280.292 262.66Z" fill="white"/>
<path d="M286.622 246.498L292.675 250.498L291.3 275.554L280.745 262.645L286.622 246.498Z" fill="white"/>
<path d="M322.147 280.257C320.115 276.243 314.866 268.828 309.15 264.55C303.946 260.638 297.967 256.564 292.908 253.722L293.069 251.099C293.069 251.099 308.858 259.275 313.668 264.55C318.477 269.825 323.126 277.312 324.881 281.459C325.846 283.745 330.787 294.382 332.688 298.426C332.702 298.412 325.992 287.862 322.147 280.257Z" fill="white"/>
<path d="M268.056 284.038H268.041C267.734 284.038 267.442 283.862 267.295 283.583L249.694 251.436C249.46 251.026 249.606 250.498 250.015 250.249L258.845 245.062C259.152 244.886 259.547 244.901 259.84 245.135L281.008 261.869C281.359 262.147 281.447 262.63 281.213 263.011L268.816 283.598C268.655 283.876 268.363 284.038 268.056 284.038ZM251.638 251.348L268.099 281.4L279.313 262.777L259.226 246.894L251.638 251.348Z" fill="#2E2E2E"/>
<path d="M291.578 277.737C291.315 277.737 291.052 277.62 290.891 277.4L279.765 263.099C279.575 262.85 279.531 262.528 279.634 262.235L285.92 246.073C286.023 245.824 286.227 245.633 286.476 245.56C286.724 245.487 287.002 245.516 287.221 245.677L293.171 249.707C293.42 249.883 293.566 250.161 293.552 250.469L292.455 276.902C292.44 277.268 292.192 277.591 291.841 277.708C291.753 277.723 291.666 277.737 291.578 277.737ZM281.447 262.411L290.788 274.426L291.768 250.864L287.134 247.729L281.447 262.411Z" fill="#2E2E2E"/>
<path d="M335.218 345.358C324.238 345.358 316.256 338.692 312.645 326.457C312.514 325.988 312.777 325.504 313.245 325.358C313.712 325.226 314.195 325.49 314.341 325.959C317.82 337.725 325.598 343.981 336.241 343.571C339.72 343.439 343.083 341.344 346.211 337.373C348.931 333.915 351.489 329.021 353.813 322.823C359.5 307.672 367.176 278.045 368.594 272.536L345.144 267.7L332.03 304.932C331.87 305.386 331.373 305.636 330.905 305.474C330.452 305.313 330.203 304.815 330.364 304.346L343.726 266.381C343.872 265.971 344.296 265.722 344.735 265.81L369.836 270.997C370.07 271.041 370.275 271.187 370.406 271.393C370.538 271.598 370.567 271.847 370.509 272.081C370.421 272.418 361.723 306.691 355.436 323.438C350.1 337.666 343.653 345.036 336.299 345.315C335.919 345.358 335.568 345.358 335.218 345.358Z" fill="#2E2E2E"/>
<path d="M332.805 300.141C332.468 300.141 332.147 299.95 332 299.628C331.079 297.591 330.027 295.232 328.96 292.829C326.679 287.745 324.325 282.47 323.156 279.95C317.396 267.378 309.925 260.535 292.455 251.773C292.016 251.553 291.841 251.026 292.06 250.601C292.28 250.161 292.806 249.985 293.23 250.205C311.124 259.172 318.784 266.22 324.749 279.217C325.919 281.752 328.273 287.027 330.553 292.111C331.62 294.5 332.688 296.873 333.594 298.91C333.799 299.35 333.594 299.877 333.155 300.068C333.053 300.126 332.936 300.141 332.805 300.141Z" fill="#2E2E2E"/>
<path d="M316.957 389.726C316.49 389.726 316.109 389.36 316.08 388.906C316.066 388.627 314.443 361.227 314.209 352.113C314.019 344.655 311.709 316.317 310.174 297.577C309.618 290.719 309.136 284.8 308.887 281.591C308.858 281.107 309.209 280.682 309.692 280.653C310.174 280.624 310.598 280.975 310.627 281.459C310.876 284.668 311.358 290.587 311.914 297.445C313.449 316.215 315.759 344.567 315.949 352.084C316.183 361.168 317.805 388.539 317.82 388.818C317.849 389.301 317.484 389.712 317.001 389.741C317.001 389.726 316.972 389.726 316.957 389.726Z" fill="#2E2E2E"/>
<path d="M346.811 267.422C346.781 267.422 346.752 267.422 346.723 267.422C346.24 267.378 345.89 266.938 345.933 266.455C346.635 259.466 347.6 254.572 354.413 250.176C355.114 249.722 355.787 249.297 356.401 248.901C361.152 245.853 363.535 244.329 367.307 240.93C369.134 239.289 371.196 238.952 372.833 240.036C374.178 240.93 374.807 242.6 374.324 244.036C372.848 248.388 369.529 252.154 368.447 253.385C368.126 253.751 367.57 253.78 367.205 253.458C366.839 253.136 366.81 252.579 367.132 252.213C368.169 251.04 371.313 247.48 372.672 243.465C372.906 242.776 372.57 241.956 371.883 241.502C370.947 240.886 369.705 241.15 368.506 242.234C364.632 245.721 362.205 247.275 357.38 250.366C356.766 250.762 356.108 251.187 355.392 251.641C349.223 255.612 348.375 259.949 347.717 266.616C347.629 267.085 347.249 267.422 346.811 267.422Z" fill="#2E2E2E"/>
<path d="M233.48 389.492C233.466 389.492 233.451 389.492 233.422 389.492C232.939 389.462 232.574 389.052 232.603 388.554L234.796 352.524C234.825 352.04 235.249 351.674 235.732 351.703C236.214 351.732 236.58 352.143 236.55 352.641L234.358 388.671C234.328 389.14 233.934 389.492 233.48 389.492Z" fill="#2E2E2E"/>
<path d="M282.763 225.97C280.657 225.428 279.576 224.314 279.181 222.776C278.874 221.589 278.947 220.973 279.517 220.724C280.233 220.402 281.812 221.076 284.268 221.809C286.052 222.336 288.771 222.483 288.771 223.787C288.771 224.886 286.096 226.82 282.763 225.97Z" fill="#2E2E2E"/>
<path d="M279.503 223.42C281.009 222.409 285.628 222.556 285.687 225.853C283.392 225.941 279.868 224.314 279.503 223.42Z" fill="white"/>
<path d="M284.488 235.304C284.254 235.304 284.02 235.304 283.772 235.289H283.626C282.471 235.26 280.526 235.201 277.12 234.571C276.638 234.483 276.331 234.029 276.418 233.545C276.506 233.062 276.959 232.754 277.442 232.842C280.716 233.443 282.573 233.501 283.684 233.531H283.83C288.772 233.677 292.485 232.226 294.868 229.252C296.944 226.644 298.07 222.834 298.216 217.926L298.757 198.511C298.815 196.401 298.464 194.32 297.719 192.372C297.543 191.917 297.777 191.405 298.23 191.243C298.684 191.068 299.195 191.302 299.356 191.756C300.189 193.94 300.57 196.225 300.511 198.584L299.97 217.999C299.824 223.288 298.567 227.45 296.242 230.366C293.611 233.633 289.649 235.304 284.488 235.304Z" fill="#2E2E2E"/>
<path d="M263.012 218.35C262.953 218.35 262.895 218.35 262.822 218.35C261.111 218.307 259.518 217.589 258.334 216.343C257.149 215.098 256.535 213.457 256.579 211.742C256.623 210.028 257.34 208.431 258.582 207.244C259.825 206.057 261.462 205.442 263.173 205.486C264.064 205.515 264.912 205.705 265.702 206.086C266.14 206.291 266.33 206.819 266.126 207.259C265.921 207.698 265.395 207.889 264.956 207.683C264.371 207.42 263.757 207.273 263.114 207.244C261.872 207.215 260.687 207.669 259.781 208.519C258.875 209.383 258.363 210.541 258.319 211.786C258.275 213.032 258.743 214.218 259.591 215.127C260.439 216.035 261.608 216.548 262.851 216.592C263.553 216.607 264.225 216.475 264.868 216.197C265.307 216.006 265.833 216.197 266.023 216.651C266.213 217.09 266.023 217.618 265.57 217.808C264.781 218.175 263.904 218.35 263.012 218.35Z" fill="#2E2E2E"/>
<path d="M260.249 212.548H260.234C259.752 212.533 259.357 212.138 259.371 211.654C259.386 210.497 259.795 209.53 260.541 208.885C261.097 208.402 262.091 207.874 263.757 208.094C264.24 208.152 264.576 208.592 264.517 209.076C264.459 209.559 264.02 209.896 263.538 209.837C262.968 209.764 262.193 209.779 261.681 210.218C261.228 210.614 261.126 211.229 261.126 211.684C261.126 212.167 260.731 212.548 260.249 212.548Z" fill="#2E2E2E"/>
<path d="M296.33 208.605C296.363 207.44 295.833 206.48 295.147 206.461C294.461 206.442 293.879 207.37 293.846 208.535C293.813 209.7 294.343 210.66 295.029 210.679C295.715 210.698 296.298 209.77 296.33 208.605Z" fill="#2E2E2E"/>
<path d="M299.561 203.786C299.356 203.786 299.151 203.713 298.99 203.566C297.163 201.984 294.882 201.368 292.587 201.808C292.105 201.896 291.651 201.588 291.564 201.105C291.476 200.621 291.783 200.167 292.266 200.079C295.116 199.537 297.909 200.299 300.145 202.233C300.511 202.555 300.555 203.112 300.233 203.478C300.043 203.683 299.795 203.786 299.561 203.786Z" fill="#2E2E2E"/>
<path d="M278.709 208.109C278.742 206.944 278.212 205.984 277.526 205.965C276.84 205.946 276.258 206.875 276.225 208.039C276.192 209.204 276.722 210.164 277.408 210.183C278.094 210.203 278.677 209.274 278.709 208.109Z" fill="#2E2E2E"/>
<path d="M272.617 203.361C272.369 203.361 272.135 203.259 271.959 203.053C271.638 202.687 271.682 202.13 272.047 201.808C274.401 199.757 278.246 199.039 281.418 200.035C281.886 200.181 282.134 200.68 281.988 201.134C281.842 201.603 281.345 201.852 280.892 201.705C278.275 200.87 275.117 201.456 273.202 203.127C273.027 203.303 272.822 203.361 272.617 203.361Z" fill="#2E2E2E"/>
<path d="M284.444 226.849C283.845 226.849 283.216 226.776 282.558 226.6C280.263 226.014 278.845 224.724 278.348 222.761C278.172 222.102 277.719 220.329 279.181 219.699C280.029 219.318 281.14 219.669 282.953 220.255C283.421 220.402 283.962 220.578 284.532 220.739C284.956 220.856 285.438 220.959 285.935 221.076C287.675 221.442 289.648 221.867 289.663 223.552C289.663 224.226 289.239 224.944 288.45 225.545C287.573 226.248 286.154 226.849 284.444 226.849ZM279.912 221.31C279.897 221.398 279.883 221.677 280.058 222.336C280.394 223.655 281.33 224.475 283.011 224.9C285.19 225.457 286.739 224.607 287.149 224.343C287.704 223.977 287.894 223.655 287.923 223.567C287.719 223.259 286.33 222.966 285.584 222.805C285.058 222.688 284.532 222.585 284.035 222.439C283.45 222.263 282.909 222.087 282.427 221.94C281.403 221.618 280.248 221.252 279.912 221.31Z" fill="#2E2E2E"/>
<path d="M288.64 218.321C288.435 218.321 288.216 218.307 287.997 218.292C287.514 218.248 287.164 217.823 287.207 217.339C287.251 216.856 287.675 216.504 288.158 216.548C289.166 216.651 289.62 216.446 289.824 216.27C289.897 216.211 290.087 216.035 290.117 215.493C290.146 214.936 289.459 214.336 288.801 213.75C288.567 213.544 288.333 213.339 288.128 213.12C286.652 211.654 286.169 209.881 286.433 206.79C286.476 206.306 286.9 205.94 287.383 205.984C287.865 206.028 288.231 206.453 288.187 206.936C287.953 209.823 288.465 210.966 289.371 211.874C289.561 212.05 289.766 212.24 289.985 212.431C290.862 213.207 291.944 214.175 291.886 215.567C291.842 216.636 291.374 217.252 290.994 217.589C290.424 218.087 289.634 218.321 288.64 218.321Z" fill="#2E2E2E"/>
<path d="M286.724 246.615C286.403 246.615 286.081 246.439 285.935 246.117C284.59 243.348 284.707 238.205 284.912 234.571C284.941 234.087 285.35 233.721 285.833 233.736C286.315 233.765 286.681 234.175 286.666 234.659C286.359 239.963 286.651 243.553 287.514 245.326C287.733 245.765 287.543 246.293 287.105 246.498C286.988 246.586 286.856 246.615 286.724 246.615Z" fill="#2E2E2E"/>
<path d="M260.775 243.846C260.658 243.846 260.555 243.831 260.438 243.787C259.985 243.597 259.781 243.084 259.956 242.644C261.74 238.263 262.295 224.329 262.558 217.618V217.471C262.573 216.988 262.982 216.607 263.465 216.622C263.947 216.636 264.327 217.046 264.313 217.53V217.676C264.02 225.003 263.479 238.63 261.579 243.289C261.462 243.641 261.126 243.846 260.775 243.846Z" fill="#2E2E2E"/>
<path d="M285.292 226.058C285.073 224.812 284.43 223.992 283.406 223.669C282.193 223.288 280.877 223.713 280.278 224.329L279.035 223.083C280.19 221.926 282.251 221.472 283.933 221.999C285.585 222.526 286.681 223.86 287.017 225.75L285.292 226.058Z" fill="#2E2E2E"/>
<path d="M265.57 207.801C265.365 207.801 265.16 207.727 265 207.596C264.634 207.273 264.59 206.731 264.897 206.35C267.295 203.552 267.894 197.793 266.242 193.778C266.067 193.353 266.155 192.855 266.476 192.533C266.798 192.211 267.28 192.108 267.719 192.269C271.301 193.661 277.953 193.148 280.686 189.119C280.833 188.914 281.052 188.767 281.3 188.738C281.549 188.709 281.797 188.782 281.987 188.943C285.262 191.771 289.604 193.104 293.902 192.577C296.855 192.225 299.355 190.98 300.583 189.265C300.861 188.87 301.417 188.782 301.811 189.06C302.206 189.339 302.294 189.895 302.016 190.291C300.496 192.43 297.616 193.91 294.122 194.335C289.648 194.877 285.116 193.617 281.564 190.877C278.537 194.408 272.646 195.463 268.304 194.32C269.663 198.819 268.83 204.489 266.242 207.508C266.067 207.698 265.818 207.801 265.57 207.801Z" fill="#2E2E2E"/>
<path d="M258.378 209.676C258.232 209.676 258.071 209.632 257.939 209.559C257.866 209.515 256.243 208.533 255.147 206.321C254.182 204.387 253.451 201.105 255.264 196.343C253.202 193.134 252.895 189.573 254.387 186.013C255.922 182.335 259.299 178.159 266.711 178.642C267.515 173.499 270.95 169.997 276.725 168.503C281.111 167.36 287.017 168.078 290.818 173.338C295.277 170.613 300.131 172.034 303.113 174.774C304.809 176.342 305.964 178.393 306.359 180.547C306.768 182.73 306.402 184.958 305.321 187.024C309.122 190.599 309.312 195.463 308.171 198.936C306.812 203.039 303.566 205.823 299.897 206.028C299.414 206.057 299.005 205.676 298.976 205.193C298.947 204.709 299.327 204.299 299.809 204.27C302.762 204.108 305.394 201.808 306.519 198.379C307.543 195.302 307.323 190.921 303.669 187.888C303.332 187.61 303.259 187.126 303.479 186.76C306.139 182.379 304.312 178.261 301.943 176.078C299.327 173.66 294.97 172.488 291.125 175.272C290.935 175.419 290.687 175.463 290.453 175.419C290.219 175.375 289.999 175.228 289.882 175.023C286.637 169.88 281.213 169.162 277.222 170.202C271.842 171.609 268.874 174.789 268.407 179.668C268.377 179.902 268.275 180.122 268.085 180.269C267.91 180.415 267.676 180.489 267.442 180.459C261.872 179.844 258.056 181.939 256.068 186.672C254.752 189.837 255.074 192.885 257.033 195.712C257.208 195.962 257.237 196.269 257.12 196.548C253.787 204.782 258.685 207.903 258.889 208.021C259.299 208.27 259.43 208.812 259.182 209.222C258.962 209.53 258.67 209.676 258.378 209.676Z" fill="#2E2E2E"/>
<path d="M297.835 344.201H278.348C277.894 344.201 277.514 343.849 277.47 343.41L274.503 311.98C274.459 311.497 274.81 311.072 275.292 311.028C275.775 310.984 276.199 311.335 276.242 311.819L279.137 342.443H297.017L299.911 311.819C299.955 311.335 300.379 310.984 300.862 311.028C301.344 311.072 301.695 311.497 301.651 311.98L298.683 343.41C298.654 343.849 298.289 344.201 297.835 344.201Z" fill="#2E2E2E"/>
<path d="M300.876 312.464L297.133 333.256C297.133 333.256 286.622 336.904 284.049 336.098C281.037 335.175 278.391 333.886 278.391 333.886L275.789 312.302L300.876 312.464Z" fill="#9D60FB"/>
<path d="M297.28 311.98L300.335 311.76L298.523 330.252C298.523 330.252 296.637 330.105 295.146 329.915L297.28 311.98Z" fill="white"/>
<path d="M275.687 305.577H300.73L302.221 311.892H274.21L275.687 305.577Z" fill="white"/>
<path d="M302.221 312.771H274.21C273.947 312.771 273.684 312.654 273.523 312.434C273.362 312.229 273.289 311.951 273.362 311.687L274.854 305.372C274.941 304.976 275.307 304.698 275.701 304.698H300.745C301.154 304.698 301.505 304.976 301.592 305.372L303.084 311.687C303.142 311.951 303.084 312.229 302.923 312.434C302.747 312.654 302.484 312.771 302.221 312.771ZM275.307 311.013H301.11L300.043 306.456H276.389L275.307 311.013Z" fill="#2E2E2E"/>
<path d="M296.827 358.619C299.765 359.41 300.715 360.451 300.306 362.443C299.56 366.077 294.824 364.509 290.891 363.059C286.958 361.608 277.003 356.612 277.003 356.612L275.906 356.201L278.918 337.475C280 337.27 281.008 336.787 281.856 336.098C288.961 330.325 296.666 324.391 299.195 326.164C301.87 328.054 301.212 330.34 297.996 332.962C294.78 335.585 293.683 337.446 293.683 337.446L296.827 358.619Z" fill="white"/>
<path d="M293.508 337.578C299.56 338.164 304.75 337.739 304.926 341.373C305.086 344.787 302.806 345.021 299.268 344.816L293.508 337.578Z" fill="white"/>
<path d="M300.248 344.86C304.634 345.358 304.385 348.421 304.21 349.725C304.034 351.029 302.514 353.007 299.063 352.099L300.248 344.86Z" fill="white"/>
<path d="M299.21 352.216C302.792 352.89 303.245 354.223 303.128 356.392C303.011 358.546 301.432 360.07 298.113 358.927L299.21 352.216Z" fill="white"/>
<path d="M293.084 337.475L301.183 345.607L298.142 360.494L294.093 360.157L293.084 337.475Z" fill="white"/>
<path d="M278.932 338.691C278.523 338.691 278.157 338.398 278.07 337.974C277.982 337.49 278.289 337.036 278.771 336.948C279.707 336.772 280.584 336.362 281.33 335.746C291.139 327.79 296.972 323.834 299.721 325.768C301.037 326.691 301.724 327.761 301.767 328.977C301.826 330.545 300.773 332.186 298.58 333.973C295.554 336.435 294.472 338.208 294.472 338.223C294.224 338.633 293.683 338.779 293.274 338.53C292.864 338.281 292.718 337.754 292.967 337.329C293.011 337.241 294.18 335.292 297.484 332.611C299.18 331.233 300.057 330.003 300.028 329.05C299.999 328.42 299.589 327.819 298.727 327.219C298.361 326.955 297.045 326.662 292.747 329.387C289.633 331.351 285.964 334.266 282.441 337.124C281.476 337.9 280.321 338.442 279.122 338.677C279.034 338.691 278.991 338.691 278.932 338.691Z" fill="#2E2E2E"/>
<path d="M297.265 365.887C295.321 365.887 292.923 365.081 290.584 364.216C286.739 362.795 277.456 358.165 276.652 357.754L275.599 357.359C275.146 357.183 274.912 356.685 275.088 356.231C275.263 355.776 275.76 355.542 276.213 355.718L277.31 356.128C277.339 356.143 277.368 356.157 277.398 356.172C277.5 356.216 287.339 361.154 291.184 362.575C293.23 363.337 297.046 364.744 298.64 363.85C298.903 363.703 299.268 363.41 299.444 362.604C299.678 361.476 299.604 360.612 296.593 359.806C296.125 359.674 295.847 359.205 295.979 358.736C296.11 358.267 296.578 357.989 297.046 358.121C299.444 358.765 301.797 359.835 301.154 362.971C300.92 364.084 300.365 364.905 299.488 365.403C298.859 365.74 298.113 365.887 297.265 365.887Z" fill="#2E2E2E"/>
<path d="M300.832 346.076C300.306 346.076 299.765 346.047 299.209 346.018C298.727 345.988 298.361 345.578 298.376 345.095C298.405 344.611 298.815 344.23 299.297 344.259C301.373 344.377 302.893 344.318 303.551 343.673C303.917 343.307 304.078 342.677 304.034 341.739C303.931 339.644 301.271 339.351 296.578 339.029C295.555 338.955 294.517 338.882 293.42 338.779C292.938 338.735 292.587 338.296 292.631 337.812C292.675 337.329 293.098 336.977 293.596 337.021C294.663 337.124 295.701 337.197 296.71 337.27C299.092 337.431 301.154 337.578 302.733 338.091C304.692 338.721 305.715 339.922 305.803 341.651C305.876 343.117 305.54 344.186 304.809 344.919C303.858 345.857 302.426 346.076 300.832 346.076Z" fill="#2E2E2E"/>
<path d="M300.715 353.535C300.16 353.535 299.546 353.461 298.844 353.271C298.376 353.154 298.098 352.67 298.215 352.201C298.332 351.732 298.815 351.454 299.282 351.571C300.584 351.908 301.665 351.82 302.426 351.307C303.025 350.897 303.288 350.326 303.347 349.945C303.449 349.11 303.507 348.055 302.893 347.263C302.382 346.619 301.461 346.208 300.16 346.062C299.677 346.003 299.326 345.578 299.385 345.095C299.443 344.611 299.882 344.26 300.35 344.318C302.133 344.523 303.464 345.153 304.268 346.179C305.408 347.644 305.174 349.476 305.086 350.165C304.955 351.176 304.326 352.143 303.405 352.758C302.835 353.154 301.943 353.535 300.715 353.535Z" fill="#2E2E2E"/>
<path d="M300.189 360.524C299.531 360.524 298.756 360.407 297.85 360.084C297.397 359.923 297.148 359.425 297.309 358.971C297.47 358.516 297.967 358.267 298.42 358.428C299.736 358.883 300.774 358.897 301.431 358.443C302.06 358.018 302.236 357.242 302.265 356.685C302.353 355.014 302.25 354.033 299.063 353.432C298.581 353.344 298.274 352.875 298.361 352.406C298.449 351.923 298.917 351.615 299.385 351.703C303.42 352.465 304.151 354.223 304.019 356.787C303.946 358.165 303.376 359.264 302.411 359.923C301.929 360.231 301.198 360.524 300.189 360.524Z" fill="#2E2E2E"/>
<path d="M284.517 299.071C284.459 299.335 284.809 299.496 284.956 299.276C287.543 295.672 285.95 292.478 285.116 288.697C284.312 285.019 285.189 281.034 287.324 279.012C287.514 278.836 287.353 278.528 287.09 278.587C282.076 279.789 280.248 285.093 282.017 289.694C283.742 294.133 285.219 295.701 284.517 299.071Z" fill="white"/>
<path d="M284.765 300.273C284.619 300.273 284.458 300.243 284.312 300.17C283.815 299.95 283.552 299.423 283.654 298.895C284.122 296.668 283.537 295.379 282.47 293.005C282.09 292.155 281.651 291.188 281.213 290.016C280.146 287.247 280.248 284.287 281.52 281.884C282.616 279.788 284.531 278.309 286.9 277.737C287.411 277.62 287.909 277.84 288.157 278.294C288.406 278.748 288.303 279.305 287.938 279.657C286.037 281.444 285.233 285.078 285.979 288.507C286.125 289.151 286.286 289.796 286.447 290.426C287.221 293.401 288.025 296.478 285.672 299.789C285.452 300.097 285.116 300.273 284.765 300.273ZM285.365 299.262C285.365 299.247 285.365 299.247 285.365 299.262C285.365 299.247 285.365 299.247 285.365 299.262ZM285.292 280.287C284.356 280.873 283.596 281.693 283.069 282.704C282.061 284.638 281.973 287.129 282.85 289.386C283.289 290.514 283.713 291.452 284.078 292.287C284.678 293.635 285.189 294.763 285.423 295.979C285.672 294.368 285.248 292.756 284.751 290.88C284.59 290.236 284.414 289.576 284.254 288.888C283.596 285.855 284.02 282.616 285.292 280.287Z" fill="#2E2E2E"/>
<path d="M239.987 326.266C240.323 326.266 280.906 335.116 280.906 335.116L277.31 358.722C277.31 358.722 243.042 353.271 238.51 352.48C233.978 351.688 239.987 326.266 239.987 326.266Z" fill="#CFCAD8"/>
<path d="M277.31 359.601C277.28 359.601 277.251 359.601 277.222 359.601C274.956 359.352 221.727 353.505 211.844 344.685C209.49 342.589 208.087 338.823 207.634 333.475C207.239 328.772 207.59 322.999 208.672 316.317C209.461 311.467 212.546 294.456 219.373 279.217C222.078 273.18 225.805 268.052 230.747 263.539C235.63 259.085 242.018 254.967 250.278 250.938C250.717 250.718 251.243 250.908 251.448 251.348C251.667 251.788 251.477 252.315 251.039 252.52C234.884 260.403 226.171 268.345 220.981 279.95C214.242 294.998 211.186 311.804 210.411 316.61C209.344 323.16 209.008 328.787 209.388 333.343C209.797 338.223 211.011 341.593 213.013 343.38C216.888 346.838 229.241 350.443 248.699 353.798C261.433 355.996 273.406 357.403 276.593 357.769L280.16 335.864L240.776 327.541C240.542 327.497 240.337 327.351 240.206 327.145C240.074 326.94 240.045 326.691 240.103 326.457L246.667 301.723C246.799 301.254 247.267 300.976 247.735 301.093C248.202 301.225 248.48 301.694 248.363 302.163L242.033 326.003L281.33 334.311C281.783 334.413 282.09 334.853 282.017 335.307L278.187 358.868C278.114 359.293 277.734 359.601 277.31 359.601Z" fill="#2E2E2E"/>
<path d="M280.277 335.922L240.074 327.424C240.074 327.424 244.942 306.998 246.696 302.515C242.691 307.965 238.027 322.574 236.434 327.849C236.112 328.889 236.755 329.959 237.823 330.193L279.532 339.336L280.277 335.922Z" fill="white"/>
<path d="M441.105 190.115C441.105 190.115 447.158 204.255 454.789 205.266C462.42 206.277 465.871 213.486 463.429 218.263C460.988 223.025 454.789 218.263 457.231 227.069C459.672 235.875 452.333 244.095 442.26 245.692C432.173 247.275 421.954 237.75 421.954 237.75C421.954 237.75 417.422 229.56 417.378 217.999C417.334 206.438 415.609 196.767 418.197 191.712C420.799 186.657 441.105 190.115 441.105 190.115Z" fill="white"/>
<path d="M481.572 335.175L473.795 348.157L505.183 344.406L481.572 335.175Z" fill="white"/>
<path d="M431.427 243.714C431.427 243.714 430.755 247.055 429.161 248.359C427.582 249.663 421.515 253.429 417.466 256.037C413.416 258.63 408.87 262.689 407.305 265.209C405.741 267.744 401.194 275.026 400.229 279.334C399.265 283.642 396.326 299.423 396.326 299.423C396.326 299.423 394.908 313.782 394.689 316.786C394.469 319.79 393.329 339.761 393.329 339.761V341.754H414.191L414.951 346.457L473.078 345.944L474.364 345.564L477.391 339.79L480.271 335.175L505.168 345.27C505.168 345.27 508.106 339.6 508.559 338.003C509.012 336.42 509.86 324.449 509.232 320.991C508.603 317.533 503.238 301.079 502.492 297.503C501.761 293.928 496.104 278.836 494.905 276.917C493.721 274.982 485.738 260.755 481.835 258.542C477.932 256.33 470.987 252.212 468.414 250.777C465.856 249.341 457.947 245.897 456.646 244.139C455.345 242.381 454.16 239.435 454.16 239.435C454.16 239.435 449.073 241.018 445.053 242.102C441.047 243.143 431.427 243.714 431.427 243.714Z" fill="#9D60FB"/>
<path d="M419.074 230.058C419.132 230.629 417.816 237.531 417.246 238.849C422.29 242.234 427.757 243.831 430.447 243.362C431.31 242.263 431.076 236.959 430.74 236.285C427.48 235.23 427.1 235.758 423.532 233.692C419.965 231.626 419.074 230.058 419.074 230.058Z" fill="white"/>
<path d="M421.238 232.109C420.492 229.999 419.323 229.237 419.323 229.237C419.381 229.809 417.598 237.472 417.027 238.791C417.773 239.289 418.519 239.743 419.249 240.168C420.024 237.926 420.96 234.879 421.238 232.109Z" fill="white"/>
<path d="M452.479 220.71C452.041 223.64 452.816 227.303 452.932 230.805C453.049 234.307 454.877 241.091 455.915 242.014C461.646 240.461 470.534 237.135 475.52 231.157C471.792 223.347 470.023 214.526 469.496 210.541C468.985 206.555 467.552 194.32 465.593 189.602C463.634 184.884 457.084 178.584 451.792 176.855C446.5 175.126 439.541 173.836 432.889 175.389C426.237 176.943 422.305 178.774 419.819 181.324C417.466 183.741 415.477 187.829 414.951 191.112C414.425 194.394 414.907 196.723 415.858 198.848C416.808 200.973 417.787 200.724 417.787 200.724C417.787 200.724 417.7 196.504 418.825 195.683C423.854 195.331 428.635 194.394 432.027 193.837C435.418 193.28 438.737 191.8 440.374 191.419C441.573 197.837 445.784 203.962 447.289 205.852C448.795 207.742 450.973 209.676 452.786 209.691C454.599 209.72 455.491 209.178 457.318 209.984C459.38 210.892 461.119 214.658 460.169 216.753C459.219 218.849 459.307 219.508 457.099 220.036C454.906 220.548 452.523 220.739 452.479 220.71Z" fill="white"/>
<path d="M418.299 196.518C417.963 195.024 417.889 193.324 418.226 191.258C418.737 187.976 420.74 183.888 423.094 181.47C425.594 178.906 429.322 176.811 435.959 175.258C437.406 174.921 439.351 175.448 440.813 175.375C438.254 175.228 435.14 174.921 432.611 175.521C425.959 177.074 422.261 178.906 419.761 181.456C417.407 183.873 415.419 187.961 414.893 191.243C414.366 194.526 414.849 196.855 415.799 198.98C416.749 201.105 417.729 200.855 417.729 200.855C417.729 200.855 417.685 197.984 418.299 196.518Z" fill="white"/>
<path d="M454.818 221.53C454.789 221.53 454.775 221.53 454.745 221.53C453.766 221.516 452.83 221.296 451.953 220.871C451.514 220.651 451.339 220.124 451.558 219.699C451.778 219.259 452.304 219.083 452.728 219.303C453.371 219.611 454.058 219.787 454.775 219.787C454.789 219.787 454.818 219.787 454.833 219.787C457.435 219.787 459.57 217.677 459.599 215.054C459.628 212.416 457.508 210.248 454.877 210.218C454.219 210.204 453.576 210.336 452.976 210.585C452.523 210.775 452.011 210.555 451.821 210.116C451.631 209.662 451.851 209.149 452.289 208.958C453.108 208.607 453.985 208.445 454.892 208.445C458.488 208.489 461.383 211.449 461.339 215.054C461.309 218.644 458.386 221.53 454.818 221.53Z" fill="#2E2E2E"/>
<path d="M457.669 215.786H457.655C457.172 215.772 456.792 215.376 456.792 214.893C456.807 214.219 456.573 213.647 456.134 213.266C455.71 212.9 455.125 212.768 454.467 212.885C453.985 212.973 453.532 212.651 453.444 212.167C453.356 211.684 453.678 211.23 454.16 211.142C455.345 210.936 456.456 211.215 457.274 211.918C458.108 212.636 458.561 213.72 458.532 214.907C458.546 215.405 458.152 215.786 457.669 215.786Z" fill="#2E2E2E"/>
<path d="M455.505 243.128C455.111 243.128 454.76 242.864 454.657 242.469C454.54 242 454.818 241.516 455.286 241.399C455.432 241.37 468.955 237.868 474.467 231.186C470.212 223.347 469.35 215.611 468.063 204.05C467.99 203.332 467.903 202.584 467.815 201.837C466.572 190.76 461.309 177.28 443.298 175.99C434.6 175.375 427.685 176.796 422.743 180.225C419.863 182.232 416.471 186.774 415.843 192.005C415.419 195.551 416.398 198.775 418.65 201.339C418.971 201.705 418.942 202.262 418.577 202.584C418.211 202.907 417.656 202.878 417.334 202.511C414.732 199.566 413.606 195.859 414.088 191.815C414.776 186.013 418.43 181.104 421.72 178.803C426.997 175.14 434.293 173.602 443.4 174.261C462.596 175.639 468.21 189.925 469.525 201.661C469.613 202.409 469.686 203.156 469.774 203.874C471.06 215.479 471.923 223.157 476.25 230.864C476.426 231.172 476.396 231.552 476.192 231.831C470.563 239.289 456.295 242.981 455.695 243.128C455.652 243.113 455.578 243.128 455.505 243.128Z" fill="#2E2E2E"/>
<path d="M452.699 210.599C452.596 210.599 452.494 210.585 452.406 210.541C445.813 208.167 440.93 199.302 439.497 191.771C439.41 191.287 439.717 190.833 440.199 190.745C440.682 190.657 441.135 190.965 441.222 191.449C441.895 195.009 443.401 198.833 445.345 201.925C446.895 204.401 449.497 207.625 452.991 208.885C453.444 209.046 453.678 209.559 453.517 210.013C453.386 210.38 453.049 210.599 452.699 210.599Z" fill="#2E2E2E"/>
<path d="M420.448 196.518C419.79 196.518 419.162 196.504 418.577 196.474C418.095 196.445 417.715 196.035 417.744 195.551C417.773 195.068 418.182 194.701 418.665 194.716C423.782 194.98 432.407 194.101 439.848 190.716C440.287 190.511 440.813 190.716 441.003 191.156C441.208 191.595 441.003 192.123 440.565 192.313C433.679 195.434 425.828 196.518 420.448 196.518Z" fill="#2E2E2E"/>
<path d="M430.024 244.652C430.01 244.652 429.98 244.652 429.966 244.652C429.644 244.637 422.188 244.066 416.413 239.567C416.121 239.348 416.004 238.967 416.121 238.615C416.136 238.542 418.27 231.714 418.153 228.197C418.139 227.713 418.519 227.303 419.001 227.289C419.484 227.274 419.893 227.655 419.907 228.138C420.01 231.347 418.504 236.739 417.978 238.542C423.27 242.381 430.024 242.893 430.097 242.908C430.58 242.937 430.945 243.362 430.916 243.846C430.857 244.3 430.477 244.652 430.024 244.652Z" fill="#2E2E2E"/>
<path d="M414.951 346.736L412.115 389.594L494.642 389.389L490.007 363.645L505.182 344.406L473.648 346.003L414.951 346.736Z" fill="white"/>
<path d="M413.709 341.71L393.724 341.373L392.087 389.506L411.56 388.92L413.709 341.71Z" fill="white"/>
<path d="M396.897 341.226C396.897 341.226 398.022 321.255 398.256 318.251C398.49 315.248 399.324 305.211 399.894 300.888C400.581 295.818 402.32 286.719 403.929 280.843C405.098 276.58 408.987 268.975 410.873 266.674C413.051 264.008 416.984 260.095 421.033 257.502C425.083 254.909 430.697 251.509 432.729 249.824C434.264 248.535 435.053 246.161 435.068 243.362C431.852 243.685 431.106 243.919 431.106 243.919C431.106 243.919 430.682 246.718 429.089 248.022C427.51 249.326 422.013 253.883 417.963 256.476C413.914 259.07 408.183 264.359 406.619 266.88C405.054 269.414 401.59 275.759 400.625 280.067C399.66 284.375 396.634 299.584 396.634 299.584C396.634 299.584 395.274 314.368 395.055 317.372C394.835 320.376 394.017 340.963 394.017 340.963L393.081 341.358H396.911V341.226H396.897Z" fill="white"/>
<path d="M431.237 228.695C433.459 228.226 434.687 227.084 435.243 225.413C435.667 224.138 435.652 223.464 435.097 223.157C434.395 222.761 432.699 223.406 430.097 224.05C428.196 224.519 425.389 224.505 425.258 225.926C425.141 227.157 427.714 229.443 431.237 228.695Z" fill="#2E2E2E"/>
<path d="M434.234 226.336C432.845 224.973 428.942 225.003 428.547 228.182C430.93 228.622 433.678 227.289 434.234 226.336Z" fill="white"/>
<path d="M429.877 229.501C428.24 229.501 426.69 228.959 425.55 227.933C424.746 227.215 424.322 226.366 424.38 225.618C424.541 223.875 426.588 223.538 428.401 223.245C428.942 223.157 429.439 223.069 429.892 222.966C430.491 222.82 431.061 222.658 431.558 222.527C433.503 221.999 434.672 221.691 435.52 222.16C436.924 222.937 436.324 224.71 436.076 225.472C435.389 227.538 433.81 228.842 431.412 229.34C430.901 229.443 430.389 229.501 429.877 229.501ZM434.512 223.684C434.044 223.684 432.977 223.977 432.012 224.226C431.5 224.358 430.93 224.519 430.301 224.666C429.789 224.798 429.219 224.886 428.678 224.974C427.86 225.105 426.164 225.384 426.135 225.765C426.135 225.867 426.295 226.248 426.793 226.673C427.202 227.01 428.708 228.094 431.061 227.611C432.86 227.245 433.927 226.38 434.409 224.915C434.687 224.094 434.672 223.787 434.658 223.699C434.628 223.684 434.57 223.684 434.512 223.684Z" fill="#2E2E2E"/>
<path d="M428.343 229.34C427.875 229.34 427.48 228.959 427.465 228.49C427.407 226.703 428.343 225.281 429.951 224.666C431.705 224.006 433.84 224.475 434.907 225.779C435.214 226.16 435.155 226.703 434.79 227.01C434.41 227.318 433.869 227.259 433.562 226.893C432.977 226.175 431.632 225.911 430.579 226.307C429.936 226.556 429.176 227.113 429.22 228.417C429.234 228.9 428.854 229.311 428.372 229.325C428.372 229.34 428.357 229.34 428.343 229.34Z" fill="#2E2E2E"/>
<path d="M432.494 236.945C432.436 236.945 432.377 236.945 432.334 236.945C426.778 236.886 422.626 235.04 420.009 231.479C417.787 228.461 416.691 224.226 416.749 218.893L416.969 199.332C416.983 198.189 417.086 196.093 417.597 194.804C417.773 194.35 418.284 194.13 418.738 194.32C419.191 194.496 419.41 195.009 419.22 195.463C418.928 196.211 418.738 197.661 418.723 199.361L418.504 218.922C418.445 223.86 419.425 227.743 421.413 230.454C423.694 233.56 427.378 235.157 432.348 235.201C433.123 235.216 435.462 235.23 440.36 233.369C440.813 233.194 441.324 233.428 441.485 233.882C441.661 234.336 441.427 234.849 440.974 235.01C436.5 236.71 434 236.945 432.494 236.945Z" fill="#2E2E2E"/>
<path d="M422.632 209.698C422.645 208.524 422.1 207.567 421.414 207.559C420.727 207.551 420.16 208.495 420.147 209.669C420.133 210.842 420.678 211.8 421.365 211.808C422.051 211.815 422.618 210.871 422.632 209.698Z" fill="#2E2E2E"/>
<path d="M417.817 204.094C417.525 204.094 417.232 203.947 417.057 203.669C416.808 203.258 416.94 202.716 417.364 202.467C419.63 201.119 422.612 200.694 425.141 201.354C425.609 201.471 425.887 201.954 425.77 202.423C425.653 202.892 425.171 203.171 424.703 203.053C422.598 202.511 420.127 202.863 418.256 203.976C418.124 204.05 417.963 204.094 417.817 204.094Z" fill="#2E2E2E"/>
<path d="M440.133 209.914C440.146 208.74 439.601 207.783 438.915 207.775C438.228 207.767 437.661 208.712 437.648 209.885C437.634 211.058 438.179 212.016 438.866 212.024C439.552 212.032 440.119 211.087 440.133 209.914Z" fill="#2E2E2E"/>
<path d="M441.53 203.83C441.413 203.83 441.296 203.801 441.179 203.757C439.468 203.024 437.421 202.848 435.711 203.273C435.243 203.39 434.761 203.112 434.644 202.628C434.527 202.16 434.805 201.676 435.287 201.559C437.392 201.031 439.804 201.236 441.88 202.13C442.319 202.321 442.538 202.834 442.348 203.288C442.187 203.625 441.866 203.83 441.53 203.83Z" fill="#2E2E2E"/>
<path d="M427.773 219.742C426.91 219.742 425.77 219.274 425.054 218.614C424.498 218.101 424.206 217.501 424.191 216.871C424.162 215.537 424.922 214.805 425.726 214.013C425.96 213.779 426.209 213.544 426.472 213.266C427.334 212.328 427.948 211.112 428.182 208.211C428.226 207.727 428.636 207.361 429.118 207.405C429.6 207.449 429.966 207.859 429.922 208.343C429.703 211.259 429.074 213.032 427.758 214.468C427.466 214.79 427.188 215.054 426.94 215.288C426.179 216.035 425.931 216.314 425.946 216.827C425.946 217.017 426.106 217.208 426.253 217.325C426.72 217.75 427.495 217.999 427.802 217.984C428.285 217.955 428.694 218.336 428.723 218.819C428.753 219.303 428.372 219.713 427.89 219.742C427.861 219.742 427.817 219.742 427.773 219.742Z" fill="#2E2E2E"/>
<path d="M505.46 346.369C505.343 346.369 505.211 346.34 505.109 346.296L479.92 335.028C479.481 334.838 479.291 334.325 479.467 333.886C480.11 332.303 480.402 331.556 480.534 330.442C481.455 322.896 471.689 302.031 471.587 301.811C471.382 301.372 471.572 300.844 472.011 300.639C472.449 300.434 472.976 300.624 473.18 301.064C473.59 301.943 483.268 322.603 482.288 330.647C482.157 331.761 481.893 332.552 481.411 333.754L505.08 344.347C506.892 340.875 508.047 337.827 508.544 335.277C510.109 327.175 507.039 314.046 504.188 304.463C500.942 293.547 496.659 282.792 494.101 277.825C486.484 263.026 482.434 258.865 468.575 251.656C467.011 250.85 465.564 250.146 464.16 249.472C461.017 247.963 458.532 246.776 456.88 245.253C452.655 241.355 451.778 230.908 451.602 226.585C451.529 224.871 451.456 219.889 451.456 219.684C451.456 219.2 451.836 218.805 452.319 218.79C452.801 218.79 453.196 219.171 453.21 219.655C453.21 219.713 453.283 224.827 453.357 226.512C453.634 233.106 455.009 241.135 458.079 243.963C459.541 245.311 461.909 246.439 464.92 247.89C466.265 248.535 467.8 249.267 469.379 250.088C477.084 254.103 481.47 257.092 485.037 260.77C489.042 264.902 492.068 270.045 495.65 277.005C498.238 282.045 502.58 292.932 505.855 303.95C508.764 313.724 511.878 327.16 510.24 335.6C509.685 338.501 508.325 341.959 506.22 345.886C506.074 346.194 505.767 346.369 505.46 346.369Z" fill="#2E2E2E"/>
<path d="M391.516 390.473C391.502 390.473 391.487 390.473 391.473 390.473C390.99 390.444 390.61 390.034 390.639 389.55L392.993 341.769C393.022 341.285 393.417 340.904 393.914 340.933C394.396 340.963 394.776 341.373 394.747 341.857L392.394 389.638C392.364 390.107 391.984 390.473 391.516 390.473Z" fill="#2E2E2E"/>
<path d="M414.717 347.395C414.249 347.395 413.855 347.014 413.84 346.545C413.723 342.56 411.53 331.527 409.337 323.834C408.708 321.651 408.08 319.819 407.466 318.046C405.916 313.548 404.673 309.987 404.98 304.405C405.375 297.064 406.632 290.236 408.957 282.895C409.103 282.426 409.6 282.177 410.053 282.323C410.521 282.47 410.77 282.968 410.624 283.422C408.343 290.617 407.115 297.313 406.72 304.493C406.442 309.738 407.627 313.152 409.118 317.475C409.703 319.189 410.375 321.123 411.018 323.35C413.109 330.662 415.185 340.992 415.536 345.637L473.633 345.124C474.116 345.124 474.511 345.505 474.525 345.989C474.54 346.472 474.145 346.868 473.663 346.882L414.717 347.395C414.732 347.395 414.732 347.395 414.717 347.395Z" fill="#2E2E2E"/>
<path d="M432.568 244.359C432.056 244.359 431.559 244.344 431.106 244.315C430.624 244.285 430.258 243.875 430.273 243.392C430.302 242.908 430.711 242.542 431.194 242.556C437.173 242.893 449.468 240.813 453.854 238.219C454.278 237.97 454.804 238.117 455.053 238.527C455.301 238.952 455.155 239.479 454.746 239.728C450.389 242.322 439.235 244.359 432.568 244.359Z" fill="#2E2E2E"/>
<path d="M455.652 367.293C455.33 367.293 455.023 367.117 454.862 366.795C454.643 366.355 454.833 365.828 455.257 365.623C455.301 365.594 459.745 363.41 463.108 362.048C464.54 359.689 475.739 341.344 480.388 333.973C480.651 333.563 481.192 333.446 481.601 333.695C482.011 333.959 482.128 334.501 481.879 334.911C476.923 342.75 464.584 363.015 464.453 363.205C464.35 363.366 464.204 363.498 464.029 363.557C460.71 364.89 456.076 367.161 456.017 367.191C455.915 367.264 455.783 367.293 455.652 367.293Z" fill="#2E2E2E"/>
<path d="M473.81 388.745C473.634 388.745 473.459 388.701 473.313 388.583C470.374 386.561 465.754 382.722 461.558 378.004C456.325 372.099 453.123 366.429 452.056 361.154C451.953 360.685 452.26 360.216 452.743 360.113C453.225 360.011 453.679 360.319 453.781 360.802C456.135 372.436 469.395 383.763 474.307 387.147C474.701 387.426 474.804 387.968 474.526 388.364C474.365 388.613 474.102 388.745 473.81 388.745Z" fill="#2E2E2E"/>
<path d="M473.649 387.719C473.371 387.719 473.108 387.587 472.932 387.352C472.654 386.957 472.742 386.415 473.137 386.122C473.195 386.078 477.099 383.206 478.561 376.861C478.59 376.715 478.663 376.583 478.765 376.48C478.955 376.275 497.2 355.615 504.466 344.772C504.729 344.377 505.285 344.26 505.68 344.538C506.074 344.816 506.191 345.358 505.914 345.754C498.925 356.157 481.967 375.469 480.213 377.477C478.561 384.363 474.336 387.426 474.146 387.558C473.999 387.675 473.824 387.719 473.649 387.719Z" fill="#2E2E2E"/>
<path d="M494.875 390.224C494.466 390.224 494.1 389.946 494.013 389.521L489.057 365.652C488.954 365.183 489.261 364.714 489.744 364.612C490.212 364.509 490.68 364.817 490.782 365.301L495.738 389.169C495.84 389.638 495.533 390.107 495.051 390.21C495.007 390.224 494.948 390.224 494.875 390.224Z" fill="#2E2E2E"/>
<path d="M411.662 389.594C411.647 389.594 411.618 389.594 411.604 389.594C411.121 389.565 410.756 389.14 410.799 388.657L413.855 346.457C413.884 345.974 414.308 345.608 414.791 345.651C415.273 345.681 415.638 346.106 415.595 346.589L412.539 388.788C412.51 389.243 412.13 389.594 411.662 389.594Z" fill="#2E2E2E"/>
<path d="M473.867 300.859C474.964 301.196 475.914 302.734 477.727 305.958C480.066 310.134 481.674 314.559 483.121 318.984C484.569 323.409 485.329 326.34 485.08 329.329C484.832 332.303 483.633 334.897 483.633 334.897L481.645 333.842C481.645 333.842 482.551 330.545 482.551 328.23C482.551 325.9 481.879 322.955 480.972 320.566C480.066 318.178 475.885 307.174 475.885 307.174L473.867 300.859Z" fill="white"/>
<path d="M413.196 342.618L393.051 342.56C392.817 342.56 392.583 342.457 392.422 342.296C392.262 342.12 392.174 341.9 392.174 341.651C392.188 341.285 393.46 304.507 397.408 287.598C399.308 279.422 401.209 273.239 404.761 267.671C408.387 261.986 413.635 257.18 421.793 252.125C421.91 252.051 422.041 251.978 422.187 251.89C423.298 251.202 425.374 249.927 427.407 248.418C429.146 247.128 429.95 245.883 430.096 244.227C430.272 242.278 430.213 239.743 429.906 236.476C429.863 235.992 430.213 235.567 430.696 235.523C431.178 235.479 431.602 235.831 431.646 236.315C431.851 238.469 432.085 241.648 431.836 244.403C431.646 246.542 430.564 248.256 428.444 249.839C426.354 251.392 424.234 252.696 423.094 253.399C422.948 253.487 422.816 253.575 422.714 253.634C406.282 263.817 402.758 272.316 399.103 287.994C395.551 303.262 394.177 335.028 393.957 340.802L413.196 340.86C413.679 340.86 414.074 341.256 414.074 341.739C414.074 342.223 413.679 342.618 413.196 342.618Z" fill="#2E2E2E"/>
<path d="M293.465 102.244C293.465 102.244 283.48 101.336 281.521 103.314C279.562 105.292 281.682 108.134 281.682 108.134L282.252 109.541C282.252 109.541 279.942 111.431 280.746 113.395C281.55 115.358 283.027 116.018 283.027 116.018C283.027 116.018 280.191 117.834 280.761 119.607C281.331 121.38 280.351 122.64 283.655 122.67C286.959 122.684 288.056 122.992 288.056 122.992C288.056 122.992 291.038 127.403 293.787 128.575C296.535 129.762 299.737 128.926 301.126 128.047C302.529 127.168 307.047 122.596 307.047 122.596C307.047 122.596 309.634 123.3 311.052 122.362C312.47 121.424 313.377 119.519 312.763 118.435C312.149 117.336 311.374 115.607 311.374 115.607C311.374 115.607 312.748 114.039 312.763 112.296C312.777 110.552 310.906 108.691 310.906 108.691C310.906 108.691 312.646 108.442 312.719 106.244C312.792 104.046 310.394 101.526 307.134 101.599C303.874 101.673 293.465 102.244 293.465 102.244Z" fill="white"/>
<path d="M288.159 109.058H284.007C282.136 109.058 280.601 107.534 280.601 105.644C280.601 103.768 282.121 102.23 284.007 102.23H309.357C311.228 102.23 312.763 103.753 312.763 105.644C312.763 107.519 311.243 109.058 309.357 109.058H288.159Z" fill="white"/>
<path d="M284.007 115.886C282.136 115.886 280.601 114.362 280.601 112.472C280.601 110.596 282.121 109.058 284.007 109.058H288.159L284.007 115.886Z" fill="white"/>
<path d="M309.357 109.058C311.228 109.058 312.763 110.581 312.763 112.472C312.763 114.347 311.243 115.886 309.357 115.886H301.126L309.357 109.058Z" fill="white"/>
<path d="M300.761 115.886H309.372C311.243 115.886 312.778 117.41 312.778 119.3C312.778 121.175 311.257 122.714 309.372 122.714H284.022C282.15 122.714 280.615 121.19 280.615 119.3C280.615 117.424 282.136 115.886 284.022 115.886H300.761Z" fill="white"/>
<path d="M310.365 102.303C312.178 90.5954 325.686 79.8991 323.216 61.73C320.745 43.5609 306.082 37.8757 296.682 37.8757C287.281 37.8757 272.618 43.5609 270.133 61.73C267.662 79.9138 281.17 90.5954 282.983 102.303H310.365Z" fill="white"/>
<path d="M305.805 122.728C304.445 126.465 300.878 129.146 296.667 129.146C292.472 129.146 288.905 126.479 287.545 122.758L305.805 122.728Z" fill="white"/>
<path d="M303.757 102.186C307.31 87.621 310.497 72.8952 307.178 70.0966C303.86 67.298 297.822 79.8991 301.17 80.0163C305.249 80.1628 303.845 69.9354 297.837 69.5984C292.632 69.32 290.673 81.4962 293.305 81.2471C297.939 80.8076 295.132 73.7451 292.267 70.0819C290.395 67.6936 286.419 68.939 285.644 72.2798C284.416 77.5107 288.129 91.4599 290.541 102.171L303.757 102.186Z" fill="white"/>
<path d="M293.158 102.405C293.158 102.405 283.173 101.497 281.214 103.475C279.255 105.453 281.375 108.296 281.375 108.296L281.945 109.702C281.945 109.702 279.635 111.592 280.439 113.556C281.244 115.519 282.72 116.179 282.72 116.179C282.72 116.179 279.884 117.996 280.454 119.769C281.024 121.542 280.045 122.802 283.349 122.831C286.653 122.86 287.749 123.153 287.749 123.153C287.749 123.153 290.732 127.564 293.48 128.736C296.228 129.923 299.43 129.088 300.819 128.208C302.208 127.329 306.74 122.758 306.74 122.758C306.74 122.758 309.328 123.461 310.746 122.523C312.164 121.585 313.07 119.681 312.456 118.596C311.842 117.497 311.067 115.768 311.067 115.768C311.067 115.768 312.441 114.201 312.456 112.457C312.471 110.713 310.599 108.852 310.599 108.852C310.599 108.852 312.339 108.603 312.412 106.406C312.485 104.208 310.088 101.687 306.828 101.761C303.567 101.834 293.158 102.405 293.158 102.405Z" fill="#9D60FB"/>
<path d="M309.05 110.098C308.567 110.098 308.172 109.702 308.172 109.219C308.172 108.735 308.567 108.34 309.05 108.34C310.438 108.34 311.579 107.211 311.579 105.805C311.579 104.413 310.453 103.27 309.05 103.27H283.7C282.311 103.27 281.17 104.398 281.17 105.805C281.17 107.197 282.296 108.34 283.7 108.34H287.851C288.334 108.34 288.729 108.735 288.729 109.219C288.729 109.702 288.334 110.098 287.851 110.098H283.7C281.346 110.098 279.416 108.178 279.416 105.805C279.416 103.446 281.331 101.512 283.7 101.512H309.05C311.403 101.512 313.333 103.431 313.333 105.805C313.318 108.178 311.403 110.098 309.05 110.098Z" fill="#2E2E2E"/>
<path d="M283.685 116.911C281.331 116.911 279.401 114.992 279.401 112.618C279.401 110.259 281.317 108.325 283.685 108.325H287.837C288.319 108.325 288.714 108.721 288.714 109.204C288.714 109.688 288.319 110.083 287.837 110.083H283.685C282.296 110.083 281.156 111.212 281.156 112.618C281.156 114.01 282.281 115.153 283.685 115.153C284.167 115.153 284.562 115.549 284.562 116.032C284.562 116.516 284.167 116.911 283.685 116.911Z" fill="#2E2E2E"/>
<path d="M309.049 116.911H300.819C300.336 116.911 299.941 116.516 299.941 116.032C299.941 115.549 300.336 115.153 300.819 115.153H309.049C310.438 115.153 311.579 114.025 311.579 112.618C311.579 111.226 310.453 110.083 309.049 110.083C308.567 110.083 308.172 109.688 308.172 109.204C308.172 108.721 308.567 108.325 309.049 108.325C311.403 108.325 313.333 110.244 313.333 112.618C313.318 114.992 311.403 116.911 309.049 116.911Z" fill="#2E2E2E"/>
<path d="M309.05 123.739H283.7C281.346 123.739 279.416 121.82 279.416 119.446C279.416 117.087 281.331 115.153 283.7 115.153C284.182 115.153 284.577 115.549 284.577 116.032C284.577 116.516 284.182 116.911 283.7 116.911C282.311 116.911 281.17 118.04 281.17 119.446C281.17 120.838 282.296 121.981 283.7 121.981H309.05C310.438 121.981 311.579 120.853 311.579 119.446C311.579 118.054 310.453 116.911 309.05 116.911H300.439C299.956 116.911 299.562 116.516 299.562 116.032C299.562 115.549 299.956 115.153 300.439 115.153H309.05C311.403 115.153 313.333 117.073 313.333 119.446C313.318 121.805 311.403 123.739 309.05 123.739Z" fill="#2E2E2E"/>
<path d="M310.058 103.343C310.014 103.343 309.971 103.343 309.927 103.328C309.444 103.255 309.123 102.801 309.196 102.332C309.912 97.7459 312.324 93.3501 314.883 88.7053C318.947 81.3497 323.537 73.0124 322.046 62.0084C319.561 43.7807 304.737 38.9161 296.374 38.9161C288.012 38.9161 273.188 43.7807 270.703 62.0084C269.212 73.0124 273.802 81.3497 277.866 88.7053C280.425 93.3501 282.852 97.7312 283.553 102.332C283.626 102.816 283.305 103.255 282.822 103.328C282.34 103.402 281.901 103.079 281.828 102.596C281.17 98.3173 278.817 94.0534 276.331 89.5551C272.136 81.9651 267.399 73.3494 268.963 61.774C270.089 53.4807 273.904 46.7991 280.001 42.4327C284.679 39.0773 290.644 37.1578 296.374 37.1578C302.105 37.1578 308.07 39.0773 312.748 42.4327C318.845 46.7991 322.66 53.4807 323.786 61.774C325.365 73.3494 320.613 81.9651 316.418 89.5551C313.932 94.0534 311.593 98.3173 310.921 102.596C310.862 103.035 310.482 103.343 310.058 103.343Z" fill="#2E2E2E"/>
<path d="M296.36 130.186C291.93 130.186 287.925 127.388 286.419 123.212C286.258 122.758 286.492 122.245 286.945 122.084C287.398 121.922 287.91 122.157 288.071 122.611C289.343 126.084 292.676 128.428 296.375 128.428C300.074 128.428 303.421 126.084 304.679 122.596C304.839 122.142 305.351 121.908 305.804 122.069C306.258 122.23 306.491 122.743 306.331 123.197C304.81 127.373 300.804 130.186 296.36 130.186Z" fill="#2E2E2E"/>
<path d="M303.435 103.226C303.362 103.226 303.289 103.211 303.231 103.197C302.763 103.079 302.471 102.611 302.587 102.127C304.225 95.4308 306.008 87.7675 306.856 81.76C307.938 74.1114 307.149 71.6351 306.301 70.9171C305.672 70.3896 304.751 71.0783 304.079 71.767C303.757 72.104 303.435 72.4996 303.114 72.9392C303.786 74.3458 304.108 75.9136 304.035 77.2617C303.932 79.65 302.646 81.1299 300.804 81.0713C299.956 81.042 299.327 80.5145 299.093 79.6647C298.669 78.1115 299.62 75.2543 301.052 72.8952C300.248 71.6791 299.035 70.756 297.456 70.668C296.155 70.5948 295.175 71.6205 294.503 72.6608C295.863 75.2103 296.857 78.2874 295.979 80.3534C295.629 81.1592 294.854 82.141 293.056 82.3168C292.427 82.3754 291.842 82.0824 291.477 81.4963C290.453 79.8845 290.965 75.6645 292.485 72.6461C292.091 71.9868 291.681 71.3714 291.243 70.8146C290.658 70.0673 289.752 69.7596 288.772 69.9794C287.5 70.2578 286.477 71.3128 286.155 72.6754C285.161 76.8954 287.661 87.5917 289.869 97.0133C290.293 98.8155 290.687 100.515 291.067 102.171C291.17 102.64 290.877 103.109 290.409 103.226C289.942 103.328 289.474 103.035 289.357 102.567C288.977 100.911 288.582 99.2258 288.173 97.4235C285.819 87.3426 283.378 76.91 284.459 72.2798C284.927 70.2724 286.477 68.7046 288.407 68.2797C290.059 67.9134 291.637 68.4702 292.632 69.7449C292.924 70.1112 293.231 70.5508 293.538 71.0197C294.678 69.5691 296.053 68.8511 297.573 68.9244C299.547 69.027 301.067 70.0233 302.149 71.386C302.748 70.6387 303.392 70.0087 304.02 69.5984C305.701 68.5288 306.886 69.1588 307.441 69.6277C309.225 71.1369 309.59 75.0785 308.611 82.053C307.748 88.1338 305.95 95.8557 304.298 102.596C304.196 102.948 303.83 103.226 303.435 103.226ZM293.538 74.6242C292.471 77.4815 292.588 80.0456 292.968 80.5292C293.933 80.4266 294.24 79.9577 294.386 79.6207C294.839 78.5364 294.401 76.6023 293.538 74.6242ZM300.848 79.2837C300.862 79.2837 300.877 79.2837 300.892 79.2837C302.076 79.3277 302.28 77.8038 302.31 77.1591C302.339 76.4411 302.237 75.6206 301.988 74.8294C301.754 75.2982 301.535 75.7818 301.345 76.2653C300.643 78.0969 300.702 79.0932 300.848 79.2837Z" fill="#2E2E2E"/>
<path d="M299.225 22.5932C298.742 22.5932 298.362 22.2122 298.347 21.7287L298.026 1.5522C298.011 1.06867 298.406 0.673054 298.888 0.658401H298.903C299.385 0.658401 299.766 1.03937 299.78 1.5229L300.102 21.6994C300.116 22.1829 299.722 22.5785 299.225 22.5932C299.239 22.5932 299.225 22.5932 299.225 22.5932Z" fill="#2E2E2E"/>
<path d="M335.101 51.1949C334.707 51.1949 334.356 50.9311 334.253 50.5355C334.122 50.0666 334.414 49.5831 334.882 49.4659L354.34 44.2935C354.808 44.1763 355.291 44.4547 355.408 44.9236C355.539 45.3925 355.247 45.876 354.779 45.9932L335.321 51.1656C335.262 51.1802 335.174 51.1949 335.101 51.1949Z" fill="#2E2E2E"/>
<path d="M256.61 54.184C256.522 54.184 256.434 54.1693 256.346 54.14L237.166 48.0153C236.698 47.8688 236.449 47.3706 236.596 46.9163C236.742 46.4475 237.239 46.1984 237.692 46.3449L256.873 52.4696C257.34 52.6162 257.589 53.1144 257.443 53.5686C257.326 53.9495 256.975 54.184 256.61 54.184Z" fill="#2E2E2E"/>
<path d="M323.201 28.8644C322.996 28.8644 322.806 28.7912 322.631 28.6593C322.265 28.3516 322.207 27.7948 322.528 27.4139L331.914 16.2047C332.221 15.8384 332.777 15.7798 333.157 16.1021C333.522 16.4098 333.581 16.9666 333.259 17.3476L323.873 28.5567C323.698 28.7472 323.449 28.8644 323.201 28.8644Z" fill="#2E2E2E"/>
<path d="M275.03 29.1136C274.709 29.1136 274.402 28.9377 274.255 28.6447L267.516 15.6772C267.297 15.2523 267.457 14.7101 267.881 14.4904C268.305 14.2706 268.846 14.4318 269.066 14.8567L275.805 27.8241C276.024 28.2491 275.864 28.7912 275.44 29.011C275.308 29.0843 275.176 29.1136 275.03 29.1136Z" fill="#2E2E2E"/>
<path d="M163.659 296.947C163.659 296.947 172.709 294.676 176.641 293.679C180.559 292.697 184.945 291.042 186.29 289.972C187.635 288.902 187.855 286.778 187.197 285.899C186.539 285.019 186.246 284.375 186.246 284.375C186.246 284.375 187.255 283.232 187.357 281.898C187.46 280.565 186.378 279.334 185.852 278.997C185.325 278.66 185.077 278.016 185.077 278.016C185.077 278.016 186.378 277.796 186.086 275.657C185.793 273.517 185.15 272.404 184.565 272.345C183.98 272.286 183.542 271.891 183.542 271.891C183.542 271.891 184.185 270.396 183.717 269.488C183.249 268.579 182.972 267.686 180.954 267.847C178.937 267.993 175.296 268.99 174.332 269.385C173.367 269.781 171.583 270.484 171.583 270.484C171.583 270.484 170.531 267.847 169.873 266.294C169.229 264.74 168.82 262.088 167.68 260.975C166.539 259.876 165.779 259.187 164.23 259.788C162.68 260.389 162.124 261.37 162.095 263.143C162.081 264.916 162.563 269.371 162.651 271.173C162.738 272.975 162.68 274.924 161.92 275.95C161.16 276.975 156.408 281.474 156.408 281.474L163.659 296.947Z" fill="white"/>
<path d="M163.367 297.767C163.002 297.767 162.651 297.533 162.534 297.152C162.388 296.683 162.636 296.199 163.104 296.038C166.876 294.822 169.961 294.163 172.68 293.576C176.218 292.815 179.273 292.17 183.089 290.529C185.457 289.503 186.802 288.287 186.773 287.173C186.744 286.309 186.305 285.723 185.399 285.386C185.092 285.269 184.872 284.99 184.843 284.653C184.814 284.316 184.96 284.008 185.238 283.818C186.305 283.129 186.714 282.192 186.466 281.049C186.247 280.052 185.326 279.158 184.507 279.188C184.098 279.202 183.732 278.924 183.63 278.528C183.527 278.133 183.717 277.708 184.098 277.532C185.253 276.961 185.253 275.481 184.975 274.631C184.799 274.074 184.302 273.136 183.045 273.078C182.694 273.063 182.387 272.843 182.27 272.506C182.153 272.169 182.226 271.818 182.475 271.568C183.601 270.455 182.402 268.902 182.343 268.828C181.598 267.891 177.548 268.653 172.051 271.539C171.627 271.759 171.086 271.598 170.867 271.173C170.648 270.748 170.809 270.206 171.233 269.986C172.665 269.239 175.472 267.876 178.177 267.158C180.998 266.411 182.811 266.601 183.717 267.759C184.331 268.535 185.077 270.147 184.492 271.656C185.486 272.096 186.247 272.946 186.627 274.103C187.036 275.334 186.948 276.829 186.203 277.942C187.153 278.514 187.913 279.525 188.162 280.697C188.352 281.591 188.425 283.115 187.212 284.448C188.016 285.107 188.469 286.03 188.498 287.144C188.557 289.063 186.905 290.807 183.747 292.17C179.785 293.87 176.496 294.573 173.016 295.32C170.209 295.921 167.3 296.536 163.616 297.738C163.543 297.752 163.455 297.767 163.367 297.767Z" fill="#2E2E2E"/>
<path d="M156.598 281.796C156.321 281.796 156.043 281.664 155.867 281.4C155.604 280.99 155.707 280.448 156.101 280.184C156.189 280.125 156.291 280.067 156.379 279.994C157.768 279.071 159.858 277.679 161.013 274.997C162.183 272.272 161.496 266.484 161.16 264.682C160.56 261.4 161.978 259.334 163.66 258.748C165.195 258.205 167.563 258.689 169.23 261.81C169.697 262.674 170.077 264.008 170.472 265.4C170.984 267.173 171.554 269.18 172.314 270.25C172.592 270.645 172.504 271.187 172.11 271.481C171.715 271.759 171.174 271.671 170.882 271.275C169.946 269.957 169.347 267.891 168.776 265.898C168.396 264.594 168.045 263.348 167.665 262.645C166.73 260.887 165.37 260.008 164.215 260.418C163.236 260.755 162.432 262.118 162.855 264.374C162.87 264.447 164.215 271.905 162.592 275.7C161.233 278.865 158.791 280.492 157.315 281.474C157.212 281.532 157.125 281.591 157.037 281.664C156.935 281.752 156.774 281.796 156.598 281.796Z" fill="#2E2E2E"/>
<path d="M178.571 275.188C178.235 275.188 177.928 274.997 177.782 274.675C177.577 274.235 177.767 273.708 178.206 273.503L182.708 271.393C183.147 271.187 183.673 271.378 183.878 271.818C184.083 272.257 183.893 272.785 183.454 272.99L178.951 275.1C178.82 275.158 178.703 275.188 178.571 275.188Z" fill="#2E2E2E"/>
<path d="M179.902 280.873C179.551 280.873 179.215 280.653 179.083 280.301C178.922 279.847 179.156 279.334 179.609 279.173L184.17 277.503C184.624 277.342 185.135 277.576 185.296 278.03C185.457 278.484 185.223 278.997 184.77 279.158L180.209 280.829C180.106 280.858 180.004 280.873 179.902 280.873Z" fill="#2E2E2E"/>
<path d="M116.293 181.749C117.813 185.91 118.471 187.024 118.457 189.485C118.442 191.947 117.579 199.024 118.398 201.427C119.217 203.83 119.977 205.119 120.854 206.585C121.731 208.05 122.272 206.819 122.345 208.636C122.433 210.453 122.623 210.336 120.854 210.98C119.085 211.625 118.164 213.032 118.164 213.032C118.164 213.032 111.088 226.263 109.29 227.611C107.477 228.959 104.495 231.245 104.495 233.824C104.495 236.402 105.197 242.205 106.366 245.179C107.536 248.168 108.238 250.864 108.238 250.864C108.238 250.864 87.1417 249.516 81.6009 247.406C76.0455 245.297 75.8701 240.432 75.8701 240.432C75.8701 240.432 80.7238 230.893 80.8992 227.552C81.0746 224.212 81.367 218.776 81.367 218.776C81.367 218.776 78.1507 201.295 82.6243 196.548C87.0978 191.8 116.293 181.749 116.293 181.749Z" fill="white"/>
<path d="M85.416 211.112C85.416 211.112 86.2054 211.86 85.9423 213.794C85.6791 215.728 83.8809 218.497 82.7845 219.728C81.688 220.959 80.3723 221.091 80.3723 221.091C80.3723 221.091 74.5391 218.321 72.7848 214.233C71.0304 210.145 67.0686 201.456 67.0978 196.665C67.1271 191.874 68.0919 183.448 71.1182 178.525C74.1444 173.602 81.805 168.781 85.5768 167.858C89.3486 166.935 93.1058 165.66 98.5881 166.114C104.07 166.583 107.14 167.858 109.45 168.986C111.775 170.129 117.038 172.723 118.777 173.206C120.532 173.69 121.891 174.173 122.067 174.613C122.242 175.052 122.681 176.679 121.716 178.701C120.751 180.723 119.625 183.653 115.371 184.225C111.117 184.796 104.714 186.467 101.907 189.06C99.0997 191.654 97.9886 193.236 97.7401 194.907C97.4916 196.577 98.4126 203.259 99.6845 205.53C100.956 207.815 104.026 210.453 107.009 211.42C109.991 212.387 115.649 212.607 115.649 212.607L118.631 213.222C118.631 213.222 119.538 220.651 117.739 223.186C115.941 225.735 114.377 228.959 111.351 229.692C108.325 230.424 105.605 231.04 102.535 230.6C99.4652 230.161 96.3074 227.831 95.518 226.468C94.7285 225.105 93.5005 217.896 94.2899 214.834C95.0794 211.757 94.9478 206.438 94.3777 204.519C93.8075 202.585 93.9683 201.5 91.2637 200.987C88.5591 200.475 86.2785 200.665 85.4306 202.614C84.568 204.563 83.3985 205.09 83.9102 207.288C84.4364 209.486 85.416 211.112 85.416 211.112Z" fill="#2E2E2E"/>
<path d="M76.4688 215.288C73.0186 209.266 71.4836 204.357 70.7818 197.72C70.2848 192.958 70.2555 186.833 74.8022 179.58C77.8723 174.686 84.3633 170.686 89.2608 168.913C92.9157 167.594 96.7898 166.715 102.272 167.169C103.5 167.272 104.582 167.419 105.591 167.594C103.69 166.95 101.307 166.393 98.0617 166.114C92.5794 165.646 88.8222 166.935 85.0504 167.858C81.2786 168.781 73.618 173.617 70.5918 178.525C67.5656 183.434 66.6007 191.874 66.5715 196.665C66.5422 201.456 70.5041 210.145 72.2584 214.233C74.0127 218.321 79.8459 221.091 79.8459 221.091C79.8459 221.091 80.5184 221.017 81.3078 220.519C79.5389 219.303 77.6676 217.369 76.4688 215.288Z" fill="white"/>
<path d="M89.5386 213.603C89.524 213.603 89.524 213.603 89.5093 213.603C89.3485 213.603 89.1731 213.588 88.9977 213.574C87.1849 213.383 85.5475 212.489 84.4072 211.068C83.2669 209.647 82.7406 207.859 82.9306 206.042C83.3254 202.291 86.7024 199.551 90.445 199.947C91.3806 200.05 92.2724 200.328 93.0911 200.797C93.515 201.031 93.6612 201.573 93.4273 201.998C93.1934 202.423 92.6525 202.57 92.2285 202.335C91.6291 201.998 90.9566 201.779 90.2695 201.705C87.4772 201.412 84.9773 203.434 84.685 206.233C84.5388 207.581 84.9335 208.914 85.7814 209.969C86.6293 211.024 87.8427 211.684 89.2023 211.83C89.3339 211.845 89.4509 211.859 89.5824 211.859C90.0649 211.874 90.445 212.284 90.4304 212.768C90.4011 213.222 90.021 213.603 89.5386 213.603Z" fill="#2E2E2E"/>
<path d="M86.7461 207.2C86.7169 207.2 86.6876 207.2 86.6584 207.2C86.1759 207.156 85.8251 206.731 85.8689 206.248C85.9859 205.017 86.5999 203.947 87.5355 203.302C88.4858 202.672 89.6554 202.511 90.8541 202.878C91.322 203.024 91.5851 203.508 91.4389 203.976C91.2927 204.445 90.8103 204.709 90.3425 204.563C89.6407 204.357 89.0121 204.431 88.5004 204.768C87.9887 205.119 87.6671 205.705 87.594 206.423C87.5794 206.848 87.1993 207.2 86.7461 207.2Z" fill="#2E2E2E"/>
<path d="M112.882 203.29C113.616 203.287 114.208 202.268 114.203 201.013C114.198 199.759 113.598 198.744 112.864 198.747C112.129 198.75 111.537 199.77 111.542 201.024C111.547 202.278 112.147 203.293 112.882 203.29Z" fill="#2E2E2E"/>
<path d="M107.462 196.606C107.213 196.606 106.979 196.504 106.804 196.313C106.482 195.947 106.526 195.39 106.892 195.068C109.392 192.87 113.514 192.079 116.891 193.134C117.359 193.28 117.608 193.778 117.462 194.233C117.315 194.701 116.818 194.951 116.365 194.804C113.529 193.91 110.108 194.555 108.047 196.372C107.871 196.533 107.667 196.606 107.462 196.606Z" fill="#2E2E2E"/>
<path d="M118.646 212.563C118.222 212.563 117.857 212.255 117.783 211.83C117.696 211.347 118.017 210.892 118.5 210.819C121.307 210.336 121.658 209.676 121.672 209.237C121.701 208.343 121.204 207.801 119.962 206.599L119.933 206.57C118.705 205.368 117.608 203.991 117.593 200.255L117.564 191.507C117.564 190.994 117.55 190.599 117.52 190.232C117.52 190.218 117.52 190.218 117.52 190.203C117.52 190.159 117.345 186.013 116.716 184.005C116.57 183.536 116.833 183.053 117.286 182.906C117.754 182.76 118.237 183.023 118.383 183.478C119.07 185.661 119.245 189.793 119.26 190.115C119.289 190.511 119.304 190.936 119.304 191.493L119.333 200.24C119.348 203.552 120.298 204.489 121.146 205.31L121.175 205.339C122.506 206.643 123.47 207.596 123.412 209.295C123.324 211.772 120.152 212.314 118.792 212.548C118.748 212.563 118.704 212.563 118.646 212.563Z" fill="#2E2E2E"/>
<path d="M111.321 221.193C108.105 221.193 105.035 219.581 103.456 216.915C103.208 216.504 103.339 215.962 103.763 215.713C104.173 215.464 104.713 215.596 104.962 216.021C106.453 218.526 109.757 219.904 112.842 219.288C113.324 219.2 113.778 219.508 113.88 219.977C113.968 220.461 113.661 220.915 113.193 221.017C112.55 221.135 111.935 221.193 111.321 221.193Z" fill="white"/>
<path d="M105.562 232.109C102.682 232.109 99.8017 231.098 97.1117 229.105C91.8048 225.179 93.0767 216.372 93.9977 209.94L94.0416 209.603C94.2024 208.475 94.5533 204.621 92.1996 202.247C91.8633 201.896 91.8633 201.339 92.1996 201.002C92.5504 200.665 93.106 200.665 93.4422 201.002C96.3661 203.947 95.9714 208.519 95.7813 209.852L95.7375 210.189C94.8749 216.182 93.6907 224.387 98.1497 227.684C105.225 232.915 111.497 229.355 114.085 226.424C117.228 222.864 117.871 218.863 117.769 213.647C116.395 213.486 115.137 213.442 113.924 213.398C111.219 213.31 108.661 213.222 105.211 211.918C98.9683 209.559 95.9275 200.724 96.9947 193.954C97.0093 193.866 97.0386 193.778 97.0824 193.69C99.5677 188.767 103.559 185.119 114.962 183.39C119.655 182.672 121.526 178.716 121.687 175.536C121.702 175.272 121.541 175.038 121.307 174.979C118.427 174.261 116.599 173.309 114.056 172.005C112.696 171.301 111.161 170.51 109.143 169.602C100.767 165.777 91.1908 166.422 85.4015 168.752C75.0072 172.942 69.1886 179.844 68.0776 189.265C67.0104 198.365 69.5103 207.757 75.0949 215.713C78.6182 220.739 80.7526 220.461 81.1035 220.358C81.7175 219.845 85.4454 216.534 85.0799 211.566C85.0507 211.083 85.4015 210.658 85.884 210.629C86.3664 210.599 86.7904 210.951 86.8196 211.435C87.2875 217.794 82.2876 221.662 82.0683 221.823C82.0391 221.853 81.9952 221.867 81.966 221.896C81.6151 222.087 78.4573 223.567 73.6476 216.724C67.8144 208.416 65.2122 198.584 66.3232 189.06C67.5074 178.95 73.6914 171.565 84.7291 167.125C90.8546 164.649 101 163.975 109.845 168.005C111.892 168.942 113.456 169.748 114.83 170.452C117.257 171.712 119.026 172.605 121.702 173.279C122.754 173.543 123.47 174.54 123.412 175.639C123.207 179.477 120.941 184.269 115.196 185.133C104.597 186.745 100.986 189.866 98.676 194.364C97.7988 200.313 100.474 208.255 105.796 210.262C108.968 211.464 111.395 211.552 113.939 211.625C115.415 211.669 116.95 211.728 118.719 211.991C119.143 212.05 119.45 212.402 119.465 212.841C119.655 218.849 119.026 223.406 115.357 227.582C113.442 229.75 110.722 231.318 107.901 231.875C107.155 232.036 106.351 232.109 105.562 232.109Z" fill="#2E2E2E"/>
<path d="M57.537 364.26L57.0107 388.495C57.0107 388.495 122.813 388.305 123.12 388.276C123.412 388.261 123.412 387.719 123.412 387.719L123.12 364.451L57.537 364.26Z" fill="white"/>
<path d="M80.8842 235.714L76.9808 234.292C76.9808 234.292 71.4985 241.238 68.4285 247.113C65.3584 253.004 62.2591 262.586 61.0603 269.165C59.8615 275.744 58.6335 293.62 58.5311 298.324C58.4288 303.042 56.8791 341.607 56.8791 341.607L55.5195 364.084L124.903 364.319L125.064 330.135C125.064 330.135 131.687 328.01 135.999 324.948C140.312 321.87 154.537 310.808 156.437 309.152C158.338 307.482 167.109 300.185 167.109 300.185L154.157 282.133L126.073 295.965L122.549 290.573C122.549 290.573 120.854 279.071 119.114 271.979C117.374 264.887 113.456 256.535 110.795 250.571C108.135 244.622 105.211 240.74 105.211 240.74C105.211 240.74 102.55 241.267 98.062 240.564C93.5446 239.875 84.9045 238.131 80.8842 235.714Z" fill="#CFCAD8"/>
<path d="M60.5194 364.114L61.879 341.637C61.879 341.637 62.9901 303.057 63.0924 298.353C63.1948 293.635 64.4228 275.774 65.6216 269.195C66.8204 262.616 69.9197 253.018 72.9898 247.143C75.1681 242.981 78.9691 238.307 80.7527 235.919C80.6503 235.86 80.5334 235.802 80.431 235.743L77.4048 234.205C77.4048 234.205 71.0454 241.267 67.9753 247.143C64.9052 253.033 61.8059 262.616 60.6071 269.195C59.4083 275.774 58.8967 293.826 58.7943 298.544C58.692 303.262 56.426 341.651 56.426 341.651L56.0312 364.128L60.5194 364.114Z" fill="white"/>
<path d="M101.103 241.809C91.6295 241.809 81.6152 237.868 77.1125 234.688C76.7177 234.41 76.63 233.853 76.9078 233.457C77.1856 233.062 77.7411 232.974 78.1358 233.252C80.1972 234.717 84.3198 236.827 89.7144 238.351C93.7055 239.48 99.6848 240.637 105.459 239.743C105.942 239.67 106.381 239.992 106.468 240.476C106.541 240.959 106.22 241.399 105.737 241.487C104.217 241.692 102.667 241.809 101.103 241.809Z" fill="#2E2E2E"/>
<path d="M122.622 292.434C122.169 292.434 121.789 292.097 121.745 291.642C120.342 276.755 116.278 263.041 108.968 248.461C107.901 246.337 107.111 244.93 106.41 243.699C105.854 242.732 105.386 241.897 104.889 240.901C104.86 240.842 104.831 240.769 104.816 240.696C103.939 236.681 103.749 231.245 104.392 228.08C104.48 227.611 104.948 227.289 105.43 227.391C105.898 227.479 106.219 227.948 106.117 228.431C105.547 231.318 105.722 236.476 106.512 240.227C106.965 241.135 107.418 241.926 107.945 242.835C108.661 244.095 109.465 245.516 110.547 247.67C117.959 262.44 122.067 276.36 123.5 291.467C123.543 291.95 123.193 292.375 122.71 292.419C122.681 292.434 122.652 292.434 122.622 292.434Z" fill="#2E2E2E"/>
<path d="M124.903 365.227C124.903 365.227 124.889 365.227 124.903 365.227L55.8703 364.993C55.6364 364.993 55.4025 364.89 55.2417 364.729C55.0809 364.568 54.9932 364.333 54.9932 364.099C55.0078 363.718 56.1042 324.933 58.7065 282.91L58.7504 282.235C59.262 273.825 60.607 251.509 76.8784 233.487C78.5304 229.985 79.3637 226.966 79.8169 218.746C79.8461 218.263 80.2555 217.896 80.7379 217.911C81.2204 217.94 81.5859 218.351 81.5712 218.834C81.1034 227.391 80.1824 230.659 78.4134 234.351C78.3696 234.424 78.3257 234.498 78.2673 234.556C62.3321 252.139 61.0017 274.074 60.5047 282.338L60.4608 283.012C58.0779 321.446 56.9522 357.168 56.7767 363.234L124.026 363.469C123.997 358.37 123.88 332.933 123.821 330.09C123.807 329.607 124.201 329.211 124.684 329.197C125.166 329.182 125.561 329.578 125.576 330.061C125.634 333.211 125.78 364.026 125.78 364.348C125.78 364.582 125.693 364.802 125.517 364.978C125.356 365.125 125.137 365.227 124.903 365.227Z" fill="#2E2E2E"/>
<path d="M123.719 389.169C123.236 389.169 122.842 388.774 122.842 388.29L122.71 364.465C122.71 363.982 123.105 363.586 123.587 363.586C124.07 363.586 124.464 363.982 124.464 364.465L124.596 388.29C124.596 388.774 124.216 389.169 123.719 389.169Z" fill="#2E2E2E"/>
<path d="M126.058 296.873C125.795 296.873 125.546 296.756 125.371 296.551C121.131 291.291 116.351 284.917 111.716 278.748C106.57 271.891 101.702 265.4 98.9389 262.323C98.6172 261.956 98.6465 261.4 98.9973 261.077C99.3628 260.755 99.9184 260.784 100.24 261.136C103.062 264.271 107.944 270.792 113.12 277.679C117.579 283.627 122.184 289.767 126.292 294.895C135.531 290.397 154.098 281.43 154.288 281.327C154.727 281.122 155.253 281.298 155.457 281.737C155.662 282.177 155.487 282.704 155.048 282.909C154.858 282.997 135.429 292.39 126.438 296.771C126.321 296.844 126.189 296.873 126.058 296.873Z" fill="#2E2E2E"/>
<path d="M121.877 331.263C116.467 331.263 109.026 326.676 99.1727 317.27C90.8688 309.328 82.682 299.745 76.7173 292.741C74.0419 289.591 71.9221 287.115 70.4894 285.606C70.1532 285.254 70.1678 284.697 70.5186 284.36C70.8695 284.023 71.425 284.038 71.7613 284.389C73.2232 285.928 75.343 288.433 78.0476 291.598C83.9977 298.573 92.1261 308.126 100.371 315.995C109.991 325.182 117.345 329.724 122.213 329.504C132.768 329.006 149.96 313.753 160.223 304.639C161.948 303.115 163.425 301.797 164.726 300.683C165.092 300.361 165.647 300.405 165.969 300.786C166.29 301.152 166.246 301.709 165.866 302.031C164.58 303.145 163.103 304.449 161.393 305.973C156.232 310.559 149.171 316.83 142.168 321.885C133.762 327.966 127.257 331.043 122.301 331.277C122.169 331.248 122.023 331.263 121.877 331.263Z" fill="#2E2E2E"/>
<path d="M56.9817 389.331H56.967C56.4846 389.316 56.1045 388.92 56.1045 388.437L56.66 364.246C56.6746 363.762 57.0548 363.381 57.5372 363.381H57.5518C58.0343 363.396 58.4144 363.791 58.4144 364.275L57.8588 388.466C57.8442 388.95 57.4641 389.331 56.9817 389.331Z" fill="#2E2E2E"/>
<path d="M146.978 285.679C147.797 285.313 149.668 284.36 150.413 283.921C150.428 283.906 150.443 283.891 150.472 283.877C151.788 282.631 155.165 280.345 156.217 279.818C156.378 279.73 156.568 279.789 156.671 279.95L169.711 297.928C169.828 298.09 169.784 298.309 169.623 298.427L160.428 306.002C160.252 306.134 160.018 306.075 159.901 305.899L146.832 286.206C146.7 286.016 146.773 285.767 146.978 285.679Z" fill="#CFCAD8"/>
<path d="M160.209 306.954C160.136 306.954 160.048 306.954 159.975 306.94C159.639 306.881 159.346 306.676 159.156 306.397L146.086 286.704L146.072 286.69C145.882 286.382 145.823 286.016 145.94 285.664C146.042 285.327 146.291 285.034 146.627 284.888C147.387 284.551 149.171 283.642 149.917 283.203C151.305 281.913 154.683 279.627 155.823 279.056C156.364 278.777 157.036 278.953 157.387 279.466L170.413 297.445C170.413 297.459 170.428 297.459 170.428 297.474C170.793 298.016 170.676 298.749 170.164 299.159L160.983 306.72C160.969 306.734 160.954 306.734 160.94 306.749C160.735 306.866 160.472 306.954 160.209 306.954ZM147.884 286.221L160.311 304.947L168.703 298.045L156.218 280.814C154.96 281.547 152.197 283.437 151.072 284.507C150.998 284.565 150.94 284.624 150.852 284.668C150.209 285.049 148.835 285.767 147.884 286.221Z" fill="#2E2E2E"/>
<path d="M179.93 287.818C179.579 287.818 179.258 287.613 179.111 287.261C178.936 286.807 179.155 286.294 179.594 286.118L185.105 283.906C185.559 283.73 186.07 283.95 186.246 284.389C186.421 284.844 186.202 285.356 185.763 285.532L180.252 287.745C180.149 287.789 180.047 287.818 179.93 287.818Z" fill="#2E2E2E"/>
<path d="M248.569 389.301C248.569 389.301 250.966 388.393 250.966 386.81C250.966 385.228 251.04 383.426 244.432 383.572C237.824 383.719 196.29 383.543 196.29 383.543L183.673 333.739C183.673 333.739 184.273 330.808 180.413 330.808C176.554 330.808 106.527 330.706 106.527 330.706C106.527 330.706 104.466 331.644 104.509 333.153C104.553 334.662 118.091 388.158 118.091 388.158C118.091 388.158 118.793 388.964 119.845 389.111C120.898 389.257 248.569 389.301 248.569 389.301Z" fill="#9D60FB"/>
<path d="M108.559 335.966C108.544 335.468 108.617 334.853 108.91 334.486C109.539 333.724 110.664 333.534 111.644 333.534C120.401 333.549 179.054 333.636 183.674 333.636C183.732 333.08 183.776 330.823 180.399 330.823C176.539 330.823 106.512 330.721 106.512 330.721C106.512 330.721 104.451 331.658 104.495 333.168C104.539 334.677 118.076 388.173 118.076 388.173C118.076 388.173 118.778 388.979 119.831 389.125C119.889 389.14 120.956 389.14 121.673 389.155C119.29 379.748 108.603 337.3 108.559 335.966Z" fill="white"/>
<path d="M194.17 390.093H120.284C119.027 390.093 117.433 389.536 116.921 386.898L103.705 333.519C103.705 333.505 103.705 333.505 103.705 333.49C103.515 332.581 103.676 331.761 104.173 331.116C104.583 330.603 105.401 329.973 107.039 329.929C107.053 329.929 107.053 329.929 107.068 329.929H180.954C182.636 329.929 183.761 330.999 184.302 333.094L196.729 383.294C196.846 383.763 196.553 384.246 196.086 384.363C195.618 384.481 195.135 384.188 195.018 383.719L182.592 333.534C182.153 331.849 181.51 331.702 180.94 331.702H107.068C106.322 331.732 105.781 331.907 105.547 332.23C105.372 332.45 105.328 332.743 105.416 333.138L118.632 386.532C118.632 386.547 118.632 386.561 118.646 386.576C118.953 388.144 119.641 388.364 120.284 388.364H194.17C194.653 388.364 195.048 388.759 195.048 389.243C195.048 389.726 194.653 390.093 194.17 390.093Z" fill="#2E2E2E"/>
<path d="M248.247 390.092H199.769C199.287 390.092 198.892 389.697 198.892 389.213C198.892 388.73 199.287 388.334 199.769 388.334H248.247C249.3 388.334 250.148 387.484 250.148 386.429C250.148 385.316 249.197 384.525 247.838 384.51H195.953C195.471 384.51 195.076 384.114 195.076 383.631C195.076 383.147 195.471 382.752 195.953 382.752H247.838C250.191 382.766 251.902 384.305 251.902 386.429C251.902 388.451 250.264 390.092 248.247 390.092Z" fill="#2E2E2E"/>
<path d="M153.746 368.882C156.648 367.203 157.341 362.962 155.294 359.409C153.247 355.855 149.236 354.336 146.334 356.016C143.432 357.695 142.739 361.936 144.786 365.489C146.833 369.042 150.844 370.561 153.746 368.882Z" fill="white"/>
<path d="M151.16 370.458C150.341 370.458 149.493 370.297 148.645 369.975C146.76 369.257 145.122 367.821 144.04 365.931C141.76 361.96 142.593 357.183 145.912 355.263C149.23 353.344 153.777 355.014 156.072 358.971C157.169 360.861 157.578 363 157.256 364.993C156.92 367.044 155.838 368.7 154.201 369.652C153.265 370.195 152.242 370.458 151.16 370.458ZM145.561 365.066C146.453 366.605 147.768 367.777 149.274 368.334C150.721 368.876 152.154 368.802 153.324 368.128C154.493 367.454 155.283 366.238 155.531 364.714C155.794 363.132 155.444 361.403 154.552 359.864C152.754 356.743 149.274 355.366 146.789 356.802C144.303 358.223 143.748 361.945 145.561 365.066Z" fill="#2E2E2E"/>
<path d="M523.428 392.657H27.055C26.0462 392.657 25.2275 391.836 25.2275 390.825C25.2275 389.814 26.0462 388.994 27.055 388.994H523.428C524.436 388.994 525.255 389.814 525.255 390.825C525.255 391.836 524.436 392.657 523.428 392.657Z" fill="#2E2E2E"/>
</svg>
