<svg width="100" height="100" viewBox="0 0 100 100" fill="none" xmlns="http://www.w3.org/2000/svg">
<style>
@-webkit-keyframes bounce2 {0%, 20%, 50%, 80%, 100% {transform: translateY(0);}40% {transform: translateY(-10px);}60% {transform: translateY(-5px);}}
@-o-keyframes bounce2 {0%, 20%, 50%, 80%, 100% {transform: translateY(0);}40% {transform: translateY(-10px);}60% {transform: translateY(-5px);}}
@keyframes bounce2 {0%, 20%, 50%, 80%, 100% {transform: translateY(0);}40% {transform: translateY(-10px);}60% {transform: translateY(-5px);}}

#_heartbeat {
    animation: bounce2 2s ease infinite;
	-webkit-animation: bounce2 2s ease infinite;
	-moz-animation: bounce2 2s ease infinite;
	-o-animation: bounce2 2s ease infinite;
}
</style>
<rect width="100" height="100" rx="15" fill="#EBDFFE"/>
<g id="_heartbeat">
<path d="M42.0548 62.2339C42.0548 62.42 41.8323 62.5689 41.5516 62.5689C41.2323 62.5968 41.0097 62.4479 41.0097 62.2339C41.0097 62.0478 41.2323 61.8989 41.5129 61.8989C41.8032 61.871 42.0548 62.0199 42.0548 62.2339ZM39.0452 61.8152C38.9774 62.0013 39.171 62.2153 39.4613 62.2712C39.7129 62.3642 40.0032 62.2712 40.0613 62.0851C40.1194 61.8989 39.9355 61.6849 39.6452 61.6012C39.3935 61.5361 39.1129 61.6291 39.0452 61.8152ZM43.3226 61.657C43.0419 61.7222 42.8484 61.899 42.8774 62.113C42.9065 62.2991 43.1581 62.42 43.4484 62.3549C43.729 62.2898 43.9226 62.113 43.8935 61.9269C43.8645 61.7501 43.6032 61.6291 43.3226 61.657ZM49.6903 26C36.2677 26 26 35.7982 26 48.7044C26 59.0237 32.7548 67.8542 42.4032 70.9621C43.6419 71.1761 44.0774 70.441 44.0774 69.8362C44.0774 69.2593 44.0484 66.0769 44.0484 64.1229C44.0484 64.1229 37.2742 65.5186 35.8516 61.35C35.8516 61.35 34.7484 58.6422 33.1613 57.9443C33.1613 57.9443 30.9452 56.4834 33.3161 56.5113C33.3161 56.5113 35.7258 56.6974 37.0516 58.912C39.171 62.5038 42.7226 61.4709 44.1065 60.8568C44.329 59.368 44.9581 58.3351 45.6548 57.721C40.2452 57.1441 34.7871 56.3903 34.7871 47.4389C34.7871 44.88 35.5226 43.5959 37.071 41.9582C36.8194 41.3534 35.9968 38.8596 37.3226 35.64C39.3452 35.0352 44 38.1524 44 38.1524C45.9355 37.6313 48.0161 37.3615 50.0774 37.3615C52.1387 37.3615 54.2194 37.6313 56.1548 38.1524C56.1548 38.1524 60.8097 35.0259 62.8323 35.64C64.1581 38.8689 63.3355 41.3534 63.0839 41.9582C64.6323 43.6052 65.5806 44.8893 65.5806 47.4389C65.5806 56.4183 59.8806 57.1348 54.471 57.721C55.3613 58.4561 56.1161 59.8518 56.1161 62.0385C56.1161 65.1743 56.0871 69.0545 56.0871 69.8176C56.0871 70.4224 56.5323 71.1575 57.7613 70.9435C67.4387 67.8542 74 59.0237 74 48.7044C74 35.7982 63.1129 26 49.6903 26ZM35.4065 58.0932C35.2806 58.1862 35.3097 58.4002 35.4742 58.577C35.629 58.7259 35.8516 58.7911 35.9774 58.6701C36.1032 58.577 36.0742 58.363 35.9097 58.1862C35.7548 58.0373 35.5323 57.9722 35.4065 58.0932ZM34.3613 57.3395C34.2935 57.4604 34.3903 57.6093 34.5839 57.7024C34.7387 57.7954 34.9323 57.7675 35 57.6372C35.0677 57.5163 34.971 57.3674 34.7774 57.2743C34.5839 57.2185 34.429 57.2464 34.3613 57.3395ZM37.4968 60.6521C37.3419 60.773 37.4 61.0522 37.6226 61.229C37.8452 61.443 38.1258 61.4709 38.2516 61.322C38.3774 61.2011 38.3194 60.9219 38.1258 60.7451C37.9129 60.5311 37.6226 60.5032 37.4968 60.6521ZM36.3935 59.2842C36.2387 59.3773 36.2387 59.6192 36.3935 59.8332C36.5484 60.0472 36.8097 60.1403 36.9355 60.0472C37.0903 59.9263 37.0903 59.6843 36.9355 59.4703C36.8 59.2563 36.5484 59.1633 36.3935 59.2842Z" fill="#9D60FB"/>
</g>
</svg>

