<svg width="570" height="430" viewBox="0 0 570 430" fill="none" xmlns="http://www.w3.org/2000/svg">
<rect x="40" y="44" width="490" height="30" rx="5" fill="#EEF1F4"/>
<rect x="40" y="44" width="305" height="30" rx="5" fill="#F99555"/>
<rect x="40" y="44" width="244" height="30" rx="5" fill="#FEE493"/>
<rect x="40" y="44" width="123" height="30" rx="5" fill="#60BA61"/>
<line x1="60" y1="384.5" x2="528" y2="384.5" stroke="#D9DCE0"/>
<line x1="60" y1="330.5" x2="528" y2="330.5" stroke="#E1E4E8" stroke-dasharray="7 7"/>
<line x1="60" y1="276.5" x2="528" y2="276.5" stroke="#E1E4E8" stroke-dasharray="7 7"/>
<line x1="60" y1="220.5" x2="528" y2="220.5" stroke="#E1E4E8" stroke-dasharray="7 7"/>
<line x1="60" y1="163.5" x2="528" y2="163.5" stroke="#E1E4E8" stroke-dasharray="7 7"/>
<path d="M455.238 185V176.796H452.466V175.816H459.186V176.796H456.414V185H455.238ZM460.086 185V178.196H461.038L461.136 179.428H461.178C461.411 178.999 461.691 178.658 462.018 178.406C462.354 178.154 462.718 178.028 463.11 178.028C463.38 178.028 463.623 178.075 463.838 178.168L463.614 179.176C463.502 179.139 463.399 179.111 463.306 179.092C463.212 179.073 463.096 179.064 462.956 179.064C462.666 179.064 462.363 179.181 462.046 179.414C461.738 179.647 461.467 180.053 461.234 180.632V185H460.086ZM466.165 185.168C465.596 185.168 465.12 185 464.737 184.664C464.364 184.328 464.177 183.852 464.177 183.236C464.177 182.489 464.509 181.92 465.171 181.528C465.834 181.127 466.893 180.847 468.349 180.688C468.349 180.473 468.326 180.263 468.279 180.058C468.242 179.853 468.172 179.671 468.069 179.512C467.967 179.353 467.822 179.227 467.635 179.134C467.458 179.031 467.229 178.98 466.949 178.98C466.557 178.98 466.189 179.055 465.843 179.204C465.498 179.353 465.19 179.521 464.919 179.708L464.471 178.91C464.789 178.705 465.176 178.509 465.633 178.322C466.091 178.126 466.595 178.028 467.145 178.028C467.976 178.028 468.578 178.285 468.951 178.798C469.325 179.302 469.511 179.979 469.511 180.828V185H468.559L468.461 184.188H468.419C468.093 184.459 467.743 184.692 467.369 184.888C466.996 185.075 466.595 185.168 466.165 185.168ZM466.501 184.244C466.828 184.244 467.136 184.169 467.425 184.02C467.715 183.861 468.023 183.633 468.349 183.334V181.444C467.78 181.519 467.299 181.607 466.907 181.71C466.525 181.813 466.212 181.934 465.969 182.074C465.736 182.214 465.563 182.377 465.451 182.564C465.349 182.741 465.297 182.937 465.297 183.152C465.297 183.544 465.414 183.824 465.647 183.992C465.881 184.16 466.165 184.244 466.501 184.244ZM471.652 185V178.196H472.8V185H471.652ZM472.24 176.796C472.016 176.796 471.825 176.726 471.666 176.586C471.517 176.446 471.442 176.269 471.442 176.054C471.442 175.83 471.517 175.653 471.666 175.522C471.825 175.382 472.016 175.312 472.24 175.312C472.464 175.312 472.651 175.382 472.8 175.522C472.959 175.653 473.038 175.83 473.038 176.054C473.038 176.269 472.959 176.446 472.8 176.586C472.651 176.726 472.464 176.796 472.24 176.796ZM475.097 185V178.196H476.049L476.147 179.176H476.189C476.516 178.849 476.857 178.579 477.211 178.364C477.575 178.14 477.995 178.028 478.471 178.028C479.19 178.028 479.713 178.252 480.039 178.7C480.375 179.148 480.543 179.811 480.543 180.688V185H479.395V180.842C479.395 180.198 479.293 179.736 479.087 179.456C478.882 179.167 478.555 179.022 478.107 179.022C477.753 179.022 477.44 179.111 477.169 179.288C476.899 179.465 476.591 179.727 476.245 180.072V185H475.097ZM487.88 185.168C487.022 185.168 486.336 184.86 485.822 184.244C485.318 183.628 485.066 182.751 485.066 181.612C485.066 181.061 485.146 180.567 485.304 180.128C485.472 179.68 485.692 179.302 485.962 178.994C486.233 178.686 486.546 178.448 486.9 178.28C487.255 178.112 487.628 178.028 488.02 178.028C488.412 178.028 488.753 178.098 489.042 178.238C489.332 178.378 489.626 178.569 489.924 178.812L489.868 177.65V175.032H491.03V185H490.078L489.98 184.202H489.938C489.668 184.463 489.355 184.692 489 184.888C488.655 185.075 488.282 185.168 487.88 185.168ZM488.132 184.202C488.45 184.202 488.748 184.127 489.028 183.978C489.308 183.819 489.588 183.581 489.868 183.264V179.708C489.579 179.447 489.299 179.265 489.028 179.162C488.767 179.05 488.496 178.994 488.216 178.994C487.946 178.994 487.689 179.059 487.446 179.19C487.213 179.311 487.008 179.489 486.83 179.722C486.653 179.946 486.513 180.217 486.41 180.534C486.308 180.851 486.256 181.206 486.256 181.598C486.256 182.419 486.42 183.059 486.746 183.516C487.073 183.973 487.535 184.202 488.132 184.202ZM494.89 185.168C494.32 185.168 493.844 185 493.462 184.664C493.088 184.328 492.902 183.852 492.902 183.236C492.902 182.489 493.233 181.92 493.896 181.528C494.558 181.127 495.618 180.847 497.074 180.688C497.074 180.473 497.05 180.263 497.004 180.058C496.966 179.853 496.896 179.671 496.794 179.512C496.691 179.353 496.546 179.227 496.36 179.134C496.182 179.031 495.954 178.98 495.674 178.98C495.282 178.98 494.913 179.055 494.568 179.204C494.222 179.353 493.914 179.521 493.644 179.708L493.196 178.91C493.513 178.705 493.9 178.509 494.358 178.322C494.815 178.126 495.319 178.028 495.87 178.028C496.7 178.028 497.302 178.285 497.676 178.798C498.049 179.302 498.236 179.979 498.236 180.828V185H497.284L497.186 184.188H497.144C496.817 184.459 496.467 184.692 496.094 184.888C495.72 185.075 495.319 185.168 494.89 185.168ZM495.226 184.244C495.552 184.244 495.86 184.169 496.15 184.02C496.439 183.861 496.747 183.633 497.074 183.334V181.444C496.504 181.519 496.024 181.607 495.632 181.71C495.249 181.813 494.936 181.934 494.694 182.074C494.46 182.214 494.288 182.377 494.176 182.564C494.073 182.741 494.022 182.937 494.022 183.152C494.022 183.544 494.138 183.824 494.372 183.992C494.605 184.16 494.89 184.244 495.226 184.244ZM502.327 185.168C501.963 185.168 501.655 185.112 501.403 185C501.16 184.888 500.96 184.734 500.801 184.538C500.652 184.342 500.544 184.104 500.479 183.824C500.414 183.544 500.381 183.236 500.381 182.9V179.134H499.373V178.266L500.437 178.196L500.577 176.292H501.543V178.196H503.377V179.134H501.543V182.914C501.543 183.334 501.618 183.661 501.767 183.894C501.926 184.118 502.201 184.23 502.593 184.23C502.714 184.23 502.845 184.211 502.985 184.174C503.125 184.137 503.251 184.095 503.363 184.048L503.587 184.916C503.4 184.981 503.195 185.037 502.971 185.084C502.756 185.14 502.542 185.168 502.327 185.168ZM506.183 185.168C505.613 185.168 505.137 185 504.755 184.664C504.381 184.328 504.195 183.852 504.195 183.236C504.195 182.489 504.526 181.92 505.189 181.528C505.851 181.127 506.911 180.847 508.367 180.688C508.367 180.473 508.343 180.263 508.297 180.058C508.259 179.853 508.189 179.671 508.087 179.512C507.984 179.353 507.839 179.227 507.653 179.134C507.475 179.031 507.247 178.98 506.967 178.98C506.575 178.98 506.206 179.055 505.861 179.204C505.515 179.353 505.207 179.521 504.937 179.708L504.489 178.91C504.806 178.705 505.193 178.509 505.651 178.322C506.108 178.126 506.612 178.028 507.163 178.028C507.993 178.028 508.595 178.285 508.969 178.798C509.342 179.302 509.529 179.979 509.529 180.828V185H508.577L508.479 184.188H508.437C508.11 184.459 507.76 184.692 507.387 184.888C507.013 185.075 506.612 185.168 506.183 185.168ZM506.519 184.244C506.845 184.244 507.153 184.169 507.443 184.02C507.732 183.861 508.04 183.633 508.367 183.334V181.444C507.797 181.519 507.317 181.607 506.925 181.71C506.542 181.813 506.229 181.934 505.987 182.074C505.753 182.214 505.581 182.377 505.469 182.564C505.366 182.741 505.315 182.937 505.315 183.152C505.315 183.544 505.431 183.824 505.665 183.992C505.898 184.16 506.183 184.244 506.519 184.244ZM513.447 185.168C512.962 185.168 512.5 185.079 512.061 184.902C511.623 184.725 511.24 184.501 510.913 184.23L511.487 183.46C511.786 183.703 512.089 183.899 512.397 184.048C512.715 184.197 513.079 184.272 513.489 184.272C513.937 184.272 514.273 184.169 514.497 183.964C514.721 183.759 514.833 183.507 514.833 183.208C514.833 183.031 514.787 182.877 514.693 182.746C514.6 182.615 514.479 182.503 514.329 182.41C514.189 182.307 514.026 182.219 513.839 182.144C513.653 182.069 513.466 181.995 513.279 181.92C513.037 181.836 512.794 181.743 512.551 181.64C512.309 181.528 512.089 181.397 511.893 181.248C511.707 181.089 511.553 180.907 511.431 180.702C511.31 180.497 511.249 180.249 511.249 179.96C511.249 179.689 511.301 179.437 511.403 179.204C511.515 178.961 511.669 178.756 511.865 178.588C512.071 178.411 512.318 178.275 512.607 178.182C512.897 178.079 513.223 178.028 513.587 178.028C514.017 178.028 514.409 178.103 514.763 178.252C515.127 178.401 515.44 178.583 515.701 178.798L515.155 179.526C514.922 179.349 514.679 179.204 514.427 179.092C514.175 178.98 513.9 178.924 513.601 178.924C513.172 178.924 512.855 179.022 512.649 179.218C512.453 179.414 512.355 179.643 512.355 179.904C512.355 180.063 512.397 180.203 512.481 180.324C512.565 180.436 512.677 180.539 512.817 180.632C512.957 180.716 513.116 180.795 513.293 180.87C513.48 180.935 513.671 181.005 513.867 181.08C514.11 181.173 514.353 181.271 514.595 181.374C514.847 181.477 515.071 181.607 515.267 181.766C515.463 181.915 515.622 182.102 515.743 182.326C515.874 182.55 515.939 182.821 515.939 183.138C515.939 183.418 515.883 183.679 515.771 183.922C515.669 184.165 515.51 184.379 515.295 184.566C515.09 184.753 514.829 184.897 514.511 185C514.203 185.112 513.849 185.168 513.447 185.168ZM520.293 185.168C519.835 185.168 519.406 185.089 519.005 184.93C518.613 184.762 518.267 184.529 517.969 184.23C517.679 183.922 517.451 183.549 517.283 183.11C517.115 182.671 517.031 182.172 517.031 181.612C517.031 181.052 517.115 180.553 517.283 180.114C517.46 179.666 517.689 179.288 517.969 178.98C518.258 178.672 518.585 178.439 518.949 178.28C519.313 178.112 519.691 178.028 520.083 178.028C520.512 178.028 520.895 178.103 521.231 178.252C521.576 178.401 521.861 178.616 522.085 178.896C522.318 179.176 522.495 179.512 522.617 179.904C522.738 180.296 522.799 180.735 522.799 181.22C522.799 181.341 522.794 181.463 522.785 181.584C522.785 181.696 522.775 181.794 522.757 181.878H518.165C518.211 182.606 518.435 183.185 518.837 183.614C519.247 184.034 519.779 184.244 520.433 184.244C520.759 184.244 521.058 184.197 521.329 184.104C521.609 184.001 521.875 183.871 522.127 183.712L522.533 184.468C522.234 184.655 521.903 184.818 521.539 184.958C521.175 185.098 520.759 185.168 520.293 185.168ZM518.151 181.052H521.791C521.791 180.361 521.641 179.839 521.343 179.484C521.053 179.12 520.643 178.938 520.111 178.938C519.868 178.938 519.635 178.985 519.411 179.078C519.196 179.171 519 179.311 518.823 179.498C518.645 179.675 518.496 179.895 518.375 180.156C518.263 180.417 518.188 180.716 518.151 181.052ZM526.485 185.168C526.121 185.168 525.813 185.112 525.561 185C525.319 184.888 525.118 184.734 524.959 184.538C524.81 184.342 524.703 184.104 524.637 183.824C524.572 183.544 524.539 183.236 524.539 182.9V179.134H523.531V178.266L524.595 178.196L524.735 176.292H525.701V178.196H527.535V179.134H525.701V182.914C525.701 183.334 525.776 183.661 525.925 183.894C526.084 184.118 526.359 184.23 526.751 184.23C526.873 184.23 527.003 184.211 527.143 184.174C527.283 184.137 527.409 184.095 527.521 184.048L527.745 184.916C527.559 184.981 527.353 185.037 527.129 185.084C526.915 185.14 526.7 185.168 526.485 185.168Z" fill="#545770"/>
<path d="M188.22 22.752C188.22 23.592 188.044 24.332 187.692 24.972C187.34 25.612 186.828 26.112 186.156 26.472C185.492 26.824 184.7 27 183.78 27H180.768V18.528H183.78C184.7 18.528 185.492 18.704 186.156 19.056C186.828 19.4 187.34 19.892 187.692 20.532C188.044 21.164 188.22 21.904 188.22 22.752ZM183.636 25.488C184.548 25.488 185.252 25.248 185.748 24.768C186.252 24.288 186.504 23.616 186.504 22.752C186.504 21.88 186.252 21.204 185.748 20.724C185.252 20.244 184.548 20.004 183.636 20.004H182.46V25.488H183.636ZM191.179 21.624C191.427 21.2 191.755 20.868 192.163 20.628C192.571 20.38 193.027 20.256 193.531 20.256V22.068H193.039C191.799 22.068 191.179 22.644 191.179 23.796V27H189.487V20.352H191.179V21.624ZM194.275 18.444C194.275 18.172 194.371 17.952 194.563 17.784C194.755 17.608 195.007 17.52 195.319 17.52C195.631 17.52 195.883 17.608 196.075 17.784C196.267 17.952 196.363 18.172 196.363 18.444C196.363 18.708 196.267 18.928 196.075 19.104C195.883 19.272 195.631 19.356 195.319 19.356C195.007 19.356 194.755 19.272 194.563 19.104C194.371 18.928 194.275 18.708 194.275 18.444ZM196.159 20.352V27H194.467V20.352H196.159ZM200.978 19.2C200.482 19.168 200.134 19.24 199.934 19.416C199.734 19.592 199.634 19.9 199.634 20.34V20.352H200.978V21.78H199.634V27H197.942V21.78H197.09V20.352H197.942V20.196C197.942 19.404 198.166 18.796 198.614 18.372C199.07 17.94 199.742 17.724 200.63 17.724C200.782 17.724 200.898 17.728 200.978 17.736V19.2ZM205.543 25.548V27H204.655C203.911 27 203.339 26.82 202.939 26.46C202.547 26.1 202.351 25.5 202.351 24.66V21.78H201.427V20.352H202.351V18.708H204.043V20.352H205.531V21.78H204.043V24.684C204.043 25.004 204.107 25.228 204.235 25.356C204.363 25.484 204.579 25.548 204.883 25.548H205.543ZM215.193 24.684C215.193 25.116 215.085 25.516 214.869 25.884C214.653 26.244 214.333 26.536 213.909 26.76C213.485 26.976 212.969 27.084 212.361 27.084C211.761 27.084 211.225 26.984 210.753 26.784C210.281 26.576 209.901 26.28 209.613 25.896C209.333 25.512 209.173 25.064 209.133 24.552H210.933C210.973 24.896 211.109 25.184 211.341 25.416C211.581 25.64 211.897 25.752 212.289 25.752C212.641 25.752 212.909 25.66 213.093 25.476C213.285 25.284 213.381 25.04 213.381 24.744C213.381 24.48 213.305 24.264 213.153 24.096C213.001 23.92 212.809 23.78 212.577 23.676C212.345 23.572 212.025 23.452 211.617 23.316C211.089 23.14 210.657 22.968 210.321 22.8C209.985 22.624 209.697 22.372 209.457 22.044C209.225 21.716 209.109 21.288 209.109 20.76C209.109 20.032 209.369 19.46 209.889 19.044C210.417 18.62 211.113 18.408 211.977 18.408C212.873 18.408 213.585 18.624 214.113 19.056C214.649 19.488 214.953 20.064 215.025 20.784H213.201C213.153 20.48 213.025 20.232 212.817 20.04C212.609 19.84 212.325 19.74 211.965 19.74C211.653 19.74 211.401 19.824 211.209 19.992C211.017 20.152 210.921 20.388 210.921 20.7C210.921 20.948 210.993 21.156 211.137 21.324C211.289 21.484 211.477 21.616 211.701 21.72C211.933 21.824 212.245 21.94 212.637 22.068C213.181 22.26 213.621 22.44 213.957 22.608C214.301 22.776 214.593 23.028 214.833 23.364C215.073 23.7 215.193 24.14 215.193 24.684ZM219.428 20.268C220.284 20.268 220.996 20.5 221.564 20.964C222.14 21.428 222.5 22.06 222.644 22.86H220.856C220.784 22.508 220.62 22.232 220.364 22.032C220.108 21.824 219.784 21.72 219.392 21.72C218.944 21.72 218.568 21.888 218.264 22.224C217.968 22.552 217.82 23.036 217.82 23.676C217.82 24.316 217.968 24.804 218.264 25.14C218.568 25.468 218.944 25.632 219.392 25.632C219.784 25.632 220.108 25.532 220.364 25.332C220.62 25.124 220.784 24.844 220.856 24.492H222.644C222.5 25.292 222.14 25.924 221.564 26.388C220.996 26.852 220.284 27.084 219.428 27.084C218.78 27.084 218.204 26.948 217.7 26.676C217.196 26.396 216.804 26 216.524 25.488C216.244 24.976 216.104 24.372 216.104 23.676C216.104 22.98 216.244 22.376 216.524 21.864C216.804 21.344 217.196 20.948 217.7 20.676C218.204 20.404 218.78 20.268 219.428 20.268ZM226.918 20.268C227.566 20.268 228.146 20.404 228.658 20.676C229.178 20.948 229.586 21.344 229.882 21.864C230.178 22.376 230.326 22.98 230.326 23.676C230.326 24.372 230.178 24.976 229.882 25.488C229.586 26 229.178 26.396 228.658 26.676C228.146 26.948 227.566 27.084 226.918 27.084C226.27 27.084 225.686 26.948 225.166 26.676C224.654 26.396 224.25 26 223.954 25.488C223.658 24.976 223.51 24.372 223.51 23.676C223.51 22.98 223.658 22.376 223.954 21.864C224.25 21.344 224.654 20.948 225.166 20.676C225.686 20.404 226.27 20.268 226.918 20.268ZM226.918 21.732C226.446 21.732 226.046 21.9 225.718 22.236C225.39 22.564 225.226 23.044 225.226 23.676C225.226 24.308 225.39 24.792 225.718 25.128C226.046 25.456 226.446 25.62 226.918 25.62C227.39 25.62 227.79 25.456 228.118 25.128C228.446 24.792 228.61 24.308 228.61 23.676C228.61 23.044 228.446 22.564 228.118 22.236C227.79 21.9 227.39 21.732 226.918 21.732ZM233.214 21.624C233.462 21.2 233.79 20.868 234.198 20.628C234.606 20.38 235.062 20.256 235.566 20.256V22.068H235.074C233.834 22.068 233.214 22.644 233.214 23.796V27H231.522V20.352H233.214V21.624ZM242.754 23.424C242.754 23.592 242.734 23.784 242.694 24H237.822C237.846 24.592 238.006 25.028 238.302 25.308C238.598 25.588 238.966 25.728 239.406 25.728C239.798 25.728 240.122 25.632 240.378 25.44C240.642 25.248 240.81 24.988 240.882 24.66H242.67C242.582 25.124 242.394 25.54 242.106 25.908C241.818 26.276 241.446 26.564 240.99 26.772C240.542 26.98 240.042 27.084 239.49 27.084C238.842 27.084 238.266 26.948 237.762 26.676C237.258 26.396 236.866 26 236.586 25.488C236.306 24.976 236.166 24.372 236.166 23.676C236.166 22.98 236.306 22.376 236.586 21.864C236.866 21.344 237.258 20.948 237.762 20.676C238.266 20.404 238.842 20.268 239.49 20.268C240.146 20.268 240.718 20.404 241.206 20.676C241.702 20.948 242.082 21.324 242.346 21.804C242.618 22.276 242.754 22.816 242.754 23.424ZM241.05 23.256C241.074 22.712 240.93 22.3 240.618 22.02C240.314 21.74 239.938 21.6 239.49 21.6C239.034 21.6 238.65 21.74 238.338 22.02C238.026 22.3 237.854 22.712 237.822 23.256H241.05ZM250.877 22.02V23.424H245.777V22.02H250.877ZM257.155 19.872V22.068H260.155V23.364H257.155V25.644H260.515V27H255.463V18.528H260.515V19.872H257.155ZM264.372 20.268C264.932 20.268 265.412 20.4 265.812 20.664C266.212 20.928 266.496 21.284 266.664 21.732V20.352H268.344V27H266.664V25.608C266.496 26.056 266.212 26.416 265.812 26.688C265.412 26.952 264.932 27.084 264.372 27.084C263.812 27.084 263.308 26.948 262.86 26.676C262.412 26.404 262.06 26.012 261.804 25.5C261.556 24.98 261.432 24.372 261.432 23.676C261.432 22.98 261.556 22.376 261.804 21.864C262.06 21.344 262.412 20.948 262.86 20.676C263.308 20.404 263.812 20.268 264.372 20.268ZM264.9 21.744C264.372 21.744 263.948 21.916 263.628 22.26C263.308 22.604 263.148 23.076 263.148 23.676C263.148 24.276 263.308 24.748 263.628 25.092C263.948 25.428 264.372 25.596 264.9 25.596C265.412 25.596 265.832 25.424 266.16 25.08C266.496 24.728 266.664 24.26 266.664 23.676C266.664 23.084 266.496 22.616 266.16 22.272C265.832 21.92 265.412 21.744 264.9 21.744ZM271.569 21.624C271.817 21.2 272.145 20.868 272.553 20.628C272.961 20.38 273.417 20.256 273.921 20.256V22.068H273.429C272.189 22.068 271.569 22.644 271.569 23.796V27H269.877V20.352H271.569V21.624ZM278.41 25.548V27H277.522C276.778 27 276.206 26.82 275.806 26.46C275.414 26.1 275.218 25.5 275.218 24.66V21.78H274.294V20.352H275.218V18.708H276.91V20.352H278.398V21.78H276.91V24.684C276.91 25.004 276.974 25.228 277.102 25.356C277.23 25.484 277.446 25.548 277.75 25.548H278.41ZM283.587 20.256C284.355 20.256 284.967 20.508 285.423 21.012C285.879 21.516 286.107 22.224 286.107 23.136V27H284.427V23.328C284.427 22.8 284.291 22.392 284.019 22.104C283.747 21.808 283.375 21.66 282.903 21.66C282.423 21.66 282.039 21.816 281.751 22.128C281.463 22.44 281.319 22.888 281.319 23.472V27H279.627V18.12H281.319V21.684C281.495 21.236 281.783 20.888 282.183 20.64C282.591 20.384 283.059 20.256 283.587 20.256ZM299.341 18.624V27H297.661V21.156L295.513 27H294.049L291.901 21.18V27H290.209V18.624H292.261L294.805 24.924L297.301 18.624H299.341ZM303.945 20.268C304.593 20.268 305.173 20.404 305.685 20.676C306.205 20.948 306.613 21.344 306.909 21.864C307.205 22.376 307.353 22.98 307.353 23.676C307.353 24.372 307.205 24.976 306.909 25.488C306.613 26 306.205 26.396 305.685 26.676C305.173 26.948 304.593 27.084 303.945 27.084C303.297 27.084 302.713 26.948 302.193 26.676C301.681 26.396 301.277 26 300.981 25.488C300.685 24.976 300.537 24.372 300.537 23.676C300.537 22.98 300.685 22.376 300.981 21.864C301.277 21.344 301.681 20.948 302.193 20.676C302.713 20.404 303.297 20.268 303.945 20.268ZM303.945 21.732C303.473 21.732 303.073 21.9 302.745 22.236C302.417 22.564 302.253 23.044 302.253 23.676C302.253 24.308 302.417 24.792 302.745 25.128C303.073 25.456 303.473 25.62 303.945 25.62C304.417 25.62 304.817 25.456 305.145 25.128C305.473 24.792 305.637 24.308 305.637 23.676C305.637 23.044 305.473 22.564 305.145 22.236C304.817 21.9 304.417 21.732 303.945 21.732ZM311.441 25.308L313.121 20.352H314.921L312.461 27H310.397L307.937 20.352H309.749L311.441 25.308ZM322.114 23.424C322.114 23.592 322.094 23.784 322.054 24H317.182C317.206 24.592 317.366 25.028 317.662 25.308C317.958 25.588 318.326 25.728 318.766 25.728C319.158 25.728 319.482 25.632 319.738 25.44C320.002 25.248 320.17 24.988 320.242 24.66H322.03C321.942 25.124 321.754 25.54 321.466 25.908C321.178 26.276 320.806 26.564 320.35 26.772C319.902 26.98 319.402 27.084 318.85 27.084C318.202 27.084 317.626 26.948 317.122 26.676C316.618 26.396 316.226 26 315.946 25.488C315.666 24.976 315.526 24.372 315.526 23.676C315.526 22.98 315.666 22.376 315.946 21.864C316.226 21.344 316.618 20.948 317.122 20.676C317.626 20.404 318.202 20.268 318.85 20.268C319.506 20.268 320.078 20.404 320.566 20.676C321.062 20.948 321.442 21.324 321.706 21.804C321.978 22.276 322.114 22.816 322.114 23.424ZM320.41 23.256C320.434 22.712 320.29 22.3 319.978 22.02C319.674 21.74 319.298 21.6 318.85 21.6C318.394 21.6 318.01 21.74 317.698 22.02C317.386 22.3 317.214 22.712 317.182 23.256H320.41ZM325.007 21.624C325.255 21.2 325.583 20.868 325.991 20.628C326.399 20.38 326.855 20.256 327.359 20.256V22.068H326.867C325.627 22.068 325.007 22.644 325.007 23.796V27H323.315V20.352H325.007V21.624ZM330.587 20.268C331.395 20.268 332.043 20.472 332.531 20.88C333.019 21.288 333.323 21.832 333.443 22.512H331.859C331.795 22.192 331.651 21.936 331.427 21.744C331.203 21.552 330.911 21.456 330.551 21.456C330.263 21.456 330.039 21.524 329.879 21.66C329.719 21.796 329.639 21.98 329.639 22.212C329.639 22.396 329.703 22.544 329.831 22.656C329.959 22.768 330.119 22.856 330.311 22.92C330.503 22.984 330.779 23.06 331.139 23.148C331.643 23.26 332.051 23.38 332.363 23.508C332.683 23.628 332.955 23.824 333.179 24.096C333.411 24.36 333.527 24.72 333.527 25.176C333.527 25.744 333.303 26.204 332.855 26.556C332.415 26.908 331.819 27.084 331.067 27.084C330.203 27.084 329.511 26.892 328.991 26.508C328.471 26.116 328.155 25.56 328.043 24.84H329.663C329.703 25.168 329.847 25.428 330.095 25.62C330.343 25.804 330.667 25.896 331.067 25.896C331.355 25.896 331.575 25.828 331.727 25.692C331.879 25.548 331.955 25.364 331.955 25.14C331.955 24.948 331.887 24.792 331.751 24.672C331.623 24.552 331.459 24.46 331.259 24.396C331.067 24.332 330.791 24.256 330.431 24.168C329.935 24.056 329.531 23.944 329.219 23.832C328.915 23.712 328.651 23.524 328.427 23.268C328.211 23.012 328.103 22.66 328.103 22.212C328.103 21.636 328.323 21.168 328.763 20.808C329.203 20.448 329.811 20.268 330.587 20.268ZM344.853 22.752C344.853 23.592 344.677 24.332 344.325 24.972C343.973 25.612 343.461 26.112 342.789 26.472C342.125 26.824 341.333 27 340.413 27H337.401V18.528H340.413C341.333 18.528 342.125 18.704 342.789 19.056C343.461 19.4 343.973 19.892 344.325 20.532C344.677 21.164 344.853 21.904 344.853 22.752ZM340.269 25.488C341.181 25.488 341.885 25.248 342.381 24.768C342.885 24.288 343.137 23.616 343.137 22.752C343.137 21.88 342.885 21.204 342.381 20.724C341.885 20.244 341.181 20.004 340.269 20.004H339.093V25.488H340.269ZM345.928 18.444C345.928 18.172 346.024 17.952 346.216 17.784C346.408 17.608 346.66 17.52 346.972 17.52C347.284 17.52 347.536 17.608 347.728 17.784C347.92 17.952 348.016 18.172 348.016 18.444C348.016 18.708 347.92 18.928 347.728 19.104C347.536 19.272 347.284 19.356 346.972 19.356C346.66 19.356 346.408 19.272 346.216 19.104C346.024 18.928 345.928 18.708 345.928 18.444ZM347.812 20.352V27H346.12V20.352H347.812ZM351.634 20.268C352.442 20.268 353.09 20.472 353.578 20.88C354.066 21.288 354.37 21.832 354.49 22.512H352.906C352.842 22.192 352.698 21.936 352.474 21.744C352.25 21.552 351.958 21.456 351.598 21.456C351.31 21.456 351.086 21.524 350.926 21.66C350.766 21.796 350.686 21.98 350.686 22.212C350.686 22.396 350.75 22.544 350.878 22.656C351.006 22.768 351.166 22.856 351.358 22.92C351.55 22.984 351.826 23.06 352.186 23.148C352.69 23.26 353.098 23.38 353.41 23.508C353.73 23.628 354.002 23.824 354.226 24.096C354.458 24.36 354.574 24.72 354.574 25.176C354.574 25.744 354.35 26.204 353.902 26.556C353.462 26.908 352.866 27.084 352.114 27.084C351.25 27.084 350.558 26.892 350.038 26.508C349.518 26.116 349.202 25.56 349.09 24.84H350.71C350.75 25.168 350.894 25.428 351.142 25.62C351.39 25.804 351.714 25.896 352.114 25.896C352.402 25.896 352.622 25.828 352.774 25.692C352.926 25.548 353.002 25.364 353.002 25.14C353.002 24.948 352.934 24.792 352.798 24.672C352.67 24.552 352.506 24.46 352.306 24.396C352.114 24.332 351.838 24.256 351.478 24.168C350.982 24.056 350.578 23.944 350.266 23.832C349.962 23.712 349.698 23.524 349.474 23.268C349.258 23.012 349.15 22.66 349.15 22.212C349.15 21.636 349.37 21.168 349.81 20.808C350.25 20.448 350.858 20.268 351.634 20.268ZM359.386 25.548V27H358.498C357.754 27 357.182 26.82 356.782 26.46C356.39 26.1 356.194 25.5 356.194 24.66V21.78H355.27V20.352H356.194V18.708H357.886V20.352H359.374V21.78H357.886V24.684C357.886 25.004 357.95 25.228 358.078 25.356C358.206 25.484 358.422 25.548 358.726 25.548H359.386ZM363.208 20.268C363.768 20.268 364.248 20.4 364.648 20.664C365.048 20.928 365.332 21.284 365.5 21.732V20.352H367.18V27H365.5V25.608C365.332 26.056 365.048 26.416 364.648 26.688C364.248 26.952 363.768 27.084 363.208 27.084C362.648 27.084 362.144 26.948 361.696 26.676C361.248 26.404 360.896 26.012 360.64 25.5C360.392 24.98 360.268 24.372 360.268 23.676C360.268 22.98 360.392 22.376 360.64 21.864C360.896 21.344 361.248 20.948 361.696 20.676C362.144 20.404 362.648 20.268 363.208 20.268ZM363.736 21.744C363.208 21.744 362.784 21.916 362.464 22.26C362.144 22.604 361.984 23.076 361.984 23.676C361.984 24.276 362.144 24.748 362.464 25.092C362.784 25.428 363.208 25.596 363.736 25.596C364.248 25.596 364.668 25.424 364.996 25.08C365.332 24.728 365.5 24.26 365.5 23.676C365.5 23.084 365.332 22.616 364.996 22.272C364.668 21.92 364.248 21.744 363.736 21.744ZM372.673 20.256C373.441 20.256 374.053 20.508 374.509 21.012C374.965 21.516 375.193 22.224 375.193 23.136V27H373.513V23.328C373.513 22.8 373.377 22.392 373.105 22.104C372.833 21.808 372.461 21.66 371.989 21.66C371.509 21.66 371.125 21.816 370.837 22.128C370.549 22.44 370.405 22.888 370.405 23.472V27H368.713V20.352H370.405V21.684C370.581 21.236 370.869 20.888 371.269 20.64C371.677 20.384 372.145 20.256 372.673 20.256ZM379.67 20.268C380.526 20.268 381.238 20.5 381.806 20.964C382.382 21.428 382.742 22.06 382.886 22.86H381.098C381.026 22.508 380.862 22.232 380.606 22.032C380.35 21.824 380.026 21.72 379.634 21.72C379.186 21.72 378.81 21.888 378.506 22.224C378.21 22.552 378.062 23.036 378.062 23.676C378.062 24.316 378.21 24.804 378.506 25.14C378.81 25.468 379.186 25.632 379.634 25.632C380.026 25.632 380.35 25.532 380.606 25.332C380.862 25.124 381.026 24.844 381.098 24.492H382.886C382.742 25.292 382.382 25.924 381.806 26.388C381.238 26.852 380.526 27.084 379.67 27.084C379.022 27.084 378.446 26.948 377.942 26.676C377.438 26.396 377.046 26 376.766 25.488C376.486 24.976 376.346 24.372 376.346 23.676C376.346 22.98 376.486 22.376 376.766 21.864C377.046 21.344 377.438 20.948 377.942 20.676C378.446 20.404 379.022 20.268 379.67 20.268ZM390.34 23.424C390.34 23.592 390.32 23.784 390.28 24H385.408C385.432 24.592 385.592 25.028 385.888 25.308C386.184 25.588 386.552 25.728 386.992 25.728C387.384 25.728 387.708 25.632 387.964 25.44C388.228 25.248 388.396 24.988 388.468 24.66H390.256C390.168 25.124 389.98 25.54 389.692 25.908C389.404 26.276 389.032 26.564 388.576 26.772C388.128 26.98 387.628 27.084 387.076 27.084C386.428 27.084 385.852 26.948 385.348 26.676C384.844 26.396 384.452 26 384.172 25.488C383.892 24.976 383.752 24.372 383.752 23.676C383.752 22.98 383.892 22.376 384.172 21.864C384.452 21.344 384.844 20.948 385.348 20.676C385.852 20.404 386.428 20.268 387.076 20.268C387.732 20.268 388.304 20.404 388.792 20.676C389.288 20.948 389.668 21.324 389.932 21.804C390.204 22.276 390.34 22.816 390.34 23.424ZM388.636 23.256C388.66 22.712 388.516 22.3 388.204 22.02C387.9 21.74 387.524 21.6 387.076 21.6C386.62 21.6 386.236 21.74 385.924 22.02C385.612 22.3 385.44 22.712 385.408 23.256H388.636Z" fill="#303245"/>
<path d="M257.22 142.752C257.22 143.592 257.044 144.332 256.692 144.972C256.34 145.612 255.828 146.112 255.156 146.472C254.492 146.824 253.7 147 252.78 147H249.768V138.528H252.78C253.7 138.528 254.492 138.704 255.156 139.056C255.828 139.4 256.34 139.892 256.692 140.532C257.044 141.164 257.22 141.904 257.22 142.752ZM252.636 145.488C253.548 145.488 254.252 145.248 254.748 144.768C255.252 144.288 255.504 143.616 255.504 142.752C255.504 141.88 255.252 141.204 254.748 140.724C254.252 140.244 253.548 140.004 252.636 140.004H251.46V145.488H252.636ZM258.295 138.444C258.295 138.172 258.391 137.952 258.583 137.784C258.775 137.608 259.027 137.52 259.339 137.52C259.651 137.52 259.903 137.608 260.095 137.784C260.287 137.952 260.383 138.172 260.383 138.444C260.383 138.708 260.287 138.928 260.095 139.104C259.903 139.272 259.651 139.356 259.339 139.356C259.027 139.356 258.775 139.272 258.583 139.104C258.391 138.928 258.295 138.708 258.295 138.444ZM260.179 140.352V147H258.487V140.352H260.179ZM264.001 140.268C264.809 140.268 265.457 140.472 265.945 140.88C266.433 141.288 266.737 141.832 266.857 142.512H265.273C265.209 142.192 265.065 141.936 264.841 141.744C264.617 141.552 264.325 141.456 263.965 141.456C263.677 141.456 263.453 141.524 263.293 141.66C263.133 141.796 263.053 141.98 263.053 142.212C263.053 142.396 263.117 142.544 263.245 142.656C263.373 142.768 263.533 142.856 263.725 142.92C263.917 142.984 264.193 143.06 264.553 143.148C265.057 143.26 265.465 143.38 265.777 143.508C266.097 143.628 266.369 143.824 266.593 144.096C266.825 144.36 266.941 144.72 266.941 145.176C266.941 145.744 266.717 146.204 266.269 146.556C265.829 146.908 265.233 147.084 264.481 147.084C263.617 147.084 262.925 146.892 262.405 146.508C261.885 146.116 261.569 145.56 261.457 144.84H263.077C263.117 145.168 263.261 145.428 263.509 145.62C263.757 145.804 264.081 145.896 264.481 145.896C264.769 145.896 264.989 145.828 265.141 145.692C265.293 145.548 265.369 145.364 265.369 145.14C265.369 144.948 265.301 144.792 265.165 144.672C265.037 144.552 264.873 144.46 264.673 144.396C264.481 144.332 264.205 144.256 263.845 144.168C263.349 144.056 262.945 143.944 262.633 143.832C262.329 143.712 262.065 143.524 261.841 143.268C261.625 143.012 261.517 142.66 261.517 142.212C261.517 141.636 261.737 141.168 262.177 140.808C262.617 140.448 263.225 140.268 264.001 140.268ZM271.754 145.548V147H270.866C270.122 147 269.55 146.82 269.15 146.46C268.758 146.1 268.562 145.5 268.562 144.66V141.78H267.638V140.352H268.562V138.708H270.254V140.352H271.742V141.78H270.254V144.684C270.254 145.004 270.318 145.228 270.446 145.356C270.574 145.484 270.79 145.548 271.094 145.548H271.754ZM274.663 141.624C274.911 141.2 275.239 140.868 275.647 140.628C276.055 140.38 276.511 140.256 277.015 140.256V142.068H276.523C275.283 142.068 274.663 142.644 274.663 143.796V147H272.971V140.352H274.663V141.624ZM277.76 138.444C277.76 138.172 277.856 137.952 278.048 137.784C278.24 137.608 278.492 137.52 278.804 137.52C279.116 137.52 279.368 137.608 279.56 137.784C279.752 137.952 279.848 138.172 279.848 138.444C279.848 138.708 279.752 138.928 279.56 139.104C279.368 139.272 279.116 139.356 278.804 139.356C278.492 139.356 278.24 139.272 278.048 139.104C277.856 138.928 277.76 138.708 277.76 138.444ZM279.644 140.352V147H277.952V140.352H279.644ZM285.146 140.268C285.706 140.268 286.21 140.404 286.658 140.676C287.106 140.948 287.454 141.344 287.702 141.864C287.958 142.376 288.086 142.98 288.086 143.676C288.086 144.372 287.958 144.98 287.702 145.5C287.454 146.012 287.106 146.404 286.658 146.676C286.21 146.948 285.706 147.084 285.146 147.084C284.586 147.084 284.106 146.952 283.706 146.688C283.314 146.416 283.034 146.056 282.866 145.608V147H281.174V138.12H282.866V141.732C283.034 141.284 283.314 140.928 283.706 140.664C284.106 140.4 284.586 140.268 285.146 140.268ZM284.618 141.744C284.106 141.744 283.682 141.92 283.346 142.272C283.018 142.616 282.854 143.084 282.854 143.676C282.854 144.26 283.018 144.728 283.346 145.08C283.682 145.424 284.106 145.596 284.618 145.596C285.146 145.596 285.57 145.428 285.89 145.092C286.21 144.748 286.37 144.276 286.37 143.676C286.37 143.076 286.21 142.604 285.89 142.26C285.57 141.916 285.146 141.744 284.618 141.744ZM295.644 140.352V147H293.952V145.656C293.776 146.104 293.484 146.456 293.076 146.712C292.676 146.96 292.212 147.084 291.684 147.084C290.916 147.084 290.304 146.832 289.848 146.328C289.392 145.824 289.164 145.12 289.164 144.216V140.352H290.844V144.024C290.844 144.552 290.98 144.964 291.252 145.26C291.524 145.548 291.892 145.692 292.356 145.692C292.844 145.692 293.232 145.536 293.52 145.224C293.808 144.912 293.952 144.464 293.952 143.88V140.352H295.644ZM300.734 145.548V147H299.846C299.102 147 298.53 146.82 298.13 146.46C297.738 146.1 297.542 145.5 297.542 144.66V141.78H296.618V140.352H297.542V138.708H299.234V140.352H300.722V141.78H299.234V144.684C299.234 145.004 299.298 145.228 299.426 145.356C299.554 145.484 299.77 145.548 300.074 145.548H300.734ZM301.76 138.444C301.76 138.172 301.856 137.952 302.048 137.784C302.24 137.608 302.492 137.52 302.804 137.52C303.116 137.52 303.368 137.608 303.56 137.784C303.752 137.952 303.848 138.172 303.848 138.444C303.848 138.708 303.752 138.928 303.56 139.104C303.368 139.272 303.116 139.356 302.804 139.356C302.492 139.356 302.24 139.272 302.048 139.104C301.856 138.928 301.76 138.708 301.76 138.444ZM303.644 140.352V147H301.952V140.352H303.644ZM308.246 140.268C308.894 140.268 309.474 140.404 309.986 140.676C310.506 140.948 310.914 141.344 311.21 141.864C311.506 142.376 311.654 142.98 311.654 143.676C311.654 144.372 311.506 144.976 311.21 145.488C310.914 146 310.506 146.396 309.986 146.676C309.474 146.948 308.894 147.084 308.246 147.084C307.598 147.084 307.014 146.948 306.494 146.676C305.982 146.396 305.578 146 305.282 145.488C304.986 144.976 304.838 144.372 304.838 143.676C304.838 142.98 304.986 142.376 305.282 141.864C305.578 141.344 305.982 140.948 306.494 140.676C307.014 140.404 307.598 140.268 308.246 140.268ZM308.246 141.732C307.774 141.732 307.374 141.9 307.046 142.236C306.718 142.564 306.554 143.044 306.554 143.676C306.554 144.308 306.718 144.792 307.046 145.128C307.374 145.456 307.774 145.62 308.246 145.62C308.718 145.62 309.118 145.456 309.446 145.128C309.774 144.792 309.938 144.308 309.938 143.676C309.938 143.044 309.774 142.564 309.446 142.236C309.118 141.9 308.718 141.732 308.246 141.732ZM316.81 140.256C317.578 140.256 318.19 140.508 318.646 141.012C319.102 141.516 319.33 142.224 319.33 143.136V147H317.65V143.328C317.65 142.8 317.514 142.392 317.242 142.104C316.97 141.808 316.598 141.66 316.126 141.66C315.646 141.66 315.262 141.816 314.974 142.128C314.686 142.44 314.542 142.888 314.542 143.472V147H312.85V140.352H314.542V141.684C314.718 141.236 315.006 140.888 315.406 140.64C315.814 140.384 316.282 140.256 316.81 140.256Z" fill="#303245"/>
<path d="M455.582 209V200.796H452.81V199.816H459.53V200.796H456.758V209H455.582ZM462.9 209.168C462.443 209.168 462.013 209.089 461.612 208.93C461.22 208.762 460.875 208.529 460.576 208.23C460.287 207.922 460.058 207.549 459.89 207.11C459.722 206.671 459.638 206.172 459.638 205.612C459.638 205.052 459.722 204.553 459.89 204.114C460.067 203.666 460.296 203.288 460.576 202.98C460.865 202.672 461.192 202.439 461.556 202.28C461.92 202.112 462.298 202.028 462.69 202.028C463.119 202.028 463.502 202.103 463.838 202.252C464.183 202.401 464.468 202.616 464.692 202.896C464.925 203.176 465.103 203.512 465.224 203.904C465.345 204.296 465.406 204.735 465.406 205.22C465.406 205.341 465.401 205.463 465.392 205.584C465.392 205.696 465.383 205.794 465.364 205.878H460.772C460.819 206.606 461.043 207.185 461.444 207.614C461.855 208.034 462.387 208.244 463.04 208.244C463.367 208.244 463.665 208.197 463.936 208.104C464.216 208.001 464.482 207.871 464.734 207.712L465.14 208.468C464.841 208.655 464.51 208.818 464.146 208.958C463.782 209.098 463.367 209.168 462.9 209.168ZM460.758 205.052H464.398C464.398 204.361 464.249 203.839 463.95 203.484C463.661 203.12 463.25 202.938 462.718 202.938C462.475 202.938 462.242 202.985 462.018 203.078C461.803 203.171 461.607 203.311 461.43 203.498C461.253 203.675 461.103 203.895 460.982 204.156C460.87 204.417 460.795 204.716 460.758 205.052ZM468.865 209.168C468.38 209.168 467.918 209.079 467.479 208.902C467.041 208.725 466.658 208.501 466.331 208.23L466.905 207.46C467.204 207.703 467.507 207.899 467.815 208.048C468.133 208.197 468.497 208.272 468.907 208.272C469.355 208.272 469.691 208.169 469.915 207.964C470.139 207.759 470.251 207.507 470.251 207.208C470.251 207.031 470.205 206.877 470.111 206.746C470.018 206.615 469.897 206.503 469.747 206.41C469.607 206.307 469.444 206.219 469.257 206.144C469.071 206.069 468.884 205.995 468.697 205.92C468.455 205.836 468.212 205.743 467.969 205.64C467.727 205.528 467.507 205.397 467.311 205.248C467.125 205.089 466.971 204.907 466.849 204.702C466.728 204.497 466.667 204.249 466.667 203.96C466.667 203.689 466.719 203.437 466.821 203.204C466.933 202.961 467.087 202.756 467.283 202.588C467.489 202.411 467.736 202.275 468.025 202.182C468.315 202.079 468.641 202.028 469.005 202.028C469.435 202.028 469.827 202.103 470.181 202.252C470.545 202.401 470.858 202.583 471.119 202.798L470.573 203.526C470.34 203.349 470.097 203.204 469.845 203.092C469.593 202.98 469.318 202.924 469.019 202.924C468.59 202.924 468.273 203.022 468.067 203.218C467.871 203.414 467.773 203.643 467.773 203.904C467.773 204.063 467.815 204.203 467.899 204.324C467.983 204.436 468.095 204.539 468.235 204.632C468.375 204.716 468.534 204.795 468.711 204.87C468.898 204.935 469.089 205.005 469.285 205.08C469.528 205.173 469.771 205.271 470.013 205.374C470.265 205.477 470.489 205.607 470.685 205.766C470.881 205.915 471.04 206.102 471.161 206.326C471.292 206.55 471.357 206.821 471.357 207.138C471.357 207.418 471.301 207.679 471.189 207.922C471.087 208.165 470.928 208.379 470.713 208.566C470.508 208.753 470.247 208.897 469.929 209C469.621 209.112 469.267 209.168 468.865 209.168ZM474.821 209.168C474.457 209.168 474.149 209.112 473.897 209C473.655 208.888 473.454 208.734 473.295 208.538C473.146 208.342 473.039 208.104 472.973 207.824C472.908 207.544 472.875 207.236 472.875 206.9V203.134H471.867V202.266L472.931 202.196L473.071 200.292H474.037V202.196H475.871V203.134H474.037V206.914C474.037 207.334 474.112 207.661 474.261 207.894C474.42 208.118 474.695 208.23 475.087 208.23C475.209 208.23 475.339 208.211 475.479 208.174C475.619 208.137 475.745 208.095 475.857 208.048L476.081 208.916C475.895 208.981 475.689 209.037 475.465 209.084C475.251 209.14 475.036 209.168 474.821 209.168ZM482.536 209.168C481.678 209.168 480.992 208.86 480.478 208.244C479.974 207.628 479.722 206.751 479.722 205.612C479.722 205.061 479.802 204.567 479.96 204.128C480.128 203.68 480.348 203.302 480.618 202.994C480.889 202.686 481.202 202.448 481.556 202.28C481.911 202.112 482.284 202.028 482.676 202.028C483.068 202.028 483.409 202.098 483.698 202.238C483.988 202.378 484.282 202.569 484.58 202.812L484.524 201.65V199.032H485.686V209H484.734L484.636 208.202H484.594C484.324 208.463 484.011 208.692 483.656 208.888C483.311 209.075 482.938 209.168 482.536 209.168ZM482.788 208.202C483.106 208.202 483.404 208.127 483.684 207.978C483.964 207.819 484.244 207.581 484.524 207.264V203.708C484.235 203.447 483.955 203.265 483.684 203.162C483.423 203.05 483.152 202.994 482.872 202.994C482.602 202.994 482.345 203.059 482.102 203.19C481.869 203.311 481.664 203.489 481.486 203.722C481.309 203.946 481.169 204.217 481.066 204.534C480.964 204.851 480.912 205.206 480.912 205.598C480.912 206.419 481.076 207.059 481.402 207.516C481.729 207.973 482.191 208.202 482.788 208.202ZM489.546 209.168C488.977 209.168 488.501 209 488.118 208.664C487.745 208.328 487.558 207.852 487.558 207.236C487.558 206.489 487.889 205.92 488.552 205.528C489.215 205.127 490.274 204.847 491.73 204.688C491.73 204.473 491.707 204.263 491.66 204.058C491.623 203.853 491.553 203.671 491.45 203.512C491.347 203.353 491.203 203.227 491.016 203.134C490.839 203.031 490.61 202.98 490.33 202.98C489.938 202.98 489.569 203.055 489.224 203.204C488.879 203.353 488.571 203.521 488.3 203.708L487.852 202.91C488.169 202.705 488.557 202.509 489.014 202.322C489.471 202.126 489.975 202.028 490.526 202.028C491.357 202.028 491.959 202.285 492.332 202.798C492.705 203.302 492.892 203.979 492.892 204.828V209H491.94L491.842 208.188H491.8C491.473 208.459 491.123 208.692 490.75 208.888C490.377 209.075 489.975 209.168 489.546 209.168ZM489.882 208.244C490.209 208.244 490.517 208.169 490.806 208.02C491.095 207.861 491.403 207.633 491.73 207.334V205.444C491.161 205.519 490.68 205.607 490.288 205.71C489.905 205.813 489.593 205.934 489.35 206.074C489.117 206.214 488.944 206.377 488.832 206.564C488.729 206.741 488.678 206.937 488.678 207.152C488.678 207.544 488.795 207.824 489.028 207.992C489.261 208.16 489.546 208.244 489.882 208.244ZM496.983 209.168C496.619 209.168 496.311 209.112 496.059 209C495.817 208.888 495.616 208.734 495.457 208.538C495.308 208.342 495.201 208.104 495.135 207.824C495.07 207.544 495.037 207.236 495.037 206.9V203.134H494.029V202.266L495.093 202.196L495.233 200.292H496.199V202.196H498.033V203.134H496.199V206.914C496.199 207.334 496.274 207.661 496.423 207.894C496.582 208.118 496.857 208.23 497.249 208.23C497.371 208.23 497.501 208.211 497.641 208.174C497.781 208.137 497.907 208.095 498.019 208.048L498.243 208.916C498.057 208.981 497.851 209.037 497.627 209.084C497.413 209.14 497.198 209.168 496.983 209.168ZM500.839 209.168C500.27 209.168 499.794 209 499.411 208.664C499.038 208.328 498.851 207.852 498.851 207.236C498.851 206.489 499.182 205.92 499.845 205.528C500.508 205.127 501.567 204.847 503.023 204.688C503.023 204.473 503 204.263 502.953 204.058C502.916 203.853 502.846 203.671 502.743 203.512C502.64 203.353 502.496 203.227 502.309 203.134C502.132 203.031 501.903 202.98 501.623 202.98C501.231 202.98 500.862 203.055 500.517 203.204C500.172 203.353 499.864 203.521 499.593 203.708L499.145 202.91C499.462 202.705 499.85 202.509 500.307 202.322C500.764 202.126 501.268 202.028 501.819 202.028C502.65 202.028 503.252 202.285 503.625 202.798C503.998 203.302 504.185 203.979 504.185 204.828V209H503.233L503.135 208.188H503.093C502.766 208.459 502.416 208.692 502.043 208.888C501.67 209.075 501.268 209.168 500.839 209.168ZM501.175 208.244C501.502 208.244 501.81 208.169 502.099 208.02C502.388 207.861 502.696 207.633 503.023 207.334V205.444C502.454 205.519 501.973 205.607 501.581 205.71C501.198 205.813 500.886 205.934 500.643 206.074C500.41 206.214 500.237 206.377 500.125 206.564C500.022 206.741 499.971 206.937 499.971 207.152C499.971 207.544 500.088 207.824 500.321 207.992C500.554 208.16 500.839 208.244 501.175 208.244ZM508.104 209.168C507.618 209.168 507.156 209.079 506.718 208.902C506.279 208.725 505.896 208.501 505.57 208.23L506.144 207.46C506.442 207.703 506.746 207.899 507.054 208.048C507.371 208.197 507.735 208.272 508.146 208.272C508.594 208.272 508.93 208.169 509.154 207.964C509.378 207.759 509.49 207.507 509.49 207.208C509.49 207.031 509.443 206.877 509.35 206.746C509.256 206.615 509.135 206.503 508.986 206.41C508.846 206.307 508.682 206.219 508.496 206.144C508.309 206.069 508.122 205.995 507.936 205.92C507.693 205.836 507.45 205.743 507.208 205.64C506.965 205.528 506.746 205.397 506.55 205.248C506.363 205.089 506.209 204.907 506.088 204.702C505.966 204.497 505.906 204.249 505.906 203.96C505.906 203.689 505.957 203.437 506.06 203.204C506.172 202.961 506.326 202.756 506.522 202.588C506.727 202.411 506.974 202.275 507.264 202.182C507.553 202.079 507.88 202.028 508.244 202.028C508.673 202.028 509.065 202.103 509.42 202.252C509.784 202.401 510.096 202.583 510.358 202.798L509.812 203.526C509.578 203.349 509.336 203.204 509.084 203.092C508.832 202.98 508.556 202.924 508.258 202.924C507.828 202.924 507.511 203.022 507.306 203.218C507.11 203.414 507.012 203.643 507.012 203.904C507.012 204.063 507.054 204.203 507.138 204.324C507.222 204.436 507.334 204.539 507.474 204.632C507.614 204.716 507.772 204.795 507.95 204.87C508.136 204.935 508.328 205.005 508.524 205.08C508.766 205.173 509.009 205.271 509.252 205.374C509.504 205.477 509.728 205.607 509.924 205.766C510.12 205.915 510.278 206.102 510.4 206.326C510.53 206.55 510.596 206.821 510.596 207.138C510.596 207.418 510.54 207.679 510.428 207.922C510.325 208.165 510.166 208.379 509.952 208.566C509.746 208.753 509.485 208.897 509.168 209C508.86 209.112 508.505 209.168 508.104 209.168ZM514.949 209.168C514.492 209.168 514.062 209.089 513.661 208.93C513.269 208.762 512.924 208.529 512.625 208.23C512.336 207.922 512.107 207.549 511.939 207.11C511.771 206.671 511.687 206.172 511.687 205.612C511.687 205.052 511.771 204.553 511.939 204.114C512.116 203.666 512.345 203.288 512.625 202.98C512.914 202.672 513.241 202.439 513.605 202.28C513.969 202.112 514.347 202.028 514.739 202.028C515.168 202.028 515.551 202.103 515.887 202.252C516.232 202.401 516.517 202.616 516.741 202.896C516.974 203.176 517.152 203.512 517.273 203.904C517.394 204.296 517.455 204.735 517.455 205.22C517.455 205.341 517.45 205.463 517.441 205.584C517.441 205.696 517.432 205.794 517.413 205.878H512.821C512.868 206.606 513.092 207.185 513.493 207.614C513.904 208.034 514.436 208.244 515.089 208.244C515.416 208.244 515.714 208.197 515.985 208.104C516.265 208.001 516.531 207.871 516.783 207.712L517.189 208.468C516.89 208.655 516.559 208.818 516.195 208.958C515.831 209.098 515.416 209.168 514.949 209.168ZM512.807 205.052H516.447C516.447 204.361 516.298 203.839 515.999 203.484C515.71 203.12 515.299 202.938 514.767 202.938C514.524 202.938 514.291 202.985 514.067 203.078C513.852 203.171 513.656 203.311 513.479 203.498C513.302 203.675 513.152 203.895 513.031 204.156C512.919 204.417 512.844 204.716 512.807 205.052ZM521.142 209.168C520.778 209.168 520.47 209.112 520.218 209C519.975 208.888 519.774 208.734 519.616 208.538C519.466 208.342 519.359 208.104 519.294 207.824C519.228 207.544 519.196 207.236 519.196 206.9V203.134H518.188V202.266L519.252 202.196L519.392 200.292H520.358V202.196H522.192V203.134H520.358V206.914C520.358 207.334 520.432 207.661 520.582 207.894C520.74 208.118 521.016 208.23 521.408 208.23C521.529 208.23 521.66 208.211 521.8 208.174C521.94 208.137 522.066 208.095 522.178 208.048L522.402 208.916C522.215 208.981 522.01 209.037 521.786 209.084C521.571 209.14 521.356 209.168 521.142 209.168Z" fill="#545770"/>
<path d="M93.0466 93.144C92.2706 93.144 91.6666 92.8 91.2346 92.112C90.8026 91.424 90.5866 90.436 90.5866 89.148C90.5866 87.86 90.8026 86.88 91.2346 86.208C91.6666 85.536 92.2706 85.2 93.0466 85.2C93.8146 85.2 94.4146 85.536 94.8466 86.208C95.2786 86.88 95.4946 87.86 95.4946 89.148C95.4946 90.436 95.2786 91.424 94.8466 92.112C94.4146 92.8 93.8146 93.144 93.0466 93.144ZM93.0466 92.352C93.2706 92.352 93.4706 92.292 93.6466 92.172C93.8306 92.044 93.9866 91.852 94.1146 91.596C94.2506 91.332 94.3546 91 94.4266 90.6C94.4986 90.192 94.5346 89.708 94.5346 89.148C94.5346 88.588 94.4986 88.108 94.4266 87.708C94.3546 87.308 94.2506 86.984 94.1146 86.736C93.9866 86.48 93.8306 86.292 93.6466 86.172C93.4706 86.052 93.2706 85.992 93.0466 85.992C92.8226 85.992 92.6186 86.052 92.4346 86.172C92.2506 86.292 92.0906 86.48 91.9546 86.736C91.8266 86.984 91.7266 87.308 91.6546 87.708C91.5826 88.108 91.5466 88.588 91.5466 89.148C91.5466 90.268 91.6826 91.084 91.9546 91.596C92.2346 92.1 92.5986 92.352 93.0466 92.352ZM97.5234 93.144C97.3234 93.144 97.1514 93.076 97.0074 92.94C96.8714 92.796 96.8034 92.616 96.8034 92.4C96.8034 92.168 96.8714 91.984 97.0074 91.848C97.1514 91.704 97.3234 91.632 97.5234 91.632C97.7154 91.632 97.8794 91.704 98.0154 91.848C98.1594 91.984 98.2314 92.168 98.2314 92.4C98.2314 92.616 98.1594 92.796 98.0154 92.94C97.8794 93.076 97.7154 93.144 97.5234 93.144ZM102 93.144C101.224 93.144 100.62 92.8 100.188 92.112C99.7557 91.424 99.5397 90.436 99.5397 89.148C99.5397 87.86 99.7557 86.88 100.188 86.208C100.62 85.536 101.224 85.2 102 85.2C102.768 85.2 103.368 85.536 103.8 86.208C104.232 86.88 104.448 87.86 104.448 89.148C104.448 90.436 104.232 91.424 103.8 92.112C103.368 92.8 102.768 93.144 102 93.144ZM102 92.352C102.224 92.352 102.424 92.292 102.6 92.172C102.784 92.044 102.94 91.852 103.068 91.596C103.204 91.332 103.308 91 103.38 90.6C103.452 90.192 103.488 89.708 103.488 89.148C103.488 88.588 103.452 88.108 103.38 87.708C103.308 87.308 103.204 86.984 103.068 86.736C102.94 86.48 102.784 86.292 102.6 86.172C102.424 86.052 102.224 85.992 102 85.992C101.776 85.992 101.572 86.052 101.388 86.172C101.204 86.292 101.044 86.48 100.908 86.736C100.78 86.984 100.68 87.308 100.608 87.708C100.536 88.108 100.5 88.588 100.5 89.148C100.5 90.268 100.636 91.084 100.908 91.596C101.188 92.1 101.552 92.352 102 92.352ZM107.785 93.144C107.481 93.144 107.201 93.112 106.945 93.048C106.697 92.992 106.469 92.916 106.261 92.82C106.061 92.724 105.877 92.616 105.709 92.496C105.549 92.368 105.405 92.236 105.277 92.1L105.757 91.452C105.981 91.684 106.245 91.888 106.549 92.064C106.861 92.24 107.241 92.328 107.689 92.328C107.921 92.328 108.137 92.288 108.337 92.208C108.545 92.12 108.725 92 108.877 91.848C109.029 91.696 109.149 91.512 109.237 91.296C109.325 91.08 109.369 90.84 109.369 90.576C109.369 90.048 109.221 89.636 108.925 89.34C108.629 89.044 108.233 88.896 107.737 88.896C107.473 88.896 107.245 88.936 107.053 89.016C106.869 89.096 106.661 89.212 106.429 89.364L105.901 89.028L106.153 85.344H109.981V86.196H107.017L106.813 88.464C106.997 88.368 107.181 88.292 107.365 88.236C107.549 88.18 107.757 88.152 107.989 88.152C108.317 88.152 108.625 88.2 108.913 88.296C109.201 88.392 109.453 88.54 109.669 88.74C109.885 88.932 110.053 89.18 110.173 89.484C110.301 89.78 110.365 90.136 110.365 90.552C110.365 90.968 110.293 91.336 110.149 91.656C110.005 91.976 109.813 92.248 109.573 92.472C109.333 92.688 109.057 92.856 108.745 92.976C108.441 93.088 108.121 93.144 107.785 93.144Z" fill="#7D7E8E"/>
<path d="M115.646 400.372V399.616H118.406V400.372H115.646ZM119.361 403V402.412C119.937 401.836 120.449 401.316 120.897 400.852C121.345 400.388 121.721 399.96 122.025 399.568C122.329 399.168 122.561 398.804 122.721 398.476C122.881 398.14 122.961 397.816 122.961 397.504C122.961 397.064 122.841 396.704 122.601 396.424C122.361 396.144 121.997 396.004 121.509 396.004C121.189 396.004 120.893 396.096 120.621 396.28C120.349 396.456 120.101 396.672 119.877 396.928L119.313 396.364C119.633 396.012 119.973 395.732 120.333 395.524C120.693 395.308 121.125 395.2 121.629 395.2C122.341 395.2 122.901 395.408 123.309 395.824C123.717 396.232 123.921 396.776 123.921 397.456C123.921 397.816 123.841 398.18 123.681 398.548C123.529 398.908 123.313 399.284 123.033 399.676C122.761 400.06 122.433 400.464 122.049 400.888C121.673 401.304 121.257 401.748 120.801 402.22C121.009 402.204 121.225 402.188 121.449 402.172C121.673 402.156 121.885 402.148 122.085 402.148H124.305V403H119.361Z" fill="#7D7E8E"/>
<path d="M154.047 93.144C153.271 93.144 152.667 92.8 152.235 92.112C151.803 91.424 151.587 90.436 151.587 89.148C151.587 87.86 151.803 86.88 152.235 86.208C152.667 85.536 153.271 85.2 154.047 85.2C154.815 85.2 155.415 85.536 155.847 86.208C156.279 86.88 156.495 87.86 156.495 89.148C156.495 90.436 156.279 91.424 155.847 92.112C155.415 92.8 154.815 93.144 154.047 93.144ZM154.047 92.352C154.271 92.352 154.471 92.292 154.647 92.172C154.831 92.044 154.987 91.852 155.115 91.596C155.251 91.332 155.355 91 155.427 90.6C155.499 90.192 155.535 89.708 155.535 89.148C155.535 88.588 155.499 88.108 155.427 87.708C155.355 87.308 155.251 86.984 155.115 86.736C154.987 86.48 154.831 86.292 154.647 86.172C154.471 86.052 154.271 85.992 154.047 85.992C153.823 85.992 153.619 86.052 153.435 86.172C153.251 86.292 153.091 86.48 152.955 86.736C152.827 86.984 152.727 87.308 152.655 87.708C152.583 88.108 152.547 88.588 152.547 89.148C152.547 90.268 152.683 91.084 152.955 91.596C153.235 92.1 153.599 92.352 154.047 92.352ZM158.523 93.144C158.323 93.144 158.151 93.076 158.007 92.94C157.871 92.796 157.803 92.616 157.803 92.4C157.803 92.168 157.871 91.984 158.007 91.848C158.151 91.704 158.323 91.632 158.523 91.632C158.715 91.632 158.879 91.704 159.015 91.848C159.159 91.984 159.231 92.168 159.231 92.4C159.231 92.616 159.159 92.796 159.015 92.94C158.879 93.076 158.715 93.144 158.523 93.144ZM160.96 93V92.184H162.712V86.544H161.32V85.908C161.672 85.844 161.976 85.768 162.232 85.68C162.496 85.584 162.732 85.472 162.94 85.344H163.696V92.184H165.28V93H160.96ZM168.965 93.144C168.189 93.144 167.585 92.8 167.153 92.112C166.721 91.424 166.505 90.436 166.505 89.148C166.505 87.86 166.721 86.88 167.153 86.208C167.585 85.536 168.189 85.2 168.965 85.2C169.733 85.2 170.333 85.536 170.765 86.208C171.197 86.88 171.413 87.86 171.413 89.148C171.413 90.436 171.197 91.424 170.765 92.112C170.333 92.8 169.733 93.144 168.965 93.144ZM168.965 92.352C169.189 92.352 169.389 92.292 169.565 92.172C169.749 92.044 169.905 91.852 170.033 91.596C170.169 91.332 170.273 91 170.345 90.6C170.417 90.192 170.453 89.708 170.453 89.148C170.453 88.588 170.417 88.108 170.345 87.708C170.273 87.308 170.169 86.984 170.033 86.736C169.905 86.48 169.749 86.292 169.565 86.172C169.389 86.052 169.189 85.992 168.965 85.992C168.741 85.992 168.537 86.052 168.353 86.172C168.169 86.292 168.009 86.48 167.873 86.736C167.745 86.984 167.645 87.308 167.573 87.708C167.501 88.108 167.465 88.588 167.465 89.148C167.465 90.268 167.601 91.084 167.873 91.596C168.153 92.1 168.517 92.352 168.965 92.352Z" fill="#7D7E8E"/>
<path d="M191.006 403.144C190.23 403.144 189.626 402.8 189.194 402.112C188.762 401.424 188.546 400.436 188.546 399.148C188.546 397.86 188.762 396.88 189.194 396.208C189.626 395.536 190.23 395.2 191.006 395.2C191.774 395.2 192.374 395.536 192.806 396.208C193.238 396.88 193.454 397.86 193.454 399.148C193.454 400.436 193.238 401.424 192.806 402.112C192.374 402.8 191.774 403.144 191.006 403.144ZM191.006 402.352C191.23 402.352 191.43 402.292 191.606 402.172C191.79 402.044 191.946 401.852 192.074 401.596C192.21 401.332 192.314 401 192.386 400.6C192.458 400.192 192.494 399.708 192.494 399.148C192.494 398.588 192.458 398.108 192.386 397.708C192.314 397.308 192.21 396.984 192.074 396.736C191.946 396.48 191.79 396.292 191.606 396.172C191.43 396.052 191.23 395.992 191.006 395.992C190.782 395.992 190.578 396.052 190.394 396.172C190.21 396.292 190.05 396.48 189.914 396.736C189.786 396.984 189.686 397.308 189.614 397.708C189.542 398.108 189.506 398.588 189.506 399.148C189.506 400.268 189.642 401.084 189.914 401.596C190.194 402.1 190.558 402.352 191.006 402.352Z" fill="#7D7E8E"/>
<path d="M215.047 93.144C214.271 93.144 213.667 92.8 213.235 92.112C212.803 91.424 212.587 90.436 212.587 89.148C212.587 87.86 212.803 86.88 213.235 86.208C213.667 85.536 214.271 85.2 215.047 85.2C215.815 85.2 216.415 85.536 216.847 86.208C217.279 86.88 217.495 87.86 217.495 89.148C217.495 90.436 217.279 91.424 216.847 92.112C216.415 92.8 215.815 93.144 215.047 93.144ZM215.047 92.352C215.271 92.352 215.471 92.292 215.647 92.172C215.831 92.044 215.987 91.852 216.115 91.596C216.251 91.332 216.355 91 216.427 90.6C216.499 90.192 216.535 89.708 216.535 89.148C216.535 88.588 216.499 88.108 216.427 87.708C216.355 87.308 216.251 86.984 216.115 86.736C215.987 86.48 215.831 86.292 215.647 86.172C215.471 86.052 215.271 85.992 215.047 85.992C214.823 85.992 214.619 86.052 214.435 86.172C214.251 86.292 214.091 86.48 213.955 86.736C213.827 86.984 213.727 87.308 213.655 87.708C213.583 88.108 213.547 88.588 213.547 89.148C213.547 90.268 213.683 91.084 213.955 91.596C214.235 92.1 214.599 92.352 215.047 92.352ZM219.523 93.144C219.323 93.144 219.151 93.076 219.007 92.94C218.871 92.796 218.803 92.616 218.803 92.4C218.803 92.168 218.871 91.984 219.007 91.848C219.151 91.704 219.323 91.632 219.523 91.632C219.715 91.632 219.879 91.704 220.015 91.848C220.159 91.984 220.231 92.168 220.231 92.4C220.231 92.616 220.159 92.796 220.015 92.94C219.879 93.076 219.715 93.144 219.523 93.144ZM221.96 93V92.184H223.712V86.544H222.32V85.908C222.672 85.844 222.976 85.768 223.232 85.68C223.496 85.584 223.732 85.472 223.94 85.344H224.696V92.184H226.28V93H221.96ZM229.785 93.144C229.481 93.144 229.201 93.112 228.945 93.048C228.697 92.992 228.469 92.916 228.261 92.82C228.061 92.724 227.877 92.616 227.709 92.496C227.549 92.368 227.405 92.236 227.277 92.1L227.757 91.452C227.981 91.684 228.245 91.888 228.549 92.064C228.861 92.24 229.241 92.328 229.689 92.328C229.921 92.328 230.137 92.288 230.337 92.208C230.545 92.12 230.725 92 230.877 91.848C231.029 91.696 231.149 91.512 231.237 91.296C231.325 91.08 231.369 90.84 231.369 90.576C231.369 90.048 231.221 89.636 230.925 89.34C230.629 89.044 230.233 88.896 229.737 88.896C229.473 88.896 229.245 88.936 229.053 89.016C228.869 89.096 228.661 89.212 228.429 89.364L227.901 89.028L228.153 85.344H231.981V86.196H229.017L228.813 88.464C228.997 88.368 229.181 88.292 229.365 88.236C229.549 88.18 229.757 88.152 229.989 88.152C230.317 88.152 230.625 88.2 230.913 88.296C231.201 88.392 231.453 88.54 231.669 88.74C231.885 88.932 232.053 89.18 232.173 89.484C232.301 89.78 232.365 90.136 232.365 90.552C232.365 90.968 232.293 91.336 232.149 91.656C232.005 91.976 231.813 92.248 231.573 92.472C231.333 92.688 231.057 92.856 230.745 92.976C230.441 93.088 230.121 93.144 229.785 93.144Z" fill="#7D7E8E"/>
<path d="M257.498 403V402.412C258.074 401.836 258.586 401.316 259.034 400.852C259.482 400.388 259.858 399.96 260.162 399.568C260.466 399.168 260.698 398.804 260.858 398.476C261.018 398.14 261.098 397.816 261.098 397.504C261.098 397.064 260.978 396.704 260.738 396.424C260.498 396.144 260.134 396.004 259.646 396.004C259.326 396.004 259.03 396.096 258.758 396.28C258.486 396.456 258.238 396.672 258.014 396.928L257.45 396.364C257.77 396.012 258.11 395.732 258.47 395.524C258.83 395.308 259.262 395.2 259.766 395.2C260.478 395.2 261.038 395.408 261.446 395.824C261.854 396.232 262.058 396.776 262.058 397.456C262.058 397.816 261.978 398.18 261.818 398.548C261.666 398.908 261.45 399.284 261.17 399.676C260.898 400.06 260.57 400.464 260.186 400.888C259.81 401.304 259.394 401.748 258.938 402.22C259.146 402.204 259.362 402.188 259.586 402.172C259.81 402.156 260.022 402.148 260.222 402.148H262.442V403H257.498Z" fill="#7D7E8E"/>
<path d="M276.047 93.144C275.271 93.144 274.667 92.8 274.235 92.112C273.803 91.424 273.587 90.436 273.587 89.148C273.587 87.86 273.803 86.88 274.235 86.208C274.667 85.536 275.271 85.2 276.047 85.2C276.815 85.2 277.415 85.536 277.847 86.208C278.279 86.88 278.495 87.86 278.495 89.148C278.495 90.436 278.279 91.424 277.847 92.112C277.415 92.8 276.815 93.144 276.047 93.144ZM276.047 92.352C276.271 92.352 276.471 92.292 276.647 92.172C276.831 92.044 276.987 91.852 277.115 91.596C277.251 91.332 277.355 91 277.427 90.6C277.499 90.192 277.535 89.708 277.535 89.148C277.535 88.588 277.499 88.108 277.427 87.708C277.355 87.308 277.251 86.984 277.115 86.736C276.987 86.48 276.831 86.292 276.647 86.172C276.471 86.052 276.271 85.992 276.047 85.992C275.823 85.992 275.619 86.052 275.435 86.172C275.251 86.292 275.091 86.48 274.955 86.736C274.827 86.984 274.727 87.308 274.655 87.708C274.583 88.108 274.547 88.588 274.547 89.148C274.547 90.268 274.683 91.084 274.955 91.596C275.235 92.1 275.599 92.352 276.047 92.352ZM280.523 93.144C280.323 93.144 280.151 93.076 280.007 92.94C279.871 92.796 279.803 92.616 279.803 92.4C279.803 92.168 279.871 91.984 280.007 91.848C280.151 91.704 280.323 91.632 280.523 91.632C280.715 91.632 280.879 91.704 281.015 91.848C281.159 91.984 281.231 92.168 281.231 92.4C281.231 92.616 281.159 92.796 281.015 92.94C280.879 93.076 280.715 93.144 280.523 93.144ZM282.492 93V92.412C283.068 91.836 283.58 91.316 284.028 90.852C284.476 90.388 284.852 89.96 285.156 89.568C285.46 89.168 285.692 88.804 285.852 88.476C286.012 88.14 286.092 87.816 286.092 87.504C286.092 87.064 285.972 86.704 285.732 86.424C285.492 86.144 285.128 86.004 284.64 86.004C284.32 86.004 284.024 86.096 283.752 86.28C283.48 86.456 283.232 86.672 283.008 86.928L282.444 86.364C282.764 86.012 283.104 85.732 283.464 85.524C283.824 85.308 284.256 85.2 284.76 85.2C285.472 85.2 286.032 85.408 286.44 85.824C286.848 86.232 287.052 86.776 287.052 87.456C287.052 87.816 286.972 88.18 286.812 88.548C286.66 88.908 286.444 89.284 286.164 89.676C285.892 90.06 285.564 90.464 285.18 90.888C284.804 91.304 284.388 91.748 283.932 92.22C284.14 92.204 284.356 92.188 284.58 92.172C284.804 92.156 285.016 92.148 285.216 92.148H287.436V93H282.492ZM290.965 93.144C290.189 93.144 289.585 92.8 289.153 92.112C288.721 91.424 288.505 90.436 288.505 89.148C288.505 87.86 288.721 86.88 289.153 86.208C289.585 85.536 290.189 85.2 290.965 85.2C291.733 85.2 292.333 85.536 292.765 86.208C293.197 86.88 293.413 87.86 293.413 89.148C293.413 90.436 293.197 91.424 292.765 92.112C292.333 92.8 291.733 93.144 290.965 93.144ZM290.965 92.352C291.189 92.352 291.389 92.292 291.565 92.172C291.749 92.044 291.905 91.852 292.033 91.596C292.169 91.332 292.273 91 292.345 90.6C292.417 90.192 292.453 89.708 292.453 89.148C292.453 88.588 292.417 88.108 292.345 87.708C292.273 87.308 292.169 86.984 292.033 86.736C291.905 86.48 291.749 86.292 291.565 86.172C291.389 86.052 291.189 85.992 290.965 85.992C290.741 85.992 290.537 86.052 290.353 86.172C290.169 86.292 290.009 86.48 289.873 86.736C289.745 86.984 289.645 87.308 289.573 87.708C289.501 88.108 289.465 88.588 289.465 89.148C289.465 90.268 289.601 91.084 289.873 91.596C290.153 92.1 290.517 92.352 290.965 92.352Z" fill="#7D7E8E"/>
<path d="M329.666 403V400.888H326.222V400.24L329.498 395.344H330.602V400.096H331.646V400.888H330.602V403H329.666ZM327.266 400.096H329.666V397.876C329.666 397.668 329.67 397.424 329.678 397.144C329.694 396.856 329.71 396.608 329.726 396.4H329.678C329.582 396.584 329.482 396.764 329.378 396.94C329.274 397.116 329.166 397.296 329.054 397.48L327.266 400.096Z" fill="#7D7E8E"/>
<path d="M337.047 93.144C336.271 93.144 335.667 92.8 335.235 92.112C334.803 91.424 334.587 90.436 334.587 89.148C334.587 87.86 334.803 86.88 335.235 86.208C335.667 85.536 336.271 85.2 337.047 85.2C337.815 85.2 338.415 85.536 338.847 86.208C339.279 86.88 339.495 87.86 339.495 89.148C339.495 90.436 339.279 91.424 338.847 92.112C338.415 92.8 337.815 93.144 337.047 93.144ZM337.047 92.352C337.271 92.352 337.471 92.292 337.647 92.172C337.831 92.044 337.987 91.852 338.115 91.596C338.251 91.332 338.355 91 338.427 90.6C338.499 90.192 338.535 89.708 338.535 89.148C338.535 88.588 338.499 88.108 338.427 87.708C338.355 87.308 338.251 86.984 338.115 86.736C337.987 86.48 337.831 86.292 337.647 86.172C337.471 86.052 337.271 85.992 337.047 85.992C336.823 85.992 336.619 86.052 336.435 86.172C336.251 86.292 336.091 86.48 335.955 86.736C335.827 86.984 335.727 87.308 335.655 87.708C335.583 88.108 335.547 88.588 335.547 89.148C335.547 90.268 335.683 91.084 335.955 91.596C336.235 92.1 336.599 92.352 337.047 92.352ZM341.523 93.144C341.323 93.144 341.151 93.076 341.007 92.94C340.871 92.796 340.803 92.616 340.803 92.4C340.803 92.168 340.871 91.984 341.007 91.848C341.151 91.704 341.323 91.632 341.523 91.632C341.715 91.632 341.879 91.704 342.015 91.848C342.159 91.984 342.231 92.168 342.231 92.4C342.231 92.616 342.159 92.796 342.015 92.94C341.879 93.076 341.715 93.144 341.523 93.144ZM343.492 93V92.412C344.068 91.836 344.58 91.316 345.028 90.852C345.476 90.388 345.852 89.96 346.156 89.568C346.46 89.168 346.692 88.804 346.852 88.476C347.012 88.14 347.092 87.816 347.092 87.504C347.092 87.064 346.972 86.704 346.732 86.424C346.492 86.144 346.128 86.004 345.64 86.004C345.32 86.004 345.024 86.096 344.752 86.28C344.48 86.456 344.232 86.672 344.008 86.928L343.444 86.364C343.764 86.012 344.104 85.732 344.464 85.524C344.824 85.308 345.256 85.2 345.76 85.2C346.472 85.2 347.032 85.408 347.44 85.824C347.848 86.232 348.052 86.776 348.052 87.456C348.052 87.816 347.972 88.18 347.812 88.548C347.66 88.908 347.444 89.284 347.164 89.676C346.892 90.06 346.564 90.464 346.18 90.888C345.804 91.304 345.388 91.748 344.932 92.22C345.14 92.204 345.356 92.188 345.58 92.172C345.804 92.156 346.016 92.148 346.216 92.148H348.436V93H343.492ZM351.785 93.144C351.481 93.144 351.201 93.112 350.945 93.048C350.697 92.992 350.469 92.916 350.261 92.82C350.061 92.724 349.877 92.616 349.709 92.496C349.549 92.368 349.405 92.236 349.277 92.1L349.757 91.452C349.981 91.684 350.245 91.888 350.549 92.064C350.861 92.24 351.241 92.328 351.689 92.328C351.921 92.328 352.137 92.288 352.337 92.208C352.545 92.12 352.725 92 352.877 91.848C353.029 91.696 353.149 91.512 353.237 91.296C353.325 91.08 353.369 90.84 353.369 90.576C353.369 90.048 353.221 89.636 352.925 89.34C352.629 89.044 352.233 88.896 351.737 88.896C351.473 88.896 351.245 88.936 351.053 89.016C350.869 89.096 350.661 89.212 350.429 89.364L349.901 89.028L350.153 85.344H353.981V86.196H351.017L350.813 88.464C350.997 88.368 351.181 88.292 351.365 88.236C351.549 88.18 351.757 88.152 351.989 88.152C352.317 88.152 352.625 88.2 352.913 88.296C353.201 88.392 353.453 88.54 353.669 88.74C353.885 88.932 354.053 89.18 354.173 89.484C354.301 89.78 354.365 90.136 354.365 90.552C354.365 90.968 354.293 91.336 354.149 91.656C354.005 91.976 353.813 92.248 353.573 92.472C353.333 92.688 353.057 92.856 352.745 92.976C352.441 93.088 352.121 93.144 351.785 93.144Z" fill="#7D7E8E"/>
<path d="M398.234 403.144C397.858 403.144 397.51 403.068 397.19 402.916C396.87 402.764 396.59 402.536 396.35 402.232C396.118 401.92 395.934 401.536 395.798 401.08C395.662 400.616 395.594 400.076 395.594 399.46C395.594 398.692 395.674 398.04 395.834 397.504C395.994 396.96 396.21 396.52 396.482 396.184C396.754 395.84 397.062 395.592 397.406 395.44C397.758 395.28 398.126 395.2 398.51 395.2C398.926 395.2 399.282 395.28 399.578 395.44C399.882 395.592 400.142 395.784 400.358 396.016L399.806 396.628C399.646 396.444 399.454 396.3 399.23 396.196C399.014 396.084 398.786 396.028 398.546 396.028C398.282 396.028 398.03 396.084 397.79 396.196C397.55 396.308 397.338 396.492 397.154 396.748C396.97 397.004 396.822 397.34 396.71 397.756C396.598 398.164 396.538 398.672 396.53 399.28C396.77 398.984 397.05 398.752 397.37 398.584C397.69 398.408 398.006 398.32 398.318 398.32C398.982 398.32 399.51 398.516 399.902 398.908C400.302 399.3 400.502 399.892 400.502 400.684C400.502 401.052 400.442 401.388 400.322 401.692C400.202 401.988 400.038 402.244 399.83 402.46C399.622 402.676 399.382 402.844 399.11 402.964C398.838 403.084 398.546 403.144 398.234 403.144ZM398.234 402.364C398.426 402.364 398.602 402.324 398.762 402.244C398.922 402.164 399.062 402.052 399.182 401.908C399.302 401.756 399.394 401.58 399.458 401.38C399.53 401.172 399.566 400.94 399.566 400.684C399.566 400.18 399.45 399.784 399.218 399.496C398.986 399.208 398.63 399.064 398.15 399.064C397.902 399.064 397.634 399.144 397.346 399.304C397.058 399.456 396.794 399.712 396.554 400.072C396.618 400.824 396.79 401.396 397.07 401.788C397.358 402.172 397.746 402.364 398.234 402.364Z" fill="#7D7E8E"/>
<path d="M398.047 93.144C397.271 93.144 396.667 92.8 396.235 92.112C395.803 91.424 395.587 90.436 395.587 89.148C395.587 87.86 395.803 86.88 396.235 86.208C396.667 85.536 397.271 85.2 398.047 85.2C398.815 85.2 399.415 85.536 399.847 86.208C400.279 86.88 400.495 87.86 400.495 89.148C400.495 90.436 400.279 91.424 399.847 92.112C399.415 92.8 398.815 93.144 398.047 93.144ZM398.047 92.352C398.271 92.352 398.471 92.292 398.647 92.172C398.831 92.044 398.987 91.852 399.115 91.596C399.251 91.332 399.355 91 399.427 90.6C399.499 90.192 399.535 89.708 399.535 89.148C399.535 88.588 399.499 88.108 399.427 87.708C399.355 87.308 399.251 86.984 399.115 86.736C398.987 86.48 398.831 86.292 398.647 86.172C398.471 86.052 398.271 85.992 398.047 85.992C397.823 85.992 397.619 86.052 397.435 86.172C397.251 86.292 397.091 86.48 396.955 86.736C396.827 86.984 396.727 87.308 396.655 87.708C396.583 88.108 396.547 88.588 396.547 89.148C396.547 90.268 396.683 91.084 396.955 91.596C397.235 92.1 397.599 92.352 398.047 92.352ZM402.523 93.144C402.323 93.144 402.151 93.076 402.007 92.94C401.871 92.796 401.803 92.616 401.803 92.4C401.803 92.168 401.871 91.984 402.007 91.848C402.151 91.704 402.323 91.632 402.523 91.632C402.715 91.632 402.879 91.704 403.015 91.848C403.159 91.984 403.231 92.168 403.231 92.4C403.231 92.616 403.159 92.796 403.015 92.94C402.879 93.076 402.715 93.144 402.523 93.144ZM406.844 93.144C406.54 93.144 406.26 93.112 406.004 93.048C405.756 92.992 405.528 92.916 405.32 92.82C405.112 92.716 404.924 92.6 404.756 92.472C404.596 92.344 404.452 92.208 404.324 92.064L404.828 91.416C405.06 91.656 405.328 91.868 405.632 92.052C405.944 92.236 406.328 92.328 406.784 92.328C407.248 92.328 407.628 92.204 407.924 91.956C408.22 91.7 408.368 91.356 408.368 90.924C408.368 90.7 408.324 90.496 408.236 90.312C408.156 90.12 408.02 89.956 407.828 89.82C407.636 89.684 407.384 89.58 407.072 89.508C406.76 89.436 406.376 89.4 405.92 89.4V88.644C406.328 88.644 406.668 88.608 406.94 88.536C407.22 88.464 407.444 88.364 407.612 88.236C407.788 88.108 407.912 87.956 407.984 87.78C408.056 87.604 408.092 87.416 408.092 87.216C408.092 86.84 407.972 86.544 407.732 86.328C407.5 86.112 407.18 86.004 406.772 86.004C406.452 86.004 406.156 86.076 405.884 86.22C405.62 86.364 405.372 86.552 405.14 86.784L404.612 86.16C404.908 85.88 405.232 85.652 405.584 85.476C405.944 85.292 406.352 85.2 406.808 85.2C407.144 85.2 407.452 85.244 407.732 85.332C408.012 85.42 408.252 85.548 408.452 85.716C408.66 85.876 408.82 86.076 408.932 86.316C409.044 86.556 409.1 86.832 409.1 87.144C409.1 87.608 408.972 87.988 408.716 88.284C408.46 88.58 408.124 88.808 407.708 88.968V89.016C407.94 89.072 408.156 89.156 408.356 89.268C408.556 89.372 408.732 89.508 408.884 89.676C409.036 89.836 409.152 90.024 409.232 90.24C409.32 90.456 409.364 90.696 409.364 90.96C409.364 91.296 409.296 91.6 409.16 91.872C409.032 92.144 408.852 92.376 408.62 92.568C408.396 92.752 408.132 92.896 407.828 93C407.524 93.096 407.196 93.144 406.844 93.144ZM412.965 93.144C412.189 93.144 411.585 92.8 411.153 92.112C410.721 91.424 410.505 90.436 410.505 89.148C410.505 87.86 410.721 86.88 411.153 86.208C411.585 85.536 412.189 85.2 412.965 85.2C413.733 85.2 414.333 85.536 414.765 86.208C415.197 86.88 415.413 87.86 415.413 89.148C415.413 90.436 415.197 91.424 414.765 92.112C414.333 92.8 413.733 93.144 412.965 93.144ZM412.965 92.352C413.189 92.352 413.389 92.292 413.565 92.172C413.749 92.044 413.905 91.852 414.033 91.596C414.169 91.332 414.273 91 414.345 90.6C414.417 90.192 414.453 89.708 414.453 89.148C414.453 88.588 414.417 88.108 414.345 87.708C414.273 87.308 414.169 86.984 414.033 86.736C413.905 86.48 413.749 86.292 413.565 86.172C413.389 86.052 413.189 85.992 412.965 85.992C412.741 85.992 412.537 86.052 412.353 86.172C412.169 86.292 412.009 86.48 411.873 86.736C411.745 86.984 411.645 87.308 411.573 87.708C411.501 88.108 411.465 88.588 411.465 89.148C411.465 90.268 411.601 91.084 411.873 91.596C412.153 92.1 412.517 92.352 412.965 92.352Z" fill="#7D7E8E"/>
<path d="M459.047 93.144C458.271 93.144 457.667 92.8 457.235 92.112C456.803 91.424 456.587 90.436 456.587 89.148C456.587 87.86 456.803 86.88 457.235 86.208C457.667 85.536 458.271 85.2 459.047 85.2C459.815 85.2 460.415 85.536 460.847 86.208C461.279 86.88 461.495 87.86 461.495 89.148C461.495 90.436 461.279 91.424 460.847 92.112C460.415 92.8 459.815 93.144 459.047 93.144ZM459.047 92.352C459.271 92.352 459.471 92.292 459.647 92.172C459.831 92.044 459.987 91.852 460.115 91.596C460.251 91.332 460.355 91 460.427 90.6C460.499 90.192 460.535 89.708 460.535 89.148C460.535 88.588 460.499 88.108 460.427 87.708C460.355 87.308 460.251 86.984 460.115 86.736C459.987 86.48 459.831 86.292 459.647 86.172C459.471 86.052 459.271 85.992 459.047 85.992C458.823 85.992 458.619 86.052 458.435 86.172C458.251 86.292 458.091 86.48 457.955 86.736C457.827 86.984 457.727 87.308 457.655 87.708C457.583 88.108 457.547 88.588 457.547 89.148C457.547 90.268 457.683 91.084 457.955 91.596C458.235 92.1 458.599 92.352 459.047 92.352ZM463.523 93.144C463.323 93.144 463.151 93.076 463.007 92.94C462.871 92.796 462.803 92.616 462.803 92.4C462.803 92.168 462.871 91.984 463.007 91.848C463.151 91.704 463.323 91.632 463.523 91.632C463.715 91.632 463.879 91.704 464.015 91.848C464.159 91.984 464.231 92.168 464.231 92.4C464.231 92.616 464.159 92.796 464.015 92.94C463.879 93.076 463.715 93.144 463.523 93.144ZM467.844 93.144C467.54 93.144 467.26 93.112 467.004 93.048C466.756 92.992 466.528 92.916 466.32 92.82C466.112 92.716 465.924 92.6 465.756 92.472C465.596 92.344 465.452 92.208 465.324 92.064L465.828 91.416C466.06 91.656 466.328 91.868 466.632 92.052C466.944 92.236 467.328 92.328 467.784 92.328C468.248 92.328 468.628 92.204 468.924 91.956C469.22 91.7 469.368 91.356 469.368 90.924C469.368 90.7 469.324 90.496 469.236 90.312C469.156 90.12 469.02 89.956 468.828 89.82C468.636 89.684 468.384 89.58 468.072 89.508C467.76 89.436 467.376 89.4 466.92 89.4V88.644C467.328 88.644 467.668 88.608 467.94 88.536C468.22 88.464 468.444 88.364 468.612 88.236C468.788 88.108 468.912 87.956 468.984 87.78C469.056 87.604 469.092 87.416 469.092 87.216C469.092 86.84 468.972 86.544 468.732 86.328C468.5 86.112 468.18 86.004 467.772 86.004C467.452 86.004 467.156 86.076 466.884 86.22C466.62 86.364 466.372 86.552 466.14 86.784L465.612 86.16C465.908 85.88 466.232 85.652 466.584 85.476C466.944 85.292 467.352 85.2 467.808 85.2C468.144 85.2 468.452 85.244 468.732 85.332C469.012 85.42 469.252 85.548 469.452 85.716C469.66 85.876 469.82 86.076 469.932 86.316C470.044 86.556 470.1 86.832 470.1 87.144C470.1 87.608 469.972 87.988 469.716 88.284C469.46 88.58 469.124 88.808 468.708 88.968V89.016C468.94 89.072 469.156 89.156 469.356 89.268C469.556 89.372 469.732 89.508 469.884 89.676C470.036 89.836 470.152 90.024 470.232 90.24C470.32 90.456 470.364 90.696 470.364 90.96C470.364 91.296 470.296 91.6 470.16 91.872C470.032 92.144 469.852 92.376 469.62 92.568C469.396 92.752 469.132 92.896 468.828 93C468.524 93.096 468.196 93.144 467.844 93.144ZM473.785 93.144C473.481 93.144 473.201 93.112 472.945 93.048C472.697 92.992 472.469 92.916 472.261 92.82C472.061 92.724 471.877 92.616 471.709 92.496C471.549 92.368 471.405 92.236 471.277 92.1L471.757 91.452C471.981 91.684 472.245 91.888 472.549 92.064C472.861 92.24 473.241 92.328 473.689 92.328C473.921 92.328 474.137 92.288 474.337 92.208C474.545 92.12 474.725 92 474.877 91.848C475.029 91.696 475.149 91.512 475.237 91.296C475.325 91.08 475.369 90.84 475.369 90.576C475.369 90.048 475.221 89.636 474.925 89.34C474.629 89.044 474.233 88.896 473.737 88.896C473.473 88.896 473.245 88.936 473.053 89.016C472.869 89.096 472.661 89.212 472.429 89.364L471.901 89.028L472.153 85.344H475.981V86.196H473.017L472.813 88.464C472.997 88.368 473.181 88.292 473.365 88.236C473.549 88.18 473.757 88.152 473.989 88.152C474.317 88.152 474.625 88.2 474.913 88.296C475.201 88.392 475.453 88.54 475.669 88.74C475.885 88.932 476.053 89.18 476.173 89.484C476.301 89.78 476.365 90.136 476.365 90.552C476.365 90.968 476.293 91.336 476.149 91.656C476.005 91.976 475.813 92.248 475.573 92.472C475.333 92.688 475.057 92.856 474.745 92.976C474.441 93.088 474.121 93.144 473.785 93.144Z" fill="#7D7E8E"/>
<path d="M467.018 403.144C466.658 403.144 466.322 403.092 466.01 402.988C465.706 402.884 465.442 402.74 465.218 402.556C465.002 402.364 464.83 402.14 464.702 401.884C464.574 401.628 464.51 401.348 464.51 401.044C464.51 400.796 464.55 400.568 464.63 400.36C464.718 400.144 464.826 399.952 464.954 399.784C465.09 399.608 465.242 399.456 465.41 399.328C465.586 399.192 465.766 399.076 465.95 398.98V398.932C465.67 398.732 465.422 398.492 465.206 398.212C464.99 397.924 464.882 397.576 464.882 397.168C464.882 396.872 464.938 396.604 465.05 396.364C465.162 396.124 465.314 395.92 465.506 395.752C465.698 395.576 465.926 395.44 466.19 395.344C466.454 395.248 466.742 395.2 467.054 395.2C467.39 395.2 467.69 395.252 467.954 395.356C468.218 395.452 468.442 395.592 468.626 395.776C468.818 395.952 468.962 396.168 469.058 396.424C469.162 396.672 469.214 396.944 469.214 397.24C469.214 397.44 469.178 397.632 469.106 397.816C469.042 398 468.958 398.172 468.854 398.332C468.758 398.492 468.646 398.636 468.518 398.764C468.398 398.892 468.278 399 468.158 399.088V399.136C468.326 399.232 468.49 399.344 468.65 399.472C468.81 399.592 468.95 399.732 469.07 399.892C469.198 400.044 469.298 400.22 469.37 400.42C469.45 400.62 469.49 400.848 469.49 401.104C469.49 401.392 469.43 401.66 469.31 401.908C469.19 402.156 469.022 402.372 468.806 402.556C468.59 402.74 468.33 402.884 468.026 402.988C467.722 403.092 467.386 403.144 467.018 403.144ZM467.558 398.824C467.814 398.592 468.01 398.348 468.146 398.092C468.29 397.836 468.362 397.568 468.362 397.288C468.362 396.904 468.246 396.584 468.014 396.328C467.782 396.064 467.454 395.932 467.03 395.932C466.67 395.932 466.374 396.044 466.142 396.268C465.91 396.492 465.794 396.792 465.794 397.168C465.794 397.4 465.842 397.6 465.938 397.768C466.034 397.928 466.162 398.072 466.322 398.2C466.49 398.328 466.678 398.444 466.886 398.548C467.102 398.644 467.326 398.736 467.558 398.824ZM467.042 402.412C467.49 402.412 467.85 402.288 468.122 402.04C468.402 401.792 468.542 401.468 468.542 401.068C468.542 400.82 468.486 400.608 468.374 400.432C468.262 400.256 468.11 400.104 467.918 399.976C467.726 399.84 467.502 399.72 467.246 399.616C466.998 399.504 466.738 399.392 466.466 399.28C466.162 399.488 465.906 399.732 465.698 400.012C465.498 400.284 465.398 400.596 465.398 400.948C465.398 401.164 465.438 401.36 465.518 401.536C465.606 401.712 465.722 401.868 465.866 402.004C466.018 402.132 466.194 402.232 466.394 402.304C466.594 402.376 466.81 402.412 467.042 402.412Z" fill="#7D7E8E"/>
<path d="M33.0466 93.144C32.2706 93.144 31.6666 92.8 31.2346 92.112C30.8026 91.424 30.5866 90.436 30.5866 89.148C30.5866 87.86 30.8026 86.88 31.2346 86.208C31.6666 85.536 32.2706 85.2 33.0466 85.2C33.8146 85.2 34.4146 85.536 34.8466 86.208C35.2786 86.88 35.4946 87.86 35.4946 89.148C35.4946 90.436 35.2786 91.424 34.8466 92.112C34.4146 92.8 33.8146 93.144 33.0466 93.144ZM33.0466 92.352C33.2706 92.352 33.4706 92.292 33.6466 92.172C33.8306 92.044 33.9866 91.852 34.1146 91.596C34.2506 91.332 34.3546 91 34.4266 90.6C34.4986 90.192 34.5346 89.708 34.5346 89.148C34.5346 88.588 34.4986 88.108 34.4266 87.708C34.3546 87.308 34.2506 86.984 34.1146 86.736C33.9866 86.48 33.8306 86.292 33.6466 86.172C33.4706 86.052 33.2706 85.992 33.0466 85.992C32.8226 85.992 32.6186 86.052 32.4346 86.172C32.2506 86.292 32.0906 86.48 31.9546 86.736C31.8266 86.984 31.7266 87.308 31.6546 87.708C31.5826 88.108 31.5466 88.588 31.5466 89.148C31.5466 90.268 31.6826 91.084 31.9546 91.596C32.2346 92.1 32.5986 92.352 33.0466 92.352ZM37.5234 93.144C37.3234 93.144 37.1514 93.076 37.0074 92.94C36.8714 92.796 36.8034 92.616 36.8034 92.4C36.8034 92.168 36.8714 91.984 37.0074 91.848C37.1514 91.704 37.3234 91.632 37.5234 91.632C37.7154 91.632 37.8794 91.704 38.0154 91.848C38.1594 91.984 38.2314 92.168 38.2314 92.4C38.2314 92.616 38.1594 92.796 38.0154 92.94C37.8794 93.076 37.7154 93.144 37.5234 93.144ZM41.9997 93.144C41.2237 93.144 40.6197 92.8 40.1877 92.112C39.7557 91.424 39.5397 90.436 39.5397 89.148C39.5397 87.86 39.7557 86.88 40.1877 86.208C40.6197 85.536 41.2237 85.2 41.9997 85.2C42.7677 85.2 43.3677 85.536 43.7997 86.208C44.2317 86.88 44.4477 87.86 44.4477 89.148C44.4477 90.436 44.2317 91.424 43.7997 92.112C43.3677 92.8 42.7677 93.144 41.9997 93.144ZM41.9997 92.352C42.2237 92.352 42.4237 92.292 42.5997 92.172C42.7837 92.044 42.9397 91.852 43.0677 91.596C43.2037 91.332 43.3077 91 43.3797 90.6C43.4517 90.192 43.4877 89.708 43.4877 89.148C43.4877 88.588 43.4517 88.108 43.3797 87.708C43.3077 87.308 43.2037 86.984 43.0677 86.736C42.9397 86.48 42.7837 86.292 42.5997 86.172C42.4237 86.052 42.2237 85.992 41.9997 85.992C41.7757 85.992 41.5717 86.052 41.3877 86.172C41.2037 86.292 41.0437 86.48 40.9077 86.736C40.7797 86.984 40.6797 87.308 40.6077 87.708C40.5357 88.108 40.4997 88.588 40.4997 89.148C40.4997 90.268 40.6357 91.084 40.9077 91.596C41.1877 92.1 41.5517 92.352 41.9997 92.352ZM47.9646 93.144C47.1886 93.144 46.5846 92.8 46.1526 92.112C45.7206 91.424 45.5046 90.436 45.5046 89.148C45.5046 87.86 45.7206 86.88 46.1526 86.208C46.5846 85.536 47.1886 85.2 47.9646 85.2C48.7326 85.2 49.3326 85.536 49.7646 86.208C50.1966 86.88 50.4126 87.86 50.4126 89.148C50.4126 90.436 50.1966 91.424 49.7646 92.112C49.3326 92.8 48.7326 93.144 47.9646 93.144ZM47.9646 92.352C48.1886 92.352 48.3886 92.292 48.5646 92.172C48.7486 92.044 48.9046 91.852 49.0326 91.596C49.1686 91.332 49.2726 91 49.3446 90.6C49.4166 90.192 49.4526 89.708 49.4526 89.148C49.4526 88.588 49.4166 88.108 49.3446 87.708C49.2726 87.308 49.1686 86.984 49.0326 86.736C48.9046 86.48 48.7486 86.292 48.5646 86.172C48.3886 86.052 48.1886 85.992 47.9646 85.992C47.7406 85.992 47.5366 86.052 47.3526 86.172C47.1686 86.292 47.0086 86.48 46.8726 86.736C46.7446 86.984 46.6446 87.308 46.5726 87.708C46.5006 88.108 46.4646 88.588 46.4646 89.148C46.4646 90.268 46.6006 91.084 46.8726 91.596C47.1526 92.1 47.5166 92.352 47.9646 92.352Z" fill="#7D7E8E"/>
<path d="M39.07 389.144C38.294 389.144 37.69 388.8 37.258 388.112C36.826 387.424 36.61 386.436 36.61 385.148C36.61 383.86 36.826 382.88 37.258 382.208C37.69 381.536 38.294 381.2 39.07 381.2C39.838 381.2 40.438 381.536 40.87 382.208C41.302 382.88 41.518 383.86 41.518 385.148C41.518 386.436 41.302 387.424 40.87 388.112C40.438 388.8 39.838 389.144 39.07 389.144ZM39.07 388.352C39.294 388.352 39.494 388.292 39.67 388.172C39.854 388.044 40.01 387.852 40.138 387.596C40.274 387.332 40.378 387 40.45 386.6C40.522 386.192 40.558 385.708 40.558 385.148C40.558 384.588 40.522 384.108 40.45 383.708C40.378 383.308 40.274 382.984 40.138 382.736C40.01 382.48 39.854 382.292 39.67 382.172C39.494 382.052 39.294 381.992 39.07 381.992C38.846 381.992 38.642 382.052 38.458 382.172C38.274 382.292 38.114 382.48 37.978 382.736C37.85 382.984 37.75 383.308 37.678 383.708C37.606 384.108 37.57 384.588 37.57 385.148C37.57 386.268 37.706 387.084 37.978 387.596C38.258 388.1 38.622 388.352 39.07 388.352ZM43.5469 389.144C43.3469 389.144 43.1749 389.076 43.0309 388.94C42.8949 388.796 42.8269 388.616 42.8269 388.4C42.8269 388.168 42.8949 387.984 43.0309 387.848C43.1749 387.704 43.3469 387.632 43.5469 387.632C43.7389 387.632 43.9029 387.704 44.0389 387.848C44.1829 387.984 44.2549 388.168 44.2549 388.4C44.2549 388.616 44.1829 388.796 44.0389 388.94C43.9029 389.076 43.7389 389.144 43.5469 389.144ZM48.0232 389.144C47.2472 389.144 46.6432 388.8 46.2112 388.112C45.7792 387.424 45.5632 386.436 45.5632 385.148C45.5632 383.86 45.7792 382.88 46.2112 382.208C46.6432 381.536 47.2472 381.2 48.0232 381.2C48.7912 381.2 49.3912 381.536 49.8232 382.208C50.2552 382.88 50.4712 383.86 50.4712 385.148C50.4712 386.436 50.2552 387.424 49.8232 388.112C49.3912 388.8 48.7912 389.144 48.0232 389.144ZM48.0232 388.352C48.2472 388.352 48.4472 388.292 48.6232 388.172C48.8072 388.044 48.9632 387.852 49.0912 387.596C49.2272 387.332 49.3312 387 49.4032 386.6C49.4752 386.192 49.5112 385.708 49.5112 385.148C49.5112 384.588 49.4752 384.108 49.4032 383.708C49.3312 383.308 49.2272 382.984 49.0912 382.736C48.9632 382.48 48.8072 382.292 48.6232 382.172C48.4472 382.052 48.2472 381.992 48.0232 381.992C47.7992 381.992 47.5952 382.052 47.4112 382.172C47.2272 382.292 47.0672 382.48 46.9312 382.736C46.8032 382.984 46.7032 383.308 46.6312 383.708C46.5592 384.108 46.5232 384.588 46.5232 385.148C46.5232 386.268 46.6592 387.084 46.9312 387.596C47.2112 388.1 47.5752 388.352 48.0232 388.352Z" fill="#7D7E8E"/>
<path d="M39.07 334.144C38.294 334.144 37.69 333.8 37.258 333.112C36.826 332.424 36.61 331.436 36.61 330.148C36.61 328.86 36.826 327.88 37.258 327.208C37.69 326.536 38.294 326.2 39.07 326.2C39.838 326.2 40.438 326.536 40.87 327.208C41.302 327.88 41.518 328.86 41.518 330.148C41.518 331.436 41.302 332.424 40.87 333.112C40.438 333.8 39.838 334.144 39.07 334.144ZM39.07 333.352C39.294 333.352 39.494 333.292 39.67 333.172C39.854 333.044 40.01 332.852 40.138 332.596C40.274 332.332 40.378 332 40.45 331.6C40.522 331.192 40.558 330.708 40.558 330.148C40.558 329.588 40.522 329.108 40.45 328.708C40.378 328.308 40.274 327.984 40.138 327.736C40.01 327.48 39.854 327.292 39.67 327.172C39.494 327.052 39.294 326.992 39.07 326.992C38.846 326.992 38.642 327.052 38.458 327.172C38.274 327.292 38.114 327.48 37.978 327.736C37.85 327.984 37.75 328.308 37.678 328.708C37.606 329.108 37.57 329.588 37.57 330.148C37.57 331.268 37.706 332.084 37.978 332.596C38.258 333.1 38.622 333.352 39.07 333.352ZM43.5469 334.144C43.3469 334.144 43.1749 334.076 43.0309 333.94C42.8949 333.796 42.8269 333.616 42.8269 333.4C42.8269 333.168 42.8949 332.984 43.0309 332.848C43.1749 332.704 43.3469 332.632 43.5469 332.632C43.7389 332.632 43.9029 332.704 44.0389 332.848C44.1829 332.984 44.2549 333.168 44.2549 333.4C44.2549 333.616 44.1829 333.796 44.0389 333.94C43.9029 334.076 43.7389 334.144 43.5469 334.144ZM45.9832 334V333.184H47.7352V327.544H46.3432V326.908C46.6952 326.844 46.9992 326.768 47.2552 326.68C47.5192 326.584 47.7552 326.472 47.9632 326.344H48.7192V333.184H50.3032V334H45.9832Z" fill="#7D7E8E"/>
<path d="M39.07 279.144C38.294 279.144 37.69 278.8 37.258 278.112C36.826 277.424 36.61 276.436 36.61 275.148C36.61 273.86 36.826 272.88 37.258 272.208C37.69 271.536 38.294 271.2 39.07 271.2C39.838 271.2 40.438 271.536 40.87 272.208C41.302 272.88 41.518 273.86 41.518 275.148C41.518 276.436 41.302 277.424 40.87 278.112C40.438 278.8 39.838 279.144 39.07 279.144ZM39.07 278.352C39.294 278.352 39.494 278.292 39.67 278.172C39.854 278.044 40.01 277.852 40.138 277.596C40.274 277.332 40.378 277 40.45 276.6C40.522 276.192 40.558 275.708 40.558 275.148C40.558 274.588 40.522 274.108 40.45 273.708C40.378 273.308 40.274 272.984 40.138 272.736C40.01 272.48 39.854 272.292 39.67 272.172C39.494 272.052 39.294 271.992 39.07 271.992C38.846 271.992 38.642 272.052 38.458 272.172C38.274 272.292 38.114 272.48 37.978 272.736C37.85 272.984 37.75 273.308 37.678 273.708C37.606 274.108 37.57 274.588 37.57 275.148C37.57 276.268 37.706 277.084 37.978 277.596C38.258 278.1 38.622 278.352 39.07 278.352ZM43.5469 279.144C43.3469 279.144 43.1749 279.076 43.0309 278.94C42.8949 278.796 42.8269 278.616 42.8269 278.4C42.8269 278.168 42.8949 277.984 43.0309 277.848C43.1749 277.704 43.3469 277.632 43.5469 277.632C43.7389 277.632 43.9029 277.704 44.0389 277.848C44.1829 277.984 44.2549 278.168 44.2549 278.4C44.2549 278.616 44.1829 278.796 44.0389 278.94C43.9029 279.076 43.7389 279.144 43.5469 279.144ZM45.5152 279V278.412C46.0912 277.836 46.6032 277.316 47.0512 276.852C47.4992 276.388 47.8752 275.96 48.1792 275.568C48.4832 275.168 48.7152 274.804 48.8752 274.476C49.0352 274.14 49.1152 273.816 49.1152 273.504C49.1152 273.064 48.9952 272.704 48.7552 272.424C48.5152 272.144 48.1512 272.004 47.6632 272.004C47.3432 272.004 47.0472 272.096 46.7752 272.28C46.5032 272.456 46.2552 272.672 46.0312 272.928L45.4672 272.364C45.7872 272.012 46.1272 271.732 46.4872 271.524C46.8472 271.308 47.2792 271.2 47.7832 271.2C48.4952 271.2 49.0552 271.408 49.4632 271.824C49.8712 272.232 50.0752 272.776 50.0752 273.456C50.0752 273.816 49.9952 274.18 49.8352 274.548C49.6832 274.908 49.4672 275.284 49.1872 275.676C48.9152 276.06 48.5872 276.464 48.2032 276.888C47.8272 277.304 47.4112 277.748 46.9552 278.22C47.1632 278.204 47.3792 278.188 47.6032 278.172C47.8272 278.156 48.0392 278.148 48.2392 278.148H50.4592V279H45.5152Z" fill="#7D7E8E"/>
<path d="M39.07 224.144C38.294 224.144 37.69 223.8 37.258 223.112C36.826 222.424 36.61 221.436 36.61 220.148C36.61 218.86 36.826 217.88 37.258 217.208C37.69 216.536 38.294 216.2 39.07 216.2C39.838 216.2 40.438 216.536 40.87 217.208C41.302 217.88 41.518 218.86 41.518 220.148C41.518 221.436 41.302 222.424 40.87 223.112C40.438 223.8 39.838 224.144 39.07 224.144ZM39.07 223.352C39.294 223.352 39.494 223.292 39.67 223.172C39.854 223.044 40.01 222.852 40.138 222.596C40.274 222.332 40.378 222 40.45 221.6C40.522 221.192 40.558 220.708 40.558 220.148C40.558 219.588 40.522 219.108 40.45 218.708C40.378 218.308 40.274 217.984 40.138 217.736C40.01 217.48 39.854 217.292 39.67 217.172C39.494 217.052 39.294 216.992 39.07 216.992C38.846 216.992 38.642 217.052 38.458 217.172C38.274 217.292 38.114 217.48 37.978 217.736C37.85 217.984 37.75 218.308 37.678 218.708C37.606 219.108 37.57 219.588 37.57 220.148C37.57 221.268 37.706 222.084 37.978 222.596C38.258 223.1 38.622 223.352 39.07 223.352ZM43.5469 224.144C43.3469 224.144 43.1749 224.076 43.0309 223.94C42.8949 223.796 42.8269 223.616 42.8269 223.4C42.8269 223.168 42.8949 222.984 43.0309 222.848C43.1749 222.704 43.3469 222.632 43.5469 222.632C43.7389 222.632 43.9029 222.704 44.0389 222.848C44.1829 222.984 44.2549 223.168 44.2549 223.4C44.2549 223.616 44.1829 223.796 44.0389 223.94C43.9029 224.076 43.7389 224.144 43.5469 224.144ZM47.8672 224.144C47.5632 224.144 47.2832 224.112 47.0272 224.048C46.7792 223.992 46.5512 223.916 46.3432 223.82C46.1352 223.716 45.9472 223.6 45.7792 223.472C45.6192 223.344 45.4752 223.208 45.3472 223.064L45.8512 222.416C46.0832 222.656 46.3512 222.868 46.6552 223.052C46.9672 223.236 47.3512 223.328 47.8072 223.328C48.2712 223.328 48.6512 223.204 48.9472 222.956C49.2432 222.7 49.3912 222.356 49.3912 221.924C49.3912 221.7 49.3472 221.496 49.2592 221.312C49.1792 221.12 49.0432 220.956 48.8512 220.82C48.6592 220.684 48.4072 220.58 48.0952 220.508C47.7832 220.436 47.3992 220.4 46.9432 220.4V219.644C47.3512 219.644 47.6912 219.608 47.9632 219.536C48.2432 219.464 48.4672 219.364 48.6352 219.236C48.8112 219.108 48.9352 218.956 49.0072 218.78C49.0792 218.604 49.1152 218.416 49.1152 218.216C49.1152 217.84 48.9952 217.544 48.7552 217.328C48.5232 217.112 48.2032 217.004 47.7952 217.004C47.4752 217.004 47.1792 217.076 46.9072 217.22C46.6432 217.364 46.3952 217.552 46.1632 217.784L45.6352 217.16C45.9312 216.88 46.2552 216.652 46.6072 216.476C46.9672 216.292 47.3752 216.2 47.8312 216.2C48.1672 216.2 48.4752 216.244 48.7552 216.332C49.0352 216.42 49.2752 216.548 49.4752 216.716C49.6832 216.876 49.8432 217.076 49.9552 217.316C50.0672 217.556 50.1232 217.832 50.1232 218.144C50.1232 218.608 49.9952 218.988 49.7392 219.284C49.4832 219.58 49.1472 219.808 48.7312 219.968V220.016C48.9632 220.072 49.1792 220.156 49.3792 220.268C49.5792 220.372 49.7552 220.508 49.9072 220.676C50.0592 220.836 50.1752 221.024 50.2552 221.24C50.3432 221.456 50.3872 221.696 50.3872 221.96C50.3872 222.296 50.3192 222.6 50.1832 222.872C50.0552 223.144 49.8752 223.376 49.6432 223.568C49.4192 223.752 49.1552 223.896 48.8512 224C48.5472 224.096 48.2192 224.144 47.8672 224.144Z" fill="#7D7E8E"/>
<path d="M39.07 169.144C38.294 169.144 37.69 168.8 37.258 168.112C36.826 167.424 36.61 166.436 36.61 165.148C36.61 163.86 36.826 162.88 37.258 162.208C37.69 161.536 38.294 161.2 39.07 161.2C39.838 161.2 40.438 161.536 40.87 162.208C41.302 162.88 41.518 163.86 41.518 165.148C41.518 166.436 41.302 167.424 40.87 168.112C40.438 168.8 39.838 169.144 39.07 169.144ZM39.07 168.352C39.294 168.352 39.494 168.292 39.67 168.172C39.854 168.044 40.01 167.852 40.138 167.596C40.274 167.332 40.378 167 40.45 166.6C40.522 166.192 40.558 165.708 40.558 165.148C40.558 164.588 40.522 164.108 40.45 163.708C40.378 163.308 40.274 162.984 40.138 162.736C40.01 162.48 39.854 162.292 39.67 162.172C39.494 162.052 39.294 161.992 39.07 161.992C38.846 161.992 38.642 162.052 38.458 162.172C38.274 162.292 38.114 162.48 37.978 162.736C37.85 162.984 37.75 163.308 37.678 163.708C37.606 164.108 37.57 164.588 37.57 165.148C37.57 166.268 37.706 167.084 37.978 167.596C38.258 168.1 38.622 168.352 39.07 168.352ZM43.5469 169.144C43.3469 169.144 43.1749 169.076 43.0309 168.94C42.8949 168.796 42.8269 168.616 42.8269 168.4C42.8269 168.168 42.8949 167.984 43.0309 167.848C43.1749 167.704 43.3469 167.632 43.5469 167.632C43.7389 167.632 43.9029 167.704 44.0389 167.848C44.1829 167.984 44.2549 168.168 44.2549 168.4C44.2549 168.616 44.1829 168.796 44.0389 168.94C43.9029 169.076 43.7389 169.144 43.5469 169.144ZM48.6832 169V166.888H45.2392V166.24L48.5152 161.344H49.6192V166.096H50.6632V166.888H49.6192V169H48.6832ZM46.2832 166.096H48.6832V163.876C48.6832 163.668 48.6872 163.424 48.6952 163.144C48.7112 162.856 48.7272 162.608 48.7432 162.4H48.6952C48.5992 162.584 48.4992 162.764 48.3952 162.94C48.2912 163.116 48.1832 163.296 48.0712 163.48L46.2832 166.096Z" fill="#7D7E8E"/>
<path d="M520.047 93.144C519.271 93.144 518.667 92.8 518.235 92.112C517.803 91.424 517.587 90.436 517.587 89.148C517.587 87.86 517.803 86.88 518.235 86.208C518.667 85.536 519.271 85.2 520.047 85.2C520.815 85.2 521.415 85.536 521.847 86.208C522.279 86.88 522.495 87.86 522.495 89.148C522.495 90.436 522.279 91.424 521.847 92.112C521.415 92.8 520.815 93.144 520.047 93.144ZM520.047 92.352C520.271 92.352 520.471 92.292 520.647 92.172C520.831 92.044 520.987 91.852 521.115 91.596C521.251 91.332 521.355 91 521.427 90.6C521.499 90.192 521.535 89.708 521.535 89.148C521.535 88.588 521.499 88.108 521.427 87.708C521.355 87.308 521.251 86.984 521.115 86.736C520.987 86.48 520.831 86.292 520.647 86.172C520.471 86.052 520.271 85.992 520.047 85.992C519.823 85.992 519.619 86.052 519.435 86.172C519.251 86.292 519.091 86.48 518.955 86.736C518.827 86.984 518.727 87.308 518.655 87.708C518.583 88.108 518.547 88.588 518.547 89.148C518.547 90.268 518.683 91.084 518.955 91.596C519.235 92.1 519.599 92.352 520.047 92.352ZM524.523 93.144C524.323 93.144 524.151 93.076 524.007 92.94C523.871 92.796 523.803 92.616 523.803 92.4C523.803 92.168 523.871 91.984 524.007 91.848C524.151 91.704 524.323 91.632 524.523 91.632C524.715 91.632 524.879 91.704 525.015 91.848C525.159 91.984 525.231 92.168 525.231 92.4C525.231 92.616 525.159 92.796 525.015 92.94C524.879 93.076 524.715 93.144 524.523 93.144ZM529.66 93V90.888H526.216V90.24L529.492 85.344H530.596V90.096H531.64V90.888H530.596V93H529.66ZM527.26 90.096H529.66V87.876C529.66 87.668 529.664 87.424 529.672 87.144C529.688 86.856 529.704 86.608 529.72 86.4H529.672C529.576 86.584 529.476 86.764 529.372 86.94C529.268 87.116 529.16 87.296 529.048 87.48L527.26 90.096ZM534.965 93.144C534.189 93.144 533.585 92.8 533.153 92.112C532.721 91.424 532.505 90.436 532.505 89.148C532.505 87.86 532.721 86.88 533.153 86.208C533.585 85.536 534.189 85.2 534.965 85.2C535.733 85.2 536.333 85.536 536.765 86.208C537.197 86.88 537.413 87.86 537.413 89.148C537.413 90.436 537.197 91.424 536.765 92.112C536.333 92.8 535.733 93.144 534.965 93.144ZM534.965 92.352C535.189 92.352 535.389 92.292 535.565 92.172C535.749 92.044 535.905 91.852 536.033 91.596C536.169 91.332 536.273 91 536.345 90.6C536.417 90.192 536.453 89.708 536.453 89.148C536.453 88.588 536.417 88.108 536.345 87.708C536.273 87.308 536.169 86.984 536.033 86.736C535.905 86.48 535.749 86.292 535.565 86.172C535.389 86.052 535.189 85.992 534.965 85.992C534.741 85.992 534.537 86.052 534.353 86.172C534.169 86.292 534.009 86.48 533.873 86.736C533.745 86.984 533.645 87.308 533.573 87.708C533.501 88.108 533.465 88.588 533.465 89.148C533.465 90.268 533.601 91.084 533.873 91.596C534.153 92.1 534.517 92.352 534.965 92.352Z" fill="#7D7E8E"/>
<line x1="60.5" y1="163" x2="60.5" y2="385" stroke="#D9DCE0"/>
<g clip-path="url(#clip0_51_950)">
<path d="M195.5 189.5C152.5 189.5 161 332.5 82 384H495.5C479.9 381.132 325 366.5 290 349C258.5 325.433 256.321 303.012 249 274.5C239.5 237.5 238.5 189.5 195.5 189.5Z" fill="url(#paint0_linear_51_950)"/>
<path d="M276.505 267.742C203.01 267.742 217.382 353.217 82 384H501C435 361.5 422 345 400.5 327.5C379 310 350 267.742 276.505 267.742Z" fill="url(#paint1_linear_51_950)"/>
</g>
<circle cx="438" cy="180" r="4" fill="#9D60FB"/>
<circle cx="438" cy="204" r="4" fill="#2F72FE"/>
<defs>
<linearGradient id="paint0_linear_51_950" x1="204.25" y1="188.259" x2="204.25" y2="384" gradientUnits="userSpaceOnUse">
<stop stop-color="#9D60FB" stop-opacity="0.7"/>
<stop offset="0.46875" stop-color="#9D60FB" stop-opacity="0.2"/>
<stop offset="0.734375" stop-color="#9D60FB" stop-opacity="0.18"/>
<stop offset="1" stop-color="#9D60FB" stop-opacity="0"/>
</linearGradient>
<linearGradient id="paint1_linear_51_950" x1="291.5" y1="267.742" x2="291.5" y2="384" gradientUnits="userSpaceOnUse">
<stop stop-color="#2F72FE" stop-opacity="0.7"/>
<stop offset="0.46875" stop-color="#2F72FE" stop-opacity="0.2"/>
<stop offset="0.734375" stop-color="#2F72FE" stop-opacity="0.18"/>
<stop offset="1" stop-color="#2F72FE" stop-opacity="0"/>
</linearGradient>
<clipPath id="clip0_51_950">
<rect width="423" height="199" fill="white" transform="translate(80 185)"/>
</clipPath>
</defs>
</svg>
