<svg width="274" height="333" viewBox="0 0 274 333" fill="none" xmlns="http://www.w3.org/2000/svg">
<path d="M0.5 15.5001C43.5 9.33345 126 31.5001 164 55.5001C202 79.5001 117.5 83.5001 106.5 55.5001C95.5 27.5001 155.5 -1.49989 190 1.50011C224.5 4.50011 290.5 42.5001 268 147.5C248.115 240.296 171.5 288.5 125 307" stroke="#CCACFF" stroke-width="1.5" stroke-dasharray="5 5"/>
<path d="M123.574 297.687L120.298 305.83L91 327.243L123.574 297.687Z" fill="#C49EFF"/>
<path d="M120.298 305.83L123.313 314.038L91.4412 326.933L120.298 305.83Z" fill="#9D61FB"/>
<path d="M123.4 314.092L116.903 313.118L101.625 322.899L123.4 314.092Z" fill="#404143"/>
<path d="M116.885 313.114L113.26 322.029L91 327.243L116.885 313.114Z" fill="#C49EFF"/>
</svg>
