<svg width="490" height="364" viewBox="0 0 490 364" fill="none" xmlns="http://www.w3.org/2000/svg">
<rect width="490" height="52" fill="white"/>
<rect y="50" width="490" height="2" fill="#303245"/>
<rect y="52" width="490" height="52" fill="#F2F3F5"/>
<rect y="104" width="490" height="52" fill="white"/>
<rect y="156" width="490" height="52" fill="#F2F3F5"/>
<rect y="208" width="490" height="52" fill="white"/>
<rect y="260" width="490" height="52" fill="#F2F3F5"/>
<rect y="312" width="490" height="52" fill="white"/>
<rect y="52" width="132" height="312" fill="#EEF1F4"/>
<path d="M27.4307 27.3154L29.3926 27.9375C29.0918 29.0312 28.5905 29.8447 27.8887 30.3779C27.1914 30.9066 26.305 31.1709 25.2295 31.1709C23.8988 31.1709 22.805 30.7174 21.9482 29.8105C21.0915 28.8991 20.6631 27.6549 20.6631 26.0781C20.6631 24.4102 21.0938 23.1159 21.9551 22.1953C22.8164 21.2702 23.9489 20.8076 25.3525 20.8076C26.5785 20.8076 27.5742 21.1699 28.3398 21.8945C28.7956 22.3229 29.1374 22.9382 29.3652 23.7402L27.3623 24.2188C27.2438 23.6992 26.9954 23.2891 26.6172 22.9883C26.2435 22.6875 25.7878 22.5371 25.25 22.5371C24.5072 22.5371 23.9033 22.8037 23.4385 23.3369C22.9782 23.8701 22.748 24.7337 22.748 25.9277C22.748 27.1947 22.9759 28.097 23.4316 28.6348C23.8874 29.1725 24.4798 29.4414 25.209 29.4414C25.7467 29.4414 26.2093 29.2705 26.5967 28.9287C26.984 28.5869 27.262 28.0492 27.4307 27.3154ZM30.6777 27.2676C30.6777 26.6296 30.835 26.012 31.1494 25.415C31.4639 24.818 31.9082 24.3623 32.4824 24.0479C33.0612 23.7334 33.7061 23.5762 34.417 23.5762C35.5153 23.5762 36.4154 23.9339 37.1172 24.6494C37.819 25.3604 38.1699 26.2604 38.1699 27.3496C38.1699 28.4479 37.8145 29.3594 37.1035 30.084C36.3971 30.804 35.5062 31.1641 34.4307 31.1641C33.7653 31.1641 33.1296 31.0137 32.5234 30.7129C31.9219 30.4121 31.4639 29.9723 31.1494 29.3936C30.835 28.8102 30.6777 28.1016 30.6777 27.2676ZM32.6465 27.3701C32.6465 28.0902 32.8174 28.6416 33.1592 29.0244C33.501 29.4072 33.9225 29.5986 34.4238 29.5986C34.9251 29.5986 35.3444 29.4072 35.6816 29.0244C36.0234 28.6416 36.1943 28.0856 36.1943 27.3564C36.1943 26.6455 36.0234 26.0986 35.6816 25.7158C35.3444 25.333 34.9251 25.1416 34.4238 25.1416C33.9225 25.1416 33.501 25.333 33.1592 25.7158C32.8174 26.0986 32.6465 26.6501 32.6465 27.3701ZM39.6807 31V20.9785H41.6016V31H39.6807ZM48.3555 31V29.9131C48.0911 30.3005 47.7425 30.6058 47.3096 30.8291C46.8812 31.0524 46.4277 31.1641 45.9492 31.1641C45.4616 31.1641 45.0241 31.057 44.6367 30.8428C44.2493 30.6286 43.9691 30.3278 43.7959 29.9404C43.6227 29.5531 43.5361 29.0176 43.5361 28.334V23.7402H45.457V27.0762C45.457 28.097 45.4912 28.7236 45.5596 28.9561C45.6325 29.1839 45.7624 29.3662 45.9492 29.5029C46.1361 29.6351 46.373 29.7012 46.6602 29.7012C46.9883 29.7012 47.2822 29.6123 47.542 29.4346C47.8018 29.2523 47.9795 29.029 48.0752 28.7646C48.1709 28.4958 48.2188 27.8418 48.2188 26.8027V23.7402H50.1396V31H48.3555ZM51.9922 23.7402H53.7627V24.7314C54.3962 23.9613 55.1504 23.5762 56.0254 23.5762C56.4902 23.5762 56.8936 23.6719 57.2354 23.8633C57.5771 24.0547 57.8574 24.3441 58.0762 24.7314C58.3952 24.3441 58.7393 24.0547 59.1084 23.8633C59.4775 23.6719 59.8717 23.5762 60.291 23.5762C60.8242 23.5762 61.2754 23.6855 61.6445 23.9043C62.0137 24.1185 62.2894 24.4352 62.4717 24.8545C62.6038 25.1644 62.6699 25.6657 62.6699 26.3584V31H60.749V26.8506C60.749 26.1305 60.6829 25.6657 60.5508 25.4561C60.373 25.1826 60.0996 25.0459 59.7305 25.0459C59.4616 25.0459 59.2087 25.1279 58.9717 25.292C58.7347 25.4561 58.5638 25.6976 58.459 26.0166C58.3542 26.3311 58.3018 26.8301 58.3018 27.5137V31H56.3809V27.0215C56.3809 26.3151 56.3467 25.8594 56.2783 25.6543C56.21 25.4492 56.1029 25.2965 55.957 25.1963C55.8158 25.096 55.6221 25.0459 55.376 25.0459C55.0798 25.0459 54.8132 25.1257 54.5762 25.2852C54.3392 25.4447 54.1683 25.6748 54.0635 25.9756C53.9632 26.2764 53.9131 26.7754 53.9131 27.4727V31H51.9922V23.7402ZM71.1943 31H69.2734V27.2949C69.2734 26.5111 69.2324 26.0052 69.1504 25.7773C69.0684 25.5449 68.9339 25.3649 68.7471 25.2373C68.5648 25.1097 68.3438 25.0459 68.084 25.0459C67.7513 25.0459 67.4528 25.137 67.1885 25.3193C66.9242 25.5016 66.7419 25.7432 66.6416 26.0439C66.5459 26.3447 66.498 26.9007 66.498 27.7119V31H64.5771V23.7402H66.3613V24.8066C66.9948 23.9863 67.7923 23.5762 68.7539 23.5762C69.1777 23.5762 69.5651 23.6536 69.916 23.8086C70.2669 23.959 70.5312 24.1527 70.709 24.3896C70.8913 24.6266 71.0166 24.8955 71.085 25.1963C71.1579 25.4971 71.1943 25.9277 71.1943 26.4883V31ZM77.0801 31V20.9785H79.0488L83.1504 27.6709V20.9785H85.0303V31H83L78.96 24.4648V31H77.0801ZM88.5986 25.9551L86.8555 25.6406C87.0514 24.9388 87.3887 24.4193 87.8672 24.082C88.3457 23.7448 89.0566 23.5762 90 23.5762C90.8568 23.5762 91.4948 23.6787 91.9141 23.8838C92.3333 24.0843 92.6273 24.3418 92.7959 24.6562C92.9691 24.9661 93.0557 25.5381 93.0557 26.3721L93.0352 28.6143C93.0352 29.2523 93.0648 29.724 93.124 30.0293C93.1878 30.3301 93.304 30.6536 93.4727 31H91.5723C91.5221 30.8724 91.4606 30.6833 91.3877 30.4326C91.3558 30.3187 91.333 30.2435 91.3193 30.207C90.9912 30.526 90.6403 30.7653 90.2666 30.9248C89.8929 31.0843 89.4941 31.1641 89.0703 31.1641C88.3229 31.1641 87.7327 30.9613 87.2998 30.5557C86.8714 30.1501 86.6572 29.6374 86.6572 29.0176C86.6572 28.6074 86.7552 28.2428 86.9512 27.9238C87.1471 27.6003 87.4206 27.3542 87.7715 27.1855C88.127 27.0124 88.6374 26.862 89.3027 26.7344C90.2005 26.5658 90.8226 26.4085 91.1689 26.2627V26.0713C91.1689 25.7021 91.0778 25.4401 90.8955 25.2852C90.7132 25.1257 90.3691 25.0459 89.8633 25.0459C89.5215 25.0459 89.2549 25.1143 89.0635 25.251C88.8721 25.3831 88.7171 25.6178 88.5986 25.9551ZM91.1689 27.5137C90.9229 27.5957 90.5332 27.6937 90 27.8076C89.4668 27.9215 89.1182 28.0332 88.9541 28.1426C88.7035 28.3203 88.5781 28.5459 88.5781 28.8193C88.5781 29.0882 88.6784 29.3206 88.8789 29.5166C89.0794 29.7126 89.3346 29.8105 89.6445 29.8105C89.9909 29.8105 90.3213 29.6966 90.6357 29.4688C90.8682 29.2956 91.0208 29.0837 91.0938 28.833C91.1439 28.6689 91.1689 28.3568 91.1689 27.8965V27.5137ZM94.8125 23.7402H96.583V24.7314C97.2165 23.9613 97.9707 23.5762 98.8457 23.5762C99.3105 23.5762 99.7139 23.6719 100.056 23.8633C100.397 24.0547 100.678 24.3441 100.896 24.7314C101.215 24.3441 101.56 24.0547 101.929 23.8633C102.298 23.6719 102.692 23.5762 103.111 23.5762C103.645 23.5762 104.096 23.6855 104.465 23.9043C104.834 24.1185 105.11 24.4352 105.292 24.8545C105.424 25.1644 105.49 25.6657 105.49 26.3584V31H103.569V26.8506C103.569 26.1305 103.503 25.6657 103.371 25.4561C103.193 25.1826 102.92 25.0459 102.551 25.0459C102.282 25.0459 102.029 25.1279 101.792 25.292C101.555 25.4561 101.384 25.6976 101.279 26.0166C101.174 26.3311 101.122 26.8301 101.122 27.5137V31H99.2012V27.0215C99.2012 26.3151 99.167 25.8594 99.0986 25.6543C99.0303 25.4492 98.9232 25.2965 98.7773 25.1963C98.6361 25.096 98.4424 25.0459 98.1963 25.0459C97.9001 25.0459 97.6335 25.1257 97.3965 25.2852C97.1595 25.4447 96.9886 25.6748 96.8838 25.9756C96.7835 26.2764 96.7334 26.7754 96.7334 27.4727V31H94.8125V23.7402ZM111.615 28.6895L113.529 29.0107C113.283 29.7126 112.894 30.248 112.36 30.6172C111.832 30.9818 111.169 31.1641 110.371 31.1641C109.109 31.1641 108.174 30.7516 107.568 29.9268C107.09 29.266 106.851 28.432 106.851 27.4248C106.851 26.2217 107.165 25.2806 107.794 24.6016C108.423 23.918 109.218 23.5762 110.18 23.5762C111.26 23.5762 112.112 23.9339 112.736 24.6494C113.361 25.3604 113.659 26.4518 113.632 27.9238H108.819C108.833 28.4935 108.988 28.9378 109.284 29.2568C109.58 29.5713 109.95 29.7285 110.392 29.7285C110.692 29.7285 110.945 29.6465 111.15 29.4824C111.355 29.3184 111.51 29.054 111.615 28.6895ZM111.725 26.748C111.711 26.1921 111.567 25.7705 111.294 25.4834C111.021 25.1917 110.688 25.0459 110.296 25.0459C109.877 25.0459 109.53 25.1986 109.257 25.5039C108.983 25.8092 108.849 26.224 108.854 26.748H111.725Z" fill="#303245"/>
<path d="M59.335 206.887L57.4414 207.229C57.3776 206.85 57.2318 206.565 57.0039 206.374C56.7806 206.183 56.4889 206.087 56.1289 206.087C55.6504 206.087 55.2676 206.253 54.9805 206.586C54.6979 206.914 54.5566 207.465 54.5566 208.24C54.5566 209.102 54.7002 209.71 54.9873 210.065C55.279 210.421 55.6686 210.599 56.1562 210.599C56.5208 210.599 56.8193 210.496 57.0518 210.291C57.2842 210.081 57.4482 209.724 57.5439 209.218L59.4307 209.539C59.2347 210.405 58.8587 211.059 58.3027 211.501C57.7467 211.943 57.0016 212.164 56.0674 212.164C55.0055 212.164 54.1579 211.829 53.5244 211.159C52.8955 210.489 52.5811 209.562 52.5811 208.377C52.5811 207.178 52.8978 206.246 53.5312 205.581C54.1647 204.911 55.0215 204.576 56.1016 204.576C56.9857 204.576 57.6875 204.768 58.207 205.15C58.7311 205.529 59.1071 206.107 59.335 206.887ZM60.3535 208.268C60.3535 207.63 60.5107 207.012 60.8252 206.415C61.1396 205.818 61.584 205.362 62.1582 205.048C62.737 204.733 63.3818 204.576 64.0928 204.576C65.1911 204.576 66.0911 204.934 66.793 205.649C67.4948 206.36 67.8457 207.26 67.8457 208.35C67.8457 209.448 67.4902 210.359 66.7793 211.084C66.0729 211.804 65.182 212.164 64.1064 212.164C63.4411 212.164 62.8053 212.014 62.1992 211.713C61.5977 211.412 61.1396 210.972 60.8252 210.394C60.5107 209.81 60.3535 209.102 60.3535 208.268ZM62.3223 208.37C62.3223 209.09 62.4932 209.642 62.835 210.024C63.1768 210.407 63.5983 210.599 64.0996 210.599C64.6009 210.599 65.0202 210.407 65.3574 210.024C65.6992 209.642 65.8701 209.086 65.8701 208.356C65.8701 207.646 65.6992 207.099 65.3574 206.716C65.0202 206.333 64.6009 206.142 64.0996 206.142C63.5983 206.142 63.1768 206.333 62.835 206.716C62.4932 207.099 62.3223 207.65 62.3223 208.37ZM69.3564 212V201.979H71.2773V212H69.3564ZM77.7578 212H75.8369V204.761C75.1351 205.417 74.3079 205.902 73.3555 206.217V204.474C73.8568 204.31 74.4014 204 74.9893 203.544C75.5771 203.084 75.9805 202.548 76.1992 201.938H77.7578V212Z" fill="#545770"/>
<path d="M154.025 20.9785H158.031C158.824 20.9785 159.414 21.0127 159.802 21.0811C160.194 21.1449 160.542 21.2816 160.848 21.4912C161.158 21.7008 161.415 21.9811 161.62 22.332C161.825 22.6784 161.928 23.068 161.928 23.501C161.928 23.9704 161.8 24.401 161.545 24.793C161.294 25.1849 160.952 25.4788 160.52 25.6748C161.13 25.8525 161.6 26.1556 161.928 26.584C162.256 27.0124 162.42 27.516 162.42 28.0947C162.42 28.5505 162.313 28.9948 162.099 29.4277C161.889 29.8561 161.6 30.2002 161.23 30.46C160.866 30.7152 160.415 30.8724 159.877 30.9316C159.54 30.9681 158.726 30.9909 157.437 31H154.025V20.9785ZM156.049 22.6465V24.9639H157.375C158.163 24.9639 158.653 24.9525 158.845 24.9297C159.191 24.8887 159.462 24.7702 159.658 24.5742C159.859 24.3737 159.959 24.1117 159.959 23.7881C159.959 23.4782 159.872 23.2275 159.699 23.0361C159.531 22.8402 159.278 22.7217 158.94 22.6807C158.74 22.6579 158.163 22.6465 157.211 22.6465H156.049ZM156.049 26.6318V29.3115H157.922C158.651 29.3115 159.114 29.291 159.31 29.25C159.61 29.1953 159.854 29.0632 160.041 28.8535C160.232 28.6393 160.328 28.3545 160.328 27.999C160.328 27.6982 160.255 27.443 160.109 27.2334C159.964 27.0238 159.752 26.8711 159.474 26.7754C159.2 26.6797 158.603 26.6318 157.683 26.6318H156.049ZM165.558 25.9551L163.814 25.6406C164.01 24.9388 164.348 24.4193 164.826 24.082C165.305 23.7448 166.016 23.5762 166.959 23.5762C167.816 23.5762 168.454 23.6787 168.873 23.8838C169.292 24.0843 169.586 24.3418 169.755 24.6562C169.928 24.9661 170.015 25.5381 170.015 26.3721L169.994 28.6143C169.994 29.2523 170.024 29.724 170.083 30.0293C170.147 30.3301 170.263 30.6536 170.432 31H168.531C168.481 30.8724 168.42 30.6833 168.347 30.4326C168.315 30.3187 168.292 30.2435 168.278 30.207C167.95 30.526 167.599 30.7653 167.226 30.9248C166.852 31.0843 166.453 31.1641 166.029 31.1641C165.282 31.1641 164.692 30.9613 164.259 30.5557C163.83 30.1501 163.616 29.6374 163.616 29.0176C163.616 28.6074 163.714 28.2428 163.91 27.9238C164.106 27.6003 164.38 27.3542 164.73 27.1855C165.086 27.0124 165.596 26.862 166.262 26.7344C167.16 26.5658 167.782 26.4085 168.128 26.2627V26.0713C168.128 25.7021 168.037 25.4401 167.854 25.2852C167.672 25.1257 167.328 25.0459 166.822 25.0459C166.48 25.0459 166.214 25.1143 166.022 25.251C165.831 25.3831 165.676 25.6178 165.558 25.9551ZM168.128 27.5137C167.882 27.5957 167.492 27.6937 166.959 27.8076C166.426 27.9215 166.077 28.0332 165.913 28.1426C165.662 28.3203 165.537 28.5459 165.537 28.8193C165.537 29.0882 165.637 29.3206 165.838 29.5166C166.038 29.7126 166.294 29.8105 166.604 29.8105C166.95 29.8105 167.28 29.6966 167.595 29.4688C167.827 29.2956 167.98 29.0837 168.053 28.833C168.103 28.6689 168.128 28.3568 168.128 27.8965V27.5137ZM171.238 28.9287L173.166 28.6348C173.248 29.0085 173.414 29.2933 173.665 29.4893C173.916 29.6807 174.267 29.7764 174.718 29.7764C175.215 29.7764 175.588 29.6852 175.839 29.5029C176.007 29.3753 176.092 29.2044 176.092 28.9902C176.092 28.8444 176.046 28.7236 175.955 28.6279C175.859 28.5368 175.645 28.4525 175.312 28.375C173.763 28.0332 172.781 27.721 172.366 27.4385C171.792 27.0465 171.505 26.502 171.505 25.8047C171.505 25.1758 171.753 24.6471 172.25 24.2188C172.747 23.7904 173.517 23.5762 174.561 23.5762C175.554 23.5762 176.292 23.738 176.775 24.0615C177.258 24.3851 177.591 24.8636 177.773 25.4971L175.962 25.832C175.884 25.5495 175.736 25.333 175.518 25.1826C175.303 25.0322 174.996 24.957 174.595 24.957C174.089 24.957 173.727 25.0277 173.508 25.1689C173.362 25.2692 173.289 25.3991 173.289 25.5586C173.289 25.6953 173.353 25.8115 173.48 25.9072C173.654 26.0348 174.251 26.2148 175.271 26.4473C176.297 26.6797 177.012 26.9645 177.418 27.3018C177.819 27.6436 178.02 28.1198 178.02 28.7305C178.02 29.3958 177.742 29.9678 177.186 30.4463C176.63 30.9248 175.807 31.1641 174.718 31.1641C173.729 31.1641 172.945 30.9635 172.366 30.5625C171.792 30.1615 171.416 29.6169 171.238 28.9287ZM183.912 28.6895L185.826 29.0107C185.58 29.7126 185.19 30.248 184.657 30.6172C184.129 30.9818 183.465 31.1641 182.668 31.1641C181.406 31.1641 180.471 30.7516 179.865 29.9268C179.387 29.266 179.147 28.432 179.147 27.4248C179.147 26.2217 179.462 25.2806 180.091 24.6016C180.72 23.918 181.515 23.5762 182.477 23.5762C183.557 23.5762 184.409 23.9339 185.033 24.6494C185.658 25.3604 185.956 26.4518 185.929 27.9238H181.116C181.13 28.4935 181.285 28.9378 181.581 29.2568C181.877 29.5713 182.246 29.7285 182.688 29.7285C182.989 29.7285 183.242 29.6465 183.447 29.4824C183.652 29.3184 183.807 29.054 183.912 28.6895ZM184.021 26.748C184.008 26.1921 183.864 25.7705 183.591 25.4834C183.317 25.1917 182.985 25.0459 182.593 25.0459C182.174 25.0459 181.827 25.1986 181.554 25.5039C181.28 25.8092 181.146 26.224 181.15 26.748H184.021ZM191.425 31V20.9785H198.295V22.6738H193.448V25.0459H197.632V26.7412H193.448V31H191.425ZM199.512 27.2676C199.512 26.6296 199.669 26.012 199.983 25.415C200.298 24.818 200.742 24.3623 201.316 24.0479C201.895 23.7334 202.54 23.5762 203.251 23.5762C204.349 23.5762 205.249 23.9339 205.951 24.6494C206.653 25.3604 207.004 26.2604 207.004 27.3496C207.004 28.4479 206.648 29.3594 205.938 30.084C205.231 30.804 204.34 31.1641 203.265 31.1641C202.599 31.1641 201.964 31.0137 201.357 30.7129C200.756 30.4121 200.298 29.9723 199.983 29.3936C199.669 28.8102 199.512 28.1016 199.512 27.2676ZM201.48 27.3701C201.48 28.0902 201.651 28.6416 201.993 29.0244C202.335 29.4072 202.757 29.5986 203.258 29.5986C203.759 29.5986 204.178 29.4072 204.516 29.0244C204.857 28.6416 205.028 28.0856 205.028 27.3564C205.028 26.6455 204.857 26.0986 204.516 25.7158C204.178 25.333 203.759 25.1416 203.258 25.1416C202.757 25.1416 202.335 25.333 201.993 25.7158C201.651 26.0986 201.48 26.6501 201.48 27.3701ZM210.354 31H208.433V23.7402H210.217V24.7725C210.522 24.2848 210.796 23.9635 211.037 23.8086C211.283 23.6536 211.561 23.5762 211.871 23.5762C212.309 23.5762 212.73 23.6969 213.136 23.9385L212.541 25.6133C212.217 25.4036 211.917 25.2988 211.639 25.2988C211.37 25.2988 211.142 25.374 210.955 25.5244C210.768 25.6702 210.62 25.9368 210.511 26.3242C210.406 26.7116 210.354 27.5228 210.354 28.7578V31ZM213.826 23.7402H215.597V24.7314C216.23 23.9613 216.984 23.5762 217.859 23.5762C218.324 23.5762 218.728 23.6719 219.069 23.8633C219.411 24.0547 219.691 24.3441 219.91 24.7314C220.229 24.3441 220.573 24.0547 220.942 23.8633C221.312 23.6719 221.706 23.5762 222.125 23.5762C222.658 23.5762 223.109 23.6855 223.479 23.9043C223.848 24.1185 224.123 24.4352 224.306 24.8545C224.438 25.1644 224.504 25.6657 224.504 26.3584V31H222.583V26.8506C222.583 26.1305 222.517 25.6657 222.385 25.4561C222.207 25.1826 221.934 25.0459 221.564 25.0459C221.296 25.0459 221.043 25.1279 220.806 25.292C220.569 25.4561 220.398 25.6976 220.293 26.0166C220.188 26.3311 220.136 26.8301 220.136 27.5137V31H218.215V27.0215C218.215 26.3151 218.181 25.8594 218.112 25.6543C218.044 25.4492 217.937 25.2965 217.791 25.1963C217.65 25.096 217.456 25.0459 217.21 25.0459C216.914 25.0459 216.647 25.1257 216.41 25.2852C216.173 25.4447 216.002 25.6748 215.897 25.9756C215.797 26.2764 215.747 26.7754 215.747 27.4727V31H213.826V23.7402Z" fill="#303245"/>
<path d="M261.575 31L257.993 20.9785H260.188L262.724 28.3955L265.178 20.9785H267.324L263.735 31H261.575ZM268.999 25.9551L267.256 25.6406C267.452 24.9388 267.789 24.4193 268.268 24.082C268.746 23.7448 269.457 23.5762 270.4 23.5762C271.257 23.5762 271.895 23.6787 272.314 23.8838C272.734 24.0843 273.028 24.3418 273.196 24.6562C273.369 24.9661 273.456 25.5381 273.456 26.3721L273.436 28.6143C273.436 29.2523 273.465 29.724 273.524 30.0293C273.588 30.3301 273.704 30.6536 273.873 31H271.973C271.923 30.8724 271.861 30.6833 271.788 30.4326C271.756 30.3187 271.733 30.2435 271.72 30.207C271.392 30.526 271.041 30.7653 270.667 30.9248C270.293 31.0843 269.895 31.1641 269.471 31.1641C268.723 31.1641 268.133 30.9613 267.7 30.5557C267.272 30.1501 267.058 29.6374 267.058 29.0176C267.058 28.6074 267.156 28.2428 267.352 27.9238C267.548 27.6003 267.821 27.3542 268.172 27.1855C268.527 27.0124 269.038 26.862 269.703 26.7344C270.601 26.5658 271.223 26.4085 271.569 26.2627V26.0713C271.569 25.7021 271.478 25.4401 271.296 25.2852C271.114 25.1257 270.77 25.0459 270.264 25.0459C269.922 25.0459 269.655 25.1143 269.464 25.251C269.272 25.3831 269.118 25.6178 268.999 25.9551ZM271.569 27.5137C271.323 27.5957 270.934 27.6937 270.4 27.8076C269.867 27.9215 269.519 28.0332 269.354 28.1426C269.104 28.3203 268.979 28.5459 268.979 28.8193C268.979 29.0882 269.079 29.3206 269.279 29.5166C269.48 29.7126 269.735 29.8105 270.045 29.8105C270.391 29.8105 270.722 29.6966 271.036 29.4688C271.269 29.2956 271.421 29.0837 271.494 28.833C271.544 28.6689 271.569 28.3568 271.569 27.8965V27.5137ZM275.356 31V20.9785H277.277V31H275.356ZM284.031 31V29.9131C283.767 30.3005 283.418 30.6058 282.985 30.8291C282.557 31.0524 282.104 31.1641 281.625 31.1641C281.137 31.1641 280.7 31.057 280.312 30.8428C279.925 30.6286 279.645 30.3278 279.472 29.9404C279.299 29.5531 279.212 29.0176 279.212 28.334V23.7402H281.133V27.0762C281.133 28.097 281.167 28.7236 281.235 28.9561C281.308 29.1839 281.438 29.3662 281.625 29.5029C281.812 29.6351 282.049 29.7012 282.336 29.7012C282.664 29.7012 282.958 29.6123 283.218 29.4346C283.478 29.2523 283.655 29.029 283.751 28.7646C283.847 28.4958 283.895 27.8418 283.895 26.8027V23.7402H285.815V31H284.031ZM292.016 28.6895L293.93 29.0107C293.684 29.7126 293.294 30.248 292.761 30.6172C292.232 30.9818 291.569 31.1641 290.771 31.1641C289.509 31.1641 288.575 30.7516 287.969 29.9268C287.49 29.266 287.251 28.432 287.251 27.4248C287.251 26.2217 287.565 25.2806 288.194 24.6016C288.823 23.918 289.618 23.5762 290.58 23.5762C291.66 23.5762 292.512 23.9339 293.137 24.6494C293.761 25.3604 294.06 26.4518 294.032 27.9238H289.22C289.233 28.4935 289.388 28.9378 289.685 29.2568C289.981 29.5713 290.35 29.7285 290.792 29.7285C291.093 29.7285 291.346 29.6465 291.551 29.4824C291.756 29.3184 291.911 29.054 292.016 28.6895ZM292.125 26.748C292.111 26.1921 291.968 25.7705 291.694 25.4834C291.421 25.1917 291.088 25.0459 290.696 25.0459C290.277 25.0459 289.931 25.1986 289.657 25.5039C289.384 25.8092 289.249 26.224 289.254 26.748H292.125Z" fill="#303245"/>
<path d="M337.431 27.3154L339.393 27.9375C339.092 29.0312 338.59 29.8447 337.889 30.3779C337.191 30.9066 336.305 31.1709 335.229 31.1709C333.899 31.1709 332.805 30.7174 331.948 29.8105C331.091 28.8991 330.663 27.6549 330.663 26.0781C330.663 24.4102 331.094 23.1159 331.955 22.1953C332.816 21.2702 333.949 20.8076 335.353 20.8076C336.578 20.8076 337.574 21.1699 338.34 21.8945C338.796 22.3229 339.137 22.9382 339.365 23.7402L337.362 24.2188C337.244 23.6992 336.995 23.2891 336.617 22.9883C336.243 22.6875 335.788 22.5371 335.25 22.5371C334.507 22.5371 333.903 22.8037 333.438 23.3369C332.978 23.8701 332.748 24.7337 332.748 25.9277C332.748 27.1947 332.976 28.097 333.432 28.6348C333.887 29.1725 334.48 29.4414 335.209 29.4414C335.747 29.4414 336.209 29.2705 336.597 28.9287C336.984 28.5869 337.262 28.0492 337.431 27.3154ZM340.678 27.2676C340.678 26.6296 340.835 26.012 341.149 25.415C341.464 24.818 341.908 24.3623 342.482 24.0479C343.061 23.7334 343.706 23.5762 344.417 23.5762C345.515 23.5762 346.415 23.9339 347.117 24.6494C347.819 25.3604 348.17 26.2604 348.17 27.3496C348.17 28.4479 347.814 29.3594 347.104 30.084C346.397 30.804 345.506 31.1641 344.431 31.1641C343.765 31.1641 343.13 31.0137 342.523 30.7129C341.922 30.4121 341.464 29.9723 341.149 29.3936C340.835 28.8102 340.678 28.1016 340.678 27.2676ZM342.646 27.3701C342.646 28.0902 342.817 28.6416 343.159 29.0244C343.501 29.4072 343.923 29.5986 344.424 29.5986C344.925 29.5986 345.344 29.4072 345.682 29.0244C346.023 28.6416 346.194 28.0856 346.194 27.3564C346.194 26.6455 346.023 26.0986 345.682 25.7158C345.344 25.333 344.925 25.1416 344.424 25.1416C343.923 25.1416 343.501 25.333 343.159 25.7158C342.817 26.0986 342.646 26.6501 342.646 27.3701ZM354.459 31V29.9131C354.195 30.3005 353.846 30.6058 353.413 30.8291C352.985 31.0524 352.531 31.1641 352.053 31.1641C351.565 31.1641 351.128 31.057 350.74 30.8428C350.353 30.6286 350.073 30.3278 349.899 29.9404C349.726 29.5531 349.64 29.0176 349.64 28.334V23.7402H351.561V27.0762C351.561 28.097 351.595 28.7236 351.663 28.9561C351.736 29.1839 351.866 29.3662 352.053 29.5029C352.24 29.6351 352.477 29.7012 352.764 29.7012C353.092 29.7012 353.386 29.6123 353.646 29.4346C353.905 29.2523 354.083 29.029 354.179 28.7646C354.274 28.4958 354.322 27.8418 354.322 26.8027V23.7402H356.243V31H354.459ZM364.843 31H362.922V27.2949C362.922 26.5111 362.881 26.0052 362.799 25.7773C362.717 25.5449 362.582 25.3649 362.396 25.2373C362.213 25.1097 361.992 25.0459 361.732 25.0459C361.4 25.0459 361.101 25.137 360.837 25.3193C360.573 25.5016 360.39 25.7432 360.29 26.0439C360.194 26.3447 360.146 26.9007 360.146 27.7119V31H358.226V23.7402H360.01V24.8066C360.643 23.9863 361.441 23.5762 362.402 23.5762C362.826 23.5762 363.214 23.6536 363.564 23.8086C363.915 23.959 364.18 24.1527 364.357 24.3896C364.54 24.6266 364.665 24.8955 364.733 25.1963C364.806 25.4971 364.843 25.9277 364.843 26.4883V31ZM370.127 23.7402V25.2715H368.814V28.1973C368.814 28.7897 368.826 29.1361 368.849 29.2363C368.876 29.332 368.933 29.4118 369.02 29.4756C369.111 29.5394 369.22 29.5713 369.348 29.5713C369.525 29.5713 369.783 29.5098 370.12 29.3867L370.284 30.877C369.838 31.0684 369.332 31.1641 368.767 31.1641C368.42 31.1641 368.108 31.1071 367.83 30.9932C367.552 30.8747 367.347 30.7243 367.215 30.542C367.087 30.3551 366.998 30.1045 366.948 29.79C366.907 29.5667 366.887 29.1156 366.887 28.4365V25.2715H366.005V23.7402H366.887V22.2979L368.814 21.1768V23.7402H370.127Z" fill="#303245"/>
<path d="M405.608 23.4531C405.608 22.5553 405.804 21.89 406.196 21.457C406.593 21.0241 407.128 20.8076 407.803 20.8076C408.5 20.8076 409.045 21.0241 409.437 21.457C409.833 21.8854 410.031 22.5508 410.031 23.4531C410.031 24.3509 409.833 25.0163 409.437 25.4492C409.045 25.8822 408.511 26.0986 407.837 26.0986C407.14 26.0986 406.593 25.8844 406.196 25.4561C405.804 25.0231 405.608 24.3555 405.608 23.4531ZM407.105 23.4395C407.105 24.0911 407.181 24.5286 407.331 24.752C407.445 24.916 407.602 24.998 407.803 24.998C408.008 24.998 408.167 24.916 408.281 24.752C408.427 24.5286 408.5 24.0911 408.5 23.4395C408.5 22.7878 408.427 22.3525 408.281 22.1338C408.167 21.9652 408.008 21.8809 407.803 21.8809C407.602 21.8809 407.445 21.9629 407.331 22.127C407.181 22.3503 407.105 22.7878 407.105 23.4395ZM409.266 31.3828H407.844L413.183 20.8076H414.563L409.266 31.3828ZM412.369 28.751C412.369 27.8532 412.565 27.1878 412.957 26.7549C413.354 26.3219 413.894 26.1055 414.577 26.1055C415.265 26.1055 415.805 26.3219 416.197 26.7549C416.594 27.1878 416.792 27.8532 416.792 28.751C416.792 29.6533 416.594 30.321 416.197 30.7539C415.805 31.1868 415.272 31.4033 414.598 31.4033C413.9 31.4033 413.354 31.1868 412.957 30.7539C412.565 30.321 412.369 29.6533 412.369 28.751ZM413.866 28.7441C413.866 29.3958 413.941 29.8311 414.092 30.0498C414.206 30.2184 414.363 30.3027 414.563 30.3027C414.769 30.3027 414.926 30.2207 415.035 30.0566C415.186 29.8333 415.261 29.3958 415.261 28.7441C415.261 28.0924 415.188 27.6549 415.042 27.4316C414.928 27.2676 414.769 27.1855 414.563 27.1855C414.358 27.1855 414.201 27.2676 414.092 27.4316C413.941 27.6549 413.866 28.0924 413.866 28.7441ZM422.356 22.7559V20.9785H424.277V22.7559H422.356ZM422.356 31V23.7402H424.277V31H422.356ZM432.856 31H430.936V27.2949C430.936 26.5111 430.895 26.0052 430.812 25.7773C430.73 25.5449 430.596 25.3649 430.409 25.2373C430.227 25.1097 430.006 25.0459 429.746 25.0459C429.413 25.0459 429.115 25.137 428.851 25.3193C428.586 25.5016 428.404 25.7432 428.304 26.0439C428.208 26.3447 428.16 26.9007 428.16 27.7119V31H426.239V23.7402H428.023V24.8066C428.657 23.9863 429.454 23.5762 430.416 23.5762C430.84 23.5762 431.227 23.6536 431.578 23.8086C431.929 23.959 432.193 24.1527 432.371 24.3896C432.553 24.6266 432.679 24.8955 432.747 25.1963C432.82 25.4971 432.856 25.9277 432.856 26.4883V31ZM438.715 20.9785H442.413C443.247 20.9785 443.883 21.0423 444.32 21.1699C444.908 21.3431 445.412 21.6507 445.831 22.0928C446.25 22.5348 446.569 23.0771 446.788 23.7197C447.007 24.3577 447.116 25.1462 447.116 26.085C447.116 26.9098 447.014 27.6208 446.809 28.2178C446.558 28.9469 446.2 29.5371 445.735 29.9883C445.384 30.3301 444.91 30.5967 444.313 30.7881C443.867 30.9294 443.27 31 442.522 31H438.715V20.9785ZM440.738 22.6738V29.3115H442.249C442.814 29.3115 443.222 29.2796 443.473 29.2158C443.801 29.1338 444.072 28.9948 444.286 28.7988C444.505 28.6029 444.683 28.2816 444.819 27.835C444.956 27.3838 445.024 26.7708 445.024 25.9961C445.024 25.2214 444.956 24.6266 444.819 24.2119C444.683 23.7972 444.491 23.4736 444.245 23.2412C443.999 23.0088 443.687 22.8516 443.309 22.7695C443.026 22.7057 442.472 22.6738 441.647 22.6738H440.738ZM450.261 25.9551L448.518 25.6406C448.714 24.9388 449.051 24.4193 449.529 24.082C450.008 23.7448 450.719 23.5762 451.662 23.5762C452.519 23.5762 453.157 23.6787 453.576 23.8838C453.995 24.0843 454.289 24.3418 454.458 24.6562C454.631 24.9661 454.718 25.5381 454.718 26.3721L454.697 28.6143C454.697 29.2523 454.727 29.724 454.786 30.0293C454.85 30.3301 454.966 30.6536 455.135 31H453.234C453.184 30.8724 453.123 30.6833 453.05 30.4326C453.018 30.3187 452.995 30.2435 452.981 30.207C452.653 30.526 452.302 30.7653 451.929 30.9248C451.555 31.0843 451.156 31.1641 450.732 31.1641C449.985 31.1641 449.395 30.9613 448.962 30.5557C448.534 30.1501 448.319 29.6374 448.319 29.0176C448.319 28.6074 448.417 28.2428 448.613 27.9238C448.809 27.6003 449.083 27.3542 449.434 27.1855C449.789 27.0124 450.299 26.862 450.965 26.7344C451.863 26.5658 452.485 26.4085 452.831 26.2627V26.0713C452.831 25.7021 452.74 25.4401 452.558 25.2852C452.375 25.1257 452.031 25.0459 451.525 25.0459C451.184 25.0459 450.917 25.1143 450.726 25.251C450.534 25.3831 450.379 25.6178 450.261 25.9551ZM452.831 27.5137C452.585 27.5957 452.195 27.6937 451.662 27.8076C451.129 27.9215 450.78 28.0332 450.616 28.1426C450.366 28.3203 450.24 28.5459 450.24 28.8193C450.24 29.0882 450.34 29.3206 450.541 29.5166C450.742 29.7126 450.997 29.8105 451.307 29.8105C451.653 29.8105 451.983 29.6966 452.298 29.4688C452.53 29.2956 452.683 29.0837 452.756 28.833C452.806 28.6689 452.831 28.3568 452.831 27.8965V27.5137ZM459.947 23.7402V25.2715H458.635V28.1973C458.635 28.7897 458.646 29.1361 458.669 29.2363C458.696 29.332 458.753 29.4118 458.84 29.4756C458.931 29.5394 459.04 29.5713 459.168 29.5713C459.346 29.5713 459.603 29.5098 459.94 29.3867L460.104 30.877C459.658 31.0684 459.152 31.1641 458.587 31.1641C458.241 31.1641 457.928 31.1071 457.65 30.9932C457.372 30.8747 457.167 30.7243 457.035 30.542C456.908 30.3551 456.819 30.1045 456.769 29.79C456.728 29.5667 456.707 29.1156 456.707 28.4365V25.2715H455.825V23.7402H456.707V22.2979L458.635 21.1768V23.7402H459.947ZM462.716 25.9551L460.973 25.6406C461.169 24.9388 461.506 24.4193 461.984 24.082C462.463 23.7448 463.174 23.5762 464.117 23.5762C464.974 23.5762 465.612 23.6787 466.031 23.8838C466.451 24.0843 466.744 24.3418 466.913 24.6562C467.086 24.9661 467.173 25.5381 467.173 26.3721L467.152 28.6143C467.152 29.2523 467.182 29.724 467.241 30.0293C467.305 30.3301 467.421 30.6536 467.59 31H465.689C465.639 30.8724 465.578 30.6833 465.505 30.4326C465.473 30.3187 465.45 30.2435 465.437 30.207C465.108 30.526 464.757 30.7653 464.384 30.9248C464.01 31.0843 463.611 31.1641 463.188 31.1641C462.44 31.1641 461.85 30.9613 461.417 30.5557C460.989 30.1501 460.774 29.6374 460.774 29.0176C460.774 28.6074 460.872 28.2428 461.068 27.9238C461.264 27.6003 461.538 27.3542 461.889 27.1855C462.244 27.0124 462.755 26.862 463.42 26.7344C464.318 26.5658 464.94 26.4085 465.286 26.2627V26.0713C465.286 25.7021 465.195 25.4401 465.013 25.2852C464.83 25.1257 464.486 25.0459 463.98 25.0459C463.639 25.0459 463.372 25.1143 463.181 25.251C462.989 25.3831 462.834 25.6178 462.716 25.9551ZM465.286 27.5137C465.04 27.5957 464.65 27.6937 464.117 27.8076C463.584 27.9215 463.235 28.0332 463.071 28.1426C462.821 28.3203 462.695 28.5459 462.695 28.8193C462.695 29.0882 462.796 29.3206 462.996 29.5166C463.197 29.7126 463.452 29.8105 463.762 29.8105C464.108 29.8105 464.438 29.6966 464.753 29.4688C464.985 29.2956 465.138 29.0837 465.211 28.833C465.261 28.6689 465.286 28.3568 465.286 27.8965V27.5137Z" fill="#303245"/>
<path d="M181.812 82H180.027V80.9336C179.731 81.3483 179.38 81.6582 178.975 81.8633C178.574 82.0638 178.168 82.1641 177.758 82.1641C176.924 82.1641 176.208 81.8291 175.611 81.1592C175.019 80.4847 174.723 79.5459 174.723 78.3428C174.723 77.1123 175.012 76.1781 175.591 75.54C176.17 74.8975 176.901 74.5762 177.785 74.5762C178.596 74.5762 179.298 74.9134 179.891 75.5879V71.9785H181.812V82ZM176.685 78.2129C176.685 78.9876 176.792 79.5482 177.006 79.8945C177.316 80.3958 177.749 80.6465 178.305 80.6465C178.747 80.6465 179.123 80.4596 179.433 80.0859C179.743 79.7077 179.897 79.1449 179.897 78.3975C179.897 77.5635 179.747 76.9642 179.446 76.5996C179.146 76.2305 178.76 76.0459 178.291 76.0459C177.835 76.0459 177.452 76.2282 177.143 76.5928C176.837 76.9528 176.685 77.4928 176.685 78.2129ZM187.916 79.6895L189.83 80.0107C189.584 80.7126 189.194 81.248 188.661 81.6172C188.132 81.9818 187.469 82.1641 186.672 82.1641C185.41 82.1641 184.475 81.7516 183.869 80.9268C183.391 80.266 183.151 79.432 183.151 78.4248C183.151 77.2217 183.466 76.2806 184.095 75.6016C184.724 74.918 185.519 74.5762 186.48 74.5762C187.561 74.5762 188.413 74.9339 189.037 75.6494C189.661 76.3604 189.96 77.4518 189.933 78.9238H185.12C185.134 79.4935 185.289 79.9378 185.585 80.2568C185.881 80.5713 186.25 80.7285 186.692 80.7285C186.993 80.7285 187.246 80.6465 187.451 80.4824C187.656 80.3184 187.811 80.054 187.916 79.6895ZM188.025 77.748C188.012 77.1921 187.868 76.7705 187.595 76.4834C187.321 76.1917 186.989 76.0459 186.597 76.0459C186.177 76.0459 185.831 76.1986 185.558 76.5039C185.284 76.8092 185.15 77.224 185.154 77.748H188.025ZM195.709 79.6895L197.623 80.0107C197.377 80.7126 196.987 81.248 196.454 81.6172C195.925 81.9818 195.262 82.1641 194.465 82.1641C193.202 82.1641 192.268 81.7516 191.662 80.9268C191.184 80.266 190.944 79.432 190.944 78.4248C190.944 77.2217 191.259 76.2806 191.888 75.6016C192.517 74.918 193.312 74.5762 194.273 74.5762C195.354 74.5762 196.206 74.9339 196.83 75.6494C197.454 76.3604 197.753 77.4518 197.726 78.9238H192.913C192.927 79.4935 193.082 79.9378 193.378 80.2568C193.674 80.5713 194.043 80.7285 194.485 80.7285C194.786 80.7285 195.039 80.6465 195.244 80.4824C195.449 80.3184 195.604 80.054 195.709 79.6895ZM195.818 77.748C195.805 77.1921 195.661 76.7705 195.388 76.4834C195.114 76.1917 194.782 76.0459 194.39 76.0459C193.97 76.0459 193.624 76.1986 193.351 76.5039C193.077 76.8092 192.943 77.224 192.947 77.748H195.818ZM199.243 74.7402H201.034V75.8066C201.267 75.4421 201.581 75.1458 201.978 74.918C202.374 74.6901 202.814 74.5762 203.297 74.5762C204.14 74.5762 204.855 74.9066 205.443 75.5674C206.031 76.2282 206.325 77.1488 206.325 78.3291C206.325 79.5413 206.029 80.4847 205.437 81.1592C204.844 81.8291 204.126 82.1641 203.283 82.1641C202.882 82.1641 202.518 82.0843 202.189 81.9248C201.866 81.7653 201.524 81.4919 201.164 81.1045V84.7617H199.243V74.7402ZM201.144 78.2471C201.144 79.0628 201.305 79.6667 201.629 80.0586C201.952 80.446 202.347 80.6396 202.812 80.6396C203.258 80.6396 203.63 80.4619 203.926 80.1064C204.222 79.7464 204.37 79.1585 204.37 78.3428C204.37 77.5817 204.217 77.0166 203.912 76.6475C203.607 76.2783 203.229 76.0938 202.777 76.0938C202.308 76.0938 201.918 76.276 201.608 76.6406C201.299 77.0007 201.144 77.5361 201.144 78.2471Z" fill="#545770"/>
<path d="M263.702 82V81.084C263.242 81.804 262.565 82.1641 261.672 82.1641C261.093 82.1641 260.56 82.0046 260.072 81.6855C259.589 81.3665 259.213 80.9222 258.944 80.3525C258.68 79.7783 258.548 79.1198 258.548 78.377C258.548 77.6523 258.669 76.9961 258.91 76.4082C259.152 75.8158 259.514 75.3623 259.997 75.0479C260.48 74.7334 261.02 74.5762 261.617 74.5762C262.055 74.5762 262.444 74.6696 262.786 74.8564C263.128 75.0387 263.406 75.278 263.62 75.5742V71.9785H264.844V82H263.702ZM259.812 78.377C259.812 79.3066 260.008 80.0016 260.4 80.4619C260.792 80.9222 261.255 81.1523 261.788 81.1523C262.326 81.1523 262.782 80.9336 263.155 80.4961C263.534 80.054 263.723 79.3818 263.723 78.4795C263.723 77.486 263.531 76.7568 263.148 76.292C262.766 75.8271 262.294 75.5947 261.733 75.5947C261.187 75.5947 260.729 75.818 260.359 76.2646C259.995 76.7113 259.812 77.4154 259.812 78.377ZM271.755 79.6621L273.026 79.8193C272.826 80.5622 272.454 81.1387 271.912 81.5488C271.37 81.959 270.677 82.1641 269.834 82.1641C268.772 82.1641 267.929 81.8382 267.305 81.1865C266.685 80.5303 266.375 79.612 266.375 78.4316C266.375 77.2103 266.689 76.2624 267.318 75.5879C267.947 74.9134 268.763 74.5762 269.766 74.5762C270.736 74.5762 271.529 74.9066 272.145 75.5674C272.76 76.2282 273.067 77.1579 273.067 78.3564C273.067 78.4294 273.065 78.5387 273.061 78.6846H267.646C267.692 79.4821 267.918 80.0928 268.323 80.5166C268.729 80.9404 269.235 81.1523 269.841 81.1523C270.292 81.1523 270.677 81.0339 270.996 80.7969C271.315 80.5599 271.568 80.1816 271.755 79.6621ZM267.715 77.6729H271.769C271.714 77.0622 271.559 76.6042 271.304 76.2988C270.912 75.8249 270.404 75.5879 269.779 75.5879C269.214 75.5879 268.738 75.777 268.351 76.1553C267.968 76.5335 267.756 77.0394 267.715 77.6729ZM279.548 79.6621L280.819 79.8193C280.619 80.5622 280.247 81.1387 279.705 81.5488C279.163 81.959 278.47 82.1641 277.627 82.1641C276.565 82.1641 275.722 81.8382 275.098 81.1865C274.478 80.5303 274.168 79.612 274.168 78.4316C274.168 77.2103 274.482 76.2624 275.111 75.5879C275.74 74.9134 276.556 74.5762 277.559 74.5762C278.529 74.5762 279.322 74.9066 279.938 75.5674C280.553 76.2282 280.86 77.1579 280.86 78.3564C280.86 78.4294 280.858 78.5387 280.854 78.6846H275.439C275.485 79.4821 275.711 80.0928 276.116 80.5166C276.522 80.9404 277.028 81.1523 277.634 81.1523C278.085 81.1523 278.47 81.0339 278.789 80.7969C279.108 80.5599 279.361 80.1816 279.548 79.6621ZM275.508 77.6729H279.562C279.507 77.0622 279.352 76.6042 279.097 76.2988C278.705 75.8249 278.197 75.5879 277.572 75.5879C277.007 75.5879 276.531 75.777 276.144 76.1553C275.761 76.5335 275.549 77.0394 275.508 77.6729ZM282.371 84.7822V74.7402H283.492V75.6836C283.757 75.3145 284.055 75.0387 284.388 74.8564C284.72 74.6696 285.124 74.5762 285.598 74.5762C286.217 74.5762 286.764 74.7357 287.238 75.0547C287.712 75.3737 288.07 75.8249 288.312 76.4082C288.553 76.987 288.674 77.6227 288.674 78.3154C288.674 79.0583 288.539 79.7282 288.271 80.3252C288.006 80.9176 287.619 81.3734 287.108 81.6924C286.603 82.0068 286.069 82.1641 285.509 82.1641C285.099 82.1641 284.729 82.0775 284.401 81.9043C284.078 81.7311 283.811 81.5124 283.602 81.248V84.7822H282.371ZM283.485 78.4111C283.485 79.3454 283.674 80.0358 284.053 80.4824C284.431 80.929 284.889 81.1523 285.427 81.1523C285.974 81.1523 286.441 80.9222 286.828 80.4619C287.22 79.9971 287.416 79.2793 287.416 78.3086C287.416 77.3835 287.225 76.6908 286.842 76.2305C286.464 75.7702 286.01 75.54 285.481 75.54C284.957 75.54 284.493 75.7861 284.087 76.2783C283.686 76.766 283.485 77.4769 283.485 78.4111ZM290.82 79.5117L290.444 74.2002V71.9785H291.969V74.2002L291.613 79.5117H290.82ZM290.499 82V80.5986H291.914V82H290.499ZM294.717 79.5117L294.341 74.2002V71.9785H295.865V74.2002L295.51 79.5117H294.717ZM294.396 82V80.5986H295.811V82H294.396ZM298.613 79.5117L298.237 74.2002V71.9785H299.762V74.2002L299.406 79.5117H298.613ZM298.292 82V80.5986H299.707V82H298.292Z" fill="#545770"/>
<path d="M371.319 82H370.089V74.1592C369.793 74.4417 369.403 74.7243 368.92 75.0068C368.441 75.2894 368.011 75.5013 367.628 75.6426V74.4531C368.316 74.1296 368.918 73.7376 369.433 73.2773C369.948 72.8171 370.312 72.3704 370.526 71.9375H371.319V82Z" fill="#545770"/>
<path d="M437.485 82H436.255V74.1592C435.959 74.4417 435.569 74.7243 435.086 75.0068C434.607 75.2894 434.177 75.5013 433.794 75.6426V74.4531C434.482 74.1296 435.084 73.7376 435.599 73.2773C436.114 72.8171 436.478 72.3704 436.692 71.9375H437.485V82ZM447.11 80.8174V82H440.486C440.477 81.7038 440.525 81.4189 440.63 81.1455C440.799 80.6943 441.067 80.25 441.437 79.8125C441.81 79.375 442.348 78.8691 443.05 78.2949C444.139 77.4017 444.875 76.6953 445.258 76.1758C445.641 75.6517 445.832 75.1572 445.832 74.6924C445.832 74.2048 445.657 73.7946 445.306 73.4619C444.959 73.1247 444.506 72.9561 443.945 72.9561C443.353 72.9561 442.879 73.1338 442.523 73.4893C442.168 73.8447 441.988 74.3369 441.983 74.9658L440.719 74.8359C440.805 73.8926 441.131 73.1748 441.696 72.6826C442.261 72.1859 443.02 71.9375 443.973 71.9375C444.934 71.9375 445.695 72.2041 446.256 72.7373C446.816 73.2705 447.097 73.9313 447.097 74.7197C447.097 75.1208 447.015 75.515 446.851 75.9023C446.687 76.2897 446.413 76.6976 446.03 77.126C445.652 77.5544 445.021 78.1423 444.137 78.8896C443.398 79.5094 442.924 79.931 442.715 80.1543C442.505 80.373 442.332 80.5941 442.195 80.8174H447.11ZM449.127 82V80.5986H450.528V82H449.127ZM452.333 79.375L453.625 79.2656C453.721 79.8945 453.942 80.3685 454.288 80.6875C454.639 81.002 455.061 81.1592 455.553 81.1592C456.145 81.1592 456.646 80.9359 457.057 80.4893C457.467 80.0426 457.672 79.4502 457.672 78.7119C457.672 78.0101 457.474 77.4564 457.077 77.0508C456.685 76.6452 456.17 76.4424 455.532 76.4424C455.136 76.4424 454.778 76.5335 454.459 76.7158C454.14 76.8936 453.889 77.126 453.707 77.4131L452.552 77.2627L453.522 72.1152H458.506V73.291H454.507L453.967 75.9844C454.568 75.5651 455.2 75.3555 455.86 75.3555C456.735 75.3555 457.474 75.6585 458.075 76.2646C458.677 76.8708 458.978 77.6501 458.978 78.6025C458.978 79.5094 458.713 80.2933 458.185 80.9541C457.542 81.7653 456.665 82.1709 455.553 82.1709C454.641 82.1709 453.896 81.9157 453.317 81.4053C452.743 80.8949 452.415 80.2181 452.333 79.375ZM460.358 74.3848C460.358 73.6693 460.538 73.0609 460.898 72.5596C461.258 72.0583 461.78 71.8076 462.464 71.8076C463.093 71.8076 463.612 72.0332 464.022 72.4844C464.437 72.931 464.645 73.5895 464.645 74.46C464.645 75.3076 464.435 75.9616 464.016 76.4219C463.601 76.8776 463.088 77.1055 462.478 77.1055C461.871 77.1055 461.366 76.8799 460.96 76.4287C460.559 75.9775 460.358 75.2962 460.358 74.3848ZM462.498 72.6553C462.193 72.6553 461.938 72.7874 461.732 73.0518C461.532 73.3161 461.432 73.8014 461.432 74.5078C461.432 75.1504 461.534 75.6038 461.739 75.8682C461.944 76.1279 462.197 76.2578 462.498 76.2578C462.808 76.2578 463.063 76.1257 463.264 75.8613C463.469 75.597 463.571 75.1139 463.571 74.4121C463.571 73.765 463.469 73.3115 463.264 73.0518C463.059 72.7874 462.803 72.6553 462.498 72.6553ZM462.505 82.3691L467.987 71.8076H468.985L463.523 82.3691H462.505ZM466.839 79.6484C466.839 78.9284 467.019 78.32 467.379 77.8232C467.739 77.3219 468.263 77.0713 468.951 77.0713C469.58 77.0713 470.1 77.2969 470.51 77.748C470.924 78.1947 471.132 78.8532 471.132 79.7236C471.132 80.5713 470.922 81.2253 470.503 81.6855C470.088 82.1413 469.573 82.3691 468.958 82.3691C468.352 82.3691 467.846 82.1436 467.44 81.6924C467.039 81.2367 466.839 80.5553 466.839 79.6484ZM468.985 77.9189C468.675 77.9189 468.418 78.0511 468.213 78.3154C468.012 78.5798 467.912 79.0651 467.912 79.7715C467.912 80.4095 468.015 80.8607 468.22 81.125C468.425 81.3893 468.678 81.5215 468.979 81.5215C469.293 81.5215 469.55 81.3893 469.751 81.125C469.956 80.8607 470.059 80.3776 470.059 79.6758C470.059 79.0286 469.956 78.5752 469.751 78.3154C469.546 78.0511 469.291 77.9189 468.985 77.9189Z" fill="#545770"/>
<path d="M181.812 134H180.027V132.934C179.731 133.348 179.38 133.658 178.975 133.863C178.574 134.064 178.168 134.164 177.758 134.164C176.924 134.164 176.208 133.829 175.611 133.159C175.019 132.485 174.723 131.546 174.723 130.343C174.723 129.112 175.012 128.178 175.591 127.54C176.17 126.897 176.901 126.576 177.785 126.576C178.596 126.576 179.298 126.913 179.891 127.588V123.979H181.812V134ZM176.685 130.213C176.685 130.988 176.792 131.548 177.006 131.895C177.316 132.396 177.749 132.646 178.305 132.646C178.747 132.646 179.123 132.46 179.433 132.086C179.743 131.708 179.897 131.145 179.897 130.397C179.897 129.563 179.747 128.964 179.446 128.6C179.146 128.23 178.76 128.046 178.291 128.046C177.835 128.046 177.452 128.228 177.143 128.593C176.837 128.953 176.685 129.493 176.685 130.213ZM187.916 131.689L189.83 132.011C189.584 132.713 189.194 133.248 188.661 133.617C188.132 133.982 187.469 134.164 186.672 134.164C185.41 134.164 184.475 133.752 183.869 132.927C183.391 132.266 183.151 131.432 183.151 130.425C183.151 129.222 183.466 128.281 184.095 127.602C184.724 126.918 185.519 126.576 186.48 126.576C187.561 126.576 188.413 126.934 189.037 127.649C189.661 128.36 189.96 129.452 189.933 130.924H185.12C185.134 131.493 185.289 131.938 185.585 132.257C185.881 132.571 186.25 132.729 186.692 132.729C186.993 132.729 187.246 132.646 187.451 132.482C187.656 132.318 187.811 132.054 187.916 131.689ZM188.025 129.748C188.012 129.192 187.868 128.771 187.595 128.483C187.321 128.192 186.989 128.046 186.597 128.046C186.177 128.046 185.831 128.199 185.558 128.504C185.284 128.809 185.15 129.224 185.154 129.748H188.025ZM195.709 131.689L197.623 132.011C197.377 132.713 196.987 133.248 196.454 133.617C195.925 133.982 195.262 134.164 194.465 134.164C193.202 134.164 192.268 133.752 191.662 132.927C191.184 132.266 190.944 131.432 190.944 130.425C190.944 129.222 191.259 128.281 191.888 127.602C192.517 126.918 193.312 126.576 194.273 126.576C195.354 126.576 196.206 126.934 196.83 127.649C197.454 128.36 197.753 129.452 197.726 130.924H192.913C192.927 131.493 193.082 131.938 193.378 132.257C193.674 132.571 194.043 132.729 194.485 132.729C194.786 132.729 195.039 132.646 195.244 132.482C195.449 132.318 195.604 132.054 195.709 131.689ZM195.818 129.748C195.805 129.192 195.661 128.771 195.388 128.483C195.114 128.192 194.782 128.046 194.39 128.046C193.97 128.046 193.624 128.199 193.351 128.504C193.077 128.809 192.943 129.224 192.947 129.748H195.818ZM199.243 126.74H201.034V127.807C201.267 127.442 201.581 127.146 201.978 126.918C202.374 126.69 202.814 126.576 203.297 126.576C204.14 126.576 204.855 126.907 205.443 127.567C206.031 128.228 206.325 129.149 206.325 130.329C206.325 131.541 206.029 132.485 205.437 133.159C204.844 133.829 204.126 134.164 203.283 134.164C202.882 134.164 202.518 134.084 202.189 133.925C201.866 133.765 201.524 133.492 201.164 133.104V136.762H199.243V126.74ZM201.144 130.247C201.144 131.063 201.305 131.667 201.629 132.059C201.952 132.446 202.347 132.64 202.812 132.64C203.258 132.64 203.63 132.462 203.926 132.106C204.222 131.746 204.37 131.159 204.37 130.343C204.37 129.582 204.217 129.017 203.912 128.647C203.607 128.278 203.229 128.094 202.777 128.094C202.308 128.094 201.918 128.276 201.608 128.641C201.299 129.001 201.144 129.536 201.144 130.247Z" fill="#545770"/>
<path d="M263.332 134V123.979H266.784C267.563 123.979 268.158 124.026 268.568 124.122C269.143 124.254 269.632 124.493 270.038 124.84C270.567 125.286 270.961 125.858 271.221 126.556C271.485 127.248 271.617 128.041 271.617 128.935C271.617 129.696 271.528 130.37 271.351 130.958C271.173 131.546 270.945 132.034 270.667 132.421C270.389 132.804 270.084 133.107 269.751 133.33C269.423 133.549 269.024 133.715 268.555 133.829C268.09 133.943 267.554 134 266.948 134H263.332ZM264.658 132.817H266.798C267.459 132.817 267.976 132.756 268.35 132.633C268.728 132.51 269.029 132.337 269.252 132.113C269.566 131.799 269.81 131.377 269.983 130.849C270.161 130.315 270.25 129.671 270.25 128.914C270.25 127.866 270.077 127.062 269.73 126.501C269.389 125.936 268.972 125.558 268.479 125.366C268.124 125.229 267.552 125.161 266.764 125.161H264.658V132.817ZM278.262 131.662L279.533 131.819C279.333 132.562 278.961 133.139 278.419 133.549C277.877 133.959 277.184 134.164 276.341 134.164C275.279 134.164 274.436 133.838 273.812 133.187C273.192 132.53 272.882 131.612 272.882 130.432C272.882 129.21 273.196 128.262 273.825 127.588C274.454 126.913 275.27 126.576 276.272 126.576C277.243 126.576 278.036 126.907 278.651 127.567C279.267 128.228 279.574 129.158 279.574 130.356C279.574 130.429 279.572 130.539 279.567 130.685H274.153C274.199 131.482 274.424 132.093 274.83 132.517C275.236 132.94 275.742 133.152 276.348 133.152C276.799 133.152 277.184 133.034 277.503 132.797C277.822 132.56 278.075 132.182 278.262 131.662ZM274.222 129.673H278.275C278.221 129.062 278.066 128.604 277.811 128.299C277.419 127.825 276.91 127.588 276.286 127.588C275.721 127.588 275.245 127.777 274.857 128.155C274.475 128.534 274.263 129.039 274.222 129.673ZM286.055 131.662L287.326 131.819C287.126 132.562 286.754 133.139 286.212 133.549C285.67 133.959 284.977 134.164 284.134 134.164C283.072 134.164 282.229 133.838 281.604 133.187C280.985 132.53 280.675 131.612 280.675 130.432C280.675 129.21 280.989 128.262 281.618 127.588C282.247 126.913 283.063 126.576 284.065 126.576C285.036 126.576 285.829 126.907 286.444 127.567C287.06 128.228 287.367 129.158 287.367 130.356C287.367 130.429 287.365 130.539 287.36 130.685H281.946C281.992 131.482 282.217 132.093 282.623 132.517C283.029 132.94 283.535 133.152 284.141 133.152C284.592 133.152 284.977 133.034 285.296 132.797C285.615 132.56 285.868 132.182 286.055 131.662ZM282.015 129.673H286.068C286.014 129.062 285.859 128.604 285.604 128.299C285.212 127.825 284.703 127.588 284.079 127.588C283.514 127.588 283.038 127.777 282.65 128.155C282.268 128.534 282.056 129.039 282.015 129.673ZM288.878 136.782V126.74H289.999V127.684C290.263 127.314 290.562 127.039 290.895 126.856C291.227 126.67 291.631 126.576 292.104 126.576C292.724 126.576 293.271 126.736 293.745 127.055C294.219 127.374 294.577 127.825 294.818 128.408C295.06 128.987 295.181 129.623 295.181 130.315C295.181 131.058 295.046 131.728 294.777 132.325C294.513 132.918 294.126 133.373 293.615 133.692C293.109 134.007 292.576 134.164 292.016 134.164C291.605 134.164 291.236 134.077 290.908 133.904C290.585 133.731 290.318 133.512 290.108 133.248V136.782H288.878ZM289.992 130.411C289.992 131.345 290.181 132.036 290.56 132.482C290.938 132.929 291.396 133.152 291.934 133.152C292.48 133.152 292.948 132.922 293.335 132.462C293.727 131.997 293.923 131.279 293.923 130.309C293.923 129.383 293.731 128.691 293.349 128.23C292.97 127.77 292.517 127.54 291.988 127.54C291.464 127.54 290.999 127.786 290.594 128.278C290.193 128.766 289.992 129.477 289.992 130.411Z" fill="#545770"/>
<path d="M371.319 134H370.089V126.159C369.793 126.442 369.403 126.724 368.92 127.007C368.441 127.289 368.011 127.501 367.628 127.643V126.453C368.316 126.13 368.918 125.738 369.433 125.277C369.948 124.817 370.312 124.37 370.526 123.938H371.319V134Z" fill="#545770"/>
<path d="M437.485 134H436.255V126.159C435.959 126.442 435.569 126.724 435.086 127.007C434.607 127.289 434.177 127.501 433.794 127.643V126.453C434.482 126.13 435.084 125.738 435.599 125.277C436.114 124.817 436.478 124.37 436.692 123.938H437.485V134ZM447.11 132.817V134H440.486C440.477 133.704 440.525 133.419 440.63 133.146C440.799 132.694 441.067 132.25 441.437 131.812C441.81 131.375 442.348 130.869 443.05 130.295C444.139 129.402 444.875 128.695 445.258 128.176C445.641 127.652 445.832 127.157 445.832 126.692C445.832 126.205 445.657 125.795 445.306 125.462C444.959 125.125 444.506 124.956 443.945 124.956C443.353 124.956 442.879 125.134 442.523 125.489C442.168 125.845 441.988 126.337 441.983 126.966L440.719 126.836C440.805 125.893 441.131 125.175 441.696 124.683C442.261 124.186 443.02 123.938 443.973 123.938C444.934 123.938 445.695 124.204 446.256 124.737C446.816 125.271 447.097 125.931 447.097 126.72C447.097 127.121 447.015 127.515 446.851 127.902C446.687 128.29 446.413 128.698 446.03 129.126C445.652 129.554 445.021 130.142 444.137 130.89C443.398 131.509 442.924 131.931 442.715 132.154C442.505 132.373 442.332 132.594 442.195 132.817H447.11ZM449.127 134V132.599H450.528V134H449.127ZM452.333 131.375L453.625 131.266C453.721 131.895 453.942 132.368 454.288 132.688C454.639 133.002 455.061 133.159 455.553 133.159C456.145 133.159 456.646 132.936 457.057 132.489C457.467 132.043 457.672 131.45 457.672 130.712C457.672 130.01 457.474 129.456 457.077 129.051C456.685 128.645 456.17 128.442 455.532 128.442C455.136 128.442 454.778 128.534 454.459 128.716C454.14 128.894 453.889 129.126 453.707 129.413L452.552 129.263L453.522 124.115H458.506V125.291H454.507L453.967 127.984C454.568 127.565 455.2 127.355 455.86 127.355C456.735 127.355 457.474 127.659 458.075 128.265C458.677 128.871 458.978 129.65 458.978 130.603C458.978 131.509 458.713 132.293 458.185 132.954C457.542 133.765 456.665 134.171 455.553 134.171C454.641 134.171 453.896 133.916 453.317 133.405C452.743 132.895 452.415 132.218 452.333 131.375ZM460.358 126.385C460.358 125.669 460.538 125.061 460.898 124.56C461.258 124.058 461.78 123.808 462.464 123.808C463.093 123.808 463.612 124.033 464.022 124.484C464.437 124.931 464.645 125.59 464.645 126.46C464.645 127.308 464.435 127.962 464.016 128.422C463.601 128.878 463.088 129.105 462.478 129.105C461.871 129.105 461.366 128.88 460.96 128.429C460.559 127.978 460.358 127.296 460.358 126.385ZM462.498 124.655C462.193 124.655 461.938 124.787 461.732 125.052C461.532 125.316 461.432 125.801 461.432 126.508C461.432 127.15 461.534 127.604 461.739 127.868C461.944 128.128 462.197 128.258 462.498 128.258C462.808 128.258 463.063 128.126 463.264 127.861C463.469 127.597 463.571 127.114 463.571 126.412C463.571 125.765 463.469 125.312 463.264 125.052C463.059 124.787 462.803 124.655 462.498 124.655ZM462.505 134.369L467.987 123.808H468.985L463.523 134.369H462.505ZM466.839 131.648C466.839 130.928 467.019 130.32 467.379 129.823C467.739 129.322 468.263 129.071 468.951 129.071C469.58 129.071 470.1 129.297 470.51 129.748C470.924 130.195 471.132 130.853 471.132 131.724C471.132 132.571 470.922 133.225 470.503 133.686C470.088 134.141 469.573 134.369 468.958 134.369C468.352 134.369 467.846 134.144 467.44 133.692C467.039 133.237 466.839 132.555 466.839 131.648ZM468.985 129.919C468.675 129.919 468.418 130.051 468.213 130.315C468.012 130.58 467.912 131.065 467.912 131.771C467.912 132.41 468.015 132.861 468.22 133.125C468.425 133.389 468.678 133.521 468.979 133.521C469.293 133.521 469.55 133.389 469.751 133.125C469.956 132.861 470.059 132.378 470.059 131.676C470.059 131.029 469.956 130.575 469.751 130.315C469.546 130.051 469.291 129.919 468.985 129.919Z" fill="#545770"/>
<path d="M181.812 186H180.027V184.934C179.731 185.348 179.38 185.658 178.975 185.863C178.574 186.064 178.168 186.164 177.758 186.164C176.924 186.164 176.208 185.829 175.611 185.159C175.019 184.485 174.723 183.546 174.723 182.343C174.723 181.112 175.012 180.178 175.591 179.54C176.17 178.897 176.901 178.576 177.785 178.576C178.596 178.576 179.298 178.913 179.891 179.588V175.979H181.812V186ZM176.685 182.213C176.685 182.988 176.792 183.548 177.006 183.895C177.316 184.396 177.749 184.646 178.305 184.646C178.747 184.646 179.123 184.46 179.433 184.086C179.743 183.708 179.897 183.145 179.897 182.397C179.897 181.563 179.747 180.964 179.446 180.6C179.146 180.23 178.76 180.046 178.291 180.046C177.835 180.046 177.452 180.228 177.143 180.593C176.837 180.953 176.685 181.493 176.685 182.213ZM187.916 183.689L189.83 184.011C189.584 184.713 189.194 185.248 188.661 185.617C188.132 185.982 187.469 186.164 186.672 186.164C185.41 186.164 184.475 185.752 183.869 184.927C183.391 184.266 183.151 183.432 183.151 182.425C183.151 181.222 183.466 180.281 184.095 179.602C184.724 178.918 185.519 178.576 186.48 178.576C187.561 178.576 188.413 178.934 189.037 179.649C189.661 180.36 189.96 181.452 189.933 182.924H185.12C185.134 183.493 185.289 183.938 185.585 184.257C185.881 184.571 186.25 184.729 186.692 184.729C186.993 184.729 187.246 184.646 187.451 184.482C187.656 184.318 187.811 184.054 187.916 183.689ZM188.025 181.748C188.012 181.192 187.868 180.771 187.595 180.483C187.321 180.192 186.989 180.046 186.597 180.046C186.177 180.046 185.831 180.199 185.558 180.504C185.284 180.809 185.15 181.224 185.154 181.748H188.025ZM195.709 183.689L197.623 184.011C197.377 184.713 196.987 185.248 196.454 185.617C195.925 185.982 195.262 186.164 194.465 186.164C193.202 186.164 192.268 185.752 191.662 184.927C191.184 184.266 190.944 183.432 190.944 182.425C190.944 181.222 191.259 180.281 191.888 179.602C192.517 178.918 193.312 178.576 194.273 178.576C195.354 178.576 196.206 178.934 196.83 179.649C197.454 180.36 197.753 181.452 197.726 182.924H192.913C192.927 183.493 193.082 183.938 193.378 184.257C193.674 184.571 194.043 184.729 194.485 184.729C194.786 184.729 195.039 184.646 195.244 184.482C195.449 184.318 195.604 184.054 195.709 183.689ZM195.818 181.748C195.805 181.192 195.661 180.771 195.388 180.483C195.114 180.192 194.782 180.046 194.39 180.046C193.97 180.046 193.624 180.199 193.351 180.504C193.077 180.809 192.943 181.224 192.947 181.748H195.818ZM199.243 178.74H201.034V179.807C201.267 179.442 201.581 179.146 201.978 178.918C202.374 178.69 202.814 178.576 203.297 178.576C204.14 178.576 204.855 178.907 205.443 179.567C206.031 180.228 206.325 181.149 206.325 182.329C206.325 183.541 206.029 184.485 205.437 185.159C204.844 185.829 204.126 186.164 203.283 186.164C202.882 186.164 202.518 186.084 202.189 185.925C201.866 185.765 201.524 185.492 201.164 185.104V188.762H199.243V178.74ZM201.144 182.247C201.144 183.063 201.305 183.667 201.629 184.059C201.952 184.446 202.347 184.64 202.812 184.64C203.258 184.64 203.63 184.462 203.926 184.106C204.222 183.746 204.37 183.159 204.37 182.343C204.37 181.582 204.217 181.017 203.912 180.647C203.607 180.278 203.229 180.094 202.777 180.094C202.308 180.094 201.918 180.276 201.608 180.641C201.299 181.001 201.144 181.536 201.144 182.247Z" fill="#545770"/>
<path d="M266.859 184.353C266.859 184.599 266.912 184.799 267.017 184.954C267.126 185.104 267.272 185.18 267.454 185.18C268.006 185.18 268.541 184.53 269.061 183.231C269.498 182.151 269.717 181.358 269.717 180.853C269.717 180.675 269.694 180.531 269.648 180.422C269.562 180.221 269.402 180.121 269.17 180.121C268.65 180.121 268.122 180.7 267.584 181.857C267.101 182.892 266.859 183.724 266.859 184.353ZM268.917 179.54C269.172 179.54 269.393 179.592 269.58 179.697C269.689 179.761 269.808 179.859 269.936 179.991L270.558 177.688C270.571 177.642 270.58 177.596 270.585 177.551C270.59 177.505 270.592 177.462 270.592 177.421C270.592 177.257 270.542 177.145 270.441 177.086C270.341 177.027 270.2 176.997 270.018 176.997H269.73V176.621L270.332 176.566C270.801 176.525 271.164 176.484 271.419 176.443C271.674 176.402 272.089 176.327 272.663 176.218L271.104 181.885C270.981 182.327 270.817 182.935 270.612 183.71C270.407 184.48 270.305 184.904 270.305 184.981C270.305 185.05 270.321 185.1 270.353 185.132C270.389 185.164 270.432 185.18 270.482 185.18C270.587 185.18 270.731 185.068 270.913 184.845C271.1 184.617 271.262 184.394 271.398 184.175L271.706 184.4C271.337 184.947 271.036 185.337 270.804 185.569C270.398 185.979 270.004 186.185 269.621 186.185C269.421 186.185 269.25 186.134 269.108 186.034C268.885 185.884 268.773 185.629 268.773 185.269C268.773 185.209 268.785 185.107 268.808 184.961C268.835 184.811 268.871 184.624 268.917 184.4C268.58 184.947 268.288 185.339 268.042 185.576C267.614 185.991 267.14 186.198 266.62 186.198C266.21 186.198 265.857 186.041 265.561 185.727C265.269 185.408 265.123 184.931 265.123 184.298C265.123 183.3 265.538 182.263 266.367 181.188C267.215 180.089 268.065 179.54 268.917 179.54ZM276.566 180.565C276.566 180.406 276.537 180.271 276.478 180.162C276.418 180.048 276.311 179.991 276.156 179.991C275.828 179.991 275.505 180.256 275.186 180.784C274.871 181.313 274.591 182.053 274.345 183.006C275.151 182.824 275.723 182.473 276.061 181.953C276.398 181.434 276.566 180.971 276.566 180.565ZM272.355 184.024C272.355 182.967 272.761 181.962 273.572 181.01C274.411 180.025 275.331 179.533 276.334 179.533C276.767 179.533 277.125 179.64 277.407 179.854C277.694 180.069 277.838 180.372 277.838 180.764C277.838 181.356 277.505 181.917 276.84 182.445C276.174 182.974 275.311 183.311 274.249 183.457C274.222 183.598 274.201 183.73 274.188 183.854C274.174 183.977 274.167 184.077 274.167 184.154C274.167 184.441 274.208 184.667 274.29 184.831C274.436 185.136 274.716 185.289 275.131 185.289C275.468 185.289 275.803 185.116 276.136 184.77C276.313 184.587 276.505 184.334 276.71 184.011L277.12 184.25C276.769 184.838 276.439 185.269 276.129 185.542C275.637 185.979 275.06 186.198 274.399 186.198C273.907 186.198 273.442 186.021 273.005 185.665C272.572 185.305 272.355 184.758 272.355 184.024ZM282.787 180.565C282.787 180.406 282.757 180.271 282.698 180.162C282.639 180.048 282.532 179.991 282.377 179.991C282.049 179.991 281.725 180.256 281.406 180.784C281.092 181.313 280.812 182.053 280.565 183.006C281.372 182.824 281.944 182.473 282.281 181.953C282.618 181.434 282.787 180.971 282.787 180.565ZM278.576 184.024C278.576 182.967 278.982 181.962 279.793 181.01C280.632 180.025 281.552 179.533 282.555 179.533C282.988 179.533 283.345 179.64 283.628 179.854C283.915 180.069 284.059 180.372 284.059 180.764C284.059 181.356 283.726 181.917 283.061 182.445C282.395 182.974 281.532 183.311 280.47 183.457C280.442 183.598 280.422 183.73 280.408 183.854C280.395 183.977 280.388 184.077 280.388 184.154C280.388 184.441 280.429 184.667 280.511 184.831C280.657 185.136 280.937 185.289 281.352 185.289C281.689 185.289 282.024 185.116 282.356 184.77C282.534 184.587 282.726 184.334 282.931 184.011L283.341 184.25C282.99 184.838 282.66 185.269 282.35 185.542C281.857 185.979 281.281 186.198 280.62 186.198C280.128 186.198 279.663 186.021 279.226 185.665C278.793 185.305 278.576 184.758 278.576 184.024ZM288.194 181.044C288.295 181.058 288.381 181.067 288.454 181.071C288.527 181.076 288.602 181.078 288.68 181.078C289.154 181.078 289.518 181.021 289.773 180.907C290.029 180.793 290.25 180.606 290.437 180.347C290.61 180.101 290.744 179.784 290.84 179.396C290.94 179.005 290.99 178.681 290.99 178.426C290.99 178.034 290.897 177.715 290.71 177.469C290.523 177.218 290.209 177.093 289.767 177.093C289.548 177.093 289.4 177.138 289.322 177.229C289.245 177.316 289.172 177.476 289.104 177.708L288.194 181.044ZM284.052 185.645C284.384 185.604 284.631 185.521 284.79 185.398C284.95 185.275 285.082 185.022 285.187 184.64L286.902 178.357C286.939 178.216 286.971 178.075 286.998 177.934C287.03 177.792 287.046 177.678 287.046 177.592C287.046 177.346 286.955 177.184 286.772 177.106C286.654 177.056 286.406 177.02 286.027 176.997V176.635H290.047C290.726 176.635 291.291 176.726 291.742 176.908C292.599 177.255 293.027 177.89 293.027 178.815C293.027 179.649 292.679 180.317 291.981 180.818C291.289 181.315 290.389 181.563 289.281 181.563C289.113 181.563 288.978 181.561 288.878 181.557C288.778 181.552 288.507 181.534 288.064 181.502L287.306 184.284L287.189 184.77C287.176 184.815 287.167 184.863 287.162 184.913C287.158 184.959 287.155 185.004 287.155 185.05C287.155 185.287 287.219 185.437 287.347 185.501C287.474 185.56 287.752 185.608 288.181 185.645V186H284.052V185.645Z" fill="#545770"/>
<path d="M371.319 186H370.089V178.159C369.793 178.442 369.403 178.724 368.92 179.007C368.441 179.289 368.011 179.501 367.628 179.643V178.453C368.316 178.13 368.918 177.738 369.433 177.277C369.948 176.817 370.312 176.37 370.526 175.938H371.319V186Z" fill="#545770"/>
<path d="M437.485 186H436.255V178.159C435.959 178.442 435.569 178.724 435.086 179.007C434.607 179.289 434.177 179.501 433.794 179.643V178.453C434.482 178.13 435.084 177.738 435.599 177.277C436.114 176.817 436.478 176.37 436.692 175.938H437.485V186ZM447.11 184.817V186H440.486C440.477 185.704 440.525 185.419 440.63 185.146C440.799 184.694 441.067 184.25 441.437 183.812C441.81 183.375 442.348 182.869 443.05 182.295C444.139 181.402 444.875 180.695 445.258 180.176C445.641 179.652 445.832 179.157 445.832 178.692C445.832 178.205 445.657 177.795 445.306 177.462C444.959 177.125 444.506 176.956 443.945 176.956C443.353 176.956 442.879 177.134 442.523 177.489C442.168 177.845 441.988 178.337 441.983 178.966L440.719 178.836C440.805 177.893 441.131 177.175 441.696 176.683C442.261 176.186 443.02 175.938 443.973 175.938C444.934 175.938 445.695 176.204 446.256 176.737C446.816 177.271 447.097 177.931 447.097 178.72C447.097 179.121 447.015 179.515 446.851 179.902C446.687 180.29 446.413 180.698 446.03 181.126C445.652 181.554 445.021 182.142 444.137 182.89C443.398 183.509 442.924 183.931 442.715 184.154C442.505 184.373 442.332 184.594 442.195 184.817H447.11ZM449.127 186V184.599H450.528V186H449.127ZM452.333 183.375L453.625 183.266C453.721 183.895 453.942 184.368 454.288 184.688C454.639 185.002 455.061 185.159 455.553 185.159C456.145 185.159 456.646 184.936 457.057 184.489C457.467 184.043 457.672 183.45 457.672 182.712C457.672 182.01 457.474 181.456 457.077 181.051C456.685 180.645 456.17 180.442 455.532 180.442C455.136 180.442 454.778 180.534 454.459 180.716C454.14 180.894 453.889 181.126 453.707 181.413L452.552 181.263L453.522 176.115H458.506V177.291H454.507L453.967 179.984C454.568 179.565 455.2 179.355 455.86 179.355C456.735 179.355 457.474 179.659 458.075 180.265C458.677 180.871 458.978 181.65 458.978 182.603C458.978 183.509 458.713 184.293 458.185 184.954C457.542 185.765 456.665 186.171 455.553 186.171C454.641 186.171 453.896 185.916 453.317 185.405C452.743 184.895 452.415 184.218 452.333 183.375ZM460.358 178.385C460.358 177.669 460.538 177.061 460.898 176.56C461.258 176.058 461.78 175.808 462.464 175.808C463.093 175.808 463.612 176.033 464.022 176.484C464.437 176.931 464.645 177.59 464.645 178.46C464.645 179.308 464.435 179.962 464.016 180.422C463.601 180.878 463.088 181.105 462.478 181.105C461.871 181.105 461.366 180.88 460.96 180.429C460.559 179.978 460.358 179.296 460.358 178.385ZM462.498 176.655C462.193 176.655 461.938 176.787 461.732 177.052C461.532 177.316 461.432 177.801 461.432 178.508C461.432 179.15 461.534 179.604 461.739 179.868C461.944 180.128 462.197 180.258 462.498 180.258C462.808 180.258 463.063 180.126 463.264 179.861C463.469 179.597 463.571 179.114 463.571 178.412C463.571 177.765 463.469 177.312 463.264 177.052C463.059 176.787 462.803 176.655 462.498 176.655ZM462.505 186.369L467.987 175.808H468.985L463.523 186.369H462.505ZM466.839 183.648C466.839 182.928 467.019 182.32 467.379 181.823C467.739 181.322 468.263 181.071 468.951 181.071C469.58 181.071 470.1 181.297 470.51 181.748C470.924 182.195 471.132 182.853 471.132 183.724C471.132 184.571 470.922 185.225 470.503 185.686C470.088 186.141 469.573 186.369 468.958 186.369C468.352 186.369 467.846 186.144 467.44 185.692C467.039 185.237 466.839 184.555 466.839 183.648ZM468.985 181.919C468.675 181.919 468.418 182.051 468.213 182.315C468.012 182.58 467.912 183.065 467.912 183.771C467.912 184.41 468.015 184.861 468.22 185.125C468.425 185.389 468.678 185.521 468.979 185.521C469.293 185.521 469.55 185.389 469.751 185.125C469.956 184.861 470.059 184.378 470.059 183.676C470.059 183.029 469.956 182.575 469.751 182.315C469.546 182.051 469.291 181.919 468.985 181.919Z" fill="#545770"/>
<path d="M181.812 238H180.027V236.934C179.731 237.348 179.38 237.658 178.975 237.863C178.574 238.064 178.168 238.164 177.758 238.164C176.924 238.164 176.208 237.829 175.611 237.159C175.019 236.485 174.723 235.546 174.723 234.343C174.723 233.112 175.012 232.178 175.591 231.54C176.17 230.897 176.901 230.576 177.785 230.576C178.596 230.576 179.298 230.913 179.891 231.588V227.979H181.812V238ZM176.685 234.213C176.685 234.988 176.792 235.548 177.006 235.895C177.316 236.396 177.749 236.646 178.305 236.646C178.747 236.646 179.123 236.46 179.433 236.086C179.743 235.708 179.897 235.145 179.897 234.397C179.897 233.563 179.747 232.964 179.446 232.6C179.146 232.23 178.76 232.046 178.291 232.046C177.835 232.046 177.452 232.228 177.143 232.593C176.837 232.953 176.685 233.493 176.685 234.213ZM187.916 235.689L189.83 236.011C189.584 236.713 189.194 237.248 188.661 237.617C188.132 237.982 187.469 238.164 186.672 238.164C185.41 238.164 184.475 237.752 183.869 236.927C183.391 236.266 183.151 235.432 183.151 234.425C183.151 233.222 183.466 232.281 184.095 231.602C184.724 230.918 185.519 230.576 186.48 230.576C187.561 230.576 188.413 230.934 189.037 231.649C189.661 232.36 189.96 233.452 189.933 234.924H185.12C185.134 235.493 185.289 235.938 185.585 236.257C185.881 236.571 186.25 236.729 186.692 236.729C186.993 236.729 187.246 236.646 187.451 236.482C187.656 236.318 187.811 236.054 187.916 235.689ZM188.025 233.748C188.012 233.192 187.868 232.771 187.595 232.483C187.321 232.192 186.989 232.046 186.597 232.046C186.177 232.046 185.831 232.199 185.558 232.504C185.284 232.809 185.15 233.224 185.154 233.748H188.025ZM195.709 235.689L197.623 236.011C197.377 236.713 196.987 237.248 196.454 237.617C195.925 237.982 195.262 238.164 194.465 238.164C193.202 238.164 192.268 237.752 191.662 236.927C191.184 236.266 190.944 235.432 190.944 234.425C190.944 233.222 191.259 232.281 191.888 231.602C192.517 230.918 193.312 230.576 194.273 230.576C195.354 230.576 196.206 230.934 196.83 231.649C197.454 232.36 197.753 233.452 197.726 234.924H192.913C192.927 235.493 193.082 235.938 193.378 236.257C193.674 236.571 194.043 236.729 194.485 236.729C194.786 236.729 195.039 236.646 195.244 236.482C195.449 236.318 195.604 236.054 195.709 235.689ZM195.818 233.748C195.805 233.192 195.661 232.771 195.388 232.483C195.114 232.192 194.782 232.046 194.39 232.046C193.97 232.046 193.624 232.199 193.351 232.504C193.077 232.809 192.943 233.224 192.947 233.748H195.818ZM199.243 230.74H201.034V231.807C201.267 231.442 201.581 231.146 201.978 230.918C202.374 230.69 202.814 230.576 203.297 230.576C204.14 230.576 204.855 230.907 205.443 231.567C206.031 232.228 206.325 233.149 206.325 234.329C206.325 235.541 206.029 236.485 205.437 237.159C204.844 237.829 204.126 238.164 203.283 238.164C202.882 238.164 202.518 238.084 202.189 237.925C201.866 237.765 201.524 237.492 201.164 237.104V240.762H199.243V230.74ZM201.144 234.247C201.144 235.063 201.305 235.667 201.629 236.059C201.952 236.446 202.347 236.64 202.812 236.64C203.258 236.64 203.63 236.462 203.926 236.106C204.222 235.746 204.37 235.159 204.37 234.343C204.37 233.582 204.217 233.017 203.912 232.647C203.607 232.278 203.229 232.094 202.777 232.094C202.308 232.094 201.918 232.276 201.608 232.641C201.299 233.001 201.144 233.536 201.144 234.247Z" fill="#545770"/>
<path d="M269.047 238V237.084C268.587 237.804 267.91 238.164 267.017 238.164C266.438 238.164 265.905 238.005 265.417 237.686C264.934 237.367 264.558 236.922 264.289 236.353C264.025 235.778 263.893 235.12 263.893 234.377C263.893 233.652 264.013 232.996 264.255 232.408C264.496 231.816 264.859 231.362 265.342 231.048C265.825 230.733 266.365 230.576 266.962 230.576C267.399 230.576 267.789 230.67 268.131 230.856C268.473 231.039 268.751 231.278 268.965 231.574V227.979H270.188V238H269.047ZM265.157 234.377C265.157 235.307 265.353 236.002 265.745 236.462C266.137 236.922 266.6 237.152 267.133 237.152C267.671 237.152 268.126 236.934 268.5 236.496C268.878 236.054 269.067 235.382 269.067 234.479C269.067 233.486 268.876 232.757 268.493 232.292C268.11 231.827 267.639 231.595 267.078 231.595C266.531 231.595 266.073 231.818 265.704 232.265C265.34 232.711 265.157 233.415 265.157 234.377ZM277.1 235.662L278.371 235.819C278.171 236.562 277.799 237.139 277.257 237.549C276.715 237.959 276.022 238.164 275.179 238.164C274.117 238.164 273.274 237.838 272.649 237.187C272.03 236.53 271.72 235.612 271.72 234.432C271.72 233.21 272.034 232.262 272.663 231.588C273.292 230.913 274.108 230.576 275.11 230.576C276.081 230.576 276.874 230.907 277.489 231.567C278.104 232.228 278.412 233.158 278.412 234.356C278.412 234.429 278.41 234.539 278.405 234.685H272.991C273.037 235.482 273.262 236.093 273.668 236.517C274.074 236.94 274.579 237.152 275.186 237.152C275.637 237.152 276.022 237.034 276.341 236.797C276.66 236.56 276.913 236.182 277.1 235.662ZM273.06 233.673H277.113C277.059 233.062 276.904 232.604 276.648 232.299C276.257 231.825 275.748 231.588 275.124 231.588C274.559 231.588 274.083 231.777 273.695 232.155C273.312 232.534 273.101 233.039 273.06 233.673ZM284.893 235.662L286.164 235.819C285.964 236.562 285.592 237.139 285.05 237.549C284.507 237.959 283.815 238.164 282.972 238.164C281.91 238.164 281.067 237.838 280.442 237.187C279.823 236.53 279.513 235.612 279.513 234.432C279.513 233.21 279.827 232.262 280.456 231.588C281.085 230.913 281.901 230.576 282.903 230.576C283.874 230.576 284.667 230.907 285.282 231.567C285.897 232.228 286.205 233.158 286.205 234.356C286.205 234.429 286.203 234.539 286.198 234.685H280.784C280.83 235.482 281.055 236.093 281.461 236.517C281.867 236.94 282.372 237.152 282.979 237.152C283.43 237.152 283.815 237.034 284.134 236.797C284.453 236.56 284.706 236.182 284.893 235.662ZM280.853 233.673H284.906C284.852 233.062 284.697 232.604 284.441 232.299C284.049 231.825 283.541 231.588 282.917 231.588C282.352 231.588 281.876 231.777 281.488 232.155C281.105 232.534 280.894 233.039 280.853 233.673ZM287.716 240.782V230.74H288.837V231.684C289.101 231.314 289.4 231.039 289.732 230.856C290.065 230.67 290.468 230.576 290.942 230.576C291.562 230.576 292.109 230.736 292.583 231.055C293.057 231.374 293.415 231.825 293.656 232.408C293.898 232.987 294.019 233.623 294.019 234.315C294.019 235.058 293.884 235.728 293.615 236.325C293.351 236.918 292.964 237.373 292.453 237.692C291.947 238.007 291.414 238.164 290.854 238.164C290.443 238.164 290.074 238.077 289.746 237.904C289.423 237.731 289.156 237.512 288.946 237.248V240.782H287.716ZM288.83 234.411C288.83 235.345 289.019 236.036 289.397 236.482C289.776 236.929 290.234 237.152 290.771 237.152C291.318 237.152 291.785 236.922 292.173 236.462C292.565 235.997 292.761 235.279 292.761 234.309C292.761 233.383 292.569 232.691 292.187 232.23C291.808 231.77 291.355 231.54 290.826 231.54C290.302 231.54 289.837 231.786 289.432 232.278C289.031 232.766 288.83 233.477 288.83 234.411Z" fill="#545770"/>
<path d="M371.319 238H370.089V230.159C369.793 230.442 369.403 230.724 368.92 231.007C368.441 231.289 368.011 231.501 367.628 231.643V230.453C368.316 230.13 368.918 229.738 369.433 229.277C369.948 228.817 370.312 228.37 370.526 227.938H371.319V238Z" fill="#545770"/>
<path d="M437.485 238H436.255V230.159C435.959 230.442 435.569 230.724 435.086 231.007C434.607 231.289 434.177 231.501 433.794 231.643V230.453C434.482 230.13 435.084 229.738 435.599 229.277C436.114 228.817 436.478 228.37 436.692 227.938H437.485V238ZM447.11 236.817V238H440.486C440.477 237.704 440.525 237.419 440.63 237.146C440.799 236.694 441.067 236.25 441.437 235.812C441.81 235.375 442.348 234.869 443.05 234.295C444.139 233.402 444.875 232.695 445.258 232.176C445.641 231.652 445.832 231.157 445.832 230.692C445.832 230.205 445.657 229.795 445.306 229.462C444.959 229.125 444.506 228.956 443.945 228.956C443.353 228.956 442.879 229.134 442.523 229.489C442.168 229.845 441.988 230.337 441.983 230.966L440.719 230.836C440.805 229.893 441.131 229.175 441.696 228.683C442.261 228.186 443.02 227.938 443.973 227.938C444.934 227.938 445.695 228.204 446.256 228.737C446.816 229.271 447.097 229.931 447.097 230.72C447.097 231.121 447.015 231.515 446.851 231.902C446.687 232.29 446.413 232.698 446.03 233.126C445.652 233.554 445.021 234.142 444.137 234.89C443.398 235.509 442.924 235.931 442.715 236.154C442.505 236.373 442.332 236.594 442.195 236.817H447.11ZM449.127 238V236.599H450.528V238H449.127ZM452.333 235.375L453.625 235.266C453.721 235.895 453.942 236.368 454.288 236.688C454.639 237.002 455.061 237.159 455.553 237.159C456.145 237.159 456.646 236.936 457.057 236.489C457.467 236.043 457.672 235.45 457.672 234.712C457.672 234.01 457.474 233.456 457.077 233.051C456.685 232.645 456.17 232.442 455.532 232.442C455.136 232.442 454.778 232.534 454.459 232.716C454.14 232.894 453.889 233.126 453.707 233.413L452.552 233.263L453.522 228.115H458.506V229.291H454.507L453.967 231.984C454.568 231.565 455.2 231.355 455.86 231.355C456.735 231.355 457.474 231.659 458.075 232.265C458.677 232.871 458.978 233.65 458.978 234.603C458.978 235.509 458.713 236.293 458.185 236.954C457.542 237.765 456.665 238.171 455.553 238.171C454.641 238.171 453.896 237.916 453.317 237.405C452.743 236.895 452.415 236.218 452.333 235.375ZM460.358 230.385C460.358 229.669 460.538 229.061 460.898 228.56C461.258 228.058 461.78 227.808 462.464 227.808C463.093 227.808 463.612 228.033 464.022 228.484C464.437 228.931 464.645 229.59 464.645 230.46C464.645 231.308 464.435 231.962 464.016 232.422C463.601 232.878 463.088 233.105 462.478 233.105C461.871 233.105 461.366 232.88 460.96 232.429C460.559 231.978 460.358 231.296 460.358 230.385ZM462.498 228.655C462.193 228.655 461.938 228.787 461.732 229.052C461.532 229.316 461.432 229.801 461.432 230.508C461.432 231.15 461.534 231.604 461.739 231.868C461.944 232.128 462.197 232.258 462.498 232.258C462.808 232.258 463.063 232.126 463.264 231.861C463.469 231.597 463.571 231.114 463.571 230.412C463.571 229.765 463.469 229.312 463.264 229.052C463.059 228.787 462.803 228.655 462.498 228.655ZM462.505 238.369L467.987 227.808H468.985L463.523 238.369H462.505ZM466.839 235.648C466.839 234.928 467.019 234.32 467.379 233.823C467.739 233.322 468.263 233.071 468.951 233.071C469.58 233.071 470.1 233.297 470.51 233.748C470.924 234.195 471.132 234.853 471.132 235.724C471.132 236.571 470.922 237.225 470.503 237.686C470.088 238.141 469.573 238.369 468.958 238.369C468.352 238.369 467.846 238.144 467.44 237.692C467.039 237.237 466.839 236.555 466.839 235.648ZM468.985 233.919C468.675 233.919 468.418 234.051 468.213 234.315C468.012 234.58 467.912 235.065 467.912 235.771C467.912 236.41 468.015 236.861 468.22 237.125C468.425 237.389 468.678 237.521 468.979 237.521C469.293 237.521 469.55 237.389 469.751 237.125C469.956 236.861 470.059 236.378 470.059 235.676C470.059 235.029 469.956 234.575 469.751 234.315C469.546 234.051 469.291 233.919 468.985 233.919Z" fill="#545770"/>
<path d="M179.274 282.74H180.341V282.193C180.341 281.583 180.405 281.127 180.532 280.826C180.664 280.525 180.904 280.282 181.25 280.095C181.601 279.903 182.043 279.808 182.576 279.808C183.123 279.808 183.659 279.89 184.183 280.054L183.923 281.394C183.618 281.321 183.324 281.284 183.041 281.284C182.763 281.284 182.562 281.35 182.439 281.482C182.321 281.61 182.262 281.858 182.262 282.228V282.74H183.697V284.251H182.262V290H180.341V284.251H179.274V282.74ZM184.333 286.268C184.333 285.63 184.49 285.012 184.805 284.415C185.119 283.818 185.563 283.362 186.138 283.048C186.716 282.733 187.361 282.576 188.072 282.576C189.171 282.576 190.071 282.934 190.772 283.649C191.474 284.36 191.825 285.26 191.825 286.35C191.825 287.448 191.47 288.359 190.759 289.084C190.052 289.804 189.161 290.164 188.086 290.164C187.421 290.164 186.785 290.014 186.179 289.713C185.577 289.412 185.119 288.972 184.805 288.394C184.49 287.81 184.333 287.102 184.333 286.268ZM186.302 286.37C186.302 287.09 186.473 287.642 186.814 288.024C187.156 288.407 187.578 288.599 188.079 288.599C188.58 288.599 189 288.407 189.337 288.024C189.679 287.642 189.85 287.086 189.85 286.356C189.85 285.646 189.679 285.099 189.337 284.716C189 284.333 188.58 284.142 188.079 284.142C187.578 284.142 187.156 284.333 186.814 284.716C186.473 285.099 186.302 285.65 186.302 286.37ZM192.892 286.268C192.892 285.63 193.049 285.012 193.363 284.415C193.678 283.818 194.122 283.362 194.696 283.048C195.275 282.733 195.92 282.576 196.631 282.576C197.729 282.576 198.629 282.934 199.331 283.649C200.033 284.36 200.384 285.26 200.384 286.35C200.384 287.448 200.028 288.359 199.317 289.084C198.611 289.804 197.72 290.164 196.645 290.164C195.979 290.164 195.343 290.014 194.737 289.713C194.136 289.412 193.678 288.972 193.363 288.394C193.049 287.81 192.892 287.102 192.892 286.268ZM194.86 286.37C194.86 287.09 195.031 287.642 195.373 288.024C195.715 288.407 196.136 288.599 196.638 288.599C197.139 288.599 197.558 288.407 197.896 288.024C198.237 287.642 198.408 287.086 198.408 286.356C198.408 285.646 198.237 285.099 197.896 284.716C197.558 284.333 197.139 284.142 196.638 284.142C196.136 284.142 195.715 284.333 195.373 284.716C195.031 285.099 194.86 285.65 194.86 286.37Z" fill="#545770"/>
<path d="M266.579 290V283.697H265.492V282.74H266.579V281.968C266.579 281.48 266.622 281.118 266.709 280.881C266.827 280.562 267.035 280.304 267.331 280.108C267.632 279.908 268.051 279.808 268.589 279.808C268.935 279.808 269.318 279.849 269.737 279.931L269.553 281.004C269.298 280.958 269.056 280.936 268.828 280.936C268.454 280.936 268.19 281.015 268.035 281.175C267.88 281.334 267.803 281.633 267.803 282.07V282.74H269.218V283.697H267.803V290H266.579ZM269.724 286.37C269.724 285.026 270.097 284.03 270.845 283.383C271.469 282.845 272.23 282.576 273.128 282.576C274.126 282.576 274.942 282.904 275.575 283.561C276.209 284.212 276.525 285.115 276.525 286.268C276.525 287.202 276.384 287.938 276.102 288.476C275.824 289.009 275.416 289.424 274.878 289.72C274.345 290.016 273.761 290.164 273.128 290.164C272.112 290.164 271.289 289.838 270.66 289.187C270.036 288.535 269.724 287.596 269.724 286.37ZM270.988 286.37C270.988 287.3 271.191 287.997 271.597 288.462C272.002 288.922 272.513 289.152 273.128 289.152C273.739 289.152 274.247 288.92 274.652 288.455C275.058 287.99 275.261 287.282 275.261 286.329C275.261 285.431 275.056 284.752 274.646 284.292C274.24 283.827 273.734 283.595 273.128 283.595C272.513 283.595 272.002 283.825 271.597 284.285C271.191 284.745 270.988 285.44 270.988 286.37ZM277.517 286.37C277.517 285.026 277.89 284.03 278.638 283.383C279.262 282.845 280.023 282.576 280.921 282.576C281.919 282.576 282.735 282.904 283.368 283.561C284.002 284.212 284.318 285.115 284.318 286.268C284.318 287.202 284.177 287.938 283.895 288.476C283.617 289.009 283.209 289.424 282.671 289.72C282.138 290.016 281.554 290.164 280.921 290.164C279.905 290.164 279.082 289.838 278.453 289.187C277.829 288.535 277.517 287.596 277.517 286.37ZM278.781 286.37C278.781 287.3 278.984 287.997 279.39 288.462C279.795 288.922 280.306 289.152 280.921 289.152C281.532 289.152 282.04 288.92 282.445 288.455C282.851 287.99 283.054 287.282 283.054 286.329C283.054 285.431 282.849 284.752 282.438 284.292C282.033 283.827 281.527 283.595 280.921 283.595C280.306 283.595 279.795 283.825 279.39 284.285C278.984 284.745 278.781 285.44 278.781 286.37ZM288.071 287.532C288.067 287.368 288.064 287.245 288.064 287.163C288.064 286.68 288.133 286.263 288.27 285.912C288.37 285.648 288.532 285.381 288.755 285.112C288.919 284.916 289.213 284.632 289.637 284.258C290.065 283.88 290.343 283.579 290.471 283.355C290.598 283.132 290.662 282.888 290.662 282.624C290.662 282.146 290.475 281.726 290.102 281.366C289.728 281.002 289.27 280.819 288.728 280.819C288.203 280.819 287.766 280.983 287.415 281.312C287.064 281.64 286.834 282.152 286.725 282.85L285.46 282.699C285.574 281.765 285.911 281.049 286.472 280.553C287.037 280.056 287.782 279.808 288.707 279.808C289.687 279.808 290.468 280.074 291.052 280.607C291.635 281.141 291.927 281.785 291.927 282.542C291.927 282.979 291.824 283.383 291.619 283.752C291.414 284.121 291.013 284.57 290.416 285.099C290.015 285.454 289.753 285.716 289.63 285.885C289.507 286.053 289.416 286.247 289.356 286.466C289.297 286.685 289.263 287.04 289.254 287.532H288.071ZM287.996 290V288.599H289.397V290H287.996Z" fill="#545770"/>
<path d="M371.319 290H370.089V282.159C369.793 282.442 369.403 282.724 368.92 283.007C368.441 283.289 368.011 283.501 367.628 283.643V282.453C368.316 282.13 368.918 281.738 369.433 281.277C369.948 280.817 370.312 280.37 370.526 279.938H371.319V290Z" fill="#545770"/>
<path d="M437.485 290H436.255V282.159C435.959 282.442 435.569 282.724 435.086 283.007C434.607 283.289 434.177 283.501 433.794 283.643V282.453C434.482 282.13 435.084 281.738 435.599 281.277C436.114 280.817 436.478 280.37 436.692 279.938H437.485V290ZM447.11 288.817V290H440.486C440.477 289.704 440.525 289.419 440.63 289.146C440.799 288.694 441.067 288.25 441.437 287.812C441.81 287.375 442.348 286.869 443.05 286.295C444.139 285.402 444.875 284.695 445.258 284.176C445.641 283.652 445.832 283.157 445.832 282.692C445.832 282.205 445.657 281.795 445.306 281.462C444.959 281.125 444.506 280.956 443.945 280.956C443.353 280.956 442.879 281.134 442.523 281.489C442.168 281.845 441.988 282.337 441.983 282.966L440.719 282.836C440.805 281.893 441.131 281.175 441.696 280.683C442.261 280.186 443.02 279.938 443.973 279.938C444.934 279.938 445.695 280.204 446.256 280.737C446.816 281.271 447.097 281.931 447.097 282.72C447.097 283.121 447.015 283.515 446.851 283.902C446.687 284.29 446.413 284.698 446.03 285.126C445.652 285.554 445.021 286.142 444.137 286.89C443.398 287.509 442.924 287.931 442.715 288.154C442.505 288.373 442.332 288.594 442.195 288.817H447.11ZM449.127 290V288.599H450.528V290H449.127ZM452.333 287.375L453.625 287.266C453.721 287.895 453.942 288.368 454.288 288.688C454.639 289.002 455.061 289.159 455.553 289.159C456.145 289.159 456.646 288.936 457.057 288.489C457.467 288.043 457.672 287.45 457.672 286.712C457.672 286.01 457.474 285.456 457.077 285.051C456.685 284.645 456.17 284.442 455.532 284.442C455.136 284.442 454.778 284.534 454.459 284.716C454.14 284.894 453.889 285.126 453.707 285.413L452.552 285.263L453.522 280.115H458.506V281.291H454.507L453.967 283.984C454.568 283.565 455.2 283.355 455.86 283.355C456.735 283.355 457.474 283.659 458.075 284.265C458.677 284.871 458.978 285.65 458.978 286.603C458.978 287.509 458.713 288.293 458.185 288.954C457.542 289.765 456.665 290.171 455.553 290.171C454.641 290.171 453.896 289.916 453.317 289.405C452.743 288.895 452.415 288.218 452.333 287.375ZM460.358 282.385C460.358 281.669 460.538 281.061 460.898 280.56C461.258 280.058 461.78 279.808 462.464 279.808C463.093 279.808 463.612 280.033 464.022 280.484C464.437 280.931 464.645 281.59 464.645 282.46C464.645 283.308 464.435 283.962 464.016 284.422C463.601 284.878 463.088 285.105 462.478 285.105C461.871 285.105 461.366 284.88 460.96 284.429C460.559 283.978 460.358 283.296 460.358 282.385ZM462.498 280.655C462.193 280.655 461.938 280.787 461.732 281.052C461.532 281.316 461.432 281.801 461.432 282.508C461.432 283.15 461.534 283.604 461.739 283.868C461.944 284.128 462.197 284.258 462.498 284.258C462.808 284.258 463.063 284.126 463.264 283.861C463.469 283.597 463.571 283.114 463.571 282.412C463.571 281.765 463.469 281.312 463.264 281.052C463.059 280.787 462.803 280.655 462.498 280.655ZM462.505 290.369L467.987 279.808H468.985L463.523 290.369H462.505ZM466.839 287.648C466.839 286.928 467.019 286.32 467.379 285.823C467.739 285.322 468.263 285.071 468.951 285.071C469.58 285.071 470.1 285.297 470.51 285.748C470.924 286.195 471.132 286.853 471.132 287.724C471.132 288.571 470.922 289.225 470.503 289.686C470.088 290.141 469.573 290.369 468.958 290.369C468.352 290.369 467.846 290.144 467.44 289.692C467.039 289.237 466.839 288.555 466.839 287.648ZM468.985 285.919C468.675 285.919 468.418 286.051 468.213 286.315C468.012 286.58 467.912 287.065 467.912 287.771C467.912 288.41 468.015 288.861 468.22 289.125C468.425 289.389 468.678 289.521 468.979 289.521C469.293 289.521 469.55 289.389 469.751 289.125C469.956 288.861 470.059 288.378 470.059 287.676C470.059 287.029 469.956 286.575 469.751 286.315C469.546 286.051 469.291 285.919 468.985 285.919Z" fill="#545770"/>
<path d="M179.274 334.74H180.341V334.193C180.341 333.583 180.405 333.127 180.532 332.826C180.664 332.525 180.904 332.282 181.25 332.095C181.601 331.903 182.043 331.808 182.576 331.808C183.123 331.808 183.659 331.89 184.183 332.054L183.923 333.394C183.618 333.321 183.324 333.284 183.041 333.284C182.763 333.284 182.562 333.35 182.439 333.482C182.321 333.61 182.262 333.858 182.262 334.228V334.74H183.697V336.251H182.262V342H180.341V336.251H179.274V334.74ZM184.333 338.268C184.333 337.63 184.49 337.012 184.805 336.415C185.119 335.818 185.563 335.362 186.138 335.048C186.716 334.733 187.361 334.576 188.072 334.576C189.171 334.576 190.071 334.934 190.772 335.649C191.474 336.36 191.825 337.26 191.825 338.35C191.825 339.448 191.47 340.359 190.759 341.084C190.052 341.804 189.161 342.164 188.086 342.164C187.421 342.164 186.785 342.014 186.179 341.713C185.577 341.412 185.119 340.972 184.805 340.394C184.49 339.81 184.333 339.102 184.333 338.268ZM186.302 338.37C186.302 339.09 186.473 339.642 186.814 340.024C187.156 340.407 187.578 340.599 188.079 340.599C188.58 340.599 189 340.407 189.337 340.024C189.679 339.642 189.85 339.086 189.85 338.356C189.85 337.646 189.679 337.099 189.337 336.716C189 336.333 188.58 336.142 188.079 336.142C187.578 336.142 187.156 336.333 186.814 336.716C186.473 337.099 186.302 337.65 186.302 338.37ZM192.892 338.268C192.892 337.63 193.049 337.012 193.363 336.415C193.678 335.818 194.122 335.362 194.696 335.048C195.275 334.733 195.92 334.576 196.631 334.576C197.729 334.576 198.629 334.934 199.331 335.649C200.033 336.36 200.384 337.26 200.384 338.35C200.384 339.448 200.028 340.359 199.317 341.084C198.611 341.804 197.72 342.164 196.645 342.164C195.979 342.164 195.343 342.014 194.737 341.713C194.136 341.412 193.678 340.972 193.363 340.394C193.049 339.81 192.892 339.102 192.892 338.268ZM194.86 338.37C194.86 339.09 195.031 339.642 195.373 340.024C195.715 340.407 196.136 340.599 196.638 340.599C197.139 340.599 197.558 340.407 197.896 340.024C198.237 339.642 198.408 339.086 198.408 338.356C198.408 337.646 198.237 337.099 197.896 336.716C197.558 336.333 197.139 336.142 196.638 336.142C196.136 336.142 195.715 336.333 195.373 336.716C195.031 337.099 194.86 337.65 194.86 338.37Z" fill="#545770"/>
<path d="M270.476 342V335.697H269.389V334.74H270.476V333.968C270.476 333.48 270.519 333.118 270.605 332.881C270.724 332.562 270.931 332.304 271.228 332.108C271.528 331.908 271.948 331.808 272.485 331.808C272.832 331.808 273.215 331.849 273.634 331.931L273.449 333.004C273.194 332.958 272.952 332.936 272.725 332.936C272.351 332.936 272.087 333.015 271.932 333.175C271.777 333.334 271.699 333.633 271.699 334.07V334.74H273.114V335.697H271.699V342H270.476ZM273.62 338.37C273.62 337.026 273.994 336.03 274.741 335.383C275.366 334.845 276.127 334.576 277.024 334.576C278.022 334.576 278.838 334.904 279.472 335.561C280.105 336.212 280.422 337.115 280.422 338.268C280.422 339.202 280.281 339.938 279.998 340.476C279.72 341.009 279.312 341.424 278.774 341.72C278.241 342.016 277.658 342.164 277.024 342.164C276.008 342.164 275.186 341.838 274.557 341.187C273.932 340.535 273.62 339.596 273.62 338.37ZM274.885 338.37C274.885 339.3 275.088 339.997 275.493 340.462C275.899 340.922 276.409 341.152 277.024 341.152C277.635 341.152 278.143 340.92 278.549 340.455C278.954 339.99 279.157 339.282 279.157 338.329C279.157 337.431 278.952 336.752 278.542 336.292C278.136 335.827 277.631 335.595 277.024 335.595C276.409 335.595 275.899 335.825 275.493 336.285C275.088 336.745 274.885 337.44 274.885 338.37ZM281.413 338.37C281.413 337.026 281.787 336.03 282.534 335.383C283.159 334.845 283.92 334.576 284.817 334.576C285.815 334.576 286.631 334.904 287.265 335.561C287.898 336.212 288.215 337.115 288.215 338.268C288.215 339.202 288.074 339.938 287.791 340.476C287.513 341.009 287.105 341.424 286.567 341.72C286.034 342.016 285.451 342.164 284.817 342.164C283.801 342.164 282.979 341.838 282.35 341.187C281.725 340.535 281.413 339.596 281.413 338.37ZM282.678 338.37C282.678 339.3 282.881 339.997 283.286 340.462C283.692 340.922 284.202 341.152 284.817 341.152C285.428 341.152 285.936 340.92 286.342 340.455C286.747 339.99 286.95 339.282 286.95 338.329C286.95 337.431 286.745 336.752 286.335 336.292C285.929 335.827 285.424 335.595 284.817 335.595C284.202 335.595 283.692 335.825 283.286 336.285C282.881 336.745 282.678 337.44 282.678 338.37Z" fill="#545770"/>
<path d="M371.319 342H370.089V334.159C369.793 334.442 369.403 334.724 368.92 335.007C368.441 335.289 368.011 335.501 367.628 335.643V334.453C368.316 334.13 368.918 333.738 369.433 333.277C369.948 332.817 370.312 332.37 370.526 331.938H371.319V342Z" fill="#545770"/>
<path d="M437.485 342H436.255V334.159C435.959 334.442 435.569 334.724 435.086 335.007C434.607 335.289 434.177 335.501 433.794 335.643V334.453C434.482 334.13 435.084 333.738 435.599 333.277C436.114 332.817 436.478 332.37 436.692 331.938H437.485V342ZM447.11 340.817V342H440.486C440.477 341.704 440.525 341.419 440.63 341.146C440.799 340.694 441.067 340.25 441.437 339.812C441.81 339.375 442.348 338.869 443.05 338.295C444.139 337.402 444.875 336.695 445.258 336.176C445.641 335.652 445.832 335.157 445.832 334.692C445.832 334.205 445.657 333.795 445.306 333.462C444.959 333.125 444.506 332.956 443.945 332.956C443.353 332.956 442.879 333.134 442.523 333.489C442.168 333.845 441.988 334.337 441.983 334.966L440.719 334.836C440.805 333.893 441.131 333.175 441.696 332.683C442.261 332.186 443.02 331.938 443.973 331.938C444.934 331.938 445.695 332.204 446.256 332.737C446.816 333.271 447.097 333.931 447.097 334.72C447.097 335.121 447.015 335.515 446.851 335.902C446.687 336.29 446.413 336.698 446.03 337.126C445.652 337.554 445.021 338.142 444.137 338.89C443.398 339.509 442.924 339.931 442.715 340.154C442.505 340.373 442.332 340.594 442.195 340.817H447.11ZM449.127 342V340.599H450.528V342H449.127ZM452.333 339.375L453.625 339.266C453.721 339.895 453.942 340.368 454.288 340.688C454.639 341.002 455.061 341.159 455.553 341.159C456.145 341.159 456.646 340.936 457.057 340.489C457.467 340.043 457.672 339.45 457.672 338.712C457.672 338.01 457.474 337.456 457.077 337.051C456.685 336.645 456.17 336.442 455.532 336.442C455.136 336.442 454.778 336.534 454.459 336.716C454.14 336.894 453.889 337.126 453.707 337.413L452.552 337.263L453.522 332.115H458.506V333.291H454.507L453.967 335.984C454.568 335.565 455.2 335.355 455.86 335.355C456.735 335.355 457.474 335.659 458.075 336.265C458.677 336.871 458.978 337.65 458.978 338.603C458.978 339.509 458.713 340.293 458.185 340.954C457.542 341.765 456.665 342.171 455.553 342.171C454.641 342.171 453.896 341.916 453.317 341.405C452.743 340.895 452.415 340.218 452.333 339.375ZM460.358 334.385C460.358 333.669 460.538 333.061 460.898 332.56C461.258 332.058 461.78 331.808 462.464 331.808C463.093 331.808 463.612 332.033 464.022 332.484C464.437 332.931 464.645 333.59 464.645 334.46C464.645 335.308 464.435 335.962 464.016 336.422C463.601 336.878 463.088 337.105 462.478 337.105C461.871 337.105 461.366 336.88 460.96 336.429C460.559 335.978 460.358 335.296 460.358 334.385ZM462.498 332.655C462.193 332.655 461.938 332.787 461.732 333.052C461.532 333.316 461.432 333.801 461.432 334.508C461.432 335.15 461.534 335.604 461.739 335.868C461.944 336.128 462.197 336.258 462.498 336.258C462.808 336.258 463.063 336.126 463.264 335.861C463.469 335.597 463.571 335.114 463.571 334.412C463.571 333.765 463.469 333.312 463.264 333.052C463.059 332.787 462.803 332.655 462.498 332.655ZM462.505 342.369L467.987 331.808H468.985L463.523 342.369H462.505ZM466.839 339.648C466.839 338.928 467.019 338.32 467.379 337.823C467.739 337.322 468.263 337.071 468.951 337.071C469.58 337.071 470.1 337.297 470.51 337.748C470.924 338.195 471.132 338.853 471.132 339.724C471.132 340.571 470.922 341.225 470.503 341.686C470.088 342.141 469.573 342.369 468.958 342.369C468.352 342.369 467.846 342.144 467.44 341.692C467.039 341.237 466.839 340.555 466.839 339.648ZM468.985 337.919C468.675 337.919 468.418 338.051 468.213 338.315C468.012 338.58 467.912 339.065 467.912 339.771C467.912 340.41 468.015 340.861 468.22 341.125C468.425 341.389 468.678 341.521 468.979 341.521C469.293 341.521 469.55 341.389 469.751 341.125C469.956 340.861 470.059 340.378 470.059 339.676C470.059 339.029 469.956 338.575 469.751 338.315C469.546 338.051 469.291 337.919 468.985 337.919Z" fill="#545770"/>
</svg>
