<svg width="57" height="26" viewBox="0 0 57 26" fill="none" xmlns="http://www.w3.org/2000/svg">
<path fill-rule="evenodd" clip-rule="evenodd" d="M12.9656 0.5C13.9369 0.5 14.7242 1.30216 14.7242 2.29167V23.7917C14.7242 24.7812 13.9369 25.5833 12.9656 25.5833C11.9944 25.5833 11.207 24.7812 11.207 23.7917V2.29167C11.207 1.30216 11.9944 0.5 12.9656 0.5ZM18.2415 2.94318C19.2127 2.94318 20.0001 3.74534 20.0001 4.73485V21.3485C20.0001 22.338 19.2127 23.1402 18.2415 23.1402C17.2702 23.1402 16.4829 22.338 16.4829 21.3485V4.73485C16.4829 3.74534 17.2702 2.94318 18.2415 2.94318ZM7.68975 4.89773C8.66101 4.89773 9.44837 5.69988 9.44837 6.68939V19.3939C9.44837 20.3835 8.66101 21.1856 7.68975 21.1856C6.7185 21.1856 5.93113 20.3835 5.93113 19.3939V6.68939C5.93113 5.69988 6.7185 4.89773 7.68975 4.89773ZM2.41389 7.82955C3.38515 7.82955 4.17251 8.6317 4.17251 9.62121V16.4621C4.17251 17.4516 3.38515 18.2538 2.41389 18.2538C1.44263 18.2538 0.655273 17.4516 0.655273 16.4621V9.62121C0.655273 8.6317 1.44263 7.82955 2.41389 7.82955ZM23.5173 7.82955C24.4886 7.82955 25.276 8.6317 25.276 9.62121V16.4621C25.276 17.4516 24.4886 18.2538 23.5173 18.2538C22.5461 18.2538 21.7587 17.4516 21.7587 16.4621V9.62121C21.7587 8.6317 22.5461 7.82955 23.5173 7.82955Z" fill="white"/>
<path fill-rule="evenodd" clip-rule="evenodd" d="M34.0691 0.5C33.0978 0.5 32.3104 1.30216 32.3104 2.29167V23.7917C32.3104 24.7812 33.0978 25.5833 34.0691 25.5833C35.0403 25.5833 35.8277 24.7812 35.8277 23.7917V2.29167C35.8277 1.30216 35.0403 0.5 34.0691 0.5ZM28.7932 2.94318C27.8219 2.94318 27.0346 3.74534 27.0346 4.73485V21.3485C27.0346 22.338 27.8219 23.1402 28.7932 23.1402C29.7645 23.1402 30.5518 22.338 30.5518 21.3485V4.73485C30.5518 3.74534 29.7645 2.94318 28.7932 2.94318ZM39.3449 4.89773C38.3737 4.89773 37.5863 5.69988 37.5863 6.68939V19.3939C37.5863 20.3835 38.3737 21.1856 39.3449 21.1856C40.3162 21.1856 41.1035 20.3835 41.1035 19.3939V6.68939C41.1035 5.69988 40.3162 4.89773 39.3449 4.89773ZM44.6208 7.82955C43.6495 7.82955 42.8622 8.6317 42.8622 9.62121V16.4621C42.8622 17.4516 43.6495 18.2538 44.6208 18.2538C45.592 18.2538 46.3794 17.4516 46.3794 16.4621V9.62121C46.3794 8.6317 45.592 7.82955 44.6208 7.82955ZM23.5173 7.82955C22.5461 7.82955 21.7587 8.6317 21.7587 9.62121V16.4621C21.7587 17.4516 22.5461 18.2538 23.5173 18.2538C24.4886 18.2538 25.276 17.4516 25.276 16.4621V9.62121C25.276 8.6317 24.4886 7.82955 23.5173 7.82955Z" fill="white"/>
<path fill-rule="evenodd" clip-rule="evenodd" d="M44.6208 0.5C43.6495 0.5 42.8622 1.30216 42.8622 2.29167V23.7917C42.8622 24.7812 43.6495 25.5833 44.6208 25.5833C45.592 25.5833 46.3794 24.7812 46.3794 23.7917V2.29167C46.3794 1.30216 45.592 0.5 44.6208 0.5ZM39.3449 2.94318C38.3737 2.94318 37.5863 3.74534 37.5863 4.73485V21.3485C37.5863 22.338 38.3737 23.1402 39.3449 23.1402C40.3162 23.1402 41.1035 22.338 41.1035 21.3485V4.73485C41.1035 3.74534 40.3162 2.94318 39.3449 2.94318ZM49.8966 4.89773C48.9254 4.89773 48.138 5.69988 48.138 6.68939V19.3939C48.138 20.3835 48.9254 21.1856 49.8966 21.1856C50.8679 21.1856 51.6553 20.3835 51.6553 19.3939V6.68939C51.6553 5.69988 50.8679 4.89773 49.8966 4.89773ZM55.1725 7.82955C54.2012 7.82955 53.4139 8.6317 53.4139 9.62121V16.4621C53.4139 17.4516 54.2012 18.2538 55.1725 18.2538C56.1438 18.2538 56.9311 17.4516 56.9311 16.4621V9.62121C56.9311 8.6317 56.1438 7.82955 55.1725 7.82955ZM34.0691 7.82955C33.0978 7.82955 32.3104 8.6317 32.3104 9.62121V16.4621C32.3104 17.4516 33.0978 18.2538 34.0691 18.2538C35.0403 18.2538 35.8277 17.4516 35.8277 16.4621V9.62121C35.8277 8.6317 35.0403 7.82955 34.0691 7.82955Z" fill="white"/>
</svg>
