<svg xmlns="http://www.w3.org/2000/svg" width="21.947" height="20.379" viewBox="0 0 21.947 20.379"><defs><style>.a{fill:#0f0f1d;fill-rule:evenodd;}</style></defs><path class="a" d="M27.138,5.853a.784.784,0,0,1,0,1.11L16.165,17.936a.784.784,0,0,1-1.11,0l-4.7-4.7a.785.785,0,0,1,1.11-1.11l4.148,4.149L26.029,5.853a.784.784,0,0,1,1.11,0Z" transform="translate(-5.422 -4.055)"/><path class="a" d="M13.564,4.942a8.621,8.621,0,1,0,8.621,8.621.784.784,0,1,1,1.568,0,10.189,10.189,0,1,1-5.095-8.826.784.784,0,1,1-.784,1.356A8.578,8.578,0,0,0,13.564,4.942Z" transform="translate(-3.375 -3.373)"/></svg>