<svg width="46" height="45" viewBox="0 0 46 45" fill="none" xmlns="http://www.w3.org/2000/svg">
<path d="M45.2586 22.3344C45.2586 28.2578 42.9055 33.9387 38.717 38.1272C34.5285 42.3157 28.8477 44.6688 22.9242 44.6688C17.0008 44.6688 11.3199 42.3157 7.13143 38.1272C2.94292 33.9387 0.589844 28.2578 0.589844 22.3344C0.589844 16.4109 2.94292 10.7301 7.13143 6.54159C11.3199 2.35308 17.0008 0 22.9242 0C28.8477 0 34.5285 2.35308 38.717 6.54159C42.9055 10.7301 45.2586 16.4109 45.2586 22.3344ZM15.5371 12.9707C15.275 12.7086 14.9195 12.5613 14.5488 12.5613C14.1781 12.5613 13.8226 12.7086 13.5605 12.9707C13.2984 13.2328 13.1512 13.5883 13.1512 13.959C13.1512 14.3297 13.2984 14.6852 13.5605 14.9473L20.9504 22.3344L13.5605 29.7215C13.4307 29.8513 13.3278 30.0053 13.2576 30.1749C13.1873 30.3445 13.1512 30.5262 13.1512 30.7098C13.1512 30.8933 13.1873 31.0751 13.2576 31.2446C13.3278 31.4142 13.4307 31.5683 13.5605 31.6981C13.8226 31.9602 14.1781 32.1074 14.5488 32.1074C14.7324 32.1074 14.9141 32.0713 15.0837 32.001C15.2533 31.9308 15.4073 31.8279 15.5371 31.6981L22.9242 24.3082L30.3113 31.6981C30.4411 31.8279 30.5952 31.9308 30.7648 32.001C30.9343 32.0713 31.1161 32.1074 31.2996 32.1074C31.4832 32.1074 31.6649 32.0713 31.8345 32.001C32.004 31.9308 32.1581 31.8279 32.2879 31.6981C32.4177 31.5683 32.5206 31.4142 32.5909 31.2446C32.6611 31.0751 32.6973 30.8933 32.6973 30.7098C32.6973 30.5262 32.6611 30.3445 32.5909 30.1749C32.5206 30.0053 32.4177 29.8513 32.2879 29.7215L24.898 22.3344L32.2879 14.9473C32.4177 14.8175 32.5206 14.6634 32.5909 14.4938C32.6611 14.3243 32.6973 14.1425 32.6973 13.959C32.6973 13.7754 32.6611 13.5937 32.5909 13.4241C32.5206 13.2546 32.4177 13.1005 32.2879 12.9707C32.1581 12.8409 32.004 12.738 31.8345 12.6677C31.6649 12.5975 31.4832 12.5613 31.2996 12.5613C31.1161 12.5613 30.9343 12.5975 30.7648 12.6677C30.5952 12.738 30.4411 12.8409 30.3113 12.9707L22.9242 20.3606L15.5371 12.9707Z" fill="#DDE2E5"/>
<path d="M22.9242 41.877C17.7412 41.877 12.7705 39.818 9.10553 36.1531C5.44059 32.4881 3.38164 27.5174 3.38164 22.3344C3.38164 17.1514 5.44059 12.1806 9.10553 8.51569C12.7705 4.85074 17.7412 2.7918 22.9242 2.7918C28.1072 2.7918 33.078 4.85074 36.7429 8.51569C40.4079 12.1806 42.4668 17.1514 42.4668 22.3344C42.4668 27.5174 40.4079 32.4881 36.7429 36.1531C33.078 39.818 28.1072 41.877 22.9242 41.877ZM22.9242 44.6688C28.8477 44.6688 34.5285 42.3157 38.717 38.1272C42.9055 33.9387 45.2586 28.2578 45.2586 22.3344C45.2586 16.4109 42.9055 10.7301 38.717 6.54159C34.5285 2.35308 28.8477 0 22.9242 0C17.0008 0 11.3199 2.35308 7.13143 6.54159C2.94292 10.7301 0.589844 16.4109 0.589844 22.3344C0.589844 28.2578 2.94292 33.9387 7.13143 38.1272C11.3199 42.3157 17.0008 44.6688 22.9242 44.6688Z" fill="#ACB5BD"/>
<path d="M13.5663 12.9706C13.696 12.8406 13.8501 12.7375 14.0196 12.6671C14.1892 12.5968 14.371 12.5605 14.5546 12.5605C14.7383 12.5605 14.9201 12.5968 15.0896 12.6671C15.2592 12.7375 15.4133 12.8406 15.5429 12.9706L22.93 20.3605L30.3171 12.9706C30.4469 12.8409 30.601 12.7379 30.7706 12.6677C30.9401 12.5974 31.1219 12.5613 31.3054 12.5613C31.489 12.5613 31.6707 12.5974 31.8403 12.6677C32.0099 12.7379 32.1639 12.8409 32.2937 12.9706C32.4235 13.1004 32.5265 13.2545 32.5967 13.4241C32.6669 13.5936 32.7031 13.7754 32.7031 13.9589C32.7031 14.1425 32.6669 14.3242 32.5967 14.4938C32.5265 14.6634 32.4235 14.8175 32.2937 14.9472L24.9038 22.3343L32.2937 29.7214C32.4235 29.8512 32.5265 30.0053 32.5967 30.1749C32.6669 30.3444 32.7031 30.5262 32.7031 30.7097C32.7031 30.8933 32.6669 31.075 32.5967 31.2446C32.5265 31.4142 32.4235 31.5682 32.2937 31.698C32.1639 31.8278 32.0099 31.9308 31.8403 32.001C31.6707 32.0712 31.489 32.1074 31.3054 32.1074C31.1219 32.1074 30.9401 32.0712 30.7706 32.001C30.601 31.9308 30.4469 31.8278 30.3171 31.698L22.93 24.3081L15.5429 31.698C15.4132 31.8278 15.2591 31.9308 15.0895 32.001C14.9199 32.0712 14.7382 32.1074 14.5546 32.1074C14.3711 32.1074 14.1894 32.0712 14.0198 32.001C13.8502 31.9308 13.6961 31.8278 13.5663 31.698C13.4366 31.5682 13.3336 31.4142 13.2634 31.2446C13.1931 31.075 13.157 30.8933 13.157 30.7097C13.157 30.5262 13.1931 30.3444 13.2634 30.1749C13.3336 30.0053 13.4366 29.8512 13.5663 29.7214L20.9562 22.3343L13.5663 14.9472C13.4364 14.8176 13.3332 14.6635 13.2628 14.4939C13.1925 14.3244 13.1562 14.1425 13.1562 13.9589C13.1562 13.7753 13.1925 13.5935 13.2628 13.4239C13.3332 13.2543 13.4364 13.1003 13.5663 12.9706Z" fill="#ACB5BD"/>
</svg>
