<svg xmlns="http://www.w3.org/2000/svg" width="58.388" height="57.043" viewBox="0 0 58.388 57.043"><defs><style>.a{fill:#F03A01;stroke:#F03A01;stroke-width:0.3px;}</style></defs><g transform="translate(0.159 -5.728)"><path class="a" d="M57.875,16.513a2.739,2.739,0,0,0-4.637-1.5l-4.733,4.733a.549.549,0,0,1-.528.142L45.2,19.142a.549.549,0,0,1-.387-.387l-.744-2.777a.548.548,0,0,1,.142-.528l2.411-2.411a.85.85,0,1,0-1.2-1.2l-2.411,2.411a2.254,2.254,0,0,0-.582,2.171l.744,2.777a2.254,2.254,0,0,0,1.589,1.589l2.777.744a2.254,2.254,0,0,0,2.171-.582l4.733-4.733a1.037,1.037,0,0,1,1.757.578A11,11,0,0,1,42.885,29.33a2.387,2.387,0,0,0-2.232.638L25.208,45.413a4.713,4.713,0,0,1-6.665-6.665L34,23.291a2.384,2.384,0,0,0,.641-2.223,11.091,11.091,0,0,1,3.127-10.433,10.911,10.911,0,0,1,9.405-2.876,1.043,1.043,0,0,1,.8,1.4.85.85,0,0,0,1.58.63,2.743,2.743,0,0,0-2.1-3.711A12.685,12.685,0,0,0,32.981,21.443a.692.692,0,0,1-.184.645L29.29,25.6l.047-1.969a2.825,2.825,0,0,0-2.826-2.9H17.24a2.825,2.825,0,0,0-2.826,2.9l.079,3.3a.871.871,0,0,1-.358.725l-3.591,2.609a.87.87,0,0,1-.8.117L6.631,29.281A2.825,2.825,0,0,0,3,31.075L.139,39.892a2.825,2.825,0,0,0,1.88,3.583l3.162.944a.87.87,0,0,1,.578.565L7.131,49.2A.87.87,0,0,1,7,50l-2,2.622a2.825,2.825,0,0,0,.585,4L12.8,61.875c.379.275-2.327-2.159-2.05-2.54a.85.85,0,0,0-.188-1.188l-3.986-2.9a1.126,1.126,0,0,1-.233-1.6l2-2.622a2.571,2.571,0,0,0,.4-2.355L7.377,44.458a2.57,2.57,0,0,0-1.709-1.669l-3.162-.944a1.126,1.126,0,0,1-.749-1.428L4.621,31.6a1.126,1.126,0,0,1,1.445-.715L9.18,31.98a2.57,2.57,0,0,0,2.364-.345l3.591-2.609a2.571,2.571,0,0,0,1.059-2.141l-.079-3.3a1.126,1.126,0,0,1,1.126-1.154h9.271a1.126,1.126,0,0,1,1.126,1.154,35.361,35.361,0,0,0-.053,3.715l-4.06,4.06a10.844,10.844,0,1,0,9.07,9.07l7.1-7.1,2.3,7.084a1.126,1.126,0,0,1-.749,1.428l-3.162.944a2.57,2.57,0,0,0-1.709,1.669L35,48.679a2.57,2.57,0,0,0,.4,2.355l2,2.622a1.126,1.126,0,0,1-.233,1.6l-7.5,5.449a1.126,1.126,0,0,1-1.589-.271L26.21,57.714a2.57,2.57,0,0,0-2.115-1.11H19.656a2.57,2.57,0,0,0-2.115,1.11l-1.875,2.715a1.126,1.126,0,0,1-1.589.271l-3.514-2.553c-.38-.276.018.321-.258.7s2.117,2.751,2.5,3.027l.276.2a2.825,2.825,0,0,0,3.988-.681L18.94,58.68a.87.87,0,0,1,.716-.376h4.439a.87.87,0,0,1,.716.376L26.686,61.4a2.825,2.825,0,0,0,3.988.681l7.5-5.449a2.825,2.825,0,0,0,.585-4l-2-2.622a.87.87,0,0,1-.136-.8l1.372-4.221a.87.87,0,0,1,.578-.565l3.162-.944a2.825,2.825,0,0,0,1.88-3.583l-2.569-7.908.813-.813a.694.694,0,0,1,.651-.183,12.7,12.7,0,0,0,15.37-14.474Zm-36,34.712a9.144,9.144,0,1,1,.073-18.288L17.34,37.545a6.414,6.414,0,0,0,9.07,9.07l4.608-4.608c0,.024,0,.049,0,.073A9.155,9.155,0,0,1,21.875,51.225Z" transform="translate(0 0)"/></g></svg>