<svg width="18" height="18" viewBox="0 0 18 18" fill="none" xmlns="http://www.w3.org/2000/svg">
<path d="M12.0769 3.46154C12.0769 3.29833 12.1418 3.14181 12.2572 3.0264C12.3726 2.91099 12.5291 2.84616 12.6923 2.84616H16.3846C16.5478 2.84616 16.7044 2.91099 16.8198 3.0264C16.9352 3.14181 17 3.29833 17 3.46154C17 3.62475 16.9352 3.78128 16.8198 3.89669C16.7044 4.01209 16.5478 4.07693 16.3846 4.07693H12.6923C12.5291 4.07693 12.3726 4.01209 12.2572 3.89669C12.1418 3.78128 12.0769 3.62475 12.0769 3.46154ZM16.5446 6.3334C17.0668 7.81424 17.1417 9.416 16.76 10.9391C16.3783 12.4622 15.5569 13.8394 14.3981 14.8989C14.3678 14.9329 14.3338 14.9634 14.2968 14.9898C12.8364 16.2848 10.9521 17 9.00021 17C7.04831 17 5.16402 16.285 3.70355 14.99C3.6662 14.9634 3.63196 14.9327 3.60148 14.8985C2.41131 13.8107 1.57782 12.3884 1.21039 10.8184C0.842953 9.24844 0.958737 7.60404 1.54255 6.10103C2.12635 4.59801 3.15091 3.30661 4.48177 2.39628C5.81262 1.48596 7.3876 0.999238 9.00001 1C9.42225 0.999994 9.84385 1.03307 10.2609 1.09892C10.4208 1.12593 10.5635 1.21493 10.6581 1.34658C10.7527 1.47823 10.7916 1.6419 10.7662 1.80202C10.7408 1.96214 10.6533 2.10579 10.5226 2.20174C10.3919 2.29769 10.2287 2.3382 10.0683 2.31446C9.71495 2.25871 9.35775 2.23073 9.00001 2.23077C7.6952 2.23004 6.41802 2.60665 5.32236 3.31521C4.2267 4.02377 3.35932 5.03405 2.82473 6.22432C2.29014 7.41459 2.11115 8.73406 2.30933 10.0237C2.50751 11.3134 3.07441 12.5183 3.94171 13.4931C4.62767 12.4984 5.59272 11.729 6.71524 11.2819C6.11235 10.807 5.67242 10.156 5.45664 9.41945C5.24086 8.68293 5.25996 7.89748 5.51127 7.17231C5.76258 6.44714 6.23361 5.8183 6.85887 5.37325C7.48413 4.92819 8.23253 4.68903 9.00001 4.68903C9.76749 4.68903 10.5159 4.92819 11.1411 5.37325C11.7664 5.8183 12.2374 6.44714 12.4888 7.17231C12.7401 7.89748 12.7592 8.68293 12.5434 9.41945C12.3276 10.156 11.8877 10.807 11.2848 11.2819C12.4073 11.729 13.3723 12.4984 14.0583 13.4931C14.8621 12.5891 15.4091 11.4863 15.6423 10.2993C15.8755 9.11225 15.7864 7.88445 15.3842 6.74355C15.3566 6.66721 15.3444 6.58616 15.3483 6.50507C15.3522 6.42399 15.372 6.34447 15.4068 6.2711C15.4415 6.19773 15.4904 6.13196 15.5507 6.07757C15.6109 6.02318 15.6814 5.98126 15.7579 5.9542C15.8344 5.92715 15.9156 5.91551 15.9966 5.91994C16.0777 5.92438 16.1571 5.94481 16.2302 5.98006C16.3033 6.0153 16.3687 6.06467 16.4227 6.12531C16.4767 6.18595 16.5181 6.25667 16.5446 6.3334ZM9.00001 10.8462C9.48685 10.8462 9.96277 10.7018 10.3676 10.4313C10.7724 10.1608 11.0879 9.77641 11.2742 9.32662C11.4605 8.87683 11.5092 8.3819 11.4142 7.90441C11.3193 7.42691 11.0848 6.98831 10.7406 6.64406C10.3963 6.2998 9.95772 6.06536 9.48023 5.97038C9.00274 5.87541 8.50781 5.92415 8.05802 6.11046C7.60823 6.29677 7.22379 6.61227 6.95332 7.01707C6.68284 7.42187 6.53847 7.89778 6.53847 8.38463C6.53921 9.03725 6.79878 9.66292 7.26025 10.1244C7.72172 10.5859 8.34739 10.8454 9.00001 10.8462ZM9.00001 15.7693C10.5025 15.7707 11.9624 15.2698 13.1474 14.3461C12.7019 13.6504 12.0885 13.0779 11.3638 12.6814C10.639 12.2848 9.82612 12.077 8.99997 12.077C8.17382 12.077 7.36095 12.2848 6.63619 12.6814C5.91142 13.0779 5.29806 13.6504 4.85255 14.3461C6.03759 15.2698 7.49748 15.7708 9.00001 15.7693Z" fill="#858997"/>
<path fill-rule="evenodd" clip-rule="evenodd" d="M8.99986 1.10039C7.40762 1.09964 5.85234 1.58027 4.53813 2.47921C3.22392 3.37815 2.21217 4.65341 1.63566 6.13762C1.05916 7.62184 0.944819 9.24567 1.30766 10.796C1.6705 12.3464 2.49357 13.7508 3.66885 14.8251L3.67647 14.832L3.67607 14.8324C3.70157 14.861 3.73021 14.8867 3.76145 14.9089L3.77018 14.9152L3.7698 14.9156C5.21198 16.1943 7.07266 16.9004 9.00011 16.9004C10.9276 16.9003 12.7882 16.1942 14.2303 14.9154L14.2383 14.9083L14.2386 14.9088C14.2696 14.8867 14.298 14.8612 14.3233 14.8328L14.3301 14.8252L14.3305 14.8255C15.4748 13.7792 16.286 12.4193 16.6629 10.9152C17.0398 9.41112 16.9659 7.82938 16.4502 6.36704L16.45 6.36645C16.4278 6.30219 16.3931 6.24297 16.3479 6.19218C16.3027 6.14139 16.2479 6.10005 16.1867 6.07053C16.1254 6.04101 16.0589 6.0239 15.9911 6.02019C15.9232 6.01647 15.8552 6.02622 15.7911 6.04888C15.727 6.07153 15.6681 6.10665 15.6176 6.1522C15.5671 6.19775 15.5262 6.25283 15.4971 6.31428C15.468 6.37573 15.4513 6.44232 15.4481 6.51023C15.4449 6.57814 15.4551 6.64602 15.4782 6.70996L15.4785 6.7107C15.8865 7.86845 15.9769 9.11439 15.7403 10.3189C15.5037 11.5235 14.9486 12.6426 14.1329 13.5599L14.0482 13.6552L13.9759 13.5503C13.3011 12.5718 12.3519 11.815 11.2477 11.3752L11.0866 11.311L11.2228 11.2037C11.8094 10.7417 12.2374 10.1083 12.4473 9.39173C12.6572 8.67516 12.6387 7.91097 12.3942 7.20544C12.1497 6.49991 11.6914 5.88811 11.0831 5.45511C10.4747 5.0221 9.7466 4.78942 8.99991 4.78942C8.25322 4.78942 7.52508 5.0221 6.91676 5.45511C6.30843 5.88811 5.85016 6.49991 5.60565 7.20544C5.36115 7.91097 5.34258 8.67516 5.55251 9.39173C5.76245 10.1083 6.19046 10.7417 6.77702 11.2037L6.91323 11.311L6.75215 11.3752C5.64797 11.815 4.69869 12.5718 4.02393 13.5503L3.95159 13.6552L3.8669 13.56C2.98678 12.5707 2.4115 11.3481 2.21039 10.0393C2.00928 8.73058 2.19091 7.39161 2.73341 6.18374C3.2759 4.97588 4.15611 3.95066 5.26796 3.23163C6.37981 2.51259 7.67587 2.13042 8.99997 2.13116L8.99991 2.23116L8.9999 2.13116C8.99992 2.13116 8.99994 2.13116 8.99997 2.13116C9.36274 2.13112 9.72496 2.15949 10.0833 2.216C10.0832 2.21598 10.083 2.21596 10.0829 2.21593L10.0682 2.31486L10.0838 2.21608C10.0836 2.21605 10.0835 2.21603 10.0833 2.216C10.2175 2.23573 10.354 2.20179 10.4633 2.12152C10.5728 2.04116 10.6461 1.92086 10.6673 1.78676C10.6886 1.65266 10.6561 1.51559 10.5768 1.40533C10.4977 1.29521 10.3784 1.22073 10.2447 1.198C10.2449 1.19803 10.2451 1.19806 10.2452 1.19809L10.2608 1.09931L10.2442 1.19792C10.2443 1.19795 10.2445 1.19797 10.2447 1.198C9.83294 1.13302 9.41675 1.10039 8.99991 1.10039H8.99986ZM8.99991 0.900392C7.36735 0.899629 5.7727 1.39243 4.42521 2.31413C3.07771 3.23585 2.04034 4.5434 1.44923 6.06521C0.858123 7.58702 0.740891 9.25198 1.11292 10.8416C1.48458 12.4296 2.32715 13.8683 3.53024 14.9693C3.56358 15.0062 3.60069 15.0395 3.64097 15.0687C5.1192 16.3777 7.02548 17.1004 9.00011 17.1004C10.9748 17.1003 12.881 16.3775 14.3592 15.0684C14.3992 15.0394 14.436 15.0064 14.4691 14.9698C15.6405 13.8974 16.4708 12.5044 16.8569 10.9638C17.2433 9.42176 17.1675 7.8001 16.6389 6.30083C16.6081 6.21175 16.56 6.12964 16.4973 6.05922C16.4346 5.98873 16.3585 5.93134 16.2735 5.89037C16.1885 5.84939 16.0962 5.82564 16.002 5.82048C15.9078 5.81533 15.8135 5.82886 15.7245 5.86031C15.6355 5.89176 15.5536 5.9405 15.4836 6.00373C15.4135 6.06695 15.3567 6.14341 15.3163 6.22871C15.2759 6.314 15.2528 6.40644 15.2483 6.5007C15.2438 6.59479 15.258 6.68885 15.2899 6.77747C15.686 7.90143 15.7738 9.111 15.5441 10.2804C15.3224 11.4085 14.8132 12.4594 14.0666 13.3318C13.4074 12.417 12.5121 11.6987 11.4767 11.2535C12.0292 10.7771 12.4335 10.1504 12.6392 9.44796C12.8609 8.69149 12.8413 7.88476 12.5831 7.13995C12.325 6.39514 11.8412 5.74928 11.199 5.29217C10.5568 4.83506 9.78818 4.58943 8.99991 4.58943C8.21165 4.58943 7.44297 4.83506 6.80078 5.29217C6.15859 5.74928 5.6748 6.39514 5.41668 7.13995C5.15857 7.88476 5.13896 8.69149 5.36058 9.44796C5.56637 10.1504 5.97066 10.7771 6.52314 11.2535C5.48771 11.6987 4.59237 12.417 3.93323 13.3318C3.12561 12.3887 2.59692 11.2379 2.40807 10.0089C2.21282 8.73833 2.38916 7.43836 2.91585 6.26568C3.44254 5.09301 4.2971 4.09766 5.37657 3.39957C6.45603 2.70148 7.71433 2.33044 8.99986 2.33116H8.99992C9.35244 2.33112 9.70442 2.35869 10.0526 2.41363L10.0536 2.41378C10.24 2.44137 10.4298 2.39428 10.5817 2.28273C10.7336 2.17119 10.8354 2.00421 10.8649 1.81806C10.8944 1.63192 10.8492 1.44166 10.7392 1.28862C10.6293 1.13557 10.4633 1.03211 10.2775 1.00071L10.2775 1.00071L10.2764 1.00054C9.85421 0.933872 9.42741 0.900388 8.99996 0.900392M12.6922 2.94655C12.5555 2.94655 12.4244 3.00085 12.3278 3.0975C12.2311 3.19415 12.1768 3.32525 12.1768 3.46193C12.1768 3.59862 12.2311 3.72971 12.3278 3.82637C12.4244 3.92302 12.5555 3.97732 12.6922 3.97732H16.3845C16.5212 3.97732 16.6523 3.92302 16.749 3.82637C16.8456 3.72971 16.8999 3.59862 16.8999 3.46193C16.8999 3.32525 16.8456 3.19415 16.749 3.0975C16.6523 3.00085 16.5212 2.94655 16.3845 2.94655H12.6922ZM12.1864 2.95608C12.3205 2.82192 12.5025 2.74655 12.6922 2.74655H16.3845C16.5743 2.74655 16.7562 2.82192 16.8904 2.95608C17.0245 3.09024 17.0999 3.2722 17.0999 3.46193C17.0999 3.65167 17.0245 3.83363 16.8904 3.96779C16.7562 4.10195 16.5743 4.17732 16.3845 4.17732H12.6922C12.5025 4.17732 12.3205 4.10195 12.1864 3.96779C12.0522 3.83363 11.9768 3.65167 11.9768 3.46193C11.9768 3.2722 12.0522 3.09024 12.1864 2.95608ZM8.01965 6.01846C8.48771 5.82459 9.00275 5.77386 9.49964 5.8727C9.99653 5.97153 10.453 6.2155 10.8112 6.57374C11.1694 6.93197 11.4134 7.3884 11.5122 7.88529C11.6111 8.38218 11.5603 8.89722 11.3665 9.36528C11.1726 9.83334 10.8443 10.2334 10.423 10.5149C10.0018 10.7963 9.50654 10.9466 8.99991 10.9466H8.9998C8.3207 10.9458 7.66964 10.6757 7.18944 10.1955C6.70925 9.7153 6.43914 9.06423 6.43838 8.38513V8.38502C6.43838 7.8784 6.58861 7.38315 6.87007 6.9619C7.15154 6.54066 7.55159 6.21234 8.01965 6.01846ZM9.46062 6.06885C9.00253 5.97773 8.5277 6.0245 8.09619 6.20324C7.66468 6.38198 7.29586 6.68466 7.03637 7.07302C6.7769 7.46134 6.6384 7.91788 6.63838 8.38491C6.63908 9.01104 6.88812 9.61133 7.33086 10.0541C7.77361 10.4968 8.37389 10.7459 9.00002 10.7466C9.46705 10.7465 9.92359 10.608 10.3119 10.3486C10.7003 10.0891 11.0029 9.72026 11.1817 9.28874C11.3604 8.85723 11.4072 8.3824 11.3161 7.92431C11.225 7.46621 11 7.04542 10.6698 6.71516C10.3395 6.38489 9.91872 6.15997 9.46062 6.06885ZM6.58809 12.594C7.32757 12.1894 8.15695 11.9774 8.99987 11.9774C9.84279 11.9774 10.6722 12.1894 11.4117 12.594C12.1511 12.9986 12.777 13.5827 13.2315 14.2926L13.2807 14.3693L13.2088 14.4254C12.0062 15.3628 10.5247 15.8711 8.99991 15.8696C7.47511 15.8712 5.99358 15.3628 4.79098 14.4254L4.71909 14.3693L4.76824 14.2926C5.22279 13.5827 5.84861 12.9986 6.58809 12.594ZM8.99991 15.8696C8.99988 15.8696 8.99985 15.8696 8.99981 15.8696L8.99991 15.7698L9.00001 15.8696C8.99998 15.8696 8.99995 15.8696 8.99991 15.8696ZM8.99987 12.1774C8.1905 12.1774 7.39413 12.381 6.68409 12.7695C6.00087 13.1433 5.4187 13.6767 4.98686 14.3237C6.141 15.1979 7.55027 15.6711 8.99981 15.6696H9.00001C10.4495 15.6711 11.8588 15.1978 13.0129 14.3237C12.581 13.6767 11.9989 13.1433 11.3157 12.7695C10.6056 12.381 9.80924 12.1774 8.99987 12.1774Z" fill="#858997"/>
</svg>
