<svg width="36" height="36" viewBox="0 0 36 36" fill="none" xmlns="http://www.w3.org/2000/svg">
<path d="M35.548 3.037C35.5122 2.36304 35.2283 1.72615 34.7511 1.24892C34.2738 0.771681 33.6369 0.487831 32.963 0.452001C28.2659 0.165449 23.5749 1.10447 19.35 3.177C16.361 4.81675 13.7135 7.01324 11.55 9.648L11.467 9.748L6.31499 10.148C5.89931 10.1788 5.49627 10.3048 5.13701 10.5162C4.77775 10.7275 4.47187 11.0186 4.24299 11.367L0.723988 16.682C0.549989 16.9454 0.444987 17.2484 0.418627 17.563C0.392267 17.8776 0.445396 18.1938 0.573132 18.4826C0.700868 18.7713 0.899115 19.0233 1.14966 19.2154C1.4002 19.4075 1.69501 19.5336 2.00699 19.582L6.34699 20.254C6.33199 20.338 6.31599 20.423 6.30199 20.507C6.23162 20.9356 6.26439 21.3747 6.3976 21.7881C6.53082 22.2015 6.76063 22.5772 7.06799 22.884L13.111 28.931C13.6244 29.4431 14.3199 29.7308 15.045 29.731C15.1938 29.7309 15.3423 29.7186 15.489 29.694L15.742 29.649L16.414 33.989C16.4619 34.3013 16.5877 34.5964 16.7797 34.8473C16.9718 35.0981 17.2238 35.2966 17.5127 35.4244C17.8016 35.5522 18.1181 35.6053 18.4329 35.5786C18.7477 35.552 19.0507 35.4465 19.314 35.272L24.63 31.757C24.9784 31.5282 25.2695 31.2223 25.4809 30.863C25.6923 30.5038 25.8182 30.1007 25.849 29.685L26.249 24.533L26.349 24.45C28.9838 22.2866 31.1803 19.639 32.82 16.65C34.8935 12.4254 35.8335 7.73439 35.548 3.037V3.037ZM23.497 30.037L18.411 33.404L17.756 29.174C19.9958 28.4989 22.1201 27.4874 24.056 26.174L23.797 29.53C23.7896 29.6326 23.7587 29.7322 23.7067 29.821C23.6546 29.9097 23.5829 29.9854 23.497 30.042V30.037ZM14.572 27.469L8.52599 21.428C8.45034 21.3535 8.39355 21.262 8.36034 21.1611C8.32712 21.0602 8.31843 20.9529 8.33499 20.848C8.50985 19.8055 8.77758 18.7808 9.13499 17.786L18.211 26.858C17.217 27.2173 16.1929 27.4874 15.151 27.665C15.0461 27.6816 14.9388 27.6729 14.8379 27.6397C14.737 27.6064 14.6455 27.5496 14.571 27.474L14.572 27.469ZM6.47199 12.197L9.82799 11.938C8.51457 13.8739 7.50301 15.9981 6.82799 18.238L2.59799 17.583L5.95999 12.498C6.01684 12.4131 6.09235 12.3423 6.18073 12.291C6.26912 12.2397 6.36805 12.2092 6.46999 12.202L6.47199 12.197ZM25.032 22.871C23.5734 24.0997 21.9714 25.1473 20.261 25.991L10.011 15.739C10.8581 14.0309 11.9055 12.4296 13.131 10.969C15.1182 8.54456 17.5505 6.52227 20.297 5.011C24.1948 3.10534 28.5205 2.24392 32.851 2.511C33.0176 2.51989 33.175 2.59007 33.293 2.70804C33.4109 2.826 33.4811 2.98341 33.49 3.15C33.7571 7.4805 32.8957 11.8062 30.99 15.704C29.4788 18.4508 27.4565 20.8835 25.032 22.871Z" fill="black" stroke="#F1F3F9" stroke-width="0.3"/>
<path d="M24.508 16.642C25.6991 16.641 26.853 16.2271 27.7732 15.4708C28.6934 14.7144 29.3229 13.6624 29.5545 12.494C29.7861 11.3256 29.6054 10.1131 29.0432 9.06294C28.4811 8.01281 27.5722 7.19005 26.4715 6.73484C25.3708 6.27963 24.1463 6.22012 23.0066 6.56646C21.8669 6.91279 20.8826 7.64354 20.2213 8.63422C19.5599 9.6249 19.2625 10.8142 19.3797 11.9996C19.4969 13.1849 20.0214 14.293 20.8639 15.135C21.3422 15.6138 21.9103 15.9934 22.5356 16.252C23.161 16.5106 23.8312 16.6432 24.508 16.642V16.642ZM22.322 9.305C22.8279 8.79925 23.4935 8.48458 24.2054 8.41459C24.9174 8.3446 25.6315 8.52363 26.2263 8.92117C26.821 9.31872 27.2595 9.91017 27.467 10.5948C27.6745 11.2794 27.6382 12.0147 27.3643 12.6756C27.0904 13.3364 26.5959 13.8819 25.9649 14.219C25.334 14.556 24.6056 14.6639 23.904 14.5242C23.2025 14.3845 22.571 14.0058 22.1173 13.4527C21.6636 12.8996 21.4158 12.2064 21.4159 11.491C21.4156 11.0851 21.4955 10.6831 21.651 10.3081C21.8065 9.93316 22.0345 9.59259 22.322 9.306V9.305Z" fill="black" stroke="#F1F3F9" stroke-width="0.3"/>
<path d="M1.46196 29.402C1.59725 29.4025 1.73129 29.3762 1.8564 29.3247C1.9815 29.2732 2.0952 29.1976 2.19096 29.102L5.55596 25.737C5.65769 25.6427 5.73935 25.5289 5.79606 25.4023C5.85277 25.2758 5.88336 25.1391 5.886 25.0004C5.88863 24.8617 5.86326 24.724 5.81141 24.5953C5.75955 24.4667 5.68228 24.3498 5.58421 24.2518C5.48614 24.1537 5.36929 24.0764 5.24065 24.0246C5.11202 23.9727 4.97425 23.9473 4.83558 23.95C4.69691 23.9526 4.5602 23.9832 4.43363 24.0399C4.30706 24.0966 4.19324 24.1783 4.09896 24.28L0.729964 27.642C0.58613 27.7863 0.488246 27.9698 0.448666 28.1697C0.409086 28.3695 0.429584 28.5765 0.507573 28.7647C0.585562 28.9529 0.717546 29.1138 0.886869 29.227C1.05619 29.3402 1.25527 29.4008 1.45896 29.401L1.46196 29.402Z" fill="black" stroke="#F1F3F9" stroke-width="0.3"/>
<path d="M8.63898 27.36C8.44567 27.167 8.18366 27.0586 7.91048 27.0586C7.6373 27.0586 7.37528 27.167 7.18198 27.36L0.709978 33.83C0.60825 33.9243 0.526588 34.0381 0.46988 34.1647C0.413172 34.2912 0.382584 34.4279 0.379947 34.5666C0.37731 34.7053 0.402678 34.8431 0.454533 34.9717C0.506388 35.1003 0.583663 35.2172 0.681734 35.3152C0.779804 35.4133 0.896654 35.4906 1.02529 35.5424C1.15392 35.5943 1.2917 35.6197 1.43036 35.617C1.56903 35.6144 1.70574 35.5838 1.83231 35.5271C1.95888 35.4704 2.07271 35.3887 2.16698 35.287L8.63898 28.813C8.83079 28.6199 8.93843 28.3587 8.93843 28.0865C8.93843 27.8143 8.83079 27.5531 8.63898 27.36V27.36Z" fill="black" stroke="#F1F3F9" stroke-width="0.3"/>
<path d="M10.265 30.444L6.89998 33.809C6.79825 33.9033 6.71659 34.0171 6.65988 34.1437C6.60318 34.2702 6.57259 34.4069 6.56995 34.5456C6.56731 34.6843 6.59269 34.8221 6.64454 34.9507C6.6964 35.0793 6.77367 35.1962 6.87174 35.2942C6.96981 35.3923 7.08666 35.4696 7.21529 35.5214C7.34392 35.5733 7.4817 35.5987 7.62037 35.596C7.75904 35.5934 7.89575 35.5628 8.02232 35.5061C8.14889 35.4494 8.26271 35.3677 8.35698 35.266L11.722 31.901C11.8237 31.8067 11.9054 31.6929 11.9621 31.5663C12.0188 31.4398 12.0494 31.3031 12.052 31.1644C12.0546 31.0257 12.0293 30.888 11.9774 30.7593C11.9256 30.6307 11.8483 30.5138 11.7502 30.4158C11.6522 30.3177 11.5353 30.2404 11.4067 30.1886C11.278 30.1367 11.1403 30.1113 11.0016 30.114C10.8629 30.1166 10.7262 30.1472 10.5997 30.2039C10.4731 30.2606 10.3593 30.3423 10.265 30.444V30.444Z" fill="black" stroke="#F1F3F9" stroke-width="0.3"/>
</svg>
