<svg xmlns="http://www.w3.org/2000/svg" width="44.06" height="44.049" viewBox="0 0 44.06 44.049"><defs><style>.a{fill:#f03a01;}</style></defs><g transform="translate(-1.985 -2)"><path class="a" d="M46.045,23.29a5.881,5.881,0,0,0-5.873-5.873h-.646A10.271,10.271,0,1,0,20.783,9.371,8.076,8.076,0,0,0,7.443,17.432a5.873,5.873,0,0,0,.426,11.732h9.544v.749c-.117-.007-.242-.015-.367-.015a6.245,6.245,0,0,0-6.24,6.24,2.575,2.575,0,0,0,.294,1.123,4.4,4.4,0,0,0,.44,8.788H36.5a4.4,4.4,0,1,0,0-8.81h-.154a8.055,8.055,0,0,0-.418-8.076h4.243A5.881,5.881,0,0,0,46.045,23.29ZM36.5,38.707a2.937,2.937,0,1,1,0,5.873H11.54a2.937,2.937,0,1,1,0-5.873h.734a.744.744,0,0,0,.6-.308.76.76,0,0,0,.088-.675A5.071,5.071,0,0,0,12.619,37a2.252,2.252,0,0,1-.345-.859,4.754,4.754,0,0,1,5.836-4.647.727.727,0,0,0,.2.573l2.078,2.078a.744.744,0,0,0,.9.11l.433-.264.1.4v2.849H18.881a.734.734,0,0,0-.477,1.292l5.139,4.4a.734.734,0,0,0,.954,0l5.139-4.4a.734.734,0,0,0-.477-1.292H26.223V34.391l.1-.4.433.264a.744.744,0,0,0,.9-.11l2.078-2.078a.744.744,0,0,0,.11-.9l-.264-.433.492-.125a.734.734,0,0,0,.558-.712V27.123a6.6,6.6,0,0,1,3.81,10.41.734.734,0,0,0,.587,1.175ZM20.232,26.227l-.477-.793,1.27-1.27.793.477a.71.71,0,0,0,.653.044.722.722,0,0,0,.433-.5l.36-1.454a.724.724,0,0,0,.022-.176V18.885a.734.734,0,0,0-.734-.734H20.864l3.157-2.7,3.157,2.7H25.489a.734.734,0,0,0-.734.734v3.671a.724.724,0,0,0,.022.176l.36,1.454a.722.722,0,0,0,.433.5.734.734,0,0,0,.653-.044l.793-.477,1.27,1.27-.477.793a.734.734,0,0,0-.044.653.722.722,0,0,0,.5.433l.9.22v1.791l-.9.22a.722.722,0,0,0-.5.433.734.734,0,0,0,.044.653l.477.793-1.27,1.27-.793-.477a.734.734,0,0,0-.653-.044.722.722,0,0,0-.433.5l-.36,1.454a.724.724,0,0,0-.022.176v3.671a.734.734,0,0,0,.734.734h1.689l-3.157,2.7-3.157-2.7h1.689a.734.734,0,0,0,.734-.734V34.3a.724.724,0,0,0-.022-.176l-.36-1.454a.722.722,0,0,0-.433-.5.734.734,0,0,0-.653.044l-.793.477-1.27-1.27.477-.793a.734.734,0,0,0,.044-.653.722.722,0,0,0-.5-.433l-.9-.22V27.534l.9-.22a.722.722,0,0,0,.5-.433.734.734,0,0,0-.044-.653ZM34.688,27.7a7.929,7.929,0,0,0-4.779-2.166.753.753,0,0,0-.176-.734l-2.078-2.078a.744.744,0,0,0-.9-.11l-.433.264-.1-.4V19.62H29.16a.734.734,0,0,0,.477-1.292l-5.139-4.4a.734.734,0,0,0-.954,0l-5.139,4.4a.734.734,0,0,0,.477,1.292h2.937v2.848l-.1.4-.433-.264a.744.744,0,0,0-.9.11L18.309,24.8a.744.744,0,0,0-.11.9l.264.433-.492.125a.734.734,0,0,0-.558.712V27.7H7.869a4.4,4.4,0,0,1,0-8.81h.617a.744.744,0,0,0,.617-.33.759.759,0,0,0,.059-.7A6.422,6.422,0,0,1,8.6,15.215a6.607,6.607,0,0,1,11.989-3.832.732.732,0,0,0,1.321-.323,8.8,8.8,0,0,1,17.524,1.219A8.676,8.676,0,0,1,37.558,17.7a.734.734,0,0,0,.58,1.189h2.034a4.4,4.4,0,1,1,0,8.81Z" transform="translate(0 0)"/><path class="a" d="M46.873,13.341h1.468A7.35,7.35,0,0,0,41,6V7.468a5.88,5.88,0,0,1,5.873,5.873Z" transform="translate(-10.372 -1.063)"/><path class="a" d="M13,18.139h1.468a3.675,3.675,0,0,1,3.671-3.671V13A5.145,5.145,0,0,0,13,18.139Z" transform="translate(-2.928 -2.924)"/><path class="a" d="M30.937,34a2.937,2.937,0,1,0,2.937,2.937A2.937,2.937,0,0,0,30.937,34Zm0,4.4A1.468,1.468,0,1,1,32.4,36.937,1.468,1.468,0,0,1,30.937,38.4Z" transform="translate(-6.916 -8.507)"/></g></svg>