<svg xmlns="http://www.w3.org/2000/svg" width="37.814" height="37.804" viewBox="0 0 37.814 37.804"><defs><style>.a{fill:#0f0f1d;}</style></defs><g transform="translate(-1.985 -2)"><path class="a" d="M39.8,20.272a5.047,5.047,0,0,0-5.041-5.041H34.2A8.815,8.815,0,1,0,18.118,8.326,6.931,6.931,0,0,0,6.67,15.244a5.041,5.041,0,0,0,.365,10.069h8.191v.643c-.1-.006-.208-.013-.315-.013A5.359,5.359,0,0,0,9.555,31.3a2.21,2.21,0,0,0,.252.964,3.78,3.78,0,0,0,.378,7.542H31.608a3.78,3.78,0,0,0,0-7.561h-.132a6.913,6.913,0,0,0-.359-6.931h3.642A5.048,5.048,0,0,0,39.8,20.272ZM31.608,33.5a2.52,2.52,0,1,1,0,5.041H10.185a2.52,2.52,0,1,1,0-5.041h.63a.639.639,0,0,0,.517-.265.652.652,0,0,0,.076-.58,4.353,4.353,0,0,0-.3-.624,1.933,1.933,0,0,1-.3-.737,4.08,4.08,0,0,1,5.009-3.988.624.624,0,0,0,.17.491l1.783,1.783a.639.639,0,0,0,.769.095l.372-.227.088.347v2.445h-2.52a.63.63,0,0,0-.41,1.109l4.411,3.78a.63.63,0,0,0,.819,0l4.41-3.78a.63.63,0,0,0-.41-1.109h-2.52V29.8l.088-.347.372.227a.639.639,0,0,0,.769-.095L25.8,27.8a.639.639,0,0,0,.095-.769l-.227-.372.422-.107a.63.63,0,0,0,.479-.611V23.561a5.666,5.666,0,0,1,3.27,8.934.63.63,0,0,0,.5,1.008ZM17.645,22.792l-.41-.68,1.09-1.09.68.41a.609.609,0,0,0,.561.038.62.62,0,0,0,.372-.428l.309-1.248a.621.621,0,0,0,.019-.151v-3.15a.63.63,0,0,0-.63-.63H18.187L20.9,13.543l2.709,2.319H22.157a.63.63,0,0,0-.63.63v3.15a.621.621,0,0,0,.019.151l.309,1.248a.62.62,0,0,0,.372.428.63.63,0,0,0,.561-.038l.68-.41,1.09,1.09-.41.68a.63.63,0,0,0-.038.561.62.62,0,0,0,.428.372l.769.189v1.537l-.769.189a.62.62,0,0,0-.428.372.63.63,0,0,0,.038.561l.41.68-1.09,1.09-.68-.41a.63.63,0,0,0-.561-.038.62.62,0,0,0-.372.428l-.309,1.248a.621.621,0,0,0-.019.151v3.15a.63.63,0,0,0,.63.63h1.449L20.9,35.822,18.187,33.5h1.449a.63.63,0,0,0,.63-.63v-3.15a.621.621,0,0,0-.019-.151l-.309-1.248a.62.62,0,0,0-.372-.428.63.63,0,0,0-.561.038l-.68.41-1.09-1.09.41-.68a.63.63,0,0,0,.038-.561.62.62,0,0,0-.428-.372l-.769-.189V23.914l.769-.189a.62.62,0,0,0,.428-.372.63.63,0,0,0-.038-.561Zm12.406,1.26a6.8,6.8,0,0,0-4.1-1.859.646.646,0,0,0-.151-.63l-1.783-1.783a.639.639,0,0,0-.769-.095l-.372.227-.088-.347V17.122h2.52a.63.63,0,0,0,.41-1.109l-4.41-3.78a.63.63,0,0,0-.819,0l-4.41,3.78a.63.63,0,0,0,.41,1.109h2.52v2.445l-.088.347-.372-.227a.639.639,0,0,0-.769.095l-1.783,1.783a.639.639,0,0,0-.095.769l.227.372-.422.107a.63.63,0,0,0-.479.611v.63H7.035a3.78,3.78,0,1,1,0-7.561h.529a.638.638,0,0,0,.529-.284.651.651,0,0,0,.05-.6,5.511,5.511,0,0,1-.479-2.268,5.671,5.671,0,0,1,10.289-3.289.628.628,0,0,0,1.134-.277,7.556,7.556,0,0,1,15.04,1.046,7.446,7.446,0,0,1-1.613,4.65.63.63,0,0,0,.5,1.021h1.745a3.78,3.78,0,1,1,0,7.561Z" transform="translate(0 0)"/><path class="a" d="M46.041,12.3H47.3A6.308,6.308,0,0,0,41,6V7.26A5.046,5.046,0,0,1,46.041,12.3Z" transform="translate(-14.433 -1.48)"/><path class="a" d="M13,17.411h1.26a3.154,3.154,0,0,1,3.15-3.15V13A4.416,4.416,0,0,0,13,17.411Z" transform="translate(-4.075 -4.069)"/><path class="a" d="M30.52,34a2.52,2.52,0,1,0,2.52,2.52A2.52,2.52,0,0,0,30.52,34Zm0,3.78a1.26,1.26,0,1,1,1.26-1.26A1.26,1.26,0,0,1,30.52,37.78Z" transform="translate(-9.624 -11.838)"/></g></svg>