<svg xmlns="http://www.w3.org/2000/svg" width="41.176" height="41.176" viewBox="0 0 41.176 41.176"><defs><style>.a{fill:#0f0f1d;}</style></defs><g transform="translate(0 13.725)"><path class="a" d="M25.392,170.294h-.755a.675.675,0,0,1-.635-.443c-.084-.22-.174-.434-.27-.647a.677.677,0,0,1,.137-.766l.538-.539a2.064,2.064,0,0,0,0-2.909l-1.939-1.939a2.064,2.064,0,0,0-2.91,0l-.538.537a.68.68,0,0,1-.766.137c-.213-.1-.428-.187-.648-.275a.675.675,0,0,1-.445-.637v-.755A2.059,2.059,0,0,0,15.1,160H12.353a2.059,2.059,0,0,0-2.059,2.059v.755a.675.675,0,0,1-.443.635c-.22.084-.434.174-.647.27a.679.679,0,0,1-.766-.137l-.539-.538a2.064,2.064,0,0,0-2.909,0L3.05,164.99a2.064,2.064,0,0,0,0,2.91l.537.538a.677.677,0,0,1,.137.766c-.1.213-.187.428-.271.648a.674.674,0,0,1-.64.443H2.059A2.059,2.059,0,0,0,0,172.353V175.1a2.059,2.059,0,0,0,2.059,2.059h.755a.675.675,0,0,1,.635.443c.084.22.174.434.27.647a.677.677,0,0,1-.137.766l-.538.539a2.064,2.064,0,0,0,0,2.909L4.984,184.4a2.064,2.064,0,0,0,2.91,0l.538-.537a.679.679,0,0,1,.766-.137c.213.1.428.187.648.275a.675.675,0,0,1,.449.637v.755a2.059,2.059,0,0,0,2.059,2.059H15.1a2.059,2.059,0,0,0,2.059-2.059v-.755A.675.675,0,0,1,17.6,184c.22-.084.434-.174.647-.27a.679.679,0,0,1,.766.137l.539.538a2.064,2.064,0,0,0,2.909,0l1.939-1.939a2.064,2.064,0,0,0,0-2.91l-.537-.538a.677.677,0,0,1-.137-.766c.1-.213.187-.428.275-.648a.675.675,0,0,1,.637-.445h.755a2.059,2.059,0,0,0,2.059-2.059v-2.745A2.059,2.059,0,0,0,25.392,170.294Zm.686,4.8a.686.686,0,0,1-.686.686h-.755a2.066,2.066,0,0,0-1.922,1.327q-.109.288-.236.568a2.065,2.065,0,0,0,.412,2.3l.537.537a.686.686,0,0,1,0,.971h0l-1.939,1.939a.686.686,0,0,1-.97,0l-.538-.537a2.063,2.063,0,0,0-2.3-.412c-.186.084-.375.163-.566.236a2.065,2.065,0,0,0-1.327,1.92v.755a.686.686,0,0,1-.686.686H12.353a.686.686,0,0,1-.686-.686v-.755a2.066,2.066,0,0,0-1.327-1.922q-.288-.109-.568-.236a2.066,2.066,0,0,0-2.3.412l-.537.537a.686.686,0,0,1-.971,0h0L4.021,181.49a.686.686,0,0,1,0-.97l.537-.538a2.065,2.065,0,0,0,.412-2.3c-.084-.186-.163-.375-.236-.566a2.065,2.065,0,0,0-1.92-1.329H2.059a.686.686,0,0,1-.686-.686v-2.745a.686.686,0,0,1,.686-.686h.755a2.066,2.066,0,0,0,1.922-1.327q.109-.288.236-.568a2.065,2.065,0,0,0-.412-2.3l-.539-.537a.686.686,0,0,1,0-.971h0l1.939-1.939a.686.686,0,0,1,.97,0l.538.537a2.063,2.063,0,0,0,2.3.412c.186-.084.375-.163.566-.236a2.065,2.065,0,0,0,1.329-1.92v-.755a.686.686,0,0,1,.686-.686H15.1a.686.686,0,0,1,.686.686v.755a2.066,2.066,0,0,0,1.327,1.922q.288.109.568.236a2.063,2.063,0,0,0,2.3-.412l.537-.537a.69.69,0,0,1,.971,0l1.939,1.939a.686.686,0,0,1,0,.97l-.537.538a2.065,2.065,0,0,0-.412,2.3c.084.186.163.375.236.566a2.065,2.065,0,0,0,1.92,1.327h.755a.686.686,0,0,1,.686.686V175.1Z" transform="translate(0 -160)"/></g><g transform="translate(7.545 21.274)"><path class="a" d="M100.3,253.9c-.007-.165-.019-.329-.038-.492s-.048-.35-.084-.521c-.024-.112-.056-.222-.086-.334q-.058-.212-.13-.418c-.034-.1-.069-.19-.1-.284a6.112,6.112,0,0,0-.3-.642c-.009-.016-.014-.033-.023-.049a6.088,6.088,0,0,0-.618-.9c-.02-.025-.043-.048-.063-.072-.095-.112-.192-.22-.294-.324-.054-.056-.11-.108-.166-.161s-.137-.127-.206-.187-.168-.142-.255-.21l-.113-.084A6.133,6.133,0,0,0,94.138,248c-.069,0-.137.01-.206.013-.146,0-.293.012-.441.027-.078.008-.156.017-.233.028a6.292,6.292,0,0,0-.665.124,6.18,6.18,0,0,0,0,11.968.154.154,0,0,1,.034.006,6.551,6.551,0,0,0,.719.137c.16.02.32.024.48.032.107.005.206.021.318.021.2,0,.4-.013.606-.034a.665.665,0,0,0,.069-.009c.167-.018.336-.043.508-.078.069-.013.132-.03.2-.045.121-.028.241-.058.364-.094.1-.029.189-.062.283-.1s.191-.069.289-.106.179-.08.268-.121c.115-.053.23-.105.343-.167h0a8.121,8.121,0,0,0,1.759-1.27,2.16,2.16,0,0,0,.368-.45,7.327,7.327,0,0,0,1.034-2.821c.019-.132.036-.265.047-.4s.016-.248.019-.371c0-.039.005-.076.005-.115C100.315,254.084,100.305,254,100.3,253.9Zm-1.368.45c0,.057,0,.114-.008.17-.012.166-.034.332-.062.5a4.814,4.814,0,0,1-2.412,3.363c-.085.045-.169.086-.253.125l-.057.027a4.956,4.956,0,0,1-1.252.379l-.092.014c-.086.012-.17.023-.254.03-.11.01-.222.015-.335.017h-.143a4.823,4.823,0,0,1-.486-.03l-.082-.01a5.083,5.083,0,0,1-.561-.106,4.8,4.8,0,0,1,0-9.306h0a4.969,4.969,0,0,1,1.206-.151,4.74,4.74,0,0,1,.587.04c.052.006.1.016.155.023.148.023.3.053.44.09.047.012.095.023.141.036a4.845,4.845,0,0,1,1.047.441c.053.031.1.063.156.1.108.069.213.137.317.215.056.04.112.08.165.124a4.949,4.949,0,0,1,.386.343c.049.049.093.1.141.155.079.086.156.174.229.266.051.064.1.13.148.2.069.1.137.2.2.306l.1.171a4.71,4.71,0,0,1,.236.5c.027.069.051.137.075.206.045.126.083.254.117.383.017.069.036.13.051.2a4.837,4.837,0,0,1,.087.562c0,.05,0,.1.008.151C98.937,254.034,98.94,254.192,98.933,254.351Z" transform="translate(-87.959 -248)"/></g><g transform="translate(7.486)"><path class="a" d="M118.893,14.412h-2.158a.67.67,0,0,1-.64-.45,14.294,14.294,0,0,0-.771-1.86.672.672,0,0,1,.132-.775l1.53-1.532a2.059,2.059,0,0,0,0-2.91L114.068,3.97a2.059,2.059,0,0,0-2.91,0L109.628,5.5a.672.672,0,0,1-.774.132,14.257,14.257,0,0,0-1.861-.775.67.67,0,0,1-.453-.64V2.059A2.059,2.059,0,0,0,104.481,0h-4.118A2.059,2.059,0,0,0,98.3,2.059V4.217a.67.67,0,0,1-.45.64,14.3,14.3,0,0,0-1.86.774.67.67,0,0,1-.775-.132l-1.532-1.53a2.063,2.063,0,0,0-2.91,0L87.864,6.881a2.059,2.059,0,0,0,0,2.911l2.25,2.254a.686.686,0,0,0,.972-.969L88.834,8.824a.686.686,0,0,1,0-.97l2.912-2.913a.686.686,0,0,1,.97,0l1.533,1.53a2.04,2.04,0,0,0,2.358.387,12.983,12.983,0,0,1,1.682-.7,2.042,2.042,0,0,0,1.387-1.942V2.059a.686.686,0,0,1,.686-.686h4.118a.686.686,0,0,1,.686.686V4.217a2.041,2.041,0,0,0,1.387,1.941,12.944,12.944,0,0,1,1.683.7,2.045,2.045,0,0,0,2.357-.388l1.533-1.53a.686.686,0,0,1,.97,0l2.913,2.913a.686.686,0,0,1,0,.97l-1.53,1.533a2.042,2.042,0,0,0-.387,2.358,12.986,12.986,0,0,1,.7,1.682,2.041,2.041,0,0,0,1.942,1.387h2.158a.686.686,0,0,1,.686.686v4.118a.686.686,0,0,1-.686.686h-2.158a2.041,2.041,0,0,0-1.941,1.387,12.936,12.936,0,0,1-.7,1.683,2.043,2.043,0,0,0,.388,2.357l1.53,1.533a.686.686,0,0,1,0,.97L113.1,32.117a.686.686,0,0,1-.97,0l-2.255-2.25a.686.686,0,0,0-.986.955l.017.017,2.254,2.25a2.059,2.059,0,0,0,2.91,0l2.913-2.912a2.059,2.059,0,0,0,0-2.911l-1.528-1.531a.673.673,0,0,1-.132-.774,14.255,14.255,0,0,0,.775-1.861.67.67,0,0,1,.64-.453h2.158a2.059,2.059,0,0,0,2.059-2.059V16.47A2.059,2.059,0,0,0,118.893,14.412Z" transform="translate(-87.261)"/></g><g transform="translate(16.146 9.612)"><path class="a" d="M201.028,114.658a8.93,8.93,0,0,0-12.616,0,.686.686,0,0,0,.97.97,7.549,7.549,0,1,1,10.747,10.6l-.072.072a.686.686,0,0,0,.954.987l.017-.017A8.93,8.93,0,0,0,201.028,114.658Z" transform="translate(-188.219 -112.049)"/></g></svg>