<svg width="44" height="56" viewBox="0 0 44 56" fill="none" xmlns="http://www.w3.org/2000/svg">
<path fill-rule="evenodd" clip-rule="evenodd" d="M2.11614 2.23664C3.47108 0.804543 5.30878 0 7.22496 0H24.0832C24.7219 0 25.3345 0.268181 25.7861 0.745546L42.6444 18.5637C43.096 19.0411 43.3498 19.6885 43.3498 20.3636V48.3636C43.3498 50.3889 42.5886 52.3313 41.2336 53.7634C39.8787 55.1955 38.041 56 36.1248 56H7.22496C5.30878 56 3.47108 55.1955 2.11614 53.7634C0.761199 52.3313 0 50.3889 0 48.3636V7.63636C0 5.61107 0.761198 3.66874 2.11614 2.23664ZM7.22496 5.09091C6.58623 5.09091 5.97367 5.35909 5.52202 5.83646C5.07037 6.31382 4.81664 6.96127 4.81664 7.63636V48.3636C4.81664 49.0387 5.07037 49.6862 5.52202 50.1635C5.97367 50.6409 6.58623 50.9091 7.22496 50.9091H36.1248C36.7635 50.9091 37.3761 50.6409 37.8277 50.1635C38.2794 49.6862 38.5331 49.0387 38.5331 48.3636V22.9091H24.0832C22.7531 22.9091 21.6749 21.7695 21.6749 20.3636V5.09091H7.22496ZM26.4915 8.69073L35.1272 17.8182H26.4915V8.69073Z" fill="#ffffff"/>
</svg>
