<svg xmlns="http://www.w3.org/2000/svg" width="27.396" height="44.633" viewBox="0 0 27.396 44.633"><defs><style>.a{fill:#0f0f1d;stroke:#f1f3f9;stroke-width:0.45px;}</style></defs><g transform="translate(-91.722 0.285)"><g transform="translate(91.825 3.943)"><g transform="translate(0)"><path class="a" d="M118.566,58.883l-.315-4.08a3.047,3.047,0,0,0-4.47-2.652,2.872,2.872,0,0,0-2.457-1.326,3.11,3.11,0,0,0-1.345.306,3.059,3.059,0,0,0-2.485-1.28,2.539,2.539,0,0,0-.751.111V45.789a3.061,3.061,0,0,0-2.986-3.264,3.1,3.1,0,0,0-3.125,3.227l-.649,11.619a14.225,14.225,0,0,1-.575,4.108,6.674,6.674,0,0,1-.733-.649c-1.641-1.641-3.329-2.5-4.646-2.374a2.136,2.136,0,0,0-1.623.946c-1.326,1.994-.158,3.44,1.205,5.119.389.482.825,1.02,1.3,1.66.4.538.77,1.066,1.131,1.576a21.707,21.707,0,0,0,4.442,5.109c.009,1.447.009,2.439,0,3.468v1.7a3.017,3.017,0,0,0,1.011,2.142c1.549,1.539,4.646,2.532,7.9,2.532h.093a13.883,13.883,0,0,0,5.935-1.252c1.818-.89,2.819-2.1,2.81-3.422V70.641a24.008,24.008,0,0,0,.649-4.46v-.287A32.6,32.6,0,0,0,118.566,58.883Zm-2.559,19.158c.009.269-.408.853-1.558,1.419a11.714,11.714,0,0,1-4.97,1.02c-3.1.019-5.49-.964-6.417-1.882a1.011,1.011,0,0,1-.352-.566v-4.6a13.963,13.963,0,0,0,6.992,1.6h.009a10.387,10.387,0,0,0,6.3-1.7Zm.668-12.175v.287a15.208,15.208,0,0,1-.213,2.337c-.028.158-.436,2.114-.417,2.114h-.028v.77c-1.409,1.5-3.394,2.179-6.3,2.179h-.009a12.176,12.176,0,0,1-7.122-1.92.831.831,0,0,0-.176-.139c-1.771-1.113-3.06-2.93-4.544-5.026-.371-.519-.751-1.057-1.159-1.613-.5-.686-.955-1.243-1.363-1.743-1.428-1.762-1.437-1.938-1.1-2.448.287-.056,1.372.241,2.865,1.734.631.631,1.808,1.808,3.106,1.307,1.261-.482,1.78-2.114,2-6.222l.649-11.647v-.065a.906.906,0,0,1,.9-1.039c.751,0,.807,1.057.807,1.1l.046,12.8c0,.612.325,1.187.937,1.187a1.116,1.116,0,0,0,1.113-1.113V52.7a.764.764,0,0,1,.825-.64c.464,0,.825.176.825.64V59a1.088,1.088,0,0,0,1.057,1.141,1.11,1.11,0,0,0,1.113-1.113l.056-5.48a.827.827,0,0,1,1.595.306V59.68a1.116,1.116,0,0,0,1.113,1.113.967.967,0,0,0,1-1.048V54.83a.924.924,0,0,1,.937-.835.815.815,0,0,1,.825.825V54.9c.167,2.114.325,4.219.491,6.333C116.628,62.805,116.693,64.317,116.674,65.865Z" transform="translate(-91.824 -42.525)"/></g></g><g transform="translate(94.391 4.49)"><g transform="translate(0)"><path class="a" d="M123.578,48.425h-3.329a.742.742,0,0,0,0,1.484h3.329a.742.742,0,1,0,0-1.484Z" transform="translate(-119.507 -48.425)"/></g></g><g transform="translate(95.799 6.466)"><g transform="translate(0)"><path class="a" d="M138.857,69.948a.728.728,0,0,0-1.048,0l-2.912,2.9a.744.744,0,0,0,0,1.048.728.728,0,0,0,.529.213.784.784,0,0,0,.529-.213l2.9-2.9A.744.744,0,0,0,138.857,69.948Z" transform="translate(-134.682 -69.725)"/></g></g><g transform="translate(96.114 0)"><g transform="translate(0 0)"><path class="a" d="M141.942,2.8l-2.6-2.587A.741.741,0,0,0,138.3,1.263l2.587,2.587a.728.728,0,0,0,.529.213.784.784,0,0,0,.529-.213A.744.744,0,0,0,141.942,2.8Z" transform="translate(-138.082 0)"/></g></g><g transform="translate(108.078 4.49)"><g transform="translate(0)"><path class="a" d="M271.178,48.425h-3.329a.742.742,0,1,0,0,1.484h3.329a.742.742,0,0,0,0-1.484Z" transform="translate(-267.107 -48.425)"/></g></g><g transform="translate(107.112 0)"><g transform="translate(0 0)"><path class="a" d="M260.857.216a.744.744,0,0,0-1.048,0L256.9,3.127a.744.744,0,0,0,0,1.048.707.707,0,0,0,.519.213.784.784,0,0,0,.529-.213l2.912-2.912A.744.744,0,0,0,260.857.216Z" transform="translate(-256.682 0)"/></g></g><g transform="translate(107.121 6.797)"><g transform="translate(0)"><path class="a" d="M260.633,76.1l-2.587-2.587A.741.741,0,1,0,257,74.563l2.578,2.587a.728.728,0,0,0,.529.213.784.784,0,0,0,.529-.213A.744.744,0,0,0,260.633,76.1Z" transform="translate(-256.782 -73.3)"/></g></g></g></svg>