<svg width="27" height="6" viewBox="0 0 27 6" fill="none" xmlns="http://www.w3.org/2000/svg">
<path fill-rule="evenodd" clip-rule="evenodd" d="M13.5553 5.77189C15.1712 5.77189 16.4811 4.51478 16.4811 2.96407C16.4811 1.41335 15.1712 0.15625 13.5553 0.15625C11.9394 0.15625 10.6294 1.41335 10.6294 2.96407C10.6294 4.51478 11.9394 5.77189 13.5553 5.77189ZM3.31453 5.77192C4.93044 5.77192 6.2404 4.51481 6.2404 2.9641C6.2404 1.41338 4.93044 0.156281 3.31453 0.156281C1.69862 0.156281 0.388672 1.41338 0.388672 2.9641C0.388672 4.51481 1.69862 5.77192 3.31453 5.77192ZM26.7217 2.96407C26.7217 4.51478 25.4117 5.77189 23.7958 5.77189C22.1799 5.77189 20.8699 4.51478 20.8699 2.96407C20.8699 1.41335 22.1799 0.15625 23.7958 0.15625C25.4117 0.15625 26.7217 1.41335 26.7217 2.96407Z" fill="#C3C6D1"/>
</svg>
