<svg xmlns="http://www.w3.org/2000/svg" width="8.213" height="16.258" viewBox="0 0 8.213 16.258"><defs><style>.a{fill:#f03a01;}</style></defs><path class="a" d="M76.965,8.659h1.782V16a.262.262,0,0,0,.262.262h3.022A.262.262,0,0,0,82.293,16v-7.3h2.049a.262.262,0,0,0,.26-.232l.311-2.7a.262.262,0,0,0-.26-.292h-2.36V3.775c0-.51.275-.769.817-.769h1.543a.262.262,0,0,0,.262-.262V.264A.262.262,0,0,0,84.653,0H82.527l-.1,0a4.075,4.075,0,0,0-2.664,1,2.794,2.794,0,0,0-.929,2.484v1.98H76.965a.262.262,0,0,0-.262.262V8.4A.262.262,0,0,0,76.965,8.659Z" transform="translate(-76.703)"/></svg>