<svg xmlns="http://www.w3.org/2000/svg" width="40.581" height="38.841" viewBox="0 0 40.581 38.841"><defs><style>.a{fill:#0f0f1d;}</style></defs><g transform="translate(-2 -3.5)"><path class="a" d="M39.447,44.415H17.576A.577.577,0,0,1,17,43.836V9.079a.577.577,0,0,1,.576-.579H39.447a.577.577,0,0,1,.576.579V43.836A.577.577,0,0,1,39.447,44.415Zm-21.3-1.159H38.872V9.659H18.151Z" transform="translate(-6.221 -2.074)"/><path class="a" d="M38.461,7.6H25.585A.585.585,0,0,1,25,7.012V4.085a.585.585,0,0,1,.585-.585H38.461a.585.585,0,0,1,.585.585V7.012A.585.585,0,0,1,38.461,7.6ZM26.171,6.426H37.876V4.671H26.171Z" transform="translate(-9.733 0)"/><path class="a" d="M64.364,49.763H55.585A.585.585,0,0,1,55,49.177V21.085a.585.585,0,0,1,.585-.585h8.779a.585.585,0,0,1,.585.585V49.177A.585.585,0,0,1,64.364,49.763ZM56.17,48.592h7.608V21.671H56.17Z" transform="translate(-22.369 -7.421)"/><path class="a" d="M11.364,49.763H2.585A.585.585,0,0,1,2,49.177V21.085a.585.585,0,0,1,.585-.585h8.779a.585.585,0,0,1,.585.585V49.177A.585.585,0,0,1,11.364,49.763ZM3.171,48.592h7.608V21.671H3.171Z" transform="translate(0 -7.421)"/><path class="a" d="M44.658,20.328H42.171A1.171,1.171,0,0,1,41,19.158V16.671A1.171,1.171,0,0,1,42.171,15.5h2.487a1.171,1.171,0,0,1,1.171,1.171v2.487A1.17,1.17,0,0,1,44.658,20.328Zm-2.487-3.658v2.487h2.487V16.671Z" transform="translate(-16.42 -5.053)"/><path class="a" d="M28.408,20.328H25.921a1.171,1.171,0,0,1-1.171-1.171V16.671A1.171,1.171,0,0,1,25.921,15.5h2.487a1.171,1.171,0,0,1,1.171,1.171v2.487A1.171,1.171,0,0,1,28.408,20.328Zm0-3.658H25.921v2.487h2.487Z" transform="translate(-9.578 -5.053)"/><path class="a" d="M44.658,32.7H42.171A1.171,1.171,0,0,1,41,31.533V29.046a1.171,1.171,0,0,1,1.171-1.171h2.487a1.171,1.171,0,0,1,1.171,1.171v2.487A1.171,1.171,0,0,1,44.658,32.7Zm-2.487-3.658v2.487h2.487V29.046Z" transform="translate(-16.42 -10.263)"/><path class="a" d="M28.408,32.7H25.921a1.171,1.171,0,0,1-1.171-1.171V29.046a1.171,1.171,0,0,1,1.171-1.171h2.487a1.171,1.171,0,0,1,1.171,1.171v2.487A1.171,1.171,0,0,1,28.408,32.7Zm0-3.658H25.921v2.487h2.487Z" transform="translate(-9.578 -10.263)"/><path class="a" d="M44.658,45.078H42.171A1.171,1.171,0,0,1,41,43.908V41.421a1.171,1.171,0,0,1,1.171-1.171h2.487a1.171,1.171,0,0,1,1.171,1.171v2.487A1.171,1.171,0,0,1,44.658,45.078Zm-2.487-3.658v2.487h2.487V41.421Z" transform="translate(-16.42 -15.474)"/><path class="a" d="M28.408,45.078H25.921a1.171,1.171,0,0,1-1.171-1.171V41.421a1.171,1.171,0,0,1,1.171-1.171h2.487a1.171,1.171,0,0,1,1.171,1.171v2.487A1.171,1.171,0,0,1,28.408,45.078Zm0-3.658H25.921v2.488h2.487Z" transform="translate(-9.578 -15.474)"/><path class="a" d="M37.644,63.035H30.377a.585.585,0,0,1-.585-.585V53.085a.585.585,0,0,1,.585-.585h7.267a.585.585,0,0,1,.585.585v9.364A.585.585,0,0,1,37.644,63.035Zm-6.681-1.171h6.1V53.67h-6.1Z" transform="translate(-11.72 -20.693)"/><path class="a" d="M62.937,33.545H61.109a1.171,1.171,0,0,1-1.171-1.171V30.546a1.171,1.171,0,0,1,1.171-1.171h1.828a1.171,1.171,0,0,1,1.171,1.171v1.829A1.171,1.171,0,0,1,62.937,33.545Zm-1.828-3v1.829h1.828V30.546Z" transform="translate(-24.417 -10.892)"/><path class="a" d="M62.937,46.107H61.109a1.171,1.171,0,0,1-1.171-1.171V43.109a1.171,1.171,0,0,1,1.171-1.171h1.828a1.17,1.17,0,0,1,1.171,1.171v1.828A1.17,1.17,0,0,1,62.937,46.107Zm-1.828-3v1.828h1.828V43.109Z" transform="translate(-24.417 -16.18)"/><path class="a" d="M62.937,58.67H61.109A1.171,1.171,0,0,1,59.938,57.5V55.671A1.17,1.17,0,0,1,61.109,54.5h1.828a1.17,1.17,0,0,1,1.171,1.171V57.5A1.171,1.171,0,0,1,62.937,58.67Zm-1.828-3V57.5h1.828V55.671Z" transform="translate(-24.417 -21.523)"/><path class="a" d="M9.937,33.545H8.109a1.171,1.171,0,0,1-1.171-1.171V30.546a1.171,1.171,0,0,1,1.171-1.171H9.937a1.171,1.171,0,0,1,1.171,1.171v1.829A1.171,1.171,0,0,1,9.937,33.545Zm-1.828-3v1.829H9.937V30.546Z" transform="translate(-2.048 -10.892)"/><path class="a" d="M9.937,46.107H8.109a1.171,1.171,0,0,1-1.171-1.171V43.109a1.171,1.171,0,0,1,1.171-1.171H9.937a1.171,1.171,0,0,1,1.171,1.171v1.828A1.171,1.171,0,0,1,9.937,46.107Zm-1.828-3v1.828H9.937V43.109Z" transform="translate(-2.048 -16.18)"/><path class="a" d="M9.937,58.67H8.109A1.171,1.171,0,0,1,6.938,57.5V55.671A1.17,1.17,0,0,1,8.109,54.5H9.937a1.17,1.17,0,0,1,1.171,1.171V57.5A1.171,1.171,0,0,1,9.937,58.67Zm-1.828-3V57.5H9.937V55.671Z" transform="translate(-2.048 -21.523)"/></g></svg>