<svg width="21" height="24" viewBox="0 0 21 24" fill="none" xmlns="http://www.w3.org/2000/svg">
<path d="M13.6514 16.5771H6.77295V12.4365H13.6514V16.5771ZM10.2122 13.8167C9.83228 13.8167 9.52431 14.1257 9.52431 14.5068C9.52431 14.8879 9.83228 15.1969 10.2122 15.1969C10.592 15.1969 10.9 14.8879 10.9 14.5068C10.9 14.1257 10.592 13.8167 10.2122 13.8167Z" fill="#C2C6D1"/>
<path d="M0.688034 2.77525C4.31071 2.77525 6.50374 2.09809 7.70558 1.53007C8.92939 0.951594 9.39107 0.369725 9.43271 0.314927C9.68262 -0.0774642 10.2295 -0.112407 10.5281 0.262193C10.5682 0.30704 11.1248 0.910782 12.4707 1.50921C13.7698 2.08676 16.0848 2.77529 19.736 2.77529C20.1159 2.77529 20.4238 3.08427 20.4238 3.46538V14.507C20.4238 17.3155 18.6526 19.7625 15.3016 21.5836C13.0247 22.8209 10.4827 23.4784 10.212 23.4784C9.97055 23.4784 7.45447 22.8509 5.12241 21.5835C1.77143 19.7624 0.000192642 17.3154 0.000192642 14.507V3.46534C0.000192642 3.08423 0.308115 2.77525 0.688034 2.77525ZM5.39709 17.2674C5.39709 17.6485 5.70506 17.9575 6.08493 17.9575H14.339C14.7189 17.9575 15.0269 17.6485 15.0269 17.2674V11.7466C15.0269 11.3655 14.7189 11.0565 14.339 11.0565H13.649V8.96317C13.649 7.13548 12.1942 5.53565 10.1912 5.53565C8.30749 5.53565 6.77493 7.07326 6.77493 8.96317C6.77493 9.34428 7.0829 9.65326 7.46277 9.65326C7.84265 9.65326 8.15062 9.34428 8.15062 8.96317C8.15062 7.88473 9.00042 6.91588 10.2328 6.91588C11.3579 6.91588 12.2734 7.83433 12.2734 8.96317V11.0565H6.08493C5.70506 11.0565 5.39709 11.3655 5.39709 11.7466V17.2674Z" fill="#C2C6D1"/>
</svg>
