<svg width="24" height="22" viewBox="0 0 24 22" fill="none" xmlns="http://www.w3.org/2000/svg">
<path d="M10.8 4.8V1.2C10.8 0.88174 10.9264 0.576515 11.1515 0.351472C11.3765 0.126428 11.6817 0 12 0H22.8C23.1183 0 23.4235 0.126428 23.6485 0.351472C23.8736 0.576515 24 0.88174 24 1.2V20.4C24 20.7183 23.8736 21.0235 23.6485 21.2485C23.4235 21.4736 23.1183 21.6 22.8 21.6H1.2C0.88174 21.6 0.576515 21.4736 0.351472 21.2485C0.126428 21.0235 0 20.7183 0 20.4V6C0 5.68174 0.126428 5.37652 0.351472 5.15147C0.576515 4.92643 0.88174 4.8 1.2 4.8H10.8ZM3.6 15.6V18H9.6V15.6H3.6ZM14.4 15.6V18H20.4V15.6H14.4ZM14.4 12V14.4H20.4V12H14.4ZM14.4 8.4V10.8H20.4V8.4H14.4ZM3.6 12V14.4H9.6V12H3.6Z" fill="white"/>
</svg>
