<svg width="22" height="22" viewBox="0 0 22 22" fill="none" xmlns="http://www.w3.org/2000/svg">
<path d="M0.306167 7.7002C0.115133 7.97153 0 8.2997 0 8.65646V12.9769C0 13.909 0.7579 14.6669 1.6896 14.6669H10.6333V17.6372C9.91613 17.7835 9.35 18.3497 9.2037 19.0669H0.366667C0.164267 19.0669 0 19.2308 0 19.4335C0 19.6363 0.164267 19.8002 0.366667 19.8002H9.2037C9.3742 20.6358 10.1145 21.2669 11 21.2669C11.8855 21.2669 12.6258 20.6358 12.7963 19.8002H21.6333C21.8357 19.8002 22 19.6363 22 19.4335C22 19.2308 21.8357 19.0669 21.6333 19.0669H12.7963C12.65 18.3497 12.0839 17.7835 11.3667 17.6372V14.6669H20.3104C21.2421 14.6669 22 13.909 22 12.9773V8.65646C22 8.29933 21.8849 7.97153 21.6938 7.7002H0.306167ZM3.85 12.4669C2.9403 12.4669 2.2 11.7266 2.2 10.8169C2.2 9.90716 2.9403 9.16686 3.85 9.16686C4.7597 9.16686 5.5 9.90716 5.5 10.8169C5.5 11.7266 4.7597 12.4669 3.85 12.4669ZM12.1 19.4335C12.1 20.04 11.6065 20.5335 11 20.5335C10.3935 20.5335 9.9 20.04 9.9 19.4335C9.9 18.8271 10.3935 18.3335 11 18.3335C11.6065 18.3335 12.1 18.8271 12.1 19.4335ZM12.4667 10.6335C12.2643 10.6335 12.1 10.4693 12.1 10.2669C12.1 10.0645 12.2643 9.9002 12.4667 9.9002C12.6691 9.9002 12.8333 10.0645 12.8333 10.2669C12.8333 10.4693 12.6691 10.6335 12.4667 10.6335ZM13.2 11.7335C12.9976 11.7335 12.8333 11.5693 12.8333 11.3669C12.8333 11.1645 12.9976 11.0002 13.2 11.0002C13.4024 11.0002 13.5667 11.1645 13.5667 11.3669C13.5667 11.5693 13.4024 11.7335 13.2 11.7335ZM13.9333 10.6335C13.7309 10.6335 13.5667 10.4693 13.5667 10.2669C13.5667 10.0645 13.7309 9.9002 13.9333 9.9002C14.1357 9.9002 14.3 10.0645 14.3 10.2669C14.3 10.4693 14.1357 10.6335 13.9333 10.6335ZM14.6667 11.7335C14.4643 11.7335 14.3 11.5693 14.3 11.3669C14.3 11.1645 14.4643 11.0002 14.6667 11.0002C14.8691 11.0002 15.0333 11.1645 15.0333 11.3669C15.0333 11.5693 14.8691 11.7335 14.6667 11.7335ZM15.4 10.6335C15.1976 10.6335 15.0333 10.4693 15.0333 10.2669C15.0333 10.0645 15.1976 9.9002 15.4 9.9002C15.6024 9.9002 15.7667 10.0645 15.7667 10.2669C15.7667 10.4693 15.6024 10.6335 15.4 10.6335ZM16.1333 11.7335C15.9309 11.7335 15.7667 11.5693 15.7667 11.3669C15.7667 11.1645 15.9309 11.0002 16.1333 11.0002C16.3357 11.0002 16.5 11.1645 16.5 11.3669C16.5 11.5693 16.3357 11.7335 16.1333 11.7335ZM16.8667 10.6335C16.6643 10.6335 16.5 10.4693 16.5 10.2669C16.5 10.0645 16.6643 9.9002 16.8667 9.9002C17.0691 9.9002 17.2333 10.0645 17.2333 10.2669C17.2333 10.4693 17.0691 10.6335 16.8667 10.6335ZM17.6 11.7335C17.3976 11.7335 17.2333 11.5693 17.2333 11.3669C17.2333 11.1645 17.3976 11.0002 17.6 11.0002C17.8024 11.0002 17.9667 11.1645 17.9667 11.3669C17.9667 11.5693 17.8024 11.7335 17.6 11.7335ZM18.3333 10.6335C18.1309 10.6335 17.9667 10.4693 17.9667 10.2669C17.9667 10.0645 18.1309 9.9002 18.3333 9.9002C18.5357 9.9002 18.7 10.0645 18.7 10.2669C18.7 10.4693 18.5357 10.6335 18.3333 10.6335ZM19.0667 11.7335C18.8643 11.7335 18.7 11.5693 18.7 11.3669C18.7 11.1645 18.8643 11.0002 19.0667 11.0002C19.2691 11.0002 19.4333 11.1645 19.4333 11.3669C19.4333 11.5693 19.2691 11.7335 19.0667 11.7335Z" fill="#C2C6D1"/>
<path d="M20.3104 0H1.6896C0.7579 0 0 0.7579 0 1.6896V6.01003C0 6.36717 0.115133 6.69533 0.306167 6.96667H21.6935C21.8849 6.69533 22 6.36717 22 6.0104V1.6896C22 0.7579 21.2421 0 20.3104 0ZM3.85 5.5C2.9403 5.5 2.2 4.7597 2.2 3.85C2.2 2.9403 2.9403 2.2 3.85 2.2C4.7597 2.2 5.5 2.9403 5.5 3.85C5.5 4.7597 4.7597 5.5 3.85 5.5ZM12.4667 3.66667C12.2643 3.66667 12.1 3.5024 12.1 3.3C12.1 3.0976 12.2643 2.93333 12.4667 2.93333C12.6691 2.93333 12.8333 3.0976 12.8333 3.3C12.8333 3.5024 12.6691 3.66667 12.4667 3.66667ZM13.2 4.76667C12.9976 4.76667 12.8333 4.6024 12.8333 4.4C12.8333 4.1976 12.9976 4.03333 13.2 4.03333C13.4024 4.03333 13.5667 4.1976 13.5667 4.4C13.5667 4.6024 13.4024 4.76667 13.2 4.76667ZM13.9333 3.66667C13.7309 3.66667 13.5667 3.5024 13.5667 3.3C13.5667 3.0976 13.7309 2.93333 13.9333 2.93333C14.1357 2.93333 14.3 3.0976 14.3 3.3C14.3 3.5024 14.1357 3.66667 13.9333 3.66667ZM14.6667 4.76667C14.4643 4.76667 14.3 4.6024 14.3 4.4C14.3 4.1976 14.4643 4.03333 14.6667 4.03333C14.8691 4.03333 15.0333 4.1976 15.0333 4.4C15.0333 4.6024 14.8691 4.76667 14.6667 4.76667ZM15.4 3.66667C15.1976 3.66667 15.0333 3.5024 15.0333 3.3C15.0333 3.0976 15.1976 2.93333 15.4 2.93333C15.6024 2.93333 15.7667 3.0976 15.7667 3.3C15.7667 3.5024 15.6024 3.66667 15.4 3.66667ZM16.1333 4.76667C15.9309 4.76667 15.7667 4.6024 15.7667 4.4C15.7667 4.1976 15.9309 4.03333 16.1333 4.03333C16.3357 4.03333 16.5 4.1976 16.5 4.4C16.5 4.6024 16.3357 4.76667 16.1333 4.76667ZM16.8667 3.66667C16.6643 3.66667 16.5 3.5024 16.5 3.3C16.5 3.0976 16.6643 2.93333 16.8667 2.93333C17.0691 2.93333 17.2333 3.0976 17.2333 3.3C17.2333 3.5024 17.0691 3.66667 16.8667 3.66667ZM17.6 4.76667C17.3976 4.76667 17.2333 4.6024 17.2333 4.4C17.2333 4.1976 17.3976 4.03333 17.6 4.03333C17.8024 4.03333 17.9667 4.1976 17.9667 4.4C17.9667 4.6024 17.8024 4.76667 17.6 4.76667ZM18.3333 3.66667C18.1309 3.66667 17.9667 3.5024 17.9667 3.3C17.9667 3.0976 18.1309 2.93333 18.3333 2.93333C18.5357 2.93333 18.7 3.0976 18.7 3.3C18.7 3.5024 18.5357 3.66667 18.3333 3.66667ZM19.0667 4.76667C18.8643 4.76667 18.7 4.6024 18.7 4.4C18.7 4.1976 18.8643 4.03333 19.0667 4.03333C19.2691 4.03333 19.4333 4.1976 19.4333 4.4C19.4333 4.6024 19.2691 4.76667 19.0667 4.76667Z" fill="#C2C6D1"/>
</svg>
