<svg width="17" height="17" viewBox="0 0 17 17" fill="none" xmlns="http://www.w3.org/2000/svg">
<path d="M13.2742 12.1553L16.6649 15.5452L15.5447 16.6654L12.1548 13.2747C10.8935 14.2858 9.32459 14.8358 7.70801 14.8335C3.77501 14.8335 0.583008 11.6415 0.583008 7.7085C0.583008 3.7755 3.77501 0.583496 7.70801 0.583496C11.641 0.583496 14.833 3.7755 14.833 7.7085C14.8353 9.32508 14.2853 10.894 13.2742 12.1553ZM11.6861 11.5679C12.6908 10.5347 13.2519 9.14967 13.2497 7.7085C13.2497 4.64633 10.7694 2.16683 7.70801 2.16683C4.64584 2.16683 2.16634 4.64633 2.16634 7.7085C2.16634 10.7699 4.64584 13.2502 7.70801 13.2502C9.14918 13.2524 10.5342 12.6913 11.5674 11.6866L11.6861 11.5679Z" fill="#C2C6D1"/>
</svg>
