<svg width="81" height="90" viewBox="0 0 81 90" fill="none" xmlns="http://www.w3.org/2000/svg"><path d="M71.8432 49.1103H9.33928V80.3622H71.8432V49.1103ZM71.8432 40.1811C71.8432 31.8926 68.5506 23.9435 62.6897 18.0827C56.8288 12.2218 48.8798 8.92918 40.5912 8.92918C32.3027 8.92918 24.3536 12.2218 18.4928 18.0827C12.6319 23.9435 9.33928 31.8926 9.33928 40.1811H71.8432ZM15.5093 8.78631C22.6247 3.08536 31.4737 -0.0144869 40.5912 5.09032e-05C50.0784 5.09032e-05 58.7977 3.28597 65.6732 8.78631L72.1602 2.2993L78.4731 8.6122L71.986 15.0992C77.687 22.2146 80.7868 31.0636 80.7723 40.1811V84.8268C80.7723 86.0108 80.3019 87.1464 79.4647 87.9837C78.6274 88.821 77.4918 89.2913 76.3077 89.2913H4.87472C3.69064 89.2913 2.55506 88.821 1.7178 87.9837C0.880528 87.1464 0.410156 86.0108 0.410156 84.8268V40.1811C0.410156 30.6939 3.69608 21.9746 9.19642 15.0992L2.70941 8.61666L9.0223 2.30377L15.5093 8.79078V8.78631ZM27.1975 31.252C26.0135 31.252 24.8779 30.7816 24.0406 29.9444C23.2034 29.1071 22.733 27.9715 22.733 26.7874C22.733 25.6034 23.2034 24.4678 24.0406 23.6305C24.8779 22.7932 26.0135 22.3229 27.1975 22.3229C28.3816 22.3229 29.5172 22.7932 30.3545 23.6305C31.1917 24.4678 31.6621 25.6034 31.6621 26.7874C31.6621 27.9715 31.1917 29.1071 30.3545 29.9444C29.5172 30.7816 28.3816 31.252 27.1975 31.252ZM53.9849 31.252C52.8009 31.252 51.6653 30.7816 50.828 29.9444C49.9907 29.1071 49.5204 27.9715 49.5204 26.7874C49.5204 25.6034 49.9907 24.4678 50.828 23.6305C51.6653 22.7932 52.8009 22.3229 53.9849 22.3229C55.169 22.3229 56.3046 22.7932 57.1418 23.6305C57.9791 24.4678 58.4495 25.6034 58.4495 26.7874C58.4495 27.9715 57.9791 29.1071 57.1418 29.9444C56.3046 30.7816 55.169 31.252 53.9849 31.252Z" fill="rgb(133 137 151)"/></svg>