<svg width="11" height="11" viewBox="0 0 11 11" fill="none" xmlns="http://www.w3.org/2000/svg">
<path d="M5.5 0C2.46272 0 0 2.46272 0 5.5C0 8.53728 2.46272 11 5.5 11C8.53728 11 11 8.53728 11 5.5C11 2.46272 8.53728 0 5.5 0ZM5.5 10.067C2.97835 10.067 0.933036 8.02165 0.933036 5.5C0.933036 2.97835 2.97835 0.933036 5.5 0.933036C8.02165 0.933036 10.067 2.97835 10.067 5.5C10.067 8.02165 8.02165 10.067 5.5 10.067Z" fill="#8692A6"/>
<path d="M6.87051 3.10123C6.5022 2.77835 6.01604 2.60156 5.50042 2.60156C4.98479 2.60156 4.49863 2.77958 4.13033 3.10123C3.74729 3.43638 3.53613 3.88694 3.53613 4.36942V4.46272C3.53613 4.51674 3.58033 4.56094 3.63435 4.56094H4.22363C4.27765 4.56094 4.32185 4.51674 4.32185 4.46272V4.36942C4.32185 3.82801 4.85098 3.38728 5.50042 3.38728C6.14986 3.38728 6.67899 3.82801 6.67899 4.36942C6.67899 4.75123 6.4089 5.10112 5.99026 5.26194C5.72999 5.36138 5.50901 5.53571 5.35064 5.76406C5.18982 5.99732 5.10633 6.27723 5.10633 6.56083V6.82478C5.10633 6.87879 5.15053 6.92299 5.20455 6.92299H5.79383C5.84785 6.92299 5.89205 6.87879 5.89205 6.82478V6.54609C5.89268 6.42691 5.92922 6.31069 5.99689 6.21258C6.06456 6.11447 6.16022 6.03903 6.2714 5.99609C6.99573 5.71741 7.46348 5.07902 7.46348 4.36942C7.4647 3.88694 7.25354 3.43638 6.87051 3.10123ZM5.00935 8.19978C5.00935 8.33002 5.06108 8.45492 5.15318 8.54702C5.24527 8.63911 5.37018 8.69085 5.50042 8.69085C5.63066 8.69085 5.75556 8.63911 5.84766 8.54702C5.93975 8.45492 5.99149 8.33002 5.99149 8.19978C5.99149 8.06954 5.93975 7.94463 5.84766 7.85254C5.75556 7.76044 5.63066 7.70871 5.50042 7.70871C5.37018 7.70871 5.24527 7.76044 5.15318 7.85254C5.06108 7.94463 5.00935 8.06954 5.00935 8.19978Z" fill="#8692A6"/>
</svg>
