<svg width="50" height="50" viewBox="0 0 50 50" fill="none" xmlns="http://www.w3.org/2000/svg">
<path d="M26.6582 32.9143H39.9874C40.4872 32.9143 40.8204 32.5812 40.8204 32.0813V24.5836C40.8204 24.0838 40.4872 23.7506 39.9874 23.7506H26.6582C26.1584 23.7506 25.8252 24.0838 25.8252 24.5836V32.0813C25.8251 32.5811 26.1584 32.9143 26.6582 32.9143ZM27.4913 25.4167H39.1543V31.2482H27.4913V25.4167Z" fill="white"/>
<path d="M4.16507 22.0843H10.8297C11.3295 22.0843 11.6627 21.7511 11.6627 21.2513C11.6627 20.7514 11.3295 20.4182 10.8297 20.4182H4.16507C3.66523 20.4182 3.33203 20.7514 3.33203 21.2513C3.33203 21.7511 3.66523 22.0843 4.16507 22.0843Z" fill="white"/>
<path d="M14.1621 22.0843H20.8268C21.3266 22.0843 21.6598 21.7511 21.6598 21.2513C21.6598 20.7514 21.3266 20.4182 20.8268 20.4182H14.1621C13.6623 20.4182 13.3291 20.7514 13.3291 21.2513C13.3291 21.7511 13.6623 22.0843 14.1621 22.0843Z" fill="white"/>
<path d="M4.16507 25.4167H14.995C15.4948 25.4167 15.828 25.0835 15.828 24.5836C15.828 24.0838 15.4948 23.7506 14.995 23.7506H4.16507C3.66523 23.7506 3.33203 24.0838 3.33203 24.5836C3.33203 25.0835 3.66523 25.4167 4.16507 25.4167Z" fill="white"/>
<path d="M20.8264 23.7505H18.3272C17.8273 23.7505 17.4941 24.0837 17.4941 24.5835C17.4941 25.0834 17.8273 25.4166 18.3272 25.4166H20.8264C21.3262 25.4166 21.6594 25.0834 21.6594 24.5835C21.6594 24.0837 21.3262 23.7505 20.8264 23.7505Z" fill="white"/>
<path d="M49.2346 13.4204C48.6515 12.6706 47.9017 12.254 46.9853 12.1708L44.9859 11.9285V9.58818V7.9221C44.9859 6.08938 43.4864 4.58984 41.6537 4.58984H3.33226C1.49953 4.58975 0 6.08928 0 7.9221V9.58828V16.2529V34.5805C0 36.0852 1.01111 37.3646 2.38724 37.7746C2.34526 39.4598 3.62035 40.9228 5.33173 41.0784L43.8197 45.4104C43.903 45.4104 44.0696 45.4104 44.1529 45.4104C45.8191 45.4104 47.3186 44.1608 47.4852 42.578L49.9844 15.8363C50.0677 15.0032 49.8177 14.0868 49.2346 13.4204ZM1.66618 10.4213H43.3199V12.5873V15.4198H1.66618V10.4213ZM3.33226 6.25592H41.6536C42.57 6.25592 43.3198 7.00569 43.3198 7.9221V8.75514H1.66618V7.9221C1.66618 7.00569 2.41594 6.25592 3.33226 6.25592ZM1.66618 34.5804V17.0858H43.3199V34.5804C43.3199 35.4968 42.5701 36.2465 41.6537 36.2465H3.41563H3.33236C2.41594 36.2465 1.66618 35.4968 1.66618 34.5804ZM48.3182 15.503L45.819 42.2447C45.7357 43.1611 44.9026 43.8275 43.9863 43.7442L5.58156 39.4123C4.74852 39.329 4.1653 38.6625 4.08203 37.9127H41.6536C43.4863 37.9127 44.9858 36.4132 44.9858 34.5805V16.2528V13.5037L46.9019 13.6703C47.3185 13.6703 47.735 13.9202 47.9849 14.2534C48.2349 14.5866 48.4016 15.0865 48.3182 15.503Z" fill="white"/>
</svg>
