<svg width="50" height="50" viewBox="0 0 50 50" fill="none" xmlns="http://www.w3.org/2000/svg">
<path fill-rule="evenodd" clip-rule="evenodd" d="M49.8813 27.4514L47.9673 27.2651C48.0398 26.5204 48.0769 25.7648 48.0769 25C48.0769 24.2352 48.0398 23.4796 47.9673 22.7349L49.8813 22.5486C49.9598 23.3551 50 24.1729 50 25C50 25.8271 49.9598 26.6449 49.8813 27.4514ZM48.9297 17.7404L47.0892 18.298C46.6474 16.8396 46.0648 15.442 45.3573 14.121L47.0525 13.213C47.8192 14.6445 48.4506 16.1593 48.9297 17.7404ZM44.326 9.13992C43.2865 7.87476 42.1252 6.71348 40.8601 5.674L39.6393 7.15987C40.8076 8.11984 41.8802 9.19235 42.8401 10.3607L44.326 9.13992ZM36.787 2.94753L35.879 4.64275C34.558 3.93516 33.1604 3.35265 31.702 2.91079L32.2596 1.07033C33.8407 1.54935 35.3555 2.18078 36.787 2.94753ZM27.4514 0.118658L27.2651 2.03269C26.5204 1.96022 25.7648 1.92308 25 1.92308C24.2352 1.92308 23.4796 1.96022 22.7349 2.03269L22.5486 0.118658C23.3551 0.0401675 24.1729 0 25 0C25.8271 0 26.6449 0.0401675 27.4514 0.118658ZM17.7404 1.07033L18.298 2.91079C16.8396 3.35265 15.442 3.93516 14.121 4.64275L13.213 2.94753C14.6445 2.18078 16.1593 1.54935 17.7404 1.07033ZM9.13992 5.674L10.3607 7.15987C9.19235 8.11984 8.11984 9.19236 7.15987 10.3607L5.674 9.13992C6.71348 7.87476 7.87476 6.71348 9.13992 5.674ZM2.94753 13.213L4.64275 14.121C3.93516 15.442 3.35265 16.8396 2.91079 18.298L1.07033 17.7404C1.54935 16.1593 2.18078 14.6445 2.94753 13.213ZM0.118658 22.5486C0.0401675 23.3551 0 24.1729 0 25C0 25.8271 0.0401675 26.6449 0.118658 27.4514L2.03269 27.2651C1.96022 26.5204 1.92308 25.7648 1.92308 25C1.92308 24.2352 1.96022 23.4796 2.03269 22.7349L0.118658 22.5486ZM1.07033 32.2596L2.91079 31.702C3.35265 33.1604 3.93516 34.558 4.64275 35.879L2.94753 36.787C2.18078 35.3555 1.54935 33.8407 1.07033 32.2596ZM5.674 40.8601L7.15987 39.6393C8.11984 40.8076 9.19236 41.8802 10.3607 42.8401L9.13992 44.326C7.87476 43.2865 6.71348 42.1252 5.674 40.8601ZM13.213 47.0525L14.121 45.3573C15.442 46.0648 16.8396 46.6474 18.298 47.0892L17.7404 48.9297C16.1593 48.4506 14.6445 47.8192 13.213 47.0525ZM22.5486 49.8813L22.7349 47.9673C23.4796 48.0398 24.2352 48.0769 25 48.0769C25.7648 48.0769 26.5204 48.0398 27.2651 47.9673L27.4514 49.8813C26.6449 49.9598 25.8271 50 25 50C24.1729 50 23.3551 49.9598 22.5486 49.8813ZM32.2596 48.9297L31.702 47.0892C33.1604 46.6474 34.558 46.0648 35.879 45.3573L36.787 47.0525C35.3555 47.8192 33.8407 48.4506 32.2596 48.9297ZM40.8601 44.326L39.6393 42.8401C40.8076 41.8802 41.8802 40.8076 42.8401 39.6393L44.326 40.8601C43.2865 42.1252 42.1252 43.2865 40.8601 44.326ZM47.0525 36.787L45.3573 35.879C46.0648 34.558 46.6474 33.1604 47.0892 31.702L48.9297 32.2596C48.4506 33.8407 47.8192 35.3555 47.0525 36.787Z" fill="#5351FB"/>
<path d="M34.5625 23.5H25.9375V14.5C25.9375 14.1022 25.786 13.7206 25.5165 13.4393C25.2469 13.158 24.8812 13 24.5 13C24.1188 13 23.7531 13.158 23.4835 13.4393C23.214 13.7206 23.0625 14.1022 23.0625 14.5V23.5H14.4375C14.0563 23.5 13.6906 23.658 13.421 23.9393C13.1515 24.2206 13 24.6022 13 25C13 25.3978 13.1515 25.7794 13.421 26.0607C13.6906 26.342 14.0563 26.5 14.4375 26.5H23.0625V35.5C23.0625 35.8978 23.214 36.2794 23.4835 36.5607C23.7531 36.842 24.1188 37 24.5 37C24.8812 37 25.2469 36.842 25.5165 36.5607C25.786 36.2794 25.9375 35.8978 25.9375 35.5V26.5H34.5625C34.9437 26.5 35.3094 26.342 35.579 26.0607C35.8486 25.7794 36 25.3978 36 25C36 24.6022 35.8486 24.2206 35.579 23.9393C35.3094 23.658 34.9437 23.5 34.5625 23.5Z" fill="#5351FB"/>
</svg>
