<svg width="24" height="22" viewBox="0 0 24 22" fill="none" xmlns="http://www.w3.org/2000/svg"><path d="M1.16667 0.5H22.1667C22.4761 0.5 22.7728 0.622916 22.9916 0.841709C23.2104 1.0605 23.3333 1.35725 23.3333 1.66667V20.3333C23.3333 20.6428 23.2104 20.9395 22.9916 21.1583C22.7728 21.3771 22.4761 21.5 22.1667 21.5H1.16667C0.857247 21.5 0.560501 21.3771 0.341709 21.1583C0.122916 20.9395 0 20.6428 0 20.3333V1.66667C0 1.35725 0.122916 1.0605 0.341709 0.841709C0.560501 0.622916 0.857247 0.5 1.16667 0.5ZM11.7367 10.6302L4.256 4.27767L2.74517 6.05567L11.7518 13.7032L20.5963 6.04983L19.0703 4.28467L11.7378 10.6302H11.7367Z" fill="#A2A2A2"/></svg>