<svg width="44" height="54" viewBox="0 0 44 54" fill="none" xmlns="http://www.w3.org/2000/svg">
<path fill-rule="evenodd" clip-rule="evenodd" d="M27.0344 2.76021C23.9985 4.97672 22.2127 7.89705 22.0657 11.7208C22.0657 11.7764 22.068 11.8332 22.0703 11.8904C22.075 12.006 22.0797 12.1231 22.0657 12.2355C22.0026 12.7292 22.2127 12.8553 22.6854 12.8553C24.4502 12.8763 26.1205 12.4351 27.5281 11.4056C31.0157 8.86349 32.8225 5.41792 32.791 1.04794C32.791 0.648755 32.686 0.533203 32.2763 0.606736C30.3749 0.953393 28.5996 1.60469 27.0344 2.76021ZM19.3449 14.8932C17.5696 14.1684 15.7628 13.4856 14.6913 13.5066C9.51246 13.6011 6.16144 15.4605 3.6613 18.843C1.93852 21.1751 1.06662 23.8643 0.751479 26.7321C0.404822 29.8415 0.70946 32.9089 1.43429 35.9448C2.20114 39.1593 3.35666 42.2266 5.01642 45.0944C6.55012 47.7522 8.35694 50.1893 10.6995 52.1852C11.876 53.1936 13.2417 53.7294 14.8069 53.5613C15.8889 53.4457 16.9288 53.1726 17.9373 52.7419C20.7211 51.5549 23.5468 51.0086 26.5092 52.0381C26.933 52.1834 27.3506 52.3473 27.7685 52.5114C28.4384 52.7743 29.1091 53.0376 29.8077 53.2251C32.4129 53.929 34.6399 53.3512 36.5518 51.4498C37.182 50.8301 37.7493 50.1683 38.3061 49.4959C40.6276 46.6702 42.3819 43.5292 43.6215 40.0837C43.7685 39.6845 43.7055 39.5164 43.3168 39.3273C40.8587 38.1403 38.9784 36.344 37.7913 33.8648C35.2492 28.5494 37.0035 22.131 41.8882 18.9165C42.3294 18.6224 42.3189 18.4123 42.0247 18.0341C41.1634 16.9101 40.0919 16.0277 38.8838 15.2924C36.4362 13.8217 33.81 13.1494 30.9527 13.4436C29.0934 13.6326 27.3391 14.2104 25.6163 14.9142C22.7065 16.1118 22.2548 16.0592 19.3449 14.8932Z" fill="#D8D8D8"/>
</svg>
