<svg width="20" height="20" viewBox="0 0 20 20" fill="none" xmlns="http://www.w3.org/2000/svg">
<path d="M14.5835 4.50016H19.1668V6.3335H17.3335V18.2502C17.3335 18.4933 17.2369 18.7264 17.065 18.8983C16.8931 19.0703 16.6599 19.1668 16.4168 19.1668H3.5835C3.34038 19.1668 3.10722 19.0703 2.93532 18.8983C2.76341 18.7264 2.66683 18.4933 2.66683 18.2502V6.3335H0.833496V4.50016H5.41683V1.75016C5.41683 1.50705 5.51341 1.27389 5.68532 1.10198C5.85722 0.930073 6.09038 0.833496 6.3335 0.833496H13.6668C13.9099 0.833496 14.1431 0.930073 14.315 1.10198C14.4869 1.27389 14.5835 1.50705 14.5835 1.75016V4.50016ZM15.5002 6.3335H4.50016V17.3335H15.5002V6.3335ZM7.25016 9.0835H9.0835V14.5835H7.25016V9.0835ZM10.9168 9.0835H12.7502V14.5835H10.9168V9.0835ZM7.25016 2.66683V4.50016H12.7502V2.66683H7.25016Z" fill="#5251FC"/>
</svg>
