<svg width="28" height="24" viewBox="0 0 28 24" fill="none" xmlns="http://www.w3.org/2000/svg">
<path d="M15.5312 9H13.4219C13 9 12.6719 9.375 12.6719 9.75C12.6719 9.79688 12.6719 9.84375 12.6719 9.84375L13.2812 15.8438C13.3281 16.2188 13.6562 16.5 14.0312 16.5H14.9219C15.2969 16.5 15.625 16.2188 15.6719 15.8438L16.2812 9.84375C16.2812 9.84375 16.2812 9.79688 16.2812 9.75C16.2812 9.375 15.9531 9.04688 15.5312 9ZM14.5 18C13.6562 18 13 18.7031 13 19.5C13 20.3438 13.6562 21 14.5 21C15.2969 21 16 20.3438 16 19.5C16 18.7031 15.2969 18 14.5 18Z" fill="#BD3535"/>
<path opacity="0.24" d="M27.6719 20.625L16.4219 1.125C15.5781 -0.375 13.375 -0.375 12.5312 1.125L1.28125 20.625C0.4375 22.125 1.51562 24 3.25 24H25.7031C27.4375 24 28.5625 22.125 27.6719 20.625ZM14.5 21C13.6562 21 13 20.3438 13 19.5C13 18.7031 13.6562 18 14.5 18C15.2969 18 16 18.7031 16 19.5C16 20.3438 15.2969 21 14.5 21ZM16.2812 9.84375L15.6719 15.8438C15.625 16.2188 15.2969 16.5 14.9219 16.5H14.0312C13.6562 16.5 13.3281 16.2188 13.2812 15.8438L12.6719 9.84375C12.6719 9.84375 12.6719 9.79688 12.6719 9.75C12.6719 9.375 13 9.04688 13.4219 9H15.5312C15.9531 9 16.2812 9.375 16.2812 9.75C16.2812 9.79688 16.2812 9.84375 16.2812 9.84375Z" fill="#BD3535"/>
</svg>
