<svg width="19" height="26" viewBox="0 0 19 26" fill="none" xmlns="http://www.w3.org/2000/svg">
<path d="M12.9156 20.8289H6.69387C6.29282 20.8289 5.96777 21.1539 5.96777 21.555C5.96777 23.6707 7.68904 25.3919 9.80474 25.3919C11.9204 25.3919 13.6419 23.6707 13.6419 21.555C13.6417 21.1539 13.3167 20.8289 12.9156 20.8289Z" fill="#FF9F00"/>
<path d="M13.6417 21.555C13.6417 21.1539 13.3166 20.8289 12.9156 20.8289H9.80469V25.3919C11.9204 25.3919 13.6417 23.6707 13.6417 21.555Z" fill="#FF641A"/>
<path d="M9.80497 0.60791C8.54697 0.60791 7.52344 1.63144 7.52344 2.88944C7.52344 4.14744 8.54697 5.17097 9.80497 5.17097C11.063 5.17097 12.0867 4.14744 12.0867 2.88944C12.0865 1.63144 11.063 0.60791 9.80497 0.60791Z" fill="#FF9F00"/>
<path d="M12.0862 2.88944C12.0862 1.63144 11.0629 0.60791 9.80469 0.60791V5.17097C11.0629 5.17097 12.0862 4.14744 12.0862 2.88944Z" fill="#FF641A"/>
<path d="M17.4444 17.8364V11.3581C17.4444 11.064 17.4274 10.7676 17.3941 10.4766C17.3484 10.0781 16.9887 9.79206 16.59 9.83801C16.4858 9.84992 16.3895 9.88376 16.3044 9.93387L14.2029 6.36541C14.2874 6.31568 14.3633 6.24836 14.4241 6.16365C14.6582 5.83804 14.5839 5.38423 14.2583 5.15033C12.9547 4.21378 11.415 3.71875 9.80512 3.71875C5.59281 3.71875 2.16598 7.14577 2.16598 11.3579V17.8362C1.2627 18.1403 0.610352 18.9951 0.610352 19.9996C0.610352 21.2576 1.63388 22.2811 2.89207 22.2811H16.7183C17.9764 22.2811 18.9999 21.2576 18.9999 19.9996C18.9999 18.9951 18.3477 18.1403 17.4444 17.8364Z" fill="#FFD400"/>
<path d="M17.444 17.8364V11.3581C17.444 11.064 17.427 10.7676 17.3937 10.4766C17.348 10.0781 16.9883 9.79206 16.5895 9.83801C16.4853 9.84992 16.3891 9.88376 16.304 9.93387L14.2025 6.36541C14.287 6.31568 14.3628 6.24836 14.4237 6.16365C14.6578 5.83804 14.5835 5.38423 14.2579 5.15033C12.9543 4.21378 11.4146 3.71875 9.80469 3.71875V22.2811H16.7179C17.9759 22.2811 18.9995 21.2576 18.9995 19.9996C18.9995 18.9951 18.3473 18.1403 17.444 17.8364Z" fill="#FF9F04"/>
</svg>
