<svg width="105" height="105" viewBox="0 0 105 105" fill="none" xmlns="http://www.w3.org/2000/svg">
<g filter="url(#filter0_d)">
<rect x="20" y="10" width="64.424" height="64.424" rx="32.212" fill="#FF6332"/>
</g>
<path d="M48.1373 39.8738C45.7071 38.5149 44.0602 35.9161 44.0602 32.9395C44.0602 28.5616 47.6218 25 51.9997 25C56.3775 25 59.9391 28.5616 59.9391 32.9395C59.9391 35.9161 58.2922 38.5149 55.8621 39.8738C59.6292 41.4046 62.2926 45.1038 62.2926 49.414V51.7676C62.2926 53.5499 60.8426 55 59.0602 55H44.9391C43.1568 55 41.7067 53.5499 41.7067 51.7676V49.414C41.7067 45.1038 44.3701 41.4046 48.1373 39.8738ZM52.8786 45.0626L55.6286 41.69C54.7788 41.2891 53.8528 41.024 52.8786 40.9239V45.0626ZM51.1208 40.9239C50.1465 41.024 49.2206 41.2891 48.3708 41.69L51.1208 45.0626V40.9239ZM58.1813 32.9395C58.1813 29.5309 55.4082 26.7578 51.9997 26.7578C48.5911 26.7578 45.818 29.5309 45.818 32.9395C45.818 36.348 48.5911 39.1211 51.9997 39.1211C55.4082 39.1211 58.1813 36.348 58.1813 32.9395ZM60.5348 51.7676V49.414C60.5348 46.6393 59.2035 44.1698 57.1464 42.61L52.8786 47.8441V53.2422H59.0602C59.8733 53.2422 60.5348 52.5807 60.5348 51.7676ZM43.4646 51.7676C43.4646 52.5807 44.126 53.2422 44.9391 53.2422H51.1208V47.8441L46.8529 42.61C44.7959 44.1698 43.4646 46.6393 43.4646 49.414V51.7676Z" fill="white"/>
<defs>
<filter id="filter0_d" x="0" y="0" width="104.424" height="104.424" filterUnits="userSpaceOnUse" color-interpolation-filters="sRGB">
<feFlood flood-opacity="0" result="BackgroundImageFix"/>
<feColorMatrix in="SourceAlpha" type="matrix" values="0 0 0 0 0 0 0 0 0 0 0 0 0 0 0 0 0 0 127 0"/>
<feOffset dy="10"/>
<feGaussianBlur stdDeviation="10"/>
<feColorMatrix type="matrix" values="0 0 0 0 0 0 0 0 0 0 0 0 0 0 0 0 0 0 0.3 0"/>
<feBlend mode="normal" in2="BackgroundImageFix" result="effect1_dropShadow"/>
<feBlend mode="normal" in="SourceGraphic" in2="effect1_dropShadow" result="shape"/>
</filter>
</defs>
</svg>
