<svg width="28" height="28" viewBox="0 0 28 28" fill="none" xmlns="http://www.w3.org/2000/svg">
<path d="M20.9363 16.7437L20.3498 17.3302L18.8948 15.7749C20.6169 13.2576 21.0315 10.1084 20.1381 7.28675L21.2925 6.15783C21.4956 6.26754 21.7278 6.32988 21.9744 6.32988C22.768 6.32988 23.4138 5.68413 23.4138 4.89045C23.4138 4.6554 23.3568 4.43353 23.2565 4.23731L25.7347 1.81394V3.06651H26.5425V0.450195H23.9262V1.25799H25.1478L22.7023 3.64937C22.4886 3.52353 22.2399 3.45096 21.9744 3.45096C21.1807 3.45096 20.535 4.09671 20.535 4.89039C20.535 5.14436 20.6014 5.38302 20.7173 5.59039L19.8326 6.45555C19.3563 5.32133 18.6578 4.25908 17.7356 3.33694C13.9213 -0.477361 7.71511 -0.477252 3.90081 3.33694C0.503017 6.73473 0.132071 12.0305 2.78765 15.8428L2.10755 16.5478C1.90772 16.4425 1.68044 16.3827 1.43938 16.3827C0.645697 16.3827 0 17.0284 0 17.8221C0 18.6158 0.645697 19.2615 1.43943 19.2615C2.23317 19.2615 2.87887 18.6158 2.87887 17.8221C2.87887 17.5626 2.80952 17.3192 2.68883 17.1087L3.28301 16.4928C3.4766 16.7263 3.68212 16.9531 3.90076 17.1718C5.80793 19.0789 8.31306 20.0324 10.8182 20.0324C12.7412 20.0324 14.664 19.4698 16.3166 18.346L17.7751 19.9049L17.1686 20.5114L24.2322 27.5504L28.0001 23.7827L20.9363 16.7437ZM21.9744 4.2588C22.3227 4.2588 22.6061 4.5422 22.6061 4.89045C22.6061 5.2387 22.3227 5.52209 21.9744 5.52209C21.6261 5.52209 21.3428 5.2387 21.3428 4.89045C21.3428 4.5422 21.6261 4.2588 21.9744 4.2588ZM1.43943 18.4537C1.09118 18.4537 0.807791 18.1703 0.807791 17.822C0.807791 17.4738 1.09118 17.1904 1.43943 17.1904C1.78774 17.1904 2.07107 17.4738 2.07107 17.822C2.07102 18.1703 1.78768 18.4537 1.43943 18.4537ZM16.9695 17.8614C17.2339 17.6473 17.4898 17.4176 17.7356 17.1718C17.9732 16.9342 18.1959 16.6873 18.4038 16.4324L19.7784 17.9016L18.3466 19.3334L16.9695 17.8614Z" fill="#C2C6D1"/>
<path d="M15.8333 5.23909C14.4936 3.89947 12.7126 3.16162 10.818 3.16162C8.92341 3.16162 7.14224 3.89941 5.80256 5.23909C3.03717 8.00454 3.03717 12.5043 5.80256 15.2698C7.14224 16.6094 8.92336 17.3473 10.818 17.3473C12.7125 17.3473 14.4936 16.6095 15.8333 15.2698C17.1729 13.9302 17.9107 12.149 17.9107 10.2544C17.9107 8.3599 17.1729 6.57878 15.8333 5.23909ZM6.37377 5.81031C7.56082 4.62326 9.13916 3.96947 10.8179 3.96947C12.4966 3.96947 14.0749 4.62326 15.262 5.81031C16.1989 6.74716 16.8032 7.92786 17.0165 9.20919L14.8148 11.3622C14.6063 11.2445 14.3659 11.1771 14.1099 11.1771C13.6115 11.1771 13.1716 11.4318 12.9132 11.8177L9.67717 10.8023C9.67734 10.7929 9.67788 10.7836 9.67788 10.7742C9.67788 9.98051 9.03219 9.33476 8.23845 9.33476C7.44477 9.33476 6.79902 9.98051 6.79902 10.7742C6.79902 11.0336 6.86836 11.2771 6.989 11.4876L5.29112 13.2476C4.00279 10.8655 4.36334 7.82073 6.37377 5.81031ZM14.7416 12.6165C14.7416 12.9647 14.4582 13.2481 14.1099 13.2481C13.7617 13.2481 13.4783 12.9647 13.4783 12.6165C13.4783 12.2682 13.7617 11.9848 14.1099 11.9848C14.4582 11.9848 14.7416 12.2681 14.7416 12.6165ZM8.87015 10.7741C8.87015 11.1223 8.58676 11.4057 8.23851 11.4057C7.8902 11.4057 7.60681 11.1223 7.60681 10.7741C7.60681 10.4258 7.8902 10.1424 8.23851 10.1424C8.58676 10.1425 8.87015 10.4258 8.87015 10.7741ZM15.262 14.6986C14.075 15.8857 12.4967 16.5395 10.818 16.5395C9.13921 16.5395 7.56087 15.8857 6.37382 14.6986C6.13806 14.4629 5.92517 14.2127 5.73474 13.9512L7.57033 12.0485C7.77016 12.1537 7.99744 12.2135 8.23851 12.2135C8.73687 12.2135 9.17678 11.9588 9.43518 11.5729L12.6712 12.5883C12.671 12.5976 12.6705 12.607 12.6705 12.6164C12.6705 13.4101 13.3162 14.0558 14.1099 14.0558C14.9036 14.0558 15.5494 13.4101 15.5494 12.6164C15.5494 12.3718 15.4878 12.1414 15.3798 11.9395L17.1029 10.2545C17.1029 11.9333 16.4491 13.5116 15.262 14.6986Z" fill="white"/>
<path d="M7.24121 6.13386L7.77113 6.74352C9.0237 5.65479 10.7798 5.31912 12.3545 5.86758L12.6202 5.10475C10.773 4.46129 8.71187 4.85564 7.24121 6.13386Z" fill="#C2C6D1"/>
<path d="M13.6565 5.59424L13.2363 6.28412C13.4501 6.41433 13.6553 6.56363 13.8462 6.7278L14.373 6.11536C14.1488 5.92264 13.9078 5.74731 13.6565 5.59424Z" fill="#C2C6D1"/>
<path d="M11.785 14.7994C10.8761 14.9909 9.94209 14.9103 9.0836 14.5664L8.7832 15.3162C9.43415 15.577 10.1218 15.7088 10.8146 15.7088C11.1939 15.7088 11.5746 15.6693 11.9516 15.5898L11.785 14.7994Z" fill="#C2C6D1"/>
<path d="M20.9371 19.0576L19.7812 20.2134L20.3525 20.7847L20.9371 20.2L23.1665 22.4294L23.7377 21.8582L20.9371 19.0576Z" fill="#C2C6D1"/>
</svg>
