<svg width="54" height="54" viewBox="0 0 54 54" fill="none" xmlns="http://www.w3.org/2000/svg">
<path fill-rule="evenodd" clip-rule="evenodd" d="M41.4978 7.84343L11.8878 7.80609C9.66384 7.80329 7.847 9.60626 7.84418 11.8396L7.80685 41.4495C7.80403 43.6828 9.60701 45.4904 11.8403 45.4932L41.4503 45.5305C43.6836 45.5333 45.4911 43.7303 45.4939 41.497L45.5313 11.8871C45.5341 9.66308 43.7311 7.84625 41.4978 7.84343ZM28.3216 37.2229C28.317 40.8892 26.1653 42.5615 23.0201 42.5575C20.1819 42.5539 18.546 41.0909 17.7108 39.3125L20.5976 37.576C21.1547 38.5631 21.6562 39.3919 22.8752 39.3935C24.0384 39.3949 24.7741 38.9399 24.7763 37.1626L24.7915 25.1306L28.3369 25.1351L28.3216 37.2229ZM30.2464 38.9468C31.2767 41.0046 33.3964 42.5706 36.6905 42.5747C40.0498 42.579 42.5551 40.8327 42.5498 37.6502C42.5536 34.6818 40.871 33.3583 37.8576 32.0703L36.9741 31.6877C35.4581 31.0251 34.798 30.5962 34.7993 29.5354C34.8004 28.67 35.4619 28.0194 36.4948 28.0207C37.5091 28.022 38.1693 28.4509 38.7727 29.5404L41.5294 27.7758C40.3688 25.7179 38.7506 24.9342 36.4987 24.9313C33.3442 24.9274 31.313 26.9441 31.3097 29.6054C31.306 32.4901 32.9979 33.8602 35.5555 34.9521L36.4391 35.3348C38.0666 36.0533 39.0245 36.4826 39.023 37.6923C39.0217 38.7066 38.081 39.4406 36.62 39.4387C34.8799 39.4365 33.8854 38.5233 33.1332 37.2848L30.2464 38.9468Z" fill="#D8D8D8"/>
</svg>
