<svg width="27" height="30" viewBox="0 0 27 30" fill="none" xmlns="http://www.w3.org/2000/svg">
<path d="M3 30H24C25.656 30 27 28.656 27 26.9999V10.4996C27 9.67011 26.3295 8.99959 25.5 8.99959H21V7.83407C21 3.92049 18.1455 0.416426 14.25 0.0369184C9.78 -0.40109 6 3.11648 6 7.49956V8.99959H1.5C0.6705 8.99959 0 9.67011 0 10.4996V26.9999C0 28.656 1.344 30 3 30ZM21 11.9997V14.9997H18V11.9997H21ZM9 7.49956C9 5.01852 11.019 2.99948 13.5 2.99948C15.981 2.99948 18 5.01852 18 7.49956V8.99959H9V7.49956ZM6 11.9997H9V14.9997H6V11.9997Z" fill="#C2C6D1"/>
</svg>
