<svg width="105" height="105" viewBox="0 0 105 105" fill="none" xmlns="http://www.w3.org/2000/svg">
<g filter="url(#filter0_d)">
<rect x="20" y="10" width="64.424" height="64.424" rx="32.212" fill="#FF6332"/>
</g>
<path d="M61.9997 37H60.9997V36C60.9942 31.0317 56.968 27.0055 51.9997 27C47.0315 27.0055 43.0052 31.0317 42.9997 36V37H41.9998C41.4475 37 40.9998 37.4477 40.9998 38V54C40.9998 54.5523 41.4475 55 41.9998 55H61.9997C62.552 55 62.9998 54.5523 62.9998 54V38C62.9998 37.4477 62.552 37 61.9997 37ZM44.9998 36C44.9998 32.134 48.1338 29 51.9998 29C55.8658 29 58.9997 32.134 58.9997 36V37H44.9998V36ZM60.9997 53H42.9997V39H60.9997V53Z" fill="white"/>
<path d="M54.8288 43.9987C54.4063 42.7992 53.2719 41.9976 52.0001 42C50.3471 41.9969 49.0046 43.3344 49.0015 44.9873C48.9991 46.2591 49.8006 47.3935 51.0002 47.816V50C51.0002 50.5523 51.4479 51.0001 52.0002 51.0001C52.5525 51.0001 53.0001 50.5523 53.0001 50V47.816C54.5593 47.2669 55.378 45.5578 54.8288 43.9987ZM52.0001 46C51.4478 46 51.0001 45.5523 51.0001 45C51.0001 44.4477 51.4478 44 52.0001 44C52.5524 44 53.0001 44.4477 53.0001 45C53.0001 45.5523 52.5524 46 52.0001 46Z" fill="white"/>
<defs>
<filter id="filter0_d" x="0" y="0" width="104.424" height="104.424" filterUnits="userSpaceOnUse" color-interpolation-filters="sRGB">
<feFlood flood-opacity="0" result="BackgroundImageFix"/>
<feColorMatrix in="SourceAlpha" type="matrix" values="0 0 0 0 0 0 0 0 0 0 0 0 0 0 0 0 0 0 127 0"/>
<feOffset dy="10"/>
<feGaussianBlur stdDeviation="10"/>
<feColorMatrix type="matrix" values="0 0 0 0 0 0 0 0 0 0 0 0 0 0 0 0 0 0 0.3 0"/>
<feBlend mode="normal" in2="BackgroundImageFix" result="effect1_dropShadow"/>
<feBlend mode="normal" in="SourceGraphic" in2="effect1_dropShadow" result="shape"/>
</filter>
</defs>
</svg>
