<svg width="24" height="24" viewBox="0 0 24 24" fill="none" xmlns="http://www.w3.org/2000/svg">
<path fill-rule="evenodd" clip-rule="evenodd" d="M3 6C3 4.34315 4.34315 3 6 3H19C20.6569 3 22 4.34315 22 6V15L22 15.0098L22.0249 15V19.5858C22.0249 20.4767 20.9478 20.9229 20.3178 20.2929L18.0249 18H6C4.34315 18 3 16.6569 3 15V6ZM6 10.5C6 11.3284 6.67157 12 7.5 12C8.32843 12 9 11.3284 9 10.5C9 9.67157 8.32843 9 7.5 9C6.67157 9 6 9.67157 6 10.5ZM12.5 12C11.6716 12 11 11.3284 11 10.5C11 9.67157 11.6716 9 12.5 9C13.3284 9 14 9.67157 14 10.5C14 11.3284 13.3284 12 12.5 12ZM16 10.5C16 11.3284 16.6716 12 17.5 12C18.3284 12 19 11.3284 19 10.5C19 9.67157 18.3284 9 17.5 9C16.6716 9 16 9.67157 16 10.5Z" fill="#C3C6D1"/>
</svg>
