<svg width="35" height="52" viewBox="0 0 35 52" fill="none" xmlns="http://www.w3.org/2000/svg">
<path d="M10.8026 28.9272L8.25374 48.8833C8.07616 50.2888 8.3159 50.9378 8.99367 50.9378H16.1976C16.6416 50.8822 16.9375 50.4743 17.0234 49.7696L18.3227 38.9034C18.5476 37.0342 19.107 36.3444 19.9387 36.3444H22.999C29.0605 36.3444 33.6303 31.1041 34.2222 21.6323C34.4687 17.6838 33.4479 14.6031 30.7806 13.0659" stroke="#C2C6D1"/>
<path fill-rule="evenodd" clip-rule="evenodd" d="M7.46981 0H18.9476C22.1796 0 26.0154 0.129802 28.5785 2.9669C30.2921 4.862 31.1919 7.87711 30.9847 11.1259C30.2803 22.1071 25.0387 28.2597 18.0064 28.2597H12.3474C11.3825 28.2597 10.7462 29.0607 10.4739 31.2266L8.89343 43.8359C8.78984 44.6518 8.50867 45.1339 8.00552 45.1932H0.922932C0.138609 45.1932 -0.139606 44.4515 0.0646136 42.8123L5.15532 2.39577C5.35954 0.77139 6.07283 0 7.46981 0Z" fill="#C2C6D1"/>
</svg>
