<svg width="73" height="90" viewBox="0 0 73 90" fill="none" xmlns="http://www.w3.org/2000/svg"><path d="M53.1296 30.3339C51.2371 30.1849 49.2045 30.6399 46.0915 31.8357C46.3556 31.735 43.1226 33.0033 42.2183 33.3254C40.2097 34.03 38.5572 34.4165 36.7047 34.4165C34.8721 34.4165 33.1836 34.0461 31.239 33.3898C30.6188 33.1764 29.9946 32.9469 29.2184 32.6409C28.8903 32.5121 27.6899 32.029 27.4258 31.9283C24.8331 30.9056 23.3726 30.5191 22.1602 30.5513C17.5508 30.6117 13.1855 33.2892 10.6527 37.7261C5.48318 46.7611 8.34405 63.0877 15.9023 74.0875C19.9276 79.9015 22.1282 81.979 23.0165 81.9508C23.9048 81.9106 24.557 81.7213 26.1495 81.0449L26.8177 80.7591C30.8389 79.0318 33.6597 78.2708 37.905 78.2708C41.9903 78.2708 44.7191 79.0197 48.5803 80.6946L49.2525 80.9845C50.845 81.669 51.4211 81.822 52.4214 81.7978C53.8539 81.7777 55.6184 80.1189 59.5356 74.3331C60.6079 72.7588 61.5562 71.1 62.3765 69.421C61.8373 68.9742 61.3142 68.5082 60.808 68.0239C55.6504 63.0797 52.4614 56.4121 52.3734 48.1743C52.2872 42.0792 54.2783 36.1382 58.0151 31.3405C56.4467 30.7578 54.7994 30.4184 53.1296 30.3339ZM53.7498 22.3055C56.5827 22.4987 64.6972 23.3684 69.9788 31.1472C69.5466 31.3888 60.2798 36.8001 60.3758 48.1059C60.5199 61.6342 72.1394 66.1275 72.2835 66.1759C72.1874 66.5141 70.4109 72.6018 66.1376 78.8828C62.4405 84.3425 58.5993 89.7538 52.5495 89.8504C46.5957 89.9954 44.6751 86.3234 37.905 86.3234C31.0869 86.3234 28.9743 89.7538 23.3566 89.9953C17.4988 90.1886 13.0815 84.1009 9.33635 78.6896C1.70203 67.577 -4.10774 47.3812 3.71864 33.7079C7.60782 26.8954 14.5219 22.5954 22.0602 22.4987C27.7739 22.3538 33.1996 26.364 36.7047 26.364C40.1617 26.364 46.3556 21.7257 53.7498 22.3055ZM49.1884 14.9615C46.0675 18.7301 40.978 21.6774 36.0325 21.2909C35.3602 16.1694 37.857 10.8064 40.7379 7.47265C43.9549 3.70405 49.3325 0.901758 53.7978 0.708496C54.374 5.92656 52.3094 11.1929 49.1884 14.9615Z" fill="rgb(133 137 151)"/></svg>