<svg width="37" height="28" viewBox="0 0 37 28" fill="none" xmlns="http://www.w3.org/2000/svg">
<path d="M36.685 4.76865C36.4008 4.40255 35.9634 4.18845 35.5 4.18845H9.7836L8.7698 1.43735C8.5525 0.847755 7.9907 0.456055 7.3623 0.456055H1.5C0.6716 0.456055 0 1.12765 0 1.95605C0 2.78445 0.6716 3.45605 1.5 3.45605H6.3165L14.8549 26.6264C15.0722 27.2162 15.634 27.6078 16.2624 27.6078H31.0447C31.8731 27.6078 32.5447 26.9363 32.5447 26.1078C32.5447 25.2794 31.8731 24.6079 31.0447 24.6079H17.3082L15.951 20.9249H31.9829C32.6681 20.9249 33.2661 20.4608 33.436 19.7971L36.9531 6.06045C37.0681 5.61155 36.969 5.13465 36.685 4.76865ZM25.7856 13.9172C26.3714 14.503 26.3714 15.4527 25.7856 16.0385C25.4927 16.3314 25.1088 16.4778 24.725 16.4778C24.3412 16.4778 23.9572 16.3314 23.6644 16.0385L22.3 14.6741L20.9356 16.0385C20.6427 16.3314 20.2588 16.4778 19.875 16.4778C19.4912 16.4778 19.1072 16.3314 18.8144 16.0385C18.2286 15.4527 18.2286 14.503 18.8144 13.9172L20.1787 12.5528L18.8144 11.1885C18.2286 10.6027 18.2286 9.65295 18.8144 9.06715C19.4001 8.48135 20.3499 8.48135 20.9357 9.06715L22.3 10.4315L23.6644 9.06705C24.2501 8.48125 25.1999 8.48125 25.7857 9.06705C26.3715 9.65285 26.3715 10.6026 25.7857 11.1884L24.4213 12.5527L25.7856 13.9172Z" fill="#C2C6D1"/>
</svg>
