<svg xmlns="http://www.w3.org/2000/svg" width="22.018" height="22" viewBox="0 0 22.018 22"><defs><style>.a{fill:#f03a01;}</style></defs><g transform="translate(-3.366 -3.372)"><path class="a" d="M25.268,3.671a.234.234,0,0,0-.175-.18c-2.879-.7-9.53,1.8-13.133,5.408a15.576,15.576,0,0,0-1.751,2.069,6.517,6.517,0,0,0-3.17.4c-2.672,1.175-3.45,4.244-3.667,5.561a.474.474,0,0,0,.519.55L8.183,17a9.54,9.54,0,0,0,.058.968.96.96,0,0,0,.28.587l1.661,1.661a.96.96,0,0,0,.587.28,9.522,9.522,0,0,0,.963.058l-.471,4.286a.474.474,0,0,0,.55.519c1.318-.212,4.392-.989,5.561-3.662a6.547,6.547,0,0,0,.4-3.159,15.6,15.6,0,0,0,2.074-1.751C23.469,13.2,25.962,6.692,25.268,3.671Zm-8.636,8.461a2.26,2.26,0,1,1,3.2,0A2.258,2.258,0,0,1,16.633,12.131Z" transform="translate(0 0)"/><path class="a" d="M10.665,25.91h0a2.007,2.007,0,0,1-1.048.423,1.424,1.424,0,0,1-1.64-1.64A1.968,1.968,0,0,1,8.4,23.65l.005-.005a.177.177,0,0,0-.148-.3,2.432,2.432,0,0,0-1.423.693c-.952.952-1.042,4.487-1.042,4.487s3.54-.09,4.492-1.042a2.416,2.416,0,0,0,.693-1.423A.181.181,0,0,0,10.665,25.91Z" transform="translate(-0.599 -4.941)"/></g></svg>