<svg width="48" height="55" viewBox="0 0 48 55" fill="none" xmlns="http://www.w3.org/2000/svg">
<path d="M38.4804 40.7397V22.1715V19.9449V17.4272H38.4862H9.18978H9.16113V20.0112V22.1713V40.7394C9.16113 42.5953 10.4672 44.0399 12.3231 44.0399H14.7546C14.6707 44.2654 14.7994 44.6815 14.7994 44.9873V45.1666V46.2287V51.7195C14.7994 53.4784 16.0852 54.9072 17.8441 54.9072C19.6031 54.9072 20.8888 53.4786 20.8888 51.7195V46.2287V45.1666V44.9873C20.8888 44.6833 20.9569 44.2654 20.8764 44.0399H26.7978C26.7139 44.2654 26.7524 44.6815 26.7524 44.9873V45.1666V46.2287V51.7195C26.7524 53.4784 28.0382 54.9072 29.7971 54.9072C31.5595 54.9072 32.8418 53.4786 32.8418 51.7195V46.2287V45.1666V44.9873C32.8418 44.6833 33.0002 44.2654 32.9196 44.0399H35.3477C37.2072 44.0401 38.4804 42.5956 38.4804 40.7397Z" fill="#D8D8D8"/>
<path d="M40.9609 20.5475V34.1839C40.9609 35.9462 42.2458 37.3716 44.0081 37.3716C45.7688 37.3716 47.0503 35.9462 47.0503 34.1839V20.5475C47.0503 18.7852 45.767 17.3599 44.0081 17.3599C42.2458 17.3599 40.9609 18.7852 40.9609 20.5475Z" fill="#D8D8D8"/>
<path d="M3.63393 37.3711C5.39466 37.3711 6.6802 35.9457 6.6802 34.1834V20.5471C6.6802 18.7847 5.39444 17.3594 3.63393 17.3594C1.87342 17.3594 0.59082 18.7847 0.59082 20.5471V34.1834C0.59082 35.946 1.8732 37.3711 3.63393 37.3711Z" fill="#D8D8D8"/>
<path d="M32.3406 2.81424L33.6641 0.826623C33.8285 0.581694 33.7595 0.252866 33.5195 0.090032C33.273 -0.0743813 32.9426 -0.0069457 32.7813 0.237983L31.3593 2.37017L30.7626 3.26621L30.1559 4.17533C28.2391 3.43062 26.0938 3.01316 23.8333 3.01316C21.5762 3.01316 19.4341 3.43062 17.5141 4.17533L16.9074 3.26621L16.3141 2.37017L14.8921 0.237983C14.7292 -0.0069457 14.3988 -0.0709983 14.1539 0.090032C13.909 0.251062 13.8449 0.581469 14.006 0.826623L15.3294 2.81424L15.9228 3.70036L16.5195 4.56934C12.0086 6.66859 8.95898 10.6614 8.95898 15.1721H38.7124C38.7124 10.6614 35.6612 6.66701 31.1503 4.56934L31.7502 3.68524L32.3406 2.81424ZM17.4616 10.983C16.5809 10.983 15.867 10.2692 15.867 9.38851C15.867 8.50781 16.5811 7.794 17.4616 7.794C18.3423 7.794 19.0561 8.50803 19.0561 9.38851C19.0561 10.269 18.3423 10.983 17.4616 10.983ZM31.8082 9.38829C31.8082 10.269 31.0941 10.9828 30.2136 10.9828C29.3332 10.9828 28.6191 10.269 28.6191 9.38829C28.6191 8.50758 29.3332 7.79377 30.2136 7.79377C31.0941 7.79377 31.8082 8.50758 31.8082 9.38829Z" fill="#D8D8D8"/>
</svg>
