<svg width="20" height="23" viewBox="0 0 20 23" fill="none" xmlns="http://www.w3.org/2000/svg">
<path d="M11.5789 0V6.31579C11.5789 6.87414 11.8008 7.40962 12.1956 7.80444C12.5904 8.19925 13.1259 8.42105 13.6842 8.42105H20V18.9474C20 19.5057 19.7782 20.0412 19.3834 20.436C18.9886 20.8308 18.4531 21.0526 17.8947 21.0526H10.7263C11.8158 19.9185 12.4814 18.4437 12.6109 16.8764C12.7405 15.3091 12.3263 13.745 11.4378 12.4473C10.5494 11.1497 9.2411 10.1977 7.73305 9.75155C6.22501 9.30543 4.60932 9.39242 3.15789 9.9979V2.10526C3.15789 1.54691 3.3797 1.01143 3.77451 0.616617C4.16933 0.221804 4.70481 0 5.26316 0H11.5789ZM13.1579 0.526316V6.31579C13.1579 6.45538 13.2133 6.58925 13.312 6.68795C13.4108 6.78665 13.5446 6.84211 13.6842 6.84211H19.4737L13.1579 0.526316ZM11.5789 16.3158C11.5789 17.0761 11.4292 17.8289 11.1383 18.5313C10.8473 19.2337 10.4209 19.872 9.88325 20.4096C9.34565 20.9472 8.70742 21.3736 8.00501 21.6646C7.3026 21.9555 6.54976 22.1053 5.78947 22.1053C5.02919 22.1053 4.27635 21.9555 3.57394 21.6646C2.87153 21.3736 2.2333 20.9472 1.6957 20.4096C1.1581 19.872 0.731646 19.2337 0.440697 18.5313C0.149749 17.8289 -1.13291e-08 17.0761 0 16.3158C2.28802e-08 14.7803 0.609961 13.3078 1.6957 12.222C2.78143 11.1363 4.25401 10.5263 5.78947 10.5263C7.32494 10.5263 8.79751 11.1363 9.88325 12.222C10.969 13.3078 11.5789 14.7803 11.5789 16.3158ZM9.32 13.8379C9.27111 13.7889 9.21303 13.75 9.14909 13.7235C9.08515 13.6969 9.0166 13.6833 8.94737 13.6833C8.87814 13.6833 8.80959 13.6969 8.74565 13.7235C8.68171 13.75 8.62363 13.7889 8.57474 13.8379L4.73684 17.6768L3.00421 15.9432C2.90538 15.8443 2.77134 15.7888 2.63158 15.7888C2.49182 15.7888 2.35778 15.8443 2.25895 15.9432C2.16012 16.042 2.1046 16.176 2.1046 16.3158C2.1046 16.4556 2.16012 16.5896 2.25895 16.6884L4.36421 18.7937C4.4131 18.8427 4.47118 18.8816 4.53512 18.9081C4.59906 18.9347 4.66761 18.9483 4.73684 18.9483C4.80607 18.9483 4.87462 18.9347 4.93856 18.9081C5.0025 18.8816 5.06058 18.8427 5.10947 18.7937L9.32 14.5832C9.36901 14.5343 9.4079 14.4762 9.43443 14.4122C9.46097 14.3483 9.47463 14.2798 9.47463 14.2105C9.47463 14.1413 9.46097 14.0728 9.43443 14.0088C9.4079 13.9449 9.36901 13.8868 9.32 13.8379Z" fill="#C2C6D1"/>
</svg>
