<svg xmlns="http://www.w3.org/2000/svg" width="42.964" height="34.648" viewBox="0 0 42.964 34.648"><defs><style>.a{fill:#0f0f1d;}</style></defs><g transform="translate(-1 -7)"><path class="a" d="M29.237,23a6.237,6.237,0,1,0,6.237,6.237A6.244,6.244,0,0,0,29.237,23Zm0,11.087a4.851,4.851,0,1,1,4.851-4.851A4.856,4.856,0,0,1,29.237,34.087Z" transform="translate(-6.755 -4.913)"/><path class="a" d="M37.727,13.93h5.544a.693.693,0,0,0,.693-.693V7.693A.693.693,0,0,0,43.271,7H37.727a.693.693,0,0,0-.693.693V9.772H34.955a.693.693,0,0,0-.693.693V23.631h-.693v-.693a.693.693,0,0,0-.6-.687l-1.777-.237a8.878,8.878,0,0,0-.92-2.212l1.092-1.428a.693.693,0,0,0-.06-.911l-1.96-1.96a.692.692,0,0,0-.911-.06L27,16.536a8.931,8.931,0,0,0-2.212-.92l-.237-1.777a.693.693,0,0,0-.687-.6H21.1a.693.693,0,0,0-.687.6l-.237,1.777a8.878,8.878,0,0,0-2.212.92l-1.428-1.092a.693.693,0,0,0-.911.06l-1.96,1.96a.692.692,0,0,0-.06.911L14.694,19.8a8.931,8.931,0,0,0-.92,2.212L12,22.251a.693.693,0,0,0-.6.687v.693H10.7V10.465a.693.693,0,0,0-.693-.693H7.93V7.693A.693.693,0,0,0,7.237,7H1.693A.693.693,0,0,0,1,7.693v5.544a.693.693,0,0,0,.693.693H7.237a.693.693,0,0,0,.693-.693V11.158H9.316V23.631H7.93V21.552a.693.693,0,0,0-.693-.693H1.693A.693.693,0,0,0,1,21.552V27.1a.693.693,0,0,0,.693.693H7.237A.693.693,0,0,0,7.93,27.1V25.017H9.316V37.49H7.93V35.412a.693.693,0,0,0-.693-.693H1.693A.693.693,0,0,0,1,35.412v5.544a.693.693,0,0,0,.693.693H7.237a.693.693,0,0,0,.693-.693V38.876h2.079a.693.693,0,0,0,.693-.693V25.017h.693v.693a.693.693,0,0,0,.6.687l1.777.237a8.878,8.878,0,0,0,.92,2.212L13.6,30.273a.693.693,0,0,0,.06.911l1.96,1.96a.693.693,0,0,0,.911.06l1.428-1.092a8.931,8.931,0,0,0,2.212.92l.237,1.777a.693.693,0,0,0,.687.6h2.772a.693.693,0,0,0,.687-.6l.237-1.777A8.878,8.878,0,0,0,27,32.112L28.431,33.2a.691.691,0,0,0,.911-.06l1.96-1.96a.692.692,0,0,0,.06-.911L30.27,28.846a8.931,8.931,0,0,0,.92-2.212l1.777-.237a.693.693,0,0,0,.6-.687v-.693h.693V38.183a.693.693,0,0,0,.693.693h2.079v2.079a.693.693,0,0,0,.693.693h5.544a.693.693,0,0,0,.693-.693V35.412a.693.693,0,0,0-.693-.693H37.727a.693.693,0,0,0-.693.693V37.49H35.648V25.017h1.386V27.1a.693.693,0,0,0,.693.693h5.544a.693.693,0,0,0,.693-.693V21.552a.693.693,0,0,0-.693-.693H37.727a.693.693,0,0,0-.693.693v2.079H35.648V11.158h1.386v2.079A.693.693,0,0,0,37.727,13.93Zm.693-5.544h4.158v4.158H38.42ZM6.544,12.544H2.386V8.386H6.544Zm0,13.859H2.386V22.245H6.544Zm0,13.859H2.386V36.1H6.544ZM32.183,25.1l-1.649.22a.693.693,0,0,0-.587.547,7.537,7.537,0,0,1-1.1,2.635.693.693,0,0,0,.028.8l1.014,1.326-1.1,1.1-1.326-1.014a.693.693,0,0,0-.8-.028,7.537,7.537,0,0,1-2.635,1.1.694.694,0,0,0-.547.587l-.22,1.649H21.7l-.22-1.649a.693.693,0,0,0-.547-.587,7.537,7.537,0,0,1-2.635-1.1.694.694,0,0,0-.8.028l-1.326,1.014-1.1-1.1,1.014-1.326a.693.693,0,0,0,.028-.8,7.537,7.537,0,0,1-1.1-2.635.694.694,0,0,0-.587-.547l-1.65-.22V23.545l1.649-.22a.693.693,0,0,0,.587-.547,7.537,7.537,0,0,1,1.1-2.635.693.693,0,0,0-.028-.8l-1.014-1.326,1.1-1.1L17.5,17.927a.694.694,0,0,0,.8.028,7.537,7.537,0,0,1,2.635-1.1.694.694,0,0,0,.547-.587l.22-1.65h1.558l.22,1.649a.693.693,0,0,0,.547.587,7.537,7.537,0,0,1,2.635,1.1.692.692,0,0,0,.8-.028l1.326-1.014,1.1,1.1L28.879,19.34a.693.693,0,0,0-.028.8,7.537,7.537,0,0,1,1.1,2.635.694.694,0,0,0,.587.547l1.65.22Zm6.237,11h4.158v4.158H38.42Zm0-13.859h4.158V26.4H38.42Z" transform="translate(0)"/></g></svg>