<svg xmlns="http://www.w3.org/2000/svg" width="41.513" height="41.513" viewBox="0 0 41.513 41.513"><defs><style>.a{fill:#0f0f1d;stroke:#0f0f1d;stroke-width:0.2px;}</style></defs><g transform="translate(0.1 0.1)"><g transform="translate(3.443 3.443)"><path class="a" d="M19.214,36.427A17.214,17.214,0,1,1,36.427,19.214,17.264,17.264,0,0,1,19.214,36.427Zm0-32.706A15.492,15.492,0,1,0,34.706,19.214,15.428,15.428,0,0,0,19.214,3.721Z" transform="translate(-2 -2)"/></g><g transform="translate(19.796)"><path class="a" d="M12.361,8.607a.813.813,0,0,1-.861-.861V.861a.861.861,0,0,1,1.721,0V7.746A.813.813,0,0,1,12.361,8.607Z" transform="translate(-11.5)"/></g><g transform="translate(19.796)"><path class="a" d="M12.361,8.607a.813.813,0,0,1-.861-.861V.861a.861.861,0,0,1,1.721,0V7.746A.813.813,0,0,1,12.361,8.607Z" transform="translate(-11.5)"/></g><g transform="translate(32.706 19.796)"><path class="a" d="M26.746,13.221H19.861a.861.861,0,1,1,0-1.721h6.885a.861.861,0,0,1,0,1.721Z" transform="translate(-19 -11.5)"/></g><g transform="translate(19.796 32.706)"><path class="a" d="M12.361,27.607a.813.813,0,0,1-.861-.861V19.861a.861.861,0,1,1,1.721,0v6.885A.813.813,0,0,1,12.361,27.607Z" transform="translate(-11.5 -19)"/></g><g transform="translate(0 19.796)"><path class="a" d="M7.746,13.221H.861a.861.861,0,0,1,0-1.721H7.746a.861.861,0,1,1,0,1.721Z" transform="translate(0 -11.5)"/></g><g transform="translate(17.214 12.05)"><path class="a" d="M13.443,13.885a3.443,3.443,0,1,1,3.443-3.443A3.453,3.453,0,0,1,13.443,13.885Zm0-5.164a1.626,1.626,0,0,0-1.721,1.721,1.626,1.626,0,0,0,1.721,1.721,1.626,1.626,0,0,0,1.721-1.721A1.626,1.626,0,0,0,13.443,8.721Z" transform="translate(-10 -7)"/></g><g transform="translate(13.771 20.656)"><path class="a" d="M20.91,18.885a.813.813,0,0,1-.861-.861V16.3a2.647,2.647,0,0,0-2.582-2.582H12.3A2.647,2.647,0,0,0,9.721,16.3v1.721a.813.813,0,0,1-.861.861A.813.813,0,0,1,8,18.025V16.3A4.262,4.262,0,0,1,12.3,12h5.164a4.262,4.262,0,0,1,4.3,4.3v1.721A.813.813,0,0,1,20.91,18.885Z" transform="translate(-8 -12)"/></g></g></svg>