<svg width="60" height="60" viewBox="0 0 124 124" fill="none" xmlns="http://www.w3.org/2000/svg">
<path fill-rule="evenodd" clip-rule="evenodd" d="M0 61.625C0 27.5905 27.5905 0 61.625 0C95.6596 0 123.25 27.5905 123.25 61.625C123.25 95.6596 95.6596 123.25 61.625 123.25C27.5905 123.25 0 95.6596 0 61.625ZM61.625 8.874C32.4914 8.874 8.874 32.4914 8.874 61.625C8.874 90.7586 32.4914 114.376 61.625 114.376C90.7586 114.376 114.376 90.7586 114.376 61.625C114.376 32.4914 90.7586 8.874 61.625 8.874Z" fill="#56BE54"/>
<path fill-rule="evenodd" clip-rule="evenodd" d="M94.2228 37.7923C96.5924 40.1813 96.5924 44.0548 94.2228 46.4439L56.5607 86.2082C54.1912 88.5973 50.3494 88.5973 47.9799 86.2082L29.7772 67.8554C27.4076 65.4664 27.4076 61.5929 29.7772 59.2039C32.1467 56.8148 35.9885 56.8148 38.358 59.2039L52.2703 73.2308L85.642 37.7923C88.0115 35.4032 91.8533 35.4032 94.2228 37.7923Z" fill="#56BE54"/>
</svg>