<svg width="18" height="9" viewBox="0 0 18 9" fill="none" xmlns="http://www.w3.org/2000/svg">
<path d="M16.9328 3.67481C16.9326 3.67461 16.9324 3.67438 16.9322 3.67417L13.436 0.194841C13.1741 -0.0658084 12.7504 -0.0648384 12.4897 0.197115C12.229 0.459035 12.23 0.882678 12.4919 1.14336L14.8393 3.47933H0.669103C0.299557 3.47933 0 3.77889 0 4.14843C0 4.51798 0.299557 4.81754 0.669103 4.81754H14.8393L12.492 7.15351C12.2301 7.41419 12.2291 7.83783 12.4897 8.09975C12.7505 8.36174 13.1741 8.36264 13.436 8.10203L16.9322 4.62269C16.9324 4.62249 16.9326 4.62226 16.9328 4.62206C17.1949 4.36051 17.194 3.93549 16.9328 3.67481Z" fill="#1A1A1A"/>
</svg>
