<svg xmlns="http://www.w3.org/2000/svg" width="38.034" height="33.883" viewBox="0 0 38.034 33.883"><defs><style>.a{fill:#0f0f1d;}</style></defs><g transform="translate(0 -27.937)"><g transform="translate(0 27.937)"><g transform="translate(0 0)"><path class="a" d="M35.738,27.937H2.3a2.3,2.3,0,0,0-2.3,2.3V53.322a2.3,2.3,0,0,0,2.3,2.3H13.755v1.671a2.781,2.781,0,0,1-2.778,2.778H8.452a.877.877,0,0,0,0,1.754H29.582a.877.877,0,1,0,0-1.754H27.056a2.781,2.781,0,0,1-2.778-2.778V55.618H35.738a2.3,2.3,0,0,0,2.3-2.3V30.233A2.3,2.3,0,0,0,35.738,27.937ZM14.554,60.067a4.507,4.507,0,0,0,.955-2.778V55.619h7.016v1.671a4.507,4.507,0,0,0,.955,2.778ZM36.28,53.322a.543.543,0,0,1-.543.543H2.3a.543.543,0,0,1-.543-.543V48.714H36.28Zm0-6.362H1.754V30.233a.543.543,0,0,1,.543-.543H35.738a.543.543,0,0,1,.543.543V46.961Z" transform="translate(0 -27.937)"/></g></g><g transform="translate(18.071 50.344)"><circle class="a" cx="0.946" cy="0.946" r="0.946"/></g><g transform="translate(12.827 33.721)"><path class="a" d="M180.368,106.054a.877.877,0,0,0-1.24,0l-6.2,6.2a.877.877,0,0,0,1.24,1.24l6.2-6.2A.877.877,0,0,0,180.368,106.054Z" transform="translate(-172.674 -105.797)"/></g><g transform="translate(20.228 37.312)"><path class="a" d="M276.265,154.393a.877.877,0,0,0-1.24,0l-2.469,2.468a.877.877,0,1,0,1.24,1.24l2.469-2.468A.877.877,0,0,0,276.265,154.393Z" transform="translate(-272.299 -154.136)"/></g></g></svg>