<svg width="80" height="80" viewBox="0 0 80 80" fill="none" xmlns="http://www.w3.org/2000/svg">
<path opacity="0.8" d="M40 80C62.0914 80 80 62.0914 80 40C80 17.9086 62.0914 0 40 0C17.9086 0 0 17.9086 0 40C0 62.0914 17.9086 80 40 80Z" fill="white"/>
<path d="M55.065 37.403L36.181 24.475C35.461 23.9346 34.5985 23.6169 33.7 23.561C32.287 23.561 31.414 24.694 31.414 26.591V54.533C31.414 56.428 32.286 57.559 33.695 57.559C34.5904 57.5026 35.4494 57.1841 36.165 56.643L55.059 43.715C55.6101 43.3866 56.0712 42.9265 56.4007 42.376C56.7302 41.8256 56.9179 41.2019 56.947 40.561C56.9204 39.9197 56.7343 39.2951 56.4057 38.7438C56.0772 38.1924 55.6164 37.7316 55.065 37.403Z" fill="#F03A01"/>
</svg>
