<svg width="21" height="21" viewBox="0 0 21 21" fill="none" xmlns="http://www.w3.org/2000/svg">
<path d="M7.82654 16.5795C7.25925 18.2812 5.90746 19.5314 3.91703 20.1948C3.02425 20.49 2.09311 20.6531 1.15314 20.6789C0.932448 20.6789 0.720794 20.5912 0.564741 20.4352C0.408688 20.2791 0.321019 20.0675 0.321019 19.8468C0.346797 18.9068 0.509884 17.9756 0.805105 17.0829C1.46851 15.0924 2.71867 13.7405 4.42036 13.1733C4.52403 13.1388 4.63349 13.125 4.74249 13.1327C4.85149 13.1405 4.9579 13.1696 5.05564 13.2185C5.15338 13.2673 5.24054 13.335 5.31214 13.4175C5.38374 13.5001 5.43838 13.5959 5.47294 13.6996C5.5075 13.8033 5.5213 13.9127 5.51356 14.0217C5.50581 14.1307 5.47667 14.2371 5.42781 14.3349C5.37894 14.4326 5.3113 14.5198 5.22874 14.5914C5.14619 14.663 5.05034 14.7176 4.94668 14.7522C2.90205 15.4337 2.2687 17.6532 2.07284 18.9272C3.3462 18.7313 5.56609 18.0981 6.2477 16.0532C6.28226 15.9495 6.3369 15.8537 6.4085 15.7711C6.4801 15.6886 6.56727 15.6209 6.66501 15.5721C6.76276 15.5232 6.86917 15.494 6.97818 15.4863C7.08719 15.4785 7.19666 15.4923 7.30033 15.5269C7.40401 15.5615 7.49986 15.6161 7.58242 15.6877C7.66498 15.7593 7.73262 15.8465 7.7815 15.9442C7.83037 16.042 7.85951 16.1484 7.86726 16.2574C7.87501 16.3664 7.86121 16.4759 7.82665 16.5795H7.82654ZM18.2167 8.66707L17.2838 9.6002V15.9717C17.2844 16.1903 17.2416 16.4069 17.158 16.6089C17.0743 16.8108 16.9514 16.9942 16.7964 17.1484L13.4321 20.5125C13.2191 20.7255 12.9523 20.8767 12.6601 20.95C12.3679 21.0233 12.0613 21.0159 11.773 20.9286C11.4847 20.8413 11.2254 20.6774 11.023 20.4543C10.8205 20.2313 10.6824 19.9574 10.6233 19.662L9.80096 15.5499L5.45001 11.1989L1.33787 10.3765C1.0425 10.3174 0.768707 10.1793 0.545674 9.97681C0.322641 9.77436 0.158735 9.51517 0.0714331 9.22688C-0.0158686 8.93859 -0.0232926 8.63202 0.0499528 8.33984C0.123198 8.04767 0.274367 7.78085 0.487339 7.56784L3.85129 4.20366C4.0055 4.04866 4.1889 3.92578 4.3909 3.84212C4.5929 3.75846 4.80948 3.71567 5.02812 3.71624H11.3997L12.3327 2.78312C15.3064 -0.190268 18.3576 -0.104039 19.5316 0.0711232C19.884 0.122276 20.2104 0.285936 20.4622 0.537709C20.7139 0.789482 20.8776 1.11588 20.9288 1.46826C21.1041 2.64218 21.1904 5.69348 18.2168 8.66718L18.2167 8.66707ZM1.66417 8.74446L5.58678 9.52895L9.73543 5.38049H5.02822L1.66417 8.74446ZM7.03728 10.4323L10.5676 13.9627L17.0399 7.49035C17.8523 6.67798 19.6969 4.48908 19.2828 1.71405C16.5097 1.30288 14.3218 3.1477 13.5095 3.95995L7.03728 10.4323ZM15.6196 11.2644L11.4709 15.4131L12.2555 19.3357L15.6195 15.9717L15.6196 11.2644Z" fill="#4A4BFF"/>
<path fill-rule="evenodd" clip-rule="evenodd" d="M7.82665 16.5795C7.86121 16.4759 7.87501 16.3664 7.86726 16.2574C7.85951 16.1484 7.83037 16.042 7.7815 15.9442C7.73262 15.8465 7.66498 15.7593 7.58242 15.6877C7.49986 15.6161 7.40401 15.5615 7.30033 15.5269C7.19666 15.4923 7.08719 15.4785 6.97818 15.4863C6.86917 15.494 6.76276 15.5232 6.66501 15.5721C6.56726 15.6209 6.4801 15.6886 6.4085 15.7711C6.3369 15.8537 6.28226 15.9495 6.2477 16.0532C5.58613 18.0379 3.47543 18.6928 2.18758 18.9087C2.14856 18.9153 2.11029 18.9214 2.07284 18.9272C2.0786 18.8897 2.08474 18.8515 2.09128 18.8124C2.30716 17.524 2.96215 15.4137 4.94668 14.7522C5.05034 14.7176 5.14619 14.663 5.22874 14.5914C5.3113 14.5198 5.37894 14.4326 5.42781 14.3349C5.47667 14.2371 5.50581 14.1307 5.51356 14.0217C5.5213 13.9127 5.5075 13.8033 5.47294 13.6996C5.43838 13.5959 5.38374 13.5001 5.31214 13.4175C5.24054 13.335 5.15338 13.2673 5.05564 13.2185C4.9579 13.1696 4.85149 13.1405 4.74249 13.1327C4.63349 13.125 4.52403 13.1388 4.42036 13.1733C2.71867 13.7405 1.46851 15.0924 0.805105 17.0829C0.509884 17.9756 0.346797 18.9068 0.321019 19.8468C0.321019 20.0675 0.408688 20.2791 0.564741 20.4352C0.720794 20.5912 0.932448 20.6789 1.15314 20.6789C2.09311 20.6531 3.02425 20.49 3.91703 20.1948C5.90746 19.5314 7.25935 18.2812 7.82665 16.5795ZM7.72547 16.5332C7.75273 16.4467 7.76345 16.3558 7.75701 16.2652C7.75029 16.1707 7.72502 16.0784 7.68264 15.9936C7.64026 15.9089 7.58159 15.8333 7.51 15.7712C7.43841 15.7091 7.35528 15.6617 7.26538 15.6318C7.17547 15.6018 7.08054 15.5898 6.98602 15.5965C6.89149 15.6033 6.7992 15.6285 6.71444 15.6709C6.62967 15.7133 6.55409 15.772 6.492 15.8435C6.4299 15.9151 6.38252 15.9983 6.35255 16.0882C6.00054 17.1442 5.25153 17.8328 4.43532 18.2805C3.62035 18.7274 2.73305 18.9374 2.08964 19.0364L1.9407 19.0593L1.9636 18.9104C2.06256 18.2666 2.27259 17.3793 2.71956 16.5644C3.16721 15.7482 3.8558 14.9993 4.91172 14.6473C5.00162 14.6174 5.08474 14.57 5.15632 14.5079C5.22791 14.4458 5.28657 14.3702 5.32895 14.2855C5.37132 14.2007 5.39659 14.1084 5.40331 14.0139C5.41002 13.9194 5.39806 13.8245 5.36809 13.7346C5.33812 13.6447 5.29074 13.5615 5.22865 13.49C5.16656 13.4184 5.09098 13.3597 5.00622 13.3173C4.92146 13.275 4.82918 13.2497 4.73466 13.243C4.64013 13.2363 4.54521 13.2482 4.45531 13.2782C2.79253 13.8324 1.56453 15.154 0.91 17.1177C0.618353 17.9997 0.457166 18.9196 0.431546 19.8482C0.431933 20.0391 0.507915 20.222 0.642895 20.357C0.77788 20.492 0.960837 20.568 1.15169 20.5684C2.08028 20.5427 3.00015 20.3816 3.88213 20.0899C5.84587 19.4354 7.16735 18.2074 7.72169 16.5446L7.72547 16.5332ZM18.217 8.66701C18.2238 8.66022 18.2306 8.65343 18.2373 8.64664C18.2373 8.64662 18.2373 8.64665 18.2373 8.64664C18.2565 8.62733 18.2757 8.60797 18.2946 8.58866C21.1889 5.63992 21.1025 2.63185 20.9288 1.46826C20.8776 1.11588 20.7139 0.789482 20.4622 0.537709C20.2104 0.285936 19.884 0.122276 19.5316 0.0711232C18.3576 -0.104039 15.3064 -0.190268 12.3327 2.78312L11.3997 3.71624H5.02812C4.80948 3.71567 4.5929 3.75846 4.3909 3.84212C4.1889 3.92578 4.0055 4.04866 3.85129 4.20366L0.487339 7.56784C0.274367 7.78085 0.123198 8.04767 0.0499528 8.33984C-0.0232926 8.63202 -0.0158686 8.93859 0.0714331 9.22688C0.158735 9.51517 0.322641 9.77436 0.545674 9.97681C0.768707 10.1793 1.0425 10.3174 1.33787 10.3765L5.45001 11.1989L9.80096 15.5499L10.6233 19.662C10.6824 19.9574 10.8205 20.2313 11.023 20.4543C11.2254 20.6774 11.4847 20.8413 11.773 20.9286C12.0613 21.0159 12.3679 21.0233 12.6601 20.95C12.9523 20.8767 13.2191 20.7255 13.4321 20.5125L16.7964 17.1484C16.9514 16.9942 17.0743 16.8108 17.158 16.6089C17.2416 16.4069 17.2844 16.1903 17.2838 15.9717V9.6002L18.1905 8.69333L18.217 8.66701C18.2169 8.66706 18.2171 8.66695 18.217 8.66701ZM12.4108 2.86128L11.4455 3.82677H5.02812C4.82409 3.82624 4.6217 3.86616 4.4332 3.94423C4.2447 4.02231 4.07355 4.13698 3.92965 4.28161L0.5655 7.64598C0.565498 7.64598 0.565502 7.64598 0.5655 7.64598C0.366674 7.84485 0.225542 8.09395 0.157162 8.36672C0.0887807 8.63949 0.0957115 8.92571 0.177215 9.19485C0.258719 9.46399 0.41174 9.70597 0.619961 9.89497C0.828182 10.084 1.0838 10.2129 1.35955 10.2681L5.5045 11.0971L9.90278 15.4954L10.7317 19.6404C10.7868 19.9161 10.9158 20.1718 11.1048 20.38C11.2938 20.5883 11.5358 20.7413 11.805 20.8228C12.0742 20.9043 12.3604 20.9112 12.6332 20.8428C12.906 20.7744 13.1551 20.6332 13.354 20.4343L16.7182 17.0702C16.8629 16.9264 16.9778 16.755 17.0558 16.5666C17.1339 16.3781 17.1738 16.176 17.1733 15.972V9.55442L18.1808 8.54663C21.0793 5.61858 20.9905 2.63013 20.8195 1.48458C20.7717 1.15578 20.6189 0.85079 20.384 0.615865C20.1491 0.380941 19.8445 0.228232 19.5157 0.180503C18.3645 0.00874726 15.3524 -0.0799569 12.4108 2.86128C12.4108 2.86128 12.4108 2.86128 12.4108 2.86128ZM1.43998 8.81234L4.98244 5.26997H10.0023L5.62311 9.64893L1.43998 8.81234ZM6.88097 10.4323L13.4314 3.8818C14.2475 3.06567 16.47 1.18524 19.299 1.60472L19.38 1.61673L19.3921 1.69774C19.8145 4.52878 17.9343 6.75223 17.118 7.5685L10.5675 14.119L6.88097 10.4323ZM15.7301 10.9976L15.73 16.0175L12.1876 19.5599L11.3509 15.3768L15.7301 10.9976ZM5.02822 5.38049H9.73543L5.58678 9.52895L1.66417 8.74446L5.02822 5.38049ZM10.5676 13.9627L7.03728 10.4323L13.5095 3.95995C14.3218 3.1477 16.5097 1.30288 19.2828 1.71405C19.6969 4.48908 17.8523 6.67798 17.0399 7.49035L10.5676 13.9627ZM11.4709 15.4131L15.6196 11.2644L15.6195 15.9717L12.2555 19.3357L11.4709 15.4131Z" fill="white"/>
</svg>
