<svg xmlns="http://www.w3.org/2000/svg" width="39.052" height="39.052" viewBox="0 0 39.052 39.052"><defs><style>.a{fill:#0f0f1d;stroke:#fff;stroke-width:0.8px;}</style></defs><g transform="translate(0.4 0.4)"><path class="a" d="M39.965,64.483a4.483,4.483,0,1,0-4.483,4.483A4.488,4.488,0,0,0,39.965,64.483Zm-4.483,2.241a2.241,2.241,0,1,1,2.241-2.241A2.244,2.244,0,0,1,35.483,66.724Z" transform="translate(-28.684 -55.517)"/><path class="a" d="M369.965,64.483a4.483,4.483,0,1,0-4.483,4.483A4.488,4.488,0,0,0,369.965,64.483Zm-4.483,2.241a2.241,2.241,0,1,1,2.241-2.241A2.244,2.244,0,0,1,365.483,66.724Z" transform="translate(-334.029 -55.517)"/><path class="a" d="M31.453,152.241a6.712,6.712,0,0,0-5.159,2.417,7.844,7.844,0,0,0-14.336,0A6.712,6.712,0,0,0,6.8,152.241,6.784,6.784,0,0,0,0,158.965v5.6a1.121,1.121,0,0,0,1.121,1.121H2.346l1.021,10.345a1.121,1.121,0,0,0,1.115,1.011H9.04a1.121,1.121,0,0,0,1.115-1.011l1.021-10.345h3.742l.849,10.327a1.121,1.121,0,0,0,1.117,1.029h4.483a1.121,1.121,0,0,0,1.117-1.029l.849-10.327h3.742L28.1,176.035a1.121,1.121,0,0,0,1.115,1.011h4.557a1.121,1.121,0,0,0,1.115-1.011l1.021-10.345h1.226a1.121,1.121,0,0,0,1.121-1.121v-5.6A6.785,6.785,0,0,0,31.453,152.241ZM10.161,163.448a1.121,1.121,0,0,0-1.115,1.011L8.024,174.8H5.5L4.477,164.459a1.121,1.121,0,0,0-1.115-1.011H2.241v-4.483a4.52,4.52,0,0,1,9.04,0v4.483Zm12.141,0a1.121,1.121,0,0,0-1.117,1.029L20.335,174.8H17.917l-.849-10.327a1.121,1.121,0,0,0-1.117-1.029H13.523v-5.6a5.613,5.613,0,0,1,4.483-5.491v5.491a1.121,1.121,0,1,0,2.241,0v-5.491a5.613,5.613,0,0,1,4.483,5.491v5.6Zm13.709,0H34.89a1.121,1.121,0,0,0-1.115,1.011L32.754,174.8H30.228l-1.021-10.345a1.121,1.121,0,0,0-1.115-1.011H26.971v-4.483a4.52,4.52,0,0,1,9.04,0Z" transform="translate(0 -138.793)"/><path class="a" d="M192.207,5.6a5.6,5.6,0,1,0-5.6,5.6A5.61,5.61,0,0,0,192.207,5.6Zm-5.6,3.362A3.362,3.362,0,1,1,189.965,5.6,3.366,3.366,0,0,1,186.6,8.965Z" transform="translate(-167.477)"/></g></svg>