<svg xmlns="http://www.w3.org/2000/svg" width="32.73" height="38.618" viewBox="0 0 32.73 38.618"><defs><style>.a{stroke:#f1f3f9;}</style></defs><g transform="translate(-39.5 0.506)"><path class="a" d="M70.825,6.09,56.428.112a1.469,1.469,0,0,0-1.127,0L40.906,6.09A1.469,1.469,0,0,0,40,7.446v7.266A24.6,24.6,0,0,0,55.31,37.5a1.469,1.469,0,0,0,1.11,0A24.6,24.6,0,0,0,71.73,14.712V7.446A1.469,1.469,0,0,0,70.825,6.09Zm-2.032,8.623A21.668,21.668,0,0,1,55.865,34.542,21.668,21.668,0,0,1,42.938,14.712V8.427L55.865,3.06,68.792,8.427ZM54.241,19.664l6.314-6.314a1.469,1.469,0,1,1,2.077,2.077L55.28,22.78a1.469,1.469,0,0,1-2.077,0L49.1,18.675A1.469,1.469,0,1,1,51.175,16.6Z" transform="translate(0 0)"/></g></svg>