<svg xmlns="http://www.w3.org/2000/svg" width="39.769" height="39.769" viewBox="0 0 39.769 39.769"><defs><style>.a{stroke:#f1f3f9;stroke-width:0.6px;}</style></defs><g transform="translate(0.3 0.3)"><path class="a" d="M162.475,166a4.97,4.97,0,0,0-3.443,1.419A4.97,4.97,0,0,0,155.59,166c-2.822,0-4.59,2.727-4.59,5.633,0,3.366,2.269,6.516,7.358,10.213l.675.49.675-.49c5.089-3.7,7.358-6.847,7.358-10.213C167.065,168.705,165.276,166,162.475,166Zm-3.443,13.49c-3.91-2.959-5.738-5.467-5.738-7.856,0-1.641.859-3.338,2.3-3.338a3.059,3.059,0,0,1,2.443,1.481l.991,1.869,1.008-1.869a3.059,3.059,0,0,1,2.443-1.482c1.437,0,2.3,1.7,2.3,3.338C164.77,174.023,162.943,176.531,159.033,179.49Z" transform="translate(-139.448 -153.301)"/><path class="a" d="M34.579,9.18a4.6,4.6,0,1,0-3.953-2.26L28.471,9.075a13.741,13.741,0,0,0-17.774,0L8.543,6.92A4.6,4.6,0,1,0,6.92,8.543L9.075,10.7a13.741,13.741,0,0,0,0,17.774L6.92,30.626a4.6,4.6,0,1,0,1.623,1.623L10.7,30.094a13.741,13.741,0,0,0,17.774,0l2.155,2.155a4.6,4.6,0,1,0,1.623-1.623l-2.155-2.155a13.741,13.741,0,0,0,0-17.774l2.155-2.155a4.561,4.561,0,0,0,2.33.637Zm0-6.885a2.3,2.3,0,1,1-2.3,2.3A2.3,2.3,0,0,1,34.579,2.3ZM4.59,6.885a2.3,2.3,0,1,1,2.3-2.3A2.3,2.3,0,0,1,4.59,6.885Zm0,29.989a2.3,2.3,0,1,1,2.3-2.3A2.3,2.3,0,0,1,4.59,36.874Zm29.989-4.59a2.3,2.3,0,1,1-2.3,2.3A2.3,2.3,0,0,1,34.579,32.284Zm-3.519-12.7A11.475,11.475,0,1,1,19.585,8.109,11.488,11.488,0,0,1,31.06,19.585Z"/></g></svg>