<svg width="21" height="21" viewBox="0 0 21 21" fill="none" xmlns="http://www.w3.org/2000/svg">
<path d="M20.6259 11.0363L16.0781 8.93725V2.92314C16.076 2.79697 16.0378 2.67406 15.968 2.56906C15.8982 2.46406 15.7997 2.3814 15.6844 2.33095L10.7625 0.0608489C10.6761 0.020763 10.5821 0 10.4869 0C10.3917 0 10.2976 0.020763 10.2112 0.0608489L5.28937 2.33095C5.17546 2.3838 5.07906 2.46831 5.01159 2.57444C4.94413 2.68057 4.90844 2.80387 4.90875 2.92972V8.94383L0.380627 11.0363C0.266715 11.0891 0.170311 11.1736 0.102848 11.2798C0.0353842 11.3859 -0.000308585 11.5092 2.00992e-06 11.635V18.0703C-0.000308585 18.1961 0.0353842 18.3194 0.102848 18.4256C0.170311 18.5317 0.266715 18.6162 0.380627 18.6691L5.3025 20.9392C5.38888 20.9792 5.48293 21 5.57812 21C5.67331 21 5.76736 20.9792 5.85375 20.9392L10.5 18.7941L15.1462 20.9392C15.2326 20.9792 15.3267 21 15.4219 21C15.5171 21 15.6111 20.9792 15.6975 20.9392L20.6194 18.6691C20.7333 18.6162 20.8297 18.5317 20.8971 18.4256C20.9646 18.3194 21.0003 18.1961 21 18.0703V11.635C21.0009 11.5099 20.9662 11.3871 20.8999 11.281C20.8337 11.175 20.7386 11.0901 20.6259 11.0363ZM18.7819 11.635L15.4284 13.1682L12.075 11.635L15.4284 10.0888L18.7819 11.635ZM10.5 1.37685L13.8534 2.92314L10.5 4.46944L7.15312 2.92314L10.5 1.37685ZM5.57812 10.0822L8.93156 11.6285L5.57812 13.1682L2.22469 11.635L5.57812 10.0822ZM9.84374 17.6426L5.57812 19.6166L1.3125 17.6426V12.6615L5.3025 14.4842C5.3871 14.5223 5.4788 14.542 5.57156 14.542C5.66432 14.542 5.75602 14.5223 5.84062 14.4842L9.83062 12.6418L9.84374 17.6426ZM6.23437 8.93725V3.9562L10.2244 5.7986C10.3108 5.83868 10.4048 5.85945 10.5 5.85945C10.5952 5.85945 10.6892 5.83868 10.7756 5.7986L14.7656 3.9562V8.94383L10.5 10.9178L6.23437 8.93725ZM19.694 17.6492L15.4284 19.6232L11.1562 17.6492V12.6549L15.1528 14.4842C15.2365 14.5214 15.327 14.5406 15.4186 14.5406C15.5101 14.5406 15.6007 14.5214 15.6844 14.4842L19.6744 12.6418L19.694 17.6492Z" fill="#4A4BFF"/>
</svg>
