<svg xmlns="http://www.w3.org/2000/svg" width="55.843" height="55.843" viewBox="0 0 55.843 55.843"><defs><style>.a{fill:#F03A01;stroke:#F03A01;stroke-width:0.1px;}</style></defs><g transform="translate(0.05 0.05)"><g transform="translate(16.723)"><path class="a" d="M159.521,11.3a6.5,6.5,0,1,0-8.744,0A8.372,8.372,0,0,0,144,19.51v3.716a.929.929,0,0,0,.929.929h20.439a.929.929,0,0,0,.929-.929V19.51A8.372,8.372,0,0,0,159.521,11.3ZM150.5,6.5a4.645,4.645,0,1,1,4.645,4.645A4.651,4.651,0,0,1,150.5,6.5ZM164.439,22.3H145.858V19.51a6.511,6.511,0,0,1,6.5-6.5h5.574a6.511,6.511,0,0,1,6.5,6.5Z" transform="translate(-144)"/></g><g transform="translate(0 31.588)"><path class="a" d="M15.521,283.3a6.5,6.5,0,1,0-8.744,0A8.372,8.372,0,0,0,0,291.51v3.716a.929.929,0,0,0,.929.929H21.368a.929.929,0,0,0,.929-.929V291.51A8.372,8.372,0,0,0,15.521,283.3ZM6.5,278.5a4.645,4.645,0,1,1,4.645,4.645A4.651,4.651,0,0,1,6.5,278.5ZM20.439,294.3H1.858V291.51a6.511,6.511,0,0,1,6.5-6.5h5.574a6.511,6.511,0,0,1,6.5,6.5Z" transform="translate(0 -272)"/></g><g transform="translate(33.446 31.588)"><path class="a" d="M303.521,283.3a6.5,6.5,0,1,0-8.744,0A8.372,8.372,0,0,0,288,291.51v3.716a.929.929,0,0,0,.929.929h20.439a.929.929,0,0,0,.929-.929V291.51A8.372,8.372,0,0,0,303.521,283.3Zm-9.017-4.8a4.645,4.645,0,1,1,4.645,4.645A4.651,4.651,0,0,1,294.5,278.5ZM308.439,294.3H289.858V291.51a6.511,6.511,0,0,1,6.5-6.5h5.574a6.511,6.511,0,0,1,6.5,6.5Z" transform="translate(-288 -272)"/></g><g transform="translate(3.736 29.7)"><path class="a" d="M34.024,255.744l-1.856.072c.025.64.076,1.289.152,1.926l1.845-.221C34.095,256.933,34.047,256.335,34.024,255.744Z" transform="translate(-32.168 -255.744)"/></g><g transform="translate(3.736 25.918)"><path class="a" d="M32.319,223.176c-.075.634-.127,1.281-.151,1.925l1.856.072c.023-.595.071-1.192.14-1.778Z" transform="translate(-32.168 -223.176)"/></g><g transform="translate(11.74 9.586)"><path class="a" d="M102.577,82.544c-.508.387-1.009.8-1.489,1.233l1.242,1.382c.442-.4.9-.78,1.373-1.137Z" transform="translate(-101.088 -82.544)"/></g><g transform="translate(5.256 18.516)"><path class="a" d="M46.009,159.44c-.273.581-.526,1.179-.753,1.782l1.739.653c.209-.556.442-1.107.694-1.642Z" transform="translate(-45.256 -159.44)"/></g><g transform="translate(4.191 22.133)"><path class="a" d="M36.545,190.584c-.177.614-.33,1.247-.457,1.877l1.822.367c.117-.581.258-1.164.422-1.732Z" transform="translate(-36.088 -190.584)"/></g><g transform="translate(9.082 12.168)"><path class="a" d="M79.482,104.776c-.445.468-.872.956-1.274,1.451l1.445,1.169c.37-.457.766-.909,1.176-1.341Z" transform="translate(-78.208 -104.776)"/></g><g transform="translate(14.808 7.498)"><path class="a" d="M129.179,64.568c-.562.3-1.122.63-1.667.98l1.007,1.563c.5-.324,1.018-.628,1.535-.9Z" transform="translate(-127.512 -64.568)"/></g><g transform="translate(6.901 15.167)"><path class="a" d="M60.452,130.6c-.363.53-.709,1.08-1.028,1.637l1.612.923c.294-.513.613-1.021.949-1.51Z" transform="translate(-59.424 -130.6)"/></g><g transform="translate(23.103 50.663)"><path class="a" d="M199.3,436.256l-.367,1.822c.625.126,1.268.228,1.91.3l.216-1.845C200.472,436.466,199.879,436.372,199.3,436.256Z" transform="translate(-198.936 -436.256)"/></g><g transform="translate(30.571 50.652)"><path class="a" d="M265,436.16c-.577.117-1.169.213-1.761.285l.224,1.845c.641-.078,1.282-.182,1.906-.308Z" transform="translate(-263.24 -436.16)"/></g><g transform="translate(26.937 51.079)"><path class="a" d="M233.809,439.84c-.594.023-1.194.026-1.784,0l-.073,1.856c.309.013.622.019.937.019.333,0,.664-.008.994-.021Z" transform="translate(-231.952 -439.84)"/></g><g transform="translate(42.766 10.826)"><path class="a" d="M369.5,93.224l-1.241,1.382c.442.4.871.816,1.277,1.243l1.349-1.277C370.442,94.108,369.977,93.654,369.5,93.224Z" transform="translate(-368.256 -93.224)"/></g><g transform="translate(45.22 13.625)"><path class="a" d="M390.829,117.32l-1.445,1.169c.371.458.729.94,1.066,1.431l1.532-1.051C391.617,118.338,391.23,117.817,390.829,117.32Z" transform="translate(-389.384 -117.32)"/></g><g transform="translate(50.151 27.846)"><path class="a" d="M433.7,239.776l-1.856.072c.012.293.018.588.018.883s-.006.6-.018.9l1.856.072q.02-.485.02-.976C433.724,240.411,433.717,240.092,433.7,239.776Z" transform="translate(-431.848 -239.776)"/></g><g transform="translate(47.233 16.808)"><path class="a" d="M408.333,144.736l-1.613.924c.294.514.571,1.046.824,1.581l1.681-.793C408.952,145.868,408.652,145.292,408.333,144.736Z" transform="translate(-406.72 -144.736)"/></g><g transform="translate(48.75 20.302)"><path class="a" d="M421.523,174.816l-1.739.654c.208.554.4,1.123.559,1.692l1.787-.512C421.953,176.033,421.749,175.416,421.523,174.816Z" transform="translate(-419.784 -174.816)"/></g><g transform="translate(49.73 24.013)"><path class="a" d="M430.045,206.776l-1.821.366c.117.582.212,1.174.281,1.762l1.845-.219C430.274,208.049,430.172,207.407,430.045,206.776Z" transform="translate(-428.224 -206.776)"/></g><g transform="translate(39.934 8.482)"><path class="a" d="M344.878,73.04,343.872,74.6c.5.32.987.664,1.46,1.026l1.128-1.478C345.948,73.759,345.416,73.387,344.878,73.04Z" transform="translate(-343.872 -73.04)"/></g><g transform="translate(36.793 6.658)"><path class="a" d="M317.568,57.328l-.744,1.7c.542.237,1.08.5,1.6.779l.879-1.637C318.741,57.868,318.155,57.583,317.568,57.328Z" transform="translate(-316.824 -57.328)"/></g></g></svg>