<svg xmlns="http://www.w3.org/2000/svg" width="14.753" height="12.079" viewBox="0 0 14.753 12.079"><defs><style>.a{fill:#f03a01;}</style></defs><path class="a" d="M14.417,29.491a5.592,5.592,0,0,1-.714.26,3.154,3.154,0,0,0,.642-1.129A.238.238,0,0,0,14,28.344a5.615,5.615,0,0,1-1.66.656,3.168,3.168,0,0,0-5.384,2.264,3.231,3.231,0,0,0,.026.409,8.108,8.108,0,0,1-5.565-2.952.238.238,0,0,0-.39.031A3.172,3.172,0,0,0,1.349,32.4a2.683,2.683,0,0,1-.424-.189.238.238,0,0,0-.353.2c0,.014,0,.028,0,.042a3.178,3.178,0,0,0,1.55,2.724c-.081-.008-.161-.02-.241-.035a.238.238,0,0,0-.271.306,3.166,3.166,0,0,0,2.32,2.123,5.6,5.6,0,0,1-2.995.855,5.729,5.729,0,0,1-.671-.039.238.238,0,0,0-.156.437,8.541,8.541,0,0,0,4.619,1.354,8.217,8.217,0,0,0,6.366-2.8A8.862,8.862,0,0,0,13.3,31.6c0-.087,0-.175,0-.262a6.157,6.157,0,0,0,1.417-1.5.238.238,0,0,0-.294-.35Z" transform="translate(0.002 -28.097)"/></svg>