<svg xmlns="http://www.w3.org/2000/svg" width="45.73" height="33.295" viewBox="0 0 45.73 33.295"><defs><style>.a{fill:#0f0f1d;stroke:#0f0f1d;stroke-width:0.4px;}</style></defs><g transform="translate(0.185 -11.205)"><g transform="translate(0.015 11.405)"><path class="a" d="M74.915,281.541H56.736a.664.664,0,1,0,0,1.328H74.915a.664.664,0,0,0,0-1.328Z" transform="translate(-51.109 -268.076)"/><path class="a" d="M65.826,376.2h-9.09a.664.664,0,0,0,0,1.328h9.09a.664.664,0,0,0,0-1.328Z" transform="translate(-51.109 -356.355)"/><path class="a" d="M265.471,186.88H253.815c-.235,0-.426.3-.426.664s.191.664.426.664h11.656c.235,0,.426-.3.426-.664S265.706,186.88,265.471,186.88Z" transform="translate(-223.956 -181.796)"/><path class="a" d="M363.8,234.21h-7.219a.682.682,0,0,0,0,1.328H363.8a.682.682,0,0,0,0-1.328Z" transform="translate(-322.382 -223.935)"/><path class="a" d="M25.163,225.624H4.3A4.291,4.291,0,0,0,.015,229.91v10.775A4.291,4.291,0,0,0,4.3,244.971h.15l-.858,4.765a1.056,1.056,0,0,0,1.766.953l5.876-5.578a.508.508,0,0,1,.351-.14H25.163a4.291,4.291,0,0,0,4.286-4.286V229.91A4.291,4.291,0,0,0,25.163,225.624Zm2.958,15.061a2.961,2.961,0,0,1-2.958,2.958H11.586a1.831,1.831,0,0,0-1.265.5l-5.274,5.006.745-4.137a1.167,1.167,0,0,0-1.148-1.374H4.3a2.961,2.961,0,0,1-2.958-2.958V229.91A2.961,2.961,0,0,1,4.3,226.952H25.163a2.961,2.961,0,0,1,2.958,2.958Z" transform="translate(-0.015 -218.11)"/><path class="a" d="M237.518,140.754H218.993a3.885,3.885,0,0,0-3.88,3.88v1.194a.664.664,0,0,0,1.328,0v-1.194a2.555,2.555,0,0,1,2.552-2.552h18.525a2.555,2.555,0,0,1,2.552,2.552v9.443a2.555,2.555,0,0,1-2.552,2.552h-.3a1.11,1.11,0,0,0-1.093,1.307l.621,3.45-4.518-4.289a1.7,1.7,0,0,0-1.175-.469h-3.107a.664.664,0,1,0,0,1.328h3.107a.377.377,0,0,1,.26.1l5.218,4.953a1.012,1.012,0,0,0,1.693-.913l-.746-4.144h.044a3.885,3.885,0,0,0,3.88-3.88v-9.443A3.884,3.884,0,0,0,237.518,140.754Z" transform="translate(-196.068 -140.754)"/></g></g></svg>