<svg width="25" height="25" viewBox="0 0 25 25" fill="none" xmlns="http://www.w3.org/2000/svg">
<path fill-rule="evenodd" clip-rule="evenodd" d="M15.3357 2.1697C14.4127 1.91131 13.4584 1.7821 12.5 1.78577C11.5107 1.78577 10.5678 1.91613 9.66428 2.1697L9.65356 2.17327C8.73571 2.42505 7.88571 2.78398 7.09643 3.24648C5.51057 4.19012 4.18778 5.51782 3.25002 7.10717L3.24645 7.11431C2.77536 7.9123 2.41038 8.76832 2.16074 9.66073C1.90895 10.586 1.78282 11.541 1.78575 12.5C1.78575 13.4911 1.91074 14.4375 2.16074 15.3411C2.65984 17.1304 3.61191 18.7609 4.92501 20.075C5.58573 20.7267 6.30715 21.2839 7.09643 21.7535C7.90057 22.2241 8.76176 22.5896 9.65892 22.841C10.585 23.0916 11.5405 23.2172 12.5 23.2142C13.491 23.2142 14.4375 23.0892 15.341 22.8392C16.2607 22.5803 17.1089 22.2178 17.8874 21.7553L17.8946 21.7517C19.4833 20.813 20.8103 19.4897 21.7535 17.9035C22.2227 17.1026 22.583 16.2426 22.8249 15.3464L22.8303 15.3357C23.0887 14.4128 23.2179 13.4584 23.2142 12.5C23.2142 11.5107 23.0856 10.5679 22.8303 9.6643L22.8267 9.65359C22.585 8.7624 22.2246 7.90773 21.7553 7.11253L21.7517 7.10539C21.2874 6.31504 20.7219 5.58867 20.0696 4.94468L20.0553 4.9304C19.4113 4.27811 18.6849 3.71262 17.8946 3.24826L17.8874 3.24469C17.0922 2.77534 16.2376 2.41497 15.3464 2.17327L15.3357 2.1697ZM23.291 18.8125C22.1936 20.6592 20.6484 22.1995 18.7982 23.291C17.8648 23.8416 16.8634 24.2678 15.8196 24.5589C14.7379 24.8545 13.6213 25.0028 12.5 24.9999C11.3781 25.0036 10.2609 24.8558 9.17856 24.5606C8.13182 24.2674 7.12715 23.8407 6.18929 23.291C5.27014 22.7459 4.42152 22.0898 3.66252 21.3375C2.91016 20.5785 2.25404 19.7299 1.70896 18.8107C1.15979 17.8722 0.733677 16.8669 0.44111 15.8196C0.145537 14.7379 -0.00282252 13.6213 4.0661e-05 12.5C4.0661e-05 11.3518 0.146469 10.2464 0.439324 9.17859C0.731144 8.13529 1.15797 7.13457 1.70896 6.20182C2.80093 4.35135 4.34188 2.80611 6.18929 1.70898C7.12649 1.15983 8.13224 0.73712 9.18035 0.451848C10.2607 0.148776 11.3779 -0.00326221 12.5 6.50944e-05C13.6227 -0.00361101 14.7405 0.148432 15.8214 0.451848C17.9077 1.02423 19.8064 2.1359 21.3267 3.67505C22.8649 5.19573 23.9759 7.09441 24.5481 9.18037C24.8499 10.2464 24.9999 11.3518 24.9999 12.5C24.9999 13.6482 24.8499 14.7536 24.5481 15.8214C24.2626 16.8689 23.8399 17.874 23.291 18.8107V18.8125Z" fill="#858997"/>
<path d="M5 12.2473C5 11.8909 5.10394 11.5939 5.31182 11.3564C5.52712 11.1188 5.84636 11 6.26955 11C6.69273 11 7.01197 11.1188 7.22727 11.3564C7.45 11.5939 7.56136 11.8909 7.56136 12.2473C7.56136 12.5888 7.45 12.8746 7.22727 13.1048C7.01197 13.3349 6.69273 13.45 6.26955 13.45C5.84636 13.45 5.52712 13.3349 5.31182 13.1048C5.10394 12.8746 5 12.5888 5 12.2473Z" fill="#858997"/>
<path d="M11.0136 12.2473C11.0136 11.8909 11.1176 11.5939 11.3255 11.3564C11.5408 11.1188 11.86 11 12.2832 11C12.7064 11 13.0256 11.1188 13.2409 11.3564C13.4636 11.5939 13.575 11.8909 13.575 12.2473C13.575 12.5888 13.4636 12.8746 13.2409 13.1048C13.0256 13.3349 12.7064 13.45 12.2832 13.45C11.86 13.45 11.5408 13.3349 11.3255 13.1048C11.1176 12.8746 11.0136 12.5888 11.0136 12.2473Z" fill="#858997"/>
<path d="M17.0273 12.2473C17.0273 11.8909 17.1312 11.5939 17.3391 11.3564C17.5544 11.1188 17.8736 11 18.2968 11C18.72 11 19.0392 11.1188 19.2545 11.3564C19.4773 11.5939 19.5886 11.8909 19.5886 12.2473C19.5886 12.5888 19.4773 12.8746 19.2545 13.1048C19.0392 13.3349 18.72 13.45 18.2968 13.45C17.8736 13.45 17.5544 13.3349 17.3391 13.1048C17.1312 12.8746 17.0273 12.5888 17.0273 12.2473Z" fill="#858997"/>
</svg>
