<svg width="25" height="25" viewBox="0 0 25 25" fill="none" xmlns="http://www.w3.org/2000/svg">
<path d="M12.5 0C10.0277 0 7.61099 0.733112 5.55538 2.10663C3.49976 3.48015 1.89761 5.43238 0.951511 7.71646C0.00541604 10.0005 -0.242126 12.5139 0.24019 14.9386C0.722505 17.3634 1.91301 19.5907 3.66117 21.3388C5.40933 23.087 7.63661 24.2775 10.0614 24.7598C12.4861 25.2421 14.9995 24.9946 17.2835 24.0485C19.5676 23.1024 21.5199 21.5002 22.8934 19.4446C24.2669 17.389 25 14.9723 25 12.5C24.9962 9.18595 23.678 6.00873 21.3347 3.66534C18.9913 1.32196 15.814 0.003781 12.5 0ZM12.5 23.2143C9.6584 23.2143 6.93318 22.0855 4.92386 20.0761C2.91454 18.0668 1.78572 15.3416 1.78572 12.5C1.78572 9.65839 2.91454 6.93317 4.92386 4.92385C6.93318 2.91454 9.6584 1.78571 12.5 1.78571V12.5L20.0723 20.0723C19.0793 21.0689 17.8991 21.8595 16.5996 22.3987C15.3001 22.9379 13.9069 23.2151 12.5 23.2143Z" fill="#FF6332"/>
</svg>
