<svg width="235" height="252" viewBox="0 0 235 252" fill="none" xmlns="http://www.w3.org/2000/svg">
<g opacity="0.2" clip-path="url(#clip0_807_3767)">
<path d="M73.2479 128.039L73.4663 128.318C76.3482 86.339 111.782 53.1556 155.12 53.1556C155.142 53.1556 155.163 53.1556 155.163 53.1556C155.185 53.1556 155.207 53.1556 155.207 53.1556C177.28 53.1556 197.322 61.7793 212.036 75.7797V-8.48034C194.462 -15.3192 175.293 -19.1042 155.229 -19.1042C69.4928 -19.1042 0 49.349 0 133.803C0 188.6 29.2774 236.643 73.2479 263.633V128.039Z" fill="white"/>
<path d="M237.102 3.90759V139.588L236.883 139.309C234.024 181.288 198.569 214.471 155.231 214.471C155.209 214.471 155.187 214.471 155.187 214.471C155.165 214.471 155.143 214.471 155.143 214.471C133.071 214.471 113.028 205.849 98.3135 191.847V276.086C115.954 282.947 135.145 286.753 155.252 286.753C240.989 286.753 310.48 218.3 310.48 133.846C310.48 78.9631 281.138 30.8974 237.102 3.90759Z" fill="white"/>
<path d="M202.606 102.9C202.103 105.502 201.187 108.061 199.767 110.47C192.978 122.062 177.957 126.019 166.189 119.33C154.421 112.642 150.404 97.846 157.194 86.2543C159.05 83.0929 161.539 80.5124 164.377 78.5553C161.408 78.0821 158.351 77.824 155.229 77.824C123.834 77.824 98.3994 102.878 98.3994 133.804C98.3994 164.729 123.856 189.784 155.229 189.784C186.603 189.784 212.06 164.729 212.06 133.804C212.06 122.384 208.588 111.76 202.606 102.9Z" fill="white"/>
</g>
<defs>
<clipPath id="clip0_807_3767">
<rect width="235" height="252" fill="white"/>
</clipPath>
</defs>
</svg>
