<svg width="78" height="78" viewBox="0 0 78 78" fill="none" xmlns="http://www.w3.org/2000/svg">
<path d="M53.2505 21.9028H24.7493C24.7493 21.9028 4.79688 39.0004 4.79688 58.9528C4.79688 70.3486 13.3769 76.0504 19.0475 76.0504H58.9523C64.6463 76.0504 73.2029 70.3486 73.2029 58.9528C73.2029 39.0004 53.2505 21.9028 53.2505 21.9028ZM41.8469 61.5112V66.0742H36.1529V61.5268C31.9565 60.7468 29.3201 58.1572 29.1329 54.3976H34.0703C34.3121 56.371 36.3011 57.6424 39.1793 57.6424C41.8313 57.6424 43.7111 56.3554 43.7111 54.5224C43.7111 52.9624 42.4943 52.0732 39.4991 51.4024L36.3245 50.7238C31.8785 49.7956 29.6945 47.479 29.6945 43.7584C29.6945 40.0378 32.1749 37.3546 36.1217 36.4732V31.879H41.8157V36.481C45.6689 37.339 48.2351 39.9676 48.3599 43.501H43.5941C43.3523 41.5744 41.5583 40.2874 39.0935 40.2874C36.6287 40.2874 34.8503 41.473 34.8503 43.3294C34.8503 44.8348 36.0125 45.6694 38.8751 46.309L41.8157 46.933C46.7219 47.9626 48.8357 50.053 48.8357 53.8672C48.8357 57.9466 46.2149 60.6766 41.8469 61.5112Z" fill="#9D60FB"/>
<path d="M53.2499 4.79729H45.3719C44.5674 3.90491 43.5844 3.19144 42.4866 2.70309C41.3889 2.21475 40.2008 1.9624 38.9993 1.9624C37.7978 1.9624 36.6097 2.21475 35.5119 2.70309C34.4142 3.19144 33.4312 3.90491 32.6267 4.79729H24.7487C24.2846 4.7993 23.8279 4.91443 23.4184 5.13272C23.0088 5.35101 22.6586 5.66586 22.3981 6.05001C22.1377 6.43416 21.9748 6.87601 21.9237 7.3373C21.8725 7.79859 21.9346 8.26539 22.1045 8.69728L24.7487 16.1931H53.2499L55.8941 8.69728C56.064 8.26539 56.1261 7.79859 56.0749 7.3373C56.0237 6.87601 55.8609 6.43416 55.6004 6.05001C55.34 5.66586 54.9898 5.35101 54.5802 5.13272C54.1706 4.91443 53.714 4.7993 53.2499 4.79729Z" fill="#9D60FB"/>
</svg>
