<svg width="100" height="100" viewBox="0 0 100 100" fill="none" xmlns="http://www.w3.org/2000/svg">
<style>
@-webkit-keyframes bounce2 {0%, 20%, 50%, 80%, 100% {transform: translateY(0);}40% {transform: translateY(-10px);}60% {transform: translateY(-5px);}}
@-o-keyframes bounce2 {0%, 20%, 50%, 80%, 100% {transform: translateY(0);}40% {transform: translateY(-10px);}60% {transform: translateY(-5px);}}
@keyframes bounce2 {0%, 20%, 50%, 80%, 100% {transform: translateY(0);}40% {transform: translateY(-10px);}60% {transform: translateY(-5px);}}

#_heartbeat {
    animation: bounce2 2s ease infinite;
	-webkit-animation: bounce2 2s ease infinite;
	-moz-animation: bounce2 2s ease infinite;
	-o-animation: bounce2 2s ease infinite;
}
</style>
<rect width="100" height="100" rx="15" fill="#EBDFFE"/>
<g id="_heartbeat">
<path d="M35.8625 45.2609C35.8625 43.9859 36.0328 42.7453 36.3531 41.5531H28.7109C26.6609 41.5531 25 42.9578 25 44.6898V59.3281C25 61.0632 26.6609 62.4656 28.7109 62.4656L27.2602 69.1937L35.4023 62.4656H47.2695C48.4023 62.4656 49.4188 62.0367 50.0977 61.3585C41.8586 59.2632 35.8625 52.8499 35.8625 45.2609ZM64.943 46.5828H47.1117C46.0719 46.5828 45.2297 45.9906 45.2297 45.2609C45.2297 44.532 46.0719 43.9421 47.1117 43.9421H64.943C65.9828 43.9421 66.8258 44.532 66.8258 45.2609C66.8258 45.9906 65.9828 46.5828 64.943 46.5828ZM63.8563 52.4281H47.6578C46.7141 52.4281 45.9469 51.8382 45.9469 51.1085C45.9469 50.3796 46.7141 49.7875 47.6578 49.7875H63.8563C64.8008 49.7875 65.5648 50.3796 65.5648 51.1085C65.5648 51.8382 64.8008 52.4281 63.8563 52.4281ZM46.9375 37.9984H63.1359C64.0805 37.9984 64.8445 38.5914 64.8445 39.3203C64.8445 40.0492 64.0805 40.639 63.1359 40.639H46.9375C45.9938 40.639 45.2297 40.0492 45.2297 39.3203C45.2297 38.5914 45.9938 37.9984 46.9375 37.9984ZM69.35 55.0742C73.4805 52.6835 74.0273 48.1867 74.0273 45.3539C74.0273 37.3187 65.9016 30.8054 55.882 30.8054C45.8602 30.8054 37.7344 37.3187 37.7344 45.3539C37.7344 53.3921 45.8602 59.9054 55.882 59.9054C58.6422 59.9054 60.2687 59.6523 62.6102 58.7695L75 68.7687L69.35 55.0742Z" fill="#9D60FB"/>
</g>
</svg>
