<svg width="61" height="61" viewBox="0 0 61 61" fill="none" xmlns="http://www.w3.org/2000/svg">
<path d="M18.0556 47.7021C17.4456 48.6781 16.2866 49.2271 15.4936 49.4101C14.1516 49.6541 12.8706 49.7761 11.8946 50.5691C11.5896 50.8131 11.1016 50.6301 11.0406 50.2641C10.8576 49.1051 11.1626 47.8241 11.7116 47.0311C11.4676 47.0311 11.2846 47.0921 11.0406 47.2141C10.6136 47.3971 10.1866 47.0311 10.2476 46.6041C10.6136 45.2621 11.5286 43.4931 12.9316 42.7001L10.6136 40.3821C10.4916 40.2601 10.3086 40.0771 10.1866 39.9551C5.67261 40.9311 2.86661 46.2991 1.89061 49.9591C1.64661 50.9961 2.68361 51.7891 3.65961 51.3621C4.14761 51.1181 4.63561 50.9961 5.18461 50.9961C3.96461 52.8261 3.17161 55.8151 3.65961 58.5601C3.84261 59.4751 4.94061 59.9021 5.67261 59.2921C7.99061 57.4011 10.9796 57.2181 14.0906 56.6081C16.4086 56.1201 20.1296 54.1071 21.0446 50.6911C20.8006 50.5081 20.5566 50.2641 20.3126 50.0201L18.0556 47.7021Z" fill="#9D60FB"/>
<path d="M47.885 33.1227C57.035 22.7527 59.353 7.86873 59.109 3.35473C59.109 2.86673 58.865 2.43973 58.56 2.13473C58.255 1.82973 57.828 1.64673 57.34 1.58573C52.826 1.34173 37.942 3.59873 27.572 12.8097L24.278 11.5897C20.618 10.2477 16.531 11.3457 14.03 14.2737L8.29597 21.0447C7.50297 22.0207 7.86897 23.4847 9.02797 23.9117L16.348 26.5957C14.335 29.8897 12.932 32.7567 12.078 34.5257C11.529 35.8067 11.773 37.2707 12.749 38.3077L22.387 47.9457C23.363 48.9217 24.888 49.2267 26.169 48.6167C27.999 47.7627 30.866 46.3597 34.099 44.3467L36.783 51.6667C37.21 52.8257 38.674 53.2527 39.65 52.3987L46.36 46.6647C49.288 44.1637 50.386 40.0767 49.044 36.4167L47.885 33.1227ZM43.92 24.9487C41.602 27.2667 37.942 27.2667 35.624 24.9487C33.306 22.6307 33.306 18.9707 35.624 16.6527C37.942 14.3347 41.602 14.3347 43.92 16.6527C46.238 18.9707 46.238 22.6917 43.92 24.9487Z" fill="#9D60FB"/>
</svg>
