<svg width="100" height="100" viewBox="0 0 100 100" fill="none" xmlns="http://www.w3.org/2000/svg">
<style>
@-webkit-keyframes bounce2 {0%, 20%, 50%, 80%, 100% {transform: translateY(0);}40% {transform: translateY(-10px);}60% {transform: translateY(-5px);}}
@-o-keyframes bounce2 {0%, 20%, 50%, 80%, 100% {transform: translateY(0);}40% {transform: translateY(-10px);}60% {transform: translateY(-5px);}}
@keyframes bounce2 {0%, 20%, 50%, 80%, 100% {transform: translateY(0);}40% {transform: translateY(-10px);}60% {transform: translateY(-5px);}}

#_heartbeat {
    animation: bounce2 2s ease infinite;
	-webkit-animation: bounce2 2s ease infinite;
	-moz-animation: bounce2 2s ease infinite;
	-o-animation: bounce2 2s ease infinite;
}
</style>
<rect width="100" height="100" rx="15" fill="#EBDFFE"/>
<g id="_heartbeat">
<g clip-path="url(#clip0_418_2099)">
<path d="M36.8426 56.2055C36.8426 58.925 34.6208 61.1468 31.9013 61.1468C29.1818 61.1468 26.96 58.925 26.96 56.2055C26.96 53.486 29.1818 51.2642 31.9013 51.2642H36.8426V56.2055ZM39.3332 56.2055C39.3332 53.486 41.555 51.2642 44.2745 51.2642C46.994 51.2642 49.2158 53.486 49.2158 56.2055V68.5787C49.2158 71.2982 46.994 73.52 44.2745 73.52C41.555 73.52 39.3332 71.2982 39.3332 68.5787V56.2055ZM44.2745 36.3626C41.555 36.3626 39.3332 34.1408 39.3332 31.4213C39.3332 28.7018 41.555 26.48 44.2745 26.48C46.994 26.48 49.2158 28.7018 49.2158 31.4213V36.3626H44.2745ZM44.2745 38.8532C46.994 38.8532 49.2158 41.075 49.2158 43.7945C49.2158 46.514 46.994 48.7358 44.2745 48.7358H31.9013C29.1818 48.7358 26.96 46.514 26.96 43.7945C26.96 41.075 29.1818 38.8532 31.9013 38.8532H44.2745ZM64.1174 43.7945C64.1174 41.075 66.3392 38.8532 69.0587 38.8532C71.7782 38.8532 74 41.075 74 43.7945C74 46.514 71.7782 48.7358 69.0587 48.7358H64.1174V43.7945ZM61.6268 43.7945C61.6268 46.514 59.405 48.7358 56.6855 48.7358C53.966 48.7358 51.7442 46.514 51.7442 43.7945V31.4213C51.7442 28.7018 53.966 26.48 56.6855 26.48C59.405 26.48 61.6268 28.7018 61.6268 31.4213V43.7945ZM56.6855 63.6374C59.405 63.6374 61.6268 65.8592 61.6268 68.5787C61.6268 71.2982 59.405 73.52 56.6855 73.52C53.966 73.52 51.7442 71.2982 51.7442 68.5787V63.6374H56.6855ZM56.6855 61.1468C53.966 61.1468 51.7442 58.925 51.7442 56.2055C51.7442 53.486 53.966 51.2642 56.6855 51.2642H69.0587C71.7782 51.2642 74 53.486 74 56.2055C74 58.925 71.7782 61.1468 69.0587 61.1468H56.6855Z" fill="#9D60FB"/>
</g>
</g>
<defs>
<clipPath id="clip0_418_2099">
<rect width="48" height="48" fill="white" transform="translate(26 26)"/>
</clipPath>
</defs>
</svg>
