<svg width="61" height="61" viewBox="0 0 61 61" fill="none" xmlns="http://www.w3.org/2000/svg">
<path fill-rule="evenodd" clip-rule="evenodd" d="M30.0314 6.52539C40.0536 6.52539 48.6671 12.5588 52.4389 21.1907C52.5806 21.5154 52.5412 21.8636 52.33 22.1489C52.0269 22.5562 51.721 22.9485 51.4216 23.321C51.2489 23.5369 51.0725 23.7509 50.8942 23.9648C50.6333 24.2764 50.2288 24.389 49.8449 24.2567C49.5671 24.1619 49.2687 24.1103 48.9599 24.1103H38.4995C34.8609 24.1103 34.8609 29.6106 38.4995 29.6106H42.7949C43.1985 29.6106 43.542 29.8518 43.679 30.2328C43.8142 30.6119 43.7025 31.0174 43.3909 31.2736C40.4487 33.692 37.3141 35.887 34.295 37.7762C28.2201 41.576 20.8276 45.2604 13.8049 46.8605C13.3384 46.9665 12.8513 47.0707 12.353 47.1636C12.0048 47.2293 11.6735 47.112 11.4436 46.8436C7.79286 42.5736 5.58646 37.0291 5.58646 30.9695C5.58646 17.4697 16.5312 6.52539 30.0314 6.52539ZM49.7041 12.4339C52.0269 12.1946 55.5097 12.1796 56.7879 14.2227C58.632 17.1694 54.7485 22.4229 53.0048 24.5927C48.3461 30.3923 41.6481 35.5708 35.3724 39.4973C29.0976 43.4229 21.509 47.1871 14.2563 48.8406C11.5478 49.4581 5.1144 50.6575 3.27401 47.7163C1.99297 45.6696 3.52459 42.5464 4.7559 40.5596C4.9145 40.3044 4.94547 40.02 4.84693 39.7375C4.59166 39.0027 4.3683 38.2576 4.17872 37.5031C4.14024 37.3539 4.02669 37.2469 3.87559 37.2187C3.72355 37.1906 3.57902 37.2506 3.4908 37.3764C1.13331 40.7398 -1.35652 45.6639 0.863959 49.2132C3.51145 53.4447 10.8195 52.5278 14.8747 51.6044C22.4362 49.8804 30.3252 46.0018 36.8693 41.9073C43.4115 37.8137 50.3564 32.4147 55.2131 26.3692C57.8146 23.1315 61.8436 16.9536 59.1989 12.7258C56.9747 9.17185 51.4572 9.25538 47.3973 9.90479C47.2462 9.92919 47.1289 10.0343 47.0876 10.1816C47.0463 10.3309 47.0933 10.4801 47.2106 10.5795C47.8046 11.0788 48.3771 11.6053 48.9243 12.1562C49.1364 12.3683 49.4057 12.4649 49.7041 12.4339ZM54.4041 32.8483C53.445 45.4706 42.8991 55.4136 30.0314 55.4136C26.8612 55.4136 23.8336 54.8092 21.0557 53.7122C20.6746 53.5611 20.4391 53.2073 20.4475 52.7981C20.456 52.388 20.7056 52.0445 21.0923 51.9094C26.1592 50.1432 31.1811 47.661 35.7159 44.9845H44.854C46.3669 44.9845 47.6038 43.7476 47.6038 42.2348C47.6038 41.133 46.9478 40.1767 46.0065 39.7394C45.7015 39.5968 45.5081 39.3274 45.4706 38.9933C45.4331 38.6583 45.5626 38.3533 45.8282 38.1469C48.2617 36.2634 50.6145 34.2344 52.7674 32.0938C53.0583 31.8057 53.4769 31.7315 53.8485 31.9023C54.2202 32.0741 54.4351 32.4401 54.4041 32.8483ZM15.3665 16.8062C11.728 16.8062 11.728 22.3066 15.3665 22.3066H25.8279C29.4665 22.3066 29.4665 16.8062 25.8279 16.8062H15.3665ZM13.5177 31.5495C9.87914 31.5495 9.87914 37.0498 13.5177 37.0498H23.9781C27.6176 37.0498 27.6176 31.5495 23.9781 31.5495H13.5177Z" fill="#9D60FB"/>
</svg>
