<svg width="156" height="24" viewBox="0 0 156 24" fill="none" xmlns="http://www.w3.org/2000/svg">
<path d="M36.0468 1.948V9.37345C34.9838 8.36342 33.5394 7.74129 31.9471 7.74129C28.685 7.74129 26.0405 10.3462 26.0405 13.5594C26.0405 16.7725 28.685 19.3775 31.9471 19.3775C35.0734 19.3775 37.6314 16.9836 37.8376 13.955L37.8535 13.9752V1.948H36.0468ZM31.9471 17.5979C29.682 17.5979 27.8471 15.7904 27.8471 13.5594C27.8471 11.3283 29.682 9.52084 31.9471 9.52084C34.2119 9.52084 36.0468 11.3283 36.0468 13.5594C36.0468 15.7904 34.2119 17.5979 31.9471 17.5979Z" fill="white"/>
<path d="M72.8947 7.74121C69.7682 7.74121 67.2104 10.1352 67.0041 13.1637L66.9883 13.1435V23.1522H68.795V17.7453C69.858 18.7552 71.3024 19.3774 72.8947 19.3774C76.1568 19.3774 78.8013 16.7724 78.8013 13.5593C78.8013 10.3462 76.1568 7.74121 72.8947 7.74121ZM72.8947 17.5979C70.6298 17.5979 68.795 15.7904 68.795 13.5593C68.795 11.3283 70.6298 9.52077 72.8947 9.52077C75.1598 9.52077 76.9947 11.3283 76.9947 13.5593C76.9947 15.7904 75.1598 17.5979 72.8947 17.5979Z" fill="white"/>
<path d="M45.8564 7.75928C42.6039 7.75928 39.9673 10.3565 39.9673 13.5603C39.9673 16.7641 42.6039 19.3613 45.8564 19.3613C47.6582 19.3613 49.2711 18.5639 50.35 17.3072L49.2758 16.0877C48.4962 17.1101 47.255 17.7711 45.8564 17.7711C43.6797 17.7711 41.8841 16.1683 41.6164 14.0956H49.6224H50.3989H51.2462C51.262 13.9187 51.273 13.7403 51.273 13.5603C51.273 10.3565 49.1089 7.75928 45.8564 7.75928ZM41.7077 12.5456C42.1693 10.7102 43.8514 9.34956 45.8579 9.34956C47.8646 9.34956 49.0742 10.7102 49.5342 12.5456H41.7077Z" fill="white"/>
<path d="M59.1563 7.75928C55.9037 7.75928 53.2671 10.3565 53.2671 13.5603C53.2671 16.7641 55.9037 19.3613 59.1563 19.3613C60.9581 19.3613 62.5709 18.5639 63.6499 17.3072L62.5757 16.0877C61.796 17.1101 60.5549 17.7711 59.1563 17.7711C56.9795 17.7711 55.184 16.1683 54.9162 14.0956H62.9222H63.6988H64.5461C64.5618 13.9187 64.5729 13.7403 64.5729 13.5603C64.5729 10.3565 62.4087 7.75928 59.1563 7.75928ZM55.0075 12.5456C55.469 10.7102 57.1511 9.34956 59.1578 9.34956C61.1645 9.34956 62.3741 10.7102 62.8341 12.5456H55.0075Z" fill="white"/>
<path d="M103.59 12.2868V19.2422H102.895V12.2868C102.895 11.2225 102.59 10.363 101.98 9.70981C101.371 9.05663 100.556 8.72927 99.5376 8.72927C98.4871 8.72927 97.6239 9.06438 96.9452 9.73308C96.2662 10.4018 95.926 11.2536 95.926 12.2868V19.2422H95.2314V2.13696H95.926V10.0511C96.6822 8.72772 97.8949 8.06677 99.5613 8.06677C100.796 8.06677 101.775 8.45466 102.501 9.23039C103.228 10.0061 103.59 11.0239 103.59 12.2868Z" fill="white"/>
<path d="M131.953 19.2422V2.13696H132.648V19.2422H131.953ZM134.037 13.1076L139.918 19.2422H138.992L133.087 13.0843L138.389 8.29484H139.384L134.037 13.1076Z" fill="white"/>
<path d="M141.191 16.8667L141.747 16.4555C142.766 17.8845 143.984 18.5997 145.406 18.5997C146.224 18.5997 146.891 18.4058 147.408 18.0179C147.925 17.6301 148.183 17.087 148.183 16.3873C148.136 15.7341 147.936 15.2469 147.582 14.9274C147.226 14.6078 146.585 14.2431 145.659 13.832L144.688 13.3991C143.746 12.988 143.058 12.5784 142.628 12.1672C142.196 11.7561 141.978 11.2239 141.978 10.5707C141.978 9.73449 142.31 9.08131 142.974 8.60965C143.637 8.10851 144.432 7.85718 145.358 7.85718C146.732 7.85718 147.898 8.44209 148.855 9.61347L148.347 10.0696C147.466 9.03631 146.455 8.51811 145.313 8.51811C144.573 8.51811 143.955 8.69653 143.461 9.05338C142.967 9.41022 142.721 9.90825 142.721 10.5475C142.736 10.8066 142.786 11.03 142.872 11.2208C142.957 11.4116 143.029 11.559 143.092 11.6661C143.153 11.7731 143.32 11.905 143.589 12.0648C143.859 12.2246 144.052 12.3317 144.168 12.3844C144.284 12.4372 144.58 12.5784 145.059 12.8064L146.101 13.2626C147.058 13.6737 147.767 14.1066 148.23 14.5627C148.693 15.0189 148.924 15.6115 148.924 16.3423C148.924 17.2545 148.577 17.9697 147.882 18.4865C147.203 19.0032 146.362 19.2622 145.358 19.2622C143.629 19.2622 142.24 18.4632 141.191 16.8667Z" fill="white"/>
<path d="M92.067 16.7799C91.1299 17.8862 89.7218 18.5891 88.1451 18.5891C85.3258 18.5891 83.0403 16.3377 83.0403 13.5606C83.0403 10.7835 85.3258 8.53224 88.1451 8.53224C89.7123 8.53224 91.1141 9.22885 92.0513 10.3242L92.5584 9.90376C91.5 8.66722 89.917 7.88062 88.1467 7.88062C84.9603 7.88062 82.3789 10.4251 82.3789 13.5622C82.3789 16.7009 84.962 19.2437 88.1467 19.2437C89.9313 19.2437 91.5267 18.4447 92.5837 17.1912L92.067 16.7799Z" fill="white"/>
<path d="M128.75 16.7799C127.812 17.8862 126.404 18.5891 124.828 18.5891C122.008 18.5891 119.723 16.3377 119.723 13.5606C119.723 10.7835 122.008 8.53224 124.828 8.53224C126.395 8.53224 127.797 9.22885 128.734 10.3242L129.241 9.90376C128.183 8.66722 126.6 7.88062 124.829 7.88062C121.643 7.88062 119.061 10.4251 119.061 13.5622C119.061 16.7009 121.645 19.2437 124.829 19.2437C126.614 19.2437 128.209 18.4447 129.266 17.1912L128.75 16.7799Z" fill="white"/>
<path d="M111.772 7.87646C108.586 7.87646 106.004 10.4209 106.004 13.558C106.004 16.6952 108.587 19.2396 111.772 19.2396C113.565 19.2396 115.166 18.4343 116.225 17.17L115.718 16.7263C114.784 17.8526 113.363 18.5724 111.772 18.5724C108.961 18.5724 106.682 16.3274 106.682 13.558H116.233H116.669H116.91C116.91 10.4209 114.957 7.87646 111.772 7.87646ZM106.723 12.9312C107.036 10.4582 109.177 8.54361 111.772 8.54361C114.368 8.54361 115.878 10.4582 116.192 12.9312H106.723Z" fill="white"/>
<path d="M5.28431 10.6153L5.30006 10.6355C5.50797 7.60697 8.06428 5.21303 11.1908 5.21303C11.1923 5.21303 11.1939 5.21303 11.1939 5.21303C11.1955 5.21303 11.1971 5.21303 11.1971 5.21303C12.7894 5.21303 14.2354 5.83516 15.2969 6.8452V0.766439C14.029 0.273064 12.6461 0 11.1986 0C5.0134 0 0 4.93841 0 11.0311C0 14.9843 2.11216 18.4504 5.28431 20.3975V10.6153Z" fill="#00E6FF"/>
<path d="M17.1054 1.65991V11.4483L17.0896 11.4281C16.8833 14.4566 14.3255 16.8505 11.1989 16.8505C11.1974 16.8505 11.1958 16.8505 11.1958 16.8505C11.1942 16.8505 11.1927 16.8505 11.1927 16.8505C9.60025 16.8505 8.15435 16.2285 7.09277 15.2184V21.2956C8.36541 21.7906 9.74988 22.0652 11.2005 22.0652C17.3858 22.0652 22.3991 17.1268 22.3991 11.034C22.3991 7.07462 20.2823 3.60703 17.1054 1.65991Z" fill="#007AFF"/>
<path d="M14.6164 8.80172C14.5801 8.98946 14.514 9.17408 14.4115 9.34785C13.9218 10.1841 12.8381 10.4696 11.9892 9.98707C11.1402 9.50456 10.8504 8.43712 11.3402 7.60086C11.4741 7.37279 11.6537 7.18662 11.8584 7.04543C11.6442 7.0113 11.4237 6.99268 11.1985 6.99268C8.93357 6.99268 7.09863 8.80017 7.09863 11.0312C7.09863 13.2623 8.93513 15.0698 11.1985 15.0698C13.4618 15.0698 15.2984 13.2623 15.2984 11.0312C15.2984 10.2074 15.048 9.44094 14.6164 8.80172Z" fill="#9D60FB"/>
<path d="M153.52 19.2618C154.498 19.2618 155.293 18.4797 155.293 17.5149C155.293 16.5501 154.498 15.7678 153.52 15.7678C152.54 15.7678 151.745 16.5501 151.745 17.5149C151.745 18.4797 152.54 19.2618 153.52 19.2618Z" fill="#9D60FB"/>
</svg>
