<svg width="37" height="37" viewBox="0 0 37 37" fill="none" xmlns="http://www.w3.org/2000/svg">
<path d="M36.1682 3.6354C36.1323 2.96144 35.8485 2.32455 35.3713 1.84731C34.894 1.37008 34.2571 1.08623 33.5832 1.0504C28.886 0.763845 24.1951 1.70287 19.9702 3.7754C16.9812 5.41515 14.3336 7.61164 12.1702 10.2464L12.0872 10.3464L6.93517 10.7464C6.51948 10.7772 6.11645 10.9032 5.75719 11.1146C5.39792 11.3259 5.09204 11.617 4.86317 11.9654L1.34417 17.2804C1.17017 17.5438 1.06516 17.8468 1.0388 18.1614C1.01245 18.476 1.06557 18.7922 1.19331 19.0809C1.32105 19.3697 1.51929 19.6217 1.76984 19.8138C2.02038 20.0059 2.31519 20.132 2.62717 20.1804L6.96717 20.8524C6.95217 20.9364 6.93617 21.0214 6.92217 21.1054C6.85179 21.534 6.88457 21.9731 7.01778 22.3865C7.15099 22.7999 7.3808 23.1756 7.68817 23.4824L13.7312 29.5294C14.2446 30.0415 14.94 30.3291 15.6652 30.3294C15.8139 30.3293 15.9624 30.317 16.1092 30.2924L16.3622 30.2474L17.0342 34.5874C17.0821 34.8996 17.2079 35.1948 17.3999 35.4457C17.5919 35.6965 17.844 35.895 18.1329 36.0228C18.4218 36.1506 18.7383 36.2037 19.053 36.177C19.3678 36.1504 19.6708 36.0449 19.9342 35.8704L25.2502 32.3554C25.5986 32.1266 25.8897 31.8207 26.1011 31.4614C26.3125 31.1022 26.4384 30.6991 26.4692 30.2834L26.8692 25.1314L26.9692 25.0484C29.604 22.885 31.8005 20.2374 33.4402 17.2484C35.5136 13.0237 36.4537 8.33278 36.1682 3.6354V3.6354ZM24.1172 30.6354L19.0312 34.0024L18.3762 29.7724C20.616 29.0973 22.7403 28.0858 24.6762 26.7724L24.4172 30.1284C24.4098 30.231 24.3789 30.3306 24.3268 30.4194C24.2748 30.5081 24.2031 30.5838 24.1172 30.6404V30.6354ZM15.1922 28.0674L9.14617 22.0264C9.07052 21.9519 9.01373 21.8604 8.98051 21.7595C8.9473 21.6586 8.93861 21.5513 8.95517 21.4464C9.13002 20.4039 9.39776 19.3792 9.75517 18.3844L18.8312 27.4564C17.8371 27.8157 16.8131 28.0858 15.7712 28.2634C15.6663 28.28 15.5589 28.2713 15.4581 28.2381C15.3572 28.2048 15.2657 28.148 15.1912 28.0724L15.1922 28.0674ZM7.09217 12.7954L10.4482 12.5364C9.13474 14.4723 8.12319 16.5965 7.44817 18.8364L3.21817 18.1814L6.58017 13.0964C6.63702 13.0115 6.71252 12.9407 6.80091 12.8894C6.88929 12.8381 6.98823 12.8076 7.09017 12.8004L7.09217 12.7954ZM25.6522 23.4694C24.1936 24.6981 22.5916 25.7457 20.8812 26.5894L10.6312 16.3374C11.4783 14.6293 12.5257 13.028 13.7512 11.5674C15.7384 9.14295 18.1707 7.12067 20.9172 5.6094C24.815 3.70374 29.1407 2.84232 33.4712 3.1094C33.6378 3.11829 33.7952 3.18847 33.9131 3.30643C34.0311 3.42439 34.1013 3.58181 34.1102 3.7484C34.3773 8.0789 33.5159 12.4046 31.6102 16.3024C30.099 19.0492 28.0767 21.4819 25.6522 23.4694Z" fill="black" stroke="#F1F3F9" stroke-width="0.3"/>
<path d="M25.1278 17.2414C26.319 17.2404 27.4729 16.8265 28.3931 16.0701C29.3133 15.3138 29.9428 14.2618 30.1744 13.0934C30.4059 11.925 30.2253 10.7124 29.6631 9.6623C29.101 8.61217 28.1921 7.78941 27.0914 7.3342C25.9907 6.87899 24.7662 6.81948 23.6265 7.16582C22.4868 7.51215 21.5025 8.2429 20.8411 9.23358C20.1798 10.2243 19.8824 11.4136 19.9996 12.5989C20.1168 13.7843 20.6413 14.8924 21.4838 15.7344C21.962 16.2131 22.5301 16.5927 23.1555 16.8514C23.7808 17.11 24.4511 17.2425 25.1278 17.2414V17.2414ZM22.9418 9.90436C23.4477 9.39861 24.1134 9.08394 24.8253 9.01395C25.5372 8.94396 26.2514 9.12299 26.8461 9.52053C27.4408 9.91808 27.8793 10.5095 28.0868 11.1941C28.2944 11.8787 28.2581 12.6141 27.9842 13.275C27.7103 13.9358 27.2158 14.4812 26.5848 14.8183C25.9538 15.1554 25.2255 15.2633 24.5239 15.1236C23.8223 14.9838 23.1909 14.6052 22.7372 14.0521C22.2835 13.499 22.0356 12.8057 22.0358 12.0904C22.0355 11.6844 22.1154 11.2825 22.2709 10.9075C22.4263 10.5325 22.6544 10.192 22.9418 9.90536V9.90436Z" fill="black" stroke="#F1F3F9" stroke-width="0.3"/>
<path d="M2.08178 30.001C2.21706 30.0015 2.3511 29.9753 2.47621 29.9238C2.60131 29.8723 2.71501 29.7966 2.81078 29.7011L6.17578 26.3361C6.2775 26.2418 6.35917 26.1279 6.41587 26.0014C6.47258 25.8748 6.50317 25.7381 6.50581 25.5994C6.50844 25.4608 6.48308 25.323 6.43122 25.1944C6.37937 25.0657 6.30209 24.9489 6.20402 24.8508C6.10595 24.7527 5.9891 24.6755 5.86047 24.6236C5.73183 24.5717 5.59406 24.5464 5.45539 24.549C5.31672 24.5517 5.18001 24.5822 5.05344 24.6389C4.92687 24.6957 4.81305 24.7773 4.71878 24.8791L1.34978 28.2411C1.20594 28.3853 1.10806 28.5689 1.06848 28.7687C1.0289 28.9685 1.0494 29.1756 1.12739 29.3638C1.20537 29.552 1.33736 29.7128 1.50668 29.8261C1.676 29.9393 1.87508 29.9999 2.07878 30.0001L2.08178 30.001Z" fill="black" stroke="#F1F3F9" stroke-width="0.3"/>
<path d="M9.25922 27.9577C9.06591 27.7647 8.8039 27.6562 8.53072 27.6562C8.25754 27.6562 7.99552 27.7647 7.80222 27.9577L1.33022 34.4277C1.22849 34.522 1.14683 34.6358 1.09012 34.7624C1.03341 34.8889 1.00282 35.0256 1.00019 35.1643C0.997549 35.303 1.02292 35.4408 1.07477 35.5694C1.12663 35.698 1.2039 35.8149 1.30197 35.9129C1.40004 36.011 1.51689 36.0883 1.64553 36.1401C1.77416 36.192 1.91194 36.2174 2.0506 36.2147C2.18927 36.2121 2.32598 36.1815 2.45255 36.1248C2.57912 36.0681 2.69295 35.9864 2.78722 35.8847L9.25922 29.4107C9.45103 29.2176 9.55867 28.9564 9.55867 28.6842C9.55867 28.412 9.45103 28.1508 9.25922 27.9577V27.9577Z" fill="black" stroke="#F1F3F9" stroke-width="0.3"/>
<path d="M10.8856 31.0431L7.52065 34.4081C7.41892 34.5024 7.33726 34.6162 7.28055 34.7428C7.22384 34.8693 7.19325 35.0061 7.19062 35.1447C7.18798 35.2834 7.21335 35.4212 7.26521 35.5498C7.31706 35.6784 7.39433 35.7953 7.4924 35.8933C7.59047 35.9914 7.70732 36.0687 7.83596 36.1205C7.96459 36.1724 8.10237 36.1978 8.24104 36.1951C8.37971 36.1925 8.51642 36.1619 8.64299 36.1052C8.76956 36.0485 8.88338 35.9668 8.97765 35.8651L12.3426 32.5001C12.4444 32.4058 12.526 32.292 12.5828 32.1654C12.6395 32.0389 12.67 31.9022 12.6727 31.7635C12.6753 31.6248 12.6499 31.4871 12.5981 31.3584C12.5462 31.2298 12.469 31.1129 12.3709 31.0149C12.2728 30.9168 12.156 30.8395 12.0273 30.7877C11.8987 30.7358 11.7609 30.7104 11.6223 30.7131C11.4836 30.7157 11.3469 30.7463 11.2203 30.803C11.0937 30.8597 10.9799 30.9414 10.8856 31.0431V31.0431Z" fill="black" stroke="#F1F3F9" stroke-width="0.3"/>
</svg>
