<svg xmlns="http://www.w3.org/2000/svg" width="45.135" height="42.267" viewBox="0 0 45.135 42.267"><defs><style>.a,.b{fill:#0f0f1d;}.a{stroke:#fff;stroke-width:0.8px;}</style></defs><g transform="translate(-0.641 -1.6)"><path class="a" d="M31.215,31.619a1.481,1.481,0,0,1-.948-.341L23.573,25.7H20.848a11.848,11.848,0,1,1,0-23.7h8.886A11.848,11.848,0,0,1,32.7,25.31v4.828a1.471,1.471,0,0,1-1.481,1.481ZM20.848,4.962a8.886,8.886,0,1,0,0,17.772h3.258a1.481,1.481,0,0,1,.948.341l4.68,3.895V24.1a1.481,1.481,0,0,1,1.274-1.481A8.886,8.886,0,0,0,29.734,4.962Z" transform="translate(3.819)"/><rect class="b" width="2.962" height="2.962" transform="translate(27.629 12.367)"/><rect class="b" width="2.962" height="2.962" transform="translate(20.224 12.367)"/><rect class="b" width="2.962" height="2.962" transform="translate(35.034 12.367)"/><path class="a" d="M11.338,39.319a1.471,1.471,0,0,1-1.481-1.481V33.01A11.848,11.848,0,0,1,7.962,10.8a1.481,1.481,0,1,1,1.214,2.7,8.886,8.886,0,0,0,2.37,16.883,1.481,1.481,0,0,1,1.274,1.481v2.873l4.68-3.895a1.481,1.481,0,0,1,.948-.4h3.258a8.8,8.8,0,0,0,6.353-2.7,1.487,1.487,0,0,1,2.133,2.073A11.848,11.848,0,0,1,21.705,33.4H18.98l-6.694,5.583A1.481,1.481,0,0,1,11.338,39.319Z" transform="translate(0 4.148)"/></g></svg>