<svg xmlns="http://www.w3.org/2000/svg" width="56.547" height="56.499" viewBox="0 0 56.547 56.499"><defs><style>.a{fill:#F03A01;stroke:#F03A01;stroke-width:0.3px;}</style></defs><g transform="translate(-1.809 -1.857)"><path class="a" d="M2.075,42.243a.936.936,0,0,0,.736.841l3.265.7a14.8,14.8,0,0,0,.438,1.641L4.043,47.668a.936.936,0,0,0-.216,1.1,18.732,18.732,0,0,0,1.5,2.609.937.937,0,0,0,1.058.359l3.173-1.022a15.01,15.01,0,0,0,1.208,1.208L9.739,55.092A.937.937,0,0,0,10.1,56.15a18.732,18.732,0,0,0,2.609,1.5.938.938,0,0,0,1.1-.216l2.239-2.471a15.08,15.08,0,0,0,1.642.438l.7,3.265a.938.938,0,0,0,.84.736c.5.039,1,.075,1.506.075s1.008-.036,1.506-.075a.936.936,0,0,0,.841-.736l.7-3.265a14.816,14.816,0,0,0,1.642-.438l2.239,2.471a.936.936,0,0,0,1.1.216,18.826,18.826,0,0,0,2.609-1.5.937.937,0,0,0,.359-1.058l-1.022-3.173a15.152,15.152,0,0,0,1.208-1.207l3.173,1.022a.935.935,0,0,0,1.058-.359,18.732,18.732,0,0,0,1.5-2.609.936.936,0,0,0-.216-1.1L34.957,45.43a15.081,15.081,0,0,0,.438-1.642l3.265-.7a.938.938,0,0,0,.736-.84c.038-.5.074-1,.074-1.507s-.036-1.008-.075-1.506a.936.936,0,0,0-.736-.841l-3.265-.7a14.815,14.815,0,0,0-.438-1.642L37.428,33.8a.936.936,0,0,0,.216-1.1,18.826,18.826,0,0,0-1.5-2.609.935.935,0,0,0-1.058-.359l-3.173,1.022a15.009,15.009,0,0,0-1.208-1.208l1.022-3.173a.937.937,0,0,0-.359-1.058,18.732,18.732,0,0,0-2.609-1.5.935.935,0,0,0-1.1.216l-2.239,2.471a15.081,15.081,0,0,0-1.642-.438l-.7-3.265a.938.938,0,0,0-.84-.736,19.039,19.039,0,0,0-3.014,0,.936.936,0,0,0-.841.736l-.7,3.265a14.8,14.8,0,0,0-1.641.438L13.8,24.043a.936.936,0,0,0-1.1-.216,18.732,18.732,0,0,0-2.609,1.5.937.937,0,0,0-.359,1.058l1.022,3.173a15.009,15.009,0,0,0-1.208,1.208L6.379,29.739a.934.934,0,0,0-1.058.359,18.732,18.732,0,0,0-1.5,2.609.936.936,0,0,0,.216,1.1l2.471,2.239a15.081,15.081,0,0,0-.438,1.642l-3.265.7a.938.938,0,0,0-.736.84c-.039.5-.075,1-.075,1.507s.036,1.008.075,1.506Zm1.818-2.17,3.187-.689a.937.937,0,0,0,.727-.765A13.059,13.059,0,0,1,8.481,36.1a.936.936,0,0,0-.247-1.026L5.827,32.891c.21-.4.429-.787.656-1.151l3.088.995a.94.94,0,0,0,1.013-.3,13.171,13.171,0,0,1,1.853-1.853.936.936,0,0,0,.3-1.013l-.995-3.088q.547-.341,1.151-.656l2.181,2.407a.938.938,0,0,0,1.027.247,13,13,0,0,1,2.52-.674.937.937,0,0,0,.765-.727L20.07,23.9a12.337,12.337,0,0,1,1.329,0l.689,3.187a.937.937,0,0,0,.765.727,13.059,13.059,0,0,1,2.521.674.935.935,0,0,0,1.026-.247l2.181-2.407c.4.21.787.429,1.151.656l-.995,3.088a.938.938,0,0,0,.3,1.013,13.171,13.171,0,0,1,1.853,1.853.933.933,0,0,0,1.013.3l3.088-.995q.341.547.656,1.15l-2.407,2.181a.937.937,0,0,0-.247,1.027,13,13,0,0,1,.674,2.52.937.937,0,0,0,.727.765l3.187.688c.012.22.021.442.021.665s-.007.445-.02.664l-3.187.689a.937.937,0,0,0-.727.765,13.059,13.059,0,0,1-.674,2.521.936.936,0,0,0,.247,1.026l2.407,2.181c-.21.4-.429.787-.656,1.151L31.9,48.738a.933.933,0,0,0-1.013.3,13.221,13.221,0,0,1-1.853,1.853.936.936,0,0,0-.3,1.012l.995,3.088q-.547.341-1.15.656L26.4,53.237a.94.94,0,0,0-1.027-.247,13,13,0,0,1-2.52.674.937.937,0,0,0-.765.727L21.4,57.577a12.337,12.337,0,0,1-1.329,0l-.689-3.187a.937.937,0,0,0-.765-.727,13.059,13.059,0,0,1-2.521-.674.935.935,0,0,0-1.026.247l-2.181,2.407c-.4-.21-.787-.429-1.151-.656l.995-3.088a.938.938,0,0,0-.3-1.013,13.171,13.171,0,0,1-1.853-1.853.935.935,0,0,0-1.013-.3l-3.088.995q-.341-.547-.656-1.151L8.235,46.4a.937.937,0,0,0,.247-1.027,13,13,0,0,1-.674-2.52.937.937,0,0,0-.727-.765L3.893,41.4c-.011-.22-.02-.442-.02-.665S3.881,40.291,3.893,40.072Z" transform="translate(0 -1.266)"/><path class="a" d="M52.751,15.335a.936.936,0,0,0,.649-.786,11.016,11.016,0,0,0,.082-1.308,11.207,11.207,0,0,0-.081-1.308.936.936,0,0,0-.649-.786l-2.6-.816q-.117-.319-.259-.626l1.259-2.412a.939.939,0,0,0-.1-1.015,11.342,11.342,0,0,0-1.854-1.854.939.939,0,0,0-1.015-.1L45.777,5.588q-.306-.141-.626-.258l-.816-2.6a.936.936,0,0,0-.786-.649,10.363,10.363,0,0,0-2.616,0,.936.936,0,0,0-.786.649l-.816,2.6q-.319.117-.626.259L36.293,4.33a.941.941,0,0,0-1.015.1,11.342,11.342,0,0,0-1.854,1.854.937.937,0,0,0-.1,1.015l1.258,2.412q-.141.306-.258.626l-2.6.816a.936.936,0,0,0-.649.786,10.533,10.533,0,0,0,0,2.615.936.936,0,0,0,.649.786l2.6.816q.117.319.259.626l-1.259,2.412a.939.939,0,0,0,.1,1.015,11.342,11.342,0,0,0,1.854,1.854.939.939,0,0,0,1.015.1L38.7,20.9q.306.141.626.258l.816,2.6a.936.936,0,0,0,.786.649,11.072,11.072,0,0,0,1.31.082,11.207,11.207,0,0,0,1.308-.081.936.936,0,0,0,.786-.649l.816-2.6q.319-.117.626-.259l2.412,1.259a.937.937,0,0,0,1.015-.1,11.342,11.342,0,0,0,1.854-1.854.937.937,0,0,0,.1-1.015l-1.259-2.412q.142-.306.259-.626Zm-3.616-.828a.939.939,0,0,0-.616.625,6.6,6.6,0,0,1-.5,1.212.934.934,0,0,0-.006.877L49.2,19.5a9.56,9.56,0,0,1-.7.7l-2.278-1.189a.937.937,0,0,0-.877.006,6.6,6.6,0,0,1-1.212.5.939.939,0,0,0-.625.616l-.772,2.458a7.892,7.892,0,0,1-.987,0l-.772-2.458a.939.939,0,0,0-.625-.616,6.509,6.509,0,0,1-1.211-.5.936.936,0,0,0-.878-.006L35.984,20.2a9.56,9.56,0,0,1-.7-.7l1.189-2.278a.937.937,0,0,0-.006-.877,6.6,6.6,0,0,1-.5-1.212.939.939,0,0,0-.616-.625l-2.458-.772c-.011-.171-.016-.335-.016-.494s0-.322.016-.494l2.458-.772a.939.939,0,0,0,.616-.625,6.509,6.509,0,0,1,.5-1.211.936.936,0,0,0,.006-.878L35.281,6.984a9.56,9.56,0,0,1,.7-.7L38.262,7.47a.94.94,0,0,0,.877-.006,6.6,6.6,0,0,1,1.212-.5.939.939,0,0,0,.625-.616l.772-2.458a7.892,7.892,0,0,1,.987,0l.772,2.458a.939.939,0,0,0,.625.616,6.509,6.509,0,0,1,1.211.5.936.936,0,0,0,.878.006L48.5,6.281a9.561,9.561,0,0,1,.7.7L48.013,9.262a.937.937,0,0,0,.006.877,6.6,6.6,0,0,1,.5,1.212.939.939,0,0,0,.616.625l2.458.772c.011.171.016.335.016.494s0,.322-.016.494Z" transform="translate(-1.834)"/><path class="a" d="M60.044,34.46l-1.609-.571a7.592,7.592,0,0,0-.316-.765l.732-1.541a.933.933,0,0,0-.109-.978,9.427,9.427,0,0,0-1.61-1.611.937.937,0,0,0-.979-.109l-1.542.732a7.482,7.482,0,0,0-.764-.315l-.572-1.609a.939.939,0,0,0-.77-.616,8.632,8.632,0,0,0-2.274,0,.936.936,0,0,0-.77.616L48.889,29.3a7.593,7.593,0,0,0-.765.316l-1.541-.732a.937.937,0,0,0-.978.109,9.428,9.428,0,0,0-1.611,1.61.938.938,0,0,0-.109.979l.732,1.542a7.481,7.481,0,0,0-.315.764l-1.609.572a.939.939,0,0,0-.616.77A9.178,9.178,0,0,0,42,36.368a9.39,9.39,0,0,0,.075,1.136.936.936,0,0,0,.616.77l1.609.571a7.591,7.591,0,0,0,.316.765l-.732,1.541a.933.933,0,0,0,.109.978,9.428,9.428,0,0,0,1.61,1.611.939.939,0,0,0,.979.109l1.542-.732a7.482,7.482,0,0,0,.764.315l.572,1.609a.939.939,0,0,0,.77.616,9.048,9.048,0,0,0,1.136.077A9.39,9.39,0,0,0,52.5,45.66a.936.936,0,0,0,.77-.616l.571-1.609a7.592,7.592,0,0,0,.765-.316l1.541.732a.931.931,0,0,0,.978-.109,9.428,9.428,0,0,0,1.611-1.61.938.938,0,0,0,.109-.979l-.732-1.542a7.482,7.482,0,0,0,.315-.764l1.609-.572a.939.939,0,0,0,.616-.77,9.048,9.048,0,0,0,.077-1.136,9.39,9.39,0,0,0-.075-1.136.937.937,0,0,0-.616-.771ZM58.852,36.71l-1.485.527a.937.937,0,0,0-.589.632,5.574,5.574,0,0,1-.52,1.262.939.939,0,0,0-.031.863l.673,1.417q-.233.256-.488.488l-1.417-.673a.939.939,0,0,0-.863.031,5.577,5.577,0,0,1-1.261.52.94.94,0,0,0-.633.589l-.527,1.485a6.405,6.405,0,0,1-.684,0L50.5,42.367a.937.937,0,0,0-.632-.589,5.574,5.574,0,0,1-1.262-.52.944.944,0,0,0-.863-.031l-1.417.673q-.256-.233-.488-.488l.673-1.417a.936.936,0,0,0-.031-.863,5.577,5.577,0,0,1-.52-1.261.94.94,0,0,0-.589-.633l-1.485-.527c-.007-.113-.011-.227-.011-.342s0-.23.009-.342l1.485-.528a.933.933,0,0,0,.588-.632,5.6,5.6,0,0,1,.521-1.262.939.939,0,0,0,.031-.863l-.673-1.417q.233-.256.488-.488l1.417.673a.933.933,0,0,0,.863-.031,5.577,5.577,0,0,1,1.261-.52.94.94,0,0,0,.633-.589l.527-1.485a6.4,6.4,0,0,1,.684,0l.527,1.485a.937.937,0,0,0,.632.589,5.574,5.574,0,0,1,1.262.52.934.934,0,0,0,.863.031l1.417-.673q.256.233.488.488l-.673,1.417a.936.936,0,0,0,.031.863,5.577,5.577,0,0,1,.52,1.261.94.94,0,0,0,.589.633l1.485.527c.007.114.011.228.011.343s0,.229-.009.342Z" transform="translate(-2.529 -1.581)"/><path class="a" d="M21.3,51.609A10.3,10.3,0,1,0,11,41.3,10.317,10.317,0,0,0,21.3,51.609Zm0-18.735A8.431,8.431,0,1,1,12.874,41.3,8.441,8.441,0,0,1,21.3,32.874Z" transform="translate(-0.569 -1.834)"/><path class="a" d="M2.022,24.6l1.439,1.2A22.437,22.437,0,0,1,20.737,17.7c.477,0,.953.027,1.429.057l-1.154,1.154,1.325,1.325,2.81-2.81a.936.936,0,0,0,0-1.325l-2.81-2.81-1.325,1.325,1.273,1.273c-.515-.033-1.031-.062-1.548-.062A24.307,24.307,0,0,0,2.022,24.6Z" transform="translate(-0.001 -0.714)"/><path class="a" d="M42.684,9a4.684,4.684,0,1,0,4.684,4.684A4.689,4.689,0,0,0,42.684,9Zm0,7.494a2.81,2.81,0,1,1,2.81-2.81A2.814,2.814,0,0,1,42.684,16.494Z" transform="translate(-2.276 -0.443)"/><path class="a" d="M51.747,33a3.747,3.747,0,1,0,3.747,3.747A3.751,3.751,0,0,0,51.747,33Zm0,5.621a1.874,1.874,0,1,1,1.874-1.874A1.875,1.875,0,0,1,51.747,38.621Z" transform="translate(-2.909 -1.96)"/><path class="a" d="M60.742,4.955l-4.684-.937a.935.935,0,0,0-1.1.734l-.937,4.684,1.837.368.5-2.522a14.056,14.056,0,0,1,1.387,6.084,13.9,13.9,0,0,1-3.082,8.782l1.462,1.172A15.938,15.938,0,0,0,57.977,6.313l2.4.48Z" transform="translate(-3.289 -0.126)"/></g></svg>