<svg xmlns="http://www.w3.org/2000/svg" width="30.814" height="40.632" viewBox="0 0 30.814 40.632"><path d="M90.8,22.532l-6.067-9.511a2.7,2.7,0,0,0-.251-4.9L86.318,1.7a.794.794,0,0,0-.2-.779,3.139,3.139,0,0,0-4.434,0,1.538,1.538,0,0,1-1.095.453,1.539,1.539,0,0,1-1.1-.455l0,0A3.141,3.141,0,0,0,75.06.908l-.023.023a1.551,1.551,0,0,1-2.186,0L72.845.921a3.139,3.139,0,0,0-4.434,0,.794.794,0,0,0-.2.78l1.842,6.424a2.7,2.7,0,0,0-.255,4.9l-6.067,9.511a11.77,11.77,0,0,0,9.923,18.1h7.224a11.77,11.77,0,0,0,9.923-18.1ZM71.723,2.044l.006.006a3.142,3.142,0,0,0,4.427.007l.023-.023a1.552,1.552,0,0,1,2.188.006l0,0a3.139,3.139,0,0,0,4.434,0,1.551,1.551,0,0,1,1.84-.263l-1.76,6.153H71.647L69.883,1.781a1.551,1.551,0,0,1,1.84.263ZM89.8,33.757a10.049,10.049,0,0,1-8.929,5.287H73.651a10.182,10.182,0,0,1-8.584-15.658L71.482,13.33h2.21a.794.794,0,1,0,0-1.587H71.047a1.111,1.111,0,1,1,0-2.222H83.48a1.111,1.111,0,1,1,0,2.222H80.835a.794.794,0,1,0,0,1.587h2.21L89.46,23.386A10.049,10.049,0,0,1,89.8,33.757Z" transform="translate(-61.857 0.001)"/><path d="M213.745,245c-.2-.07-.4-.144-.606-.22v-3.6a3.261,3.261,0,0,1,.913.426.794.794,0,0,0,.955-1.268,4.847,4.847,0,0,0-1.868-.79v-.79a.794.794,0,1,0-1.587,0v.784a4.1,4.1,0,0,0-.409.1,3.178,3.178,0,0,0-2.179,2.493,2.8,2.8,0,0,0,.918,2.763,7.637,7.637,0,0,0,1.67.949v4.6a3.173,3.173,0,0,1-1.74-.638.794.794,0,0,0-.869,1.328,4.685,4.685,0,0,0,2.609.9v.821a.794.794,0,1,0,1.587,0v-.9a3.826,3.826,0,0,0,2.916-3.117A3.357,3.357,0,0,0,213.745,245Zm-2.883-1.348a1.237,1.237,0,0,1-.338-1.219,1.616,1.616,0,0,1,1.028-1.251v2.907A4.754,4.754,0,0,1,210.862,243.654Zm3.629,4.926a2.275,2.275,0,0,1-1.351,1.719v-3.828l.077.027A1.8,1.8,0,0,1,214.491,248.581Z" transform="translate(-196.939 -219.084)"/><path d="M246.779,149.556a.794.794,0,1,0-.561-.233A.8.8,0,0,0,246.779,149.556Z" transform="translate(-231.372 -136.225)"/></svg>