<svg xmlns="http://www.w3.org/2000/svg" width="41.688" height="41.688" viewBox="0 0 41.688 41.688"><defs><style>.a{fill:#0f0f1d;stroke:#fff;}</style></defs><path class="a" d="M37.683,32.175,27.04,28.687V25.015a8.9,8.9,0,0,0,1.453-3.876h1.921A3.046,3.046,0,0,0,33.456,18.1V14.838a3.024,3.024,0,0,0-.53-1.713v-.543a12.583,12.583,0,1,0-25.165,0v.543a3.025,3.025,0,0,0-.53,1.713V18.1a3.046,3.046,0,0,0,3.042,3.042h1.921a8.9,8.9,0,0,0,1.485,3.923v3.614l-10.675,3.5A4.356,4.356,0,0,0,0,36.323v4.365H40.688V36.323a4.356,4.356,0,0,0-3.005-4.148ZM16.064,27.391a7.843,7.843,0,0,0,8.592-.021v1.645c-.905.78-2.731,2.069-4.312,2.069s-3.386-1.287-4.28-2.065ZM26.182,13.922a3.7,3.7,0,0,1-3.044-3.633H20.754a3.7,3.7,0,0,1-3.69,3.69H14.506V12.831a5.838,5.838,0,0,1,11.676,0ZM14.506,16.447v-.083h2.558A6.07,6.07,0,0,0,21.946,13.9a6.076,6.076,0,0,0,4.236,2.43v3.656a6.757,6.757,0,0,1-.14,1.364h-4.33v2.384H25.03a5.708,5.708,0,0,1-4.686,2.543,6.084,6.084,0,0,1-5.838-6.291V16.447ZM31.072,18.1a.659.659,0,0,1-.658.658H28.566V14.18h1.848a.659.659,0,0,1,.658.658ZM20.344,2.384A10.212,10.212,0,0,1,30.513,11.8l-.1,0H28.5a8.223,8.223,0,0,0-16.314,0H10.274l-.1,0A10.212,10.212,0,0,1,20.344,2.384ZM9.616,18.1V14.838a.659.659,0,0,1,.658-.658h1.848v4.574H10.274a.659.659,0,0,1-.658-.658ZM38.3,38.3H32.48V35.841H30.1V38.3h-19.5V35.841H8.208V38.3H2.384V36.323a1.977,1.977,0,0,1,1.364-1.882l10.837-3.552c1.028.877,3.336,2.58,5.759,2.58s4.74-1.7,5.778-2.573L36.94,34.441A1.977,1.977,0,0,1,38.3,36.323Z" transform="translate(0.5 0.5)"/></svg>