<svg xmlns="http://www.w3.org/2000/svg" width="33.132" height="32.479" viewBox="0 0 33.132 32.479"><defs><style>.a{fill:#0f0f1d;}</style></defs><g transform="translate(0 -4.503)"><path class="a" d="M7.08,54.536H.974a.974.974,0,0,1,0-1.949H7.08a.974.974,0,0,1,0,1.949Z" transform="translate(0 -44.595)"/><path class="a" d="M88.6,13.43a4.464,4.464,0,1,1,4.464-4.463A4.468,4.468,0,0,1,88.6,13.43Zm0-6.978a2.515,2.515,0,1,0,2.515,2.515A2.518,2.518,0,0,0,88.6,6.452Z" transform="translate(-78.03)"/><path class="a" d="M244.544,54.536H229.979a.974.974,0,1,1,0-1.949h14.564a.974.974,0,0,1,0,1.949Z" transform="translate(-212.386 -44.595)"/><path class="a" d="M268.893,175.7a4.463,4.463,0,1,1,4.464-4.463A4.468,4.468,0,0,1,268.893,175.7Zm0-6.978a2.514,2.514,0,1,0,2.515,2.514A2.517,2.517,0,0,0,268.893,168.723Z" transform="translate(-245.239 -150.495)"/><path class="a" d="M16.629,216.8H.974a.974.974,0,1,1,0-1.949H16.629a.974.974,0,0,1,0,1.949Z" transform="translate(0 -195.082)"/><path class="a" d="M366.577,216.8h-5.016a.974.974,0,0,1,0-1.949h5.016a.974.974,0,0,1,0,1.949Z" transform="translate(-334.419 -195.082)"/><path class="a" d="M73.577,337.964A4.464,4.464,0,1,1,78.04,333.5,4.469,4.469,0,0,1,73.577,337.964Zm0-6.978a2.515,2.515,0,1,0,2.515,2.514A2.517,2.517,0,0,0,73.577,330.986Z" transform="translate(-64.097 -300.983)"/><path class="a" d="M230.608,379.063H214.953a.974.974,0,1,1,0-1.949h15.655a.974.974,0,0,1,0,1.949Z" transform="translate(-198.451 -345.571)"/><path class="a" d="M5.99,379.062H.974a.975.975,0,0,1,0-1.949H5.99a.975.975,0,0,1,0,1.949Z" transform="translate(0 -345.57)"/></g></svg>