<svg xmlns="http://www.w3.org/2000/svg" width="41.484" height="41.484" viewBox="0 0 41.484 41.484"><defs><style>.a{fill:#0f0f1d;}</style></defs><g transform="translate(-0.001 0)"><g transform="translate(20.386 19.48)"><path class="a" d="M252.97,240.656a.81.81,0,1,0,0,1.146A.81.81,0,0,0,252.97,240.656Z" transform="translate(-251.587 -240.418)"/></g><g transform="translate(25.168 8.217)"><path class="a" d="M317.517,102.6a4.051,4.051,0,1,0,0,5.729A4.049,4.049,0,0,0,317.517,102.6Zm-1.146,4.583a2.431,2.431,0,1,1,0-3.438A2.434,2.434,0,0,1,316.371,107.186Z" transform="translate(-310.603 -101.415)"/></g><g transform="translate(7.781 0)"><g transform="translate(0 0)"><path class="a" d="M129.485.237a.807.807,0,0,0-.6-.237,35.994,35.994,0,0,0-9.73,2.015,27.127,27.127,0,0,0-10.293,6.243c-.6.6-1.183,1.235-1.741,1.9a5.938,5.938,0,0,0-6.105-.352c-3.085,1.651-5,6.135-5,9.342a.81.81,0,0,0,1.383.573,5.158,5.158,0,0,1,4.29-1.439l.284.284a28.5,28.5,0,0,0-1.338,3.935,2.293,2.293,0,0,0,.1,1.407,7.673,7.673,0,0,0-2.188,1.543c-2.086,2.086-2.509,7.169-2.526,7.384a.81.81,0,0,0,.808.874l.064,0c.215-.017,5.3-.44,7.384-2.526a7.673,7.673,0,0,0,1.542-2.188,2.288,2.288,0,0,0,1.408.1,28.5,28.5,0,0,0,3.935-1.338l.284.284a5.158,5.158,0,0,1-1.439,4.29.81.81,0,0,0,.573,1.383c3.207,0,7.69-1.91,9.342-5a5.938,5.938,0,0,0-.352-6.1c.66-.558,1.3-1.141,1.9-1.741a27.129,27.129,0,0,0,6.243-10.293,35.994,35.994,0,0,0,2.015-9.73A.81.81,0,0,0,129.485.237ZM97.83,17.4c.5-2.436,1.965-5.109,3.949-6.17a4.317,4.317,0,0,1,4.315.2,32.76,32.76,0,0,0-3.4,5.549.854.854,0,0,0-.429-.252A6.925,6.925,0,0,0,97.83,17.4Zm5.3,12.629c-1.114,1.114-3.728,1.7-5.379,1.942.24-1.652.828-4.265,1.942-5.379a5.839,5.839,0,0,1,2.074-1.363l2.727,2.727A5.838,5.838,0,0,1,103.13,30.03Zm3.694-2.514a.76.76,0,0,1-.708-.23L104.529,25.7l-2.093-2.093a.761.761,0,0,1-.23-.708,26.31,26.31,0,0,1,1.012-3.095l6.7,6.7A26.291,26.291,0,0,1,106.824,27.516Zm11.668.428c-1.062,1.983-3.734,3.445-6.17,3.949a6.9,6.9,0,0,0,.664-4.45.846.846,0,0,0-.246-.409,32.772,32.772,0,0,0,5.549-3.4A4.317,4.317,0,0,1,118.492,27.944Zm1.827-8.227a29.41,29.41,0,0,1-2.337,2.1,31.13,31.13,0,0,1-6.459,4L103.905,18.2a31.124,31.124,0,0,1,4-6.459,29.4,29.4,0,0,1,2.1-2.337,25.265,25.265,0,0,1,9.21-5.686L126,10.507A25.263,25.263,0,0,1,120.319,19.717ZM126.588,8.8l-5.663-5.663a36.427,36.427,0,0,1,7.11-1.446A36.435,36.435,0,0,1,126.588,8.8Z" transform="translate(-96.018 0)"/></g></g><g transform="translate(15.803 33.23)"><path class="a" d="M198.7,410.358a.81.81,0,0,0-1.146,0l-2.291,2.292A.81.81,0,1,0,196.4,413.8L198.7,411.5A.81.81,0,0,0,198.7,410.358Z" transform="translate(-195.021 -410.121)"/></g><g transform="translate(4.343 21.771)"><path class="a" d="M57.267,268.939a.81.81,0,0,0-1.146,0l-2.292,2.291a.81.81,0,1,0,1.146,1.146l2.292-2.291A.81.81,0,0,0,57.267,268.939Z" transform="translate(-53.592 -268.701)"/></g><g transform="translate(6.876 34.376)"><path class="a" d="M91.723,424.508a.81.81,0,0,0-1.146,0L85.089,430a.81.81,0,1,0,1.146,1.146l5.489-5.488A.81.81,0,0,0,91.723,424.508Z" transform="translate(-84.851 -424.271)"/></g><g transform="translate(0.394 34.376)"><path class="a" d="M11.723,424.508a.81.81,0,0,0-1.146,0L5.089,430a.81.81,0,1,0,1.146,1.146l5.489-5.488A.81.81,0,0,0,11.723,424.508Z" transform="translate(-4.851 -424.271)"/></g><g transform="translate(0.001 27.5)"><g transform="translate(0)"><path class="a" d="M6.872,339.647a.81.81,0,0,0-1.146,0L.239,345.136a.81.81,0,1,0,1.146,1.146l5.488-5.489A.81.81,0,0,0,6.872,339.647Z" transform="translate(-0.001 -339.41)"/></g></g><g transform="translate(22.678 16.042)"><path class="a" d="M282.4,198.228a.81.81,0,0,0-1.146,0l-1.146,1.146a.81.81,0,1,0,1.146,1.146l1.146-1.146A.81.81,0,0,0,282.4,198.228Z" transform="translate(-279.871 -197.99)"/></g></g></svg>