<svg xmlns="http://www.w3.org/2000/svg" width="36.015" height="36.015" viewBox="0 0 36.015 36.015"><defs><style>.a{fill:#0f0f1d;}</style></defs><g transform="translate(-0.001 -0.001)"><path class="a" d="M31.114,13.942v-.836a13.105,13.105,0,0,0-26.211,0v.836a6.766,6.766,0,0,0,1.849,13.27,3.154,3.154,0,0,0,3.159-3.153v-7.22A3.151,3.151,0,0,0,7.022,13.7v-.59a10.987,10.987,0,1,1,21.974,0v.59a3.151,3.151,0,0,0-2.889,3.143v7.22A3.152,3.152,0,0,0,29,27.2a4.768,4.768,0,0,1-4.763,4.861H21.926a2.9,2.9,0,0,0-2.694-1.836H16.784a2.9,2.9,0,1,0,0,5.791h2.448a2.9,2.9,0,0,0,2.694-1.836h2.306A6.89,6.89,0,0,0,31.114,27.3V26.95a6.766,6.766,0,0,0,0-13.008Zm-23.322,2.9v7.22A1.04,1.04,0,0,1,6.67,25.093,4.645,4.645,0,0,1,6.764,15.8h.018a1.026,1.026,0,0,1,1.01,1.035ZM19.233,33.9H16.784a.777.777,0,1,1,0-1.554h2.448a.777.777,0,0,1,0,1.554Zm14.658-13.19a4.657,4.657,0,0,1-4.544,4.386,1.04,1.04,0,0,1-1.122-1.034v-7.22A1.026,1.026,0,0,1,29.231,15.8h.022A4.641,4.641,0,0,1,33.891,20.707Z" transform="translate(0 0)"/><path class="a" d="M166.479,220.493l4.891-4.891a3.9,3.9,0,1,0-5.64-5.387,3.9,3.9,0,1,0-5.64,5.387l4.891,4.891A1.059,1.059,0,0,0,166.479,220.493Zm-4.891-8.907a1.782,1.782,0,0,1,2.518,0l.876.876a1.059,1.059,0,0,0,1.5,0l.876-.876a1.78,1.78,0,0,1,2.518,2.518l-4.142,4.142-4.142-4.142A1.779,1.779,0,0,1,161.588,211.586Z" transform="translate(-147.722 -194.19)"/></g></svg>