<svg xmlns="http://www.w3.org/2000/svg" width="44.09" height="36.012" viewBox="0 0 44.09 36.012"><defs><style>.a{fill:#0f0f1d;}</style></defs><g transform="translate(0 -46.899)"><g transform="translate(28.91 72.247)"><path class="a" d="M337.206,341.5a.861.861,0,0,0-1.218.012l-.024.025a.861.861,0,0,0,1.23,1.205l.024-.025A.861.861,0,0,0,337.206,341.5Z" transform="translate(-335.718 -341.258)"/></g><g transform="translate(32.501 60.316)"><g transform="translate(0 0)"><path class="a" d="M384.586,205.851H382.3v-2.288a.861.861,0,1,0-1.722,0v2.288h-2.288a.861.861,0,0,0,0,1.722h2.288v2.288a.861.861,0,0,0,1.722,0v-2.288h2.288a.861.861,0,0,0,0-1.722Z" transform="translate(-377.426 -202.702)"/></g></g><g transform="translate(0 46.899)"><g transform="translate(0 0)"><path class="a" d="M39.327,57.291A11.868,11.868,0,0,0,27.655,46.9a11.51,11.51,0,0,0-7.935,3.144A11.51,11.51,0,0,0,11.785,46.9,11.941,11.941,0,0,0,0,58.964a10.56,10.56,0,0,0,1.146,4.414H.861a.861.861,0,1,0,0,1.722h1.2a48.781,48.781,0,0,0,7.62,9.268A110.994,110.994,0,0,0,19.2,82.734a.861.861,0,0,0,1.046,0c.036-.028,3.681-2.823,7.721-6.631a.861.861,0,1,0-1.181-1.253c-3.081,2.9-5.925,5.207-7.062,6.107a110.387,110.387,0,0,1-8.835-7.822,51.222,51.222,0,0,1-6.8-8.034H11.8a.861.861,0,0,0,.828-.624l1.5-5.244,4.166,13.349a.861.861,0,0,0,1.644,0l2.307-7.395h3.844a.861.861,0,0,0,0-1.722H21.613a.861.861,0,0,0-.822.6l-1.674,5.365-4.2-13.46a.861.861,0,0,0-1.65.019l-2.119,7.385H3.068a9.793,9.793,0,0,1-1.345-4.414A10.217,10.217,0,0,1,11.785,48.621a9.846,9.846,0,0,1,7.3,3.228.861.861,0,0,0,1.266,0,9.846,9.846,0,0,1,7.3-3.228A10.125,10.125,0,0,1,37.5,56.813a7.58,7.58,0,1,0,1.827.478ZM36.512,70.182a5.856,5.856,0,1,1,5.856-5.856A5.862,5.862,0,0,1,36.512,70.182Z" transform="translate(0 -46.899)"/></g></g></g></svg>