<svg width="39" height="34" viewBox="0 0 39 34" fill="none" xmlns="http://www.w3.org/2000/svg">
<g clip-path="url(#clip0)">
<path d="M35.738 0H2.3C1.69 0 1.10499 0.242321 0.673654 0.673655C0.242321 1.10499 0 1.69 0 2.3L0 25.385C0 25.995 0.242321 26.58 0.673654 27.0113C1.10499 27.4427 1.69 27.685 2.3 27.685H13.755V29.356C13.7542 30.0925 13.4613 30.7987 12.9405 31.3195C12.4197 31.8403 11.7135 32.1332 10.977 32.134H8.452C8.2194 32.134 7.99634 32.2264 7.83187 32.3909C7.6674 32.5553 7.575 32.7784 7.575 33.011C7.575 33.2436 7.6674 33.4667 7.83187 33.6311C7.99634 33.7956 8.2194 33.888 8.452 33.888H29.582C29.8146 33.888 30.0377 33.7956 30.2021 33.6311C30.3666 33.4667 30.459 33.2436 30.459 33.011C30.459 32.7784 30.3666 32.5553 30.2021 32.3909C30.0377 32.2264 29.8146 32.134 29.582 32.134H27.056C26.3195 32.1332 25.6133 31.8403 25.0925 31.3195C24.5717 30.7987 24.2788 30.0925 24.278 29.356V27.681H35.738C36.348 27.681 36.933 27.4387 37.3643 27.0073C37.7957 26.576 38.038 25.991 38.038 25.381V2.296C38.0369 1.68669 37.7942 1.10271 37.3629 0.672239C36.9317 0.24177 36.3473 -9.21443e-07 35.738 0V0ZM14.554 32.13C15.1736 31.3366 15.5098 30.3587 15.509 29.352V27.682H22.525V29.353C22.5242 30.3597 22.8604 31.3376 23.48 32.131L14.554 32.13ZM36.28 25.385C36.28 25.529 36.2228 25.6671 36.121 25.769C36.0191 25.8708 35.881 25.928 35.737 25.928H2.3C2.15599 25.928 2.01787 25.8708 1.91604 25.769C1.81421 25.6671 1.757 25.529 1.757 25.385V20.777H36.28V25.385ZM36.28 19.023H1.754V2.296C1.754 2.15199 1.81121 2.01387 1.91304 1.91204C2.01487 1.81021 2.15299 1.753 2.297 1.753H35.738C35.882 1.753 36.0201 1.81021 36.122 1.91204C36.2238 2.01387 36.281 2.15199 36.281 2.296V19.024L36.28 19.023Z" fill="#F03A01"/>
<path d="M19.0173 24.2992C19.5398 24.2992 19.9633 23.8757 19.9633 23.3532C19.9633 22.8308 19.5398 22.4072 19.0173 22.4072C18.4948 22.4072 18.0713 22.8308 18.0713 23.3532C18.0713 23.8757 18.4948 24.2992 19.0173 24.2992Z" fill="#F03A01"/>
<path d="M20.5211 6.04092C20.3566 5.87653 20.1336 5.78418 19.9011 5.78418C19.6686 5.78418 19.4456 5.87653 19.2811 6.04092L13.0811 12.2409C12.9222 12.4065 12.8346 12.6277 12.837 12.8572C12.8393 13.0866 12.9315 13.306 13.0938 13.4682C13.256 13.6305 13.4754 13.7227 13.7049 13.725C13.9343 13.7274 14.1555 13.6398 14.3211 13.4809L20.5211 7.28091C20.6855 7.11646 20.7778 6.89345 20.7778 6.66092C20.7778 6.42839 20.6855 6.20538 20.5211 6.04092V6.04092Z" fill="#F03A01"/>
<path d="M24.1937 9.63174C24.0292 9.46736 23.8062 9.375 23.5737 9.375C23.3411 9.375 23.1181 9.46736 22.9537 9.63174L20.4847 12.0997C20.4005 12.1805 20.3332 12.2773 20.2869 12.3844C20.2406 12.4915 20.2161 12.6068 20.2149 12.7235C20.2137 12.8402 20.2358 12.9559 20.2799 13.064C20.324 13.172 20.3892 13.2702 20.4717 13.3527C20.5542 13.4352 20.6524 13.5004 20.7604 13.5445C20.8685 13.5886 20.9842 13.6107 21.1009 13.6095C21.2176 13.6083 21.3329 13.5838 21.44 13.5375C21.5471 13.4912 21.6439 13.4239 21.7247 13.3397L24.1937 10.8717C24.3581 10.7073 24.4504 10.4843 24.4504 10.2517C24.4504 10.0192 24.3581 9.7962 24.1937 9.63174V9.63174Z" fill="#F03A01"/>
</g>
<defs>
<clipPath id="clip0">
<rect width="38.034" height="33.883" fill="white"/>
</clipPath>
</defs>
</svg>
