<svg width="42" height="42" viewBox="0 0 42 42" fill="none" xmlns="http://www.w3.org/2000/svg">
<g clip-path="url(#clip0)">
<path d="M25.392 24.0186H24.637C24.4985 24.0188 24.3633 23.9765 24.2497 23.8972C24.1361 23.818 24.0496 23.7057 24.002 23.5756C23.918 23.3556 23.828 23.1416 23.732 22.9286C23.6733 22.8023 23.6549 22.661 23.6794 22.524C23.704 22.3869 23.7702 22.2607 23.869 22.1626L24.407 21.6236C24.791 21.2369 25.0066 20.7141 25.0066 20.1691C25.0066 19.6241 24.791 19.1013 24.407 18.7146L22.468 16.7756C22.0813 16.3913 21.5582 16.1755 21.013 16.1755C20.4678 16.1755 19.9447 16.3913 19.558 16.7756L19.02 17.3126C18.9217 17.4111 18.7955 17.477 18.6585 17.5015C18.5216 17.526 18.3804 17.5079 18.254 17.4496C18.041 17.3496 17.826 17.2626 17.606 17.1746C17.4752 17.1272 17.3623 17.0406 17.2826 16.9266C17.203 16.8125 17.1605 16.6767 17.161 16.5376V15.7826C17.1609 15.5121 17.1074 15.2443 17.0038 14.9945C16.9001 14.7447 16.7483 14.5177 16.5569 14.3266C16.3655 14.1355 16.1383 13.984 15.8883 13.8807C15.6384 13.7774 15.3705 13.7243 15.1 13.7246H12.353C11.8069 13.7246 11.2832 13.9415 10.8971 14.3277C10.5109 14.7138 10.294 15.2375 10.294 15.7836V16.5386C10.2942 16.6771 10.2518 16.8123 10.1726 16.9259C10.0933 17.0395 9.98107 17.126 9.851 17.1736C9.631 17.2576 9.417 17.3476 9.204 17.4436C9.07767 17.502 8.93644 17.5202 8.79943 17.4957C8.66242 17.4712 8.53625 17.4052 8.438 17.3066L7.899 16.7686C7.51234 16.3846 6.98948 16.169 6.4445 16.169C5.89952 16.169 5.37666 16.3846 4.99 16.7686L3.05 18.7146C2.66565 19.1013 2.44992 19.6244 2.44992 20.1696C2.44992 20.7148 2.66565 21.2379 3.05 21.6246L3.587 22.1626C3.68584 22.2607 3.75203 22.3869 3.77655 22.524C3.80107 22.661 3.78272 22.8023 3.724 22.9286C3.624 23.1416 3.537 23.3566 3.453 23.5766C3.40523 23.7076 3.31803 23.8205 3.20341 23.8998C3.08879 23.9792 2.95239 24.021 2.813 24.0196H2.059C1.51309 24.0196 0.989529 24.2364 0.603421 24.6223C0.217312 25.0083 0.000265132 25.5317 0 26.0776L0 28.8246C0 29.3707 0.21693 29.8944 0.603067 30.2806C0.989205 30.6667 1.51292 30.8836 2.059 30.8836H2.814C2.95251 30.8834 3.08773 30.9258 3.20133 31.005C3.31493 31.0843 3.40139 31.1965 3.449 31.3266C3.533 31.5466 3.623 31.7606 3.719 31.9736C3.77772 32.0999 3.79607 32.2412 3.77155 32.3783C3.74703 32.5153 3.68084 32.6415 3.582 32.7396L3.044 33.2786C2.65996 33.6653 2.44442 34.1881 2.44442 34.7331C2.44442 35.2781 2.65996 35.8009 3.044 36.1876L4.984 38.1246C5.37071 38.509 5.89378 38.7247 6.439 38.7247C6.98422 38.7247 7.50729 38.509 7.894 38.1246L8.432 37.5876C8.53025 37.489 8.65642 37.423 8.79343 37.3985C8.93044 37.374 9.07167 37.3922 9.198 37.4506C9.411 37.5506 9.626 37.6376 9.846 37.7256C9.97751 37.7723 10.0913 37.8587 10.1717 37.9728C10.2521 38.0868 10.2952 38.223 10.295 38.3626V39.1176C10.295 39.6637 10.5119 40.1874 10.8981 40.5735C11.2842 40.9597 11.8079 41.1766 12.354 41.1766H15.1C15.6461 41.1766 16.1698 40.9597 16.5559 40.5735C16.9421 40.1874 17.159 39.6637 17.159 39.1176V38.3626C17.158 38.2238 17.1998 38.0881 17.2787 37.974C17.3576 37.8598 17.4698 37.7727 17.6 37.7246C17.82 37.6406 18.034 37.5506 18.247 37.4546C18.3733 37.3962 18.5146 37.378 18.6516 37.4025C18.7886 37.427 18.9148 37.493 19.013 37.5916L19.552 38.1296C19.9387 38.5137 20.4615 38.7292 21.0065 38.7292C21.5515 38.7292 22.0743 38.5137 22.461 38.1296L24.4 36.1906C24.7843 35.8039 25.0001 35.2808 25.0001 34.7356C25.0001 34.1904 24.7843 33.6673 24.4 33.2806L23.863 32.7426C23.7642 32.6445 23.698 32.5183 23.6734 32.3813C23.6489 32.2442 23.6673 32.1029 23.726 31.9766C23.826 31.7636 23.913 31.5486 24.001 31.3286C24.0484 31.1978 24.135 31.0849 24.249 31.0053C24.3631 30.9256 24.4989 30.8831 24.638 30.8836H25.393C25.9391 30.8836 26.4628 30.6667 26.8489 30.2806C27.2351 29.8944 27.452 29.3707 27.452 28.8246V26.0796C27.4523 25.809 27.3992 25.5409 27.2957 25.2908C27.1923 25.0407 27.0406 24.8134 26.8493 24.622C26.658 24.4306 26.4308 24.2788 26.1807 24.1752C25.9307 24.0717 25.6626 24.0185 25.392 24.0186V24.0186ZM26.078 28.8186C26.078 29.0005 26.0057 29.175 25.8771 29.3037C25.7484 29.4323 25.5739 29.5046 25.392 29.5046H24.637C24.2202 29.5061 23.8135 29.6336 23.4705 29.8705C23.1275 30.1073 22.8641 30.4423 22.715 30.8316C22.6423 31.0236 22.5637 31.2129 22.479 31.3996C22.3074 31.7797 22.2549 32.2029 22.3284 32.6135C22.4019 33.024 22.5981 33.4027 22.891 33.6996L23.428 34.2366C23.4918 34.3003 23.5425 34.376 23.577 34.4593C23.6116 34.5426 23.6294 34.6319 23.6294 34.7221C23.6294 34.8123 23.6116 34.9016 23.577 34.9849C23.5425 35.0682 23.4918 35.1439 23.428 35.2076V35.2076L21.489 37.1466C21.3604 37.2752 21.1859 37.3475 21.004 37.3475C20.8221 37.3475 20.6476 37.2752 20.519 37.1466L19.981 36.6096C19.6842 36.3164 19.3056 36.1202 18.895 36.0466C18.4843 35.973 18.0611 36.0257 17.681 36.1976C17.495 36.2816 17.306 36.3606 17.115 36.4336C16.726 36.5825 16.3911 36.8455 16.1542 37.1882C15.9174 37.5308 15.7897 37.9371 15.788 38.3536V39.1086C15.788 39.2906 15.7157 39.465 15.5871 39.5937C15.4584 39.7223 15.2839 39.7946 15.102 39.7946H12.353C12.1711 39.7946 11.9966 39.7223 11.8679 39.5937C11.7393 39.465 11.667 39.2906 11.667 39.1086V38.3536C11.6655 37.9368 11.538 37.5301 11.3012 37.1871C11.0643 36.8441 10.7293 36.5807 10.34 36.4316C10.148 36.3589 9.95867 36.2803 9.772 36.1956C9.39184 36.0241 8.96868 35.9717 8.55816 36.0452C8.14764 36.1188 7.76899 36.3148 7.472 36.6076L6.935 37.1446C6.87128 37.2084 6.79561 37.2591 6.7123 37.2936C6.62899 37.3282 6.53969 37.346 6.4495 37.346C6.35931 37.346 6.27001 37.3282 6.1867 37.2936C6.10339 37.2591 6.02772 37.2084 5.964 37.1446V37.1446L4.021 35.2146C3.8924 35.086 3.82015 34.9115 3.82015 34.7296C3.82015 34.5477 3.8924 34.3733 4.021 34.2446L4.558 33.7066C4.85091 33.4097 5.04705 33.031 5.12059 32.6205C5.19414 32.2099 5.14163 31.7868 4.97 31.4066C4.886 31.2206 4.807 31.0316 4.734 30.8406C4.58546 30.4512 4.32257 30.1159 3.97989 29.8787C3.6372 29.6415 3.23076 29.5135 2.814 29.5116H2.059C1.96891 29.5116 1.87971 29.4939 1.79648 29.4594C1.71325 29.4249 1.63763 29.3744 1.57392 29.3107C1.51022 29.247 1.45969 29.1714 1.42522 29.0881C1.39074 29.0049 1.373 28.9157 1.373 28.8256V26.0806C1.373 25.8987 1.44527 25.7242 1.57392 25.5955C1.70257 25.4669 1.87706 25.3946 2.059 25.3946H2.814C3.23084 25.3931 3.63748 25.2656 3.98051 25.0288C4.32354 24.7919 4.5869 24.4569 4.736 24.0676C4.80867 23.8756 4.88733 23.6863 4.972 23.4996C5.14363 23.1195 5.19614 22.6963 5.12259 22.2857C5.04905 21.8752 4.85291 21.4965 4.56 21.1996L4.021 20.6626C3.95717 20.5989 3.90653 20.5232 3.87198 20.4399C3.83743 20.3566 3.81965 20.2673 3.81965 20.1771C3.81965 20.0869 3.83743 19.9976 3.87198 19.9143C3.90653 19.831 3.95717 19.7553 4.021 19.6916V19.6916L5.96 17.7526C6.08864 17.624 6.2631 17.5518 6.445 17.5518C6.6269 17.5518 6.80136 17.624 6.93 17.7526L7.468 18.2896C7.76477 18.5828 8.14344 18.7791 8.55405 18.8526C8.96466 18.9262 9.38792 18.8735 9.768 18.7016C9.954 18.6176 10.143 18.5386 10.334 18.4656C10.7234 18.3171 11.0587 18.0542 11.2959 17.7115C11.5331 17.3688 11.6611 16.9624 11.663 16.5456V15.7906C11.663 15.6087 11.7353 15.4342 11.8639 15.3055C11.9926 15.1769 12.1671 15.1046 12.349 15.1046H15.1C15.2819 15.1046 15.4564 15.1769 15.5851 15.3055C15.7137 15.4342 15.786 15.6087 15.786 15.7906V16.5456C15.7875 16.9624 15.915 17.3691 16.1518 17.7121C16.3887 18.0551 16.7237 18.3185 17.113 18.4676C17.305 18.5403 17.4943 18.6189 17.681 18.7036C18.0611 18.8755 18.4843 18.9282 18.895 18.8546C19.3056 18.7811 19.6842 18.5848 19.981 18.2916L20.518 17.7546C20.6472 17.6267 20.8217 17.5549 21.0035 17.5549C21.1853 17.5549 21.3598 17.6267 21.489 17.7546L23.428 19.6936C23.5566 19.8222 23.6288 19.9967 23.6288 20.1786C23.6288 20.3605 23.5566 20.535 23.428 20.6636L22.891 21.2016C22.5981 21.4985 22.4019 21.8772 22.3284 22.2877C22.2549 22.6983 22.3074 23.1215 22.479 23.5016C22.563 23.6876 22.642 23.8766 22.715 24.0676C22.8639 24.4566 23.1269 24.7916 23.4695 25.0284C23.8122 25.2652 24.2185 25.3929 24.635 25.3946H25.39C25.5719 25.3946 25.7464 25.4669 25.8751 25.5955C26.0037 25.7242 26.076 25.8987 26.076 26.0806V28.8246L26.078 28.8186Z" fill="#F03A01"/>
<path d="M19.8859 27.1744C19.8789 27.0094 19.8669 26.8454 19.8479 26.6824C19.8289 26.5194 19.7999 26.3324 19.7639 26.1614C19.7399 26.0494 19.7079 25.9394 19.6779 25.8274C19.6392 25.6861 19.5959 25.5468 19.5479 25.4094C19.5139 25.3094 19.4789 25.2194 19.4479 25.1254C19.3604 24.9058 19.2602 24.6914 19.1479 24.4834C19.1389 24.4674 19.1339 24.4504 19.1249 24.4344C18.9463 24.1165 18.7394 23.8153 18.5069 23.5344C18.4869 23.5094 18.4639 23.4864 18.4439 23.4624C18.3489 23.3504 18.2519 23.2424 18.1499 23.1384C18.0959 23.0824 18.0399 23.0304 17.9839 22.9774C17.9279 22.9244 17.8469 22.8504 17.7779 22.7904C17.7089 22.7304 17.6099 22.6484 17.5229 22.5804L17.4099 22.4964C16.346 21.7006 15.0525 21.2718 13.7239 21.2744C13.6549 21.2744 13.5869 21.2844 13.5179 21.2874C13.3719 21.2874 13.2249 21.2994 13.0769 21.3144C12.9989 21.3224 12.9209 21.3314 12.8439 21.3424C12.6202 21.3718 12.3982 21.4132 12.1789 21.4664C10.8521 21.8088 9.67672 22.5824 8.83754 23.6656C7.99835 24.7488 7.54297 26.0802 7.54297 27.4504C7.54297 28.8207 7.99835 30.1521 8.83754 31.2353C9.67672 32.3185 10.8521 33.0921 12.1789 33.4344C12.1904 33.4351 12.2018 33.4371 12.2129 33.4404C12.4498 33.4994 12.6899 33.5452 12.9319 33.5774C13.0919 33.5974 13.2519 33.6014 13.4119 33.6094C13.5189 33.6144 13.6179 33.6304 13.7299 33.6304C13.9299 33.6304 14.1299 33.6174 14.3359 33.5964C14.359 33.5946 14.3821 33.5916 14.4049 33.5874C14.5719 33.5694 14.7409 33.5444 14.9129 33.5094C14.9819 33.4964 15.0449 33.4794 15.1129 33.4644C15.2339 33.4364 15.3539 33.4064 15.4769 33.3704C15.5769 33.3414 15.6659 33.3084 15.7599 33.2704C15.8539 33.2324 15.9509 33.2014 16.0489 33.1644C16.1469 33.1274 16.2279 33.0844 16.3169 33.0434C16.4319 32.9904 16.5469 32.9384 16.6599 32.8764C17.3004 32.5337 17.892 32.1065 18.4189 31.6064C18.5613 31.4737 18.6851 31.3223 18.7869 31.1564C19.3227 30.2976 19.6748 29.3371 19.8209 28.3354C19.8399 28.2034 19.8569 28.0704 19.8679 27.9354C19.8789 27.8004 19.8839 27.6874 19.8869 27.5644C19.8869 27.5254 19.8919 27.4884 19.8919 27.4494C19.9009 27.3584 19.8909 27.2744 19.8859 27.1744ZM18.5179 27.6244C18.5179 27.6814 18.5179 27.7384 18.5099 27.7944C18.4979 27.9604 18.4759 28.1264 18.4479 28.2944C18.3212 28.9991 18.039 29.6666 17.6217 30.2483C17.2045 30.8301 16.6627 31.3115 16.0359 31.6574C15.9509 31.7024 15.8669 31.7434 15.7829 31.7824L15.7259 31.8094C15.3271 31.9905 14.9061 32.118 14.4739 32.1884L14.3819 32.2024C14.2959 32.2144 14.2119 32.2254 14.1279 32.2324C14.0179 32.2424 13.9059 32.2474 13.7929 32.2494H13.6499C13.4875 32.2476 13.3253 32.2376 13.1639 32.2194L13.0819 32.2094C12.8931 32.1846 12.7058 32.1493 12.5209 32.1034C11.4857 31.8412 10.5675 31.2412 9.91168 30.3984C9.25582 29.5557 8.89971 28.5183 8.89971 27.4504C8.89971 26.3825 9.25582 25.3451 9.91168 24.5024C10.5675 23.6596 11.4857 23.0597 12.5209 22.7974V22.7974C12.9152 22.6979 13.3202 22.6472 13.7269 22.6464C13.9232 22.6476 14.1192 22.661 14.3139 22.6864C14.3659 22.6924 14.4139 22.7024 14.4689 22.7094C14.6169 22.7324 14.7689 22.7624 14.9089 22.7994C14.9559 22.8114 15.0039 22.8224 15.0499 22.8354C15.415 22.9409 15.7664 23.0889 16.0969 23.2764C16.1499 23.3074 16.1969 23.3394 16.2529 23.3764C16.3609 23.4454 16.4659 23.5134 16.5699 23.5914C16.6259 23.6314 16.6819 23.6714 16.7349 23.7154C16.8694 23.823 16.9983 23.9375 17.1209 24.0584C17.1699 24.1074 17.2139 24.1584 17.2619 24.2134C17.3409 24.2994 17.4179 24.3874 17.4909 24.4794C17.5419 24.5434 17.5909 24.6094 17.6389 24.6794C17.7079 24.7794 17.7759 24.8794 17.8389 24.9854L17.9389 25.1564C18.0273 25.3183 18.1061 25.4853 18.1749 25.6564C18.2019 25.7254 18.2259 25.7934 18.2499 25.8624C18.2949 25.9884 18.3329 26.1164 18.3669 26.2454C18.3839 26.3144 18.4029 26.3754 18.4179 26.4454C18.4579 26.6309 18.4869 26.8186 18.5049 27.0074C18.5049 27.0574 18.5049 27.1074 18.5129 27.1584C18.5229 27.3084 18.5259 27.4664 18.5189 27.6254L18.5179 27.6244Z" fill="#F03A01"/>
<path d="M39.118 14.412H36.96C36.8196 14.4135 36.6823 14.3709 36.5675 14.2901C36.4526 14.2094 36.366 14.0946 36.32 13.962C36.107 13.3247 35.8494 12.7031 35.549 12.102C35.4868 11.9753 35.4661 11.8323 35.4898 11.6932C35.5135 11.5541 35.5804 11.426 35.681 11.327L37.211 9.795C37.5965 9.40894 37.8131 8.88563 37.8131 8.34C37.8131 7.79438 37.5965 7.27107 37.211 6.885L34.293 3.97C33.9069 3.58444 33.3836 3.36787 32.838 3.36787C32.2923 3.36787 31.769 3.58444 31.383 3.97L29.853 5.5C29.7541 5.60037 29.6261 5.66712 29.4872 5.6908C29.3484 5.71449 29.2055 5.69392 29.079 5.632C28.4777 5.33008 27.8558 5.0711 27.218 4.857C27.0848 4.81143 26.9694 4.72507 26.8881 4.61019C26.8067 4.49531 26.7637 4.35774 26.765 4.217V2.059C26.765 1.51292 26.548 0.989208 26.1619 0.603071C25.7758 0.216934 25.252 3.88573e-06 24.706 3.88573e-06H20.588C20.3172 -0.000522056 20.0491 0.0523475 19.7988 0.155586C19.5485 0.258825 19.3211 0.410407 19.1294 0.601655C18.9378 0.792903 18.7858 1.02006 18.6821 1.27013C18.5784 1.5202 18.525 1.78828 18.525 2.059V4.217C18.5265 4.35738 18.4838 4.49467 18.4031 4.60951C18.3223 4.72434 18.2076 4.81092 18.075 4.857C17.4375 5.07096 16.816 5.3296 16.215 5.631C16.0883 5.69346 15.9452 5.71432 15.8061 5.69062C15.6669 5.66691 15.5388 5.59985 15.44 5.499L13.908 3.969C13.5214 3.58441 12.9983 3.36852 12.453 3.36852C11.9077 3.36852 11.3845 3.58441 10.998 3.969L8.08896 6.881C7.70309 7.26711 7.48633 7.79064 7.48633 8.3365C7.48633 8.88237 7.70309 9.4059 8.08896 9.792L10.339 12.046C10.4675 12.1749 10.6419 12.2475 10.8239 12.2478C11.0059 12.248 11.1806 12.176 11.3095 12.0475C11.4384 11.919 11.5109 11.7446 11.5112 11.5626C11.5115 11.3806 11.4395 11.2059 11.311 11.077L9.05896 8.824C8.93036 8.69536 8.85811 8.52091 8.85811 8.339C8.85811 8.1571 8.93036 7.98265 9.05896 7.854L11.971 4.941C12.0996 4.8124 12.2741 4.74015 12.456 4.74015C12.6379 4.74015 12.8123 4.8124 12.941 4.941L14.474 6.471C14.7764 6.77525 15.167 6.97641 15.5904 7.04589C16.0137 7.11536 16.4481 7.04962 16.832 6.858C17.3755 6.58557 17.9376 6.35166 18.514 6.158C18.9196 6.02064 19.2718 5.75921 19.5207 5.41071C19.7696 5.0622 19.9026 4.64426 19.901 4.216V2.059C19.901 1.96892 19.9187 1.87971 19.9532 1.79648C19.9877 1.71325 20.0382 1.63763 20.1019 1.57393C20.1656 1.51023 20.2412 1.4597 20.3244 1.42522C20.4077 1.39075 20.4969 1.373 20.587 1.373H24.705C24.8869 1.373 25.0614 1.44528 25.19 1.57393C25.3187 1.70258 25.391 1.87707 25.391 2.059V4.217C25.3894 4.64513 25.5224 5.06292 25.7713 5.41125C26.0203 5.75958 26.3724 6.02082 26.778 6.158C27.3547 6.3515 27.9171 6.58541 28.461 6.858C28.8449 7.0485 29.2791 7.11354 29.702 7.04391C30.1249 6.97429 30.5153 6.77353 30.818 6.47L32.351 4.94C32.4796 4.8114 32.6541 4.73915 32.836 4.73915C33.0179 4.73915 33.1923 4.8114 33.321 4.94L36.234 7.853C36.3626 7.98165 36.4348 8.1561 36.4348 8.338C36.4348 8.51991 36.3626 8.69436 36.234 8.823L34.704 10.356C34.4 10.6586 34.199 11.0492 34.1295 11.4725C34.0601 11.8957 34.1257 12.3301 34.317 12.714C34.5894 13.2576 34.8233 13.8196 35.017 14.396C35.1542 14.8017 35.4156 15.154 35.7641 15.4029C36.1127 15.6518 36.5307 15.7848 36.959 15.783H39.117C39.2989 15.783 39.4734 15.8553 39.602 15.9839C39.7307 16.1126 39.803 16.2871 39.803 16.469V20.587C39.803 20.7689 39.7307 20.9434 39.602 21.0721C39.4734 21.2007 39.2989 21.273 39.117 21.273H36.959C36.5308 21.2714 36.1131 21.4045 35.7647 21.6534C35.4164 21.9023 35.1551 22.2544 35.018 22.66C34.8245 23.2368 34.5906 23.7992 34.318 24.343C34.1272 24.7269 34.062 25.1611 34.1316 25.5841C34.2012 26.0071 34.4022 26.3975 34.706 26.7L36.236 28.233C36.3646 28.3616 36.4368 28.5361 36.4368 28.718C36.4368 28.8999 36.3646 29.0744 36.236 29.203L33.325 32.117C33.1963 32.2456 33.0219 32.3179 32.84 32.3179C32.6581 32.3179 32.4836 32.2456 32.355 32.117L30.1 29.867C29.9733 29.7363 29.7999 29.6612 29.6179 29.6583C29.4359 29.6553 29.2602 29.7249 29.1295 29.8515C28.9987 29.9781 28.9236 30.1515 28.9207 30.3335C28.9178 30.5155 28.9873 30.6913 29.114 30.822L29.131 30.839L31.385 33.089C31.771 33.4746 32.2943 33.6911 32.84 33.6911C33.3856 33.6911 33.9089 33.4746 34.295 33.089L37.208 30.177C37.5938 29.7909 37.8106 29.2674 37.8106 28.7215C37.8106 28.1756 37.5938 27.6521 37.208 27.266L35.68 25.735C35.5797 25.636 35.5131 25.5081 35.4894 25.3692C35.4657 25.2304 35.4862 25.0876 35.548 24.961C35.8499 24.3597 36.1089 23.7378 36.323 23.1C36.3685 22.9668 36.4549 22.8514 36.5698 22.7701C36.6847 22.6888 36.8222 22.6457 36.963 22.647H39.121C39.667 22.647 40.1908 22.4301 40.5769 22.0439C40.963 21.6578 41.18 21.1341 41.18 20.588V16.47C41.1798 16.1994 41.1264 15.9316 41.0227 15.6817C40.9189 15.4318 40.767 15.2048 40.5755 15.0137C40.384 14.8225 40.1567 14.671 39.9066 14.5678C39.6565 14.4645 39.3885 14.4116 39.118 14.412V14.412Z" fill="#F03A01"/>
<path d="M28.9549 12.2214C27.2808 10.5506 25.0122 9.6123 22.6469 9.6123C20.2817 9.6123 18.0131 10.5506 16.3389 12.2214C16.214 12.3508 16.1449 12.524 16.1465 12.7039C16.1481 12.8837 16.2202 13.0557 16.3474 13.1829C16.4746 13.3101 16.6466 13.3822 16.8264 13.3838C17.0063 13.3854 17.1796 13.3163 17.3089 13.1914C17.9996 12.4625 18.8286 11.8788 19.7476 11.4743C20.6667 11.0698 21.6571 10.8527 22.6611 10.8357C23.665 10.8188 24.6622 11.0022 25.5944 11.3754C26.5265 11.7486 27.3749 12.304 28.0898 13.0091C28.8046 13.7142 29.3717 14.5548 29.7576 15.4817C30.1436 16.4086 30.3408 17.4033 30.3377 18.4073C30.3345 19.4114 30.1311 20.4048 29.7393 21.3293C29.3475 22.2538 28.7752 23.0908 28.0559 23.7914L27.9839 23.8634C27.8531 23.9899 27.7778 24.1632 27.7747 24.3452C27.7716 24.5272 27.8409 24.703 27.9674 24.8339C28.0939 24.9648 28.2673 25.04 28.4493 25.0431C28.6313 25.0462 28.8071 24.9769 28.9379 24.8504L28.9549 24.8334C30.6245 23.1594 31.562 20.8916 31.562 18.5274C31.562 16.1631 30.6245 13.8954 28.9549 12.2214V12.2214Z" fill="#F03A01"/>
</g>
<defs>
<clipPath id="clip0">
<rect width="41.176" height="41.176" fill="white"/>
</clipPath>
</defs>
</svg>
