<svg xmlns="http://www.w3.org/2000/svg" width="61.598" height="33.407" viewBox="0 0 61.598 33.407"><defs><style>.a{fill:#fff;}.b{fill:#c75c5c;}.c,.d{fill:#f03a01;stroke:#fff;}.c{stroke-width:0.35px;}</style></defs><g transform="translate(-7.213 -18.25)"><g transform="translate(7.5 19.863)"><path class="a" d="M34.989,51.245a1.905,1.905,0,0,1-1.557-.807L20.36,31.933l-9.9,6.6a1.907,1.907,0,0,1-2.115-3.173l11.44-7.627a1.907,1.907,0,0,1,2.615.487L34.776,45.733,48.408,20.621a1.907,1.907,0,0,1,3.187-.253L68.12,41.819A1.907,1.907,0,1,1,65.1,44.147L50.362,25.016l-13.7,25.232a1.906,1.906,0,0,1-1.564.993C35.064,51.244,35.026,51.245,34.989,51.245Z" transform="translate(-7.5 -19.626)"/></g><g transform="translate(44.522 18.75)"><circle class="b" cx="5.561" cy="5.561" r="5.561"/></g><g transform="translate(7.5 19.863)"><path class="c" d="M34.989,51.245a1.905,1.905,0,0,1-1.557-.807L20.36,31.933l-9.9,6.6a1.907,1.907,0,0,1-2.115-3.173l11.44-7.627a1.907,1.907,0,0,1,2.615.487L34.776,45.733,48.408,20.621a1.907,1.907,0,0,1,3.187-.253L68.12,41.819A1.907,1.907,0,1,1,65.1,44.147L50.362,25.016l-13.7,25.232a1.906,1.906,0,0,1-1.564.993C35.064,51.244,35.026,51.245,34.989,51.245Z" transform="translate(-7.5 -19.626)"/></g><g transform="translate(44.522 18.75)"><circle class="d" cx="5.561" cy="5.561" r="5.561"/></g></g></svg>