<svg width="180" height="40" viewBox="0 0 180 40" fill="none" xmlns="http://www.w3.org/2000/svg">
<path fill-rule="evenodd" clip-rule="evenodd" d="M56.4794 27.8168L59.4853 25.0477C59.8719 25.4585 60.3262 25.9031 60.8529 26.3815C61.3749 26.86 62.0031 27.2707 62.7329 27.609C63.4626 27.9522 64.3035 28.1213 65.2603 28.1213C66.6038 28.1213 67.5994 27.8072 68.2518 27.1838C68.8994 26.5555 69.2232 25.8209 69.2232 24.9801C69.2232 24.0039 68.8268 23.2403 68.0294 22.6942C67.2321 22.1481 65.8113 21.6793 63.7574 21.2927C62.3704 21.0221 61.2251 20.5534 60.3262 19.8913C59.4273 19.2292 58.7556 18.4415 58.311 17.5184C57.8663 16.5954 57.644 15.6337 57.644 14.6333C57.644 13.4735 57.934 12.3958 58.514 11.4051C59.0939 10.4144 59.9686 9.61217 61.1429 8.99842C62.3172 8.38468 63.7912 8.0754 65.5648 8.0754C66.773 8.0754 67.8072 8.20588 68.6722 8.46684C69.5373 8.72781 70.2622 9.04675 70.8421 9.4237C71.422 9.80065 71.8714 10.1631 72.1904 10.5159C72.5093 10.8687 72.7365 11.1248 72.8718 11.2843L70.035 13.9471C69.8997 13.8118 69.6291 13.5701 69.2328 13.2318C68.8317 12.8887 68.3194 12.5794 67.696 12.2943C67.0678 12.0092 66.3138 11.869 65.4246 11.869C64.2406 11.869 63.3708 12.1542 62.8102 12.7244C62.2544 13.2947 61.9742 13.8649 61.9742 14.4304C61.9742 15.2278 62.2979 15.8802 62.9503 16.3924C63.5979 16.9047 64.8592 17.3541 66.7246 17.7407C67.9087 17.992 69.0202 18.3931 70.0544 18.9537C71.0886 19.5143 71.9294 20.2876 72.5673 21.2782C73.2052 22.2689 73.5242 23.5399 73.5242 25.0864C73.5242 26.4057 73.1714 27.5946 72.4659 28.6577C71.7603 29.7161 70.7841 30.5521 69.5469 31.1707C68.3049 31.7845 66.8986 32.0938 65.328 32.0938C63.825 32.0938 62.4961 31.8666 61.3459 31.4123C60.1957 30.9581 59.2147 30.3926 58.4076 29.7209C57.6006 29.0492 56.9578 28.4161 56.4794 27.8265V27.8168ZM95.8656 32.0889C94.2032 32.0889 92.6567 31.7748 91.2214 31.1514C89.7861 30.5231 88.5296 29.6581 87.4471 28.5562C86.3646 27.4496 85.5237 26.1786 84.9197 24.7288C84.3156 23.2838 84.0159 21.7277 84.0159 20.0652C84.0159 18.4028 84.3156 16.8467 84.9197 15.4017C85.5237 13.9567 86.3646 12.6809 87.4471 11.5742C88.5296 10.4676 89.7861 9.60737 91.2214 8.99362C92.6567 8.37987 94.2032 8.07056 95.8656 8.07056C97.528 8.07056 99.0745 8.37987 100.51 8.99362C101.945 9.60737 103.202 10.4676 104.284 11.5742C105.367 12.6809 106.208 13.9519 106.812 15.4017C107.416 16.8467 107.715 18.4028 107.715 20.0652C107.715 21.7277 107.411 23.2838 106.812 24.7288C106.208 26.1737 105.367 27.4496 104.284 28.5562C103.202 29.6629 101.945 30.528 100.51 31.1514C99.0745 31.7796 97.528 32.0889 95.8656 32.0889ZM95.8656 28.0246C97.3686 28.0246 98.6686 27.6477 99.7608 26.8986C100.853 26.1447 101.703 25.1637 102.308 23.9411C102.912 22.7232 103.211 21.3942 103.211 19.9637C103.211 18.5043 102.917 17.1753 102.322 15.9672C101.728 14.759 100.882 13.7924 99.7753 13.0627C98.6686 12.333 97.3686 11.9705 95.8656 11.9705C94.3626 11.9705 93.0578 12.333 91.956 13.0627C90.8493 13.7924 90.0036 14.759 89.4092 15.9672C88.8147 17.1753 88.52 18.5043 88.52 19.9637C88.52 21.3991 88.8147 22.7232 89.4092 23.9411C90.0036 25.1589 90.8493 26.1447 91.956 26.8986C93.0627 27.6477 94.3626 28.0246 95.8656 28.0246ZM118.444 31.4752V8.68916H122.75V27.6477H133.991V31.4752H118.449H118.444ZM145.874 8.68916H150.18V31.4752H145.874V8.68916ZM162.17 27.8168L165.176 25.0477C165.562 25.4585 166.017 25.9031 166.543 26.3815C167.065 26.86 167.694 27.2707 168.423 27.609C169.153 27.9522 169.994 28.1213 170.951 28.1213C172.294 28.1213 173.29 27.8072 173.942 27.1838C174.59 26.5555 174.914 25.8209 174.914 24.9801C174.914 24.0039 174.517 23.2403 173.72 22.6942C172.923 22.1481 171.502 21.6793 169.448 21.2927C168.061 21.0221 166.915 20.5534 166.017 19.8913C165.118 19.2292 164.446 18.4415 164.001 17.5184C163.557 16.5954 163.335 15.6337 163.335 14.6333C163.335 13.4735 163.624 12.3958 164.204 11.4051C164.784 10.4144 165.659 9.61217 166.833 8.99842C168.008 8.38468 169.482 8.0754 171.255 8.0754C172.463 8.0754 173.498 8.20588 174.363 8.46684C175.228 8.72781 175.953 9.04675 176.533 9.4237C177.112 9.80065 177.562 10.1631 177.881 10.5159C178.2 10.8687 178.427 11.1248 178.562 11.2843L175.725 13.9471C175.59 13.8118 175.32 13.5701 174.923 13.2318C174.522 12.8887 174.01 12.5794 173.386 12.2943C172.758 12.0092 172.004 11.869 171.115 11.869C169.931 11.869 169.061 12.1542 168.501 12.7244C167.945 13.2947 167.665 13.8649 167.665 14.4304C167.665 15.2278 167.988 15.8802 168.641 16.3924C169.288 16.9047 170.55 17.3541 172.415 17.7407C173.599 17.992 174.711 18.3931 175.745 18.9537C176.779 19.5143 177.62 20.2876 178.258 21.2782C178.896 22.2689 179.215 23.5399 179.215 25.0864C179.215 26.4057 178.862 27.5946 178.156 28.6577C177.451 29.7161 176.475 30.5521 175.237 31.1707C173.995 31.7845 172.589 32.0938 171.018 32.0938C169.515 32.0938 168.186 31.8666 167.036 31.4123C165.886 30.9581 164.905 30.3926 164.098 29.7209C163.291 29.0492 162.648 28.4161 162.17 27.8265V27.8168ZM40.0145 20.3069C40.0097 20.5533 40 20.8046 39.9903 21.0511C39.7197 26.2027 37.5064 30.9871 33.761 34.5294C31.9391 36.2547 29.8417 37.603 27.5269 38.5405C25.1395 39.5119 22.6121 40 20.0266 40C19.6738 40 19.3113 39.9903 18.9537 39.971C16.2571 39.8309 13.6668 39.164 11.2601 37.9896C8.93076 36.8588 6.87206 35.3026 5.13713 33.3744C3.79365 31.8811 2.69662 30.2235 1.86057 28.4209C1.6141 27.8893 1.39182 27.3481 1.18885 26.7971C1.15502 26.7005 1.12118 26.6039 1.08735 26.5072C1.97656 26.4299 3.12673 26.3864 4.36872 26.367C5.82819 26.3429 7.40366 26.3526 8.82929 26.3574C9.2594 26.3574 9.67498 26.3622 10.0713 26.3622C12.7534 26.3767 16.1024 26.3622 18.2578 26.1012H18.2626C20.6741 25.8209 21.1236 25.3183 21.1912 25.2169L21.2057 25.1975C21.3459 24.9994 21.0366 24.3035 20.9013 24.0039C20.8723 23.9411 20.8433 23.8782 20.8143 23.8154C20.8143 23.8106 20.8095 23.8106 20.8095 23.8057C20.0507 24.3132 18.8667 24.6515 17.1994 24.8496C14.9426 25.1251 11.6709 25.1444 8.76647 25.125C8.37019 25.125 7.9449 25.1202 7.51479 25.1202C6.36945 25.1154 5.10812 25.1106 3.91445 25.1202C2.71595 25.1299 1.58028 25.1589 0.695905 25.2265C0.521929 24.5886 0.38178 23.941 0.270628 23.2886C1.14534 23.2161 2.23753 23.1775 3.4167 23.163C4.74085 23.1436 6.17132 23.1485 7.51963 23.1582C7.94974 23.1582 8.37016 23.163 8.77127 23.163C11.4534 23.1775 14.8024 23.163 16.9578 22.902H16.9627C19.3742 22.6217 19.8236 22.1191 19.8912 22.0225L19.9058 22.0032C20.0459 21.805 19.7366 21.1091 19.6013 20.8095C19.5723 20.7466 19.5433 20.6838 19.5192 20.621C19.4805 20.5389 19.4466 20.4567 19.408 20.3745C18.6734 21.0076 17.4073 21.4136 15.508 21.6359C13.2512 21.9113 9.97947 21.9307 7.07503 21.9162C6.39846 21.9162 5.6977 21.9065 5.02596 21.9017C4.41221 21.8968 3.80813 21.8872 3.22338 21.8872C2.06837 21.8823 0.990698 21.892 0.0918219 21.9548C0.0289972 21.3024 0 20.65 0 19.9879C0 19.6448 0.00966416 19.2969 0.0289948 18.9537C0.299624 13.8021 2.51299 9.01777 6.25831 5.47542C8.08023 3.75499 10.1776 2.40185 12.4924 1.46431C14.8798 0.492946 17.4073 0 19.9976 0C20.3504 0 20.7128 0.00966416 21.0656 0.0289948C23.7622 0.173975 26.3525 0.840901 28.7592 2.01041C31.0885 3.14125 33.1473 4.69736 34.8822 6.6256C36.2595 8.15755 37.3807 9.86831 38.2216 11.7241C38.4439 12.2073 38.642 12.7003 38.8257 13.2029C38.874 13.3382 38.9223 13.4735 38.9658 13.6088C38.2457 13.7151 37.1101 13.7925 35.7376 13.8553C33.8528 13.9374 31.5186 13.9906 29.1845 14.0341C28.764 14.0438 28.3871 14.0486 28.0681 14.0534C25.792 14.0921 22.96 14.1742 21.2106 14.498H21.2009C19.3887 14.817 19.2243 15.2713 19.2243 15.2761L19.2147 15.3002C19.1374 15.5177 19.4273 16.1653 19.6206 16.5906C19.6496 16.6582 19.6786 16.721 19.7076 16.7887C19.7173 16.8128 19.7318 16.837 19.7414 16.866C20.4953 16.2184 21.6407 15.943 22.5444 15.7835C24.4388 15.4356 27.377 15.3485 29.7209 15.3099C30.4506 15.2954 31.4751 15.2906 32.5625 15.2857C33.6112 15.2809 34.945 15.2761 36.216 15.2567C37.4532 15.2374 38.6275 15.2036 39.4152 15.1359C39.5747 15.7738 39.7052 16.4214 39.8019 17.0738C39.0383 17.1511 37.9702 17.1898 36.6654 17.214C35.4814 17.2381 34.1041 17.243 32.5673 17.2478C31.4896 17.2526 30.47 17.2526 29.7547 17.2719C27.4786 17.3058 24.6466 17.3928 22.8972 17.7166H22.8875C21.0753 18.0355 20.911 18.4898 20.911 18.4946L20.9013 18.5188C20.824 18.7411 21.1139 19.3838 21.3072 19.8091C21.312 19.8236 21.3217 19.8381 21.3266 19.8478C22.066 19.3548 23.0422 19.1229 23.8396 18.9827C25.7388 18.6348 28.6722 18.5478 31.0161 18.5091C31.741 18.4946 32.7026 18.4898 33.7223 18.485C34.655 18.4801 35.7618 18.4753 36.8346 18.4608C38.0283 18.4415 39.1688 18.4076 39.9565 18.3448C40.0097 18.9972 40.029 19.6496 40.0193 20.3117L40.0145 20.3069ZM17.9099 17.5764C17.8809 17.5136 17.8519 17.4508 17.8229 17.388C17.4459 16.5567 17.0255 15.6095 17.3493 14.6527C17.8084 13.2367 19.5675 12.7728 20.8529 12.5456C22.7473 12.1977 25.6856 12.1059 28.0294 12.072C28.3436 12.0672 28.7254 12.0575 29.1458 12.0527C30.499 12.0285 32.7897 11.985 34.8339 11.9077C32.1179 6.93972 26.9663 3.45054 20.8965 3.12675C20.592 3.11225 20.2924 3.10259 19.9927 3.10259C11.0716 3.10259 3.61484 10.0906 3.14123 19.1035C3.12674 19.3742 3.11708 19.64 3.11708 19.9058C3.74049 19.9058 4.38806 19.9154 5.04531 19.9203C5.71221 19.9299 6.4081 19.9348 7.07984 19.9348C9.76197 19.9493 13.111 19.9348 15.2664 19.669H15.2712C17.6827 19.3887 18.1322 18.8861 18.1998 18.7894L18.2143 18.7701C18.3545 18.572 18.0452 17.8712 17.9099 17.5764ZM36.8926 20.4277C35.9454 20.4422 34.8822 20.447 33.7272 20.4519C32.7172 20.4567 31.7651 20.4615 31.0499 20.476C28.7737 20.5147 25.9466 20.5968 24.1923 20.9206H24.1827C22.3704 21.2396 22.2061 21.6939 22.2061 21.6987L22.1964 21.7228C22.1191 21.9452 22.4091 22.5879 22.6024 23.0132C22.6314 23.0808 22.6604 23.1437 22.6894 23.2113C23.0228 23.9652 23.5834 25.2217 22.8102 26.3332C22.1916 27.2417 20.8191 27.7927 18.485 28.0633C16.2281 28.3388 12.9564 28.3581 10.0519 28.3388C9.6605 28.3388 9.24488 28.3388 8.80994 28.3339C7.73226 28.3291 6.50477 28.3243 5.3111 28.3339C8.06089 33.1714 13.1448 36.5495 19.1132 36.8684C19.4177 36.8829 19.7173 36.8926 20.0169 36.8926C28.938 36.8926 36.3948 29.9046 36.8684 20.8916C36.8781 20.737 36.8829 20.5823 36.8878 20.4277H36.8926Z" fill="white"/>
</svg>
