<svg width="64" height="64" viewBox="0 0 64 64" fill="none" xmlns="http://www.w3.org/2000/svg">
<rect width="64" height="64" rx="10" fill="#031D44"/>
<path fill-rule="evenodd" clip-rule="evenodd" d="M48.5948 27.0923C48.967 28.5089 49.1553 29.9707 49.1553 31.4484C49.1553 32.9261 48.967 34.388 48.5948 35.8046L50.7593 37.3969L46.5581 44.6734L44.0931 43.5934C41.9857 45.6859 39.4051 47.1771 36.5519 47.9509L36.2551 50.6219H27.8528L27.5561 47.9509C24.7029 47.1771 22.1223 45.686 20.0148 43.5934L17.5498 44.6734L13.3486 37.3969L15.5131 35.8046C15.141 34.388 14.9526 32.9261 14.9526 31.4484C14.9526 29.9707 15.1409 28.5089 15.5131 27.0923L13.3486 25.4999L17.5498 18.2233L20.0148 19.3033C22.1222 17.2109 24.7028 15.7198 27.5561 14.9459L27.8528 12.2749H36.2551L36.5518 14.9459C39.405 15.7198 41.9856 17.2109 44.0931 19.3033L46.5581 18.2233L50.7593 25.4999L48.5948 27.0923ZM34.4941 46.1246L35.2791 45.9509C38.2555 45.2921 40.9249 43.7497 42.999 41.4904L43.542 40.8989L45.6178 41.8083L47.8079 38.015L45.986 36.6748L46.2269 35.9088C46.6792 34.4703 46.9084 32.9696 46.9084 31.4484C46.9084 29.9273 46.6791 28.4266 46.2269 26.988L45.986 26.222L47.8079 24.8818L45.6178 21.0885L43.542 21.998L42.999 21.4064C40.9249 19.1472 38.2554 17.6048 35.2791 16.946L34.4941 16.7722L34.244 14.5218H29.8639L29.6138 16.7722L28.8288 16.946C25.8525 17.6047 23.183 19.1471 21.109 21.4064L20.566 21.998L18.4901 21.0885L16.3001 24.8818L18.1219 26.222L17.8811 26.988C17.4288 28.4265 17.1995 29.9272 17.1995 31.4484C17.1995 32.9696 17.4288 34.4703 17.8811 35.9088L18.1219 36.6748L16.3001 38.015L18.4901 41.8083L20.566 40.8989L21.109 41.4904C23.183 43.7497 25.8525 45.2921 28.8288 45.9509L29.6138 46.1246L29.8639 48.375H34.244L34.4941 46.1246ZM25.9883 27.3045L27.5935 28.8765L25.0567 31.4669L27.647 34.0038L26.0749 35.6091L21.8792 31.5001L25.9883 27.3045ZM36.5144 28.8765L39.0513 31.4669L36.4609 34.0038L38.033 35.6091L42.2287 31.5001L38.1196 27.3045L36.5144 28.8765ZM32.5605 23.6155L29.365 38.8015L31.5648 39.2644L34.7602 24.0784L32.5605 23.6155Z" fill="url(#paint0_linear)"/>
<defs>
<linearGradient id="paint0_linear" x1="13.3486" y1="33.2965" x2="50.0058" y2="33.1212" gradientUnits="userSpaceOnUse">
<stop stop-color="#6964D3"/>
<stop offset="0.197917" stop-color="#5564F0"/>
<stop offset="0.40625" stop-color="#488AF4"/>
<stop offset="0.666667" stop-color="#3DBAE3"/>
<stop offset="0.854167" stop-color="#3BDCD6"/>
<stop offset="1" stop-color="#35FCD0"/>
</linearGradient>
</defs>
</svg>
