<svg width="40" height="39" viewBox="0 0 40 39" fill="none" xmlns="http://www.w3.org/2000/svg">
<rect width="40" height="39" rx="10" fill="#DAFFCC"/>
<path fill-rule="evenodd" clip-rule="evenodd" d="M30.3721 16.5093C30.6047 17.3725 30.7224 18.2633 30.7224 19.1638C30.7224 20.0643 30.6047 20.9551 30.3721 21.8183L31.7249 22.7886L29.0992 27.2228L27.5586 26.5646C26.2414 27.8397 24.6286 28.7484 22.8453 29.22L22.6598 30.8476H17.4084L17.2229 29.22C15.4397 28.7484 13.8268 27.8398 12.5096 26.5646L10.969 27.2228L8.34326 22.7886L9.69608 21.8183C9.46348 20.9551 9.34575 20.0643 9.34575 19.1638C9.34575 18.2633 9.46343 17.3725 9.69608 16.5093L8.34326 15.5389L10.969 11.1047L12.5096 11.7629C13.8268 10.4878 15.4396 9.57913 17.2229 9.10754L17.4084 7.47992H22.6598L22.8452 9.10754C24.6285 9.57913 26.2414 10.4878 27.5585 11.7629L29.0992 11.1047L31.7249 15.5389L30.3721 16.5093ZM21.5592 28.1071L22.0498 28.0012C23.91 27.5998 25.5785 26.6599 26.8747 25.2831L27.2141 24.9226L28.5115 25.4769L29.8803 23.1653L28.7416 22.3486L28.8922 21.8818C29.1748 21.0052 29.3181 20.0907 29.3181 19.1638C29.3181 18.2368 29.1748 17.3223 28.8922 16.4457L28.7416 15.9789L29.8803 15.1622L28.5115 12.8507L27.2141 13.4049L26.8747 13.0444C25.5785 11.6677 23.91 10.7278 22.0498 10.3264L21.5592 10.2205L21.4029 8.84912H18.6653L18.509 10.2205L18.0184 10.3264C16.1582 10.7278 14.4897 11.6677 13.1935 13.0444L12.8541 13.4049L11.5567 12.8507L10.1879 15.1622L11.3266 15.9789L11.176 16.4457C10.8934 17.3223 10.7501 18.2368 10.7501 19.1638C10.7501 20.0907 10.8934 21.0052 11.176 21.8818L11.3266 22.3486L10.1879 23.1653L11.5567 25.4769L12.8541 24.9226L13.1935 25.2831C14.4897 26.6599 16.1582 27.5998 18.0184 28.0012L18.509 28.1071L18.6653 29.4784H21.4029L21.5592 28.1071ZM16.2431 16.6385L17.2464 17.5964L15.6608 19.175L17.2798 20.7209L16.2972 21.6991L13.6749 19.1952L16.2431 16.6385ZM22.8219 17.5964L24.4074 19.175L22.7884 20.7209L23.771 21.6991L26.3933 19.1952L23.8252 16.6385L22.8219 17.5964ZM20.3507 14.3905L18.3535 23.6445L19.7284 23.9265L21.7255 14.6726L20.3507 14.3905Z" fill="#3DC794"/>
</svg>
