<svg width="40" height="40" viewBox="0 0 40 40" fill="none" xmlns="http://www.w3.org/2000/svg">
<rect width="40" height="40" rx="10" fill="#DAFFCC"/>
<path fill-rule="evenodd" clip-rule="evenodd" d="M18.5994 9.3949C16.2574 9.54281 14.1382 10.0977 12.7636 10.923C11.6899 11.5676 11.0474 12.2697 10.7451 13.1289L10.625 13.4702V15.646C10.625 18.009 10.6234 17.9898 10.8769 18.6178C11.161 19.3214 11.6974 19.9228 12.4415 20.3721L12.5522 20.4389L12.4957 20.7088C12.4102 21.1173 12.4148 24.9608 12.5013 25.3693C12.8935 27.2214 15.3478 28.695 18.8979 29.21C19.7525 29.334 20.4143 29.375 21.5632 29.375C23.2218 29.375 24.385 29.2406 25.8062 28.8847C28.3195 28.2554 29.9875 27.0996 30.5049 25.629L30.625 25.2877V23.1119C30.625 21.1653 30.6171 20.9075 30.5499 20.664C30.3676 20.0039 30.1267 19.5628 29.694 19.0969C29.4543 18.8389 28.9088 18.4133 28.7354 18.3491C28.7094 18.3395 28.7158 18.2297 28.7523 18.0564C28.8398 17.6422 28.8368 13.8045 28.7487 13.3887C28.3212 11.37 25.4049 9.79622 21.4352 9.44208C20.7272 9.3789 19.2435 9.3542 18.5994 9.3949ZM20.9424 11.2331C23.4281 11.4206 25.5988 12.1435 26.5514 13.1007C27.2173 13.7698 27.1085 14.3594 26.194 15.0377C23.9272 16.7191 18.7473 17.1565 15.138 15.9711C13.5895 15.4626 12.4425 14.5894 12.4383 13.9159C12.4348 13.3451 13.2514 12.6298 14.5077 12.1032C16.1975 11.3949 18.6655 11.0612 20.9424 11.2331ZM13.0668 17.0288C14.4622 17.7312 15.8512 18.155 17.512 18.385C18.3003 18.4942 21.134 18.4927 21.9256 18.3827C23.5594 18.1556 24.885 17.7575 26.254 17.083C26.6175 16.9038 26.9293 16.7504 26.947 16.7421C26.9645 16.7336 26.9785 16.954 26.978 17.2316C26.9769 17.8267 26.9256 17.9773 26.6082 18.317C25.7977 19.1846 23.9484 19.8882 21.7337 20.1717C21.0186 20.2633 19.1494 20.2992 18.3862 20.2361C15.9805 20.0372 13.8793 19.3367 12.9227 18.4149C12.5238 18.0305 12.4383 17.8189 12.4378 17.2139C12.4375 16.9499 12.4472 16.7339 12.4592 16.7339C12.4711 16.7339 12.7446 16.8666 13.0668 17.0288ZM27.942 20.0231C28.2806 20.2577 28.5396 20.5117 28.6773 20.7442C28.8143 20.9755 28.8325 21.3643 28.7165 21.5816C28.5134 21.962 27.8948 22.4647 27.2135 22.8029C24.5109 24.1445 19.8307 24.307 16.7018 23.1679C15.5268 22.7401 14.6591 22.153 14.3762 21.5944C14.2495 21.3443 14.2389 21.2345 14.3457 21.276C14.6175 21.3817 15.6587 21.6589 16.1832 21.7653C17.5707 22.0466 18.5774 22.1321 20.0706 22.0953C22.0065 22.0476 23.527 21.8019 24.996 21.2994C25.7428 21.0439 26.7917 20.5122 27.2561 20.1534C27.4672 19.9904 27.6511 19.8551 27.6648 19.8527C27.6786 19.8502 27.8033 19.9269 27.942 20.0231ZM15.9027 24.7725C17.3298 25.3454 18.7096 25.6486 20.2683 25.732C21.1607 25.7797 22.8356 25.7591 23.4608 25.6927C25.1744 25.5108 26.9255 24.9861 28.3755 24.2199L28.8126 23.989L28.8117 24.489C28.8105 25.0997 28.7583 25.238 28.3797 25.6325C27.5053 26.5434 25.6306 27.2175 23.205 27.4931C22.591 27.5628 20.4918 27.5628 19.8574 27.493C17.5291 27.237 15.5807 26.5437 14.6986 25.6572C14.3291 25.286 14.2711 25.1302 14.2711 24.5111V23.9959L14.7989 24.2686C15.0891 24.4185 15.5859 24.6453 15.9027 24.7725Z" fill="#3DC794"/>
</svg>
