<svg width="56" height="56" viewBox="0 0 56 56" fill="none" xmlns="http://www.w3.org/2000/svg">
<rect width="56" height="56" rx="10" fill="#D1F7FF"/>
<g clip-path="url(#clip0)">
<path d="M12.4551 26.5195H17.1905C17.4464 27.2515 18.137 27.742 18.9125 27.7425H21.016V30.6562C20.594 30.3697 20.0998 30.2076 19.59 30.1884C18.8601 30.1633 18.1522 30.4402 17.6332 30.954C17.0611 31.5065 16.7372 32.2672 16.7355 33.0625V40.5838C16.7399 44.2969 19.7489 47.3059 23.462 47.3103H30.1884C33.9015 47.3059 36.9105 44.2969 36.9149 40.5838V31.4114C36.9123 31.2047 36.8831 30.9992 36.828 30.7999H42.4183C43.7692 30.7999 44.8643 29.7048 44.8643 28.354C44.8619 27.7755 44.6526 27.2169 44.2742 26.7794C44.8962 26.4181 45.3247 25.7982 45.4429 25.0887C45.5612 24.3792 45.3569 23.6539 44.8857 23.1104C45.466 22.7703 45.8794 22.205 46.0276 21.5489C46.1758 20.8928 46.0456 20.2046 45.6678 19.6481C46.7953 19.2584 47.4758 18.1105 47.2767 16.9343C47.0776 15.758 46.0573 14.898 44.8643 14.9011H41.8068C41.8038 12.5383 39.8891 10.6237 37.5264 10.6206H34.4689C32.7818 10.6172 31.1556 11.2505 29.9151 12.394C28.6511 13.5912 26.9823 14.268 25.2414 14.2896H24.3957L24.2863 13.8475C24.0831 13.0294 23.3486 12.455 22.5056 12.4551H18.9149C18.0718 12.4551 17.3372 13.0297 17.1342 13.8481L17.0248 14.2896H12.4551C11.4419 14.2896 10.6206 15.1109 10.6206 16.1241V24.685C10.6206 25.6981 11.4419 26.5195 12.4551 26.5195ZM24.685 20.0988C24.6838 20.3055 24.6662 20.5118 24.6324 20.7158C24.275 20.5144 23.8722 20.4073 23.462 20.4045C22.1111 20.4045 21.016 21.4996 21.016 22.8505V24.0582C20.9151 24.0662 20.8142 24.0735 20.7103 24.0735C18.5195 24.0628 16.7463 22.2895 16.7355 20.0988C16.7355 17.9036 18.5151 16.1241 20.7103 16.1241C22.9054 16.1241 24.685 17.9036 24.685 20.0988ZM18.9125 26.5195C18.6323 26.5172 18.3889 26.3263 18.3199 26.0547L17.931 24.4832C18.7607 25.0142 19.7252 25.2965 20.7103 25.2965C20.8136 25.2965 20.9145 25.2873 21.016 25.2812V26.5195H18.9125ZM35.6919 40.5838C35.6885 43.6219 33.2265 46.0839 30.1884 46.0873H23.462C20.4239 46.0839 17.9619 43.6219 17.9585 40.5838V33.0625C17.9614 32.6007 18.1506 32.1597 18.4832 31.8395C18.7638 31.5579 19.1473 31.4032 19.5448 31.4114C20.3639 31.4482 21.0106 32.1202 21.016 32.9402V39.3609C21.016 39.6986 21.2898 39.9723 21.6275 39.9723C21.9652 39.9723 22.239 39.6986 22.239 39.3609V22.8505C22.239 22.1751 22.7865 21.6275 23.462 21.6275C24.1374 21.6275 24.685 22.1751 24.685 22.8505V35.6919C24.685 36.0296 24.9587 36.3034 25.2965 36.3034C25.6342 36.3034 25.908 36.0296 25.908 35.6919V30.1884C25.908 29.513 26.4555 28.9655 27.131 28.9655C27.8064 28.9655 28.3539 29.513 28.3539 30.1884V35.6919C28.3539 36.0296 28.6277 36.3034 28.9654 36.3034C29.3032 36.3034 29.5769 36.0296 29.5769 35.6919V30.7999C29.5769 30.1245 30.1245 29.5769 30.7999 29.5769C31.4754 29.5769 32.0229 30.1245 32.0229 30.7999V35.6919C32.0229 36.0296 32.2967 36.3034 32.6344 36.3034C32.9721 36.3034 33.2459 36.0296 33.2459 35.6919V31.4114C33.2459 30.736 33.7934 30.1884 34.4689 30.1884C35.1443 30.1884 35.6919 30.736 35.6919 31.4114V40.5838ZM25.2414 15.5126C27.2895 15.4925 29.2547 14.701 30.7449 13.2959C31.7592 12.3604 33.089 11.8418 34.4689 11.8436H37.5264C39.2141 11.8456 40.5818 13.2133 40.5838 14.9011H34.4689C34.1312 14.9011 33.8574 15.1749 33.8574 15.5126C33.8574 15.8503 34.1312 16.1241 34.4689 16.1241H44.8643C45.5397 16.1241 46.0873 16.6716 46.0873 17.3471C46.0873 18.0225 45.5397 18.57 44.8643 18.57H38.1378C37.8001 18.57 37.5264 18.8438 37.5264 19.1815C37.5264 19.5193 37.8001 19.793 38.1378 19.793H43.6413C44.3167 19.793 44.8643 20.3406 44.8643 21.016C44.8643 21.6915 44.3167 22.239 43.6413 22.239H38.1378C37.8001 22.239 37.5264 22.5128 37.5264 22.8505C37.5264 23.1882 37.8001 23.462 38.1378 23.462H43.0298C43.7052 23.462 44.2528 24.0096 44.2528 24.685C44.2528 25.3604 43.7052 25.908 43.0298 25.908H38.1378C37.8001 25.908 37.5264 26.1818 37.5264 26.5195C37.5264 26.8572 37.8001 27.131 38.1378 27.131H42.4183C43.0937 27.131 43.6413 27.6785 43.6413 28.354C43.6413 29.0294 43.0937 29.5769 42.4183 29.5769H36.0698C35.1682 28.77 33.8067 28.7608 32.8943 29.5555C32.533 28.9336 31.9132 28.5051 31.2036 28.3868C30.4941 28.2686 29.7688 28.4729 29.2253 28.944C28.9027 28.3866 28.3702 27.9816 27.7468 27.8197C27.1234 27.6578 26.4611 27.7524 25.908 28.0825V22.8505C25.9053 22.4657 25.8107 22.0871 25.6322 21.7461C25.814 21.2159 25.9072 20.6593 25.908 20.0988C25.9074 19.1713 25.6569 18.261 25.1827 17.4639L24.699 15.5126H25.2414ZM18.9149 13.6781H22.5056C22.7864 13.6782 23.0311 13.8697 23.0988 14.1422L23.4883 15.7138C21.7948 14.6301 19.6257 14.6301 17.9322 15.7138L18.3218 14.1428C18.3892 13.87 18.6339 13.6783 18.9149 13.6781ZM11.8436 16.1241C11.8436 15.7863 12.1174 15.5126 12.4551 15.5126H16.7221L16.2378 17.4639C15.2726 19.0797 15.2707 21.0946 16.2329 22.7123L16.8725 25.2965H12.4551C12.1174 25.2965 11.8436 25.0227 11.8436 24.685V16.1241Z" fill="#031D44"/>
</g>
<defs>
<clipPath id="clip0">
<rect width="36.6897" height="36.6897" fill="white" transform="translate(10.6206 10.6206)"/>
</clipPath>
</defs>
</svg>
