<svg width="56" height="56" viewBox="0 0 56 56" fill="none" xmlns="http://www.w3.org/2000/svg">
<rect width="56" height="56" rx="10" fill="#D1F7FF"/>
<path fill-rule="evenodd" clip-rule="evenodd" d="M19.3766 10.8508C19.0137 10.9774 18.6913 11.1063 18.66 11.1371C18.6287 11.1679 18.7187 11.4657 18.8599 11.7988C19.6068 13.5607 19.8216 16.5744 19.3581 18.7861C19.2163 19.4631 18.5069 21.492 17.7817 23.2944C16.0899 27.4998 15.8328 28.5802 15.8382 31.46C15.8423 33.5582 15.9134 34.0417 16.983 39.2481C17.6102 42.3013 18.1624 44.932 18.2103 45.0944C18.2814 45.3356 18.4099 45.3698 18.9147 45.2815C19.2543 45.222 19.5846 45.1264 19.6486 45.0692C19.7127 45.0119 19.2469 42.3924 18.6134 39.2481C17.98 36.1039 17.4387 32.9721 17.4107 32.2885C17.3244 30.2026 17.4071 29.1386 17.6628 29.042C17.9916 28.9176 21.6302 30.3659 23.2304 31.2582C23.9701 31.6706 25.0464 32.3508 25.6225 32.7697L26.6696 33.5313L26.6732 39.4553L26.6765 45.3792H27.517H28.3576V39.4438V33.5086L29.4082 32.7639C31.4522 31.3153 33.5713 30.2381 36.2245 29.299C36.9719 29.0344 37.3358 28.9759 37.4619 29.1002C37.5693 29.2061 37.6387 30.0926 37.6362 31.321C37.6322 33.1651 37.5246 33.8939 36.5387 38.751C35.9375 41.713 35.3945 44.3368 35.3322 44.5817C35.2269 44.9941 35.2703 45.0405 35.9236 45.2139C36.3114 45.3168 36.6693 45.3608 36.719 45.312C36.7686 45.2629 37.3402 42.6668 37.989 39.5428C39.1036 34.1764 39.1696 33.7346 39.1844 31.5429C39.2046 28.5714 38.9625 27.5353 37.2682 23.3405C36.5504 21.5633 35.8403 19.5725 35.6904 18.9166C35.2058 16.7954 35.3939 13.8996 36.1532 11.7946C36.4027 11.1035 36.4023 11.1023 35.9525 10.9417C35.7047 10.8533 35.3804 10.732 35.2318 10.6723C34.9138 10.5447 34.7594 10.8708 34.2161 12.8182C33.9272 13.8542 33.848 14.5783 33.8539 16.1323C33.8628 18.4247 34.1072 19.6151 35.074 22.072C35.4382 22.9974 35.7592 23.8599 35.7872 23.9885C35.9195 24.5957 31.9042 25.1841 27.6011 25.1884C23.9243 25.192 21.2382 24.8888 19.3361 24.2553C19.2052 24.2117 19.3612 23.6352 19.8073 22.5151C20.9042 19.7607 21.1597 18.57 21.1597 16.2151C21.1597 14.1558 20.8717 12.5234 20.2642 11.1394L20.0364 10.6206L19.3766 10.8508ZM13.6456 13.2353L13.1597 13.7354L14.2026 14.7725C14.7761 15.343 15.2455 15.8637 15.2455 15.9296C15.2455 15.9956 13.7704 16.0494 11.9675 16.0494H8.68945V16.7951V17.5408H12.0046H15.3198L14.2391 18.6157L13.1581 19.6908L13.7337 20.2761L14.3093 20.8615L16.3745 18.8308L18.4396 16.7999L16.3827 14.7677C15.2515 13.6499 14.2823 12.7353 14.2288 12.7353C14.1753 12.7353 13.9129 12.9604 13.6456 13.2353ZM38.6514 14.7677L36.5945 16.7999L38.6596 18.8308L40.7248 20.8615L41.3003 20.2761L41.8759 19.6908L40.795 18.6157L39.7143 17.5408H43.0295H46.3446V16.7951V16.0494L43.1927 16.0299C41.4592 16.0189 39.9839 16.0189 39.9147 16.0299C39.6124 16.0769 39.856 15.7427 40.8315 14.7725L41.8744 13.7354L41.3884 13.2353C41.1211 12.9604 40.8587 12.7353 40.8053 12.7353C40.7518 12.7353 39.7825 13.6499 38.6514 14.7677ZM26.7093 22.1391L26.7606 22.9262H27.517H28.2735L28.3248 22.1391L28.376 21.352H27.517H26.658L26.7093 22.1391ZM20.5438 26.1473C24.7052 27.0387 30.3289 27.0387 34.4903 26.1473C35.3209 25.9695 36.127 25.7843 36.2818 25.7359C36.4995 25.6678 36.6281 25.8398 36.8483 26.4933C37.005 26.9583 37.1065 27.3586 37.0741 27.3828C37.0414 27.407 36.4097 27.6322 35.6701 27.8831C33.1001 28.755 28.7228 31.0411 28.0161 31.8806C27.6922 32.2652 27.451 32.1805 26.0564 31.1936C24.5651 30.1382 21.3592 28.5506 19.364 27.8793C18.6244 27.6304 17.9926 27.407 17.96 27.3828C17.9276 27.3586 18.0291 26.9583 18.1858 26.4933C18.406 25.8398 18.5346 25.6678 18.7523 25.7359C18.9071 25.7843 19.7132 25.9695 20.5438 26.1473Z" fill="#0E2843"/>
</svg>
