<svg width="493" height="280" viewBox="0 0 493 280" fill="none" xmlns="http://www.w3.org/2000/svg">
<g clip-path="url(#clip0)">
<rect width="492.159" height="280" rx="18" fill="#F9FBFF"/>
<path d="M467.055 205.376C505.978 255.503 485.372 309.31 467.055 337.823L40.5861 337.42C51.7799 341.54 67.6653 347.389 41.6559 337.823C41.2963 337.691 40.9397 337.556 40.5861 337.42C8.96592 325.193 1.17529 295.025 25.629 251.365C50.3562 207.215 46.6929 192.959 19.2183 145.131C-8.25642 97.3028 14.6391 71.5492 46.6929 66.0305C78.7467 60.5119 104.39 60.5118 145.602 29.2396C186.814 -2.03263 240.389 -1.11285 271.069 20.9617C301.75 43.0362 343.419 43.956 393.332 33.8385C443.244 23.721 453.318 61.8915 445.992 90.4044C438.665 118.917 428.133 155.248 467.055 205.376Z" fill="#EDF7F5"/>
<rect x="112.363" y="69" width="277.376" height="179" rx="18" fill="#FBFFFE" stroke="#BEE5E0" stroke-width="4"/>
<line x1="130.248" y1="227" x2="355.945" y2="227" stroke="#BEE5E0" stroke-width="2"/>
<path d="M150.63 217.5C162.064 217.5 173.498 191.5 186.921 191.5C200.343 191.5 211.237 171.5 222.714 171.5C243.594 171.5 247.571 206.5 263.479 206.5C280.381 206.5 283.364 158.5 301.758 158.5C323.134 158.5 320.152 206.5 338.048 206.5C355.945 206.5 353.459 147 377.322 147" stroke="#BEE5E0" stroke-width="2"/>
<rect x="130.248" y="112" width="5.96556" height="17" fill="#BFE5DF"/>
<rect x="140.19" y="106" width="5.96558" height="23" fill="#BFE5DF"/>
<rect x="153.116" y="112" width="5.96556" height="17" fill="#BFE5DF"/>
<rect x="163.059" y="106" width="5.96555" height="23" fill="#BFE5DF"/>
<rect x="175.984" y="112" width="5.96556" height="17" fill="#BFE5DF"/>
<rect x="185.926" y="106" width="5.96555" height="23" fill="#BFE5DF"/>
<rect x="198.852" y="112" width="5.96556" height="17" fill="#BFE5DF"/>
<rect x="208.794" y="106" width="5.96555" height="23" fill="#BFE5DF"/>
<rect x="221.72" y="112" width="5.96555" height="17" fill="#BFE5DF"/>
<rect x="231.662" y="106" width="5.96558" height="23" fill="#BFE5DF"/>
<rect x="244.588" y="112" width="5.96556" height="17" fill="#BFE5DF"/>
<rect x="254.53" y="106" width="5.96555" height="23" fill="#BFE5DF"/>
<rect x="267.456" y="112" width="5.96558" height="17" fill="#BFE5DF"/>
<rect x="277.398" y="106" width="5.96558" height="23" fill="#BFE5DF"/>
<rect x="290.324" y="112" width="5.96558" height="17" fill="#BFE5DF"/>
<rect x="300.266" y="106" width="5.96558" height="23" fill="#BFE5DF"/>
<rect x="313.192" y="112" width="5.96555" height="17" fill="#BFE5DF"/>
<rect x="323.134" y="106" width="5.96558" height="23" fill="#BFE5DF"/>
<rect x="336.06" y="112" width="5.96558" height="17" fill="#BFE5DF"/>
<rect x="346.002" y="106" width="5.96555" height="23" fill="#BFE5DF"/>
<rect x="358.928" y="112" width="5.96555" height="17" fill="#BFE5DF"/>
<rect x="368.87" y="106" width="5.96555" height="23" fill="#BFE5DF"/>
<ellipse cx="187.418" cy="191.5" rx="2.48565" ry="2.5" fill="#D0EAE6"/>
<ellipse cx="225.2" cy="171.5" rx="2.48564" ry="2.5" fill="#D0EAE6"/>
<ellipse cx="262.982" cy="206.5" rx="2.48566" ry="2.5" fill="#D0EAE6"/>
<ellipse cx="302.752" cy="158.5" rx="2.48566" ry="2.5" fill="#D0EAE6"/>
<rect x="130.248" y="146" width="16.9024" height="1" fill="#BFE5DF"/>
<rect x="130.248" y="158" width="16.9024" height="1" fill="#BFE5DF"/>
<rect x="130.248" y="170" width="16.9024" height="1" fill="#BFE5DF"/>
<rect x="130.248" y="182" width="16.9024" height="1" fill="#BFE5DF"/>
<rect x="130.248" y="194" width="16.9024" height="1" fill="#BFE5DF"/>
<rect x="130.248" y="206" width="16.9024" height="1" fill="#BFE5DF"/>
<rect x="130.248" y="217" width="16.9024" height="1" fill="#BFE5DF"/>
<rect x="53.6958" y="40" width="104.386" height="55" rx="5" fill="white" stroke="#D9EFE8" stroke-width="2"/>
<path d="M71.2997 53.7114C74.6981 50.2934 79.2377 48.2667 84.0377 48.0245C88.8378 47.7823 93.5562 49.3418 97.2777 52.4006L85.0092 67.5L71.2997 53.7114Z" fill="#D8F0EB"/>
<path d="M102.843 75.1497C101.718 77.8035 100.021 80.1731 97.8752 82.0876C95.7293 84.0021 93.1878 85.4139 90.4339 86.2211C87.68 87.0284 84.7823 87.2109 81.9498 86.7557C79.1173 86.3004 76.4204 85.2187 74.0538 83.5885C71.6872 81.9583 69.7096 79.8202 68.2639 77.3284C66.8181 74.8367 65.9401 72.0533 65.6931 69.1789C65.4461 66.3046 65.8364 63.411 66.8357 60.7067C67.835 58.0024 69.4185 55.5548 71.4719 53.5404L85.0092 67.5L102.843 75.1497Z" fill="#BFE5E0"/>
<path d="M97.1522 52.2984C100.448 54.9612 102.787 58.6344 103.815 62.7584C104.843 66.8825 104.503 71.2314 102.846 75.1429L85.0092 67.5L97.1522 52.2984Z" fill="#9BD2C7"/>
<rect x="111.357" y="54" width="40.7646" height="3" rx="1.5" fill="#C0E5DC"/>
<rect x="111.357" y="62" width="22.868" height="3" rx="1.5" fill="#C0E5DC"/>
<rect x="111.357" y="78" width="22.868" height="3" rx="1.5" fill="#C0E5DC"/>
<rect x="111.357" y="70" width="34.7991" height="3" rx="1.5" fill="#C0E5DC"/>
<rect x="324.134" y="43" width="98.4203" height="99" rx="7" fill="#FBFFFE" stroke="#D9EFE8" stroke-width="2"/>
<g opacity="0.4">
<path d="M360.881 111.683C360.281 111.079 359.31 111.079 358.71 111.683C358.109 112.287 358.109 113.263 358.71 113.867L360.447 115.615H353.395C348.809 115.615 345.091 111.863 345.091 107.263V102.085C345.091 101.237 344.402 100.543 343.558 100.543C342.715 100.543 342.025 101.237 342.025 102.085V107.263C342.025 113.572 347.123 118.698 353.395 118.698H360.447L358.71 120.446C358.109 121.05 358.109 122.026 358.71 122.63C359.003 122.926 359.399 123.08 359.796 123.08C360.192 123.08 360.575 122.926 360.881 122.63L365.238 118.249C365.838 117.645 365.838 116.668 365.238 116.064L360.881 111.683Z" fill="#18A092"/>
<path d="M368.853 65.0032H343.674C342.83 65.0032 342.141 65.697 342.141 66.545V91.8701C342.141 92.7181 342.83 93.412 343.674 93.412H368.853C369.696 93.412 370.386 92.7181 370.386 91.8701V66.545C370.386 65.697 369.709 65.0032 368.853 65.0032ZM367.32 90.3282H345.207V68.0869H367.32V90.3282Z" fill="#18A092"/>
<path d="M388.31 69.3847H381.258L382.995 67.6372C383.596 67.0333 383.596 66.0568 382.995 65.4529C382.395 64.849 381.424 64.849 380.824 65.4529L376.48 69.8344C375.88 70.4383 375.88 71.4148 376.48 72.0187L380.836 76.4001C381.13 76.6957 381.526 76.8498 381.922 76.8498C382.318 76.8498 382.702 76.6957 383.008 76.4001C383.609 75.7962 383.609 74.8197 383.008 74.2158L381.271 72.4684H388.323C392.909 72.4684 396.626 76.2203 396.626 80.8201V85.9982C396.626 86.8462 397.316 87.5401 398.159 87.5401C399.003 87.5401 399.692 86.8462 399.692 85.9982V80.8201C399.692 74.5114 394.582 69.3847 388.31 69.3847Z" fill="#18A092"/>
<path d="M398.044 119.996C397.635 119.996 397.239 120.163 396.958 120.446C396.677 120.729 396.511 121.127 396.511 121.538C396.511 121.937 396.677 122.348 396.958 122.63C397.239 122.913 397.635 123.08 398.044 123.08C398.453 123.08 398.849 122.913 399.13 122.63C399.411 122.348 399.577 121.949 399.577 121.538C399.577 121.127 399.411 120.729 399.13 120.446C398.836 120.163 398.44 119.996 398.044 119.996Z" fill="#18A092"/>
<path d="M391.746 119.996C390.903 119.996 390.213 120.69 390.213 121.538C390.213 122.386 390.903 123.08 391.746 123.08C392.589 123.08 393.279 122.386 393.279 121.538C393.279 120.69 392.589 119.996 391.746 119.996Z" fill="#18A092"/>
<path d="M379.149 119.996C378.306 119.996 377.616 120.69 377.616 121.538C377.616 122.386 378.306 123.08 379.149 123.08C379.992 123.08 380.682 122.386 380.682 121.538C380.682 120.69 380.005 119.996 379.149 119.996Z" fill="#18A092"/>
<path d="M385.448 119.996C384.605 119.996 383.915 120.69 383.915 121.538C383.915 122.386 384.605 123.08 385.448 123.08C386.291 123.08 386.981 122.386 386.981 121.538C386.981 120.69 386.291 119.996 385.448 119.996Z" fill="#18A092"/>
<path d="M372.865 119.996C372.456 119.996 372.06 120.163 371.779 120.446C371.498 120.729 371.332 121.127 371.332 121.538C371.332 121.937 371.498 122.348 371.779 122.63C372.06 122.913 372.456 123.08 372.865 123.08C373.261 123.08 373.67 122.913 373.951 122.63C374.232 122.348 374.398 121.949 374.398 121.538C374.398 121.127 374.232 120.729 373.951 120.446C373.67 120.163 373.261 119.996 372.865 119.996Z" fill="#18A092"/>
<path d="M372.865 113.662C372.022 113.662 371.332 114.355 371.332 115.203C371.332 116.052 372.022 116.745 372.865 116.745C373.708 116.745 374.398 116.052 374.398 115.203C374.398 114.355 373.708 113.662 372.865 113.662Z" fill="#18A092"/>
<path d="M372.865 107.327C372.022 107.327 371.332 108.021 371.332 108.869C371.332 109.717 372.022 110.411 372.865 110.411C373.708 110.411 374.398 109.717 374.398 108.869C374.398 108.021 373.708 107.327 372.865 107.327Z" fill="#18A092"/>
<path d="M372.865 100.992C372.022 100.992 371.332 101.686 371.332 102.534C371.332 103.382 372.022 104.076 372.865 104.076C373.708 104.076 374.398 103.382 374.398 102.534C374.398 101.686 373.708 100.992 372.865 100.992Z" fill="#18A092"/>
<path d="M372.865 94.6709C372.456 94.6709 372.06 94.8379 371.779 95.1206C371.498 95.4033 371.332 95.8016 371.332 96.2128C371.332 96.6239 371.498 97.0223 371.779 97.3049C372.06 97.5876 372.456 97.7546 372.865 97.7546C373.261 97.7546 373.67 97.5876 373.951 97.3049C374.232 97.0223 374.398 96.6239 374.398 96.2128C374.398 95.8145 374.232 95.4033 373.951 95.1206C373.657 94.8251 373.261 94.6709 372.865 94.6709Z" fill="#18A092"/>
<path d="M391.746 94.6709C390.903 94.6709 390.213 95.3647 390.213 96.2128C390.213 97.0608 390.903 97.7546 391.746 97.7546C392.589 97.7546 393.279 97.0608 393.279 96.2128C393.279 95.3647 392.589 94.6709 391.746 94.6709Z" fill="#18A092"/>
<path d="M385.448 94.6709C384.605 94.6709 383.915 95.3647 383.915 96.2128C383.915 97.0608 384.605 97.7546 385.448 97.7546C386.291 97.7546 386.981 97.0608 386.981 96.2128C386.981 95.3647 386.291 94.6709 385.448 94.6709Z" fill="#18A092"/>
<path d="M379.149 94.6709C378.306 94.6709 377.616 95.3647 377.616 96.2128C377.616 97.0608 378.306 97.7546 379.149 97.7546C379.992 97.7546 380.682 97.0608 380.682 96.2128C380.682 95.3647 380.005 94.6709 379.149 94.6709Z" fill="#18A092"/>
<path d="M398.044 94.6709C397.635 94.6709 397.239 94.8379 396.958 95.1206C396.677 95.4033 396.511 95.8016 396.511 96.2128C396.511 96.6239 396.677 97.0223 396.958 97.3049C397.239 97.5876 397.635 97.7546 398.044 97.7546C398.453 97.7546 398.849 97.5876 399.13 97.3049C399.411 97.0223 399.577 96.6239 399.577 96.2128C399.577 95.8145 399.411 95.4033 399.13 95.1206C398.836 94.8379 398.44 94.6709 398.044 94.6709Z" fill="#18A092"/>
<path d="M398.044 100.992C397.201 100.992 396.511 101.686 396.511 102.534C396.511 103.382 397.201 104.076 398.044 104.076C398.887 104.076 399.577 103.382 399.577 102.534C399.577 101.686 398.887 100.992 398.044 100.992Z" fill="#18A092"/>
<path d="M398.044 113.662C397.201 113.662 396.511 114.355 396.511 115.203C396.511 116.052 397.201 116.745 398.044 116.745C398.887 116.745 399.577 116.052 399.577 115.203C399.577 114.355 398.887 113.662 398.044 113.662Z" fill="#18A092"/>
<path d="M398.044 107.327C397.201 107.327 396.511 108.021 396.511 108.869C396.511 109.717 397.201 110.411 398.044 110.411C398.887 110.411 399.577 109.717 399.577 108.869C399.577 108.021 398.887 107.327 398.044 107.327Z" fill="#18A092"/>
</g>
<rect x="70" y="163" width="171.701" height="131.742" rx="19" fill="#FBFFFE" stroke="#D9EFE8" stroke-width="2"/>
<path d="M91.9716 247.559L93.7601 245.521C92.888 244.746 92.3881 243.633 92.3878 242.463V194.892C92.3903 192.641 94.204 190.817 96.4419 190.814H164.01C166.248 190.817 168.062 192.641 168.064 194.892V242.463C168.062 244.713 166.248 246.537 164.01 246.54H141.037V249.258H164.01C167.74 249.254 170.763 246.214 170.767 242.463V194.892C170.763 191.14 167.74 188.1 164.01 188.096H96.4419C92.7119 188.1 89.6893 191.14 89.6851 194.892V242.463C89.6856 244.413 90.5182 246.269 91.9716 247.559Z" fill="#BFE5DF"/>
<path d="M96.4419 193.532H99.1446V196.251H96.4419V193.532Z" fill="#BFE5DF"/>
<path d="M101.848 193.532H104.55V196.251H101.848V193.532Z" fill="#BFE5DF"/>
<path d="M107.253 193.532H109.956V196.251H107.253V193.532Z" fill="#BFE5DF"/>
<path d="M96.4419 198.969H164.01V201.688H96.4419V198.969Z" fill="#BFE5DF"/>
<path d="M154.55 207.125C149.326 207.125 145.091 211.384 145.091 216.639C145.091 221.893 149.326 226.153 154.55 226.153C159.775 226.153 164.01 221.893 164.01 216.639C164.004 211.387 159.772 207.13 154.55 207.125ZM154.55 223.434C150.819 223.434 147.794 220.392 147.794 216.639C147.794 212.886 150.819 209.843 154.55 209.843C158.282 209.843 161.307 212.886 161.307 216.639C161.303 220.39 158.28 223.43 154.55 223.434Z" fill="#BFE5DF"/>
<path d="M157.649 212.959L153.199 217.434L151.452 215.677L149.541 217.599L152.244 220.318C152.771 220.848 153.627 220.848 154.155 220.318L159.56 214.881L157.649 212.959Z" fill="#BFE5DF"/>
<path d="M147.794 228.871H161.308V231.589H147.794V228.871Z" fill="#BFE5DF"/>
<path d="M147.794 234.308H161.308V237.026H147.794V234.308Z" fill="#BFE5DF"/>
<path d="M130.226 207.125C125.002 207.125 120.767 211.384 120.767 216.639C120.767 221.893 125.002 226.153 130.226 226.153C135.451 226.153 139.686 221.893 139.686 216.639C139.68 211.387 135.448 207.13 130.226 207.125ZM130.226 223.434C126.495 223.434 123.469 220.392 123.469 216.639C123.469 212.886 126.495 209.843 130.226 209.843C133.958 209.843 136.983 212.886 136.983 216.639C136.979 220.39 133.956 223.43 130.226 223.434Z" fill="#BFE5DF"/>
<path d="M133.324 212.959L128.875 217.434L127.127 215.677L125.216 217.599L127.919 220.318C128.447 220.848 129.302 220.848 129.83 220.318L135.236 214.881L133.324 212.959Z" fill="#BFE5DF"/>
<path d="M123.469 228.871H136.983V231.589H123.469V228.871Z" fill="#BFE5DF"/>
<path d="M123.469 234.308H136.983V237.026H123.469V234.308Z" fill="#BFE5DF"/>
<path d="M105.901 209.842C108.168 209.842 110.283 210.985 111.533 212.886L113.784 211.381C110.898 207.002 105.029 205.805 100.675 208.708C98.0309 210.47 96.4416 213.448 96.4419 216.638C96.4419 217.169 96.4856 217.699 96.5726 218.223L99.2382 217.773C99.1759 217.398 99.1446 217.018 99.1446 216.638C99.1488 212.887 102.172 209.847 105.901 209.842Z" fill="#BFE5DF"/>
<path d="M91.0364 269.646H128.875C129.092 269.646 129.305 269.593 129.498 269.492C133.634 268.857 137.422 266.293 139.197 262.85H146.442C146.801 262.85 147.145 262.707 147.398 262.452L149.145 260.694L150.892 262.452C151.146 262.707 151.489 262.85 151.848 262.85H154.55C154.909 262.85 155.253 262.707 155.506 262.452L157.253 260.694L159 262.452C159.254 262.707 159.597 262.85 159.956 262.85H162.659C163.111 262.85 163.532 262.623 163.783 262.245L166.486 258.167C166.788 257.711 166.788 257.116 166.486 256.659L163.783 252.582C163.532 252.204 163.111 251.977 162.659 251.977H139.197C137.141 247.991 132.39 245.181 127.523 245.181C125.118 245.178 122.767 245.897 120.77 247.245L119.846 246.875C119.719 246.825 119.594 246.768 119.474 246.702C119.463 246.696 119.452 246.691 119.441 246.685C116.983 245.429 116.004 242.406 117.254 239.935C117.45 239.547 117.696 239.186 117.985 238.861C119.777 236.868 120.768 234.276 120.766 231.589V226.547C120.766 222.207 118.326 218.201 114.554 216.344C113.228 215.684 111.775 215.321 110.296 215.279C108.896 215.231 107.5 215.463 106.189 215.961C105.073 216.37 104.035 216.97 103.123 217.736C100.612 219.802 99.1526 222.89 99.1446 226.152V231.589C99.1495 234.276 100.141 236.866 101.928 238.863C103.454 240.579 103.624 243.119 102.34 245.025C102.334 245.033 102.329 245.042 102.323 245.05C101.867 245.752 101.23 246.316 100.479 246.68C100.465 246.687 100.45 246.695 100.436 246.702C100.316 246.768 100.192 246.825 100.064 246.875L100.048 246.882L93.9223 249.343C91.3566 250.377 89.6773 252.88 89.6851 255.66V268.286C89.6851 269.037 90.2902 269.646 91.0364 269.646ZM127.523 247.899C131.607 247.899 135.716 250.456 137.082 253.845C137.288 254.359 137.784 254.695 138.334 254.695H161.936L163.737 257.413L161.936 260.131H160.516L158.209 257.811C157.681 257.28 156.826 257.28 156.298 257.811L153.991 260.131H152.407L150.101 257.811C149.573 257.28 148.717 257.28 148.189 257.811L145.883 260.131H138.334C137.784 260.131 137.288 260.468 137.082 260.981C135.716 264.371 131.607 266.927 127.523 266.927C122.299 266.927 118.064 262.668 118.064 257.413C118.064 252.159 122.299 247.899 127.523 247.899ZM92.3878 255.66C92.3827 253.991 93.39 252.488 94.9299 251.866L101.044 249.409C101.267 249.322 101.485 249.221 101.696 249.107C102.866 248.527 103.861 247.643 104.579 246.547C106.559 243.605 106.293 239.685 103.933 237.041C103.408 236.458 102.972 235.801 102.639 235.091C102.637 235.085 102.634 235.08 102.632 235.075C102.11 233.988 101.842 232.796 101.847 231.589V226.152C101.855 223.708 102.949 221.394 104.829 219.845C104.838 219.838 104.846 219.831 104.854 219.824C105.533 219.255 106.305 218.809 107.136 218.507C108.117 218.133 109.162 217.96 110.211 217.996C111.305 218.027 112.379 218.295 113.36 218.783C116.218 220.19 118.064 223.237 118.064 226.547V231.589C118.065 233.602 117.323 235.544 115.982 237.037C113.141 240.215 113.399 245.108 116.56 247.965C117.058 248.416 117.613 248.799 118.21 249.105C118.301 249.154 118.392 249.198 118.482 249.241C113.994 254.251 114.393 261.971 119.374 266.485C119.542 266.637 119.714 266.785 119.891 266.927H92.3878V255.66Z" fill="#BFE5DF"/>
<path d="M124.821 261.491C127.06 261.491 128.875 259.665 128.875 257.413C128.875 255.161 127.06 253.336 124.821 253.336C122.582 253.336 120.767 255.161 120.767 257.413C120.769 259.664 122.583 261.488 124.821 261.491ZM124.821 256.054C125.567 256.054 126.172 256.663 126.172 257.413C126.172 258.164 125.567 258.773 124.821 258.773C124.074 258.773 123.469 258.164 123.469 257.413C123.47 256.663 124.075 256.055 124.821 256.054Z" fill="#BFE5DF"/>
<path d="M212.119 254.173L208.447 250.073L209.022 244.585L203.653 243.442L200.915 238.657L195.902 240.91L190.89 238.657L188.151 243.442L182.783 244.585L183.358 250.073L179.686 254.173L183.358 258.273L182.783 263.762L188.151 264.905L190.89 269.69L195.902 267.437L200.915 269.69L203.653 264.905L209.022 263.762L208.447 258.273L212.119 254.173ZM202.701 250.602L194.561 259.774L188.904 254.085L190.25 252.732L194.482 256.989L201.281 249.328L202.701 250.602Z" fill="#9BD2C7"/>
<path fill-rule="evenodd" clip-rule="evenodd" d="M203.02 250.757L194.85 260.618L188.37 254.1L190.376 252.082L194.659 256.39L200.84 248.93L203.02 250.757Z" fill="white"/>
<line x1="304" y1="226" x2="304" y2="162" stroke="white" stroke-width="2"/>
<line x1="264" y1="225" x2="264" y2="209" stroke="white" stroke-width="2"/>
</g>
<defs>
<clipPath id="clip0">
<rect width="492.159" height="280" fill="white"/>
</clipPath>
</defs>
</svg>
