<svg width="56" height="56" viewBox="0 0 56 56" fill="none" xmlns="http://www.w3.org/2000/svg">
<rect width="56" height="56" rx="10" fill="#DAFFCC"/>
<path fill-rule="evenodd" clip-rule="evenodd" d="M32.8748 16.5264H36.1808C39.1214 16.5264 41.517 18.916 41.517 21.8566V24.2702C41.517 24.6655 41.1936 24.9889 40.7983 24.9889C40.403 24.9889 40.0796 24.6655 40.0796 24.2702V21.8566C40.0796 19.7126 38.3368 17.9638 36.1868 17.9638H32.8808L33.6953 18.7783C33.9768 19.0598 33.9768 19.5149 33.6953 19.7964C33.5516 19.9342 33.3719 20.006 33.1863 20.006C33.0006 20.006 32.8149 19.9342 32.6772 19.7964L30.6349 17.7542C30.3535 17.4727 30.3535 17.0175 30.6349 16.736L32.6712 14.6938C32.9527 14.4123 33.4079 14.4123 33.6893 14.6938C33.9708 14.9753 33.9708 15.4304 33.6893 15.7119L32.8748 16.5264ZM27.0594 14.4841H15.2551C14.8598 14.4841 14.5364 14.8075 14.5364 15.2028V27.0071C14.5364 27.4024 14.8598 27.7258 15.2551 27.7258H27.0594C27.4547 27.7258 27.7781 27.4024 27.7781 27.0071V15.2028C27.7781 14.8075 27.4607 14.4841 27.0594 14.4841ZM26.3407 26.2884H15.9738V15.9214H26.3407V26.2884ZM23.3222 36.2422C23.0407 35.9607 22.5856 35.9607 22.3041 36.2422C22.0226 36.5236 22.0226 36.9788 22.3041 37.2603L23.1186 38.0748H19.8126C17.6626 38.0748 15.9198 36.326 15.9198 34.1819V31.7684C15.9198 31.3731 15.5964 31.0497 15.2011 31.0497C14.8058 31.0497 14.4824 31.3731 14.4824 31.7684V34.1819C14.4824 37.1225 16.872 39.5122 19.8126 39.5122H23.1186L22.3041 40.3267C22.0226 40.6081 22.0226 41.0633 22.3041 41.3448C22.4418 41.4825 22.6275 41.5544 22.8131 41.5544C22.9988 41.5544 23.1785 41.4825 23.3222 41.3448L25.3645 39.3025C25.6459 39.0211 25.6459 38.5659 25.3645 38.2844L23.3222 36.2422ZM40.7442 40.1172C40.5525 40.1172 40.3669 40.1951 40.2351 40.3268C40.1034 40.4586 40.0255 40.6442 40.0255 40.8359C40.0255 41.0215 40.1034 41.2132 40.2351 41.345C40.3669 41.4767 40.5525 41.5546 40.7442 41.5546C40.9358 41.5546 41.1215 41.4767 41.2532 41.345C41.385 41.2132 41.4629 41.0275 41.4629 40.8359C41.4629 40.6442 41.385 40.4586 41.2532 40.3268C41.1155 40.1951 40.9298 40.1172 40.7442 40.1172ZM37.0728 40.8359C37.0728 40.4406 37.3962 40.1172 37.7915 40.1172C38.1868 40.1172 38.5102 40.4406 38.5102 40.8359C38.5102 41.2312 38.1868 41.5546 37.7915 41.5546C37.3962 41.5546 37.0728 41.2312 37.0728 40.8359ZM31.8862 40.1172C31.4909 40.1172 31.1675 40.4406 31.1675 40.8359C31.1675 41.2312 31.4909 41.5546 31.8862 41.5546C32.2815 41.5546 32.6049 41.2312 32.6049 40.8359C32.6049 40.4406 32.2875 40.1172 31.8862 40.1172ZM34.1204 40.8359C34.1204 40.4406 34.4438 40.1172 34.8391 40.1172C35.2344 40.1172 35.5578 40.4406 35.5578 40.8359C35.5578 41.2312 35.2344 41.5546 34.8391 41.5546C34.4438 41.5546 34.1204 41.2312 34.1204 40.8359ZM28.9399 40.1172C28.7483 40.1172 28.5626 40.1951 28.4309 40.3268C28.2991 40.4586 28.2212 40.6442 28.2212 40.8359C28.2212 41.0215 28.2991 41.2132 28.4309 41.345C28.5626 41.4767 28.7483 41.5546 28.9399 41.5546C29.1256 41.5546 29.3172 41.4767 29.449 41.345C29.5808 41.2132 29.6586 41.0275 29.6586 40.8359C29.6586 40.6442 29.5808 40.4586 29.449 40.3268C29.3172 40.1951 29.1255 40.1172 28.9399 40.1172ZM28.2212 37.8832C28.2212 37.4879 28.5447 37.1645 28.9399 37.1645C29.3351 37.1645 29.6586 37.4879 29.6586 37.8832C29.6586 38.2785 29.3352 38.6019 28.9399 38.6019C28.5447 38.6019 28.2212 38.2785 28.2212 37.8832ZM28.9399 34.2119C28.5447 34.2119 28.2212 34.5353 28.2212 34.9306C28.2212 35.3259 28.5447 35.6493 28.9399 35.6493C29.3352 35.6493 29.6586 35.3259 29.6586 34.9306C29.6586 34.5353 29.3351 34.2119 28.9399 34.2119ZM28.2212 31.9779C28.2212 31.5826 28.5447 31.2592 28.9399 31.2592C29.3351 31.2592 29.6586 31.5826 29.6586 31.9779C29.6586 32.3732 29.3352 32.6966 28.9399 32.6966C28.5447 32.6966 28.2212 32.3732 28.2212 31.9779ZM28.9399 28.3127C28.7483 28.3127 28.5626 28.3906 28.4309 28.5223C28.2991 28.6541 28.2212 28.8397 28.2212 29.0314C28.2212 29.223 28.2991 29.4087 28.4309 29.5405C28.5626 29.6722 28.7483 29.7501 28.9399 29.7501C29.1256 29.7501 29.3172 29.6722 29.449 29.5405C29.5808 29.4087 29.6586 29.223 29.6586 29.0314C29.6586 28.8457 29.5808 28.6541 29.449 28.5223C29.3112 28.3846 29.1255 28.3127 28.9399 28.3127ZM37.0728 29.0314C37.0728 28.6361 37.3962 28.3127 37.7915 28.3127C38.1868 28.3127 38.5102 28.6361 38.5102 29.0314C38.5102 29.4267 38.1868 29.7501 37.7915 29.7501C37.3962 29.7501 37.0728 29.4267 37.0728 29.0314ZM34.8391 28.3127C34.4438 28.3127 34.1204 28.6361 34.1204 29.0314C34.1204 29.4267 34.4438 29.7501 34.8391 29.7501C35.2344 29.7501 35.5578 29.4267 35.5578 29.0314C35.5578 28.6361 35.2344 28.3127 34.8391 28.3127ZM31.1675 29.0314C31.1675 28.6361 31.4909 28.3127 31.8862 28.3127C32.2875 28.3127 32.6049 28.6361 32.6049 29.0314C32.6049 29.4267 32.2815 29.7501 31.8862 29.7501C31.4909 29.7501 31.1675 29.4267 31.1675 29.0314ZM40.7442 28.3127C40.5525 28.3127 40.3669 28.3906 40.2351 28.5223C40.1034 28.6541 40.0255 28.8397 40.0255 29.0314C40.0255 29.223 40.1034 29.4087 40.2351 29.5405C40.3669 29.6722 40.5525 29.7501 40.7442 29.7501C40.9358 29.7501 41.1215 29.6722 41.2532 29.5405C41.385 29.4087 41.4629 29.223 41.4629 29.0314C41.4629 28.8457 41.385 28.6541 41.2532 28.5223C41.1155 28.3906 40.9298 28.3127 40.7442 28.3127ZM40.0255 31.9779C40.0255 31.5826 40.3489 31.2592 40.7442 31.2592C41.1395 31.2592 41.4629 31.5826 41.4629 31.9779C41.4629 32.3732 41.1395 32.6966 40.7442 32.6966C40.3489 32.6966 40.0255 32.3732 40.0255 31.9779ZM40.7442 37.1645C40.3489 37.1645 40.0255 37.4879 40.0255 37.8832C40.0255 38.2785 40.3489 38.6019 40.7442 38.6019C41.1395 38.6019 41.4629 38.2785 41.4629 37.8832C41.4629 37.4879 41.1395 37.1645 40.7442 37.1645ZM40.0255 34.9306C40.0255 34.5353 40.3489 34.2119 40.7442 34.2119C41.1395 34.2119 41.4629 34.5353 41.4629 34.9306C41.4629 35.3259 41.1395 35.6493 40.7442 35.6493C40.3489 35.6493 40.0255 35.3259 40.0255 34.9306Z" fill="#3DC794"/>
</svg>
