<svg width="102" height="29" viewBox="0 0 102 29" fill="none" xmlns="http://www.w3.org/2000/svg">
<g clip-path="url(#clip0)">
<path d="M101.205 15.4763C100.744 16.1435 100.151 16.7032 99.4494 17.1337C98.4402 17.7579 97.2555 18.0807 96.0488 18.0592C95.8295 18.0592 95.6101 18.0592 95.3907 18.0162C95.1713 17.9946 94.9738 17.9731 94.7544 17.9301C94.2279 17.8224 93.7233 17.6502 93.2407 17.435C93.0213 17.3274 92.8238 17.2198 92.6044 17.0906C91.7049 16.531 90.9371 15.7561 90.4105 14.8305C88.7212 11.9032 89.6865 8.17948 92.6044 6.39295C92.8019 6.2638 93.0213 6.15618 93.2407 6.04856C93.7233 5.83331 94.2279 5.66112 94.7325 5.5535C94.9738 5.51045 95.1713 5.48892 95.3687 5.4674C95.5881 5.44587 95.8075 5.42435 96.0269 5.42435C97.2336 5.40283 98.3963 5.72569 99.4275 6.3499C100.13 6.78039 100.722 7.34003 101.183 8.00729L100.634 8.52387C100.459 8.69607 100.349 8.80369 100.173 8.97589C100.064 9.12656 99.8882 9.23418 99.6907 9.25571C99.4494 9.25571 99.1861 9.04046 98.8571 8.78217C98.4841 8.48082 98.0892 8.22253 97.6504 8.02881C97.1897 7.83509 96.6851 7.72747 96.1805 7.74899H96.1366C93.9208 7.77052 92.0998 9.53552 92.0998 11.7095C92.0998 11.731 92.0998 11.7525 92.0998 11.7525C92.0998 11.7741 92.0998 11.7956 92.0998 11.7956C92.0998 13.9911 93.9208 15.7561 96.1366 15.7561H96.1805C96.6851 15.7561 97.1897 15.67 97.6504 15.4763C98.0892 15.2826 98.4841 15.0243 98.8132 14.7014C99.1203 14.4431 99.3617 14.2279 99.603 14.2279C99.8224 14.2494 100.042 14.3785 100.173 14.5507C100.327 14.7014 100.415 14.7875 100.546 14.9166C100.678 15.0458 100.897 15.1965 101.205 15.4763Z" fill="white"/>
<path d="M88.4581 0.968602C88.5459 1.16232 88.5898 1.37757 88.5898 1.59281C88.5898 1.80806 88.5459 2.00178 88.4581 2.1955C88.3704 2.38922 88.2607 2.53989 88.1071 2.69056C87.7999 2.9919 87.3831 3.1641 86.9443 3.1641C86.5275 3.1641 86.1326 2.9919 85.8254 2.69056C85.6719 2.53989 85.5622 2.38922 85.4744 2.1955C85.3867 2.00178 85.3428 1.80806 85.3428 1.59281C85.3428 1.37757 85.3867 1.16232 85.4744 0.968602C85.5622 0.774881 85.6719 0.62421 85.8254 0.473539C86.1326 0.172196 86.5275 0.0215245 86.9443 0C87.1637 0 87.3831 0.043049 87.5806 0.129147C87.778 0.215245 87.9535 0.322867 88.1071 0.452014C88.2607 0.602685 88.3923 0.774881 88.4581 0.968602Z" fill="white"/>
<path d="M88.283 6.37132V17.9945H85.6064V5.72559H87.6248C87.9759 5.72559 88.283 6.0054 88.283 6.37132Z" fill="white"/>
<path d="M83.456 15.8204L84.2678 17.1334C83.8729 17.4347 83.4121 17.6715 82.9295 17.8222C82.3591 17.9944 81.7667 18.102 81.1743 18.102C80.1213 18.102 79.3095 17.8007 78.7391 17.241C78.1687 16.6814 77.8835 15.8419 77.8835 14.8088V7.49043H76.3478C76.2381 7.49043 76.1503 7.4689 76.0626 7.3828C75.9748 7.29671 75.9309 7.16756 75.9529 7.05994V6.02676L78.0151 5.7039L78.6952 2.08778C78.7172 1.98016 78.7611 1.89406 78.8488 1.82949C78.9366 1.76492 79.0682 1.72187 79.1779 1.74339H80.582V5.74694H83.9825V7.01689C83.9825 7.27518 83.7632 7.49043 83.4999 7.49043H83.4779L80.5601 7.81329V14.572C80.5381 14.9594 80.6697 15.3469 80.9111 15.6482C81.1524 15.928 81.5254 16.0787 81.8764 16.0572C82.0739 16.0572 82.2494 16.0356 82.4249 15.9711C82.5565 15.928 82.6662 15.885 82.7978 15.8204C82.9075 15.7774 82.9953 15.7128 83.0611 15.6697C83.105 15.6482 83.1269 15.6267 83.1708 15.6267C83.1927 15.6267 83.2366 15.6267 83.2586 15.6482C83.3683 15.7128 83.4121 15.7774 83.456 15.8204Z" fill="white"/>
<path d="M74.7241 12.8718C74.8996 13.2592 74.9874 13.6682 74.9655 14.0986C74.9655 14.6583 74.8558 15.1964 74.6364 15.713C74.417 16.208 74.1098 16.6385 73.693 16.9829C73.2323 17.3488 72.7277 17.6502 72.1572 17.8224C71.4552 18.0376 70.7312 18.1453 70.0072 18.1237C69.5904 18.1237 69.1516 18.0807 68.7348 18.0161C68.3399 17.9515 67.923 17.8439 67.55 17.6932C67.1771 17.5641 66.8261 17.4134 66.497 17.2197C66.2556 17.069 66.0143 16.9184 65.7949 16.7462L66.4092 15.7345C66.475 15.6269 66.5628 15.5408 66.6505 15.4977C66.7602 15.4332 66.8919 15.4116 67.0235 15.4116C67.1771 15.4116 67.3307 15.4547 67.4623 15.5408C67.6159 15.6484 67.8133 15.756 68.0766 15.9067C68.3399 16.0574 68.6251 16.165 68.9103 16.2726C69.3052 16.4018 69.722 16.4663 70.1389 16.4448C70.4899 16.4448 70.8409 16.4018 71.17 16.2941C71.4333 16.208 71.6746 16.0789 71.894 15.9067C72.0914 15.756 72.245 15.5623 72.3328 15.3471C72.4205 15.1318 72.4644 14.9166 72.4644 14.6798C72.4863 14.3569 72.3547 14.0341 72.1353 13.7973C71.9159 13.5605 71.6527 13.3883 71.3455 13.2592C70.9945 13.1085 70.6435 12.9794 70.2924 12.8718C69.8975 12.7641 69.5026 12.635 69.1297 12.5058C68.7348 12.3767 68.3618 12.226 67.9888 12.0538C67.6378 11.8816 67.3087 11.6664 67.0235 11.4081C66.7383 11.1498 66.5189 10.8269 66.3653 10.4825C66.2776 10.2888 66.2118 10.0951 66.1679 9.87985C66.124 9.64308 66.1021 9.38479 66.1021 9.14802C66.1021 8.67448 66.2118 8.20094 66.4092 7.74893C66.6067 7.29691 66.9138 6.90947 67.2868 6.5866C67.7256 6.24221 68.2082 5.96239 68.7348 5.7902C70.1827 5.35971 71.7185 5.40276 73.1445 5.89782C73.7369 6.13459 74.2853 6.45746 74.768 6.86642L74.1537 7.8135C74.1098 7.8996 74.044 7.96417 73.9563 8.02874C73.8904 8.07179 73.8027 8.07179 73.7149 8.07179C73.5833 8.07179 73.4517 8.02874 73.32 7.96417L73.0129 7.8135L72.7057 7.68435C72.4425 7.57673 72.1792 7.46911 71.894 7.40453C71.543 7.31844 71.17 7.27539 70.797 7.27539C70.2266 7.25386 69.6781 7.40453 69.2174 7.70588C68.8225 7.96417 68.5812 8.41619 68.6031 8.88972C68.6031 9.19107 68.7128 9.49241 68.9322 9.72918C69.1516 9.94442 69.4368 10.1381 69.722 10.2673C70.073 10.418 70.4241 10.5471 70.7751 10.6547C71.17 10.7624 71.543 10.8915 71.9159 11.0206C72.3108 11.1498 72.6838 11.3005 73.0568 11.4727C73.4078 11.6233 73.7369 11.8386 74.0221 12.0753C74.3512 12.2475 74.5705 12.5489 74.7241 12.8718Z" fill="white"/>
<path d="M64.9399 10.9774C64.9399 11.1711 64.9399 11.3433 64.918 11.537C64.918 11.6447 64.8741 11.7308 64.8302 11.8169C64.8083 11.8599 64.7644 11.9029 64.6986 11.9245C64.6109 11.946 64.5231 11.9675 64.4353 11.9675H56.2082L56.2301 12.2043C56.3179 13.5603 56.7128 14.572 57.371 15.2177C58.0292 15.8635 58.9067 16.2078 60.0037 16.2078C60.4644 16.2078 60.9251 16.1433 61.3858 16.0141C61.7149 15.9065 62.0659 15.7774 62.3731 15.6267C62.6363 15.4975 62.8996 15.3684 63.0971 15.2392C63.2506 15.1531 63.4042 15.0886 63.5797 15.0886C63.6455 15.0886 63.7333 15.1101 63.7991 15.1316C63.8649 15.1747 63.9307 15.2177 63.9746 15.2823L64.7644 16.2724C64.4792 16.5953 64.1501 16.8536 63.7772 17.0903C63.3603 17.3486 62.9435 17.5639 62.4828 17.7146C62.022 17.8652 61.5613 17.9728 61.1006 18.0374C60.6399 18.102 60.1792 18.1235 59.7185 18.1235C58.8848 18.1235 58.073 17.9728 57.2832 17.693C56.5592 17.4132 55.8791 16.9827 55.3307 16.4446C54.7602 15.8635 54.3215 15.1531 54.0363 14.3998C53.7072 13.4742 53.5317 12.5056 53.5536 11.537C53.5536 10.7191 53.6852 9.9227 53.9704 9.14782C54.2337 8.43751 54.6286 7.79178 55.1551 7.23214C55.6817 6.6725 56.3179 6.24201 57.0419 5.94067C57.8317 5.6178 58.6873 5.44561 59.5649 5.46713C60.3108 5.46713 61.0348 5.57476 61.7368 5.83305C62.3731 6.06982 62.9435 6.43573 63.4261 6.90927C63.9088 7.40434 64.3037 7.9855 64.545 8.65275C64.7206 9.10477 64.8302 9.57831 64.8961 10.0734C64.918 10.3317 64.9399 10.6545 64.9399 10.9774ZM62.5705 10.5039V10.2886C62.5705 9.87965 62.5047 9.49221 62.395 9.10477C62.2853 8.73885 62.1098 8.39446 61.8465 8.11464C61.5833 7.8133 61.2761 7.59806 60.9032 7.42586C60.4863 7.25366 60.0475 7.16757 59.5868 7.16757C58.6215 7.16757 57.8536 7.44738 57.3052 7.9855C56.7567 8.52361 56.4057 9.27696 56.2521 10.2456L56.2082 10.5039H62.5705Z" fill="white"/>
<path d="M52.5439 21.0079C52.2587 20.8573 51.9735 20.7281 51.6663 20.599C51.0959 20.3837 50.5036 20.19 49.9112 20.0393C48.8582 19.8026 47.8051 19.6304 46.7301 19.5443C46.3352 19.5012 45.9183 19.5012 45.5234 19.4797C44.8872 19.4582 44.2729 19.4151 43.6367 19.329C43.0662 19.2429 42.5178 19.0922 41.9693 18.8985C41.728 18.8124 41.5086 18.7263 41.2892 18.5972C41.1575 18.5326 41.0479 18.4465 40.9382 18.3604L40.8504 18.2958C40.7407 18.2097 40.653 18.1021 40.5652 17.9945C40.3458 17.6286 40.2361 17.1981 40.258 16.7676C40.258 16.5524 40.3019 16.3371 40.3677 16.1219C40.4555 15.8851 40.5652 15.6699 40.7188 15.4546C40.8943 15.2178 41.0917 15.0026 41.3111 14.8304C41.5744 14.6152 41.8596 14.443 42.1448 14.2923L42.5178 14.0986L42.1448 13.9048C41.4208 13.5389 40.8285 13.0008 40.3897 12.3336C39.9509 11.6448 39.7315 10.8484 39.7535 10.0304C39.7315 8.69592 40.3458 7.4475 41.3989 6.62957C41.9474 6.19908 42.5836 5.87621 43.2637 5.68249C44.0316 5.44572 44.8433 5.3381 45.6331 5.35962C46.2474 5.35962 46.8617 5.4242 47.4541 5.55334C47.9806 5.68249 48.5071 5.87621 48.9898 6.11298L49.0337 6.13451H53.2898V7.2753C53.3118 7.40445 53.2679 7.55512 53.1801 7.66274C53.0485 7.79189 52.873 7.85646 52.6755 7.87799L51.0301 8.17933L51.1179 8.4161C51.2056 8.67439 51.2934 8.93269 51.3373 9.19098C51.3811 9.4708 51.425 9.77214 51.425 10.052C51.447 11.365 50.8327 12.6349 49.7796 13.4528C49.2311 13.8833 48.6168 14.1847 47.9367 14.3999C47.1908 14.6367 46.401 14.7443 45.6112 14.7443C45.0627 14.7443 44.4923 14.7013 43.9657 14.5936L43.878 14.5721L43.8122 14.6152C43.2637 14.938 42.9785 15.3255 42.9785 15.7559C42.9785 16.1219 43.1759 16.4663 43.527 16.6169C43.8999 16.7891 44.3168 16.8967 44.7336 16.9398C45.2601 17.0044 45.8086 17.0259 46.3571 17.0259C46.9933 17.0259 47.5857 17.0474 48.1561 17.0905C48.7704 17.1335 49.3627 17.2196 49.9551 17.3488C50.4816 17.4564 51.0082 17.6501 51.4689 17.9084C51.9077 18.1667 52.2587 18.5111 52.522 18.9201C52.8072 19.4366 52.9388 19.9963 52.9169 20.5774C52.9169 20.7927 52.8949 20.9864 52.873 21.2016C52.873 21.2232 52.873 21.2447 52.873 21.2662C52.8291 21.2232 52.7633 21.1801 52.7414 21.1586C52.6755 21.0725 52.6097 21.0295 52.5439 21.0079ZM48.4194 11.1928C48.551 10.8484 48.6168 10.4825 48.5949 10.1165C48.6388 9.40623 48.3536 8.69592 47.849 8.17933C47.3444 7.70579 46.6204 7.46902 45.6331 7.46902C44.6459 7.46902 43.9219 7.70579 43.4392 8.17933C42.9346 8.69592 42.6494 9.40623 42.6933 10.1165C42.6933 10.4825 42.7591 10.8484 42.8907 11.1928C43.0004 11.5156 43.1979 11.817 43.4612 12.0537C43.7244 12.312 44.0535 12.5058 44.4045 12.6134C44.8214 12.7425 45.2382 12.8286 45.677 12.8071C46.1158 12.8071 46.5546 12.7425 46.9495 12.6134C47.3005 12.5058 47.6076 12.312 47.8709 12.0537C48.1122 11.817 48.3097 11.5156 48.4194 11.1928Z" fill="white"/>
<path d="M38.108 21.0081C37.8228 20.8574 37.5376 20.7283 37.2524 20.5991C36.682 20.3839 36.0896 20.1902 35.4753 20.0395C34.4223 19.8027 33.3692 19.6305 32.2942 19.5444C31.8993 19.5014 31.5044 19.5014 31.1095 19.4799C30.4732 19.4583 29.837 19.4153 29.2227 19.3292C28.6523 19.2431 28.0819 19.0924 27.5553 18.8987C27.314 18.8126 27.0946 18.7265 26.8752 18.5973C26.7655 18.5328 26.6339 18.4467 26.5461 18.3606L26.5023 18.3175C26.3706 18.2099 26.2609 18.1023 26.1732 17.9731C25.9538 17.6072 25.8441 17.1767 25.866 16.7462C25.866 16.531 25.9099 16.3158 25.9757 16.1005C26.0635 15.8637 26.1732 15.6485 26.3268 15.4332C26.5023 15.1965 26.6997 14.9812 26.9191 14.809C27.1824 14.5938 27.4676 14.4216 27.7528 14.2709L28.1258 14.0772L27.7528 13.8835C27.0288 13.5176 26.4365 12.9795 25.9977 12.3122C25.5589 11.6234 25.3395 10.827 25.3614 10.0091C25.3395 9.34182 25.4931 8.67456 25.8002 8.07188C26.0854 7.49072 26.5023 6.99565 27.0069 6.60821C27.5553 6.17772 28.1916 5.85486 28.8717 5.66113C29.6396 5.44589 30.4513 5.31674 31.2411 5.33827C31.8554 5.33827 32.4697 5.40284 33.062 5.53199C33.5886 5.66114 34.1151 5.83333 34.5978 6.09162L34.6417 6.11315H38.9198V7.25395C38.9198 7.38309 38.8759 7.53376 38.7881 7.64139C38.6565 7.74901 38.481 7.83511 38.3055 7.83511L36.6601 8.13645L36.7478 8.37322C36.8356 8.63151 36.9233 8.88981 36.9672 9.1481C37.0111 9.42792 37.033 9.72926 37.055 10.0091C37.055 10.6763 36.9233 11.3436 36.6162 11.9463C36.331 12.5274 35.9141 13.0225 35.4095 13.4099C34.861 13.8404 34.2468 14.1418 33.5886 14.357C32.8427 14.5938 32.0529 14.7014 31.263 14.7014C30.7146 14.7014 30.1442 14.6584 29.5957 14.5507L29.5079 14.5292L29.4421 14.5723C28.8936 14.8951 28.6084 15.2826 28.6084 15.7131C28.6084 16.079 28.8059 16.4234 29.1569 16.574C29.5299 16.7462 29.9467 16.8539 30.3635 16.8969C30.8901 16.9615 31.4386 16.983 31.987 16.983C32.5794 16.983 33.1717 17.0045 33.786 17.0476C34.4003 17.0906 34.9927 17.1767 35.585 17.3059C36.1116 17.4135 36.6381 17.6072 37.0988 17.8655C37.5376 18.1238 37.8886 18.4682 38.1519 18.8772C38.4371 19.3938 38.5688 19.9534 38.5468 20.5346C38.5468 20.7498 38.5249 20.965 38.5029 21.1588C38.5029 21.1803 38.5029 21.2018 38.5029 21.2233C38.4591 21.1803 38.3932 21.1372 38.3713 21.1157C38.2616 21.0727 38.1738 21.0296 38.108 21.0081ZM34.1809 10.1167C34.2248 9.40639 33.9396 8.69609 33.435 8.1795C32.9304 7.70596 32.1845 7.46919 31.2192 7.46919C30.2538 7.46919 29.5079 7.70596 29.0033 8.1795C28.4987 8.69609 28.2135 9.40639 28.2574 10.1167C28.2574 10.4826 28.3232 10.8485 28.4329 11.1714C28.6742 11.8387 29.2446 12.3768 29.9248 12.6135C30.7584 12.8718 31.6579 12.8718 32.4697 12.6135C32.8207 12.4844 33.1279 12.3122 33.3911 12.0539C33.6325 11.8171 33.8299 11.5158 33.9615 11.1929C34.1371 10.8485 34.2029 10.4826 34.1809 10.1167Z" fill="white"/>
<path d="M24.0229 6.24189V17.9082H22.3336C22.0703 17.9297 21.829 17.779 21.7413 17.5207L21.4341 16.1216L21.1489 16.4014C20.8856 16.6597 20.6224 16.8965 20.3372 17.1117C19.4815 17.779 18.4065 18.1234 17.3096 18.1019C16.6953 18.1019 16.081 17.9943 15.5325 17.779C15.0279 17.5638 14.5891 17.2409 14.2381 16.8319C13.8871 16.4014 13.6019 15.9064 13.4483 15.3683C13.2508 14.7656 13.1631 14.1198 13.1631 13.4741V5.61768H15.2473C15.5764 5.61768 15.8396 5.87597 15.8396 6.19884V13.4741C15.8396 14.292 16.0371 14.9593 16.4539 15.4113C16.8708 15.8633 17.4631 16.1216 18.2749 16.1216C18.8453 16.1216 19.3938 15.9925 19.8984 15.7342C20.4249 15.4759 20.8856 15.1315 21.3025 14.7225L21.3683 14.658V5.61768H23.4306C23.7377 5.61768 24.0229 5.89749 24.0229 6.24189Z" fill="white"/>
<path d="M11.4961 10.6978C11.7374 11.2789 11.8471 11.8816 11.8251 12.5058C11.8251 13.2592 11.6935 13.991 11.4083 14.7013C11.145 15.3686 10.7501 15.9713 10.2236 16.4663C9.67512 16.9829 9.01695 17.3919 8.3149 17.6502C7.48121 17.9515 6.60365 18.1022 5.70415 18.0807C5.13374 18.0807 4.58526 18.0376 4.03678 17.9085C3.48831 17.8009 2.96177 17.6502 2.45717 17.4349C1.97451 17.2412 1.49186 17.0045 1.05307 16.7031C0.68011 16.5094 0.329086 16.2296 0 15.9282L0.877562 14.4861C0.943379 14.4 1.05307 14.3354 1.14083 14.2708C1.22859 14.2063 1.36022 14.1847 1.46992 14.1847C1.66737 14.2063 1.86482 14.2708 2.01839 14.4C2.23778 14.5507 2.50105 14.7229 2.89595 14.9812C3.29086 15.2179 3.68576 15.4116 4.1026 15.5623C4.65108 15.756 5.22149 15.8421 5.81385 15.8206C6.82304 15.8206 7.63479 15.5838 8.2052 15.0888C8.77562 14.5937 9.08276 13.8834 9.08276 12.9794C9.1047 12.5058 8.95113 12.0538 8.66592 11.6879C8.38072 11.3435 8.02969 11.0852 7.63479 10.87C7.19601 10.6547 6.71335 10.461 6.23069 10.3534C5.70415 10.2027 5.19955 10.052 4.69496 9.90138C4.16842 9.72918 3.66382 9.53546 3.18116 9.32021C2.6985 9.10497 2.25972 8.82515 1.88676 8.45924C1.49186 8.09332 1.18471 7.64131 0.987257 7.14624C0.767867 6.52203 0.658171 5.83325 0.68011 5.16599C0.68011 3.87452 1.22859 2.64763 2.17197 1.76512C2.6985 1.29159 3.3128 0.904145 3.97097 0.667376C4.76077 0.366033 5.59446 0.215362 6.42814 0.236886C7.4154 0.236886 8.40265 0.387558 9.32409 0.731949C10.1139 1.01177 10.8379 1.42073 11.4522 1.95884L10.6843 3.37946C10.6404 3.50861 10.5527 3.5947 10.443 3.6808C10.3552 3.74538 10.2455 3.7669 10.1358 3.7669C9.98227 3.74538 9.80675 3.70233 9.67512 3.61623C9.45573 3.48708 9.2144 3.33641 8.92919 3.18574C8.60011 3.01354 8.24908 2.86287 7.89806 2.73373C7.43734 2.58305 6.95468 2.51848 6.47202 2.51848C6.03324 2.51848 5.59446 2.56153 5.17761 2.69068C4.82659 2.7983 4.4975 2.97049 4.2123 3.18574C3.94903 3.40098 3.75158 3.6808 3.61994 3.98214C3.48831 4.30501 3.42249 4.62788 3.42249 4.97227C3.40055 5.40276 3.55413 5.83325 3.83933 6.15612C4.12454 6.47898 4.47557 6.73728 4.84853 6.931C5.28731 7.14624 5.76997 7.33996 6.23069 7.46911C6.69141 7.61978 7.19601 7.77045 7.76642 7.96417C8.29296 8.13637 8.79756 8.35161 9.30216 8.56686C9.78481 8.7821 10.2017 9.08345 10.5966 9.42784C10.9915 9.79375 11.2767 10.2242 11.4961 10.6978Z" fill="white"/>
<path d="M39.3365 28.9718C31.8991 29.0149 24.6154 26.9055 18.3847 22.9449C17.924 22.6651 17.7704 22.084 18.0337 21.6104C18.2969 21.1369 18.9112 21.0077 19.3939 21.266C19.4158 21.2876 19.4378 21.2876 19.4597 21.3091C25.3613 25.0759 32.2721 27.0561 39.3145 27.0131C46.5105 27.0131 53.3555 25.0328 59.1694 21.3091C59.6301 21.0077 60.2444 21.1369 60.5296 21.5889C60.8367 22.0409 60.7051 22.6436 60.2444 22.9234C54.1453 26.8839 46.9054 28.9718 39.3365 28.9718Z" fill="white"/>
</g>
<defs>
<clipPath id="clip0">
<rect width="101.205" height="28.972" fill="white"/>
</clipPath>
</defs>
</svg>
