<svg width="48" height="48" viewBox="0 0 48 48" fill="none" xmlns="http://www.w3.org/2000/svg">
<path fill-rule="evenodd" clip-rule="evenodd" d="M19.0793 0.356338C18.8726 0.605306 18.8332 1.81538 18.9117 5.49087C19.0267 10.8624 19.0115 10.9456 17.5759 12.8062C16.228 14.5535 16.0078 15.3783 15.9878 18.7568C15.9782 20.3796 15.9181 21.7077 15.8543 21.7079C15.7906 21.7079 15.6118 20.8629 15.4571 19.8301C15.1083 17.5023 14.6567 16.4324 13.6497 15.5481C12.7676 14.7737 11.7605 14.5117 10.3893 14.6995C9.48806 14.8231 9.4505 14.8051 9.31442 14.1859C9.23694 13.833 9.24145 12.8213 9.32408 11.9374C9.43247 10.7817 9.40006 10.2406 9.20861 10.0099C8.9017 9.64005 8.78708 9.62331 8.37028 9.88709C8.16209 10.0189 8.02816 10.7037 7.94102 12.0838L7.81439 14.0889L6.77109 11.0841C5.64344 7.83589 5.48955 7.54271 4.9137 7.54271C4.20393 7.54271 4.26681 8.22909 5.23092 11.0004C5.76041 12.5219 6.15682 13.7669 6.11218 13.7669C6.06754 13.7669 5.78273 13.3434 5.47946 12.826C4.86262 11.7737 3.01854 10.0184 2.34418 9.84223C1.8162 9.70401 1.23713 10.2168 1.41077 10.669C1.47902 10.8469 1.80525 11.1324 2.13578 11.3032C2.46609 11.4743 3.0722 12.0259 3.48235 12.5294C4.22196 13.4372 5.77371 15.8937 5.77479 16.1583C5.77522 16.2338 5.54149 16.3547 5.25539 16.4264C4.45719 16.6268 3.3965 17.6248 2.95952 18.5872C2.28902 20.063 2.42338 20.8168 3.84378 23.5498C4.55205 24.9127 5.13155 26.0606 5.13155 26.1009C5.13155 26.141 4.21659 26.2074 3.09817 26.2481C0.633385 26.3385 0.194902 26.6345 0.0330725 28.3187C-0.168677 30.4196 0.546891 31.3664 2.3371 31.3664C2.94643 31.3664 3.20054 31.4675 3.2806 31.742C3.34091 31.9487 4.07451 35.2565 4.9107 39.093C6.45644 46.184 6.62879 46.6908 7.78971 47.5574C8.37457 47.994 8.57374 48 22.731 48C36.8883 48 37.0874 47.994 37.6723 47.5574C38.8369 46.688 39.0071 46.1883 40.553 39.093C41.389 35.2565 42.1222 31.9487 42.1821 31.742C42.2617 31.4675 42.5154 31.3664 43.1249 31.3664C44.9151 31.3664 45.6307 30.4196 45.4289 28.3187C45.2673 26.6368 44.8271 26.3383 42.3774 26.2488L40.3577 26.1747L40.2903 22.4653L40.2231 18.7559L39.3646 17.1263L38.5061 15.4966L38.989 15.1562C39.3966 14.8688 39.472 14.6186 39.472 13.5523C39.472 11.5968 39.5496 11.6206 33.1999 11.6206C28.1682 11.6206 27.8589 11.6438 27.4528 12.0499C27.1837 12.319 27.0236 12.7652 27.0236 13.2469V14.0144L26.2266 12.9786C24.6657 10.9491 24.6955 11.1053 24.8247 5.61729C24.9144 1.80722 24.879 0.613248 24.6682 0.359343C24.272 -0.117988 19.4751 -0.120564 19.0793 0.356338ZM23.5895 4.43061V7.32808H21.8725H20.1555V4.43061V1.53314H21.8725H23.5895V4.43061ZM23.1603 9.46685C23.1603 10.4936 23.7876 12.0769 24.6517 13.2316C25.9596 14.9789 26.2159 15.6325 26.2455 17.2956L26.2724 18.8107L23.2676 18.8658C19.3317 18.9381 19.5116 18.7392 19.5116 23.0197V26.2153H18.4385H17.3653L17.3748 21.2252C17.3853 15.6389 17.4366 15.3652 18.8196 13.5336C19.8672 12.146 20.2729 11.2468 20.4813 9.84996L20.6335 8.83048H21.897C23.1542 8.83048 23.1603 8.83348 23.1603 9.46685ZM38.1456 13.6059L38.0769 14.0889H33.2478H28.4186L28.35 13.6059L28.2815 13.123H33.2478H38.214L38.1456 13.6059ZM27.8982 15.543C27.8715 15.7996 27.5773 15.7499 27.485 15.4732C27.4378 15.3315 27.5151 15.2543 27.6567 15.3015C27.7984 15.3487 27.907 15.4573 27.8982 15.543ZM37.8511 17.2763L38.8281 19.0689V22.642V26.2153H38.2915H37.7549V23.652C37.7549 20.2757 37.9569 20.4204 33.2411 20.4204C30.508 20.4204 29.5843 20.491 29.2645 20.7245C28.8996 20.9911 28.8391 21.351 28.7762 23.622C28.7049 26.2014 28.7019 26.2153 28.186 26.2153H27.6674V22.777V19.3386L28.6354 17.4113L29.6034 15.4839H33.2387H36.8739L37.8511 17.2763ZM12.9466 16.8254C13.6025 17.4892 13.669 17.7161 14.3202 21.5081C14.6964 23.6999 15.0044 25.6504 15.0044 25.8423C15.0044 26.1434 14.6209 26.2005 12.2138 26.2569C10.679 26.293 9.42346 26.2713 9.42367 26.2087C9.42388 26.146 9.71385 25.9854 10.068 25.8517C10.7651 25.5886 10.8973 25.134 10.3974 24.7191C10.1459 24.5103 9.73488 24.574 8.34474 25.037C7.38879 25.3553 6.582 25.5817 6.55174 25.5399C6.52148 25.4982 6.2929 25.1076 6.0435 24.6719L5.59021 23.8797L7.02413 23.4048C9.58206 22.5576 10.2826 22.193 10.2826 21.709C10.2826 20.9597 9.69496 20.975 7.34522 21.7843C6.10209 22.2127 5.0105 22.5173 4.91971 22.461C4.58854 22.2563 4.05841 20.8747 4.05841 20.2163C4.05841 19.3537 4.5703 18.3606 5.18735 18.0266C6.45451 17.3405 10.2594 16.1491 11.2162 16.139C12.1136 16.1293 12.3523 16.224 12.9466 16.8254ZM26.3797 23.2105V26.2153H23.6968H21.014V23.2105V20.2057H23.6968H26.3797V23.2105ZM36.2525 24.069V26.2153H33.2478H30.243V24.069V21.9228H33.2478H36.2525V24.069ZM43.9791 28.7908V29.864H22.731H1.48288V28.7908V27.7177H22.731H43.9791V28.7908ZM40.6949 31.8493C40.6337 32.115 39.9261 35.3262 39.1225 38.9856C37.9369 44.3837 37.5708 45.7303 37.1812 46.122L36.7013 46.6049H22.731H8.76068L8.27799 46.122C7.88458 45.7284 7.52593 44.4099 6.33711 38.9856C5.53505 35.3262 4.82871 32.115 4.76733 31.8493L4.65572 31.3664H22.731H40.8063L40.6949 31.8493ZM18.4702 34.011C18.1459 34.4016 18.7853 43.1625 19.1667 43.5544C19.4603 43.8562 20.072 43.7156 20.2074 43.3153C20.3677 42.8421 19.6826 34.2645 19.4633 33.9956C19.1793 33.6476 18.7664 33.6541 18.4702 34.011ZM33.5124 33.9956C33.3928 34.1432 32.8827 36.2633 32.3783 38.7073C31.6209 42.3789 31.5093 43.2084 31.737 43.4827C32.471 44.3672 32.7623 43.7145 33.786 38.8936C34.5284 35.3975 34.7001 34.2475 34.5132 34.0222C34.2082 33.6549 33.797 33.644 33.5124 33.9956ZM10.9694 34.2123C10.6664 34.5772 10.952 35.8823 11.3961 36.1626C11.9702 36.5247 12.4795 35.9534 12.3063 35.1419C12.067 34.0207 11.4719 33.6069 10.9694 34.2123ZM26.5044 34.4248C26.4503 34.6905 26.3599 35.6488 26.3035 36.5543C26.1859 38.4377 26.4769 39.1728 27.1719 38.7489C27.4753 38.5639 27.6003 38.0831 27.7436 36.5477C27.9557 34.2752 27.8786 33.9419 27.1416 33.9419C26.7546 33.9419 26.5748 34.0782 26.5044 34.4248ZM11.9344 38.3304C11.6635 38.6012 11.6843 38.9382 12.0966 40.9735C12.6313 43.6128 12.7173 43.8148 13.3067 43.8148C13.9862 43.8148 14.0249 43.266 13.516 40.8407C12.9313 38.0544 12.6525 37.612 11.9344 38.3304ZM26.2773 40.943C25.7605 41.4599 25.9 43.6733 26.4561 43.7791C27.0341 43.8892 27.1841 43.6371 27.3496 42.2782C27.4816 41.1931 27.4509 41.0386 27.0607 40.8299C26.7194 40.6473 26.5484 40.672 26.2773 40.943Z" fill="url(#paint0_linear)"/>
<defs>
<linearGradient id="paint0_linear" x1="-1.35115" y1="20.6758" x2="46.5451" y2="20.6758" gradientUnits="userSpaceOnUse">
<stop stop-color="#47B7E5"/>
<stop offset="1" stop-color="#5369F6"/>
</linearGradient>
</defs>
</svg>
