<svg width="56" height="56" viewBox="0 0 56 56" fill="none" xmlns="http://www.w3.org/2000/svg">
<rect width="56" height="56" rx="10" fill="#D1F7FF"/>
<g clip-path="url(#clip0)">
<path d="M41.4394 15.1635H40.5209V13.1552C40.5209 12.822 40.2507 12.5518 39.9175 12.5518H34.0017C33.6684 12.5518 33.3982 12.822 33.3982 13.1552V15.1635H31.5614V13.1552C31.5614 12.822 31.2911 12.5518 30.9579 12.5518H25.042C24.7088 12.5518 24.4386 12.822 24.4386 13.1552V15.1635H22.6017V13.1552C22.6017 12.822 22.3315 12.5518 21.9983 12.5518H16.0824C15.7492 12.5518 15.4789 12.822 15.4789 13.1552V15.1635H14.5605C14.2273 15.1635 13.957 15.4338 13.957 15.767V18.3788C13.957 18.7121 14.2273 18.9823 14.5605 18.9823H15.2984V39.7077C15.2984 41.7702 16.9765 43.4482 19.039 43.4482H19.0416C21.1042 43.4482 22.7822 41.7702 22.7822 39.7077V18.9823H24.258V39.7077C24.258 41.7702 25.9361 43.4482 27.9987 43.4482H28.0011C30.0638 43.4482 31.7418 41.7702 31.7418 39.7077V18.9823H33.2177V39.7077C33.2177 41.7702 34.8957 43.4482 36.9582 43.4482H36.9608C39.0234 43.4482 40.7014 41.7702 40.7014 39.7077V18.9823H41.4393C41.7726 18.9823 42.0428 18.7121 42.0428 18.3788V15.767C42.0428 15.4338 41.7726 15.1635 41.4394 15.1635ZM34.6051 13.7587H39.314V15.1635H34.6051V13.7587ZM25.6454 13.7587H30.3544V15.1635H25.6454V13.7587ZM16.6858 13.7587H21.3948V15.1635H16.6858V13.7587ZM15.1639 16.3704H22.9167V17.7754H15.1639V16.3704ZM19.0416 42.2414H19.039C17.6419 42.2414 16.5053 41.1048 16.5053 39.7077V31.2153H21.5753V39.7077C21.5753 41.1048 20.4387 42.2414 19.0416 42.2414ZM21.5753 30.0084H16.5053V18.9823H21.5753V30.0084H21.5753ZM24.1236 16.3704H31.8764V17.7754H24.1236V16.3704ZM28.0012 42.2414H27.9987C26.6016 42.2414 25.465 41.1048 25.465 39.7077V28.8373H30.535V39.7077C30.535 41.1048 29.3983 42.2414 28.0012 42.2414ZM30.535 27.6304H25.4649V18.9823H30.535V27.6304ZM36.9608 42.2414H36.9583C35.5612 42.2414 34.4246 41.1048 34.4246 39.7077V22.9339H39.4946V39.7077C39.4945 41.1048 38.3579 42.2414 36.9608 42.2414ZM39.4945 21.727H34.4245V18.9823H39.4945V21.727ZM40.8359 17.7754H33.0832V16.3704H40.8359V17.7754Z" fill="#0E2843"/>
</g>
<defs>
<clipPath id="clip0">
<rect width="30.8966" height="30.8966" fill="white" transform="translate(12.5518 12.5518)"/>
</clipPath>
</defs>
</svg>
