<svg width="64" height="64" viewBox="0 0 64 64" fill="none" xmlns="http://www.w3.org/2000/svg">
<rect width="64" height="64" rx="10" fill="#031D44"/>
<path fill-rule="evenodd" clip-rule="evenodd" d="M43.2176 16.5518H32.3432L14.3447 34.5502L29.4497 49.6552L47.4482 31.6567V20.7823L43.2176 16.5518ZM45.5062 30.8523L29.4497 46.9088L17.0911 34.5502L33.1476 18.4937H42.4132L45.5062 21.5868V30.8523ZM24.4114 38.2112L30.2694 32.3531L31.6424 33.7261L25.7843 39.5841L24.4114 38.2112ZM37.118 23.8394C37.118 23.0267 37.4345 22.2627 38.0092 21.6881C39.1953 20.5019 41.1255 20.5018 42.3118 21.6881C42.8864 22.2627 43.2029 23.0267 43.2029 23.8394C43.2029 24.652 42.8864 25.4161 42.3118 25.9907C41.7187 26.5838 40.9396 26.8804 40.1604 26.8804C39.3814 26.8804 38.6023 26.5838 38.0092 25.9907C37.4346 25.4161 37.118 24.652 37.118 23.8394ZM39.3824 24.6175C39.8114 25.0465 40.5095 25.0466 40.9387 24.6175C41.1465 24.4097 41.261 24.1333 41.261 23.8393C41.261 23.5454 41.1465 23.269 40.9387 23.0612C40.7241 22.8466 40.4423 22.7394 40.1605 22.7394C39.8787 22.7394 39.5969 22.8466 39.3824 23.0612C39.1746 23.269 39.06 23.5454 39.06 23.8393C39.06 24.1333 39.1745 24.4097 39.3824 24.6175ZM21.6658 35.4649L31.1851 25.9457L32.5581 27.3186L23.0388 36.8379L21.6658 35.4649ZM34.8467 33.2688L27.1581 40.9575L28.531 42.3305L36.2197 34.6418L34.8467 33.2688Z" fill="url(#paint0_linear)"/>
<defs>
<linearGradient id="paint0_linear" x1="14.3447" y1="34.6988" x2="46.7814" y2="34.5399" gradientUnits="userSpaceOnUse">
<stop stop-color="#6964D3"/>
<stop offset="0.197917" stop-color="#5564F0"/>
<stop offset="0.40625" stop-color="#488AF4"/>
<stop offset="0.666667" stop-color="#3DBAE3"/>
<stop offset="0.854167" stop-color="#3BDCD6"/>
<stop offset="1" stop-color="#35FCD0"/>
</linearGradient>
</defs>
</svg>
