<svg width="40" height="40" viewBox="0 0 40 40" fill="none" xmlns="http://www.w3.org/2000/svg">
<rect width="40" height="40" rx="10" fill="#DAFFCC"/>
<path fill-rule="evenodd" clip-rule="evenodd" d="M27.0109 10.3448H20.2144L8.96533 21.5939L18.4059 31.0345L29.655 19.7855V12.989L27.0109 10.3448ZM28.4413 19.2827L18.4059 29.318L10.6818 21.5939L20.7171 11.5586H26.5081L28.4413 13.4917V19.2827ZM15.257 23.8821L18.9182 20.2208L19.7764 21.0789L16.1151 24.7402L15.257 23.8821ZM23.1986 14.8996C23.1986 14.3917 23.3964 13.9142 23.7556 13.5551C24.497 12.8137 25.7033 12.8136 26.4447 13.5551C26.8039 13.9142 27.0017 14.3917 27.0017 14.8996C27.0017 15.4075 26.8039 15.8851 26.4447 16.2442C26.074 16.6149 25.5871 16.8003 25.1001 16.8003C24.6132 16.8003 24.1263 16.6149 23.7556 16.2442C23.3965 15.8851 23.1986 15.4075 23.1986 14.8996ZM24.6138 15.3859C24.882 15.6541 25.3183 15.6541 25.5865 15.3859C25.7164 15.2561 25.788 15.0833 25.788 14.8996C25.788 14.7159 25.7164 14.5432 25.5865 14.4132C25.4524 14.2792 25.2763 14.2121 25.1002 14.2121C24.924 14.2121 24.7479 14.2792 24.6138 14.4132C24.484 14.5432 24.4124 14.7159 24.4124 14.8996C24.4124 15.0833 24.4839 15.2561 24.6138 15.3859ZM13.541 22.1656L19.4906 16.2161L20.3487 17.0742L14.3991 23.0237L13.541 22.1656ZM21.7791 20.793L16.9737 25.5984L17.8318 26.4565L22.6372 21.6511L21.7791 20.793Z" fill="#3DC794"/>
</svg>
