<svg width="117" height="35" viewBox="0 0 117 35" fill="none" xmlns="http://www.w3.org/2000/svg">
<g clip-path="url(#clip0)">
<path fill-rule="evenodd" clip-rule="evenodd" d="M102.416 2.13664C102.416 1.883 102.365 1.62937 102.264 1.40111C102.188 1.17284 102.036 0.969933 101.858 0.792391C101.681 0.640212 101.478 0.513397 101.25 0.411944C101.021 0.310492 100.768 0.259766 100.514 0.259766C100.032 0.285129 99.5756 0.46267 99.2205 0.817754C99.0429 0.995296 98.9161 1.17284 98.8147 1.40111C98.7132 1.62937 98.6625 1.883 98.6625 2.13664C98.6625 2.39027 98.7132 2.61853 98.8147 2.8468C98.9161 3.07507 99.0429 3.25261 99.2205 3.43015C99.5756 3.78524 100.032 3.98814 100.514 3.98814C101.021 3.98814 101.503 3.78524 101.858 3.43015C102.036 3.25261 102.163 3.07507 102.264 2.8468C102.365 2.61853 102.416 2.39027 102.416 2.13664ZM114.971 20.4488C115.783 19.9415 116.467 19.2821 117 18.4958C116.808 18.3176 116.646 18.1838 116.513 18.0744C116.4 17.9815 116.309 17.9063 116.239 17.8364L115.808 17.4052C115.656 17.2023 115.402 17.0501 115.149 17.0248C114.885 17.0248 114.621 17.2514 114.293 17.5333L114.235 17.5828C113.855 17.9632 113.398 18.2676 112.891 18.4958C112.359 18.7241 111.775 18.8256 111.192 18.8256H111.141C108.579 18.8256 106.474 16.7458 106.474 14.1587V14.108V14.0573C106.474 11.4956 108.579 9.41585 111.141 9.39048H111.192C111.775 9.36512 112.359 9.49194 112.891 9.7202C113.398 9.94847 113.855 10.2528 114.286 10.6079L114.334 10.646C114.692 10.9331 114.983 11.1659 115.25 11.1659C115.478 11.1405 115.681 11.0137 115.808 10.8362L116.341 10.3036L116.975 9.69484C116.442 8.90859 115.757 8.24915 114.946 7.74188C113.754 7.00635 112.409 6.62591 111.014 6.65127C110.761 6.65127 110.507 6.67663 110.253 6.702L110.253 6.702C110.025 6.72736 109.797 6.75273 109.518 6.80345C108.935 6.93026 108.351 7.13317 107.793 7.3868C107.54 7.51362 107.286 7.64043 107.058 7.79261C103.684 9.89775 102.568 14.2856 104.521 17.7349C105.13 18.8256 106.018 19.7386 107.058 20.3981C107.311 20.5502 107.54 20.6771 107.793 20.8039C108.351 21.0575 108.935 21.2604 109.543 21.3872C109.797 21.438 110.025 21.4633 110.279 21.4887C110.532 21.5394 110.786 21.5394 111.04 21.5394C112.435 21.5648 113.804 21.1843 114.971 20.4488ZM102.061 7.76727V21.4633H98.9668V7.00638H101.3C101.706 7.00638 102.061 7.3361 102.061 7.76727ZM97.4197 20.4488L96.4813 18.9016C96.4756 18.8959 96.4699 18.8899 96.4641 18.8836L96.4453 18.8629C96.4031 18.8159 96.3506 18.7573 96.253 18.6987C96.2276 18.6734 96.1769 18.6734 96.1515 18.6734C96.1144 18.6734 96.0909 18.687 96.061 18.7042L96.0472 18.7121C96.0402 18.716 96.0328 18.7201 96.0247 18.7241C96.0127 18.7321 96 18.7408 95.9867 18.7499C95.9159 18.7983 95.8271 18.8589 95.7204 18.9016C95.5682 18.9777 95.4414 19.0285 95.2892 19.0792C95.0863 19.1553 94.8834 19.1806 94.6551 19.1806C94.2493 19.206 93.8181 19.0285 93.5391 18.6987C93.2601 18.3437 93.108 17.8871 93.1333 17.4306V9.46657L96.5066 9.08612H96.532C96.8363 9.08612 97.09 8.83249 97.09 8.52813V7.03171H93.1587V2.31417H91.5354C91.4086 2.28881 91.2565 2.33954 91.155 2.41563C91.0536 2.49172 91.0028 2.59317 90.9775 2.71998L90.1912 6.98098L87.8071 7.36143V8.57886C87.7817 8.70568 87.8324 8.85785 87.9339 8.95931C88.0353 9.06076 88.1368 9.08612 88.2636 9.08612H90.039V17.7096C90.039 18.927 90.3687 19.9162 91.0282 20.5756C91.6876 21.235 92.6261 21.5901 93.8435 21.5901C94.5283 21.5901 95.2131 21.4633 95.8725 21.2604C96.4305 21.0829 96.9632 20.8039 97.4197 20.4488ZM86.3867 15.4269C86.5896 15.8834 86.6911 16.3653 86.6657 16.8726C86.6657 17.532 86.5389 18.1661 86.2853 18.7748C86.0316 19.3582 85.6765 19.8655 85.1946 20.2713C84.662 20.7024 84.0787 21.0575 83.4192 21.2604C82.6076 21.5141 81.7706 21.6409 80.9336 21.6155C80.4517 21.6155 79.9445 21.5648 79.4626 21.4887C79.006 21.4126 78.5241 21.2858 78.093 21.1082C77.6618 20.9561 77.256 20.7785 76.8755 20.5503L76.8754 20.5502C76.5965 20.3727 76.3175 20.1951 76.0639 19.9923L76.7741 18.8002C76.8502 18.6734 76.9516 18.5719 77.0531 18.5212C77.1799 18.4451 77.3321 18.4198 77.4843 18.4198C77.6618 18.4198 77.8393 18.4705 77.9915 18.5719C78.1363 18.6753 78.3148 18.7788 78.5408 18.9097L78.5409 18.9097C78.592 18.9394 78.6456 18.9704 78.7017 19.0031C79.006 19.1807 79.3358 19.3075 79.6655 19.4343C80.122 19.5865 80.6039 19.6625 81.0858 19.6372C81.4916 19.6372 81.8974 19.5865 82.2779 19.4596C82.5822 19.3582 82.8612 19.206 83.1149 19.0031C83.3431 18.8256 83.5207 18.5973 83.6221 18.3437C83.7236 18.09 83.7743 17.8364 83.7743 17.5574C83.7997 17.177 83.6475 16.7965 83.3939 16.5175C83.1402 16.2385 82.8359 16.0356 82.4808 15.8834C82.075 15.7059 81.6692 15.5537 81.2634 15.4269C80.8068 15.3001 80.3503 15.1479 79.9191 14.9957C79.4626 14.8436 79.0314 14.666 78.6002 14.4631C78.1944 14.2602 77.814 14.0066 77.4843 13.7022C77.1545 13.3979 76.9009 13.0174 76.7234 12.6116C76.6219 12.3833 76.5458 12.1551 76.4951 11.9014C76.4444 11.6224 76.419 11.3181 76.419 11.0391C76.419 10.4811 76.5458 9.92312 76.7741 9.39049C77.0024 8.85787 77.3575 8.40133 77.7886 8.02088C78.2959 7.61507 78.8539 7.28535 79.4626 7.08245C81.1365 6.57519 82.912 6.62591 84.5606 7.20926C85.2454 7.48826 85.8794 7.86871 86.4374 8.3506L85.7273 9.46658C85.6765 9.56803 85.6005 9.64412 85.499 9.72021C85.4229 9.77094 85.3215 9.77094 85.22 9.77094C85.0678 9.77094 84.9157 9.72021 84.7635 9.64412L84.4084 9.46658L84.0533 9.3144C83.7489 9.18759 83.4446 9.06077 83.1149 8.98468C82.7091 8.88323 82.2779 8.8325 81.8467 8.8325C81.1873 8.80714 80.5532 8.98468 80.0206 9.33977C79.564 9.64412 79.285 10.1767 79.3104 10.7347C79.3104 11.0898 79.4372 11.4449 79.6909 11.7239C79.9445 11.9775 80.2742 12.2058 80.6039 12.358C81.0097 12.5355 81.4155 12.6877 81.8214 12.8145C82.2779 12.9413 82.7091 13.0935 83.1402 13.2457C83.5968 13.3979 84.0279 13.5754 84.4591 13.7783C84.8649 13.9559 85.2454 14.2095 85.5751 14.4885C85.9555 14.6914 86.2092 15.0465 86.3867 15.4269ZM75.0494 13.8544C75.0748 13.6261 75.0748 13.4232 75.0748 13.1949C75.0748 12.8145 75.0494 12.434 75.024 12.1297C74.948 11.5463 74.8212 10.9884 74.6182 10.4557C74.3392 9.66947 73.8827 8.98467 73.3247 8.40131C72.7667 7.84333 72.1073 7.41215 71.3718 7.13316C70.5601 6.8288 69.7232 6.70199 68.8608 6.70199C67.8463 6.67662 66.8571 6.87953 65.9441 7.25997C65.1071 7.61506 64.3715 8.12232 63.7628 8.78176C63.1541 9.4412 62.6976 10.2021 62.3932 11.0391C62.0635 11.9521 61.9113 12.8906 61.9113 13.8544C61.886 14.9957 62.0889 16.1371 62.4693 17.2277C62.799 18.1154 63.3063 18.9524 63.9657 19.6372C64.5998 20.2712 65.3861 20.7785 66.2231 21.1082C67.1361 21.438 68.0746 21.6155 69.0384 21.6155C69.571 21.6155 70.1036 21.5901 70.6362 21.514C71.1689 21.438 71.7015 21.3111 72.2341 21.1336C72.7667 20.9561 73.2486 20.7024 73.7305 20.3981C74.1617 20.1191 74.5422 19.8147 74.8719 19.4343L73.9588 18.2676C73.9081 18.1915 73.832 18.1407 73.7559 18.09C73.6798 18.0647 73.5783 18.0393 73.5023 18.0393C73.2994 18.0393 73.1218 18.1154 72.9443 18.2168C72.7161 18.369 72.4118 18.5211 72.1075 18.6733L72.1073 18.6734C71.7522 18.8509 71.3464 19.0031 70.966 19.1299C70.4333 19.2821 69.9007 19.3582 69.3681 19.3582C68.0999 19.3582 67.0854 18.9524 66.3245 18.1915C65.5636 17.4306 65.1071 16.2385 65.0056 14.6406L64.9803 14.3616H74.4914C74.5929 14.3616 74.6943 14.3363 74.7958 14.3109C74.8719 14.2856 74.9226 14.2348 74.948 14.1841C74.9987 14.0827 75.0494 13.9812 75.0494 13.8544ZM72.3356 12.3833V12.637H64.9803L65.031 12.3326C65.2085 11.1913 65.6143 10.3035 66.2484 9.66947C66.8825 9.03539 67.7702 8.70567 68.8862 8.70567C69.4188 8.70567 69.9261 8.80712 70.408 9.01003C70.8391 9.21293 71.1942 9.46657 71.4986 9.82165C71.8029 10.1514 72.0058 10.5572 72.1327 10.9884C72.2595 11.4449 72.3356 11.9014 72.3356 12.3833ZM60.7446 25.0141C60.4149 24.8366 60.0852 24.6844 59.7301 24.5322C59.0707 24.2786 58.3859 24.0503 57.7011 23.8728C56.4836 23.5938 55.2662 23.3909 54.0234 23.2895C53.7208 23.2558 53.4071 23.2445 53.0971 23.2333H53.097C52.9392 23.2276 52.7824 23.2219 52.6284 23.2134C51.8929 23.188 51.1827 23.1373 50.4472 23.0358C49.7878 22.9344 49.1537 22.7568 48.5196 22.5286C48.2406 22.4271 47.987 22.3257 47.7333 22.1735C47.5812 22.0974 47.4544 21.9959 47.3275 21.8945L47.2261 21.8184C47.0993 21.7169 46.9978 21.5901 46.8964 21.4633C46.6427 21.0321 46.5159 20.5249 46.5413 20.0176C46.5413 19.764 46.592 19.5103 46.6681 19.2567C46.7696 18.9777 46.8964 18.7241 47.0739 18.4705C47.2768 18.1915 47.5051 17.9378 47.7587 17.7349C48.0631 17.4813 48.3928 17.2784 48.7225 17.1009L49.1537 16.8726L48.7225 16.6443C47.8855 16.2131 47.2007 15.5791 46.6935 14.7928C46.1862 13.9812 45.9326 13.0428 45.9579 12.079C45.9326 10.5064 46.6427 9.03539 47.8602 8.07159C48.4942 7.56433 49.2298 7.18388 50.016 6.95561C50.9037 6.67662 51.8422 6.5498 52.7552 6.57517C53.4654 6.57517 54.1756 6.65126 54.8604 6.80343C55.4691 6.95561 56.0778 7.18388 56.6358 7.46287L56.6865 7.48824H61.607V8.83248C61.6323 8.98466 61.5816 9.1622 61.4802 9.28902C61.328 9.4412 61.1251 9.51729 60.8968 9.54265L58.9946 9.89773L59.096 10.1767C59.1975 10.4811 59.2989 10.7854 59.3497 11.0898C59.4004 11.4195 59.4511 11.7746 59.4511 12.1043C59.4765 13.6515 58.7663 15.1479 57.5489 16.1117C56.9148 16.619 56.2046 16.974 55.4184 17.2277C54.556 17.5067 53.643 17.6335 52.7299 17.6335C52.0958 17.6335 51.4364 17.5828 50.8276 17.4559L50.7262 17.4306L50.6501 17.4813C50.016 17.8617 49.6863 18.3183 49.6863 18.8255C49.6863 19.2567 49.9146 19.6625 50.3204 19.8401C50.7516 20.043 51.2335 20.1698 51.7154 20.2205C52.3241 20.2966 52.9582 20.322 53.5922 20.322C54.3278 20.322 55.0126 20.3473 55.672 20.3981C56.3822 20.4488 57.067 20.5502 57.7518 20.7024C58.3605 20.8292 58.9692 21.0575 59.5018 21.3619C60.0091 21.6662 60.4149 22.072 60.7193 22.5539C61.049 23.1626 61.2012 23.8221 61.1758 24.5069C61.1758 24.7393 61.1545 24.9503 61.1314 25.1791L61.1251 25.2424V25.3185C61.0954 25.2888 61.057 25.2591 61.0251 25.2345L61.0251 25.2345L61.0251 25.2344C61.0026 25.217 60.9834 25.2022 60.9729 25.1917C60.8968 25.0902 60.8207 25.0395 60.7446 25.0141ZM55.9764 13.4486C56.1285 13.0428 56.2046 12.6116 56.1793 12.1804C56.23 11.3434 55.9003 10.5064 55.3169 9.89773C54.7336 9.33974 53.8966 9.06075 52.7552 9.06075C51.6139 9.06075 50.7769 9.33974 50.2189 9.89773C49.6356 10.5064 49.3059 11.3434 49.3566 12.1804C49.3566 12.6116 49.4327 13.0428 49.5849 13.4486C49.7117 13.829 49.9399 14.1841 50.2443 14.4631C50.5487 14.7674 50.9291 14.9957 51.3349 15.1225C51.8168 15.2747 52.2987 15.3762 52.806 15.3508C53.3132 15.3508 53.8205 15.2747 54.277 15.1225C54.6828 14.9957 55.0379 14.7674 55.3423 14.4631C55.6213 14.1841 55.8495 13.829 55.9764 13.4486ZM43.0666 24.5322C43.3963 24.6844 43.726 24.8366 44.0557 25.0141C44.0984 25.0284 44.1492 25.0506 44.2079 25.0764C44.2537 25.0965 44.3045 25.1187 44.3601 25.1409C44.3706 25.1514 44.3898 25.1663 44.4123 25.1837L44.4123 25.1837C44.4441 25.2083 44.4825 25.2381 44.5122 25.2678V25.1917C44.5376 24.9634 44.563 24.7098 44.563 24.4561C44.5883 23.7713 44.4362 23.1119 44.1064 22.5032C43.8021 22.0213 43.3963 21.6155 42.889 21.3111C42.3564 21.0068 41.7477 20.7785 41.139 20.6517C40.4542 20.4995 39.7693 20.398 39.0592 20.3473C38.349 20.2966 37.6642 20.2712 36.9794 20.2712C36.3453 20.2712 35.7112 20.2459 35.1025 20.1698C34.6206 20.119 34.1387 19.9922 33.7076 19.7893C33.3018 19.6118 33.0735 19.206 33.0735 18.7748C33.0735 18.2675 33.4032 17.811 34.0373 17.4306L34.1134 17.3798L34.2148 17.4052C34.8489 17.532 35.5083 17.5827 36.1424 17.5827C37.0555 17.5827 37.9686 17.4559 38.8309 17.1769C39.5918 16.9233 40.302 16.5682 40.9361 16.061C41.5194 15.6044 42.0013 15.0211 42.331 14.3363C42.6861 13.6261 42.8383 12.8398 42.8383 12.0536L42.8332 11.9875C42.8094 11.6768 42.7842 11.3469 42.7368 11.0391C42.6861 10.7347 42.5847 10.4303 42.4832 10.126L42.3817 9.84699L44.284 9.49191C44.4869 9.49191 44.6898 9.39046 44.842 9.26364C44.9434 9.13683 44.9941 8.95928 44.9941 8.80711V7.46286H40.0483L39.9976 7.4375C39.4396 7.13314 38.8309 6.93024 38.2222 6.77806C37.5374 6.62588 36.8272 6.54979 36.1171 6.54979C35.204 6.52443 34.2656 6.6766 33.3778 6.93024C32.5916 7.1585 31.8561 7.53895 31.222 8.04621C30.6386 8.50275 30.1567 9.0861 29.827 9.7709C29.4719 10.4811 29.2944 11.2673 29.3197 12.0536C29.2944 13.0174 29.548 13.9558 30.0553 14.7674C30.5625 15.5537 31.2473 16.1878 32.0843 16.6189L32.5155 16.8472L32.0843 17.0755C31.7546 17.253 31.4249 17.4559 31.1205 17.7096C30.8669 17.9125 30.6386 18.1661 30.4357 18.4451C30.2582 18.6987 30.1314 18.9523 30.0299 19.2313C29.9538 19.485 29.9031 19.7386 29.9031 19.9922C29.8777 20.4995 30.0045 21.0068 30.2582 21.4379C30.3596 21.5901 30.4864 21.7169 30.6386 21.8437L30.6894 21.8945C30.7908 21.9959 30.943 22.0974 31.0698 22.1735C31.3234 22.3256 31.5771 22.4271 31.8561 22.5285C32.4648 22.7568 33.1242 22.9344 33.7837 23.0358C34.4938 23.1373 35.2294 23.188 35.9649 23.2133C36.1171 23.2218 36.2692 23.2274 36.4214 23.2331C36.7258 23.2443 37.0301 23.2556 37.3345 23.2894C38.5773 23.3909 39.7947 23.5938 41.0121 23.8728C41.7223 24.0503 42.4071 24.2786 43.0666 24.5322ZM38.6534 9.89772C39.2367 10.5064 39.5664 11.3434 39.5157 12.1804C39.5411 12.6116 39.465 13.0427 39.2621 13.4486C39.1099 13.829 38.8816 14.1841 38.6026 14.4631C38.2983 14.7674 37.9432 14.9703 37.5374 15.1225C36.599 15.4269 35.5591 15.4269 34.5953 15.1225C33.809 14.8435 33.1496 14.2094 32.8706 13.4232C32.7438 13.0427 32.6677 12.6116 32.6677 12.1804C32.617 11.3434 32.9467 10.5064 33.53 9.89772C34.1134 9.33973 34.9757 9.06074 36.0917 9.06074C37.2077 9.06074 38.07 9.33973 38.6534 9.89772ZM27.7726 7.61509V21.3619H25.8196C25.5153 21.3873 25.2363 21.2097 25.1348 20.9054L24.7798 19.2568L24.45 19.5865C24.1457 19.8908 23.8413 20.1698 23.5116 20.4235C22.5224 21.2097 21.2796 21.6155 20.0115 21.5902C19.3013 21.5902 18.5912 21.4633 17.9571 21.2097C17.3737 20.9561 16.8665 20.5756 16.4607 20.0937C16.0548 19.5865 15.7251 19.0031 15.5476 18.369C15.3193 17.6589 15.2179 16.898 15.2179 16.1371V6.87956H17.6274C18.0078 6.87956 18.3122 7.18392 18.3122 7.56436V16.1371C18.3122 17.1009 18.5404 17.8871 19.0223 18.4198C19.5042 18.9524 20.189 19.2568 21.1275 19.2568C21.7869 19.2568 22.421 19.1046 23.0043 18.8002C23.6131 18.4959 24.1457 18.0901 24.6276 17.6082L24.7037 17.5321V6.87956H27.0878C27.4429 6.87956 27.7726 7.20928 27.7726 7.61509ZM13.6707 14.9957C13.6961 14.2602 13.5693 13.55 13.2903 12.8652C13.0366 12.3072 12.7069 11.8 12.2504 11.3688C11.7938 10.963 11.3119 10.6079 10.754 10.3543C10.1706 10.1006 9.58725 9.84701 8.97854 9.64411C8.57181 9.50332 8.19402 9.38182 7.83923 9.26772C7.6188 9.19683 7.40723 9.12879 7.20312 9.06076C6.6705 8.90858 6.11251 8.68031 5.60525 8.42668C5.17407 8.19841 4.76826 7.89405 4.43854 7.51361C4.10882 7.13316 3.93128 6.6259 3.95664 6.11864C3.95664 5.71283 4.03273 5.33238 4.18491 4.95193C4.33709 4.59685 4.56536 4.26713 4.86972 4.0135C5.19944 3.75987 5.57988 3.55696 5.98569 3.43015C6.46759 3.27797 6.97485 3.22724 7.48212 3.22724C8.0401 3.22724 8.59809 3.30333 9.13072 3.48087C9.53653 3.63305 9.94234 3.81059 10.3228 4.0135C10.5725 4.14796 10.7931 4.28243 10.9957 4.40587C11.0606 4.44542 11.1236 4.48384 11.1851 4.52076C11.3373 4.62221 11.5402 4.67294 11.7178 4.6983C11.8446 4.6983 11.9714 4.67294 12.0728 4.59685C12.1997 4.4954 12.3011 4.39395 12.3518 4.24177L13.2395 2.5678C12.5294 1.93372 11.6924 1.45183 10.7793 1.12211C9.71407 0.716295 8.57273 0.538754 7.43139 0.538754C6.46759 0.513391 5.50379 0.690932 4.59072 1.04602C3.82983 1.32501 3.11966 1.78155 2.51095 2.33953C1.42033 3.37942 0.786256 4.82512 0.786256 6.3469C0.760893 7.13316 0.887709 7.94478 1.14134 8.68031C1.36961 9.26366 1.72469 9.79629 2.18123 10.2275C2.6124 10.6586 3.11966 10.9884 3.67765 11.242C4.23564 11.4956 4.81899 11.7239 5.4277 11.9268L5.42774 11.9268C6.01108 12.1043 6.59442 12.2819 7.20312 12.4594C7.76111 12.5862 8.3191 12.8145 8.82636 13.0681C9.2829 13.3218 9.68871 13.6261 10.0184 14.0319C10.3481 14.4631 10.5257 14.9957 10.5003 15.5537C10.5003 16.619 10.1452 17.4559 9.4858 18.0393C8.82636 18.6226 7.88793 18.9016 6.72122 18.9016C6.03642 18.927 5.37698 18.8256 4.7429 18.5973C4.261 18.4197 3.80447 18.1915 3.34793 17.9125L3.34773 17.9123C2.89131 17.6081 2.587 17.4052 2.33341 17.2277C2.15586 17.0755 1.9276 16.9994 1.69933 16.974C1.57251 16.974 1.42033 16.9994 1.31888 17.0755C1.29587 17.0928 1.27156 17.11 1.24683 17.1276C1.16252 17.1874 1.07336 17.2507 1.01452 17.3291L0 19.0285C0.380447 19.3835 0.786256 19.7133 1.21743 19.9415C1.72469 20.2966 2.28268 20.5756 2.84067 20.8039C3.42402 21.0575 4.03273 21.235 4.66681 21.3619C5.30089 21.514 5.93497 21.5648 6.59441 21.5648C7.63429 21.5901 8.64882 21.4126 9.61262 21.0575C10.4242 20.7531 11.1851 20.2712 11.8192 19.6625C12.4279 19.0792 12.8845 18.369 13.1888 17.5828C13.5185 16.7458 13.6707 15.8834 13.6707 14.9957Z" fill="url(#paint0_linear)"/>
<path d="M45.4762 34.3985C36.8781 34.4492 28.4576 31.9636 21.2544 27.2968C20.7218 26.9671 20.5443 26.2823 20.8486 25.7243C21.153 25.1663 21.8632 25.0142 22.4211 25.3185C22.4465 25.3439 22.4719 25.3439 22.4972 25.3692C29.3199 29.8078 37.3093 32.1412 45.4508 32.0905C53.7699 32.0905 61.6832 29.757 68.4044 25.3692C68.9371 25.0142 69.6472 25.1663 69.977 25.699C70.332 26.2316 70.1799 26.9417 69.6472 27.2715C62.5963 31.9383 54.2265 34.3985 45.4762 34.3985Z" fill="url(#paint1_linear)"/>
</g>
<defs>
<linearGradient id="paint0_linear" x1="-3.47728" y1="11.0537" x2="119.787" y2="11.0537" gradientUnits="userSpaceOnUse">
<stop stop-color="#47B7E5"/>
<stop offset="1" stop-color="#5369F6"/>
</linearGradient>
<linearGradient id="paint1_linear" x1="20.7028" y1="29.7923" x2="70.2016" y2="29.7923" gradientUnits="userSpaceOnUse">
<stop offset="0.12" stop-color="#34FFD2"/>
<stop offset="0.65" stop-color="#4E64FF"/>
<stop offset="0.85" stop-color="#6964D5"/>
</linearGradient>
<clipPath id="clip0">
<rect width="117" height="34.1387" fill="white" transform="translate(0 0.259766)"/>
</clipPath>
</defs>
</svg>
