<svg width="48" height="48" viewBox="0 0 48 48" fill="none" xmlns="http://www.w3.org/2000/svg">
<path fill-rule="evenodd" clip-rule="evenodd" d="M40.2254 0H21.9867C21.5983 0 21.2835 0.314812 21.2835 0.703125C21.2835 1.09144 21.5983 1.40625 21.9867 1.40625H40.2253C40.716 1.40625 41.1153 1.80544 41.1153 2.29622V45.7038C41.1153 46.1945 40.7161 46.5938 40.2253 46.5938H7.29622C6.80553 46.5938 6.40625 46.1945 6.40625 45.7038V2.29622C6.40625 1.80553 6.80553 1.40625 7.29622 1.40625H19.1742C19.5626 1.40625 19.8774 1.09144 19.8774 0.703125C19.8774 0.314812 19.5626 0 19.1742 0H7.29622C6.03003 0 5 1.03013 5 2.29622V45.7038C5 46.9699 6.03012 48 7.29622 48H40.2254C41.4915 48 42.5217 46.97 42.5217 45.7038V2.29622C42.5216 1.03013 41.4915 0 40.2254 0ZM17.1713 7.72022C17.5055 7.73907 17.7857 7.98132 17.8525 8.30935L18.5234 11.819C18.5914 12.1749 18.358 12.5186 18.002 12.5867C17.6462 12.6548 17.3024 12.4213 17.2343 12.0653L17.0196 10.9421L16.6913 12.0939L16.6913 12.094C16.689 12.1015 16.6868 12.1091 16.6844 12.1165C16.5859 12.4198 16.3054 12.6247 15.9866 12.6263H15.9829C15.6656 12.6263 15.385 12.4246 15.2839 12.1235C15.2812 12.1158 15.2788 12.1081 15.2765 12.1003L14.9361 10.9465L14.7354 12.0584C14.671 12.4151 14.3293 12.6521 13.973 12.5876C13.6163 12.5232 13.3794 12.182 13.4437 11.8253L14.0755 8.32472C14.1403 7.98835 14.4178 7.74319 14.7519 7.72088C15.0851 7.69838 15.3935 7.90472 15.5001 8.22216C15.5027 8.22975 15.5051 8.23744 15.5074 8.24513L15.9732 9.82416L16.4215 8.2515C16.4237 8.244 16.426 8.2365 16.4284 8.2291C16.5317 7.91072 16.8373 7.70166 17.1713 7.72022ZM25.0809 7.75556C24.8067 7.84106 24.6199 8.09484 24.6199 8.38209V11.97C24.6199 12.3324 24.9137 12.6262 25.2762 12.6262C25.6386 12.6262 25.9324 12.3324 25.9324 11.97V10.4872L27.1622 12.2681C27.3441 12.5309 27.6629 12.646 27.9552 12.5547C28.2519 12.4621 28.4514 12.1784 28.4513 11.8426L28.4177 8.36906C28.4143 8.00662 28.1178 7.71496 27.7552 7.71918C27.3927 7.72275 27.1018 8.01937 27.1053 8.38171L27.1199 9.89709L25.8162 8.00915C25.653 7.77281 25.3551 7.67006 25.0809 7.75556ZM20.7722 23.0789C21.1605 23.0789 21.4754 22.7641 21.4754 22.3758C21.4754 21.9875 21.1605 21.6727 20.7722 21.6727H17.5762C17.1879 21.6727 16.8731 21.9875 16.8731 22.3758C16.8731 22.7641 17.1879 23.0789 17.5762 23.0789H20.7722ZM24.1609 22.3758C24.1609 22.7641 23.8461 23.0789 23.4578 23.0789C23.0695 23.0789 22.7547 22.7641 22.7547 22.3758C22.7547 21.9875 23.0695 21.6727 23.4578 21.6727C23.8461 21.6727 24.1609 21.9875 24.1609 22.3758ZM24.1609 33.1098C24.1609 33.4981 23.8461 33.8129 23.4578 33.8129C23.0695 33.8129 22.7547 33.4981 22.7547 33.1098C22.7547 32.7215 23.0695 32.4067 23.4578 32.4067C23.8461 32.4067 24.1609 32.7215 24.1609 33.1098ZM30.4825 22.3758C30.4825 22.7641 30.1677 23.0789 29.7794 23.0789H26.5834C26.1951 23.0789 25.8803 22.7641 25.8803 22.3758C25.8803 21.9875 26.1951 21.6727 26.5834 21.6727H29.7794C30.1677 21.6727 30.4825 21.9875 30.4825 22.3758ZM20.7722 33.8129C21.1605 33.8129 21.4754 33.4981 21.4754 33.1098C21.4754 32.7215 21.1605 32.4067 20.7722 32.4067H17.5762C17.1879 32.4067 16.8731 32.7215 16.8731 33.1098C16.8731 33.4981 17.1879 33.8129 17.5762 33.8129H20.7722ZM30.4825 33.1098C30.4825 33.4981 30.1677 33.8129 29.7794 33.8129H26.5834C26.1951 33.8129 25.8803 33.4981 25.8803 33.1098C25.8803 32.7215 26.1951 32.4067 26.5834 32.4067H29.7794C30.1677 32.4067 30.4825 32.7215 30.4825 33.1098ZM22.2848 9.048C22.6472 9.048 22.941 8.75419 22.941 8.39175C22.941 8.02932 22.6472 7.7355 22.2848 7.7355H20.784C20.4216 7.7355 20.1278 8.02932 20.1278 8.39175V11.9536C20.1278 12.316 20.4216 12.6098 20.784 12.6098H22.2848C22.6472 12.6098 22.941 12.316 22.941 11.9536C22.941 11.5912 22.6472 11.2973 22.2848 11.2973H21.4403V10.829H22.1741C22.5366 10.829 22.8304 10.5352 22.8304 10.1727C22.8304 9.81028 22.5366 9.51647 22.1741 9.51647H21.4403V9.0481H22.2848V9.048ZM30.1124 8.37534C30.1124 8.0129 30.4062 7.71909 30.7686 7.71909C31.1311 7.71909 31.4249 8.0129 31.4249 8.37534V10.8488C31.4249 10.9688 31.4441 11.073 31.6858 11.2274C31.7764 11.2852 31.878 11.3135 31.996 11.3137H31.9972C32.109 11.3137 32.2059 11.2922 32.2937 11.2479C32.6101 11.0886 32.6101 10.9369 32.6101 10.8462V8.37534C32.6101 8.0129 32.904 7.71909 33.2664 7.71909C33.6288 7.71909 33.9226 8.0129 33.9226 8.37534V10.8463C33.9226 11.524 33.5538 12.083 32.8841 12.4203C32.6127 12.557 32.3143 12.6262 31.9972 12.6262H31.9942C31.6239 12.6257 31.2825 12.5273 30.9792 12.3335C30.404 11.9661 30.1124 11.4665 30.1124 10.8488V8.37534ZM14.6352 15.6908C14.6352 16.0792 14.95 16.394 15.3383 16.394H32.0175C32.4058 16.394 32.7206 16.0792 32.7206 15.6908C32.7206 15.3025 32.4058 14.9877 32.0175 14.9877H15.3383C14.95 14.9877 14.6352 15.3025 14.6352 15.6908ZM15.3383 17.8809H32.0175C32.4058 17.8809 32.7206 18.1957 32.7206 18.5841C32.7206 18.9724 32.4058 19.2872 32.0175 19.2872H15.3383C14.95 19.2872 14.6352 18.9724 14.6352 18.5841C14.6352 18.1957 14.95 17.8809 15.3383 17.8809ZM32.0175 25.617H15.3383C14.95 25.617 14.6352 25.9318 14.6352 26.3201C14.6352 26.7084 14.95 27.0232 15.3383 27.0232H32.0175C32.4058 27.0232 32.7206 26.7084 32.7206 26.3201C32.7206 25.9318 32.4058 25.617 32.0175 25.617ZM15.3383 28.5102H32.0175C32.4058 28.5102 32.7206 28.825 32.7206 29.2133C32.7206 29.6017 32.4058 29.9165 32.0175 29.9165H15.3383C14.95 29.9165 14.6352 29.6017 14.6352 29.2133C14.6352 28.825 14.95 28.5102 15.3383 28.5102ZM14.6352 36.7619C14.6352 37.1502 14.95 37.465 15.3383 37.465H32.0175C32.4058 37.465 32.7206 37.1502 32.7206 36.7619C32.7206 36.3736 32.4058 36.0588 32.0175 36.0588H15.3383C14.95 36.0588 14.6352 36.3736 14.6352 36.7619ZM32.0175 40.3582H15.3383C14.95 40.3582 14.6352 40.0434 14.6352 39.6551C14.6352 39.2668 14.95 38.952 15.3383 38.952H32.0175C32.4058 38.952 32.7206 39.2668 32.7206 39.6551C32.7206 40.0434 32.4058 40.3582 32.0175 40.3582ZM15.9601 3.90581H36.2924C37.1485 3.90581 37.8449 4.60228 37.8449 5.45831V37.7829L38.7671 36.8608C39.0416 36.5862 39.4868 36.5862 39.7614 36.8608C40.036 37.1354 40.036 37.5805 39.7614 37.8551L32.5702 45.0463C32.4329 45.1837 32.2529 45.2523 32.073 45.2523C31.8931 45.2523 31.7131 45.1837 31.5759 45.0463C31.3241 44.7947 31.3039 44.4001 31.5134 44.1246H21.479C21.0907 44.1246 20.7759 43.8098 20.7759 43.4214C20.7759 43.0331 21.0907 42.7183 21.479 42.7183H32.9096L36.4387 39.1892V5.45831C36.4387 5.37769 36.3731 5.31206 36.2924 5.31206H14.554L10.917 8.949V42.5721C10.917 42.6527 10.9826 42.7183 11.0633 42.7183H18.6663C19.0546 42.7183 19.3694 43.0331 19.3694 43.4214C19.3694 43.8098 19.0546 44.1246 18.6663 44.1246H11.0631C10.2071 44.1246 9.51059 43.4281 9.51059 42.5721V10.3553L9.00855 10.8573C8.8713 10.9946 8.6913 11.0633 8.5114 11.0633C8.33149 11.0633 8.15149 10.9946 8.01424 10.8573C7.73965 10.5828 7.73965 10.1376 8.01424 9.86297L15.2054 2.67178C15.48 2.39719 15.9252 2.39719 16.1998 2.67178C16.4744 2.94638 16.4744 3.3915 16.1998 3.6661L15.9601 3.90581Z" fill="url(#paint0_linear)"/>
<defs>
<linearGradient id="paint0_linear" x1="3.88484" y1="20.6758" x2="43.4156" y2="20.6758" gradientUnits="userSpaceOnUse">
<stop stop-color="#47B7E5"/>
<stop offset="1" stop-color="#5369F6"/>
</linearGradient>
</defs>
</svg>
