<svg width="60" height="60" viewBox="0 0 60 60" fill="none" xmlns="http://www.w3.org/2000/svg">
<path fill-rule="evenodd" clip-rule="evenodd" d="M23.75 0.740167C12.303 3.15967 3.1355 12.4537 0.783501 24.0232C0.352501 26.1427 0 28.7962 0 29.9192C0 33.5332 1.5175 39.5677 3.3945 43.4192C5.913 48.5867 11.3325 54.0062 16.5 56.5247C20.3515 58.4017 26.386 59.9192 30 59.9192C31.123 59.9192 33.7765 59.5667 35.896 59.1357C47.635 56.7492 56.83 47.5542 59.2165 35.8152C60.2 30.9787 60.2 28.8597 59.2165 24.0232C56.83 12.2842 47.635 3.08917 35.896 0.702669C31.2355 -0.244831 28.3695 -0.235833 23.75 0.740167ZM42.9805 15.0137C43.959 16.0642 44 16.7042 44 31.0137C44 39.2117 43.942 45.9192 43.8715 45.9192C43.801 45.9192 41.737 45.1317 39.2855 44.1692L34.828 42.4192H26.1925C17.8355 42.4192 17.5315 42.3832 16.7785 41.3077C16.126 40.3767 16 38.2442 16 28.1522C16 16.7222 16.052 16.0517 17.0195 15.0137C18.0135 13.9467 18.3395 13.9192 30 13.9192C41.6605 13.9192 41.9865 13.9467 42.9805 15.0137ZM20 34.6322C20 35.0247 21.294 35.9807 22.875 36.7572C25.345 37.9702 26.349 38.1692 30 38.1692C33.651 38.1692 34.655 37.9702 37.125 36.7572C38.706 35.9807 40 35.0247 40 34.6322C40 33.6537 39.514 33.7262 36.4245 35.1642C34.323 36.1427 32.9465 36.4092 30 36.4092C27.0535 36.4092 25.677 36.1427 23.5755 35.1642C20.486 33.7262 20 33.6537 20 34.6322Z" fill="url(#paint0_linear)"/>
<defs>
<linearGradient id="paint0_linear" x1="-1.78186" y1="25.81" x2="61.3824" y2="25.81" gradientUnits="userSpaceOnUse">
<stop stop-color="#47B7E5"/>
<stop offset="1" stop-color="#5369F6"/>
</linearGradient>
</defs>
</svg>
