<svg width="56" height="56" viewBox="0 0 56 56" fill="none" xmlns="http://www.w3.org/2000/svg">
<rect width="56" height="56" rx="10" fill="#FED1F9"/>
<path fill-rule="evenodd" clip-rule="evenodd" d="M25.6681 13.701C19.5216 14.7437 14.6945 19.5774 13.7045 25.6814C12.4265 33.5603 17.8219 41.0155 25.7298 42.2981C33.5621 43.5682 41.0183 38.1533 42.2978 30.2661C43.3074 24.0417 40.1117 17.8909 34.3735 15.0141C31.76 13.7039 28.5267 13.2162 25.6681 13.701ZM27.3501 16.2914V17.6497H27.997H28.6439V16.2914V14.933L29.0644 14.9347C30.126 14.9389 33.2057 15.8012 33.7816 16.2554C33.9001 16.3488 33.8671 16.4929 33.6449 16.8524C33.4839 17.1131 33.1944 17.5999 33.0018 17.9343L32.6515 18.5424L33.2413 18.888C33.5656 19.0781 33.8496 19.212 33.8723 19.1854C33.895 19.1591 34.1885 18.6572 34.5246 18.0703L35.1357 17.003L35.7306 17.4235C36.4939 17.9628 38.0332 19.5012 38.571 20.2623L38.9884 20.8527L37.9241 21.4671C37.3388 21.805 36.8383 22.1005 36.8119 22.1237C36.7854 22.1469 36.9193 22.4313 37.1094 22.7556L37.4551 23.3453L38.0632 22.9951C38.3976 22.8024 38.8922 22.5081 39.1622 22.3413L39.6532 22.0378L40.0296 22.8679C40.487 23.8765 40.9024 25.418 41.0163 26.5289L41.1006 27.3523H39.7242H38.3478V27.9992V28.646H39.7242H41.1006L41.0163 29.4694C40.9024 30.5803 40.487 32.1219 40.0296 33.1304L39.6532 33.9606L39.1622 33.6571C38.8922 33.4902 38.3976 33.1959 38.0632 33.0032L37.4551 32.653L37.1094 33.2427C36.9193 33.567 36.7854 33.851 36.8119 33.8736C36.8383 33.8964 37.3402 34.1898 37.9272 34.5259L38.9946 35.1369L38.5741 35.7317C38.0364 36.4926 36.4967 38.0335 35.7409 38.5676L35.1563 38.9806L34.5966 37.9855C34.2886 37.4381 34.0146 36.9636 33.9875 36.9311C33.9288 36.8606 32.7843 37.471 32.7843 37.5729C32.7843 37.6117 33.0401 38.0786 33.3527 38.6106C33.6654 39.1424 33.8981 39.6159 33.8699 39.6626C33.6412 40.0433 30.1567 41.0592 29.0644 41.0636L28.6439 41.0653V39.707V38.3486H27.997H27.3501V39.7248V41.101L26.5265 41.0167C25.4164 40.903 23.874 40.4876 22.8675 40.0313L22.0397 39.656L22.5385 38.8406C23.4364 37.3728 23.4205 37.5016 22.7522 37.11C22.4281 36.9201 22.1444 36.7864 22.1218 36.8129C22.099 36.8393 21.8055 37.3411 21.4694 37.928L20.8583 38.9953L20.2634 38.5749C19.4985 38.0344 17.9605 36.4966 17.4199 35.7317L16.9994 35.1369L18.0668 34.5259C18.6538 34.1898 19.1557 33.8964 19.1821 33.8736C19.2086 33.851 19.0747 33.567 18.8847 33.2427L18.5389 32.653L17.9308 33.0032C17.5964 33.1959 17.1019 33.4902 16.8318 33.6571L16.3408 33.9606L15.948 33.0942C15.4823 32.0675 15.0963 30.6268 14.9784 29.4759L14.8934 28.646H16.2698H17.6462V27.9992V27.3523H16.2698H14.8934L14.9784 26.5224C15.0963 25.3716 15.4823 23.9308 15.948 22.9041L16.3408 22.0378L16.8318 22.3413C17.1019 22.5081 17.5964 22.8024 17.9308 22.9951L18.5389 23.3453L18.8847 22.7556C19.0747 22.4313 19.2086 22.1473 19.1821 22.1247C19.1557 22.1019 18.6538 21.8085 18.0668 21.4724L16.9994 20.8614L17.4199 20.2666C17.9619 19.4999 19.4991 17.9636 20.2683 17.4198L20.868 16.996L21.4541 18.002C21.7766 18.5554 22.0624 19.0663 22.0893 19.1375C22.1362 19.2614 23.3391 18.7011 23.3391 18.5553C23.3391 18.5167 23.0771 18.0377 22.7569 17.4907C22.4367 16.9438 22.1747 16.441 22.1747 16.3735C22.1747 16.0159 25.6167 14.9655 26.8649 14.942L27.3501 14.933V16.2914ZM30.5495 22.6089C27.6481 23.9829 25.2251 25.1611 25.1652 25.2271C25.1051 25.293 23.9621 27.6757 22.6251 30.5218C21.288 33.3679 20.1649 35.7492 20.1293 35.8136C20.0936 35.8779 20.1172 35.9026 20.1815 35.8685C20.2459 35.8345 22.6275 34.7113 25.474 33.3727C28.3205 32.034 30.7149 30.8741 30.795 30.7951C30.8749 30.7159 32.0324 28.3226 33.3671 25.4765C34.7019 22.6304 35.8189 20.258 35.8493 20.2047C35.8798 20.1514 35.8868 20.1085 35.8648 20.1093C35.8428 20.1102 33.451 21.235 30.5495 22.6089ZM32.8785 23.2449C32.6232 23.9012 30.1395 29.0341 30.0773 29.0341C29.9454 29.0341 26.9055 25.9426 26.972 25.8761C27.0658 25.7823 32.703 23.1044 32.8305 23.093C32.8914 23.0876 32.913 23.156 32.8785 23.2449ZM27.5398 28.5122C28.389 29.3636 29.0519 30.0925 29.0126 30.1317C28.8715 30.2728 23.1755 32.9241 23.1241 32.8726C23.0549 32.8034 25.8151 26.9642 25.9171 26.9642C25.9602 26.9642 26.6905 27.6609 27.5398 28.5122Z" fill="#740686"/>
</svg>
