<svg width="48" height="48" viewBox="0 0 48 48" fill="none" xmlns="http://www.w3.org/2000/svg">
<path fill-rule="evenodd" clip-rule="evenodd" d="M43.5 22.2686C43.5 22.657 43.1853 22.9718 42.7969 22.9718C42.4085 22.9718 42.0938 22.657 42.0937 22.2686V2.1195C42.0937 1.72622 41.7738 1.40625 41.3807 1.40625H11.3584V8.32322H12.106C12.4944 8.32322 12.8092 8.63794 12.8092 9.02634C12.8092 9.41475 12.4944 9.72947 12.106 9.72947H11.3584V23.2955H12.106C12.4944 23.2955 12.8092 23.6102 12.8092 23.9986C12.8092 24.387 12.4944 24.7017 12.106 24.7017H11.3584V38.2678H12.106C12.4944 38.2678 12.8092 38.5825 12.8092 38.9709C12.8092 39.3593 12.4944 39.6741 12.106 39.6741H11.3584V46.5938H41.3808C41.7739 46.5938 42.0938 46.2738 42.0938 45.8805V25.5135C42.0938 25.1251 42.4085 24.8104 42.7969 24.8104C43.1853 24.8104 43.5 25.1251 43.5 25.5135V45.8805C43.5 47.0492 42.5493 48 41.3807 48H10.6552H7.54922C5.86791 48 4.5 46.6308 4.5 44.9476V3.04969C4.5 1.36809 5.86791 0 7.54922 0H10.6552H41.3808C42.5493 0 43.5 0.950813 43.5 2.1195V22.2686ZM9.95212 9.72947H9.20719C8.81878 9.72947 8.50406 9.41475 8.50406 9.02634C8.50406 8.63794 8.81878 8.32322 9.20719 8.32322H9.95212V1.40625H7.54922C6.64331 1.40625 5.90625 2.1435 5.90625 3.04969V44.9476C5.90625 45.8553 6.64331 46.5938 7.54922 46.5938H9.95212V39.6741H9.20719C8.81878 39.6741 8.50406 39.3593 8.50406 38.9709C8.50406 38.5825 8.81878 38.2678 9.20719 38.2678H9.95212V24.7017H9.20719C8.81878 24.7017 8.50406 24.387 8.50406 23.9986C8.50406 23.6102 8.81878 23.2955 9.20719 23.2955H9.95212V9.72947ZM16.5681 39.2606C16.5681 38.8722 16.8828 38.5575 17.2712 38.5575H34.7835C35.1719 38.5575 35.4866 38.8722 35.4866 39.2606C35.4866 39.649 35.1719 39.9637 34.7835 39.9637H17.2712C16.8828 39.9637 16.5681 39.649 16.5681 39.2606ZM37.9078 13.5388C37.4352 11.1253 35.3223 8.68999 31.6668 8.68999H31.1189C30.0907 6.96246 27.8687 6.30678 26.0391 6.27968C26.0322 6.27949 26.0251 6.27949 26.0183 6.27968C23.7147 6.31371 21.8183 7.22543 20.9371 8.68999H20.3878C16.7323 8.68999 14.6194 11.1253 14.147 13.5388C13.7062 15.7908 14.6028 18.6082 17.5459 20.0257V22.0034C16.9697 22.2703 16.5681 22.8526 16.5681 23.5284V24.8571C16.5681 25.7841 17.3221 26.5382 18.249 26.5382H33.8057C34.7325 26.5382 35.4866 25.7841 35.4866 24.8571V23.5284C35.4866 22.8526 35.085 22.2703 34.5088 22.0035V20.0258C37.4518 18.6082 38.3485 15.7909 37.9078 13.5388ZM34.0802 24.8571C34.0802 25.0061 33.9545 25.132 33.8056 25.132H18.2489C18.1001 25.132 17.9743 25.0061 17.9743 24.8571V23.5284C17.9743 23.3794 18.1001 23.2535 18.2489 23.2535H33.8056C33.9545 23.2535 34.0802 23.3794 34.0802 23.5284V24.8571ZM33.5406 18.9175C33.2757 19.0252 33.1026 19.2827 33.1026 19.5687V21.8473H30.2895V17.6101C30.2895 17.2217 29.9748 16.907 29.5864 16.907C29.198 16.907 28.8833 17.2217 28.8833 17.6101V21.8473H26.7305L26.7318 17.6101C26.7318 17.2217 26.4171 16.907 26.0287 16.907C25.6403 16.907 25.3256 17.2217 25.3256 17.6101L25.3243 21.8473H23.1714V17.6101C23.1714 17.2217 22.8567 16.907 22.4683 16.907C22.0798 16.907 21.7651 17.2217 21.7651 17.6101V21.8473H18.9521V19.5687C18.9521 19.2827 18.7788 19.0252 18.5141 18.9175C15.7884 17.8078 15.2014 15.4721 15.527 13.8089C15.8622 12.0962 17.3364 10.0962 20.3878 10.0962H21.3629C21.6418 10.0962 21.8942 9.93153 22.0064 9.67634C22.5252 8.49771 24.1033 7.71706 26.0286 7.68593C27.9524 7.71706 29.5293 8.49771 30.048 9.67634C30.1602 9.93153 30.4128 10.0962 30.6915 10.0962H31.6666C34.7181 10.0962 36.1922 12.0962 36.5276 13.809C36.8532 15.4721 36.2662 17.8079 33.5406 18.9175ZM33.7897 30.439C34.7254 30.439 35.4866 31.199 35.4866 32.1333H35.4867V33.7225C35.4867 34.6583 34.7254 35.4195 33.7898 35.4195H28.064C27.6756 35.4195 27.3609 35.1048 27.3609 34.7164C27.3609 34.328 27.6756 34.0133 28.064 34.0133H33.7898C33.95 34.0133 34.0804 33.8828 34.0804 33.7225V32.1333C34.0804 31.9771 33.9473 31.8452 33.7898 31.8452H18.265C18.1075 31.8452 17.9744 31.9771 17.9744 32.1333V33.7225C17.9744 33.8828 18.1048 34.0133 18.265 34.0133H24.6365C25.0249 34.0133 25.3396 34.328 25.3396 34.7164C25.3396 35.1048 25.0249 35.4195 24.6365 35.4195H18.265C17.3293 35.4195 16.5681 34.6582 16.5681 33.7225V32.1333C16.5681 31.199 17.3294 30.439 18.265 30.439H33.7897Z" fill="url(#paint0_linear)"/>
<defs>
<linearGradient id="paint0_linear" x1="3.34091" y1="20.6758" x2="44.4291" y2="20.6758" gradientUnits="userSpaceOnUse">
<stop stop-color="#47B7E5"/>
<stop offset="1" stop-color="#5369F6"/>
</linearGradient>
</defs>
</svg>
