<svg width="48" height="48" viewBox="0 0 48 48" fill="none" xmlns="http://www.w3.org/2000/svg">
<path fill-rule="evenodd" clip-rule="evenodd" d="M14.7356 0.625286L14.0357 1.25057V4.60714V7.96371L14.7356 8.589L15.4354 9.21429H24H32.5646L33.2644 8.589L33.9643 7.96371V4.60714V1.25057L33.2644 0.625286L32.5646 0H24H15.4354L14.7356 0.625286ZM32.5245 4.49807C32.577 7.02943 32.5386 7.42264 32.2157 7.65879C31.74 8.00657 16.4869 8.05136 15.843 7.70679C15.4652 7.5045 15.4286 7.23343 15.4286 4.63521C15.4286 3.06814 15.4939 1.72029 15.5739 1.64036C15.6538 1.56043 19.4869 1.52036 24.0917 1.55121L32.4643 1.60714L32.5245 4.49807ZM5.66164 4.26343C4.46679 4.80621 4.12843 5.29521 1.92107 9.66943C0.023142 13.4301 4.57812e-07 13.4951 0.00214332 15.0416C0.00471474 16.9759 0.626144 18.4584 1.84393 19.4353L2.67857 20.1047L2.71414 30.9452L2.74993 41.7857H2.2215C1.44129 41.7857 0.547286 42.3191 0.256071 42.9583C0.115286 43.2673 0 44.2464 0 45.1337C0 46.6314 0.0449992 46.7923 0.626356 47.3736L1.25271 48H24H46.7473L47.3736 47.3736C47.955 46.7923 48 46.6314 48 45.1337C48 44.2464 47.8847 43.2673 47.7439 42.9583C47.3955 42.1933 46.5193 41.7857 45.2229 41.7857H44.139L44.1945 31.0356L44.25 20.2856L44.8929 20.0799C46.848 19.4537 47.9944 17.5933 47.9979 15.0416C48 13.4951 47.9769 13.4301 46.0789 9.66943C45.0225 7.57586 43.9453 5.59221 43.6851 5.26157C42.8415 4.18907 41.7602 3.86679 39 3.86507C37.6446 3.86443 36.4067 3.94543 36.2492 4.04529C36.0915 4.14536 35.9951 4.45714 36.0349 4.7385C36.1059 5.24121 36.1549 5.25193 38.8929 5.35714C40.5874 5.42229 41.8689 5.57293 42.1641 5.74157C42.4667 5.91429 43.2945 7.3065 44.3606 9.43543C45.3015 11.3145 46.0714 12.9015 46.0714 12.9617C46.0714 13.0221 36.1393 13.0714 24 13.0714C11.8607 13.0714 1.92857 13.0221 1.92857 12.9617C1.92857 12.9015 2.6985 11.3145 3.63943 9.43543C4.7055 7.3065 5.53329 5.91429 5.83586 5.74157C6.13114 5.57293 7.41257 5.42229 9.10714 5.35714C11.8451 5.25193 11.8941 5.24121 11.9651 4.7385C12.0049 4.45714 11.9085 4.14536 11.7508 4.04529C11.5933 3.94543 10.3554 3.86443 9 3.86507C7.06071 3.86636 6.3495 3.95121 5.66164 4.26343ZM7.67379 15.7764C7.5885 17.1178 7.5345 17.2412 6.69279 18.0264C5.8965 18.7693 5.685 18.8571 4.69436 18.8571C2.6535 18.8571 1.5 17.6267 1.5 15.4498V14.3571H4.632H7.76421L7.67379 15.7764ZM15.4543 15.6354C15.3347 17.8798 14.1666 18.9834 12.0926 18.8113C10.2557 18.6589 9.21429 17.4369 9.21429 15.4335V14.3458L12.3656 14.4049L15.5166 14.4643L15.4543 15.6354ZM23.3162 15.2621C23.4088 16.3802 22.6941 17.8879 21.8181 18.4221C21.3774 18.6909 20.7326 18.8559 20.121 18.8563C18.2571 18.8578 16.9296 17.4075 16.929 15.3692L16.9286 14.3458L20.0893 14.4049L23.25 14.4643L23.3162 15.2621ZM31.071 15.375C31.0704 17.4077 29.7407 18.8578 27.879 18.8563C26.5704 18.8552 25.5861 18.2359 25.0637 17.0848C24.6585 16.1923 24.5066 14.7793 24.7858 14.5001C24.8642 14.4214 26.3106 14.3571 28.0001 14.3571H31.0714L31.071 15.375ZM38.7857 15.4393C38.7857 17.4366 37.7424 18.6591 35.9074 18.8113C34.5621 18.9229 33.4217 18.3799 32.9059 17.3826C32.6649 16.9161 32.4626 15.2769 32.5524 14.5179C32.5629 14.4296 33.9696 14.3571 35.6786 14.3571H38.7857V15.4393ZM46.5 15.4498C46.5 17.6267 45.3465 18.8571 43.3056 18.8571C42.315 18.8571 42.1035 18.7693 41.3072 18.0264C40.4655 17.2412 40.4115 17.1178 40.3262 15.7764L40.2358 14.3571H43.368H46.5V15.4498ZM10.5341 19.9256C12.2366 20.6983 14.0704 20.388 15.4264 19.098L16.2769 18.2889L16.8707 18.9214C18.6047 20.7692 21.4502 20.8123 23.3036 19.0185L24 18.3446L24.6964 19.0185C26.5498 20.8123 29.3953 20.7692 31.1293 18.9214L31.7231 18.2889L32.5736 19.098C33.4633 19.9444 34.5126 20.3539 35.7973 20.3559C36.7249 20.3574 38.6929 19.4124 39.1202 18.7601L39.4322 18.2841L40.2538 19.0656C40.7057 19.4955 41.4039 19.9414 41.8056 20.0565L42.5357 20.2661L42.5912 31.0258L42.6467 41.7857H41.7941H40.9414L40.8814 32.2326C40.8238 23.0604 40.8049 22.6674 40.4055 22.3755C40.0759 22.1344 39 22.0714 35.2213 22.0714C30.5366 22.0714 30.447 22.0798 30.1194 22.5478C29.8296 22.9611 29.7857 24.2612 29.7857 32.4049V41.7857H28.9286H28.0714V32.3205C28.0714 23.8136 28.0354 22.8154 27.7168 22.4634C27.3825 22.0939 26.7645 22.0714 16.9363 22.0714C8.27271 22.0714 6.44014 22.1229 6.0945 22.3755C5.69529 22.6674 5.676 23.0614 5.61664 32.2326L5.5545 41.7857H4.81307H4.07143V31.0993V20.4129L4.99071 20.3094C6.18214 20.175 7.3905 19.5939 7.98857 18.8672L8.46429 18.2895L9.03407 18.8966C9.34736 19.2302 10.0224 19.6935 10.5341 19.9256ZM11.7816 24.375C11.778 25.2553 11.6188 25.6226 10.6031 27.0928C9.957 28.0277 9.42857 28.9198 9.42857 29.0749C9.42857 29.2301 9.62143 29.55 9.85714 29.7857C10.2313 30.1599 10.5714 30.2143 12.5357 30.2143C14.5001 30.2143 14.8401 30.1599 15.2143 29.7857C15.45 29.55 15.6429 29.274 15.6429 29.1722C15.6429 29.0704 15.1142 28.1786 14.4681 27.1901C13.4659 25.6564 13.293 25.2435 13.2896 24.375L13.2857 23.3571H16.9286H20.5714V24.2886C20.5714 25.0614 20.3706 25.5201 19.3929 26.9809C18.7446 27.9493 18.2143 28.923 18.2143 29.1444C18.2143 29.9263 19.0217 30.2143 21.2143 30.2143C23.4193 30.2143 24.2143 29.9265 24.2143 29.1285C24.2143 28.8984 23.6775 27.9032 23.0211 26.9173C22.0046 25.3896 21.8383 25.0016 21.8961 24.2944L21.9643 23.4643H24.3214H26.6786L26.7351 30.0536L26.7919 36.6429H20.3679C14.2399 36.6429 13.9335 36.6619 13.7222 37.0566C13.5551 37.3689 13.5834 37.5527 13.8371 37.8066C14.1274 38.0968 15.0358 38.1429 20.4795 38.1429H26.7857V39.9643V41.7857H16.9286H7.07143V39.9643V38.1429H9.09193C10.6429 38.1429 11.1904 38.0646 11.4491 37.8062C12.2822 36.9729 11.6359 36.6429 9.17143 36.6429H7.07143V30V23.3571H9.42857H11.7857L11.7816 24.375ZM39.4286 32.5714V41.7857H35.3571H31.2857V32.5714V23.3571H35.3571H39.4286V32.5714ZM13.1501 27.6384C13.4604 28.1072 13.7143 28.5411 13.7143 28.6026C13.7143 28.6639 13.1839 28.7143 12.5357 28.7143C11.8875 28.7143 11.3571 28.6639 11.3571 28.6026C11.3571 28.479 12.4556 26.7857 12.5357 26.7857C12.5634 26.7857 12.8398 27.1693 13.1501 27.6384ZM22.1704 28.125L22.5493 28.7143H21.2286H19.908L20.5828 27.7333C21.3238 26.6567 21.2076 26.628 22.1704 28.125ZM33.051 30.8919C32.6514 31.2915 32.7049 33.7457 33.1224 34.1634C33.918 34.959 34.3213 34.296 34.242 32.3233C34.1861 30.9354 34.1278 30.7427 33.7474 30.6883C33.5104 30.6542 33.1969 30.7459 33.051 30.8919ZM46.4559 44.9464L46.5189 46.5H24.0094H1.5V45.0358C1.5 44.2303 1.56471 43.5066 1.64379 43.4276C1.72286 43.3485 11.8239 43.3082 24.0902 43.3382L46.3929 43.3929L46.4559 44.9464Z" fill="url(#paint0_linear)"/>
<defs>
<linearGradient id="paint0_linear" x1="-1.42658" y1="20.6758" x2="49.1435" y2="20.6758" gradientUnits="userSpaceOnUse">
<stop stop-color="#47B7E5"/>
<stop offset="1" stop-color="#5369F6"/>
</linearGradient>
</defs>
</svg>
