<svg width="56" height="56" viewBox="0 0 56 56" fill="none" xmlns="http://www.w3.org/2000/svg">
<rect width="56" height="56" rx="10" fill="#D1F7FF"/>
<path d="M16.9768 32.665C13.472 32.665 10.6206 35.5164 10.6206 39.0212C10.6206 42.5272 13.472 45.3795 16.9768 45.3795C20.4828 45.3795 23.3351 42.5272 23.3351 39.0212C23.3351 35.5164 20.4828 32.665 16.9768 32.665ZM16.9768 43.984C14.2415 43.984 12.016 41.7577 12.016 39.0212C12.016 36.2859 14.2414 34.0605 16.9768 34.0605C19.7133 34.0605 21.9396 36.2858 21.9396 39.0212C21.9396 41.7577 19.7133 43.984 16.9768 43.984Z" fill="#0E2843"/>
<path d="M19.5503 36.4494C19.2778 36.177 18.8361 36.177 18.5635 36.4494L16.9772 38.0357L15.3909 36.4494C15.1183 36.177 14.6767 36.177 14.4041 36.4494C14.1316 36.7219 14.1316 37.1637 14.4041 37.4362L15.9904 39.0225L14.4041 40.6089C14.1316 40.8813 14.1316 41.3231 14.4041 41.5957C14.5403 41.7319 14.7189 41.8 14.8974 41.8C15.0761 41.8 15.2545 41.7319 15.3908 41.5957L16.9771 40.0094L18.5634 41.5957C18.6997 41.7319 18.8783 41.8 19.0568 41.8C19.2354 41.8 19.4139 41.7319 19.5502 41.5957C19.8226 41.3232 19.8226 40.8814 19.5502 40.6089L17.9639 39.0225L19.5502 37.4362C19.8228 37.1637 19.8228 36.7219 19.5503 36.4494Z" fill="#0E2843"/>
<path d="M36.9675 33.9807C38.474 32.234 39.2148 30.0766 39.0555 27.883C38.8888 25.5879 37.7504 23.4555 35.8499 21.8787C35.5827 21.6569 35.1928 21.6656 34.9356 21.899C34.8585 21.969 34.7828 22.0398 34.7085 22.1116C34.2194 20.4935 33.2271 19.0172 31.829 17.8578C31.5618 17.6361 31.172 17.6448 30.9148 17.878C30.8376 17.948 30.7619 18.019 30.6876 18.0908C30.1985 16.4726 29.2061 14.9963 27.8081 13.8369C27.5409 13.6152 27.1511 13.6239 26.8939 13.8572C26.8167 13.9273 26.7409 13.9982 26.6667 14.07C26.1772 12.4513 25.1841 10.9748 23.7848 9.81576C23.5176 9.59422 23.128 9.60295 22.8709 9.83634C21.8348 10.7761 21.0623 11.8781 20.5693 13.0595C18.6734 11.346 16.0971 10.4889 13.332 10.6856C12.9857 10.7103 12.7101 10.9858 12.6855 11.3322C12.4888 14.0985 13.3462 16.6744 15.0602 18.5703C13.8781 19.0635 12.7758 19.8365 11.8361 20.8733C11.6029 21.1305 11.5943 21.5201 11.816 21.7873C12.9765 23.1867 14.4524 24.1791 16.0691 24.6675C15.9975 24.7416 15.9268 24.8171 15.8569 24.8942C15.6238 25.1514 15.6152 25.541 15.8368 25.8082C16.9973 27.2075 18.4733 28.2001 20.09 28.6884C20.0185 28.7624 19.9478 28.8379 19.878 28.9148C19.6446 29.1721 19.636 29.5617 19.8577 29.8291C21.0182 31.2284 22.4942 32.2209 24.1109 32.7093C24.0394 32.7833 23.9687 32.8588 23.8989 32.9358C23.6656 33.193 23.6569 33.5826 23.8786 33.8499C25.4537 35.7499 27.5849 36.8885 29.8795 37.0557C30.0759 37.0701 30.2719 37.0772 30.4676 37.0772C32.4573 37.0772 34.3897 36.3402 35.9809 34.9678L38.5858 37.5727C38.7221 37.7089 38.9006 37.7771 39.0792 37.7771C39.2578 37.7771 39.4363 37.7089 39.5726 37.5727C39.845 37.3002 39.845 36.8584 39.5726 36.5859L36.9675 33.9807ZM31.4048 19.3495C32.5833 20.4874 33.3428 21.9078 33.5793 23.4231C32.3816 25.108 31.8432 27.0857 32.0332 29.0465L29.9446 26.9579C28.8183 24.3907 29.3904 21.4766 31.4048 19.3495ZM27.3839 15.3285C28.5623 16.4665 29.3218 17.8869 29.5584 19.4022C28.3607 21.0871 27.8222 23.0648 28.0124 25.0255L25.9237 22.9369C24.7962 20.371 25.3684 17.4567 27.3839 15.3285ZM23.3613 11.3075C24.5407 12.4451 25.3008 13.8656 25.5375 15.3812C24.3392 17.0663 23.8005 19.0437 23.9905 21.0038L21.9027 18.9161C20.7748 16.3493 21.3462 13.4349 23.3613 11.3075ZM14.0536 12.0536C14.0709 12.0535 14.0881 12.0535 14.1054 12.0535C16.4615 12.0535 18.603 12.945 20.1027 14.5571C19.854 15.7456 19.8729 16.9766 20.1762 18.1767C18.9764 17.874 17.7459 17.8552 16.5582 18.1036C14.9335 16.5929 14.0404 14.4306 14.0536 12.0536ZM13.3075 21.363C15.4334 19.3483 18.3478 18.7762 20.9161 19.9029L23.0045 21.9912C21.0432 21.8009 19.065 22.3395 17.3804 23.5376C15.8667 23.3026 14.4466 22.5431 13.3075 21.363ZM17.3283 25.3838C19.4544 23.3692 22.3687 22.7971 24.937 23.9238L27.0257 26.0125C25.0649 25.8224 23.087 26.361 21.402 27.5587C19.8881 27.3238 18.4675 26.5641 17.3283 25.3838ZM21.3494 29.4049C23.4765 27.3905 26.3909 26.8184 28.9579 27.9446L31.0466 30.0333C29.0856 29.8432 27.1078 30.3817 25.4229 31.5795C23.909 31.3446 22.4886 30.5851 21.3494 29.4049ZM29.981 35.6639C28.2623 35.5385 26.6456 34.7496 25.3701 33.426C27.4972 31.4112 30.4113 30.8392 32.9789 31.9656L34.9909 33.9776C33.5394 35.1967 31.7703 35.7943 29.981 35.6639ZM35.9775 32.9908L33.9654 30.9787C32.8392 28.4115 33.4115 25.4973 35.4257 23.3702C36.75 24.6471 37.5388 26.2647 37.6636 27.984C37.7935 29.7728 37.1958 31.5402 35.9775 32.9908Z" fill="#0E2843"/>
<path d="M46.1404 43.1537L43.9985 41.0138C43.7259 40.7413 43.2841 40.7416 43.0117 41.0142C42.7394 41.2868 42.7396 41.7286 43.0122 42.001L45.1541 44.141C45.2903 44.2771 45.4688 44.3451 45.6472 44.3451C45.8259 44.3451 46.0046 44.2769 46.1408 44.1405C46.4132 43.8679 46.413 43.4261 46.1404 43.1537Z" fill="#0E2843"/>
<path d="M40.7947 38.7986C40.5222 39.0711 40.5222 39.5129 40.7947 39.7854L40.7966 39.7874C40.9326 39.9234 41.1105 39.9912 41.2886 39.9912C41.4672 39.9912 41.6459 39.9229 41.7824 39.7863C42.0549 39.5138 42.054 39.0711 41.7814 38.7986C41.5089 38.5261 41.0672 38.5261 40.7947 38.7986Z" fill="#0E2843"/>
</svg>
