<svg width="64" height="64" viewBox="0 0 64 64" fill="none" xmlns="http://www.w3.org/2000/svg">
<rect width="64" height="64" rx="10" fill="#031D44"/>
<path fill-rule="evenodd" clip-rule="evenodd" d="M27.0751 22.2914C25.8095 22.8239 16.8193 26.5868 15.2518 27.2401C14.3359 27.6219 13.523 27.9847 13.4455 28.0465C13.2522 28.2004 13.1806 28.541 13.2984 28.7458C13.3521 28.8392 14.104 29.5447 14.9692 30.3136L16.5424 31.7116L14.9964 33.0713C14.1461 33.8191 13.3937 34.5256 13.3243 34.6412C13.1873 34.8696 13.229 35.1626 13.4263 35.3559C13.4912 35.4196 14.2939 35.7811 15.21 36.1592L16.8754 36.8465V42.0516C16.8754 45.7567 16.9024 47.3092 16.9692 47.4387C17.0621 47.6187 17.5152 47.8388 24.036 50.8716C24.9748 51.3082 26.9606 52.2349 28.449 52.9309C30.4395 53.8616 31.232 54.1967 31.4464 54.1981C31.663 54.1995 32.2727 53.949 33.8194 53.2228C35.9074 52.2425 37.5111 51.4957 40.6887 50.024C45.1472 47.959 45.8288 47.6224 45.9235 47.4389C45.9904 47.3091 46.0177 45.7612 46.0182 42.0573L46.0188 36.8579L47.6872 36.1614C48.6047 35.7783 49.4071 35.4143 49.4702 35.3524C49.664 35.1623 49.7047 34.8682 49.5686 34.6412C49.4992 34.5256 48.7472 33.8195 47.8974 33.0721L46.3524 31.7132L47.969 30.2776C48.9569 29.4005 49.6071 28.7655 49.6409 28.6453C49.6728 28.5314 49.6491 28.361 49.5845 28.2408C49.4657 28.0196 49.2252 27.9 47.1832 27.046C46.565 26.7875 44.8789 26.082 43.4363 25.4783C35.5206 22.1658 35.1762 22.0276 34.9532 22.0752C34.8216 22.1032 34.0843 22.6947 33.0909 23.5691L31.4464 25.0167L29.802 23.5664C28.5555 22.4671 28.0971 22.1077 27.9078 22.0811C27.7353 22.057 27.4775 22.1221 27.0751 22.2914ZM28.904 24.611C29.5881 25.2162 30.1282 25.7289 30.1042 25.7501C30.0801 25.7713 28.9016 26.273 27.4854 26.8649C26.0691 27.4568 23.2995 28.6155 21.3306 29.4398L17.7511 30.9386L16.5036 29.8369C15.6977 29.1251 15.2849 28.71 15.3373 28.6641C15.3818 28.625 16.5423 28.1242 17.9162 27.5513C23.5038 25.221 24.8043 24.6755 26.1176 24.1118C26.8732 23.7875 27.5294 23.5196 27.5758 23.5163C27.6221 23.5132 28.2198 24.0057 28.904 24.611ZM39.9035 25.4277C42.4189 26.4822 45.2009 27.6463 46.0856 28.0146L47.694 28.6845L46.4167 29.8126L45.1394 30.9408L44.6834 30.7454C44.4326 30.6379 43.1689 30.1078 41.8752 29.5673C40.5814 29.0269 38.4458 28.1337 37.1292 27.5824C35.8126 27.0312 34.3047 26.3999 33.7784 26.1795C33.2521 25.9592 32.8042 25.7637 32.7832 25.7452C32.7423 25.709 35.1999 23.5105 35.2813 23.5105C35.308 23.5105 37.3879 24.3733 39.9035 25.4277ZM34.4744 27.8984C36.0834 28.5726 38.7674 29.6946 40.4389 30.3916C42.1104 31.0886 43.4659 31.687 43.4512 31.7213C43.4364 31.7556 42.406 32.2076 41.1614 32.7258C39.9168 33.2441 37.2452 34.3609 35.2246 35.2078C33.204 36.0547 31.5108 36.7475 31.4621 36.7475C31.4134 36.7475 30.013 36.1804 28.3501 35.4872C21.7567 32.7386 20.4754 32.2016 19.9291 31.957L19.361 31.7027L20.6785 31.142C21.4032 30.8336 23.7946 29.8303 25.9927 28.9125C28.1909 27.9948 30.2891 27.1182 30.6554 26.9646C31.0218 26.811 31.3728 26.6825 31.4353 26.679C31.4978 26.6756 32.8654 27.2243 34.4744 27.8984ZM21.4132 34.0116C23.3366 34.8186 26.0691 35.9632 27.4854 36.5552C28.9016 37.1472 30.0801 37.6489 30.1042 37.6702C30.1505 37.711 27.6983 39.9097 27.6063 39.9097C27.5769 39.9097 26.6209 39.5163 25.4821 39.0355C24.3433 38.5547 21.6131 37.4107 19.4149 36.4934C17.2168 35.576 15.382 34.794 15.3376 34.7556C15.2428 34.6734 17.7023 32.4625 17.8328 32.5125C17.8787 32.5301 19.4898 33.2046 21.4132 34.0116ZM46.4184 33.6085L47.6916 34.7347L45.7513 35.5454C44.6841 35.9913 41.8883 37.1614 39.5384 38.1456L35.2657 39.9352L34.0222 38.8386C33.3383 38.2356 32.7787 37.7233 32.7787 37.7004C32.7787 37.6617 34.0352 37.1303 42.007 33.7979C43.6251 33.1215 44.9709 32.5488 44.9975 32.5252C45.0243 32.5015 45.0684 32.4823 45.0957 32.4823C45.1229 32.4823 45.7182 32.9891 46.4184 33.6085ZM22.4124 39.174C26.7433 40.9935 27.7033 41.3805 27.8854 41.3805C28.0027 41.3805 28.5078 40.9899 29.3798 40.2253L30.6971 39.07V45.7838V52.4976L29.344 51.8759C24.0619 49.4491 18.3606 46.7728 18.3675 46.7232C18.3711 46.6969 18.3741 44.6089 18.3741 42.0834V37.4915L19.1443 37.8081C19.5679 37.9822 21.0385 38.5969 22.4124 39.174ZM44.52 42.1504L44.5237 46.7709L43.7926 47.1164C42.0334 47.9479 32.4934 52.3775 32.2583 52.472C32.2239 52.4859 32.1958 49.4761 32.1958 45.7836V39.07L33.5131 40.2253C34.4139 41.0153 34.8884 41.3805 35.0139 41.3805C35.1808 41.3805 37.2767 40.5271 42.5621 38.3069C43.6154 37.8645 44.486 37.5087 44.4967 37.5162C44.5075 37.5237 44.518 39.6091 44.52 42.1504Z" fill="url(#paint0_linear)"/>
<rect x="16.5518" y="12.1377" width="28.6897" height="13.2414" rx="4" fill="url(#paint1_linear)"/>
<path d="M25.2803 17.2458C25.1338 17.0797 24.9407 16.9492 24.701 16.8542C24.468 16.7534 24.2416 16.703 24.0219 16.703C23.9087 16.703 23.7922 16.7119 23.6724 16.7297C23.5592 16.7475 23.456 16.7831 23.3628 16.8365C23.2695 16.8839 23.1896 16.9492 23.1231 17.0322C23.0631 17.1093 23.0332 17.2102 23.0332 17.3348C23.0332 17.4416 23.0565 17.5306 23.1031 17.6017C23.1564 17.6729 23.2296 17.7352 23.3228 17.7886C23.4227 17.842 23.5392 17.8924 23.6724 17.9399C23.8055 17.9814 23.9553 18.0259 24.1218 18.0734C24.3615 18.1446 24.6112 18.2247 24.8708 18.3136C25.1305 18.3967 25.3669 18.5094 25.5799 18.6518C25.793 18.7942 25.9694 18.9722 26.1092 19.1857C26.2491 19.3934 26.319 19.6544 26.319 19.9688C26.319 20.3307 26.2424 20.6451 26.0893 20.9121C25.9428 21.1731 25.743 21.3897 25.49 21.5617C25.237 21.7337 24.9474 21.8613 24.6211 21.9443C24.2949 22.0274 23.9587 22.0689 23.6124 22.0689C23.1064 22.0689 22.617 21.9918 22.1443 21.8376C21.6716 21.6774 21.2788 21.452 20.9658 21.1613L22.0844 20.1468C22.2575 20.3366 22.4839 20.4968 22.7635 20.6273C23.0498 20.7519 23.3328 20.8142 23.6124 20.8142C23.7389 20.8142 23.8621 20.8023 23.982 20.7786C24.1018 20.7549 24.205 20.7163 24.2916 20.6629C24.3848 20.6095 24.458 20.5383 24.5113 20.4494C24.5645 20.3604 24.5912 20.2536 24.5912 20.129C24.5912 20.0103 24.5579 19.9095 24.4913 19.8264C24.4247 19.7434 24.3282 19.6692 24.2017 19.604C24.0818 19.5328 23.9287 19.4705 23.7423 19.4171C23.5625 19.3578 23.3561 19.2955 23.1231 19.2302C22.8967 19.165 22.6736 19.0878 22.4539 18.9989C22.2409 18.9099 22.0478 18.7971 21.8747 18.6607C21.7082 18.5183 21.5717 18.3492 21.4652 18.1535C21.3653 17.9518 21.3154 17.7085 21.3154 17.4238C21.3154 17.0738 21.3953 16.7742 21.5551 16.525C21.7149 16.2758 21.9246 16.0712 22.1843 15.911C22.4439 15.7508 22.7369 15.6351 23.0631 15.5639C23.3894 15.4868 23.719 15.4482 24.0519 15.4482C24.4514 15.4482 24.8575 15.5135 25.2703 15.644C25.6898 15.7745 26.056 15.9673 26.3689 16.2224L25.2803 17.2458Z" fill="#031D44"/>
<path d="M34.1472 18.7408C34.1472 19.2925 34.0306 19.7701 33.7976 20.1735C33.5712 20.571 33.2683 20.9002 32.8888 21.1613C32.5159 21.4164 32.0931 21.6062 31.6204 21.7308C31.1477 21.8494 30.6683 21.9088 30.1822 21.9088H27.5456V15.6084H30.1023C30.6017 15.6084 31.0944 15.6618 31.5804 15.7686C32.0665 15.8695 32.4993 16.0415 32.8788 16.2847C33.2583 16.522 33.5646 16.8424 33.7976 17.2458C34.0306 17.6492 34.1472 18.1475 34.1472 18.7408ZM32.3694 18.7408C32.3694 18.3848 32.3029 18.0912 32.1697 17.8598C32.0432 17.6225 31.8701 17.4356 31.6504 17.2992C31.4373 17.1568 31.1909 17.056 30.9113 16.9966C30.6383 16.9373 30.3553 16.9076 30.0624 16.9076H29.2135V20.5917H30.0224C30.3287 20.5917 30.6217 20.5621 30.9013 20.5027C31.1876 20.4375 31.4373 20.3337 31.6504 20.1913C31.8701 20.0489 32.0432 19.8591 32.1697 19.6218C32.3029 19.3845 32.3694 19.0908 32.3694 18.7408Z" fill="#031D44"/>
<path d="M39.7042 21.9088L37.0776 19.0078H37.0576V21.9088H35.3797V15.6084H37.0576V18.1713H37.0875L39.6143 15.6084H41.7516L38.7055 18.5094L41.9313 21.9088H39.7042Z" fill="#031D44"/>
<defs>
<linearGradient id="paint0_linear" x1="13.2412" y1="39.6819" x2="48.9213" y2="39.4838" gradientUnits="userSpaceOnUse">
<stop stop-color="#6964D3"/>
<stop offset="0.197917" stop-color="#5564F0"/>
<stop offset="0.40625" stop-color="#488AF4"/>
<stop offset="0.666667" stop-color="#3DBAE3"/>
<stop offset="0.854167" stop-color="#3BDCD6"/>
<stop offset="1" stop-color="#35FCD0"/>
</linearGradient>
<linearGradient id="paint1_linear" x1="16.5518" y1="19.3965" x2="44.6611" y2="19.0981" gradientUnits="userSpaceOnUse">
<stop stop-color="#6964D3"/>
<stop offset="0.197917" stop-color="#5564F0"/>
<stop offset="0.40625" stop-color="#488AF4"/>
<stop offset="0.666667" stop-color="#3DBAE3"/>
<stop offset="0.854167" stop-color="#3BDCD6"/>
<stop offset="1" stop-color="#35FCD0"/>
</linearGradient>
</defs>
</svg>
