<svg width="120" height="90" viewBox="0 0 120 90" fill="none" xmlns="http://www.w3.org/2000/svg">
<g style="mix-blend-mode:color" opacity="0.2">
<ellipse cx="67" cy="48" rx="50" ry="30" fill="#FF3366"/>
</g>
<path fill-rule="evenodd" clip-rule="evenodd" d="M53.6602 59.8741L63.1258 62.7956C67.2375 64.0645 69.9998 67.8185 70 72.1369V88.6811C70 89.4094 69.4122 89.9995 68.6868 89.9995C67.9613 89.9995 67.3735 89.4094 67.3735 88.6811V72.1372C67.3735 68.9839 65.3564 66.2428 62.3541 65.3162L52.508 62.2772L50.7703 64.6033L52.7451 66.5857C54.0011 67.8468 54.3112 69.7656 53.5168 71.3606L44.5964 89.271C44.3663 89.7328 43.9024 90 43.4207 90C43.2234 90 43.0229 89.9552 42.8343 89.8604C42.1856 89.5347 41.9226 88.7428 42.2471 88.0916L51.168 70.181C51.4558 69.6028 51.3436 68.9071 50.888 68.4499L48.1078 65.6588C47.6459 65.1948 47.5939 64.4602 47.9859 63.9355L50.9612 59.9532C51.0601 59.8206 51.0477 59.6848 51.0314 59.6153C51.0149 59.5463 50.9657 59.419 50.818 59.3448L45.6457 56.7485L36.261 89.0499C36.0976 89.6124 35.5839 89.9991 35.0003 89.9991C34.4167 89.9991 33.9031 89.6124 33.7396 89.0499L29.6447 74.9558C29.4416 74.257 29.8413 73.525 30.5377 73.3211C31.2341 73.1172 31.963 73.5185 32.1661 74.2178L35.0003 83.9725L40.0482 66.5984C38.4338 67.1618 36.7271 67.4541 35.0004 67.4541C33.2745 67.4541 31.5671 67.1609 29.9523 66.5975L30.5279 68.5785C30.731 69.2776 30.3313 70.0094 29.6349 70.2133C28.9383 70.4167 28.2096 70.0159 28.0065 69.3166L24.355 56.7485L19.1826 59.3448C19.035 59.419 18.9856 59.5461 18.9693 59.6155C18.953 59.6848 18.9406 59.8206 19.0395 59.9532L22.0148 63.9355C22.4068 64.4604 22.3548 65.1948 21.8927 65.6587L19.1127 68.4497C18.6573 68.9071 18.5447 69.6026 18.8327 70.181L27.7531 88.0914C28.0776 88.7428 27.8146 89.5345 27.1658 89.8603C26.9772 89.9548 26.7769 89.9998 26.5796 89.9998C26.0977 89.9998 25.6341 89.7328 25.404 89.2709L23.681 85.8113V88.6811C23.681 89.4094 23.093 89.9995 22.3678 89.9995H8.33154C7.60628 89.9995 7.0183 89.4094 7.0183 88.6811V80.2266C7.0183 79.4984 7.60628 78.9083 8.33154 78.9083H14.0364V77.4085C14.0364 76.6803 14.6244 76.0902 15.3497 76.0902C16.0749 76.0902 16.6629 76.6803 16.6629 77.4085V78.9083H20.2428L16.4834 71.3604C15.689 69.7652 15.9993 67.8464 17.2554 66.5855L19.2298 64.6033L17.492 62.277L7.64603 65.3159C4.64361 66.2426 2.62648 68.9837 2.62648 72.1369V88.6811C2.62648 89.4094 2.0385 89.9995 1.31324 89.9995C0.587981 89.9995 0 89.4094 0 88.6811V72.1367C0 67.8183 2.76253 64.0645 6.87402 62.7954L16.3397 59.8739C16.3244 59.5869 16.3453 59.2965 16.4127 59.0098C16.6198 58.1289 17.2011 57.3915 18.0075 56.9865L23.8615 54.0484V49.8601C19.4808 46.8025 16.3981 41.9953 15.6281 36.4544H14.6479C13.2877 36.4544 11.9841 35.8736 11.0713 34.8607C10.159 33.8484 9.71411 32.4845 9.85052 31.1185C10.0188 29.4326 11.1217 27.9999 12.6328 27.2765V18.6969C12.6328 14.6351 13.8701 12.5695 14.5237 11.7618C13.01 10.1007 12.4232 8.73329 12.3833 8.63731C12.2392 8.2912 12.2488 7.89974 12.4098 7.56119C12.5707 7.22246 12.8678 6.96881 13.2264 6.86351C16.6429 5.86053 19.0531 4.76332 21.3842 3.70215L21.3842 3.70214L21.3843 3.70211C25.7477 1.71562 29.5163 0 37.7195 0C41.5726 0 45.046 1.06751 47.4104 2.81828L47.6324 2.81811C53.0004 2.81811 57.3673 7.20224 57.3673 12.591V27.2178C57.9538 27.4887 58.4873 27.8763 58.9287 28.3662C59.841 29.3781 60.2861 30.7418 60.1498 32.1078C59.9068 34.5454 57.7114 36.4545 55.152 36.4545H54.3714C53.6006 41.9937 50.5182 46.8004 46.1385 49.8583V54.0485L51.9923 56.9867C52.7987 57.3915 53.3798 58.1289 53.5871 59.0098C53.6545 59.2966 53.6756 59.587 53.6602 59.8741ZM9.64442 87.3628H21.0542V81.545H16.6625V81.6357C16.6625 82.3639 16.0746 82.954 15.3493 82.954C14.624 82.954 14.0361 82.3639 14.0361 81.6357V81.545H9.64442V87.3628ZM37.7195 2.6367C30.084 2.6367 26.7235 4.16652 22.4688 6.10344L22.4671 6.10424L22.467 6.10426C20.5253 6.98822 18.3649 7.97174 15.578 8.89114C16.4143 10.0518 18.0043 11.7901 20.6972 13.158C28.2646 17.0018 38.5434 15.054 45.8334 12.7428C46.3009 12.5955 46.8114 12.7202 47.1575 13.0679C47.3452 13.2563 51.7532 17.7515 51.7532 23.8636V25.2728C51.7532 26.0998 52.4233 26.7726 53.2471 26.7726H54.741V12.591C54.741 9.49459 52.7658 6.85367 50.0143 5.86825C50.1163 6.08727 50.2065 6.31033 50.282 6.53779C50.5114 7.22843 50.1395 7.97515 49.4515 8.20542C48.763 8.43534 48.0199 8.06251 47.7903 7.3717C46.894 4.67224 42.5645 2.6367 37.7195 2.6367ZM41.004 63.3079L43.5121 54.675V51.4031C40.937 52.6585 38.0489 53.3637 35.0001 53.3637C31.9509 53.3637 29.0628 52.6588 26.488 51.4043V54.675L28.9967 63.3094C30.8336 64.2972 32.9003 64.8177 35.0003 64.8177C37.1014 64.8177 39.1662 64.2965 41.004 63.3079ZM18.0665 33.7271C18.0665 43.1008 25.6628 50.7268 35.0001 50.7268C44.33 50.7268 51.9262 43.1064 51.9333 33.7398C51.9339 33.0121 52.5217 32.4225 53.2466 32.4225H53.2471C53.9722 32.4228 54.5598 33.0129 54.5598 33.7408V33.8178H55.1523C56.3791 33.8178 57.4263 32.9514 57.5367 31.8452C57.6 31.2098 57.4029 30.6026 56.9816 30.1352C56.5657 29.6738 55.972 29.4091 55.3527 29.4091H53.2473C50.9754 29.4091 49.1269 27.5536 49.1269 25.2726V23.8634C49.1269 19.9887 46.8508 16.7777 45.8086 15.5107C39.9041 17.3089 34.5324 18.1365 29.8326 17.9668C25.8228 17.8234 22.2806 16.961 19.3044 15.4038C18.2031 14.8276 17.2621 14.1983 16.4598 13.563C16.0805 14.1039 15.2593 15.6293 15.2593 18.6969V26.7724H16.7532C17.5769 26.7724 18.2472 26.0997 18.2472 25.2726V20.2966C18.2472 19.5684 18.8352 18.9783 19.5604 18.9783C20.2857 18.9783 20.8737 19.5684 20.8737 20.2966V25.2726C20.8737 27.5534 19.0253 29.4091 16.7532 29.4091H14.8485C13.6218 29.4091 12.5743 30.2755 12.4639 31.3815C12.4005 32.017 12.5976 32.6243 13.0189 33.0917C13.4348 33.5531 14.0285 33.8178 14.6479 33.8178H15.44V33.7271C15.44 32.9989 16.028 32.4088 16.7532 32.4088C17.4785 32.4088 18.0665 32.9989 18.0665 33.7271ZM25.1748 23.9543H27.9818C28.7071 23.9543 29.2952 24.5444 29.2952 25.2727C29.2952 26.001 28.7072 26.591 27.982 26.591H25.1748C24.4496 26.591 23.8616 26.001 23.8616 25.2727C23.8616 24.5444 24.4496 23.9543 25.1748 23.9543ZM26.5784 28.1814C25.8531 28.1814 25.2651 28.7715 25.2651 29.4997V30.909C25.2651 31.6372 25.8531 32.2273 26.5784 32.2273C27.3036 32.2273 27.8916 31.6372 27.8916 30.909V29.4997C27.8916 28.7717 27.3035 28.1814 26.5784 28.1814ZM43.4215 28.1814C42.6961 28.1814 42.1083 28.7715 42.1083 29.4997V30.909C42.1083 31.6372 42.6961 32.2273 43.4215 32.2273C44.1469 32.2273 44.7348 31.6372 44.7348 30.909V29.4997C44.7348 28.7717 44.1468 28.1814 43.4215 28.1814ZM44.8251 23.9543H42.018C41.2925 23.9543 40.7047 24.5444 40.7047 25.2727C40.7047 26.001 41.2927 26.591 42.018 26.591H44.8251C45.5506 26.591 46.1384 26.001 46.1384 25.2727C46.1384 24.5444 45.5506 23.9543 44.8251 23.9543ZM61.6691 79.6127H59.4734V77.4084C59.4734 76.6802 58.8856 76.0901 58.1602 76.0901C57.4347 76.0901 56.8469 76.6802 56.8469 77.4084V79.6127H54.651C53.9256 79.6127 53.3378 80.2028 53.3378 80.9311C53.3378 81.6593 53.9256 82.2494 54.651 82.2494H56.8469V84.4537C56.8469 85.182 57.4347 85.7721 58.1602 85.7721C58.8856 85.7721 59.4734 85.182 59.4734 84.4537V82.2494H61.6691C62.3946 82.2494 62.9824 81.6593 62.9824 80.9311C62.9824 80.2028 62.3942 79.6127 61.6691 79.6127ZM25.594 41.2252C30.8491 46.1551 38.9044 46.4198 42.8662 41.0512L40.8081 39.5205C38.0227 43.2948 31.8338 43.5594 27.3429 39.3464L25.594 41.2252Z" fill="url(#paint0_linear)"/>
<g style="mix-blend-mode:multiply" opacity="0.2">
<ellipse cx="67" cy="48" rx="50" ry="30" fill="url(#paint1_linear)"/>
</g>
<defs>
<linearGradient id="paint0_linear" x1="119.98" y1="90" x2="-16.3064" y2="-4.99024" gradientUnits="userSpaceOnUse">
<stop stop-color="#FC5C7D"/>
<stop offset="1" stop-color="#6A82FB"/>
</linearGradient>
<linearGradient id="paint1_linear" x1="188.4" y1="78" x2="98.8598" y2="-55.7327" gradientUnits="userSpaceOnUse">
<stop stop-color="#FC5C7D"/>
<stop offset="1" stop-color="#6A82FB"/>
</linearGradient>
</defs>
</svg>
