<svg width="120" height="90" viewBox="0 0 120 90" fill="none" xmlns="http://www.w3.org/2000/svg">
<ellipse opacity="0.2" cx="67" cy="48" rx="50" ry="30" fill="url(#paint0_linear)"/>
<path fill-rule="evenodd" clip-rule="evenodd" d="M78.3818 55.1726H87.1364C88.6909 55.1726 90 56.4807 90 58.1158V87.1386C90 88.6919 88.7727 90 87.1364 90H47.9455H46.4727H1.47273C0.654545 90 0 89.346 0 88.5284V58.1976C0 53.2105 3.6 48.9593 8.42727 47.9783L26.1 45.0351V41.4379C21.7636 38.9853 18.8182 34.3253 18.8182 28.9295H17.3455C14.9727 28.9295 13.0091 26.9674 13.0091 24.5965C13.0091 22.2256 14.9727 20.2635 17.3455 20.2635H17.9182L16.4455 17.4021C15.0545 14.6225 15.1364 11.4341 16.7727 8.73618C18 6.69232 19.9636 5.22074 22.2545 4.64846L24.5455 2.93162C28.8 -0.256798 34.6909 -0.910833 39.4364 1.29653L43.5273 3.17688C45.7364 4.15794 47.5364 5.79302 48.6818 7.91864C50.6455 11.1888 50.8909 15.1948 49.4182 18.6285L48.6 20.5088H49.3364C51.7091 20.5088 53.6727 22.4709 53.6727 24.8418C53.6727 27.2127 51.7091 29.1748 49.3364 29.1748H47.8636C47.8636 34.4888 44.9182 39.1488 40.5818 41.6832V45.2804L56.2909 47.8965C57.1091 47.079 58.2545 46.5067 59.4818 46.5067H74.0455C76.4182 46.5067 78.3818 48.4688 78.3818 50.8397V55.1726ZM49.3364 23.2885H47.8636V26.2316H49.3364C50.1545 26.2316 50.8091 25.5776 50.8091 24.76C50.8091 23.9425 50.1545 23.2885 49.3364 23.2885ZM75.5182 50.8397C75.5182 50.0221 74.8636 49.3681 74.0455 49.3681H61.6091C63.8182 50.5944 65.4545 52.72 66.2727 55.1726H75.5182V50.8397ZM63.2455 55.1726C62.2636 53.1288 60.3818 51.5755 58.0909 51.0849V55.1726H63.2455ZM87.1364 62.4488V58.1158H46.3909V62.4488C46.3909 66.4548 49.6636 69.7249 53.6727 69.7249H62.3455V65.3919C62.3455 64.5744 63 63.9204 63.8182 63.9204H69.6273C70.4454 63.9204 71.1 64.5744 71.1 65.3919V69.7249H79.8545C83.8636 69.7249 87.1364 66.4548 87.1364 62.4488ZM68.2364 74.0579V66.7818H65.2909V74.0579C65.2909 74.8754 65.9454 75.5295 66.7636 75.5295C67.5818 75.5295 68.2364 74.8754 68.2364 74.0579ZM17.4273 26.1499H18.9V23.2067H17.4273C16.6091 23.2067 15.9545 23.8607 15.9545 24.6783C15.9545 25.4958 16.6091 26.1499 17.4273 26.1499ZM19.3909 10.2895C18.3273 12.0881 18.1636 14.2955 19.1455 16.1758L19.9636 17.8109L21.9273 13.8867C22.1727 13.5597 22.5 13.2327 22.9091 13.1509C23.3182 13.0692 23.7273 13.1509 24.2182 13.5597L26.5091 15.2765C28.4727 16.7481 31.0091 17.5656 33.4636 17.5656C35.9182 17.5656 38.4545 16.7481 40.4182 15.2765L42.7091 13.5597C43.1182 13.3144 43.5273 13.2327 43.9364 13.3144C44.3455 13.3962 44.7545 13.6414 44.9182 14.0502L46.8 17.7292L46.8818 17.4839C47.9455 14.8678 47.7818 11.9246 46.3091 9.47197C45.3273 7.91864 44.0182 6.69232 42.3818 5.95653L38.2909 4.07618C34.7727 2.4411 30.5182 2.76811 27.2455 4.81197C29.4545 5.38425 31.4182 6.77408 32.7273 8.73618L33.2182 9.39021L30.7636 11.0253L30.2727 10.3713C29.0455 8.49092 26.9182 7.34636 24.6273 7.34636C22.5 7.34636 20.4545 8.49092 19.3909 10.2895ZM21.7636 20.6723V29.093C21.7636 35.4699 27 40.7021 33.3 40.7021C39.6818 40.7021 44.9182 35.4699 44.9182 29.093V20.7541L42.9545 16.8299L42.0545 17.5656C41.3182 18.0562 40.5 18.5467 39.6818 18.9555H41.3182C41.9727 18.9555 42.5455 19.5278 42.5455 20.1818C42.5455 20.8358 41.9727 21.4081 41.3182 21.4081H38.6182C37.9636 21.4081 37.3909 20.8358 37.3909 20.1818C37.3909 20.1 37.4114 20.0387 37.4318 19.9774C37.4523 19.9161 37.4727 19.8548 37.4727 19.773C36.1636 20.1 34.7727 20.3453 33.3818 20.3453C32.1545 20.3453 30.9273 20.1818 29.7 19.8548V20.1C29.7 20.7541 29.1273 21.3263 28.4727 21.3263H25.7727C25.1182 21.3263 24.5455 20.7541 24.5455 20.1C24.5455 19.446 25.1182 18.8737 25.7727 18.8737H27C26.1818 18.5467 25.3636 18.0562 24.6273 17.4839L23.7273 16.7481L21.7636 20.6723ZM33.7909 59.5056H32.8909L30.4364 65.3919L33.3 77.6551L36.1636 65.3919L33.7909 59.5056ZM31.0909 52.066L30.6 53.5376L32.7273 56.6442H34.1182L36.1636 53.5376L35.6727 52.066L34.4455 53.2923C34.1182 53.5376 33.7909 53.7011 33.3818 53.7011C32.9727 53.7011 32.5636 53.5376 32.3182 53.2923L31.0909 52.066ZM29.0455 45.8527L33.3818 50.1856L37.7182 45.8527V42.9095C36.3273 43.3183 34.9364 43.5635 33.3818 43.5635C31.9091 43.5635 30.4364 43.3183 29.0455 42.9095V45.8527ZM43.5273 87.1386V58.1158C43.5273 56.4807 44.8364 55.1726 46.4727 55.1726H54.9V50.8397V50.5944L39.4364 47.9783L37.7182 49.6951L38.8636 53.2105C39.0273 53.6193 38.9455 54.0281 38.7 54.4369L36.2455 58.1158L38.8636 64.6562C39.0273 64.9832 39.0273 65.2284 38.9455 65.5555L34.6091 84.4407C34.4455 85.0947 33.8727 85.5853 33.2182 85.5853C32.5636 85.5853 31.9909 85.0947 31.8273 84.4407L27.4909 65.5555C27.4091 65.2284 27.4909 64.9014 27.5727 64.6562L30.1909 58.1158L27.7364 54.4369C27.4909 54.1098 27.4091 53.6193 27.5727 53.2105L28.7182 49.6951L27 47.9783L8.91818 51.0032C5.4 51.6572 2.86364 54.6004 2.86364 58.1976V87.1386H14.5636V62.4488H17.4273V87.1386H43.5273ZM47.8636 87.0568H87.0545V84.1954H46.3909V87.0568H47.8636ZM46.4727 81.334H87.0545V69.5614C85.1727 71.4418 82.6364 72.5863 79.7727 72.5863H71.1V74.0579C71.1 76.4288 69.1364 78.3909 66.7636 78.3909C64.3909 78.3909 62.4273 76.4288 62.4273 74.0579V72.5863H53.7545C50.8909 72.5863 48.3545 71.4418 46.4727 69.5614V81.334ZM28.3909 25.5776C28.3909 26.2316 27.8182 26.8039 27.1637 26.8039C26.4273 26.8039 25.8546 26.2316 25.9364 25.5776V24.2695C25.9364 23.6155 26.4273 23.0432 27.1637 23.0432C27.8182 23.0432 28.3909 23.6155 28.3909 24.2695V25.5776ZM40.0091 26.8039C40.6636 26.8039 41.2363 26.2316 41.2363 25.5776V24.2695C41.2363 23.6155 40.6636 23.0432 40.0091 23.0432C39.3545 23.0432 38.7818 23.6155 38.7818 24.2695V25.5776C38.7818 26.2316 39.3545 26.8039 40.0091 26.8039ZM39.1091 31.9543L40.9909 33.5894C39.3545 35.4697 36.7364 36.4508 33.9545 36.4508C31.3364 36.4508 28.4727 35.5515 26.1818 33.7529L27.7364 31.7908C31.3364 34.6522 36.6545 34.7339 39.1091 31.9543Z" fill="url(#paint1_linear)"/>
<defs>
<linearGradient id="paint0_linear" x1="14.028" y1="43.8448" x2="119.382" y2="43.8448" gradientUnits="userSpaceOnUse">
<stop stop-color="#47B7E5"/>
<stop offset="1" stop-color="#5369F6"/>
</linearGradient>
<linearGradient id="paint1_linear" x1="-2.67483" y1="38.7672" x2="92.1441" y2="38.7672" gradientUnits="userSpaceOnUse">
<stop stop-color="#47B7E5"/>
<stop offset="1" stop-color="#5369F6"/>
</linearGradient>
</defs>
</svg>
