<svg width="120" height="90" viewBox="0 0 120 90" fill="none" xmlns="http://www.w3.org/2000/svg">
<ellipse opacity="0.2" cx="67" cy="48" rx="50" ry="30" fill="url(#paint0_linear)"/>
<path fill-rule="evenodd" clip-rule="evenodd" d="M22.9477 5.55932C25.7759 2.81585 28.0742 1.42722 31.409 0.4477C34.2543 -0.388212 39.8373 -0.0157126 43.4298 1.24982C47.3173 2.61874 48.413 4.21051 46.5693 5.80993C45.638 6.61809 45.5486 7.12454 46.3375 7.12454C46.6467 7.12454 48.226 8.0232 49.847 9.1218C52.8221 11.138 54.3597 12.9216 55.4836 15.6599C56.3785 17.8401 56.2923 23.3142 55.3129 26.4982C54.7245 28.4113 54.6503 29.0888 55.0152 29.2106C56.2093 29.6101 58.4329 32.4075 58.8732 34.0644C59.7558 37.3855 58.1296 41.0405 55.1104 42.5213C53.5478 43.288 53.318 43.5632 53.316 44.6718C53.312 46.978 52.495 48.9902 50.9105 50.5956C50.0514 51.4661 49.3483 52.269 49.3483 52.3797C49.3483 52.4903 50.6469 52.5808 52.2338 52.5808C55.8366 52.5808 57.6659 53.6396 58.6422 56.2909C59.2047 57.8183 59.2166 58.5235 58.7498 62.5703L58.2233 67.1296L60.5216 68.7109C64.866 71.7002 69.2405 78.548 70.5844 84.4625C71.1323 86.8749 71.1354 87.3098 70.6118 88.336C70.2874 88.9715 69.7328 89.6043 69.3791 89.7419C68.2909 90.1651 2.12646 90.0315 1.33921 89.6047C-0.128908 88.8086 -0.35917 87.2285 0.497561 83.8338C1.99664 77.8947 6.05441 71.6905 10.3921 68.7061L12.6971 67.12L12.1504 62.5655C11.6589 58.4704 11.6688 57.838 12.2508 56.2909C13.2489 53.6376 15.0783 52.5808 18.6727 52.5808C20.2596 52.5808 21.5582 52.4903 21.5582 52.3797C21.5582 52.269 20.8551 51.4661 19.996 50.5956C18.4115 48.9902 17.5945 46.978 17.5905 44.6718C17.5885 43.572 17.3571 43.2872 15.877 42.5611C11.3421 40.3366 10.3655 34.3846 13.9591 30.8728C14.7599 30.0904 15.7238 29.2694 16.1018 29.0481C16.7413 28.6736 16.7167 28.4512 15.7421 25.83C14.9151 23.6046 14.6868 22.255 14.6547 19.3937C14.6035 14.8947 15.5741 12.3894 18.3277 9.91145C19.3401 9.00072 21.4192 7.04208 22.9477 5.55932ZM43.4858 4.35814L41.3551 3.76399C34.2984 1.7957 27.4322 3.73624 24.153 8.6258C23.6555 9.36759 22.4478 10.4891 21.4692 11.1179C19.0225 12.6903 17.5881 15.6108 17.5881 19.02C17.5881 23.3158 18.3865 25.5391 18.9673 22.86C19.2984 21.3334 21.6106 18.6302 23.1323 17.9918C25.2991 17.0823 28.1147 17.6672 33.8652 20.2212L39.2248 22.6014L44.5176 22.609L49.8105 22.6163L51.1388 24.0854C52.7086 25.8207 52.8277 25.6663 53.1802 21.4388C53.6189 16.1808 51.4286 12.982 45.3783 10.0454C43.7407 9.25053 42.2694 8.40375 42.109 8.164C41.5758 7.36711 41.7954 6.18162 42.6453 5.26445L43.4858 4.35814ZM34.2622 23.6698C32.1879 22.7124 29.5248 21.5849 28.3441 21.1641C25.8089 20.2606 25.2761 20.2425 23.8802 21.0108C21.9444 22.0764 21.0603 24.7507 20.7991 30.3306C20.5732 35.155 20.3084 36.054 19.1051 36.0818C18.3543 36.0987 17.5881 34.661 17.5881 33.2341C17.5881 31.6588 17.5798 31.65 16.6568 32.2626C15.4781 33.0455 14.8091 34.521 14.8091 36.3388C14.8091 38.0247 16.4507 39.9319 18.2321 40.3148C20.4092 40.7831 20.5537 41.0116 20.7642 44.3206L20.9627 47.4426L23.7417 50.001L26.5207 52.5591H35.4532H44.3858L47.1648 50.001L49.9438 47.4426L50.1423 44.3206C50.3528 41.0116 50.4973 40.7831 52.6744 40.3148C54.4558 39.9319 56.0974 38.0247 56.0974 36.3388C56.0974 34.521 55.4284 33.0455 54.2497 32.2626C53.3267 31.65 53.3184 31.6588 53.3184 33.2341C53.3184 34.7129 52.5533 36.0878 51.7304 36.0878C51.5434 36.0878 51.1094 35.8034 50.766 35.4559C50.2968 34.98 50.1423 33.9755 50.1423 31.3946C50.1423 28.921 49.9585 27.6503 49.4829 26.8345L48.8235 25.7029L43.4286 25.5568C38.0405 25.4108 38.029 25.4084 34.2622 23.6698ZM23.7357 30.4368C23.5936 29.9838 23.6928 29.3502 23.956 29.0288C24.3118 28.5948 25.3845 28.4447 28.1377 28.4447C31.2303 28.4447 31.904 28.559 32.224 29.1382C32.467 29.5783 32.469 30.0932 32.2296 30.5462C31.9072 31.1568 31.2808 31.2606 27.9229 31.2606C24.3118 31.2606 23.9727 31.1938 23.7357 30.4368ZM38.6825 30.5671C38.4395 30.127 38.4375 29.6121 38.6769 29.1592C38.9969 28.5529 39.6166 28.4447 42.7633 28.4447C46.7559 28.4447 47.6658 28.8562 47.1708 30.4368C46.9338 31.1938 46.5947 31.2606 42.9892 31.2606C39.6877 31.2606 39.0048 31.1508 38.6825 30.5671ZM26.2916 36.1188C25.0399 34.8504 24.8576 34.1123 25.6076 33.3524C25.8696 33.0869 26.9951 32.8697 28.1087 32.8697C31.2399 32.8697 31.837 33.8842 29.9591 36.0154C28.5621 37.6007 27.7764 37.6229 26.2916 36.1188ZM40.9474 36.0154C39.7091 34.6099 39.5793 34.0793 40.2967 33.3524C40.5587 33.0869 41.6842 32.8697 42.7978 32.8697C45.9448 32.8697 46.6237 34.0833 44.6149 36.1188C43.1301 37.6229 42.3444 37.6007 40.9474 36.0154ZM54.9679 69.8783C56.3658 57.5766 56.3673 57.2793 55.0513 56.2306C54.027 55.414 53.6209 55.3967 35.4532 55.3967C17.2856 55.3967 16.8795 55.414 15.8552 56.2306C15.1172 56.8187 14.8091 57.4406 14.8091 58.3425C14.8091 59.7689 16.7012 77.2068 17.0109 78.6316L17.2082 79.5408L35.5509 79.4362L53.8936 79.3316L54.9679 69.8783ZM29.4982 67.4647C29.4982 65.5302 30.9032 63.1568 32.5793 62.2602C34.4949 61.2356 36.2866 61.2295 38.2426 62.2404C40.0041 63.1512 41.4083 65.4686 41.4083 67.4647C41.4083 70.5256 38.474 73.4987 35.4532 73.4987C34.7807 73.4987 33.5254 73.1343 32.6639 72.6889C30.9024 71.7782 29.4982 69.4608 29.4982 67.4647ZM37.5752 69.5448C38.4633 68.5508 38.424 66.1561 37.5062 65.3146C36.5252 64.4147 34.1618 64.4545 33.3313 65.3846C32.4432 66.3786 32.4825 68.7733 33.4003 69.6148C34.3813 70.5147 36.7447 70.4749 37.5752 69.5448ZM14.0179 79.299L13.5538 74.9907C13.2985 72.6214 12.9222 70.6828 12.7173 70.6828C12.5125 70.6828 11.1507 71.9045 9.69135 73.3981C6.8766 76.2784 4.64545 80.0943 3.53265 83.9303C3.06881 85.5292 2.77783 86.3597 3.07232 86.7761C3.41931 87.2669 4.57913 87.1828 7.22676 87.1038L11.5541 86.9747L11.703 84.012C11.8364 81.357 11.9642 80.9584 12.9349 80.1743L14.0179 79.299ZM65.5468 79.5327C64.3308 76.9775 63.2426 75.4276 61.2405 73.3981C59.7673 71.9045 58.394 70.6828 58.1892 70.6828C57.9843 70.6828 57.61 72.6029 57.3571 74.9493L56.8973 79.2157L58.0856 80.3401C59.1888 81.3848 59.2734 81.6676 59.2734 84.3201V87.1758H63.4185C65.6985 87.1758 67.6525 87.0302 67.7609 86.8524C68.1504 86.214 67.1448 82.8901 65.5468 79.5327ZM56.0974 87.1199V84.7345V82.3486H35.4532H14.8091V84.7328V87.1167L35.4532 87.1183L56.0974 87.1199ZM27.1589 47.3434C32.6487 51.9529 41.0457 52.2309 45.2359 47.1489L42.9212 45.2404C40.1068 48.6539 33.7162 48.9319 29.0881 45.0459L27.1589 47.3434Z" fill="url(#paint1_linear)"/>
<defs>
<linearGradient id="paint0_linear" x1="170.167" y1="34.6379" x2="61.8835" y2="-53.2042" gradientUnits="userSpaceOnUse">
<stop stop-color="#939DFF"/>
<stop offset="1" stop-color="#A385E6"/>
</linearGradient>
<linearGradient id="paint1_linear" x1="108.748" y1="24.9569" x2="-2.34718" y2="-17.7017" gradientUnits="userSpaceOnUse">
<stop stop-color="#939DFF"/>
<stop offset="1" stop-color="#A385E6"/>
</linearGradient>
</defs>
</svg>
