<svg width="120" height="90" viewBox="0 0 120 90" fill="none" xmlns="http://www.w3.org/2000/svg">
<ellipse opacity="0.2" cx="67" cy="48" rx="50" ry="30" fill="url(#paint0_linear)"/>
<path fill-rule="evenodd" clip-rule="evenodd" d="M97.0118 72.3295C97.7596 72.3295 99.2553 73.4061 99.7123 74.2758C100.252 75.3524 100.252 76.6362 99.6708 77.6714C99.2138 78.5411 97.7596 79.6177 96.9702 79.6177C96.5963 79.6177 96.4717 80.0319 96.347 81.6055C96.0978 84.8355 94.7267 86.1192 91.4861 86.1192C90.2397 86.1192 89.9073 86.2435 89.9073 86.5747C89.9073 87.403 89.0348 88.7281 88.1208 89.2664C87.4145 89.6805 86.7082 89.8048 84.8386 89.8048C80.6008 89.8048 79.6868 88.6039 79.6868 83.0548V79.6177H68.3445H63.9821V89.1836L62.9019 89.5977C62.4864 89.7634 58.0824 89.8462 51.7673 89.929C34.1099 90.0947 1.57878 89.9704 0.789389 89.5563C0.0415468 89.1422 0 88.5625 0 77.7543C0 64.5442 0.249281 63.2605 3.57303 59.9477C5.35954 58.167 5.8581 57.9599 14.2506 55.2682C21.9783 52.825 23.0585 52.3281 23.1831 51.5413C23.3078 50.6717 23.1831 50.6302 20.1502 50.6302C18.4052 50.6302 15.5385 50.3404 13.7935 49.9677C10.0959 49.2223 4.48705 46.6962 2.53435 44.8742C1.41259 43.8389 1.28795 43.5076 1.66187 42.8036C1.91115 42.3481 2.49281 41.9754 2.94982 41.9754C4.15468 41.9754 6.14893 40.8987 6.64749 39.9463C6.85522 39.4908 7.06296 36.2607 7.06296 32.4095C7.06296 20.1106 8.18472 15.3069 12.3394 9.75788C16.0371 4.74718 22.6846 0.937398 28.875 0.233416C30.5369 0.0677727 32.365 -0.0564594 32.9466 0.026362C33.4867 0.109183 35.024 0.274826 36.2704 0.399058C41.4222 0.937398 48.0696 4.95424 51.6427 9.63365C55.8805 15.2241 57.0022 20.0277 57.0022 32.6166C57.0022 39.4079 57.0022 39.5736 57.9993 40.5674C58.5394 41.1058 59.495 41.6855 60.1598 41.8098C62.2371 42.2653 62.3618 42.3895 62.3618 43.4248C62.3618 44.1702 61.8216 44.7913 60.4506 45.7438C55.8805 48.891 49.7315 50.7131 43.8319 50.7131C40.799 50.7131 40.6743 50.7545 40.799 51.6241C40.9236 52.4109 42.0454 52.8664 49.7315 55.3511C58.124 58.0428 58.6225 58.2498 60.409 60.0305C63.2342 62.8464 63.8574 64.1715 63.9821 72.3295H68.386H79.7283V68.8924C79.7283 63.3433 80.6423 62.1424 84.8801 62.1424C86.7497 62.1424 87.456 62.2667 88.1623 62.6808C89.0763 63.2605 89.9488 64.5443 89.9488 65.3725C89.9488 65.7452 90.2812 65.828 91.5276 65.828C94.7267 65.828 96.0978 67.0703 96.3886 70.3417C96.5132 71.9154 96.6379 72.3295 97.0118 72.3295ZM9.1403 45.4953C11.6747 46.6548 16.3279 47.8143 18.4052 47.8143H19.4855L17.782 45.868C15.4139 43.1349 13.6689 39.3665 13.2119 35.7224C12.6718 31.7884 12.6718 24.1274 13.1703 22.8023C13.5443 21.8084 13.6689 21.767 18.6961 21.6428C25.1774 21.4771 27.1301 20.6489 29.5398 17.0462C30.5369 15.5968 31.4509 14.6858 31.9079 14.6858C32.4065 14.6858 33.279 15.5968 34.2761 17.0462C36.7274 20.6489 38.6385 21.4771 45.1198 21.6428C50.147 21.767 50.2716 21.8084 50.6456 22.8023C51.1441 24.1274 51.1026 31.7884 50.604 35.7224C50.147 39.3665 48.4436 43.1349 46.0339 45.868L44.3304 47.8143H45.4938C48.6929 47.7729 57.2515 45.0398 57.2515 44.0459C57.2515 43.8803 56.8776 43.549 56.4621 43.3005C56.0466 43.0521 55.2572 42.1825 54.7171 41.3128C53.8031 39.7806 53.7616 39.3251 53.5538 29.3866L53.3461 19.0339L51.6011 15.4726C49.1914 10.5447 46.117 7.48029 41.256 5.11988C37.7245 3.38063 37.4752 3.33922 32.822 3.21499C28.6673 3.13217 27.6702 3.21499 25.3435 4.0432C18.156 6.56925 13.1288 11.7456 11.0514 18.8268C10.5529 20.5247 10.3867 22.9679 10.3867 29.0553C10.3867 38.5383 10.0128 40.6917 8.06008 42.638C7.27069 43.4248 6.64749 44.1288 6.64749 44.2116C6.64749 44.2944 7.76925 44.8742 9.1403 45.4953ZM16.2448 31.2086C16.3694 37.3788 16.4525 37.7929 17.6158 40.1533C19.1946 43.3006 21.9783 46.0751 25.0943 47.6073C27.3793 48.7254 27.961 48.8082 31.9495 48.8082C35.938 48.8082 36.5196 48.7254 38.8047 47.6073C40.1758 46.9447 42.17 45.5367 43.2087 44.5015C44.2473 43.4248 45.6599 41.4785 46.3247 40.1119C47.488 37.7515 47.5711 37.3788 47.6957 31.1672L47.8204 24.7071L43.541 24.5415C38.597 24.3344 36.1873 23.4234 33.5698 20.8145C32.7389 19.9449 31.9495 19.2823 31.9079 19.2823C31.8825 19.2823 31.6088 19.5609 31.21 19.9666C30.9564 20.2246 30.6522 20.534 30.3292 20.8559C27.8364 23.4234 25.3851 24.3344 20.3995 24.5829L16.1202 24.7486L16.2448 31.2086ZM29.0828 73.2819C29.0828 73.7788 29.706 73.9031 31.991 73.9031C34.3177 73.9031 34.8993 73.7788 34.8993 73.2819C34.8993 72.785 34.3177 72.6607 31.991 72.6607C29.706 72.6607 29.0828 72.785 29.0828 73.2819ZM34.8993 78.8724V76.8018H31.991H29.0828V78.8724V80.9429H31.991H34.8993V78.8724ZM27.2547 62.0182C29.6644 65.3725 31.8249 68.1056 31.991 68.1056C32.1572 68.1056 34.3177 65.3725 36.7274 61.9768C40.3004 57.0489 41.0067 55.848 40.5081 55.5581C39.8434 55.1854 39.8018 55.2268 35.2317 60.6102C32.0741 64.3372 31.7833 64.2544 27.6702 59.3679C25.8837 57.2145 24.2633 55.3925 24.1387 55.3511C23.9725 55.3097 23.6401 55.4339 23.3493 55.5995C22.9754 55.848 24.0556 57.5872 27.2547 62.0182ZM27.8779 51.7483C26.3822 51.4999 26.1745 51.5827 26.1745 52.2453C26.1745 53.0735 31.2847 59.6164 31.9495 59.6164C32.6142 59.6164 37.8076 53.0735 37.8076 52.2453C37.8076 51.5413 37.5999 51.4999 36.1042 51.7483C35.1901 51.914 33.3205 52.0382 31.991 52.0382C30.6615 52.0382 28.7919 51.914 27.8779 51.7483ZM9.97123 86.7404V84.0487V81.357H6.43975H2.90828V84.0487V86.7404H6.43975H9.97123ZM13.295 86.7404H31.991V86.6576H46.8232V86.6162C46.8232 86.202 46.5324 86.1192 45.2445 86.1192C42.0038 86.1192 40.5497 84.7941 40.3419 81.564C40.2173 80.0318 40.0927 79.6177 39.7187 79.6177C39.4695 79.6177 38.8463 79.3693 38.3477 79.0794C38.1944 79.0183 38.0637 78.9121 37.939 78.8107C37.8947 78.7747 37.8511 78.7393 37.8076 78.7067V83.4275L36.7274 83.8416C36.1457 84.0901 34.0268 84.2557 31.991 84.2557C29.9552 84.2557 27.8364 84.0487 27.2547 83.8416L26.1745 83.4275V76.7604V70.0933L27.4209 69.6792C28.0856 69.4721 28.6673 69.1823 28.6673 69.0994C28.6673 69.0166 26.7146 66.2835 24.388 63.1363C21.6874 59.3679 19.8178 57.1731 19.3193 57.1317C18.0729 57.0075 7.8108 60.4446 6.35666 61.4799C5.65036 61.9768 4.57015 63.3433 3.98849 64.5442C2.99137 66.532 2.90828 67.1117 2.90828 72.4123V78.127H6.43975H9.92969L10.0543 76.1392C10.179 74.1515 10.179 74.1515 11.6331 74.1515H13.0457L13.1703 80.446L13.295 86.7404ZM40.2173 76.015C40.2173 74.8555 40.0096 74.6485 39.4279 75.2282C39.0124 75.6423 39.0124 76.3463 39.4279 76.8018C40.0096 77.3816 40.2173 77.1745 40.2173 76.015ZM46.7817 68.354H45.4107C44.5803 68.354 44.0265 68.3363 43.6586 68.589C42.9035 69.1078 42.9315 70.7662 42.9594 76.0564C42.9594 81.2854 42.9219 82.9276 43.6652 83.4422C44.0285 83.6938 44.5785 83.676 45.4107 83.676H46.7817V76.015V68.354ZM54.3848 81.357C54.4263 80.3217 54.4263 79.2036 54.4263 78.0441C54.4679 72.2466 54.3432 65.6623 54.1355 65.2068C53.8862 64.7513 53.5538 64.6685 51.9335 64.6685C50.8117 64.6685 49.8562 64.7927 49.6484 64.9998C49.1914 65.4967 49.1499 84.38 49.5653 86.7404C49.5812 86.7878 49.591 86.8292 49.5994 86.8646C49.6129 86.9218 49.6227 86.9632 49.6484 86.9888C49.8562 87.1959 50.8117 87.3201 51.9335 87.3201C53.5123 87.3201 53.8862 87.2373 54.1355 86.7818V86.7404C54.2601 86.3677 54.3432 84.2143 54.3848 81.357ZM48.5682 62.6808C49.2745 62.2667 49.9808 62.1424 51.8504 62.1424C56.0882 62.1424 57.0022 63.3433 57.0022 68.9338V72.3709H61.0738C61.0738 67.0703 60.9907 66.532 59.9936 64.5028C59.3288 63.1777 58.3317 61.9768 57.4177 61.3556C55.7143 60.2375 45.1198 56.8419 44.3304 57.1317C43.915 57.2974 35.3563 68.7681 35.3563 69.1822C35.3563 69.2651 35.8964 69.5135 36.6027 69.762L37.8491 70.1761V73.3233C38.4308 72.7436 39.2202 72.3295 39.7187 72.3295C40.0927 72.3295 40.2173 71.9154 40.3419 70.3417C40.5912 67.1117 41.9623 65.828 45.2029 65.828C46.4493 65.828 46.7817 65.7038 46.7817 65.3725C46.7817 64.5443 47.6542 63.2191 48.5682 62.6808ZM61.0738 86.7404V84.0487V81.357H57.5423H57.0022V83.1376C57.0022 84.6698 56.9191 85.8293 56.7529 86.7404H57.5423H61.0738ZM79.6868 77.1331V76.015V74.8969H68.3445H63.9821H61.0738H57.0022V76.015V77.1331H61.0738H63.9821H68.3445H79.6868ZM84.797 87.3201C85.8772 87.3201 86.8328 87.1959 87.0406 86.9888C87.4976 86.4919 87.4976 65.4967 87.0406 65.0412C86.8744 64.8755 85.9188 64.7099 84.797 64.7099C83.2183 64.7099 82.8443 64.7927 82.595 65.2482C82.4289 65.5795 82.3042 69.5135 82.3042 76.015C82.3042 82.5165 82.3873 86.4505 82.595 86.7818C82.8443 87.2373 83.1767 87.3201 84.797 87.3201ZM89.9073 83.6346H91.2783C92.1126 83.6346 92.6678 83.6525 93.0357 83.3989C93.7853 82.882 93.7575 81.2374 93.7296 76.015C93.7296 69.5549 93.688 69.1408 93.1895 68.7681C92.8987 68.5197 92.0262 68.354 91.2783 68.354H89.9073V75.9736V83.6346ZM96.4717 75.9736C96.4717 77.2159 96.8456 77.3816 97.4273 76.4705C97.635 76.1392 97.635 75.8494 97.4273 75.4767C96.8456 74.5656 96.4717 74.7313 96.4717 75.9736ZM26.1744 30.4217V27.5229H24.7203H23.2661V30.4217V33.3204H24.7203H26.1744V30.4217ZM40.716 30.4217V33.3204H39.2619H37.8077V30.4217V27.5229H39.2619H40.716V30.4217ZM33.5289 46.1165C31.7008 46.5306 29.3327 46.0751 27.8785 44.9984C26.2998 43.8803 24.9287 41.6441 24.9287 40.2776C24.9287 39.2009 25.0534 39.0767 26.3828 39.0767C27.5877 39.0767 27.837 39.2423 27.837 39.9463C27.837 40.4018 28.3771 41.3542 29.0418 42.0168C29.9974 42.9693 30.6206 43.2177 31.9917 43.2177C33.3627 43.2177 33.9859 42.9693 34.9415 42.0168C35.6062 41.3542 36.1463 40.4018 36.1463 39.9463C36.1463 39.2423 36.3956 39.0767 37.6005 39.0767C38.93 39.0767 39.0546 39.2009 39.0546 40.2776C39.0546 42.5966 36.3541 45.4953 33.5289 46.1165Z" fill="url(#paint1_linear)"/>
<defs>
<linearGradient id="paint0_linear" x1="170.167" y1="34.6379" x2="61.8835" y2="-53.2042" gradientUnits="userSpaceOnUse">
<stop stop-color="#50E3C2"/>
<stop offset="1" stop-color="#52FF82"/>
</linearGradient>
<linearGradient id="paint1_linear" x1="120.135" y1="90" x2="4.35677" y2="-29.821" gradientUnits="userSpaceOnUse">
<stop stop-color="#65E798"/>
<stop offset="1" stop-color="#55A4F3"/>
</linearGradient>
</defs>
</svg>
