<svg width="18" height="15" viewBox="0 0 18 15" fill="none" xmlns="http://www.w3.org/2000/svg">
<path d="M17.36 2.55001L15.266 0.450014C15.1957 0.379483 15.1002 0.339844 15.0005 0.339844C14.9009 0.339844 14.8054 0.379483 14.735 0.450014L5.89105 9.30001C5.82069 9.37055 5.72517 9.41018 5.62555 9.41018C5.52592 9.41018 5.4304 9.37055 5.36004 9.30001L3.26604 7.20001C3.19569 7.12948 3.10017 7.08984 3.00055 7.08984C2.90092 7.08984 2.8054 7.12948 2.73504 7.20001L0.641045 9.30001C0.494652 9.44645 0.494652 9.68383 0.641045 9.83026L5.36004 14.55C5.4304 14.6205 5.52592 14.6602 5.62555 14.6602C5.72517 14.6602 5.82069 14.6205 5.89105 14.55L17.36 3.07501C17.503 2.9292 17.503 2.69583 17.36 2.55001Z" fill="url(#paint0_linear)"/>
<defs>
<linearGradient id="paint0_linear" x1="17.4672" y1="14.6602" x2="2.38625" y2="-1.40186" gradientUnits="userSpaceOnUse">
<stop offset="0.0011704" stop-color="#d81b5c"/>
<stop offset="1" stop-color="#d81b5c"/>
</linearGradient>
</defs>
</svg>
