<svg width="25" height="25" viewBox="0 0 25 25" fill="none" xmlns="http://www.w3.org/2000/svg">
<path fill-rule="evenodd" clip-rule="evenodd" d="M12.5 2.27273C6.85163 2.27273 2.27273 6.85163 2.27273 12.5C2.27273 18.1484 6.85163 22.7273 12.5 22.7273C18.1484 22.7273 22.7273 18.1484 22.7273 12.5C22.7273 6.85163 18.1484 2.27273 12.5 2.27273ZM0 12.5C0 5.59644 5.59644 0 12.5 0C19.4036 0 25 5.59644 25 12.5C25 19.4036 19.4036 25 12.5 25C5.59644 25 0 19.4036 0 12.5Z" fill="#000000"/>
<path fill-rule="evenodd" clip-rule="evenodd" d="M16.7132 8.28742C17.1569 8.7312 17.1569 9.45071 16.7132 9.89448L9.89497 16.7127C9.45119 17.1564 8.73169 17.1564 8.28791 16.7127C7.84413 16.2689 7.84413 15.5494 8.28791 15.1056L15.1061 8.28742C15.5499 7.84365 16.2694 7.84365 16.7132 8.28742Z" fill="#000000"/>
<path fill-rule="evenodd" clip-rule="evenodd" d="M8.28791 8.28742C8.73169 7.84365 9.45119 7.84365 9.89497 8.28742L16.7132 15.1056C17.1569 15.5494 17.1569 16.2689 16.7132 16.7127C16.2694 17.1564 15.5499 17.1564 15.1061 16.7127L8.28791 9.89448C7.84413 9.45071 7.84413 8.7312 8.28791 8.28742Z" fill="#000000"/>
</svg>
