<svg width="13" height="8" viewBox="0 0 13 8" fill="none" xmlns="http://www.w3.org/2000/svg">
<path d="M6.4286 5.36171L1.8906 0.823706C1.72962 0.663118 1.51143 0.573058 1.28404 0.573339C1.05665 0.57362 0.838691 0.66422 0.678102 0.825206C0.517514 0.986193 0.427454 1.20438 0.427735 1.43177C0.428017 1.65915 0.518616 1.87712 0.679602 2.03771L5.8196 7.17871C5.97564 7.33438 6.18572 7.42386 6.40609 7.42852C6.62645 7.43318 6.84012 7.35265 7.0026 7.20371L12.1786 2.04071C12.3319 1.87863 12.416 1.66314 12.4129 1.44005C12.4099 1.21696 12.32 1.00386 12.1623 0.846029C12.0046 0.688201 11.7915 0.598094 11.5685 0.59486C11.3454 0.591625 11.1298 0.675517 10.9676 0.828707L6.4286 5.36171Z" fill="#D0006E"/>
</svg>
