<svg width="7" height="12" viewBox="0 0 7 12" fill="none" xmlns="http://www.w3.org/2000/svg">
<g clip-path="url(#clip0)">
<path d="M4.79042 6.00011L0.252417 10.5381C0.0918285 10.6991 0.00176862 10.9173 0.00204992 11.1447C0.00233123 11.3721 0.0929308 11.59 0.253917 11.7506C0.414904 11.9112 0.63309 12.0013 0.860478 12.001C1.08787 12.0007 1.30583 11.9101 1.46642 11.7491L6.60742 6.60911C6.76309 6.45307 6.85257 6.24299 6.85723 6.02262C6.86189 5.80226 6.78136 5.58859 6.63242 5.42611L1.46942 0.250109C1.30734 0.0967855 1.09185 0.0127146 0.868762 0.0157652C0.645673 0.0188157 0.432567 0.108747 0.274739 0.266445C0.116911 0.424143 0.0268048 0.637174 0.0235701 0.860261C0.0203354 1.08335 0.104228 1.2989 0.257417 1.46111L4.79042 6.00011Z" fill="#D0006E"/>
</g>
<defs>
<clipPath id="clip0">
<rect width="6.857" height="12" fill="white"/>
</clipPath>
</defs>
</svg>
