<svg width="36" height="36" viewBox="0 0 36 36" fill="none" xmlns="http://www.w3.org/2000/svg">
<path d="M35 18C35 21.3623 34.003 24.6491 32.135 27.4447C30.267 30.2403 27.612 32.4193 24.5056 33.706C21.3993 34.9926 17.9811 35.3293 14.6835 34.6734C11.3858 34.0174 8.35668 32.3983 5.97919 30.0208C3.6017 27.6433 1.98261 24.6142 1.32666 21.3165C0.670707 18.0189 1.00737 14.6007 2.29406 11.4944C3.58075 8.38804 5.75968 5.733 8.55531 3.86502C11.3509 1.99703 14.6377 1 18 1C22.5087 1 26.8327 2.79107 30.0208 5.97918C33.2089 9.1673 35 13.4913 35 18Z" stroke="#D0006F" stroke-linecap="round" stroke-linejoin="round"/>
<path d="M22.6667 10H13.7778C12.8 10 12.0089 10.8 12.0089 11.7778L12 26L18.2222 23.3333L24.4444 26V11.7778C24.4444 10.8 23.6444 10 22.6667 10ZM23.1111 24.2222L18.2222 22L13.3333 24.2222V11.3333L23.1111 11.511V24.2222Z" fill="#D0006F"/>
</svg>
