<svg xmlns="http://www.w3.org/2000/svg" width="19.911" height="20" viewBox="0 0 19.911 20">
  <path id="Icon:_Phone" data-name="Icon: Phone" d="M17.106,39.328a2.088,2.088,0,0,0-1.514-.694,2.159,2.159,0,0,0-1.532.69l-1.416,1.411c-.116-.063-.233-.121-.345-.179-.161-.081-.314-.157-.444-.237a15.388,15.388,0,0,1-3.687-3.36,9.078,9.078,0,0,1-1.21-1.909c.367-.336.708-.685,1.039-1.022.125-.125.251-.255.376-.381a2.056,2.056,0,0,0,0-3.1L7.151,29.324c-.139-.139-.282-.282-.417-.426-.269-.278-.551-.565-.842-.833a2.121,2.121,0,0,0-1.5-.659,2.195,2.195,0,0,0-1.523.659l-.009.009L1.335,29.61a3.278,3.278,0,0,0-.972,2.083,7.854,7.854,0,0,0,.573,3.324,19.291,19.291,0,0,0,3.427,5.717,21.084,21.084,0,0,0,7.021,5.5A10.939,10.939,0,0,0,15.327,47.4c.094,0,.193.009.282.009a3.376,3.376,0,0,0,2.585-1.111c0-.009.013-.013.018-.022A10.184,10.184,0,0,1,19,45.462c.193-.184.39-.376.582-.578a2.235,2.235,0,0,0,.677-1.55,2.153,2.153,0,0,0-.69-1.537Zm1.6,4.718s0,0,0,0c-.175.188-.354.358-.547.547a11.779,11.779,0,0,0-.865.9,2.16,2.16,0,0,1-1.685.712c-.067,0-.139,0-.206,0a9.717,9.717,0,0,1-3.495-1.048A19.9,19.9,0,0,1,5.3,39.969,18.189,18.189,0,0,1,2.074,34.6a6.4,6.4,0,0,1-.5-2.8,2.057,2.057,0,0,1,.618-1.331l1.528-1.528a1.018,1.018,0,0,1,.681-.318.958.958,0,0,1,.654.314l.013.013c.273.255.533.52.806.8.139.143.282.287.426.435L7.522,31.4a.855.855,0,0,1,0,1.389c-.13.13-.255.26-.385.385-.376.385-.735.744-1.125,1.093-.009.009-.018.013-.022.022a.914.914,0,0,0-.233,1.017l.013.04a9.82,9.82,0,0,0,1.447,2.361l0,0a16.444,16.444,0,0,0,3.978,3.62,6.115,6.115,0,0,0,.551.3c.161.081.314.157.444.237.018.009.036.022.054.031a.971.971,0,0,0,.444.112.958.958,0,0,0,.681-.309l1.532-1.532a1.014,1.014,0,0,1,.677-.336.912.912,0,0,1,.645.327l.009.009,2.469,2.469A.886.886,0,0,1,18.71,44.046Z" transform="translate(-0.344 -27.406)"/>
</svg>