<svg width="36" height="36" viewBox="0 0 36 36" fill="none" xmlns="http://www.w3.org/2000/svg">
<path d="M35 18C35 21.3623 34.003 24.6491 32.135 27.4447C30.267 30.2403 27.612 32.4193 24.5056 33.706C21.3993 34.9926 17.9811 35.3293 14.6835 34.6734C11.3858 34.0174 8.35668 32.3983 5.97919 30.0208C3.6017 27.6433 1.98261 24.6142 1.32666 21.3165C0.670707 18.0189 1.00737 14.6007 2.29406 11.4944C3.58075 8.38804 5.75968 5.733 8.55531 3.86502C11.3509 1.99703 14.6377 1 18 1C22.5087 1 26.8327 2.79107 30.0208 5.97918C33.2089 9.1673 35 13.4913 35 18Z" stroke="#D0006F" stroke-linecap="round" stroke-linejoin="round"/>
<g clip-path="url(#clip0)">
<path d="M25.6373 12.962C25.386 13.0734 25.1275 13.1675 24.8635 13.2439C25.1761 12.8904 25.4144 12.4744 25.5599 12.0191C25.5926 11.9171 25.5588 11.8054 25.4749 11.7387C25.3911 11.6719 25.2747 11.6639 25.1825 11.7186C24.6217 12.0511 24.0167 12.2902 23.3823 12.4299C22.7433 11.8055 21.8754 11.4502 20.9782 11.4502C19.0842 11.4502 17.5434 12.991 17.5434 14.8848C17.5434 15.034 17.5528 15.1823 17.5715 15.3286C15.2213 15.1223 13.0364 13.9671 11.536 12.1267C11.4825 12.0611 11.4002 12.0257 11.3158 12.0325C11.2314 12.0391 11.1556 12.0867 11.113 12.1598C10.8087 12.682 10.6478 13.2792 10.6478 13.8868C10.6478 14.7144 10.9433 15.4997 11.4652 16.1132C11.3065 16.0583 11.1525 15.9896 11.0055 15.908C10.9266 15.864 10.8303 15.8647 10.7519 15.9097C10.6734 15.9546 10.6243 16.0373 10.6222 16.1277C10.6218 16.1429 10.6218 16.1581 10.6218 16.1736C10.6218 17.4089 11.2867 18.5211 12.3032 19.1273C12.2159 19.1186 12.1286 19.106 12.0419 19.0894C11.9525 19.0723 11.8606 19.1036 11.8003 19.1718C11.7399 19.2399 11.7199 19.3349 11.7478 19.4216C12.124 20.5963 13.0927 21.4604 14.2638 21.7238C13.2925 22.3322 12.1818 22.6508 11.0157 22.6508C10.7724 22.6508 10.5277 22.6365 10.2883 22.6082C10.1693 22.5941 10.0555 22.6643 10.015 22.7774C9.9745 22.8906 10.0174 23.0168 10.1187 23.0817C11.6166 24.0422 13.3487 24.5498 15.1275 24.5498C18.6245 24.5498 20.8121 22.9008 22.0315 21.5174C23.552 19.7925 24.424 17.5093 24.424 15.2533C24.424 15.1591 24.4226 15.0639 24.4197 14.969C25.0196 14.5171 25.5361 13.9701 25.9564 13.3414C26.0202 13.2459 26.0133 13.1197 25.9393 13.0318C25.8655 12.9438 25.7424 12.9154 25.6373 12.962Z" fill="#D0006F"/>
</g>
<defs>
<clipPath id="clip0">
<rect width="16" height="16" fill="white" transform="translate(10 10)"/>
</clipPath>
</defs>
</svg>
